<svg width="88" height="100" viewBox="0 0 88 100" fill="none" xmlns="http://www.w3.org/2000/svg">
<g filter="url(#filter0_d_1681_153)">
<path d="M50.375 0C51.2038 0 51.9987 0.32924 52.5847 0.915291C53.1708 1.50134 53.5 2.2962 53.5 3.125C53.5 3.9538 53.8292 4.74866 54.4153 5.33471C55.0013 5.92076 55.7962 6.25 56.625 6.25C57.4538 6.25 58.2487 6.57924 58.8347 7.16529C59.4208 7.75134 59.75 8.5462 59.75 9.375V12.5C59.75 13.3288 59.4208 14.1237 58.8347 14.7097C58.2487 15.2958 57.4538 15.625 56.625 15.625H25.375C24.5462 15.625 23.7513 15.2958 23.1653 14.7097C22.5792 14.1237 22.25 13.3288 22.25 12.5V9.375C22.25 8.5462 22.5792 7.75134 23.1653 7.16529C23.7513 6.57924 24.5462 6.25 25.375 6.25C26.2038 6.25 26.9987 5.92076 27.5847 5.33471C28.1708 4.74866 28.5 3.9538 28.5 3.125C28.5 2.2962 28.8292 1.50134 29.4153 0.915291C30.0013 0.32924 30.7962 0 31.625 0L50.375 0Z" fill="#1959AB"/>
<path d="M9.75 15.625C9.75 14.7962 10.0792 14.0013 10.6653 13.4153C11.2513 12.8292 12.0462 12.5 12.875 12.5H16C16.8288 12.5 17.6237 12.1708 18.2097 11.5847C18.7958 10.9987 19.125 10.2038 19.125 9.375C19.125 8.5462 18.7958 7.75134 18.2097 7.16529C17.6237 6.57924 16.8288 6.25 16 6.25H12.875C10.3886 6.25 8.00403 7.23772 6.24587 8.99587C4.48772 10.754 3.5 13.1386 3.5 15.625V90.625C3.5 93.1114 4.48772 95.496 6.24587 97.2541C8.00403 99.0123 10.3886 100 12.875 100H69.125C71.6114 100 73.996 99.0123 75.7541 97.2541C77.5123 95.496 78.5 93.1114 78.5 90.625V15.625C78.5 13.1386 77.5123 10.754 75.7541 8.99587C73.996 7.23772 71.6114 6.25 69.125 6.25H66C65.1712 6.25 64.3763 6.57924 63.7903 7.16529C63.2042 7.75134 62.875 8.5462 62.875 9.375C62.875 10.2038 63.2042 10.9987 63.7903 11.5847C64.3763 12.1708 65.1712 12.5 66 12.5H69.125C69.9538 12.5 70.7487 12.8292 71.3347 13.4153C71.9208 14.0013 72.25 14.7962 72.25 15.625V90.625C72.25 91.4538 71.9208 92.2487 71.3347 92.8347C70.7487 93.4208 69.9538 93.75 69.125 93.75H12.875C12.0462 93.75 11.2513 93.4208 10.6653 92.8347C10.0792 92.2487 9.75 91.4538 9.75 90.625V15.625Z" fill="#1959AB"/>
<path d="M53.5 43.75C53.5 42.0924 54.1585 40.5027 55.3306 39.3306C56.5027 38.1585 58.0924 37.5 59.75 37.5C61.4076 37.5 62.9973 38.1585 64.1694 39.3306C65.3415 40.5027 66 42.0924 66 43.75V75C66 76.6576 65.3415 78.2473 64.1694 79.4194C62.9973 80.5915 61.4076 81.25 59.75 81.25C58.0924 81.25 56.5027 80.5915 55.3306 79.4194C54.1585 78.2473 53.5 76.6576 53.5 75V43.75ZM16 68.75C16 67.0924 16.6585 65.5027 17.8306 64.3306C19.0027 63.1585 20.5924 62.5 22.25 62.5C23.9076 62.5 25.4973 63.1585 26.6694 64.3306C27.8415 65.5027 28.5 67.0924 28.5 68.75V75C28.5 76.6576 27.8415 78.2473 26.6694 79.4194C25.4973 80.5915 23.9076 81.25 22.25 81.25C20.5924 81.25 19.0027 80.5915 17.8306 79.4194C16.6585 78.2473 16 76.6576 16 75V68.75ZM41 50C39.3424 50 37.7527 50.6585 36.5806 51.8306C35.4085 53.0027 34.75 54.5924 34.75 56.25V75C34.75 76.6576 35.4085 78.2473 36.5806 79.4194C37.7527 80.5915 39.3424 81.25 41 81.25C42.6576 81.25 44.2473 80.5915 45.4194 79.4194C46.5915 78.2473 47.25 76.6576 47.25 75V56.25C47.25 54.5924 46.5915 53.0027 45.4194 51.8306C44.2473 50.6585 42.6576 50 41 50Z" fill="#1959AB"/>
</g>
<defs>
<filter id="filter0_d_1681_153" x="0.5" y="-3" width="87" height="112" filterUnits="userSpaceOnUse" color-interpolation-filters="sRGB">
<feFlood flood-opacity="0" result="BackgroundImageFix"/>
<feColorMatrix in="SourceAlpha" type="matrix" values="0 0 0 0 0 0 0 0 0 0 0 0 0 0 0 0 0 0 127 0" result="hardAlpha"/>
<feOffset dx="3" dy="3"/>
<feGaussianBlur stdDeviation="3"/>
<feComposite in2="hardAlpha" operator="out"/>
<feColorMatrix type="matrix" values="0 0 0 0 0.2 0 0 0 0 0.2 0 0 0 0 0.2 0 0 0 0.25 0"/>
<feBlend mode="normal" in2="BackgroundImageFix" result="effect1_dropShadow_1681_153"/>
<feBlend mode="normal" in="SourceGraphic" in2="effect1_dropShadow_1681_153" result="shape"/>
</filter>
</defs>
</svg>
