<svg width="99" height="97" viewBox="0 0 99 97" fill="none" xmlns="http://www.w3.org/2000/svg">
<g filter="url(#filter0_d_1675_167)">
<path fill-rule="evenodd" clip-rule="evenodd" d="M3.16797 3.25V72.9245H58.8752V67.9478H8.14472V8.22675H75.3309V13.5021H80.3076V3.25H3.16797ZM80.3076 28.1338C80.3076 29.4537 79.7833 30.7195 78.85 31.6528C77.9166 32.5862 76.6508 33.1105 75.3309 33.1105C74.0109 33.1105 72.7451 32.5862 71.8118 31.6528C70.8784 30.7195 70.3541 29.4537 70.3541 28.1338C70.3541 26.8138 70.8784 25.548 71.8118 24.6147C72.7451 23.6813 74.0109 23.157 75.3309 23.157C76.6508 23.157 77.9166 23.6813 78.85 24.6147C79.7833 25.548 80.3076 26.8138 80.3076 28.1338ZM85.2844 28.1338C85.2844 30.7736 84.2357 33.3053 82.369 35.1719C80.5024 37.0386 77.9707 38.0873 75.3309 38.0873C72.691 38.0873 70.1593 37.0386 68.2927 35.1719C66.426 33.3053 65.3774 30.7736 65.3774 28.1338C65.3774 25.4939 66.426 22.9622 68.2927 21.0956C70.1593 19.2289 72.691 18.1803 75.3309 18.1803C77.9707 18.1803 80.5024 19.2289 82.369 21.0956C84.2357 22.9622 85.2844 25.4939 85.2844 28.1338Z" fill="#1959AB"/>
<path fill-rule="evenodd" clip-rule="evenodd" d="M63.1228 42.641C64.5106 41.3162 66.3552 40.5766 68.2738 40.5757H78.4313C82.0743 40.5757 85.466 41.8149 88.0788 44.2834C90.592 46.6573 91.9009 49.7006 92.4359 52.5846C93.277 57.1184 92.406 62.0728 90.2635 66.4647V86.6106C90.2636 88.1717 89.6767 89.6758 88.6194 90.8243C87.562 91.9728 86.1115 92.6818 84.5557 92.8106C82.9999 92.9394 81.4526 92.4785 80.2208 91.5194C78.989 90.5603 78.1629 89.1732 77.9063 87.6333L76.5775 79.6606L75.2487 87.6333C74.9921 89.1732 74.1659 90.5603 72.9342 91.5194C71.7024 92.4785 70.155 92.9394 68.5993 92.8106C67.0435 92.6818 65.5929 91.9728 64.5356 90.8243C63.4782 89.6758 62.8914 88.1717 62.8914 86.6106V63.2025C61.7566 63.8577 60.4693 64.2028 59.1589 64.2028H46.4632C44.4833 64.2028 42.5845 63.4163 41.1845 62.0163C39.7845 60.6163 38.998 58.7176 38.998 56.7377C38.998 54.7578 39.7845 52.859 41.1845 51.459C42.5845 50.0591 44.4833 49.2726 46.4632 49.2726H56.1678L63.1228 42.6385V42.641ZM67.8682 71.6182V86.6106C67.869 86.9223 67.9868 87.2223 68.1982 87.4513C68.4097 87.6803 68.6994 87.8215 69.01 87.8472C69.3206 87.8728 69.6295 87.781 69.8756 87.5898C70.1218 87.3986 70.2872 87.122 70.3391 86.8147L72.9345 71.2474C73.0311 70.6664 73.3307 70.1384 73.7799 69.7575C74.2292 69.3766 74.799 69.1674 75.388 69.1671H77.7669C78.3559 69.1674 78.9258 69.3766 79.375 69.7575C79.8243 70.1384 80.1239 70.6664 80.2205 71.2474L82.8158 86.8147C82.8678 87.122 83.0332 87.3986 83.2793 87.5898C83.5255 87.781 83.8344 87.8728 84.145 87.8472C84.4556 87.8215 84.7453 87.6803 84.9567 87.4513C85.1682 87.2223 85.2859 86.9223 85.2868 86.6106V65.8725C85.2867 65.4741 85.3823 65.0816 85.5655 64.7279C87.4865 61.0202 88.1858 56.9567 87.5438 53.4928C87.1531 51.3877 86.2398 49.392 84.6622 47.9015C83.0522 46.3811 80.9172 45.5524 78.4313 45.5524H68.2763C67.6368 45.5524 67.0196 45.7988 66.5568 46.2392L58.8827 53.56C58.4202 54.0019 57.8053 54.2488 57.1657 54.2493H46.4632C45.8032 54.2493 45.1703 54.5115 44.7036 54.9781C44.237 55.4448 43.9748 56.0777 43.9748 56.7377C43.9748 57.3976 44.237 58.0306 44.7036 58.4972C45.1703 58.9639 45.8032 59.2261 46.4632 59.2261H59.1589C59.7985 59.2255 60.4134 58.9787 60.8758 58.5368L63.6628 55.8792C64.0154 55.5431 64.4589 55.3178 64.9383 55.2314C65.4177 55.145 65.9119 55.2012 66.3597 55.393C66.8075 55.5848 67.1891 55.9038 67.4572 56.3105C67.7254 56.7172 67.8683 57.1936 67.8682 57.6808V71.6207V71.6182Z" fill="#1959AB"/>
</g>
<defs>
<filter id="filter0_d_1675_167" x="0.167969" y="0.25" width="101.584" height="101.582" filterUnits="userSpaceOnUse" color-interpolation-filters="sRGB">
<feFlood flood-opacity="0" result="BackgroundImageFix"/>
<feColorMatrix in="SourceAlpha" type="matrix" values="0 0 0 0 0 0 0 0 0 0 0 0 0 0 0 0 0 0 127 0" result="hardAlpha"/>
<feOffset dx="3" dy="3"/>
<feGaussianBlur stdDeviation="3"/>
<feComposite in2="hardAlpha" operator="out"/>
<feColorMatrix type="matrix" values="0 0 0 0 0.2 0 0 0 0 0.2 0 0 0 0 0.2 0 0 0 0.25 0"/>
<feBlend mode="normal" in2="BackgroundImageFix" result="effect1_dropShadow_1675_167"/>
<feBlend mode="normal" in="SourceGraphic" in2="effect1_dropShadow_1675_167" result="shape"/>
</filter>
</defs>
</svg>
