<svg width="100" height="100" viewBox="0 0 100 100" fill="none" xmlns="http://www.w3.org/2000/svg">
<path d="M74.9987 32.9584C74.8737 32.9584 74.7904 32.9584 74.6654 32.9584H74.457C66.582 32.7084 60.707 26.625 60.707 19.125C60.707 11.4583 66.957 5.25 74.582 5.25C82.207 5.25 88.457 11.5 88.457 19.125C88.4154 26.6667 82.5404 32.75 75.0404 33C75.0404 32.9583 75.0404 32.9584 74.9987 32.9584ZM74.582 11.4584C70.3737 11.4584 66.957 14.875 66.957 19.0834C66.957 23.2084 70.1654 26.5417 74.2904 26.7084C74.332 26.6667 74.6654 26.6667 75.0404 26.7084C79.082 26.5 82.207 23.1667 82.2487 19.0834C82.2487 14.875 78.832 11.4584 74.582 11.4584Z" fill="#1959AB"/>
<path d="M75.0408 63.6669C73.4158 63.6669 71.7908 63.5419 70.1658 63.2502C68.4574 62.9585 67.3324 61.3335 67.6241 59.6252C67.9158 57.9169 69.5408 56.7919 71.2491 57.0835C76.3741 57.9585 81.7908 57.0002 85.4158 54.5836C87.3741 53.2919 88.4158 51.6669 88.4158 50.0419C88.4158 48.4169 87.3324 46.8335 85.4158 45.5419C81.7908 43.1252 76.2908 42.1669 71.1241 43.0835C69.4158 43.4169 67.7908 42.2502 67.4991 40.5419C67.2074 38.8335 68.3325 37.2086 70.0408 36.9169C76.8324 35.7086 83.8741 37.0002 88.8741 40.3335C92.5408 42.7919 94.6658 46.2919 94.6658 50.0419C94.6658 53.7502 92.5825 57.2919 88.8741 59.7919C85.0825 62.2919 80.1658 63.6669 75.0408 63.6669Z" fill="#1959AB"/>
<path d="M24.875 32.9585C24.8333 32.9585 24.7917 32.9585 24.7917 32.9585C17.2917 32.7085 11.4167 26.6251 11.375 19.1251C11.375 11.4585 17.625 5.2085 25.25 5.2085C32.875 5.2085 39.125 11.4585 39.125 19.0835C39.125 26.6252 32.6667 32.7085 25.1667 32.9585C25.0833 32.9585 24.9583 32.9585 24.875 32.9585ZM25.4375 26.7502C25.6875 26.7502 25.6635 26.7653 26 26.7502C29.7083 26.5835 32.9583 23.2501 32.9583 19.1251C32.9583 14.9168 29.5417 11.5001 25.3333 11.5001C21.125 11.5001 17.7083 14.9168 17.7083 19.1251C17.7083 23.2085 20.875 26.5002 24.9167 26.7502C25.1938 26.7673 25.2708 26.7502 25.4375 26.7502Z" fill="#1959AB"/>
<path d="M24.832 63.6669C19.707 63.6669 14.7904 62.2919 10.9987 59.7919C7.33203 57.3336 5.20703 53.7919 5.20703 50.0419C5.20703 46.3335 7.33203 42.7919 10.9987 40.3335C15.9987 37.0002 23.0404 35.7086 29.832 36.9169C31.5404 37.2086 32.6654 38.8335 32.3737 40.5419C32.082 42.2502 30.457 43.4169 28.7487 43.0835C23.582 42.1669 18.1237 43.1252 14.457 45.5419C12.4987 46.8335 11.457 48.4169 11.457 50.0419C11.457 51.6669 12.5404 53.2919 14.457 54.5836C18.082 57.0002 23.4987 57.9585 28.6237 57.0835C30.332 56.7919 31.957 57.9585 32.2487 59.6252C32.5404 61.3335 31.4154 62.9585 29.707 63.2502C28.082 63.5419 26.457 63.6669 24.832 63.6669Z" fill="#1959AB"/>
<path d="M49.9987 64.0834C49.8737 64.0834 49.7904 64.0834 49.6654 64.0834H49.457C41.582 63.8334 35.707 57.75 35.707 50.25C35.707 42.5833 41.957 36.375 49.582 36.375C57.207 36.375 63.457 42.625 63.457 50.25C63.4154 57.7917 57.5404 63.875 50.0404 64.125C50.0404 64.0833 50.0404 64.0834 49.9987 64.0834ZM49.582 42.5834C45.3737 42.5834 41.957 46 41.957 50.2084C41.957 54.3334 45.1654 57.6667 49.2904 57.8334C49.332 57.7917 49.6654 57.7917 50.0404 57.8334C54.082 57.625 57.207 54.2917 57.2487 50.2084C57.2487 46.0417 53.832 42.5834 49.582 42.5834Z" fill="#1959AB"/>
<path d="M49.9987 94.833C44.9987 94.833 39.9987 93.5414 36.1237 90.9164C32.457 88.4581 30.332 84.9581 30.332 81.2081C30.332 77.4997 32.4154 73.9163 36.1237 71.458C43.9154 66.2913 56.1237 66.2913 63.8737 71.458C67.5404 73.9163 69.6654 77.4163 69.6654 81.1663C69.6654 84.8747 67.582 88.4581 63.8737 90.9164C59.9987 93.4997 54.9987 94.833 49.9987 94.833ZM39.582 76.708C37.6237 77.9997 36.582 79.6247 36.582 81.2497C36.582 82.8747 37.6654 84.458 39.582 85.7497C45.207 89.5414 54.7487 89.5414 60.3737 85.7497C62.332 84.458 63.3737 82.8331 63.3737 81.2081C63.3737 79.5831 62.2904 77.9997 60.3737 76.708C54.7904 72.9164 45.2487 72.958 39.582 76.708Z" fill="#1959AB"/>
</svg>
