<svg width="50" height="50" viewBox="0 0 50 50" fill="none" xmlns="http://www.w3.org/2000/svg">
<path fill-rule="evenodd" clip-rule="evenodd" d="M4.99998 10C4.55795 10 4.13403 10.1756 3.82147 10.4882C3.50891 10.8007 3.33331 11.2246 3.33331 11.6667C3.33331 12.1087 3.50891 12.5326 3.82147 12.8452C4.13403 13.1577 4.55795 13.3333 4.99998 13.3333H45C45.442 13.3333 45.8659 13.1577 46.1785 12.8452C46.4911 12.5326 46.6666 12.1087 46.6666 11.6667C46.6666 11.2246 46.4911 10.8007 46.1785 10.4882C45.8659 10.1756 45.442 10 45 10H4.99998ZM3.33331 25C3.33331 24.558 3.50891 24.134 3.82147 23.8215C4.13403 23.5089 4.55795 23.3333 4.99998 23.3333H45C45.442 23.3333 45.8659 23.5089 46.1785 23.8215C46.4911 24.134 46.6666 24.558 46.6666 25C46.6666 25.442 46.4911 25.8659 46.1785 26.1785C45.8659 26.4911 45.442 26.6667 45 26.6667H4.99998C4.55795 26.6667 4.13403 26.4911 3.82147 26.1785C3.50891 25.8659 3.33331 25.442 3.33331 25ZM3.33331 38.3333C3.33331 37.8913 3.50891 37.4674 3.82147 37.1548C4.13403 36.8423 4.55795 36.6667 4.99998 36.6667H45C45.442 36.6667 45.8659 36.8423 46.1785 37.1548C46.4911 37.4674 46.6666 37.8913 46.6666 38.3333C46.6666 38.7754 46.4911 39.1993 46.1785 39.5118C45.8659 39.8244 45.442 40 45 40H4.99998C4.55795 40 4.13403 39.8244 3.82147 39.5118C3.50891 39.1993 3.33331 38.7754 3.33331 38.3333Z" fill="black"/>
</svg>
