<svg width="343" height="400" viewBox="0 0 343 400" fill="none" xmlns="http://www.w3.org/2000/svg">
<g filter="url(#filter0_d_873_9023)">
<rect width="343" height="400" rx="5" fill="white" shape-rendering="crispEdges"/>
<g filter="url(#filter1_d_873_9023)">
<path d="M77.25 82.3545H24.75C23.5542 82.3545 22.5625 81.3628 22.5625 80.167C22.5625 78.9712 23.5542 77.9795 24.75 77.9795H77.25C78.4458 77.9795 79.4375 78.9712 79.4375 80.167C79.4375 81.3628 78.4458 82.3545 77.25 82.3545Z" fill="#1959AB"/>
<path d="M32.3333 73.6039H27.6667C24.8667 73.6039 22.5625 71.2997 22.5625 68.4997V43.3581C22.5625 40.5581 24.8667 38.2539 27.6667 38.2539H32.3333C35.1333 38.2539 37.4374 40.5581 37.4374 43.3581V68.4997C37.4374 71.2997 35.1333 73.6039 32.3333 73.6039ZM27.6667 42.5997C27.2583 42.5997 26.9375 42.9205 26.9375 43.3289V68.4997C26.9375 68.9081 27.2583 69.2289 27.6667 69.2289H32.3333C32.7416 69.2289 33.0624 68.9081 33.0624 68.4997V43.3581C33.0624 42.9497 32.7416 42.6289 32.3333 42.6289H27.6667V42.5997Z" fill="#1959AB"/>
<path d="M53.3333 73.6044H48.6667C45.8667 73.6044 43.5625 71.3002 43.5625 68.5002V34.0544C43.5625 31.2544 45.8667 28.9502 48.6667 28.9502H53.3333C56.1333 28.9502 58.4374 31.2544 58.4374 34.0544V68.5002C58.4374 71.3002 56.1333 73.6044 53.3333 73.6044ZM48.6667 33.3252C48.2583 33.3252 47.9375 33.646 47.9375 34.0544V68.5002C47.9375 68.9085 48.2583 69.2294 48.6667 69.2294H53.3333C53.7416 69.2294 54.0624 68.9085 54.0624 68.5002V34.0544C54.0624 33.646 53.7416 33.3252 53.3333 33.3252H48.6667Z" fill="#1959AB"/>
<path d="M74.3333 73.6038H69.6667C66.8667 73.6038 64.5625 71.2997 64.5625 68.4997V24.7497C64.5625 21.9497 66.8667 19.6455 69.6667 19.6455H74.3333C77.1333 19.6455 79.4374 21.9497 79.4374 24.7497V68.4997C79.4374 71.2997 77.1333 73.6038 74.3333 73.6038ZM69.6667 24.0205C69.2583 24.0205 68.9375 24.3413 68.9375 24.7497V68.4997C68.9375 68.908 69.2583 69.2288 69.6667 69.2288H74.3333C74.7416 69.2288 75.0624 68.908 75.0624 68.4997V24.7497C75.0624 24.3413 74.7416 24.0205 74.3333 24.0205H69.6667Z" fill="#1959AB"/>
</g>
<path d="M30.2578 117.332C30.2578 118.042 30.1211 118.696 29.8477 119.295C29.5807 119.887 29.2129 120.372 28.7441 120.75C28.1517 121.225 27.5332 121.554 26.8887 121.736C26.2507 121.912 25.4759 122 24.5645 122H17.8555V107.459H29.1543V110.271H21.5859V112.879H24.623C25.6387 112.879 26.4688 112.954 27.1133 113.104C27.7578 113.247 28.3275 113.514 28.8223 113.904C29.3236 114.295 29.6882 114.79 29.916 115.389C30.1439 115.981 30.2578 116.629 30.2578 117.332ZM26.3809 117.439C26.3809 117.199 26.3548 116.971 26.3027 116.756C26.2507 116.541 26.1367 116.342 25.9609 116.16C25.7852 115.984 25.5443 115.844 25.2383 115.74C24.9323 115.636 24.5091 115.584 23.9688 115.584H21.5859V119.285H23.9688C24.3789 119.285 24.7467 119.233 25.0723 119.129C25.4043 119.025 25.6582 118.891 25.834 118.729C26.0098 118.572 26.1432 118.387 26.2344 118.172C26.332 117.951 26.3809 117.706 26.3809 117.439ZM43.9004 122H40.4922V115.291L35.7266 122H32.8164V111.033H36.2246V117.039L40.6387 111.033H43.9004V122ZM56.4297 118.895C56.4297 119.52 56.2767 120.057 55.9707 120.506C55.6647 120.949 55.2513 121.303 54.7305 121.57C54.2031 121.837 53.6172 122.026 52.9727 122.137C52.3281 122.247 51.6413 122.303 50.9121 122.303C49.9551 122.303 49.1055 122.221 48.3633 122.059C47.6276 121.896 46.9082 121.694 46.2051 121.453V118.787H46.5957C47.11 119.074 47.6862 119.324 48.3242 119.539C48.9622 119.747 49.6133 119.852 50.2773 119.852C50.5247 119.852 50.8177 119.835 51.1562 119.803C51.5013 119.77 51.7747 119.715 51.9766 119.637C52.25 119.533 52.4551 119.412 52.5918 119.275C52.735 119.139 52.8066 118.921 52.8066 118.621C52.8066 118.341 52.7415 118.123 52.6113 117.967C52.4876 117.811 52.3151 117.697 52.0938 117.625C51.9049 117.56 51.6641 117.518 51.3711 117.498C51.0846 117.479 50.7201 117.469 50.2773 117.469H48.5977V115.242H49.9453C50.2057 115.242 50.515 115.239 50.873 115.232C51.2376 115.226 51.5241 115.197 51.7324 115.145C52.0384 115.073 52.2565 114.959 52.3867 114.803C52.5234 114.646 52.5918 114.445 52.5918 114.197C52.5918 113.995 52.5234 113.826 52.3867 113.689C52.25 113.553 52.071 113.445 51.8496 113.367C51.6608 113.302 51.4395 113.253 51.1855 113.221C50.9316 113.188 50.6647 113.172 50.3848 113.172C49.9225 113.172 49.3822 113.253 48.7637 113.416C48.1517 113.579 47.6081 113.781 47.1328 114.021H46.752V111.395C47.1556 111.271 47.7546 111.128 48.5488 110.965C49.3496 110.802 50.1667 110.721 51 110.721C51.7292 110.721 52.3932 110.776 52.9922 110.887C53.5911 110.997 54.1217 111.163 54.584 111.385C55.0723 111.626 55.4661 111.938 55.7656 112.322C56.0651 112.706 56.2148 113.185 56.2148 113.758C56.2148 114.344 56.013 114.868 55.6094 115.33C55.2122 115.792 54.7337 116.102 54.1738 116.258V116.346C54.8184 116.515 55.3555 116.811 55.7852 117.234C56.2148 117.651 56.4297 118.204 56.4297 118.895ZM70.0625 122H66.5469V117.322H62.5039V122H58.9883V111.033H62.5039V114.812H66.5469V111.033H70.0625V122ZM84.1836 117.166H76.1367C76.1888 118.025 76.5143 118.683 77.1133 119.139C77.7188 119.594 78.6074 119.822 79.7793 119.822C80.5215 119.822 81.2409 119.689 81.9375 119.422C82.6341 119.155 83.1842 118.868 83.5879 118.562H83.9785V121.385C83.1842 121.704 82.4355 121.935 81.7324 122.078C81.0293 122.221 80.2513 122.293 79.3984 122.293C77.1979 122.293 75.5117 121.798 74.3398 120.809C73.168 119.819 72.582 118.41 72.582 116.58C72.582 114.77 73.1354 113.338 74.2422 112.283C75.3555 111.222 76.8789 110.691 78.8125 110.691C80.5964 110.691 81.9375 111.144 82.8359 112.049C83.7344 112.947 84.1836 114.243 84.1836 115.936V117.166ZM80.6875 115.105C80.668 114.37 80.4857 113.816 80.1406 113.445C79.7956 113.074 79.2585 112.889 78.5293 112.889C77.8522 112.889 77.2956 113.064 76.8594 113.416C76.4232 113.768 76.179 114.331 76.127 115.105H80.6875ZM92.377 122.293C91.4199 122.293 90.5443 122.179 89.75 121.951C88.9622 121.723 88.2754 121.372 87.6895 120.896C87.11 120.421 86.6608 119.822 86.3418 119.1C86.0228 118.377 85.8633 117.531 85.8633 116.561C85.8633 115.538 86.0326 114.656 86.3711 113.914C86.7161 113.172 87.1947 112.557 87.8066 112.068C88.3991 111.606 89.0827 111.268 89.8574 111.053C90.6322 110.838 91.4362 110.73 92.2695 110.73C93.0182 110.73 93.7083 110.812 94.3398 110.975C94.9714 111.137 95.5605 111.349 96.1074 111.609V114.607H95.6094C95.4727 114.49 95.3066 114.354 95.1113 114.197C94.9225 114.041 94.6882 113.888 94.4082 113.738C94.1413 113.595 93.8483 113.478 93.5293 113.387C93.2103 113.289 92.8392 113.24 92.416 113.24C91.4785 113.24 90.7559 113.54 90.248 114.139C89.7467 114.731 89.4961 115.538 89.4961 116.561C89.4961 117.615 89.7533 118.416 90.2676 118.963C90.7884 119.51 91.5241 119.783 92.4746 119.783C92.9173 119.783 93.3145 119.734 93.666 119.637C94.0241 119.533 94.3203 119.412 94.5547 119.275C94.776 119.145 94.9714 119.008 95.1406 118.865C95.3099 118.722 95.4661 118.582 95.6094 118.445H96.1074V121.443C95.554 121.704 94.9746 121.909 94.3691 122.059C93.7702 122.215 93.1061 122.293 92.377 122.293ZM118.471 107.459L113.178 119.09C112.872 119.76 112.52 120.301 112.123 120.711C111.726 121.121 111.316 121.424 110.893 121.619C110.469 121.821 110.049 121.951 109.633 122.01C109.223 122.068 108.812 122.098 108.402 122.098C107.947 122.098 107.406 122.085 106.781 122.059C106.156 122.039 105.743 122.02 105.541 122V118.826H105.766C105.902 118.865 106.143 118.908 106.488 118.953C106.833 118.992 107.175 119.012 107.514 119.012C108.158 119.012 108.679 118.95 109.076 118.826C109.48 118.702 109.727 118.54 109.818 118.338L103.91 107.459H107.982L111.596 114.354L114.574 107.459H118.471ZM131.293 122H127.777V113.416H123.734V122H120.219V111.033H131.293V122ZM146.059 116.365C146.059 117.27 145.919 118.094 145.639 118.836C145.365 119.578 145.004 120.19 144.555 120.672C144.086 121.18 143.555 121.564 142.963 121.824C142.37 122.085 141.736 122.215 141.059 122.215C140.434 122.215 139.903 122.146 139.467 122.01C139.031 121.88 138.585 121.694 138.129 121.453V126.023H134.613V111.033H138.129V112.176C138.669 111.746 139.219 111.398 139.779 111.131C140.346 110.864 140.997 110.73 141.732 110.73C143.1 110.73 144.161 111.232 144.916 112.234C145.678 113.237 146.059 114.614 146.059 116.365ZM142.436 116.434C142.436 115.366 142.253 114.591 141.889 114.109C141.524 113.628 140.948 113.387 140.16 113.387C139.828 113.387 139.486 113.439 139.135 113.543C138.783 113.641 138.448 113.784 138.129 113.973V119.49C138.363 119.581 138.614 119.64 138.881 119.666C139.148 119.692 139.411 119.705 139.672 119.705C140.603 119.705 141.296 119.435 141.752 118.895C142.208 118.348 142.436 117.527 142.436 116.434ZM155.238 119.139V116.854C154.763 116.893 154.249 116.948 153.695 117.02C153.142 117.085 152.722 117.163 152.436 117.254C152.084 117.365 151.814 117.527 151.625 117.742C151.443 117.951 151.352 118.227 151.352 118.572C151.352 118.8 151.371 118.986 151.41 119.129C151.449 119.272 151.547 119.409 151.703 119.539C151.853 119.669 152.032 119.767 152.24 119.832C152.449 119.891 152.774 119.92 153.217 119.92C153.568 119.92 153.923 119.848 154.281 119.705C154.646 119.562 154.965 119.373 155.238 119.139ZM155.238 120.838C155.049 120.981 154.815 121.154 154.535 121.355C154.255 121.557 153.992 121.717 153.744 121.834C153.399 121.99 153.041 122.104 152.67 122.176C152.299 122.254 151.892 122.293 151.449 122.293C150.408 122.293 149.535 121.971 148.832 121.326C148.129 120.682 147.777 119.858 147.777 118.855C147.777 118.055 147.956 117.4 148.314 116.893C148.673 116.385 149.18 115.984 149.838 115.691C150.489 115.398 151.296 115.19 152.26 115.066C153.223 114.943 154.223 114.852 155.258 114.793V114.734C155.258 114.129 155.01 113.712 154.516 113.484C154.021 113.25 153.292 113.133 152.328 113.133C151.749 113.133 151.13 113.237 150.473 113.445C149.815 113.647 149.343 113.803 149.057 113.914H148.734V111.268C149.105 111.17 149.708 111.056 150.541 110.926C151.381 110.789 152.221 110.721 153.061 110.721C155.059 110.721 156.501 111.03 157.387 111.648C158.279 112.26 158.725 113.224 158.725 114.539V122H155.238V120.838ZM172.953 118.689C172.953 119.217 172.846 119.686 172.631 120.096C172.423 120.506 172.143 120.848 171.791 121.121C171.348 121.466 170.88 121.701 170.385 121.824C169.896 121.941 169.314 122 168.637 122H161.957V111.033H168.354C169.154 111.033 169.743 111.059 170.121 111.111C170.499 111.163 170.87 111.29 171.234 111.492C171.618 111.701 171.905 111.977 172.094 112.322C172.289 112.667 172.387 113.077 172.387 113.553C172.387 114.093 172.23 114.568 171.918 114.979C171.612 115.382 171.241 115.691 170.805 115.906V116.014C171.41 116.163 171.918 116.466 172.328 116.922C172.745 117.371 172.953 117.96 172.953 118.689ZM168.842 114.334C168.842 113.93 168.718 113.644 168.471 113.475C168.23 113.305 167.839 113.221 167.299 113.221H165.443V115.408H167.357C167.833 115.408 168.197 115.314 168.451 115.125C168.712 114.93 168.842 114.666 168.842 114.334ZM169.33 118.582C169.33 118.107 169.193 117.775 168.92 117.586C168.653 117.391 168.256 117.293 167.729 117.293H165.443V119.803H167.787C168.269 119.803 168.646 119.695 168.92 119.48C169.193 119.259 169.33 118.96 169.33 118.582ZM186.381 122H182.865V113.484H179.965C179.945 113.973 179.929 114.354 179.916 114.627C179.91 114.894 179.9 115.206 179.887 115.564C179.841 116.613 179.753 117.465 179.623 118.123C179.493 118.781 179.327 119.318 179.125 119.734C178.93 120.158 178.718 120.493 178.49 120.74C178.269 120.988 178.044 121.202 177.816 121.385C177.556 121.593 177.214 121.759 176.791 121.883C176.374 122.007 175.971 122.068 175.58 122.068C175.274 122.068 174.965 122.055 174.652 122.029C174.34 122.01 174.154 122 174.096 122V119.188H174.203C174.229 119.188 174.275 119.191 174.34 119.197C174.405 119.204 174.47 119.207 174.535 119.207C174.704 119.207 174.877 119.191 175.053 119.158C175.235 119.126 175.385 119.054 175.502 118.943C175.938 118.527 176.228 118.006 176.371 117.381C176.521 116.749 176.628 115.818 176.693 114.588C176.719 114.132 176.745 113.611 176.771 113.025C176.798 112.439 176.82 111.775 176.84 111.033H186.381V122ZM200.512 117.166H192.465C192.517 118.025 192.842 118.683 193.441 119.139C194.047 119.594 194.936 119.822 196.107 119.822C196.85 119.822 197.569 119.689 198.266 119.422C198.962 119.155 199.512 118.868 199.916 118.562H200.307V121.385C199.512 121.704 198.764 121.935 198.061 122.078C197.357 122.221 196.579 122.293 195.727 122.293C193.526 122.293 191.84 121.798 190.668 120.809C189.496 119.819 188.91 118.41 188.91 116.58C188.91 114.77 189.464 113.338 190.57 112.283C191.684 111.222 193.207 110.691 195.141 110.691C196.924 110.691 198.266 111.144 199.164 112.049C200.062 112.947 200.512 114.243 200.512 115.936V117.166ZM197.016 115.105C196.996 114.37 196.814 113.816 196.469 113.445C196.124 113.074 195.587 112.889 194.857 112.889C194.18 112.889 193.624 113.064 193.188 113.416C192.751 113.768 192.507 114.331 192.455 115.105H197.016ZM214.066 122H210.551V117.322H206.508V122H202.992V111.033H206.508V114.812H210.551V111.033H214.066V122ZM228.471 122H225.062V115.291L220.297 122H217.387V111.033H220.795V117.039L225.209 111.033H228.471V122ZM242.602 117.166H234.555C234.607 118.025 234.932 118.683 235.531 119.139C236.137 119.594 237.025 119.822 238.197 119.822C238.939 119.822 239.659 119.689 240.355 119.422C241.052 119.155 241.602 118.868 242.006 118.562H242.396V121.385C241.602 121.704 240.854 121.935 240.15 122.078C239.447 122.221 238.669 122.293 237.816 122.293C235.616 122.293 233.93 121.798 232.758 120.809C231.586 119.819 231 118.41 231 116.58C231 114.77 231.553 113.338 232.66 112.283C233.773 111.222 235.297 110.691 237.23 110.691C239.014 110.691 240.355 111.144 241.254 112.049C242.152 112.947 242.602 114.243 242.602 115.936V117.166ZM239.105 115.105C239.086 114.37 238.904 113.816 238.559 113.445C238.214 113.074 237.676 112.889 236.947 112.889C236.27 112.889 235.714 113.064 235.277 113.416C234.841 113.768 234.597 114.331 234.545 115.105H239.105Z" fill="#333333"/>
<path d="M21 149L28.5 156.5L41 141.5" stroke="#61B857" stroke-width="2" stroke-linecap="round" stroke-linejoin="round"/>
<path d="M63.5498 154.5H61.8135L57.6777 149.858H56.7549V154.5H55.4014V144.321H56.7549V148.888C56.9873 148.883 57.2061 148.86 57.4111 148.819C57.6162 148.778 57.8099 148.701 57.9922 148.587C58.1745 148.482 58.3545 148.334 58.5322 148.143C58.71 147.947 58.8672 147.707 59.0039 147.425C59.0632 147.302 59.1315 147.147 59.209 146.96C59.291 146.773 59.373 146.577 59.4551 146.372C59.7695 145.616 60.1364 145.085 60.5557 144.779C60.9795 144.474 61.6016 144.321 62.4219 144.321H62.9619V145.531H62.3945C62.0801 145.531 61.834 145.561 61.6562 145.62C61.4785 145.675 61.319 145.768 61.1777 145.9C61.0456 146.019 60.9294 146.178 60.8291 146.379C60.7334 146.579 60.6331 146.814 60.5283 147.083C60.2913 147.685 60.0498 148.127 59.8037 148.409C59.5622 148.692 59.2363 148.938 58.8262 149.147L63.5498 154.5ZM71.5752 146.864L67.1182 157.316H65.7441L67.166 154.131L64.124 146.864H65.5186L67.8633 152.524L70.2285 146.864H71.5752ZM79.9766 150.59C79.9766 151.21 79.8877 151.777 79.71 152.292C79.5322 152.802 79.2816 153.235 78.958 153.591C78.6572 153.928 78.3018 154.19 77.8916 154.377C77.486 154.559 77.0553 154.65 76.5996 154.65C76.2031 154.65 75.8431 154.607 75.5195 154.521C75.2005 154.434 74.8747 154.299 74.542 154.117V157.316H73.2568V146.864H74.542V147.664C74.8838 147.377 75.2666 147.138 75.6904 146.946C76.1188 146.75 76.5745 146.652 77.0576 146.652C77.9782 146.652 78.6937 147.001 79.2041 147.698C79.7191 148.391 79.9766 149.355 79.9766 150.59ZM78.6504 150.624C78.6504 149.703 78.4932 149.015 78.1787 148.56C77.8643 148.104 77.3812 147.876 76.7295 147.876C76.3604 147.876 75.9889 147.956 75.6152 148.115C75.2415 148.275 74.8838 148.484 74.542 148.744V153.071C74.9066 153.235 75.2188 153.347 75.4785 153.406C75.7428 153.465 76.0413 153.495 76.374 153.495C77.0895 153.495 77.6478 153.254 78.0488 152.771C78.4499 152.287 78.6504 151.572 78.6504 150.624ZM87.6943 154.021C87.1702 154.268 86.7191 154.436 86.3408 154.527C85.9671 154.623 85.5934 154.671 85.2197 154.671C84.6637 154.671 84.1533 154.591 83.6885 154.432C83.2236 154.268 82.8249 154.021 82.4922 153.693C82.1595 153.365 81.8997 152.951 81.7129 152.449C81.5306 151.948 81.4395 151.362 81.4395 150.692C81.4395 149.476 81.7767 148.505 82.4512 147.78C83.1257 147.051 84.0485 146.687 85.2197 146.687C85.6618 146.687 86.0947 146.748 86.5186 146.871C86.9469 146.994 87.3389 147.145 87.6943 147.322V148.751H87.6191C87.1953 148.427 86.776 148.188 86.3613 148.033C85.9512 147.878 85.5524 147.801 85.165 147.801C84.404 147.801 83.8138 148.056 83.3945 148.566C82.9798 149.077 82.7725 149.785 82.7725 150.692C82.7725 151.599 82.9798 152.303 83.3945 152.805C83.8092 153.306 84.3994 153.557 85.165 153.557C85.4339 153.557 85.7005 153.522 85.9648 153.454C86.2337 153.386 86.4775 153.297 86.6963 153.188C86.8695 153.101 87.0472 152.998 87.2295 152.88C87.4163 152.757 87.5462 152.666 87.6191 152.606H87.6943V154.021ZM98.5156 147.685H97.5996L95.7471 143.863H97.3877L98.5156 147.685ZM95.7539 147.685H94.8379L92.9854 143.863H94.626L95.7539 147.685ZM108.592 151.349C108.592 151.841 108.494 152.287 108.298 152.688C108.106 153.09 107.849 153.415 107.525 153.666C107.143 153.967 106.732 154.181 106.295 154.309C105.857 154.436 105.292 154.5 104.6 154.5H100.908V144.321H107.724V145.524H102.262V148.313H104.641C105.333 148.313 105.898 148.354 106.336 148.437C106.773 148.514 107.186 148.703 107.573 149.004C107.92 149.273 108.175 149.605 108.339 150.002C108.507 150.398 108.592 150.847 108.592 151.349ZM107.177 151.376C107.177 151.034 107.12 150.733 107.006 150.474C106.892 150.214 106.714 150.004 106.473 149.845C106.222 149.676 105.933 149.574 105.604 149.537C105.276 149.501 104.814 149.482 104.217 149.482H102.262V153.345H104.183C104.789 153.345 105.254 153.315 105.577 153.256C105.905 153.197 106.192 153.083 106.438 152.914C106.694 152.736 106.881 152.529 106.999 152.292C107.118 152.05 107.177 151.745 107.177 151.376ZM116.836 154.5H115.564V148.765L111.565 154.5H110.403V146.864H111.675V152.518L115.633 146.864H116.836V154.5ZM124.684 152.36C124.684 152.789 124.583 153.151 124.383 153.447C124.187 153.743 123.934 153.983 123.624 154.165C123.314 154.343 122.972 154.473 122.599 154.555C122.225 154.637 121.851 154.678 121.478 154.678C120.949 154.678 120.445 154.628 119.967 154.527C119.488 154.427 119.017 154.272 118.552 154.062V152.654H118.641C118.973 152.946 119.397 153.172 119.912 153.331C120.427 153.491 120.926 153.57 121.409 153.57C121.637 153.57 121.872 153.55 122.113 153.509C122.355 153.463 122.564 153.393 122.742 153.297C122.934 153.188 123.086 153.058 123.2 152.907C123.314 152.752 123.371 152.543 123.371 152.278C123.371 152.005 123.314 151.786 123.2 151.622C123.091 151.458 122.94 151.335 122.749 151.253C122.562 151.171 122.337 151.121 122.072 151.103C121.808 151.084 121.566 151.075 121.348 151.075H120.233V149.968H121.006C121.188 149.968 121.425 149.961 121.717 149.947C122.013 149.934 122.252 149.897 122.435 149.838C122.672 149.76 122.858 149.651 122.995 149.51C123.136 149.368 123.207 149.143 123.207 148.833C123.207 148.619 123.152 148.443 123.043 148.307C122.934 148.165 122.797 148.056 122.633 147.979C122.464 147.901 122.275 147.849 122.065 147.821C121.86 147.794 121.678 147.78 121.519 147.78C121.054 147.78 120.596 147.844 120.145 147.972C119.698 148.095 119.322 148.275 119.017 148.512H118.928V147.097C119.306 146.974 119.712 146.873 120.145 146.796C120.577 146.718 121.01 146.68 121.443 146.68C121.799 146.68 122.152 146.712 122.503 146.775C122.858 146.839 123.189 146.949 123.494 147.104C123.795 147.258 124.041 147.47 124.232 147.739C124.424 148.004 124.52 148.332 124.52 148.724C124.52 149.125 124.394 149.478 124.144 149.783C123.897 150.084 123.565 150.3 123.146 150.433V150.48C123.615 150.594 123.989 150.809 124.267 151.123C124.545 151.433 124.684 151.845 124.684 152.36ZM133.105 154.5H131.82V151.062H127.999V154.5H126.714V146.864H127.999V149.954H131.82V146.864H133.105V154.5ZM142.033 150.815H136.407C136.407 151.285 136.478 151.695 136.619 152.046C136.76 152.392 136.954 152.677 137.2 152.9C137.437 153.119 137.717 153.283 138.041 153.393C138.369 153.502 138.729 153.557 139.121 153.557C139.641 153.557 140.162 153.454 140.687 153.249C141.215 153.039 141.591 152.834 141.814 152.634H141.883V154.035C141.45 154.217 141.008 154.37 140.557 154.493C140.105 154.616 139.632 154.678 139.135 154.678C137.868 154.678 136.879 154.336 136.168 153.652C135.457 152.964 135.102 151.989 135.102 150.727C135.102 149.478 135.441 148.487 136.12 147.753C136.804 147.019 137.701 146.652 138.813 146.652C139.843 146.652 140.636 146.953 141.192 147.555C141.753 148.156 142.033 149.011 142.033 150.118V150.815ZM140.782 149.831C140.778 149.157 140.607 148.635 140.27 148.266C139.937 147.896 139.429 147.712 138.745 147.712C138.057 147.712 137.508 147.915 137.098 148.32C136.692 148.726 136.462 149.229 136.407 149.831H140.782ZM149.696 154.021C149.172 154.268 148.721 154.436 148.343 154.527C147.969 154.623 147.595 154.671 147.222 154.671C146.666 154.671 146.155 154.591 145.69 154.432C145.226 154.268 144.827 154.021 144.494 153.693C144.161 153.365 143.902 152.951 143.715 152.449C143.533 151.948 143.441 151.362 143.441 150.692C143.441 149.476 143.779 148.505 144.453 147.78C145.128 147.051 146.05 146.687 147.222 146.687C147.664 146.687 148.097 146.748 148.521 146.871C148.949 146.994 149.341 147.145 149.696 147.322V148.751H149.621C149.197 148.427 148.778 148.188 148.363 148.033C147.953 147.878 147.554 147.801 147.167 147.801C146.406 147.801 145.816 148.056 145.396 148.566C144.982 149.077 144.774 149.785 144.774 150.692C144.774 151.599 144.982 152.303 145.396 152.805C145.811 153.306 146.401 153.557 147.167 153.557C147.436 153.557 147.702 153.522 147.967 153.454C148.236 153.386 148.479 153.297 148.698 153.188C148.871 153.101 149.049 152.998 149.231 152.88C149.418 152.757 149.548 152.666 149.621 152.606H149.696V154.021ZM162.097 154.021C161.573 154.268 161.121 154.436 160.743 154.527C160.369 154.623 159.996 154.671 159.622 154.671C159.066 154.671 158.556 154.591 158.091 154.432C157.626 154.268 157.227 154.021 156.895 153.693C156.562 153.365 156.302 152.951 156.115 152.449C155.933 151.948 155.842 151.362 155.842 150.692C155.842 149.476 156.179 148.505 156.854 147.78C157.528 147.051 158.451 146.687 159.622 146.687C160.064 146.687 160.497 146.748 160.921 146.871C161.349 146.994 161.741 147.145 162.097 147.322V148.751H162.021C161.598 148.427 161.178 148.188 160.764 148.033C160.354 147.878 159.955 147.801 159.567 147.801C158.806 147.801 158.216 148.056 157.797 148.566C157.382 149.077 157.175 149.785 157.175 150.692C157.175 151.599 157.382 152.303 157.797 152.805C158.212 153.306 158.802 153.557 159.567 153.557C159.836 153.557 160.103 153.522 160.367 153.454C160.636 153.386 160.88 153.297 161.099 153.188C161.272 153.101 161.45 152.998 161.632 152.88C161.819 152.757 161.949 152.666 162.021 152.606H162.097V154.021ZM175.495 149.407C175.495 151.235 175.208 152.577 174.634 153.434C174.064 154.286 173.178 154.712 171.975 154.712C170.753 154.712 169.86 154.279 169.295 153.413C168.734 152.547 168.454 151.216 168.454 149.421C168.454 147.612 168.739 146.276 169.309 145.415C169.878 144.549 170.767 144.116 171.975 144.116C173.196 144.116 174.087 144.556 174.647 145.436C175.213 146.311 175.495 147.634 175.495 149.407ZM173.697 152.511C173.857 152.142 173.964 151.709 174.019 151.212C174.078 150.711 174.107 150.109 174.107 149.407C174.107 148.715 174.078 148.113 174.019 147.603C173.964 147.092 173.854 146.659 173.69 146.304C173.531 145.953 173.312 145.688 173.034 145.511C172.761 145.333 172.408 145.244 171.975 145.244C171.546 145.244 171.191 145.333 170.908 145.511C170.63 145.688 170.409 145.957 170.245 146.317C170.09 146.655 169.983 147.094 169.924 147.637C169.869 148.179 169.842 148.774 169.842 149.421C169.842 150.132 169.867 150.727 169.917 151.205C169.967 151.684 170.074 152.112 170.238 152.49C170.389 152.846 170.601 153.117 170.874 153.304C171.152 153.491 171.519 153.584 171.975 153.584C172.403 153.584 172.758 153.495 173.041 153.317C173.324 153.14 173.542 152.871 173.697 152.511ZM182.974 143.863L181.121 147.685H180.205L181.333 143.863H182.974ZM180.212 143.863L178.359 147.685H177.443L178.571 143.863H180.212Z" fill="#333333"/>
<path d="M21 187L28.5 194.5L41 179.5" stroke="#61B857" stroke-width="2" stroke-linecap="round" stroke-linejoin="round"/>
<path d="M63.0508 189.349C63.0508 189.841 62.9528 190.287 62.7568 190.688C62.5654 191.09 62.3079 191.415 61.9844 191.666C61.6016 191.967 61.1914 192.181 60.7539 192.309C60.3164 192.436 59.7513 192.5 59.0586 192.5H55.3672V182.321H62.1826V183.524H56.7207V186.313H59.0996C59.7923 186.313 60.3574 186.354 60.7949 186.437C61.2324 186.514 61.6449 186.703 62.0322 187.004C62.3786 187.273 62.6338 187.605 62.7979 188.002C62.9665 188.398 63.0508 188.847 63.0508 189.349ZM61.6357 189.376C61.6357 189.034 61.5788 188.733 61.4648 188.474C61.3509 188.214 61.1732 188.004 60.9316 187.845C60.681 187.676 60.3916 187.574 60.0635 187.537C59.7354 187.501 59.2728 187.482 58.6758 187.482H56.7207V191.345H58.6416C59.2477 191.345 59.7126 191.315 60.0361 191.256C60.3643 191.197 60.6514 191.083 60.8975 190.914C61.1527 190.736 61.3395 190.529 61.458 190.292C61.5765 190.05 61.6357 189.745 61.6357 189.376ZM71.2949 192.5H70.0234V186.765L66.0244 192.5H64.8623V184.864H66.1338V190.518L70.0918 184.864H71.2949V192.5ZM79.1426 190.36C79.1426 190.789 79.0423 191.151 78.8418 191.447C78.6458 191.743 78.3929 191.983 78.083 192.165C77.7731 192.343 77.4313 192.473 77.0576 192.555C76.6839 192.637 76.3102 192.678 75.9365 192.678C75.4079 192.678 74.9043 192.628 74.4258 192.527C73.9473 192.427 73.4756 192.272 73.0107 192.062V190.654H73.0996C73.4323 190.946 73.8561 191.172 74.3711 191.331C74.8861 191.491 75.3851 191.57 75.8682 191.57C76.096 191.57 76.3307 191.55 76.5723 191.509C76.8138 191.463 77.0234 191.393 77.2012 191.297C77.3926 191.188 77.5452 191.058 77.6592 190.907C77.7731 190.752 77.8301 190.543 77.8301 190.278C77.8301 190.005 77.7731 189.786 77.6592 189.622C77.5498 189.458 77.3994 189.335 77.208 189.253C77.0212 189.171 76.7956 189.121 76.5312 189.103C76.2669 189.084 76.0254 189.075 75.8066 189.075H74.6924V187.968H75.4648C75.6471 187.968 75.8841 187.961 76.1758 187.947C76.472 187.934 76.7113 187.897 76.8936 187.838C77.1305 187.76 77.3174 187.651 77.4541 187.51C77.5954 187.368 77.666 187.143 77.666 186.833C77.666 186.619 77.6113 186.443 77.502 186.307C77.3926 186.165 77.2559 186.056 77.0918 185.979C76.9232 185.901 76.734 185.849 76.5244 185.821C76.3193 185.794 76.137 185.78 75.9775 185.78C75.5127 185.78 75.0547 185.844 74.6035 185.972C74.1569 186.095 73.7809 186.275 73.4756 186.512H73.3867V185.097C73.765 184.974 74.1706 184.873 74.6035 184.796C75.0365 184.718 75.4694 184.68 75.9023 184.68C76.2578 184.68 76.611 184.712 76.9619 184.775C77.3174 184.839 77.6478 184.949 77.9531 185.104C78.2539 185.258 78.5 185.47 78.6914 185.739C78.8828 186.004 78.9785 186.332 78.9785 186.724C78.9785 187.125 78.8532 187.478 78.6025 187.783C78.3564 188.084 78.0238 188.3 77.6045 188.433V188.48C78.0739 188.594 78.4476 188.809 78.7256 189.123C79.0036 189.433 79.1426 189.845 79.1426 190.36ZM87.5645 192.5H86.2793V189.062H82.458V192.5H81.1729V184.864H82.458V187.954H86.2793V184.864H87.5645V192.5ZM96.4922 188.815H90.8662C90.8662 189.285 90.9368 189.695 91.0781 190.046C91.2194 190.392 91.4131 190.677 91.6592 190.9C91.8962 191.119 92.1764 191.283 92.5 191.393C92.8281 191.502 93.1882 191.557 93.5801 191.557C94.0996 191.557 94.6214 191.454 95.1455 191.249C95.6742 191.039 96.0501 190.834 96.2734 190.634H96.3418V192.035C95.9089 192.217 95.4668 192.37 95.0156 192.493C94.5645 192.616 94.0905 192.678 93.5938 192.678C92.3268 192.678 91.3379 192.336 90.627 191.652C89.916 190.964 89.5605 189.989 89.5605 188.727C89.5605 187.478 89.9001 186.487 90.5791 185.753C91.2627 185.019 92.1605 184.652 93.2725 184.652C94.3024 184.652 95.0954 184.953 95.6514 185.555C96.2119 186.156 96.4922 187.011 96.4922 188.118V188.815ZM95.2412 187.831C95.2367 187.157 95.0658 186.635 94.7285 186.266C94.3958 185.896 93.8877 185.712 93.2041 185.712C92.516 185.712 91.9668 185.915 91.5566 186.32C91.151 186.726 90.9209 187.229 90.8662 187.831H95.2412ZM104.155 192.021C103.631 192.268 103.18 192.436 102.802 192.527C102.428 192.623 102.054 192.671 101.681 192.671C101.125 192.671 100.614 192.591 100.149 192.432C99.6846 192.268 99.2858 192.021 98.9531 191.693C98.6204 191.365 98.3607 190.951 98.1738 190.449C97.9915 189.948 97.9004 189.362 97.9004 188.692C97.9004 187.476 98.2376 186.505 98.9121 185.78C99.5866 185.051 100.509 184.687 101.681 184.687C102.123 184.687 102.556 184.748 102.979 184.871C103.408 184.994 103.8 185.145 104.155 185.322V186.751H104.08C103.656 186.427 103.237 186.188 102.822 186.033C102.412 185.878 102.013 185.801 101.626 185.801C100.865 185.801 100.275 186.056 99.8555 186.566C99.4408 187.077 99.2334 187.785 99.2334 188.692C99.2334 189.599 99.4408 190.303 99.8555 190.805C100.27 191.306 100.86 191.557 101.626 191.557C101.895 191.557 102.161 191.522 102.426 191.454C102.695 191.386 102.938 191.297 103.157 191.188C103.33 191.101 103.508 190.998 103.69 190.88C103.877 190.757 104.007 190.666 104.08 190.606H104.155V192.021ZM119.126 192.5H117.39L113.254 187.858H112.331V192.5H110.978V182.321H112.331V186.888C112.563 186.883 112.782 186.86 112.987 186.819C113.192 186.778 113.386 186.701 113.568 186.587C113.751 186.482 113.931 186.334 114.108 186.143C114.286 185.947 114.443 185.707 114.58 185.425C114.639 185.302 114.708 185.147 114.785 184.96C114.867 184.773 114.949 184.577 115.031 184.372C115.346 183.616 115.713 183.085 116.132 182.779C116.556 182.474 117.178 182.321 117.998 182.321H118.538V183.531H117.971C117.656 183.531 117.41 183.561 117.232 183.62C117.055 183.675 116.895 183.768 116.754 183.9C116.622 184.019 116.506 184.178 116.405 184.379C116.31 184.579 116.209 184.814 116.104 185.083C115.868 185.685 115.626 186.127 115.38 186.409C115.138 186.692 114.812 186.938 114.402 187.147L119.126 192.5ZM127.056 188.686C127.056 189.93 126.737 190.912 126.099 191.632C125.461 192.352 124.606 192.712 123.535 192.712C122.455 192.712 121.596 192.352 120.958 191.632C120.325 190.912 120.008 189.93 120.008 188.686C120.008 187.441 120.325 186.459 120.958 185.739C121.596 185.015 122.455 184.652 123.535 184.652C124.606 184.652 125.461 185.015 126.099 185.739C126.737 186.459 127.056 187.441 127.056 188.686ZM125.729 188.686C125.729 187.697 125.536 186.963 125.148 186.484C124.761 186.001 124.223 185.76 123.535 185.76C122.838 185.76 122.296 186.001 121.908 186.484C121.525 186.963 121.334 187.697 121.334 188.686C121.334 189.643 121.528 190.369 121.915 190.866C122.302 191.358 122.842 191.604 123.535 191.604C124.219 191.604 124.754 191.361 125.142 190.873C125.534 190.381 125.729 189.652 125.729 188.686ZM135.443 192.5H134.158V189.062H130.337V192.5H129.052V184.864H130.337V187.954H134.158V184.864H135.443V192.5ZM143.694 192.021C143.17 192.268 142.719 192.436 142.341 192.527C141.967 192.623 141.593 192.671 141.22 192.671C140.664 192.671 140.153 192.591 139.688 192.432C139.224 192.268 138.825 192.021 138.492 191.693C138.16 191.365 137.9 190.951 137.713 190.449C137.531 189.948 137.439 189.362 137.439 188.692C137.439 187.476 137.777 186.505 138.451 185.78C139.126 185.051 140.049 184.687 141.22 184.687C141.662 184.687 142.095 184.748 142.519 184.871C142.947 184.994 143.339 185.145 143.694 185.322V186.751H143.619C143.195 186.427 142.776 186.188 142.361 186.033C141.951 185.878 141.552 185.801 141.165 185.801C140.404 185.801 139.814 186.056 139.395 186.566C138.98 187.077 138.772 187.785 138.772 188.692C138.772 189.599 138.98 190.303 139.395 190.805C139.809 191.306 140.399 191.557 141.165 191.557C141.434 191.557 141.701 191.522 141.965 191.454C142.234 191.386 142.478 191.297 142.696 191.188C142.869 191.101 143.047 190.998 143.229 190.88C143.416 190.757 143.546 190.666 143.619 190.606H143.694V192.021ZM152.062 184.864L147.604 195.316H146.23L147.652 192.131L144.61 184.864H146.005L148.35 190.524L150.715 184.864H152.062ZM159.902 192.5H158.617V185.944H155.767C155.753 186.323 155.739 186.687 155.726 187.038C155.712 187.389 155.698 187.706 155.685 187.988C155.653 188.749 155.6 189.358 155.527 189.813C155.454 190.265 155.359 190.641 155.24 190.941C155.131 191.224 155.008 191.454 154.871 191.632C154.739 191.805 154.595 191.962 154.44 192.104C154.285 192.24 154.112 192.343 153.921 192.411C153.734 192.479 153.529 192.514 153.306 192.514C153.228 192.514 153.114 192.511 152.964 192.507C152.818 192.502 152.722 192.5 152.677 192.5V191.379H152.745C152.782 191.379 152.834 191.381 152.902 191.386C152.971 191.39 153.028 191.393 153.073 191.393C153.183 191.393 153.294 191.377 153.408 191.345C153.527 191.313 153.627 191.254 153.709 191.167C153.941 190.939 154.128 190.554 154.27 190.012C154.411 189.469 154.504 188.686 154.55 187.66C154.568 187.286 154.584 186.844 154.598 186.334C154.616 185.819 154.632 185.329 154.646 184.864H159.902V192.5ZM167.21 190.155C167.21 189.923 167.169 189.72 167.087 189.547C167.009 189.369 166.88 189.226 166.697 189.116C166.506 189.002 166.287 188.934 166.041 188.911C165.799 188.888 165.451 188.877 164.995 188.877H163.724V191.475H164.968C165.424 191.475 165.777 191.456 166.027 191.42C166.278 191.379 166.494 191.304 166.677 191.194C166.864 191.076 166.998 190.937 167.08 190.777C167.167 190.613 167.21 190.406 167.21 190.155ZM168.536 190.135C168.536 190.504 168.461 190.839 168.311 191.14C168.165 191.44 167.964 191.684 167.709 191.871C167.408 192.099 167.087 192.261 166.745 192.356C166.403 192.452 165.964 192.5 165.426 192.5H162.438V184.864H163.724V187.838H165.46C166.034 187.838 166.479 187.868 166.793 187.927C167.112 187.986 167.429 188.132 167.743 188.364C168.007 188.56 168.206 188.811 168.338 189.116C168.47 189.422 168.536 189.761 168.536 190.135ZM176.049 185.992H173.287V192.5H172.002V185.992H169.24V184.864H176.049V185.992ZM183.315 192.5H182.037V191.687C181.923 191.764 181.768 191.873 181.572 192.015C181.381 192.151 181.194 192.261 181.012 192.343C180.798 192.448 180.551 192.534 180.273 192.603C179.995 192.675 179.67 192.712 179.296 192.712C178.608 192.712 178.024 192.484 177.546 192.028C177.067 191.573 176.828 190.992 176.828 190.285C176.828 189.706 176.951 189.239 177.197 188.884C177.448 188.524 177.803 188.241 178.264 188.036C178.729 187.831 179.287 187.692 179.938 187.619C180.59 187.546 181.29 187.492 182.037 187.455V187.257C182.037 186.965 181.985 186.724 181.88 186.532C181.78 186.341 181.634 186.19 181.442 186.081C181.26 185.976 181.041 185.906 180.786 185.869C180.531 185.833 180.264 185.814 179.986 185.814C179.649 185.814 179.273 185.86 178.858 185.951C178.444 186.038 178.015 186.165 177.573 186.334H177.505V185.028C177.756 184.96 178.118 184.885 178.592 184.803C179.066 184.721 179.533 184.68 179.993 184.68C180.531 184.68 180.998 184.725 181.395 184.816C181.796 184.903 182.142 185.053 182.434 185.268C182.721 185.477 182.939 185.748 183.09 186.081C183.24 186.414 183.315 186.826 183.315 187.318V192.5ZM182.037 190.62V188.494C181.645 188.517 181.183 188.551 180.649 188.597C180.121 188.642 179.701 188.708 179.392 188.795C179.022 188.9 178.724 189.064 178.496 189.287C178.268 189.506 178.154 189.809 178.154 190.196C178.154 190.634 178.286 190.964 178.551 191.188C178.815 191.406 179.218 191.516 179.761 191.516C180.212 191.516 180.624 191.429 180.998 191.256C181.372 191.078 181.718 190.866 182.037 190.62ZM191.847 192.5H185.79V184.864H187.075V191.393H190.835V184.864H192.12V191.393H193.043V194.332H191.847V192.5ZM201.246 192.5H199.975V186.765L195.976 192.5H194.813V184.864H196.085V190.518L200.043 184.864H201.246V192.5ZM209.647 192.5H208.362V189.472H206.852L204.486 192.5H202.976L205.546 189.349C204.885 189.166 204.402 188.888 204.097 188.515C203.791 188.136 203.639 187.642 203.639 187.031C203.639 186.626 203.73 186.282 203.912 185.999C204.094 185.716 204.325 185.486 204.603 185.309C204.876 185.135 205.19 185.019 205.546 184.96C205.901 184.896 206.289 184.864 206.708 184.864H209.647V192.5ZM208.362 188.46V185.89H206.742C206.391 185.89 206.138 185.901 205.983 185.924C205.828 185.947 205.66 186.008 205.478 186.108C205.3 186.209 205.168 186.345 205.081 186.519C204.999 186.687 204.958 186.872 204.958 187.072C204.958 187.323 204.983 187.526 205.033 187.681C205.088 187.836 205.197 187.981 205.361 188.118C205.53 188.25 205.735 188.341 205.977 188.392C206.218 188.437 206.487 188.46 206.783 188.46H208.362Z" fill="#333333"/>
<path d="M21 225L28.5 232.5L41 217.5" stroke="#61B857" stroke-width="2" stroke-linecap="round" stroke-linejoin="round"/>
<path d="M63.2285 223.262C62.9779 223.371 62.75 223.474 62.5449 223.569C62.3444 223.665 62.0801 223.765 61.752 223.87C61.474 223.957 61.1709 224.03 60.8428 224.089C60.5192 224.153 60.1615 224.185 59.7695 224.185C59.0312 224.185 58.359 224.082 57.7529 223.877C57.1514 223.667 56.6273 223.341 56.1807 222.899C55.7432 222.466 55.4014 221.917 55.1553 221.252C54.9092 220.582 54.7861 219.805 54.7861 218.921C54.7861 218.082 54.9046 217.333 55.1416 216.672C55.3786 216.011 55.7204 215.453 56.167 214.997C56.5999 214.555 57.1217 214.218 57.7324 213.985C58.3477 213.753 59.029 213.637 59.7764 213.637C60.3232 213.637 60.8678 213.703 61.4102 213.835C61.957 213.967 62.5632 214.2 63.2285 214.532V216.139H63.126C62.5654 215.669 62.0094 215.327 61.458 215.113C60.9066 214.899 60.3164 214.792 59.6875 214.792C59.1725 214.792 58.7077 214.876 58.293 215.045C57.8828 215.209 57.516 215.466 57.1924 215.817C56.8779 216.159 56.6318 216.592 56.4541 217.116C56.2809 217.636 56.1943 218.237 56.1943 218.921C56.1943 219.636 56.29 220.252 56.4814 220.767C56.6774 221.282 56.9281 221.701 57.2334 222.024C57.5524 222.362 57.9238 222.612 58.3477 222.776C58.776 222.936 59.2272 223.016 59.7012 223.016C60.3529 223.016 60.9635 222.904 61.5332 222.681C62.1029 222.457 62.6361 222.122 63.1328 221.676H63.2285V223.262ZM71.5479 220.186C71.5479 221.43 71.2288 222.412 70.5908 223.132C69.9528 223.852 69.0983 224.212 68.0273 224.212C66.9473 224.212 66.0882 223.852 65.4502 223.132C64.8167 222.412 64.5 221.43 64.5 220.186C64.5 218.941 64.8167 217.959 65.4502 217.239C66.0882 216.515 66.9473 216.152 68.0273 216.152C69.0983 216.152 69.9528 216.515 70.5908 217.239C71.2288 217.959 71.5479 218.941 71.5479 220.186ZM70.2217 220.186C70.2217 219.197 70.028 218.463 69.6406 217.984C69.2533 217.501 68.7155 217.26 68.0273 217.26C67.3301 217.26 66.7878 217.501 66.4004 217.984C66.0176 218.463 65.8262 219.197 65.8262 220.186C65.8262 221.143 66.0199 221.869 66.4072 222.366C66.7946 222.858 67.3346 223.104 68.0273 223.104C68.7109 223.104 69.2464 222.861 69.6338 222.373C70.0257 221.881 70.2217 221.152 70.2217 220.186ZM80.0518 220.186C80.0518 221.43 79.7327 222.412 79.0947 223.132C78.4567 223.852 77.6022 224.212 76.5312 224.212C75.4512 224.212 74.5921 223.852 73.9541 223.132C73.3206 222.412 73.0039 221.43 73.0039 220.186C73.0039 218.941 73.3206 217.959 73.9541 217.239C74.5921 216.515 75.4512 216.152 76.5312 216.152C77.6022 216.152 78.4567 216.515 79.0947 217.239C79.7327 217.959 80.0518 218.941 80.0518 220.186ZM78.7256 220.186C78.7256 219.197 78.5319 218.463 78.1445 217.984C77.7572 217.501 77.2194 217.26 76.5312 217.26C75.834 217.26 75.2917 217.501 74.9043 217.984C74.5215 218.463 74.3301 219.197 74.3301 220.186C74.3301 221.143 74.5238 221.869 74.9111 222.366C75.2985 222.858 75.8385 223.104 76.5312 223.104C77.2148 223.104 77.7503 222.861 78.1377 222.373C78.5296 221.881 78.7256 221.152 78.7256 220.186ZM87.6602 217.492C87.9792 217.811 88.2207 218.199 88.3848 218.654C88.5488 219.105 88.6309 219.636 88.6309 220.247C88.6309 221.386 88.2891 222.332 87.6055 223.084C86.9219 223.836 86.0811 224.212 85.083 224.212C84.5908 224.212 84.1374 224.13 83.7227 223.966C83.3079 223.797 82.9548 223.54 82.6631 223.193C82.2985 222.76 82.0251 222.216 81.8428 221.56C81.665 220.899 81.5762 220.094 81.5762 219.146C81.5762 218.805 81.5921 218.458 81.624 218.107C81.6559 217.752 81.7288 217.328 81.8428 216.836C81.9339 216.412 82.0661 216.004 82.2393 215.612C82.417 215.22 82.6266 214.904 82.8682 214.662C83.1963 214.329 83.627 214.063 84.1602 213.862C84.6979 213.657 85.4089 213.516 86.293 213.438C86.653 213.407 86.988 213.382 87.2979 213.363C87.6077 213.34 87.8857 213.32 88.1318 213.302V214.484C87.8311 214.503 87.5326 214.521 87.2363 214.539C86.9447 214.557 86.653 214.58 86.3613 214.607C85.778 214.658 85.2493 214.753 84.7754 214.895C84.306 215.036 83.9619 215.218 83.7432 215.441C83.5016 215.683 83.3193 216 83.1963 216.392C83.0778 216.779 83.0003 217.148 82.9639 217.499C83.3057 217.253 83.6794 217.048 84.085 216.884C84.4951 216.715 84.9303 216.631 85.3906 216.631C85.819 216.631 86.2314 216.701 86.6279 216.843C87.0244 216.984 87.3685 217.201 87.6602 217.492ZM87.3252 220.322C87.3252 219.479 87.1224 218.85 86.7168 218.436C86.3112 218.016 85.7757 217.807 85.1104 217.807C84.7139 217.807 84.3333 217.87 83.9688 217.998C83.6042 218.121 83.2578 218.287 82.9297 218.497C82.9206 218.611 82.9115 218.745 82.9023 218.9C82.8978 219.051 82.8955 219.19 82.8955 219.317C82.8955 220.11 82.9616 220.753 83.0938 221.245C83.2259 221.737 83.4128 222.129 83.6543 222.421C83.8639 222.667 84.0918 222.842 84.3379 222.947C84.584 223.048 84.8483 223.098 85.1309 223.098C85.819 223.098 86.3568 222.849 86.7441 222.353C87.1315 221.856 87.3252 221.179 87.3252 220.322ZM100.108 224H90.6475V216.364H91.9326V222.893H94.8721V216.364H96.1572V222.893H99.0967V216.364H100.382V222.893H101.305V225.832H100.108V224ZM109.467 220.315H103.841C103.841 220.785 103.911 221.195 104.053 221.546C104.194 221.892 104.388 222.177 104.634 222.4C104.871 222.619 105.151 222.783 105.475 222.893C105.803 223.002 106.163 223.057 106.555 223.057C107.074 223.057 107.596 222.954 108.12 222.749C108.649 222.539 109.025 222.334 109.248 222.134H109.316V223.535C108.883 223.717 108.441 223.87 107.99 223.993C107.539 224.116 107.065 224.178 106.568 224.178C105.301 224.178 104.312 223.836 103.602 223.152C102.891 222.464 102.535 221.489 102.535 220.227C102.535 218.978 102.875 217.987 103.554 217.253C104.237 216.519 105.135 216.152 106.247 216.152C107.277 216.152 108.07 216.453 108.626 217.055C109.187 217.656 109.467 218.511 109.467 219.618V220.315ZM108.216 219.331C108.211 218.657 108.04 218.135 107.703 217.766C107.37 217.396 106.862 217.212 106.179 217.212C105.491 217.212 104.941 217.415 104.531 217.82C104.126 218.226 103.896 218.729 103.841 219.331H108.216ZM117.13 223.521C116.606 223.768 116.155 223.936 115.776 224.027C115.403 224.123 115.029 224.171 114.655 224.171C114.099 224.171 113.589 224.091 113.124 223.932C112.659 223.768 112.26 223.521 111.928 223.193C111.595 222.865 111.335 222.451 111.148 221.949C110.966 221.448 110.875 220.862 110.875 220.192C110.875 218.976 111.212 218.005 111.887 217.28C112.561 216.551 113.484 216.187 114.655 216.187C115.097 216.187 115.53 216.248 115.954 216.371C116.382 216.494 116.774 216.645 117.13 216.822V218.251H117.055C116.631 217.927 116.212 217.688 115.797 217.533C115.387 217.378 114.988 217.301 114.601 217.301C113.84 217.301 113.249 217.556 112.83 218.066C112.415 218.577 112.208 219.285 112.208 220.192C112.208 221.099 112.415 221.803 112.83 222.305C113.245 222.806 113.835 223.057 114.601 223.057C114.869 223.057 115.136 223.022 115.4 222.954C115.669 222.886 115.913 222.797 116.132 222.688C116.305 222.601 116.483 222.498 116.665 222.38C116.852 222.257 116.982 222.166 117.055 222.106H117.13V223.521ZM124.506 217.492H121.744V224H120.459V217.492H117.697V216.364H124.506V217.492ZM132.142 221.689C132.142 222.059 132.066 222.387 131.916 222.674C131.77 222.961 131.567 223.2 131.308 223.392C131.016 223.606 130.697 223.761 130.351 223.856C130.009 223.952 129.558 224 128.997 224H125.839V216.364H128.792C129.362 216.364 129.79 216.385 130.077 216.426C130.369 216.462 130.642 216.547 130.897 216.679C131.185 216.829 131.394 217.025 131.526 217.267C131.663 217.508 131.731 217.793 131.731 218.121C131.731 218.499 131.624 218.827 131.41 219.105C131.196 219.383 130.92 219.6 130.583 219.755V219.823C131.034 219.933 131.406 220.145 131.697 220.459C131.993 220.769 132.142 221.179 132.142 221.689ZM130.412 218.319C130.412 218.155 130.376 218.007 130.303 217.875C130.234 217.743 130.127 217.64 129.981 217.567C129.79 217.472 129.574 217.419 129.332 217.41C129.095 217.396 128.801 217.39 128.45 217.39H127.11V219.481H128.717C129.054 219.481 129.302 219.47 129.462 219.447C129.626 219.42 129.79 219.356 129.954 219.256C130.127 219.146 130.246 219.019 130.31 218.873C130.378 218.723 130.412 218.538 130.412 218.319ZM130.815 221.696C130.815 221.446 130.774 221.243 130.692 221.088C130.61 220.928 130.43 220.783 130.152 220.65C129.979 220.568 129.792 220.521 129.592 220.507C129.391 220.489 129.113 220.479 128.758 220.479H127.11V222.975H128.327C128.838 222.975 129.229 222.959 129.503 222.927C129.781 222.89 130.02 222.815 130.221 222.701C130.421 222.587 130.569 222.448 130.665 222.284C130.765 222.12 130.815 221.924 130.815 221.696ZM140.099 224H138.82V223.187C138.706 223.264 138.551 223.373 138.355 223.515C138.164 223.651 137.977 223.761 137.795 223.843C137.581 223.948 137.335 224.034 137.057 224.103C136.779 224.175 136.453 224.212 136.079 224.212C135.391 224.212 134.808 223.984 134.329 223.528C133.851 223.073 133.611 222.492 133.611 221.785C133.611 221.206 133.734 220.739 133.98 220.384C134.231 220.024 134.587 219.741 135.047 219.536C135.512 219.331 136.07 219.192 136.722 219.119C137.373 219.046 138.073 218.992 138.82 218.955V218.757C138.82 218.465 138.768 218.224 138.663 218.032C138.563 217.841 138.417 217.69 138.226 217.581C138.043 217.476 137.825 217.406 137.569 217.369C137.314 217.333 137.048 217.314 136.77 217.314C136.432 217.314 136.056 217.36 135.642 217.451C135.227 217.538 134.799 217.665 134.356 217.834H134.288V216.528C134.539 216.46 134.901 216.385 135.375 216.303C135.849 216.221 136.316 216.18 136.776 216.18C137.314 216.18 137.781 216.225 138.178 216.316C138.579 216.403 138.925 216.553 139.217 216.768C139.504 216.977 139.723 217.248 139.873 217.581C140.023 217.914 140.099 218.326 140.099 218.818V224ZM138.82 222.12V219.994C138.428 220.017 137.966 220.051 137.433 220.097C136.904 220.142 136.485 220.208 136.175 220.295C135.806 220.4 135.507 220.564 135.279 220.787C135.051 221.006 134.938 221.309 134.938 221.696C134.938 222.134 135.07 222.464 135.334 222.688C135.598 222.906 136.002 223.016 136.544 223.016C136.995 223.016 137.408 222.929 137.781 222.756C138.155 222.578 138.501 222.366 138.82 222.12ZM63.1533 241H61.7998V232.024H56.7207V241H55.3672V230.821H63.1533V241ZM72.5117 237.09C72.5117 237.71 72.4229 238.277 72.2451 238.792C72.0674 239.302 71.8167 239.735 71.4932 240.091C71.1924 240.428 70.8369 240.69 70.4268 240.877C70.0212 241.059 69.5905 241.15 69.1348 241.15C68.7383 241.15 68.3783 241.107 68.0547 241.021C67.7357 240.934 67.4098 240.799 67.0771 240.617V243.816H65.792V233.364H67.0771V234.164C67.4189 233.877 67.8018 233.638 68.2256 233.446C68.654 233.25 69.1097 233.152 69.5928 233.152C70.5133 233.152 71.2288 233.501 71.7393 234.198C72.2542 234.891 72.5117 235.855 72.5117 237.09ZM71.1855 237.124C71.1855 236.203 71.0283 235.515 70.7139 235.06C70.3994 234.604 69.9163 234.376 69.2646 234.376C68.8955 234.376 68.5241 234.456 68.1504 234.615C67.7767 234.775 67.4189 234.984 67.0771 235.244V239.571C67.4417 239.735 67.7539 239.847 68.0137 239.906C68.278 239.965 68.5765 239.995 68.9092 239.995C69.6247 239.995 70.1829 239.754 70.584 239.271C70.985 238.787 71.1855 238.072 71.1855 237.124ZM80.9062 237.315H75.2803C75.2803 237.785 75.3509 238.195 75.4922 238.546C75.6335 238.892 75.8271 239.177 76.0732 239.4C76.3102 239.619 76.5905 239.783 76.9141 239.893C77.2422 240.002 77.6022 240.057 77.9941 240.057C78.5137 240.057 79.0355 239.954 79.5596 239.749C80.0882 239.539 80.4642 239.334 80.6875 239.134H80.7559V240.535C80.3229 240.717 79.8809 240.87 79.4297 240.993C78.9785 241.116 78.5046 241.178 78.0078 241.178C76.7409 241.178 75.752 240.836 75.041 240.152C74.3301 239.464 73.9746 238.489 73.9746 237.227C73.9746 235.978 74.3141 234.987 74.9932 234.253C75.6768 233.519 76.5745 233.152 77.6865 233.152C78.7165 233.152 79.5094 233.453 80.0654 234.055C80.626 234.656 80.9062 235.511 80.9062 236.618V237.315ZM79.6553 236.331C79.6507 235.657 79.4798 235.135 79.1426 234.766C78.8099 234.396 78.3018 234.212 77.6182 234.212C76.93 234.212 76.3809 234.415 75.9707 234.82C75.5651 235.226 75.335 235.729 75.2803 236.331H79.6553ZM89.7861 242.832H88.5898V240.979H82.8477V242.832H81.6514V239.906H82.4785C83.0117 239.027 83.4082 238.013 83.668 236.864C83.9323 235.711 84.0645 234.545 84.0645 233.364H88.8633V239.906H89.7861V242.832ZM87.5781 239.906V234.444H85.2744C85.2152 235.588 85.0397 236.632 84.748 237.575C84.4564 238.519 84.1214 239.296 83.7432 239.906H87.5781ZM97.9551 241H96.6699V234.472H92.8486V241H91.5635V233.364H97.9551V241ZM107.211 237.09C107.211 237.71 107.122 238.277 106.944 238.792C106.767 239.302 106.516 239.735 106.192 240.091C105.892 240.428 105.536 240.69 105.126 240.877C104.72 241.059 104.29 241.15 103.834 241.15C103.438 241.15 103.077 241.107 102.754 241.021C102.435 240.934 102.109 240.799 101.776 240.617V243.816H100.491V233.364H101.776V234.164C102.118 233.877 102.501 233.638 102.925 233.446C103.353 233.25 103.809 233.152 104.292 233.152C105.213 233.152 105.928 233.501 106.438 234.198C106.953 234.891 107.211 235.855 107.211 237.09ZM105.885 237.124C105.885 236.203 105.728 235.515 105.413 235.06C105.099 234.604 104.616 234.376 103.964 234.376C103.595 234.376 103.223 234.456 102.85 234.615C102.476 234.775 102.118 234.984 101.776 235.244V239.571C102.141 239.735 102.453 239.847 102.713 239.906C102.977 239.965 103.276 239.995 103.608 239.995C104.324 239.995 104.882 239.754 105.283 239.271C105.684 238.787 105.885 238.072 105.885 237.124ZM115.646 241H114.375V235.265L110.376 241H109.214V233.364H110.485V239.018L114.443 233.364H115.646V241ZM124.574 241H123.289V237.562H119.468V241H118.183V233.364H119.468V236.454H123.289V233.364H124.574V241ZM133.543 241H132.271V235.265L128.272 241H127.11V233.364H128.382V239.018L132.34 233.364H133.543V241ZM143.298 241H142.026V234.971L140.126 238.895H139.169L137.282 234.971V241H136.079V233.364H137.631L139.709 237.637L141.719 233.364H143.298V241ZM151.761 241H150.482V240.187C150.368 240.264 150.214 240.373 150.018 240.515C149.826 240.651 149.639 240.761 149.457 240.843C149.243 240.948 148.997 241.034 148.719 241.103C148.441 241.175 148.115 241.212 147.741 241.212C147.053 241.212 146.47 240.984 145.991 240.528C145.513 240.073 145.273 239.492 145.273 238.785C145.273 238.206 145.396 237.739 145.643 237.384C145.893 237.024 146.249 236.741 146.709 236.536C147.174 236.331 147.732 236.192 148.384 236.119C149.035 236.046 149.735 235.992 150.482 235.955V235.757C150.482 235.465 150.43 235.224 150.325 235.032C150.225 234.841 150.079 234.69 149.888 234.581C149.705 234.476 149.487 234.406 149.231 234.369C148.976 234.333 148.71 234.314 148.432 234.314C148.094 234.314 147.718 234.36 147.304 234.451C146.889 234.538 146.461 234.665 146.019 234.834H145.95V233.528C146.201 233.46 146.563 233.385 147.037 233.303C147.511 233.221 147.978 233.18 148.438 233.18C148.976 233.18 149.443 233.225 149.84 233.316C150.241 233.403 150.587 233.553 150.879 233.768C151.166 233.977 151.385 234.248 151.535 234.581C151.686 234.914 151.761 235.326 151.761 235.818V241ZM150.482 239.12V236.994C150.09 237.017 149.628 237.051 149.095 237.097C148.566 237.142 148.147 237.208 147.837 237.295C147.468 237.4 147.169 237.564 146.941 237.787C146.714 238.006 146.6 238.309 146.6 238.696C146.6 239.134 146.732 239.464 146.996 239.688C147.26 239.906 147.664 240.016 148.206 240.016C148.657 240.016 149.07 239.929 149.443 239.756C149.817 239.578 150.163 239.366 150.482 239.12ZM159.848 234.492H157.086V241H155.801V234.492H153.039V233.364H159.848V234.492ZM167.572 237.315H161.946C161.946 237.785 162.017 238.195 162.158 238.546C162.299 238.892 162.493 239.177 162.739 239.4C162.976 239.619 163.257 239.783 163.58 239.893C163.908 240.002 164.268 240.057 164.66 240.057C165.18 240.057 165.701 239.954 166.226 239.749C166.754 239.539 167.13 239.334 167.354 239.134H167.422V240.535C166.989 240.717 166.547 240.87 166.096 240.993C165.645 241.116 165.171 241.178 164.674 241.178C163.407 241.178 162.418 240.836 161.707 240.152C160.996 239.464 160.641 238.489 160.641 237.227C160.641 235.978 160.98 234.987 161.659 234.253C162.343 233.519 163.241 233.152 164.353 233.152C165.382 233.152 166.175 233.453 166.731 234.055C167.292 234.656 167.572 235.511 167.572 236.618V237.315ZM166.321 236.331C166.317 235.657 166.146 235.135 165.809 234.766C165.476 234.396 164.968 234.212 164.284 234.212C163.596 234.212 163.047 234.415 162.637 234.82C162.231 235.226 162.001 235.729 161.946 236.331H166.321ZM175.68 241H174.395V234.444H171.544C171.53 234.823 171.517 235.187 171.503 235.538C171.489 235.889 171.476 236.206 171.462 236.488C171.43 237.249 171.378 237.858 171.305 238.313C171.232 238.765 171.136 239.141 171.018 239.441C170.908 239.724 170.785 239.954 170.648 240.132C170.516 240.305 170.373 240.462 170.218 240.604C170.063 240.74 169.89 240.843 169.698 240.911C169.511 240.979 169.306 241.014 169.083 241.014C169.006 241.014 168.892 241.011 168.741 241.007C168.595 241.002 168.5 241 168.454 241V239.879H168.522C168.559 239.879 168.611 239.881 168.68 239.886C168.748 239.89 168.805 239.893 168.851 239.893C168.96 239.893 169.072 239.877 169.186 239.845C169.304 239.813 169.404 239.754 169.486 239.667C169.719 239.439 169.906 239.054 170.047 238.512C170.188 237.969 170.282 237.186 170.327 236.16C170.345 235.786 170.361 235.344 170.375 234.834C170.393 234.319 170.409 233.829 170.423 233.364H175.68V241ZM184.607 237.315H178.981C178.981 237.785 179.052 238.195 179.193 238.546C179.335 238.892 179.528 239.177 179.774 239.4C180.011 239.619 180.292 239.783 180.615 239.893C180.943 240.002 181.303 240.057 181.695 240.057C182.215 240.057 182.737 239.954 183.261 239.749C183.789 239.539 184.165 239.334 184.389 239.134H184.457V240.535C184.024 240.717 183.582 240.87 183.131 240.993C182.68 241.116 182.206 241.178 181.709 241.178C180.442 241.178 179.453 240.836 178.742 240.152C178.031 239.464 177.676 238.489 177.676 237.227C177.676 235.978 178.015 234.987 178.694 234.253C179.378 233.519 180.276 233.152 181.388 233.152C182.418 233.152 183.211 233.453 183.767 234.055C184.327 234.656 184.607 235.511 184.607 236.618V237.315ZM183.356 236.331C183.352 235.657 183.181 235.135 182.844 234.766C182.511 234.396 182.003 234.212 181.319 234.212C180.631 234.212 180.082 234.415 179.672 234.82C179.266 235.226 179.036 235.729 178.981 236.331H183.356ZM192.988 241H191.717V235.265L187.718 241H186.556V233.364H187.827V239.018L191.785 233.364H192.988V241ZM192.257 230.356C192.234 231.031 192.02 231.557 191.614 231.936C191.213 232.314 190.628 232.503 189.857 232.503C189.087 232.503 188.499 232.314 188.094 231.936C187.693 231.557 187.481 231.031 187.458 230.356H188.627C188.632 230.835 188.736 231.181 188.941 231.396C189.151 231.61 189.456 231.717 189.857 231.717C190.263 231.717 190.568 231.612 190.773 231.402C190.979 231.193 191.083 230.844 191.088 230.356H192.257Z" fill="#333333"/>
<path d="M21 267L28.5 274.5L41 259.5" stroke="#61B857" stroke-width="2" stroke-linecap="round" stroke-linejoin="round"/>
<path d="M63.0508 262.849C63.0508 263.341 62.9528 263.787 62.7568 264.188C62.5654 264.59 62.3079 264.915 61.9844 265.166C61.6016 265.467 61.1914 265.681 60.7539 265.809C60.3164 265.936 59.7513 266 59.0586 266H55.3672V255.821H62.1826V257.024H56.7207V259.813H59.0996C59.7923 259.813 60.3574 259.854 60.7949 259.937C61.2324 260.014 61.6449 260.203 62.0322 260.504C62.3786 260.773 62.6338 261.105 62.7979 261.502C62.9665 261.898 63.0508 262.347 63.0508 262.849ZM61.6357 262.876C61.6357 262.534 61.5788 262.233 61.4648 261.974C61.3509 261.714 61.1732 261.504 60.9316 261.345C60.681 261.176 60.3916 261.074 60.0635 261.037C59.7354 261.001 59.2728 260.982 58.6758 260.982H56.7207V264.845H58.6416C59.2477 264.845 59.7126 264.815 60.0361 264.756C60.3643 264.697 60.6514 264.583 60.8975 264.414C61.1527 264.236 61.3395 264.029 61.458 263.792C61.5765 263.55 61.6357 263.245 61.6357 262.876ZM71.2949 266H70.0234V260.265L66.0244 266H64.8623V258.364H66.1338V264.018L70.0918 258.364H71.2949V266ZM79.1426 263.86C79.1426 264.289 79.0423 264.651 78.8418 264.947C78.6458 265.243 78.3929 265.483 78.083 265.665C77.7731 265.843 77.4313 265.973 77.0576 266.055C76.6839 266.137 76.3102 266.178 75.9365 266.178C75.4079 266.178 74.9043 266.128 74.4258 266.027C73.9473 265.927 73.4756 265.772 73.0107 265.562V264.154H73.0996C73.4323 264.446 73.8561 264.672 74.3711 264.831C74.8861 264.991 75.3851 265.07 75.8682 265.07C76.096 265.07 76.3307 265.05 76.5723 265.009C76.8138 264.963 77.0234 264.893 77.2012 264.797C77.3926 264.688 77.5452 264.558 77.6592 264.407C77.7731 264.252 77.8301 264.043 77.8301 263.778C77.8301 263.505 77.7731 263.286 77.6592 263.122C77.5498 262.958 77.3994 262.835 77.208 262.753C77.0212 262.671 76.7956 262.621 76.5312 262.603C76.2669 262.584 76.0254 262.575 75.8066 262.575H74.6924V261.468H75.4648C75.6471 261.468 75.8841 261.461 76.1758 261.447C76.472 261.434 76.7113 261.397 76.8936 261.338C77.1305 261.26 77.3174 261.151 77.4541 261.01C77.5954 260.868 77.666 260.643 77.666 260.333C77.666 260.119 77.6113 259.943 77.502 259.807C77.3926 259.665 77.2559 259.556 77.0918 259.479C76.9232 259.401 76.734 259.349 76.5244 259.321C76.3193 259.294 76.137 259.28 75.9775 259.28C75.5127 259.28 75.0547 259.344 74.6035 259.472C74.1569 259.595 73.7809 259.775 73.4756 260.012H73.3867V258.597C73.765 258.474 74.1706 258.373 74.6035 258.296C75.0365 258.218 75.4694 258.18 75.9023 258.18C76.2578 258.18 76.611 258.212 76.9619 258.275C77.3174 258.339 77.6478 258.449 77.9531 258.604C78.2539 258.758 78.5 258.97 78.6914 259.239C78.8828 259.504 78.9785 259.832 78.9785 260.224C78.9785 260.625 78.8532 260.978 78.6025 261.283C78.3564 261.584 78.0238 261.8 77.6045 261.933V261.98C78.0739 262.094 78.4476 262.309 78.7256 262.623C79.0036 262.933 79.1426 263.345 79.1426 263.86ZM87.5645 266H86.2793V262.562H82.458V266H81.1729V258.364H82.458V261.454H86.2793V258.364H87.5645V266ZM96.4922 262.315H90.8662C90.8662 262.785 90.9368 263.195 91.0781 263.546C91.2194 263.892 91.4131 264.177 91.6592 264.4C91.8962 264.619 92.1764 264.783 92.5 264.893C92.8281 265.002 93.1882 265.057 93.5801 265.057C94.0996 265.057 94.6214 264.954 95.1455 264.749C95.6742 264.539 96.0501 264.334 96.2734 264.134H96.3418V265.535C95.9089 265.717 95.4668 265.87 95.0156 265.993C94.5645 266.116 94.0905 266.178 93.5938 266.178C92.3268 266.178 91.3379 265.836 90.627 265.152C89.916 264.464 89.5605 263.489 89.5605 262.227C89.5605 260.978 89.9001 259.987 90.5791 259.253C91.2627 258.519 92.1605 258.152 93.2725 258.152C94.3024 258.152 95.0954 258.453 95.6514 259.055C96.2119 259.656 96.4922 260.511 96.4922 261.618V262.315ZM95.2412 261.331C95.2367 260.657 95.0658 260.135 94.7285 259.766C94.3958 259.396 93.8877 259.212 93.2041 259.212C92.516 259.212 91.9668 259.415 91.5566 259.82C91.151 260.226 90.9209 260.729 90.8662 261.331H95.2412ZM104.155 265.521C103.631 265.768 103.18 265.936 102.802 266.027C102.428 266.123 102.054 266.171 101.681 266.171C101.125 266.171 100.614 266.091 100.149 265.932C99.6846 265.768 99.2858 265.521 98.9531 265.193C98.6204 264.865 98.3607 264.451 98.1738 263.949C97.9915 263.448 97.9004 262.862 97.9004 262.192C97.9004 260.976 98.2376 260.005 98.9121 259.28C99.5866 258.551 100.509 258.187 101.681 258.187C102.123 258.187 102.556 258.248 102.979 258.371C103.408 258.494 103.8 258.645 104.155 258.822V260.251H104.08C103.656 259.927 103.237 259.688 102.822 259.533C102.412 259.378 102.013 259.301 101.626 259.301C100.865 259.301 100.275 259.556 99.8555 260.066C99.4408 260.577 99.2334 261.285 99.2334 262.192C99.2334 263.099 99.4408 263.803 99.8555 264.305C100.27 264.806 100.86 265.057 101.626 265.057C101.895 265.057 102.161 265.022 102.426 264.954C102.695 264.886 102.938 264.797 103.157 264.688C103.33 264.601 103.508 264.498 103.69 264.38C103.877 264.257 104.007 264.166 104.08 264.106H104.155V265.521ZM118.203 257.024H114.566V266H113.213V257.024H109.576V255.821H118.203V257.024ZM126.188 262.09C126.188 262.71 126.099 263.277 125.921 263.792C125.743 264.302 125.493 264.735 125.169 265.091C124.868 265.428 124.513 265.69 124.103 265.877C123.697 266.059 123.266 266.15 122.811 266.15C122.414 266.15 122.054 266.107 121.73 266.021C121.411 265.934 121.086 265.799 120.753 265.617V268.816H119.468V258.364H120.753V259.164C121.095 258.877 121.478 258.638 121.901 258.446C122.33 258.25 122.785 258.152 123.269 258.152C124.189 258.152 124.905 258.501 125.415 259.198C125.93 259.891 126.188 260.855 126.188 262.09ZM124.861 262.124C124.861 261.203 124.704 260.515 124.39 260.06C124.075 259.604 123.592 259.376 122.94 259.376C122.571 259.376 122.2 259.456 121.826 259.615C121.452 259.775 121.095 259.984 120.753 260.244V264.571C121.118 264.735 121.43 264.847 121.689 264.906C121.954 264.965 122.252 264.995 122.585 264.995C123.3 264.995 123.859 264.754 124.26 264.271C124.661 263.787 124.861 263.072 124.861 262.124ZM134.582 262.315H128.956C128.956 262.785 129.027 263.195 129.168 263.546C129.309 263.892 129.503 264.177 129.749 264.4C129.986 264.619 130.266 264.783 130.59 264.893C130.918 265.002 131.278 265.057 131.67 265.057C132.189 265.057 132.711 264.954 133.235 264.749C133.764 264.539 134.14 264.334 134.363 264.134H134.432V265.535C133.999 265.717 133.557 265.87 133.105 265.993C132.654 266.116 132.18 266.178 131.684 266.178C130.417 266.178 129.428 265.836 128.717 265.152C128.006 264.464 127.65 263.489 127.65 262.227C127.65 260.978 127.99 259.987 128.669 259.253C129.353 258.519 130.25 258.152 131.362 258.152C132.392 258.152 133.185 258.453 133.741 259.055C134.302 259.656 134.582 260.511 134.582 261.618V262.315ZM133.331 261.331C133.326 260.657 133.156 260.135 132.818 259.766C132.486 259.396 131.978 259.212 131.294 259.212C130.606 259.212 130.057 259.415 129.646 259.82C129.241 260.226 129.011 260.729 128.956 261.331H133.331ZM142.922 266H141.637V262.562H137.815V266H136.53V258.364H137.815V261.454H141.637V258.364H142.922V266ZM151.891 266H150.619V260.265L146.62 266H145.458V258.364H146.729V264.018L150.688 258.364H151.891V266ZM160.818 266H159.533V262.562H155.712V266H154.427V258.364H155.712V261.454H159.533V258.364H160.818V266ZM168.618 259.492H164.64V266H163.354V258.364H168.618V259.492ZM176.391 266H175.119V260.265L171.12 266H169.958V258.364H171.229V264.018L175.188 258.364H176.391V266ZM181.593 264.052L179.665 268.529H178.667L179.856 264.052H181.593ZM64.4316 283H63.0781V274.229L60.248 280.197H59.4414L56.6318 274.229V283H55.3672V272.821H57.2129L59.9268 278.488L62.5518 272.821H64.4316V283ZM72.9971 283H71.7188V282.187C71.6048 282.264 71.4499 282.373 71.2539 282.515C71.0625 282.651 70.8757 282.761 70.6934 282.843C70.4792 282.948 70.2331 283.034 69.9551 283.103C69.6771 283.175 69.3512 283.212 68.9775 283.212C68.2894 283.212 67.7061 282.984 67.2275 282.528C66.749 282.073 66.5098 281.492 66.5098 280.785C66.5098 280.206 66.6328 279.739 66.8789 279.384C67.1296 279.024 67.485 278.741 67.9453 278.536C68.4102 278.331 68.9684 278.192 69.6201 278.119C70.2718 278.046 70.9714 277.992 71.7188 277.955V277.757C71.7188 277.465 71.6663 277.224 71.5615 277.032C71.4613 276.841 71.3154 276.69 71.124 276.581C70.9417 276.476 70.723 276.406 70.4678 276.369C70.2126 276.333 69.946 276.314 69.668 276.314C69.3307 276.314 68.9548 276.36 68.54 276.451C68.1253 276.538 67.6969 276.665 67.2549 276.834H67.1865V275.528C67.4372 275.46 67.7995 275.385 68.2734 275.303C68.7474 275.221 69.2145 275.18 69.6748 275.18C70.2126 275.18 70.6797 275.225 71.0762 275.316C71.4772 275.403 71.8236 275.553 72.1152 275.768C72.4023 275.977 72.6211 276.248 72.7715 276.581C72.9219 276.914 72.9971 277.326 72.9971 277.818V283ZM71.7188 281.12V278.994C71.3268 279.017 70.8643 279.051 70.3311 279.097C69.8024 279.142 69.3831 279.208 69.0732 279.295C68.7041 279.4 68.4056 279.564 68.1777 279.787C67.9499 280.006 67.8359 280.309 67.8359 280.696C67.8359 281.134 67.9681 281.464 68.2324 281.688C68.4967 281.906 68.9001 282.016 69.4424 282.016C69.8936 282.016 70.306 281.929 70.6797 281.756C71.0534 281.578 71.3997 281.366 71.7188 281.12ZM81.1865 282.521C80.6624 282.768 80.2113 282.936 79.833 283.027C79.4593 283.123 79.0856 283.171 78.7119 283.171C78.1559 283.171 77.6455 283.091 77.1807 282.932C76.7158 282.768 76.3171 282.521 75.9844 282.193C75.6517 281.865 75.3919 281.451 75.2051 280.949C75.0228 280.448 74.9316 279.862 74.9316 279.192C74.9316 277.976 75.2689 277.005 75.9434 276.28C76.6178 275.551 77.5407 275.187 78.7119 275.187C79.154 275.187 79.5869 275.248 80.0107 275.371C80.4391 275.494 80.8311 275.645 81.1865 275.822V277.251H81.1113C80.6875 276.927 80.2682 276.688 79.8535 276.533C79.4434 276.378 79.0446 276.301 78.6572 276.301C77.8962 276.301 77.306 276.556 76.8867 277.066C76.472 277.577 76.2646 278.285 76.2646 279.192C76.2646 280.099 76.472 280.803 76.8867 281.305C77.3014 281.806 77.8916 282.057 78.6572 282.057C78.9261 282.057 79.1927 282.022 79.457 281.954C79.7259 281.886 79.9697 281.797 80.1885 281.688C80.3617 281.601 80.5394 281.498 80.7217 281.38C80.9085 281.257 81.0384 281.166 81.1113 281.106H81.1865V282.521ZM88.5625 276.492H85.8008V283H84.5156V276.492H81.7539V275.364H88.5625V276.492ZM96.2871 279.315H90.6611C90.6611 279.785 90.7318 280.195 90.873 280.546C91.0143 280.892 91.208 281.177 91.4541 281.4C91.6911 281.619 91.9714 281.783 92.2949 281.893C92.623 282.002 92.9831 282.057 93.375 282.057C93.8945 282.057 94.4163 281.954 94.9404 281.749C95.4691 281.539 95.8451 281.334 96.0684 281.134H96.1367V282.535C95.7038 282.717 95.2617 282.87 94.8105 282.993C94.3594 283.116 93.8854 283.178 93.3887 283.178C92.1217 283.178 91.1328 282.836 90.4219 282.152C89.7109 281.464 89.3555 280.489 89.3555 279.227C89.3555 277.978 89.695 276.987 90.374 276.253C91.0576 275.519 91.9554 275.152 93.0674 275.152C94.0973 275.152 94.8903 275.453 95.4463 276.055C96.0068 276.656 96.2871 277.511 96.2871 278.618V279.315ZM95.0361 278.331C95.0316 277.657 94.8607 277.135 94.5234 276.766C94.1908 276.396 93.6826 276.212 92.999 276.212C92.3109 276.212 91.7617 276.415 91.3516 276.82C90.946 277.226 90.7158 277.729 90.6611 278.331H95.0361ZM104.955 279.09C104.955 279.71 104.866 280.277 104.688 280.792C104.511 281.302 104.26 281.735 103.937 282.091C103.636 282.428 103.28 282.69 102.87 282.877C102.465 283.059 102.034 283.15 101.578 283.15C101.182 283.15 100.822 283.107 100.498 283.021C100.179 282.934 99.8532 282.799 99.5205 282.617V285.816H98.2354V275.364H99.5205V276.164C99.8623 275.877 100.245 275.638 100.669 275.446C101.097 275.25 101.553 275.152 102.036 275.152C102.957 275.152 103.672 275.501 104.183 276.198C104.698 276.891 104.955 277.855 104.955 279.09ZM103.629 279.124C103.629 278.203 103.472 277.515 103.157 277.06C102.843 276.604 102.36 276.376 101.708 276.376C101.339 276.376 100.967 276.456 100.594 276.615C100.22 276.775 99.8623 276.984 99.5205 277.244V281.571C99.8851 281.735 100.197 281.847 100.457 281.906C100.721 281.965 101.02 281.995 101.353 281.995C102.068 281.995 102.626 281.754 103.027 281.271C103.428 280.787 103.629 280.072 103.629 279.124ZM120.165 283H118.429L114.293 278.358H113.37V283H112.017V272.821H113.37V277.388C113.603 277.383 113.821 277.36 114.026 277.319C114.231 277.278 114.425 277.201 114.607 277.087C114.79 276.982 114.97 276.834 115.147 276.643C115.325 276.447 115.482 276.207 115.619 275.925C115.678 275.802 115.747 275.647 115.824 275.46C115.906 275.273 115.988 275.077 116.07 274.872C116.385 274.116 116.752 273.585 117.171 273.279C117.595 272.974 118.217 272.821 119.037 272.821H119.577V274.031H119.01C118.695 274.031 118.449 274.061 118.271 274.12C118.094 274.175 117.934 274.268 117.793 274.4C117.661 274.519 117.545 274.678 117.444 274.879C117.349 275.079 117.248 275.314 117.144 275.583C116.907 276.185 116.665 276.627 116.419 276.909C116.177 277.192 115.852 277.438 115.441 277.647L120.165 283ZM127.746 283H126.461V276.444H123.61C123.597 276.823 123.583 277.187 123.569 277.538C123.556 277.889 123.542 278.206 123.528 278.488C123.496 279.249 123.444 279.858 123.371 280.313C123.298 280.765 123.202 281.141 123.084 281.441C122.975 281.724 122.852 281.954 122.715 282.132C122.583 282.305 122.439 282.462 122.284 282.604C122.129 282.74 121.956 282.843 121.765 282.911C121.578 282.979 121.373 283.014 121.149 283.014C121.072 283.014 120.958 283.011 120.808 283.007C120.662 283.002 120.566 283 120.521 283V281.879H120.589C120.625 281.879 120.678 281.881 120.746 281.886C120.814 281.89 120.871 281.893 120.917 281.893C121.026 281.893 121.138 281.877 121.252 281.845C121.37 281.813 121.471 281.754 121.553 281.667C121.785 281.439 121.972 281.054 122.113 280.512C122.255 279.969 122.348 279.186 122.394 278.16C122.412 277.786 122.428 277.344 122.441 276.834C122.46 276.319 122.476 275.829 122.489 275.364H127.746V283ZM136.216 283H134.938V282.187C134.824 282.264 134.669 282.373 134.473 282.515C134.281 282.651 134.094 282.761 133.912 282.843C133.698 282.948 133.452 283.034 133.174 283.103C132.896 283.175 132.57 283.212 132.196 283.212C131.508 283.212 130.925 282.984 130.446 282.528C129.968 282.073 129.729 281.492 129.729 280.785C129.729 280.206 129.852 279.739 130.098 279.384C130.348 279.024 130.704 278.741 131.164 278.536C131.629 278.331 132.187 278.192 132.839 278.119C133.491 278.046 134.19 277.992 134.938 277.955V277.757C134.938 277.465 134.885 277.224 134.78 277.032C134.68 276.841 134.534 276.69 134.343 276.581C134.16 276.476 133.942 276.406 133.687 276.369C133.431 276.333 133.165 276.314 132.887 276.314C132.549 276.314 132.174 276.36 131.759 276.451C131.344 276.538 130.916 276.665 130.474 276.834H130.405V275.528C130.656 275.46 131.018 275.385 131.492 275.303C131.966 275.221 132.433 275.18 132.894 275.18C133.431 275.18 133.898 275.225 134.295 275.316C134.696 275.403 135.042 275.553 135.334 275.768C135.621 275.977 135.84 276.248 135.99 276.581C136.141 276.914 136.216 277.326 136.216 277.818V283ZM134.938 281.12V278.994C134.546 279.017 134.083 279.051 133.55 279.097C133.021 279.142 132.602 279.208 132.292 279.295C131.923 279.4 131.624 279.564 131.396 279.787C131.169 280.006 131.055 280.309 131.055 280.696C131.055 281.134 131.187 281.464 131.451 281.688C131.715 281.906 132.119 282.016 132.661 282.016C133.112 282.016 133.525 281.929 133.898 281.756C134.272 281.578 134.618 281.366 134.938 281.12ZM144.405 282.521C143.881 282.768 143.43 282.936 143.052 283.027C142.678 283.123 142.304 283.171 141.931 283.171C141.375 283.171 140.864 283.091 140.399 282.932C139.935 282.768 139.536 282.521 139.203 282.193C138.87 281.865 138.611 281.451 138.424 280.949C138.242 280.448 138.15 279.862 138.15 279.192C138.15 277.976 138.488 277.005 139.162 276.28C139.837 275.551 140.759 275.187 141.931 275.187C142.373 275.187 142.806 275.248 143.229 275.371C143.658 275.494 144.05 275.645 144.405 275.822V277.251H144.33C143.906 276.927 143.487 276.688 143.072 276.533C142.662 276.378 142.263 276.301 141.876 276.301C141.115 276.301 140.525 276.556 140.105 277.066C139.691 277.577 139.483 278.285 139.483 279.192C139.483 280.099 139.691 280.803 140.105 281.305C140.52 281.806 141.11 282.057 141.876 282.057C142.145 282.057 142.411 282.022 142.676 281.954C142.945 281.886 143.188 281.797 143.407 281.688C143.58 281.601 143.758 281.498 143.94 281.38C144.127 281.257 144.257 281.166 144.33 281.106H144.405V282.521ZM151.884 282.521C151.36 282.768 150.909 282.936 150.53 283.027C150.157 283.123 149.783 283.171 149.409 283.171C148.853 283.171 148.343 283.091 147.878 282.932C147.413 282.768 147.014 282.521 146.682 282.193C146.349 281.865 146.089 281.451 145.902 280.949C145.72 280.448 145.629 279.862 145.629 279.192C145.629 277.976 145.966 277.005 146.641 276.28C147.315 275.551 148.238 275.187 149.409 275.187C149.851 275.187 150.284 275.248 150.708 275.371C151.136 275.494 151.528 275.645 151.884 275.822V277.251H151.809C151.385 276.927 150.965 276.688 150.551 276.533C150.141 276.378 149.742 276.301 149.354 276.301C148.593 276.301 148.003 276.556 147.584 277.066C147.169 277.577 146.962 278.285 146.962 279.192C146.962 280.099 147.169 280.803 147.584 281.305C147.999 281.806 148.589 282.057 149.354 282.057C149.623 282.057 149.89 282.022 150.154 281.954C150.423 281.886 150.667 281.797 150.886 281.688C151.059 281.601 151.237 281.498 151.419 281.38C151.606 281.257 151.736 281.166 151.809 281.106H151.884V282.521ZM158.351 280.655C158.351 280.423 158.31 280.22 158.228 280.047C158.15 279.869 158.02 279.726 157.838 279.616C157.646 279.502 157.428 279.434 157.182 279.411C156.94 279.388 156.591 279.377 156.136 279.377H154.933V281.975H156.108C156.564 281.975 156.917 281.956 157.168 281.92C157.419 281.879 157.635 281.804 157.817 281.694C158.004 281.576 158.139 281.437 158.221 281.277C158.307 281.113 158.351 280.906 158.351 280.655ZM159.677 280.635C159.677 281.004 159.602 281.339 159.451 281.64C159.305 281.94 159.105 282.184 158.85 282.371C158.549 282.599 158.228 282.761 157.886 282.856C157.544 282.952 157.104 283 156.566 283H153.647V275.364H154.933V278.338H156.601C157.175 278.338 157.619 278.368 157.934 278.427C158.253 278.486 158.569 278.632 158.884 278.864C159.148 279.06 159.346 279.311 159.479 279.616C159.611 279.922 159.677 280.261 159.677 280.635ZM160.955 275.364H162.24V283H160.955V275.364ZM167.442 281.052L165.515 285.529H164.517L165.706 281.052H167.442ZM63.2285 299.262C62.9779 299.371 62.75 299.474 62.5449 299.569C62.3444 299.665 62.0801 299.765 61.752 299.87C61.474 299.957 61.1709 300.03 60.8428 300.089C60.5192 300.153 60.1615 300.185 59.7695 300.185C59.0312 300.185 58.359 300.082 57.7529 299.877C57.1514 299.667 56.6273 299.341 56.1807 298.899C55.7432 298.466 55.4014 297.917 55.1553 297.252C54.9092 296.582 54.7861 295.805 54.7861 294.921C54.7861 294.082 54.9046 293.333 55.1416 292.672C55.3786 292.011 55.7204 291.453 56.167 290.997C56.5999 290.555 57.1217 290.218 57.7324 289.985C58.3477 289.753 59.029 289.637 59.7764 289.637C60.3232 289.637 60.8678 289.703 61.4102 289.835C61.957 289.967 62.5632 290.2 63.2285 290.532V292.139H63.126C62.5654 291.669 62.0094 291.327 61.458 291.113C60.9066 290.899 60.3164 290.792 59.6875 290.792C59.1725 290.792 58.7077 290.876 58.293 291.045C57.8828 291.209 57.516 291.466 57.1924 291.817C56.8779 292.159 56.6318 292.592 56.4541 293.116C56.2809 293.636 56.1943 294.237 56.1943 294.921C56.1943 295.636 56.29 296.252 56.4814 296.767C56.6774 297.282 56.9281 297.701 57.2334 298.024C57.5524 298.362 57.9238 298.612 58.3477 298.776C58.776 298.936 59.2272 299.016 59.7012 299.016C60.3529 299.016 60.9635 298.904 61.5332 298.681C62.1029 298.457 62.6361 298.122 63.1328 297.676H63.2285V299.262ZM71.4316 296.315H65.8057C65.8057 296.785 65.8763 297.195 66.0176 297.546C66.1589 297.892 66.3525 298.177 66.5986 298.4C66.8356 298.619 67.1159 298.783 67.4395 298.893C67.7676 299.002 68.1276 299.057 68.5195 299.057C69.0391 299.057 69.5609 298.954 70.085 298.749C70.6136 298.539 70.9896 298.334 71.2129 298.134H71.2812V299.535C70.8483 299.717 70.4062 299.87 69.9551 299.993C69.5039 300.116 69.0299 300.178 68.5332 300.178C67.2663 300.178 66.2773 299.836 65.5664 299.152C64.8555 298.464 64.5 297.489 64.5 296.227C64.5 294.978 64.8395 293.987 65.5186 293.253C66.2021 292.519 67.0999 292.152 68.2119 292.152C69.2419 292.152 70.0348 292.453 70.5908 293.055C71.1514 293.656 71.4316 294.511 71.4316 295.618V296.315ZM70.1807 295.331C70.1761 294.657 70.0052 294.135 69.668 293.766C69.3353 293.396 68.8271 293.212 68.1436 293.212C67.4554 293.212 66.9062 293.415 66.4961 293.82C66.0905 294.226 65.8604 294.729 65.8057 295.331H70.1807ZM80.5986 300H79.3271V293.971L77.4268 297.895H76.4697L74.583 293.971V300H73.3799V292.364H74.9316L77.0098 296.637L79.0195 292.364H80.5986V300ZM89.5605 300H88.2891V294.265L84.29 300H83.1279V292.364H84.3994V298.018L88.3574 292.364H89.5605V300ZM98.4883 300H97.2031V296.562H93.3818V300H92.0967V292.364H93.3818V295.454H97.2031V292.364H98.4883V300ZM106.958 300H105.68V299.187C105.566 299.264 105.411 299.373 105.215 299.515C105.023 299.651 104.837 299.761 104.654 299.843C104.44 299.948 104.194 300.034 103.916 300.103C103.638 300.175 103.312 300.212 102.938 300.212C102.25 300.212 101.667 299.984 101.188 299.528C100.71 299.073 100.471 298.492 100.471 297.785C100.471 297.206 100.594 296.739 100.84 296.384C101.09 296.024 101.446 295.741 101.906 295.536C102.371 295.331 102.929 295.192 103.581 295.119C104.233 295.046 104.932 294.992 105.68 294.955V294.757C105.68 294.465 105.627 294.224 105.522 294.032C105.422 293.841 105.276 293.69 105.085 293.581C104.903 293.476 104.684 293.406 104.429 293.369C104.174 293.333 103.907 293.314 103.629 293.314C103.292 293.314 102.916 293.36 102.501 293.451C102.086 293.538 101.658 293.665 101.216 293.834H101.147V292.528C101.398 292.46 101.76 292.385 102.234 292.303C102.708 292.221 103.175 292.18 103.636 292.18C104.174 292.18 104.641 292.225 105.037 292.316C105.438 292.403 105.785 292.553 106.076 292.768C106.363 292.977 106.582 293.248 106.732 293.581C106.883 293.914 106.958 294.326 106.958 294.818V300ZM105.68 298.12V295.994C105.288 296.017 104.825 296.051 104.292 296.097C103.763 296.142 103.344 296.208 103.034 296.295C102.665 296.4 102.367 296.564 102.139 296.787C101.911 297.006 101.797 297.309 101.797 297.696C101.797 298.134 101.929 298.464 102.193 298.688C102.458 298.906 102.861 299.016 103.403 299.016C103.854 299.016 104.267 298.929 104.641 298.756C105.014 298.578 105.361 298.366 105.68 298.12ZM116.152 296.09C116.152 296.71 116.063 297.277 115.886 297.792C115.708 298.302 115.457 298.735 115.134 299.091C114.833 299.428 114.478 299.69 114.067 299.877C113.662 300.059 113.231 300.15 112.775 300.15C112.379 300.15 112.019 300.107 111.695 300.021C111.376 299.934 111.05 299.799 110.718 299.617V302.816H109.433V292.364H110.718V293.164C111.06 292.877 111.442 292.638 111.866 292.446C112.295 292.25 112.75 292.152 113.233 292.152C114.154 292.152 114.869 292.501 115.38 293.198C115.895 293.891 116.152 294.855 116.152 296.09ZM114.826 296.124C114.826 295.203 114.669 294.515 114.354 294.06C114.04 293.604 113.557 293.376 112.905 293.376C112.536 293.376 112.165 293.456 111.791 293.615C111.417 293.775 111.06 293.984 110.718 294.244V298.571C111.082 298.735 111.395 298.847 111.654 298.906C111.919 298.965 112.217 298.995 112.55 298.995C113.265 298.995 113.824 298.754 114.225 298.271C114.626 297.787 114.826 297.072 114.826 296.124ZM122.858 297.655C122.858 297.423 122.817 297.22 122.735 297.047C122.658 296.869 122.528 296.726 122.346 296.616C122.154 296.502 121.936 296.434 121.689 296.411C121.448 296.388 121.099 296.377 120.644 296.377H119.44V298.975H120.616C121.072 298.975 121.425 298.956 121.676 298.92C121.926 298.879 122.143 298.804 122.325 298.694C122.512 298.576 122.646 298.437 122.729 298.277C122.815 298.113 122.858 297.906 122.858 297.655ZM124.185 297.635C124.185 298.004 124.109 298.339 123.959 298.64C123.813 298.94 123.613 299.184 123.357 299.371C123.057 299.599 122.735 299.761 122.394 299.856C122.052 299.952 121.612 300 121.074 300H118.155V292.364H119.44V295.338H121.108C121.683 295.338 122.127 295.368 122.441 295.427C122.76 295.486 123.077 295.632 123.392 295.864C123.656 296.06 123.854 296.311 123.986 296.616C124.118 296.922 124.185 297.261 124.185 297.635ZM125.463 292.364H126.748V300H125.463V292.364Z" fill="#333333"/>
<path d="M21 326L28.5 333.5L41 318.5" stroke="#61B857" stroke-width="2" stroke-linecap="round" stroke-linejoin="round"/>
<path d="M63.0508 328.349C63.0508 328.841 62.9528 329.287 62.7568 329.688C62.5654 330.09 62.3079 330.415 61.9844 330.666C61.6016 330.967 61.1914 331.181 60.7539 331.309C60.3164 331.436 59.7513 331.5 59.0586 331.5H55.3672V321.321H62.1826V322.524H56.7207V325.313H59.0996C59.7923 325.313 60.3574 325.354 60.7949 325.437C61.2324 325.514 61.6449 325.703 62.0322 326.004C62.3786 326.273 62.6338 326.605 62.7979 327.002C62.9665 327.398 63.0508 327.847 63.0508 328.349ZM61.6357 328.376C61.6357 328.034 61.5788 327.733 61.4648 327.474C61.3509 327.214 61.1732 327.004 60.9316 326.845C60.681 326.676 60.3916 326.574 60.0635 326.537C59.7354 326.501 59.2728 326.482 58.6758 326.482H56.7207V330.345H58.6416C59.2477 330.345 59.7126 330.315 60.0361 330.256C60.3643 330.197 60.6514 330.083 60.8975 329.914C61.1527 329.736 61.3395 329.529 61.458 329.292C61.5765 329.05 61.6357 328.745 61.6357 328.376ZM71.2949 331.5H70.0234V325.765L66.0244 331.5H64.8623V323.864H66.1338V329.518L70.0918 323.864H71.2949V331.5ZM79.1426 329.36C79.1426 329.789 79.0423 330.151 78.8418 330.447C78.6458 330.743 78.3929 330.983 78.083 331.165C77.7731 331.343 77.4313 331.473 77.0576 331.555C76.6839 331.637 76.3102 331.678 75.9365 331.678C75.4079 331.678 74.9043 331.628 74.4258 331.527C73.9473 331.427 73.4756 331.272 73.0107 331.062V329.654H73.0996C73.4323 329.946 73.8561 330.172 74.3711 330.331C74.8861 330.491 75.3851 330.57 75.8682 330.57C76.096 330.57 76.3307 330.55 76.5723 330.509C76.8138 330.463 77.0234 330.393 77.2012 330.297C77.3926 330.188 77.5452 330.058 77.6592 329.907C77.7731 329.752 77.8301 329.543 77.8301 329.278C77.8301 329.005 77.7731 328.786 77.6592 328.622C77.5498 328.458 77.3994 328.335 77.208 328.253C77.0212 328.171 76.7956 328.121 76.5312 328.103C76.2669 328.084 76.0254 328.075 75.8066 328.075H74.6924V326.968H75.4648C75.6471 326.968 75.8841 326.961 76.1758 326.947C76.472 326.934 76.7113 326.897 76.8936 326.838C77.1305 326.76 77.3174 326.651 77.4541 326.51C77.5954 326.368 77.666 326.143 77.666 325.833C77.666 325.619 77.6113 325.443 77.502 325.307C77.3926 325.165 77.2559 325.056 77.0918 324.979C76.9232 324.901 76.734 324.849 76.5244 324.821C76.3193 324.794 76.137 324.78 75.9775 324.78C75.5127 324.78 75.0547 324.844 74.6035 324.972C74.1569 325.095 73.7809 325.275 73.4756 325.512H73.3867V324.097C73.765 323.974 74.1706 323.873 74.6035 323.796C75.0365 323.718 75.4694 323.68 75.9023 323.68C76.2578 323.68 76.611 323.712 76.9619 323.775C77.3174 323.839 77.6478 323.949 77.9531 324.104C78.2539 324.258 78.5 324.47 78.6914 324.739C78.8828 325.004 78.9785 325.332 78.9785 325.724C78.9785 326.125 78.8532 326.478 78.6025 326.783C78.3564 327.084 78.0238 327.3 77.6045 327.433V327.48C78.0739 327.594 78.4476 327.809 78.7256 328.123C79.0036 328.433 79.1426 328.845 79.1426 329.36ZM87.5645 331.5H86.2793V328.062H82.458V331.5H81.1729V323.864H82.458V326.954H86.2793V323.864H87.5645V331.5ZM96.4922 327.815H90.8662C90.8662 328.285 90.9368 328.695 91.0781 329.046C91.2194 329.392 91.4131 329.677 91.6592 329.9C91.8962 330.119 92.1764 330.283 92.5 330.393C92.8281 330.502 93.1882 330.557 93.5801 330.557C94.0996 330.557 94.6214 330.454 95.1455 330.249C95.6742 330.039 96.0501 329.834 96.2734 329.634H96.3418V331.035C95.9089 331.217 95.4668 331.37 95.0156 331.493C94.5645 331.616 94.0905 331.678 93.5938 331.678C92.3268 331.678 91.3379 331.336 90.627 330.652C89.916 329.964 89.5605 328.989 89.5605 327.727C89.5605 326.478 89.9001 325.487 90.5791 324.753C91.2627 324.019 92.1605 323.652 93.2725 323.652C94.3024 323.652 95.0954 323.953 95.6514 324.555C96.2119 325.156 96.4922 326.011 96.4922 327.118V327.815ZM95.2412 326.831C95.2367 326.157 95.0658 325.635 94.7285 325.266C94.3958 324.896 93.8877 324.712 93.2041 324.712C92.516 324.712 91.9668 324.915 91.5566 325.32C91.151 325.726 90.9209 326.229 90.8662 326.831H95.2412ZM104.155 331.021C103.631 331.268 103.18 331.436 102.802 331.527C102.428 331.623 102.054 331.671 101.681 331.671C101.125 331.671 100.614 331.591 100.149 331.432C99.6846 331.268 99.2858 331.021 98.9531 330.693C98.6204 330.365 98.3607 329.951 98.1738 329.449C97.9915 328.948 97.9004 328.362 97.9004 327.692C97.9004 326.476 98.2376 325.505 98.9121 324.78C99.5866 324.051 100.509 323.687 101.681 323.687C102.123 323.687 102.556 323.748 102.979 323.871C103.408 323.994 103.8 324.145 104.155 324.322V325.751H104.08C103.656 325.427 103.237 325.188 102.822 325.033C102.412 324.878 102.013 324.801 101.626 324.801C100.865 324.801 100.275 325.056 99.8555 325.566C99.4408 326.077 99.2334 326.785 99.2334 327.692C99.2334 328.599 99.4408 329.303 99.8555 329.805C100.27 330.306 100.86 330.557 101.626 330.557C101.895 330.557 102.161 330.522 102.426 330.454C102.695 330.386 102.938 330.297 103.157 330.188C103.33 330.101 103.508 329.998 103.69 329.88C103.877 329.757 104.007 329.666 104.08 329.606H104.155V331.021ZM118.49 331.5H117.137V322.524H113.459C113.445 323.039 113.425 323.545 113.397 324.042C113.375 324.534 113.356 324.974 113.343 325.361C113.306 326.337 113.245 327.139 113.158 327.768C113.076 328.396 112.969 328.914 112.837 329.319C112.705 329.729 112.554 330.058 112.386 330.304C112.222 330.545 112.033 330.764 111.818 330.96C111.6 331.16 111.374 331.304 111.142 331.391C110.914 331.477 110.645 331.521 110.335 331.521C110.239 331.521 110.123 331.516 109.986 331.507C109.85 331.502 109.754 331.5 109.699 331.5V330.188H109.795C109.84 330.192 109.897 330.197 109.966 330.201C110.034 330.206 110.103 330.208 110.171 330.208C110.335 330.208 110.49 330.183 110.636 330.133C110.782 330.083 110.905 330.005 111.005 329.9C111.328 329.577 111.565 329.044 111.716 328.301C111.871 327.558 111.98 326.501 112.044 325.129C112.067 324.682 112.09 324.09 112.112 323.352C112.14 322.613 112.162 321.937 112.181 321.321H118.49V331.5ZM127.056 331.5H125.777V330.687C125.663 330.764 125.508 330.873 125.312 331.015C125.121 331.151 124.934 331.261 124.752 331.343C124.538 331.448 124.292 331.534 124.014 331.603C123.736 331.675 123.41 331.712 123.036 331.712C122.348 331.712 121.765 331.484 121.286 331.028C120.808 330.573 120.568 329.992 120.568 329.285C120.568 328.706 120.691 328.239 120.938 327.884C121.188 327.524 121.544 327.241 122.004 327.036C122.469 326.831 123.027 326.692 123.679 326.619C124.33 326.546 125.03 326.492 125.777 326.455V326.257C125.777 325.965 125.725 325.724 125.62 325.532C125.52 325.341 125.374 325.19 125.183 325.081C125 324.976 124.782 324.906 124.526 324.869C124.271 324.833 124.005 324.814 123.727 324.814C123.389 324.814 123.013 324.86 122.599 324.951C122.184 325.038 121.756 325.165 121.313 325.334H121.245V324.028C121.496 323.96 121.858 323.885 122.332 323.803C122.806 323.721 123.273 323.68 123.733 323.68C124.271 323.68 124.738 323.725 125.135 323.816C125.536 323.903 125.882 324.053 126.174 324.268C126.461 324.477 126.68 324.748 126.83 325.081C126.98 325.414 127.056 325.826 127.056 326.318V331.5ZM125.777 329.62V327.494C125.385 327.517 124.923 327.551 124.39 327.597C123.861 327.642 123.442 327.708 123.132 327.795C122.763 327.9 122.464 328.064 122.236 328.287C122.008 328.506 121.895 328.809 121.895 329.196C121.895 329.634 122.027 329.964 122.291 330.188C122.555 330.406 122.959 330.516 123.501 330.516C123.952 330.516 124.365 330.429 124.738 330.256C125.112 330.078 125.458 329.866 125.777 329.62ZM134.794 324.992H130.815V331.5H129.53V323.864H134.794V324.992ZM142.525 327.815H136.899C136.899 328.285 136.97 328.695 137.111 329.046C137.253 329.392 137.446 329.677 137.692 329.9C137.929 330.119 138.21 330.283 138.533 330.393C138.861 330.502 139.221 330.557 139.613 330.557C140.133 330.557 140.655 330.454 141.179 330.249C141.707 330.039 142.083 329.834 142.307 329.634H142.375V331.035C141.942 331.217 141.5 331.37 141.049 331.493C140.598 331.616 140.124 331.678 139.627 331.678C138.36 331.678 137.371 331.336 136.66 330.652C135.949 329.964 135.594 328.989 135.594 327.727C135.594 326.478 135.933 325.487 136.612 324.753C137.296 324.019 138.194 323.652 139.306 323.652C140.336 323.652 141.129 323.953 141.685 324.555C142.245 325.156 142.525 326.011 142.525 327.118V327.815ZM141.274 326.831C141.27 326.157 141.099 325.635 140.762 325.266C140.429 324.896 139.921 324.712 139.237 324.712C138.549 324.712 138 324.915 137.59 325.32C137.184 325.726 136.954 326.229 136.899 326.831H141.274ZM151.193 327.59C151.193 328.21 151.104 328.777 150.927 329.292C150.749 329.802 150.498 330.235 150.175 330.591C149.874 330.928 149.519 331.19 149.108 331.377C148.703 331.559 148.272 331.65 147.816 331.65C147.42 331.65 147.06 331.607 146.736 331.521C146.417 331.434 146.091 331.299 145.759 331.117V334.316H144.474V323.864H145.759V324.664C146.101 324.377 146.483 324.138 146.907 323.946C147.336 323.75 147.791 323.652 148.274 323.652C149.195 323.652 149.91 324.001 150.421 324.698C150.936 325.391 151.193 326.355 151.193 327.59ZM149.867 327.624C149.867 326.703 149.71 326.015 149.396 325.56C149.081 325.104 148.598 324.876 147.946 324.876C147.577 324.876 147.206 324.956 146.832 325.115C146.458 325.275 146.101 325.484 145.759 325.744V330.071C146.123 330.235 146.436 330.347 146.695 330.406C146.96 330.465 147.258 330.495 147.591 330.495C148.306 330.495 148.865 330.254 149.266 329.771C149.667 329.287 149.867 328.572 149.867 327.624ZM159.062 331.5H157.776V328.472H156.266L153.9 331.5H152.39L154.96 328.349C154.299 328.166 153.816 327.888 153.511 327.515C153.205 327.136 153.053 326.642 153.053 326.031C153.053 325.626 153.144 325.282 153.326 324.999C153.508 324.716 153.739 324.486 154.017 324.309C154.29 324.135 154.604 324.019 154.96 323.96C155.315 323.896 155.703 323.864 156.122 323.864H159.062V331.5ZM157.776 327.46V324.89H156.156C155.805 324.89 155.552 324.901 155.397 324.924C155.243 324.947 155.074 325.008 154.892 325.108C154.714 325.209 154.582 325.345 154.495 325.519C154.413 325.687 154.372 325.872 154.372 326.072C154.372 326.323 154.397 326.526 154.447 326.681C154.502 326.836 154.611 326.981 154.775 327.118C154.944 327.25 155.149 327.341 155.391 327.392C155.632 327.437 155.901 327.46 156.197 327.46H157.776Z" fill="#333333"/>
</g>
<defs>
<filter id="filter0_d_873_9023" x="-17" y="-15" width="383" height="440" filterUnits="userSpaceOnUse" color-interpolation-filters="sRGB">
<feFlood flood-opacity="0" result="BackgroundImageFix"/>
<feColorMatrix in="SourceAlpha" type="matrix" values="0 0 0 0 0 0 0 0 0 0 0 0 0 0 0 0 0 0 127 0" result="hardAlpha"/>
<feOffset dx="3" dy="5"/>
<feGaussianBlur stdDeviation="10"/>
<feComposite in2="hardAlpha" operator="out"/>
<feColorMatrix type="matrix" values="0 0 0 0 0.2 0 0 0 0 0.2 0 0 0 0 0.2 0 0 0 0.1 0"/>
<feBlend mode="normal" in2="BackgroundImageFix" result="effect1_dropShadow_873_9023"/>
<feBlend mode="normal" in="SourceGraphic" in2="effect1_dropShadow_873_9023" result="shape"/>
</filter>
<filter id="filter1_d_873_9023" x="13" y="13" width="82" height="82" filterUnits="userSpaceOnUse" color-interpolation-filters="sRGB">
<feFlood flood-opacity="0" result="BackgroundImageFix"/>
<feColorMatrix in="SourceAlpha" type="matrix" values="0 0 0 0 0 0 0 0 0 0 0 0 0 0 0 0 0 0 127 0" result="hardAlpha"/>
<feOffset dx="3" dy="3"/>
<feGaussianBlur stdDeviation="3"/>
<feComposite in2="hardAlpha" operator="out"/>
<feColorMatrix type="matrix" values="0 0 0 0 0.2 0 0 0 0 0.2 0 0 0 0 0.2 0 0 0 0.25 0"/>
<feBlend mode="normal" in2="BackgroundImageFix" result="effect1_dropShadow_873_9023"/>
<feBlend mode="normal" in="SourceGraphic" in2="effect1_dropShadow_873_9023" result="shape"/>
</filter>
</defs>
</svg>
