<svg width="203" height="340" viewBox="0 0 203 340" fill="none" xmlns="http://www.w3.org/2000/svg">
<path d="M20.5195 40H16.043V28.3164L12.8086 35.8984H9.70312L6.46875 28.3164V40H2.22656V22.5508H7.45312L11.3789 31.3047L15.293 22.5508H20.5195V40ZM37.7109 34.1992H28.0547C28.1172 35.2305 28.5078 36.0195 29.2266 36.5664C29.9531 37.1133 31.0195 37.3867 32.4258 37.3867C33.3164 37.3867 34.1797 37.2266 35.0156 36.9062C35.8516 36.5859 36.5117 36.2422 36.9961 35.875H37.4648V39.2617C36.5117 39.6445 35.6133 39.9219 34.7695 40.0938C33.9258 40.2656 32.9922 40.3516 31.9688 40.3516C29.3281 40.3516 27.3047 39.7578 25.8984 38.5703C24.4922 37.3828 23.7891 35.6914 23.7891 33.4961C23.7891 31.3242 24.4531 29.6055 25.7812 28.3398C27.1172 27.0664 28.9453 26.4297 31.2656 26.4297C33.4062 26.4297 35.0156 26.9727 36.0938 28.0586C37.1719 29.1367 37.7109 30.6914 37.7109 32.7227V34.1992ZM33.5156 31.7266C33.4922 30.8438 33.2734 30.1797 32.8594 29.7344C32.4453 29.2891 31.8008 29.0664 30.9258 29.0664C30.1133 29.0664 29.4453 29.2773 28.9219 29.6992C28.3984 30.1211 28.1055 30.7969 28.043 31.7266H33.5156ZM54.4219 33.2383C54.4219 34.3242 54.2539 35.3125 53.918 36.2031C53.5898 37.0938 53.1562 37.8281 52.6172 38.4062C52.0547 39.0156 51.418 39.4766 50.707 39.7891C49.9961 40.1016 49.2344 40.2578 48.4219 40.2578C47.6719 40.2578 47.0352 40.1758 46.5117 40.0117C45.9883 39.8555 45.4531 39.6328 44.9062 39.3438V44.8281H40.6875V26.8398H44.9062V28.2109C45.5547 27.6953 46.2148 27.2773 46.8867 26.957C47.5664 26.6367 48.3477 26.4766 49.2305 26.4766C50.8711 26.4766 52.1445 27.0781 53.0508 28.2812C53.9648 29.4844 54.4219 31.1367 54.4219 33.2383ZM50.0742 33.3203C50.0742 32.0391 49.8555 31.1094 49.418 30.5312C48.9805 29.9531 48.2891 29.6641 47.3438 29.6641C46.9453 29.6641 46.5352 29.7266 46.1133 29.8516C45.6914 29.9688 45.2891 30.1406 44.9062 30.3672V36.9883C45.1875 37.0977 45.4883 37.168 45.8086 37.1992C46.1289 37.2305 46.4453 37.2461 46.7578 37.2461C47.875 37.2461 48.707 36.9219 49.2539 36.2734C49.8008 35.6172 50.0742 34.6328 50.0742 33.3203ZM70.9219 33.4258C70.9219 35.5898 70.2891 37.2969 69.0234 38.5469C67.7656 39.7891 65.9961 40.4102 63.7148 40.4102C61.4336 40.4102 59.6602 39.7891 58.3945 38.5469C57.1367 37.2969 56.5078 35.5898 56.5078 33.4258C56.5078 31.2461 57.1406 29.5352 58.4062 28.293C59.6797 27.0508 61.4492 26.4297 63.7148 26.4297C66.0117 26.4297 67.7852 27.0547 69.0352 28.3047C70.293 29.5547 70.9219 31.2617 70.9219 33.4258ZM65.7305 36.625C66.0039 36.2891 66.207 35.8867 66.3398 35.418C66.4805 34.9414 66.5508 34.2852 66.5508 33.4492C66.5508 32.6758 66.4805 32.0273 66.3398 31.5039C66.1992 30.9805 66.0039 30.5625 65.7539 30.25C65.5039 29.9297 65.2031 29.7031 64.8516 29.5703C64.5 29.4375 64.1211 29.3711 63.7148 29.3711C63.3086 29.3711 62.9453 29.4258 62.625 29.5352C62.3125 29.6445 62.0117 29.8633 61.7227 30.1914C61.4648 30.4961 61.2578 30.9141 61.1016 31.4453C60.9531 31.9766 60.8789 32.6445 60.8789 33.4492C60.8789 34.168 60.9453 34.793 61.0781 35.3242C61.2109 35.8477 61.4062 36.2695 61.6641 36.5898C61.9141 36.8945 62.2109 37.1172 62.5547 37.2578C62.9062 37.3984 63.3047 37.4688 63.75 37.4688C64.1328 37.4688 64.4961 37.4062 64.8398 37.2812C65.1914 37.1484 65.4883 36.9297 65.7305 36.625ZM87.2344 40H83.0156V29.6992H78.1641V40H73.9453V26.8398H87.2344V40ZM104.953 33.2383C104.953 34.3242 104.785 35.3125 104.449 36.2031C104.121 37.0938 103.688 37.8281 103.148 38.4062C102.586 39.0156 101.949 39.4766 101.238 39.7891C100.527 40.1016 99.7656 40.2578 98.9531 40.2578C98.2031 40.2578 97.5664 40.1758 97.043 40.0117C96.5195 39.8555 95.9844 39.6328 95.4375 39.3438V44.8281H91.2188V26.8398H95.4375V28.2109C96.0859 27.6953 96.7461 27.2773 97.418 26.957C98.0977 26.6367 98.8789 26.4766 99.7617 26.4766C101.402 26.4766 102.676 27.0781 103.582 28.2812C104.496 29.4844 104.953 31.1367 104.953 33.2383ZM100.605 33.3203C100.605 32.0391 100.387 31.1094 99.9492 30.5312C99.5117 29.9531 98.8203 29.6641 97.875 29.6641C97.4766 29.6641 97.0664 29.7266 96.6445 29.8516C96.2227 29.9688 95.8203 30.1406 95.4375 30.3672V36.9883C95.7188 37.0977 96.0195 37.168 96.3398 37.1992C96.6602 37.2305 96.9766 37.2461 97.2891 37.2461C98.4062 37.2461 99.2383 36.9219 99.7852 36.2734C100.332 35.6172 100.605 34.6328 100.605 33.3203ZM121.301 40H117.211V31.9492L111.492 40H108V26.8398H112.09V34.0469L117.387 26.8398H121.301V40ZM137.672 40H133.465V35.4297H131.578L128.426 40H123.703L127.477 34.8438C126.594 34.4453 125.922 33.9453 125.461 33.3438C125.008 32.7344 124.781 31.8945 124.781 30.8242C124.781 30.0977 124.922 29.4883 125.203 28.9961C125.492 28.5039 125.879 28.082 126.363 27.7305C126.793 27.4336 127.297 27.2109 127.875 27.0625C128.461 26.9141 129.113 26.8398 129.832 26.8398H137.672V40ZM133.465 32.8516V29.5703H130.969C130.391 29.5703 129.938 29.7031 129.609 29.9688C129.289 30.2266 129.129 30.6055 129.129 31.1055C129.129 31.7227 129.289 32.168 129.609 32.4414C129.93 32.7148 130.406 32.8516 131.039 32.8516H133.465ZM152.391 29.6992H148.195V40H143.977V29.6992H139.781V26.8398H152.391V29.6992ZM167.801 40H163.711V31.9492L157.992 40H154.5V26.8398H158.59V34.0469L163.887 26.8398H167.801V40ZM184.172 40H179.965V35.4297H178.078L174.926 40H170.203L173.977 34.8438C173.094 34.4453 172.422 33.9453 171.961 33.3438C171.508 32.7344 171.281 31.8945 171.281 30.8242C171.281 30.0977 171.422 29.4883 171.703 28.9961C171.992 28.5039 172.379 28.082 172.863 27.7305C173.293 27.4336 173.797 27.2109 174.375 27.0625C174.961 26.9141 175.613 26.8398 176.332 26.8398H184.172V40ZM179.965 32.8516V29.5703H177.469C176.891 29.5703 176.438 29.7031 176.109 29.9688C175.789 30.2266 175.629 30.6055 175.629 31.1055C175.629 31.7227 175.789 32.168 176.109 32.4414C176.43 32.7148 176.906 32.8516 177.539 32.8516H179.965Z" fill="#333333"/>
<path d="M5 76L12.5 83.5L25 68.5" stroke="#61B857" stroke-width="2" stroke-linecap="round" stroke-linejoin="round"/>
<path d="M49.52 70.272C49.52 71.1573 49.408 71.9627 49.184 72.688C48.96 73.4027 48.624 74.0213 48.176 74.544C47.7387 75.0667 47.1893 75.4667 46.528 75.744C45.8773 76.0213 45.12 76.16 44.256 76.16C43.36 76.16 42.5813 76.0213 41.92 75.744C41.2587 75.456 40.7093 75.056 40.272 74.544C39.8347 74.0213 39.5093 73.3973 39.296 72.672C39.0827 71.9467 38.976 71.1413 38.976 70.256C38.976 69.0827 39.168 68.0587 39.552 67.184C39.936 66.3093 40.5173 65.6267 41.296 65.136C42.0853 64.6453 43.0773 64.4 44.272 64.4C45.4133 64.4 46.3733 64.6453 47.152 65.136C47.9307 65.616 48.5173 66.2987 48.912 67.184C49.3173 68.0587 49.52 69.088 49.52 70.272ZM40.496 70.272C40.496 71.232 40.6293 72.0587 40.896 72.752C41.1627 73.4453 41.5733 73.9787 42.128 74.352C42.6933 74.7253 43.4027 74.912 44.256 74.912C45.12 74.912 45.824 74.7253 46.368 74.352C46.9227 73.9787 47.3333 73.4453 47.6 72.752C47.8667 72.0587 48 71.232 48 70.272C48 68.832 47.7013 67.7067 47.104 66.896C46.5067 66.0747 45.5627 65.664 44.272 65.664C43.408 65.664 42.6933 65.8507 42.128 66.224C41.5733 66.5867 41.1627 67.1147 40.896 67.808C40.6293 68.4907 40.496 69.312 40.496 70.272ZM55.94 67.264C56.996 67.264 57.844 67.632 58.484 68.368C59.1347 69.104 59.46 70.2133 59.46 71.696C59.46 72.6667 59.3107 73.488 59.012 74.16C58.724 74.8213 58.3133 75.3227 57.78 75.664C57.2573 75.9947 56.6387 76.16 55.924 76.16C55.4867 76.16 55.0973 76.1013 54.756 75.984C54.4147 75.8667 54.1213 75.7173 53.876 75.536C53.6413 75.344 53.4387 75.136 53.268 74.912H53.172C53.1933 75.0933 53.2147 75.3227 53.236 75.6C53.2573 75.8773 53.268 76.1173 53.268 76.32V79.84H51.86V67.424H53.012L53.204 68.592H53.268C53.4387 68.3467 53.6413 68.1227 53.876 67.92C54.1213 67.7173 54.4093 67.5573 54.74 67.44C55.0813 67.3227 55.4813 67.264 55.94 67.264ZM55.684 68.448C55.108 68.448 54.644 68.56 54.292 68.784C53.94 68.9973 53.684 69.3227 53.524 69.76C53.364 70.1973 53.2787 70.752 53.268 71.424V71.696C53.268 72.4 53.3427 72.9973 53.492 73.488C53.6413 73.9787 53.892 74.352 54.244 74.608C54.6067 74.864 55.0973 74.992 55.716 74.992C56.2387 74.992 56.6653 74.848 56.996 74.56C57.3373 74.272 57.588 73.8827 57.748 73.392C57.9187 72.8907 58.004 72.32 58.004 71.68C58.004 70.6987 57.812 69.9147 57.428 69.328C57.0547 68.7413 56.4733 68.448 55.684 68.448ZM66.9358 67.424V68.608H63.1118V76H61.7038V67.424H66.9358ZM71.8736 67.28C72.919 67.28 73.6923 67.5093 74.1936 67.968C74.695 68.4267 74.9456 69.1573 74.9456 70.16V76H73.9216L73.6496 74.784H73.5856C73.3403 75.0933 73.0843 75.3547 72.8176 75.568C72.5616 75.7707 72.263 75.92 71.9216 76.016C71.591 76.112 71.1856 76.16 70.7056 76.16C70.1936 76.16 69.7296 76.0693 69.3136 75.888C68.9083 75.7067 68.5883 75.4293 68.3536 75.056C68.119 74.672 68.0016 74.192 68.0016 73.616C68.0016 72.7627 68.3376 72.1067 69.0096 71.648C69.6816 71.1787 70.7163 70.9227 72.1136 70.88L73.5696 70.832V70.32C73.5696 69.6053 73.415 69.1093 73.1056 68.832C72.7963 68.5547 72.359 68.416 71.7936 68.416C71.3456 68.416 70.919 68.4853 70.5136 68.624C70.1083 68.752 69.7296 68.9013 69.3776 69.072L68.9456 68.016C69.319 67.8133 69.7616 67.6427 70.2736 67.504C70.7856 67.3547 71.319 67.28 71.8736 67.28ZM72.2896 71.856C71.223 71.8987 70.4816 72.0693 70.0656 72.368C69.6603 72.6667 69.4576 73.088 69.4576 73.632C69.4576 74.112 69.6016 74.464 69.8896 74.688C70.1883 74.912 70.567 75.024 71.0256 75.024C71.751 75.024 72.3536 74.8267 72.8336 74.432C73.3136 74.0267 73.5536 73.408 73.5536 72.576V71.808L72.2896 71.856ZM79.0024 67.424V70.992H83.6584V67.424H85.0664V76H83.6584V72.176H79.0024V76H77.5944V67.424H79.0024ZM89.1099 72.656C89.1099 72.752 89.1045 72.8907 89.0939 73.072C89.0939 73.2427 89.0885 73.4293 89.0779 73.632C89.0672 73.824 89.0565 74.0107 89.0459 74.192C89.0352 74.3627 89.0245 74.5013 89.0139 74.608L93.6059 67.424H95.3339V76H94.0219V70.944C94.0219 70.7733 94.0219 70.5493 94.0219 70.272C94.0325 69.9947 94.0432 69.7227 94.0539 69.456C94.0645 69.1787 94.0752 68.9707 94.0859 68.832L89.5259 76H87.7819V67.424H89.1099V72.656ZM100.319 67.264C100.97 67.264 101.535 67.3547 102.015 67.536C102.495 67.7067 102.868 67.9627 103.135 68.304C103.402 68.6347 103.535 69.04 103.535 69.52C103.535 70.0427 103.391 70.4587 103.103 70.768C102.815 71.0667 102.42 71.2853 101.919 71.424V71.488C102.26 71.584 102.575 71.7173 102.863 71.888C103.151 72.0587 103.38 72.2827 103.551 72.56C103.732 72.8373 103.823 73.1947 103.823 73.632C103.823 74.1013 103.69 74.528 103.423 74.912C103.167 75.296 102.767 75.6 102.223 75.824C101.69 76.048 101.002 76.16 100.159 76.16C99.7538 76.16 99.3645 76.1387 98.9911 76.096C98.6285 76.0533 98.2978 75.9893 97.9991 75.904C97.7111 75.8187 97.4551 75.7173 97.2311 75.6V74.336C97.5938 74.5067 98.0205 74.6613 98.5111 74.8C99.0125 74.9387 99.5565 75.008 100.143 75.008C100.57 75.008 100.954 74.96 101.295 74.864C101.647 74.768 101.924 74.6187 102.127 74.416C102.33 74.2027 102.431 73.9147 102.431 73.552C102.431 73.2213 102.34 72.9547 102.159 72.752C101.978 72.5387 101.706 72.3787 101.343 72.272C100.991 72.1653 100.538 72.112 99.9831 72.112H98.8311V70.96H99.7591C100.495 70.96 101.082 70.864 101.519 70.672C101.967 70.4693 102.191 70.128 102.191 69.648C102.191 69.2427 102.02 68.9387 101.679 68.736C101.348 68.5333 100.868 68.432 100.239 68.432C99.7698 68.432 99.3538 68.48 98.9911 68.576C98.6391 68.6613 98.2498 68.7947 97.8231 68.976L97.3271 67.856C97.7858 67.6533 98.2658 67.504 98.7671 67.408C99.2685 67.312 99.7858 67.264 100.319 67.264ZM109.155 67.28C110.2 67.28 110.974 67.5093 111.475 67.968C111.976 68.4267 112.227 69.1573 112.227 70.16V76H111.203L110.931 74.784H110.867C110.622 75.0933 110.366 75.3547 110.099 75.568C109.843 75.7707 109.544 75.92 109.203 76.016C108.872 76.112 108.467 76.16 107.987 76.16C107.475 76.16 107.011 76.0693 106.595 75.888C106.19 75.7067 105.87 75.4293 105.635 75.056C105.4 74.672 105.283 74.192 105.283 73.616C105.283 72.7627 105.619 72.1067 106.291 71.648C106.963 71.1787 107.998 70.9227 109.395 70.88L110.851 70.832V70.32C110.851 69.6053 110.696 69.1093 110.387 68.832C110.078 68.5547 109.64 68.416 109.075 68.416C108.627 68.416 108.2 68.4853 107.795 68.624C107.39 68.752 107.011 68.9013 106.659 69.072L106.227 68.016C106.6 67.8133 107.043 67.6427 107.555 67.504C108.067 67.3547 108.6 67.28 109.155 67.28ZM109.571 71.856C108.504 71.8987 107.763 72.0693 107.347 72.368C106.942 72.6667 106.739 73.088 106.739 73.632C106.739 74.112 106.883 74.464 107.171 74.688C107.47 74.912 107.848 75.024 108.307 75.024C109.032 75.024 109.635 74.8267 110.115 74.432C110.595 74.0267 110.835 73.408 110.835 72.576V71.808L109.571 71.856ZM123.34 78.976H121.964V76H114.876V67.424H116.284V74.816H120.716V67.424H122.124V74.832H123.34V78.976ZM126.313 72.656C126.313 72.752 126.308 72.8907 126.297 73.072C126.297 73.2427 126.292 73.4293 126.281 73.632C126.27 73.824 126.26 74.0107 126.249 74.192C126.238 74.3627 126.228 74.5013 126.217 74.608L130.809 67.424H132.537V76H131.225V70.944C131.225 70.7733 131.225 70.5493 131.225 70.272C131.236 69.9947 131.246 69.7227 131.257 69.456C131.268 69.1787 131.278 68.9707 131.289 68.832L126.729 76H124.985V67.424H126.313V72.656ZM135.794 76H134.162L136.61 72.4C136.28 72.3147 135.96 72.1813 135.65 72C135.341 71.808 135.09 71.5467 134.898 71.216C134.706 70.8747 134.61 70.4533 134.61 69.952C134.61 69.1307 134.888 68.5067 135.442 68.08C135.997 67.6427 136.733 67.424 137.65 67.424H141.49V76H140.082V72.592H138.002L135.794 76ZM135.97 69.968C135.97 70.4587 136.152 70.8267 136.514 71.072C136.888 71.3067 137.405 71.424 138.066 71.424H140.082V68.592H137.794C137.144 68.592 136.674 68.72 136.386 68.976C136.109 69.232 135.97 69.5627 135.97 69.968ZM149.193 76V64.576H155.977V65.84H150.633V69.408H152.329C153.47 69.408 154.355 69.552 154.985 69.84C155.614 70.1173 156.051 70.5013 156.297 70.992C156.542 71.472 156.665 72.0267 156.665 72.656C156.665 73.3493 156.526 73.9467 156.249 74.448C155.982 74.9493 155.545 75.3333 154.937 75.6C154.329 75.8667 153.529 76 152.537 76H149.193ZM152.393 74.768C153.417 74.768 154.137 74.5973 154.553 74.256C154.969 73.904 155.177 73.3707 155.177 72.656C155.177 72.1653 155.075 71.776 154.873 71.488C154.681 71.1893 154.361 70.976 153.913 70.848C153.475 70.72 152.889 70.656 152.153 70.656H150.633V74.768H152.393ZM160.172 72.656C160.172 72.752 160.167 72.8907 160.156 73.072C160.156 73.2427 160.151 73.4293 160.14 73.632C160.13 73.824 160.119 74.0107 160.108 74.192C160.098 74.3627 160.087 74.5013 160.076 74.608L164.668 67.424H166.396V76H165.084V70.944C165.084 70.7733 165.084 70.5493 165.084 70.272C165.095 69.9947 165.106 69.7227 165.116 69.456C165.127 69.1787 165.138 68.9707 165.148 68.832L160.588 76H158.844V67.424H160.172V72.656ZM171.382 67.264C172.032 67.264 172.598 67.3547 173.078 67.536C173.558 67.7067 173.931 67.9627 174.198 68.304C174.464 68.6347 174.598 69.04 174.598 69.52C174.598 70.0427 174.454 70.4587 174.166 70.768C173.878 71.0667 173.483 71.2853 172.982 71.424V71.488C173.323 71.584 173.638 71.7173 173.926 71.888C174.214 72.0587 174.443 72.2827 174.614 72.56C174.795 72.8373 174.886 73.1947 174.886 73.632C174.886 74.1013 174.752 74.528 174.486 74.912C174.23 75.296 173.83 75.6 173.286 75.824C172.752 76.048 172.064 76.16 171.222 76.16C170.816 76.16 170.427 76.1387 170.054 76.096C169.691 76.0533 169.36 75.9893 169.062 75.904C168.774 75.8187 168.518 75.7173 168.294 75.6V74.336C168.656 74.5067 169.083 74.6613 169.574 74.8C170.075 74.9387 170.619 75.008 171.206 75.008C171.632 75.008 172.016 74.96 172.358 74.864C172.71 74.768 172.987 74.6187 173.19 74.416C173.392 74.2027 173.494 73.9147 173.494 73.552C173.494 73.2213 173.403 72.9547 173.222 72.752C173.04 72.5387 172.768 72.3787 172.406 72.272C172.054 72.1653 171.6 72.112 171.046 72.112H169.894V70.96H170.822C171.558 70.96 172.144 70.864 172.582 70.672C173.03 70.4693 173.254 70.128 173.254 69.648C173.254 69.2427 173.083 68.9387 172.742 68.736C172.411 68.5333 171.931 68.432 171.302 68.432C170.832 68.432 170.416 68.48 170.054 68.576C169.702 68.6613 169.312 68.7947 168.886 68.976L168.39 67.856C168.848 67.6533 169.328 67.504 169.83 67.408C170.331 67.312 170.848 67.264 171.382 67.264ZM178.377 67.424V70.992H183.033V67.424H184.441V76H183.033V72.176H178.377V76H176.969V67.424H178.377ZM190.469 67.264C191.205 67.264 191.834 67.424 192.357 67.744C192.89 68.064 193.296 68.5173 193.573 69.104C193.861 69.68 194.005 70.3573 194.005 71.136V71.984H188.133C188.154 72.9547 188.4 73.696 188.869 74.208C189.349 74.7093 190.016 74.96 190.869 74.96C191.413 74.96 191.893 74.912 192.309 74.816C192.736 74.7093 193.173 74.56 193.621 74.368V75.6C193.184 75.792 192.752 75.9307 192.325 76.016C191.898 76.112 191.392 76.16 190.805 76.16C189.994 76.16 189.274 75.9947 188.645 75.664C188.026 75.3333 187.541 74.8427 187.189 74.192C186.848 73.5307 186.677 72.7253 186.677 71.776C186.677 70.8373 186.832 70.032 187.141 69.36C187.461 68.688 187.904 68.1707 188.469 67.808C189.045 67.4453 189.712 67.264 190.469 67.264ZM190.453 68.416C189.781 68.416 189.248 68.6347 188.853 69.072C188.469 69.4987 188.24 70.096 188.165 70.864H192.533C192.533 70.3733 192.458 69.9467 192.309 69.584C192.16 69.2213 191.93 68.9387 191.621 68.736C191.322 68.5227 190.933 68.416 190.453 68.416ZM199.628 76.16C198.871 76.16 198.193 76.0053 197.596 75.696C197.009 75.3867 196.545 74.9067 196.204 74.256C195.873 73.6053 195.708 72.7733 195.708 71.76C195.708 70.704 195.884 69.8453 196.236 69.184C196.588 68.5227 197.063 68.0373 197.66 67.728C198.268 67.4187 198.956 67.264 199.724 67.264C200.161 67.264 200.583 67.312 200.988 67.408C201.393 67.4933 201.724 67.6 201.98 67.728L201.548 68.896C201.292 68.8 200.993 68.7093 200.652 68.624C200.311 68.5387 199.991 68.496 199.692 68.496C199.116 68.496 198.641 68.6187 198.268 68.864C197.895 69.1093 197.617 69.472 197.436 69.952C197.255 70.432 197.164 71.0293 197.164 71.744C197.164 72.4267 197.255 73.008 197.436 73.488C197.617 73.968 197.889 74.3307 198.252 74.576C198.615 74.8213 199.068 74.944 199.612 74.944C200.081 74.944 200.492 74.896 200.844 74.8C201.207 74.704 201.537 74.5867 201.836 74.448V75.696C201.548 75.8453 201.228 75.9573 200.876 76.032C200.535 76.1173 200.119 76.16 199.628 76.16ZM42.816 83.576C43.7653 83.576 44.56 83.6667 45.2 83.848C45.8507 84.0293 46.336 84.328 46.656 84.744C46.9867 85.16 47.152 85.7147 47.152 86.408C47.152 86.856 47.0667 87.256 46.896 87.608C46.736 87.9493 46.4907 88.2373 46.16 88.472C45.84 88.696 45.4453 88.8507 44.976 88.936V89.016C45.456 89.0907 45.888 89.2293 46.272 89.432C46.6667 89.6347 46.976 89.9227 47.2 90.296C47.424 90.6693 47.536 91.1547 47.536 91.752C47.536 92.4453 47.376 93.0373 47.056 93.528C46.736 94.008 46.2773 94.376 45.68 94.632C45.0933 94.8773 44.3893 95 43.568 95H39.552V83.576H42.816ZM43.104 88.44C44.0853 88.44 44.7573 88.2853 45.12 87.976C45.4827 87.656 45.664 87.1867 45.664 86.568C45.664 85.9387 45.44 85.4907 44.992 85.224C44.5547 84.9467 43.8507 84.808 42.88 84.808H40.992V88.44H43.104ZM40.992 89.64V93.784H43.296C44.3093 93.784 45.0133 93.5867 45.408 93.192C45.8027 92.7973 46 92.28 46 91.64C46 91.2347 45.9093 90.8827 45.728 90.584C45.5573 90.2853 45.264 90.056 44.848 89.896C44.4427 89.7253 43.888 89.64 43.184 89.64H40.992ZM53.2063 95.16C52.4489 95.16 51.7716 95.0053 51.1743 94.696C50.5876 94.3867 50.1236 93.9067 49.7823 93.256C49.4516 92.6053 49.2863 91.7733 49.2863 90.76C49.2863 89.704 49.4623 88.8453 49.8143 88.184C50.1663 87.5227 50.6409 87.0373 51.2383 86.728C51.8463 86.4187 52.5343 86.264 53.3023 86.264C53.7396 86.264 54.1609 86.312 54.5663 86.408C54.9716 86.4933 55.3023 86.6 55.5583 86.728L55.1263 87.896C54.8703 87.8 54.5716 87.7093 54.2303 87.624C53.8889 87.5387 53.5689 87.496 53.2703 87.496C52.6943 87.496 52.2196 87.6187 51.8463 87.864C51.4729 88.1093 51.1956 88.472 51.0143 88.952C50.8329 89.432 50.7423 90.0293 50.7423 90.744C50.7423 91.4267 50.8329 92.008 51.0143 92.488C51.1956 92.968 51.4676 93.3307 51.8303 93.576C52.1929 93.8213 52.6463 93.944 53.1903 93.944C53.6596 93.944 54.0703 93.896 54.4223 93.8C54.7849 93.704 55.1156 93.5867 55.4143 93.448V94.696C55.1263 94.8453 54.8063 94.9573 54.4543 95.032C54.1129 95.1173 53.6969 95.16 53.2063 95.16ZM63.3738 87.608H60.5738V95H59.1818V87.608H56.4138V86.424H63.3738V87.608ZM69.1431 86.264C70.1991 86.264 71.0471 86.632 71.6871 87.368C72.3378 88.104 72.6631 89.2133 72.6631 90.696C72.6631 91.6667 72.5138 92.488 72.2151 93.16C71.9271 93.8213 71.5165 94.3227 70.9831 94.664C70.4605 94.9947 69.8418 95.16 69.1271 95.16C68.6898 95.16 68.3005 95.1013 67.9591 94.984C67.6178 94.8667 67.3245 94.7173 67.0791 94.536C66.8445 94.344 66.6418 94.136 66.4711 93.912H66.3751C66.3965 94.0933 66.4178 94.3227 66.4391 94.6C66.4605 94.8773 66.4711 95.1173 66.4711 95.32V98.84H65.0631V86.424H66.2151L66.4071 87.592H66.4711C66.6418 87.3467 66.8445 87.1227 67.0791 86.92C67.3245 86.7173 67.6125 86.5573 67.9431 86.44C68.2845 86.3227 68.6845 86.264 69.1431 86.264ZM68.8871 87.448C68.3111 87.448 67.8471 87.56 67.4951 87.784C67.1431 87.9973 66.8871 88.3227 66.7271 88.76C66.5671 89.1973 66.4818 89.752 66.4711 90.424V90.696C66.4711 91.4 66.5458 91.9973 66.6951 92.488C66.8445 92.9787 67.0951 93.352 67.4471 93.608C67.8098 93.864 68.3005 93.992 68.9191 93.992C69.4418 93.992 69.8685 93.848 70.1991 93.56C70.5405 93.272 70.7911 92.8827 70.9511 92.392C71.1218 91.8907 71.2071 91.32 71.2071 90.68C71.2071 89.6987 71.0151 88.9147 70.6311 88.328C70.2578 87.7413 69.6765 87.448 68.8871 87.448ZM78.2189 86.264C78.9549 86.264 79.5842 86.424 80.1069 86.744C80.6402 87.064 81.0455 87.5173 81.3229 88.104C81.6109 88.68 81.7549 89.3573 81.7549 90.136V90.984H75.8829C75.9042 91.9547 76.1495 92.696 76.6189 93.208C77.0989 93.7093 77.7655 93.96 78.6189 93.96C79.1629 93.96 79.6429 93.912 80.0589 93.816C80.4855 93.7093 80.9229 93.56 81.3709 93.368V94.6C80.9335 94.792 80.5015 94.9307 80.0749 95.016C79.6482 95.112 79.1415 95.16 78.5549 95.16C77.7442 95.16 77.0242 94.9947 76.3949 94.664C75.7762 94.3333 75.2909 93.8427 74.9389 93.192C74.5975 92.5307 74.4269 91.7253 74.4269 90.776C74.4269 89.8373 74.5815 89.032 74.8909 88.36C75.2109 87.688 75.6535 87.1707 76.2189 86.808C76.7949 86.4453 77.4615 86.264 78.2189 86.264ZM78.2029 87.416C77.5309 87.416 76.9975 87.6347 76.6029 88.072C76.2189 88.4987 75.9895 89.096 75.9149 89.864H80.2829C80.2829 89.3733 80.2082 88.9467 80.0589 88.584C79.9095 88.2213 79.6802 87.9387 79.3709 87.736C79.0722 87.5227 78.6829 87.416 78.2029 87.416ZM85.1701 89.544C85.1701 90.0453 85.3088 90.4187 85.5861 90.664C85.8741 90.8987 86.2848 91.016 86.8181 91.016C87.3515 91.016 87.8368 90.936 88.2741 90.776C88.7115 90.6053 89.1595 90.3813 89.6181 90.104V86.424H91.0261V95H89.6181V91.176C89.1381 91.4853 88.6635 91.7307 88.1941 91.912C87.7355 92.0827 87.1808 92.168 86.5301 92.168C85.6555 92.168 84.9728 91.9387 84.4821 91.48C84.0021 91.0213 83.7621 90.408 83.7621 89.64V86.424H85.1701V89.544Z" fill="#333333"/>
<path d="M5 130L12.5 137.5L25 122.5" stroke="#61B857" stroke-width="2" stroke-linecap="round" stroke-linejoin="round"/>
<path d="M49.52 124.272C49.52 125.157 49.408 125.963 49.184 126.688C48.96 127.403 48.624 128.021 48.176 128.544C47.7387 129.067 47.1893 129.467 46.528 129.744C45.8773 130.021 45.12 130.16 44.256 130.16C43.36 130.16 42.5813 130.021 41.92 129.744C41.2587 129.456 40.7093 129.056 40.272 128.544C39.8347 128.021 39.5093 127.397 39.296 126.672C39.0827 125.947 38.976 125.141 38.976 124.256C38.976 123.083 39.168 122.059 39.552 121.184C39.936 120.309 40.5173 119.627 41.296 119.136C42.0853 118.645 43.0773 118.4 44.272 118.4C45.4133 118.4 46.3733 118.645 47.152 119.136C47.9307 119.616 48.5173 120.299 48.912 121.184C49.3173 122.059 49.52 123.088 49.52 124.272ZM40.496 124.272C40.496 125.232 40.6293 126.059 40.896 126.752C41.1627 127.445 41.5733 127.979 42.128 128.352C42.6933 128.725 43.4027 128.912 44.256 128.912C45.12 128.912 45.824 128.725 46.368 128.352C46.9227 127.979 47.3333 127.445 47.6 126.752C47.8667 126.059 48 125.232 48 124.272C48 122.832 47.7013 121.707 47.104 120.896C46.5067 120.075 45.5627 119.664 44.272 119.664C43.408 119.664 42.6933 119.851 42.128 120.224C41.5733 120.587 41.1627 121.115 40.896 121.808C40.6293 122.491 40.496 123.312 40.496 124.272ZM55.94 121.264C56.996 121.264 57.844 121.632 58.484 122.368C59.1347 123.104 59.46 124.213 59.46 125.696C59.46 126.667 59.3107 127.488 59.012 128.16C58.724 128.821 58.3133 129.323 57.78 129.664C57.2573 129.995 56.6387 130.16 55.924 130.16C55.4867 130.16 55.0973 130.101 54.756 129.984C54.4147 129.867 54.1213 129.717 53.876 129.536C53.6413 129.344 53.4387 129.136 53.268 128.912H53.172C53.1933 129.093 53.2147 129.323 53.236 129.6C53.2573 129.877 53.268 130.117 53.268 130.32V133.84H51.86V121.424H53.012L53.204 122.592H53.268C53.4387 122.347 53.6413 122.123 53.876 121.92C54.1213 121.717 54.4093 121.557 54.74 121.44C55.0813 121.323 55.4813 121.264 55.94 121.264ZM55.684 122.448C55.108 122.448 54.644 122.56 54.292 122.784C53.94 122.997 53.684 123.323 53.524 123.76C53.364 124.197 53.2787 124.752 53.268 125.424V125.696C53.268 126.4 53.3427 126.997 53.492 127.488C53.6413 127.979 53.892 128.352 54.244 128.608C54.6067 128.864 55.0973 128.992 55.716 128.992C56.2387 128.992 56.6653 128.848 56.996 128.56C57.3373 128.272 57.588 127.883 57.748 127.392C57.9187 126.891 58.004 126.32 58.004 125.68C58.004 124.699 57.812 123.915 57.428 123.328C57.0547 122.741 56.4733 122.448 55.684 122.448ZM66.9358 121.424V122.608H63.1118V130H61.7038V121.424H66.9358ZM71.8736 121.28C72.919 121.28 73.6923 121.509 74.1936 121.968C74.695 122.427 74.9456 123.157 74.9456 124.16V130H73.9216L73.6496 128.784H73.5856C73.3403 129.093 73.0843 129.355 72.8176 129.568C72.5616 129.771 72.263 129.92 71.9216 130.016C71.591 130.112 71.1856 130.16 70.7056 130.16C70.1936 130.16 69.7296 130.069 69.3136 129.888C68.9083 129.707 68.5883 129.429 68.3536 129.056C68.119 128.672 68.0016 128.192 68.0016 127.616C68.0016 126.763 68.3376 126.107 69.0096 125.648C69.6816 125.179 70.7163 124.923 72.1136 124.88L73.5696 124.832V124.32C73.5696 123.605 73.415 123.109 73.1056 122.832C72.7963 122.555 72.359 122.416 71.7936 122.416C71.3456 122.416 70.919 122.485 70.5136 122.624C70.1083 122.752 69.7296 122.901 69.3776 123.072L68.9456 122.016C69.319 121.813 69.7616 121.643 70.2736 121.504C70.7856 121.355 71.319 121.28 71.8736 121.28ZM72.2896 125.856C71.223 125.899 70.4816 126.069 70.0656 126.368C69.6603 126.667 69.4576 127.088 69.4576 127.632C69.4576 128.112 69.6016 128.464 69.8896 128.688C70.1883 128.912 70.567 129.024 71.0256 129.024C71.751 129.024 72.3536 128.827 72.8336 128.432C73.3136 128.027 73.5536 127.408 73.5536 126.576V125.808L72.2896 125.856ZM79.0024 121.424V124.992H83.6584V121.424H85.0664V130H83.6584V126.176H79.0024V130H77.5944V121.424H79.0024ZM89.1099 126.656C89.1099 126.752 89.1045 126.891 89.0939 127.072C89.0939 127.243 89.0885 127.429 89.0779 127.632C89.0672 127.824 89.0565 128.011 89.0459 128.192C89.0352 128.363 89.0245 128.501 89.0139 128.608L93.6059 121.424H95.3339V130H94.0219V124.944C94.0219 124.773 94.0219 124.549 94.0219 124.272C94.0325 123.995 94.0432 123.723 94.0539 123.456C94.0645 123.179 94.0752 122.971 94.0859 122.832L89.5259 130H87.7819V121.424H89.1099V126.656ZM100.319 121.264C100.97 121.264 101.535 121.355 102.015 121.536C102.495 121.707 102.868 121.963 103.135 122.304C103.402 122.635 103.535 123.04 103.535 123.52C103.535 124.043 103.391 124.459 103.103 124.768C102.815 125.067 102.42 125.285 101.919 125.424V125.488C102.26 125.584 102.575 125.717 102.863 125.888C103.151 126.059 103.38 126.283 103.551 126.56C103.732 126.837 103.823 127.195 103.823 127.632C103.823 128.101 103.69 128.528 103.423 128.912C103.167 129.296 102.767 129.6 102.223 129.824C101.69 130.048 101.002 130.16 100.159 130.16C99.7538 130.16 99.3645 130.139 98.9911 130.096C98.6285 130.053 98.2978 129.989 97.9991 129.904C97.7111 129.819 97.4551 129.717 97.2311 129.6V128.336C97.5938 128.507 98.0205 128.661 98.5111 128.8C99.0125 128.939 99.5565 129.008 100.143 129.008C100.57 129.008 100.954 128.96 101.295 128.864C101.647 128.768 101.924 128.619 102.127 128.416C102.33 128.203 102.431 127.915 102.431 127.552C102.431 127.221 102.34 126.955 102.159 126.752C101.978 126.539 101.706 126.379 101.343 126.272C100.991 126.165 100.538 126.112 99.9831 126.112H98.8311V124.96H99.7591C100.495 124.96 101.082 124.864 101.519 124.672C101.967 124.469 102.191 124.128 102.191 123.648C102.191 123.243 102.02 122.939 101.679 122.736C101.348 122.533 100.868 122.432 100.239 122.432C99.7698 122.432 99.3538 122.48 98.9911 122.576C98.6391 122.661 98.2498 122.795 97.8231 122.976L97.3271 121.856C97.7858 121.653 98.2658 121.504 98.7671 121.408C99.2685 121.312 99.7858 121.264 100.319 121.264ZM109.155 121.28C110.2 121.28 110.974 121.509 111.475 121.968C111.976 122.427 112.227 123.157 112.227 124.16V130H111.203L110.931 128.784H110.867C110.622 129.093 110.366 129.355 110.099 129.568C109.843 129.771 109.544 129.92 109.203 130.016C108.872 130.112 108.467 130.16 107.987 130.16C107.475 130.16 107.011 130.069 106.595 129.888C106.19 129.707 105.87 129.429 105.635 129.056C105.4 128.672 105.283 128.192 105.283 127.616C105.283 126.763 105.619 126.107 106.291 125.648C106.963 125.179 107.998 124.923 109.395 124.88L110.851 124.832V124.32C110.851 123.605 110.696 123.109 110.387 122.832C110.078 122.555 109.64 122.416 109.075 122.416C108.627 122.416 108.2 122.485 107.795 122.624C107.39 122.752 107.011 122.901 106.659 123.072L106.227 122.016C106.6 121.813 107.043 121.643 107.555 121.504C108.067 121.355 108.6 121.28 109.155 121.28ZM109.571 125.856C108.504 125.899 107.763 126.069 107.347 126.368C106.942 126.667 106.739 127.088 106.739 127.632C106.739 128.112 106.883 128.464 107.171 128.688C107.47 128.912 107.848 129.024 108.307 129.024C109.032 129.024 109.635 128.827 110.115 128.432C110.595 128.027 110.835 127.408 110.835 126.576V125.808L109.571 125.856ZM123.34 132.976H121.964V130H114.876V121.424H116.284V128.816H120.716V121.424H122.124V128.832H123.34V132.976ZM126.313 126.656C126.313 126.752 126.308 126.891 126.297 127.072C126.297 127.243 126.292 127.429 126.281 127.632C126.27 127.824 126.26 128.011 126.249 128.192C126.238 128.363 126.228 128.501 126.217 128.608L130.809 121.424H132.537V130H131.225V124.944C131.225 124.773 131.225 124.549 131.225 124.272C131.236 123.995 131.246 123.723 131.257 123.456C131.268 123.179 131.278 122.971 131.289 122.832L126.729 130H124.985V121.424H126.313V126.656ZM135.794 130H134.162L136.61 126.4C136.28 126.315 135.96 126.181 135.65 126C135.341 125.808 135.09 125.547 134.898 125.216C134.706 124.875 134.61 124.453 134.61 123.952C134.61 123.131 134.888 122.507 135.442 122.08C135.997 121.643 136.733 121.424 137.65 121.424H141.49V130H140.082V126.592H138.002L135.794 130ZM135.97 123.968C135.97 124.459 136.152 124.827 136.514 125.072C136.888 125.307 137.405 125.424 138.066 125.424H140.082V122.592H137.794C137.144 122.592 136.674 122.72 136.386 122.976C136.109 123.232 135.97 123.563 135.97 123.968ZM149.193 130V118.576H155.977V119.84H150.633V123.408H152.329C153.47 123.408 154.355 123.552 154.985 123.84C155.614 124.117 156.051 124.501 156.297 124.992C156.542 125.472 156.665 126.027 156.665 126.656C156.665 127.349 156.526 127.947 156.249 128.448C155.982 128.949 155.545 129.333 154.937 129.6C154.329 129.867 153.529 130 152.537 130H149.193ZM152.393 128.768C153.417 128.768 154.137 128.597 154.553 128.256C154.969 127.904 155.177 127.371 155.177 126.656C155.177 126.165 155.075 125.776 154.873 125.488C154.681 125.189 154.361 124.976 153.913 124.848C153.475 124.72 152.889 124.656 152.153 124.656H150.633V128.768H152.393ZM160.172 126.656C160.172 126.752 160.167 126.891 160.156 127.072C160.156 127.243 160.151 127.429 160.14 127.632C160.13 127.824 160.119 128.011 160.108 128.192C160.098 128.363 160.087 128.501 160.076 128.608L164.668 121.424H166.396V130H165.084V124.944C165.084 124.773 165.084 124.549 165.084 124.272C165.095 123.995 165.106 123.723 165.116 123.456C165.127 123.179 165.138 122.971 165.148 122.832L160.588 130H158.844V121.424H160.172V126.656ZM171.382 121.264C172.032 121.264 172.598 121.355 173.078 121.536C173.558 121.707 173.931 121.963 174.198 122.304C174.464 122.635 174.598 123.04 174.598 123.52C174.598 124.043 174.454 124.459 174.166 124.768C173.878 125.067 173.483 125.285 172.982 125.424V125.488C173.323 125.584 173.638 125.717 173.926 125.888C174.214 126.059 174.443 126.283 174.614 126.56C174.795 126.837 174.886 127.195 174.886 127.632C174.886 128.101 174.752 128.528 174.486 128.912C174.23 129.296 173.83 129.6 173.286 129.824C172.752 130.048 172.064 130.16 171.222 130.16C170.816 130.16 170.427 130.139 170.054 130.096C169.691 130.053 169.36 129.989 169.062 129.904C168.774 129.819 168.518 129.717 168.294 129.6V128.336C168.656 128.507 169.083 128.661 169.574 128.8C170.075 128.939 170.619 129.008 171.206 129.008C171.632 129.008 172.016 128.96 172.358 128.864C172.71 128.768 172.987 128.619 173.19 128.416C173.392 128.203 173.494 127.915 173.494 127.552C173.494 127.221 173.403 126.955 173.222 126.752C173.04 126.539 172.768 126.379 172.406 126.272C172.054 126.165 171.6 126.112 171.046 126.112H169.894V124.96H170.822C171.558 124.96 172.144 124.864 172.582 124.672C173.03 124.469 173.254 124.128 173.254 123.648C173.254 123.243 173.083 122.939 172.742 122.736C172.411 122.533 171.931 122.432 171.302 122.432C170.832 122.432 170.416 122.48 170.054 122.576C169.702 122.661 169.312 122.795 168.886 122.976L168.39 121.856C168.848 121.653 169.328 121.504 169.83 121.408C170.331 121.312 170.848 121.264 171.382 121.264ZM178.377 121.424V124.992H183.033V121.424H184.441V130H183.033V126.176H178.377V130H176.969V121.424H178.377ZM190.469 121.264C191.205 121.264 191.834 121.424 192.357 121.744C192.89 122.064 193.296 122.517 193.573 123.104C193.861 123.68 194.005 124.357 194.005 125.136V125.984H188.133C188.154 126.955 188.4 127.696 188.869 128.208C189.349 128.709 190.016 128.96 190.869 128.96C191.413 128.96 191.893 128.912 192.309 128.816C192.736 128.709 193.173 128.56 193.621 128.368V129.6C193.184 129.792 192.752 129.931 192.325 130.016C191.898 130.112 191.392 130.16 190.805 130.16C189.994 130.16 189.274 129.995 188.645 129.664C188.026 129.333 187.541 128.843 187.189 128.192C186.848 127.531 186.677 126.725 186.677 125.776C186.677 124.837 186.832 124.032 187.141 123.36C187.461 122.688 187.904 122.171 188.469 121.808C189.045 121.445 189.712 121.264 190.469 121.264ZM190.453 122.416C189.781 122.416 189.248 122.635 188.853 123.072C188.469 123.499 188.24 124.096 188.165 124.864H192.533C192.533 124.373 192.458 123.947 192.309 123.584C192.16 123.221 191.93 122.939 191.621 122.736C191.322 122.523 190.933 122.416 190.453 122.416ZM199.628 130.16C198.871 130.16 198.193 130.005 197.596 129.696C197.009 129.387 196.545 128.907 196.204 128.256C195.873 127.605 195.708 126.773 195.708 125.76C195.708 124.704 195.884 123.845 196.236 123.184C196.588 122.523 197.063 122.037 197.66 121.728C198.268 121.419 198.956 121.264 199.724 121.264C200.161 121.264 200.583 121.312 200.988 121.408C201.393 121.493 201.724 121.6 201.98 121.728L201.548 122.896C201.292 122.8 200.993 122.709 200.652 122.624C200.311 122.539 199.991 122.496 199.692 122.496C199.116 122.496 198.641 122.619 198.268 122.864C197.895 123.109 197.617 123.472 197.436 123.952C197.255 124.432 197.164 125.029 197.164 125.744C197.164 126.427 197.255 127.008 197.436 127.488C197.617 127.968 197.889 128.331 198.252 128.576C198.615 128.821 199.068 128.944 199.612 128.944C200.081 128.944 200.492 128.896 200.844 128.8C201.207 128.704 201.537 128.587 201.836 128.448V129.696C201.548 129.845 201.228 129.957 200.876 130.032C200.535 130.117 200.119 130.16 199.628 130.16ZM47.888 149H46.16L40.992 143.208V149H39.552V137.576H40.992V143.112L46.032 137.576H47.664L42.704 143.128L47.888 149ZM56.7066 144.696C56.7066 145.411 56.6106 146.045 56.4186 146.6C56.2373 147.144 55.9706 147.608 55.6186 147.992C55.2773 148.376 54.856 148.669 54.3546 148.872C53.864 149.064 53.3146 149.16 52.7066 149.16C52.1413 149.16 51.6186 149.064 51.1386 148.872C50.6586 148.669 50.2426 148.376 49.8906 147.992C49.5386 147.608 49.2613 147.144 49.0586 146.6C48.8666 146.045 48.7706 145.411 48.7706 144.696C48.7706 143.747 48.9306 142.947 49.2506 142.296C49.5706 141.635 50.0293 141.133 50.6266 140.792C51.224 140.44 51.9333 140.264 52.7546 140.264C53.5333 140.264 54.216 140.44 54.8026 140.792C55.4 141.133 55.864 141.635 56.1946 142.296C56.536 142.947 56.7066 143.747 56.7066 144.696ZM50.2266 144.696C50.2266 145.368 50.312 145.955 50.4826 146.456C50.664 146.947 50.9413 147.325 51.3146 147.592C51.688 147.859 52.1626 147.992 52.7386 147.992C53.3146 147.992 53.7893 147.859 54.1626 147.592C54.536 147.325 54.808 146.947 54.9786 146.456C55.16 145.955 55.2506 145.368 55.2506 144.696C55.2506 144.013 55.16 143.432 54.9786 142.952C54.7973 142.472 54.52 142.104 54.1466 141.848C53.784 141.581 53.3093 141.448 52.7226 141.448C51.848 141.448 51.2133 141.736 50.8186 142.312C50.424 142.888 50.2266 143.683 50.2266 144.696ZM60.3461 140.424V143.992H65.0021V140.424H66.4101V149H65.0021V145.176H60.3461V149H58.9381V140.424H60.3461ZM74.2456 140.296C75.099 140.371 75.8403 140.595 76.4696 140.968C77.1096 141.341 77.6056 141.843 77.9576 142.472C78.3096 143.101 78.4856 143.848 78.4856 144.712C78.4856 145.576 78.315 146.328 77.9736 146.968C77.6323 147.597 77.147 148.099 76.5176 148.472C75.8883 148.835 75.131 149.053 74.2456 149.128V152.84H72.8696V149.128C72.027 149.053 71.2856 148.835 70.6456 148.472C70.0056 148.099 69.5096 147.597 69.1576 146.968C68.8056 146.328 68.6296 145.576 68.6296 144.712C68.6296 143.837 68.8003 143.085 69.1416 142.456C69.483 141.816 69.9736 141.315 70.6136 140.952C71.2536 140.579 72.0216 140.36 72.9176 140.296V136.84H74.2456V140.296ZM72.9176 141.464C72.267 141.528 71.7336 141.693 71.3176 141.96C70.9016 142.227 70.5923 142.589 70.3896 143.048C70.1976 143.507 70.1016 144.061 70.1016 144.712C70.1016 145.352 70.1976 145.907 70.3896 146.376C70.5923 146.835 70.9016 147.203 71.3176 147.48C71.7336 147.747 72.267 147.912 72.9176 147.976V141.464ZM74.2456 147.976C74.8856 147.901 75.4083 147.731 75.8136 147.464C76.2296 147.197 76.5336 146.835 76.7256 146.376C76.9283 145.907 77.0296 145.352 77.0296 144.712C77.0296 144.072 76.9283 143.523 76.7256 143.064C76.523 142.605 76.2136 142.243 75.7976 141.976C75.3923 141.709 74.875 141.544 74.2456 141.48V147.976ZM84.0314 140.264C84.7674 140.264 85.3967 140.424 85.9194 140.744C86.4527 141.064 86.858 141.517 87.1354 142.104C87.4234 142.68 87.5674 143.357 87.5674 144.136V144.984H81.6954C81.7167 145.955 81.962 146.696 82.4314 147.208C82.9114 147.709 83.578 147.96 84.4314 147.96C84.9754 147.96 85.4554 147.912 85.8714 147.816C86.298 147.709 86.7354 147.56 87.1834 147.368V148.6C86.746 148.792 86.314 148.931 85.8874 149.016C85.4607 149.112 84.954 149.16 84.3674 149.16C83.5567 149.16 82.8367 148.995 82.2074 148.664C81.5887 148.333 81.1034 147.843 80.7514 147.192C80.41 146.531 80.2394 145.725 80.2394 144.776C80.2394 143.837 80.394 143.032 80.7034 142.36C81.0234 141.688 81.466 141.171 82.0314 140.808C82.6074 140.445 83.274 140.264 84.0314 140.264ZM84.0154 141.416C83.3434 141.416 82.81 141.635 82.4154 142.072C82.0314 142.499 81.802 143.096 81.7274 143.864H86.0954C86.0954 143.373 86.0207 142.947 85.8714 142.584C85.722 142.221 85.4927 141.939 85.1834 141.736C84.8847 141.523 84.4954 141.416 84.0154 141.416ZM93.8306 140.264C94.8866 140.264 95.7346 140.632 96.3746 141.368C97.0253 142.104 97.3506 143.213 97.3506 144.696C97.3506 145.667 97.2013 146.488 96.9026 147.16C96.6146 147.821 96.204 148.323 95.6706 148.664C95.148 148.995 94.5293 149.16 93.8146 149.16C93.3773 149.16 92.988 149.101 92.6466 148.984C92.3053 148.867 92.012 148.717 91.7666 148.536C91.532 148.344 91.3293 148.136 91.1586 147.912H91.0626C91.084 148.093 91.1053 148.323 91.1266 148.6C91.148 148.877 91.1586 149.117 91.1586 149.32V152.84H89.7506V140.424H90.9026L91.0946 141.592H91.1586C91.3293 141.347 91.532 141.123 91.7666 140.92C92.012 140.717 92.3 140.557 92.6306 140.44C92.972 140.323 93.372 140.264 93.8306 140.264ZM93.5746 141.448C92.9986 141.448 92.5346 141.56 92.1826 141.784C91.8306 141.997 91.5746 142.323 91.4146 142.76C91.2546 143.197 91.1693 143.752 91.1586 144.424V144.696C91.1586 145.4 91.2333 145.997 91.3826 146.488C91.532 146.979 91.7826 147.352 92.1346 147.608C92.4973 147.864 92.988 147.992 93.6066 147.992C94.1293 147.992 94.556 147.848 94.8866 147.56C95.228 147.272 95.4786 146.883 95.6386 146.392C95.8093 145.891 95.8946 145.32 95.8946 144.68C95.8946 143.699 95.7026 142.915 95.3186 142.328C94.9453 141.741 94.364 141.448 93.5746 141.448ZM102.906 140.264C103.642 140.264 104.272 140.424 104.794 140.744C105.328 141.064 105.733 141.517 106.01 142.104C106.298 142.68 106.442 143.357 106.442 144.136V144.984H100.57C100.592 145.955 100.837 146.696 101.306 147.208C101.786 147.709 102.453 147.96 103.306 147.96C103.85 147.96 104.33 147.912 104.746 147.816C105.173 147.709 105.61 147.56 106.058 147.368V148.6C105.621 148.792 105.189 148.931 104.762 149.016C104.336 149.112 103.829 149.16 103.242 149.16C102.432 149.16 101.712 148.995 101.082 148.664C100.464 148.333 99.9784 147.843 99.6264 147.192C99.285 146.531 99.1144 145.725 99.1144 144.776C99.1144 143.837 99.269 143.032 99.5784 142.36C99.8984 141.688 100.341 141.171 100.906 140.808C101.482 140.445 102.149 140.264 102.906 140.264ZM102.89 141.416C102.218 141.416 101.685 141.635 101.29 142.072C100.906 142.499 100.677 143.096 100.602 143.864H104.97C104.97 143.373 104.896 142.947 104.746 142.584C104.597 142.221 104.368 141.939 104.058 141.736C103.76 141.523 103.37 141.416 102.89 141.416ZM110.034 140.424V143.992H114.69V140.424H116.098V149H114.69V145.176H110.034V149H108.626V140.424H110.034ZM127.277 151.976H125.901V149H118.813V140.424H120.221V147.816H124.653V140.424H126.061V147.832H127.277V151.976ZM130.251 145.656C130.251 145.752 130.245 145.891 130.235 146.072C130.235 146.243 130.229 146.429 130.219 146.632C130.208 146.824 130.197 147.011 130.187 147.192C130.176 147.363 130.165 147.501 130.155 147.608L134.747 140.424H136.475V149H135.163V143.944C135.163 143.773 135.163 143.549 135.163 143.272C135.173 142.995 135.184 142.723 135.195 142.456C135.205 142.179 135.216 141.971 135.227 141.832L130.667 149H128.923V140.424H130.251V145.656ZM146.148 136.872C146.105 137.405 145.972 137.853 145.748 138.216C145.534 138.579 145.214 138.851 144.788 139.032C144.361 139.213 143.806 139.304 143.124 139.304C142.43 139.304 141.87 139.213 141.444 139.032C141.028 138.851 140.724 138.584 140.532 138.232C140.34 137.869 140.222 137.416 140.18 136.872H141.492C141.545 137.448 141.694 137.837 141.94 138.04C142.196 138.232 142.601 138.328 143.156 138.328C143.646 138.328 144.03 138.227 144.308 138.024C144.596 137.811 144.766 137.427 144.82 136.872H146.148ZM140.532 145.656C140.532 145.752 140.526 145.891 140.516 146.072C140.516 146.243 140.51 146.429 140.5 146.632C140.489 146.824 140.478 147.011 140.468 147.192C140.457 147.363 140.446 147.501 140.436 147.608L145.028 140.424H146.756V149H145.444V143.944C145.444 143.773 145.444 143.549 145.444 143.272C145.454 142.995 145.465 142.723 145.476 142.456C145.486 142.179 145.497 141.971 145.508 141.832L140.948 149H139.204V140.424H140.532V145.656Z" fill="#333333"/>
<path d="M5 184L12.5 191.5L25 176.5" stroke="#61B857" stroke-width="2" stroke-linecap="round" stroke-linejoin="round"/>
<path d="M49.52 178.272C49.52 179.157 49.408 179.963 49.184 180.688C48.96 181.403 48.624 182.021 48.176 182.544C47.7387 183.067 47.1893 183.467 46.528 183.744C45.8773 184.021 45.12 184.16 44.256 184.16C43.36 184.16 42.5813 184.021 41.92 183.744C41.2587 183.456 40.7093 183.056 40.272 182.544C39.8347 182.021 39.5093 181.397 39.296 180.672C39.0827 179.947 38.976 179.141 38.976 178.256C38.976 177.083 39.168 176.059 39.552 175.184C39.936 174.309 40.5173 173.627 41.296 173.136C42.0853 172.645 43.0773 172.4 44.272 172.4C45.4133 172.4 46.3733 172.645 47.152 173.136C47.9307 173.616 48.5173 174.299 48.912 175.184C49.3173 176.059 49.52 177.088 49.52 178.272ZM40.496 178.272C40.496 179.232 40.6293 180.059 40.896 180.752C41.1627 181.445 41.5733 181.979 42.128 182.352C42.6933 182.725 43.4027 182.912 44.256 182.912C45.12 182.912 45.824 182.725 46.368 182.352C46.9227 181.979 47.3333 181.445 47.6 180.752C47.8667 180.059 48 179.232 48 178.272C48 176.832 47.7013 175.707 47.104 174.896C46.5067 174.075 45.5627 173.664 44.272 173.664C43.408 173.664 42.6933 173.851 42.128 174.224C41.5733 174.587 41.1627 175.115 40.896 175.808C40.6293 176.491 40.496 177.312 40.496 178.272ZM55.94 175.264C56.996 175.264 57.844 175.632 58.484 176.368C59.1347 177.104 59.46 178.213 59.46 179.696C59.46 180.667 59.3107 181.488 59.012 182.16C58.724 182.821 58.3133 183.323 57.78 183.664C57.2573 183.995 56.6387 184.16 55.924 184.16C55.4867 184.16 55.0973 184.101 54.756 183.984C54.4147 183.867 54.1213 183.717 53.876 183.536C53.6413 183.344 53.4387 183.136 53.268 182.912H53.172C53.1933 183.093 53.2147 183.323 53.236 183.6C53.2573 183.877 53.268 184.117 53.268 184.32V187.84H51.86V175.424H53.012L53.204 176.592H53.268C53.4387 176.347 53.6413 176.123 53.876 175.92C54.1213 175.717 54.4093 175.557 54.74 175.44C55.0813 175.323 55.4813 175.264 55.94 175.264ZM55.684 176.448C55.108 176.448 54.644 176.56 54.292 176.784C53.94 176.997 53.684 177.323 53.524 177.76C53.364 178.197 53.2787 178.752 53.268 179.424V179.696C53.268 180.4 53.3427 180.997 53.492 181.488C53.6413 181.979 53.892 182.352 54.244 182.608C54.6067 182.864 55.0973 182.992 55.716 182.992C56.2387 182.992 56.6653 182.848 56.996 182.56C57.3373 182.272 57.588 181.883 57.748 181.392C57.9187 180.891 58.004 180.32 58.004 179.68C58.004 178.699 57.812 177.915 57.428 177.328C57.0547 176.741 56.4733 176.448 55.684 176.448ZM66.9358 175.424V176.608H63.1118V184H61.7038V175.424H66.9358ZM71.8736 175.28C72.919 175.28 73.6923 175.509 74.1936 175.968C74.695 176.427 74.9456 177.157 74.9456 178.16V184H73.9216L73.6496 182.784H73.5856C73.3403 183.093 73.0843 183.355 72.8176 183.568C72.5616 183.771 72.263 183.92 71.9216 184.016C71.591 184.112 71.1856 184.16 70.7056 184.16C70.1936 184.16 69.7296 184.069 69.3136 183.888C68.9083 183.707 68.5883 183.429 68.3536 183.056C68.119 182.672 68.0016 182.192 68.0016 181.616C68.0016 180.763 68.3376 180.107 69.0096 179.648C69.6816 179.179 70.7163 178.923 72.1136 178.88L73.5696 178.832V178.32C73.5696 177.605 73.415 177.109 73.1056 176.832C72.7963 176.555 72.359 176.416 71.7936 176.416C71.3456 176.416 70.919 176.485 70.5136 176.624C70.1083 176.752 69.7296 176.901 69.3776 177.072L68.9456 176.016C69.319 175.813 69.7616 175.643 70.2736 175.504C70.7856 175.355 71.319 175.28 71.8736 175.28ZM72.2896 179.856C71.223 179.899 70.4816 180.069 70.0656 180.368C69.6603 180.667 69.4576 181.088 69.4576 181.632C69.4576 182.112 69.6016 182.464 69.8896 182.688C70.1883 182.912 70.567 183.024 71.0256 183.024C71.751 183.024 72.3536 182.827 72.8336 182.432C73.3136 182.027 73.5536 181.408 73.5536 180.576V179.808L72.2896 179.856ZM79.0024 175.424V178.992H83.6584V175.424H85.0664V184H83.6584V180.176H79.0024V184H77.5944V175.424H79.0024ZM89.1099 180.656C89.1099 180.752 89.1045 180.891 89.0939 181.072C89.0939 181.243 89.0885 181.429 89.0779 181.632C89.0672 181.824 89.0565 182.011 89.0459 182.192C89.0352 182.363 89.0245 182.501 89.0139 182.608L93.6059 175.424H95.3339V184H94.0219V178.944C94.0219 178.773 94.0219 178.549 94.0219 178.272C94.0325 177.995 94.0432 177.723 94.0539 177.456C94.0645 177.179 94.0752 176.971 94.0859 176.832L89.5259 184H87.7819V175.424H89.1099V180.656ZM100.319 175.264C100.97 175.264 101.535 175.355 102.015 175.536C102.495 175.707 102.868 175.963 103.135 176.304C103.402 176.635 103.535 177.04 103.535 177.52C103.535 178.043 103.391 178.459 103.103 178.768C102.815 179.067 102.42 179.285 101.919 179.424V179.488C102.26 179.584 102.575 179.717 102.863 179.888C103.151 180.059 103.38 180.283 103.551 180.56C103.732 180.837 103.823 181.195 103.823 181.632C103.823 182.101 103.69 182.528 103.423 182.912C103.167 183.296 102.767 183.6 102.223 183.824C101.69 184.048 101.002 184.16 100.159 184.16C99.7538 184.16 99.3645 184.139 98.9911 184.096C98.6285 184.053 98.2978 183.989 97.9991 183.904C97.7111 183.819 97.4551 183.717 97.2311 183.6V182.336C97.5938 182.507 98.0205 182.661 98.5111 182.8C99.0125 182.939 99.5565 183.008 100.143 183.008C100.57 183.008 100.954 182.96 101.295 182.864C101.647 182.768 101.924 182.619 102.127 182.416C102.33 182.203 102.431 181.915 102.431 181.552C102.431 181.221 102.34 180.955 102.159 180.752C101.978 180.539 101.706 180.379 101.343 180.272C100.991 180.165 100.538 180.112 99.9831 180.112H98.8311V178.96H99.7591C100.495 178.96 101.082 178.864 101.519 178.672C101.967 178.469 102.191 178.128 102.191 177.648C102.191 177.243 102.02 176.939 101.679 176.736C101.348 176.533 100.868 176.432 100.239 176.432C99.7698 176.432 99.3538 176.48 98.9911 176.576C98.6391 176.661 98.2498 176.795 97.8231 176.976L97.3271 175.856C97.7858 175.653 98.2658 175.504 98.7671 175.408C99.2685 175.312 99.7858 175.264 100.319 175.264ZM109.155 175.28C110.2 175.28 110.974 175.509 111.475 175.968C111.976 176.427 112.227 177.157 112.227 178.16V184H111.203L110.931 182.784H110.867C110.622 183.093 110.366 183.355 110.099 183.568C109.843 183.771 109.544 183.92 109.203 184.016C108.872 184.112 108.467 184.16 107.987 184.16C107.475 184.16 107.011 184.069 106.595 183.888C106.19 183.707 105.87 183.429 105.635 183.056C105.4 182.672 105.283 182.192 105.283 181.616C105.283 180.763 105.619 180.107 106.291 179.648C106.963 179.179 107.998 178.923 109.395 178.88L110.851 178.832V178.32C110.851 177.605 110.696 177.109 110.387 176.832C110.078 176.555 109.64 176.416 109.075 176.416C108.627 176.416 108.2 176.485 107.795 176.624C107.39 176.752 107.011 176.901 106.659 177.072L106.227 176.016C106.6 175.813 107.043 175.643 107.555 175.504C108.067 175.355 108.6 175.28 109.155 175.28ZM109.571 179.856C108.504 179.899 107.763 180.069 107.347 180.368C106.942 180.667 106.739 181.088 106.739 181.632C106.739 182.112 106.883 182.464 107.171 182.688C107.47 182.912 107.848 183.024 108.307 183.024C109.032 183.024 109.635 182.827 110.115 182.432C110.595 182.027 110.835 181.408 110.835 180.576V179.808L109.571 179.856ZM123.34 186.976H121.964V184H114.876V175.424H116.284V182.816H120.716V175.424H122.124V182.832H123.34V186.976ZM126.313 180.656C126.313 180.752 126.308 180.891 126.297 181.072C126.297 181.243 126.292 181.429 126.281 181.632C126.27 181.824 126.26 182.011 126.249 182.192C126.238 182.363 126.228 182.501 126.217 182.608L130.809 175.424H132.537V184H131.225V178.944C131.225 178.773 131.225 178.549 131.225 178.272C131.236 177.995 131.246 177.723 131.257 177.456C131.268 177.179 131.278 176.971 131.289 176.832L126.729 184H124.985V175.424H126.313V180.656ZM135.794 184H134.162L136.61 180.4C136.28 180.315 135.96 180.181 135.65 180C135.341 179.808 135.09 179.547 134.898 179.216C134.706 178.875 134.61 178.453 134.61 177.952C134.61 177.131 134.888 176.507 135.442 176.08C135.997 175.643 136.733 175.424 137.65 175.424H141.49V184H140.082V180.592H138.002L135.794 184ZM135.97 177.968C135.97 178.459 136.152 178.827 136.514 179.072C136.888 179.307 137.405 179.424 138.066 179.424H140.082V176.592H137.794C137.144 176.592 136.674 176.72 136.386 176.976C136.109 177.232 135.97 177.563 135.97 177.968ZM149.193 184V172.576H155.977V173.84H150.633V177.408H152.329C153.47 177.408 154.355 177.552 154.985 177.84C155.614 178.117 156.051 178.501 156.297 178.992C156.542 179.472 156.665 180.027 156.665 180.656C156.665 181.349 156.526 181.947 156.249 182.448C155.982 182.949 155.545 183.333 154.937 183.6C154.329 183.867 153.529 184 152.537 184H149.193ZM152.393 182.768C153.417 182.768 154.137 182.597 154.553 182.256C154.969 181.904 155.177 181.371 155.177 180.656C155.177 180.165 155.075 179.776 154.873 179.488C154.681 179.189 154.361 178.976 153.913 178.848C153.475 178.72 152.889 178.656 152.153 178.656H150.633V182.768H152.393ZM160.172 180.656C160.172 180.752 160.167 180.891 160.156 181.072C160.156 181.243 160.151 181.429 160.14 181.632C160.13 181.824 160.119 182.011 160.108 182.192C160.098 182.363 160.087 182.501 160.076 182.608L164.668 175.424H166.396V184H165.084V178.944C165.084 178.773 165.084 178.549 165.084 178.272C165.095 177.995 165.106 177.723 165.116 177.456C165.127 177.179 165.138 176.971 165.148 176.832L160.588 184H158.844V175.424H160.172V180.656ZM171.382 175.264C172.032 175.264 172.598 175.355 173.078 175.536C173.558 175.707 173.931 175.963 174.198 176.304C174.464 176.635 174.598 177.04 174.598 177.52C174.598 178.043 174.454 178.459 174.166 178.768C173.878 179.067 173.483 179.285 172.982 179.424V179.488C173.323 179.584 173.638 179.717 173.926 179.888C174.214 180.059 174.443 180.283 174.614 180.56C174.795 180.837 174.886 181.195 174.886 181.632C174.886 182.101 174.752 182.528 174.486 182.912C174.23 183.296 173.83 183.6 173.286 183.824C172.752 184.048 172.064 184.16 171.222 184.16C170.816 184.16 170.427 184.139 170.054 184.096C169.691 184.053 169.36 183.989 169.062 183.904C168.774 183.819 168.518 183.717 168.294 183.6V182.336C168.656 182.507 169.083 182.661 169.574 182.8C170.075 182.939 170.619 183.008 171.206 183.008C171.632 183.008 172.016 182.96 172.358 182.864C172.71 182.768 172.987 182.619 173.19 182.416C173.392 182.203 173.494 181.915 173.494 181.552C173.494 181.221 173.403 180.955 173.222 180.752C173.04 180.539 172.768 180.379 172.406 180.272C172.054 180.165 171.6 180.112 171.046 180.112H169.894V178.96H170.822C171.558 178.96 172.144 178.864 172.582 178.672C173.03 178.469 173.254 178.128 173.254 177.648C173.254 177.243 173.083 176.939 172.742 176.736C172.411 176.533 171.931 176.432 171.302 176.432C170.832 176.432 170.416 176.48 170.054 176.576C169.702 176.661 169.312 176.795 168.886 176.976L168.39 175.856C168.848 175.653 169.328 175.504 169.83 175.408C170.331 175.312 170.848 175.264 171.382 175.264ZM178.377 175.424V178.992H183.033V175.424H184.441V184H183.033V180.176H178.377V184H176.969V175.424H178.377ZM190.469 175.264C191.205 175.264 191.834 175.424 192.357 175.744C192.89 176.064 193.296 176.517 193.573 177.104C193.861 177.68 194.005 178.357 194.005 179.136V179.984H188.133C188.154 180.955 188.4 181.696 188.869 182.208C189.349 182.709 190.016 182.96 190.869 182.96C191.413 182.96 191.893 182.912 192.309 182.816C192.736 182.709 193.173 182.56 193.621 182.368V183.6C193.184 183.792 192.752 183.931 192.325 184.016C191.898 184.112 191.392 184.16 190.805 184.16C189.994 184.16 189.274 183.995 188.645 183.664C188.026 183.333 187.541 182.843 187.189 182.192C186.848 181.531 186.677 180.725 186.677 179.776C186.677 178.837 186.832 178.032 187.141 177.36C187.461 176.688 187.904 176.171 188.469 175.808C189.045 175.445 189.712 175.264 190.469 175.264ZM190.453 176.416C189.781 176.416 189.248 176.635 188.853 177.072C188.469 177.499 188.24 178.096 188.165 178.864H192.533C192.533 178.373 192.458 177.947 192.309 177.584C192.16 177.221 191.93 176.939 191.621 176.736C191.322 176.523 190.933 176.416 190.453 176.416ZM199.628 184.16C198.871 184.16 198.193 184.005 197.596 183.696C197.009 183.387 196.545 182.907 196.204 182.256C195.873 181.605 195.708 180.773 195.708 179.76C195.708 178.704 195.884 177.845 196.236 177.184C196.588 176.523 197.063 176.037 197.66 175.728C198.268 175.419 198.956 175.264 199.724 175.264C200.161 175.264 200.583 175.312 200.988 175.408C201.393 175.493 201.724 175.6 201.98 175.728L201.548 176.896C201.292 176.8 200.993 176.709 200.652 176.624C200.311 176.539 199.991 176.496 199.692 176.496C199.116 176.496 198.641 176.619 198.268 176.864C197.895 177.109 197.617 177.472 197.436 177.952C197.255 178.432 197.164 179.029 197.164 179.744C197.164 180.427 197.255 181.008 197.436 181.488C197.617 181.968 197.889 182.331 198.252 182.576C198.615 182.821 199.068 182.944 199.612 182.944C200.081 182.944 200.492 182.896 200.844 182.8C201.207 182.704 201.537 182.587 201.836 182.448V183.696C201.548 183.845 201.228 183.957 200.876 184.032C200.535 184.117 200.119 184.16 199.628 184.16ZM47.888 203H46.16L40.992 197.208V203H39.552V191.576H40.992V197.112L46.032 191.576H47.664L42.704 197.128L47.888 203ZM56.7066 198.696C56.7066 199.411 56.6106 200.045 56.4186 200.6C56.2373 201.144 55.9706 201.608 55.6186 201.992C55.2773 202.376 54.856 202.669 54.3546 202.872C53.864 203.064 53.3146 203.16 52.7066 203.16C52.1413 203.16 51.6186 203.064 51.1386 202.872C50.6586 202.669 50.2426 202.376 49.8906 201.992C49.5386 201.608 49.2613 201.144 49.0586 200.6C48.8666 200.045 48.7706 199.411 48.7706 198.696C48.7706 197.747 48.9306 196.947 49.2506 196.296C49.5706 195.635 50.0293 195.133 50.6266 194.792C51.224 194.44 51.9333 194.264 52.7546 194.264C53.5333 194.264 54.216 194.44 54.8026 194.792C55.4 195.133 55.864 195.635 56.1946 196.296C56.536 196.947 56.7066 197.747 56.7066 198.696ZM50.2266 198.696C50.2266 199.368 50.312 199.955 50.4826 200.456C50.664 200.947 50.9413 201.325 51.3146 201.592C51.688 201.859 52.1626 201.992 52.7386 201.992C53.3146 201.992 53.7893 201.859 54.1626 201.592C54.536 201.325 54.808 200.947 54.9786 200.456C55.16 199.955 55.2506 199.368 55.2506 198.696C55.2506 198.013 55.16 197.432 54.9786 196.952C54.7973 196.472 54.52 196.104 54.1466 195.848C53.784 195.581 53.3093 195.448 52.7226 195.448C51.848 195.448 51.2133 195.736 50.8186 196.312C50.424 196.888 50.2266 197.683 50.2266 198.696ZM60.3461 194.424V197.992H65.0021V194.424H66.4101V203H65.0021V199.176H60.3461V203H58.9381V194.424H60.3461ZM72.5656 203.16C71.8083 203.16 71.131 203.005 70.5336 202.696C69.947 202.387 69.483 201.907 69.1416 201.256C68.811 200.605 68.6456 199.773 68.6456 198.76C68.6456 197.704 68.8216 196.845 69.1736 196.184C69.5256 195.523 70.0003 195.037 70.5976 194.728C71.2056 194.419 71.8936 194.264 72.6616 194.264C73.099 194.264 73.5203 194.312 73.9256 194.408C74.331 194.493 74.6616 194.6 74.9176 194.728L74.4856 195.896C74.2296 195.8 73.931 195.709 73.5896 195.624C73.2483 195.539 72.9283 195.496 72.6296 195.496C72.0536 195.496 71.579 195.619 71.2056 195.864C70.8323 196.109 70.555 196.472 70.3736 196.952C70.1923 197.432 70.1016 198.029 70.1016 198.744C70.1016 199.427 70.1923 200.008 70.3736 200.488C70.555 200.968 70.827 201.331 71.1896 201.576C71.5523 201.821 72.0056 201.944 72.5496 201.944C73.019 201.944 73.4296 201.896 73.7816 201.8C74.1443 201.704 74.475 201.587 74.7736 201.448V202.696C74.4856 202.845 74.1656 202.957 73.8136 203.032C73.4723 203.117 73.0563 203.16 72.5656 203.16ZM75.4691 194.424H76.9731L78.8291 199.304C78.9358 199.592 79.0318 199.869 79.1171 200.136C79.2131 200.403 79.2985 200.664 79.3731 200.92C79.4478 201.165 79.5065 201.405 79.5491 201.64H79.6131C79.6771 201.373 79.7785 201.027 79.9171 200.6C80.0558 200.163 80.1998 199.725 80.3491 199.288L82.0931 194.424H83.6131L79.9171 204.184C79.7145 204.717 79.4745 205.181 79.1971 205.576C78.9305 205.981 78.5998 206.291 78.2051 206.504C77.8211 206.728 77.3518 206.84 76.7971 206.84C76.5411 206.84 76.3171 206.824 76.1251 206.792C75.9331 206.771 75.7678 206.744 75.6291 206.712V205.592C75.7465 205.613 75.8851 205.635 76.0451 205.656C76.2158 205.677 76.3918 205.688 76.5731 205.688C76.9038 205.688 77.1865 205.624 77.4211 205.496C77.6665 205.379 77.8745 205.203 78.0451 204.968C78.2158 204.744 78.3598 204.477 78.4771 204.168L78.9251 203.032L75.4691 194.424ZM91.1849 203H89.7609V195.592H87.2329C87.1262 196.947 86.9929 198.104 86.8329 199.064C86.6729 200.013 86.4702 200.787 86.2249 201.384C85.9795 201.981 85.6862 202.419 85.3449 202.696C85.0035 202.973 84.6035 203.112 84.1449 203.112C84.0062 203.112 83.8675 203.101 83.7289 203.08C83.6009 203.069 83.4942 203.043 83.4089 203V201.944C83.4729 201.965 83.5422 201.981 83.6169 201.992C83.6915 202.003 83.7662 202.008 83.8409 202.008C84.0755 202.008 84.2889 201.912 84.4809 201.72C84.6729 201.528 84.8435 201.235 84.9929 200.84C85.1529 200.445 85.2969 199.949 85.4249 199.352C85.5529 198.744 85.6649 198.029 85.7609 197.208C85.8569 196.387 85.9422 195.459 86.0169 194.424H91.1849V203ZM97.8589 197.944C98.6055 197.944 99.2242 198.035 99.7149 198.216C100.206 198.397 100.574 198.669 100.819 199.032C101.075 199.384 101.203 199.832 101.203 200.376C101.203 200.909 101.08 201.373 100.835 201.768C100.6 202.163 100.232 202.467 99.7309 202.68C99.2295 202.893 98.5842 203 97.7949 203H93.9069V194.424H95.3149V197.944H97.8589ZM99.7949 200.456C99.7949 199.933 99.6082 199.581 99.2349 199.4C98.8722 199.208 98.3602 199.112 97.6989 199.112H95.3149V201.864H97.7309C98.3282 201.864 98.8189 201.757 99.2029 201.544C99.5975 201.331 99.7949 200.968 99.7949 200.456ZM108.53 195.608H105.73V203H104.338V195.608H101.57V194.424H108.53V195.608ZM113.467 194.28C114.513 194.28 115.286 194.509 115.787 194.968C116.289 195.427 116.539 196.157 116.539 197.16V203H115.515L115.243 201.784H115.179C114.934 202.093 114.678 202.355 114.411 202.568C114.155 202.771 113.857 202.92 113.515 203.016C113.185 203.112 112.779 203.16 112.299 203.16C111.787 203.16 111.323 203.069 110.907 202.888C110.502 202.707 110.182 202.429 109.947 202.056C109.713 201.672 109.595 201.192 109.595 200.616C109.595 199.763 109.931 199.107 110.603 198.648C111.275 198.179 112.31 197.923 113.707 197.88L115.163 197.832V197.32C115.163 196.605 115.009 196.109 114.699 195.832C114.39 195.555 113.953 195.416 113.387 195.416C112.939 195.416 112.513 195.485 112.107 195.624C111.702 195.752 111.323 195.901 110.971 196.072L110.539 195.016C110.913 194.813 111.355 194.643 111.867 194.504C112.379 194.355 112.913 194.28 113.467 194.28ZM113.883 198.856C112.817 198.899 112.075 199.069 111.659 199.368C111.254 199.667 111.051 200.088 111.051 200.632C111.051 201.112 111.195 201.464 111.483 201.688C111.782 201.912 112.161 202.024 112.619 202.024C113.345 202.024 113.947 201.827 114.427 201.432C114.907 201.027 115.147 200.408 115.147 199.576V198.808L113.883 198.856ZM127.652 205.976H126.276V203H119.188V194.424H120.596V201.816H125.028V194.424H126.436V201.832H127.652V205.976ZM130.626 199.656C130.626 199.752 130.62 199.891 130.61 200.072C130.61 200.243 130.604 200.429 130.594 200.632C130.583 200.824 130.572 201.011 130.562 201.192C130.551 201.363 130.54 201.501 130.53 201.608L135.122 194.424H136.85V203H135.538V197.944C135.538 197.773 135.538 197.549 135.538 197.272C135.548 196.995 135.559 196.723 135.57 196.456C135.58 196.179 135.591 195.971 135.602 195.832L131.042 203H129.298V194.424H130.626V199.656ZM146.523 190.872C146.48 191.405 146.347 191.853 146.123 192.216C145.909 192.579 145.589 192.851 145.163 193.032C144.736 193.213 144.181 193.304 143.499 193.304C142.805 193.304 142.245 193.213 141.819 193.032C141.403 192.851 141.099 192.584 140.907 192.232C140.715 191.869 140.597 191.416 140.555 190.872H141.867C141.92 191.448 142.069 191.837 142.315 192.04C142.571 192.232 142.976 192.328 143.531 192.328C144.021 192.328 144.405 192.227 144.683 192.024C144.971 191.811 145.141 191.427 145.195 190.872H146.523ZM140.907 199.656C140.907 199.752 140.901 199.891 140.891 200.072C140.891 200.243 140.885 200.429 140.875 200.632C140.864 200.824 140.853 201.011 140.843 201.192C140.832 201.363 140.821 201.501 140.811 201.608L145.403 194.424H147.131V203H145.819V197.944C145.819 197.773 145.819 197.549 145.819 197.272C145.829 196.995 145.84 196.723 145.851 196.456C145.861 196.179 145.872 195.971 145.883 195.832L141.323 203H139.579V194.424H140.907V199.656Z" fill="#333333"/>
<path d="M5 238L12.5 245.5L25 230.5" stroke="#61B857" stroke-width="2" stroke-linecap="round" stroke-linejoin="round"/>
<path d="M49.52 232.272C49.52 233.157 49.408 233.963 49.184 234.688C48.96 235.403 48.624 236.021 48.176 236.544C47.7387 237.067 47.1893 237.467 46.528 237.744C45.8773 238.021 45.12 238.16 44.256 238.16C43.36 238.16 42.5813 238.021 41.92 237.744C41.2587 237.456 40.7093 237.056 40.272 236.544C39.8347 236.021 39.5093 235.397 39.296 234.672C39.0827 233.947 38.976 233.141 38.976 232.256C38.976 231.083 39.168 230.059 39.552 229.184C39.936 228.309 40.5173 227.627 41.296 227.136C42.0853 226.645 43.0773 226.4 44.272 226.4C45.4133 226.4 46.3733 226.645 47.152 227.136C47.9307 227.616 48.5173 228.299 48.912 229.184C49.3173 230.059 49.52 231.088 49.52 232.272ZM40.496 232.272C40.496 233.232 40.6293 234.059 40.896 234.752C41.1627 235.445 41.5733 235.979 42.128 236.352C42.6933 236.725 43.4027 236.912 44.256 236.912C45.12 236.912 45.824 236.725 46.368 236.352C46.9227 235.979 47.3333 235.445 47.6 234.752C47.8667 234.059 48 233.232 48 232.272C48 230.832 47.7013 229.707 47.104 228.896C46.5067 228.075 45.5627 227.664 44.272 227.664C43.408 227.664 42.6933 227.851 42.128 228.224C41.5733 228.587 41.1627 229.115 40.896 229.808C40.6293 230.491 40.496 231.312 40.496 232.272ZM55.94 229.264C56.996 229.264 57.844 229.632 58.484 230.368C59.1347 231.104 59.46 232.213 59.46 233.696C59.46 234.667 59.3107 235.488 59.012 236.16C58.724 236.821 58.3133 237.323 57.78 237.664C57.2573 237.995 56.6387 238.16 55.924 238.16C55.4867 238.16 55.0973 238.101 54.756 237.984C54.4147 237.867 54.1213 237.717 53.876 237.536C53.6413 237.344 53.4387 237.136 53.268 236.912H53.172C53.1933 237.093 53.2147 237.323 53.236 237.6C53.2573 237.877 53.268 238.117 53.268 238.32V241.84H51.86V229.424H53.012L53.204 230.592H53.268C53.4387 230.347 53.6413 230.123 53.876 229.92C54.1213 229.717 54.4093 229.557 54.74 229.44C55.0813 229.323 55.4813 229.264 55.94 229.264ZM55.684 230.448C55.108 230.448 54.644 230.56 54.292 230.784C53.94 230.997 53.684 231.323 53.524 231.76C53.364 232.197 53.2787 232.752 53.268 233.424V233.696C53.268 234.4 53.3427 234.997 53.492 235.488C53.6413 235.979 53.892 236.352 54.244 236.608C54.6067 236.864 55.0973 236.992 55.716 236.992C56.2387 236.992 56.6653 236.848 56.996 236.56C57.3373 236.272 57.588 235.883 57.748 235.392C57.9187 234.891 58.004 234.32 58.004 233.68C58.004 232.699 57.812 231.915 57.428 231.328C57.0547 230.741 56.4733 230.448 55.684 230.448ZM66.9358 229.424V230.608H63.1118V238H61.7038V229.424H66.9358ZM71.8736 229.28C72.919 229.28 73.6923 229.509 74.1936 229.968C74.695 230.427 74.9456 231.157 74.9456 232.16V238H73.9216L73.6496 236.784H73.5856C73.3403 237.093 73.0843 237.355 72.8176 237.568C72.5616 237.771 72.263 237.92 71.9216 238.016C71.591 238.112 71.1856 238.16 70.7056 238.16C70.1936 238.16 69.7296 238.069 69.3136 237.888C68.9083 237.707 68.5883 237.429 68.3536 237.056C68.119 236.672 68.0016 236.192 68.0016 235.616C68.0016 234.763 68.3376 234.107 69.0096 233.648C69.6816 233.179 70.7163 232.923 72.1136 232.88L73.5696 232.832V232.32C73.5696 231.605 73.415 231.109 73.1056 230.832C72.7963 230.555 72.359 230.416 71.7936 230.416C71.3456 230.416 70.919 230.485 70.5136 230.624C70.1083 230.752 69.7296 230.901 69.3776 231.072L68.9456 230.016C69.319 229.813 69.7616 229.643 70.2736 229.504C70.7856 229.355 71.319 229.28 71.8736 229.28ZM72.2896 233.856C71.223 233.899 70.4816 234.069 70.0656 234.368C69.6603 234.667 69.4576 235.088 69.4576 235.632C69.4576 236.112 69.6016 236.464 69.8896 236.688C70.1883 236.912 70.567 237.024 71.0256 237.024C71.751 237.024 72.3536 236.827 72.8336 236.432C73.3136 236.027 73.5536 235.408 73.5536 234.576V233.808L72.2896 233.856ZM79.0024 229.424V232.992H83.6584V229.424H85.0664V238H83.6584V234.176H79.0024V238H77.5944V229.424H79.0024ZM89.1099 234.656C89.1099 234.752 89.1045 234.891 89.0939 235.072C89.0939 235.243 89.0885 235.429 89.0779 235.632C89.0672 235.824 89.0565 236.011 89.0459 236.192C89.0352 236.363 89.0245 236.501 89.0139 236.608L93.6059 229.424H95.3339V238H94.0219V232.944C94.0219 232.773 94.0219 232.549 94.0219 232.272C94.0325 231.995 94.0432 231.723 94.0539 231.456C94.0645 231.179 94.0752 230.971 94.0859 230.832L89.5259 238H87.7819V229.424H89.1099V234.656ZM100.319 229.264C100.97 229.264 101.535 229.355 102.015 229.536C102.495 229.707 102.868 229.963 103.135 230.304C103.402 230.635 103.535 231.04 103.535 231.52C103.535 232.043 103.391 232.459 103.103 232.768C102.815 233.067 102.42 233.285 101.919 233.424V233.488C102.26 233.584 102.575 233.717 102.863 233.888C103.151 234.059 103.38 234.283 103.551 234.56C103.732 234.837 103.823 235.195 103.823 235.632C103.823 236.101 103.69 236.528 103.423 236.912C103.167 237.296 102.767 237.6 102.223 237.824C101.69 238.048 101.002 238.16 100.159 238.16C99.7538 238.16 99.3645 238.139 98.9911 238.096C98.6285 238.053 98.2978 237.989 97.9991 237.904C97.7111 237.819 97.4551 237.717 97.2311 237.6V236.336C97.5938 236.507 98.0205 236.661 98.5111 236.8C99.0125 236.939 99.5565 237.008 100.143 237.008C100.57 237.008 100.954 236.96 101.295 236.864C101.647 236.768 101.924 236.619 102.127 236.416C102.33 236.203 102.431 235.915 102.431 235.552C102.431 235.221 102.34 234.955 102.159 234.752C101.978 234.539 101.706 234.379 101.343 234.272C100.991 234.165 100.538 234.112 99.9831 234.112H98.8311V232.96H99.7591C100.495 232.96 101.082 232.864 101.519 232.672C101.967 232.469 102.191 232.128 102.191 231.648C102.191 231.243 102.02 230.939 101.679 230.736C101.348 230.533 100.868 230.432 100.239 230.432C99.7698 230.432 99.3538 230.48 98.9911 230.576C98.6391 230.661 98.2498 230.795 97.8231 230.976L97.3271 229.856C97.7858 229.653 98.2658 229.504 98.7671 229.408C99.2685 229.312 99.7858 229.264 100.319 229.264ZM109.155 229.28C110.2 229.28 110.974 229.509 111.475 229.968C111.976 230.427 112.227 231.157 112.227 232.16V238H111.203L110.931 236.784H110.867C110.622 237.093 110.366 237.355 110.099 237.568C109.843 237.771 109.544 237.92 109.203 238.016C108.872 238.112 108.467 238.16 107.987 238.16C107.475 238.16 107.011 238.069 106.595 237.888C106.19 237.707 105.87 237.429 105.635 237.056C105.4 236.672 105.283 236.192 105.283 235.616C105.283 234.763 105.619 234.107 106.291 233.648C106.963 233.179 107.998 232.923 109.395 232.88L110.851 232.832V232.32C110.851 231.605 110.696 231.109 110.387 230.832C110.078 230.555 109.64 230.416 109.075 230.416C108.627 230.416 108.2 230.485 107.795 230.624C107.39 230.752 107.011 230.901 106.659 231.072L106.227 230.016C106.6 229.813 107.043 229.643 107.555 229.504C108.067 229.355 108.6 229.28 109.155 229.28ZM109.571 233.856C108.504 233.899 107.763 234.069 107.347 234.368C106.942 234.667 106.739 235.088 106.739 235.632C106.739 236.112 106.883 236.464 107.171 236.688C107.47 236.912 107.848 237.024 108.307 237.024C109.032 237.024 109.635 236.827 110.115 236.432C110.595 236.027 110.835 235.408 110.835 234.576V233.808L109.571 233.856ZM123.34 240.976H121.964V238H114.876V229.424H116.284V236.816H120.716V229.424H122.124V236.832H123.34V240.976ZM126.313 234.656C126.313 234.752 126.308 234.891 126.297 235.072C126.297 235.243 126.292 235.429 126.281 235.632C126.27 235.824 126.26 236.011 126.249 236.192C126.238 236.363 126.228 236.501 126.217 236.608L130.809 229.424H132.537V238H131.225V232.944C131.225 232.773 131.225 232.549 131.225 232.272C131.236 231.995 131.246 231.723 131.257 231.456C131.268 231.179 131.278 230.971 131.289 230.832L126.729 238H124.985V229.424H126.313V234.656ZM135.794 238H134.162L136.61 234.4C136.28 234.315 135.96 234.181 135.65 234C135.341 233.808 135.09 233.547 134.898 233.216C134.706 232.875 134.61 232.453 134.61 231.952C134.61 231.131 134.888 230.507 135.442 230.08C135.997 229.643 136.733 229.424 137.65 229.424H141.49V238H140.082V234.592H138.002L135.794 238ZM135.97 231.968C135.97 232.459 136.152 232.827 136.514 233.072C136.888 233.307 137.405 233.424 138.066 233.424H140.082V230.592H137.794C137.144 230.592 136.674 230.72 136.386 230.976C136.109 231.232 135.97 231.563 135.97 231.968ZM149.193 238V226.576H155.977V227.84H150.633V231.408H152.329C153.47 231.408 154.355 231.552 154.985 231.84C155.614 232.117 156.051 232.501 156.297 232.992C156.542 233.472 156.665 234.027 156.665 234.656C156.665 235.349 156.526 235.947 156.249 236.448C155.982 236.949 155.545 237.333 154.937 237.6C154.329 237.867 153.529 238 152.537 238H149.193ZM152.393 236.768C153.417 236.768 154.137 236.597 154.553 236.256C154.969 235.904 155.177 235.371 155.177 234.656C155.177 234.165 155.075 233.776 154.873 233.488C154.681 233.189 154.361 232.976 153.913 232.848C153.475 232.72 152.889 232.656 152.153 232.656H150.633V236.768H152.393ZM160.172 234.656C160.172 234.752 160.167 234.891 160.156 235.072C160.156 235.243 160.151 235.429 160.14 235.632C160.13 235.824 160.119 236.011 160.108 236.192C160.098 236.363 160.087 236.501 160.076 236.608L164.668 229.424H166.396V238H165.084V232.944C165.084 232.773 165.084 232.549 165.084 232.272C165.095 231.995 165.106 231.723 165.116 231.456C165.127 231.179 165.138 230.971 165.148 230.832L160.588 238H158.844V229.424H160.172V234.656ZM171.382 229.264C172.032 229.264 172.598 229.355 173.078 229.536C173.558 229.707 173.931 229.963 174.198 230.304C174.464 230.635 174.598 231.04 174.598 231.52C174.598 232.043 174.454 232.459 174.166 232.768C173.878 233.067 173.483 233.285 172.982 233.424V233.488C173.323 233.584 173.638 233.717 173.926 233.888C174.214 234.059 174.443 234.283 174.614 234.56C174.795 234.837 174.886 235.195 174.886 235.632C174.886 236.101 174.752 236.528 174.486 236.912C174.23 237.296 173.83 237.6 173.286 237.824C172.752 238.048 172.064 238.16 171.222 238.16C170.816 238.16 170.427 238.139 170.054 238.096C169.691 238.053 169.36 237.989 169.062 237.904C168.774 237.819 168.518 237.717 168.294 237.6V236.336C168.656 236.507 169.083 236.661 169.574 236.8C170.075 236.939 170.619 237.008 171.206 237.008C171.632 237.008 172.016 236.96 172.358 236.864C172.71 236.768 172.987 236.619 173.19 236.416C173.392 236.203 173.494 235.915 173.494 235.552C173.494 235.221 173.403 234.955 173.222 234.752C173.04 234.539 172.768 234.379 172.406 234.272C172.054 234.165 171.6 234.112 171.046 234.112H169.894V232.96H170.822C171.558 232.96 172.144 232.864 172.582 232.672C173.03 232.469 173.254 232.128 173.254 231.648C173.254 231.243 173.083 230.939 172.742 230.736C172.411 230.533 171.931 230.432 171.302 230.432C170.832 230.432 170.416 230.48 170.054 230.576C169.702 230.661 169.312 230.795 168.886 230.976L168.39 229.856C168.848 229.653 169.328 229.504 169.83 229.408C170.331 229.312 170.848 229.264 171.382 229.264ZM178.377 229.424V232.992H183.033V229.424H184.441V238H183.033V234.176H178.377V238H176.969V229.424H178.377ZM190.469 229.264C191.205 229.264 191.834 229.424 192.357 229.744C192.89 230.064 193.296 230.517 193.573 231.104C193.861 231.68 194.005 232.357 194.005 233.136V233.984H188.133C188.154 234.955 188.4 235.696 188.869 236.208C189.349 236.709 190.016 236.96 190.869 236.96C191.413 236.96 191.893 236.912 192.309 236.816C192.736 236.709 193.173 236.56 193.621 236.368V237.6C193.184 237.792 192.752 237.931 192.325 238.016C191.898 238.112 191.392 238.16 190.805 238.16C189.994 238.16 189.274 237.995 188.645 237.664C188.026 237.333 187.541 236.843 187.189 236.192C186.848 235.531 186.677 234.725 186.677 233.776C186.677 232.837 186.832 232.032 187.141 231.36C187.461 230.688 187.904 230.171 188.469 229.808C189.045 229.445 189.712 229.264 190.469 229.264ZM190.453 230.416C189.781 230.416 189.248 230.635 188.853 231.072C188.469 231.499 188.24 232.096 188.165 232.864H192.533C192.533 232.373 192.458 231.947 192.309 231.584C192.16 231.221 191.93 230.939 191.621 230.736C191.322 230.523 190.933 230.416 190.453 230.416ZM199.628 238.16C198.871 238.16 198.193 238.005 197.596 237.696C197.009 237.387 196.545 236.907 196.204 236.256C195.873 235.605 195.708 234.773 195.708 233.76C195.708 232.704 195.884 231.845 196.236 231.184C196.588 230.523 197.063 230.037 197.66 229.728C198.268 229.419 198.956 229.264 199.724 229.264C200.161 229.264 200.583 229.312 200.988 229.408C201.393 229.493 201.724 229.6 201.98 229.728L201.548 230.896C201.292 230.8 200.993 230.709 200.652 230.624C200.311 230.539 199.991 230.496 199.692 230.496C199.116 230.496 198.641 230.619 198.268 230.864C197.895 231.109 197.617 231.472 197.436 231.952C197.255 232.432 197.164 233.029 197.164 233.744C197.164 234.427 197.255 235.008 197.436 235.488C197.617 235.968 197.889 236.331 198.252 236.576C198.615 236.821 199.068 236.944 199.612 236.944C200.081 236.944 200.492 236.896 200.844 236.8C201.207 236.704 201.537 236.587 201.836 236.448V237.696C201.548 237.845 201.228 237.957 200.876 238.032C200.535 238.117 200.119 238.16 199.628 238.16ZM39.552 257V245.576H48.128V257H46.704V246.84H40.992V257H39.552ZM58.5191 252.696C58.5191 253.411 58.4231 254.045 58.2311 254.6C58.0498 255.144 57.7831 255.608 57.4311 255.992C57.0898 256.376 56.6685 256.669 56.1671 256.872C55.6765 257.064 55.1271 257.16 54.5191 257.16C53.9538 257.16 53.4311 257.064 52.9511 256.872C52.4711 256.669 52.0551 256.376 51.7031 255.992C51.3511 255.608 51.0738 255.144 50.8711 254.6C50.6791 254.045 50.5831 253.411 50.5831 252.696C50.5831 251.747 50.7431 250.947 51.0631 250.296C51.3831 249.635 51.8418 249.133 52.4391 248.792C53.0365 248.44 53.7458 248.264 54.5671 248.264C55.3458 248.264 56.0285 248.44 56.6151 248.792C57.2125 249.133 57.6765 249.635 58.0071 250.296C58.3485 250.947 58.5191 251.747 58.5191 252.696ZM52.0391 252.696C52.0391 253.368 52.1245 253.955 52.2951 254.456C52.4765 254.947 52.7538 255.325 53.1271 255.592C53.5005 255.859 53.9751 255.992 54.5511 255.992C55.1271 255.992 55.6018 255.859 55.9751 255.592C56.3485 255.325 56.6205 254.947 56.7911 254.456C56.9725 253.955 57.0631 253.368 57.0631 252.696C57.0631 252.013 56.9725 251.432 56.7911 250.952C56.6098 250.472 56.3325 250.104 55.9591 249.848C55.5965 249.581 55.1218 249.448 54.5351 249.448C53.6605 249.448 53.0258 249.736 52.6311 250.312C52.2365 250.888 52.0391 251.683 52.0391 252.696ZM64.0626 248.264C64.7986 248.264 65.428 248.424 65.9506 248.744C66.484 249.064 66.8893 249.517 67.1666 250.104C67.4546 250.68 67.5986 251.357 67.5986 252.136V252.984H61.7266C61.748 253.955 61.9933 254.696 62.4626 255.208C62.9426 255.709 63.6093 255.96 64.4626 255.96C65.0066 255.96 65.4866 255.912 65.9026 255.816C66.3293 255.709 66.7666 255.56 67.2146 255.368V256.6C66.7773 256.792 66.3453 256.931 65.9186 257.016C65.492 257.112 64.9853 257.16 64.3986 257.16C63.588 257.16 62.868 256.995 62.2386 256.664C61.62 256.333 61.1346 255.843 60.7826 255.192C60.4413 254.531 60.2706 253.725 60.2706 252.776C60.2706 251.837 60.4253 251.032 60.7346 250.36C61.0546 249.688 61.4973 249.171 62.0626 248.808C62.6386 248.445 63.3053 248.264 64.0626 248.264ZM64.0466 249.416C63.3746 249.416 62.8413 249.635 62.4466 250.072C62.0626 250.499 61.8333 251.096 61.7586 251.864H66.1266C66.1266 251.373 66.052 250.947 65.9026 250.584C65.7533 250.221 65.524 249.939 65.2146 249.736C64.916 249.523 64.5266 249.416 64.0466 249.416ZM72.0379 248.264C72.6885 248.264 73.2539 248.355 73.7339 248.536C74.2139 248.707 74.5872 248.963 74.8539 249.304C75.1205 249.635 75.2539 250.04 75.2539 250.52C75.2539 251.043 75.1099 251.459 74.8219 251.768C74.5339 252.067 74.1392 252.285 73.6379 252.424V252.488C73.9792 252.584 74.2939 252.717 74.5819 252.888C74.8699 253.059 75.0992 253.283 75.2699 253.56C75.4512 253.837 75.5419 254.195 75.5419 254.632C75.5419 255.101 75.4085 255.528 75.1419 255.912C74.8859 256.296 74.4859 256.6 73.9419 256.824C73.4085 257.048 72.7205 257.16 71.8779 257.16C71.4725 257.16 71.0832 257.139 70.7099 257.096C70.3472 257.053 70.0165 256.989 69.7179 256.904C69.4299 256.819 69.1739 256.717 68.9499 256.6V255.336C69.3125 255.507 69.7392 255.661 70.2299 255.8C70.7312 255.939 71.2752 256.008 71.8619 256.008C72.2885 256.008 72.6725 255.96 73.0139 255.864C73.3659 255.768 73.6432 255.619 73.8459 255.416C74.0485 255.203 74.1499 254.915 74.1499 254.552C74.1499 254.221 74.0592 253.955 73.8779 253.752C73.6965 253.539 73.4245 253.379 73.0619 253.272C72.7099 253.165 72.2565 253.112 71.7019 253.112H70.5499V251.96H71.4779C72.2139 251.96 72.8005 251.864 73.2379 251.672C73.6859 251.469 73.9099 251.128 73.9099 250.648C73.9099 250.243 73.7392 249.939 73.3979 249.736C73.0672 249.533 72.5872 249.432 71.9579 249.432C71.4885 249.432 71.0725 249.48 70.7099 249.576C70.3579 249.661 69.9685 249.795 69.5419 249.976L69.0459 248.856C69.5045 248.653 69.9845 248.504 70.4859 248.408C70.9872 248.312 71.5045 248.264 72.0379 248.264ZM83.9936 248.424V255.816H85.2416V259.976H83.8816V257H77.9136V259.976H76.5696V255.816H77.2576C77.7483 255.133 78.1536 254.392 78.4736 253.592C78.8043 252.781 79.0496 251.939 79.2096 251.064C79.3803 250.179 79.471 249.299 79.4816 248.424H83.9936ZM80.7296 249.528C80.687 250.253 80.575 251.005 80.3936 251.784C80.2123 252.552 79.9776 253.288 79.6896 253.992C79.4123 254.696 79.087 255.304 78.7136 255.816H82.6336V249.528H80.7296ZM94.3785 252.696C94.3785 253.411 94.2825 254.045 94.0905 254.6C93.9092 255.144 93.6425 255.608 93.2905 255.992C92.9492 256.376 92.5278 256.669 92.0265 256.872C91.5358 257.064 90.9865 257.16 90.3785 257.16C89.8132 257.16 89.2905 257.064 88.8105 256.872C88.3305 256.669 87.9145 256.376 87.5625 255.992C87.2105 255.608 86.9332 255.144 86.7305 254.6C86.5385 254.045 86.4425 253.411 86.4425 252.696C86.4425 251.747 86.6025 250.947 86.9225 250.296C87.2425 249.635 87.7012 249.133 88.2985 248.792C88.8958 248.44 89.6052 248.264 90.4265 248.264C91.2052 248.264 91.8878 248.44 92.4745 248.792C93.0718 249.133 93.5358 249.635 93.8665 250.296C94.2078 250.947 94.3785 251.747 94.3785 252.696ZM87.8985 252.696C87.8985 253.368 87.9838 253.955 88.1545 254.456C88.3358 254.947 88.6132 255.325 88.9865 255.592C89.3598 255.859 89.8345 255.992 90.4105 255.992C90.9865 255.992 91.4612 255.859 91.8345 255.592C92.2078 255.325 92.4798 254.947 92.6505 254.456C92.8318 253.955 92.9225 253.368 92.9225 252.696C92.9225 252.013 92.8318 251.432 92.6505 250.952C92.4692 250.472 92.1918 250.104 91.8185 249.848C91.4558 249.581 90.9812 249.448 90.3945 249.448C89.5198 249.448 88.8852 249.736 88.4905 250.312C88.0958 250.888 87.8985 251.683 87.8985 252.696ZM101.682 248.424H103.218L99.554 252.552L103.522 257H101.89L98.018 252.648V257H96.61V248.424H98.018V252.584L101.682 248.424Z" fill="#333333"/>
</svg>
