<svg width="326" height="540" viewBox="0 0 326 540" fill="none" xmlns="http://www.w3.org/2000/svg">
<g filter="url(#filter0_d_170_4011)">
<rect x="17" y="15" width="286" height="500" rx="5" fill="white" shape-rendering="crispEdges"/>
<g filter="url(#filter1_d_170_4011)">
<path d="M112.5 125.792H37.5C35.7917 125.792 34.375 124.375 34.375 122.667C34.375 120.958 35.7917 119.542 37.5 119.542H112.5C114.208 119.542 115.625 120.958 115.625 122.667C115.625 124.375 114.208 125.792 112.5 125.792Z" fill="#1959AB"/>
<path d="M48.3332 113.291H41.6667C37.6667 113.291 34.375 110 34.375 106V70.0832C34.375 66.0832 37.6667 62.7915 41.6667 62.7915H48.3332C52.3332 62.7915 55.6249 66.0832 55.6249 70.0832V106C55.6249 110 52.3332 113.291 48.3332 113.291ZM41.6667 68.9998C41.0833 68.9998 40.625 69.4581 40.625 70.0415V106C40.625 106.583 41.0833 107.041 41.6667 107.041H48.3332C48.9166 107.041 49.3749 106.583 49.3749 106V70.0832C49.3749 69.4998 48.9166 69.0415 48.3332 69.0415H41.6667V68.9998Z" fill="#1959AB"/>
<path d="M78.3332 113.292H71.6667C67.6667 113.292 64.375 110 64.375 106V56.7917C64.375 52.7917 67.6667 49.5 71.6667 49.5H78.3332C82.3332 49.5 85.6249 52.7917 85.6249 56.7917V106C85.6249 110 82.3332 113.292 78.3332 113.292ZM71.6667 55.75C71.0833 55.75 70.625 56.2083 70.625 56.7917V106C70.625 106.583 71.0833 107.042 71.6667 107.042H78.3332C78.9166 107.042 79.3749 106.583 79.3749 106V56.7917C79.3749 56.2083 78.9166 55.75 78.3332 55.75H71.6667Z" fill="#1959AB"/>
<path d="M108.333 113.292H101.667C97.6667 113.292 94.375 110 94.375 106V43.5002C94.375 39.5002 97.6667 36.2085 101.667 36.2085H108.333C112.333 36.2085 115.625 39.5002 115.625 43.5002V106C115.625 110 112.333 113.292 108.333 113.292ZM101.667 42.4585C101.083 42.4585 100.625 42.9168 100.625 43.5002V106C100.625 106.584 101.083 107.042 101.667 107.042H108.333C108.917 107.042 109.375 106.584 109.375 106V43.5002C109.375 42.9168 108.917 42.4585 108.333 42.4585H101.667Z" fill="#1959AB"/>
</g>
<path d="M42.1094 197.398C42.1094 198.25 41.9453 199.035 41.6172 199.754C41.2969 200.465 40.8555 201.047 40.293 201.5C39.582 202.07 38.8398 202.465 38.0664 202.684C37.3008 202.895 36.3711 203 35.2773 203H27.2266V185.551H40.7852V188.926H31.7031V192.055H35.3477C36.5664 192.055 37.5625 192.145 38.3359 192.324C39.1094 192.496 39.793 192.816 40.3867 193.285C40.9883 193.754 41.4258 194.348 41.6992 195.066C41.9727 195.777 42.1094 196.555 42.1094 197.398ZM37.457 197.527C37.457 197.238 37.4258 196.965 37.3633 196.707C37.3008 196.449 37.1641 196.211 36.9531 195.992C36.7422 195.781 36.4531 195.613 36.0859 195.488C35.7188 195.363 35.2109 195.301 34.5625 195.301H31.7031V199.742H34.5625C35.0547 199.742 35.4961 199.68 35.8867 199.555C36.2852 199.43 36.5898 199.27 36.8008 199.074C37.0117 198.887 37.1719 198.664 37.2812 198.406C37.3984 198.141 37.457 197.848 37.457 197.527ZM58.4805 203H54.3906V194.949L48.6719 203H45.1797V189.84H49.2695V197.047L54.5664 189.84H58.4805V203ZM73.5156 199.273C73.5156 200.023 73.332 200.668 72.9648 201.207C72.5977 201.738 72.1016 202.164 71.4766 202.484C70.8438 202.805 70.1406 203.031 69.3672 203.164C68.5938 203.297 67.7695 203.363 66.8945 203.363C65.7461 203.363 64.7266 203.266 63.8359 203.07C62.9531 202.875 62.0898 202.633 61.2461 202.344V199.145H61.7148C62.332 199.488 63.0234 199.789 63.7891 200.047C64.5547 200.297 65.3359 200.422 66.1328 200.422C66.4297 200.422 66.7812 200.402 67.1875 200.363C67.6016 200.324 67.9297 200.258 68.1719 200.164C68.5 200.039 68.7461 199.895 68.9102 199.73C69.082 199.566 69.168 199.305 69.168 198.945C69.168 198.609 69.0898 198.348 68.9336 198.16C68.7852 197.973 68.5781 197.836 68.3125 197.75C68.0859 197.672 67.7969 197.621 67.4453 197.598C67.1016 197.574 66.6641 197.562 66.1328 197.562H64.1172V194.891H65.7344C66.0469 194.891 66.418 194.887 66.8477 194.879C67.2852 194.871 67.6289 194.836 67.8789 194.773C68.2461 194.688 68.5078 194.551 68.6641 194.363C68.8281 194.176 68.9102 193.934 68.9102 193.637C68.9102 193.395 68.8281 193.191 68.6641 193.027C68.5 192.863 68.2852 192.734 68.0195 192.641C67.793 192.562 67.5273 192.504 67.2227 192.465C66.918 192.426 66.5977 192.406 66.2617 192.406C65.707 192.406 65.0586 192.504 64.3164 192.699C63.582 192.895 62.9297 193.137 62.3594 193.426H61.9023V190.273C62.3867 190.125 63.1055 189.953 64.0586 189.758C65.0195 189.562 66 189.465 67 189.465C67.875 189.465 68.6719 189.531 69.3906 189.664C70.1094 189.797 70.7461 189.996 71.3008 190.262C71.8867 190.551 72.3594 190.926 72.7188 191.387C73.0781 191.848 73.2578 192.422 73.2578 193.109C73.2578 193.812 73.0156 194.441 72.5312 194.996C72.0547 195.551 71.4805 195.922 70.8086 196.109V196.215C71.582 196.418 72.2266 196.773 72.7422 197.281C73.2578 197.781 73.5156 198.445 73.5156 199.273ZM89.875 203H85.6562V197.387H80.8047V203H76.5859V189.84H80.8047V194.375H85.6562V189.84H89.875V203ZM106.82 197.199H97.1641C97.2266 198.23 97.6172 199.02 98.3359 199.566C99.0625 200.113 100.129 200.387 101.535 200.387C102.426 200.387 103.289 200.227 104.125 199.906C104.961 199.586 105.621 199.242 106.105 198.875H106.574V202.262C105.621 202.645 104.723 202.922 103.879 203.094C103.035 203.266 102.102 203.352 101.078 203.352C98.4375 203.352 96.4141 202.758 95.0078 201.57C93.6016 200.383 92.8984 198.691 92.8984 196.496C92.8984 194.324 93.5625 192.605 94.8906 191.34C96.2266 190.066 98.0547 189.43 100.375 189.43C102.516 189.43 104.125 189.973 105.203 191.059C106.281 192.137 106.82 193.691 106.82 195.723V197.199ZM102.625 194.727C102.602 193.844 102.383 193.18 101.969 192.734C101.555 192.289 100.91 192.066 100.035 192.066C99.2227 192.066 98.5547 192.277 98.0312 192.699C97.5078 193.121 97.2148 193.797 97.1523 194.727H102.625ZM116.652 203.352C115.504 203.352 114.453 203.215 113.5 202.941C112.555 202.668 111.73 202.246 111.027 201.676C110.332 201.105 109.793 200.387 109.41 199.52C109.027 198.652 108.836 197.637 108.836 196.473C108.836 195.246 109.039 194.188 109.445 193.297C109.859 192.406 110.434 191.668 111.168 191.082C111.879 190.527 112.699 190.121 113.629 189.863C114.559 189.605 115.523 189.477 116.523 189.477C117.422 189.477 118.25 189.574 119.008 189.77C119.766 189.965 120.473 190.219 121.129 190.531V194.129H120.531C120.367 193.988 120.168 193.824 119.934 193.637C119.707 193.449 119.426 193.266 119.09 193.086C118.77 192.914 118.418 192.773 118.035 192.664C117.652 192.547 117.207 192.488 116.699 192.488C115.574 192.488 114.707 192.848 114.098 193.566C113.496 194.277 113.195 195.246 113.195 196.473C113.195 197.738 113.504 198.699 114.121 199.355C114.746 200.012 115.629 200.34 116.77 200.34C117.301 200.34 117.777 200.281 118.199 200.164C118.629 200.039 118.984 199.895 119.266 199.73C119.531 199.574 119.766 199.41 119.969 199.238C120.172 199.066 120.359 198.898 120.531 198.734H121.129V202.332C120.465 202.645 119.77 202.891 119.043 203.07C118.324 203.258 117.527 203.352 116.652 203.352ZM147.965 185.551L141.613 199.508C141.246 200.312 140.824 200.961 140.348 201.453C139.871 201.945 139.379 202.309 138.871 202.543C138.363 202.785 137.859 202.941 137.359 203.012C136.867 203.082 136.375 203.117 135.883 203.117C135.336 203.117 134.688 203.102 133.938 203.07C133.188 203.047 132.691 203.023 132.449 203V199.191H132.719C132.883 199.238 133.172 199.289 133.586 199.344C134 199.391 134.41 199.414 134.816 199.414C135.59 199.414 136.215 199.34 136.691 199.191C137.176 199.043 137.473 198.848 137.582 198.605L130.492 185.551H135.379L139.715 193.824L143.289 185.551H147.965ZM163.352 203H159.133V192.699H154.281V203H150.062V189.84H163.352V203ZM181.07 196.238C181.07 197.324 180.902 198.312 180.566 199.203C180.238 200.094 179.805 200.828 179.266 201.406C178.703 202.016 178.066 202.477 177.355 202.789C176.645 203.102 175.883 203.258 175.07 203.258C174.32 203.258 173.684 203.176 173.16 203.012C172.637 202.855 172.102 202.633 171.555 202.344V207.828H167.336V189.84H171.555V191.211C172.203 190.695 172.863 190.277 173.535 189.957C174.215 189.637 174.996 189.477 175.879 189.477C177.52 189.477 178.793 190.078 179.699 191.281C180.613 192.484 181.07 194.137 181.07 196.238ZM176.723 196.32C176.723 195.039 176.504 194.109 176.066 193.531C175.629 192.953 174.938 192.664 173.992 192.664C173.594 192.664 173.184 192.727 172.762 192.852C172.34 192.969 171.938 193.141 171.555 193.367V199.988C171.836 200.098 172.137 200.168 172.457 200.199C172.777 200.23 173.094 200.246 173.406 200.246C174.523 200.246 175.355 199.922 175.902 199.273C176.449 198.617 176.723 197.633 176.723 196.32ZM192.086 199.566V196.824C191.516 196.871 190.898 196.938 190.234 197.023C189.57 197.102 189.066 197.195 188.723 197.305C188.301 197.438 187.977 197.633 187.75 197.891C187.531 198.141 187.422 198.473 187.422 198.887C187.422 199.16 187.445 199.383 187.492 199.555C187.539 199.727 187.656 199.891 187.844 200.047C188.023 200.203 188.238 200.32 188.488 200.398C188.738 200.469 189.129 200.504 189.66 200.504C190.082 200.504 190.508 200.418 190.938 200.246C191.375 200.074 191.758 199.848 192.086 199.566ZM192.086 201.605C191.859 201.777 191.578 201.984 191.242 202.227C190.906 202.469 190.59 202.66 190.293 202.801C189.879 202.988 189.449 203.125 189.004 203.211C188.559 203.305 188.07 203.352 187.539 203.352C186.289 203.352 185.242 202.965 184.398 202.191C183.555 201.418 183.133 200.43 183.133 199.227C183.133 198.266 183.348 197.48 183.777 196.871C184.207 196.262 184.816 195.781 185.605 195.43C186.387 195.078 187.355 194.828 188.512 194.68C189.668 194.531 190.867 194.422 192.109 194.352V194.281C192.109 193.555 191.812 193.055 191.219 192.781C190.625 192.5 189.75 192.359 188.594 192.359C187.898 192.359 187.156 192.484 186.367 192.734C185.578 192.977 185.012 193.164 184.668 193.297H184.281V190.121C184.727 190.004 185.449 189.867 186.449 189.711C187.457 189.547 188.465 189.465 189.473 189.465C191.871 189.465 193.602 189.836 194.664 190.578C195.734 191.312 196.27 192.469 196.27 194.047V203H192.086V201.605ZM213.344 199.027C213.344 199.66 213.215 200.223 212.957 200.715C212.707 201.207 212.371 201.617 211.949 201.945C211.418 202.359 210.855 202.641 210.262 202.789C209.676 202.93 208.977 203 208.164 203H200.148V189.84H207.824C208.785 189.84 209.492 189.871 209.945 189.934C210.398 189.996 210.844 190.148 211.281 190.391C211.742 190.641 212.086 190.973 212.312 191.387C212.547 191.801 212.664 192.293 212.664 192.863C212.664 193.512 212.477 194.082 212.102 194.574C211.734 195.059 211.289 195.43 210.766 195.688V195.816C211.492 195.996 212.102 196.359 212.594 196.906C213.094 197.445 213.344 198.152 213.344 199.027ZM208.41 193.801C208.41 193.316 208.262 192.973 207.965 192.77C207.676 192.566 207.207 192.465 206.559 192.465H204.332V195.09H206.629C207.199 195.09 207.637 194.977 207.941 194.75C208.254 194.516 208.41 194.199 208.41 193.801ZM208.996 198.898C208.996 198.328 208.832 197.93 208.504 197.703C208.184 197.469 207.707 197.352 207.074 197.352H204.332V200.363H207.145C207.723 200.363 208.176 200.234 208.504 199.977C208.832 199.711 208.996 199.352 208.996 198.898ZM229.457 203H225.238V192.781H221.758C221.734 193.367 221.715 193.824 221.699 194.152C221.691 194.473 221.68 194.848 221.664 195.277C221.609 196.535 221.504 197.559 221.348 198.348C221.191 199.137 220.992 199.781 220.75 200.281C220.516 200.789 220.262 201.191 219.988 201.488C219.723 201.785 219.453 202.043 219.18 202.262C218.867 202.512 218.457 202.711 217.949 202.859C217.449 203.008 216.965 203.082 216.496 203.082C216.129 203.082 215.758 203.066 215.383 203.035C215.008 203.012 214.785 203 214.715 203V199.625H214.844C214.875 199.625 214.93 199.629 215.008 199.637C215.086 199.645 215.164 199.648 215.242 199.648C215.445 199.648 215.652 199.629 215.863 199.59C216.082 199.551 216.262 199.465 216.402 199.332C216.926 198.832 217.273 198.207 217.445 197.457C217.625 196.699 217.754 195.582 217.832 194.105C217.863 193.559 217.895 192.934 217.926 192.23C217.957 191.527 217.984 190.73 218.008 189.84H229.457V203ZM246.414 197.199H236.758C236.82 198.23 237.211 199.02 237.93 199.566C238.656 200.113 239.723 200.387 241.129 200.387C242.02 200.387 242.883 200.227 243.719 199.906C244.555 199.586 245.215 199.242 245.699 198.875H246.168V202.262C245.215 202.645 244.316 202.922 243.473 203.094C242.629 203.266 241.695 203.352 240.672 203.352C238.031 203.352 236.008 202.758 234.602 201.57C233.195 200.383 232.492 198.691 232.492 196.496C232.492 194.324 233.156 192.605 234.484 191.34C235.82 190.066 237.648 189.43 239.969 189.43C242.109 189.43 243.719 189.973 244.797 191.059C245.875 192.137 246.414 193.691 246.414 195.723V197.199ZM242.219 194.727C242.195 193.844 241.977 193.18 241.562 192.734C241.148 192.289 240.504 192.066 239.629 192.066C238.816 192.066 238.148 192.277 237.625 192.699C237.102 193.121 236.809 193.797 236.746 194.727H242.219ZM262.68 203H258.461V197.387H253.609V203H249.391V189.84H253.609V194.375H258.461V189.84H262.68V203ZM279.965 203H275.875V194.949L270.156 203H266.664V189.84H270.754V197.047L276.051 189.84H279.965V203ZM296.922 197.199H287.266C287.328 198.23 287.719 199.02 288.438 199.566C289.164 200.113 290.23 200.387 291.637 200.387C292.527 200.387 293.391 200.227 294.227 199.906C295.062 199.586 295.723 199.242 296.207 198.875H296.676V202.262C295.723 202.645 294.824 202.922 293.98 203.094C293.137 203.266 292.203 203.352 291.18 203.352C288.539 203.352 286.516 202.758 285.109 201.57C283.703 200.383 283 198.691 283 196.496C283 194.324 283.664 192.605 284.992 191.34C286.328 190.066 288.156 189.43 290.477 189.43C292.617 189.43 294.227 189.973 295.305 191.059C296.383 192.137 296.922 193.691 296.922 195.723V197.199ZM292.727 194.727C292.703 193.844 292.484 193.18 292.07 192.734C291.656 192.289 291.012 192.066 290.137 192.066C289.324 192.066 288.656 192.277 288.133 192.699C287.609 193.121 287.316 193.797 287.254 194.727H292.727Z" fill="#333333"/>
<path d="M30 239L37.5 246.5L50 231.5" stroke="#61B857" stroke-width="2" stroke-linecap="round" stroke-linejoin="round"/>
<path d="M72.888 244.5H71.16L65.992 238.708V244.5H64.552V233.076H65.992V238.612L71.032 233.076H72.664L67.704 238.628L72.888 244.5ZM72.9066 235.924H74.4106L76.2666 240.804C76.3733 241.092 76.4693 241.369 76.5546 241.636C76.6506 241.903 76.736 242.164 76.8106 242.42C76.8853 242.665 76.944 242.905 76.9866 243.14H77.0506C77.1146 242.873 77.216 242.527 77.3546 242.1C77.4933 241.663 77.6373 241.225 77.7866 240.788L79.5306 235.924H81.0506L77.3546 245.684C77.152 246.217 76.912 246.681 76.6346 247.076C76.368 247.481 76.0373 247.791 75.6426 248.004C75.2586 248.228 74.7893 248.34 74.2346 248.34C73.9786 248.34 73.7546 248.324 73.5626 248.292C73.3706 248.271 73.2053 248.244 73.0666 248.212V247.092C73.184 247.113 73.3226 247.135 73.4826 247.156C73.6533 247.177 73.8293 247.188 74.0106 247.188C74.3413 247.188 74.624 247.124 74.8586 246.996C75.104 246.879 75.312 246.703 75.4826 246.468C75.6533 246.244 75.7973 245.977 75.9146 245.668L76.3626 244.532L72.9066 235.924ZM86.4869 235.764C87.5429 235.764 88.3909 236.132 89.0309 236.868C89.6815 237.604 90.0069 238.713 90.0069 240.196C90.0069 241.167 89.8575 241.988 89.5589 242.66C89.2709 243.321 88.8602 243.823 88.3269 244.164C87.8042 244.495 87.1855 244.66 86.4709 244.66C86.0335 244.66 85.6442 244.601 85.3029 244.484C84.9615 244.367 84.6682 244.217 84.4229 244.036C84.1882 243.844 83.9855 243.636 83.8149 243.412H83.7189C83.7402 243.593 83.7615 243.823 83.7829 244.1C83.8042 244.377 83.8149 244.617 83.8149 244.82V248.34H82.4069V235.924H83.5589L83.7509 237.092H83.8149C83.9855 236.847 84.1882 236.623 84.4229 236.42C84.6682 236.217 84.9562 236.057 85.2869 235.94C85.6282 235.823 86.0282 235.764 86.4869 235.764ZM86.2309 236.948C85.6549 236.948 85.1909 237.06 84.8389 237.284C84.4869 237.497 84.2309 237.823 84.0709 238.26C83.9109 238.697 83.8255 239.252 83.8149 239.924V240.196C83.8149 240.9 83.8895 241.497 84.0389 241.988C84.1882 242.479 84.4389 242.852 84.7909 243.108C85.1535 243.364 85.6442 243.492 86.2629 243.492C86.7855 243.492 87.2122 243.348 87.5429 243.06C87.8842 242.772 88.1349 242.383 88.2949 241.892C88.4655 241.391 88.5509 240.82 88.5509 240.18C88.5509 239.199 88.3589 238.415 87.9749 237.828C87.6015 237.241 87.0202 236.948 86.2309 236.948ZM95.6906 244.66C94.9333 244.66 94.256 244.505 93.6586 244.196C93.072 243.887 92.608 243.407 92.2666 242.756C91.936 242.105 91.7706 241.273 91.7706 240.26C91.7706 239.204 91.9466 238.345 92.2986 237.684C92.6506 237.023 93.1253 236.537 93.7226 236.228C94.3306 235.919 95.0186 235.764 95.7866 235.764C96.224 235.764 96.6453 235.812 97.0506 235.908C97.456 235.993 97.7866 236.1 98.0426 236.228L97.6106 237.396C97.3546 237.3 97.056 237.209 96.7146 237.124C96.3733 237.039 96.0533 236.996 95.7546 236.996C95.1786 236.996 94.704 237.119 94.3306 237.364C93.9573 237.609 93.68 237.972 93.4986 238.452C93.3173 238.932 93.2266 239.529 93.2266 240.244C93.2266 240.927 93.3173 241.508 93.4986 241.988C93.68 242.468 93.952 242.831 94.3146 243.076C94.6773 243.321 95.1306 243.444 95.6746 243.444C96.144 243.444 96.5546 243.396 96.9066 243.3C97.2693 243.204 97.6 243.087 97.8986 242.948V244.196C97.6106 244.345 97.2906 244.457 96.9386 244.532C96.5973 244.617 96.1813 244.66 95.6906 244.66ZM108.239 235.988C107.866 235.988 107.556 235.865 107.311 235.62C107.076 235.375 106.959 235.023 106.959 234.564C106.959 234.073 107.098 233.588 107.375 233.108C107.663 232.628 108.063 232.255 108.575 231.988L108.943 232.548C108.388 232.932 108.058 233.417 107.951 234.004C108.047 233.961 108.159 233.94 108.287 233.94C108.586 233.94 108.831 234.036 109.023 234.228C109.215 234.42 109.311 234.665 109.311 234.964C109.311 235.263 109.21 235.508 109.007 235.7C108.804 235.892 108.548 235.988 108.239 235.988ZM105.295 235.988C104.922 235.988 104.612 235.865 104.367 235.62C104.132 235.375 104.015 235.023 104.015 234.564C104.015 234.073 104.154 233.588 104.431 233.108C104.719 232.628 105.119 232.255 105.631 231.988L105.999 232.548C105.444 232.932 105.114 233.417 105.007 234.004C105.103 233.961 105.215 233.94 105.343 233.94C105.642 233.94 105.887 234.036 106.079 234.228C106.271 234.42 106.367 234.665 106.367 234.964C106.367 235.263 106.266 235.508 106.063 235.7C105.86 235.892 105.604 235.988 105.295 235.988ZM111.505 244.5V233.076H118.289V234.34H112.945V237.908H114.641C115.782 237.908 116.668 238.052 117.297 238.34C117.926 238.617 118.364 239.001 118.609 239.492C118.854 239.972 118.977 240.527 118.977 241.156C118.977 241.849 118.838 242.447 118.561 242.948C118.294 243.449 117.857 243.833 117.249 244.1C116.641 244.367 115.841 244.5 114.849 244.5H111.505ZM114.705 243.268C115.729 243.268 116.449 243.097 116.865 242.756C117.281 242.404 117.489 241.871 117.489 241.156C117.489 240.665 117.388 240.276 117.185 239.988C116.993 239.689 116.673 239.476 116.225 239.348C115.788 239.22 115.201 239.156 114.465 239.156H112.945V243.268H114.705ZM122.485 241.156C122.485 241.252 122.48 241.391 122.469 241.572C122.469 241.743 122.464 241.929 122.453 242.132C122.442 242.324 122.432 242.511 122.421 242.692C122.41 242.863 122.4 243.001 122.389 243.108L126.981 235.924H128.709V244.5H127.397V239.444C127.397 239.273 127.397 239.049 127.397 238.772C127.408 238.495 127.418 238.223 127.429 237.956C127.44 237.679 127.45 237.471 127.461 237.332L122.901 244.5H121.157V235.924H122.485V241.156ZM133.694 235.764C134.345 235.764 134.91 235.855 135.39 236.036C135.87 236.207 136.243 236.463 136.51 236.804C136.777 237.135 136.91 237.54 136.91 238.02C136.91 238.543 136.766 238.959 136.478 239.268C136.19 239.567 135.795 239.785 135.294 239.924V239.988C135.635 240.084 135.95 240.217 136.238 240.388C136.526 240.559 136.755 240.783 136.926 241.06C137.107 241.337 137.198 241.695 137.198 242.132C137.198 242.601 137.065 243.028 136.798 243.412C136.542 243.796 136.142 244.1 135.598 244.324C135.065 244.548 134.377 244.66 133.534 244.66C133.129 244.66 132.739 244.639 132.366 244.596C132.003 244.553 131.673 244.489 131.374 244.404C131.086 244.319 130.83 244.217 130.606 244.1V242.836C130.969 243.007 131.395 243.161 131.886 243.3C132.387 243.439 132.931 243.508 133.518 243.508C133.945 243.508 134.329 243.46 134.67 243.364C135.022 243.268 135.299 243.119 135.502 242.916C135.705 242.703 135.806 242.415 135.806 242.052C135.806 241.721 135.715 241.455 135.534 241.252C135.353 241.039 135.081 240.879 134.718 240.772C134.366 240.665 133.913 240.612 133.358 240.612H132.206V239.46H133.134C133.87 239.46 134.457 239.364 134.894 239.172C135.342 238.969 135.566 238.628 135.566 238.148C135.566 237.743 135.395 237.439 135.054 237.236C134.723 237.033 134.243 236.932 133.614 236.932C133.145 236.932 132.729 236.98 132.366 237.076C132.014 237.161 131.625 237.295 131.198 237.476L130.702 236.356C131.161 236.153 131.641 236.004 132.142 235.908C132.643 235.812 133.161 235.764 133.694 235.764ZM140.69 235.924V239.492H145.346V235.924H146.754V244.5H145.346V240.676H140.69V244.5H139.282V235.924H140.69ZM152.781 235.764C153.517 235.764 154.147 235.924 154.669 236.244C155.203 236.564 155.608 237.017 155.885 237.604C156.173 238.18 156.317 238.857 156.317 239.636V240.484H150.445C150.467 241.455 150.712 242.196 151.181 242.708C151.661 243.209 152.328 243.46 153.181 243.46C153.725 243.46 154.205 243.412 154.621 243.316C155.048 243.209 155.485 243.06 155.933 242.868V244.1C155.496 244.292 155.064 244.431 154.637 244.516C154.211 244.612 153.704 244.66 153.117 244.66C152.307 244.66 151.587 244.495 150.957 244.164C150.339 243.833 149.853 243.343 149.501 242.692C149.16 242.031 148.989 241.225 148.989 240.276C148.989 239.337 149.144 238.532 149.453 237.86C149.773 237.188 150.216 236.671 150.781 236.308C151.357 235.945 152.024 235.764 152.781 235.764ZM152.765 236.916C152.093 236.916 151.56 237.135 151.165 237.572C150.781 237.999 150.552 238.596 150.477 239.364H154.845C154.845 238.873 154.771 238.447 154.621 238.084C154.472 237.721 154.243 237.439 153.933 237.236C153.635 237.023 153.245 236.916 152.765 236.916ZM161.941 244.66C161.183 244.66 160.506 244.505 159.909 244.196C159.322 243.887 158.858 243.407 158.517 242.756C158.186 242.105 158.021 241.273 158.021 240.26C158.021 239.204 158.197 238.345 158.549 237.684C158.901 237.023 159.375 236.537 159.973 236.228C160.581 235.919 161.269 235.764 162.037 235.764C162.474 235.764 162.895 235.812 163.301 235.908C163.706 235.993 164.037 236.1 164.293 236.228L163.861 237.396C163.605 237.3 163.306 237.209 162.965 237.124C162.623 237.039 162.303 236.996 162.005 236.996C161.429 236.996 160.954 237.119 160.581 237.364C160.207 237.609 159.93 237.972 159.749 238.452C159.567 238.932 159.477 239.529 159.477 240.244C159.477 240.927 159.567 241.508 159.749 241.988C159.93 242.468 160.202 242.831 160.565 243.076C160.927 243.321 161.381 243.444 161.925 243.444C162.394 243.444 162.805 243.396 163.157 243.3C163.519 243.204 163.85 243.087 164.149 242.948V244.196C163.861 244.345 163.541 244.457 163.189 244.532C162.847 244.617 162.431 244.66 161.941 244.66ZM174.425 244.66C173.668 244.66 172.99 244.505 172.393 244.196C171.806 243.887 171.342 243.407 171.001 242.756C170.67 242.105 170.505 241.273 170.505 240.26C170.505 239.204 170.681 238.345 171.033 237.684C171.385 237.023 171.86 236.537 172.457 236.228C173.065 235.919 173.753 235.764 174.521 235.764C174.958 235.764 175.38 235.812 175.785 235.908C176.19 235.993 176.521 236.1 176.777 236.228L176.345 237.396C176.089 237.3 175.79 237.209 175.449 237.124C175.108 237.039 174.788 236.996 174.489 236.996C173.913 236.996 173.438 237.119 173.065 237.364C172.692 237.609 172.414 237.972 172.233 238.452C172.052 238.932 171.961 239.529 171.961 240.244C171.961 240.927 172.052 241.508 172.233 241.988C172.414 242.468 172.686 242.831 173.049 243.076C173.412 243.321 173.865 243.444 174.409 243.444C174.878 243.444 175.289 243.396 175.641 243.3C176.004 243.204 176.334 243.087 176.633 242.948V244.196C176.345 244.345 176.025 244.457 175.673 244.532C175.332 244.617 174.916 244.66 174.425 244.66ZM186.893 244.692C185.645 244.692 184.696 244.185 184.045 243.172C183.395 242.148 183.069 240.719 183.069 238.884C183.069 237.039 183.4 235.615 184.061 234.612C184.733 233.609 185.688 233.108 186.925 233.108C188.173 233.108 189.123 233.615 189.773 234.628C190.424 235.641 190.749 237.071 190.749 238.916C190.749 240.761 190.413 242.185 189.741 243.188C189.08 244.191 188.131 244.692 186.893 244.692ZM186.909 243.38C187.389 243.38 187.8 243.241 188.141 242.964C188.493 242.676 188.76 242.207 188.941 241.556C189.133 240.905 189.229 240.031 189.229 238.932C189.229 237.46 189.021 236.34 188.605 235.572C188.2 234.804 187.635 234.42 186.909 234.42C186.429 234.42 186.013 234.564 185.661 234.852C185.32 235.129 185.053 235.593 184.861 236.244C184.68 236.884 184.589 237.759 184.589 238.868C184.589 240.34 184.792 241.46 185.197 242.228C185.613 242.996 186.184 243.38 186.909 243.38ZM196.023 236.468L195.655 235.908C196.21 235.524 196.54 235.039 196.647 234.452C196.551 234.495 196.439 234.516 196.311 234.516C196.012 234.516 195.767 234.42 195.575 234.228C195.383 234.036 195.287 233.791 195.287 233.492C195.287 233.183 195.388 232.937 195.591 232.756C195.794 232.564 196.05 232.468 196.359 232.468C196.732 232.468 197.036 232.591 197.271 232.836C197.516 233.081 197.639 233.433 197.639 233.892C197.639 234.383 197.495 234.868 197.207 235.348C196.93 235.817 196.535 236.191 196.023 236.468ZM193.079 236.468L192.711 235.908C193.266 235.524 193.596 235.039 193.703 234.452C193.607 234.495 193.495 234.516 193.367 234.516C193.068 234.516 192.823 234.42 192.631 234.228C192.439 234.036 192.343 233.791 192.343 233.492C192.343 233.183 192.444 232.937 192.647 232.756C192.85 232.564 193.106 232.468 193.415 232.468C193.788 232.468 194.092 232.591 194.327 232.836C194.572 233.081 194.695 233.433 194.695 233.892C194.695 234.383 194.551 234.868 194.263 235.348C193.986 235.817 193.591 236.191 193.079 236.468Z" fill="#333333"/>
<path d="M30 285L37.5 292.5L50 277.5" stroke="#61B857" stroke-width="2" stroke-linecap="round" stroke-linejoin="round"/>
<path d="M64.552 290.5V279.076H71.336V280.34H65.992V283.908H67.688C68.8293 283.908 69.7147 284.052 70.344 284.34C70.9733 284.617 71.4107 285.001 71.656 285.492C71.9013 285.972 72.024 286.527 72.024 287.156C72.024 287.849 71.8853 288.447 71.608 288.948C71.3413 289.449 70.904 289.833 70.296 290.1C69.688 290.367 68.888 290.5 67.896 290.5H64.552ZM67.752 289.268C68.776 289.268 69.496 289.097 69.912 288.756C70.328 288.404 70.536 287.871 70.536 287.156C70.536 286.665 70.4347 286.276 70.232 285.988C70.04 285.689 69.72 285.476 69.272 285.348C68.8347 285.22 68.248 285.156 67.512 285.156H65.992V289.268H67.752ZM75.5318 287.156C75.5318 287.252 75.5264 287.391 75.5158 287.572C75.5158 287.743 75.5104 287.929 75.4998 288.132C75.4891 288.324 75.4784 288.511 75.4678 288.692C75.4571 288.863 75.4464 289.001 75.4358 289.108L80.0278 281.924H81.7558V290.5H80.4438V285.444C80.4438 285.273 80.4438 285.049 80.4438 284.772C80.4544 284.495 80.4651 284.223 80.4758 283.956C80.4864 283.679 80.4971 283.471 80.5078 283.332L75.9478 290.5H74.2038V281.924H75.5318V287.156ZM86.741 281.764C87.3917 281.764 87.957 281.855 88.437 282.036C88.917 282.207 89.2903 282.463 89.557 282.804C89.8237 283.135 89.957 283.54 89.957 284.02C89.957 284.543 89.813 284.959 89.525 285.268C89.237 285.567 88.8423 285.785 88.341 285.924V285.988C88.6823 286.084 88.997 286.217 89.285 286.388C89.573 286.559 89.8023 286.783 89.973 287.06C90.1543 287.337 90.245 287.695 90.245 288.132C90.245 288.601 90.1117 289.028 89.845 289.412C89.589 289.796 89.189 290.1 88.645 290.324C88.1117 290.548 87.4237 290.66 86.581 290.66C86.1757 290.66 85.7863 290.639 85.413 290.596C85.0503 290.553 84.7197 290.489 84.421 290.404C84.133 290.319 83.877 290.217 83.653 290.1V288.836C84.0157 289.007 84.4423 289.161 84.933 289.3C85.4343 289.439 85.9783 289.508 86.565 289.508C86.9917 289.508 87.3757 289.46 87.717 289.364C88.069 289.268 88.3463 289.119 88.549 288.916C88.7517 288.703 88.853 288.415 88.853 288.052C88.853 287.721 88.7623 287.455 88.581 287.252C88.3997 287.039 88.1277 286.879 87.765 286.772C87.413 286.665 86.9597 286.612 86.405 286.612H85.253V285.46H86.181C86.917 285.46 87.5037 285.364 87.941 285.172C88.389 284.969 88.613 284.628 88.613 284.148C88.613 283.743 88.4423 283.439 88.101 283.236C87.7703 283.033 87.2903 282.932 86.661 282.932C86.1917 282.932 85.7757 282.98 85.413 283.076C85.061 283.161 84.6717 283.295 84.245 283.476L83.749 282.356C84.2077 282.153 84.6877 282.004 85.189 281.908C85.6903 281.812 86.2077 281.764 86.741 281.764ZM93.7368 281.924V285.492H98.3928V281.924H99.8008V290.5H98.3928V286.676H93.7368V290.5H92.3288V281.924H93.7368ZM105.828 281.764C106.564 281.764 107.194 281.924 107.716 282.244C108.25 282.564 108.655 283.017 108.932 283.604C109.22 284.18 109.364 284.857 109.364 285.636V286.484H103.492C103.514 287.455 103.759 288.196 104.228 288.708C104.708 289.209 105.375 289.46 106.228 289.46C106.772 289.46 107.252 289.412 107.668 289.316C108.095 289.209 108.532 289.06 108.98 288.868V290.1C108.543 290.292 108.111 290.431 107.684 290.516C107.258 290.612 106.751 290.66 106.164 290.66C105.354 290.66 104.634 290.495 104.004 290.164C103.386 289.833 102.9 289.343 102.548 288.692C102.207 288.031 102.036 287.225 102.036 286.276C102.036 285.337 102.191 284.532 102.5 283.86C102.82 283.188 103.263 282.671 103.828 282.308C104.404 281.945 105.071 281.764 105.828 281.764ZM105.812 282.916C105.14 282.916 104.607 283.135 104.212 283.572C103.828 283.999 103.599 284.596 103.524 285.364H107.892C107.892 284.873 107.818 284.447 107.668 284.084C107.519 283.721 107.29 283.439 106.98 283.236C106.682 283.023 106.292 282.916 105.812 282.916ZM114.988 290.66C114.23 290.66 113.553 290.505 112.956 290.196C112.369 289.887 111.905 289.407 111.564 288.756C111.233 288.105 111.068 287.273 111.068 286.26C111.068 285.204 111.244 284.345 111.596 283.684C111.948 283.023 112.422 282.537 113.02 282.228C113.628 281.919 114.316 281.764 115.084 281.764C115.521 281.764 115.942 281.812 116.348 281.908C116.753 281.993 117.084 282.1 117.34 282.228L116.908 283.396C116.652 283.3 116.353 283.209 116.012 283.124C115.67 283.039 115.35 282.996 115.052 282.996C114.476 282.996 114.001 283.119 113.628 283.364C113.254 283.609 112.977 283.972 112.796 284.452C112.614 284.932 112.524 285.529 112.524 286.244C112.524 286.927 112.614 287.508 112.796 287.988C112.977 288.468 113.249 288.831 113.612 289.076C113.974 289.321 114.428 289.444 114.972 289.444C115.441 289.444 115.852 289.396 116.204 289.3C116.566 289.204 116.897 289.087 117.196 288.948V290.196C116.908 290.345 116.588 290.457 116.236 290.532C115.894 290.617 115.478 290.66 114.988 290.66ZM132.56 290.5H130.832L125.664 284.708V290.5H124.224V279.076H125.664V284.612L130.704 279.076H132.336L127.376 284.628L132.56 290.5ZM141.378 286.196C141.378 286.911 141.283 287.545 141.091 288.1C140.909 288.644 140.643 289.108 140.291 289.492C139.949 289.876 139.528 290.169 139.027 290.372C138.536 290.564 137.987 290.66 137.379 290.66C136.813 290.66 136.291 290.564 135.811 290.372C135.331 290.169 134.915 289.876 134.562 289.492C134.211 289.108 133.933 288.644 133.731 288.1C133.539 287.545 133.443 286.911 133.443 286.196C133.443 285.247 133.603 284.447 133.923 283.796C134.243 283.135 134.701 282.633 135.299 282.292C135.896 281.94 136.605 281.764 137.427 281.764C138.205 281.764 138.888 281.94 139.475 282.292C140.072 282.633 140.536 283.135 140.867 283.796C141.208 284.447 141.378 285.247 141.378 286.196ZM134.899 286.196C134.899 286.868 134.984 287.455 135.155 287.956C135.336 288.447 135.613 288.825 135.987 289.092C136.36 289.359 136.835 289.492 137.411 289.492C137.987 289.492 138.461 289.359 138.835 289.092C139.208 288.825 139.48 288.447 139.651 287.956C139.832 287.455 139.923 286.868 139.923 286.196C139.923 285.513 139.832 284.932 139.651 284.452C139.469 283.972 139.192 283.604 138.819 283.348C138.456 283.081 137.981 282.948 137.395 282.948C136.52 282.948 135.885 283.236 135.491 283.812C135.096 284.388 134.899 285.183 134.899 286.196ZM145.018 281.924V285.492H149.674V281.924H151.082V290.5H149.674V286.676H145.018V290.5H143.61V281.924H145.018ZM157.238 290.66C156.48 290.66 155.803 290.505 155.206 290.196C154.619 289.887 154.155 289.407 153.814 288.756C153.483 288.105 153.318 287.273 153.318 286.26C153.318 285.204 153.494 284.345 153.846 283.684C154.198 283.023 154.672 282.537 155.27 282.228C155.878 281.919 156.566 281.764 157.334 281.764C157.771 281.764 158.192 281.812 158.598 281.908C159.003 281.993 159.334 282.1 159.59 282.228L159.158 283.396C158.902 283.3 158.603 283.209 158.262 283.124C157.92 283.039 157.6 282.996 157.302 282.996C156.726 282.996 156.251 283.119 155.878 283.364C155.504 283.609 155.227 283.972 155.046 284.452C154.864 284.932 154.774 285.529 154.774 286.244C154.774 286.927 154.864 287.508 155.046 287.988C155.227 288.468 155.499 288.831 155.862 289.076C156.224 289.321 156.678 289.444 157.222 289.444C157.691 289.444 158.102 289.396 158.454 289.3C158.816 289.204 159.147 289.087 159.446 288.948V290.196C159.158 290.345 158.838 290.457 158.486 290.532C158.144 290.617 157.728 290.66 157.238 290.66ZM160.141 281.924H161.645L163.501 286.804C163.608 287.092 163.704 287.369 163.789 287.636C163.885 287.903 163.97 288.164 164.045 288.42C164.12 288.665 164.178 288.905 164.221 289.14H164.285C164.349 288.873 164.45 288.527 164.589 288.1C164.728 287.663 164.872 287.225 165.021 286.788L166.765 281.924H168.285L164.589 291.684C164.386 292.217 164.146 292.681 163.869 293.076C163.602 293.481 163.272 293.791 162.877 294.004C162.493 294.228 162.024 294.34 161.469 294.34C161.213 294.34 160.989 294.324 160.797 294.292C160.605 294.271 160.44 294.244 160.301 294.212V293.092C160.418 293.113 160.557 293.135 160.717 293.156C160.888 293.177 161.064 293.188 161.245 293.188C161.576 293.188 161.858 293.124 162.093 292.996C162.338 292.879 162.546 292.703 162.717 292.468C162.888 292.244 163.032 291.977 163.149 291.668L163.597 290.532L160.141 281.924ZM175.857 290.5H174.433V283.092H171.905C171.798 284.447 171.665 285.604 171.505 286.564C171.345 287.513 171.142 288.287 170.897 288.884C170.651 289.481 170.358 289.919 170.017 290.196C169.675 290.473 169.275 290.612 168.817 290.612C168.678 290.612 168.539 290.601 168.401 290.58C168.273 290.569 168.166 290.543 168.081 290.5V289.444C168.145 289.465 168.214 289.481 168.289 289.492C168.363 289.503 168.438 289.508 168.513 289.508C168.747 289.508 168.961 289.412 169.153 289.22C169.345 289.028 169.515 288.735 169.665 288.34C169.825 287.945 169.969 287.449 170.097 286.852C170.225 286.244 170.337 285.529 170.433 284.708C170.529 283.887 170.614 282.959 170.689 281.924H175.857V290.5ZM182.531 285.444C183.277 285.444 183.896 285.535 184.387 285.716C184.877 285.897 185.245 286.169 185.491 286.532C185.747 286.884 185.875 287.332 185.875 287.876C185.875 288.409 185.752 288.873 185.507 289.268C185.272 289.663 184.904 289.967 184.403 290.18C183.901 290.393 183.256 290.5 182.467 290.5H178.579V281.924H179.987V285.444H182.531ZM184.467 287.956C184.467 287.433 184.28 287.081 183.907 286.9C183.544 286.708 183.032 286.612 182.371 286.612H179.987V289.364H182.403C183 289.364 183.491 289.257 183.875 289.044C184.269 288.831 184.467 288.468 184.467 287.956ZM193.202 283.108H190.402V290.5H189.01V283.108H186.242V281.924H193.202V283.108ZM198.139 281.78C199.185 281.78 199.958 282.009 200.459 282.468C200.961 282.927 201.211 283.657 201.211 284.66V290.5H200.187L199.915 289.284H199.851C199.606 289.593 199.35 289.855 199.083 290.068C198.827 290.271 198.529 290.42 198.187 290.516C197.857 290.612 197.451 290.66 196.971 290.66C196.459 290.66 195.995 290.569 195.579 290.388C195.174 290.207 194.854 289.929 194.619 289.556C194.385 289.172 194.267 288.692 194.267 288.116C194.267 287.263 194.603 286.607 195.275 286.148C195.947 285.679 196.982 285.423 198.379 285.38L199.835 285.332V284.82C199.835 284.105 199.681 283.609 199.371 283.332C199.062 283.055 198.625 282.916 198.059 282.916C197.611 282.916 197.185 282.985 196.779 283.124C196.374 283.252 195.995 283.401 195.643 283.572L195.211 282.516C195.585 282.313 196.027 282.143 196.539 282.004C197.051 281.855 197.585 281.78 198.139 281.78ZM198.555 286.356C197.489 286.399 196.747 286.569 196.331 286.868C195.926 287.167 195.723 287.588 195.723 288.132C195.723 288.612 195.867 288.964 196.155 289.188C196.454 289.412 196.833 289.524 197.291 289.524C198.017 289.524 198.619 289.327 199.099 288.932C199.579 288.527 199.819 287.908 199.819 287.076V286.308L198.555 286.356ZM212.324 293.476H210.948V290.5H203.86V281.924H205.268V289.316H209.7V281.924H211.108V289.332H212.324V293.476ZM215.297 287.156C215.297 287.252 215.292 287.391 215.281 287.572C215.281 287.743 215.276 287.929 215.265 288.132C215.255 288.324 215.244 288.511 215.233 288.692C215.223 288.863 215.212 289.001 215.201 289.108L219.793 281.924H221.521V290.5H220.209V285.444C220.209 285.273 220.209 285.049 220.209 284.772C220.22 284.495 220.231 284.223 220.241 283.956C220.252 283.679 220.263 283.471 220.273 283.332L215.713 290.5H213.969V281.924H215.297V287.156ZM225.579 287.156C225.579 287.252 225.573 287.391 225.563 287.572C225.563 287.743 225.557 287.929 225.547 288.132C225.536 288.324 225.525 288.511 225.515 288.692C225.504 288.863 225.493 289.001 225.483 289.108L230.075 281.924H231.803V290.5H230.491V285.444C230.491 285.273 230.491 285.049 230.491 284.772C230.501 284.495 230.512 284.223 230.523 283.956C230.533 283.679 230.544 283.471 230.555 283.332L225.995 290.5H224.251V281.924H225.579V287.156Z" fill="#333333"/>
<path d="M30 331L37.5 338.5L50 323.5" stroke="#61B857" stroke-width="2" stroke-linecap="round" stroke-linejoin="round"/>
<path d="M69.448 320.68C68.84 320.68 68.2907 320.787 67.8 321C67.3093 321.203 66.8933 321.507 66.552 321.912C66.2107 322.307 65.9493 322.792 65.768 323.368C65.5867 323.933 65.496 324.573 65.496 325.288C65.496 326.227 65.64 327.043 65.928 327.736C66.2267 328.429 66.664 328.963 67.24 329.336C67.8267 329.709 68.5573 329.896 69.432 329.896C69.9333 329.896 70.408 329.853 70.856 329.768C71.304 329.683 71.7413 329.576 72.168 329.448V330.696C71.7413 330.856 71.2987 330.973 70.84 331.048C70.392 331.123 69.8533 331.16 69.224 331.16C68.0613 331.16 67.0907 330.92 66.312 330.44C65.5333 329.96 64.9467 329.277 64.552 328.392C64.168 327.507 63.976 326.467 63.976 325.272C63.976 324.408 64.0933 323.619 64.328 322.904C64.5733 322.189 64.9253 321.571 65.384 321.048C65.8533 320.525 66.4293 320.125 67.112 319.848C67.7947 319.56 68.5787 319.416 69.464 319.416C70.0507 319.416 70.616 319.475 71.16 319.592C71.704 319.709 72.1893 319.875 72.616 320.088L72.04 321.304C71.688 321.144 71.2933 321 70.856 320.872C70.4293 320.744 69.96 320.68 69.448 320.68ZM81.9254 326.696C81.9254 327.411 81.8294 328.045 81.6374 328.6C81.456 329.144 81.1894 329.608 80.8374 329.992C80.496 330.376 80.0747 330.669 79.5734 330.872C79.0827 331.064 78.5334 331.16 77.9254 331.16C77.36 331.16 76.8374 331.064 76.3574 330.872C75.8774 330.669 75.4614 330.376 75.1094 329.992C74.7574 329.608 74.48 329.144 74.2774 328.6C74.0854 328.045 73.9894 327.411 73.9894 326.696C73.9894 325.747 74.1494 324.947 74.4694 324.296C74.7894 323.635 75.248 323.133 75.8454 322.792C76.4427 322.44 77.152 322.264 77.9734 322.264C78.752 322.264 79.4347 322.44 80.0214 322.792C80.6187 323.133 81.0827 323.635 81.4134 324.296C81.7547 324.947 81.9254 325.747 81.9254 326.696ZM75.4454 326.696C75.4454 327.368 75.5307 327.955 75.7014 328.456C75.8827 328.947 76.16 329.325 76.5334 329.592C76.9067 329.859 77.3814 329.992 77.9574 329.992C78.5334 329.992 79.008 329.859 79.3814 329.592C79.7547 329.325 80.0267 328.947 80.1974 328.456C80.3787 327.955 80.4694 327.368 80.4694 326.696C80.4694 326.013 80.3787 325.432 80.1974 324.952C80.016 324.472 79.7387 324.104 79.3654 323.848C79.0027 323.581 78.528 323.448 77.9414 323.448C77.0667 323.448 76.432 323.736 76.0374 324.312C75.6427 324.888 75.4454 325.683 75.4454 326.696ZM91.6129 326.696C91.6129 327.411 91.5169 328.045 91.3249 328.6C91.1435 329.144 90.8769 329.608 90.5249 329.992C90.1835 330.376 89.7622 330.669 89.2609 330.872C88.7702 331.064 88.2209 331.16 87.6129 331.16C87.0475 331.16 86.5249 331.064 86.0449 330.872C85.5649 330.669 85.1489 330.376 84.7969 329.992C84.4449 329.608 84.1675 329.144 83.9649 328.6C83.7729 328.045 83.6769 327.411 83.6769 326.696C83.6769 325.747 83.8369 324.947 84.1569 324.296C84.4769 323.635 84.9355 323.133 85.5329 322.792C86.1302 322.44 86.8395 322.264 87.6609 322.264C88.4395 322.264 89.1222 322.44 89.7089 322.792C90.3062 323.133 90.7702 323.635 91.1009 324.296C91.4422 324.947 91.6129 325.747 91.6129 326.696ZM85.1329 326.696C85.1329 327.368 85.2182 327.955 85.3889 328.456C85.5702 328.947 85.8475 329.325 86.2209 329.592C86.5942 329.859 87.0689 329.992 87.6449 329.992C88.2209 329.992 88.6955 329.859 89.0689 329.592C89.4422 329.325 89.7142 328.947 89.8849 328.456C90.0662 327.955 90.1569 327.368 90.1569 326.696C90.1569 326.013 90.0662 325.432 89.8849 324.952C89.7035 324.472 89.4262 324.104 89.0529 323.848C88.6902 323.581 88.2155 323.448 87.6289 323.448C86.7542 323.448 86.1195 323.736 85.7249 324.312C85.3302 324.888 85.1329 325.683 85.1329 326.696ZM93.3964 325.848C93.3964 324.6 93.519 323.539 93.7644 322.664C94.0204 321.779 94.4097 321.075 94.9324 320.552C95.4657 320.019 96.1484 319.661 96.9804 319.48C97.6737 319.331 98.351 319.197 99.0124 319.08C99.6737 318.963 100.292 318.856 100.868 318.76L101.108 319.992C100.831 320.035 100.522 320.088 100.18 320.152C99.839 320.205 99.4924 320.264 99.1404 320.328C98.7884 320.381 98.447 320.44 98.1164 320.504C97.7964 320.557 97.5137 320.611 97.2684 320.664C96.9164 320.739 96.6017 320.867 96.3244 321.048C96.047 321.219 95.807 321.453 95.6044 321.752C95.4124 322.051 95.2577 322.419 95.1404 322.856C95.023 323.293 94.9537 323.811 94.9324 324.408H95.0284C95.1777 324.205 95.3804 323.997 95.6364 323.784C95.903 323.571 96.2177 323.389 96.5804 323.24C96.9537 323.091 97.375 323.016 97.8444 323.016C98.591 323.016 99.2097 323.181 99.7004 323.512C100.202 323.832 100.575 324.28 100.82 324.856C101.076 325.432 101.204 326.104 101.204 326.872C101.204 327.821 101.039 328.616 100.708 329.256C100.378 329.896 99.919 330.376 99.3324 330.696C98.7457 331.005 98.063 331.16 97.2844 331.16C96.6977 331.16 96.1644 331.048 95.6844 330.824C95.2044 330.589 94.7937 330.248 94.4524 329.8C94.111 329.352 93.8497 328.797 93.6684 328.136C93.487 327.475 93.3964 326.712 93.3964 325.848ZM97.3964 329.992C97.8657 329.992 98.271 329.896 98.6124 329.704C98.9644 329.512 99.2364 329.197 99.4284 328.76C99.6204 328.323 99.7164 327.741 99.7164 327.016C99.7164 326.141 99.551 325.453 99.2204 324.952C98.9004 324.44 98.367 324.184 97.6204 324.184C97.151 324.184 96.7244 324.291 96.3404 324.504C95.9564 324.707 95.6364 324.941 95.3804 325.208C95.1244 325.475 94.943 325.699 94.8364 325.88C94.8364 326.403 94.8737 326.909 94.9484 327.4C95.023 327.891 95.151 328.333 95.3324 328.728C95.5244 329.112 95.7857 329.421 96.1164 329.656C96.4577 329.88 96.8844 329.992 97.3964 329.992ZM115.039 322.424V329.832H116.287V333.96H114.879V331H103.423V322.424H104.831V329.816H108.527V322.424H109.935V329.816H113.647V322.424H115.039ZM121.235 322.264C121.971 322.264 122.6 322.424 123.123 322.744C123.656 323.064 124.061 323.517 124.339 324.104C124.627 324.68 124.771 325.357 124.771 326.136V326.984H118.899C118.92 327.955 119.165 328.696 119.635 329.208C120.115 329.709 120.781 329.96 121.635 329.96C122.179 329.96 122.659 329.912 123.075 329.816C123.501 329.709 123.939 329.56 124.387 329.368V330.6C123.949 330.792 123.517 330.931 123.091 331.016C122.664 331.112 122.157 331.16 121.571 331.16C120.76 331.16 120.04 330.995 119.411 330.664C118.792 330.333 118.307 329.843 117.955 329.192C117.613 328.531 117.443 327.725 117.443 326.776C117.443 325.837 117.597 325.032 117.907 324.36C118.227 323.688 118.669 323.171 119.235 322.808C119.811 322.445 120.477 322.264 121.235 322.264ZM121.219 323.416C120.547 323.416 120.013 323.635 119.619 324.072C119.235 324.499 119.005 325.096 118.931 325.864H123.299C123.299 325.373 123.224 324.947 123.075 324.584C122.925 324.221 122.696 323.939 122.387 323.736C122.088 323.523 121.699 323.416 121.219 323.416ZM130.394 331.16C129.636 331.16 128.959 331.005 128.362 330.696C127.775 330.387 127.311 329.907 126.97 329.256C126.639 328.605 126.474 327.773 126.474 326.76C126.474 325.704 126.65 324.845 127.002 324.184C127.354 323.523 127.828 323.037 128.426 322.728C129.034 322.419 129.722 322.264 130.49 322.264C130.927 322.264 131.348 322.312 131.754 322.408C132.159 322.493 132.49 322.6 132.746 322.728L132.314 323.896C132.058 323.8 131.759 323.709 131.418 323.624C131.076 323.539 130.756 323.496 130.458 323.496C129.882 323.496 129.407 323.619 129.034 323.864C128.66 324.109 128.383 324.472 128.202 324.952C128.02 325.432 127.93 326.029 127.93 326.744C127.93 327.427 128.02 328.008 128.202 328.488C128.383 328.968 128.655 329.331 129.018 329.576C129.38 329.821 129.834 329.944 130.378 329.944C130.847 329.944 131.258 329.896 131.61 329.8C131.972 329.704 132.303 329.587 132.602 329.448V330.696C132.314 330.845 131.994 330.957 131.642 331.032C131.3 331.117 130.884 331.16 130.394 331.16ZM140.561 323.608H137.761V331H136.369V323.608H133.601V322.424H140.561V323.608ZM149.147 324.584C149.147 325.117 148.987 325.533 148.667 325.832C148.347 326.131 147.936 326.333 147.435 326.44V326.504C147.968 326.579 148.432 326.771 148.827 327.08C149.221 327.379 149.419 327.848 149.419 328.488C149.419 328.851 149.349 329.187 149.211 329.496C149.083 329.805 148.88 330.072 148.603 330.296C148.325 330.52 147.968 330.696 147.531 330.824C147.093 330.941 146.565 331 145.947 331H142.251V322.424H145.931C146.539 322.424 147.083 322.493 147.563 322.632C148.053 322.76 148.437 322.984 148.715 323.304C149.003 323.613 149.147 324.04 149.147 324.584ZM147.963 328.488C147.963 327.997 147.776 327.645 147.403 327.432C147.029 327.219 146.48 327.112 145.755 327.112H143.659V329.864H145.787C146.491 329.864 147.029 329.763 147.403 329.56C147.776 329.347 147.963 328.989 147.963 328.488ZM147.723 324.76C147.723 324.355 147.573 324.061 147.275 323.88C146.987 323.688 146.512 323.592 145.851 323.592H143.659V325.944H145.595C146.288 325.944 146.816 325.848 147.179 325.656C147.541 325.464 147.723 325.165 147.723 324.76ZM158.925 326.696C158.925 327.411 158.829 328.045 158.637 328.6C158.456 329.144 158.189 329.608 157.837 329.992C157.496 330.376 157.075 330.669 156.573 330.872C156.083 331.064 155.533 331.16 154.925 331.16C154.36 331.16 153.837 331.064 153.357 330.872C152.877 330.669 152.461 330.376 152.109 329.992C151.757 329.608 151.48 329.144 151.277 328.6C151.085 328.045 150.989 327.411 150.989 326.696C150.989 325.747 151.149 324.947 151.469 324.296C151.789 323.635 152.248 323.133 152.845 322.792C153.443 322.44 154.152 322.264 154.973 322.264C155.752 322.264 156.435 322.44 157.021 322.792C157.619 323.133 158.083 323.635 158.413 324.296C158.755 324.947 158.925 325.747 158.925 326.696ZM152.445 326.696C152.445 327.368 152.531 327.955 152.701 328.456C152.883 328.947 153.16 329.325 153.533 329.592C153.907 329.859 154.381 329.992 154.957 329.992C155.533 329.992 156.008 329.859 156.381 329.592C156.755 329.325 157.027 328.947 157.197 328.456C157.379 327.955 157.469 327.368 157.469 326.696C157.469 326.013 157.379 325.432 157.197 324.952C157.016 324.472 156.739 324.104 156.365 323.848C156.003 323.581 155.528 323.448 154.941 323.448C154.067 323.448 153.432 323.736 153.037 324.312C152.643 324.888 152.445 325.683 152.445 326.696ZM64.552 350V338.576H73.128V350H71.704V339.84H65.992V350H64.552ZM80.1431 341.264C81.1991 341.264 82.0471 341.632 82.6871 342.368C83.3378 343.104 83.6631 344.213 83.6631 345.696C83.6631 346.667 83.5138 347.488 83.2151 348.16C82.9271 348.821 82.5165 349.323 81.9831 349.664C81.4605 349.995 80.8418 350.16 80.1271 350.16C79.6898 350.16 79.3005 350.101 78.9591 349.984C78.6178 349.867 78.3245 349.717 78.0791 349.536C77.8445 349.344 77.6418 349.136 77.4711 348.912H77.3751C77.3965 349.093 77.4178 349.323 77.4391 349.6C77.4605 349.877 77.4711 350.117 77.4711 350.32V353.84H76.0631V341.424H77.2151L77.4071 342.592H77.4711C77.6418 342.347 77.8445 342.123 78.0791 341.92C78.3245 341.717 78.6125 341.557 78.9431 341.44C79.2845 341.323 79.6845 341.264 80.1431 341.264ZM79.8871 342.448C79.3111 342.448 78.8471 342.56 78.4951 342.784C78.1431 342.997 77.8871 343.323 77.7271 343.76C77.5671 344.197 77.4818 344.752 77.4711 345.424V345.696C77.4711 346.4 77.5458 346.997 77.6951 347.488C77.8445 347.979 78.0951 348.352 78.4471 348.608C78.8098 348.864 79.3005 348.992 79.9191 348.992C80.4418 348.992 80.8685 348.848 81.1991 348.56C81.5405 348.272 81.7911 347.883 81.9511 347.392C82.1218 346.891 82.2071 346.32 82.2071 345.68C82.2071 344.699 82.0151 343.915 81.6311 343.328C81.2578 342.741 80.6765 342.448 79.8871 342.448ZM89.2189 341.264C89.9549 341.264 90.5842 341.424 91.1069 341.744C91.6402 342.064 92.0455 342.517 92.3229 343.104C92.6109 343.68 92.7549 344.357 92.7549 345.136V345.984H86.8829C86.9042 346.955 87.1495 347.696 87.6189 348.208C88.0989 348.709 88.7655 348.96 89.6189 348.96C90.1629 348.96 90.6429 348.912 91.0589 348.816C91.4855 348.709 91.9229 348.56 92.3709 348.368V349.6C91.9335 349.792 91.5015 349.931 91.0749 350.016C90.6482 350.112 90.1415 350.16 89.5549 350.16C88.7442 350.16 88.0242 349.995 87.3949 349.664C86.7762 349.333 86.2909 348.843 85.9389 348.192C85.5975 347.531 85.4269 346.725 85.4269 345.776C85.4269 344.837 85.5815 344.032 85.8909 343.36C86.2109 342.688 86.6535 342.171 87.2189 341.808C87.7949 341.445 88.4615 341.264 89.2189 341.264ZM89.2029 342.416C88.5309 342.416 87.9975 342.635 87.6029 343.072C87.2189 343.499 86.9895 344.096 86.9149 344.864H91.2829C91.2829 344.373 91.2082 343.947 91.0589 343.584C90.9095 343.221 90.6802 342.939 90.3709 342.736C90.0722 342.523 89.6829 342.416 89.2029 342.416ZM101.306 341.424V348.816H102.554V352.976H101.194V350H95.2261V352.976H93.8821V348.816H94.5701C95.0608 348.133 95.4661 347.392 95.7861 346.592C96.1168 345.781 96.3621 344.939 96.5221 344.064C96.6928 343.179 96.7835 342.299 96.7941 341.424H101.306ZM98.0421 342.528C97.9995 343.253 97.8875 344.005 97.7061 344.784C97.5248 345.552 97.2901 346.288 97.0021 346.992C96.7248 347.696 96.3995 348.304 96.0261 348.816H99.9461V342.528H98.0421ZM111.483 341.424V350H110.075V342.624H105.643V350H104.235V341.424H111.483ZM118.299 341.264C119.355 341.264 120.203 341.632 120.843 342.368C121.494 343.104 121.819 344.213 121.819 345.696C121.819 346.667 121.67 347.488 121.371 348.16C121.083 348.821 120.673 349.323 120.139 349.664C119.617 349.995 118.998 350.16 118.283 350.16C117.846 350.16 117.457 350.101 117.115 349.984C116.774 349.867 116.481 349.717 116.235 349.536C116.001 349.344 115.798 349.136 115.627 348.912H115.531C115.553 349.093 115.574 349.323 115.595 349.6C115.617 349.877 115.627 350.117 115.627 350.32V353.84H114.219V341.424H115.371L115.563 342.592H115.627C115.798 342.347 116.001 342.123 116.235 341.92C116.481 341.717 116.769 341.557 117.099 341.44C117.441 341.323 117.841 341.264 118.299 341.264ZM118.043 342.448C117.467 342.448 117.003 342.56 116.651 342.784C116.299 342.997 116.043 343.323 115.883 343.76C115.723 344.197 115.638 344.752 115.627 345.424V345.696C115.627 346.4 115.702 346.997 115.851 347.488C116.001 347.979 116.251 348.352 116.603 348.608C116.966 348.864 117.457 348.992 118.075 348.992C118.598 348.992 119.025 348.848 119.355 348.56C119.697 348.272 119.947 347.883 120.107 347.392C120.278 346.891 120.363 346.32 120.363 345.68C120.363 344.699 120.171 343.915 119.787 343.328C119.414 342.741 118.833 342.448 118.043 342.448ZM125.391 346.656C125.391 346.752 125.386 346.891 125.375 347.072C125.375 347.243 125.37 347.429 125.359 347.632C125.348 347.824 125.338 348.011 125.327 348.192C125.316 348.363 125.306 348.501 125.295 348.608L129.887 341.424H131.615V350H130.303V344.944C130.303 344.773 130.303 344.549 130.303 344.272C130.314 343.995 130.324 343.723 130.335 343.456C130.346 343.179 130.356 342.971 130.367 342.832L125.807 350H124.063V341.424H125.391V346.656ZM135.752 341.424V344.992H140.408V341.424H141.816V350H140.408V346.176H135.752V350H134.344V341.424H135.752ZM145.86 346.656C145.86 346.752 145.855 346.891 145.844 347.072C145.844 347.243 145.839 347.429 145.828 347.632C145.817 347.824 145.807 348.011 145.796 348.192C145.785 348.363 145.775 348.501 145.764 348.608L150.356 341.424H152.084V350H150.772V344.944C150.772 344.773 150.772 344.549 150.772 344.272C150.783 343.995 150.793 343.723 150.804 343.456C150.815 343.179 150.825 342.971 150.836 342.832L146.276 350H144.532V341.424H145.86V346.656ZM164.013 341.424V350H162.749V344.528C162.749 344.304 162.754 344.069 162.765 343.824C162.786 343.579 162.808 343.339 162.829 343.104H162.781L159.981 350H158.797L156.077 343.104H156.029C156.05 343.339 156.061 343.579 156.061 343.824C156.072 344.069 156.077 344.32 156.077 344.576V350H154.813V341.424H156.685L159.389 348.32L162.141 341.424H164.013ZM169.999 341.28C171.044 341.28 171.817 341.509 172.319 341.968C172.82 342.427 173.071 343.157 173.071 344.16V350H172.047L171.775 348.784H171.711C171.465 349.093 171.209 349.355 170.943 349.568C170.687 349.771 170.388 349.92 170.047 350.016C169.716 350.112 169.311 350.16 168.831 350.16C168.319 350.16 167.855 350.069 167.439 349.888C167.033 349.707 166.713 349.429 166.479 349.056C166.244 348.672 166.127 348.192 166.127 347.616C166.127 346.763 166.463 346.107 167.135 345.648C167.807 345.179 168.841 344.923 170.239 344.88L171.695 344.832V344.32C171.695 343.605 171.54 343.109 171.231 342.832C170.921 342.555 170.484 342.416 169.919 342.416C169.471 342.416 169.044 342.485 168.639 342.624C168.233 342.752 167.855 342.901 167.503 343.072L167.071 342.016C167.444 341.813 167.887 341.643 168.399 341.504C168.911 341.355 169.444 341.28 169.999 341.28ZM170.415 345.856C169.348 345.899 168.607 346.069 168.191 346.368C167.785 346.667 167.583 347.088 167.583 347.632C167.583 348.112 167.727 348.464 168.015 348.688C168.313 348.912 168.692 349.024 169.151 349.024C169.876 349.024 170.479 348.827 170.959 348.432C171.439 348.027 171.679 347.408 171.679 346.576V345.808L170.415 345.856ZM181.639 342.608H178.839V350H177.447V342.608H174.679V341.424H181.639V342.608ZM186.485 341.264C187.221 341.264 187.85 341.424 188.373 341.744C188.906 342.064 189.311 342.517 189.589 343.104C189.877 343.68 190.021 344.357 190.021 345.136V345.984H184.149C184.17 346.955 184.415 347.696 184.885 348.208C185.365 348.709 186.031 348.96 186.885 348.96C187.429 348.96 187.909 348.912 188.325 348.816C188.751 348.709 189.189 348.56 189.637 348.368V349.6C189.199 349.792 188.767 349.931 188.341 350.016C187.914 350.112 187.407 350.16 186.821 350.16C186.01 350.16 185.29 349.995 184.661 349.664C184.042 349.333 183.557 348.843 183.205 348.192C182.863 347.531 182.693 346.725 182.693 345.776C182.693 344.837 182.847 344.032 183.157 343.36C183.477 342.688 183.919 342.171 184.485 341.808C185.061 341.445 185.727 341.264 186.485 341.264ZM186.469 342.416C185.797 342.416 185.263 342.635 184.869 343.072C184.485 343.499 184.255 344.096 184.181 344.864H188.549C188.549 344.373 188.474 343.947 188.325 343.584C188.175 343.221 187.946 342.939 187.637 342.736C187.338 342.523 186.949 342.416 186.469 342.416ZM198.732 350H197.308V342.592H194.78C194.673 343.947 194.54 345.104 194.38 346.064C194.22 347.013 194.017 347.787 193.772 348.384C193.526 348.981 193.233 349.419 192.892 349.696C192.55 349.973 192.15 350.112 191.692 350.112C191.553 350.112 191.414 350.101 191.276 350.08C191.148 350.069 191.041 350.043 190.956 350V348.944C191.02 348.965 191.089 348.981 191.164 348.992C191.238 349.003 191.313 349.008 191.388 349.008C191.622 349.008 191.836 348.912 192.028 348.72C192.22 348.528 192.39 348.235 192.54 347.84C192.7 347.445 192.844 346.949 192.972 346.352C193.1 345.744 193.212 345.029 193.308 344.208C193.404 343.387 193.489 342.459 193.564 341.424H198.732V350ZM204.766 341.264C205.502 341.264 206.131 341.424 206.654 341.744C207.187 342.064 207.592 342.517 207.87 343.104C208.158 343.68 208.302 344.357 208.302 345.136V345.984H202.43C202.451 346.955 202.696 347.696 203.166 348.208C203.646 348.709 204.312 348.96 205.166 348.96C205.71 348.96 206.19 348.912 206.606 348.816C207.032 348.709 207.47 348.56 207.918 348.368V349.6C207.48 349.792 207.048 349.931 206.622 350.016C206.195 350.112 205.688 350.16 205.102 350.16C204.291 350.16 203.571 349.995 202.942 349.664C202.323 349.333 201.838 348.843 201.486 348.192C201.144 347.531 200.974 346.725 200.974 345.776C200.974 344.837 201.128 344.032 201.438 343.36C201.758 342.688 202.2 342.171 202.766 341.808C203.342 341.445 204.008 341.264 204.766 341.264ZM204.75 342.416C204.078 342.416 203.544 342.635 203.15 343.072C202.766 343.499 202.536 344.096 202.462 344.864H206.83C206.83 344.373 206.755 343.947 206.606 343.584C206.456 343.221 206.227 342.939 205.918 342.736C205.619 342.523 205.23 342.416 204.75 342.416ZM217.429 337.872C217.386 338.405 217.253 338.853 217.029 339.216C216.816 339.579 216.496 339.851 216.069 340.032C215.642 340.213 215.088 340.304 214.405 340.304C213.712 340.304 213.152 340.213 212.725 340.032C212.309 339.851 212.005 339.584 211.813 339.232C211.621 338.869 211.504 338.416 211.461 337.872H212.773C212.826 338.448 212.976 338.837 213.221 339.04C213.477 339.232 213.882 339.328 214.437 339.328C214.928 339.328 215.312 339.227 215.589 339.024C215.877 338.811 216.048 338.427 216.101 337.872H217.429ZM211.813 346.656C211.813 346.752 211.808 346.891 211.797 347.072C211.797 347.243 211.792 347.429 211.781 347.632C211.77 347.824 211.76 348.011 211.749 348.192C211.738 348.363 211.728 348.501 211.717 348.608L216.309 341.424H218.037V350H216.725V344.944C216.725 344.773 216.725 344.549 216.725 344.272C216.736 343.995 216.746 343.723 216.757 343.456C216.768 343.179 216.778 342.971 216.789 342.832L212.229 350H210.485V341.424H211.813V346.656Z" fill="#333333"/>
<path d="M30 385L37.5 392.5L50 377.5" stroke="#61B857" stroke-width="2" stroke-linecap="round" stroke-linejoin="round"/>
<path d="M64.552 385V373.576H71.336V374.84H65.992V378.408H67.688C68.8293 378.408 69.7147 378.552 70.344 378.84C70.9733 379.117 71.4107 379.501 71.656 379.992C71.9013 380.472 72.024 381.027 72.024 381.656C72.024 382.349 71.8853 382.947 71.608 383.448C71.3413 383.949 70.904 384.333 70.296 384.6C69.688 384.867 68.888 385 67.896 385H64.552ZM67.752 383.768C68.776 383.768 69.496 383.597 69.912 383.256C70.328 382.904 70.536 382.371 70.536 381.656C70.536 381.165 70.4347 380.776 70.232 380.488C70.04 380.189 69.72 379.976 69.272 379.848C68.8347 379.72 68.248 379.656 67.512 379.656H65.992V383.768H67.752ZM75.5318 381.656C75.5318 381.752 75.5264 381.891 75.5158 382.072C75.5158 382.243 75.5104 382.429 75.4998 382.632C75.4891 382.824 75.4784 383.011 75.4678 383.192C75.4571 383.363 75.4464 383.501 75.4358 383.608L80.0278 376.424H81.7558V385H80.4438V379.944C80.4438 379.773 80.4438 379.549 80.4438 379.272C80.4544 378.995 80.4651 378.723 80.4758 378.456C80.4864 378.179 80.4971 377.971 80.5078 377.832L75.9478 385H74.2038V376.424H75.5318V381.656ZM86.741 376.264C87.3917 376.264 87.957 376.355 88.437 376.536C88.917 376.707 89.2903 376.963 89.557 377.304C89.8237 377.635 89.957 378.04 89.957 378.52C89.957 379.043 89.813 379.459 89.525 379.768C89.237 380.067 88.8423 380.285 88.341 380.424V380.488C88.6823 380.584 88.997 380.717 89.285 380.888C89.573 381.059 89.8023 381.283 89.973 381.56C90.1543 381.837 90.245 382.195 90.245 382.632C90.245 383.101 90.1117 383.528 89.845 383.912C89.589 384.296 89.189 384.6 88.645 384.824C88.1117 385.048 87.4237 385.16 86.581 385.16C86.1757 385.16 85.7863 385.139 85.413 385.096C85.0503 385.053 84.7197 384.989 84.421 384.904C84.133 384.819 83.877 384.717 83.653 384.6V383.336C84.0157 383.507 84.4423 383.661 84.933 383.8C85.4343 383.939 85.9783 384.008 86.565 384.008C86.9917 384.008 87.3757 383.96 87.717 383.864C88.069 383.768 88.3463 383.619 88.549 383.416C88.7517 383.203 88.853 382.915 88.853 382.552C88.853 382.221 88.7623 381.955 88.581 381.752C88.3997 381.539 88.1277 381.379 87.765 381.272C87.413 381.165 86.9597 381.112 86.405 381.112H85.253V379.96H86.181C86.917 379.96 87.5037 379.864 87.941 379.672C88.389 379.469 88.613 379.128 88.613 378.648C88.613 378.243 88.4423 377.939 88.101 377.736C87.7703 377.533 87.2903 377.432 86.661 377.432C86.1917 377.432 85.7757 377.48 85.413 377.576C85.061 377.661 84.6717 377.795 84.245 377.976L83.749 376.856C84.2077 376.653 84.6877 376.504 85.189 376.408C85.6903 376.312 86.2077 376.264 86.741 376.264ZM93.7368 376.424V379.992H98.3928V376.424H99.8008V385H98.3928V381.176H93.7368V385H92.3288V376.424H93.7368ZM105.828 376.264C106.564 376.264 107.194 376.424 107.716 376.744C108.25 377.064 108.655 377.517 108.932 378.104C109.22 378.68 109.364 379.357 109.364 380.136V380.984H103.492C103.514 381.955 103.759 382.696 104.228 383.208C104.708 383.709 105.375 383.96 106.228 383.96C106.772 383.96 107.252 383.912 107.668 383.816C108.095 383.709 108.532 383.56 108.98 383.368V384.6C108.543 384.792 108.111 384.931 107.684 385.016C107.258 385.112 106.751 385.16 106.164 385.16C105.354 385.16 104.634 384.995 104.004 384.664C103.386 384.333 102.9 383.843 102.548 383.192C102.207 382.531 102.036 381.725 102.036 380.776C102.036 379.837 102.191 379.032 102.5 378.36C102.82 377.688 103.263 377.171 103.828 376.808C104.404 376.445 105.071 376.264 105.828 376.264ZM105.812 377.416C105.14 377.416 104.607 377.635 104.212 378.072C103.828 378.499 103.599 379.096 103.524 379.864H107.892C107.892 379.373 107.818 378.947 107.668 378.584C107.519 378.221 107.29 377.939 106.98 377.736C106.682 377.523 106.292 377.416 105.812 377.416ZM114.988 385.16C114.23 385.16 113.553 385.005 112.956 384.696C112.369 384.387 111.905 383.907 111.564 383.256C111.233 382.605 111.068 381.773 111.068 380.76C111.068 379.704 111.244 378.845 111.596 378.184C111.948 377.523 112.422 377.037 113.02 376.728C113.628 376.419 114.316 376.264 115.084 376.264C115.521 376.264 115.942 376.312 116.348 376.408C116.753 376.493 117.084 376.6 117.34 376.728L116.908 377.896C116.652 377.8 116.353 377.709 116.012 377.624C115.67 377.539 115.35 377.496 115.052 377.496C114.476 377.496 114.001 377.619 113.628 377.864C113.254 378.109 112.977 378.472 112.796 378.952C112.614 379.432 112.524 380.029 112.524 380.744C112.524 381.427 112.614 382.008 112.796 382.488C112.977 382.968 113.249 383.331 113.612 383.576C113.974 383.821 114.428 383.944 114.972 383.944C115.441 383.944 115.852 383.896 116.204 383.8C116.566 383.704 116.897 383.587 117.196 383.448V384.696C116.908 384.845 116.588 384.957 116.236 385.032C115.894 385.117 115.478 385.16 114.988 385.16ZM127.84 385H126.4V374.84H122.832V373.576H131.392V374.84H127.84V385ZM136.206 376.264C137.262 376.264 138.11 376.632 138.75 377.368C139.4 378.104 139.726 379.213 139.726 380.696C139.726 381.667 139.576 382.488 139.278 383.16C138.99 383.821 138.579 384.323 138.046 384.664C137.523 384.995 136.904 385.16 136.19 385.16C135.752 385.16 135.363 385.101 135.022 384.984C134.68 384.867 134.387 384.717 134.142 384.536C133.907 384.344 133.704 384.136 133.534 383.912H133.438C133.459 384.093 133.48 384.323 133.502 384.6C133.523 384.877 133.534 385.117 133.534 385.32V388.84H132.126V376.424H133.278L133.47 377.592H133.534C133.704 377.347 133.907 377.123 134.142 376.92C134.387 376.717 134.675 376.557 135.006 376.44C135.347 376.323 135.747 376.264 136.206 376.264ZM135.95 377.448C135.374 377.448 134.91 377.56 134.558 377.784C134.206 377.997 133.95 378.323 133.79 378.76C133.63 379.197 133.544 379.752 133.534 380.424V380.696C133.534 381.4 133.608 381.997 133.758 382.488C133.907 382.979 134.158 383.352 134.51 383.608C134.872 383.864 135.363 383.992 135.982 383.992C136.504 383.992 136.931 383.848 137.262 383.56C137.603 383.272 137.854 382.883 138.014 382.392C138.184 381.891 138.27 381.32 138.27 380.68C138.27 379.699 138.078 378.915 137.694 378.328C137.32 377.741 136.739 377.448 135.95 377.448ZM145.281 376.264C146.017 376.264 146.647 376.424 147.169 376.744C147.703 377.064 148.108 377.517 148.385 378.104C148.673 378.68 148.817 379.357 148.817 380.136V380.984H142.945C142.967 381.955 143.212 382.696 143.681 383.208C144.161 383.709 144.828 383.96 145.681 383.96C146.225 383.96 146.705 383.912 147.121 383.816C147.548 383.709 147.985 383.56 148.433 383.368V384.6C147.996 384.792 147.564 384.931 147.137 385.016C146.711 385.112 146.204 385.16 145.617 385.16C144.807 385.16 144.087 384.995 143.457 384.664C142.839 384.333 142.353 383.843 142.001 383.192C141.66 382.531 141.489 381.725 141.489 380.776C141.489 379.837 141.644 379.032 141.953 378.36C142.273 377.688 142.716 377.171 143.281 376.808C143.857 376.445 144.524 376.264 145.281 376.264ZM145.265 377.416C144.593 377.416 144.06 377.635 143.665 378.072C143.281 378.499 143.052 379.096 142.977 379.864H147.345C147.345 379.373 147.271 378.947 147.121 378.584C146.972 378.221 146.743 377.939 146.433 377.736C146.135 377.523 145.745 377.416 145.265 377.416ZM152.409 376.424V379.992H157.065V376.424H158.473V385H157.065V381.176H152.409V385H151.001V376.424H152.409ZM162.516 381.656C162.516 381.752 162.511 381.891 162.5 382.072C162.5 382.243 162.495 382.429 162.484 382.632C162.473 382.824 162.463 383.011 162.452 383.192C162.441 383.363 162.431 383.501 162.42 383.608L167.012 376.424H168.74V385H167.428V379.944C167.428 379.773 167.428 379.549 167.428 379.272C167.439 378.995 167.449 378.723 167.46 378.456C167.471 378.179 167.481 377.971 167.492 377.832L162.932 385H161.188V376.424H162.516V381.656ZM172.877 376.424V379.992H177.533V376.424H178.941V385H177.533V381.176H172.877V385H171.469V376.424H172.877ZM186.889 376.424V377.608H183.065V385H181.657V376.424H186.889ZM189.907 381.656C189.907 381.752 189.901 381.891 189.891 382.072C189.891 382.243 189.885 382.429 189.875 382.632C189.864 382.824 189.853 383.011 189.843 383.192C189.832 383.363 189.821 383.501 189.811 383.608L194.403 376.424H196.131V385H194.819V379.944C194.819 379.773 194.819 379.549 194.819 379.272C194.829 378.995 194.84 378.723 194.851 378.456C194.861 378.179 194.872 377.971 194.883 377.832L190.323 385H188.579V376.424H189.907V381.656ZM198.764 387.56L197.98 387.112C198.407 386.568 198.748 386.019 199.004 385.464C199.271 384.909 199.473 384.275 199.612 383.56L201.02 383.96C200.913 384.771 200.657 385.48 200.252 386.088C199.857 386.696 199.361 387.187 198.764 387.56ZM69.592 404L65.832 393.984H65.768C65.7893 394.197 65.8053 394.469 65.816 394.8C65.8373 395.131 65.8533 395.493 65.864 395.888C65.8747 396.272 65.88 396.667 65.88 397.072V404H64.552V392.576H66.68L70.2 401.936H70.264L73.848 392.576H75.96V404H74.536V396.976C74.536 396.603 74.5413 396.235 74.552 395.872C74.5627 395.499 74.5787 395.152 74.6 394.832C74.6213 394.501 74.6373 394.224 74.648 394H74.584L70.776 404H69.592ZM82.1236 395.28C83.169 395.28 83.9423 395.509 84.4436 395.968C84.945 396.427 85.1956 397.157 85.1956 398.16V404H84.1716L83.8996 402.784H83.8356C83.5903 403.093 83.3343 403.355 83.0676 403.568C82.8116 403.771 82.513 403.92 82.1716 404.016C81.841 404.112 81.4356 404.16 80.9556 404.16C80.4436 404.16 79.9796 404.069 79.5636 403.888C79.1583 403.707 78.8383 403.429 78.6036 403.056C78.369 402.672 78.2516 402.192 78.2516 401.616C78.2516 400.763 78.5876 400.107 79.2596 399.648C79.9316 399.179 80.9663 398.923 82.3636 398.88L83.8196 398.832V398.32C83.8196 397.605 83.665 397.109 83.3556 396.832C83.0463 396.555 82.609 396.416 82.0436 396.416C81.5956 396.416 81.169 396.485 80.7636 396.624C80.3583 396.752 79.9796 396.901 79.6276 397.072L79.1956 396.016C79.569 395.813 80.0116 395.643 80.5236 395.504C81.0356 395.355 81.569 395.28 82.1236 395.28ZM82.5396 399.856C81.473 399.899 80.7316 400.069 80.3156 400.368C79.9103 400.667 79.7076 401.088 79.7076 401.632C79.7076 402.112 79.8516 402.464 80.1396 402.688C80.4383 402.912 80.817 403.024 81.2756 403.024C82.001 403.024 82.6036 402.827 83.0836 402.432C83.5636 402.027 83.8036 401.408 83.8036 400.576V399.808L82.5396 399.856ZM91.2844 404.16C90.527 404.16 89.8497 404.005 89.2524 403.696C88.6657 403.387 88.2017 402.907 87.8604 402.256C87.5297 401.605 87.3644 400.773 87.3644 399.76C87.3644 398.704 87.5404 397.845 87.8924 397.184C88.2444 396.523 88.719 396.037 89.3164 395.728C89.9244 395.419 90.6124 395.264 91.3804 395.264C91.8177 395.264 92.239 395.312 92.6444 395.408C93.0497 395.493 93.3804 395.6 93.6364 395.728L93.2044 396.896C92.9484 396.8 92.6497 396.709 92.3084 396.624C91.967 396.539 91.647 396.496 91.3484 396.496C90.7724 396.496 90.2977 396.619 89.9244 396.864C89.551 397.109 89.2737 397.472 89.0924 397.952C88.911 398.432 88.8204 399.029 88.8204 399.744C88.8204 400.427 88.911 401.008 89.0924 401.488C89.2737 401.968 89.5457 402.331 89.9084 402.576C90.271 402.821 90.7244 402.944 91.2684 402.944C91.7377 402.944 92.1484 402.896 92.5004 402.8C92.863 402.704 93.1937 402.587 93.4924 402.448V403.696C93.2044 403.845 92.8844 403.957 92.5324 404.032C92.191 404.117 91.775 404.16 91.2844 404.16ZM101.452 396.608H98.6519V404H97.2599V396.608H94.4919V395.424H101.452V396.608ZM106.297 395.264C107.033 395.264 107.662 395.424 108.185 395.744C108.718 396.064 109.124 396.517 109.401 397.104C109.689 397.68 109.833 398.357 109.833 399.136V399.984H103.961C103.982 400.955 104.228 401.696 104.697 402.208C105.177 402.709 105.844 402.96 106.697 402.96C107.241 402.96 107.721 402.912 108.137 402.816C108.564 402.709 109.001 402.56 109.449 402.368V403.6C109.012 403.792 108.58 403.931 108.153 404.016C107.726 404.112 107.22 404.16 106.633 404.16C105.822 404.16 105.102 403.995 104.473 403.664C103.854 403.333 103.369 402.843 103.017 402.192C102.676 401.531 102.505 400.725 102.505 399.776C102.505 398.837 102.66 398.032 102.969 397.36C103.289 396.688 103.732 396.171 104.297 395.808C104.873 395.445 105.54 395.264 106.297 395.264ZM106.281 396.416C105.609 396.416 105.076 396.635 104.681 397.072C104.297 397.499 104.068 398.096 103.993 398.864H108.361C108.361 398.373 108.286 397.947 108.137 397.584C107.988 397.221 107.758 396.939 107.449 396.736C107.15 396.523 106.761 396.416 106.281 396.416ZM116.096 395.264C117.152 395.264 118 395.632 118.64 396.368C119.291 397.104 119.616 398.213 119.616 399.696C119.616 400.667 119.467 401.488 119.168 402.16C118.88 402.821 118.47 403.323 117.936 403.664C117.414 403.995 116.795 404.16 116.08 404.16C115.643 404.16 115.254 404.101 114.912 403.984C114.571 403.867 114.278 403.717 114.032 403.536C113.798 403.344 113.595 403.136 113.424 402.912H113.328C113.35 403.093 113.371 403.323 113.392 403.6C113.414 403.877 113.424 404.117 113.424 404.32V407.84H112.016V395.424H113.168L113.36 396.592H113.424C113.595 396.347 113.798 396.123 114.032 395.92C114.278 395.717 114.566 395.557 114.896 395.44C115.238 395.323 115.638 395.264 116.096 395.264ZM115.84 396.448C115.264 396.448 114.8 396.56 114.448 396.784C114.096 396.997 113.84 397.323 113.68 397.76C113.52 398.197 113.435 398.752 113.424 399.424V399.696C113.424 400.4 113.499 400.997 113.648 401.488C113.798 401.979 114.048 402.352 114.4 402.608C114.763 402.864 115.254 402.992 115.872 402.992C116.395 402.992 116.822 402.848 117.152 402.56C117.494 402.272 117.744 401.883 117.904 401.392C118.075 400.891 118.16 400.32 118.16 399.68C118.16 398.699 117.968 397.915 117.584 397.328C117.211 396.741 116.63 396.448 115.84 396.448ZM135.185 404H133.457L128.289 398.208V404H126.849V392.576H128.289V398.112L133.329 392.576H134.961L130.001 398.128L135.185 404ZM143.076 404H141.652V396.592H139.124C139.017 397.947 138.884 399.104 138.724 400.064C138.564 401.013 138.361 401.787 138.116 402.384C137.87 402.981 137.577 403.419 137.236 403.696C136.894 403.973 136.494 404.112 136.036 404.112C135.897 404.112 135.758 404.101 135.62 404.08C135.492 404.069 135.385 404.043 135.3 404V402.944C135.364 402.965 135.433 402.981 135.508 402.992C135.582 403.003 135.657 403.008 135.732 403.008C135.966 403.008 136.18 402.912 136.372 402.72C136.564 402.528 136.734 402.235 136.884 401.84C137.044 401.445 137.188 400.949 137.316 400.352C137.444 399.744 137.556 399.029 137.652 398.208C137.748 397.387 137.833 396.459 137.908 395.424H143.076V404ZM149.046 395.28C150.091 395.28 150.864 395.509 151.366 395.968C151.867 396.427 152.118 397.157 152.118 398.16V404H151.094L150.822 402.784H150.758C150.512 403.093 150.256 403.355 149.99 403.568C149.734 403.771 149.435 403.92 149.094 404.016C148.763 404.112 148.358 404.16 147.878 404.16C147.366 404.16 146.902 404.069 146.486 403.888C146.08 403.707 145.76 403.429 145.526 403.056C145.291 402.672 145.174 402.192 145.174 401.616C145.174 400.763 145.51 400.107 146.182 399.648C146.854 399.179 147.888 398.923 149.286 398.88L150.742 398.832V398.32C150.742 397.605 150.587 397.109 150.278 396.832C149.968 396.555 149.531 396.416 148.966 396.416C148.518 396.416 148.091 396.485 147.686 396.624C147.28 396.752 146.902 396.901 146.549 397.072L146.118 396.016C146.491 395.813 146.934 395.643 147.446 395.504C147.958 395.355 148.491 395.28 149.046 395.28ZM149.462 399.856C148.395 399.899 147.654 400.069 147.238 400.368C146.832 400.667 146.63 401.088 146.63 401.632C146.63 402.112 146.774 402.464 147.062 402.688C147.36 402.912 147.739 403.024 148.198 403.024C148.923 403.024 149.526 402.827 150.006 402.432C150.486 402.027 150.726 401.408 150.726 400.576V399.808L149.462 399.856ZM158.206 404.16C157.449 404.16 156.772 404.005 156.174 403.696C155.588 403.387 155.124 402.907 154.782 402.256C154.452 401.605 154.286 400.773 154.286 399.76C154.286 398.704 154.462 397.845 154.814 397.184C155.166 396.523 155.641 396.037 156.238 395.728C156.846 395.419 157.534 395.264 158.302 395.264C158.74 395.264 159.161 395.312 159.566 395.408C159.972 395.493 160.302 395.6 160.558 395.728L160.126 396.896C159.87 396.8 159.572 396.709 159.23 396.624C158.889 396.539 158.569 396.496 158.27 396.496C157.694 396.496 157.22 396.619 156.846 396.864C156.473 397.109 156.196 397.472 156.014 397.952C155.833 398.432 155.742 399.029 155.742 399.744C155.742 400.427 155.833 401.008 156.014 401.488C156.196 401.968 156.468 402.331 156.83 402.576C157.193 402.821 157.646 402.944 158.19 402.944C158.66 402.944 159.07 402.896 159.422 402.8C159.785 402.704 160.116 402.587 160.414 402.448V403.696C160.126 403.845 159.806 403.957 159.454 404.032C159.113 404.117 158.697 404.16 158.206 404.16ZM165.894 404.16C165.136 404.16 164.459 404.005 163.862 403.696C163.275 403.387 162.811 402.907 162.47 402.256C162.139 401.605 161.974 400.773 161.974 399.76C161.974 398.704 162.15 397.845 162.502 397.184C162.854 396.523 163.328 396.037 163.926 395.728C164.534 395.419 165.222 395.264 165.99 395.264C166.427 395.264 166.848 395.312 167.254 395.408C167.659 395.493 167.99 395.6 168.246 395.728L167.814 396.896C167.558 396.8 167.259 396.709 166.918 396.624C166.576 396.539 166.256 396.496 165.958 396.496C165.382 396.496 164.907 396.619 164.534 396.864C164.16 397.109 163.883 397.472 163.702 397.952C163.52 398.432 163.43 399.029 163.43 399.744C163.43 400.427 163.52 401.008 163.702 401.488C163.883 401.968 164.155 402.331 164.518 402.576C164.88 402.821 165.334 402.944 165.878 402.944C166.347 402.944 166.758 402.896 167.11 402.8C167.472 402.704 167.803 402.587 168.102 402.448V403.696C167.814 403.845 167.494 403.957 167.142 404.032C166.8 404.117 166.384 404.16 165.894 404.16ZM170.141 404V395.424H171.549V398.944H173.773C174.52 398.944 175.133 399.035 175.613 399.216C176.093 399.397 176.451 399.669 176.685 400.032C176.92 400.384 177.037 400.832 177.037 401.376C177.037 401.909 176.92 402.373 176.685 402.768C176.461 403.163 176.104 403.467 175.613 403.68C175.133 403.893 174.499 404 173.709 404H170.141ZM173.581 402.864C174.189 402.864 174.685 402.763 175.069 402.56C175.453 402.347 175.645 401.979 175.645 401.456C175.645 400.933 175.469 400.581 175.117 400.4C174.765 400.208 174.259 400.112 173.597 400.112H171.549V402.864H173.581ZM178.461 404V395.424H179.869V404H178.461ZM182.498 406.56L181.714 406.112C182.141 405.568 182.482 405.019 182.738 404.464C183.005 403.909 183.208 403.275 183.346 402.56L184.754 402.96C184.648 403.771 184.392 404.48 183.986 405.088C183.592 405.696 183.096 406.187 182.498 406.56ZM69.448 412.68C68.84 412.68 68.2907 412.787 67.8 413C67.3093 413.203 66.8933 413.507 66.552 413.912C66.2107 414.307 65.9493 414.792 65.768 415.368C65.5867 415.933 65.496 416.573 65.496 417.288C65.496 418.227 65.64 419.043 65.928 419.736C66.2267 420.429 66.664 420.963 67.24 421.336C67.8267 421.709 68.5573 421.896 69.432 421.896C69.9333 421.896 70.408 421.853 70.856 421.768C71.304 421.683 71.7413 421.576 72.168 421.448V422.696C71.7413 422.856 71.2987 422.973 70.84 423.048C70.392 423.123 69.8533 423.16 69.224 423.16C68.0613 423.16 67.0907 422.92 66.312 422.44C65.5333 421.96 64.9467 421.277 64.552 420.392C64.168 419.507 63.976 418.467 63.976 417.272C63.976 416.408 64.0933 415.619 64.328 414.904C64.5733 414.189 64.9253 413.571 65.384 413.048C65.8533 412.525 66.4293 412.125 67.112 411.848C67.7947 411.56 68.5787 411.416 69.464 411.416C70.0507 411.416 70.616 411.475 71.16 411.592C71.704 411.709 72.1893 411.875 72.616 412.088L72.04 413.304C71.688 413.144 71.2933 413 70.856 412.872C70.4293 412.744 69.96 412.68 69.448 412.68ZM77.7814 414.264C78.5174 414.264 79.1467 414.424 79.6694 414.744C80.2027 415.064 80.608 415.517 80.8854 416.104C81.1734 416.68 81.3174 417.357 81.3174 418.136V418.984H75.4454C75.4667 419.955 75.712 420.696 76.1814 421.208C76.6614 421.709 77.328 421.96 78.1814 421.96C78.7254 421.96 79.2054 421.912 79.6214 421.816C80.048 421.709 80.4854 421.56 80.9334 421.368V422.6C80.496 422.792 80.064 422.931 79.6374 423.016C79.2107 423.112 78.704 423.16 78.1174 423.16C77.3067 423.16 76.5867 422.995 75.9574 422.664C75.3387 422.333 74.8534 421.843 74.5014 421.192C74.16 420.531 73.9894 419.725 73.9894 418.776C73.9894 417.837 74.144 417.032 74.4534 416.36C74.7734 415.688 75.216 415.171 75.7814 414.808C76.3574 414.445 77.024 414.264 77.7814 414.264ZM77.7654 415.416C77.0934 415.416 76.56 415.635 76.1654 416.072C75.7814 416.499 75.552 417.096 75.4774 417.864H79.8454C79.8454 417.373 79.7707 416.947 79.6214 416.584C79.472 416.221 79.2427 415.939 78.9334 415.736C78.6347 415.523 78.2454 415.416 77.7654 415.416ZM92.7006 414.424V423H91.4366V417.528C91.4366 417.304 91.442 417.069 91.4526 416.824C91.474 416.579 91.4953 416.339 91.5166 416.104H91.4686L88.6686 423H87.4846L84.7646 416.104H84.7166C84.738 416.339 84.7486 416.579 84.7486 416.824C84.7593 417.069 84.7646 417.32 84.7646 417.576V423H83.5006V414.424H85.3726L88.0766 421.32L90.8286 414.424H92.7006ZM96.7661 419.656C96.7661 419.752 96.7608 419.891 96.7501 420.072C96.7501 420.243 96.7448 420.429 96.7341 420.632C96.7235 420.824 96.7128 421.011 96.7021 421.192C96.6915 421.363 96.6808 421.501 96.6701 421.608L101.262 414.424H102.99V423H101.678V417.944C101.678 417.773 101.678 417.549 101.678 417.272C101.689 416.995 101.699 416.723 101.71 416.456C101.721 416.179 101.731 415.971 101.742 415.832L97.1821 423H95.4381V414.424H96.7661V419.656ZM107.127 414.424V417.992H111.783V414.424H113.191V423H111.783V419.176H107.127V423H105.719V414.424H107.127ZM119.155 414.28C120.2 414.28 120.974 414.509 121.475 414.968C121.976 415.427 122.227 416.157 122.227 417.16V423H121.203L120.931 421.784H120.867C120.622 422.093 120.366 422.355 120.099 422.568C119.843 422.771 119.544 422.92 119.203 423.016C118.872 423.112 118.467 423.16 117.987 423.16C117.475 423.16 117.011 423.069 116.595 422.888C116.19 422.707 115.87 422.429 115.635 422.056C115.4 421.672 115.283 421.192 115.283 420.616C115.283 419.763 115.619 419.107 116.291 418.648C116.963 418.179 117.998 417.923 119.395 417.88L120.851 417.832V417.32C120.851 416.605 120.696 416.109 120.387 415.832C120.078 415.555 119.64 415.416 119.075 415.416C118.627 415.416 118.2 415.485 117.795 415.624C117.39 415.752 117.011 415.901 116.659 416.072L116.227 415.016C116.6 414.813 117.043 414.643 117.555 414.504C118.067 414.355 118.6 414.28 119.155 414.28ZM119.571 418.856C118.504 418.899 117.763 419.069 117.347 419.368C116.942 419.667 116.739 420.088 116.739 420.632C116.739 421.112 116.883 421.464 117.171 421.688C117.47 421.912 117.848 422.024 118.307 422.024C119.032 422.024 119.635 421.827 120.115 421.432C120.595 421.027 120.835 420.408 120.835 419.576V418.808L119.571 418.856ZM128.956 414.264C130.012 414.264 130.86 414.632 131.5 415.368C132.15 416.104 132.476 417.213 132.476 418.696C132.476 419.667 132.326 420.488 132.028 421.16C131.74 421.821 131.329 422.323 130.796 422.664C130.273 422.995 129.654 423.16 128.94 423.16C128.502 423.16 128.113 423.101 127.772 422.984C127.43 422.867 127.137 422.717 126.892 422.536C126.657 422.344 126.454 422.136 126.284 421.912H126.188C126.209 422.093 126.23 422.323 126.252 422.6C126.273 422.877 126.284 423.117 126.284 423.32V426.84H124.876V414.424H126.028L126.22 415.592H126.284C126.454 415.347 126.657 415.123 126.892 414.92C127.137 414.717 127.425 414.557 127.756 414.44C128.097 414.323 128.497 414.264 128.956 414.264ZM128.7 415.448C128.124 415.448 127.66 415.56 127.308 415.784C126.956 415.997 126.7 416.323 126.54 416.76C126.38 417.197 126.294 417.752 126.284 418.424V418.696C126.284 419.4 126.358 419.997 126.508 420.488C126.657 420.979 126.908 421.352 127.26 421.608C127.622 421.864 128.113 421.992 128.732 421.992C129.254 421.992 129.681 421.848 130.012 421.56C130.353 421.272 130.604 420.883 130.764 420.392C130.934 419.891 131.02 419.32 131.02 418.68C131.02 417.699 130.828 416.915 130.444 416.328C130.07 415.741 129.489 415.448 128.7 415.448ZM134.719 423V414.424H136.127V417.944H138.351C139.098 417.944 139.711 418.035 140.191 418.216C140.671 418.397 141.029 418.669 141.263 419.032C141.498 419.384 141.615 419.832 141.615 420.376C141.615 420.909 141.498 421.373 141.263 421.768C141.039 422.163 140.682 422.467 140.191 422.68C139.711 422.893 139.077 423 138.287 423H134.719ZM138.159 421.864C138.767 421.864 139.263 421.763 139.647 421.56C140.031 421.347 140.223 420.979 140.223 420.456C140.223 419.933 140.047 419.581 139.695 419.4C139.343 419.208 138.837 419.112 138.175 419.112H136.127V421.864H138.159ZM143.039 423V414.424H144.447V423H143.039Z" fill="#333333"/>
<path d="M30 458L37.5 465.5L50 450.5" stroke="#61B857" stroke-width="2" stroke-linecap="round" stroke-linejoin="round"/>
<path d="M64.552 463.5V452.076H71.336V453.34H65.992V456.908H67.688C68.8293 456.908 69.7147 457.052 70.344 457.34C70.9733 457.617 71.4107 458.001 71.656 458.492C71.9013 458.972 72.024 459.527 72.024 460.156C72.024 460.849 71.8853 461.447 71.608 461.948C71.3413 462.449 70.904 462.833 70.296 463.1C69.688 463.367 68.888 463.5 67.896 463.5H64.552ZM67.752 462.268C68.776 462.268 69.496 462.097 69.912 461.756C70.328 461.404 70.536 460.871 70.536 460.156C70.536 459.665 70.4347 459.276 70.232 458.988C70.04 458.689 69.72 458.476 69.272 458.348C68.8347 458.22 68.248 458.156 67.512 458.156H65.992V462.268H67.752ZM75.5318 460.156C75.5318 460.252 75.5264 460.391 75.5158 460.572C75.5158 460.743 75.5104 460.929 75.4998 461.132C75.4891 461.324 75.4784 461.511 75.4678 461.692C75.4571 461.863 75.4464 462.001 75.4358 462.108L80.0278 454.924H81.7558V463.5H80.4438V458.444C80.4438 458.273 80.4438 458.049 80.4438 457.772C80.4544 457.495 80.4651 457.223 80.4758 456.956C80.4864 456.679 80.4971 456.471 80.5078 456.332L75.9478 463.5H74.2038V454.924H75.5318V460.156ZM86.741 454.764C87.3917 454.764 87.957 454.855 88.437 455.036C88.917 455.207 89.2903 455.463 89.557 455.804C89.8237 456.135 89.957 456.54 89.957 457.02C89.957 457.543 89.813 457.959 89.525 458.268C89.237 458.567 88.8423 458.785 88.341 458.924V458.988C88.6823 459.084 88.997 459.217 89.285 459.388C89.573 459.559 89.8023 459.783 89.973 460.06C90.1543 460.337 90.245 460.695 90.245 461.132C90.245 461.601 90.1117 462.028 89.845 462.412C89.589 462.796 89.189 463.1 88.645 463.324C88.1117 463.548 87.4237 463.66 86.581 463.66C86.1757 463.66 85.7863 463.639 85.413 463.596C85.0503 463.553 84.7197 463.489 84.421 463.404C84.133 463.319 83.877 463.217 83.653 463.1V461.836C84.0157 462.007 84.4423 462.161 84.933 462.3C85.4343 462.439 85.9783 462.508 86.565 462.508C86.9917 462.508 87.3757 462.46 87.717 462.364C88.069 462.268 88.3463 462.119 88.549 461.916C88.7517 461.703 88.853 461.415 88.853 461.052C88.853 460.721 88.7623 460.455 88.581 460.252C88.3997 460.039 88.1277 459.879 87.765 459.772C87.413 459.665 86.9597 459.612 86.405 459.612H85.253V458.46H86.181C86.917 458.46 87.5037 458.364 87.941 458.172C88.389 457.969 88.613 457.628 88.613 457.148C88.613 456.743 88.4423 456.439 88.101 456.236C87.7703 456.033 87.2903 455.932 86.661 455.932C86.1917 455.932 85.7757 455.98 85.413 456.076C85.061 456.161 84.6717 456.295 84.245 456.476L83.749 455.356C84.2077 455.153 84.6877 455.004 85.189 454.908C85.6903 454.812 86.2077 454.764 86.741 454.764ZM93.7368 454.924V458.492H98.3928V454.924H99.8008V463.5H98.3928V459.676H93.7368V463.5H92.3288V454.924H93.7368ZM105.828 454.764C106.564 454.764 107.194 454.924 107.716 455.244C108.25 455.564 108.655 456.017 108.932 456.604C109.22 457.18 109.364 457.857 109.364 458.636V459.484H103.492C103.514 460.455 103.759 461.196 104.228 461.708C104.708 462.209 105.375 462.46 106.228 462.46C106.772 462.46 107.252 462.412 107.668 462.316C108.095 462.209 108.532 462.06 108.98 461.868V463.1C108.543 463.292 108.111 463.431 107.684 463.516C107.258 463.612 106.751 463.66 106.164 463.66C105.354 463.66 104.634 463.495 104.004 463.164C103.386 462.833 102.9 462.343 102.548 461.692C102.207 461.031 102.036 460.225 102.036 459.276C102.036 458.337 102.191 457.532 102.5 456.86C102.82 456.188 103.263 455.671 103.828 455.308C104.404 454.945 105.071 454.764 105.828 454.764ZM105.812 455.916C105.14 455.916 104.607 456.135 104.212 456.572C103.828 456.999 103.599 457.596 103.524 458.364H107.892C107.892 457.873 107.818 457.447 107.668 457.084C107.519 456.721 107.29 456.439 106.98 456.236C106.682 456.023 106.292 455.916 105.812 455.916ZM114.988 463.66C114.23 463.66 113.553 463.505 112.956 463.196C112.369 462.887 111.905 462.407 111.564 461.756C111.233 461.105 111.068 460.273 111.068 459.26C111.068 458.204 111.244 457.345 111.596 456.684C111.948 456.023 112.422 455.537 113.02 455.228C113.628 454.919 114.316 454.764 115.084 454.764C115.521 454.764 115.942 454.812 116.348 454.908C116.753 454.993 117.084 455.1 117.34 455.228L116.908 456.396C116.652 456.3 116.353 456.209 116.012 456.124C115.67 456.039 115.35 455.996 115.052 455.996C114.476 455.996 114.001 456.119 113.628 456.364C113.254 456.609 112.977 456.972 112.796 457.452C112.614 457.932 112.524 458.529 112.524 459.244C112.524 459.927 112.614 460.508 112.796 460.988C112.977 461.468 113.249 461.831 113.612 462.076C113.974 462.321 114.428 462.444 114.972 462.444C115.441 462.444 115.852 462.396 116.204 462.3C116.566 462.204 116.897 462.087 117.196 461.948V463.196C116.908 463.345 116.588 463.457 116.236 463.532C115.894 463.617 115.478 463.66 114.988 463.66ZM132.448 463.5H131.008V453.34H127.392C127.317 453.927 127.237 454.545 127.152 455.196C127.067 455.836 126.976 456.471 126.88 457.1C126.795 457.729 126.709 458.321 126.624 458.876C126.539 459.431 126.453 459.916 126.368 460.332C126.229 461.047 126.059 461.655 125.856 462.156C125.653 462.657 125.381 463.036 125.04 463.292C124.709 463.548 124.272 463.676 123.728 463.676C123.547 463.676 123.36 463.655 123.168 463.612C122.987 463.58 122.827 463.537 122.688 463.484V462.284C122.805 462.337 122.939 462.385 123.088 462.428C123.237 462.46 123.397 462.476 123.568 462.476C123.888 462.476 124.139 462.348 124.32 462.092C124.512 461.825 124.661 461.5 124.768 461.116C124.875 460.721 124.965 460.332 125.04 459.948C125.104 459.639 125.179 459.228 125.264 458.716C125.349 458.193 125.44 457.585 125.536 456.892C125.643 456.199 125.749 455.447 125.856 454.636C125.973 453.815 126.085 452.961 126.192 452.076H132.448V463.5ZM138.608 454.78C139.653 454.78 140.427 455.009 140.928 455.468C141.429 455.927 141.68 456.657 141.68 457.66V463.5H140.656L140.384 462.284H140.32C140.075 462.593 139.819 462.855 139.552 463.068C139.296 463.271 138.997 463.42 138.656 463.516C138.325 463.612 137.92 463.66 137.44 463.66C136.928 463.66 136.464 463.569 136.048 463.388C135.643 463.207 135.323 462.929 135.088 462.556C134.853 462.172 134.736 461.692 134.736 461.116C134.736 460.263 135.072 459.607 135.744 459.148C136.416 458.679 137.451 458.423 138.848 458.38L140.304 458.332V457.82C140.304 457.105 140.149 456.609 139.84 456.332C139.531 456.055 139.093 455.916 138.528 455.916C138.08 455.916 137.653 455.985 137.248 456.124C136.843 456.252 136.464 456.401 136.112 456.572L135.68 455.516C136.053 455.313 136.496 455.143 137.008 455.004C137.52 454.855 138.053 454.78 138.608 454.78ZM139.024 459.356C137.957 459.399 137.216 459.569 136.8 459.868C136.395 460.167 136.192 460.588 136.192 461.132C136.192 461.612 136.336 461.964 136.624 462.188C136.923 462.412 137.301 462.524 137.76 462.524C138.485 462.524 139.088 462.327 139.568 461.932C140.048 461.527 140.288 460.908 140.288 460.076V459.308L139.024 459.356ZM149.561 454.924V456.108H145.737V463.5H144.329V454.924H149.561ZM154.406 454.764C155.142 454.764 155.772 454.924 156.294 455.244C156.828 455.564 157.233 456.017 157.51 456.604C157.798 457.18 157.942 457.857 157.942 458.636V459.484H152.07C152.092 460.455 152.337 461.196 152.806 461.708C153.286 462.209 153.953 462.46 154.806 462.46C155.35 462.46 155.83 462.412 156.246 462.316C156.673 462.209 157.11 462.06 157.558 461.868V463.1C157.121 463.292 156.689 463.431 156.262 463.516C155.836 463.612 155.329 463.66 154.742 463.66C153.932 463.66 153.212 463.495 152.582 463.164C151.964 462.833 151.478 462.343 151.126 461.692C150.785 461.031 150.614 460.225 150.614 459.276C150.614 458.337 150.769 457.532 151.078 456.86C151.398 456.188 151.841 455.671 152.406 455.308C152.982 454.945 153.649 454.764 154.406 454.764ZM154.39 455.916C153.718 455.916 153.185 456.135 152.79 456.572C152.406 456.999 152.177 457.596 152.102 458.364H156.47C156.47 457.873 156.396 457.447 156.246 457.084C156.097 456.721 155.868 456.439 155.558 456.236C155.26 456.023 154.87 455.916 154.39 455.916ZM164.206 454.764C165.262 454.764 166.11 455.132 166.75 455.868C167.4 456.604 167.726 457.713 167.726 459.196C167.726 460.167 167.576 460.988 167.278 461.66C166.99 462.321 166.579 462.823 166.046 463.164C165.523 463.495 164.904 463.66 164.19 463.66C163.752 463.66 163.363 463.601 163.022 463.484C162.68 463.367 162.387 463.217 162.142 463.036C161.907 462.844 161.704 462.636 161.534 462.412H161.438C161.459 462.593 161.48 462.823 161.502 463.1C161.523 463.377 161.534 463.617 161.534 463.82V467.34H160.126V454.924H161.278L161.47 456.092H161.534C161.704 455.847 161.907 455.623 162.142 455.42C162.387 455.217 162.675 455.057 163.006 454.94C163.347 454.823 163.747 454.764 164.206 454.764ZM163.95 455.948C163.374 455.948 162.91 456.06 162.558 456.284C162.206 456.497 161.95 456.823 161.79 457.26C161.63 457.697 161.544 458.252 161.534 458.924V459.196C161.534 459.9 161.608 460.497 161.758 460.988C161.907 461.479 162.158 461.852 162.51 462.108C162.872 462.364 163.363 462.492 163.982 462.492C164.504 462.492 164.931 462.348 165.262 462.06C165.603 461.772 165.854 461.383 166.014 460.892C166.184 460.391 166.27 459.82 166.27 459.18C166.27 458.199 166.078 457.415 165.694 456.828C165.32 456.241 164.739 455.948 163.95 455.948ZM170.497 463.5H168.865L171.313 459.9C170.983 459.815 170.663 459.681 170.353 459.5C170.044 459.308 169.793 459.047 169.601 458.716C169.409 458.375 169.313 457.953 169.313 457.452C169.313 456.631 169.591 456.007 170.145 455.58C170.7 455.143 171.436 454.924 172.353 454.924H176.193V463.5H174.785V460.092H172.705L170.497 463.5ZM170.673 457.468C170.673 457.959 170.855 458.327 171.217 458.572C171.591 458.807 172.108 458.924 172.769 458.924H174.785V456.092H172.497C171.847 456.092 171.377 456.22 171.089 456.476C170.812 456.732 170.673 457.063 170.673 457.468Z" fill="#333333"/>
</g>
<defs>
<filter id="filter0_d_170_4011" x="0" y="0" width="326" height="540" filterUnits="userSpaceOnUse" color-interpolation-filters="sRGB">
<feFlood flood-opacity="0" result="BackgroundImageFix"/>
<feColorMatrix in="SourceAlpha" type="matrix" values="0 0 0 0 0 0 0 0 0 0 0 0 0 0 0 0 0 0 127 0" result="hardAlpha"/>
<feOffset dx="3" dy="5"/>
<feGaussianBlur stdDeviation="10"/>
<feComposite in2="hardAlpha" operator="out"/>
<feColorMatrix type="matrix" values="0 0 0 0 0.2 0 0 0 0 0.2 0 0 0 0 0.2 0 0 0 0.1 0"/>
<feBlend mode="normal" in2="BackgroundImageFix" result="effect1_dropShadow_170_4011"/>
<feBlend mode="normal" in="SourceGraphic" in2="effect1_dropShadow_170_4011" result="shape"/>
</filter>
<filter id="filter1_d_170_4011" x="22" y="28" width="112" height="112" filterUnits="userSpaceOnUse" color-interpolation-filters="sRGB">
<feFlood flood-opacity="0" result="BackgroundImageFix"/>
<feColorMatrix in="SourceAlpha" type="matrix" values="0 0 0 0 0 0 0 0 0 0 0 0 0 0 0 0 0 0 127 0" result="hardAlpha"/>
<feOffset dx="3" dy="3"/>
<feGaussianBlur stdDeviation="3"/>
<feComposite in2="hardAlpha" operator="out"/>
<feColorMatrix type="matrix" values="0 0 0 0 0.2 0 0 0 0 0.2 0 0 0 0 0.2 0 0 0 0.25 0"/>
<feBlend mode="normal" in2="BackgroundImageFix" result="effect1_dropShadow_170_4011"/>
<feBlend mode="normal" in="SourceGraphic" in2="effect1_dropShadow_170_4011" result="shape"/>
</filter>
</defs>
</svg>
