<svg width="90" height="90" viewBox="0 0 90 90" fill="none" xmlns="http://www.w3.org/2000/svg">
<rect opacity="0.8" width="90" height="90" rx="5" fill="#1959AB"/>
<g clip-path="url(#clip0_291_6157)">
<path d="M45 20C38.3711 20 32.0078 22.6355 27.3242 27.3223C22.6358 32.0108 20.0013 38.3695 20 45C20 51.6277 22.6367 57.991 27.3242 62.6777C32.0078 67.3645 38.3711 70 45 70C51.6289 70 57.9922 67.3645 62.6758 62.6777C67.3633 57.991 70 51.6277 70 45C70 38.3723 67.3633 32.009 62.6758 27.3223C57.9922 22.6355 51.6289 20 45 20Z" fill="url(#paint0_linear_291_6157)"/>
<path d="M31.3167 44.7361C38.6058 41.5611 43.4652 39.4677 45.8949 38.4564C52.8402 35.5685 54.2816 35.0669 55.223 35.05C55.43 35.0466 55.891 35.0978 56.1917 35.341C56.4417 35.546 56.5121 35.8234 56.5472 36.0181C56.5785 36.2126 56.6214 36.656 56.5863 37.0021C56.2113 40.9552 54.5824 50.5482 53.7542 54.9759C53.4066 56.8494 52.7152 57.4775 52.0472 57.5388C50.5941 57.6724 49.4925 56.5794 48.0863 55.658C45.8871 54.2154 44.6449 53.3177 42.5082 51.9103C40.0394 50.2837 41.641 49.3896 43.0472 47.9287C43.4144 47.5462 49.8128 41.7279 49.9339 41.2001C49.9496 41.1341 49.9652 40.888 49.8167 40.7584C49.6722 40.6283 49.4574 40.6728 49.3011 40.708C49.0785 40.758 45.5667 43.0814 38.7542 47.6779C37.7582 48.363 36.8558 48.697 36.0433 48.6794C35.1527 48.6603 33.4339 48.1748 32.1566 47.7599C30.5941 47.2509 29.348 46.9818 29.4574 46.1173C29.5121 45.6673 30.1332 45.2068 31.3167 44.7361Z" fill="white"/>
</g>
<defs>
<linearGradient id="paint0_linear_291_6157" x1="45" y1="20" x2="45" y2="70" gradientUnits="userSpaceOnUse">
<stop stop-color="#2AABEE"/>
<stop offset="1" stop-color="#229ED9"/>
</linearGradient>
<clipPath id="clip0_291_6157">
<rect width="50" height="50" fill="white" transform="translate(20 20)"/>
</clipPath>
</defs>
</svg>
