<svg width="90" height="90" viewBox="0 0 90 90" fill="none" xmlns="http://www.w3.org/2000/svg">
<rect opacity="0.8" width="90" height="90" rx="5" fill="#1959AB"/>
<g clip-path="url(#clip0_291_6141)">
<path d="M45 70.0977C31.195 70.0977 20 58.9027 20 45.0977C20 31.2927 31.195 20.0977 45 20.0977C58.805 20.0977 70 31.2927 70 45.0977C70 58.9027 58.805 70.0977 45 70.0977Z" fill="url(#paint0_linear_291_6141)"/>
<path d="M45.0966 31.1626C49.6338 31.1626 50.1717 31.1775 51.9647 31.2622C53.6231 31.3369 54.5246 31.6158 55.1223 31.8499C55.9142 32.1587 56.4819 32.5272 57.0746 33.1199C57.6673 33.7126 58.0358 34.2804 58.3446 35.0723C58.5787 35.6699 58.8526 36.5714 58.9323 38.2299C59.012 40.0229 59.0319 40.5607 59.0319 45.0979C59.0319 49.6352 59.017 50.173 58.9323 51.966C58.8576 53.6245 58.5787 54.526 58.3446 55.1236C58.0358 55.9155 57.6673 56.4833 57.0746 57.076C56.4819 57.6687 55.9142 58.0372 55.1223 58.346C54.5246 58.5801 53.6231 58.854 51.9647 58.9337C50.1717 59.0134 49.6338 59.0333 45.0966 59.0333C40.5594 59.0333 40.0215 59.0184 38.2285 58.9337C36.57 58.859 35.6686 58.5801 35.0709 58.346C34.279 58.0372 33.7112 57.6687 33.1186 57.076C32.5259 56.4833 32.1573 55.9155 31.8485 55.1236C31.6145 54.526 31.3405 53.6245 31.2608 51.966C31.1812 50.173 31.1612 49.6352 31.1612 45.0979C31.1612 40.5607 31.1762 40.0229 31.2608 38.2299C31.3355 36.5714 31.6145 35.6699 31.8485 35.0723C32.1573 34.2804 32.5259 33.7126 33.1186 33.1199C33.7112 32.5272 34.279 32.1587 35.0709 31.8499C35.6686 31.6158 36.57 31.3419 38.2285 31.2622C40.0215 31.1775 40.5594 31.1626 45.0966 31.1626ZM45.0966 28.0996C40.4797 28.0996 39.902 28.1195 38.0891 28.2042C36.2812 28.2889 35.046 28.5728 33.9603 28.9961C32.8446 29.4244 31.8934 30.0071 30.9521 30.9534C30.0058 31.8997 29.428 32.846 28.9897 33.9666C28.5714 35.0474 28.2825 36.2825 28.1979 38.0954C28.1132 39.9083 28.0933 40.486 28.0933 45.1029C28.0933 49.7198 28.1132 50.2976 28.1979 52.1105C28.2825 53.9184 28.5664 55.1535 28.9897 56.2393C29.423 57.3499 30.0058 58.3012 30.9521 59.2425C31.8983 60.1888 32.8446 60.7665 33.9652 61.2048C35.046 61.6231 36.2812 61.912 38.094 61.9967C39.9069 62.0813 40.4847 62.1013 45.1016 62.1013C49.7185 62.1013 50.2962 62.0813 52.1091 61.9967C53.917 61.912 55.1521 61.6281 56.2379 61.2048C57.3485 60.7715 58.2998 60.1888 59.2411 59.2425C60.1874 58.2962 60.7651 57.3499 61.2034 56.2293C61.6218 55.1485 61.9106 53.9134 61.9953 52.1005C62.08 50.2876 62.0999 49.7099 62.0999 45.093C62.0999 40.4761 62.08 39.8983 61.9953 38.0855C61.9106 36.2775 61.6268 35.0424 61.2034 33.9566C60.7701 32.846 60.1874 31.8947 59.2411 30.9534C58.2948 30.0071 57.3485 29.4294 56.2279 28.9911C55.1472 28.5728 53.912 28.2839 52.0991 28.1992C50.2912 28.1195 49.7135 28.0996 45.0966 28.0996Z" fill="white"/>
<path d="M45.0982 36.3667C40.2771 36.3667 36.3674 40.2764 36.3674 45.0975C36.3674 49.9186 40.2771 53.8282 45.0982 53.8282C49.9193 53.8282 53.829 49.9186 53.829 45.0975C53.829 40.2764 49.9193 36.3667 45.0982 36.3667ZM45.0982 50.7652C41.9705 50.7652 39.4304 48.2302 39.4304 45.0975C39.4304 41.9647 41.9705 39.4297 45.0982 39.4297C48.2259 39.4297 50.766 41.9647 50.766 45.0975C50.766 48.2302 48.2259 50.7652 45.0982 50.7652Z" fill="white"/>
<path d="M54.1709 38.0654C55.2987 38.0654 56.2129 37.1512 56.2129 36.0234C56.2129 34.8957 55.2987 33.9814 54.1709 33.9814C53.0431 33.9814 52.1289 34.8957 52.1289 36.0234C52.1289 37.1512 53.0431 38.0654 54.1709 38.0654Z" fill="white"/>
</g>
<defs>
<linearGradient id="paint0_linear_291_6141" x1="27.3223" y1="62.7753" x2="62.6777" y2="27.42" gradientUnits="userSpaceOnUse">
<stop stop-color="#FFD521"/>
<stop offset="0.0551048" stop-color="#FFD020"/>
<stop offset="0.1241" stop-color="#FEC01E"/>
<stop offset="0.2004" stop-color="#FCA71B"/>
<stop offset="0.2821" stop-color="#FA8316"/>
<stop offset="0.3681" stop-color="#F85510"/>
<stop offset="0.4563" stop-color="#F51E09"/>
<stop offset="0.5" stop-color="#F30005"/>
<stop offset="0.5035" stop-color="#F20007"/>
<stop offset="0.5966" stop-color="#E1003B"/>
<stop offset="0.6879" stop-color="#D30067"/>
<stop offset="0.7757" stop-color="#C70088"/>
<stop offset="0.8589" stop-color="#BF00A0"/>
<stop offset="0.9357" stop-color="#BB00AF"/>
<stop offset="1" stop-color="#B900B4"/>
</linearGradient>
<clipPath id="clip0_291_6141">
<rect width="50" height="50" fill="white" transform="translate(20 20)"/>
</clipPath>
</defs>
</svg>
