<svg width="269" height="190" viewBox="0 0 269 190" fill="none" xmlns="http://www.w3.org/2000/svg">
<path d="M16.7959 13.3711C16.7959 15.8047 16.0986 17.7393 14.7041 19.1748C13.3096 20.6035 11.3818 21.3179 8.9209 21.3179C6.4668 21.3179 4.54248 20.6035 3.14795 19.1748C1.75342 17.7393 1.05615 15.8047 1.05615 13.3711C1.05615 10.917 1.75342 8.979 3.14795 7.55713C4.54248 6.12842 6.4668 5.41406 8.9209 5.41406C11.3682 5.41406 13.2925 6.12842 14.6938 7.55713C16.0952 8.979 16.7959 10.917 16.7959 13.3711ZM11.5767 17.2368C11.9595 16.772 12.2432 16.2251 12.4277 15.5962C12.6123 14.9604 12.7046 14.2153 12.7046 13.3608C12.7046 12.4448 12.5986 11.6655 12.3867 11.0229C12.1748 10.3804 11.8979 9.86084 11.5562 9.46436C11.2075 9.0542 10.8042 8.75684 10.3462 8.57227C9.89502 8.3877 9.42334 8.29541 8.93115 8.29541C8.43213 8.29541 7.96045 8.38428 7.51611 8.56201C7.07861 8.73975 6.67529 9.03369 6.30615 9.44385C5.96436 9.82666 5.68408 10.3564 5.46533 11.0332C5.25342 11.7031 5.14746 12.4824 5.14746 13.3711C5.14746 14.2803 5.25 15.0562 5.45508 15.6987C5.66699 16.3345 5.94385 16.854 6.28564 17.2573C6.62744 17.6606 7.02734 17.958 7.48535 18.1494C7.94336 18.3408 8.42529 18.4365 8.93115 18.4365C9.43701 18.4365 9.91895 18.3408 10.377 18.1494C10.835 17.9512 11.2349 17.647 11.5767 17.2368ZM31.8281 21H27.5625L24.4761 16.437H23.2969V21H19.6055V9.48486H23.2969V14.1094C23.9805 14.1025 24.4521 14.0308 24.7119 13.894C24.9717 13.7505 25.2725 13.3779 25.6143 12.7764C25.7168 12.5986 25.8398 12.3696 25.9834 12.0894C26.127 11.8091 26.2397 11.5938 26.3218 11.4434C26.6978 10.7734 27.1353 10.2778 27.6343 9.95654C28.1401 9.62842 28.8408 9.46436 29.7363 9.46436C29.9961 9.46436 30.2695 9.46777 30.5566 9.47461C30.8506 9.48145 31.0488 9.48486 31.1514 9.48486V12.561H30.1465C29.7363 12.561 29.4082 12.6636 29.1621 12.8687C28.9229 13.0737 28.7144 13.3779 28.5366 13.7812C28.3862 14.1162 28.2495 14.3828 28.1265 14.5811C28.0034 14.7725 27.8462 14.9365 27.6548 15.0732L31.8281 21ZM38.8931 16.9292L41.5181 9.48486H45.312L38.9136 25.2246H34.9146L36.7397 20.918L32.2588 9.48486H36.1348L38.8931 16.9292ZM58.2012 21H54.52V17.001H52.8691L50.1108 21H45.9785L49.2803 16.4883C48.5078 16.1396 47.9199 15.7021 47.5166 15.1758C47.1201 14.6426 46.9219 13.9077 46.9219 12.9712C46.9219 12.3354 47.0449 11.8022 47.291 11.3716C47.5439 10.9409 47.8823 10.5718 48.3062 10.2642C48.6821 10.0044 49.123 9.80957 49.6289 9.67969C50.1416 9.5498 50.7124 9.48486 51.3413 9.48486H58.2012V21ZM54.52 14.7451V11.874H52.3359C51.8301 11.874 51.4336 11.9902 51.1465 12.2227C50.8662 12.4482 50.7261 12.7798 50.7261 13.2173C50.7261 13.7573 50.8662 14.147 51.1465 14.3862C51.4268 14.6255 51.8438 14.7451 52.3975 14.7451H54.52ZM73.1001 21H69.4087V12.0586H66.3633C66.3428 12.5713 66.3257 12.9712 66.312 13.2583C66.3052 13.5386 66.2949 13.8667 66.2812 14.2427C66.2334 15.3433 66.1411 16.2388 66.0044 16.9292C65.8677 17.6196 65.6934 18.1836 65.4814 18.6211C65.2764 19.0654 65.0542 19.4175 64.8149 19.6772C64.5825 19.937 64.3467 20.1626 64.1074 20.354C63.834 20.5728 63.4751 20.7471 63.0308 20.877C62.5933 21.0068 62.1694 21.0718 61.7593 21.0718C61.438 21.0718 61.1133 21.0581 60.7852 21.0308C60.457 21.0103 60.2622 21 60.2007 21V18.0469H60.3135C60.3408 18.0469 60.3887 18.0503 60.457 18.0571C60.5254 18.064 60.5938 18.0674 60.6621 18.0674C60.8398 18.0674 61.021 18.0503 61.2056 18.0161C61.397 17.9819 61.5542 17.9067 61.6772 17.7905C62.1353 17.353 62.4395 16.8062 62.5898 16.1499C62.7471 15.4868 62.8599 14.5093 62.9282 13.2173C62.9556 12.7388 62.9829 12.1919 63.0103 11.5767C63.0376 10.9614 63.0615 10.2642 63.082 9.48486H73.1001V21ZM83.5693 17.9956V15.5962C83.0703 15.6372 82.5303 15.6953 81.9492 15.7705C81.3682 15.8389 80.9272 15.9209 80.6265 16.0166C80.2573 16.1328 79.9736 16.3037 79.7754 16.5293C79.584 16.748 79.4883 17.0386 79.4883 17.4009C79.4883 17.6401 79.5088 17.835 79.5498 17.9854C79.5908 18.1357 79.6934 18.2793 79.8574 18.416C80.0146 18.5527 80.2026 18.6553 80.4214 18.7236C80.6401 18.7852 80.9819 18.8159 81.4468 18.8159C81.8159 18.8159 82.1885 18.7407 82.5645 18.5903C82.9473 18.4399 83.2822 18.2417 83.5693 17.9956ZM83.5693 19.7798C83.3711 19.9302 83.125 20.1113 82.8311 20.3232C82.5371 20.5352 82.2603 20.7026 82.0005 20.8257C81.6382 20.9897 81.2622 21.1094 80.8726 21.1846C80.4829 21.2666 80.0557 21.3076 79.5908 21.3076C78.4971 21.3076 77.5811 20.9692 76.8428 20.2925C76.1045 19.6157 75.7354 18.751 75.7354 17.6982C75.7354 16.8574 75.9233 16.1704 76.2993 15.6372C76.6753 15.104 77.2085 14.6836 77.8989 14.376C78.5825 14.0684 79.4302 13.8496 80.4419 13.7197C81.4536 13.5898 82.5029 13.4941 83.5898 13.4326V13.3711C83.5898 12.7354 83.3301 12.2979 82.8105 12.0586C82.291 11.8125 81.5254 11.6895 80.5137 11.6895C79.9053 11.6895 79.2559 11.7988 78.5654 12.0176C77.875 12.2295 77.3794 12.3936 77.0786 12.5098H76.7402V9.73096C77.1299 9.62842 77.7622 9.50879 78.6372 9.37207C79.519 9.22852 80.4009 9.15674 81.2827 9.15674C83.3813 9.15674 84.8955 9.48145 85.8252 10.1309C86.7617 10.7734 87.23 11.7852 87.23 13.166V21H83.5693V19.7798ZM102.642 15.0835C102.642 16.0337 102.495 16.8984 102.201 17.6777C101.914 18.457 101.534 19.0996 101.062 19.6055C100.57 20.1387 100.013 20.542 99.3911 20.8154C98.769 21.0889 98.1025 21.2256 97.3916 21.2256C96.7354 21.2256 96.1782 21.1538 95.7202 21.0103C95.2622 20.8735 94.7939 20.6787 94.3154 20.4258V25.2246H90.624V9.48486H94.3154V10.6846C94.8828 10.2334 95.4604 9.86768 96.0483 9.5874C96.6431 9.30713 97.3267 9.16699 98.0991 9.16699C99.5347 9.16699 100.649 9.69336 101.442 10.7461C102.242 11.7988 102.642 13.2446 102.642 15.0835ZM98.8374 15.1553C98.8374 14.0342 98.646 13.2207 98.2632 12.7148C97.8804 12.209 97.2754 11.9561 96.4482 11.9561C96.0996 11.9561 95.7407 12.0107 95.3716 12.1201C95.0024 12.2227 94.6504 12.373 94.3154 12.5713V18.3647C94.5615 18.4604 94.8247 18.522 95.105 18.5493C95.3853 18.5767 95.6621 18.5903 95.9355 18.5903C96.9131 18.5903 97.6411 18.3066 98.1196 17.7393C98.5981 17.165 98.8374 16.3037 98.8374 15.1553Z" fill="#333333"/>
<path d="M5 49L12.5 56.5L25 41.5" stroke="#61B857" stroke-width="2" stroke-linecap="round" stroke-linejoin="round"/>
<path d="M47.1396 48H45.793V39.8447L40.7344 48H39.3672V37.8213H40.7139V45.8535L45.7109 37.8213H47.1396V48ZM59.5127 48H49.7783V40.3643H51.0635V46.8926H54.0029V40.3643H55.2881V46.8926H58.2275V40.3643H59.5127V48ZM68.9326 48H67.251L64.0791 44.5H63.3818V48H62.0967V40.3643H63.3818V43.6592C63.8057 43.6592 64.1475 43.584 64.4072 43.4336C64.667 43.2786 64.888 43.0326 65.0703 42.6953C65.1341 42.5723 65.1956 42.4424 65.2549 42.3057C65.3187 42.1644 65.3802 42.0299 65.4395 41.9023C65.6764 41.3874 65.9727 41.0023 66.3281 40.7471C66.6836 40.4919 67.194 40.3643 67.8594 40.3643H68.4473V41.4717H67.8799C67.5199 41.4717 67.2373 41.5492 67.0322 41.7041C66.8317 41.8545 66.6494 42.1211 66.4854 42.5039C66.3031 42.9323 66.1094 43.2536 65.9043 43.4678C65.7038 43.6774 65.4896 43.8369 65.2617 43.9463L68.9326 48ZM76.7188 44.3154H71.0928C71.0928 44.7848 71.1634 45.195 71.3047 45.5459C71.446 45.8923 71.6396 46.1771 71.8857 46.4004C72.1227 46.6191 72.403 46.7832 72.7266 46.8926C73.0547 47.002 73.4147 47.0566 73.8066 47.0566C74.3262 47.0566 74.848 46.9541 75.3721 46.749C75.9007 46.5394 76.2767 46.3343 76.5 46.1338H76.5684V47.5352C76.1354 47.7174 75.6934 47.8701 75.2422 47.9932C74.791 48.1162 74.3171 48.1777 73.8203 48.1777C72.5534 48.1777 71.5645 47.8359 70.8535 47.1523C70.1426 46.4642 69.7871 45.4889 69.7871 44.2266C69.7871 42.9779 70.1266 41.9867 70.8057 41.2529C71.4893 40.5192 72.387 40.1523 73.499 40.1523C74.529 40.1523 75.3219 40.4531 75.8779 41.0547C76.4385 41.6562 76.7188 42.5107 76.7188 43.6182V44.3154ZM75.4678 43.3311C75.4632 42.6566 75.2923 42.1348 74.9551 41.7656C74.6224 41.3965 74.1143 41.2119 73.4307 41.2119C72.7425 41.2119 72.1934 41.4147 71.7832 41.8203C71.3776 42.2259 71.1475 42.7295 71.0928 43.3311H75.4678ZM85.3867 44.0898C85.3867 44.7096 85.2979 45.277 85.1201 45.792C84.9424 46.3024 84.6917 46.7354 84.3682 47.0908C84.0674 47.4281 83.7119 47.6901 83.3018 47.877C82.8962 48.0592 82.4655 48.1504 82.0098 48.1504C81.6133 48.1504 81.2533 48.1071 80.9297 48.0205C80.6107 47.9339 80.2848 47.7995 79.9521 47.6172V50.8164H78.667V40.3643H79.9521V41.1641C80.2939 40.877 80.6768 40.6377 81.1006 40.4463C81.529 40.2503 81.9847 40.1523 82.4678 40.1523C83.3883 40.1523 84.1038 40.501 84.6143 41.1982C85.1292 41.891 85.3867 42.8548 85.3867 44.0898ZM84.0605 44.124C84.0605 43.2035 83.9033 42.5153 83.5889 42.0596C83.2744 41.6038 82.7913 41.376 82.1396 41.376C81.7705 41.376 81.3991 41.4557 81.0254 41.6152C80.6517 41.7747 80.2939 41.9844 79.9521 42.2441V46.5713C80.3167 46.7354 80.6289 46.847 80.8887 46.9062C81.153 46.9655 81.4515 46.9951 81.7842 46.9951C82.4997 46.9951 83.0579 46.7536 83.459 46.2705C83.86 45.7874 84.0605 45.0719 84.0605 44.124ZM94.3213 49.832H93.125V47.9795H87.3828V49.832H86.1865V46.9062H87.0137C87.5469 46.0267 87.9434 45.0127 88.2031 43.8643C88.4674 42.7113 88.5996 41.5446 88.5996 40.3643H93.3984V46.9062H94.3213V49.832ZM92.1133 46.9062V41.4443H89.8096C89.7503 42.5882 89.5749 43.6318 89.2832 44.5752C88.9915 45.5186 88.6566 46.2956 88.2783 46.9062H92.1133ZM102.531 48H101.26V42.2646L97.2607 48H96.0986V40.3643H97.3701V46.0176L101.328 40.3643H102.531V48ZM111.958 48H110.276L107.104 44.5H106.407V48H105.122V40.3643H106.407V43.6592C106.831 43.6592 107.173 43.584 107.433 43.4336C107.692 43.2786 107.913 43.0326 108.096 42.6953C108.16 42.5723 108.221 42.4424 108.28 42.3057C108.344 42.1644 108.406 42.0299 108.465 41.9023C108.702 41.3874 108.998 41.0023 109.354 40.7471C109.709 40.4919 110.219 40.3643 110.885 40.3643H111.473V41.4717H110.905C110.545 41.4717 110.263 41.5492 110.058 41.7041C109.857 41.8545 109.675 42.1211 109.511 42.5039C109.328 42.9323 109.135 43.2536 108.93 43.4678C108.729 43.6774 108.515 43.8369 108.287 43.9463L111.958 48ZM130.408 48H128.754L125.172 43.3447H124.454V48H123.114V43.3447H122.383L118.801 48H117.229L121.282 42.7637C120.881 42.4993 120.562 42.1895 120.325 41.834C120.088 41.4785 119.897 41.0615 119.751 40.583C119.664 40.305 119.578 40.068 119.491 39.8721C119.409 39.6715 119.304 39.5075 119.177 39.3799C119.054 39.2568 118.896 39.168 118.705 39.1133C118.518 39.0586 118.288 39.0312 118.015 39.0312H117.604V37.8213H118.09C118.851 37.8213 119.434 37.9671 119.84 38.2588C120.245 38.5459 120.587 39.0837 120.865 39.8721C120.915 40.0088 120.975 40.1774 121.043 40.3779C121.111 40.5785 121.18 40.7607 121.248 40.9248C121.449 41.4033 121.711 41.7588 122.034 41.9912C122.362 42.2236 122.722 42.3581 123.114 42.3945V37.8213H124.454V42.4082C124.873 42.3809 125.247 42.2555 125.575 42.0322C125.908 41.8044 126.179 41.4352 126.389 40.9248C126.471 40.7243 126.544 40.5283 126.607 40.3369C126.676 40.141 126.73 39.986 126.771 39.8721C127.045 39.0882 127.387 38.5505 127.797 38.2588C128.212 37.9671 128.795 37.8213 129.547 37.8213H130.032V39.0312H129.622C129.321 39.0312 129.084 39.0586 128.911 39.1133C128.743 39.1634 128.59 39.2523 128.453 39.3799C128.321 39.5029 128.212 39.6693 128.125 39.8789C128.043 40.084 127.959 40.3187 127.872 40.583C127.681 41.1891 127.441 41.6471 127.154 41.957C126.872 42.2624 126.589 42.5039 126.307 42.6816L130.408 48ZM138.413 44.1855C138.413 45.4297 138.094 46.4118 137.456 47.1318C136.818 47.8519 135.964 48.2119 134.893 48.2119C133.812 48.2119 132.953 47.8519 132.315 47.1318C131.682 46.4118 131.365 45.4297 131.365 44.1855C131.365 42.9414 131.682 41.9593 132.315 41.2393C132.953 40.5146 133.812 40.1523 134.893 40.1523C135.964 40.1523 136.818 40.5146 137.456 41.2393C138.094 41.9593 138.413 42.9414 138.413 44.1855ZM137.087 44.1855C137.087 43.1966 136.893 42.4629 136.506 41.9844C136.118 41.5013 135.581 41.2598 134.893 41.2598C134.195 41.2598 133.653 41.5013 133.266 41.9844C132.883 42.4629 132.691 43.1966 132.691 44.1855C132.691 45.1426 132.885 45.8695 133.272 46.3662C133.66 46.8584 134.2 47.1045 134.893 47.1045C135.576 47.1045 136.112 46.8607 136.499 46.373C136.891 45.8809 137.087 45.1517 137.087 44.1855ZM146.568 48H145.283V41.4443H142.433C142.419 41.8226 142.405 42.1872 142.392 42.5381C142.378 42.889 142.364 43.2057 142.351 43.4883C142.319 44.2493 142.266 44.8577 142.193 45.3135C142.12 45.7646 142.025 46.1406 141.906 46.4414C141.797 46.724 141.674 46.9541 141.537 47.1318C141.405 47.305 141.261 47.4622 141.106 47.6035C140.951 47.7402 140.778 47.8428 140.587 47.9111C140.4 47.9795 140.195 48.0137 139.972 48.0137C139.894 48.0137 139.78 48.0114 139.63 48.0068C139.484 48.0023 139.388 48 139.343 48V46.8789H139.411C139.448 46.8789 139.5 46.8812 139.568 46.8857C139.637 46.8903 139.694 46.8926 139.739 46.8926C139.849 46.8926 139.96 46.8766 140.074 46.8447C140.193 46.8128 140.293 46.7536 140.375 46.667C140.607 46.4391 140.794 46.054 140.936 45.5117C141.077 44.9694 141.17 44.1855 141.216 43.1602C141.234 42.7865 141.25 42.3444 141.264 41.834C141.282 41.319 141.298 40.8291 141.312 40.3643H146.568V48ZM155.708 40.3643L151.251 50.8164H149.877L151.299 47.6309L148.257 40.3643H149.651L151.996 46.0244L154.361 40.3643H155.708ZM162.653 41.4922H158.675V48H157.39V40.3643H162.653V41.4922ZM170.597 40.3643L166.14 50.8164H164.766L166.188 47.6309L163.146 40.3643H164.54L166.885 46.0244L169.25 40.3643H170.597ZM182.013 48H172.278V40.3643H173.563V46.8926H176.503V40.3643H177.788V46.8926H180.728V40.3643H182.013V48ZM191.146 40.3643L186.688 50.8164H185.314L186.736 47.6309L183.694 40.3643H185.089L187.434 46.0244L189.799 40.3643H191.146ZM199.431 40.3643L194.974 50.8164H193.6L195.021 47.6309L191.979 40.3643H193.374L195.719 46.0244L198.084 40.3643H199.431ZM207.271 48H205.986V41.4443H203.136C203.122 41.8226 203.108 42.1872 203.095 42.5381C203.081 42.889 203.067 43.2057 203.054 43.4883C203.022 44.2493 202.969 44.8577 202.896 45.3135C202.824 45.7646 202.728 46.1406 202.609 46.4414C202.5 46.724 202.377 46.9541 202.24 47.1318C202.108 47.305 201.965 47.4622 201.81 47.6035C201.655 47.7402 201.481 47.8428 201.29 47.9111C201.103 47.9795 200.898 48.0137 200.675 48.0137C200.597 48.0137 200.483 48.0114 200.333 48.0068C200.187 48.0023 200.091 48 200.046 48V46.8789H200.114C200.151 46.8789 200.203 46.8812 200.271 46.8857C200.34 46.8903 200.397 46.8926 200.442 46.8926C200.552 46.8926 200.663 46.8766 200.777 46.8447C200.896 46.8128 200.996 46.7536 201.078 46.667C201.311 46.4391 201.497 46.054 201.639 45.5117C201.78 44.9694 201.873 44.1855 201.919 43.1602C201.937 42.7865 201.953 42.3444 201.967 41.834C201.985 41.319 202.001 40.8291 202.015 40.3643H207.271V48ZM215.741 48H214.463V47.1865C214.349 47.264 214.194 47.3734 213.998 47.5146C213.807 47.6514 213.62 47.7607 213.438 47.8428C213.223 47.9476 212.977 48.0342 212.699 48.1025C212.421 48.1755 212.095 48.2119 211.722 48.2119C211.034 48.2119 210.45 47.984 209.972 47.5283C209.493 47.0726 209.254 46.4915 209.254 45.7852C209.254 45.2064 209.377 44.7393 209.623 44.3838C209.874 44.0238 210.229 43.7412 210.689 43.5361C211.154 43.3311 211.713 43.1921 212.364 43.1191C213.016 43.0462 213.715 42.9915 214.463 42.9551V42.7568C214.463 42.4652 214.41 42.2236 214.306 42.0322C214.205 41.8408 214.06 41.6904 213.868 41.5811C213.686 41.4762 213.467 41.4056 213.212 41.3691C212.957 41.3327 212.69 41.3145 212.412 41.3145C212.075 41.3145 211.699 41.36 211.284 41.4512C210.869 41.5378 210.441 41.6654 209.999 41.834H209.931V40.5283C210.181 40.46 210.544 40.3848 211.018 40.3027C211.492 40.2207 211.959 40.1797 212.419 40.1797C212.957 40.1797 213.424 40.2253 213.82 40.3164C214.221 40.403 214.568 40.5534 214.859 40.7676C215.146 40.9772 215.365 41.2484 215.516 41.5811C215.666 41.9137 215.741 42.3262 215.741 42.8184V48ZM214.463 46.1201V43.9941C214.071 44.0169 213.608 44.0511 213.075 44.0967C212.547 44.1423 212.127 44.2083 211.817 44.2949C211.448 44.3997 211.15 44.5638 210.922 44.7871C210.694 45.0059 210.58 45.3089 210.58 45.6963C210.58 46.1338 210.712 46.4642 210.977 46.6875C211.241 46.9062 211.644 47.0156 212.187 47.0156C212.638 47.0156 213.05 46.929 213.424 46.7559C213.798 46.5781 214.144 46.3662 214.463 46.1201ZM224.936 44.0898C224.936 44.7096 224.847 45.277 224.669 45.792C224.491 46.3024 224.241 46.7354 223.917 47.0908C223.616 47.4281 223.261 47.6901 222.851 47.877C222.445 48.0592 222.014 48.1504 221.559 48.1504C221.162 48.1504 220.802 48.1071 220.479 48.0205C220.16 47.9339 219.834 47.7995 219.501 47.6172V50.8164H218.216V40.3643H219.501V41.1641C219.843 40.877 220.226 40.6377 220.649 40.4463C221.078 40.2503 221.534 40.1523 222.017 40.1523C222.937 40.1523 223.653 40.501 224.163 41.1982C224.678 41.891 224.936 42.8548 224.936 44.0898ZM223.609 44.124C223.609 43.2035 223.452 42.5153 223.138 42.0596C222.823 41.6038 222.34 41.376 221.688 41.376C221.319 41.376 220.948 41.4557 220.574 41.6152C220.201 41.7747 219.843 41.9844 219.501 42.2441V46.5713C219.866 46.7354 220.178 46.847 220.438 46.9062C220.702 46.9655 221 46.9951 221.333 46.9951C222.049 46.9951 222.607 46.7536 223.008 46.2705C223.409 45.7874 223.609 45.0719 223.609 44.124ZM233.87 49.832H232.674V47.9795H226.932V49.832H225.735V46.9062H226.562C227.096 46.0267 227.492 45.0127 227.752 43.8643C228.016 42.7113 228.148 41.5446 228.148 40.3643H232.947V46.9062H233.87V49.832ZM231.662 46.9062V41.4443H229.358C229.299 42.5882 229.124 43.6318 228.832 44.5752C228.54 45.5186 228.205 46.2956 227.827 46.9062H231.662ZM240.351 45.6553C240.351 45.4229 240.31 45.2201 240.228 45.0469C240.15 44.8691 240.02 44.7256 239.838 44.6162C239.646 44.5023 239.428 44.4339 239.182 44.4111C238.94 44.3883 238.591 44.377 238.136 44.377H236.933V46.9746H238.108C238.564 46.9746 238.917 46.9564 239.168 46.9199C239.419 46.8789 239.635 46.8037 239.817 46.6943C240.004 46.5758 240.139 46.4368 240.221 46.2773C240.307 46.1133 240.351 45.9059 240.351 45.6553ZM241.677 45.6348C241.677 46.0039 241.602 46.3389 241.451 46.6396C241.305 46.9404 241.105 47.1842 240.85 47.3711C240.549 47.599 240.228 47.7607 239.886 47.8564C239.544 47.9521 239.104 48 238.566 48H235.647V40.3643H236.933V43.3379H238.601C239.175 43.3379 239.619 43.3675 239.934 43.4268C240.253 43.486 240.569 43.6318 240.884 43.8643C241.148 44.0602 241.346 44.3109 241.479 44.6162C241.611 44.9215 241.677 45.2611 241.677 45.6348ZM242.955 40.3643H244.24V48H242.955V40.3643ZM46.5723 54.8213L42.7031 63.3867C42.5482 63.7331 42.3636 64.0179 42.1494 64.2412C41.9398 64.4645 41.7119 64.6377 41.4658 64.7607C41.2288 64.8747 40.9987 64.9521 40.7754 64.9932C40.5566 65.0296 40.3447 65.0479 40.1396 65.0479C39.9574 65.0479 39.7363 65.0387 39.4766 65.0205C39.2168 65.0023 39.0505 64.9909 38.9775 64.9863V63.7217H39.0732C39.1416 63.7308 39.2555 63.7467 39.415 63.7695C39.5745 63.7878 39.7568 63.7969 39.9619 63.7969C40.0531 63.7969 40.1807 63.79 40.3447 63.7764C40.5088 63.7627 40.6546 63.7308 40.7822 63.6807C40.9281 63.626 41.0716 63.5394 41.2129 63.4209C41.3587 63.3024 41.4818 63.1292 41.582 62.9014L41.8281 62.3613L38.041 54.8213H39.5381L42.5117 60.8232L45.1777 54.8213H46.5723ZM56.3066 61.1855C56.3066 60.2057 56.1175 59.4743 55.7393 58.9912C55.361 58.5036 54.8369 58.2598 54.167 58.2598C53.4697 58.2598 52.9365 58.515 52.5674 59.0254C52.2028 59.5312 52.0205 60.2513 52.0205 61.1855C52.0205 62.1517 52.2119 62.8809 52.5947 63.373C52.9775 63.8607 53.5016 64.1045 54.167 64.1045C54.8324 64.1045 55.3542 63.863 55.7324 63.3799C56.1152 62.8923 56.3066 62.1608 56.3066 61.1855ZM50.749 61.541H49.1631V65H47.8779V57.3643H49.1631V60.4609H50.7832C50.8971 59.4082 51.264 58.5947 51.8838 58.0205C52.5081 57.4417 53.2738 57.1523 54.1807 57.1523C55.2334 57.1523 56.0719 57.5124 56.6963 58.2324C57.3206 58.9525 57.6328 59.9368 57.6328 61.1855C57.6328 62.4206 57.3252 63.4004 56.71 64.125C56.0947 64.8496 55.2516 65.2119 54.1807 65.2119C53.1689 65.2119 52.3577 64.8838 51.7471 64.2275C51.141 63.5713 50.8083 62.6758 50.749 61.541ZM69.3564 65H59.6221V57.3643H60.9072V63.8926H63.8467V57.3643H65.1318V63.8926H68.0713V57.3643H69.3564V65ZM77.498 58.4922H74.7363V65H73.4512V58.4922H70.6895V57.3643H77.498V58.4922ZM85.4346 57.3643L80.9775 67.8164H79.6035L81.0254 64.6309L77.9834 57.3643H79.3779L81.7227 63.0244L84.0879 57.3643H85.4346ZM93.8359 61.0898C93.8359 61.7096 93.7471 62.277 93.5693 62.792C93.3916 63.3024 93.141 63.7354 92.8174 64.0908C92.5166 64.4281 92.1611 64.6901 91.751 64.877C91.3454 65.0592 90.9147 65.1504 90.459 65.1504C90.0625 65.1504 89.7025 65.1071 89.3789 65.0205C89.0599 64.9339 88.734 64.7995 88.4014 64.6172V67.8164H87.1162V57.3643H88.4014V58.1641C88.7432 57.877 89.126 57.6377 89.5498 57.4463C89.9782 57.2503 90.4339 57.1523 90.917 57.1523C91.8376 57.1523 92.5531 57.501 93.0635 58.1982C93.5785 58.891 93.8359 59.8548 93.8359 61.0898ZM92.5098 61.124C92.5098 60.2035 92.3525 59.5153 92.0381 59.0596C91.7236 58.6038 91.2406 58.376 90.5889 58.376C90.2197 58.376 89.8483 58.4557 89.4746 58.6152C89.1009 58.7747 88.7432 58.9844 88.4014 59.2441V63.5713C88.766 63.7354 89.0781 63.847 89.3379 63.9062C89.6022 63.9655 89.9007 63.9951 90.2334 63.9951C90.9489 63.9951 91.5072 63.7536 91.9082 63.2705C92.3092 62.7874 92.5098 62.0719 92.5098 61.124ZM102.442 57.3643L97.9854 67.8164H96.6113L98.0332 64.6309L94.9912 57.3643H96.3857L98.7305 63.0244L101.096 57.3643H102.442ZM110.728 57.3643L106.271 67.8164H104.896L106.318 64.6309L103.276 57.3643H104.671L107.016 63.0244L109.381 57.3643H110.728Z" fill="#333333"/>
<path d="M5 91L12.5 98.5L25 83.5" stroke="#61B857" stroke-width="2" stroke-linecap="round" stroke-linejoin="round"/>
<path d="M47.0508 86.8486C47.0508 87.3408 46.9528 87.7874 46.7568 88.1885C46.5654 88.5895 46.3079 88.9154 45.9844 89.166C45.6016 89.4668 45.1914 89.681 44.7539 89.8086C44.3164 89.9362 43.7513 90 43.0586 90H39.3672V79.8213H46.1826V81.0244H40.7207V83.8135H43.0996C43.7923 83.8135 44.3574 83.8545 44.7949 83.9365C45.2324 84.014 45.6449 84.2031 46.0322 84.5039C46.3786 84.7728 46.6338 85.1055 46.7979 85.502C46.9665 85.8984 47.0508 86.3473 47.0508 86.8486ZM45.6357 86.876C45.6357 86.5342 45.5788 86.2334 45.4648 85.9736C45.3509 85.7139 45.1732 85.5042 44.9316 85.3447C44.681 85.1761 44.3916 85.0736 44.0635 85.0371C43.7354 85.0007 43.2728 84.9824 42.6758 84.9824H40.7207V88.8447H42.6416C43.2477 88.8447 43.7126 88.8151 44.0361 88.7559C44.3643 88.6966 44.6514 88.5827 44.8975 88.4141C45.1527 88.2363 45.3395 88.029 45.458 87.792C45.5765 87.5505 45.6357 87.2451 45.6357 86.876ZM55.2949 90H54.0234V84.2646L50.0244 90H48.8623V82.3643H50.1338V88.0176L54.0918 82.3643H55.2949V90ZM63.1426 87.8604C63.1426 88.2887 63.0423 88.651 62.8418 88.9473C62.6458 89.2435 62.3929 89.4827 62.083 89.665C61.7731 89.8428 61.4313 89.9727 61.0576 90.0547C60.6839 90.1367 60.3102 90.1777 59.9365 90.1777C59.4079 90.1777 58.9043 90.1276 58.4258 90.0273C57.9473 89.9271 57.4756 89.7721 57.0107 89.5625V88.1543H57.0996C57.4323 88.446 57.8561 88.6715 58.3711 88.8311C58.8861 88.9906 59.3851 89.0703 59.8682 89.0703C60.096 89.0703 60.3307 89.0498 60.5723 89.0088C60.8138 88.9632 61.0234 88.8926 61.2012 88.7969C61.3926 88.6875 61.5452 88.5576 61.6592 88.4072C61.7731 88.2523 61.8301 88.0426 61.8301 87.7783C61.8301 87.5049 61.7731 87.2861 61.6592 87.1221C61.5498 86.958 61.3994 86.835 61.208 86.7529C61.0212 86.6709 60.7956 86.6208 60.5312 86.6025C60.2669 86.5843 60.0254 86.5752 59.8066 86.5752H58.6924V85.4678H59.4648C59.6471 85.4678 59.8841 85.4609 60.1758 85.4473C60.472 85.4336 60.7113 85.3971 60.8936 85.3379C61.1305 85.2604 61.3174 85.151 61.4541 85.0098C61.5954 84.8685 61.666 84.6429 61.666 84.333C61.666 84.1188 61.6113 83.9434 61.502 83.8066C61.3926 83.6654 61.2559 83.556 61.0918 83.4785C60.9232 83.401 60.734 83.3486 60.5244 83.3213C60.3193 83.2939 60.137 83.2803 59.9775 83.2803C59.5127 83.2803 59.0547 83.3441 58.6035 83.4717C58.1569 83.5947 57.7809 83.7747 57.4756 84.0117H57.3867V82.5967C57.765 82.4736 58.1706 82.3734 58.6035 82.2959C59.0365 82.2184 59.4694 82.1797 59.9023 82.1797C60.2578 82.1797 60.611 82.2116 60.9619 82.2754C61.3174 82.3392 61.6478 82.4486 61.9531 82.6035C62.2539 82.7585 62.5 82.9704 62.6914 83.2393C62.8828 83.5036 62.9785 83.8317 62.9785 84.2236C62.9785 84.6247 62.8532 84.9779 62.6025 85.2832C62.3564 85.584 62.0238 85.8005 61.6045 85.9326V85.9805C62.0739 86.0944 62.4476 86.3086 62.7256 86.623C63.0036 86.9329 63.1426 87.3454 63.1426 87.8604ZM71.5645 90H70.2793V86.5615H66.458V90H65.1729V82.3643H66.458V85.4541H70.2793V82.3643H71.5645V90ZM80.4922 86.3154H74.8662C74.8662 86.7848 74.9368 87.195 75.0781 87.5459C75.2194 87.8923 75.4131 88.1771 75.6592 88.4004C75.8962 88.6191 76.1764 88.7832 76.5 88.8926C76.8281 89.002 77.1882 89.0566 77.5801 89.0566C78.0996 89.0566 78.6214 88.9541 79.1455 88.749C79.6742 88.5394 80.0501 88.3343 80.2734 88.1338H80.3418V89.5352C79.9089 89.7174 79.4668 89.8701 79.0156 89.9932C78.5645 90.1162 78.0905 90.1777 77.5938 90.1777C76.3268 90.1777 75.3379 89.8359 74.627 89.1523C73.916 88.4642 73.5605 87.4889 73.5605 86.2266C73.5605 84.9779 73.9001 83.9867 74.5791 83.2529C75.2627 82.5192 76.1605 82.1523 77.2725 82.1523C78.3024 82.1523 79.0954 82.4531 79.6514 83.0547C80.2119 83.6562 80.4922 84.5107 80.4922 85.6182V86.3154ZM79.2412 85.3311C79.2367 84.6566 79.0658 84.1348 78.7285 83.7656C78.3958 83.3965 77.8877 83.2119 77.2041 83.2119C76.516 83.2119 75.9668 83.4147 75.5566 83.8203C75.151 84.2259 74.9209 84.7295 74.8662 85.3311H79.2412ZM88.1553 89.5215C87.6312 89.7676 87.18 89.9362 86.8018 90.0273C86.4281 90.123 86.0544 90.1709 85.6807 90.1709C85.1247 90.1709 84.6143 90.0911 84.1494 89.9316C83.6846 89.7676 83.2858 89.5215 82.9531 89.1934C82.6204 88.8652 82.3607 88.4505 82.1738 87.9492C81.9915 87.4479 81.9004 86.8623 81.9004 86.1924C81.9004 84.9756 82.2376 84.0049 82.9121 83.2803C83.5866 82.5511 84.5094 82.1865 85.6807 82.1865C86.1227 82.1865 86.5557 82.248 86.9795 82.3711C87.4079 82.4941 87.7998 82.6445 88.1553 82.8223V84.251H88.0801C87.6562 83.9274 87.237 83.6882 86.8223 83.5332C86.4121 83.3783 86.0133 83.3008 85.626 83.3008C84.8649 83.3008 84.2747 83.556 83.8555 84.0664C83.4408 84.5768 83.2334 85.2855 83.2334 86.1924C83.2334 87.0993 83.4408 87.8034 83.8555 88.3047C84.2702 88.806 84.8604 89.0566 85.626 89.0566C85.8949 89.0566 86.1615 89.0225 86.4258 88.9541C86.6947 88.8857 86.9385 88.7969 87.1572 88.6875C87.3304 88.6009 87.5081 88.4984 87.6904 88.3799C87.8773 88.2568 88.0072 88.1657 88.0801 88.1064H88.1553V89.5215ZM103.126 90H101.39L97.2539 85.3584H96.3311V90H94.9775V79.8213H96.3311V84.3877C96.5635 84.3831 96.7822 84.3604 96.9873 84.3193C97.1924 84.2783 97.3861 84.2008 97.5684 84.0869C97.7507 83.9821 97.9307 83.834 98.1084 83.6426C98.2861 83.4466 98.4434 83.2074 98.5801 82.9248C98.6393 82.8018 98.7077 82.6468 98.7852 82.46C98.8672 82.2731 98.9492 82.0771 99.0312 81.8721C99.3457 81.1156 99.7126 80.5846 100.132 80.2793C100.556 79.974 101.178 79.8213 101.998 79.8213H102.538V81.0312H101.971C101.656 81.0312 101.41 81.0609 101.232 81.1201C101.055 81.1748 100.895 81.2682 100.754 81.4004C100.622 81.5189 100.506 81.6784 100.405 81.8789C100.31 82.0794 100.209 82.3141 100.104 82.583C99.8675 83.1846 99.626 83.6266 99.3799 83.9092C99.1383 84.1917 98.8125 84.4378 98.4023 84.6475L103.126 90ZM111.056 86.1855C111.056 87.4297 110.737 88.4118 110.099 89.1318C109.461 89.8519 108.606 90.2119 107.535 90.2119C106.455 90.2119 105.596 89.8519 104.958 89.1318C104.325 88.4118 104.008 87.4297 104.008 86.1855C104.008 84.9414 104.325 83.9593 104.958 83.2393C105.596 82.5146 106.455 82.1523 107.535 82.1523C108.606 82.1523 109.461 82.5146 110.099 83.2393C110.737 83.9593 111.056 84.9414 111.056 86.1855ZM109.729 86.1855C109.729 85.1966 109.536 84.4629 109.148 83.9844C108.761 83.5013 108.223 83.2598 107.535 83.2598C106.838 83.2598 106.296 83.5013 105.908 83.9844C105.525 84.4629 105.334 85.1966 105.334 86.1855C105.334 87.1426 105.528 87.8695 105.915 88.3662C106.302 88.8584 106.842 89.1045 107.535 89.1045C108.219 89.1045 108.754 88.8607 109.142 88.373C109.534 87.8809 109.729 87.1517 109.729 86.1855ZM119.443 90H118.158V86.5615H114.337V90H113.052V82.3643H114.337V85.4541H118.158V82.3643H119.443V90ZM131.728 85.9805C131.728 86.6595 131.641 87.2611 131.468 87.7852C131.295 88.3047 131.064 88.7331 130.777 89.0703C130.495 89.4076 130.169 89.665 129.8 89.8428C129.431 90.0205 129.043 90.1094 128.638 90.1094C128.332 90.1094 128.066 90.057 127.838 89.9521C127.615 89.8473 127.414 89.7516 127.236 89.665V92.8164H125.965V89.665C125.687 89.8018 125.457 89.9111 125.274 89.9932C125.097 90.0706 124.816 90.1094 124.434 90.1094C123.554 90.1094 122.841 89.7653 122.294 89.0771C121.747 88.389 121.474 87.432 121.474 86.2061C121.474 85.5635 121.562 84.9915 121.74 84.4902C121.918 83.9844 122.15 83.5605 122.438 83.2188C122.715 82.8861 123.041 82.6331 123.415 82.46C123.793 82.2822 124.169 82.1934 124.543 82.1934C124.816 82.1934 125.065 82.2367 125.288 82.3232C125.516 82.4053 125.742 82.5146 125.965 82.6514V79.3633H127.236V82.6514C127.446 82.5283 127.692 82.4212 127.975 82.3301C128.257 82.2389 128.542 82.1934 128.829 82.1934C129.731 82.1934 130.44 82.5352 130.955 83.2188C131.47 83.8978 131.728 84.8184 131.728 85.9805ZM130.408 86.124C130.408 85.2536 130.253 84.5654 129.943 84.0596C129.633 83.5537 129.169 83.3008 128.549 83.3008C128.298 83.3008 128.089 83.3213 127.92 83.3623C127.751 83.4033 127.523 83.4808 127.236 83.5947V88.6875C127.451 88.7878 127.628 88.8675 127.77 88.9268C127.915 88.9814 128.12 89.0088 128.385 89.0088C129.027 89.0088 129.524 88.7627 129.875 88.2705C130.23 87.7738 130.408 87.0583 130.408 86.124ZM125.965 88.6875V83.5947C125.787 83.5127 125.607 83.4443 125.425 83.3896C125.243 83.3304 125.04 83.3008 124.816 83.3008C124.201 83.3008 123.709 83.5355 123.34 84.0049C122.975 84.4743 122.793 85.1875 122.793 86.1445C122.793 87.0332 122.955 87.7327 123.278 88.2432C123.606 88.7536 124.078 89.0088 124.693 89.0088C124.935 89.0088 125.158 88.9769 125.363 88.9131C125.573 88.8447 125.773 88.7695 125.965 88.6875ZM140.143 86.3154H134.517C134.517 86.7848 134.587 87.195 134.729 87.5459C134.87 87.8923 135.063 88.1771 135.31 88.4004C135.547 88.6191 135.827 88.7832 136.15 88.8926C136.479 89.002 136.839 89.0566 137.23 89.0566C137.75 89.0566 138.272 88.9541 138.796 88.749C139.325 88.5394 139.701 88.3343 139.924 88.1338H139.992V89.5352C139.559 89.7174 139.117 89.8701 138.666 89.9932C138.215 90.1162 137.741 90.1777 137.244 90.1777C135.977 90.1777 134.988 89.8359 134.277 89.1523C133.566 88.4642 133.211 87.4889 133.211 86.2266C133.211 84.9779 133.55 83.9867 134.229 83.2529C134.913 82.5192 135.811 82.1523 136.923 82.1523C137.953 82.1523 138.746 82.4531 139.302 83.0547C139.862 83.6562 140.143 84.5107 140.143 85.6182V86.3154ZM138.892 85.3311C138.887 84.6566 138.716 84.1348 138.379 83.7656C138.046 83.3965 137.538 83.2119 136.854 83.2119C136.166 83.2119 135.617 83.4147 135.207 83.8203C134.801 84.2259 134.571 84.7295 134.517 85.3311H138.892ZM148.811 86.0898C148.811 86.7096 148.722 87.277 148.544 87.792C148.366 88.3024 148.116 88.7354 147.792 89.0908C147.491 89.4281 147.136 89.6901 146.726 89.877C146.32 90.0592 145.889 90.1504 145.434 90.1504C145.037 90.1504 144.677 90.1071 144.354 90.0205C144.035 89.9339 143.709 89.7995 143.376 89.6172V92.8164H142.091V82.3643H143.376V83.1641C143.718 82.877 144.101 82.6377 144.524 82.4463C144.953 82.2503 145.409 82.1523 145.892 82.1523C146.812 82.1523 147.528 82.501 148.038 83.1982C148.553 83.891 148.811 84.8548 148.811 86.0898ZM147.484 86.124C147.484 85.2035 147.327 84.5153 147.013 84.0596C146.698 83.6038 146.215 83.376 145.563 83.376C145.194 83.376 144.823 83.4557 144.449 83.6152C144.076 83.7747 143.718 83.9844 143.376 84.2441V88.5713C143.741 88.7354 144.053 88.847 144.312 88.9062C144.577 88.9655 144.875 88.9951 145.208 88.9951C145.924 88.9951 146.482 88.7536 146.883 88.2705C147.284 87.7874 147.484 87.0719 147.484 86.124ZM157.205 86.3154H151.579C151.579 86.7848 151.65 87.195 151.791 87.5459C151.932 87.8923 152.126 88.1771 152.372 88.4004C152.609 88.6191 152.889 88.7832 153.213 88.8926C153.541 89.002 153.901 89.0566 154.293 89.0566C154.812 89.0566 155.334 88.9541 155.858 88.749C156.387 88.5394 156.763 88.3343 156.986 88.1338H157.055V89.5352C156.622 89.7174 156.18 89.8701 155.729 89.9932C155.277 90.1162 154.803 90.1777 154.307 90.1777C153.04 90.1777 152.051 89.8359 151.34 89.1523C150.629 88.4642 150.273 87.4889 150.273 86.2266C150.273 84.9779 150.613 83.9867 151.292 83.2529C151.976 82.5192 152.873 82.1523 153.985 82.1523C155.015 82.1523 155.808 82.4531 156.364 83.0547C156.925 83.6562 157.205 84.5107 157.205 85.6182V86.3154ZM155.954 85.3311C155.95 84.6566 155.779 84.1348 155.441 83.7656C155.109 83.3965 154.601 83.2119 153.917 83.2119C153.229 83.2119 152.68 83.4147 152.27 83.8203C151.864 84.2259 151.634 84.7295 151.579 85.3311H155.954ZM165.545 90H164.26V86.5615H160.438V90H159.153V82.3643H160.438V85.4541H164.26V82.3643H165.545V90ZM174.138 90H168.081V82.3643H169.366V88.8926H173.126V82.3643H174.411V88.8926H175.334V91.832H174.138V90ZM183.537 90H182.266V84.2646L178.267 90H177.104V82.3643H178.376V88.0176L182.334 82.3643H183.537V90ZM191.938 90H190.653V86.9717H189.143L186.777 90H185.267L187.837 86.8486C187.176 86.6663 186.693 86.3883 186.388 86.0146C186.082 85.6364 185.93 85.1419 185.93 84.5312C185.93 84.1257 186.021 83.7816 186.203 83.499C186.385 83.2165 186.616 82.9863 186.894 82.8086C187.167 82.6354 187.481 82.5192 187.837 82.46C188.192 82.3962 188.58 82.3643 188.999 82.3643H191.938V90ZM190.653 85.96V83.3896H189.033C188.682 83.3896 188.429 83.401 188.274 83.4238C188.119 83.4466 187.951 83.5081 187.769 83.6084C187.591 83.7087 187.459 83.8454 187.372 84.0186C187.29 84.1872 187.249 84.3717 187.249 84.5723C187.249 84.8229 187.274 85.0257 187.324 85.1807C187.379 85.3356 187.488 85.4814 187.652 85.6182C187.821 85.7503 188.026 85.8415 188.268 85.8916C188.509 85.9372 188.778 85.96 189.074 85.96H190.653ZM200.627 90H199.342V83.4443H196.491C196.478 83.8226 196.464 84.1872 196.45 84.5381C196.437 84.889 196.423 85.2057 196.409 85.4883C196.377 86.2493 196.325 86.8577 196.252 87.3135C196.179 87.7646 196.083 88.1406 195.965 88.4414C195.855 88.724 195.732 88.9541 195.596 89.1318C195.464 89.305 195.32 89.4622 195.165 89.6035C195.01 89.7402 194.837 89.8428 194.646 89.9111C194.459 89.9795 194.254 90.0137 194.03 90.0137C193.953 90.0137 193.839 90.0114 193.688 90.0068C193.543 90.0023 193.447 90 193.401 90V88.8789H193.47C193.506 88.8789 193.559 88.8812 193.627 88.8857C193.695 88.8903 193.752 88.8926 193.798 88.8926C193.907 88.8926 194.019 88.8766 194.133 88.8447C194.251 88.8128 194.352 88.7536 194.434 88.667C194.666 88.4391 194.853 88.054 194.994 87.5117C195.135 86.9694 195.229 86.1855 195.274 85.1602C195.293 84.7865 195.309 84.3444 195.322 83.834C195.34 83.319 195.356 82.8291 195.37 82.3643H200.627V90ZM209.097 90H207.818V89.1865C207.704 89.264 207.549 89.3734 207.354 89.5146C207.162 89.6514 206.975 89.7607 206.793 89.8428C206.579 89.9476 206.333 90.0342 206.055 90.1025C205.777 90.1755 205.451 90.2119 205.077 90.2119C204.389 90.2119 203.806 89.984 203.327 89.5283C202.849 89.0726 202.609 88.4915 202.609 87.7852C202.609 87.2064 202.732 86.7393 202.979 86.3838C203.229 86.0238 203.585 85.7412 204.045 85.5361C204.51 85.3311 205.068 85.1921 205.72 85.1191C206.371 85.0462 207.071 84.9915 207.818 84.9551V84.7568C207.818 84.4652 207.766 84.2236 207.661 84.0322C207.561 83.8408 207.415 83.6904 207.224 83.5811C207.041 83.4762 206.823 83.4056 206.567 83.3691C206.312 83.3327 206.046 83.3145 205.768 83.3145C205.43 83.3145 205.054 83.36 204.64 83.4512C204.225 83.5378 203.797 83.6654 203.354 83.834H203.286V82.5283C203.537 82.46 203.899 82.3848 204.373 82.3027C204.847 82.2207 205.314 82.1797 205.774 82.1797C206.312 82.1797 206.779 82.2253 207.176 82.3164C207.577 82.403 207.923 82.5534 208.215 82.7676C208.502 82.9772 208.721 83.2484 208.871 83.5811C209.021 83.9137 209.097 84.3262 209.097 84.8184V90ZM207.818 88.1201V85.9941C207.426 86.0169 206.964 86.0511 206.431 86.0967C205.902 86.1423 205.483 86.2083 205.173 86.2949C204.804 86.3997 204.505 86.5638 204.277 86.7871C204.049 87.0059 203.936 87.3089 203.936 87.6963C203.936 88.1338 204.068 88.4642 204.332 88.6875C204.596 88.9062 205 89.0156 205.542 89.0156C205.993 89.0156 206.406 88.929 206.779 88.7559C207.153 88.5781 207.499 88.3662 207.818 88.1201ZM218.291 86.0898C218.291 86.7096 218.202 87.277 218.024 87.792C217.847 88.3024 217.596 88.7354 217.272 89.0908C216.972 89.4281 216.616 89.6901 216.206 89.877C215.8 90.0592 215.37 90.1504 214.914 90.1504C214.518 90.1504 214.158 90.1071 213.834 90.0205C213.515 89.9339 213.189 89.7995 212.856 89.6172V92.8164H211.571V82.3643H212.856V83.1641C213.198 82.877 213.581 82.6377 214.005 82.4463C214.433 82.2503 214.889 82.1523 215.372 82.1523C216.293 82.1523 217.008 82.501 217.519 83.1982C218.034 83.891 218.291 84.8548 218.291 86.0898ZM216.965 86.124C216.965 85.2035 216.808 84.5153 216.493 84.0596C216.179 83.6038 215.696 83.376 215.044 83.376C214.675 83.376 214.303 83.4557 213.93 83.6152C213.556 83.7747 213.198 83.9844 212.856 84.2441V88.5713C213.221 88.7354 213.533 88.847 213.793 88.9062C214.057 88.9655 214.356 88.9951 214.688 88.9951C215.404 88.9951 215.962 88.7536 216.363 88.2705C216.764 87.7874 216.965 87.0719 216.965 86.124ZM227.226 91.832H226.029V89.9795H220.287V91.832H219.091V88.9062H219.918C220.451 88.0267 220.848 87.0127 221.107 85.8643C221.372 84.7113 221.504 83.5446 221.504 82.3643H226.303V88.9062H227.226V91.832ZM225.018 88.9062V83.4443H222.714C222.655 84.5882 222.479 85.6318 222.188 86.5752C221.896 87.5186 221.561 88.2956 221.183 88.9062H225.018ZM233.706 87.6553C233.706 87.4229 233.665 87.2201 233.583 87.0469C233.506 86.8691 233.376 86.7256 233.193 86.6162C233.002 86.5023 232.783 86.4339 232.537 86.4111C232.296 86.3883 231.947 86.377 231.491 86.377H230.288V88.9746H231.464C231.92 88.9746 232.273 88.9564 232.523 88.9199C232.774 88.8789 232.991 88.8037 233.173 88.6943C233.36 88.5758 233.494 88.4368 233.576 88.2773C233.663 88.1133 233.706 87.9059 233.706 87.6553ZM235.032 87.6348C235.032 88.0039 234.957 88.3389 234.807 88.6396C234.661 88.9404 234.46 89.1842 234.205 89.3711C233.904 89.599 233.583 89.7607 233.241 89.8564C232.899 89.9521 232.46 90 231.922 90H229.003V82.3643H230.288V85.3379H231.956C232.53 85.3379 232.975 85.3675 233.289 85.4268C233.608 85.486 233.925 85.6318 234.239 85.8643C234.504 86.0602 234.702 86.3109 234.834 86.6162C234.966 86.9215 235.032 87.2611 235.032 87.6348ZM236.311 82.3643H237.596V90H236.311V82.3643ZM46.5723 96.8213L42.7031 105.387C42.5482 105.733 42.3636 106.018 42.1494 106.241C41.9398 106.465 41.7119 106.638 41.4658 106.761C41.2288 106.875 40.9987 106.952 40.7754 106.993C40.5566 107.03 40.3447 107.048 40.1396 107.048C39.9574 107.048 39.7363 107.039 39.4766 107.021C39.2168 107.002 39.0505 106.991 38.9775 106.986V105.722H39.0732C39.1416 105.731 39.2555 105.747 39.415 105.77C39.5745 105.788 39.7568 105.797 39.9619 105.797C40.0531 105.797 40.1807 105.79 40.3447 105.776C40.5088 105.763 40.6546 105.731 40.7822 105.681C40.9281 105.626 41.0716 105.539 41.2129 105.421C41.3587 105.302 41.4818 105.129 41.582 104.901L41.8281 104.361L38.041 96.8213H39.5381L42.5117 102.823L45.1777 96.8213H46.5723ZM56.3066 103.186C56.3066 102.206 56.1175 101.474 55.7393 100.991C55.361 100.504 54.8369 100.26 54.167 100.26C53.4697 100.26 52.9365 100.515 52.5674 101.025C52.2028 101.531 52.0205 102.251 52.0205 103.186C52.0205 104.152 52.2119 104.881 52.5947 105.373C52.9775 105.861 53.5016 106.104 54.167 106.104C54.8324 106.104 55.3542 105.863 55.7324 105.38C56.1152 104.892 56.3066 104.161 56.3066 103.186ZM50.749 103.541H49.1631V107H47.8779V99.3643H49.1631V102.461H50.7832C50.8971 101.408 51.264 100.595 51.8838 100.021C52.5081 99.4417 53.2738 99.1523 54.1807 99.1523C55.2334 99.1523 56.0719 99.5124 56.6963 100.232C57.3206 100.952 57.6328 101.937 57.6328 103.186C57.6328 104.421 57.3252 105.4 56.71 106.125C56.0947 106.85 55.2516 107.212 54.1807 107.212C53.1689 107.212 52.3577 106.884 51.7471 106.228C51.141 105.571 50.8083 104.676 50.749 103.541ZM69.3564 107H59.6221V99.3643H60.9072V105.893H63.8467V99.3643H65.1318V105.893H68.0713V99.3643H69.3564V107ZM77.498 100.492H74.7363V107H73.4512V100.492H70.6895V99.3643H77.498V100.492ZM85.4346 99.3643L80.9775 109.816H79.6035L81.0254 106.631L77.9834 99.3643H79.3779L81.7227 105.024L84.0879 99.3643H85.4346ZM93.8359 103.09C93.8359 103.71 93.7471 104.277 93.5693 104.792C93.3916 105.302 93.141 105.735 92.8174 106.091C92.5166 106.428 92.1611 106.69 91.751 106.877C91.3454 107.059 90.9147 107.15 90.459 107.15C90.0625 107.15 89.7025 107.107 89.3789 107.021C89.0599 106.934 88.734 106.799 88.4014 106.617V109.816H87.1162V99.3643H88.4014V100.164C88.7432 99.877 89.126 99.6377 89.5498 99.4463C89.9782 99.2503 90.4339 99.1523 90.917 99.1523C91.8376 99.1523 92.5531 99.501 93.0635 100.198C93.5785 100.891 93.8359 101.855 93.8359 103.09ZM92.5098 103.124C92.5098 102.203 92.3525 101.515 92.0381 101.06C91.7236 100.604 91.2406 100.376 90.5889 100.376C90.2197 100.376 89.8483 100.456 89.4746 100.615C89.1009 100.775 88.7432 100.984 88.4014 101.244V105.571C88.766 105.735 89.0781 105.847 89.3379 105.906C89.6022 105.965 89.9007 105.995 90.2334 105.995C90.9489 105.995 91.5072 105.754 91.9082 105.271C92.3092 104.787 92.5098 104.072 92.5098 103.124ZM102.442 99.3643L97.9854 109.816H96.6113L98.0332 106.631L94.9912 99.3643H96.3857L98.7305 105.024L101.096 99.3643H102.442ZM110.728 99.3643L106.271 109.816H104.896L106.318 106.631L103.276 99.3643H104.671L107.016 105.024L109.381 99.3643H110.728Z" fill="#333333"/>
<path d="M5 133L12.5 140.5L25 125.5" stroke="#61B857" stroke-width="2" stroke-linecap="round" stroke-linejoin="round"/>
<path d="M47.1396 132H45.793V123.845L40.7344 132H39.3672V121.821H40.7139V129.854L45.7109 121.821H47.1396V132ZM59.5127 132H49.7783V124.364H51.0635V130.893H54.0029V124.364H55.2881V130.893H58.2275V124.364H59.5127V132ZM68.9326 132H67.251L64.0791 128.5H63.3818V132H62.0967V124.364H63.3818V127.659C63.8057 127.659 64.1475 127.584 64.4072 127.434C64.667 127.279 64.888 127.033 65.0703 126.695C65.1341 126.572 65.1956 126.442 65.2549 126.306C65.3187 126.164 65.3802 126.03 65.4395 125.902C65.6764 125.387 65.9727 125.002 66.3281 124.747C66.6836 124.492 67.194 124.364 67.8594 124.364H68.4473V125.472H67.8799C67.5199 125.472 67.2373 125.549 67.0322 125.704C66.8317 125.854 66.6494 126.121 66.4854 126.504C66.3031 126.932 66.1094 127.254 65.9043 127.468C65.7038 127.677 65.4896 127.837 65.2617 127.946L68.9326 132ZM76.7188 128.315H71.0928C71.0928 128.785 71.1634 129.195 71.3047 129.546C71.446 129.892 71.6396 130.177 71.8857 130.4C72.1227 130.619 72.403 130.783 72.7266 130.893C73.0547 131.002 73.4147 131.057 73.8066 131.057C74.3262 131.057 74.848 130.954 75.3721 130.749C75.9007 130.539 76.2767 130.334 76.5 130.134H76.5684V131.535C76.1354 131.717 75.6934 131.87 75.2422 131.993C74.791 132.116 74.3171 132.178 73.8203 132.178C72.5534 132.178 71.5645 131.836 70.8535 131.152C70.1426 130.464 69.7871 129.489 69.7871 128.227C69.7871 126.978 70.1266 125.987 70.8057 125.253C71.4893 124.519 72.387 124.152 73.499 124.152C74.529 124.152 75.3219 124.453 75.8779 125.055C76.4385 125.656 76.7188 126.511 76.7188 127.618V128.315ZM75.4678 127.331C75.4632 126.657 75.2923 126.135 74.9551 125.766C74.6224 125.396 74.1143 125.212 73.4307 125.212C72.7425 125.212 72.1934 125.415 71.7832 125.82C71.3776 126.226 71.1475 126.729 71.0928 127.331H75.4678ZM85.3867 128.09C85.3867 128.71 85.2979 129.277 85.1201 129.792C84.9424 130.302 84.6917 130.735 84.3682 131.091C84.0674 131.428 83.7119 131.69 83.3018 131.877C82.8962 132.059 82.4655 132.15 82.0098 132.15C81.6133 132.15 81.2533 132.107 80.9297 132.021C80.6107 131.934 80.2848 131.799 79.9521 131.617V134.816H78.667V124.364H79.9521V125.164C80.2939 124.877 80.6768 124.638 81.1006 124.446C81.529 124.25 81.9847 124.152 82.4678 124.152C83.3883 124.152 84.1038 124.501 84.6143 125.198C85.1292 125.891 85.3867 126.855 85.3867 128.09ZM84.0605 128.124C84.0605 127.203 83.9033 126.515 83.5889 126.06C83.2744 125.604 82.7913 125.376 82.1396 125.376C81.7705 125.376 81.3991 125.456 81.0254 125.615C80.6517 125.775 80.2939 125.984 79.9521 126.244V130.571C80.3167 130.735 80.6289 130.847 80.8887 130.906C81.153 130.965 81.4515 130.995 81.7842 130.995C82.4997 130.995 83.0579 130.754 83.459 130.271C83.86 129.787 84.0605 129.072 84.0605 128.124ZM94.3213 133.832H93.125V131.979H87.3828V133.832H86.1865V130.906H87.0137C87.5469 130.027 87.9434 129.013 88.2031 127.864C88.4674 126.711 88.5996 125.545 88.5996 124.364H93.3984V130.906H94.3213V133.832ZM92.1133 130.906V125.444H89.8096C89.7503 126.588 89.5749 127.632 89.2832 128.575C88.9915 129.519 88.6566 130.296 88.2783 130.906H92.1133ZM102.531 132H101.26V126.265L97.2607 132H96.0986V124.364H97.3701V130.018L101.328 124.364H102.531V132ZM111.958 132H110.276L107.104 128.5H106.407V132H105.122V124.364H106.407V127.659C106.831 127.659 107.173 127.584 107.433 127.434C107.692 127.279 107.913 127.033 108.096 126.695C108.16 126.572 108.221 126.442 108.28 126.306C108.344 126.164 108.406 126.03 108.465 125.902C108.702 125.387 108.998 125.002 109.354 124.747C109.709 124.492 110.219 124.364 110.885 124.364H111.473V125.472H110.905C110.545 125.472 110.263 125.549 110.058 125.704C109.857 125.854 109.675 126.121 109.511 126.504C109.328 126.932 109.135 127.254 108.93 127.468C108.729 127.677 108.515 127.837 108.287 127.946L111.958 132ZM126.56 132H124.823L120.688 127.358H119.765V132H118.411V121.821H119.765V126.388C119.997 126.383 120.216 126.36 120.421 126.319C120.626 126.278 120.82 126.201 121.002 126.087C121.184 125.982 121.364 125.834 121.542 125.643C121.72 125.447 121.877 125.207 122.014 124.925C122.073 124.802 122.141 124.647 122.219 124.46C122.301 124.273 122.383 124.077 122.465 123.872C122.779 123.116 123.146 122.585 123.565 122.279C123.989 121.974 124.611 121.821 125.432 121.821H125.972V123.031H125.404C125.09 123.031 124.844 123.061 124.666 123.12C124.488 123.175 124.329 123.268 124.188 123.4C124.055 123.519 123.939 123.678 123.839 123.879C123.743 124.079 123.643 124.314 123.538 124.583C123.301 125.185 123.06 125.627 122.813 125.909C122.572 126.192 122.246 126.438 121.836 126.647L126.56 132ZM134.489 128.186C134.489 129.43 134.17 130.412 133.532 131.132C132.894 131.852 132.04 132.212 130.969 132.212C129.889 132.212 129.03 131.852 128.392 131.132C127.758 130.412 127.441 129.43 127.441 128.186C127.441 126.941 127.758 125.959 128.392 125.239C129.03 124.515 129.889 124.152 130.969 124.152C132.04 124.152 132.894 124.515 133.532 125.239C134.17 125.959 134.489 126.941 134.489 128.186ZM133.163 128.186C133.163 127.197 132.969 126.463 132.582 125.984C132.195 125.501 131.657 125.26 130.969 125.26C130.271 125.26 129.729 125.501 129.342 125.984C128.959 126.463 128.768 127.197 128.768 128.186C128.768 129.143 128.961 129.869 129.349 130.366C129.736 130.858 130.276 131.104 130.969 131.104C131.652 131.104 132.188 130.861 132.575 130.373C132.967 129.881 133.163 129.152 133.163 128.186ZM142.877 132H141.592V128.562H137.771V132H136.485V124.364H137.771V127.454H141.592V124.364H142.877V132ZM151.128 131.521C150.604 131.768 150.153 131.936 149.774 132.027C149.401 132.123 149.027 132.171 148.653 132.171C148.097 132.171 147.587 132.091 147.122 131.932C146.657 131.768 146.258 131.521 145.926 131.193C145.593 130.865 145.333 130.451 145.146 129.949C144.964 129.448 144.873 128.862 144.873 128.192C144.873 126.976 145.21 126.005 145.885 125.28C146.559 124.551 147.482 124.187 148.653 124.187C149.095 124.187 149.528 124.248 149.952 124.371C150.381 124.494 150.772 124.645 151.128 124.822V126.251H151.053C150.629 125.927 150.21 125.688 149.795 125.533C149.385 125.378 148.986 125.301 148.599 125.301C147.838 125.301 147.247 125.556 146.828 126.066C146.413 126.577 146.206 127.285 146.206 128.192C146.206 129.099 146.413 129.803 146.828 130.305C147.243 130.806 147.833 131.057 148.599 131.057C148.868 131.057 149.134 131.022 149.398 130.954C149.667 130.886 149.911 130.797 150.13 130.688C150.303 130.601 150.481 130.498 150.663 130.38C150.85 130.257 150.98 130.166 151.053 130.106H151.128V131.521ZM159.495 124.364L155.038 134.816H153.664L155.086 131.631L152.044 124.364H153.438L155.783 130.024L158.148 124.364H159.495ZM167.336 132H166.051V125.444H163.2C163.187 125.823 163.173 126.187 163.159 126.538C163.146 126.889 163.132 127.206 163.118 127.488C163.086 128.249 163.034 128.858 162.961 129.313C162.888 129.765 162.792 130.141 162.674 130.441C162.564 130.724 162.441 130.954 162.305 131.132C162.173 131.305 162.029 131.462 161.874 131.604C161.719 131.74 161.546 131.843 161.354 131.911C161.168 131.979 160.963 132.014 160.739 132.014C160.662 132.014 160.548 132.011 160.397 132.007C160.252 132.002 160.156 132 160.11 132V130.879H160.179C160.215 130.879 160.268 130.881 160.336 130.886C160.404 130.89 160.461 130.893 160.507 130.893C160.616 130.893 160.728 130.877 160.842 130.845C160.96 130.813 161.061 130.754 161.143 130.667C161.375 130.439 161.562 130.054 161.703 129.512C161.844 128.969 161.938 128.186 161.983 127.16C162.002 126.786 162.018 126.344 162.031 125.834C162.049 125.319 162.065 124.829 162.079 124.364H167.336V132ZM174.644 129.655C174.644 129.423 174.603 129.22 174.521 129.047C174.443 128.869 174.313 128.726 174.131 128.616C173.939 128.502 173.721 128.434 173.475 128.411C173.233 128.388 172.884 128.377 172.429 128.377H171.157V130.975H172.401C172.857 130.975 173.21 130.956 173.461 130.92C173.712 130.879 173.928 130.804 174.11 130.694C174.297 130.576 174.432 130.437 174.514 130.277C174.6 130.113 174.644 129.906 174.644 129.655ZM175.97 129.635C175.97 130.004 175.895 130.339 175.744 130.64C175.598 130.94 175.398 131.184 175.143 131.371C174.842 131.599 174.521 131.761 174.179 131.856C173.837 131.952 173.397 132 172.859 132H169.872V124.364H171.157V127.338H172.894C173.468 127.338 173.912 127.368 174.227 127.427C174.546 127.486 174.862 127.632 175.177 127.864C175.441 128.06 175.639 128.311 175.771 128.616C175.904 128.922 175.97 129.261 175.97 129.635ZM183.482 125.492H180.721V132H179.436V125.492H176.674V124.364H183.482V125.492ZM190.749 132H189.471V131.187C189.357 131.264 189.202 131.373 189.006 131.515C188.814 131.651 188.628 131.761 188.445 131.843C188.231 131.948 187.985 132.034 187.707 132.103C187.429 132.175 187.103 132.212 186.729 132.212C186.041 132.212 185.458 131.984 184.979 131.528C184.501 131.073 184.262 130.492 184.262 129.785C184.262 129.206 184.385 128.739 184.631 128.384C184.882 128.024 185.237 127.741 185.697 127.536C186.162 127.331 186.72 127.192 187.372 127.119C188.024 127.046 188.723 126.992 189.471 126.955V126.757C189.471 126.465 189.418 126.224 189.313 126.032C189.213 125.841 189.067 125.69 188.876 125.581C188.694 125.476 188.475 125.406 188.22 125.369C187.965 125.333 187.698 125.314 187.42 125.314C187.083 125.314 186.707 125.36 186.292 125.451C185.877 125.538 185.449 125.665 185.007 125.834H184.938V124.528C185.189 124.46 185.551 124.385 186.025 124.303C186.499 124.221 186.966 124.18 187.427 124.18C187.965 124.18 188.432 124.225 188.828 124.316C189.229 124.403 189.576 124.553 189.867 124.768C190.154 124.977 190.373 125.248 190.523 125.581C190.674 125.914 190.749 126.326 190.749 126.818V132ZM189.471 130.12V127.994C189.079 128.017 188.616 128.051 188.083 128.097C187.554 128.142 187.135 128.208 186.825 128.295C186.456 128.4 186.158 128.564 185.93 128.787C185.702 129.006 185.588 129.309 185.588 129.696C185.588 130.134 185.72 130.464 185.984 130.688C186.249 130.906 186.652 131.016 187.194 131.016C187.646 131.016 188.058 130.929 188.432 130.756C188.805 130.578 189.152 130.366 189.471 130.12ZM199.28 132H193.224V124.364H194.509V130.893H198.269V124.364H199.554V130.893H200.477V133.832H199.28V132ZM208.68 132H207.408V126.265L203.409 132H202.247V124.364H203.519V130.018L207.477 124.364H208.68V132ZM217.081 132H215.796V128.972H214.285L211.92 132H210.409L212.979 128.849C212.319 128.666 211.836 128.388 211.53 128.015C211.225 127.636 211.072 127.142 211.072 126.531C211.072 126.126 211.163 125.782 211.346 125.499C211.528 125.216 211.758 124.986 212.036 124.809C212.31 124.635 212.624 124.519 212.979 124.46C213.335 124.396 213.722 124.364 214.142 124.364H217.081V132ZM215.796 127.96V125.39H214.176C213.825 125.39 213.572 125.401 213.417 125.424C213.262 125.447 213.093 125.508 212.911 125.608C212.733 125.709 212.601 125.845 212.515 126.019C212.433 126.187 212.392 126.372 212.392 126.572C212.392 126.823 212.417 127.026 212.467 127.181C212.521 127.336 212.631 127.481 212.795 127.618C212.964 127.75 213.169 127.841 213.41 127.892C213.652 127.937 213.921 127.96 214.217 127.96H215.796ZM225.77 132H224.484V125.444H221.634C221.62 125.823 221.606 126.187 221.593 126.538C221.579 126.889 221.565 127.206 221.552 127.488C221.52 128.249 221.467 128.858 221.395 129.313C221.322 129.765 221.226 130.141 221.107 130.441C220.998 130.724 220.875 130.954 220.738 131.132C220.606 131.305 220.463 131.462 220.308 131.604C220.153 131.74 219.979 131.843 219.788 131.911C219.601 131.979 219.396 132.014 219.173 132.014C219.095 132.014 218.981 132.011 218.831 132.007C218.685 132.002 218.59 132 218.544 132V130.879H218.612C218.649 130.879 218.701 130.881 218.77 130.886C218.838 130.89 218.895 130.893 218.94 130.893C219.05 130.893 219.161 130.877 219.275 130.845C219.394 130.813 219.494 130.754 219.576 130.667C219.809 130.439 219.995 130.054 220.137 129.512C220.278 128.969 220.371 128.186 220.417 127.16C220.435 126.786 220.451 126.344 220.465 125.834C220.483 125.319 220.499 124.829 220.513 124.364H225.77V132ZM234.239 132H232.961V131.187C232.847 131.264 232.692 131.373 232.496 131.515C232.305 131.651 232.118 131.761 231.936 131.843C231.721 131.948 231.475 132.034 231.197 132.103C230.919 132.175 230.593 132.212 230.22 132.212C229.532 132.212 228.948 131.984 228.47 131.528C227.991 131.073 227.752 130.492 227.752 129.785C227.752 129.206 227.875 128.739 228.121 128.384C228.372 128.024 228.727 127.741 229.188 127.536C229.652 127.331 230.211 127.192 230.862 127.119C231.514 127.046 232.214 126.992 232.961 126.955V126.757C232.961 126.465 232.909 126.224 232.804 126.032C232.703 125.841 232.558 125.69 232.366 125.581C232.184 125.476 231.965 125.406 231.71 125.369C231.455 125.333 231.188 125.314 230.91 125.314C230.573 125.314 230.197 125.36 229.782 125.451C229.368 125.538 228.939 125.665 228.497 125.834H228.429V124.528C228.679 124.46 229.042 124.385 229.516 124.303C229.99 124.221 230.457 124.18 230.917 124.18C231.455 124.18 231.922 124.225 232.318 124.316C232.719 124.403 233.066 124.553 233.357 124.768C233.645 124.977 233.863 125.248 234.014 125.581C234.164 125.914 234.239 126.326 234.239 126.818V132ZM232.961 130.12V127.994C232.569 128.017 232.106 128.051 231.573 128.097C231.045 128.142 230.625 128.208 230.315 128.295C229.946 128.4 229.648 128.564 229.42 128.787C229.192 129.006 229.078 129.309 229.078 129.696C229.078 130.134 229.21 130.464 229.475 130.688C229.739 130.906 230.142 131.016 230.685 131.016C231.136 131.016 231.548 130.929 231.922 130.756C232.296 130.578 232.642 130.366 232.961 130.12ZM243.434 128.09C243.434 128.71 243.345 129.277 243.167 129.792C242.989 130.302 242.739 130.735 242.415 131.091C242.114 131.428 241.759 131.69 241.349 131.877C240.943 132.059 240.512 132.15 240.057 132.15C239.66 132.15 239.3 132.107 238.977 132.021C238.658 131.934 238.332 131.799 237.999 131.617V134.816H236.714V124.364H237.999V125.164C238.341 124.877 238.724 124.638 239.147 124.446C239.576 124.25 240.032 124.152 240.515 124.152C241.435 124.152 242.151 124.501 242.661 125.198C243.176 125.891 243.434 126.855 243.434 128.09ZM242.107 128.124C242.107 127.203 241.95 126.515 241.636 126.06C241.321 125.604 240.838 125.376 240.187 125.376C239.817 125.376 239.446 125.456 239.072 125.615C238.699 125.775 238.341 125.984 237.999 126.244V130.571C238.364 130.735 238.676 130.847 238.936 130.906C239.2 130.965 239.498 130.995 239.831 130.995C240.547 130.995 241.105 130.754 241.506 130.271C241.907 129.787 242.107 129.072 242.107 128.124ZM252.368 133.832H251.172V131.979H245.43V133.832H244.233V130.906H245.061C245.594 130.027 245.99 129.013 246.25 127.864C246.514 126.711 246.646 125.545 246.646 124.364H251.445V130.906H252.368V133.832ZM250.16 130.906V125.444H247.856C247.797 126.588 247.622 127.632 247.33 128.575C247.038 129.519 246.703 130.296 246.325 130.906H250.16ZM258.849 129.655C258.849 129.423 258.808 129.22 258.726 129.047C258.648 128.869 258.518 128.726 258.336 128.616C258.145 128.502 257.926 128.434 257.68 128.411C257.438 128.388 257.09 128.377 256.634 128.377H255.431V130.975H256.606C257.062 130.975 257.415 130.956 257.666 130.92C257.917 130.879 258.133 130.804 258.315 130.694C258.502 130.576 258.637 130.437 258.719 130.277C258.805 130.113 258.849 129.906 258.849 129.655ZM260.175 129.635C260.175 130.004 260.1 130.339 259.949 130.64C259.803 130.94 259.603 131.184 259.348 131.371C259.047 131.599 258.726 131.761 258.384 131.856C258.042 131.952 257.602 132 257.064 132H254.146V124.364H255.431V127.338H257.099C257.673 127.338 258.117 127.368 258.432 127.427C258.751 127.486 259.067 127.632 259.382 127.864C259.646 128.06 259.844 128.311 259.977 128.616C260.109 128.922 260.175 129.261 260.175 129.635ZM261.453 124.364H262.738V132H261.453V124.364ZM45.8682 141.364L41.4111 151.816H40.0371L41.459 148.631L38.417 141.364H39.8115L42.1562 147.024L44.5215 141.364H45.8682ZM55.9785 145.186C55.9785 144.206 55.7894 143.474 55.4111 142.991C55.0329 142.504 54.5088 142.26 53.8389 142.26C53.1416 142.26 52.6084 142.515 52.2393 143.025C51.8747 143.531 51.6924 144.251 51.6924 145.186C51.6924 146.152 51.8838 146.881 52.2666 147.373C52.6494 147.861 53.1735 148.104 53.8389 148.104C54.5042 148.104 55.026 147.863 55.4043 147.38C55.7871 146.892 55.9785 146.161 55.9785 145.186ZM50.4209 145.541H48.835V149H47.5498V141.364H48.835V144.461H50.4551C50.569 143.408 50.9359 142.595 51.5557 142.021C52.18 141.442 52.9456 141.152 53.8525 141.152C54.9053 141.152 55.7438 141.512 56.3682 142.232C56.9925 142.952 57.3047 143.937 57.3047 145.186C57.3047 146.421 56.9971 147.4 56.3818 148.125C55.7666 148.85 54.9235 149.212 53.8525 149.212C52.8408 149.212 52.0296 148.884 51.4189 148.228C50.8128 147.571 50.4801 146.676 50.4209 145.541ZM69.0283 149H59.2939V141.364H60.5791V147.893H63.5186V141.364H64.8037V147.893H67.7432V141.364H69.0283V149ZM77.1699 142.492H74.4082V149H73.123V142.492H70.3613V141.364H77.1699V142.492ZM85.1064 141.364L80.6494 151.816H79.2754L80.6973 148.631L77.6553 141.364H79.0498L81.3945 147.024L83.7598 141.364H85.1064ZM93.5078 145.09C93.5078 145.71 93.4189 146.277 93.2412 146.792C93.0635 147.302 92.8128 147.735 92.4893 148.091C92.1885 148.428 91.833 148.69 91.4229 148.877C91.0173 149.059 90.5866 149.15 90.1309 149.15C89.7344 149.15 89.3743 149.107 89.0508 149.021C88.7318 148.934 88.4059 148.799 88.0732 148.617V151.816H86.7881V141.364H88.0732V142.164C88.415 141.877 88.7979 141.638 89.2217 141.446C89.6501 141.25 90.1058 141.152 90.5889 141.152C91.5094 141.152 92.2249 141.501 92.7354 142.198C93.2503 142.891 93.5078 143.855 93.5078 145.09ZM92.1816 145.124C92.1816 144.203 92.0244 143.515 91.71 143.06C91.3955 142.604 90.9124 142.376 90.2607 142.376C89.8916 142.376 89.5202 142.456 89.1465 142.615C88.7728 142.775 88.415 142.984 88.0732 143.244V147.571C88.4378 147.735 88.75 147.847 89.0098 147.906C89.2741 147.965 89.5726 147.995 89.9053 147.995C90.6208 147.995 91.179 147.754 91.5801 147.271C91.9811 146.787 92.1816 146.072 92.1816 145.124ZM102.114 141.364L97.6572 151.816H96.2832L97.7051 148.631L94.6631 141.364H96.0576L98.4023 147.024L100.768 141.364H102.114ZM110.399 141.364L105.942 151.816H104.568L105.99 148.631L102.948 141.364H104.343L106.688 147.024L109.053 141.364H110.399Z" fill="#333333"/>
<path d="M5 175L12.5 182.5L25 167.5" stroke="#61B857" stroke-width="2" stroke-linecap="round" stroke-linejoin="round"/>
<path d="M47.1396 180.5H45.793V172.345L40.7344 180.5H39.3672V170.321H40.7139V178.354L45.7109 170.321H47.1396V180.5ZM59.5127 180.5H49.7783V172.864H51.0635V179.393H54.0029V172.864H55.2881V179.393H58.2275V172.864H59.5127V180.5ZM74.9277 179.762C74.6771 179.871 74.4492 179.974 74.2441 180.069C74.0436 180.165 73.7793 180.265 73.4512 180.37C73.1732 180.457 72.8701 180.53 72.542 180.589C72.2184 180.653 71.8607 180.685 71.4688 180.685C70.7305 180.685 70.0583 180.582 69.4521 180.377C68.8506 180.167 68.3265 179.841 67.8799 179.399C67.4424 178.966 67.1006 178.417 66.8545 177.752C66.6084 177.082 66.4854 176.305 66.4854 175.421C66.4854 174.582 66.6038 173.833 66.8408 173.172C67.0778 172.511 67.4196 171.953 67.8662 171.497C68.2992 171.055 68.821 170.718 69.4316 170.485C70.0469 170.253 70.7282 170.137 71.4756 170.137C72.0225 170.137 72.5671 170.203 73.1094 170.335C73.6562 170.467 74.2624 170.7 74.9277 171.032V172.639H74.8252C74.2646 172.169 73.7087 171.827 73.1572 171.613C72.6058 171.399 72.0156 171.292 71.3867 171.292C70.8717 171.292 70.4069 171.376 69.9922 171.545C69.582 171.709 69.2152 171.966 68.8916 172.317C68.5771 172.659 68.3311 173.092 68.1533 173.616C67.9801 174.136 67.8936 174.737 67.8936 175.421C67.8936 176.136 67.9893 176.752 68.1807 177.267C68.3766 177.782 68.6273 178.201 68.9326 178.524C69.2516 178.862 69.623 179.112 70.0469 179.276C70.4753 179.436 70.9264 179.516 71.4004 179.516C72.0521 179.516 72.6628 179.404 73.2324 179.181C73.8021 178.957 74.3353 178.622 74.832 178.176H74.9277V179.762ZM82.6729 180.5H81.3945V179.687C81.2806 179.764 81.1257 179.873 80.9297 180.015C80.7383 180.151 80.5514 180.261 80.3691 180.343C80.1549 180.448 79.9089 180.534 79.6309 180.603C79.3529 180.675 79.027 180.712 78.6533 180.712C77.9652 180.712 77.3818 180.484 76.9033 180.028C76.4248 179.573 76.1855 178.992 76.1855 178.285C76.1855 177.706 76.3086 177.239 76.5547 176.884C76.8053 176.524 77.1608 176.241 77.6211 176.036C78.0859 175.831 78.6442 175.692 79.2959 175.619C79.9476 175.546 80.6471 175.492 81.3945 175.455V175.257C81.3945 174.965 81.3421 174.724 81.2373 174.532C81.137 174.341 80.9912 174.19 80.7998 174.081C80.6175 173.976 80.3988 173.906 80.1436 173.869C79.8883 173.833 79.6217 173.814 79.3438 173.814C79.0065 173.814 78.6305 173.86 78.2158 173.951C77.8011 174.038 77.3727 174.165 76.9307 174.334H76.8623V173.028C77.113 172.96 77.4753 172.885 77.9492 172.803C78.4232 172.721 78.8903 172.68 79.3506 172.68C79.8883 172.68 80.3555 172.725 80.752 172.816C81.153 172.903 81.4993 173.053 81.791 173.268C82.0781 173.477 82.2969 173.748 82.4473 174.081C82.5977 174.414 82.6729 174.826 82.6729 175.318V180.5ZM81.3945 178.62V176.494C81.0026 176.517 80.54 176.551 80.0068 176.597C79.4782 176.642 79.0589 176.708 78.749 176.795C78.3799 176.9 78.0814 177.064 77.8535 177.287C77.6257 177.506 77.5117 177.809 77.5117 178.196C77.5117 178.634 77.6439 178.964 77.9082 179.188C78.1725 179.406 78.5758 179.516 79.1182 179.516C79.5693 179.516 79.9818 179.429 80.3555 179.256C80.7292 179.078 81.0755 178.866 81.3945 178.62ZM91.5391 180.5H90.2539V173.972H86.4326V180.5H85.1475V172.864H91.5391V180.5ZM100.009 180.5H98.7305V179.687C98.6165 179.764 98.4616 179.873 98.2656 180.015C98.0742 180.151 97.8874 180.261 97.7051 180.343C97.4909 180.448 97.2448 180.534 96.9668 180.603C96.6888 180.675 96.363 180.712 95.9893 180.712C95.3011 180.712 94.7178 180.484 94.2393 180.028C93.7607 179.573 93.5215 178.992 93.5215 178.285C93.5215 177.706 93.6445 177.239 93.8906 176.884C94.1413 176.524 94.4967 176.241 94.957 176.036C95.4219 175.831 95.9801 175.692 96.6318 175.619C97.2835 175.546 97.9831 175.492 98.7305 175.455V175.257C98.7305 174.965 98.6781 174.724 98.5732 174.532C98.473 174.341 98.3271 174.19 98.1357 174.081C97.9535 173.976 97.7347 173.906 97.4795 173.869C97.2243 173.833 96.9577 173.814 96.6797 173.814C96.3424 173.814 95.9665 173.86 95.5518 173.951C95.137 174.038 94.7087 174.165 94.2666 174.334H94.1982V173.028C94.4489 172.96 94.8112 172.885 95.2852 172.803C95.7591 172.721 96.2262 172.68 96.6865 172.68C97.2243 172.68 97.6914 172.725 98.0879 172.816C98.4889 172.903 98.8353 173.053 99.127 173.268C99.4141 173.477 99.6328 173.748 99.7832 174.081C99.9336 174.414 100.009 174.826 100.009 175.318V180.5ZM98.7305 178.62V176.494C98.3385 176.517 97.876 176.551 97.3428 176.597C96.8141 176.642 96.3949 176.708 96.085 176.795C95.7158 176.9 95.4173 177.064 95.1895 177.287C94.9616 177.506 94.8477 177.809 94.8477 178.196C94.8477 178.634 94.9798 178.964 95.2441 179.188C95.5085 179.406 95.9118 179.516 96.4541 179.516C96.9053 179.516 97.3177 179.429 97.6914 179.256C98.0651 179.078 98.4115 178.866 98.7305 178.62ZM109.203 176.59C109.203 177.21 109.114 177.777 108.937 178.292C108.759 178.802 108.508 179.235 108.185 179.591C107.884 179.928 107.528 180.19 107.118 180.377C106.713 180.559 106.282 180.65 105.826 180.65C105.43 180.65 105.07 180.607 104.746 180.521C104.427 180.434 104.101 180.299 103.769 180.117V183.316H102.483V172.864H103.769V173.664C104.11 173.377 104.493 173.138 104.917 172.946C105.345 172.75 105.801 172.652 106.284 172.652C107.205 172.652 107.92 173.001 108.431 173.698C108.946 174.391 109.203 175.355 109.203 176.59ZM107.877 176.624C107.877 175.703 107.72 175.015 107.405 174.56C107.091 174.104 106.608 173.876 105.956 173.876C105.587 173.876 105.215 173.956 104.842 174.115C104.468 174.275 104.11 174.484 103.769 174.744V179.071C104.133 179.235 104.445 179.347 104.705 179.406C104.969 179.465 105.268 179.495 105.601 179.495C106.316 179.495 106.874 179.254 107.275 178.771C107.676 178.287 107.877 177.572 107.877 176.624ZM117.365 180.5H116.08V173.944H113.229C113.216 174.323 113.202 174.687 113.188 175.038C113.175 175.389 113.161 175.706 113.147 175.988C113.116 176.749 113.063 177.358 112.99 177.813C112.917 178.265 112.822 178.641 112.703 178.941C112.594 179.224 112.471 179.454 112.334 179.632C112.202 179.805 112.058 179.962 111.903 180.104C111.748 180.24 111.575 180.343 111.384 180.411C111.197 180.479 110.992 180.514 110.769 180.514C110.691 180.514 110.577 180.511 110.427 180.507C110.281 180.502 110.185 180.5 110.14 180.5V179.379H110.208C110.244 179.379 110.297 179.381 110.365 179.386C110.434 179.39 110.491 179.393 110.536 179.393C110.646 179.393 110.757 179.377 110.871 179.345C110.99 179.313 111.09 179.254 111.172 179.167C111.404 178.939 111.591 178.554 111.732 178.012C111.874 177.469 111.967 176.686 112.013 175.66C112.031 175.286 112.047 174.844 112.061 174.334C112.079 173.819 112.095 173.329 112.108 172.864H117.365V180.5ZM125.835 180.5H124.557V179.687C124.443 179.764 124.288 179.873 124.092 180.015C123.9 180.151 123.714 180.261 123.531 180.343C123.317 180.448 123.071 180.534 122.793 180.603C122.515 180.675 122.189 180.712 121.815 180.712C121.127 180.712 120.544 180.484 120.065 180.028C119.587 179.573 119.348 178.992 119.348 178.285C119.348 177.706 119.471 177.239 119.717 176.884C119.967 176.524 120.323 176.241 120.783 176.036C121.248 175.831 121.806 175.692 122.458 175.619C123.11 175.546 123.809 175.492 124.557 175.455V175.257C124.557 174.965 124.504 174.724 124.399 174.532C124.299 174.341 124.153 174.19 123.962 174.081C123.78 173.976 123.561 173.906 123.306 173.869C123.05 173.833 122.784 173.814 122.506 173.814C122.169 173.814 121.793 173.86 121.378 173.951C120.963 174.038 120.535 174.165 120.093 174.334H120.024V173.028C120.275 172.96 120.637 172.885 121.111 172.803C121.585 172.721 122.052 172.68 122.513 172.68C123.05 172.68 123.518 172.725 123.914 172.816C124.315 172.903 124.661 173.053 124.953 173.268C125.24 173.477 125.459 173.748 125.609 174.081C125.76 174.414 125.835 174.826 125.835 175.318V180.5ZM124.557 178.62V176.494C124.165 176.517 123.702 176.551 123.169 176.597C122.64 176.642 122.221 176.708 121.911 176.795C121.542 176.9 121.243 177.064 121.016 177.287C120.788 177.506 120.674 177.809 120.674 178.196C120.674 178.634 120.806 178.964 121.07 179.188C121.335 179.406 121.738 179.516 122.28 179.516C122.731 179.516 123.144 179.429 123.518 179.256C123.891 179.078 124.238 178.866 124.557 178.62ZM135.029 176.59C135.029 177.21 134.94 177.777 134.763 178.292C134.585 178.802 134.334 179.235 134.011 179.591C133.71 179.928 133.354 180.19 132.944 180.377C132.539 180.559 132.108 180.65 131.652 180.65C131.256 180.65 130.896 180.607 130.572 180.521C130.253 180.434 129.927 180.299 129.595 180.117V183.316H128.31V172.864H129.595V173.664C129.937 173.377 130.319 173.138 130.743 172.946C131.172 172.75 131.627 172.652 132.11 172.652C133.031 172.652 133.746 173.001 134.257 173.698C134.772 174.391 135.029 175.355 135.029 176.59ZM133.703 176.624C133.703 175.703 133.546 175.015 133.231 174.56C132.917 174.104 132.434 173.876 131.782 173.876C131.413 173.876 131.042 173.956 130.668 174.115C130.294 174.275 129.937 174.484 129.595 174.744V179.071C129.959 179.235 130.271 179.347 130.531 179.406C130.796 179.465 131.094 179.495 131.427 179.495C132.142 179.495 132.701 179.254 133.102 178.771C133.503 178.287 133.703 177.572 133.703 176.624ZM143.964 182.332H142.768V180.479H137.025V182.332H135.829V179.406H136.656C137.189 178.527 137.586 177.513 137.846 176.364C138.11 175.211 138.242 174.045 138.242 172.864H143.041V179.406H143.964V182.332ZM141.756 179.406V173.944H139.452C139.393 175.088 139.217 176.132 138.926 177.075C138.634 178.019 138.299 178.796 137.921 179.406H141.756ZM150.444 178.155C150.444 177.923 150.403 177.72 150.321 177.547C150.244 177.369 150.114 177.226 149.932 177.116C149.74 177.002 149.521 176.934 149.275 176.911C149.034 176.888 148.685 176.877 148.229 176.877H147.026V179.475H148.202C148.658 179.475 149.011 179.456 149.262 179.42C149.512 179.379 149.729 179.304 149.911 179.194C150.098 179.076 150.232 178.937 150.314 178.777C150.401 178.613 150.444 178.406 150.444 178.155ZM151.771 178.135C151.771 178.504 151.695 178.839 151.545 179.14C151.399 179.44 151.199 179.684 150.943 179.871C150.643 180.099 150.321 180.261 149.979 180.356C149.638 180.452 149.198 180.5 148.66 180.5H145.741V172.864H147.026V175.838H148.694C149.269 175.838 149.713 175.868 150.027 175.927C150.346 175.986 150.663 176.132 150.978 176.364C151.242 176.56 151.44 176.811 151.572 177.116C151.704 177.422 151.771 177.761 151.771 178.135ZM153.049 172.864H154.334V180.5H153.049V172.864ZM169.1 170.321L165.23 178.887C165.076 179.233 164.891 179.518 164.677 179.741C164.467 179.965 164.239 180.138 163.993 180.261C163.756 180.375 163.526 180.452 163.303 180.493C163.084 180.53 162.872 180.548 162.667 180.548C162.485 180.548 162.264 180.539 162.004 180.521C161.744 180.502 161.578 180.491 161.505 180.486V179.222H161.601C161.669 179.231 161.783 179.247 161.942 179.27C162.102 179.288 162.284 179.297 162.489 179.297C162.58 179.297 162.708 179.29 162.872 179.276C163.036 179.263 163.182 179.231 163.31 179.181C163.455 179.126 163.599 179.039 163.74 178.921C163.886 178.802 164.009 178.629 164.109 178.401L164.355 177.861L160.568 170.321H162.065L165.039 176.323L167.705 170.321H169.1ZM178.834 176.686C178.834 175.706 178.645 174.974 178.267 174.491C177.888 174.004 177.364 173.76 176.694 173.76C175.997 173.76 175.464 174.015 175.095 174.525C174.73 175.031 174.548 175.751 174.548 176.686C174.548 177.652 174.739 178.381 175.122 178.873C175.505 179.361 176.029 179.604 176.694 179.604C177.36 179.604 177.882 179.363 178.26 178.88C178.643 178.392 178.834 177.661 178.834 176.686ZM173.276 177.041H171.69V180.5H170.405V172.864H171.69V175.961H173.311C173.424 174.908 173.791 174.095 174.411 173.521C175.035 172.942 175.801 172.652 176.708 172.652C177.761 172.652 178.599 173.012 179.224 173.732C179.848 174.452 180.16 175.437 180.16 176.686C180.16 177.921 179.853 178.9 179.237 179.625C178.622 180.35 177.779 180.712 176.708 180.712C175.696 180.712 174.885 180.384 174.274 179.728C173.668 179.071 173.336 178.176 173.276 177.041ZM191.884 180.5H182.149V172.864H183.435V179.393H186.374V172.864H187.659V179.393H190.599V172.864H191.884V180.5ZM200.025 173.992H197.264V180.5H195.979V173.992H193.217V172.864H200.025V173.992ZM207.962 172.864L203.505 183.316H202.131L203.553 180.131L200.511 172.864H201.905L204.25 178.524L206.615 172.864H207.962ZM216.363 176.59C216.363 177.21 216.274 177.777 216.097 178.292C215.919 178.802 215.668 179.235 215.345 179.591C215.044 179.928 214.688 180.19 214.278 180.377C213.873 180.559 213.442 180.65 212.986 180.65C212.59 180.65 212.23 180.607 211.906 180.521C211.587 180.434 211.261 180.299 210.929 180.117V183.316H209.644V172.864H210.929V173.664C211.271 173.377 211.653 173.138 212.077 172.946C212.506 172.75 212.961 172.652 213.444 172.652C214.365 172.652 215.08 173.001 215.591 173.698C216.106 174.391 216.363 175.355 216.363 176.59ZM215.037 176.624C215.037 175.703 214.88 175.015 214.565 174.56C214.251 174.104 213.768 173.876 213.116 173.876C212.747 173.876 212.376 173.956 212.002 174.115C211.628 174.275 211.271 174.484 210.929 174.744V179.071C211.293 179.235 211.605 179.347 211.865 179.406C212.13 179.465 212.428 179.495 212.761 179.495C213.476 179.495 214.035 179.254 214.436 178.771C214.837 178.287 215.037 177.572 215.037 176.624ZM224.97 172.864L220.513 183.316H219.139L220.561 180.131L217.519 172.864H218.913L221.258 178.524L223.623 172.864H224.97Z" fill="#333333"/>
</svg>
