<svg width="240" height="243" viewBox="0 0 240 243" fill="none" xmlns="http://www.w3.org/2000/svg">
<path d="M14.9707 16.0986C14.9707 16.8438 14.8271 17.5308 14.54 18.1597C14.2598 18.7817 13.8735 19.291 13.3813 19.6875C12.7593 20.1865 12.1099 20.5317 11.4331 20.7231C10.7632 20.9077 9.94971 21 8.99268 21H1.94824V5.73193H13.812V8.68506H5.86523V11.4229H9.0542C10.1206 11.4229 10.9922 11.5015 11.6689 11.6587C12.3457 11.8091 12.9438 12.0894 13.4634 12.4995C13.9897 12.9097 14.3726 13.4292 14.6118 14.0581C14.8511 14.6802 14.9707 15.3604 14.9707 16.0986ZM10.8999 16.2114C10.8999 15.9585 10.8726 15.7192 10.8179 15.4937C10.7632 15.2681 10.6436 15.0596 10.459 14.8682C10.2744 14.6836 10.0215 14.5366 9.7002 14.4272C9.37891 14.3179 8.93457 14.2632 8.36719 14.2632H5.86523V18.1494H8.36719C8.79785 18.1494 9.18408 18.0947 9.52588 17.9854C9.87451 17.876 10.1411 17.7358 10.3257 17.5649C10.5103 17.4009 10.6504 17.2061 10.7461 16.9805C10.8486 16.748 10.8999 16.4917 10.8999 16.2114ZM29.2954 21H25.7168V13.9556L20.7129 21H17.6572V9.48486H21.2358V15.791L25.8706 9.48486H29.2954V21ZM42.4512 17.7393C42.4512 18.3955 42.2905 18.9595 41.9692 19.4312C41.6479 19.896 41.2139 20.2686 40.667 20.5488C40.1133 20.8291 39.498 21.0273 38.8213 21.1436C38.1445 21.2598 37.4233 21.3179 36.6577 21.3179C35.6528 21.3179 34.7607 21.2324 33.9814 21.0615C33.209 20.8906 32.4536 20.6787 31.7153 20.4258V17.6265H32.1255C32.6655 17.9272 33.2705 18.1904 33.9404 18.416C34.6104 18.6348 35.2939 18.7441 35.9912 18.7441C36.251 18.7441 36.5586 18.7271 36.9141 18.6929C37.2764 18.6587 37.5635 18.6006 37.7754 18.5186C38.0625 18.4092 38.2778 18.2827 38.4214 18.1392C38.5718 17.9956 38.647 17.7666 38.647 17.4521C38.647 17.1582 38.5786 16.9292 38.4419 16.7651C38.312 16.6011 38.1309 16.4814 37.8984 16.4062C37.7002 16.3379 37.4473 16.2935 37.1396 16.2729C36.8389 16.2524 36.4561 16.2422 35.9912 16.2422H34.2275V13.9043H35.6426C35.916 13.9043 36.2407 13.9009 36.6167 13.894C36.9995 13.8872 37.3003 13.8564 37.519 13.8018C37.8403 13.7266 38.0693 13.6069 38.2061 13.4429C38.3496 13.2788 38.4214 13.0669 38.4214 12.8071C38.4214 12.5952 38.3496 12.4175 38.2061 12.2739C38.0625 12.1304 37.8745 12.0176 37.6421 11.9355C37.4438 11.8672 37.2114 11.8159 36.9448 11.7817C36.6782 11.7476 36.3979 11.7305 36.104 11.7305C35.6187 11.7305 35.0513 11.8159 34.4019 11.9868C33.7593 12.1577 33.1885 12.3696 32.6895 12.6226H32.2896V9.86426C32.7134 9.73438 33.3423 9.58398 34.1763 9.41309C35.0171 9.24219 35.875 9.15674 36.75 9.15674C37.5156 9.15674 38.2129 9.21484 38.8418 9.33105C39.4707 9.44727 40.0278 9.62158 40.5132 9.854C41.0259 10.1069 41.4395 10.4351 41.7539 10.8384C42.0684 11.2417 42.2256 11.7441 42.2256 12.3457C42.2256 12.9609 42.0137 13.5112 41.5898 13.9966C41.1729 14.4819 40.6704 14.8066 40.0825 14.9707V15.063C40.7593 15.2407 41.3232 15.5518 41.7744 15.9961C42.2256 16.4336 42.4512 17.0146 42.4512 17.7393ZM56.7656 21H53.0742V16.0884H48.8291V21H45.1377V9.48486H48.8291V13.4531H53.0742V9.48486H56.7656V21ZM71.5928 15.9243H63.1436C63.1982 16.8267 63.54 17.5171 64.1689 17.9956C64.8047 18.4741 65.7378 18.7134 66.9683 18.7134C67.7476 18.7134 68.5029 18.5732 69.2344 18.293C69.9658 18.0127 70.5435 17.7119 70.9673 17.3906H71.3774V20.354C70.5435 20.689 69.7573 20.9316 69.019 21.082C68.2808 21.2324 67.4639 21.3076 66.5684 21.3076C64.2578 21.3076 62.4873 20.7881 61.2568 19.749C60.0264 18.71 59.4111 17.23 59.4111 15.3091C59.4111 13.4087 59.9922 11.9048 61.1543 10.7974C62.3232 9.68311 63.9229 9.12598 65.9531 9.12598C67.8262 9.12598 69.2344 9.60107 70.1777 10.5513C71.1211 11.4946 71.5928 12.855 71.5928 14.6323V15.9243ZM67.9219 13.7607C67.9014 12.9883 67.71 12.4072 67.3477 12.0176C66.9854 11.6279 66.4214 11.4331 65.6558 11.4331C64.9448 11.4331 64.3604 11.6177 63.9023 11.9868C63.4443 12.356 63.188 12.9473 63.1333 13.7607H67.9219ZM80.1958 21.3076C79.1909 21.3076 78.2715 21.188 77.4375 20.9487C76.6104 20.7095 75.8892 20.3403 75.2739 19.8413C74.6655 19.3423 74.1938 18.7134 73.8589 17.9546C73.5239 17.1958 73.3564 16.3071 73.3564 15.2886C73.3564 14.2153 73.5342 13.2891 73.8896 12.5098C74.252 11.7305 74.7544 11.0845 75.397 10.5718C76.019 10.0864 76.7368 9.73096 77.5503 9.50537C78.3638 9.27979 79.208 9.16699 80.083 9.16699C80.8691 9.16699 81.5938 9.25244 82.2568 9.42334C82.9199 9.59424 83.5386 9.81641 84.1128 10.0898V13.2378H83.5898C83.4463 13.1147 83.272 12.9712 83.0669 12.8071C82.8687 12.6431 82.6226 12.4824 82.3286 12.3252C82.0483 12.1748 81.7407 12.0518 81.4058 11.9561C81.0708 11.8535 80.6812 11.8022 80.2368 11.8022C79.2524 11.8022 78.4937 12.1167 77.9604 12.7456C77.4341 13.3677 77.1709 14.2153 77.1709 15.2886C77.1709 16.396 77.4409 17.2368 77.981 17.811C78.5278 18.3853 79.3003 18.6724 80.2983 18.6724C80.7632 18.6724 81.1802 18.6211 81.5493 18.5186C81.9253 18.4092 82.2363 18.2827 82.4824 18.1392C82.7148 18.0024 82.9199 17.8589 83.0977 17.7085C83.2754 17.5581 83.4395 17.4111 83.5898 17.2676H84.1128V20.4155C83.5317 20.689 82.9233 20.9043 82.2876 21.0615C81.6587 21.2256 80.9614 21.3076 80.1958 21.3076ZM96.1611 11.9868H92.4902V21H88.7988V11.9868H85.1279V9.48486H96.1611V11.9868ZM109.645 21H106.066V13.9556L101.062 21H98.0068V9.48486H101.585V15.791L106.22 9.48486H109.645V21ZM133.547 16.0986C133.547 16.8438 133.403 17.5308 133.116 18.1597C132.836 18.7817 132.45 19.291 131.958 19.6875C131.335 20.1865 130.686 20.5317 130.009 20.7231C129.339 20.9077 128.526 21 127.569 21H120.524V5.73193H132.388V8.68506H124.441V11.4229H127.63C128.697 11.4229 129.568 11.5015 130.245 11.6587C130.922 11.8091 131.52 12.0894 132.04 12.4995C132.566 12.9097 132.949 13.4292 133.188 14.0581C133.427 14.6802 133.547 15.3604 133.547 16.0986ZM129.476 16.2114C129.476 15.9585 129.449 15.7192 129.394 15.4937C129.339 15.2681 129.22 15.0596 129.035 14.8682C128.851 14.6836 128.598 14.5366 128.276 14.4272C127.955 14.3179 127.511 14.2632 126.943 14.2632H124.441V18.1494H126.943C127.374 18.1494 127.76 18.0947 128.102 17.9854C128.451 17.876 128.717 17.7358 128.902 17.5649C129.086 17.4009 129.227 17.2061 129.322 16.9805C129.425 16.748 129.476 16.4917 129.476 16.2114ZM143.206 17.9956V15.5962C142.707 15.6372 142.167 15.6953 141.586 15.7705C141.005 15.8389 140.564 15.9209 140.263 16.0166C139.894 16.1328 139.61 16.3037 139.412 16.5293C139.221 16.748 139.125 17.0386 139.125 17.4009C139.125 17.6401 139.146 17.835 139.187 17.9854C139.228 18.1357 139.33 18.2793 139.494 18.416C139.651 18.5527 139.839 18.6553 140.058 18.7236C140.277 18.7852 140.619 18.8159 141.083 18.8159C141.453 18.8159 141.825 18.7407 142.201 18.5903C142.584 18.4399 142.919 18.2417 143.206 17.9956ZM143.206 19.7798C143.008 19.9302 142.762 20.1113 142.468 20.3232C142.174 20.5352 141.897 20.7026 141.637 20.8257C141.275 20.9897 140.899 21.1094 140.509 21.1846C140.12 21.2666 139.692 21.3076 139.228 21.3076C138.134 21.3076 137.218 20.9692 136.479 20.2925C135.741 19.6157 135.372 18.751 135.372 17.6982C135.372 16.8574 135.56 16.1704 135.936 15.6372C136.312 15.104 136.845 14.6836 137.536 14.376C138.219 14.0684 139.067 13.8496 140.079 13.7197C141.09 13.5898 142.14 13.4941 143.227 13.4326V13.3711C143.227 12.7354 142.967 12.2979 142.447 12.0586C141.928 11.8125 141.162 11.6895 140.15 11.6895C139.542 11.6895 138.893 11.7988 138.202 12.0176C137.512 12.2295 137.016 12.3936 136.715 12.5098H136.377V9.73096C136.767 9.62842 137.399 9.50879 138.274 9.37207C139.156 9.22852 140.038 9.15674 140.919 9.15674C143.018 9.15674 144.532 9.48145 145.462 10.1309C146.398 10.7734 146.867 11.7852 146.867 13.166V21H143.206V19.7798ZM167.826 21H150.261V9.48486H153.942V18.4673H157.203V9.48486H160.884V18.4673H164.145V9.48486H167.826V21ZM183.545 21H179.279L176.193 16.437H175.014V21H171.322V9.48486H175.014V14.1094C175.697 14.1025 176.169 14.0308 176.429 13.894C176.688 13.7505 176.989 13.3779 177.331 12.7764C177.434 12.5986 177.557 12.3696 177.7 12.0894C177.844 11.8091 177.957 11.5938 178.039 11.4434C178.415 10.7734 178.852 10.2778 179.351 9.95654C179.857 9.62842 180.558 9.46436 181.453 9.46436C181.713 9.46436 181.986 9.46777 182.273 9.47461C182.567 9.48145 182.766 9.48486 182.868 9.48486V12.561H181.863C181.453 12.561 181.125 12.6636 180.879 12.8687C180.64 13.0737 180.431 13.3779 180.253 13.7812C180.103 14.1162 179.966 14.3828 179.843 14.5811C179.72 14.7725 179.563 14.9365 179.372 15.0732L183.545 21ZM192.384 17.9956V15.5962C191.885 15.6372 191.345 15.6953 190.764 15.7705C190.183 15.8389 189.742 15.9209 189.441 16.0166C189.072 16.1328 188.788 16.3037 188.59 16.5293C188.398 16.748 188.303 17.0386 188.303 17.4009C188.303 17.6401 188.323 17.835 188.364 17.9854C188.405 18.1357 188.508 18.2793 188.672 18.416C188.829 18.5527 189.017 18.6553 189.236 18.7236C189.455 18.7852 189.796 18.8159 190.261 18.8159C190.63 18.8159 191.003 18.7407 191.379 18.5903C191.762 18.4399 192.097 18.2417 192.384 17.9956ZM192.384 19.7798C192.186 19.9302 191.939 20.1113 191.646 20.3232C191.352 20.5352 191.075 20.7026 190.815 20.8257C190.453 20.9897 190.077 21.1094 189.687 21.1846C189.297 21.2666 188.87 21.3076 188.405 21.3076C187.312 21.3076 186.396 20.9692 185.657 20.2925C184.919 19.6157 184.55 18.751 184.55 17.6982C184.55 16.8574 184.738 16.1704 185.114 15.6372C185.49 15.104 186.023 14.6836 186.713 14.376C187.397 14.0684 188.245 13.8496 189.256 13.7197C190.268 13.5898 191.317 13.4941 192.404 13.4326V13.3711C192.404 12.7354 192.145 12.2979 191.625 12.0586C191.105 11.8125 190.34 11.6895 189.328 11.6895C188.72 11.6895 188.07 11.7988 187.38 12.0176C186.689 12.2295 186.194 12.3936 185.893 12.5098H185.555V9.73096C185.944 9.62842 186.577 9.50879 187.452 9.37207C188.333 9.22852 189.215 9.15674 190.097 9.15674C192.196 9.15674 193.71 9.48145 194.64 10.1309C195.576 10.7734 196.044 11.7852 196.044 13.166V21H192.384V19.7798ZM211.456 15.0835C211.456 16.0337 211.309 16.8984 211.015 17.6777C210.728 18.457 210.349 19.0996 209.877 19.6055C209.385 20.1387 208.828 20.542 208.206 20.8154C207.583 21.0889 206.917 21.2256 206.206 21.2256C205.55 21.2256 204.993 21.1538 204.535 21.0103C204.077 20.8735 203.608 20.6787 203.13 20.4258V25.2246H199.438V9.48486H203.13V10.6846C203.697 10.2334 204.275 9.86768 204.863 9.5874C205.458 9.30713 206.141 9.16699 206.914 9.16699C208.349 9.16699 209.463 9.69336 210.256 10.7461C211.056 11.7988 211.456 13.2446 211.456 15.0835ZM207.652 15.1553C207.652 14.0342 207.46 13.2207 207.078 12.7148C206.695 12.209 206.09 11.9561 205.263 11.9561C204.914 11.9561 204.555 12.0107 204.186 12.1201C203.817 12.2227 203.465 12.373 203.13 12.5713V18.3647C203.376 18.4604 203.639 18.522 203.919 18.5493C204.2 18.5767 204.477 18.5903 204.75 18.5903C205.728 18.5903 206.456 18.3066 206.934 17.7393C207.413 17.165 207.652 16.3037 207.652 15.1553ZM219.321 16.9292L221.946 9.48486H225.74L219.341 25.2246H215.342L217.167 20.918L212.687 9.48486H216.562L219.321 16.9292ZM233 16.9292L235.625 9.48486H239.418L233.02 25.2246H229.021L230.846 20.918L226.365 9.48486H230.241L233 16.9292Z" fill="#333333"/>
<path d="M5 49L12.5 56.5L25 41.5" stroke="#61B857" stroke-width="2" stroke-linecap="round" stroke-linejoin="round"/>
<path d="M43.2773 43.8633L42.9834 47.8213H42.0811L41.7871 43.8633H43.2773ZM40.6387 43.8633L40.3447 47.8213H39.4424L39.1484 43.8633H40.6387ZM53.4766 51.3486C53.4766 51.8408 53.3786 52.2874 53.1826 52.6885C52.9912 53.0895 52.7337 53.4154 52.4102 53.666C52.0273 53.9668 51.6172 54.181 51.1797 54.3086C50.7422 54.4362 50.1771 54.5 49.4844 54.5H45.793V44.3213H52.6084V45.5244H47.1465V48.3135H49.5254C50.2181 48.3135 50.7832 48.3545 51.2207 48.4365C51.6582 48.514 52.0706 48.7031 52.458 49.0039C52.8044 49.2728 53.0596 49.6055 53.2236 50.002C53.3923 50.3984 53.4766 50.8473 53.4766 51.3486ZM52.0615 51.376C52.0615 51.0342 52.0046 50.7334 51.8906 50.4736C51.7767 50.2139 51.599 50.0042 51.3574 49.8447C51.1068 49.6761 50.8174 49.5736 50.4893 49.5371C50.1611 49.5007 49.6986 49.4824 49.1016 49.4824H47.1465V53.3447H49.0674C49.6735 53.3447 50.1383 53.3151 50.4619 53.2559C50.79 53.1966 51.0771 53.0827 51.3232 52.9141C51.5785 52.7363 51.7653 52.529 51.8838 52.292C52.0023 52.0505 52.0615 51.7451 52.0615 51.376ZM61.7207 54.5H60.4492V48.7646L56.4502 54.5H55.2881V46.8643H56.5596V52.5176L60.5176 46.8643H61.7207V54.5ZM69.5684 52.3604C69.5684 52.7887 69.4681 53.151 69.2676 53.4473C69.0716 53.7435 68.8187 53.9827 68.5088 54.165C68.1989 54.3428 67.8571 54.4727 67.4834 54.5547C67.1097 54.6367 66.736 54.6777 66.3623 54.6777C65.8337 54.6777 65.3301 54.6276 64.8516 54.5273C64.373 54.4271 63.9014 54.2721 63.4365 54.0625V52.6543H63.5254C63.8581 52.946 64.2819 53.1715 64.7969 53.3311C65.3118 53.4906 65.8109 53.5703 66.2939 53.5703C66.5218 53.5703 66.7565 53.5498 66.998 53.5088C67.2396 53.4632 67.4492 53.3926 67.627 53.2969C67.8184 53.1875 67.971 53.0576 68.085 52.9072C68.1989 52.7523 68.2559 52.5426 68.2559 52.2783C68.2559 52.0049 68.1989 51.7861 68.085 51.6221C67.9756 51.458 67.8252 51.335 67.6338 51.2529C67.4469 51.1709 67.2214 51.1208 66.957 51.1025C66.6927 51.0843 66.4512 51.0752 66.2324 51.0752H65.1182V49.9678H65.8906C66.0729 49.9678 66.3099 49.9609 66.6016 49.9473C66.8978 49.9336 67.137 49.8971 67.3193 49.8379C67.5563 49.7604 67.7432 49.651 67.8799 49.5098C68.0212 49.3685 68.0918 49.1429 68.0918 48.833C68.0918 48.6188 68.0371 48.4434 67.9277 48.3066C67.8184 48.1654 67.6816 48.056 67.5176 47.9785C67.349 47.901 67.1598 47.8486 66.9502 47.8213C66.7451 47.7939 66.5628 47.7803 66.4033 47.7803C65.9385 47.7803 65.4805 47.8441 65.0293 47.9717C64.5827 48.0947 64.2067 48.2747 63.9014 48.5117H63.8125V47.0967C64.1908 46.9736 64.5964 46.8734 65.0293 46.7959C65.4622 46.7184 65.8952 46.6797 66.3281 46.6797C66.6836 46.6797 67.0368 46.7116 67.3877 46.7754C67.7432 46.8392 68.0736 46.9486 68.3789 47.1035C68.6797 47.2585 68.9258 47.4704 69.1172 47.7393C69.3086 48.0036 69.4043 48.3317 69.4043 48.7236C69.4043 49.1247 69.279 49.4779 69.0283 49.7832C68.7822 50.084 68.4495 50.3005 68.0303 50.4326V50.4805C68.4997 50.5944 68.8734 50.8086 69.1514 51.123C69.4294 51.4329 69.5684 51.8454 69.5684 52.3604ZM77.9902 54.5H76.7051V51.0615H72.8838V54.5H71.5986V46.8643H72.8838V49.9541H76.7051V46.8643H77.9902V54.5ZM86.918 50.8154H81.292C81.292 51.2848 81.3626 51.695 81.5039 52.0459C81.6452 52.3923 81.8389 52.6771 82.085 52.9004C82.3219 53.1191 82.6022 53.2832 82.9258 53.3926C83.2539 53.502 83.6139 53.5566 84.0059 53.5566C84.5254 53.5566 85.0472 53.4541 85.5713 53.249C86.0999 53.0394 86.4759 52.8343 86.6992 52.6338H86.7676V54.0352C86.3346 54.2174 85.8926 54.3701 85.4414 54.4932C84.9902 54.6162 84.5163 54.6777 84.0195 54.6777C82.7526 54.6777 81.7637 54.3359 81.0527 53.6523C80.3418 52.9642 79.9863 51.9889 79.9863 50.7266C79.9863 49.4779 80.3258 48.4867 81.0049 47.7529C81.6885 47.0192 82.5863 46.6523 83.6982 46.6523C84.7282 46.6523 85.5212 46.9531 86.0771 47.5547C86.6377 48.1562 86.918 49.0107 86.918 50.1182V50.8154ZM85.667 49.8311C85.6624 49.1566 85.4915 48.6348 85.1543 48.2656C84.8216 47.8965 84.3135 47.7119 83.6299 47.7119C82.9417 47.7119 82.3926 47.9147 81.9824 48.3203C81.5768 48.7259 81.3467 49.2295 81.292 49.8311H85.667ZM94.5811 54.0215C94.057 54.2676 93.6058 54.4362 93.2275 54.5273C92.8538 54.623 92.4801 54.6709 92.1064 54.6709C91.5505 54.6709 91.04 54.5911 90.5752 54.4316C90.1104 54.2676 89.7116 54.0215 89.3789 53.6934C89.0462 53.3652 88.7865 52.9505 88.5996 52.4492C88.4173 51.9479 88.3262 51.3623 88.3262 50.6924C88.3262 49.4756 88.6634 48.5049 89.3379 47.7803C90.0124 47.0511 90.9352 46.6865 92.1064 46.6865C92.5485 46.6865 92.9814 46.748 93.4053 46.8711C93.8337 46.9941 94.2256 47.1445 94.5811 47.3223V48.751H94.5059C94.082 48.4274 93.6628 48.1882 93.248 48.0332C92.8379 47.8783 92.4391 47.8008 92.0518 47.8008C91.2907 47.8008 90.7005 48.056 90.2812 48.5664C89.8665 49.0768 89.6592 49.7855 89.6592 50.6924C89.6592 51.5993 89.8665 52.3034 90.2812 52.8047C90.696 53.306 91.2861 53.5566 92.0518 53.5566C92.3206 53.5566 92.5872 53.5225 92.8516 53.4541C93.1204 53.3857 93.3643 53.2969 93.583 53.1875C93.7562 53.1009 93.9339 52.9984 94.1162 52.8799C94.3031 52.7568 94.4329 52.6657 94.5059 52.6064H94.5811V54.0215ZM107.979 49.4072C107.979 51.2347 107.692 52.5768 107.118 53.4336C106.549 54.2858 105.662 54.7119 104.459 54.7119C103.238 54.7119 102.344 54.279 101.779 53.4131C101.219 52.5472 100.938 51.2165 100.938 49.4209C100.938 47.6117 101.223 46.2764 101.793 45.415C102.363 44.5492 103.251 44.1162 104.459 44.1162C105.68 44.1162 106.571 44.556 107.132 45.4355C107.697 46.3105 107.979 47.6344 107.979 49.4072ZM106.182 52.5107C106.341 52.1416 106.448 51.7087 106.503 51.2119C106.562 50.7106 106.592 50.109 106.592 49.4072C106.592 48.7145 106.562 48.113 106.503 47.6025C106.448 47.0921 106.339 46.6592 106.175 46.3037C106.015 45.9528 105.797 45.6885 105.519 45.5107C105.245 45.333 104.892 45.2441 104.459 45.2441C104.031 45.2441 103.675 45.333 103.393 45.5107C103.115 45.6885 102.894 45.9574 102.729 46.3174C102.575 46.6546 102.467 47.0944 102.408 47.6367C102.354 48.179 102.326 48.7738 102.326 49.4209C102.326 50.1318 102.351 50.7266 102.401 51.2051C102.451 51.6836 102.559 52.112 102.723 52.4902C102.873 52.8457 103.085 53.1169 103.358 53.3037C103.636 53.4906 104.003 53.584 104.459 53.584C104.887 53.584 105.243 53.4951 105.525 53.3174C105.808 53.1396 106.027 52.8708 106.182 52.5107ZM117.099 56.332H115.902V54.4795H110.16V56.332H108.964V53.4062H109.791C110.324 52.5267 110.721 51.5127 110.98 50.3643C111.245 49.2113 111.377 48.0446 111.377 46.8643H116.176V53.4062H117.099V56.332ZM114.891 53.4062V47.9443H112.587C112.528 49.0882 112.352 50.1318 112.061 51.0752C111.769 52.0186 111.434 52.7956 111.056 53.4062H114.891ZM125.384 50.6855C125.384 51.8568 125.094 52.8047 124.516 53.5293C123.887 54.3177 123.003 54.7119 121.863 54.7119C120.719 54.7119 119.833 54.3177 119.204 53.5293C118.625 52.8092 118.336 51.8613 118.336 50.6855C118.336 49.5098 118.625 48.5596 119.204 47.835C119.833 47.0465 120.719 46.6523 121.863 46.6523C123.007 46.6523 123.894 47.0465 124.522 47.835C125.097 48.5596 125.384 49.5098 125.384 50.6855ZM124.037 50.1729C123.91 48.5641 123.185 47.7598 121.863 47.7598C120.533 47.7598 119.806 48.5641 119.683 50.1729H124.037ZM124.044 51.1572H119.676C119.73 51.8773 119.924 52.4492 120.257 52.873C120.635 53.3607 121.171 53.6045 121.863 53.6045C123.194 53.6045 123.921 52.7887 124.044 51.1572ZM133.771 54.5H132.486V51.0615H128.665V54.5H127.38V46.8643H128.665V49.9541H132.486V46.8643H133.771V54.5ZM140.32 43.8633L140.026 47.8213H139.124L138.83 43.8633H140.32ZM137.682 43.8633L137.388 47.8213H136.485L136.191 43.8633H137.682ZM154.546 54.5H152.864L149.692 51H148.995V54.5H147.71V46.8643H148.995V50.1592C149.419 50.1592 149.761 50.084 150.021 49.9336C150.28 49.7786 150.501 49.5326 150.684 49.1953C150.747 49.0723 150.809 48.9424 150.868 48.8057C150.932 48.6644 150.993 48.5299 151.053 48.4023C151.29 47.8874 151.586 47.5023 151.941 47.2471C152.297 46.9919 152.807 46.8643 153.473 46.8643H154.061V47.9717H153.493C153.133 47.9717 152.851 48.0492 152.646 48.2041C152.445 48.3545 152.263 48.6211 152.099 49.0039C151.916 49.4323 151.723 49.7536 151.518 49.9678C151.317 50.1774 151.103 50.3369 150.875 50.4463L154.546 54.5ZM162.544 46.8643L158.087 57.3164H156.713L158.135 54.1309L155.093 46.8643H156.487L158.832 52.5244L161.197 46.8643H162.544ZM170.945 50.5898C170.945 51.2096 170.856 51.777 170.679 52.292C170.501 52.8024 170.25 53.2354 169.927 53.5908C169.626 53.9281 169.271 54.1901 168.86 54.377C168.455 54.5592 168.024 54.6504 167.568 54.6504C167.172 54.6504 166.812 54.6071 166.488 54.5205C166.169 54.4339 165.843 54.2995 165.511 54.1172V57.3164H164.226V46.8643H165.511V47.6641C165.853 47.377 166.235 47.1377 166.659 46.9463C167.088 46.7503 167.543 46.6523 168.026 46.6523C168.947 46.6523 169.662 47.001 170.173 47.6982C170.688 48.391 170.945 49.3548 170.945 50.5898ZM169.619 50.624C169.619 49.7035 169.462 49.0153 169.147 48.5596C168.833 48.1038 168.35 47.876 167.698 47.876C167.329 47.876 166.958 47.9557 166.584 48.1152C166.21 48.2747 165.853 48.4844 165.511 48.7441V53.0713C165.875 53.2354 166.188 53.347 166.447 53.4062C166.712 53.4655 167.01 53.4951 167.343 53.4951C168.058 53.4951 168.617 53.2536 169.018 52.7705C169.419 52.2874 169.619 51.5719 169.619 50.624ZM178.663 54.0215C178.139 54.2676 177.688 54.4362 177.31 54.5273C176.936 54.623 176.562 54.6709 176.188 54.6709C175.632 54.6709 175.122 54.5911 174.657 54.4316C174.192 54.2676 173.794 54.0215 173.461 53.6934C173.128 53.3652 172.868 52.9505 172.682 52.4492C172.499 51.9479 172.408 51.3623 172.408 50.6924C172.408 49.4756 172.745 48.5049 173.42 47.7803C174.094 47.0511 175.017 46.6865 176.188 46.6865C176.631 46.6865 177.063 46.748 177.487 46.8711C177.916 46.9941 178.308 47.1445 178.663 47.3223V48.751H178.588C178.164 48.4274 177.745 48.1882 177.33 48.0332C176.92 47.8783 176.521 47.8008 176.134 47.8008C175.373 47.8008 174.783 48.056 174.363 48.5664C173.949 49.0768 173.741 49.7855 173.741 50.6924C173.741 51.5993 173.949 52.3034 174.363 52.8047C174.778 53.306 175.368 53.5566 176.134 53.5566C176.403 53.5566 176.669 53.5225 176.934 53.4541C177.202 53.3857 177.446 53.2969 177.665 53.1875C177.838 53.1009 178.016 52.9984 178.198 52.8799C178.385 52.7568 178.515 52.6657 178.588 52.6064H178.663V54.0215ZM187.03 46.8643L182.573 57.3164H181.199L182.621 54.1309L179.579 46.8643H180.974L183.318 52.5244L185.684 46.8643H187.03Z" fill="#333333"/>
<path d="M5 87L12.5 94.5L25 79.5" stroke="#61B857" stroke-width="2" stroke-linecap="round" stroke-linejoin="round"/>
<path d="M47.0508 89.3486C47.0508 89.8408 46.9528 90.2874 46.7568 90.6885C46.5654 91.0895 46.3079 91.4154 45.9844 91.666C45.6016 91.9668 45.1914 92.181 44.7539 92.3086C44.3164 92.4362 43.7513 92.5 43.0586 92.5H39.3672V82.3213H46.1826V83.5244H40.7207V86.3135H43.0996C43.7923 86.3135 44.3574 86.3545 44.7949 86.4365C45.2324 86.514 45.6449 86.7031 46.0322 87.0039C46.3786 87.2728 46.6338 87.6055 46.7979 88.002C46.9665 88.3984 47.0508 88.8473 47.0508 89.3486ZM45.6357 89.376C45.6357 89.0342 45.5788 88.7334 45.4648 88.4736C45.3509 88.2139 45.1732 88.0042 44.9316 87.8447C44.681 87.6761 44.3916 87.5736 44.0635 87.5371C43.7354 87.5007 43.2728 87.4824 42.6758 87.4824H40.7207V91.3447H42.6416C43.2477 91.3447 43.7126 91.3151 44.0361 91.2559C44.3643 91.1966 44.6514 91.0827 44.8975 90.9141C45.1527 90.7363 45.3395 90.529 45.458 90.292C45.5765 90.0505 45.6357 89.7451 45.6357 89.376ZM55.2949 92.5H54.0234V86.7646L50.0244 92.5H48.8623V84.8643H50.1338V90.5176L54.0918 84.8643H55.2949V92.5ZM63.1426 90.3604C63.1426 90.7887 63.0423 91.151 62.8418 91.4473C62.6458 91.7435 62.3929 91.9827 62.083 92.165C61.7731 92.3428 61.4313 92.4727 61.0576 92.5547C60.6839 92.6367 60.3102 92.6777 59.9365 92.6777C59.4079 92.6777 58.9043 92.6276 58.4258 92.5273C57.9473 92.4271 57.4756 92.2721 57.0107 92.0625V90.6543H57.0996C57.4323 90.946 57.8561 91.1715 58.3711 91.3311C58.8861 91.4906 59.3851 91.5703 59.8682 91.5703C60.096 91.5703 60.3307 91.5498 60.5723 91.5088C60.8138 91.4632 61.0234 91.3926 61.2012 91.2969C61.3926 91.1875 61.5452 91.0576 61.6592 90.9072C61.7731 90.7523 61.8301 90.5426 61.8301 90.2783C61.8301 90.0049 61.7731 89.7861 61.6592 89.6221C61.5498 89.458 61.3994 89.335 61.208 89.2529C61.0212 89.1709 60.7956 89.1208 60.5312 89.1025C60.2669 89.0843 60.0254 89.0752 59.8066 89.0752H58.6924V87.9678H59.4648C59.6471 87.9678 59.8841 87.9609 60.1758 87.9473C60.472 87.9336 60.7113 87.8971 60.8936 87.8379C61.1305 87.7604 61.3174 87.651 61.4541 87.5098C61.5954 87.3685 61.666 87.1429 61.666 86.833C61.666 86.6188 61.6113 86.4434 61.502 86.3066C61.3926 86.1654 61.2559 86.056 61.0918 85.9785C60.9232 85.901 60.734 85.8486 60.5244 85.8213C60.3193 85.7939 60.137 85.7803 59.9775 85.7803C59.5127 85.7803 59.0547 85.8441 58.6035 85.9717C58.1569 86.0947 57.7809 86.2747 57.4756 86.5117H57.3867V85.0967C57.765 84.9736 58.1706 84.8734 58.6035 84.7959C59.0365 84.7184 59.4694 84.6797 59.9023 84.6797C60.2578 84.6797 60.611 84.7116 60.9619 84.7754C61.3174 84.8392 61.6478 84.9486 61.9531 85.1035C62.2539 85.2585 62.5 85.4704 62.6914 85.7393C62.8828 86.0036 62.9785 86.3317 62.9785 86.7236C62.9785 87.1247 62.8532 87.4779 62.6025 87.7832C62.3564 88.084 62.0238 88.3005 61.6045 88.4326V88.4805C62.0739 88.5944 62.4476 88.8086 62.7256 89.123C63.0036 89.4329 63.1426 89.8454 63.1426 90.3604ZM71.5645 92.5H70.2793V89.0615H66.458V92.5H65.1729V84.8643H66.458V87.9541H70.2793V84.8643H71.5645V92.5ZM80.4922 88.8154H74.8662C74.8662 89.2848 74.9368 89.695 75.0781 90.0459C75.2194 90.3923 75.4131 90.6771 75.6592 90.9004C75.8962 91.1191 76.1764 91.2832 76.5 91.3926C76.8281 91.502 77.1882 91.5566 77.5801 91.5566C78.0996 91.5566 78.6214 91.4541 79.1455 91.249C79.6742 91.0394 80.0501 90.8343 80.2734 90.6338H80.3418V92.0352C79.9089 92.2174 79.4668 92.3701 79.0156 92.4932C78.5645 92.6162 78.0905 92.6777 77.5938 92.6777C76.3268 92.6777 75.3379 92.3359 74.627 91.6523C73.916 90.9642 73.5605 89.9889 73.5605 88.7266C73.5605 87.4779 73.9001 86.4867 74.5791 85.7529C75.2627 85.0192 76.1605 84.6523 77.2725 84.6523C78.3024 84.6523 79.0954 84.9531 79.6514 85.5547C80.2119 86.1562 80.4922 87.0107 80.4922 88.1182V88.8154ZM79.2412 87.8311C79.2367 87.1566 79.0658 86.6348 78.7285 86.2656C78.3958 85.8965 77.8877 85.7119 77.2041 85.7119C76.516 85.7119 75.9668 85.9147 75.5566 86.3203C75.151 86.7259 74.9209 87.2295 74.8662 87.8311H79.2412ZM88.1553 92.0215C87.6312 92.2676 87.18 92.4362 86.8018 92.5273C86.4281 92.623 86.0544 92.6709 85.6807 92.6709C85.1247 92.6709 84.6143 92.5911 84.1494 92.4316C83.6846 92.2676 83.2858 92.0215 82.9531 91.6934C82.6204 91.3652 82.3607 90.9505 82.1738 90.4492C81.9915 89.9479 81.9004 89.3623 81.9004 88.6924C81.9004 87.4756 82.2376 86.5049 82.9121 85.7803C83.5866 85.0511 84.5094 84.6865 85.6807 84.6865C86.1227 84.6865 86.5557 84.748 86.9795 84.8711C87.4079 84.9941 87.7998 85.1445 88.1553 85.3223V86.751H88.0801C87.6562 86.4274 87.237 86.1882 86.8223 86.0332C86.4121 85.8783 86.0133 85.8008 85.626 85.8008C84.8649 85.8008 84.2747 86.056 83.8555 86.5664C83.4408 87.0768 83.2334 87.7855 83.2334 88.6924C83.2334 89.5993 83.4408 90.3034 83.8555 90.8047C84.2702 91.306 84.8604 91.5566 85.626 91.5566C85.8949 91.5566 86.1615 91.5225 86.4258 91.4541C86.6947 91.3857 86.9385 91.2969 87.1572 91.1875C87.3304 91.1009 87.5081 90.9984 87.6904 90.8799C87.8773 90.7568 88.0072 90.6657 88.0801 90.6064H88.1553V92.0215ZM103.126 92.5H101.39L97.2539 87.8584H96.3311V92.5H94.9775V82.3213H96.3311V86.8877C96.5635 86.8831 96.7822 86.8604 96.9873 86.8193C97.1924 86.7783 97.3861 86.7008 97.5684 86.5869C97.7507 86.4821 97.9307 86.334 98.1084 86.1426C98.2861 85.9466 98.4434 85.7074 98.5801 85.4248C98.6393 85.3018 98.7077 85.1468 98.7852 84.96C98.8672 84.7731 98.9492 84.5771 99.0312 84.3721C99.3457 83.6156 99.7126 83.0846 100.132 82.7793C100.556 82.474 101.178 82.3213 101.998 82.3213H102.538V83.5312H101.971C101.656 83.5312 101.41 83.5609 101.232 83.6201C101.055 83.6748 100.895 83.7682 100.754 83.9004C100.622 84.0189 100.506 84.1784 100.405 84.3789C100.31 84.5794 100.209 84.8141 100.104 85.083C99.8675 85.6846 99.626 86.1266 99.3799 86.4092C99.1383 86.6917 98.8125 86.9378 98.4023 87.1475L103.126 92.5ZM111.056 88.6855C111.056 89.9297 110.737 90.9118 110.099 91.6318C109.461 92.3519 108.606 92.7119 107.535 92.7119C106.455 92.7119 105.596 92.3519 104.958 91.6318C104.325 90.9118 104.008 89.9297 104.008 88.6855C104.008 87.4414 104.325 86.4593 104.958 85.7393C105.596 85.0146 106.455 84.6523 107.535 84.6523C108.606 84.6523 109.461 85.0146 110.099 85.7393C110.737 86.4593 111.056 87.4414 111.056 88.6855ZM109.729 88.6855C109.729 87.6966 109.536 86.9629 109.148 86.4844C108.761 86.0013 108.223 85.7598 107.535 85.7598C106.838 85.7598 106.296 86.0013 105.908 86.4844C105.525 86.9629 105.334 87.6966 105.334 88.6855C105.334 89.6426 105.528 90.3695 105.915 90.8662C106.302 91.3584 106.842 91.6045 107.535 91.6045C108.219 91.6045 108.754 91.3607 109.142 90.873C109.534 90.3809 109.729 89.6517 109.729 88.6855ZM119.443 92.5H118.158V89.0615H114.337V92.5H113.052V84.8643H114.337V87.9541H118.158V84.8643H119.443V92.5ZM127.694 92.0215C127.17 92.2676 126.719 92.4362 126.341 92.5273C125.967 92.623 125.593 92.6709 125.22 92.6709C124.664 92.6709 124.153 92.5911 123.688 92.4316C123.224 92.2676 122.825 92.0215 122.492 91.6934C122.16 91.3652 121.9 90.9505 121.713 90.4492C121.531 89.9479 121.439 89.3623 121.439 88.6924C121.439 87.4756 121.777 86.5049 122.451 85.7803C123.126 85.0511 124.049 84.6865 125.22 84.6865C125.662 84.6865 126.095 84.748 126.519 84.8711C126.947 84.9941 127.339 85.1445 127.694 85.3223V86.751H127.619C127.195 86.4274 126.776 86.1882 126.361 86.0332C125.951 85.8783 125.552 85.8008 125.165 85.8008C124.404 85.8008 123.814 86.056 123.395 86.5664C122.98 87.0768 122.772 87.7855 122.772 88.6924C122.772 89.5993 122.98 90.3034 123.395 90.8047C123.809 91.306 124.399 91.5566 125.165 91.5566C125.434 91.5566 125.701 91.5225 125.965 91.4541C126.234 91.3857 126.478 91.2969 126.696 91.1875C126.869 91.1009 127.047 90.9984 127.229 90.8799C127.416 90.7568 127.546 90.6657 127.619 90.6064H127.694V92.0215ZM136.062 84.8643L131.604 95.3164H130.23L131.652 92.1309L128.61 84.8643H130.005L132.35 90.5244L134.715 84.8643H136.062ZM143.902 92.5H142.617V85.9443H139.767C139.753 86.3226 139.739 86.6872 139.726 87.0381C139.712 87.389 139.698 87.7057 139.685 87.9883C139.653 88.7493 139.6 89.3577 139.527 89.8135C139.454 90.2646 139.359 90.6406 139.24 90.9414C139.131 91.224 139.008 91.4541 138.871 91.6318C138.739 91.805 138.595 91.9622 138.44 92.1035C138.285 92.2402 138.112 92.3428 137.921 92.4111C137.734 92.4795 137.529 92.5137 137.306 92.5137C137.228 92.5137 137.114 92.5114 136.964 92.5068C136.818 92.5023 136.722 92.5 136.677 92.5V91.3789H136.745C136.782 91.3789 136.834 91.3812 136.902 91.3857C136.971 91.3903 137.028 91.3926 137.073 91.3926C137.183 91.3926 137.294 91.3766 137.408 91.3447C137.527 91.3128 137.627 91.2536 137.709 91.167C137.941 90.9391 138.128 90.554 138.27 90.0117C138.411 89.4694 138.504 88.6855 138.55 87.6602C138.568 87.2865 138.584 86.8444 138.598 86.334C138.616 85.819 138.632 85.3291 138.646 84.8643H143.902V92.5ZM151.21 90.1553C151.21 89.9229 151.169 89.7201 151.087 89.5469C151.009 89.3691 150.88 89.2256 150.697 89.1162C150.506 89.0023 150.287 88.9339 150.041 88.9111C149.799 88.8883 149.451 88.877 148.995 88.877H147.724V91.4746H148.968C149.424 91.4746 149.777 91.4564 150.027 91.4199C150.278 91.3789 150.494 91.3037 150.677 91.1943C150.864 91.0758 150.998 90.9368 151.08 90.7773C151.167 90.6133 151.21 90.4059 151.21 90.1553ZM152.536 90.1348C152.536 90.5039 152.461 90.8389 152.311 91.1396C152.165 91.4404 151.964 91.6842 151.709 91.8711C151.408 92.099 151.087 92.2607 150.745 92.3564C150.403 92.4521 149.964 92.5 149.426 92.5H146.438V84.8643H147.724V87.8379H149.46C150.034 87.8379 150.479 87.8675 150.793 87.9268C151.112 87.986 151.429 88.1318 151.743 88.3643C152.007 88.5602 152.206 88.8109 152.338 89.1162C152.47 89.4215 152.536 89.7611 152.536 90.1348ZM160.049 85.9922H157.287V92.5H156.002V85.9922H153.24V84.8643H160.049V85.9922ZM167.315 92.5H166.037V91.6865C165.923 91.764 165.768 91.8734 165.572 92.0146C165.381 92.1514 165.194 92.2607 165.012 92.3428C164.798 92.4476 164.551 92.5342 164.273 92.6025C163.995 92.6755 163.67 92.7119 163.296 92.7119C162.608 92.7119 162.024 92.484 161.546 92.0283C161.067 91.5726 160.828 90.9915 160.828 90.2852C160.828 89.7064 160.951 89.2393 161.197 88.8838C161.448 88.5238 161.803 88.2412 162.264 88.0361C162.729 87.8311 163.287 87.6921 163.938 87.6191C164.59 87.5462 165.29 87.4915 166.037 87.4551V87.2568C166.037 86.9652 165.985 86.7236 165.88 86.5322C165.78 86.3408 165.634 86.1904 165.442 86.0811C165.26 85.9762 165.041 85.9056 164.786 85.8691C164.531 85.8327 164.264 85.8145 163.986 85.8145C163.649 85.8145 163.273 85.86 162.858 85.9512C162.444 86.0378 162.015 86.1654 161.573 86.334H161.505V85.0283C161.756 84.96 162.118 84.8848 162.592 84.8027C163.066 84.7207 163.533 84.6797 163.993 84.6797C164.531 84.6797 164.998 84.7253 165.395 84.8164C165.796 84.903 166.142 85.0534 166.434 85.2676C166.721 85.4772 166.939 85.7484 167.09 86.0811C167.24 86.4137 167.315 86.8262 167.315 87.3184V92.5ZM166.037 90.6201V88.4941C165.645 88.5169 165.183 88.5511 164.649 88.5967C164.121 88.6423 163.701 88.7083 163.392 88.7949C163.022 88.8997 162.724 89.0638 162.496 89.2871C162.268 89.5059 162.154 89.8089 162.154 90.1963C162.154 90.6338 162.286 90.9642 162.551 91.1875C162.815 91.4062 163.218 91.5156 163.761 91.5156C164.212 91.5156 164.624 91.429 164.998 91.2559C165.372 91.0781 165.718 90.8662 166.037 90.6201ZM175.847 92.5H169.79V84.8643H171.075V91.3926H174.835V84.8643H176.12V91.3926H177.043V94.332H175.847V92.5ZM185.246 92.5H183.975V86.7646L179.976 92.5H178.813V84.8643H180.085V90.5176L184.043 84.8643H185.246V92.5ZM193.647 92.5H192.362V89.4717H190.852L188.486 92.5H186.976L189.546 89.3486C188.885 89.1663 188.402 88.8883 188.097 88.5146C187.791 88.1364 187.639 87.6419 187.639 87.0312C187.639 86.6257 187.73 86.2816 187.912 85.999C188.094 85.7165 188.325 85.4863 188.603 85.3086C188.876 85.1354 189.19 85.0192 189.546 84.96C189.901 84.8962 190.289 84.8643 190.708 84.8643H193.647V92.5ZM192.362 88.46V85.8896H190.742C190.391 85.8896 190.138 85.901 189.983 85.9238C189.828 85.9466 189.66 86.0081 189.478 86.1084C189.3 86.2087 189.168 86.3454 189.081 86.5186C188.999 86.6872 188.958 86.8717 188.958 87.0723C188.958 87.3229 188.983 87.5257 189.033 87.6807C189.088 87.8356 189.197 87.9814 189.361 88.1182C189.53 88.2503 189.735 88.3415 189.977 88.3916C190.218 88.4372 190.487 88.46 190.783 88.46H192.362Z" fill="#333333"/>
<path d="M5 125L12.5 132.5L25 117.5" stroke="#61B857" stroke-width="2" stroke-linecap="round" stroke-linejoin="round"/>
<path d="M47.1396 130.5H45.793V122.345L40.7344 130.5H39.3672V120.321H40.7139V128.354L45.7109 120.321H47.1396V130.5ZM59.5127 130.5H49.7783V122.864H51.0635V129.393H54.0029V122.864H55.2881V129.393H58.2275V122.864H59.5127V130.5ZM68.9326 130.5H67.251L64.0791 127H63.3818V130.5H62.0967V122.864H63.3818V126.159C63.8057 126.159 64.1475 126.084 64.4072 125.934C64.667 125.779 64.888 125.533 65.0703 125.195C65.1341 125.072 65.1956 124.942 65.2549 124.806C65.3187 124.664 65.3802 124.53 65.4395 124.402C65.6764 123.887 65.9727 123.502 66.3281 123.247C66.6836 122.992 67.194 122.864 67.8594 122.864H68.4473V123.972H67.8799C67.5199 123.972 67.2373 124.049 67.0322 124.204C66.8317 124.354 66.6494 124.621 66.4854 125.004C66.3031 125.432 66.1094 125.754 65.9043 125.968C65.7038 126.177 65.4896 126.337 65.2617 126.446L68.9326 130.5ZM76.7188 126.815H71.0928C71.0928 127.285 71.1634 127.695 71.3047 128.046C71.446 128.392 71.6396 128.677 71.8857 128.9C72.1227 129.119 72.403 129.283 72.7266 129.393C73.0547 129.502 73.4147 129.557 73.8066 129.557C74.3262 129.557 74.848 129.454 75.3721 129.249C75.9007 129.039 76.2767 128.834 76.5 128.634H76.5684V130.035C76.1354 130.217 75.6934 130.37 75.2422 130.493C74.791 130.616 74.3171 130.678 73.8203 130.678C72.5534 130.678 71.5645 130.336 70.8535 129.652C70.1426 128.964 69.7871 127.989 69.7871 126.727C69.7871 125.478 70.1266 124.487 70.8057 123.753C71.4893 123.019 72.387 122.652 73.499 122.652C74.529 122.652 75.3219 122.953 75.8779 123.555C76.4385 124.156 76.7188 125.011 76.7188 126.118V126.815ZM75.4678 125.831C75.4632 125.157 75.2923 124.635 74.9551 124.266C74.6224 123.896 74.1143 123.712 73.4307 123.712C72.7425 123.712 72.1934 123.915 71.7832 124.32C71.3776 124.726 71.1475 125.229 71.0928 125.831H75.4678ZM85.3867 126.59C85.3867 127.21 85.2979 127.777 85.1201 128.292C84.9424 128.802 84.6917 129.235 84.3682 129.591C84.0674 129.928 83.7119 130.19 83.3018 130.377C82.8962 130.559 82.4655 130.65 82.0098 130.65C81.6133 130.65 81.2533 130.607 80.9297 130.521C80.6107 130.434 80.2848 130.299 79.9521 130.117V133.316H78.667V122.864H79.9521V123.664C80.2939 123.377 80.6768 123.138 81.1006 122.946C81.529 122.75 81.9847 122.652 82.4678 122.652C83.3883 122.652 84.1038 123.001 84.6143 123.698C85.1292 124.391 85.3867 125.355 85.3867 126.59ZM84.0605 126.624C84.0605 125.703 83.9033 125.015 83.5889 124.56C83.2744 124.104 82.7913 123.876 82.1396 123.876C81.7705 123.876 81.3991 123.956 81.0254 124.115C80.6517 124.275 80.2939 124.484 79.9521 124.744V129.071C80.3167 129.235 80.6289 129.347 80.8887 129.406C81.153 129.465 81.4515 129.495 81.7842 129.495C82.4997 129.495 83.0579 129.254 83.459 128.771C83.86 128.287 84.0605 127.572 84.0605 126.624ZM93.5488 130.5H92.2637V123.944H89.4131C89.3994 124.323 89.3857 124.687 89.3721 125.038C89.3584 125.389 89.3447 125.706 89.3311 125.988C89.2992 126.749 89.2467 127.358 89.1738 127.813C89.1009 128.265 89.0052 128.641 88.8867 128.941C88.7773 129.224 88.6543 129.454 88.5176 129.632C88.3854 129.805 88.2419 129.962 88.0869 130.104C87.932 130.24 87.7588 130.343 87.5674 130.411C87.3805 130.479 87.1755 130.514 86.9521 130.514C86.8747 130.514 86.7607 130.511 86.6104 130.507C86.4645 130.502 86.3688 130.5 86.3232 130.5V129.379H86.3916C86.4281 129.379 86.4805 129.381 86.5488 129.386C86.6172 129.39 86.6742 129.393 86.7197 129.393C86.8291 129.393 86.9408 129.377 87.0547 129.345C87.1732 129.313 87.2734 129.254 87.3555 129.167C87.5879 128.939 87.7747 128.554 87.916 128.012C88.0573 127.469 88.1507 126.686 88.1963 125.66C88.2145 125.286 88.2305 124.844 88.2441 124.334C88.2624 123.819 88.2783 123.329 88.292 122.864H93.5488V130.5ZM102.477 126.815H96.8506C96.8506 127.285 96.9212 127.695 97.0625 128.046C97.2038 128.392 97.3975 128.677 97.6436 128.9C97.8805 129.119 98.1608 129.283 98.4844 129.393C98.8125 129.502 99.1725 129.557 99.5645 129.557C100.084 129.557 100.606 129.454 101.13 129.249C101.659 129.039 102.035 128.834 102.258 128.634H102.326V130.035C101.893 130.217 101.451 130.37 101 130.493C100.549 130.616 100.075 130.678 99.5781 130.678C98.3112 130.678 97.3223 130.336 96.6113 129.652C95.9004 128.964 95.5449 127.989 95.5449 126.727C95.5449 125.478 95.8844 124.487 96.5635 123.753C97.2471 123.019 98.1449 122.652 99.2568 122.652C100.287 122.652 101.08 122.953 101.636 123.555C102.196 124.156 102.477 125.011 102.477 126.118V126.815ZM101.226 125.831C101.221 125.157 101.05 124.635 100.713 124.266C100.38 123.896 99.8721 123.712 99.1885 123.712C98.5003 123.712 97.9512 123.915 97.541 124.32C97.1354 124.726 96.9053 125.229 96.8506 125.831H101.226ZM111.145 126.59C111.145 127.21 111.056 127.777 110.878 128.292C110.7 128.802 110.45 129.235 110.126 129.591C109.825 129.928 109.47 130.19 109.06 130.377C108.654 130.559 108.223 130.65 107.768 130.65C107.371 130.65 107.011 130.607 106.688 130.521C106.368 130.434 106.043 130.299 105.71 130.117V133.316H104.425V122.864H105.71V123.664C106.052 123.377 106.435 123.138 106.858 122.946C107.287 122.75 107.743 122.652 108.226 122.652C109.146 122.652 109.862 123.001 110.372 123.698C110.887 124.391 111.145 125.355 111.145 126.59ZM109.818 126.624C109.818 125.703 109.661 125.015 109.347 124.56C109.032 124.104 108.549 123.876 107.897 123.876C107.528 123.876 107.157 123.956 106.783 124.115C106.41 124.275 106.052 124.484 105.71 124.744V129.071C106.075 129.235 106.387 129.347 106.646 129.406C106.911 129.465 107.209 129.495 107.542 129.495C108.257 129.495 108.816 129.254 109.217 128.771C109.618 128.287 109.818 127.572 109.818 126.624ZM126.354 130.5H124.618L120.482 125.858H119.56V130.5H118.206V120.321H119.56V124.888C119.792 124.883 120.011 124.86 120.216 124.819C120.421 124.778 120.615 124.701 120.797 124.587C120.979 124.482 121.159 124.334 121.337 124.143C121.515 123.947 121.672 123.707 121.809 123.425C121.868 123.302 121.936 123.147 122.014 122.96C122.096 122.773 122.178 122.577 122.26 122.372C122.574 121.616 122.941 121.085 123.36 120.779C123.784 120.474 124.406 120.321 125.227 120.321H125.767V121.531H125.199C124.885 121.531 124.639 121.561 124.461 121.62C124.283 121.675 124.124 121.768 123.982 121.9C123.85 122.019 123.734 122.178 123.634 122.379C123.538 122.579 123.438 122.814 123.333 123.083C123.096 123.685 122.854 124.127 122.608 124.409C122.367 124.692 122.041 124.938 121.631 125.147L126.354 130.5ZM134.284 126.686C134.284 127.93 133.965 128.912 133.327 129.632C132.689 130.352 131.835 130.712 130.764 130.712C129.684 130.712 128.825 130.352 128.187 129.632C127.553 128.912 127.236 127.93 127.236 126.686C127.236 125.441 127.553 124.459 128.187 123.739C128.825 123.015 129.684 122.652 130.764 122.652C131.835 122.652 132.689 123.015 133.327 123.739C133.965 124.459 134.284 125.441 134.284 126.686ZM132.958 126.686C132.958 125.697 132.764 124.963 132.377 124.484C131.99 124.001 131.452 123.76 130.764 123.76C130.066 123.76 129.524 124.001 129.137 124.484C128.754 124.963 128.562 125.697 128.562 126.686C128.562 127.643 128.756 128.369 129.144 128.866C129.531 129.358 130.071 129.604 130.764 129.604C131.447 129.604 131.983 129.361 132.37 128.873C132.762 128.381 132.958 127.652 132.958 126.686ZM142.788 126.686C142.788 127.93 142.469 128.912 141.831 129.632C141.193 130.352 140.339 130.712 139.268 130.712C138.188 130.712 137.328 130.352 136.69 129.632C136.057 128.912 135.74 127.93 135.74 126.686C135.74 125.441 136.057 124.459 136.69 123.739C137.328 123.015 138.188 122.652 139.268 122.652C140.339 122.652 141.193 123.015 141.831 123.739C142.469 124.459 142.788 125.441 142.788 126.686ZM141.462 126.686C141.462 125.697 141.268 124.963 140.881 124.484C140.493 124.001 139.956 123.76 139.268 123.76C138.57 123.76 138.028 124.001 137.641 124.484C137.258 124.963 137.066 125.697 137.066 126.686C137.066 127.643 137.26 128.369 137.647 128.866C138.035 129.358 138.575 129.604 139.268 129.604C139.951 129.604 140.487 129.361 140.874 128.873C141.266 128.381 141.462 127.652 141.462 126.686ZM152.003 130.5H150.731V124.471L148.831 128.395H147.874L145.987 124.471V130.5H144.784V122.864H146.336L148.414 127.137L150.424 122.864H152.003V130.5ZM160.479 130.5H159.194V127.567C158.78 127.695 158.383 127.798 158.005 127.875C157.627 127.952 157.214 127.991 156.768 127.991C155.947 127.991 155.321 127.791 154.888 127.39C154.455 126.984 154.238 126.401 154.238 125.64V122.864H155.523V124.983C155.523 125.275 155.542 125.537 155.578 125.77C155.615 125.997 155.692 126.196 155.811 126.364C155.929 126.528 156.095 126.654 156.31 126.74C156.524 126.827 156.822 126.87 157.205 126.87C157.52 126.87 157.861 126.84 158.23 126.781C158.6 126.717 158.921 126.645 159.194 126.562V122.864H160.479V130.5ZM169.612 122.864L165.155 133.316H163.781L165.203 130.131L162.161 122.864H163.556L165.9 128.524L168.266 122.864H169.612ZM177.453 130.5H176.168V123.944H173.317C173.304 124.323 173.29 124.687 173.276 125.038C173.263 125.389 173.249 125.706 173.235 125.988C173.203 126.749 173.151 127.358 173.078 127.813C173.005 128.265 172.91 128.641 172.791 128.941C172.682 129.224 172.559 129.454 172.422 129.632C172.29 129.805 172.146 129.962 171.991 130.104C171.836 130.24 171.663 130.343 171.472 130.411C171.285 130.479 171.08 130.514 170.856 130.514C170.779 130.514 170.665 130.511 170.515 130.507C170.369 130.502 170.273 130.5 170.228 130.5V129.379H170.296C170.332 129.379 170.385 129.381 170.453 129.386C170.521 129.39 170.578 129.393 170.624 129.393C170.733 129.393 170.845 129.377 170.959 129.345C171.077 129.313 171.178 129.254 171.26 129.167C171.492 128.939 171.679 128.554 171.82 128.012C171.962 127.469 172.055 126.686 172.101 125.66C172.119 125.286 172.135 124.844 172.148 124.334C172.167 123.819 172.183 123.329 172.196 122.864H177.453V130.5ZM186.593 122.864L182.136 133.316H180.762L182.184 130.131L179.142 122.864H180.536L182.881 128.524L185.246 122.864H186.593ZM193.538 123.992H189.56V130.5H188.274V122.864H193.538V123.992ZM201.481 122.864L197.024 133.316H195.65L197.072 130.131L194.03 122.864H195.425L197.77 128.524L200.135 122.864H201.481Z" fill="#333333"/>
<path d="M5 163L12.5 170.5L25 155.5" stroke="#61B857" stroke-width="2" stroke-linecap="round" stroke-linejoin="round"/>
<path d="M48.3438 160.398C48.3438 160.961 48.2318 161.471 48.0078 161.93C47.7891 162.388 47.4948 162.76 47.125 163.047C46.6875 163.391 46.2188 163.635 45.7188 163.781C45.2188 163.927 44.5729 164 43.7812 164H39.5625V152.367H47.3516V153.742H41.1094V156.93H43.8281C44.6198 156.93 45.2656 156.977 45.7656 157.07C46.2656 157.159 46.737 157.375 47.1797 157.719C47.5755 158.026 47.8672 158.406 48.0547 158.859C48.2474 159.312 48.3438 159.826 48.3438 160.398ZM46.7266 160.43C46.7266 160.039 46.6615 159.695 46.5312 159.398C46.401 159.102 46.1979 158.862 45.9219 158.68C45.6354 158.487 45.3047 158.37 44.9297 158.328C44.5547 158.286 44.026 158.266 43.3438 158.266H41.1094V162.68H43.3047C43.9974 162.68 44.5286 162.646 44.8984 162.578C45.2734 162.51 45.6016 162.38 45.8828 162.188C46.1745 161.984 46.388 161.747 46.5234 161.477C46.6589 161.201 46.7266 160.852 46.7266 160.43ZM57.7656 164H56.3125V157.445L51.7422 164H50.4141V155.273H51.8672V161.734L56.3906 155.273H57.7656V164ZM66.7344 161.555C66.7344 162.044 66.6198 162.458 66.3906 162.797C66.1667 163.135 65.8776 163.409 65.5234 163.617C65.1693 163.82 64.7786 163.969 64.3516 164.062C63.9245 164.156 63.4974 164.203 63.0703 164.203C62.4661 164.203 61.8906 164.146 61.3438 164.031C60.7969 163.917 60.2578 163.74 59.7266 163.5V161.891H59.8281C60.2083 162.224 60.6927 162.482 61.2812 162.664C61.8698 162.846 62.4401 162.938 62.9922 162.938C63.2526 162.938 63.5208 162.914 63.7969 162.867C64.0729 162.815 64.3125 162.734 64.5156 162.625C64.7344 162.5 64.9089 162.352 65.0391 162.18C65.1693 162.003 65.2344 161.763 65.2344 161.461C65.2344 161.148 65.1693 160.898 65.0391 160.711C64.9141 160.523 64.7422 160.383 64.5234 160.289C64.3099 160.195 64.0521 160.138 63.75 160.117C63.4479 160.096 63.1719 160.086 62.9219 160.086H61.6484V158.82H62.5312C62.7396 158.82 63.0104 158.812 63.3438 158.797C63.6823 158.781 63.9557 158.74 64.1641 158.672C64.4349 158.583 64.6484 158.458 64.8047 158.297C64.9661 158.135 65.0469 157.878 65.0469 157.523C65.0469 157.279 64.9844 157.078 64.8594 156.922C64.7344 156.76 64.5781 156.635 64.3906 156.547C64.1979 156.458 63.9818 156.398 63.7422 156.367C63.5078 156.336 63.2995 156.32 63.1172 156.32C62.5859 156.32 62.0625 156.393 61.5469 156.539C61.0365 156.68 60.6068 156.885 60.2578 157.156H60.1562V155.539C60.5885 155.398 61.0521 155.284 61.5469 155.195C62.0417 155.107 62.5365 155.062 63.0312 155.062C63.4375 155.062 63.8411 155.099 64.2422 155.172C64.6484 155.245 65.026 155.37 65.375 155.547C65.7188 155.724 66 155.966 66.2188 156.273C66.4375 156.576 66.5469 156.951 66.5469 157.398C66.5469 157.857 66.4036 158.26 66.1172 158.609C65.8359 158.953 65.4557 159.201 64.9766 159.352V159.406C65.513 159.536 65.9401 159.781 66.2578 160.141C66.5755 160.495 66.7344 160.966 66.7344 161.555ZM76.3594 164H74.8906V160.07H70.5234V164H69.0547V155.273H70.5234V158.805H74.8906V155.273H76.3594V164ZM86.5625 159.789H80.1328C80.1328 160.326 80.2135 160.794 80.375 161.195C80.5365 161.591 80.7578 161.917 81.0391 162.172C81.3099 162.422 81.6302 162.609 82 162.734C82.375 162.859 82.7865 162.922 83.2344 162.922C83.8281 162.922 84.4245 162.805 85.0234 162.57C85.6276 162.331 86.0573 162.096 86.3125 161.867H86.3906V163.469C85.8958 163.677 85.3906 163.852 84.875 163.992C84.3594 164.133 83.8177 164.203 83.25 164.203C81.8021 164.203 80.6719 163.812 79.8594 163.031C79.0469 162.245 78.6406 161.13 78.6406 159.688C78.6406 158.26 79.0286 157.128 79.8047 156.289C80.5859 155.451 81.612 155.031 82.8828 155.031C84.0599 155.031 84.9661 155.375 85.6016 156.062C86.2422 156.75 86.5625 157.727 86.5625 158.992V159.789ZM85.1328 158.664C85.1276 157.893 84.9323 157.297 84.5469 156.875C84.1667 156.453 83.5859 156.242 82.8047 156.242C82.0182 156.242 81.3906 156.474 80.9219 156.938C80.4583 157.401 80.1953 157.977 80.1328 158.664H85.1328ZM95.3203 163.453C94.7214 163.734 94.2057 163.927 93.7734 164.031C93.3464 164.141 92.9193 164.195 92.4922 164.195C91.8568 164.195 91.2734 164.104 90.7422 163.922C90.2109 163.734 89.7552 163.453 89.375 163.078C88.9948 162.703 88.6979 162.229 88.4844 161.656C88.276 161.083 88.1719 160.414 88.1719 159.648C88.1719 158.258 88.5573 157.148 89.3281 156.32C90.099 155.487 91.1536 155.07 92.4922 155.07C92.9974 155.07 93.4922 155.141 93.9766 155.281C94.4661 155.422 94.9141 155.594 95.3203 155.797V157.43H95.2344C94.75 157.06 94.2708 156.786 93.7969 156.609C93.3281 156.432 92.8724 156.344 92.4297 156.344C91.5599 156.344 90.8854 156.635 90.4062 157.219C89.9323 157.802 89.6953 158.612 89.6953 159.648C89.6953 160.685 89.9323 161.49 90.4062 162.062C90.8802 162.635 91.5547 162.922 92.4297 162.922C92.737 162.922 93.0417 162.883 93.3438 162.805C93.651 162.727 93.9297 162.625 94.1797 162.5C94.3776 162.401 94.5807 162.284 94.7891 162.148C95.0026 162.008 95.151 161.904 95.2344 161.836H95.3203V163.453ZM101.961 159.617H97.0859V158.203H101.961V159.617ZM113.016 153.742H108.859V164H107.312V153.742H103.156V152.367H113.016V153.742ZM122.141 159.531C122.141 160.24 122.039 160.888 121.836 161.477C121.633 162.06 121.346 162.555 120.977 162.961C120.633 163.346 120.227 163.646 119.758 163.859C119.294 164.068 118.802 164.172 118.281 164.172C117.828 164.172 117.417 164.122 117.047 164.023C116.682 163.924 116.31 163.771 115.93 163.562V167.219H114.461V155.273H115.93V156.188C116.32 155.859 116.758 155.586 117.242 155.367C117.732 155.143 118.253 155.031 118.805 155.031C119.857 155.031 120.674 155.43 121.258 156.227C121.846 157.018 122.141 158.12 122.141 159.531ZM120.625 159.57C120.625 158.518 120.445 157.732 120.086 157.211C119.727 156.69 119.174 156.43 118.43 156.43C118.008 156.43 117.583 156.521 117.156 156.703C116.729 156.885 116.32 157.125 115.93 157.422V162.367C116.346 162.555 116.703 162.682 117 162.75C117.302 162.818 117.643 162.852 118.023 162.852C118.841 162.852 119.479 162.576 119.938 162.023C120.396 161.471 120.625 160.654 120.625 159.57ZM131.734 159.789H125.305C125.305 160.326 125.385 160.794 125.547 161.195C125.708 161.591 125.93 161.917 126.211 162.172C126.482 162.422 126.802 162.609 127.172 162.734C127.547 162.859 127.958 162.922 128.406 162.922C129 162.922 129.596 162.805 130.195 162.57C130.799 162.331 131.229 162.096 131.484 161.867H131.562V163.469C131.068 163.677 130.562 163.852 130.047 163.992C129.531 164.133 128.99 164.203 128.422 164.203C126.974 164.203 125.844 163.812 125.031 163.031C124.219 162.245 123.812 161.13 123.812 159.688C123.812 158.26 124.201 157.128 124.977 156.289C125.758 155.451 126.784 155.031 128.055 155.031C129.232 155.031 130.138 155.375 130.773 156.062C131.414 156.75 131.734 157.727 131.734 158.992V159.789ZM130.305 158.664C130.299 157.893 130.104 157.297 129.719 156.875C129.339 156.453 128.758 156.242 127.977 156.242C127.19 156.242 126.562 156.474 126.094 156.938C125.63 157.401 125.367 157.977 125.305 158.664H130.305ZM141.266 164H139.797V160.07H135.43V164H133.961V155.273H135.43V158.805H139.797V155.273H141.266V164ZM151.516 164H150.062V157.445L145.492 164H144.164V155.273H145.617V161.734L150.141 155.273H151.516V164ZM161.719 164H160.25V160.07H155.883V164H154.414V155.273H155.883V158.805H160.25V155.273H161.719V164ZM170.633 156.562H166.086V164H164.617V155.273H170.633V156.562ZM180.086 166.094H178.719V163.977H172.156V166.094H170.789V162.75H171.734C172.344 161.745 172.797 160.586 173.094 159.273C173.396 157.956 173.547 156.622 173.547 155.273H179.031V162.75H180.086V166.094ZM177.562 162.75V156.508H174.93C174.862 157.815 174.661 159.008 174.328 160.086C173.995 161.164 173.612 162.052 173.18 162.75H177.562ZM189.422 159.789H182.992C182.992 160.326 183.073 160.794 183.234 161.195C183.396 161.591 183.617 161.917 183.898 162.172C184.169 162.422 184.49 162.609 184.859 162.734C185.234 162.859 185.646 162.922 186.094 162.922C186.688 162.922 187.284 162.805 187.883 162.57C188.487 162.331 188.917 162.096 189.172 161.867H189.25V163.469C188.755 163.677 188.25 163.852 187.734 163.992C187.219 164.133 186.677 164.203 186.109 164.203C184.661 164.203 183.531 163.812 182.719 163.031C181.906 162.245 181.5 161.13 181.5 159.688C181.5 158.26 181.888 157.128 182.664 156.289C183.445 155.451 184.471 155.031 185.742 155.031C186.919 155.031 187.826 155.375 188.461 156.062C189.102 156.75 189.422 157.727 189.422 158.992V159.789ZM187.992 158.664C187.987 157.893 187.792 157.297 187.406 156.875C187.026 156.453 186.445 156.242 185.664 156.242C184.878 156.242 184.25 156.474 183.781 156.938C183.318 157.401 183.055 157.977 182.992 158.664H187.992ZM199.328 159.531C199.328 160.24 199.227 160.888 199.023 161.477C198.82 162.06 198.534 162.555 198.164 162.961C197.82 163.346 197.414 163.646 196.945 163.859C196.482 164.068 195.99 164.172 195.469 164.172C195.016 164.172 194.604 164.122 194.234 164.023C193.87 163.924 193.497 163.771 193.117 163.562V167.219H191.648V155.273H193.117V156.188C193.508 155.859 193.945 155.586 194.43 155.367C194.919 155.143 195.44 155.031 195.992 155.031C197.044 155.031 197.862 155.43 198.445 156.227C199.034 157.018 199.328 158.12 199.328 159.531ZM197.812 159.57C197.812 158.518 197.633 157.732 197.273 157.211C196.914 156.69 196.362 156.43 195.617 156.43C195.195 156.43 194.771 156.521 194.344 156.703C193.917 156.885 193.508 157.125 193.117 157.422V162.367C193.534 162.555 193.891 162.682 194.188 162.75C194.49 162.818 194.831 162.852 195.211 162.852C196.029 162.852 196.667 162.576 197.125 162.023C197.583 161.471 197.812 160.654 197.812 159.57ZM204.664 161.773L202.461 166.891H201.32L202.68 161.773H204.664ZM49.9219 183H48.375V172.977L45.1406 179.797H44.2188L41.0078 172.977V183H39.5625V171.367H41.6719L44.7734 177.844L47.7734 171.367H49.9219V183ZM59.7109 183H58.25V182.07C58.1198 182.159 57.9427 182.284 57.7188 182.445C57.5 182.602 57.2865 182.727 57.0781 182.82C56.8333 182.94 56.5521 183.039 56.2344 183.117C55.9167 183.201 55.5443 183.242 55.1172 183.242C54.3307 183.242 53.6641 182.982 53.1172 182.461C52.5703 181.94 52.2969 181.276 52.2969 180.469C52.2969 179.807 52.4375 179.273 52.7188 178.867C53.0052 178.456 53.4115 178.133 53.9375 177.898C54.4688 177.664 55.1068 177.505 55.8516 177.422C56.5964 177.339 57.3958 177.276 58.25 177.234V177.008C58.25 176.674 58.1901 176.398 58.0703 176.18C57.9557 175.961 57.7891 175.789 57.5703 175.664C57.362 175.544 57.112 175.464 56.8203 175.422C56.5286 175.38 56.224 175.359 55.9062 175.359C55.5208 175.359 55.0911 175.411 54.6172 175.516C54.1432 175.615 53.6536 175.76 53.1484 175.953H53.0703V174.461C53.3568 174.383 53.7708 174.297 54.3125 174.203C54.8542 174.109 55.388 174.062 55.9141 174.062C56.5286 174.062 57.0625 174.115 57.5156 174.219C57.974 174.318 58.3698 174.49 58.7031 174.734C59.0312 174.974 59.2812 175.284 59.4531 175.664C59.625 176.044 59.7109 176.516 59.7109 177.078V183ZM58.25 180.852V178.422C57.8021 178.448 57.2734 178.487 56.6641 178.539C56.0599 178.591 55.5807 178.667 55.2266 178.766C54.8047 178.885 54.4635 179.073 54.2031 179.328C53.9427 179.578 53.8125 179.924 53.8125 180.367C53.8125 180.867 53.9635 181.245 54.2656 181.5C54.5677 181.75 55.0286 181.875 55.6484 181.875C56.1641 181.875 56.6354 181.776 57.0625 181.578C57.4896 181.375 57.8854 181.133 58.25 180.852ZM69.0703 182.453C68.4714 182.734 67.9557 182.927 67.5234 183.031C67.0964 183.141 66.6693 183.195 66.2422 183.195C65.6068 183.195 65.0234 183.104 64.4922 182.922C63.9609 182.734 63.5052 182.453 63.125 182.078C62.7448 181.703 62.4479 181.229 62.2344 180.656C62.026 180.083 61.9219 179.414 61.9219 178.648C61.9219 177.258 62.3073 176.148 63.0781 175.32C63.849 174.487 64.9036 174.07 66.2422 174.07C66.7474 174.07 67.2422 174.141 67.7266 174.281C68.2161 174.422 68.6641 174.594 69.0703 174.797V176.43H68.9844C68.5 176.06 68.0208 175.786 67.5469 175.609C67.0781 175.432 66.6224 175.344 66.1797 175.344C65.3099 175.344 64.6354 175.635 64.1562 176.219C63.6823 176.802 63.4453 177.612 63.4453 178.648C63.4453 179.685 63.6823 180.49 64.1562 181.062C64.6302 181.635 65.3047 181.922 66.1797 181.922C66.487 181.922 66.7917 181.883 67.0938 181.805C67.401 181.727 67.6797 181.625 67.9297 181.5C68.1276 181.401 68.3307 181.284 68.5391 181.148C68.7526 181.008 68.901 180.904 68.9844 180.836H69.0703V182.453ZM77.5 175.562H74.3438V183H72.875V175.562H69.7188V174.273H77.5V175.562ZM86.3281 178.789H79.8984C79.8984 179.326 79.9792 179.794 80.1406 180.195C80.3021 180.591 80.5234 180.917 80.8047 181.172C81.0755 181.422 81.3958 181.609 81.7656 181.734C82.1406 181.859 82.5521 181.922 83 181.922C83.5938 181.922 84.1901 181.805 84.7891 181.57C85.3932 181.331 85.8229 181.096 86.0781 180.867H86.1562V182.469C85.6615 182.677 85.1562 182.852 84.6406 182.992C84.125 183.133 83.5833 183.203 83.0156 183.203C81.5677 183.203 80.4375 182.812 79.625 182.031C78.8125 181.245 78.4062 180.13 78.4062 178.688C78.4062 177.26 78.7943 176.128 79.5703 175.289C80.3516 174.451 81.3776 174.031 82.6484 174.031C83.8255 174.031 84.7318 174.375 85.3672 175.062C86.0078 175.75 86.3281 176.727 86.3281 177.992V178.789ZM84.8984 177.664C84.8932 176.893 84.6979 176.297 84.3125 175.875C83.9323 175.453 83.3516 175.242 82.5703 175.242C81.7839 175.242 81.1562 175.474 80.6875 175.938C80.224 176.401 79.9609 176.977 79.8984 177.664H84.8984ZM96.2344 178.531C96.2344 179.24 96.1328 179.888 95.9297 180.477C95.7266 181.06 95.4401 181.555 95.0703 181.961C94.7266 182.346 94.3203 182.646 93.8516 182.859C93.388 183.068 92.8958 183.172 92.375 183.172C91.9219 183.172 91.5104 183.122 91.1406 183.023C90.776 182.924 90.4036 182.771 90.0234 182.562V186.219H88.5547V174.273H90.0234V175.188C90.4141 174.859 90.8516 174.586 91.3359 174.367C91.8255 174.143 92.3464 174.031 92.8984 174.031C93.9505 174.031 94.7682 174.43 95.3516 175.227C95.9401 176.018 96.2344 177.12 96.2344 178.531ZM94.7188 178.57C94.7188 177.518 94.5391 176.732 94.1797 176.211C93.8203 175.69 93.2682 175.43 92.5234 175.43C92.1016 175.43 91.6771 175.521 91.25 175.703C90.8229 175.885 90.4141 176.125 90.0234 176.422V181.367C90.4401 181.555 90.7969 181.682 91.0938 181.75C91.3958 181.818 91.737 181.852 92.1172 181.852C92.9349 181.852 93.5729 181.576 94.0312 181.023C94.4896 180.471 94.7188 179.654 94.7188 178.57ZM103.148 178.617H98.2734V177.203H103.148V178.617ZM115.258 183H113.273L108.547 177.695H107.492V183H105.945V171.367H107.492V176.586C107.758 176.581 108.008 176.555 108.242 176.508C108.477 176.461 108.698 176.372 108.906 176.242C109.115 176.122 109.32 175.953 109.523 175.734C109.727 175.51 109.906 175.237 110.062 174.914C110.13 174.773 110.208 174.596 110.297 174.383C110.391 174.169 110.484 173.945 110.578 173.711C110.938 172.846 111.357 172.24 111.836 171.891C112.32 171.542 113.031 171.367 113.969 171.367H114.586V172.75H113.938C113.578 172.75 113.297 172.784 113.094 172.852C112.891 172.914 112.708 173.021 112.547 173.172C112.396 173.307 112.263 173.49 112.148 173.719C112.039 173.948 111.924 174.216 111.805 174.523C111.534 175.211 111.258 175.716 110.977 176.039C110.701 176.362 110.328 176.643 109.859 176.883L115.258 183ZM123.922 183H122.453V175.508H119.195C119.18 175.94 119.164 176.357 119.148 176.758C119.133 177.159 119.117 177.521 119.102 177.844C119.065 178.714 119.005 179.409 118.922 179.93C118.839 180.445 118.729 180.875 118.594 181.219C118.469 181.542 118.328 181.805 118.172 182.008C118.021 182.206 117.857 182.385 117.68 182.547C117.503 182.703 117.305 182.82 117.086 182.898C116.872 182.977 116.638 183.016 116.383 183.016C116.294 183.016 116.164 183.013 115.992 183.008C115.826 183.003 115.716 183 115.664 183V181.719H115.742C115.784 181.719 115.844 181.721 115.922 181.727C116 181.732 116.065 181.734 116.117 181.734C116.242 181.734 116.37 181.716 116.5 181.68C116.635 181.643 116.75 181.576 116.844 181.477C117.109 181.216 117.323 180.776 117.484 180.156C117.646 179.536 117.753 178.641 117.805 177.469C117.826 177.042 117.844 176.536 117.859 175.953C117.88 175.365 117.898 174.805 117.914 174.273H123.922V183ZM133.602 183H132.141V182.07C132.01 182.159 131.833 182.284 131.609 182.445C131.391 182.602 131.177 182.727 130.969 182.82C130.724 182.94 130.443 183.039 130.125 183.117C129.807 183.201 129.435 183.242 129.008 183.242C128.221 183.242 127.555 182.982 127.008 182.461C126.461 181.94 126.188 181.276 126.188 180.469C126.188 179.807 126.328 179.273 126.609 178.867C126.896 178.456 127.302 178.133 127.828 177.898C128.359 177.664 128.997 177.505 129.742 177.422C130.487 177.339 131.286 177.276 132.141 177.234V177.008C132.141 176.674 132.081 176.398 131.961 176.18C131.846 175.961 131.68 175.789 131.461 175.664C131.253 175.544 131.003 175.464 130.711 175.422C130.419 175.38 130.115 175.359 129.797 175.359C129.411 175.359 128.982 175.411 128.508 175.516C128.034 175.615 127.544 175.76 127.039 175.953H126.961V174.461C127.247 174.383 127.661 174.297 128.203 174.203C128.745 174.109 129.279 174.062 129.805 174.062C130.419 174.062 130.953 174.115 131.406 174.219C131.865 174.318 132.26 174.49 132.594 174.734C132.922 174.974 133.172 175.284 133.344 175.664C133.516 176.044 133.602 176.516 133.602 177.078V183ZM132.141 180.852V178.422C131.693 178.448 131.164 178.487 130.555 178.539C129.951 178.591 129.471 178.667 129.117 178.766C128.695 178.885 128.354 179.073 128.094 179.328C127.833 179.578 127.703 179.924 127.703 180.367C127.703 180.867 127.854 181.245 128.156 181.5C128.458 181.75 128.919 181.875 129.539 181.875C130.055 181.875 130.526 181.776 130.953 181.578C131.38 181.375 131.776 181.133 132.141 180.852ZM142.961 182.453C142.362 182.734 141.846 182.927 141.414 183.031C140.987 183.141 140.56 183.195 140.133 183.195C139.497 183.195 138.914 183.104 138.383 182.922C137.852 182.734 137.396 182.453 137.016 182.078C136.635 181.703 136.339 181.229 136.125 180.656C135.917 180.083 135.812 179.414 135.812 178.648C135.812 177.258 136.198 176.148 136.969 175.32C137.74 174.487 138.794 174.07 140.133 174.07C140.638 174.07 141.133 174.141 141.617 174.281C142.107 174.422 142.555 174.594 142.961 174.797V176.43H142.875C142.391 176.06 141.911 175.786 141.438 175.609C140.969 175.432 140.513 175.344 140.07 175.344C139.201 175.344 138.526 175.635 138.047 176.219C137.573 176.802 137.336 177.612 137.336 178.648C137.336 179.685 137.573 180.49 138.047 181.062C138.521 181.635 139.195 181.922 140.07 181.922C140.378 181.922 140.682 181.883 140.984 181.805C141.292 181.727 141.57 181.625 141.82 181.5C142.018 181.401 142.221 181.284 142.43 181.148C142.643 181.008 142.792 180.904 142.875 180.836H142.961V182.453ZM151.508 182.453C150.909 182.734 150.393 182.927 149.961 183.031C149.534 183.141 149.107 183.195 148.68 183.195C148.044 183.195 147.461 183.104 146.93 182.922C146.398 182.734 145.943 182.453 145.562 182.078C145.182 181.703 144.885 181.229 144.672 180.656C144.464 180.083 144.359 179.414 144.359 178.648C144.359 177.258 144.745 176.148 145.516 175.32C146.286 174.487 147.341 174.07 148.68 174.07C149.185 174.07 149.68 174.141 150.164 174.281C150.654 174.422 151.102 174.594 151.508 174.797V176.43H151.422C150.938 176.06 150.458 175.786 149.984 175.609C149.516 175.432 149.06 175.344 148.617 175.344C147.747 175.344 147.073 175.635 146.594 176.219C146.12 176.802 145.883 177.612 145.883 178.648C145.883 179.685 146.12 180.49 146.594 181.062C147.068 181.635 147.742 181.922 148.617 181.922C148.924 181.922 149.229 181.883 149.531 181.805C149.839 181.727 150.117 181.625 150.367 181.5C150.565 181.401 150.768 181.284 150.977 181.148C151.19 181.008 151.339 180.904 151.422 180.836H151.508V182.453ZM159.938 175.562H156.781V183H155.312V175.562H152.156V174.273H159.938V175.562ZM168.242 183H166.781V182.07C166.651 182.159 166.474 182.284 166.25 182.445C166.031 182.602 165.818 182.727 165.609 182.82C165.365 182.94 165.083 183.039 164.766 183.117C164.448 183.201 164.076 183.242 163.648 183.242C162.862 183.242 162.195 182.982 161.648 182.461C161.102 181.94 160.828 181.276 160.828 180.469C160.828 179.807 160.969 179.273 161.25 178.867C161.536 178.456 161.943 178.133 162.469 177.898C163 177.664 163.638 177.505 164.383 177.422C165.128 177.339 165.927 177.276 166.781 177.234V177.008C166.781 176.674 166.721 176.398 166.602 176.18C166.487 175.961 166.32 175.789 166.102 175.664C165.893 175.544 165.643 175.464 165.352 175.422C165.06 175.38 164.755 175.359 164.438 175.359C164.052 175.359 163.622 175.411 163.148 175.516C162.674 175.615 162.185 175.76 161.68 175.953H161.602V174.461C161.888 174.383 162.302 174.297 162.844 174.203C163.385 174.109 163.919 174.062 164.445 174.062C165.06 174.062 165.594 174.115 166.047 174.219C166.505 174.318 166.901 174.49 167.234 174.734C167.562 174.974 167.812 175.284 167.984 175.664C168.156 176.044 168.242 176.516 168.242 177.078V183ZM166.781 180.852V178.422C166.333 178.448 165.805 178.487 165.195 178.539C164.591 178.591 164.112 178.667 163.758 178.766C163.336 178.885 162.995 179.073 162.734 179.328C162.474 179.578 162.344 179.924 162.344 180.367C162.344 180.867 162.495 181.245 162.797 181.5C163.099 181.75 163.56 181.875 164.18 181.875C164.695 181.875 165.167 181.776 165.594 181.578C166.021 181.375 166.417 181.133 166.781 180.852ZM178.75 178.531C178.75 179.24 178.648 179.888 178.445 180.477C178.242 181.06 177.956 181.555 177.586 181.961C177.242 182.346 176.836 182.646 176.367 182.859C175.904 183.068 175.411 183.172 174.891 183.172C174.438 183.172 174.026 183.122 173.656 183.023C173.292 182.924 172.919 182.771 172.539 182.562V186.219H171.07V174.273H172.539V175.188C172.93 174.859 173.367 174.586 173.852 174.367C174.341 174.143 174.862 174.031 175.414 174.031C176.466 174.031 177.284 174.43 177.867 175.227C178.456 176.018 178.75 177.12 178.75 178.531ZM177.234 178.57C177.234 177.518 177.055 176.732 176.695 176.211C176.336 175.69 175.784 175.43 175.039 175.43C174.617 175.43 174.193 175.521 173.766 175.703C173.339 175.885 172.93 176.125 172.539 176.422V181.367C172.956 181.555 173.312 181.682 173.609 181.75C173.911 181.818 174.253 181.852 174.633 181.852C175.451 181.852 176.089 181.576 176.547 181.023C177.005 180.471 177.234 179.654 177.234 178.57ZM184.086 180.773L181.883 185.891H180.742L182.102 180.773H184.086ZM48.5469 201.156C48.2604 201.281 48 201.398 47.7656 201.508C47.5365 201.617 47.2344 201.732 46.8594 201.852C46.5417 201.951 46.1953 202.034 45.8203 202.102C45.4505 202.174 45.0417 202.211 44.5938 202.211C43.75 202.211 42.9818 202.094 42.2891 201.859C41.6016 201.62 41.0026 201.247 40.4922 200.742C39.9922 200.247 39.6016 199.62 39.3203 198.859C39.0391 198.094 38.8984 197.206 38.8984 196.195C38.8984 195.237 39.0339 194.38 39.3047 193.625C39.5755 192.87 39.9661 192.232 40.4766 191.711C40.9714 191.206 41.5677 190.82 42.2656 190.555C42.9688 190.289 43.7474 190.156 44.6016 190.156C45.2266 190.156 45.849 190.232 46.4688 190.383C47.0938 190.534 47.7865 190.799 48.5469 191.18V193.016H48.4297C47.7891 192.479 47.1536 192.089 46.5234 191.844C45.8932 191.599 45.2188 191.477 44.5 191.477C43.9115 191.477 43.3802 191.573 42.9062 191.766C42.4375 191.953 42.0182 192.247 41.6484 192.648C41.2891 193.039 41.0078 193.534 40.8047 194.133C40.6068 194.727 40.5078 195.414 40.5078 196.195C40.5078 197.013 40.6172 197.716 40.8359 198.305C41.0599 198.893 41.3464 199.372 41.6953 199.742C42.0599 200.128 42.4844 200.414 42.9688 200.602C43.4583 200.784 43.974 200.875 44.5156 200.875C45.2604 200.875 45.9583 200.747 46.6094 200.492C47.2604 200.237 47.8698 199.854 48.4375 199.344H48.5469V201.156ZM57.9219 197.789H51.4922C51.4922 198.326 51.5729 198.794 51.7344 199.195C51.8958 199.591 52.1172 199.917 52.3984 200.172C52.6693 200.422 52.9896 200.609 53.3594 200.734C53.7344 200.859 54.1458 200.922 54.5938 200.922C55.1875 200.922 55.7839 200.805 56.3828 200.57C56.987 200.331 57.4167 200.096 57.6719 199.867H57.75V201.469C57.2552 201.677 56.75 201.852 56.2344 201.992C55.7188 202.133 55.1771 202.203 54.6094 202.203C53.1615 202.203 52.0312 201.812 51.2188 201.031C50.4062 200.245 50 199.13 50 197.688C50 196.26 50.388 195.128 51.1641 194.289C51.9453 193.451 52.9714 193.031 54.2422 193.031C55.4193 193.031 56.3255 193.375 56.9609 194.062C57.6016 194.75 57.9219 195.727 57.9219 196.992V197.789ZM56.4922 196.664C56.487 195.893 56.2917 195.297 55.9062 194.875C55.526 194.453 54.9453 194.242 54.1641 194.242C53.3776 194.242 52.75 194.474 52.2812 194.938C51.8177 195.401 51.5547 195.977 51.4922 196.664H56.4922ZM68.3984 202H66.9453V195.109L64.7734 199.594H63.6797L61.5234 195.109V202H60.1484V193.273H61.9219L64.2969 198.156L66.5938 193.273H68.3984V202ZM78.6406 202H77.1875V195.445L72.6172 202H71.2891V193.273H72.7422V199.734L77.2656 193.273H78.6406V202ZM88.8438 202H87.375V198.07H83.0078V202H81.5391V193.273H83.0078V196.805H87.375V193.273H88.8438V202ZM98.5234 202H97.0625V201.07C96.9323 201.159 96.7552 201.284 96.5312 201.445C96.3125 201.602 96.099 201.727 95.8906 201.82C95.6458 201.94 95.3646 202.039 95.0469 202.117C94.7292 202.201 94.3568 202.242 93.9297 202.242C93.1432 202.242 92.4766 201.982 91.9297 201.461C91.3828 200.94 91.1094 200.276 91.1094 199.469C91.1094 198.807 91.25 198.273 91.5312 197.867C91.8177 197.456 92.224 197.133 92.75 196.898C93.2812 196.664 93.9193 196.505 94.6641 196.422C95.4089 196.339 96.2083 196.276 97.0625 196.234V196.008C97.0625 195.674 97.0026 195.398 96.8828 195.18C96.7682 194.961 96.6016 194.789 96.3828 194.664C96.1745 194.544 95.9245 194.464 95.6328 194.422C95.3411 194.38 95.0365 194.359 94.7188 194.359C94.3333 194.359 93.9036 194.411 93.4297 194.516C92.9557 194.615 92.4661 194.76 91.9609 194.953H91.8828V193.461C92.1693 193.383 92.5833 193.297 93.125 193.203C93.6667 193.109 94.2005 193.062 94.7266 193.062C95.3411 193.062 95.875 193.115 96.3281 193.219C96.7865 193.318 97.1823 193.49 97.5156 193.734C97.8438 193.974 98.0938 194.284 98.2656 194.664C98.4375 195.044 98.5234 195.516 98.5234 196.078V202ZM97.0625 199.852V197.422C96.6146 197.448 96.0859 197.487 95.4766 197.539C94.8724 197.591 94.3932 197.667 94.0391 197.766C93.6172 197.885 93.276 198.073 93.0156 198.328C92.7552 198.578 92.625 198.924 92.625 199.367C92.625 199.867 92.776 200.245 93.0781 200.5C93.3802 200.75 93.8411 200.875 94.4609 200.875C94.9766 200.875 95.4479 200.776 95.875 200.578C96.3021 200.375 96.6979 200.133 97.0625 199.852ZM109.031 197.531C109.031 198.24 108.93 198.888 108.727 199.477C108.523 200.06 108.237 200.555 107.867 200.961C107.523 201.346 107.117 201.646 106.648 201.859C106.185 202.068 105.693 202.172 105.172 202.172C104.719 202.172 104.307 202.122 103.938 202.023C103.573 201.924 103.201 201.771 102.82 201.562V205.219H101.352V193.273H102.82V194.188C103.211 193.859 103.648 193.586 104.133 193.367C104.622 193.143 105.143 193.031 105.695 193.031C106.747 193.031 107.565 193.43 108.148 194.227C108.737 195.018 109.031 196.12 109.031 197.531ZM107.516 197.57C107.516 196.518 107.336 195.732 106.977 195.211C106.617 194.69 106.065 194.43 105.32 194.43C104.898 194.43 104.474 194.521 104.047 194.703C103.62 194.885 103.211 195.125 102.82 195.422V200.367C103.237 200.555 103.594 200.682 103.891 200.75C104.193 200.818 104.534 200.852 104.914 200.852C105.732 200.852 106.37 200.576 106.828 200.023C107.286 199.471 107.516 198.654 107.516 197.57ZM118.359 202H116.891V194.508H113.633C113.617 194.94 113.602 195.357 113.586 195.758C113.57 196.159 113.555 196.521 113.539 196.844C113.503 197.714 113.443 198.409 113.359 198.93C113.276 199.445 113.167 199.875 113.031 200.219C112.906 200.542 112.766 200.805 112.609 201.008C112.458 201.206 112.294 201.385 112.117 201.547C111.94 201.703 111.742 201.82 111.523 201.898C111.31 201.977 111.076 202.016 110.82 202.016C110.732 202.016 110.602 202.013 110.43 202.008C110.263 202.003 110.154 202 110.102 202V200.719H110.18C110.221 200.719 110.281 200.721 110.359 200.727C110.438 200.732 110.503 200.734 110.555 200.734C110.68 200.734 110.807 200.716 110.938 200.68C111.073 200.643 111.188 200.576 111.281 200.477C111.547 200.216 111.76 199.776 111.922 199.156C112.083 198.536 112.19 197.641 112.242 196.469C112.263 196.042 112.281 195.536 112.297 194.953C112.318 194.365 112.336 193.805 112.352 193.273H118.359V202ZM128.039 202H126.578V201.07C126.448 201.159 126.271 201.284 126.047 201.445C125.828 201.602 125.615 201.727 125.406 201.82C125.161 201.94 124.88 202.039 124.562 202.117C124.245 202.201 123.872 202.242 123.445 202.242C122.659 202.242 121.992 201.982 121.445 201.461C120.898 200.94 120.625 200.276 120.625 199.469C120.625 198.807 120.766 198.273 121.047 197.867C121.333 197.456 121.74 197.133 122.266 196.898C122.797 196.664 123.435 196.505 124.18 196.422C124.924 196.339 125.724 196.276 126.578 196.234V196.008C126.578 195.674 126.518 195.398 126.398 195.18C126.284 194.961 126.117 194.789 125.898 194.664C125.69 194.544 125.44 194.464 125.148 194.422C124.857 194.38 124.552 194.359 124.234 194.359C123.849 194.359 123.419 194.411 122.945 194.516C122.471 194.615 121.982 194.76 121.477 194.953H121.398V193.461C121.685 193.383 122.099 193.297 122.641 193.203C123.182 193.109 123.716 193.062 124.242 193.062C124.857 193.062 125.391 193.115 125.844 193.219C126.302 193.318 126.698 193.49 127.031 193.734C127.359 193.974 127.609 194.284 127.781 194.664C127.953 195.044 128.039 195.516 128.039 196.078V202ZM126.578 199.852V197.422C126.13 197.448 125.602 197.487 124.992 197.539C124.388 197.591 123.909 197.667 123.555 197.766C123.133 197.885 122.792 198.073 122.531 198.328C122.271 198.578 122.141 198.924 122.141 199.367C122.141 199.867 122.292 200.245 122.594 200.5C122.896 200.75 123.357 200.875 123.977 200.875C124.492 200.875 124.964 200.776 125.391 200.578C125.818 200.375 126.214 200.133 126.578 199.852ZM138.547 197.531C138.547 198.24 138.445 198.888 138.242 199.477C138.039 200.06 137.753 200.555 137.383 200.961C137.039 201.346 136.633 201.646 136.164 201.859C135.701 202.068 135.208 202.172 134.688 202.172C134.234 202.172 133.823 202.122 133.453 202.023C133.089 201.924 132.716 201.771 132.336 201.562V205.219H130.867V193.273H132.336V194.188C132.727 193.859 133.164 193.586 133.648 193.367C134.138 193.143 134.659 193.031 135.211 193.031C136.263 193.031 137.081 193.43 137.664 194.227C138.253 195.018 138.547 196.12 138.547 197.531ZM137.031 197.57C137.031 196.518 136.852 195.732 136.492 195.211C136.133 194.69 135.581 194.43 134.836 194.43C134.414 194.43 133.99 194.521 133.562 194.703C133.135 194.885 132.727 195.125 132.336 195.422V200.367C132.753 200.555 133.109 200.682 133.406 200.75C133.708 200.818 134.049 200.852 134.43 200.852C135.247 200.852 135.885 200.576 136.344 200.023C136.802 199.471 137.031 198.654 137.031 197.57Z" fill="#333333"/>
<path d="M5 228L12.5 235.5L25 220.5" stroke="#61B857" stroke-width="2" stroke-linecap="round" stroke-linejoin="round"/>
<path d="M47.0508 230.349C47.0508 230.841 46.9528 231.287 46.7568 231.688C46.5654 232.09 46.3079 232.415 45.9844 232.666C45.6016 232.967 45.1914 233.181 44.7539 233.309C44.3164 233.436 43.7513 233.5 43.0586 233.5H39.3672V223.321H46.1826V224.524H40.7207V227.313H43.0996C43.7923 227.313 44.3574 227.354 44.7949 227.437C45.2324 227.514 45.6449 227.703 46.0322 228.004C46.3786 228.273 46.6338 228.605 46.7979 229.002C46.9665 229.398 47.0508 229.847 47.0508 230.349ZM45.6357 230.376C45.6357 230.034 45.5788 229.733 45.4648 229.474C45.3509 229.214 45.1732 229.004 44.9316 228.845C44.681 228.676 44.3916 228.574 44.0635 228.537C43.7354 228.501 43.2728 228.482 42.6758 228.482H40.7207V232.345H42.6416C43.2477 232.345 43.7126 232.315 44.0361 232.256C44.3643 232.197 44.6514 232.083 44.8975 231.914C45.1527 231.736 45.3395 231.529 45.458 231.292C45.5765 231.05 45.6357 230.745 45.6357 230.376ZM55.2949 233.5H54.0234V227.765L50.0244 233.5H48.8623V225.864H50.1338V231.518L54.0918 225.864H55.2949V233.5ZM63.1426 231.36C63.1426 231.789 63.0423 232.151 62.8418 232.447C62.6458 232.743 62.3929 232.983 62.083 233.165C61.7731 233.343 61.4313 233.473 61.0576 233.555C60.6839 233.637 60.3102 233.678 59.9365 233.678C59.4079 233.678 58.9043 233.628 58.4258 233.527C57.9473 233.427 57.4756 233.272 57.0107 233.062V231.654H57.0996C57.4323 231.946 57.8561 232.172 58.3711 232.331C58.8861 232.491 59.3851 232.57 59.8682 232.57C60.096 232.57 60.3307 232.55 60.5723 232.509C60.8138 232.463 61.0234 232.393 61.2012 232.297C61.3926 232.188 61.5452 232.058 61.6592 231.907C61.7731 231.752 61.8301 231.543 61.8301 231.278C61.8301 231.005 61.7731 230.786 61.6592 230.622C61.5498 230.458 61.3994 230.335 61.208 230.253C61.0212 230.171 60.7956 230.121 60.5312 230.103C60.2669 230.084 60.0254 230.075 59.8066 230.075H58.6924V228.968H59.4648C59.6471 228.968 59.8841 228.961 60.1758 228.947C60.472 228.934 60.7113 228.897 60.8936 228.838C61.1305 228.76 61.3174 228.651 61.4541 228.51C61.5954 228.368 61.666 228.143 61.666 227.833C61.666 227.619 61.6113 227.443 61.502 227.307C61.3926 227.165 61.2559 227.056 61.0918 226.979C60.9232 226.901 60.734 226.849 60.5244 226.821C60.3193 226.794 60.137 226.78 59.9775 226.78C59.5127 226.78 59.0547 226.844 58.6035 226.972C58.1569 227.095 57.7809 227.275 57.4756 227.512H57.3867V226.097C57.765 225.974 58.1706 225.873 58.6035 225.796C59.0365 225.718 59.4694 225.68 59.9023 225.68C60.2578 225.68 60.611 225.712 60.9619 225.775C61.3174 225.839 61.6478 225.949 61.9531 226.104C62.2539 226.258 62.5 226.47 62.6914 226.739C62.8828 227.004 62.9785 227.332 62.9785 227.724C62.9785 228.125 62.8532 228.478 62.6025 228.783C62.3564 229.084 62.0238 229.3 61.6045 229.433V229.48C62.0739 229.594 62.4476 229.809 62.7256 230.123C63.0036 230.433 63.1426 230.845 63.1426 231.36ZM71.5645 233.5H70.2793V230.062H66.458V233.5H65.1729V225.864H66.458V228.954H70.2793V225.864H71.5645V233.5ZM80.4922 229.815H74.8662C74.8662 230.285 74.9368 230.695 75.0781 231.046C75.2194 231.392 75.4131 231.677 75.6592 231.9C75.8962 232.119 76.1764 232.283 76.5 232.393C76.8281 232.502 77.1882 232.557 77.5801 232.557C78.0996 232.557 78.6214 232.454 79.1455 232.249C79.6742 232.039 80.0501 231.834 80.2734 231.634H80.3418V233.035C79.9089 233.217 79.4668 233.37 79.0156 233.493C78.5645 233.616 78.0905 233.678 77.5938 233.678C76.3268 233.678 75.3379 233.336 74.627 232.652C73.916 231.964 73.5605 230.989 73.5605 229.727C73.5605 228.478 73.9001 227.487 74.5791 226.753C75.2627 226.019 76.1605 225.652 77.2725 225.652C78.3024 225.652 79.0954 225.953 79.6514 226.555C80.2119 227.156 80.4922 228.011 80.4922 229.118V229.815ZM79.2412 228.831C79.2367 228.157 79.0658 227.635 78.7285 227.266C78.3958 226.896 77.8877 226.712 77.2041 226.712C76.516 226.712 75.9668 226.915 75.5566 227.32C75.151 227.726 74.9209 228.229 74.8662 228.831H79.2412ZM88.1553 233.021C87.6312 233.268 87.18 233.436 86.8018 233.527C86.4281 233.623 86.0544 233.671 85.6807 233.671C85.1247 233.671 84.6143 233.591 84.1494 233.432C83.6846 233.268 83.2858 233.021 82.9531 232.693C82.6204 232.365 82.3607 231.951 82.1738 231.449C81.9915 230.948 81.9004 230.362 81.9004 229.692C81.9004 228.476 82.2376 227.505 82.9121 226.78C83.5866 226.051 84.5094 225.687 85.6807 225.687C86.1227 225.687 86.5557 225.748 86.9795 225.871C87.4079 225.994 87.7998 226.145 88.1553 226.322V227.751H88.0801C87.6562 227.427 87.237 227.188 86.8223 227.033C86.4121 226.878 86.0133 226.801 85.626 226.801C84.8649 226.801 84.2747 227.056 83.8555 227.566C83.4408 228.077 83.2334 228.785 83.2334 229.692C83.2334 230.599 83.4408 231.303 83.8555 231.805C84.2702 232.306 84.8604 232.557 85.626 232.557C85.8949 232.557 86.1615 232.522 86.4258 232.454C86.6947 232.386 86.9385 232.297 87.1572 232.188C87.3304 232.101 87.5081 231.998 87.6904 231.88C87.8773 231.757 88.0072 231.666 88.0801 231.606H88.1553V233.021ZM102.49 233.5H101.137V224.524H97.459C97.4453 225.039 97.4248 225.545 97.3975 226.042C97.3747 226.534 97.3564 226.974 97.3428 227.361C97.3063 228.337 97.2448 229.139 97.1582 229.768C97.0762 230.396 96.9691 230.914 96.8369 231.319C96.7048 231.729 96.5544 232.058 96.3857 232.304C96.2217 232.545 96.0326 232.764 95.8184 232.96C95.5996 233.16 95.374 233.304 95.1416 233.391C94.9137 233.477 94.6449 233.521 94.335 233.521C94.2393 233.521 94.123 233.516 93.9863 233.507C93.8496 233.502 93.7539 233.5 93.6992 233.5V232.188H93.7949C93.8405 232.192 93.8975 232.197 93.9658 232.201C94.0342 232.206 94.1025 232.208 94.1709 232.208C94.335 232.208 94.4899 232.183 94.6357 232.133C94.7816 232.083 94.9046 232.005 95.0049 231.9C95.3285 231.577 95.5654 231.044 95.7158 230.301C95.8708 229.558 95.9801 228.501 96.0439 227.129C96.0667 226.682 96.0895 226.09 96.1123 225.352C96.1396 224.613 96.1624 223.937 96.1807 223.321H102.49V233.5ZM111.056 233.5H109.777V232.687C109.663 232.764 109.508 232.873 109.312 233.015C109.121 233.151 108.934 233.261 108.752 233.343C108.538 233.448 108.292 233.534 108.014 233.603C107.736 233.675 107.41 233.712 107.036 233.712C106.348 233.712 105.765 233.484 105.286 233.028C104.808 232.573 104.568 231.992 104.568 231.285C104.568 230.706 104.691 230.239 104.938 229.884C105.188 229.524 105.544 229.241 106.004 229.036C106.469 228.831 107.027 228.692 107.679 228.619C108.33 228.546 109.03 228.492 109.777 228.455V228.257C109.777 227.965 109.725 227.724 109.62 227.532C109.52 227.341 109.374 227.19 109.183 227.081C109 226.976 108.782 226.906 108.526 226.869C108.271 226.833 108.005 226.814 107.727 226.814C107.389 226.814 107.013 226.86 106.599 226.951C106.184 227.038 105.756 227.165 105.313 227.334H105.245V226.028C105.496 225.96 105.858 225.885 106.332 225.803C106.806 225.721 107.273 225.68 107.733 225.68C108.271 225.68 108.738 225.725 109.135 225.816C109.536 225.903 109.882 226.053 110.174 226.268C110.461 226.477 110.68 226.748 110.83 227.081C110.98 227.414 111.056 227.826 111.056 228.318V233.5ZM109.777 231.62V229.494C109.385 229.517 108.923 229.551 108.39 229.597C107.861 229.642 107.442 229.708 107.132 229.795C106.763 229.9 106.464 230.064 106.236 230.287C106.008 230.506 105.895 230.809 105.895 231.196C105.895 231.634 106.027 231.964 106.291 232.188C106.555 232.406 106.959 232.516 107.501 232.516C107.952 232.516 108.365 232.429 108.738 232.256C109.112 232.078 109.458 231.866 109.777 231.62ZM118.794 226.992H114.815V233.5H113.53V225.864H118.794V226.992ZM126.525 229.815H120.899C120.899 230.285 120.97 230.695 121.111 231.046C121.253 231.392 121.446 231.677 121.692 231.9C121.929 232.119 122.21 232.283 122.533 232.393C122.861 232.502 123.221 232.557 123.613 232.557C124.133 232.557 124.655 232.454 125.179 232.249C125.707 232.039 126.083 231.834 126.307 231.634H126.375V233.035C125.942 233.217 125.5 233.37 125.049 233.493C124.598 233.616 124.124 233.678 123.627 233.678C122.36 233.678 121.371 233.336 120.66 232.652C119.949 231.964 119.594 230.989 119.594 229.727C119.594 228.478 119.933 227.487 120.612 226.753C121.296 226.019 122.194 225.652 123.306 225.652C124.336 225.652 125.129 225.953 125.685 226.555C126.245 227.156 126.525 228.011 126.525 229.118V229.815ZM125.274 228.831C125.27 228.157 125.099 227.635 124.762 227.266C124.429 226.896 123.921 226.712 123.237 226.712C122.549 226.712 122 226.915 121.59 227.32C121.184 227.726 120.954 228.229 120.899 228.831H125.274ZM135.193 229.59C135.193 230.21 135.104 230.777 134.927 231.292C134.749 231.802 134.498 232.235 134.175 232.591C133.874 232.928 133.519 233.19 133.108 233.377C132.703 233.559 132.272 233.65 131.816 233.65C131.42 233.65 131.06 233.607 130.736 233.521C130.417 233.434 130.091 233.299 129.759 233.117V236.316H128.474V225.864H129.759V226.664C130.101 226.377 130.483 226.138 130.907 225.946C131.336 225.75 131.791 225.652 132.274 225.652C133.195 225.652 133.91 226.001 134.421 226.698C134.936 227.391 135.193 228.355 135.193 229.59ZM133.867 229.624C133.867 228.703 133.71 228.015 133.396 227.56C133.081 227.104 132.598 226.876 131.946 226.876C131.577 226.876 131.206 226.956 130.832 227.115C130.458 227.275 130.101 227.484 129.759 227.744V232.071C130.123 232.235 130.436 232.347 130.695 232.406C130.96 232.465 131.258 232.495 131.591 232.495C132.306 232.495 132.865 232.254 133.266 231.771C133.667 231.287 133.867 230.572 133.867 229.624ZM143.355 233.5H142.07V226.944H139.22C139.206 227.323 139.192 227.687 139.179 228.038C139.165 228.389 139.151 228.706 139.138 228.988C139.106 229.749 139.053 230.358 138.98 230.813C138.908 231.265 138.812 231.641 138.693 231.941C138.584 232.224 138.461 232.454 138.324 232.632C138.192 232.805 138.049 232.962 137.894 233.104C137.739 233.24 137.565 233.343 137.374 233.411C137.187 233.479 136.982 233.514 136.759 233.514C136.681 233.514 136.567 233.511 136.417 233.507C136.271 233.502 136.175 233.5 136.13 233.5V232.379H136.198C136.235 232.379 136.287 232.381 136.355 232.386C136.424 232.39 136.481 232.393 136.526 232.393C136.636 232.393 136.747 232.377 136.861 232.345C136.98 232.313 137.08 232.254 137.162 232.167C137.395 231.939 137.581 231.554 137.723 231.012C137.864 230.469 137.957 229.686 138.003 228.66C138.021 228.286 138.037 227.844 138.051 227.334C138.069 226.819 138.085 226.329 138.099 225.864H143.355V233.5ZM152.283 229.815H146.657C146.657 230.285 146.728 230.695 146.869 231.046C147.01 231.392 147.204 231.677 147.45 231.9C147.687 232.119 147.967 232.283 148.291 232.393C148.619 232.502 148.979 232.557 149.371 232.557C149.891 232.557 150.412 232.454 150.937 232.249C151.465 232.039 151.841 231.834 152.064 231.634H152.133V233.035C151.7 233.217 151.258 233.37 150.807 233.493C150.355 233.616 149.882 233.678 149.385 233.678C148.118 233.678 147.129 233.336 146.418 232.652C145.707 231.964 145.352 230.989 145.352 229.727C145.352 228.478 145.691 227.487 146.37 226.753C147.054 226.019 147.951 225.652 149.063 225.652C150.093 225.652 150.886 225.953 151.442 226.555C152.003 227.156 152.283 228.011 152.283 229.118V229.815ZM151.032 228.831C151.028 228.157 150.857 227.635 150.52 227.266C150.187 226.896 149.679 226.712 148.995 226.712C148.307 226.712 147.758 226.915 147.348 227.32C146.942 227.726 146.712 228.229 146.657 228.831H151.032ZM160.951 229.59C160.951 230.21 160.862 230.777 160.685 231.292C160.507 231.802 160.256 232.235 159.933 232.591C159.632 232.928 159.276 233.19 158.866 233.377C158.461 233.559 158.03 233.65 157.574 233.65C157.178 233.65 156.818 233.607 156.494 233.521C156.175 233.434 155.849 233.299 155.517 233.117V236.316H154.231V225.864H155.517V226.664C155.858 226.377 156.241 226.138 156.665 225.946C157.093 225.75 157.549 225.652 158.032 225.652C158.953 225.652 159.668 226.001 160.179 226.698C160.694 227.391 160.951 228.355 160.951 229.59ZM159.625 229.624C159.625 228.703 159.468 228.015 159.153 227.56C158.839 227.104 158.356 226.876 157.704 226.876C157.335 226.876 156.964 226.956 156.59 227.115C156.216 227.275 155.858 227.484 155.517 227.744V232.071C155.881 232.235 156.193 232.347 156.453 232.406C156.717 232.465 157.016 232.495 157.349 232.495C158.064 232.495 158.622 232.254 159.023 231.771C159.424 231.287 159.625 230.572 159.625 229.624Z" fill="#333333"/>
</svg>
