<svg width="100" height="100" viewBox="0 0 100 100" fill="none" xmlns="http://www.w3.org/2000/svg">
<path d="M54.1654 48.9585C53.3737 48.9585 52.582 48.6668 51.957 48.0418C50.7487 46.8335 50.7487 44.8335 51.957 43.6252L86.1237 9.4585C87.332 8.25016 89.332 8.25016 90.5404 9.4585C91.7487 10.6668 91.7487 12.6668 90.5404 13.8752L56.3737 48.0418C55.7487 48.6668 54.957 48.9585 54.1654 48.9585Z" fill="#1959AB"/>
<path d="M91.668 31.4585C89.9596 31.4585 88.543 30.0418 88.543 28.3335V11.4585H71.668C69.9596 11.4585 68.543 10.0418 68.543 8.3335C68.543 6.62516 69.9596 5.2085 71.668 5.2085H91.668C93.3763 5.2085 94.793 6.62516 94.793 8.3335V28.3335C94.793 30.0418 93.3763 31.4585 91.668 31.4585Z" fill="#1959AB"/>
<path d="M62.4987 94.7918H37.4987C14.8737 94.7918 5.20703 85.1252 5.20703 62.5002V37.5002C5.20703 14.8752 14.8737 5.2085 37.4987 5.2085H45.832C47.5404 5.2085 48.957 6.62516 48.957 8.3335C48.957 10.0418 47.5404 11.4585 45.832 11.4585H37.4987C18.2904 11.4585 11.457 18.2918 11.457 37.5002V62.5002C11.457 81.7085 18.2904 88.5418 37.4987 88.5418H62.4987C81.707 88.5418 88.5404 81.7085 88.5404 62.5002V54.1668C88.5404 52.4585 89.957 51.0418 91.6654 51.0418C93.3737 51.0418 94.7904 52.4585 94.7904 54.1668V62.5002C94.7904 85.1252 85.1237 94.7918 62.4987 94.7918Z" fill="#1959AB"/>
</svg>
