<svg width="99" height="100" viewBox="0 0 99 100" fill="none" xmlns="http://www.w3.org/2000/svg">
<g filter="url(#filter0_d_1681_762)">
<path d="M91.8778 45.2222L80.4074 17.0741H83.9259C85.8691 17.0741 87.4444 15.4988 87.4444 13.5556C87.4444 11.6123 85.8691 10.037 83.9259 10.037H52.2593V6.51852C52.2593 4.5753 50.684 3 48.7407 3C46.7975 3 45.2222 4.57529 45.2222 6.51852V10.037H13.5556C11.6123 10.037 10.037 11.6123 10.037 13.5556C10.037 15.4988 11.6123 17.0741 13.5556 17.0741H17.0741L5.67407 45.2222C4.19722 45.2222 3 46.4194 3 47.8963V52.2593H4.05556C5.15333 55.7637 7.38407 58.8037 10.3889 60.9148C13.356 63.0664 16.9274 64.225 20.5926 64.225C24.2578 64.225 27.8291 63.0664 30.7963 60.9148C33.8036 58.7908 36.0486 55.7564 37.2 52.2593H38.1852V48.3889C38.1852 46.64 36.7674 45.2222 35.0185 45.2222L23.2667 17.0741H45.2222V73.3704H31.1481L28.4037 74.637L16.2864 89.8442C15.0901 91.3456 14.8686 93.4194 15.7014 95.1491C16.5347 96.8797 18.2953 98 20.216 98H77.2654C79.1862 98 80.9468 96.8797 81.78 95.1491C82.6129 93.4194 82.3914 91.3456 81.1951 89.8442L69.0778 74.637L66.3333 73.3704H52.2593V17.0741H74.2852L62.5333 45.2222C60.7456 45.2222 59.2963 46.6715 59.2963 48.4593V52.2593H60.3518C61.5028 55.7457 63.7239 58.7803 66.6993 60.9314C69.6746 63.0825 73.2526 64.2404 76.9241 64.2404C80.5956 64.2404 84.1735 63.0825 87.1489 60.9314C90.1242 58.7803 92.3454 55.7457 93.4963 52.2593H94.4815V47.8259C94.4815 46.3879 93.3158 45.2222 91.8778 45.2222ZM25.6593 55.8481C24.1073 56.707 22.3662 57.1665 20.5926 57.1852C18.84 57.176 17.1193 56.7155 15.5963 55.8481C14.0433 54.9969 12.7349 53.7611 11.7963 52.2593H29.3889C28.4582 53.7428 27.1775 54.9752 25.6593 55.8481ZM27.4185 45.2222H13.3444L20.3815 28.3333L27.4185 45.2222ZM64.6444 80.4074L73.3704 90.963H24.1111L32.837 80.4074H64.6444ZM77.1704 28.4741L84.2074 45.363H70.1333L77.1704 28.4741ZM81.9556 55.9889C80.417 56.8805 78.6671 57.3423 76.8889 57.3259C75.1319 57.3509 73.4023 56.8881 71.8926 55.9889C70.3373 55.0787 69.0317 53.7973 68.0926 52.2593H85.6852C84.8128 53.825 83.5213 55.1165 81.9556 55.9889Z" fill="#1959AB"/>
</g>
<defs>
<filter id="filter0_d_1681_762" x="0" y="0" width="103.481" height="107" filterUnits="userSpaceOnUse" color-interpolation-filters="sRGB">
<feFlood flood-opacity="0" result="BackgroundImageFix"/>
<feColorMatrix in="SourceAlpha" type="matrix" values="0 0 0 0 0 0 0 0 0 0 0 0 0 0 0 0 0 0 127 0" result="hardAlpha"/>
<feOffset dx="3" dy="3"/>
<feGaussianBlur stdDeviation="3"/>
<feComposite in2="hardAlpha" operator="out"/>
<feColorMatrix type="matrix" values="0 0 0 0 0.2 0 0 0 0 0.2 0 0 0 0 0.2 0 0 0 0.25 0"/>
<feBlend mode="normal" in2="BackgroundImageFix" result="effect1_dropShadow_1681_762"/>
<feBlend mode="normal" in="SourceGraphic" in2="effect1_dropShadow_1681_762" result="shape"/>
</filter>
</defs>
</svg>
