<svg width="104" height="104" viewBox="0 0 104 104" fill="none" xmlns="http://www.w3.org/2000/svg">
<g filter="url(#filter0_d_1681_43)">
<path d="M91.6667 26.2915H50C48.2917 26.2915 46.875 24.8748 46.875 23.1665C46.875 21.4582 48.2917 20.0415 50 20.0415H91.6667C93.375 20.0415 94.7917 21.4582 94.7917 23.1665C94.7917 24.9165 93.375 26.2915 91.6667 26.2915Z" fill="#1959AB"/>
<path d="M82.416 46.8752H59.291C50.166 46.8752 46.916 43.6668 46.916 34.5835V17.5002C46.916 8.41683 50.166 5.2085 59.291 5.2085H82.416C91.541 5.2085 94.791 8.41683 94.791 17.5002V34.6252C94.791 43.6668 91.541 46.8752 82.416 46.8752ZM59.2493 11.4585C53.5826 11.4585 53.1243 11.9168 53.1243 17.5002V34.6252C53.1243 40.2085 53.5826 40.6668 59.2493 40.6668H82.3743C88.0409 40.6668 88.4993 40.2085 88.4993 34.6252V17.5002C88.4993 11.9168 88.0409 11.4585 82.3743 11.4585H59.2493Z" fill="#1959AB"/>
<path d="M49.9987 74.2085H8.33203C6.6237 74.2085 5.20703 72.7918 5.20703 71.0835C5.20703 69.3752 6.6237 67.9585 8.33203 67.9585H49.9987C51.707 67.9585 53.1237 69.3752 53.1237 71.0835C53.1237 72.8335 51.707 74.2085 49.9987 74.2085Z" fill="#1959AB"/>
<path d="M40.75 94.7917H17.625C8.5 94.7917 5.25 91.5833 5.25 82.5V65.4167C5.25 56.3333 8.5 53.125 17.625 53.125H40.75C49.875 53.125 53.125 56.3333 53.125 65.4167V82.5417C53.125 91.5833 49.875 94.7917 40.75 94.7917ZM17.5833 59.375C11.9166 59.375 11.4583 59.8333 11.4583 65.4167V82.5417C11.4583 88.125 11.9166 88.5833 17.5833 88.5833H40.7082C46.3749 88.5833 46.8333 88.125 46.8333 82.5417V65.4167C46.8333 59.8333 46.3749 59.375 40.7082 59.375H17.5833Z" fill="#1959AB"/>
<path d="M62.5002 94.7918C61.3752 94.7918 60.3335 94.1668 59.7919 93.2085C59.2502 92.2085 59.2501 91.0418 59.8334 90.0418L64.2085 82.7502C65.0835 81.2918 67.0002 80.7918 68.5002 81.6668C70.0002 82.5418 70.4585 84.4585 69.5835 85.9585L68.4585 87.8335C79.9585 85.1252 88.5835 74.7918 88.5835 62.4585C88.5835 60.7502 90.0002 59.3335 91.7085 59.3335C93.4169 59.3335 94.8335 60.7502 94.8335 62.4585C94.7919 80.2918 80.2918 94.7918 62.5002 94.7918Z" fill="#1959AB"/>
<path d="M8.33203 40.6252C6.6237 40.6252 5.20703 39.2085 5.20703 37.5002C5.20703 19.7085 19.707 5.2085 37.4987 5.2085C38.6237 5.2085 39.6653 5.8335 40.207 6.79183C40.7487 7.79183 40.7488 8.95849 40.1654 9.95849L35.7904 17.2502C34.9154 18.7085 32.9987 19.2085 31.4987 18.3335C29.9987 17.4585 29.5403 15.5418 30.4153 14.0418L31.5404 12.1668C20.0404 14.8752 11.4153 25.2085 11.4153 37.5418C11.457 39.2085 10.0404 40.6252 8.33203 40.6252Z" fill="#1959AB"/>
</g>
<defs>
<filter id="filter0_d_1681_43" x="2.20703" y="2.2085" width="101.626" height="101.583" filterUnits="userSpaceOnUse" color-interpolation-filters="sRGB">
<feFlood flood-opacity="0" result="BackgroundImageFix"/>
<feColorMatrix in="SourceAlpha" type="matrix" values="0 0 0 0 0 0 0 0 0 0 0 0 0 0 0 0 0 0 127 0" result="hardAlpha"/>
<feOffset dx="3" dy="3"/>
<feGaussianBlur stdDeviation="3"/>
<feComposite in2="hardAlpha" operator="out"/>
<feColorMatrix type="matrix" values="0 0 0 0 0.2 0 0 0 0 0.2 0 0 0 0 0.2 0 0 0 0.25 0"/>
<feBlend mode="normal" in2="BackgroundImageFix" result="effect1_dropShadow_1681_43"/>
<feBlend mode="normal" in="SourceGraphic" in2="effect1_dropShadow_1681_43" result="shape"/>
</filter>
</defs>
</svg>
