<svg width="269" height="337" viewBox="0 0 269 337" fill="none" xmlns="http://www.w3.org/2000/svg">
<path d="M14.8477 40H2.22656V22.5508H14.8477V25.9258H6.70312V28.9375H14.2617V32.3125H6.70312V36.625H14.8477V40ZM32.3672 40H27.457L23.7656 34.2695L22.6172 35.6641V40H18.3984V21.7656H22.6172V32.6523L27.1641 26.8398H32.0273L27.293 32.5117L32.3672 40ZM45.9375 35.8281C45.9375 37.1875 45.3281 38.2852 44.1094 39.1211C42.8906 39.9492 41.2227 40.3633 39.1055 40.3633C37.9336 40.3633 36.8711 40.2539 35.918 40.0352C34.9648 39.8164 34.1992 39.5742 33.6211 39.3086V35.8398H34.0078C34.2188 35.9883 34.4609 36.1523 34.7344 36.332C35.0156 36.5039 35.4102 36.6914 35.918 36.8945C36.3555 37.0742 36.8516 37.2305 37.4062 37.3633C37.9609 37.4883 38.5547 37.5508 39.1875 37.5508C40.0156 37.5508 40.6289 37.4609 41.0273 37.2812C41.4258 37.0938 41.625 36.8203 41.625 36.4609C41.625 36.1406 41.5078 35.9102 41.2734 35.7695C41.0391 35.6211 40.5938 35.4805 39.9375 35.3477C39.625 35.2773 39.1992 35.2031 38.6602 35.125C38.1289 35.0391 37.6445 34.9375 37.207 34.8203C36.0117 34.5078 35.125 34.0234 34.5469 33.3672C33.9688 32.7031 33.6797 31.8789 33.6797 30.8945C33.6797 29.6289 34.2773 28.5781 35.4727 27.7422C36.6758 26.8984 38.3164 26.4766 40.3945 26.4766C41.3789 26.4766 42.3203 26.5781 43.2188 26.7812C44.125 26.9766 44.832 27.1875 45.3398 27.4141V30.7422H44.9766C44.3516 30.3125 43.6367 29.9648 42.832 29.6992C42.0352 29.4258 41.2266 29.2891 40.4062 29.2891C39.7266 29.2891 39.1523 29.3828 38.6836 29.5703C38.2227 29.7578 37.9922 30.0234 37.9922 30.3672C37.9922 30.6797 38.0977 30.918 38.3086 31.082C38.5195 31.2461 39.0156 31.4102 39.7969 31.5742C40.2266 31.6602 40.6875 31.7461 41.1797 31.832C41.6797 31.9102 42.1797 32.0117 42.6797 32.1367C43.7891 32.4258 44.6094 32.8828 45.1406 33.5078C45.6719 34.125 45.9375 34.8984 45.9375 35.8281ZM62.4844 33.2383C62.4844 34.3242 62.3164 35.3125 61.9805 36.2031C61.6523 37.0938 61.2188 37.8281 60.6797 38.4062C60.1172 39.0156 59.4805 39.4766 58.7695 39.7891C58.0586 40.1016 57.2969 40.2578 56.4844 40.2578C55.7344 40.2578 55.0977 40.1758 54.5742 40.0117C54.0508 39.8555 53.5156 39.6328 52.9688 39.3438V44.8281H48.75V26.8398H52.9688V28.2109C53.6172 27.6953 54.2773 27.2773 54.9492 26.957C55.6289 26.6367 56.4102 26.4766 57.293 26.4766C58.9336 26.4766 60.207 27.0781 61.1133 28.2812C62.0273 29.4844 62.4844 31.1367 62.4844 33.2383ZM58.1367 33.3203C58.1367 32.0391 57.918 31.1094 57.4805 30.5312C57.043 29.9531 56.3516 29.6641 55.4062 29.6641C55.0078 29.6641 54.5977 29.7266 54.1758 29.8516C53.7539 29.9688 53.3516 30.1406 52.9688 30.3672V36.9883C53.25 37.0977 53.5508 37.168 53.8711 37.1992C54.1914 37.2305 54.5078 37.2461 54.8203 37.2461C55.9375 37.2461 56.7695 36.9219 57.3164 36.2734C57.8633 35.6172 58.1367 34.6328 58.1367 33.3203ZM78.9844 33.4258C78.9844 35.5898 78.3516 37.2969 77.0859 38.5469C75.8281 39.7891 74.0586 40.4102 71.7773 40.4102C69.4961 40.4102 67.7227 39.7891 66.457 38.5469C65.1992 37.2969 64.5703 35.5898 64.5703 33.4258C64.5703 31.2461 65.2031 29.5352 66.4688 28.293C67.7422 27.0508 69.5117 26.4297 71.7773 26.4297C74.0742 26.4297 75.8477 27.0547 77.0977 28.3047C78.3555 29.5547 78.9844 31.2617 78.9844 33.4258ZM73.793 36.625C74.0664 36.2891 74.2695 35.8867 74.4023 35.418C74.543 34.9414 74.6133 34.2852 74.6133 33.4492C74.6133 32.6758 74.543 32.0273 74.4023 31.5039C74.2617 30.9805 74.0664 30.5625 73.8164 30.25C73.5664 29.9297 73.2656 29.7031 72.9141 29.5703C72.5625 29.4375 72.1836 29.3711 71.7773 29.3711C71.3711 29.3711 71.0078 29.4258 70.6875 29.5352C70.375 29.6445 70.0742 29.8633 69.7852 30.1914C69.5273 30.4961 69.3203 30.9141 69.1641 31.4453C69.0156 31.9766 68.9414 32.6445 68.9414 33.4492C68.9414 34.168 69.0078 34.793 69.1406 35.3242C69.2734 35.8477 69.4688 36.2695 69.7266 36.5898C69.9766 36.8945 70.2734 37.1172 70.6172 37.2578C70.9688 37.3984 71.3672 37.4688 71.8125 37.4688C72.1953 37.4688 72.5586 37.4062 72.9023 37.2812C73.2539 37.1484 73.5508 36.9297 73.793 36.625ZM91.5469 30.8594H91.1719C90.9922 30.7969 90.7031 30.75 90.3047 30.7188C89.9062 30.6875 89.5742 30.6719 89.3086 30.6719C88.707 30.6719 88.1758 30.7109 87.7148 30.7891C87.2539 30.8672 86.7578 31 86.2266 31.1875V40H82.0078V26.8398H86.2266V28.7734C87.1562 27.9766 87.9648 27.4492 88.6523 27.1914C89.3398 26.9258 89.9727 26.793 90.5508 26.793C90.6992 26.793 90.8672 26.7969 91.0547 26.8047C91.2422 26.8125 91.4062 26.8242 91.5469 26.8398V30.8594ZM102.352 39.8828C101.898 40 101.418 40.0898 100.91 40.1523C100.402 40.2227 99.7812 40.2578 99.0469 40.2578C97.4062 40.2578 96.1836 39.9258 95.3789 39.2617C94.582 38.5977 94.1836 37.4609 94.1836 35.8516V29.6992H92.4492V26.8398H94.1836V23.0781H98.4023V26.8398H102.352V29.6992H98.4023V34.3633C98.4023 34.8242 98.4062 35.2266 98.4141 35.5703C98.4219 35.9141 98.4844 36.2227 98.6016 36.4961C98.7109 36.7695 98.9023 36.9883 99.1758 37.1523C99.457 37.3086 99.8633 37.3867 100.395 37.3867C100.613 37.3867 100.898 37.3398 101.25 37.2461C101.609 37.1523 101.859 37.0664 102 36.9883H102.352V39.8828Z" fill="#333333"/>
<path d="M5 76L12.5 83.5L25 68.5" stroke="#61B857" stroke-width="2" stroke-linecap="round" stroke-linejoin="round"/>
<path d="M47.2266 82.5H39.5625V70.8672H47.2266V72.2422H41.1094V75.4297H47.2266V76.8047H41.1094V81.125H47.2266V82.5ZM57.4922 82.5H55.5547L52.0547 78.6797L51.1016 79.5859V82.5H49.6328V70.3438H51.1016V78.1406L55.3438 73.7734H57.1953L53.1406 77.8047L57.4922 82.5ZM65.2734 79.9844C65.2734 80.7812 64.9427 81.4349 64.2812 81.9453C63.625 82.4557 62.7266 82.7109 61.5859 82.7109C60.9401 82.7109 60.3464 82.6354 59.8047 82.4844C59.2682 82.3281 58.8177 82.1589 58.4531 81.9766V80.3281H58.5312C58.9948 80.6771 59.5104 80.9557 60.0781 81.1641C60.6458 81.3672 61.1901 81.4688 61.7109 81.4688C62.3568 81.4688 62.862 81.3646 63.2266 81.1562C63.5911 80.9479 63.7734 80.6198 63.7734 80.1719C63.7734 79.8281 63.6745 79.5677 63.4766 79.3906C63.2786 79.2135 62.8984 79.0625 62.3359 78.9375C62.1276 78.8906 61.8542 78.8359 61.5156 78.7734C61.1823 78.7109 60.8776 78.6432 60.6016 78.5703C59.8359 78.3672 59.2917 78.0703 58.9688 77.6797C58.651 77.2839 58.4922 76.7995 58.4922 76.2266C58.4922 75.8672 58.5651 75.5286 58.7109 75.2109C58.862 74.8932 59.0885 74.6094 59.3906 74.3594C59.6823 74.1146 60.0521 73.9219 60.5 73.7812C60.9531 73.6354 61.4583 73.5625 62.0156 73.5625C62.5365 73.5625 63.0625 73.6276 63.5938 73.7578C64.1302 73.8828 64.5755 74.0365 64.9297 74.2188V75.7891H64.8516C64.4766 75.513 64.0208 75.2812 63.4844 75.0938C62.9479 74.901 62.4219 74.8047 61.9062 74.8047C61.3698 74.8047 60.9167 74.9089 60.5469 75.1172C60.1771 75.3203 59.9922 75.625 59.9922 76.0312C59.9922 76.3906 60.1042 76.6615 60.3281 76.8438C60.5469 77.026 60.901 77.1745 61.3906 77.2891C61.6615 77.3516 61.9635 77.4141 62.2969 77.4766C62.6354 77.5391 62.9167 77.5964 63.1406 77.6484C63.8229 77.8047 64.349 78.0729 64.7188 78.4531C65.0885 78.8385 65.2734 79.349 65.2734 79.9844ZM75.0625 78.0312C75.0625 78.7396 74.9609 79.388 74.7578 79.9766C74.5547 80.5599 74.2682 81.0547 73.8984 81.4609C73.5547 81.8464 73.1484 82.1458 72.6797 82.3594C72.2161 82.5677 71.724 82.6719 71.2031 82.6719C70.75 82.6719 70.3385 82.6224 69.9688 82.5234C69.6042 82.4245 69.2318 82.2708 68.8516 82.0625V85.7188H67.3828V73.7734H68.8516V74.6875C69.2422 74.3594 69.6797 74.0859 70.1641 73.8672C70.6536 73.6432 71.1745 73.5312 71.7266 73.5312C72.7786 73.5312 73.5964 73.9297 74.1797 74.7266C74.7682 75.5182 75.0625 76.6198 75.0625 78.0312ZM73.5469 78.0703C73.5469 77.0182 73.3672 76.2318 73.0078 75.7109C72.6484 75.1901 72.0964 74.9297 71.3516 74.9297C70.9297 74.9297 70.5052 75.0208 70.0781 75.2031C69.651 75.3854 69.2422 75.625 68.8516 75.9219V80.8672C69.2682 81.0547 69.625 81.1823 69.9219 81.25C70.224 81.3177 70.5651 81.3516 70.9453 81.3516C71.763 81.3516 72.401 81.0755 72.8594 80.5234C73.3177 79.9714 73.5469 79.1536 73.5469 78.0703ZM84.7891 78.1406C84.7891 79.5625 84.4245 80.6849 83.6953 81.5078C82.9661 82.3307 81.9896 82.7422 80.7656 82.7422C79.5312 82.7422 78.5495 82.3307 77.8203 81.5078C77.0964 80.6849 76.7344 79.5625 76.7344 78.1406C76.7344 76.7188 77.0964 75.5964 77.8203 74.7734C78.5495 73.9453 79.5312 73.5312 80.7656 73.5312C81.9896 73.5312 82.9661 73.9453 83.6953 74.7734C84.4245 75.5964 84.7891 76.7188 84.7891 78.1406ZM83.2734 78.1406C83.2734 77.0104 83.0521 76.1719 82.6094 75.625C82.1667 75.0729 81.5521 74.7969 80.7656 74.7969C79.9688 74.7969 79.349 75.0729 78.9062 75.625C78.4688 76.1719 78.25 77.0104 78.25 78.1406C78.25 79.2344 78.4714 80.0651 78.9141 80.6328C79.3568 81.1953 79.974 81.4766 80.7656 81.4766C81.5469 81.4766 82.1589 81.1979 82.6016 80.6406C83.0495 80.0781 83.2734 79.2448 83.2734 78.1406ZM92.5156 75.375H92.4375C92.2188 75.3229 92.0052 75.2865 91.7969 75.2656C91.5938 75.2396 91.3516 75.2266 91.0703 75.2266C90.6172 75.2266 90.1797 75.3281 89.7578 75.5312C89.3359 75.7292 88.9297 75.987 88.5391 76.3047V82.5H87.0703V73.7734H88.5391V75.0625C89.1224 74.5938 89.6354 74.263 90.0781 74.0703C90.526 73.8724 90.9818 73.7734 91.4453 73.7734C91.7005 73.7734 91.8854 73.7812 92 73.7969C92.1146 73.8073 92.2865 73.8307 92.5156 73.8672V75.375ZM98.4297 82.4219C98.1536 82.4948 97.8516 82.5547 97.5234 82.6016C97.2005 82.6484 96.9115 82.6719 96.6562 82.6719C95.7656 82.6719 95.0885 82.4323 94.625 81.9531C94.1615 81.474 93.9297 80.7057 93.9297 79.6484V75.0078H92.9375V73.7734H93.9297V71.2656H95.3984V73.7734H98.4297V75.0078H95.3984V78.9844C95.3984 79.4427 95.4089 79.8021 95.4297 80.0625C95.4505 80.3177 95.5234 80.5573 95.6484 80.7812C95.763 80.9896 95.9193 81.1432 96.1172 81.2422C96.3203 81.3359 96.6276 81.3828 97.0391 81.3828C97.2786 81.3828 97.5286 81.349 97.7891 81.2812C98.0495 81.2083 98.237 81.1484 98.3516 81.1016H98.4297V82.4219ZM113.516 78.0703C113.516 78.7995 113.411 79.4557 113.203 80.0391C113 80.6224 112.724 81.112 112.375 81.5078C112.005 81.9193 111.599 82.2292 111.156 82.4375C110.714 82.6406 110.227 82.7422 109.695 82.7422C109.201 82.7422 108.768 82.6823 108.398 82.5625C108.029 82.4479 107.664 82.2917 107.305 82.0938L107.211 82.5H105.836V70.3438H107.305V74.6875C107.716 74.349 108.154 74.0729 108.617 73.8594C109.081 73.6406 109.602 73.5312 110.18 73.5312C111.211 73.5312 112.023 73.9271 112.617 74.7188C113.216 75.5104 113.516 76.6276 113.516 78.0703ZM112 78.1094C112 77.0677 111.828 76.2786 111.484 75.7422C111.141 75.2005 110.586 74.9297 109.82 74.9297C109.393 74.9297 108.961 75.0234 108.523 75.2109C108.086 75.3932 107.68 75.6302 107.305 75.9219V80.9219C107.721 81.1094 108.078 81.2396 108.375 81.3125C108.677 81.3854 109.018 81.4219 109.398 81.4219C110.211 81.4219 110.846 81.1562 111.305 80.625C111.768 80.0885 112 79.25 112 78.1094ZM123.242 78.1406C123.242 79.5625 122.878 80.6849 122.148 81.5078C121.419 82.3307 120.443 82.7422 119.219 82.7422C117.984 82.7422 117.003 82.3307 116.273 81.5078C115.549 80.6849 115.188 79.5625 115.188 78.1406C115.188 76.7188 115.549 75.5964 116.273 74.7734C117.003 73.9453 117.984 73.5312 119.219 73.5312C120.443 73.5312 121.419 73.9453 122.148 74.7734C122.878 75.5964 123.242 76.7188 123.242 78.1406ZM121.727 78.1406C121.727 77.0104 121.505 76.1719 121.062 75.625C120.62 75.0729 120.005 74.7969 119.219 74.7969C118.422 74.7969 117.802 75.0729 117.359 75.625C116.922 76.1719 116.703 77.0104 116.703 78.1406C116.703 79.2344 116.924 80.0651 117.367 80.6328C117.81 81.1953 118.427 81.4766 119.219 81.4766C120 81.4766 120.612 81.1979 121.055 80.6406C121.503 80.0781 121.727 79.2448 121.727 78.1406ZM127.094 70.3438L126.758 74.8672H125.695L125.359 70.3438H127.094ZM137.367 73.7734L132.273 85.7188H130.703L132.328 82.0781L128.852 73.7734H130.445L133.125 80.2422L135.828 73.7734H137.367ZM140.867 72.3125H139.211V70.7891H140.867V72.3125ZM140.773 82.5H139.305V73.7734H140.773V82.5ZM150.133 81.9531C149.643 82.1875 149.177 82.3698 148.734 82.5C148.297 82.6302 147.831 82.6953 147.336 82.6953C146.706 82.6953 146.128 82.6042 145.602 82.4219C145.076 82.2344 144.625 81.9531 144.25 81.5781C143.87 81.2031 143.576 80.7292 143.367 80.1562C143.159 79.5833 143.055 78.9141 143.055 78.1484C143.055 76.7214 143.445 75.6016 144.227 74.7891C145.013 73.9766 146.049 73.5703 147.336 73.5703C147.836 73.5703 148.326 73.6406 148.805 73.7812C149.289 73.9219 149.732 74.0938 150.133 74.2969V75.9297H150.055C149.607 75.5807 149.143 75.3125 148.664 75.125C148.19 74.9375 147.727 74.8438 147.273 74.8438C146.44 74.8438 145.781 75.125 145.297 75.6875C144.818 76.2448 144.578 77.0651 144.578 78.1484C144.578 79.2005 144.812 80.0104 145.281 80.5781C145.755 81.1406 146.419 81.4219 147.273 81.4219C147.57 81.4219 147.872 81.3828 148.18 81.3047C148.487 81.2266 148.763 81.125 149.008 81C149.221 80.8906 149.422 80.776 149.609 80.6562C149.797 80.5312 149.945 80.4245 150.055 80.3359H150.133V81.9531ZM159.32 82.5H157.852V77.5312C157.852 77.1302 157.828 76.7552 157.781 76.4062C157.734 76.0521 157.648 75.776 157.523 75.5781C157.393 75.3594 157.206 75.1979 156.961 75.0938C156.716 74.9844 156.398 74.9297 156.008 74.9297C155.607 74.9297 155.188 75.0286 154.75 75.2266C154.312 75.4245 153.893 75.6771 153.492 75.9844V82.5H152.023V70.3438H153.492V74.7422C153.951 74.362 154.424 74.0651 154.914 73.8516C155.404 73.638 155.906 73.5312 156.422 73.5312C157.365 73.5312 158.083 73.8151 158.578 74.3828C159.073 74.9505 159.32 75.7682 159.32 76.8359V82.5ZM168.93 82.5H167.469V81.5703C167.339 81.6589 167.161 81.7839 166.938 81.9453C166.719 82.1016 166.505 82.2266 166.297 82.3203C166.052 82.4401 165.771 82.5391 165.453 82.6172C165.135 82.7005 164.763 82.7422 164.336 82.7422C163.549 82.7422 162.883 82.4818 162.336 81.9609C161.789 81.4401 161.516 80.776 161.516 79.9688C161.516 79.3073 161.656 78.7734 161.938 78.3672C162.224 77.9557 162.63 77.6328 163.156 77.3984C163.688 77.1641 164.326 77.0052 165.07 76.9219C165.815 76.8385 166.615 76.776 167.469 76.7344V76.5078C167.469 76.1745 167.409 75.8984 167.289 75.6797C167.174 75.4609 167.008 75.2891 166.789 75.1641C166.581 75.0443 166.331 74.9635 166.039 74.9219C165.747 74.8802 165.443 74.8594 165.125 74.8594C164.74 74.8594 164.31 74.9115 163.836 75.0156C163.362 75.1146 162.872 75.2604 162.367 75.4531H162.289V73.9609C162.576 73.8828 162.99 73.7969 163.531 73.7031C164.073 73.6094 164.607 73.5625 165.133 73.5625C165.747 73.5625 166.281 73.6146 166.734 73.7188C167.193 73.8177 167.589 73.9896 167.922 74.2344C168.25 74.474 168.5 74.7839 168.672 75.1641C168.844 75.5443 168.93 76.0156 168.93 76.5781V82.5ZM167.469 80.3516V77.9219C167.021 77.9479 166.492 77.987 165.883 78.0391C165.279 78.0911 164.799 78.1667 164.445 78.2656C164.023 78.3854 163.682 78.5729 163.422 78.8281C163.161 79.0781 163.031 79.4245 163.031 79.8672C163.031 80.3672 163.182 80.7448 163.484 81C163.786 81.25 164.247 81.375 164.867 81.375C165.383 81.375 165.854 81.276 166.281 81.0781C166.708 80.875 167.104 80.6328 167.469 80.3516ZM190.117 82.5H188.648V77.5312C188.648 77.1562 188.63 76.7943 188.594 76.4453C188.562 76.0964 188.492 75.8177 188.383 75.6094C188.263 75.3854 188.091 75.2161 187.867 75.1016C187.643 74.987 187.32 74.9297 186.898 74.9297C186.487 74.9297 186.076 75.0339 185.664 75.2422C185.253 75.4453 184.841 75.7057 184.43 76.0234C184.445 76.1432 184.458 76.2839 184.469 76.4453C184.479 76.6016 184.484 76.7578 184.484 76.9141V82.5H183.016V77.5312C183.016 77.1458 182.997 76.7812 182.961 76.4375C182.93 76.0885 182.859 75.8099 182.75 75.6016C182.63 75.3776 182.458 75.2109 182.234 75.1016C182.01 74.987 181.688 74.9297 181.266 74.9297C180.865 74.9297 180.461 75.0286 180.055 75.2266C179.654 75.4245 179.253 75.6771 178.852 75.9844V82.5H177.383V73.7734H178.852V74.7422C179.31 74.362 179.766 74.0651 180.219 73.8516C180.677 73.638 181.164 73.5312 181.68 73.5312C182.273 73.5312 182.776 73.6562 183.188 73.9062C183.604 74.1562 183.914 74.5026 184.117 74.9453C184.711 74.4453 185.253 74.0859 185.742 73.8672C186.232 73.6432 186.755 73.5312 187.312 73.5312C188.271 73.5312 188.977 73.8229 189.43 74.4062C189.888 74.9844 190.117 75.7943 190.117 76.8359V82.5ZM199.727 82.5H198.266V81.5703C198.135 81.6589 197.958 81.7839 197.734 81.9453C197.516 82.1016 197.302 82.2266 197.094 82.3203C196.849 82.4401 196.568 82.5391 196.25 82.6172C195.932 82.7005 195.56 82.7422 195.133 82.7422C194.346 82.7422 193.68 82.4818 193.133 81.9609C192.586 81.4401 192.312 80.776 192.312 79.9688C192.312 79.3073 192.453 78.7734 192.734 78.3672C193.021 77.9557 193.427 77.6328 193.953 77.3984C194.484 77.1641 195.122 77.0052 195.867 76.9219C196.612 76.8385 197.411 76.776 198.266 76.7344V76.5078C198.266 76.1745 198.206 75.8984 198.086 75.6797C197.971 75.4609 197.805 75.2891 197.586 75.1641C197.378 75.0443 197.128 74.9635 196.836 74.9219C196.544 74.8802 196.24 74.8594 195.922 74.8594C195.536 74.8594 195.107 74.9115 194.633 75.0156C194.159 75.1146 193.669 75.2604 193.164 75.4531H193.086V73.9609C193.372 73.8828 193.786 73.7969 194.328 73.7031C194.87 73.6094 195.404 73.5625 195.93 73.5625C196.544 73.5625 197.078 73.6146 197.531 73.7188C197.99 73.8177 198.385 73.9896 198.719 74.2344C199.047 74.474 199.297 74.7839 199.469 75.1641C199.641 75.5443 199.727 76.0156 199.727 76.5781V82.5ZM198.266 80.3516V77.9219C197.818 77.9479 197.289 77.987 196.68 78.0391C196.076 78.0911 195.596 78.1667 195.242 78.2656C194.82 78.3854 194.479 78.5729 194.219 78.8281C193.958 79.0781 193.828 79.4245 193.828 79.8672C193.828 80.3672 193.979 80.7448 194.281 81C194.583 81.25 195.044 81.375 195.664 81.375C196.18 81.375 196.651 81.276 197.078 81.0781C197.505 80.875 197.901 80.6328 198.266 80.3516ZM208.789 79.9844C208.789 80.7812 208.458 81.4349 207.797 81.9453C207.141 82.4557 206.242 82.7109 205.102 82.7109C204.456 82.7109 203.862 82.6354 203.32 82.4844C202.784 82.3281 202.333 82.1589 201.969 81.9766V80.3281H202.047C202.51 80.6771 203.026 80.9557 203.594 81.1641C204.161 81.3672 204.706 81.4688 205.227 81.4688C205.872 81.4688 206.378 81.3646 206.742 81.1562C207.107 80.9479 207.289 80.6198 207.289 80.1719C207.289 79.8281 207.19 79.5677 206.992 79.3906C206.794 79.2135 206.414 79.0625 205.852 78.9375C205.643 78.8906 205.37 78.8359 205.031 78.7734C204.698 78.7109 204.393 78.6432 204.117 78.5703C203.352 78.3672 202.807 78.0703 202.484 77.6797C202.167 77.2839 202.008 76.7995 202.008 76.2266C202.008 75.8672 202.081 75.5286 202.227 75.2109C202.378 74.8932 202.604 74.6094 202.906 74.3594C203.198 74.1146 203.568 73.9219 204.016 73.7812C204.469 73.6354 204.974 73.5625 205.531 73.5625C206.052 73.5625 206.578 73.6276 207.109 73.7578C207.646 73.8828 208.091 74.0365 208.445 74.2188V75.7891H208.367C207.992 75.513 207.536 75.2812 207 75.0938C206.464 74.901 205.938 74.8047 205.422 74.8047C204.885 74.8047 204.432 74.9089 204.062 75.1172C203.693 75.3203 203.508 75.625 203.508 76.0312C203.508 76.3906 203.62 76.6615 203.844 76.8438C204.062 77.026 204.417 77.1745 204.906 77.2891C205.177 77.3516 205.479 77.4141 205.812 77.4766C206.151 77.5391 206.432 77.5964 206.656 77.6484C207.339 77.8047 207.865 78.0729 208.234 78.4531C208.604 78.8385 208.789 79.349 208.789 79.9844ZM212.383 82.5H210.914V70.3438H212.383V82.5ZM222.07 82.5H220.609V81.5703C220.479 81.6589 220.302 81.7839 220.078 81.9453C219.859 82.1016 219.646 82.2266 219.438 82.3203C219.193 82.4401 218.911 82.5391 218.594 82.6172C218.276 82.7005 217.904 82.7422 217.477 82.7422C216.69 82.7422 216.023 82.4818 215.477 81.9609C214.93 81.4401 214.656 80.776 214.656 79.9688C214.656 79.3073 214.797 78.7734 215.078 78.3672C215.365 77.9557 215.771 77.6328 216.297 77.3984C216.828 77.1641 217.466 77.0052 218.211 76.9219C218.956 76.8385 219.755 76.776 220.609 76.7344V76.5078C220.609 76.1745 220.549 75.8984 220.43 75.6797C220.315 75.4609 220.148 75.2891 219.93 75.1641C219.721 75.0443 219.471 74.9635 219.18 74.9219C218.888 74.8802 218.583 74.8594 218.266 74.8594C217.88 74.8594 217.451 74.9115 216.977 75.0156C216.503 75.1146 216.013 75.2604 215.508 75.4531H215.43V73.9609C215.716 73.8828 216.13 73.7969 216.672 73.7031C217.214 73.6094 217.747 73.5625 218.273 73.5625C218.888 73.5625 219.422 73.6146 219.875 73.7188C220.333 73.8177 220.729 73.9896 221.062 74.2344C221.391 74.474 221.641 74.7839 221.812 75.1641C221.984 75.5443 222.07 76.0156 222.07 76.5781V82.5ZM220.609 80.3516V77.9219C220.161 77.9479 219.633 77.987 219.023 78.0391C218.419 78.0911 217.94 78.1667 217.586 78.2656C217.164 78.3854 216.823 78.5729 216.562 78.8281C216.302 79.0781 216.172 79.4245 216.172 79.8672C216.172 80.3672 216.323 80.7448 216.625 81C216.927 81.25 217.388 81.375 218.008 81.375C218.523 81.375 218.995 81.276 219.422 81.0781C219.849 80.875 220.245 80.6328 220.609 80.3516ZM232.195 82.5H230.727V77.5312C230.727 77.1302 230.703 76.7552 230.656 76.4062C230.609 76.0521 230.523 75.776 230.398 75.5781C230.268 75.3594 230.081 75.1979 229.836 75.0938C229.591 74.9844 229.273 74.9297 228.883 74.9297C228.482 74.9297 228.062 75.0286 227.625 75.2266C227.188 75.4245 226.768 75.6771 226.367 75.9844V82.5H224.898V70.3438H226.367V74.7422C226.826 74.362 227.299 74.0651 227.789 73.8516C228.279 73.638 228.781 73.5312 229.297 73.5312C230.24 73.5312 230.958 73.8151 231.453 74.3828C231.948 74.9505 232.195 75.7682 232.195 76.8359V82.5ZM241.805 82.5H240.344V81.5703C240.214 81.6589 240.036 81.7839 239.812 81.9453C239.594 82.1016 239.38 82.2266 239.172 82.3203C238.927 82.4401 238.646 82.5391 238.328 82.6172C238.01 82.7005 237.638 82.7422 237.211 82.7422C236.424 82.7422 235.758 82.4818 235.211 81.9609C234.664 81.4401 234.391 80.776 234.391 79.9688C234.391 79.3073 234.531 78.7734 234.812 78.3672C235.099 77.9557 235.505 77.6328 236.031 77.3984C236.562 77.1641 237.201 77.0052 237.945 76.9219C238.69 76.8385 239.49 76.776 240.344 76.7344V76.5078C240.344 76.1745 240.284 75.8984 240.164 75.6797C240.049 75.4609 239.883 75.2891 239.664 75.1641C239.456 75.0443 239.206 74.9635 238.914 74.9219C238.622 74.8802 238.318 74.8594 238 74.8594C237.615 74.8594 237.185 74.9115 236.711 75.0156C236.237 75.1146 235.747 75.2604 235.242 75.4531H235.164V73.9609C235.451 73.8828 235.865 73.7969 236.406 73.7031C236.948 73.6094 237.482 73.5625 238.008 73.5625C238.622 73.5625 239.156 73.6146 239.609 73.7188C240.068 73.8177 240.464 73.9896 240.797 74.2344C241.125 74.474 241.375 74.7839 241.547 75.1641C241.719 75.5443 241.805 76.0156 241.805 76.5781V82.5ZM240.344 80.3516V77.9219C239.896 77.9479 239.367 77.987 238.758 78.0391C238.154 78.0911 237.674 78.1667 237.32 78.2656C236.898 78.3854 236.557 78.5729 236.297 78.8281C236.036 79.0781 235.906 79.4245 235.906 79.8672C235.906 80.3672 236.057 80.7448 236.359 81C236.661 81.25 237.122 81.375 237.742 81.375C238.258 81.375 238.729 81.276 239.156 81.0781C239.583 80.875 239.979 80.6328 240.344 80.3516ZM249.164 82.4219C248.888 82.4948 248.586 82.5547 248.258 82.6016C247.935 82.6484 247.646 82.6719 247.391 82.6719C246.5 82.6719 245.823 82.4323 245.359 81.9531C244.896 81.474 244.664 80.7057 244.664 79.6484V75.0078H243.672V73.7734H244.664V71.2656H246.133V73.7734H249.164V75.0078H246.133V78.9844C246.133 79.4427 246.143 79.8021 246.164 80.0625C246.185 80.3177 246.258 80.5573 246.383 80.7812C246.497 80.9896 246.654 81.1432 246.852 81.2422C247.055 81.3359 247.362 81.3828 247.773 81.3828C248.013 81.3828 248.263 81.349 248.523 81.2812C248.784 81.2083 248.971 81.1484 249.086 81.1016H249.164V82.4219Z" fill="#333333"/>
<path d="M5 122L12.5 129.5L25 114.5" stroke="#61B857" stroke-width="2" stroke-linecap="round" stroke-linejoin="round"/>
<path d="M47.2266 128.5H39.5625V116.867H47.2266V118.242H41.1094V121.43H47.2266V122.805H41.1094V127.125H47.2266V128.5ZM57.4922 128.5H55.5547L52.0547 124.68L51.1016 125.586V128.5H49.6328V116.344H51.1016V124.141L55.3438 119.773H57.1953L53.1406 123.805L57.4922 128.5ZM65.2734 125.984C65.2734 126.781 64.9427 127.435 64.2812 127.945C63.625 128.456 62.7266 128.711 61.5859 128.711C60.9401 128.711 60.3464 128.635 59.8047 128.484C59.2682 128.328 58.8177 128.159 58.4531 127.977V126.328H58.5312C58.9948 126.677 59.5104 126.956 60.0781 127.164C60.6458 127.367 61.1901 127.469 61.7109 127.469C62.3568 127.469 62.862 127.365 63.2266 127.156C63.5911 126.948 63.7734 126.62 63.7734 126.172C63.7734 125.828 63.6745 125.568 63.4766 125.391C63.2786 125.214 62.8984 125.062 62.3359 124.938C62.1276 124.891 61.8542 124.836 61.5156 124.773C61.1823 124.711 60.8776 124.643 60.6016 124.57C59.8359 124.367 59.2917 124.07 58.9688 123.68C58.651 123.284 58.4922 122.799 58.4922 122.227C58.4922 121.867 58.5651 121.529 58.7109 121.211C58.862 120.893 59.0885 120.609 59.3906 120.359C59.6823 120.115 60.0521 119.922 60.5 119.781C60.9531 119.635 61.4583 119.562 62.0156 119.562C62.5365 119.562 63.0625 119.628 63.5938 119.758C64.1302 119.883 64.5755 120.036 64.9297 120.219V121.789H64.8516C64.4766 121.513 64.0208 121.281 63.4844 121.094C62.9479 120.901 62.4219 120.805 61.9062 120.805C61.3698 120.805 60.9167 120.909 60.5469 121.117C60.1771 121.32 59.9922 121.625 59.9922 122.031C59.9922 122.391 60.1042 122.661 60.3281 122.844C60.5469 123.026 60.901 123.174 61.3906 123.289C61.6615 123.352 61.9635 123.414 62.2969 123.477C62.6354 123.539 62.9167 123.596 63.1406 123.648C63.8229 123.805 64.349 124.073 64.7188 124.453C65.0885 124.839 65.2734 125.349 65.2734 125.984ZM75.0625 124.031C75.0625 124.74 74.9609 125.388 74.7578 125.977C74.5547 126.56 74.2682 127.055 73.8984 127.461C73.5547 127.846 73.1484 128.146 72.6797 128.359C72.2161 128.568 71.724 128.672 71.2031 128.672C70.75 128.672 70.3385 128.622 69.9688 128.523C69.6042 128.424 69.2318 128.271 68.8516 128.062V131.719H67.3828V119.773H68.8516V120.688C69.2422 120.359 69.6797 120.086 70.1641 119.867C70.6536 119.643 71.1745 119.531 71.7266 119.531C72.7786 119.531 73.5964 119.93 74.1797 120.727C74.7682 121.518 75.0625 122.62 75.0625 124.031ZM73.5469 124.07C73.5469 123.018 73.3672 122.232 73.0078 121.711C72.6484 121.19 72.0964 120.93 71.3516 120.93C70.9297 120.93 70.5052 121.021 70.0781 121.203C69.651 121.385 69.2422 121.625 68.8516 121.922V126.867C69.2682 127.055 69.625 127.182 69.9219 127.25C70.224 127.318 70.5651 127.352 70.9453 127.352C71.763 127.352 72.401 127.076 72.8594 126.523C73.3177 125.971 73.5469 125.154 73.5469 124.07ZM84.7891 124.141C84.7891 125.562 84.4245 126.685 83.6953 127.508C82.9661 128.331 81.9896 128.742 80.7656 128.742C79.5312 128.742 78.5495 128.331 77.8203 127.508C77.0964 126.685 76.7344 125.562 76.7344 124.141C76.7344 122.719 77.0964 121.596 77.8203 120.773C78.5495 119.945 79.5312 119.531 80.7656 119.531C81.9896 119.531 82.9661 119.945 83.6953 120.773C84.4245 121.596 84.7891 122.719 84.7891 124.141ZM83.2734 124.141C83.2734 123.01 83.0521 122.172 82.6094 121.625C82.1667 121.073 81.5521 120.797 80.7656 120.797C79.9688 120.797 79.349 121.073 78.9062 121.625C78.4688 122.172 78.25 123.01 78.25 124.141C78.25 125.234 78.4714 126.065 78.9141 126.633C79.3568 127.195 79.974 127.477 80.7656 127.477C81.5469 127.477 82.1589 127.198 82.6016 126.641C83.0495 126.078 83.2734 125.245 83.2734 124.141ZM92.5156 121.375H92.4375C92.2188 121.323 92.0052 121.286 91.7969 121.266C91.5938 121.24 91.3516 121.227 91.0703 121.227C90.6172 121.227 90.1797 121.328 89.7578 121.531C89.3359 121.729 88.9297 121.987 88.5391 122.305V128.5H87.0703V119.773H88.5391V121.062C89.1224 120.594 89.6354 120.263 90.0781 120.07C90.526 119.872 90.9818 119.773 91.4453 119.773C91.7005 119.773 91.8854 119.781 92 119.797C92.1146 119.807 92.2865 119.831 92.5156 119.867V121.375ZM98.4297 128.422C98.1536 128.495 97.8516 128.555 97.5234 128.602C97.2005 128.648 96.9115 128.672 96.6562 128.672C95.7656 128.672 95.0885 128.432 94.625 127.953C94.1615 127.474 93.9297 126.706 93.9297 125.648V121.008H92.9375V119.773H93.9297V117.266H95.3984V119.773H98.4297V121.008H95.3984V124.984C95.3984 125.443 95.4089 125.802 95.4297 126.062C95.4505 126.318 95.5234 126.557 95.6484 126.781C95.763 126.99 95.9193 127.143 96.1172 127.242C96.3203 127.336 96.6276 127.383 97.0391 127.383C97.2786 127.383 97.5286 127.349 97.7891 127.281C98.0495 127.208 98.237 127.148 98.3516 127.102H98.4297V128.422ZM107.289 127.508C107.289 128.987 106.953 130.073 106.281 130.766C105.609 131.458 104.576 131.805 103.18 131.805C102.716 131.805 102.263 131.771 101.82 131.703C101.383 131.641 100.951 131.549 100.523 131.43V129.93H100.602C100.841 130.023 101.221 130.138 101.742 130.273C102.263 130.414 102.784 130.484 103.305 130.484C103.805 130.484 104.219 130.424 104.547 130.305C104.875 130.185 105.13 130.018 105.312 129.805C105.495 129.602 105.625 129.357 105.703 129.07C105.781 128.784 105.82 128.464 105.82 128.109V127.312C105.378 127.667 104.953 127.932 104.547 128.109C104.146 128.281 103.633 128.367 103.008 128.367C101.966 128.367 101.138 127.992 100.523 127.242C99.9141 126.487 99.6094 125.424 99.6094 124.055C99.6094 123.305 99.7135 122.659 99.9219 122.117C100.135 121.57 100.424 121.099 100.789 120.703C101.128 120.333 101.539 120.047 102.023 119.844C102.508 119.635 102.99 119.531 103.469 119.531C103.974 119.531 104.396 119.583 104.734 119.688C105.078 119.786 105.44 119.94 105.82 120.148L105.914 119.773H107.289V127.508ZM105.82 126.102V121.344C105.43 121.167 105.065 121.042 104.727 120.969C104.393 120.891 104.06 120.852 103.727 120.852C102.919 120.852 102.284 121.122 101.82 121.664C101.357 122.206 101.125 122.992 101.125 124.023C101.125 125.003 101.297 125.745 101.641 126.25C101.984 126.755 102.555 127.008 103.352 127.008C103.779 127.008 104.206 126.927 104.633 126.766C105.065 126.599 105.461 126.378 105.82 126.102ZM116.961 128.5H115.5V127.57C115.37 127.659 115.193 127.784 114.969 127.945C114.75 128.102 114.536 128.227 114.328 128.32C114.083 128.44 113.802 128.539 113.484 128.617C113.167 128.701 112.794 128.742 112.367 128.742C111.581 128.742 110.914 128.482 110.367 127.961C109.82 127.44 109.547 126.776 109.547 125.969C109.547 125.307 109.688 124.773 109.969 124.367C110.255 123.956 110.661 123.633 111.188 123.398C111.719 123.164 112.357 123.005 113.102 122.922C113.846 122.839 114.646 122.776 115.5 122.734V122.508C115.5 122.174 115.44 121.898 115.32 121.68C115.206 121.461 115.039 121.289 114.82 121.164C114.612 121.044 114.362 120.964 114.07 120.922C113.779 120.88 113.474 120.859 113.156 120.859C112.771 120.859 112.341 120.911 111.867 121.016C111.393 121.115 110.904 121.26 110.398 121.453H110.32V119.961C110.607 119.883 111.021 119.797 111.562 119.703C112.104 119.609 112.638 119.562 113.164 119.562C113.779 119.562 114.312 119.615 114.766 119.719C115.224 119.818 115.62 119.99 115.953 120.234C116.281 120.474 116.531 120.784 116.703 121.164C116.875 121.544 116.961 122.016 116.961 122.578V128.5ZM115.5 126.352V123.922C115.052 123.948 114.523 123.987 113.914 124.039C113.31 124.091 112.831 124.167 112.477 124.266C112.055 124.385 111.714 124.573 111.453 124.828C111.193 125.078 111.062 125.424 111.062 125.867C111.062 126.367 111.214 126.745 111.516 127C111.818 127.25 112.279 127.375 112.898 127.375C113.414 127.375 113.885 127.276 114.312 127.078C114.74 126.875 115.135 126.633 115.5 126.352ZM129.945 128.422C129.669 128.495 129.367 128.555 129.039 128.602C128.716 128.648 128.427 128.672 128.172 128.672C127.281 128.672 126.604 128.432 126.141 127.953C125.677 127.474 125.445 126.706 125.445 125.648V121.008H124.453V119.773H125.445V117.266H126.914V119.773H129.945V121.008H126.914V124.984C126.914 125.443 126.924 125.802 126.945 126.062C126.966 126.318 127.039 126.557 127.164 126.781C127.279 126.99 127.435 127.143 127.633 127.242C127.836 127.336 128.143 127.383 128.555 127.383C128.794 127.383 129.044 127.349 129.305 127.281C129.565 127.208 129.753 127.148 129.867 127.102H129.945V128.422ZM138.508 128.5H137.047V127.57C136.917 127.659 136.74 127.784 136.516 127.945C136.297 128.102 136.083 128.227 135.875 128.32C135.63 128.44 135.349 128.539 135.031 128.617C134.714 128.701 134.341 128.742 133.914 128.742C133.128 128.742 132.461 128.482 131.914 127.961C131.367 127.44 131.094 126.776 131.094 125.969C131.094 125.307 131.234 124.773 131.516 124.367C131.802 123.956 132.208 123.633 132.734 123.398C133.266 123.164 133.904 123.005 134.648 122.922C135.393 122.839 136.193 122.776 137.047 122.734V122.508C137.047 122.174 136.987 121.898 136.867 121.68C136.753 121.461 136.586 121.289 136.367 121.164C136.159 121.044 135.909 120.964 135.617 120.922C135.326 120.88 135.021 120.859 134.703 120.859C134.318 120.859 133.888 120.911 133.414 121.016C132.94 121.115 132.451 121.26 131.945 121.453H131.867V119.961C132.154 119.883 132.568 119.797 133.109 119.703C133.651 119.609 134.185 119.562 134.711 119.562C135.326 119.562 135.859 119.615 136.312 119.719C136.771 119.818 137.167 119.99 137.5 120.234C137.828 120.474 138.078 120.784 138.25 121.164C138.422 121.544 138.508 122.016 138.508 122.578V128.5ZM137.047 126.352V123.922C136.599 123.948 136.07 123.987 135.461 124.039C134.857 124.091 134.378 124.167 134.023 124.266C133.602 124.385 133.26 124.573 133 124.828C132.74 125.078 132.609 125.424 132.609 125.867C132.609 126.367 132.76 126.745 133.062 127C133.365 127.25 133.826 127.375 134.445 127.375C134.961 127.375 135.432 127.276 135.859 127.078C136.286 126.875 136.682 126.633 137.047 126.352ZM148.758 119.773L143.664 131.719H142.094L143.719 128.078L140.242 119.773H141.836L144.516 126.242L147.219 119.773H148.758ZM158.227 119.773L153.133 131.719H151.562L153.188 128.078L149.711 119.773H151.305L153.984 126.242L156.688 119.773H158.227ZM167.445 124.141C167.445 125.562 167.081 126.685 166.352 127.508C165.622 128.331 164.646 128.742 163.422 128.742C162.188 128.742 161.206 128.331 160.477 127.508C159.753 126.685 159.391 125.562 159.391 124.141C159.391 122.719 159.753 121.596 160.477 120.773C161.206 119.945 162.188 119.531 163.422 119.531C164.646 119.531 165.622 119.945 166.352 120.773C167.081 121.596 167.445 122.719 167.445 124.141ZM165.93 124.141C165.93 123.01 165.708 122.172 165.266 121.625C164.823 121.073 164.208 120.797 163.422 120.797C162.625 120.797 162.005 121.073 161.562 121.625C161.125 122.172 160.906 123.01 160.906 124.141C160.906 125.234 161.128 126.065 161.57 126.633C162.013 127.195 162.63 127.477 163.422 127.477C164.203 127.477 164.815 127.198 165.258 126.641C165.706 126.078 165.93 125.245 165.93 124.141ZM175.172 121.375H175.094C174.875 121.323 174.661 121.286 174.453 121.266C174.25 121.24 174.008 121.227 173.727 121.227C173.273 121.227 172.836 121.328 172.414 121.531C171.992 121.729 171.586 121.987 171.195 122.305V128.5H169.727V119.773H171.195V121.062C171.779 120.594 172.292 120.263 172.734 120.07C173.182 119.872 173.638 119.773 174.102 119.773C174.357 119.773 174.542 119.781 174.656 119.797C174.771 119.807 174.943 119.831 175.172 119.867V121.375ZM183.633 127.508C183.633 128.987 183.297 130.073 182.625 130.766C181.953 131.458 180.919 131.805 179.523 131.805C179.06 131.805 178.607 131.771 178.164 131.703C177.727 131.641 177.294 131.549 176.867 131.43V129.93H176.945C177.185 130.023 177.565 130.138 178.086 130.273C178.607 130.414 179.128 130.484 179.648 130.484C180.148 130.484 180.562 130.424 180.891 130.305C181.219 130.185 181.474 130.018 181.656 129.805C181.839 129.602 181.969 129.357 182.047 129.07C182.125 128.784 182.164 128.464 182.164 128.109V127.312C181.721 127.667 181.297 127.932 180.891 128.109C180.49 128.281 179.977 128.367 179.352 128.367C178.31 128.367 177.482 127.992 176.867 127.242C176.258 126.487 175.953 125.424 175.953 124.055C175.953 123.305 176.057 122.659 176.266 122.117C176.479 121.57 176.768 121.099 177.133 120.703C177.471 120.333 177.883 120.047 178.367 119.844C178.852 119.635 179.333 119.531 179.812 119.531C180.318 119.531 180.74 119.583 181.078 119.688C181.422 119.786 181.784 119.94 182.164 120.148L182.258 119.773H183.633V127.508ZM182.164 126.102V121.344C181.773 121.167 181.409 121.042 181.07 120.969C180.737 120.891 180.404 120.852 180.07 120.852C179.263 120.852 178.628 121.122 178.164 121.664C177.701 122.206 177.469 122.992 177.469 124.023C177.469 125.003 177.641 125.745 177.984 126.25C178.328 126.755 178.898 127.008 179.695 127.008C180.122 127.008 180.549 126.927 180.977 126.766C181.409 126.599 181.805 126.378 182.164 126.102ZM193.305 128.5H191.844V127.57C191.714 127.659 191.536 127.784 191.312 127.945C191.094 128.102 190.88 128.227 190.672 128.32C190.427 128.44 190.146 128.539 189.828 128.617C189.51 128.701 189.138 128.742 188.711 128.742C187.924 128.742 187.258 128.482 186.711 127.961C186.164 127.44 185.891 126.776 185.891 125.969C185.891 125.307 186.031 124.773 186.312 124.367C186.599 123.956 187.005 123.633 187.531 123.398C188.062 123.164 188.701 123.005 189.445 122.922C190.19 122.839 190.99 122.776 191.844 122.734V122.508C191.844 122.174 191.784 121.898 191.664 121.68C191.549 121.461 191.383 121.289 191.164 121.164C190.956 121.044 190.706 120.964 190.414 120.922C190.122 120.88 189.818 120.859 189.5 120.859C189.115 120.859 188.685 120.911 188.211 121.016C187.737 121.115 187.247 121.26 186.742 121.453H186.664V119.961C186.951 119.883 187.365 119.797 187.906 119.703C188.448 119.609 188.982 119.562 189.508 119.562C190.122 119.562 190.656 119.615 191.109 119.719C191.568 119.818 191.964 119.99 192.297 120.234C192.625 120.474 192.875 120.784 193.047 121.164C193.219 121.544 193.305 122.016 193.305 122.578V128.5ZM191.844 126.352V123.922C191.396 123.948 190.867 123.987 190.258 124.039C189.654 124.091 189.174 124.167 188.82 124.266C188.398 124.385 188.057 124.573 187.797 124.828C187.536 125.078 187.406 125.424 187.406 125.867C187.406 126.367 187.557 126.745 187.859 127C188.161 127.25 188.622 127.375 189.242 127.375C189.758 127.375 190.229 127.276 190.656 127.078C191.083 126.875 191.479 126.633 191.844 126.352ZM201.578 121.375H201.5C201.281 121.323 201.068 121.286 200.859 121.266C200.656 121.24 200.414 121.227 200.133 121.227C199.68 121.227 199.242 121.328 198.82 121.531C198.398 121.729 197.992 121.987 197.602 122.305V128.5H196.133V119.773H197.602V121.062C198.185 120.594 198.698 120.263 199.141 120.07C199.589 119.872 200.044 119.773 200.508 119.773C200.763 119.773 200.948 119.781 201.062 119.797C201.177 119.807 201.349 119.831 201.578 119.867V121.375ZM204.445 128.5H202.977V116.344H204.445V128.5ZM208.93 118.312H207.273V116.789H208.93V118.312ZM208.836 128.5H207.367V119.773H208.836V128.5ZM219.664 128.5H217.727L214.227 124.68L213.273 125.586V128.5H211.805V116.344H213.273V124.141L217.516 119.773H219.367L215.312 123.805L219.664 128.5Z" fill="#333333"/>
<path d="M5 168L12.5 175.5L25 160.5" stroke="#61B857" stroke-width="2" stroke-linecap="round" stroke-linejoin="round"/>
<path d="M48.0156 171.18C48.0156 171.633 47.9089 172.081 47.6953 172.523C47.487 172.966 47.1927 173.341 46.8125 173.648C46.3958 173.982 45.9089 174.242 45.3516 174.43C44.7995 174.617 44.1328 174.711 43.3516 174.711C42.513 174.711 41.7578 174.633 41.0859 174.477C40.4193 174.32 39.7396 174.089 39.0469 173.781V171.844H39.1562C39.7448 172.333 40.4245 172.711 41.1953 172.977C41.9661 173.242 42.6901 173.375 43.3672 173.375C44.3255 173.375 45.0703 173.195 45.6016 172.836C46.138 172.477 46.4062 171.997 46.4062 171.398C46.4062 170.883 46.2786 170.503 46.0234 170.258C45.7734 170.013 45.3906 169.823 44.875 169.688C44.4844 169.583 44.0599 169.497 43.6016 169.43C43.1484 169.362 42.6667 169.276 42.1562 169.172C41.125 168.953 40.3594 168.581 39.8594 168.055C39.3646 167.523 39.1172 166.833 39.1172 165.984C39.1172 165.01 39.5286 164.214 40.3516 163.594C41.1745 162.969 42.2188 162.656 43.4844 162.656C44.3021 162.656 45.0521 162.734 45.7344 162.891C46.4167 163.047 47.0208 163.24 47.5469 163.469V165.297H47.4375C46.9948 164.922 46.4115 164.612 45.6875 164.367C44.9688 164.117 44.2318 163.992 43.4766 163.992C42.6484 163.992 41.9818 164.164 41.4766 164.508C40.9766 164.852 40.7266 165.294 40.7266 165.836C40.7266 166.32 40.8516 166.701 41.1016 166.977C41.3516 167.253 41.7917 167.464 42.4219 167.609C42.7552 167.682 43.2292 167.771 43.8438 167.875C44.4583 167.979 44.9792 168.086 45.4062 168.195C46.2708 168.424 46.9219 168.771 47.3594 169.234C47.7969 169.698 48.0156 170.346 48.0156 171.18ZM57.6875 170.289H51.2578C51.2578 170.826 51.3385 171.294 51.5 171.695C51.6615 172.091 51.8828 172.417 52.1641 172.672C52.4349 172.922 52.7552 173.109 53.125 173.234C53.5 173.359 53.9115 173.422 54.3594 173.422C54.9531 173.422 55.5495 173.305 56.1484 173.07C56.7526 172.831 57.1823 172.596 57.4375 172.367H57.5156V173.969C57.0208 174.177 56.5156 174.352 56 174.492C55.4844 174.633 54.9427 174.703 54.375 174.703C52.9271 174.703 51.7969 174.312 50.9844 173.531C50.1719 172.745 49.7656 171.63 49.7656 170.188C49.7656 168.76 50.1536 167.628 50.9297 166.789C51.7109 165.951 52.737 165.531 54.0078 165.531C55.1849 165.531 56.0911 165.875 56.7266 166.562C57.3672 167.25 57.6875 168.227 57.6875 169.492V170.289ZM56.2578 169.164C56.2526 168.393 56.0573 167.797 55.6719 167.375C55.2917 166.953 54.7109 166.742 53.9297 166.742C53.1432 166.742 52.5156 166.974 52.0469 167.438C51.5833 167.901 51.3203 168.477 51.2578 169.164H56.2578ZM65.3594 167.375H65.2812C65.0625 167.323 64.849 167.286 64.6406 167.266C64.4375 167.24 64.1953 167.227 63.9141 167.227C63.4609 167.227 63.0234 167.328 62.6016 167.531C62.1797 167.729 61.7734 167.987 61.3828 168.305V174.5H59.9141V165.773H61.3828V167.062C61.9661 166.594 62.4792 166.263 62.9219 166.07C63.3698 165.872 63.8255 165.773 64.2891 165.773C64.5443 165.773 64.7292 165.781 64.8438 165.797C64.9583 165.807 65.1302 165.831 65.3594 165.867V167.375ZM71.2734 174.422C70.9974 174.495 70.6953 174.555 70.3672 174.602C70.0443 174.648 69.7552 174.672 69.5 174.672C68.6094 174.672 67.9323 174.432 67.4688 173.953C67.0052 173.474 66.7734 172.706 66.7734 171.648V167.008H65.7812V165.773H66.7734V163.266H68.2422V165.773H71.2734V167.008H68.2422V170.984C68.2422 171.443 68.2526 171.802 68.2734 172.062C68.2943 172.318 68.3672 172.557 68.4922 172.781C68.6068 172.99 68.763 173.143 68.9609 173.242C69.1641 173.336 69.4714 173.383 69.8828 173.383C70.1224 173.383 70.3724 173.349 70.6328 173.281C70.8932 173.208 71.0807 173.148 71.1953 173.102H71.2734V174.422ZM74.6328 164.312H72.9766V162.789H74.6328V164.312ZM74.5391 174.5H73.0703V165.773H74.5391V174.5ZM82.1406 163.766H82.0625C81.901 163.719 81.6901 163.672 81.4297 163.625C81.1693 163.573 80.9401 163.547 80.7422 163.547C80.112 163.547 79.6536 163.688 79.3672 163.969C79.0859 164.245 78.9453 164.747 78.9453 165.477V165.773H81.5938V167.008H78.9922V174.5H77.5234V167.008H76.5312V165.773H77.5234V165.484C77.5234 164.448 77.7812 163.654 78.2969 163.102C78.8125 162.544 79.5573 162.266 80.5312 162.266C80.8594 162.266 81.1536 162.281 81.4141 162.312C81.6797 162.344 81.9219 162.38 82.1406 162.422V163.766ZM84.6484 164.312H82.9922V162.789H84.6484V164.312ZM84.5547 174.5H83.0859V165.773H84.5547V174.5ZM95.3828 174.5H93.4453L89.9453 170.68L88.9922 171.586V174.5H87.5234V162.344H88.9922V170.141L93.2344 165.773H95.0859L91.0312 169.805L95.3828 174.5ZM103.711 174.5H102.25V173.57C102.12 173.659 101.943 173.784 101.719 173.945C101.5 174.102 101.286 174.227 101.078 174.32C100.833 174.44 100.552 174.539 100.234 174.617C99.9167 174.701 99.5443 174.742 99.1172 174.742C98.3307 174.742 97.6641 174.482 97.1172 173.961C96.5703 173.44 96.2969 172.776 96.2969 171.969C96.2969 171.307 96.4375 170.773 96.7188 170.367C97.0052 169.956 97.4115 169.633 97.9375 169.398C98.4688 169.164 99.1068 169.005 99.8516 168.922C100.596 168.839 101.396 168.776 102.25 168.734V168.508C102.25 168.174 102.19 167.898 102.07 167.68C101.956 167.461 101.789 167.289 101.57 167.164C101.362 167.044 101.112 166.964 100.82 166.922C100.529 166.88 100.224 166.859 99.9062 166.859C99.5208 166.859 99.0911 166.911 98.6172 167.016C98.1432 167.115 97.6536 167.26 97.1484 167.453H97.0703V165.961C97.3568 165.883 97.7708 165.797 98.3125 165.703C98.8542 165.609 99.388 165.562 99.9141 165.562C100.529 165.562 101.062 165.615 101.516 165.719C101.974 165.818 102.37 165.99 102.703 166.234C103.031 166.474 103.281 166.784 103.453 167.164C103.625 167.544 103.711 168.016 103.711 168.578V174.5ZM102.25 172.352V169.922C101.802 169.948 101.273 169.987 100.664 170.039C100.06 170.091 99.5807 170.167 99.2266 170.266C98.8047 170.385 98.4635 170.573 98.2031 170.828C97.9427 171.078 97.8125 171.424 97.8125 171.867C97.8125 172.367 97.9635 172.745 98.2656 173C98.5677 173.25 99.0286 173.375 99.6484 173.375C100.164 173.375 100.635 173.276 101.062 173.078C101.49 172.875 101.885 172.633 102.25 172.352ZM111.07 174.422C110.794 174.495 110.492 174.555 110.164 174.602C109.841 174.648 109.552 174.672 109.297 174.672C108.406 174.672 107.729 174.432 107.266 173.953C106.802 173.474 106.57 172.706 106.57 171.648V167.008H105.578V165.773H106.57V163.266H108.039V165.773H111.07V167.008H108.039V170.984C108.039 171.443 108.049 171.802 108.07 172.062C108.091 172.318 108.164 172.557 108.289 172.781C108.404 172.99 108.56 173.143 108.758 173.242C108.961 173.336 109.268 173.383 109.68 173.383C109.919 173.383 110.169 173.349 110.43 173.281C110.69 173.208 110.878 173.148 110.992 173.102H111.07V174.422ZM114.336 174.5H112.867V162.344H114.336V174.5ZM124.023 174.5H122.562V173.57C122.432 173.659 122.255 173.784 122.031 173.945C121.812 174.102 121.599 174.227 121.391 174.32C121.146 174.44 120.865 174.539 120.547 174.617C120.229 174.701 119.857 174.742 119.43 174.742C118.643 174.742 117.977 174.482 117.43 173.961C116.883 173.44 116.609 172.776 116.609 171.969C116.609 171.307 116.75 170.773 117.031 170.367C117.318 169.956 117.724 169.633 118.25 169.398C118.781 169.164 119.419 169.005 120.164 168.922C120.909 168.839 121.708 168.776 122.562 168.734V168.508C122.562 168.174 122.503 167.898 122.383 167.68C122.268 167.461 122.102 167.289 121.883 167.164C121.674 167.044 121.424 166.964 121.133 166.922C120.841 166.88 120.536 166.859 120.219 166.859C119.833 166.859 119.404 166.911 118.93 167.016C118.456 167.115 117.966 167.26 117.461 167.453H117.383V165.961C117.669 165.883 118.083 165.797 118.625 165.703C119.167 165.609 119.701 165.562 120.227 165.562C120.841 165.562 121.375 165.615 121.828 165.719C122.286 165.818 122.682 165.99 123.016 166.234C123.344 166.474 123.594 166.784 123.766 167.164C123.938 167.544 124.023 168.016 124.023 168.578V174.5ZM122.562 172.352V169.922C122.115 169.948 121.586 169.987 120.977 170.039C120.372 170.091 119.893 170.167 119.539 170.266C119.117 170.385 118.776 170.573 118.516 170.828C118.255 171.078 118.125 171.424 118.125 171.867C118.125 172.367 118.276 172.745 118.578 173C118.88 173.25 119.341 173.375 119.961 173.375C120.477 173.375 120.948 173.276 121.375 173.078C121.802 172.875 122.198 172.633 122.562 172.352ZM133.086 171.984C133.086 172.781 132.755 173.435 132.094 173.945C131.438 174.456 130.539 174.711 129.398 174.711C128.753 174.711 128.159 174.635 127.617 174.484C127.081 174.328 126.63 174.159 126.266 173.977V172.328H126.344C126.807 172.677 127.323 172.956 127.891 173.164C128.458 173.367 129.003 173.469 129.523 173.469C130.169 173.469 130.674 173.365 131.039 173.156C131.404 172.948 131.586 172.62 131.586 172.172C131.586 171.828 131.487 171.568 131.289 171.391C131.091 171.214 130.711 171.062 130.148 170.938C129.94 170.891 129.667 170.836 129.328 170.773C128.995 170.711 128.69 170.643 128.414 170.57C127.648 170.367 127.104 170.07 126.781 169.68C126.464 169.284 126.305 168.799 126.305 168.227C126.305 167.867 126.378 167.529 126.523 167.211C126.674 166.893 126.901 166.609 127.203 166.359C127.495 166.115 127.865 165.922 128.312 165.781C128.766 165.635 129.271 165.562 129.828 165.562C130.349 165.562 130.875 165.628 131.406 165.758C131.943 165.883 132.388 166.036 132.742 166.219V167.789H132.664C132.289 167.513 131.833 167.281 131.297 167.094C130.76 166.901 130.234 166.805 129.719 166.805C129.182 166.805 128.729 166.909 128.359 167.117C127.99 167.32 127.805 167.625 127.805 168.031C127.805 168.391 127.917 168.661 128.141 168.844C128.359 169.026 128.714 169.174 129.203 169.289C129.474 169.352 129.776 169.414 130.109 169.477C130.448 169.539 130.729 169.596 130.953 169.648C131.635 169.805 132.161 170.073 132.531 170.453C132.901 170.839 133.086 171.349 133.086 171.984ZM142.492 174.5H141.023V169.531C141.023 169.13 141 168.755 140.953 168.406C140.906 168.052 140.82 167.776 140.695 167.578C140.565 167.359 140.378 167.198 140.133 167.094C139.888 166.984 139.57 166.93 139.18 166.93C138.779 166.93 138.359 167.029 137.922 167.227C137.484 167.424 137.065 167.677 136.664 167.984V174.5H135.195V162.344H136.664V166.742C137.122 166.362 137.596 166.065 138.086 165.852C138.576 165.638 139.078 165.531 139.594 165.531C140.536 165.531 141.255 165.815 141.75 166.383C142.245 166.951 142.492 167.768 142.492 168.836V174.5Z" fill="#333333"/>
<path d="M5 214L12.5 221.5L25 206.5" stroke="#61B857" stroke-width="2" stroke-linecap="round" stroke-linejoin="round"/>
<path d="M48.0156 217.18C48.0156 217.633 47.9089 218.081 47.6953 218.523C47.487 218.966 47.1927 219.341 46.8125 219.648C46.3958 219.982 45.9089 220.242 45.3516 220.43C44.7995 220.617 44.1328 220.711 43.3516 220.711C42.513 220.711 41.7578 220.633 41.0859 220.477C40.4193 220.32 39.7396 220.089 39.0469 219.781V217.844H39.1562C39.7448 218.333 40.4245 218.711 41.1953 218.977C41.9661 219.242 42.6901 219.375 43.3672 219.375C44.3255 219.375 45.0703 219.195 45.6016 218.836C46.138 218.477 46.4062 217.997 46.4062 217.398C46.4062 216.883 46.2786 216.503 46.0234 216.258C45.7734 216.013 45.3906 215.823 44.875 215.688C44.4844 215.583 44.0599 215.497 43.6016 215.43C43.1484 215.362 42.6667 215.276 42.1562 215.172C41.125 214.953 40.3594 214.581 39.8594 214.055C39.3646 213.523 39.1172 212.833 39.1172 211.984C39.1172 211.01 39.5286 210.214 40.3516 209.594C41.1745 208.969 42.2188 208.656 43.4844 208.656C44.3021 208.656 45.0521 208.734 45.7344 208.891C46.4167 209.047 47.0208 209.24 47.5469 209.469V211.297H47.4375C46.9948 210.922 46.4115 210.612 45.6875 210.367C44.9688 210.117 44.2318 209.992 43.4766 209.992C42.6484 209.992 41.9818 210.164 41.4766 210.508C40.9766 210.852 40.7266 211.294 40.7266 211.836C40.7266 212.32 40.8516 212.701 41.1016 212.977C41.3516 213.253 41.7917 213.464 42.4219 213.609C42.7552 213.682 43.2292 213.771 43.8438 213.875C44.4583 213.979 44.9792 214.086 45.4062 214.195C46.2708 214.424 46.9219 214.771 47.3594 215.234C47.7969 215.698 48.0156 216.346 48.0156 217.18ZM57.1641 220.5H55.7031V219.57C55.5729 219.659 55.3958 219.784 55.1719 219.945C54.9531 220.102 54.7396 220.227 54.5312 220.32C54.2865 220.44 54.0052 220.539 53.6875 220.617C53.3698 220.701 52.9974 220.742 52.5703 220.742C51.7839 220.742 51.1172 220.482 50.5703 219.961C50.0234 219.44 49.75 218.776 49.75 217.969C49.75 217.307 49.8906 216.773 50.1719 216.367C50.4583 215.956 50.8646 215.633 51.3906 215.398C51.9219 215.164 52.5599 215.005 53.3047 214.922C54.0495 214.839 54.849 214.776 55.7031 214.734V214.508C55.7031 214.174 55.6432 213.898 55.5234 213.68C55.4089 213.461 55.2422 213.289 55.0234 213.164C54.8151 213.044 54.5651 212.964 54.2734 212.922C53.9818 212.88 53.6771 212.859 53.3594 212.859C52.974 212.859 52.5443 212.911 52.0703 213.016C51.5964 213.115 51.1068 213.26 50.6016 213.453H50.5234V211.961C50.8099 211.883 51.224 211.797 51.7656 211.703C52.3073 211.609 52.8411 211.562 53.3672 211.562C53.9818 211.562 54.5156 211.615 54.9688 211.719C55.4271 211.818 55.8229 211.99 56.1562 212.234C56.4844 212.474 56.7344 212.784 56.9062 213.164C57.0781 213.544 57.1641 214.016 57.1641 214.578V220.5ZM55.7031 218.352V215.922C55.2552 215.948 54.7266 215.987 54.1172 216.039C53.513 216.091 53.0339 216.167 52.6797 216.266C52.2578 216.385 51.9167 216.573 51.6562 216.828C51.3958 217.078 51.2656 217.424 51.2656 217.867C51.2656 218.367 51.4167 218.745 51.7188 219C52.0208 219.25 52.4818 219.375 53.1016 219.375C53.6172 219.375 54.0885 219.276 54.5156 219.078C54.9427 218.875 55.3385 218.633 55.7031 218.352ZM67.4141 211.773L63.8828 220.5H62.4062L58.8984 211.773H60.4922L63.1953 218.719L65.875 211.773H67.4141ZM76.4141 220.5H74.9453V219.586C74.5234 219.951 74.0833 220.234 73.625 220.438C73.1667 220.641 72.6693 220.742 72.1328 220.742C71.0911 220.742 70.263 220.341 69.6484 219.539C69.0391 218.737 68.7344 217.625 68.7344 216.203C68.7344 215.464 68.8385 214.805 69.0469 214.227C69.2604 213.648 69.5469 213.156 69.9062 212.75C70.2604 212.354 70.6719 212.052 71.1406 211.844C71.6146 211.635 72.1042 211.531 72.6094 211.531C73.0677 211.531 73.474 211.581 73.8281 211.68C74.1823 211.773 74.5547 211.922 74.9453 212.125V208.344H76.4141V220.5ZM74.9453 218.352V213.344C74.5495 213.167 74.1953 213.044 73.8828 212.977C73.5703 212.909 73.2292 212.875 72.8594 212.875C72.0365 212.875 71.3958 213.161 70.9375 213.734C70.4792 214.307 70.25 215.12 70.25 216.172C70.25 217.208 70.4271 217.997 70.7812 218.539C71.1354 219.076 71.7031 219.344 72.4844 219.344C72.901 219.344 73.3229 219.253 73.75 219.07C74.1771 218.883 74.5755 218.643 74.9453 218.352ZM86.7422 216.141C86.7422 217.562 86.3776 218.685 85.6484 219.508C84.9193 220.331 83.9427 220.742 82.7188 220.742C81.4844 220.742 80.5026 220.331 79.7734 219.508C79.0495 218.685 78.6875 217.562 78.6875 216.141C78.6875 214.719 79.0495 213.596 79.7734 212.773C80.5026 211.945 81.4844 211.531 82.7188 211.531C83.9427 211.531 84.9193 211.945 85.6484 212.773C86.3776 213.596 86.7422 214.719 86.7422 216.141ZM85.2266 216.141C85.2266 215.01 85.0052 214.172 84.5625 213.625C84.1198 213.073 83.5052 212.797 82.7188 212.797C81.9219 212.797 81.3021 213.073 80.8594 213.625C80.4219 214.172 80.2031 215.01 80.2031 216.141C80.2031 217.234 80.4245 218.065 80.8672 218.633C81.3099 219.195 81.9271 219.477 82.7188 219.477C83.5 219.477 84.112 219.198 84.5547 218.641C85.0026 218.078 85.2266 217.245 85.2266 216.141ZM102.328 216.07C102.328 216.799 102.224 217.456 102.016 218.039C101.812 218.622 101.536 219.112 101.188 219.508C100.818 219.919 100.411 220.229 99.9688 220.438C99.526 220.641 99.0391 220.742 98.5078 220.742C98.013 220.742 97.5807 220.682 97.2109 220.562C96.8411 220.448 96.4766 220.292 96.1172 220.094L96.0234 220.5H94.6484V208.344H96.1172V212.688C96.5286 212.349 96.9661 212.073 97.4297 211.859C97.8932 211.641 98.4141 211.531 98.9922 211.531C100.023 211.531 100.836 211.927 101.43 212.719C102.029 213.51 102.328 214.628 102.328 216.07ZM100.812 216.109C100.812 215.068 100.641 214.279 100.297 213.742C99.9531 213.201 99.3984 212.93 98.6328 212.93C98.2057 212.93 97.7734 213.023 97.3359 213.211C96.8984 213.393 96.4922 213.63 96.1172 213.922V218.922C96.5339 219.109 96.8906 219.24 97.1875 219.312C97.4896 219.385 97.8307 219.422 98.2109 219.422C99.0234 219.422 99.6589 219.156 100.117 218.625C100.581 218.089 100.812 217.25 100.812 216.109ZM112.055 216.141C112.055 217.562 111.69 218.685 110.961 219.508C110.232 220.331 109.255 220.742 108.031 220.742C106.797 220.742 105.815 220.331 105.086 219.508C104.362 218.685 104 217.562 104 216.141C104 214.719 104.362 213.596 105.086 212.773C105.815 211.945 106.797 211.531 108.031 211.531C109.255 211.531 110.232 211.945 110.961 212.773C111.69 213.596 112.055 214.719 112.055 216.141ZM110.539 216.141C110.539 215.01 110.318 214.172 109.875 213.625C109.432 213.073 108.818 212.797 108.031 212.797C107.234 212.797 106.615 213.073 106.172 213.625C105.734 214.172 105.516 215.01 105.516 216.141C105.516 217.234 105.737 218.065 106.18 218.633C106.622 219.195 107.24 219.477 108.031 219.477C108.812 219.477 109.424 219.198 109.867 218.641C110.315 218.078 110.539 217.245 110.539 216.141ZM115.906 208.344L115.57 212.867H114.508L114.172 208.344H115.906ZM120.117 220.5H118.648V208.344H120.117V220.5ZM124.602 210.312H122.945V208.789H124.602V210.312ZM124.508 220.5H123.039V211.773H124.508V220.5ZM140.148 220.5H138.68V215.531C138.68 215.156 138.661 214.794 138.625 214.445C138.594 214.096 138.523 213.818 138.414 213.609C138.294 213.385 138.122 213.216 137.898 213.102C137.674 212.987 137.352 212.93 136.93 212.93C136.518 212.93 136.107 213.034 135.695 213.242C135.284 213.445 134.872 213.706 134.461 214.023C134.477 214.143 134.49 214.284 134.5 214.445C134.51 214.602 134.516 214.758 134.516 214.914V220.5H133.047V215.531C133.047 215.146 133.029 214.781 132.992 214.438C132.961 214.089 132.891 213.81 132.781 213.602C132.661 213.378 132.49 213.211 132.266 213.102C132.042 212.987 131.719 212.93 131.297 212.93C130.896 212.93 130.492 213.029 130.086 213.227C129.685 213.424 129.284 213.677 128.883 213.984V220.5H127.414V211.773H128.883V212.742C129.341 212.362 129.797 212.065 130.25 211.852C130.708 211.638 131.195 211.531 131.711 211.531C132.305 211.531 132.807 211.656 133.219 211.906C133.635 212.156 133.945 212.503 134.148 212.945C134.742 212.445 135.284 212.086 135.773 211.867C136.263 211.643 136.786 211.531 137.344 211.531C138.302 211.531 139.008 211.823 139.461 212.406C139.919 212.984 140.148 213.794 140.148 214.836V220.5ZM144.555 210.312H142.898V208.789H144.555V210.312ZM144.461 220.5H142.992V211.773H144.461V220.5Z" fill="#333333"/>
<path d="M5 260L12.5 267.5L25 252.5" stroke="#61B857" stroke-width="2" stroke-linecap="round" stroke-linejoin="round"/>
<path d="M48.4609 266.5H46.9141V260.805H41.1094V266.5H39.5625V254.867H41.1094V259.43H46.9141V254.867H48.4609V266.5ZM58.7109 266.5H57.2422V265.531C56.7474 265.922 56.2734 266.221 55.8203 266.43C55.3672 266.638 54.8672 266.742 54.3203 266.742C53.4036 266.742 52.6901 266.464 52.1797 265.906C51.6693 265.344 51.4141 264.521 51.4141 263.438V257.773H52.8828V262.742C52.8828 263.185 52.9036 263.565 52.9453 263.883C52.987 264.195 53.0755 264.464 53.2109 264.688C53.3516 264.917 53.5339 265.083 53.7578 265.188C53.9818 265.292 54.3073 265.344 54.7344 265.344C55.1146 265.344 55.5286 265.245 55.9766 265.047C56.4297 264.849 56.8516 264.596 57.2422 264.289V257.773H58.7109V266.5ZM68.6797 269.719H67.2109V265.516C66.7578 265.906 66.3073 266.198 65.8594 266.391C65.4115 266.578 64.9271 266.672 64.4062 266.672C63.3698 266.672 62.5417 266.273 61.9219 265.477C61.3073 264.674 61 263.57 61 262.164C61 261.414 61.1068 260.753 61.3203 260.18C61.5391 259.602 61.8255 259.117 62.1797 258.727C62.5234 258.346 62.9271 258.052 63.3906 257.844C63.8542 257.635 64.3438 257.531 64.8594 257.531C65.3281 257.531 65.7422 257.583 66.1016 257.688C66.4661 257.792 66.8359 257.945 67.2109 258.148L67.3047 257.773H68.6797V269.719ZM67.2109 264.281V259.344C66.8047 259.161 66.4453 259.034 66.1328 258.961C65.8203 258.888 65.4818 258.852 65.1172 258.852C64.2682 258.852 63.6224 259.141 63.1797 259.719C62.737 260.292 62.5156 261.083 62.5156 262.094C62.5156 263.115 62.6927 263.901 63.0469 264.453C63.4062 265 63.9688 265.273 64.7344 265.273C65.1615 265.273 65.5885 265.182 66.0156 265C66.4427 264.812 66.8411 264.573 67.2109 264.281ZM78.8047 266.5H77.3359V265.531C76.8411 265.922 76.3672 266.221 75.9141 266.43C75.4609 266.638 74.9609 266.742 74.4141 266.742C73.4974 266.742 72.7839 266.464 72.2734 265.906C71.763 265.344 71.5078 264.521 71.5078 263.438V257.773H72.9766V262.742C72.9766 263.185 72.9974 263.565 73.0391 263.883C73.0807 264.195 73.1693 264.464 73.3047 264.688C73.4453 264.917 73.6276 265.083 73.8516 265.188C74.0755 265.292 74.401 265.344 74.8281 265.344C75.2083 265.344 75.6224 265.245 76.0703 265.047C76.5234 264.849 76.9453 264.596 77.3359 264.289V257.773H78.8047V266.5ZM88.7734 269.719H87.3047V265.516C86.8516 265.906 86.401 266.198 85.9531 266.391C85.5052 266.578 85.0208 266.672 84.5 266.672C83.4635 266.672 82.6354 266.273 82.0156 265.477C81.401 264.674 81.0938 263.57 81.0938 262.164C81.0938 261.414 81.2005 260.753 81.4141 260.18C81.6328 259.602 81.9193 259.117 82.2734 258.727C82.6172 258.346 83.0208 258.052 83.4844 257.844C83.9479 257.635 84.4375 257.531 84.9531 257.531C85.4219 257.531 85.8359 257.583 86.1953 257.688C86.5599 257.792 86.9297 257.945 87.3047 258.148L87.3984 257.773H88.7734V269.719ZM87.3047 264.281V259.344C86.8984 259.161 86.5391 259.034 86.2266 258.961C85.9141 258.888 85.5755 258.852 85.2109 258.852C84.362 258.852 83.7161 259.141 83.2734 259.719C82.8307 260.292 82.6094 261.083 82.6094 262.094C82.6094 263.115 82.7865 263.901 83.1406 264.453C83.5 265 84.0625 265.273 84.8281 265.273C85.2552 265.273 85.6823 265.182 86.1094 265C86.5365 264.812 86.9349 264.573 87.3047 264.281ZM93.2422 256.312H91.5859V254.789H93.2422V256.312ZM93.1484 266.5H91.6797V257.773H93.1484V266.5ZM103.602 257.773L98.5078 269.719H96.9375L98.5625 266.078L95.0859 257.773H96.6797L99.3594 264.242L102.062 257.773H103.602ZM118.695 257.773L113.602 269.719H112.031L113.656 266.078L110.18 257.773H111.773L114.453 264.242L117.156 257.773H118.695ZM127.914 262.141C127.914 263.562 127.549 264.685 126.82 265.508C126.091 266.331 125.115 266.742 123.891 266.742C122.656 266.742 121.674 266.331 120.945 265.508C120.221 264.685 119.859 263.562 119.859 262.141C119.859 260.719 120.221 259.596 120.945 258.773C121.674 257.945 122.656 257.531 123.891 257.531C125.115 257.531 126.091 257.945 126.82 258.773C127.549 259.596 127.914 260.719 127.914 262.141ZM126.398 262.141C126.398 261.01 126.177 260.172 125.734 259.625C125.292 259.073 124.677 258.797 123.891 258.797C123.094 258.797 122.474 259.073 122.031 259.625C121.594 260.172 121.375 261.01 121.375 262.141C121.375 263.234 121.596 264.065 122.039 264.633C122.482 265.195 123.099 265.477 123.891 265.477C124.672 265.477 125.284 265.198 125.727 264.641C126.174 264.078 126.398 263.245 126.398 262.141ZM135.641 259.375H135.562C135.344 259.323 135.13 259.286 134.922 259.266C134.719 259.24 134.477 259.227 134.195 259.227C133.742 259.227 133.305 259.328 132.883 259.531C132.461 259.729 132.055 259.987 131.664 260.305V266.5H130.195V257.773H131.664V259.062C132.247 258.594 132.76 258.263 133.203 258.07C133.651 257.872 134.107 257.773 134.57 257.773C134.826 257.773 135.01 257.781 135.125 257.797C135.24 257.807 135.411 257.831 135.641 257.867V259.375ZM144.102 266.5H142.633V265.586C142.211 265.951 141.771 266.234 141.312 266.438C140.854 266.641 140.357 266.742 139.82 266.742C138.779 266.742 137.951 266.341 137.336 265.539C136.727 264.737 136.422 263.625 136.422 262.203C136.422 261.464 136.526 260.805 136.734 260.227C136.948 259.648 137.234 259.156 137.594 258.75C137.948 258.354 138.359 258.052 138.828 257.844C139.302 257.635 139.792 257.531 140.297 257.531C140.755 257.531 141.161 257.581 141.516 257.68C141.87 257.773 142.242 257.922 142.633 258.125V254.344H144.102V266.5ZM142.633 264.352V259.344C142.237 259.167 141.883 259.044 141.57 258.977C141.258 258.909 140.917 258.875 140.547 258.875C139.724 258.875 139.083 259.161 138.625 259.734C138.167 260.307 137.938 261.12 137.938 262.172C137.938 263.208 138.115 263.997 138.469 264.539C138.823 265.076 139.391 265.344 140.172 265.344C140.589 265.344 141.01 265.253 141.438 265.07C141.865 264.883 142.263 264.643 142.633 264.352ZM153.773 266.5H152.312V265.57C152.182 265.659 152.005 265.784 151.781 265.945C151.562 266.102 151.349 266.227 151.141 266.32C150.896 266.44 150.615 266.539 150.297 266.617C149.979 266.701 149.607 266.742 149.18 266.742C148.393 266.742 147.727 266.482 147.18 265.961C146.633 265.44 146.359 264.776 146.359 263.969C146.359 263.307 146.5 262.773 146.781 262.367C147.068 261.956 147.474 261.633 148 261.398C148.531 261.164 149.169 261.005 149.914 260.922C150.659 260.839 151.458 260.776 152.312 260.734V260.508C152.312 260.174 152.253 259.898 152.133 259.68C152.018 259.461 151.852 259.289 151.633 259.164C151.424 259.044 151.174 258.964 150.883 258.922C150.591 258.88 150.286 258.859 149.969 258.859C149.583 258.859 149.154 258.911 148.68 259.016C148.206 259.115 147.716 259.26 147.211 259.453H147.133V257.961C147.419 257.883 147.833 257.797 148.375 257.703C148.917 257.609 149.451 257.562 149.977 257.562C150.591 257.562 151.125 257.615 151.578 257.719C152.036 257.818 152.432 257.99 152.766 258.234C153.094 258.474 153.344 258.784 153.516 259.164C153.688 259.544 153.773 260.016 153.773 260.578V266.5ZM152.312 264.352V261.922C151.865 261.948 151.336 261.987 150.727 262.039C150.122 262.091 149.643 262.167 149.289 262.266C148.867 262.385 148.526 262.573 148.266 262.828C148.005 263.078 147.875 263.424 147.875 263.867C147.875 264.367 148.026 264.745 148.328 265C148.63 265.25 149.091 265.375 149.711 265.375C150.227 265.375 150.698 265.276 151.125 265.078C151.552 264.875 151.948 264.633 152.312 264.352ZM169.336 266.5H167.867V261.531C167.867 261.156 167.849 260.794 167.812 260.445C167.781 260.096 167.711 259.818 167.602 259.609C167.482 259.385 167.31 259.216 167.086 259.102C166.862 258.987 166.539 258.93 166.117 258.93C165.706 258.93 165.294 259.034 164.883 259.242C164.471 259.445 164.06 259.706 163.648 260.023C163.664 260.143 163.677 260.284 163.688 260.445C163.698 260.602 163.703 260.758 163.703 260.914V266.5H162.234V261.531C162.234 261.146 162.216 260.781 162.18 260.438C162.148 260.089 162.078 259.81 161.969 259.602C161.849 259.378 161.677 259.211 161.453 259.102C161.229 258.987 160.906 258.93 160.484 258.93C160.083 258.93 159.68 259.029 159.273 259.227C158.872 259.424 158.471 259.677 158.07 259.984V266.5H156.602V257.773H158.07V258.742C158.529 258.362 158.984 258.065 159.438 257.852C159.896 257.638 160.383 257.531 160.898 257.531C161.492 257.531 161.995 257.656 162.406 257.906C162.823 258.156 163.133 258.503 163.336 258.945C163.93 258.445 164.471 258.086 164.961 257.867C165.451 257.643 165.974 257.531 166.531 257.531C167.49 257.531 168.195 257.823 168.648 258.406C169.107 258.984 169.336 259.794 169.336 260.836V266.5Z" fill="#333333"/>
<path d="M5 306L12.5 313.5L25 298.5" stroke="#61B857" stroke-width="2" stroke-linecap="round" stroke-linejoin="round"/>
<path d="M48.3359 308.922C48.3359 309.5 48.2266 310.01 48.0078 310.453C47.7891 310.896 47.4948 311.26 47.125 311.547C46.6875 311.891 46.2057 312.135 45.6797 312.281C45.1589 312.427 44.4948 312.5 43.6875 312.5H39.5625V300.867H43.0078C43.8568 300.867 44.4922 300.898 44.9141 300.961C45.3359 301.023 45.7396 301.154 46.125 301.352C46.5521 301.576 46.862 301.865 47.0547 302.219C47.2474 302.568 47.3438 302.987 47.3438 303.477C47.3438 304.029 47.2031 304.5 46.9219 304.891C46.6406 305.276 46.2656 305.586 45.7969 305.82V305.883C46.5833 306.044 47.2031 306.391 47.6562 306.922C48.1094 307.448 48.3359 308.115 48.3359 308.922ZM45.7344 303.68C45.7344 303.398 45.6875 303.161 45.5938 302.969C45.5 302.776 45.349 302.62 45.1406 302.5C44.8958 302.359 44.599 302.273 44.25 302.242C43.901 302.206 43.4688 302.188 42.9531 302.188H41.1094V305.547H43.1094C43.5938 305.547 43.9792 305.523 44.2656 305.477C44.5521 305.424 44.8177 305.32 45.0625 305.164C45.3073 305.008 45.4792 304.807 45.5781 304.562C45.6823 304.312 45.7344 304.018 45.7344 303.68ZM46.7266 308.984C46.7266 308.516 46.6562 308.143 46.5156 307.867C46.375 307.591 46.1198 307.357 45.75 307.164C45.5 307.034 45.1953 306.951 44.8359 306.914C44.4818 306.872 44.0495 306.852 43.5391 306.852H41.1094V311.18H43.1562C43.8333 311.18 44.388 311.146 44.8203 311.078C45.2526 311.005 45.6068 310.875 45.8828 310.688C46.1745 310.484 46.388 310.253 46.5234 309.992C46.6589 309.732 46.7266 309.396 46.7266 308.984ZM57.8516 308.141C57.8516 309.562 57.487 310.685 56.7578 311.508C56.0286 312.331 55.0521 312.742 53.8281 312.742C52.5938 312.742 51.612 312.331 50.8828 311.508C50.1589 310.685 49.7969 309.562 49.7969 308.141C49.7969 306.719 50.1589 305.596 50.8828 304.773C51.612 303.945 52.5938 303.531 53.8281 303.531C55.0521 303.531 56.0286 303.945 56.7578 304.773C57.487 305.596 57.8516 306.719 57.8516 308.141ZM56.3359 308.141C56.3359 307.01 56.1146 306.172 55.6719 305.625C55.2292 305.073 54.6146 304.797 53.8281 304.797C53.0312 304.797 52.4115 305.073 51.9688 305.625C51.5312 306.172 51.3125 307.01 51.3125 308.141C51.3125 309.234 51.5339 310.065 51.9766 310.633C52.4193 311.195 53.0365 311.477 53.8281 311.477C54.6094 311.477 55.2214 311.198 55.6641 310.641C56.112 310.078 56.3359 309.245 56.3359 308.141ZM62.8516 302.312H61.1953V300.789H62.8516V302.312ZM62.7578 312.711C62.7578 313.732 62.4974 314.503 61.9766 315.023C61.4557 315.544 60.7578 315.805 59.8828 315.805C59.6745 315.805 59.3984 315.784 59.0547 315.742C58.7161 315.701 58.4323 315.648 58.2031 315.586V314.188H58.2812C58.4271 314.245 58.6224 314.31 58.8672 314.383C59.1172 314.456 59.3594 314.492 59.5938 314.492C59.9688 314.492 60.2708 314.44 60.5 314.336C60.7292 314.232 60.901 314.076 61.0156 313.867C61.1302 313.659 61.2031 313.406 61.2344 313.109C61.2708 312.818 61.2891 312.461 61.2891 312.039V305.008H59.4688V303.773H62.7578V312.711ZM73.2031 312.5H71.3516L68.875 309.148L66.3828 312.5H64.6719L68.0781 308.148L64.7031 303.773H66.5547L69.0156 307.07L71.4844 303.773H73.2031L69.7734 308.07L73.2031 312.5ZM82.3672 308.141C82.3672 309.562 82.0026 310.685 81.2734 311.508C80.5443 312.331 79.5677 312.742 78.3438 312.742C77.1094 312.742 76.1276 312.331 75.3984 311.508C74.6745 310.685 74.3125 309.562 74.3125 308.141C74.3125 306.719 74.6745 305.596 75.3984 304.773C76.1276 303.945 77.1094 303.531 78.3438 303.531C79.5677 303.531 80.5443 303.945 81.2734 304.773C82.0026 305.596 82.3672 306.719 82.3672 308.141ZM80.8516 308.141C80.8516 307.01 80.6302 306.172 80.1875 305.625C79.7448 305.073 79.1302 304.797 78.3438 304.797C77.5469 304.797 76.9271 305.073 76.4844 305.625C76.0469 306.172 75.8281 307.01 75.8281 308.141C75.8281 309.234 76.0495 310.065 76.4922 310.633C76.9349 311.195 77.5521 311.477 78.3438 311.477C79.125 311.477 79.737 311.198 80.1797 310.641C80.6276 310.078 80.8516 309.245 80.8516 308.141ZM91.9453 312.5H90.4766V307.531C90.4766 307.13 90.4531 306.755 90.4062 306.406C90.3594 306.052 90.2734 305.776 90.1484 305.578C90.0182 305.359 89.8307 305.198 89.5859 305.094C89.3411 304.984 89.0234 304.93 88.6328 304.93C88.2318 304.93 87.8125 305.029 87.375 305.227C86.9375 305.424 86.5182 305.677 86.1172 305.984V312.5H84.6484V303.773H86.1172V304.742C86.5755 304.362 87.0495 304.065 87.5391 303.852C88.0286 303.638 88.5312 303.531 89.0469 303.531C89.9896 303.531 90.7083 303.815 91.2031 304.383C91.6979 304.951 91.9453 305.768 91.9453 306.836V312.5ZM101.555 312.5H100.094V311.57C99.9635 311.659 99.7865 311.784 99.5625 311.945C99.3438 312.102 99.1302 312.227 98.9219 312.32C98.6771 312.44 98.3958 312.539 98.0781 312.617C97.7604 312.701 97.388 312.742 96.9609 312.742C96.1745 312.742 95.5078 312.482 94.9609 311.961C94.4141 311.44 94.1406 310.776 94.1406 309.969C94.1406 309.307 94.2812 308.773 94.5625 308.367C94.849 307.956 95.2552 307.633 95.7812 307.398C96.3125 307.164 96.9505 307.005 97.6953 306.922C98.4401 306.839 99.2396 306.776 100.094 306.734V306.508C100.094 306.174 100.034 305.898 99.9141 305.68C99.7995 305.461 99.6328 305.289 99.4141 305.164C99.2057 305.044 98.9557 304.964 98.6641 304.922C98.3724 304.88 98.0677 304.859 97.75 304.859C97.3646 304.859 96.9349 304.911 96.4609 305.016C95.987 305.115 95.4974 305.26 94.9922 305.453H94.9141V303.961C95.2005 303.883 95.6146 303.797 96.1562 303.703C96.6979 303.609 97.2318 303.562 97.7578 303.562C98.3724 303.562 98.9062 303.615 99.3594 303.719C99.8177 303.818 100.214 303.99 100.547 304.234C100.875 304.474 101.125 304.784 101.297 305.164C101.469 305.544 101.555 306.016 101.555 306.578V312.5ZM100.094 310.352V307.922C99.6458 307.948 99.1172 307.987 98.5078 308.039C97.9036 308.091 97.4245 308.167 97.0703 308.266C96.6484 308.385 96.3073 308.573 96.0469 308.828C95.7865 309.078 95.6562 309.424 95.6562 309.867C95.6562 310.367 95.8073 310.745 96.1094 311C96.4115 311.25 96.8724 311.375 97.4922 311.375C98.0078 311.375 98.4792 311.276 98.9062 311.078C99.3333 310.875 99.7292 310.633 100.094 310.352ZM122.742 312.5H121.273V307.531C121.273 307.156 121.255 306.794 121.219 306.445C121.188 306.096 121.117 305.818 121.008 305.609C120.888 305.385 120.716 305.216 120.492 305.102C120.268 304.987 119.945 304.93 119.523 304.93C119.112 304.93 118.701 305.034 118.289 305.242C117.878 305.445 117.466 305.706 117.055 306.023C117.07 306.143 117.083 306.284 117.094 306.445C117.104 306.602 117.109 306.758 117.109 306.914V312.5H115.641V307.531C115.641 307.146 115.622 306.781 115.586 306.438C115.555 306.089 115.484 305.81 115.375 305.602C115.255 305.378 115.083 305.211 114.859 305.102C114.635 304.987 114.312 304.93 113.891 304.93C113.49 304.93 113.086 305.029 112.68 305.227C112.279 305.424 111.878 305.677 111.477 305.984V312.5H110.008V303.773H111.477V304.742C111.935 304.362 112.391 304.065 112.844 303.852C113.302 303.638 113.789 303.531 114.305 303.531C114.898 303.531 115.401 303.656 115.812 303.906C116.229 304.156 116.539 304.503 116.742 304.945C117.336 304.445 117.878 304.086 118.367 303.867C118.857 303.643 119.38 303.531 119.938 303.531C120.896 303.531 121.602 303.823 122.055 304.406C122.513 304.984 122.742 305.794 122.742 306.836V312.5ZM132.805 312.5H131.336V311.531C130.841 311.922 130.367 312.221 129.914 312.43C129.461 312.638 128.961 312.742 128.414 312.742C127.497 312.742 126.784 312.464 126.273 311.906C125.763 311.344 125.508 310.521 125.508 309.438V303.773H126.977V308.742C126.977 309.185 126.997 309.565 127.039 309.883C127.081 310.195 127.169 310.464 127.305 310.688C127.445 310.917 127.628 311.083 127.852 311.188C128.076 311.292 128.401 311.344 128.828 311.344C129.208 311.344 129.622 311.245 130.07 311.047C130.523 310.849 130.945 310.596 131.336 310.289V303.773H132.805V312.5ZM140.227 312.422C139.951 312.495 139.648 312.555 139.32 312.602C138.997 312.648 138.708 312.672 138.453 312.672C137.562 312.672 136.885 312.432 136.422 311.953C135.958 311.474 135.727 310.706 135.727 309.648V305.008H134.734V303.773H135.727V301.266H137.195V303.773H140.227V305.008H137.195V308.984C137.195 309.443 137.206 309.802 137.227 310.062C137.247 310.318 137.32 310.557 137.445 310.781C137.56 310.99 137.716 311.143 137.914 311.242C138.117 311.336 138.424 311.383 138.836 311.383C139.076 311.383 139.326 311.349 139.586 311.281C139.846 311.208 140.034 311.148 140.148 311.102H140.227V312.422ZM148.789 312.5H147.328V311.57C147.198 311.659 147.021 311.784 146.797 311.945C146.578 312.102 146.365 312.227 146.156 312.32C145.911 312.44 145.63 312.539 145.312 312.617C144.995 312.701 144.622 312.742 144.195 312.742C143.409 312.742 142.742 312.482 142.195 311.961C141.648 311.44 141.375 310.776 141.375 309.969C141.375 309.307 141.516 308.773 141.797 308.367C142.083 307.956 142.49 307.633 143.016 307.398C143.547 307.164 144.185 307.005 144.93 306.922C145.674 306.839 146.474 306.776 147.328 306.734V306.508C147.328 306.174 147.268 305.898 147.148 305.68C147.034 305.461 146.867 305.289 146.648 305.164C146.44 305.044 146.19 304.964 145.898 304.922C145.607 304.88 145.302 304.859 144.984 304.859C144.599 304.859 144.169 304.911 143.695 305.016C143.221 305.115 142.732 305.26 142.227 305.453H142.148V303.961C142.435 303.883 142.849 303.797 143.391 303.703C143.932 303.609 144.466 303.562 144.992 303.562C145.607 303.562 146.141 303.615 146.594 303.719C147.052 303.818 147.448 303.99 147.781 304.234C148.109 304.474 148.359 304.784 148.531 305.164C148.703 305.544 148.789 306.016 148.789 306.578V312.5ZM147.328 310.352V307.922C146.88 307.948 146.352 307.987 145.742 308.039C145.138 308.091 144.659 308.167 144.305 308.266C143.883 308.385 143.542 308.573 143.281 308.828C143.021 309.078 142.891 309.424 142.891 309.867C142.891 310.367 143.042 310.745 143.344 311C143.646 311.25 144.107 311.375 144.727 311.375C145.242 311.375 145.714 311.276 146.141 311.078C146.568 310.875 146.964 310.633 147.328 310.352ZM159.172 312.5H157.32L154.844 309.148L152.352 312.5H150.641L154.047 308.148L150.672 303.773H152.523L154.984 307.07L157.453 303.773H159.172L155.742 308.07L159.172 312.5ZM167.867 312.5H166.406V311.57C166.276 311.659 166.099 311.784 165.875 311.945C165.656 312.102 165.443 312.227 165.234 312.32C164.99 312.44 164.708 312.539 164.391 312.617C164.073 312.701 163.701 312.742 163.273 312.742C162.487 312.742 161.82 312.482 161.273 311.961C160.727 311.44 160.453 310.776 160.453 309.969C160.453 309.307 160.594 308.773 160.875 308.367C161.161 307.956 161.568 307.633 162.094 307.398C162.625 307.164 163.263 307.005 164.008 306.922C164.753 306.839 165.552 306.776 166.406 306.734V306.508C166.406 306.174 166.346 305.898 166.227 305.68C166.112 305.461 165.945 305.289 165.727 305.164C165.518 305.044 165.268 304.964 164.977 304.922C164.685 304.88 164.38 304.859 164.062 304.859C163.677 304.859 163.247 304.911 162.773 305.016C162.299 305.115 161.81 305.26 161.305 305.453H161.227V303.961C161.513 303.883 161.927 303.797 162.469 303.703C163.01 303.609 163.544 303.562 164.07 303.562C164.685 303.562 165.219 303.615 165.672 303.719C166.13 303.818 166.526 303.99 166.859 304.234C167.188 304.474 167.438 304.784 167.609 305.164C167.781 305.544 167.867 306.016 167.867 306.578V312.5ZM166.406 310.352V307.922C165.958 307.948 165.43 307.987 164.82 308.039C164.216 308.091 163.737 308.167 163.383 308.266C162.961 308.385 162.62 308.573 162.359 308.828C162.099 309.078 161.969 309.424 161.969 309.867C161.969 310.367 162.12 310.745 162.422 311C162.724 311.25 163.185 311.375 163.805 311.375C164.32 311.375 164.792 311.276 165.219 311.078C165.646 310.875 166.042 310.633 166.406 310.352ZM176.93 309.984C176.93 310.781 176.599 311.435 175.938 311.945C175.281 312.456 174.383 312.711 173.242 312.711C172.596 312.711 172.003 312.635 171.461 312.484C170.924 312.328 170.474 312.159 170.109 311.977V310.328H170.188C170.651 310.677 171.167 310.956 171.734 311.164C172.302 311.367 172.846 311.469 173.367 311.469C174.013 311.469 174.518 311.365 174.883 311.156C175.247 310.948 175.43 310.62 175.43 310.172C175.43 309.828 175.331 309.568 175.133 309.391C174.935 309.214 174.555 309.062 173.992 308.938C173.784 308.891 173.51 308.836 173.172 308.773C172.839 308.711 172.534 308.643 172.258 308.57C171.492 308.367 170.948 308.07 170.625 307.68C170.307 307.284 170.148 306.799 170.148 306.227C170.148 305.867 170.221 305.529 170.367 305.211C170.518 304.893 170.745 304.609 171.047 304.359C171.339 304.115 171.708 303.922 172.156 303.781C172.609 303.635 173.115 303.562 173.672 303.562C174.193 303.562 174.719 303.628 175.25 303.758C175.786 303.883 176.232 304.036 176.586 304.219V305.789H176.508C176.133 305.513 175.677 305.281 175.141 305.094C174.604 304.901 174.078 304.805 173.562 304.805C173.026 304.805 172.573 304.909 172.203 305.117C171.833 305.32 171.648 305.625 171.648 306.031C171.648 306.391 171.76 306.661 171.984 306.844C172.203 307.026 172.557 307.174 173.047 307.289C173.318 307.352 173.62 307.414 173.953 307.477C174.292 307.539 174.573 307.596 174.797 307.648C175.479 307.805 176.005 308.073 176.375 308.453C176.745 308.839 176.93 309.349 176.93 309.984ZM185.273 309.984C185.273 310.781 184.943 311.435 184.281 311.945C183.625 312.456 182.727 312.711 181.586 312.711C180.94 312.711 180.346 312.635 179.805 312.484C179.268 312.328 178.818 312.159 178.453 311.977V310.328H178.531C178.995 310.677 179.51 310.956 180.078 311.164C180.646 311.367 181.19 311.469 181.711 311.469C182.357 311.469 182.862 311.365 183.227 311.156C183.591 310.948 183.773 310.62 183.773 310.172C183.773 309.828 183.674 309.568 183.477 309.391C183.279 309.214 182.898 309.062 182.336 308.938C182.128 308.891 181.854 308.836 181.516 308.773C181.182 308.711 180.878 308.643 180.602 308.57C179.836 308.367 179.292 308.07 178.969 307.68C178.651 307.284 178.492 306.799 178.492 306.227C178.492 305.867 178.565 305.529 178.711 305.211C178.862 304.893 179.089 304.609 179.391 304.359C179.682 304.115 180.052 303.922 180.5 303.781C180.953 303.635 181.458 303.562 182.016 303.562C182.536 303.562 183.062 303.628 183.594 303.758C184.13 303.883 184.576 304.036 184.93 304.219V305.789H184.852C184.477 305.513 184.021 305.281 183.484 305.094C182.948 304.901 182.422 304.805 181.906 304.805C181.37 304.805 180.917 304.909 180.547 305.117C180.177 305.32 179.992 305.625 179.992 306.031C179.992 306.391 180.104 306.661 180.328 306.844C180.547 307.026 180.901 307.174 181.391 307.289C181.661 307.352 181.964 307.414 182.297 307.477C182.635 307.539 182.917 307.596 183.141 307.648C183.823 307.805 184.349 308.073 184.719 308.453C185.089 308.839 185.273 309.349 185.273 309.984ZM188.961 302.312H187.305V300.789H188.961V302.312ZM188.867 312.5H187.398V303.773H188.867V312.5ZM198.008 309.984C198.008 310.781 197.677 311.435 197.016 311.945C196.359 312.456 195.461 312.711 194.32 312.711C193.674 312.711 193.081 312.635 192.539 312.484C192.003 312.328 191.552 312.159 191.188 311.977V310.328H191.266C191.729 310.677 192.245 310.956 192.812 311.164C193.38 311.367 193.924 311.469 194.445 311.469C195.091 311.469 195.596 311.365 195.961 311.156C196.326 310.948 196.508 310.62 196.508 310.172C196.508 309.828 196.409 309.568 196.211 309.391C196.013 309.214 195.633 309.062 195.07 308.938C194.862 308.891 194.589 308.836 194.25 308.773C193.917 308.711 193.612 308.643 193.336 308.57C192.57 308.367 192.026 308.07 191.703 307.68C191.385 307.284 191.227 306.799 191.227 306.227C191.227 305.867 191.299 305.529 191.445 305.211C191.596 304.893 191.823 304.609 192.125 304.359C192.417 304.115 192.786 303.922 193.234 303.781C193.688 303.635 194.193 303.562 194.75 303.562C195.271 303.562 195.797 303.628 196.328 303.758C196.865 303.883 197.31 304.036 197.664 304.219V305.789H197.586C197.211 305.513 196.755 305.281 196.219 305.094C195.682 304.901 195.156 304.805 194.641 304.805C194.104 304.805 193.651 304.909 193.281 305.117C192.911 305.32 192.727 305.625 192.727 306.031C192.727 306.391 192.839 306.661 193.062 306.844C193.281 307.026 193.635 307.174 194.125 307.289C194.396 307.352 194.698 307.414 195.031 307.477C195.37 307.539 195.651 307.596 195.875 307.648C196.557 307.805 197.083 308.073 197.453 308.453C197.823 308.839 198.008 309.349 198.008 309.984ZM201.602 312.5H200.133V300.344H201.602V312.5ZM211.289 312.5H209.828V311.57C209.698 311.659 209.521 311.784 209.297 311.945C209.078 312.102 208.865 312.227 208.656 312.32C208.411 312.44 208.13 312.539 207.812 312.617C207.495 312.701 207.122 312.742 206.695 312.742C205.909 312.742 205.242 312.482 204.695 311.961C204.148 311.44 203.875 310.776 203.875 309.969C203.875 309.307 204.016 308.773 204.297 308.367C204.583 307.956 204.99 307.633 205.516 307.398C206.047 307.164 206.685 307.005 207.43 306.922C208.174 306.839 208.974 306.776 209.828 306.734V306.508C209.828 306.174 209.768 305.898 209.648 305.68C209.534 305.461 209.367 305.289 209.148 305.164C208.94 305.044 208.69 304.964 208.398 304.922C208.107 304.88 207.802 304.859 207.484 304.859C207.099 304.859 206.669 304.911 206.195 305.016C205.721 305.115 205.232 305.26 204.727 305.453H204.648V303.961C204.935 303.883 205.349 303.797 205.891 303.703C206.432 303.609 206.966 303.562 207.492 303.562C208.107 303.562 208.641 303.615 209.094 303.719C209.552 303.818 209.948 303.99 210.281 304.234C210.609 304.474 210.859 304.784 211.031 305.164C211.203 305.544 211.289 306.016 211.289 306.578V312.5ZM209.828 310.352V307.922C209.38 307.948 208.852 307.987 208.242 308.039C207.638 308.091 207.159 308.167 206.805 308.266C206.383 308.385 206.042 308.573 205.781 308.828C205.521 309.078 205.391 309.424 205.391 309.867C205.391 310.367 205.542 310.745 205.844 311C206.146 311.25 206.607 311.375 207.227 311.375C207.742 311.375 208.214 311.276 208.641 311.078C209.068 310.875 209.464 310.633 209.828 310.352ZM219.562 305.375H219.484C219.266 305.323 219.052 305.286 218.844 305.266C218.641 305.24 218.398 305.227 218.117 305.227C217.664 305.227 217.227 305.328 216.805 305.531C216.383 305.729 215.977 305.987 215.586 306.305V312.5H214.117V303.773H215.586V305.062C216.169 304.594 216.682 304.263 217.125 304.07C217.573 303.872 218.029 303.773 218.492 303.773C218.747 303.773 218.932 303.781 219.047 303.797C219.161 303.807 219.333 303.831 219.562 303.867V305.375ZM222.523 302.312H220.867V300.789H222.523V302.312ZM222.43 312.5H220.961V303.773H222.43V312.5ZM238.883 312.5H236.945L233.445 308.68L232.492 309.586V312.5H231.023V300.344H232.492V308.141L236.734 303.773H238.586L234.531 307.805L238.883 312.5ZM247.664 312.5H246.195V311.531C245.701 311.922 245.227 312.221 244.773 312.43C244.32 312.638 243.82 312.742 243.273 312.742C242.357 312.742 241.643 312.464 241.133 311.906C240.622 311.344 240.367 310.521 240.367 309.438V303.773H241.836V308.742C241.836 309.185 241.857 309.565 241.898 309.883C241.94 310.195 242.029 310.464 242.164 310.688C242.305 310.917 242.487 311.083 242.711 311.188C242.935 311.292 243.26 311.344 243.688 311.344C244.068 311.344 244.482 311.245 244.93 311.047C245.383 310.849 245.805 310.596 246.195 310.289V303.773H247.664V312.5ZM256 305.375H255.922C255.703 305.323 255.49 305.286 255.281 305.266C255.078 305.24 254.836 305.227 254.555 305.227C254.102 305.227 253.664 305.328 253.242 305.531C252.82 305.729 252.414 305.987 252.023 306.305V312.5H250.555V303.773H252.023V305.062C252.607 304.594 253.12 304.263 253.562 304.07C254.01 303.872 254.466 303.773 254.93 303.773C255.185 303.773 255.37 303.781 255.484 303.797C255.599 303.807 255.771 303.831 256 303.867V305.375ZM263.617 309.984C263.617 310.781 263.286 311.435 262.625 311.945C261.969 312.456 261.07 312.711 259.93 312.711C259.284 312.711 258.69 312.635 258.148 312.484C257.612 312.328 257.161 312.159 256.797 311.977V310.328H256.875C257.339 310.677 257.854 310.956 258.422 311.164C258.99 311.367 259.534 311.469 260.055 311.469C260.701 311.469 261.206 311.365 261.57 311.156C261.935 310.948 262.117 310.62 262.117 310.172C262.117 309.828 262.018 309.568 261.82 309.391C261.622 309.214 261.242 309.062 260.68 308.938C260.471 308.891 260.198 308.836 259.859 308.773C259.526 308.711 259.221 308.643 258.945 308.57C258.18 308.367 257.635 308.07 257.312 307.68C256.995 307.284 256.836 306.799 256.836 306.227C256.836 305.867 256.909 305.529 257.055 305.211C257.206 304.893 257.432 304.609 257.734 304.359C258.026 304.115 258.396 303.922 258.844 303.781C259.297 303.635 259.802 303.562 260.359 303.562C260.88 303.562 261.406 303.628 261.938 303.758C262.474 303.883 262.919 304.036 263.273 304.219V305.789H263.195C262.82 305.513 262.365 305.281 261.828 305.094C261.292 304.901 260.766 304.805 260.25 304.805C259.714 304.805 259.26 304.909 258.891 305.117C258.521 305.32 258.336 305.625 258.336 306.031C258.336 306.391 258.448 306.661 258.672 306.844C258.891 307.026 259.245 307.174 259.734 307.289C260.005 307.352 260.307 307.414 260.641 307.477C260.979 307.539 261.26 307.596 261.484 307.648C262.167 307.805 262.693 308.073 263.062 308.453C263.432 308.839 263.617 309.349 263.617 309.984ZM267.305 302.312H265.648V300.789H267.305V302.312ZM267.211 312.5H265.742V303.773H267.211V312.5Z" fill="#333333"/>
</svg>
