<svg width="249" height="318" viewBox="0 0 249 318" fill="none" xmlns="http://www.w3.org/2000/svg">
<path d="M17.1562 34.6562C17.1562 35.5 16.9844 36.2539 16.6406 36.918C16.3047 37.582 15.8398 38.1328 15.2461 38.5703C14.5586 39.0859 13.8008 39.4531 12.9727 39.6719C12.1523 39.8906 11.1094 40 9.84375 40H2.22656V22.5508H9C10.4062 22.5508 11.4336 22.5977 12.082 22.6914C12.7383 22.7852 13.3867 22.9922 14.0273 23.3125C14.6914 23.6484 15.1836 24.1016 15.5039 24.6719C15.832 25.2344 15.9961 25.8789 15.9961 26.6055C15.9961 27.4492 15.7734 28.1953 15.3281 28.8438C14.8828 29.4844 14.2539 29.9844 13.4414 30.3438V30.4375C14.582 30.6641 15.4844 31.1328 16.1484 31.8438C16.8203 32.5547 17.1562 33.4922 17.1562 34.6562ZM11.3906 27.4844C11.3906 27.1953 11.3164 26.9062 11.168 26.6172C11.0273 26.3281 10.7734 26.1133 10.4062 25.9727C10.0781 25.8477 9.66797 25.7812 9.17578 25.7734C8.69141 25.7578 8.00781 25.75 7.125 25.75H6.70312V29.4414H7.40625C8.11719 29.4414 8.72266 29.4297 9.22266 29.4062C9.72266 29.3828 10.1172 29.3047 10.4062 29.1719C10.8125 28.9922 11.0781 28.7617 11.2031 28.4805C11.3281 28.1914 11.3906 27.8594 11.3906 27.4844ZM12.4922 34.5859C12.4922 34.0312 12.3828 33.6055 12.1641 33.3086C11.9531 33.0039 11.5898 32.7773 11.0742 32.6289C10.7227 32.5273 10.2383 32.4727 9.62109 32.4648C9.00391 32.457 8.35938 32.4531 7.6875 32.4531H6.70312V36.8008H7.03125C8.29688 36.8008 9.20312 36.7969 9.75 36.7891C10.2969 36.7812 10.8008 36.6797 11.2617 36.4844C11.7305 36.2891 12.0508 36.0312 12.2227 35.7109C12.4023 35.3828 12.4922 35.0078 12.4922 34.5859ZM24.4922 40H20.2734V26.8398H24.4922V40ZM24.6094 24.9648H20.1562V21.7656H24.6094V24.9648ZM39.832 40H27.4688V37.293L34.4062 29.9219H27.75V26.8398H39.7031V29.5L32.8711 36.8594H39.832V40ZM56.0156 40H51.7734V33.4727C51.7734 32.9414 51.7461 32.4141 51.6914 31.8906C51.6367 31.3594 51.543 30.9688 51.4102 30.7188C51.2539 30.4297 51.0234 30.2188 50.7188 30.0859C50.4219 29.9531 50.0039 29.8867 49.4648 29.8867C49.082 29.8867 48.6914 29.9492 48.293 30.0742C47.9023 30.1992 47.4766 30.3984 47.0156 30.6719V40H42.7969V26.8398H47.0156V28.293C47.7656 27.707 48.4844 27.2578 49.1719 26.9453C49.8672 26.6328 50.6367 26.4766 51.4805 26.4766C52.9023 26.4766 54.0117 26.8906 54.8086 27.7188C55.6133 28.5469 56.0156 29.7852 56.0156 31.4336V40ZM72.8672 34.1992H63.2109C63.2734 35.2305 63.6641 36.0195 64.3828 36.5664C65.1094 37.1133 66.1758 37.3867 67.582 37.3867C68.4727 37.3867 69.3359 37.2266 70.1719 36.9062C71.0078 36.5859 71.668 36.2422 72.1523 35.875H72.6211V39.2617C71.668 39.6445 70.7695 39.9219 69.9258 40.0938C69.082 40.2656 68.1484 40.3516 67.125 40.3516C64.4844 40.3516 62.4609 39.7578 61.0547 38.5703C59.6484 37.3828 58.9453 35.6914 58.9453 33.4961C58.9453 31.3242 59.6094 29.6055 60.9375 28.3398C62.2734 27.0664 64.1016 26.4297 66.4219 26.4297C68.5625 26.4297 70.1719 26.9727 71.25 28.0586C72.3281 29.1367 72.8672 30.6914 72.8672 32.7227V34.1992ZM68.6719 31.7266C68.6484 30.8438 68.4297 30.1797 68.0156 29.7344C67.6016 29.2891 66.957 29.0664 66.082 29.0664C65.2695 29.0664 64.6016 29.2773 64.0781 29.6992C63.5547 30.1211 63.2617 30.7969 63.1992 31.7266H68.6719ZM87.2812 35.8281C87.2812 37.1875 86.6719 38.2852 85.4531 39.1211C84.2344 39.9492 82.5664 40.3633 80.4492 40.3633C79.2773 40.3633 78.2148 40.2539 77.2617 40.0352C76.3086 39.8164 75.543 39.5742 74.9648 39.3086V35.8398H75.3516C75.5625 35.9883 75.8047 36.1523 76.0781 36.332C76.3594 36.5039 76.7539 36.6914 77.2617 36.8945C77.6992 37.0742 78.1953 37.2305 78.75 37.3633C79.3047 37.4883 79.8984 37.5508 80.5312 37.5508C81.3594 37.5508 81.9727 37.4609 82.3711 37.2812C82.7695 37.0938 82.9688 36.8203 82.9688 36.4609C82.9688 36.1406 82.8516 35.9102 82.6172 35.7695C82.3828 35.6211 81.9375 35.4805 81.2812 35.3477C80.9688 35.2773 80.543 35.2031 80.0039 35.125C79.4727 35.0391 78.9883 34.9375 78.5508 34.8203C77.3555 34.5078 76.4688 34.0234 75.8906 33.3672C75.3125 32.7031 75.0234 31.8789 75.0234 30.8945C75.0234 29.6289 75.6211 28.5781 76.8164 27.7422C78.0195 26.8984 79.6602 26.4766 81.7383 26.4766C82.7227 26.4766 83.6641 26.5781 84.5625 26.7812C85.4688 26.9766 86.1758 27.1875 86.6836 27.4141V30.7422H86.3203C85.6953 30.3125 84.9805 29.9648 84.1758 29.6992C83.3789 29.4258 82.5703 29.2891 81.75 29.2891C81.0703 29.2891 80.4961 29.3828 80.0273 29.5703C79.5664 29.7578 79.3359 30.0234 79.3359 30.3672C79.3359 30.6797 79.4414 30.918 79.6523 31.082C79.8633 31.2461 80.3594 31.4102 81.1406 31.5742C81.5703 31.6602 82.0312 31.7461 82.5234 31.832C83.0234 31.9102 83.5234 32.0117 84.0234 32.1367C85.1328 32.4258 85.9531 32.8828 86.4844 33.5078C87.0156 34.125 87.2812 34.8984 87.2812 35.8281ZM113.461 34.6562C113.461 35.5 113.289 36.2539 112.945 36.918C112.609 37.582 112.145 38.1328 111.551 38.5703C110.863 39.0859 110.105 39.4531 109.277 39.6719C108.457 39.8906 107.414 40 106.148 40H98.5312V22.5508H105.305C106.711 22.5508 107.738 22.5977 108.387 22.6914C109.043 22.7852 109.691 22.9922 110.332 23.3125C110.996 23.6484 111.488 24.1016 111.809 24.6719C112.137 25.2344 112.301 25.8789 112.301 26.6055C112.301 27.4492 112.078 28.1953 111.633 28.8438C111.188 29.4844 110.559 29.9844 109.746 30.3438V30.4375C110.887 30.6641 111.789 31.1328 112.453 31.8438C113.125 32.5547 113.461 33.4922 113.461 34.6562ZM107.695 27.4844C107.695 27.1953 107.621 26.9062 107.473 26.6172C107.332 26.3281 107.078 26.1133 106.711 25.9727C106.383 25.8477 105.973 25.7812 105.48 25.7734C104.996 25.7578 104.312 25.75 103.43 25.75H103.008V29.4414H103.711C104.422 29.4414 105.027 29.4297 105.527 29.4062C106.027 29.3828 106.422 29.3047 106.711 29.1719C107.117 28.9922 107.383 28.7617 107.508 28.4805C107.633 28.1914 107.695 27.8594 107.695 27.4844ZM108.797 34.5859C108.797 34.0312 108.688 33.6055 108.469 33.3086C108.258 33.0039 107.895 32.7773 107.379 32.6289C107.027 32.5273 106.543 32.4727 105.926 32.4648C105.309 32.457 104.664 32.4531 103.992 32.4531H103.008V36.8008H103.336C104.602 36.8008 105.508 36.7969 106.055 36.7891C106.602 36.7812 107.105 36.6797 107.566 36.4844C108.035 36.2891 108.355 36.0312 108.527 35.7109C108.707 35.3828 108.797 35.0078 108.797 34.5859ZM130.031 33.4258C130.031 35.5898 129.398 37.2969 128.133 38.5469C126.875 39.7891 125.105 40.4102 122.824 40.4102C120.543 40.4102 118.77 39.7891 117.504 38.5469C116.246 37.2969 115.617 35.5898 115.617 33.4258C115.617 31.2461 116.25 29.5352 117.516 28.293C118.789 27.0508 120.559 26.4297 122.824 26.4297C125.121 26.4297 126.895 27.0547 128.145 28.3047C129.402 29.5547 130.031 31.2617 130.031 33.4258ZM124.84 36.625C125.113 36.2891 125.316 35.8867 125.449 35.418C125.59 34.9414 125.66 34.2852 125.66 33.4492C125.66 32.6758 125.59 32.0273 125.449 31.5039C125.309 30.9805 125.113 30.5625 124.863 30.25C124.613 29.9297 124.312 29.7031 123.961 29.5703C123.609 29.4375 123.23 29.3711 122.824 29.3711C122.418 29.3711 122.055 29.4258 121.734 29.5352C121.422 29.6445 121.121 29.8633 120.832 30.1914C120.574 30.4961 120.367 30.9141 120.211 31.4453C120.062 31.9766 119.988 32.6445 119.988 33.4492C119.988 34.168 120.055 34.793 120.188 35.3242C120.32 35.8477 120.516 36.2695 120.773 36.5898C121.023 36.8945 121.32 37.1172 121.664 37.2578C122.016 37.3984 122.414 37.4688 122.859 37.4688C123.242 37.4688 123.605 37.4062 123.949 37.2812C124.301 37.1484 124.598 36.9297 124.84 36.625ZM144.492 35.8281C144.492 37.1875 143.883 38.2852 142.664 39.1211C141.445 39.9492 139.777 40.3633 137.66 40.3633C136.488 40.3633 135.426 40.2539 134.473 40.0352C133.52 39.8164 132.754 39.5742 132.176 39.3086V35.8398H132.562C132.773 35.9883 133.016 36.1523 133.289 36.332C133.57 36.5039 133.965 36.6914 134.473 36.8945C134.91 37.0742 135.406 37.2305 135.961 37.3633C136.516 37.4883 137.109 37.5508 137.742 37.5508C138.57 37.5508 139.184 37.4609 139.582 37.2812C139.98 37.0938 140.18 36.8203 140.18 36.4609C140.18 36.1406 140.062 35.9102 139.828 35.7695C139.594 35.6211 139.148 35.4805 138.492 35.3477C138.18 35.2773 137.754 35.2031 137.215 35.125C136.684 35.0391 136.199 34.9375 135.762 34.8203C134.566 34.5078 133.68 34.0234 133.102 33.3672C132.523 32.7031 132.234 31.8789 132.234 30.8945C132.234 29.6289 132.832 28.5781 134.027 27.7422C135.23 26.8984 136.871 26.4766 138.949 26.4766C139.934 26.4766 140.875 26.5781 141.773 26.7812C142.68 26.9766 143.387 27.1875 143.895 27.4141V30.7422H143.531C142.906 30.3125 142.191 29.9648 141.387 29.6992C140.59 29.4258 139.781 29.2891 138.961 29.2891C138.281 29.2891 137.707 29.3828 137.238 29.5703C136.777 29.7578 136.547 30.0234 136.547 30.3672C136.547 30.6797 136.652 30.918 136.863 31.082C137.074 31.2461 137.57 31.4102 138.352 31.5742C138.781 31.6602 139.242 31.7461 139.734 31.832C140.234 31.9102 140.734 32.0117 141.234 32.1367C142.344 32.4258 143.164 32.8828 143.695 33.5078C144.227 34.125 144.492 34.8984 144.492 35.8281ZM160.523 40H156.281V33.4727C156.281 32.9414 156.254 32.4141 156.199 31.8906C156.145 31.3594 156.051 30.9688 155.918 30.7188C155.762 30.4297 155.531 30.2188 155.227 30.0859C154.93 29.9531 154.512 29.8867 153.973 29.8867C153.59 29.8867 153.199 29.9492 152.801 30.0742C152.41 30.1992 151.984 30.3984 151.523 30.6719V40H147.305V21.7656H151.523V28.293C152.273 27.707 152.992 27.2578 153.68 26.9453C154.375 26.6328 155.145 26.4766 155.988 26.4766C157.41 26.4766 158.52 26.8906 159.316 27.7188C160.121 28.5469 160.523 29.7852 160.523 31.4336V40ZM177.211 44.8281H172.992V38.7109C172.305 39.2656 171.633 39.6797 170.977 39.9531C170.32 40.2266 169.582 40.3633 168.762 40.3633C167.152 40.3633 165.867 39.7461 164.906 38.5117C163.953 37.2773 163.477 35.6133 163.477 33.5195C163.477 32.4023 163.637 31.4141 163.957 30.5547C164.285 29.6875 164.73 28.9453 165.293 28.3281C165.824 27.7422 166.469 27.2891 167.227 26.9688C167.984 26.6406 168.742 26.4766 169.5 26.4766C170.242 26.4766 170.863 26.5625 171.363 26.7344C171.871 26.8984 172.406 27.1289 172.969 27.4258L173.121 26.8398H177.211V44.8281ZM172.992 36.3672V29.9102C172.695 29.7852 172.383 29.6953 172.055 29.6406C171.727 29.5859 171.426 29.5586 171.152 29.5586C170.043 29.5586 169.211 29.9062 168.656 30.6016C168.102 31.2891 167.824 32.2461 167.824 33.4727C167.824 34.7617 168.047 35.6992 168.492 36.2852C168.938 36.8633 169.652 37.1523 170.637 37.1523C171.02 37.1523 171.426 37.082 171.855 36.9414C172.285 36.793 172.664 36.6016 172.992 36.3672ZM189.164 36.5664V33.8242C188.594 33.8711 187.977 33.9375 187.312 34.0234C186.648 34.1016 186.145 34.1953 185.801 34.3047C185.379 34.4375 185.055 34.6328 184.828 34.8906C184.609 35.1406 184.5 35.4727 184.5 35.8867C184.5 36.1602 184.523 36.3828 184.57 36.5547C184.617 36.7266 184.734 36.8906 184.922 37.0469C185.102 37.2031 185.316 37.3203 185.566 37.3984C185.816 37.4688 186.207 37.5039 186.738 37.5039C187.16 37.5039 187.586 37.418 188.016 37.2461C188.453 37.0742 188.836 36.8477 189.164 36.5664ZM189.164 38.6055C188.938 38.7773 188.656 38.9844 188.32 39.2266C187.984 39.4688 187.668 39.6602 187.371 39.8008C186.957 39.9883 186.527 40.125 186.082 40.2109C185.637 40.3047 185.148 40.3516 184.617 40.3516C183.367 40.3516 182.32 39.9648 181.477 39.1914C180.633 38.418 180.211 37.4297 180.211 36.2266C180.211 35.2656 180.426 34.4805 180.855 33.8711C181.285 33.2617 181.895 32.7812 182.684 32.4297C183.465 32.0781 184.434 31.8281 185.59 31.6797C186.746 31.5312 187.945 31.4219 189.188 31.3516V31.2812C189.188 30.5547 188.891 30.0547 188.297 29.7812C187.703 29.5 186.828 29.3594 185.672 29.3594C184.977 29.3594 184.234 29.4844 183.445 29.7344C182.656 29.9766 182.09 30.1641 181.746 30.2969H181.359V27.1211C181.805 27.0039 182.527 26.8672 183.527 26.7109C184.535 26.5469 185.543 26.4648 186.551 26.4648C188.949 26.4648 190.68 26.8359 191.742 27.5781C192.812 28.3125 193.348 29.4688 193.348 31.0469V40H189.164V38.6055ZM206.766 30.8594H206.391C206.211 30.7969 205.922 30.75 205.523 30.7188C205.125 30.6875 204.793 30.6719 204.527 30.6719C203.926 30.6719 203.395 30.7109 202.934 30.7891C202.473 30.8672 201.977 31 201.445 31.1875V40H197.227V26.8398H201.445V28.7734C202.375 27.9766 203.184 27.4492 203.871 27.1914C204.559 26.9258 205.191 26.793 205.77 26.793C205.918 26.793 206.086 26.7969 206.273 26.8047C206.461 26.8125 206.625 26.8242 206.766 26.8398V30.8594ZM222.27 40H218.051V38.5469C217.27 39.1406 216.555 39.5938 215.906 39.9062C215.258 40.2109 214.484 40.3633 213.586 40.3633C212.133 40.3633 211.012 39.9453 210.223 39.1094C209.441 38.2734 209.051 37.0391 209.051 35.4062V26.8398H213.293V33.3672C213.293 34.0312 213.312 34.5859 213.352 35.0312C213.398 35.4688 213.5 35.832 213.656 36.1211C213.805 36.4102 214.027 36.6211 214.324 36.7539C214.629 36.8867 215.051 36.9531 215.59 36.9531C215.949 36.9531 216.348 36.8867 216.785 36.7539C217.223 36.6211 217.645 36.4258 218.051 36.168V26.8398H222.27V40ZM239.52 26.8398L234.445 40H229.664L224.625 26.8398H229.09L232.137 35.8867L235.148 26.8398H239.52ZM246.094 40H241.875V26.8398H246.094V40ZM246.211 24.9648H241.758V21.7656H246.211V24.9648Z" fill="#333333"/>
<path d="M5 76L12.5 83.5L25 68.5" stroke="#61B857" stroke-width="2" stroke-linecap="round" stroke-linejoin="round"/>
<path d="M44.0312 70.3438L43.6953 74.8672H42.6641L42.3281 70.3438H44.0312ZM41.0156 70.3438L40.6797 74.8672H39.6484L39.3125 70.3438H41.0156ZM55.6797 78.9219C55.6797 79.5 55.5703 80.0104 55.3516 80.4531C55.1328 80.8958 54.8385 81.2604 54.4688 81.5469C54.0312 81.8906 53.5495 82.1354 53.0234 82.2812C52.5026 82.4271 51.8385 82.5 51.0312 82.5H46.9062V70.8672H50.3516C51.2005 70.8672 51.8359 70.8984 52.2578 70.9609C52.6797 71.0234 53.0833 71.1536 53.4688 71.3516C53.8958 71.5755 54.2057 71.8646 54.3984 72.2188C54.5911 72.5677 54.6875 72.987 54.6875 73.4766C54.6875 74.0286 54.5469 74.5 54.2656 74.8906C53.9844 75.276 53.6094 75.5859 53.1406 75.8203V75.8828C53.9271 76.0443 54.5469 76.3906 55 76.9219C55.4531 77.4479 55.6797 78.1146 55.6797 78.9219ZM53.0781 73.6797C53.0781 73.3984 53.0312 73.1615 52.9375 72.9688C52.8438 72.776 52.6927 72.6198 52.4844 72.5C52.2396 72.3594 51.9427 72.2734 51.5938 72.2422C51.2448 72.2057 50.8125 72.1875 50.2969 72.1875H48.4531V75.5469H50.4531C50.9375 75.5469 51.3229 75.5234 51.6094 75.4766C51.8958 75.4245 52.1615 75.3203 52.4062 75.1641C52.651 75.0078 52.8229 74.8073 52.9219 74.5625C53.026 74.3125 53.0781 74.0182 53.0781 73.6797ZM54.0703 78.9844C54.0703 78.5156 54 78.1432 53.8594 77.8672C53.7188 77.5911 53.4635 77.3568 53.0938 77.1641C52.8438 77.0339 52.5391 76.9505 52.1797 76.9141C51.8255 76.8724 51.3932 76.8516 50.8828 76.8516H48.4531V81.1797H50.5C51.1771 81.1797 51.7318 81.1458 52.1641 81.0781C52.5964 81.0052 52.9505 80.875 53.2266 80.6875C53.5182 80.4844 53.7318 80.2526 53.8672 79.9922C54.0026 79.7318 54.0703 79.3958 54.0703 78.9844ZM59.3359 72.3125H57.6797V70.7891H59.3359V72.3125ZM59.2422 82.5H57.7734V73.7734H59.2422V82.5ZM68.4766 82.5H61.4297V81.4141L66.5156 75H61.5391V73.7734H68.3438V74.8203L63.2344 81.2578H68.4766V82.5ZM77.8516 82.5H76.3828V77.5312C76.3828 77.1302 76.3594 76.7552 76.3125 76.4062C76.2656 76.0521 76.1797 75.776 76.0547 75.5781C75.9245 75.3594 75.737 75.1979 75.4922 75.0938C75.2474 74.9844 74.9297 74.9297 74.5391 74.9297C74.138 74.9297 73.7188 75.0286 73.2812 75.2266C72.8438 75.4245 72.4245 75.6771 72.0234 75.9844V82.5H70.5547V73.7734H72.0234V74.7422C72.4818 74.362 72.9557 74.0651 73.4453 73.8516C73.9349 73.638 74.4375 73.5312 74.9531 73.5312C75.8958 73.5312 76.6146 73.8151 77.1094 74.3828C77.6042 74.9505 77.8516 75.7682 77.8516 76.8359V82.5ZM87.9844 78.2891H81.5547C81.5547 78.8255 81.6354 79.2943 81.7969 79.6953C81.9583 80.0911 82.1797 80.4167 82.4609 80.6719C82.7318 80.9219 83.0521 81.1094 83.4219 81.2344C83.7969 81.3594 84.2083 81.4219 84.6562 81.4219C85.25 81.4219 85.8464 81.3047 86.4453 81.0703C87.0495 80.8307 87.4792 80.5964 87.7344 80.3672H87.8125V81.9688C87.3177 82.1771 86.8125 82.3516 86.2969 82.4922C85.7812 82.6328 85.2396 82.7031 84.6719 82.7031C83.224 82.7031 82.0938 82.3125 81.2812 81.5312C80.4688 80.7448 80.0625 79.6302 80.0625 78.1875C80.0625 76.7604 80.4505 75.6276 81.2266 74.7891C82.0078 73.9505 83.0339 73.5312 84.3047 73.5312C85.4818 73.5312 86.388 73.875 87.0234 74.5625C87.6641 75.25 87.9844 76.2266 87.9844 77.4922V78.2891ZM86.5547 77.1641C86.5495 76.3932 86.3542 75.7969 85.9688 75.375C85.5885 74.9531 85.0078 74.7422 84.2266 74.7422C83.4401 74.7422 82.8125 74.974 82.3438 75.4375C81.8802 75.901 81.6172 76.4766 81.5547 77.1641H86.5547ZM96.4453 79.9844C96.4453 80.7812 96.1146 81.4349 95.4531 81.9453C94.7969 82.4557 93.8984 82.7109 92.7578 82.7109C92.112 82.7109 91.5182 82.6354 90.9766 82.4844C90.4401 82.3281 89.9896 82.1589 89.625 81.9766V80.3281H89.7031C90.1667 80.6771 90.6823 80.9557 91.25 81.1641C91.8177 81.3672 92.362 81.4688 92.8828 81.4688C93.5286 81.4688 94.0339 81.3646 94.3984 81.1562C94.763 80.9479 94.9453 80.6198 94.9453 80.1719C94.9453 79.8281 94.8464 79.5677 94.6484 79.3906C94.4505 79.2135 94.0703 79.0625 93.5078 78.9375C93.2995 78.8906 93.026 78.8359 92.6875 78.7734C92.3542 78.7109 92.0495 78.6432 91.7734 78.5703C91.0078 78.3672 90.4635 78.0703 90.1406 77.6797C89.8229 77.2839 89.6641 76.7995 89.6641 76.2266C89.6641 75.8672 89.737 75.5286 89.8828 75.2109C90.0339 74.8932 90.2604 74.6094 90.5625 74.3594C90.8542 74.1146 91.224 73.9219 91.6719 73.7812C92.125 73.6354 92.6302 73.5625 93.1875 73.5625C93.7083 73.5625 94.2344 73.6276 94.7656 73.7578C95.3021 73.8828 95.7474 74.0365 96.1016 74.2188V75.7891H96.0234C95.6484 75.513 95.1927 75.2812 94.6562 75.0938C94.1198 74.901 93.5938 74.8047 93.0781 74.8047C92.5417 74.8047 92.0885 74.9089 91.7188 75.1172C91.349 75.3203 91.1641 75.625 91.1641 76.0312C91.1641 76.3906 91.276 76.6615 91.5 76.8438C91.7188 77.026 92.0729 77.1745 92.5625 77.2891C92.8333 77.3516 93.1354 77.4141 93.4688 77.4766C93.8073 77.5391 94.0885 77.5964 94.3125 77.6484C94.9948 77.8047 95.5208 78.0729 95.8906 78.4531C96.2604 78.8385 96.4453 79.349 96.4453 79.9844ZM111.852 76.6797C111.852 78.7682 111.523 80.3021 110.867 81.2812C110.216 82.2552 109.203 82.7422 107.828 82.7422C106.432 82.7422 105.411 82.2474 104.766 81.2578C104.125 80.2682 103.805 78.7474 103.805 76.6953C103.805 74.6276 104.13 73.1016 104.781 72.1172C105.432 71.1276 106.448 70.6328 107.828 70.6328C109.224 70.6328 110.242 71.1354 110.883 72.1406C111.529 73.1406 111.852 74.6536 111.852 76.6797ZM109.797 80.2266C109.979 79.8047 110.102 79.3099 110.164 78.7422C110.232 78.1693 110.266 77.4818 110.266 76.6797C110.266 75.888 110.232 75.2005 110.164 74.6172C110.102 74.0339 109.977 73.5391 109.789 73.1328C109.607 72.7318 109.357 72.4297 109.039 72.2266C108.727 72.0234 108.323 71.9219 107.828 71.9219C107.339 71.9219 106.932 72.0234 106.609 72.2266C106.292 72.4297 106.039 72.737 105.852 73.1484C105.674 73.5339 105.552 74.0365 105.484 74.6562C105.422 75.276 105.391 75.9557 105.391 76.6953C105.391 77.5078 105.419 78.1875 105.477 78.7344C105.534 79.2812 105.656 79.7708 105.844 80.2031C106.016 80.6094 106.258 80.9193 106.57 81.1328C106.888 81.3464 107.307 81.4531 107.828 81.4531C108.318 81.4531 108.724 81.3516 109.047 81.1484C109.37 80.9453 109.62 80.638 109.797 80.2266ZM127.055 82.5H125.586V81.5859C125.164 81.9505 124.724 82.2344 124.266 82.4375C123.807 82.6406 123.31 82.7422 122.773 82.7422C121.732 82.7422 120.904 82.3411 120.289 81.5391C119.68 80.737 119.375 79.625 119.375 78.2031C119.375 77.4635 119.479 76.8047 119.688 76.2266C119.901 75.6484 120.188 75.1562 120.547 74.75C120.901 74.3542 121.312 74.0521 121.781 73.8438C122.255 73.6354 122.745 73.5312 123.25 73.5312C123.708 73.5312 124.115 73.5807 124.469 73.6797C124.823 73.7734 125.195 73.9219 125.586 74.125V70.3438H127.055V82.5ZM125.586 80.3516V75.3438C125.19 75.1667 124.836 75.0443 124.523 74.9766C124.211 74.9089 123.87 74.875 123.5 74.875C122.677 74.875 122.036 75.1615 121.578 75.7344C121.12 76.3073 120.891 77.1198 120.891 78.1719C120.891 79.2083 121.068 79.9974 121.422 80.5391C121.776 81.0755 122.344 81.3438 123.125 81.3438C123.542 81.3438 123.964 81.2526 124.391 81.0703C124.818 80.8828 125.216 80.6432 125.586 80.3516ZM136.727 82.5H135.266V81.5703C135.135 81.6589 134.958 81.7839 134.734 81.9453C134.516 82.1016 134.302 82.2266 134.094 82.3203C133.849 82.4401 133.568 82.5391 133.25 82.6172C132.932 82.7005 132.56 82.7422 132.133 82.7422C131.346 82.7422 130.68 82.4818 130.133 81.9609C129.586 81.4401 129.312 80.776 129.312 79.9688C129.312 79.3073 129.453 78.7734 129.734 78.3672C130.021 77.9557 130.427 77.6328 130.953 77.3984C131.484 77.1641 132.122 77.0052 132.867 76.9219C133.612 76.8385 134.411 76.776 135.266 76.7344V76.5078C135.266 76.1745 135.206 75.8984 135.086 75.6797C134.971 75.4609 134.805 75.2891 134.586 75.1641C134.378 75.0443 134.128 74.9635 133.836 74.9219C133.544 74.8802 133.24 74.8594 132.922 74.8594C132.536 74.8594 132.107 74.9115 131.633 75.0156C131.159 75.1146 130.669 75.2604 130.164 75.4531H130.086V73.9609C130.372 73.8828 130.786 73.7969 131.328 73.7031C131.87 73.6094 132.404 73.5625 132.93 73.5625C133.544 73.5625 134.078 73.6146 134.531 73.7188C134.99 73.8177 135.385 73.9896 135.719 74.2344C136.047 74.474 136.297 74.7839 136.469 75.1641C136.641 75.5443 136.727 76.0156 136.727 76.5781V82.5ZM135.266 80.3516V77.9219C134.818 77.9479 134.289 77.987 133.68 78.0391C133.076 78.0911 132.596 78.1667 132.242 78.2656C131.82 78.3854 131.479 78.5729 131.219 78.8281C130.958 79.0781 130.828 79.4245 130.828 79.8672C130.828 80.3672 130.979 80.7448 131.281 81C131.583 81.25 132.044 81.375 132.664 81.375C133.18 81.375 133.651 81.276 134.078 81.0781C134.505 80.875 134.901 80.6328 135.266 80.3516ZM146.852 82.5H145.383V77.5312C145.383 77.1302 145.359 76.7552 145.312 76.4062C145.266 76.0521 145.18 75.776 145.055 75.5781C144.924 75.3594 144.737 75.1979 144.492 75.0938C144.247 74.9844 143.93 74.9297 143.539 74.9297C143.138 74.9297 142.719 75.0286 142.281 75.2266C141.844 75.4245 141.424 75.6771 141.023 75.9844V82.5H139.555V73.7734H141.023V74.7422C141.482 74.362 141.956 74.0651 142.445 73.8516C142.935 73.638 143.438 73.5312 143.953 73.5312C144.896 73.5312 145.615 73.8151 146.109 74.3828C146.604 74.9505 146.852 75.7682 146.852 76.8359V82.5ZM154.266 70.3438L153.93 74.8672H152.898L152.562 70.3438H154.266ZM151.25 70.3438L150.914 74.8672H149.883L149.547 70.3438H151.25ZM170.57 82.5H168.633L165.133 78.6797L164.18 79.5859V82.5H162.711V70.3438H164.18V78.1406L168.422 73.7734H170.273L166.219 77.8047L170.57 82.5ZM179.352 82.5H177.883V81.5312C177.388 81.9219 176.914 82.2214 176.461 82.4297C176.008 82.638 175.508 82.7422 174.961 82.7422C174.044 82.7422 173.331 82.4635 172.82 81.9062C172.31 81.3438 172.055 80.5208 172.055 79.4375V73.7734H173.523V78.7422C173.523 79.1849 173.544 79.5651 173.586 79.8828C173.628 80.1953 173.716 80.4635 173.852 80.6875C173.992 80.9167 174.174 81.0833 174.398 81.1875C174.622 81.2917 174.948 81.3438 175.375 81.3438C175.755 81.3438 176.169 81.2448 176.617 81.0469C177.07 80.849 177.492 80.5964 177.883 80.2891V73.7734H179.352V82.5ZM187.688 75.375H187.609C187.391 75.3229 187.177 75.2865 186.969 75.2656C186.766 75.2396 186.523 75.2266 186.242 75.2266C185.789 75.2266 185.352 75.3281 184.93 75.5312C184.508 75.7292 184.102 75.987 183.711 76.3047V82.5H182.242V73.7734H183.711V75.0625C184.294 74.5938 184.807 74.263 185.25 74.0703C185.698 73.8724 186.154 73.7734 186.617 73.7734C186.872 73.7734 187.057 73.7812 187.172 73.7969C187.286 73.8073 187.458 73.8307 187.688 73.8672V75.375ZM195.305 79.9844C195.305 80.7812 194.974 81.4349 194.312 81.9453C193.656 82.4557 192.758 82.7109 191.617 82.7109C190.971 82.7109 190.378 82.6354 189.836 82.4844C189.299 82.3281 188.849 82.1589 188.484 81.9766V80.3281H188.562C189.026 80.6771 189.542 80.9557 190.109 81.1641C190.677 81.3672 191.221 81.4688 191.742 81.4688C192.388 81.4688 192.893 81.3646 193.258 81.1562C193.622 80.9479 193.805 80.6198 193.805 80.1719C193.805 79.8281 193.706 79.5677 193.508 79.3906C193.31 79.2135 192.93 79.0625 192.367 78.9375C192.159 78.8906 191.885 78.8359 191.547 78.7734C191.214 78.7109 190.909 78.6432 190.633 78.5703C189.867 78.3672 189.323 78.0703 189 77.6797C188.682 77.2839 188.523 76.7995 188.523 76.2266C188.523 75.8672 188.596 75.5286 188.742 75.2109C188.893 74.8932 189.12 74.6094 189.422 74.3594C189.714 74.1146 190.083 73.9219 190.531 73.7812C190.984 73.6354 191.49 73.5625 192.047 73.5625C192.568 73.5625 193.094 73.6276 193.625 73.7578C194.161 73.8828 194.607 74.0365 194.961 74.2188V75.7891H194.883C194.508 75.513 194.052 75.2812 193.516 75.0938C192.979 74.901 192.453 74.8047 191.938 74.8047C191.401 74.8047 190.948 74.9089 190.578 75.1172C190.208 75.3203 190.023 75.625 190.023 76.0312C190.023 76.3906 190.135 76.6615 190.359 76.8438C190.578 77.026 190.932 77.1745 191.422 77.2891C191.693 77.3516 191.995 77.4141 192.328 77.4766C192.667 77.5391 192.948 77.5964 193.172 77.6484C193.854 77.8047 194.38 78.0729 194.75 78.4531C195.12 78.8385 195.305 79.349 195.305 79.9844ZM198.992 72.3125H197.336V70.7891H198.992V72.3125ZM198.898 82.5H197.43V73.7734H198.898V82.5Z" fill="#333333"/>
<path d="M5 122L12.5 129.5L25 114.5" stroke="#61B857" stroke-width="2" stroke-linecap="round" stroke-linejoin="round"/>
<path d="M48.3359 124.922C48.3359 125.5 48.2266 126.01 48.0078 126.453C47.7891 126.896 47.4948 127.26 47.125 127.547C46.6875 127.891 46.2057 128.135 45.6797 128.281C45.1589 128.427 44.4948 128.5 43.6875 128.5H39.5625V116.867H43.0078C43.8568 116.867 44.4922 116.898 44.9141 116.961C45.3359 117.023 45.7396 117.154 46.125 117.352C46.5521 117.576 46.862 117.865 47.0547 118.219C47.2474 118.568 47.3438 118.987 47.3438 119.477C47.3438 120.029 47.2031 120.5 46.9219 120.891C46.6406 121.276 46.2656 121.586 45.7969 121.82V121.883C46.5833 122.044 47.2031 122.391 47.6562 122.922C48.1094 123.448 48.3359 124.115 48.3359 124.922ZM45.7344 119.68C45.7344 119.398 45.6875 119.161 45.5938 118.969C45.5 118.776 45.349 118.62 45.1406 118.5C44.8958 118.359 44.599 118.273 44.25 118.242C43.901 118.206 43.4688 118.188 42.9531 118.188H41.1094V121.547H43.1094C43.5938 121.547 43.9792 121.523 44.2656 121.477C44.5521 121.424 44.8177 121.32 45.0625 121.164C45.3073 121.008 45.4792 120.807 45.5781 120.562C45.6823 120.312 45.7344 120.018 45.7344 119.68ZM46.7266 124.984C46.7266 124.516 46.6562 124.143 46.5156 123.867C46.375 123.591 46.1198 123.357 45.75 123.164C45.5 123.034 45.1953 122.951 44.8359 122.914C44.4818 122.872 44.0495 122.852 43.5391 122.852H41.1094V127.18H43.1562C43.8333 127.18 44.388 127.146 44.8203 127.078C45.2526 127.005 45.6068 126.875 45.8828 126.688C46.1745 126.484 46.388 126.253 46.5234 125.992C46.6589 125.732 46.7266 125.396 46.7266 124.984ZM51.9922 118.312H50.3359V116.789H51.9922V118.312ZM51.8984 128.5H50.4297V119.773H51.8984V128.5ZM61.1328 128.5H54.0859V127.414L59.1719 121H54.1953V119.773H61V120.82L55.8906 127.258H61.1328V128.5ZM70.5078 128.5H69.0391V123.531C69.0391 123.13 69.0156 122.755 68.9688 122.406C68.9219 122.052 68.8359 121.776 68.7109 121.578C68.5807 121.359 68.3932 121.198 68.1484 121.094C67.9036 120.984 67.5859 120.93 67.1953 120.93C66.7943 120.93 66.375 121.029 65.9375 121.227C65.5 121.424 65.0807 121.677 64.6797 121.984V128.5H63.2109V119.773H64.6797V120.742C65.138 120.362 65.612 120.065 66.1016 119.852C66.5911 119.638 67.0938 119.531 67.6094 119.531C68.5521 119.531 69.2708 119.815 69.7656 120.383C70.2604 120.951 70.5078 121.768 70.5078 122.836V128.5ZM80.6406 124.289H74.2109C74.2109 124.826 74.2917 125.294 74.4531 125.695C74.6146 126.091 74.8359 126.417 75.1172 126.672C75.388 126.922 75.7083 127.109 76.0781 127.234C76.4531 127.359 76.8646 127.422 77.3125 127.422C77.9062 127.422 78.5026 127.305 79.1016 127.07C79.7057 126.831 80.1354 126.596 80.3906 126.367H80.4688V127.969C79.974 128.177 79.4688 128.352 78.9531 128.492C78.4375 128.633 77.8958 128.703 77.3281 128.703C75.8802 128.703 74.75 128.312 73.9375 127.531C73.125 126.745 72.7188 125.63 72.7188 124.188C72.7188 122.76 73.1068 121.628 73.8828 120.789C74.6641 119.951 75.6901 119.531 76.9609 119.531C78.138 119.531 79.0443 119.875 79.6797 120.562C80.3203 121.25 80.6406 122.227 80.6406 123.492V124.289ZM79.2109 123.164C79.2057 122.393 79.0104 121.797 78.625 121.375C78.2448 120.953 77.6641 120.742 76.8828 120.742C76.0964 120.742 75.4688 120.974 75 121.438C74.5365 121.901 74.2734 122.477 74.2109 123.164H79.2109ZM89.1016 125.984C89.1016 126.781 88.7708 127.435 88.1094 127.945C87.4531 128.456 86.5547 128.711 85.4141 128.711C84.7682 128.711 84.1745 128.635 83.6328 128.484C83.0964 128.328 82.6458 128.159 82.2812 127.977V126.328H82.3594C82.8229 126.677 83.3385 126.956 83.9062 127.164C84.474 127.367 85.0182 127.469 85.5391 127.469C86.1849 127.469 86.6901 127.365 87.0547 127.156C87.4193 126.948 87.6016 126.62 87.6016 126.172C87.6016 125.828 87.5026 125.568 87.3047 125.391C87.1068 125.214 86.7266 125.062 86.1641 124.938C85.9557 124.891 85.6823 124.836 85.3438 124.773C85.0104 124.711 84.7057 124.643 84.4297 124.57C83.6641 124.367 83.1198 124.07 82.7969 123.68C82.4792 123.284 82.3203 122.799 82.3203 122.227C82.3203 121.867 82.3932 121.529 82.5391 121.211C82.6901 120.893 82.9167 120.609 83.2188 120.359C83.5104 120.115 83.8802 119.922 84.3281 119.781C84.7812 119.635 85.2865 119.562 85.8438 119.562C86.3646 119.562 86.8906 119.628 87.4219 119.758C87.9583 119.883 88.4036 120.036 88.7578 120.219V121.789H88.6797C88.3047 121.513 87.849 121.281 87.3125 121.094C86.776 120.901 86.25 120.805 85.7344 120.805C85.1979 120.805 84.7448 120.909 84.375 121.117C84.0052 121.32 83.8203 121.625 83.8203 122.031C83.8203 122.391 83.9323 122.661 84.1562 122.844C84.375 123.026 84.7292 123.174 85.2188 123.289C85.4896 123.352 85.7917 123.414 86.125 123.477C86.4635 123.539 86.7448 123.596 86.9688 123.648C87.651 123.805 88.1771 124.073 88.5469 124.453C88.9167 124.839 89.1016 125.349 89.1016 125.984ZM104.758 128.5H102.82L99.3203 124.68L98.3672 125.586V128.5H96.8984V116.344H98.3672V124.141L102.609 119.773H104.461L100.406 123.805L104.758 128.5ZM113.586 124.141C113.586 125.562 113.221 126.685 112.492 127.508C111.763 128.331 110.786 128.742 109.562 128.742C108.328 128.742 107.346 128.331 106.617 127.508C105.893 126.685 105.531 125.562 105.531 124.141C105.531 122.719 105.893 121.596 106.617 120.773C107.346 119.945 108.328 119.531 109.562 119.531C110.786 119.531 111.763 119.945 112.492 120.773C113.221 121.596 113.586 122.719 113.586 124.141ZM112.07 124.141C112.07 123.01 111.849 122.172 111.406 121.625C110.964 121.073 110.349 120.797 109.562 120.797C108.766 120.797 108.146 121.073 107.703 121.625C107.266 122.172 107.047 123.01 107.047 124.141C107.047 125.234 107.268 126.065 107.711 126.633C108.154 127.195 108.771 127.477 109.562 127.477C110.344 127.477 110.956 127.198 111.398 126.641C111.846 126.078 112.07 125.245 112.07 124.141ZM123.164 128.5H121.695V123.531C121.695 123.13 121.672 122.755 121.625 122.406C121.578 122.052 121.492 121.776 121.367 121.578C121.237 121.359 121.049 121.198 120.805 121.094C120.56 120.984 120.242 120.93 119.852 120.93C119.451 120.93 119.031 121.029 118.594 121.227C118.156 121.424 117.737 121.677 117.336 121.984V128.5H115.867V119.773H117.336V120.742C117.794 120.362 118.268 120.065 118.758 119.852C119.247 119.638 119.75 119.531 120.266 119.531C121.208 119.531 121.927 119.815 122.422 120.383C122.917 120.951 123.164 121.768 123.164 122.836V128.5ZM132.227 125.984C132.227 126.781 131.896 127.435 131.234 127.945C130.578 128.456 129.68 128.711 128.539 128.711C127.893 128.711 127.299 128.635 126.758 128.484C126.221 128.328 125.771 128.159 125.406 127.977V126.328H125.484C125.948 126.677 126.464 126.956 127.031 127.164C127.599 127.367 128.143 127.469 128.664 127.469C129.31 127.469 129.815 127.365 130.18 127.156C130.544 126.948 130.727 126.62 130.727 126.172C130.727 125.828 130.628 125.568 130.43 125.391C130.232 125.214 129.852 125.062 129.289 124.938C129.081 124.891 128.807 124.836 128.469 124.773C128.135 124.711 127.831 124.643 127.555 124.57C126.789 124.367 126.245 124.07 125.922 123.68C125.604 123.284 125.445 122.799 125.445 122.227C125.445 121.867 125.518 121.529 125.664 121.211C125.815 120.893 126.042 120.609 126.344 120.359C126.635 120.115 127.005 119.922 127.453 119.781C127.906 119.635 128.411 119.562 128.969 119.562C129.49 119.562 130.016 119.628 130.547 119.758C131.083 119.883 131.529 120.036 131.883 120.219V121.789H131.805C131.43 121.513 130.974 121.281 130.438 121.094C129.901 120.901 129.375 120.805 128.859 120.805C128.323 120.805 127.87 120.909 127.5 121.117C127.13 121.32 126.945 121.625 126.945 122.031C126.945 122.391 127.057 122.661 127.281 122.844C127.5 123.026 127.854 123.174 128.344 123.289C128.615 123.352 128.917 123.414 129.25 123.477C129.589 123.539 129.87 123.596 130.094 123.648C130.776 123.805 131.302 124.073 131.672 124.453C132.042 124.839 132.227 125.349 132.227 125.984ZM141.117 128.5H139.656V127.57C139.526 127.659 139.349 127.784 139.125 127.945C138.906 128.102 138.693 128.227 138.484 128.32C138.24 128.44 137.958 128.539 137.641 128.617C137.323 128.701 136.951 128.742 136.523 128.742C135.737 128.742 135.07 128.482 134.523 127.961C133.977 127.44 133.703 126.776 133.703 125.969C133.703 125.307 133.844 124.773 134.125 124.367C134.411 123.956 134.818 123.633 135.344 123.398C135.875 123.164 136.513 123.005 137.258 122.922C138.003 122.839 138.802 122.776 139.656 122.734V122.508C139.656 122.174 139.596 121.898 139.477 121.68C139.362 121.461 139.195 121.289 138.977 121.164C138.768 121.044 138.518 120.964 138.227 120.922C137.935 120.88 137.63 120.859 137.312 120.859C136.927 120.859 136.497 120.911 136.023 121.016C135.549 121.115 135.06 121.26 134.555 121.453H134.477V119.961C134.763 119.883 135.177 119.797 135.719 119.703C136.26 119.609 136.794 119.562 137.32 119.562C137.935 119.562 138.469 119.615 138.922 119.719C139.38 119.818 139.776 119.99 140.109 120.234C140.438 120.474 140.688 120.784 140.859 121.164C141.031 121.544 141.117 122.016 141.117 122.578V128.5ZM139.656 126.352V123.922C139.208 123.948 138.68 123.987 138.07 124.039C137.466 124.091 136.987 124.167 136.633 124.266C136.211 124.385 135.87 124.573 135.609 124.828C135.349 125.078 135.219 125.424 135.219 125.867C135.219 126.367 135.37 126.745 135.672 127C135.974 127.25 136.435 127.375 137.055 127.375C137.57 127.375 138.042 127.276 138.469 127.078C138.896 126.875 139.292 126.633 139.656 126.352ZM145.43 128.5H143.961V116.344H145.43V128.5ZM152.867 128.422C152.591 128.495 152.289 128.555 151.961 128.602C151.638 128.648 151.349 128.672 151.094 128.672C150.203 128.672 149.526 128.432 149.062 127.953C148.599 127.474 148.367 126.706 148.367 125.648V121.008H147.375V119.773H148.367V117.266H149.836V119.773H152.867V121.008H149.836V124.984C149.836 125.443 149.846 125.802 149.867 126.062C149.888 126.318 149.961 126.557 150.086 126.781C150.201 126.99 150.357 127.143 150.555 127.242C150.758 127.336 151.065 127.383 151.477 127.383C151.716 127.383 151.966 127.349 152.227 127.281C152.487 127.208 152.674 127.148 152.789 127.102H152.867V128.422ZM156.227 118.312H154.57V116.789H156.227V118.312ZM156.133 128.5H154.664V119.773H156.133V128.5ZM166.336 128.5H164.867V123.531C164.867 123.13 164.844 122.755 164.797 122.406C164.75 122.052 164.664 121.776 164.539 121.578C164.409 121.359 164.221 121.198 163.977 121.094C163.732 120.984 163.414 120.93 163.023 120.93C162.622 120.93 162.203 121.029 161.766 121.227C161.328 121.424 160.909 121.677 160.508 121.984V128.5H159.039V119.773H160.508V120.742C160.966 120.362 161.44 120.065 161.93 119.852C162.419 119.638 162.922 119.531 163.438 119.531C164.38 119.531 165.099 119.815 165.594 120.383C166.089 120.951 166.336 121.768 166.336 122.836V128.5ZM176.242 127.508C176.242 128.987 175.906 130.073 175.234 130.766C174.562 131.458 173.529 131.805 172.133 131.805C171.669 131.805 171.216 131.771 170.773 131.703C170.336 131.641 169.904 131.549 169.477 131.43V129.93H169.555C169.794 130.023 170.174 130.138 170.695 130.273C171.216 130.414 171.737 130.484 172.258 130.484C172.758 130.484 173.172 130.424 173.5 130.305C173.828 130.185 174.083 130.018 174.266 129.805C174.448 129.602 174.578 129.357 174.656 129.07C174.734 128.784 174.773 128.464 174.773 128.109V127.312C174.331 127.667 173.906 127.932 173.5 128.109C173.099 128.281 172.586 128.367 171.961 128.367C170.919 128.367 170.091 127.992 169.477 127.242C168.867 126.487 168.562 125.424 168.562 124.055C168.562 123.305 168.667 122.659 168.875 122.117C169.089 121.57 169.378 121.099 169.742 120.703C170.081 120.333 170.492 120.047 170.977 119.844C171.461 119.635 171.943 119.531 172.422 119.531C172.927 119.531 173.349 119.583 173.688 119.688C174.031 119.786 174.393 119.94 174.773 120.148L174.867 119.773H176.242V127.508ZM174.773 126.102V121.344C174.383 121.167 174.018 121.042 173.68 120.969C173.346 120.891 173.013 120.852 172.68 120.852C171.872 120.852 171.237 121.122 170.773 121.664C170.31 122.206 170.078 122.992 170.078 124.023C170.078 125.003 170.25 125.745 170.594 126.25C170.938 126.755 171.508 127.008 172.305 127.008C172.732 127.008 173.159 126.927 173.586 126.766C174.018 126.599 174.414 126.378 174.773 126.102Z" fill="#333333"/>
<path d="M5 168L12.5 175.5L25 160.5" stroke="#61B857" stroke-width="2" stroke-linecap="round" stroke-linejoin="round"/>
<path d="M48.3359 170.922C48.3359 171.5 48.2266 172.01 48.0078 172.453C47.7891 172.896 47.4948 173.26 47.125 173.547C46.6875 173.891 46.2057 174.135 45.6797 174.281C45.1589 174.427 44.4948 174.5 43.6875 174.5H39.5625V162.867H43.0078C43.8568 162.867 44.4922 162.898 44.9141 162.961C45.3359 163.023 45.7396 163.154 46.125 163.352C46.5521 163.576 46.862 163.865 47.0547 164.219C47.2474 164.568 47.3438 164.987 47.3438 165.477C47.3438 166.029 47.2031 166.5 46.9219 166.891C46.6406 167.276 46.2656 167.586 45.7969 167.82V167.883C46.5833 168.044 47.2031 168.391 47.6562 168.922C48.1094 169.448 48.3359 170.115 48.3359 170.922ZM45.7344 165.68C45.7344 165.398 45.6875 165.161 45.5938 164.969C45.5 164.776 45.349 164.62 45.1406 164.5C44.8958 164.359 44.599 164.273 44.25 164.242C43.901 164.206 43.4688 164.188 42.9531 164.188H41.1094V167.547H43.1094C43.5938 167.547 43.9792 167.523 44.2656 167.477C44.5521 167.424 44.8177 167.32 45.0625 167.164C45.3073 167.008 45.4792 166.807 45.5781 166.562C45.6823 166.312 45.7344 166.018 45.7344 165.68ZM46.7266 170.984C46.7266 170.516 46.6562 170.143 46.5156 169.867C46.375 169.591 46.1198 169.357 45.75 169.164C45.5 169.034 45.1953 168.951 44.8359 168.914C44.4818 168.872 44.0495 168.852 43.5391 168.852H41.1094V173.18H43.1562C43.8333 173.18 44.388 173.146 44.8203 173.078C45.2526 173.005 45.6068 172.875 45.8828 172.688C46.1745 172.484 46.388 172.253 46.5234 171.992C46.6589 171.732 46.7266 171.396 46.7266 170.984ZM51.9922 164.312H50.3359V162.789H51.9922V164.312ZM51.8984 174.5H50.4297V165.773H51.8984V174.5ZM61.1328 174.5H54.0859V173.414L59.1719 167H54.1953V165.773H61V166.82L55.8906 173.258H61.1328V174.5ZM70.5078 174.5H69.0391V169.531C69.0391 169.13 69.0156 168.755 68.9688 168.406C68.9219 168.052 68.8359 167.776 68.7109 167.578C68.5807 167.359 68.3932 167.198 68.1484 167.094C67.9036 166.984 67.5859 166.93 67.1953 166.93C66.7943 166.93 66.375 167.029 65.9375 167.227C65.5 167.424 65.0807 167.677 64.6797 167.984V174.5H63.2109V165.773H64.6797V166.742C65.138 166.362 65.612 166.065 66.1016 165.852C66.5911 165.638 67.0938 165.531 67.6094 165.531C68.5521 165.531 69.2708 165.815 69.7656 166.383C70.2604 166.951 70.5078 167.768 70.5078 168.836V174.5ZM80.6406 170.289H74.2109C74.2109 170.826 74.2917 171.294 74.4531 171.695C74.6146 172.091 74.8359 172.417 75.1172 172.672C75.388 172.922 75.7083 173.109 76.0781 173.234C76.4531 173.359 76.8646 173.422 77.3125 173.422C77.9062 173.422 78.5026 173.305 79.1016 173.07C79.7057 172.831 80.1354 172.596 80.3906 172.367H80.4688V173.969C79.974 174.177 79.4688 174.352 78.9531 174.492C78.4375 174.633 77.8958 174.703 77.3281 174.703C75.8802 174.703 74.75 174.312 73.9375 173.531C73.125 172.745 72.7188 171.63 72.7188 170.188C72.7188 168.76 73.1068 167.628 73.8828 166.789C74.6641 165.951 75.6901 165.531 76.9609 165.531C78.138 165.531 79.0443 165.875 79.6797 166.562C80.3203 167.25 80.6406 168.227 80.6406 169.492V170.289ZM79.2109 169.164C79.2057 168.393 79.0104 167.797 78.625 167.375C78.2448 166.953 77.6641 166.742 76.8828 166.742C76.0964 166.742 75.4688 166.974 75 167.438C74.5365 167.901 74.2734 168.477 74.2109 169.164H79.2109ZM89.1016 171.984C89.1016 172.781 88.7708 173.435 88.1094 173.945C87.4531 174.456 86.5547 174.711 85.4141 174.711C84.7682 174.711 84.1745 174.635 83.6328 174.484C83.0964 174.328 82.6458 174.159 82.2812 173.977V172.328H82.3594C82.8229 172.677 83.3385 172.956 83.9062 173.164C84.474 173.367 85.0182 173.469 85.5391 173.469C86.1849 173.469 86.6901 173.365 87.0547 173.156C87.4193 172.948 87.6016 172.62 87.6016 172.172C87.6016 171.828 87.5026 171.568 87.3047 171.391C87.1068 171.214 86.7266 171.062 86.1641 170.938C85.9557 170.891 85.6823 170.836 85.3438 170.773C85.0104 170.711 84.7057 170.643 84.4297 170.57C83.6641 170.367 83.1198 170.07 82.7969 169.68C82.4792 169.284 82.3203 168.799 82.3203 168.227C82.3203 167.867 82.3932 167.529 82.5391 167.211C82.6901 166.893 82.9167 166.609 83.2188 166.359C83.5104 166.115 83.8802 165.922 84.3281 165.781C84.7812 165.635 85.2865 165.562 85.8438 165.562C86.3646 165.562 86.8906 165.628 87.4219 165.758C87.9583 165.883 88.4036 166.036 88.7578 166.219V167.789H88.6797C88.3047 167.513 87.849 167.281 87.3125 167.094C86.776 166.901 86.25 166.805 85.7344 166.805C85.1979 166.805 84.7448 166.909 84.375 167.117C84.0052 167.32 83.8203 167.625 83.8203 168.031C83.8203 168.391 83.9323 168.661 84.1562 168.844C84.375 169.026 84.7292 169.174 85.2188 169.289C85.4896 169.352 85.7917 169.414 86.125 169.477C86.4635 169.539 86.7448 169.596 86.9688 169.648C87.651 169.805 88.1771 170.073 88.5469 170.453C88.9167 170.839 89.1016 171.349 89.1016 171.984ZM104.133 174.5H102.664V169.531C102.664 169.13 102.641 168.755 102.594 168.406C102.547 168.052 102.461 167.776 102.336 167.578C102.206 167.359 102.018 167.198 101.773 167.094C101.529 166.984 101.211 166.93 100.82 166.93C100.419 166.93 100 167.029 99.5625 167.227C99.125 167.424 98.7057 167.677 98.3047 167.984V174.5H96.8359V162.344H98.3047V166.742C98.763 166.362 99.237 166.065 99.7266 165.852C100.216 165.638 100.719 165.531 101.234 165.531C102.177 165.531 102.896 165.815 103.391 166.383C103.885 166.951 104.133 167.768 104.133 168.836V174.5ZM113.742 174.5H112.281V173.57C112.151 173.659 111.974 173.784 111.75 173.945C111.531 174.102 111.318 174.227 111.109 174.32C110.865 174.44 110.583 174.539 110.266 174.617C109.948 174.701 109.576 174.742 109.148 174.742C108.362 174.742 107.695 174.482 107.148 173.961C106.602 173.44 106.328 172.776 106.328 171.969C106.328 171.307 106.469 170.773 106.75 170.367C107.036 169.956 107.443 169.633 107.969 169.398C108.5 169.164 109.138 169.005 109.883 168.922C110.628 168.839 111.427 168.776 112.281 168.734V168.508C112.281 168.174 112.221 167.898 112.102 167.68C111.987 167.461 111.82 167.289 111.602 167.164C111.393 167.044 111.143 166.964 110.852 166.922C110.56 166.88 110.255 166.859 109.938 166.859C109.552 166.859 109.122 166.911 108.648 167.016C108.174 167.115 107.685 167.26 107.18 167.453H107.102V165.961C107.388 165.883 107.802 165.797 108.344 165.703C108.885 165.609 109.419 165.562 109.945 165.562C110.56 165.562 111.094 165.615 111.547 165.719C112.005 165.818 112.401 165.99 112.734 166.234C113.062 166.474 113.312 166.784 113.484 167.164C113.656 167.544 113.742 168.016 113.742 168.578V174.5ZM112.281 172.352V169.922C111.833 169.948 111.305 169.987 110.695 170.039C110.091 170.091 109.612 170.167 109.258 170.266C108.836 170.385 108.495 170.573 108.234 170.828C107.974 171.078 107.844 171.424 107.844 171.867C107.844 172.367 107.995 172.745 108.297 173C108.599 173.25 109.06 173.375 109.68 173.375C110.195 173.375 110.667 173.276 111.094 173.078C111.521 172.875 111.917 172.633 112.281 172.352ZM129.305 174.5H127.836V169.531C127.836 169.156 127.818 168.794 127.781 168.445C127.75 168.096 127.68 167.818 127.57 167.609C127.451 167.385 127.279 167.216 127.055 167.102C126.831 166.987 126.508 166.93 126.086 166.93C125.674 166.93 125.263 167.034 124.852 167.242C124.44 167.445 124.029 167.706 123.617 168.023C123.633 168.143 123.646 168.284 123.656 168.445C123.667 168.602 123.672 168.758 123.672 168.914V174.5H122.203V169.531C122.203 169.146 122.185 168.781 122.148 168.438C122.117 168.089 122.047 167.81 121.938 167.602C121.818 167.378 121.646 167.211 121.422 167.102C121.198 166.987 120.875 166.93 120.453 166.93C120.052 166.93 119.648 167.029 119.242 167.227C118.841 167.424 118.44 167.677 118.039 167.984V174.5H116.57V165.773H118.039V166.742C118.497 166.362 118.953 166.065 119.406 165.852C119.865 165.638 120.352 165.531 120.867 165.531C121.461 165.531 121.964 165.656 122.375 165.906C122.792 166.156 123.102 166.503 123.305 166.945C123.898 166.445 124.44 166.086 124.93 165.867C125.419 165.643 125.943 165.531 126.5 165.531C127.458 165.531 128.164 165.823 128.617 166.406C129.076 166.984 129.305 167.794 129.305 168.836V174.5ZM134.852 164.312H133.195V162.789H134.852V164.312ZM134.758 174.711C134.758 175.732 134.497 176.503 133.977 177.023C133.456 177.544 132.758 177.805 131.883 177.805C131.674 177.805 131.398 177.784 131.055 177.742C130.716 177.701 130.432 177.648 130.203 177.586V176.188H130.281C130.427 176.245 130.622 176.31 130.867 176.383C131.117 176.456 131.359 176.492 131.594 176.492C131.969 176.492 132.271 176.44 132.5 176.336C132.729 176.232 132.901 176.076 133.016 175.867C133.13 175.659 133.203 175.406 133.234 175.109C133.271 174.818 133.289 174.461 133.289 174.039V167.008H131.469V165.773H134.758V174.711ZM144.43 174.5H142.969V173.57C142.839 173.659 142.661 173.784 142.438 173.945C142.219 174.102 142.005 174.227 141.797 174.32C141.552 174.44 141.271 174.539 140.953 174.617C140.635 174.701 140.263 174.742 139.836 174.742C139.049 174.742 138.383 174.482 137.836 173.961C137.289 173.44 137.016 172.776 137.016 171.969C137.016 171.307 137.156 170.773 137.438 170.367C137.724 169.956 138.13 169.633 138.656 169.398C139.188 169.164 139.826 169.005 140.57 168.922C141.315 168.839 142.115 168.776 142.969 168.734V168.508C142.969 168.174 142.909 167.898 142.789 167.68C142.674 167.461 142.508 167.289 142.289 167.164C142.081 167.044 141.831 166.964 141.539 166.922C141.247 166.88 140.943 166.859 140.625 166.859C140.24 166.859 139.81 166.911 139.336 167.016C138.862 167.115 138.372 167.26 137.867 167.453H137.789V165.961C138.076 165.883 138.49 165.797 139.031 165.703C139.573 165.609 140.107 165.562 140.633 165.562C141.247 165.562 141.781 165.615 142.234 165.719C142.693 165.818 143.089 165.99 143.422 166.234C143.75 166.474 144 166.784 144.172 167.164C144.344 167.544 144.43 168.016 144.43 168.578V174.5ZM142.969 172.352V169.922C142.521 169.948 141.992 169.987 141.383 170.039C140.779 170.091 140.299 170.167 139.945 170.266C139.523 170.385 139.182 170.573 138.922 170.828C138.661 171.078 138.531 171.424 138.531 171.867C138.531 172.367 138.682 172.745 138.984 173C139.286 173.25 139.747 173.375 140.367 173.375C140.883 173.375 141.354 173.276 141.781 173.078C142.208 172.875 142.604 172.633 142.969 172.352ZM159.992 174.5H158.523V169.531C158.523 169.156 158.505 168.794 158.469 168.445C158.438 168.096 158.367 167.818 158.258 167.609C158.138 167.385 157.966 167.216 157.742 167.102C157.518 166.987 157.195 166.93 156.773 166.93C156.362 166.93 155.951 167.034 155.539 167.242C155.128 167.445 154.716 167.706 154.305 168.023C154.32 168.143 154.333 168.284 154.344 168.445C154.354 168.602 154.359 168.758 154.359 168.914V174.5H152.891V169.531C152.891 169.146 152.872 168.781 152.836 168.438C152.805 168.089 152.734 167.81 152.625 167.602C152.505 167.378 152.333 167.211 152.109 167.102C151.885 166.987 151.562 166.93 151.141 166.93C150.74 166.93 150.336 167.029 149.93 167.227C149.529 167.424 149.128 167.677 148.727 167.984V174.5H147.258V165.773H148.727V166.742C149.185 166.362 149.641 166.065 150.094 165.852C150.552 165.638 151.039 165.531 151.555 165.531C152.148 165.531 152.651 165.656 153.062 165.906C153.479 166.156 153.789 166.503 153.992 166.945C154.586 166.445 155.128 166.086 155.617 165.867C156.107 165.643 156.63 165.531 157.188 165.531C158.146 165.531 158.852 165.823 159.305 166.406C159.763 166.984 159.992 167.794 159.992 168.836V174.5ZM164.398 164.312H162.742V162.789H164.398V164.312ZM164.305 174.5H162.836V165.773H164.305V174.5ZM174.758 165.773L169.664 177.719H168.094L169.719 174.078L166.242 165.773H167.836L170.516 172.242L173.219 165.773H174.758ZM183.148 174.5H181.688V173.57C181.557 173.659 181.38 173.784 181.156 173.945C180.938 174.102 180.724 174.227 180.516 174.32C180.271 174.44 179.99 174.539 179.672 174.617C179.354 174.701 178.982 174.742 178.555 174.742C177.768 174.742 177.102 174.482 176.555 173.961C176.008 173.44 175.734 172.776 175.734 171.969C175.734 171.307 175.875 170.773 176.156 170.367C176.443 169.956 176.849 169.633 177.375 169.398C177.906 169.164 178.544 169.005 179.289 168.922C180.034 168.839 180.833 168.776 181.688 168.734V168.508C181.688 168.174 181.628 167.898 181.508 167.68C181.393 167.461 181.227 167.289 181.008 167.164C180.799 167.044 180.549 166.964 180.258 166.922C179.966 166.88 179.661 166.859 179.344 166.859C178.958 166.859 178.529 166.911 178.055 167.016C177.581 167.115 177.091 167.26 176.586 167.453H176.508V165.961C176.794 165.883 177.208 165.797 177.75 165.703C178.292 165.609 178.826 165.562 179.352 165.562C179.966 165.562 180.5 165.615 180.953 165.719C181.411 165.818 181.807 165.99 182.141 166.234C182.469 166.474 182.719 166.784 182.891 167.164C183.062 167.544 183.148 168.016 183.148 168.578V174.5ZM181.688 172.352V169.922C181.24 169.948 180.711 169.987 180.102 170.039C179.497 170.091 179.018 170.167 178.664 170.266C178.242 170.385 177.901 170.573 177.641 170.828C177.38 171.078 177.25 171.424 177.25 171.867C177.25 172.367 177.401 172.745 177.703 173C178.005 173.25 178.466 173.375 179.086 173.375C179.602 173.375 180.073 173.276 180.5 173.078C180.927 172.875 181.323 172.633 181.688 172.352ZM190.508 174.422C190.232 174.495 189.93 174.555 189.602 174.602C189.279 174.648 188.99 174.672 188.734 174.672C187.844 174.672 187.167 174.432 186.703 173.953C186.24 173.474 186.008 172.706 186.008 171.648V167.008H185.016V165.773H186.008V163.266H187.477V165.773H190.508V167.008H187.477V170.984C187.477 171.443 187.487 171.802 187.508 172.062C187.529 172.318 187.602 172.557 187.727 172.781C187.841 172.99 187.997 173.143 188.195 173.242C188.398 173.336 188.706 173.383 189.117 173.383C189.357 173.383 189.607 173.349 189.867 173.281C190.128 173.208 190.315 173.148 190.43 173.102H190.508V174.422Z" fill="#333333"/>
<path d="M5 214L12.5 221.5L25 206.5" stroke="#61B857" stroke-width="2" stroke-linecap="round" stroke-linejoin="round"/>
<path d="M48.3359 211.422C48.3359 212 48.2266 212.51 48.0078 212.953C47.7891 213.396 47.4948 213.76 47.125 214.047C46.6875 214.391 46.2057 214.635 45.6797 214.781C45.1589 214.927 44.4948 215 43.6875 215H39.5625V203.367H43.0078C43.8568 203.367 44.4922 203.398 44.9141 203.461C45.3359 203.523 45.7396 203.654 46.125 203.852C46.5521 204.076 46.862 204.365 47.0547 204.719C47.2474 205.068 47.3438 205.487 47.3438 205.977C47.3438 206.529 47.2031 207 46.9219 207.391C46.6406 207.776 46.2656 208.086 45.7969 208.32V208.383C46.5833 208.544 47.2031 208.891 47.6562 209.422C48.1094 209.948 48.3359 210.615 48.3359 211.422ZM45.7344 206.18C45.7344 205.898 45.6875 205.661 45.5938 205.469C45.5 205.276 45.349 205.12 45.1406 205C44.8958 204.859 44.599 204.773 44.25 204.742C43.901 204.706 43.4688 204.688 42.9531 204.688H41.1094V208.047H43.1094C43.5938 208.047 43.9792 208.023 44.2656 207.977C44.5521 207.924 44.8177 207.82 45.0625 207.664C45.3073 207.508 45.4792 207.307 45.5781 207.062C45.6823 206.812 45.7344 206.518 45.7344 206.18ZM46.7266 211.484C46.7266 211.016 46.6562 210.643 46.5156 210.367C46.375 210.091 46.1198 209.857 45.75 209.664C45.5 209.534 45.1953 209.451 44.8359 209.414C44.4818 209.372 44.0495 209.352 43.5391 209.352H41.1094V213.68H43.1562C43.8333 213.68 44.388 213.646 44.8203 213.578C45.2526 213.505 45.6068 213.375 45.8828 213.188C46.1745 212.984 46.388 212.753 46.5234 212.492C46.6589 212.232 46.7266 211.896 46.7266 211.484ZM51.9922 204.812H50.3359V203.289H51.9922V204.812ZM51.8984 215H50.4297V206.273H51.8984V215ZM61.1328 215H54.0859V213.914L59.1719 207.5H54.1953V206.273H61V207.32L55.8906 213.758H61.1328V215ZM70.5078 215H69.0391V210.031C69.0391 209.63 69.0156 209.255 68.9688 208.906C68.9219 208.552 68.8359 208.276 68.7109 208.078C68.5807 207.859 68.3932 207.698 68.1484 207.594C67.9036 207.484 67.5859 207.43 67.1953 207.43C66.7943 207.43 66.375 207.529 65.9375 207.727C65.5 207.924 65.0807 208.177 64.6797 208.484V215H63.2109V206.273H64.6797V207.242C65.138 206.862 65.612 206.565 66.1016 206.352C66.5911 206.138 67.0938 206.031 67.6094 206.031C68.5521 206.031 69.2708 206.315 69.7656 206.883C70.2604 207.451 70.5078 208.268 70.5078 209.336V215ZM80.6406 210.789H74.2109C74.2109 211.326 74.2917 211.794 74.4531 212.195C74.6146 212.591 74.8359 212.917 75.1172 213.172C75.388 213.422 75.7083 213.609 76.0781 213.734C76.4531 213.859 76.8646 213.922 77.3125 213.922C77.9062 213.922 78.5026 213.805 79.1016 213.57C79.7057 213.331 80.1354 213.096 80.3906 212.867H80.4688V214.469C79.974 214.677 79.4688 214.852 78.9531 214.992C78.4375 215.133 77.8958 215.203 77.3281 215.203C75.8802 215.203 74.75 214.812 73.9375 214.031C73.125 213.245 72.7188 212.13 72.7188 210.688C72.7188 209.26 73.1068 208.128 73.8828 207.289C74.6641 206.451 75.6901 206.031 76.9609 206.031C78.138 206.031 79.0443 206.375 79.6797 207.062C80.3203 207.75 80.6406 208.727 80.6406 209.992V210.789ZM79.2109 209.664C79.2057 208.893 79.0104 208.297 78.625 207.875C78.2448 207.453 77.6641 207.242 76.8828 207.242C76.0964 207.242 75.4688 207.474 75 207.938C74.5365 208.401 74.2734 208.977 74.2109 209.664H79.2109ZM89.1016 212.484C89.1016 213.281 88.7708 213.935 88.1094 214.445C87.4531 214.956 86.5547 215.211 85.4141 215.211C84.7682 215.211 84.1745 215.135 83.6328 214.984C83.0964 214.828 82.6458 214.659 82.2812 214.477V212.828H82.3594C82.8229 213.177 83.3385 213.456 83.9062 213.664C84.474 213.867 85.0182 213.969 85.5391 213.969C86.1849 213.969 86.6901 213.865 87.0547 213.656C87.4193 213.448 87.6016 213.12 87.6016 212.672C87.6016 212.328 87.5026 212.068 87.3047 211.891C87.1068 211.714 86.7266 211.562 86.1641 211.438C85.9557 211.391 85.6823 211.336 85.3438 211.273C85.0104 211.211 84.7057 211.143 84.4297 211.07C83.6641 210.867 83.1198 210.57 82.7969 210.18C82.4792 209.784 82.3203 209.299 82.3203 208.727C82.3203 208.367 82.3932 208.029 82.5391 207.711C82.6901 207.393 82.9167 207.109 83.2188 206.859C83.5104 206.615 83.8802 206.422 84.3281 206.281C84.7812 206.135 85.2865 206.062 85.8438 206.062C86.3646 206.062 86.8906 206.128 87.4219 206.258C87.9583 206.383 88.4036 206.536 88.7578 206.719V208.289H88.6797C88.3047 208.013 87.849 207.781 87.3125 207.594C86.776 207.401 86.25 207.305 85.7344 207.305C85.1979 207.305 84.7448 207.409 84.375 207.617C84.0052 207.82 83.8203 208.125 83.8203 208.531C83.8203 208.891 83.9323 209.161 84.1562 209.344C84.375 209.526 84.7292 209.674 85.2188 209.789C85.4896 209.852 85.7917 209.914 86.125 209.977C86.4635 210.039 86.7448 210.096 86.9688 210.148C87.651 210.305 88.1771 210.573 88.5469 210.953C88.9167 211.339 89.1016 211.849 89.1016 212.484ZM101.367 214.922C101.091 214.995 100.789 215.055 100.461 215.102C100.138 215.148 99.849 215.172 99.5938 215.172C98.7031 215.172 98.026 214.932 97.5625 214.453C97.099 213.974 96.8672 213.206 96.8672 212.148V207.508H95.875V206.273H96.8672V203.766H98.3359V206.273H101.367V207.508H98.3359V211.484C98.3359 211.943 98.3464 212.302 98.3672 212.562C98.388 212.818 98.4609 213.057 98.5859 213.281C98.7005 213.49 98.8568 213.643 99.0547 213.742C99.2578 213.836 99.5651 213.883 99.9766 213.883C100.216 213.883 100.466 213.849 100.727 213.781C100.987 213.708 101.174 213.648 101.289 213.602H101.367V214.922ZM108.594 207.875H108.516C108.297 207.823 108.083 207.786 107.875 207.766C107.672 207.74 107.43 207.727 107.148 207.727C106.695 207.727 106.258 207.828 105.836 208.031C105.414 208.229 105.008 208.487 104.617 208.805V215H103.148V206.273H104.617V207.562C105.201 207.094 105.714 206.763 106.156 206.57C106.604 206.372 107.06 206.273 107.523 206.273C107.779 206.273 107.964 206.281 108.078 206.297C108.193 206.307 108.365 206.331 108.594 206.367V207.875ZM117.281 210.789H110.852C110.852 211.326 110.932 211.794 111.094 212.195C111.255 212.591 111.477 212.917 111.758 213.172C112.029 213.422 112.349 213.609 112.719 213.734C113.094 213.859 113.505 213.922 113.953 213.922C114.547 213.922 115.143 213.805 115.742 213.57C116.346 213.331 116.776 213.096 117.031 212.867H117.109V214.469C116.615 214.677 116.109 214.852 115.594 214.992C115.078 215.133 114.536 215.203 113.969 215.203C112.521 215.203 111.391 214.812 110.578 214.031C109.766 213.245 109.359 212.13 109.359 210.688C109.359 209.26 109.747 208.128 110.523 207.289C111.305 206.451 112.331 206.031 113.602 206.031C114.779 206.031 115.685 206.375 116.32 207.062C116.961 207.75 117.281 208.727 117.281 209.992V210.789ZM115.852 209.664C115.846 208.893 115.651 208.297 115.266 207.875C114.885 207.453 114.305 207.242 113.523 207.242C112.737 207.242 112.109 207.474 111.641 207.938C111.177 208.401 110.914 208.977 110.852 209.664H115.852ZM126.805 215H125.336V210.031C125.336 209.63 125.312 209.255 125.266 208.906C125.219 208.552 125.133 208.276 125.008 208.078C124.878 207.859 124.69 207.698 124.445 207.594C124.201 207.484 123.883 207.43 123.492 207.43C123.091 207.43 122.672 207.529 122.234 207.727C121.797 207.924 121.378 208.177 120.977 208.484V215H119.508V206.273H120.977V207.242C121.435 206.862 121.909 206.565 122.398 206.352C122.888 206.138 123.391 206.031 123.906 206.031C124.849 206.031 125.568 206.315 126.062 206.883C126.557 207.451 126.805 208.268 126.805 209.336V215ZM131.211 204.812H129.555V203.289H131.211V204.812ZM131.117 215H129.648V206.273H131.117V215ZM141.32 215H139.852V210.031C139.852 209.63 139.828 209.255 139.781 208.906C139.734 208.552 139.648 208.276 139.523 208.078C139.393 207.859 139.206 207.698 138.961 207.594C138.716 207.484 138.398 207.43 138.008 207.43C137.607 207.43 137.188 207.529 136.75 207.727C136.312 207.924 135.893 208.177 135.492 208.484V215H134.023V206.273H135.492V207.242C135.951 206.862 136.424 206.565 136.914 206.352C137.404 206.138 137.906 206.031 138.422 206.031C139.365 206.031 140.083 206.315 140.578 206.883C141.073 207.451 141.32 208.268 141.32 209.336V215ZM151.227 214.008C151.227 215.487 150.891 216.573 150.219 217.266C149.547 217.958 148.513 218.305 147.117 218.305C146.654 218.305 146.201 218.271 145.758 218.203C145.32 218.141 144.888 218.049 144.461 217.93V216.43H144.539C144.779 216.523 145.159 216.638 145.68 216.773C146.201 216.914 146.721 216.984 147.242 216.984C147.742 216.984 148.156 216.924 148.484 216.805C148.812 216.685 149.068 216.518 149.25 216.305C149.432 216.102 149.562 215.857 149.641 215.57C149.719 215.284 149.758 214.964 149.758 214.609V213.812C149.315 214.167 148.891 214.432 148.484 214.609C148.083 214.781 147.57 214.867 146.945 214.867C145.904 214.867 145.076 214.492 144.461 213.742C143.852 212.987 143.547 211.924 143.547 210.555C143.547 209.805 143.651 209.159 143.859 208.617C144.073 208.07 144.362 207.599 144.727 207.203C145.065 206.833 145.477 206.547 145.961 206.344C146.445 206.135 146.927 206.031 147.406 206.031C147.911 206.031 148.333 206.083 148.672 206.188C149.016 206.286 149.378 206.44 149.758 206.648L149.852 206.273H151.227V214.008ZM149.758 212.602V207.844C149.367 207.667 149.003 207.542 148.664 207.469C148.331 207.391 147.997 207.352 147.664 207.352C146.857 207.352 146.221 207.622 145.758 208.164C145.294 208.706 145.062 209.492 145.062 210.523C145.062 211.503 145.234 212.245 145.578 212.75C145.922 213.255 146.492 213.508 147.289 213.508C147.716 213.508 148.143 213.427 148.57 213.266C149.003 213.099 149.398 212.878 149.758 212.602ZM155.602 215H154.133V202.844H155.602V215ZM165.289 215H163.828V214.07C163.698 214.159 163.521 214.284 163.297 214.445C163.078 214.602 162.865 214.727 162.656 214.82C162.411 214.94 162.13 215.039 161.812 215.117C161.495 215.201 161.122 215.242 160.695 215.242C159.909 215.242 159.242 214.982 158.695 214.461C158.148 213.94 157.875 213.276 157.875 212.469C157.875 211.807 158.016 211.273 158.297 210.867C158.583 210.456 158.99 210.133 159.516 209.898C160.047 209.664 160.685 209.505 161.43 209.422C162.174 209.339 162.974 209.276 163.828 209.234V209.008C163.828 208.674 163.768 208.398 163.648 208.18C163.534 207.961 163.367 207.789 163.148 207.664C162.94 207.544 162.69 207.464 162.398 207.422C162.107 207.38 161.802 207.359 161.484 207.359C161.099 207.359 160.669 207.411 160.195 207.516C159.721 207.615 159.232 207.76 158.727 207.953H158.648V206.461C158.935 206.383 159.349 206.297 159.891 206.203C160.432 206.109 160.966 206.062 161.492 206.062C162.107 206.062 162.641 206.115 163.094 206.219C163.552 206.318 163.948 206.49 164.281 206.734C164.609 206.974 164.859 207.284 165.031 207.664C165.203 208.044 165.289 208.516 165.289 209.078V215ZM163.828 212.852V210.422C163.38 210.448 162.852 210.487 162.242 210.539C161.638 210.591 161.159 210.667 160.805 210.766C160.383 210.885 160.042 211.073 159.781 211.328C159.521 211.578 159.391 211.924 159.391 212.367C159.391 212.867 159.542 213.245 159.844 213.5C160.146 213.75 160.607 213.875 161.227 213.875C161.742 213.875 162.214 213.776 162.641 213.578C163.068 213.375 163.464 213.133 163.828 212.852ZM173.562 207.875H173.484C173.266 207.823 173.052 207.786 172.844 207.766C172.641 207.74 172.398 207.727 172.117 207.727C171.664 207.727 171.227 207.828 170.805 208.031C170.383 208.229 169.977 208.487 169.586 208.805V215H168.117V206.273H169.586V207.562C170.169 207.094 170.682 206.763 171.125 206.57C171.573 206.372 172.029 206.273 172.492 206.273C172.747 206.273 172.932 206.281 173.047 206.297C173.161 206.307 173.333 206.331 173.562 206.367V207.875ZM175.727 212.773L173.523 217.891H172.383L173.742 212.773H175.727ZM49.9219 234H48.375V223.977L45.1406 230.797H44.2188L41.0078 223.977V234H39.5625V222.367H41.6719L44.7734 228.844L47.7734 222.367H49.9219V234ZM59.7109 234H58.25V233.07C58.1198 233.159 57.9427 233.284 57.7188 233.445C57.5 233.602 57.2865 233.727 57.0781 233.82C56.8333 233.94 56.5521 234.039 56.2344 234.117C55.9167 234.201 55.5443 234.242 55.1172 234.242C54.3307 234.242 53.6641 233.982 53.1172 233.461C52.5703 232.94 52.2969 232.276 52.2969 231.469C52.2969 230.807 52.4375 230.273 52.7188 229.867C53.0052 229.456 53.4115 229.133 53.9375 228.898C54.4688 228.664 55.1068 228.505 55.8516 228.422C56.5964 228.339 57.3958 228.276 58.25 228.234V228.008C58.25 227.674 58.1901 227.398 58.0703 227.18C57.9557 226.961 57.7891 226.789 57.5703 226.664C57.362 226.544 57.112 226.464 56.8203 226.422C56.5286 226.38 56.224 226.359 55.9062 226.359C55.5208 226.359 55.0911 226.411 54.6172 226.516C54.1432 226.615 53.6536 226.76 53.1484 226.953H53.0703V225.461C53.3568 225.383 53.7708 225.297 54.3125 225.203C54.8542 225.109 55.388 225.062 55.9141 225.062C56.5286 225.062 57.0625 225.115 57.5156 225.219C57.974 225.318 58.3698 225.49 58.7031 225.734C59.0312 225.974 59.2812 226.284 59.4531 226.664C59.625 227.044 59.7109 227.516 59.7109 228.078V234ZM58.25 231.852V229.422C57.8021 229.448 57.2734 229.487 56.6641 229.539C56.0599 229.591 55.5807 229.667 55.2266 229.766C54.8047 229.885 54.4635 230.073 54.2031 230.328C53.9427 230.578 53.8125 230.924 53.8125 231.367C53.8125 231.867 53.9635 232.245 54.2656 232.5C54.5677 232.75 55.0286 232.875 55.6484 232.875C56.1641 232.875 56.6354 232.776 57.0625 232.578C57.4896 232.375 57.8854 232.133 58.25 231.852ZM68.7734 231.484C68.7734 232.281 68.4427 232.935 67.7812 233.445C67.125 233.956 66.2266 234.211 65.0859 234.211C64.4401 234.211 63.8464 234.135 63.3047 233.984C62.7682 233.828 62.3177 233.659 61.9531 233.477V231.828H62.0312C62.4948 232.177 63.0104 232.456 63.5781 232.664C64.1458 232.867 64.6901 232.969 65.2109 232.969C65.8568 232.969 66.362 232.865 66.7266 232.656C67.0911 232.448 67.2734 232.12 67.2734 231.672C67.2734 231.328 67.1745 231.068 66.9766 230.891C66.7786 230.714 66.3984 230.562 65.8359 230.438C65.6276 230.391 65.3542 230.336 65.0156 230.273C64.6823 230.211 64.3776 230.143 64.1016 230.07C63.3359 229.867 62.7917 229.57 62.4688 229.18C62.151 228.784 61.9922 228.299 61.9922 227.727C61.9922 227.367 62.0651 227.029 62.2109 226.711C62.362 226.393 62.5885 226.109 62.8906 225.859C63.1823 225.615 63.5521 225.422 64 225.281C64.4531 225.135 64.9583 225.062 65.5156 225.062C66.0365 225.062 66.5625 225.128 67.0938 225.258C67.6302 225.383 68.0755 225.536 68.4297 225.719V227.289H68.3516C67.9766 227.013 67.5208 226.781 66.9844 226.594C66.4479 226.401 65.9219 226.305 65.4062 226.305C64.8698 226.305 64.4167 226.409 64.0469 226.617C63.6771 226.82 63.4922 227.125 63.4922 227.531C63.4922 227.891 63.6042 228.161 63.8281 228.344C64.0469 228.526 64.401 228.674 64.8906 228.789C65.1615 228.852 65.4635 228.914 65.7969 228.977C66.1354 229.039 66.4167 229.096 66.6406 229.148C67.3229 229.305 67.849 229.573 68.2188 229.953C68.5885 230.339 68.7734 230.849 68.7734 231.484ZM75.4141 233.922C75.138 233.995 74.8359 234.055 74.5078 234.102C74.1849 234.148 73.8958 234.172 73.6406 234.172C72.75 234.172 72.0729 233.932 71.6094 233.453C71.1458 232.974 70.9141 232.206 70.9141 231.148V226.508H69.9219V225.273H70.9141V222.766H72.3828V225.273H75.4141V226.508H72.3828V230.484C72.3828 230.943 72.3932 231.302 72.4141 231.562C72.4349 231.818 72.5078 232.057 72.6328 232.281C72.7474 232.49 72.9036 232.643 73.1016 232.742C73.3047 232.836 73.612 232.883 74.0234 232.883C74.263 232.883 74.513 232.849 74.7734 232.781C75.0339 232.708 75.2214 232.648 75.3359 232.602H75.4141V233.922ZM84.5 229.789H78.0703C78.0703 230.326 78.151 230.794 78.3125 231.195C78.474 231.591 78.6953 231.917 78.9766 232.172C79.2474 232.422 79.5677 232.609 79.9375 232.734C80.3125 232.859 80.724 232.922 81.1719 232.922C81.7656 232.922 82.362 232.805 82.9609 232.57C83.5651 232.331 83.9948 232.096 84.25 231.867H84.3281V233.469C83.8333 233.677 83.3281 233.852 82.8125 233.992C82.2969 234.133 81.7552 234.203 81.1875 234.203C79.7396 234.203 78.6094 233.812 77.7969 233.031C76.9844 232.245 76.5781 231.13 76.5781 229.688C76.5781 228.26 76.9661 227.128 77.7422 226.289C78.5234 225.451 79.5495 225.031 80.8203 225.031C81.9974 225.031 82.9036 225.375 83.5391 226.062C84.1797 226.75 84.5 227.727 84.5 228.992V229.789ZM83.0703 228.664C83.0651 227.893 82.8698 227.297 82.4844 226.875C82.1042 226.453 81.5234 226.242 80.7422 226.242C79.9557 226.242 79.3281 226.474 78.8594 226.938C78.3958 227.401 78.1328 227.977 78.0703 228.664H83.0703ZM92.1719 226.875H92.0938C91.875 226.823 91.6615 226.786 91.4531 226.766C91.25 226.74 91.0078 226.727 90.7266 226.727C90.2734 226.727 89.8359 226.828 89.4141 227.031C88.9922 227.229 88.5859 227.487 88.1953 227.805V234H86.7266V225.273H88.1953V226.562C88.7786 226.094 89.2917 225.763 89.7344 225.57C90.1823 225.372 90.638 225.273 91.1016 225.273C91.3568 225.273 91.5417 225.281 91.6562 225.297C91.7708 225.307 91.9427 225.331 92.1719 225.367V226.875ZM98.0234 229.617H93.1484V228.203H98.0234V229.617ZM108.586 234H106.648L103.148 230.18L102.195 231.086V234H100.727V221.844H102.195V229.641L106.438 225.273H108.289L104.234 229.305L108.586 234ZM111.617 234H110.148V221.844H111.617V234ZM121.305 234H119.844V233.07C119.714 233.159 119.536 233.284 119.312 233.445C119.094 233.602 118.88 233.727 118.672 233.82C118.427 233.94 118.146 234.039 117.828 234.117C117.51 234.201 117.138 234.242 116.711 234.242C115.924 234.242 115.258 233.982 114.711 233.461C114.164 232.94 113.891 232.276 113.891 231.469C113.891 230.807 114.031 230.273 114.312 229.867C114.599 229.456 115.005 229.133 115.531 228.898C116.062 228.664 116.701 228.505 117.445 228.422C118.19 228.339 118.99 228.276 119.844 228.234V228.008C119.844 227.674 119.784 227.398 119.664 227.18C119.549 226.961 119.383 226.789 119.164 226.664C118.956 226.544 118.706 226.464 118.414 226.422C118.122 226.38 117.818 226.359 117.5 226.359C117.115 226.359 116.685 226.411 116.211 226.516C115.737 226.615 115.247 226.76 114.742 226.953H114.664V225.461C114.951 225.383 115.365 225.297 115.906 225.203C116.448 225.109 116.982 225.062 117.508 225.062C118.122 225.062 118.656 225.115 119.109 225.219C119.568 225.318 119.964 225.49 120.297 225.734C120.625 225.974 120.875 226.284 121.047 226.664C121.219 227.044 121.305 227.516 121.305 228.078V234ZM119.844 231.852V229.422C119.396 229.448 118.867 229.487 118.258 229.539C117.654 229.591 117.174 229.667 116.82 229.766C116.398 229.885 116.057 230.073 115.797 230.328C115.536 230.578 115.406 230.924 115.406 231.367C115.406 231.867 115.557 232.245 115.859 232.5C116.161 232.75 116.622 232.875 117.242 232.875C117.758 232.875 118.229 232.776 118.656 232.578C119.083 232.375 119.479 232.133 119.844 231.852ZM130.367 231.484C130.367 232.281 130.036 232.935 129.375 233.445C128.719 233.956 127.82 234.211 126.68 234.211C126.034 234.211 125.44 234.135 124.898 233.984C124.362 233.828 123.911 233.659 123.547 233.477V231.828H123.625C124.089 232.177 124.604 232.456 125.172 232.664C125.74 232.867 126.284 232.969 126.805 232.969C127.451 232.969 127.956 232.865 128.32 232.656C128.685 232.448 128.867 232.12 128.867 231.672C128.867 231.328 128.768 231.068 128.57 230.891C128.372 230.714 127.992 230.562 127.43 230.438C127.221 230.391 126.948 230.336 126.609 230.273C126.276 230.211 125.971 230.143 125.695 230.07C124.93 229.867 124.385 229.57 124.062 229.18C123.745 228.784 123.586 228.299 123.586 227.727C123.586 227.367 123.659 227.029 123.805 226.711C123.956 226.393 124.182 226.109 124.484 225.859C124.776 225.615 125.146 225.422 125.594 225.281C126.047 225.135 126.552 225.062 127.109 225.062C127.63 225.062 128.156 225.128 128.688 225.258C129.224 225.383 129.669 225.536 130.023 225.719V227.289H129.945C129.57 227.013 129.115 226.781 128.578 226.594C128.042 226.401 127.516 226.305 127 226.305C126.464 226.305 126.01 226.409 125.641 226.617C125.271 226.82 125.086 227.125 125.086 227.531C125.086 227.891 125.198 228.161 125.422 228.344C125.641 228.526 125.995 228.674 126.484 228.789C126.755 228.852 127.057 228.914 127.391 228.977C127.729 229.039 128.01 229.096 128.234 229.148C128.917 229.305 129.443 229.573 129.812 229.953C130.182 230.339 130.367 230.849 130.367 231.484ZM138.711 231.484C138.711 232.281 138.38 232.935 137.719 233.445C137.062 233.956 136.164 234.211 135.023 234.211C134.378 234.211 133.784 234.135 133.242 233.984C132.706 233.828 132.255 233.659 131.891 233.477V231.828H131.969C132.432 232.177 132.948 232.456 133.516 232.664C134.083 232.867 134.628 232.969 135.148 232.969C135.794 232.969 136.299 232.865 136.664 232.656C137.029 232.448 137.211 232.12 137.211 231.672C137.211 231.328 137.112 231.068 136.914 230.891C136.716 230.714 136.336 230.562 135.773 230.438C135.565 230.391 135.292 230.336 134.953 230.273C134.62 230.211 134.315 230.143 134.039 230.07C133.273 229.867 132.729 229.57 132.406 229.18C132.089 228.784 131.93 228.299 131.93 227.727C131.93 227.367 132.003 227.029 132.148 226.711C132.299 226.393 132.526 226.109 132.828 225.859C133.12 225.615 133.49 225.422 133.938 225.281C134.391 225.135 134.896 225.062 135.453 225.062C135.974 225.062 136.5 225.128 137.031 225.258C137.568 225.383 138.013 225.536 138.367 225.719V227.289H138.289C137.914 227.013 137.458 226.781 136.922 226.594C136.385 226.401 135.859 226.305 135.344 226.305C134.807 226.305 134.354 226.409 133.984 226.617C133.615 226.82 133.43 227.125 133.43 227.531C133.43 227.891 133.542 228.161 133.766 228.344C133.984 228.526 134.339 228.674 134.828 228.789C135.099 228.852 135.401 228.914 135.734 228.977C136.073 229.039 136.354 229.096 136.578 229.148C137.26 229.305 137.786 229.573 138.156 229.953C138.526 230.339 138.711 230.849 138.711 231.484ZM142.305 234H140.836V221.844H142.305V234ZM151.992 234H150.531V233.07C150.401 233.159 150.224 233.284 150 233.445C149.781 233.602 149.568 233.727 149.359 233.82C149.115 233.94 148.833 234.039 148.516 234.117C148.198 234.201 147.826 234.242 147.398 234.242C146.612 234.242 145.945 233.982 145.398 233.461C144.852 232.94 144.578 232.276 144.578 231.469C144.578 230.807 144.719 230.273 145 229.867C145.286 229.456 145.693 229.133 146.219 228.898C146.75 228.664 147.388 228.505 148.133 228.422C148.878 228.339 149.677 228.276 150.531 228.234V228.008C150.531 227.674 150.471 227.398 150.352 227.18C150.237 226.961 150.07 226.789 149.852 226.664C149.643 226.544 149.393 226.464 149.102 226.422C148.81 226.38 148.505 226.359 148.188 226.359C147.802 226.359 147.372 226.411 146.898 226.516C146.424 226.615 145.935 226.76 145.43 226.953H145.352V225.461C145.638 225.383 146.052 225.297 146.594 225.203C147.135 225.109 147.669 225.062 148.195 225.062C148.81 225.062 149.344 225.115 149.797 225.219C150.255 225.318 150.651 225.49 150.984 225.734C151.312 225.974 151.562 226.284 151.734 226.664C151.906 227.044 151.992 227.516 151.992 228.078V234ZM150.531 231.852V229.422C150.083 229.448 149.555 229.487 148.945 229.539C148.341 229.591 147.862 229.667 147.508 229.766C147.086 229.885 146.745 230.073 146.484 230.328C146.224 230.578 146.094 230.924 146.094 231.367C146.094 231.867 146.245 232.245 146.547 232.5C146.849 232.75 147.31 232.875 147.93 232.875C148.445 232.875 148.917 232.776 149.344 232.578C149.771 232.375 150.167 232.133 150.531 231.852ZM160.266 226.875H160.188C159.969 226.823 159.755 226.786 159.547 226.766C159.344 226.74 159.102 226.727 158.82 226.727C158.367 226.727 157.93 226.828 157.508 227.031C157.086 227.229 156.68 227.487 156.289 227.805V234H154.82V225.273H156.289V226.562C156.872 226.094 157.385 225.763 157.828 225.57C158.276 225.372 158.732 225.273 159.195 225.273C159.451 225.273 159.635 225.281 159.75 225.297C159.865 225.307 160.036 225.331 160.266 225.367V226.875ZM162.43 231.773L160.227 236.891H159.086L160.445 231.773H162.43ZM48.0156 249.68C48.0156 250.133 47.9089 250.581 47.6953 251.023C47.487 251.466 47.1927 251.841 46.8125 252.148C46.3958 252.482 45.9089 252.742 45.3516 252.93C44.7995 253.117 44.1328 253.211 43.3516 253.211C42.513 253.211 41.7578 253.133 41.0859 252.977C40.4193 252.82 39.7396 252.589 39.0469 252.281V250.344H39.1562C39.7448 250.833 40.4245 251.211 41.1953 251.477C41.9661 251.742 42.6901 251.875 43.3672 251.875C44.3255 251.875 45.0703 251.695 45.6016 251.336C46.138 250.977 46.4062 250.497 46.4062 249.898C46.4062 249.383 46.2786 249.003 46.0234 248.758C45.7734 248.513 45.3906 248.323 44.875 248.188C44.4844 248.083 44.0599 247.997 43.6016 247.93C43.1484 247.862 42.6667 247.776 42.1562 247.672C41.125 247.453 40.3594 247.081 39.8594 246.555C39.3646 246.023 39.1172 245.333 39.1172 244.484C39.1172 243.51 39.5286 242.714 40.3516 242.094C41.1745 241.469 42.2188 241.156 43.4844 241.156C44.3021 241.156 45.0521 241.234 45.7344 241.391C46.4167 241.547 47.0208 241.74 47.5469 241.969V243.797H47.4375C46.9948 243.422 46.4115 243.112 45.6875 242.867C44.9688 242.617 44.2318 242.492 43.4766 242.492C42.6484 242.492 41.9818 242.664 41.4766 243.008C40.9766 243.352 40.7266 243.794 40.7266 244.336C40.7266 244.82 40.8516 245.201 41.1016 245.477C41.3516 245.753 41.7917 245.964 42.4219 246.109C42.7552 246.182 43.2292 246.271 43.8438 246.375C44.4583 246.479 44.9792 246.586 45.4062 246.695C46.2708 246.924 46.9219 247.271 47.3594 247.734C47.7969 248.198 48.0156 248.846 48.0156 249.68ZM57.6875 248.789H51.2578C51.2578 249.326 51.3385 249.794 51.5 250.195C51.6615 250.591 51.8828 250.917 52.1641 251.172C52.4349 251.422 52.7552 251.609 53.125 251.734C53.5 251.859 53.9115 251.922 54.3594 251.922C54.9531 251.922 55.5495 251.805 56.1484 251.57C56.7526 251.331 57.1823 251.096 57.4375 250.867H57.5156V252.469C57.0208 252.677 56.5156 252.852 56 252.992C55.4844 253.133 54.9427 253.203 54.375 253.203C52.9271 253.203 51.7969 252.812 50.9844 252.031C50.1719 251.245 49.7656 250.13 49.7656 248.688C49.7656 247.26 50.1536 246.128 50.9297 245.289C51.7109 244.451 52.737 244.031 54.0078 244.031C55.1849 244.031 56.0911 244.375 56.7266 245.062C57.3672 245.75 57.6875 246.727 57.6875 247.992V248.789ZM56.2578 247.664C56.2526 246.893 56.0573 246.297 55.6719 245.875C55.2917 245.453 54.7109 245.242 53.9297 245.242C53.1432 245.242 52.5156 245.474 52.0469 245.938C51.5833 246.401 51.3203 246.977 51.2578 247.664H56.2578ZM72.6484 253H71.1797V248.031C71.1797 247.656 71.1615 247.294 71.125 246.945C71.0938 246.596 71.0234 246.318 70.9141 246.109C70.7943 245.885 70.6224 245.716 70.3984 245.602C70.1745 245.487 69.8516 245.43 69.4297 245.43C69.0182 245.43 68.6068 245.534 68.1953 245.742C67.7839 245.945 67.3724 246.206 66.9609 246.523C66.9766 246.643 66.9896 246.784 67 246.945C67.0104 247.102 67.0156 247.258 67.0156 247.414V253H65.5469V248.031C65.5469 247.646 65.5286 247.281 65.4922 246.938C65.4609 246.589 65.3906 246.31 65.2812 246.102C65.1615 245.878 64.9896 245.711 64.7656 245.602C64.5417 245.487 64.2188 245.43 63.7969 245.43C63.3958 245.43 62.9922 245.529 62.5859 245.727C62.1849 245.924 61.7839 246.177 61.3828 246.484V253H59.9141V244.273H61.3828V245.242C61.8411 244.862 62.2969 244.565 62.75 244.352C63.2083 244.138 63.6953 244.031 64.2109 244.031C64.8047 244.031 65.3073 244.156 65.7188 244.406C66.1354 244.656 66.4453 245.003 66.6484 245.445C67.2422 244.945 67.7839 244.586 68.2734 244.367C68.763 244.143 69.2865 244.031 69.8438 244.031C70.8021 244.031 71.5078 244.323 71.9609 244.906C72.4193 245.484 72.6484 246.294 72.6484 247.336V253ZM77.0547 242.812H75.3984V241.289H77.0547V242.812ZM76.9609 253H75.4922V244.273H76.9609V253ZM87.1641 253H85.6953V248.031C85.6953 247.63 85.6719 247.255 85.625 246.906C85.5781 246.552 85.4922 246.276 85.3672 246.078C85.237 245.859 85.0495 245.698 84.8047 245.594C84.5599 245.484 84.2422 245.43 83.8516 245.43C83.4505 245.43 83.0312 245.529 82.5938 245.727C82.1562 245.924 81.737 246.177 81.3359 246.484V253H79.8672V244.273H81.3359V245.242C81.7943 244.862 82.2682 244.565 82.7578 244.352C83.2474 244.138 83.75 244.031 84.2656 244.031C85.2083 244.031 85.9271 244.315 86.4219 244.883C86.9167 245.451 87.1641 246.268 87.1641 247.336V253ZM96.7734 253H95.3125V252.07C95.1823 252.159 95.0052 252.284 94.7812 252.445C94.5625 252.602 94.349 252.727 94.1406 252.82C93.8958 252.94 93.6146 253.039 93.2969 253.117C92.9792 253.201 92.6068 253.242 92.1797 253.242C91.3932 253.242 90.7266 252.982 90.1797 252.461C89.6328 251.94 89.3594 251.276 89.3594 250.469C89.3594 249.807 89.5 249.273 89.7812 248.867C90.0677 248.456 90.474 248.133 91 247.898C91.5312 247.664 92.1693 247.505 92.9141 247.422C93.6589 247.339 94.4583 247.276 95.3125 247.234V247.008C95.3125 246.674 95.2526 246.398 95.1328 246.18C95.0182 245.961 94.8516 245.789 94.6328 245.664C94.4245 245.544 94.1745 245.464 93.8828 245.422C93.5911 245.38 93.2865 245.359 92.9688 245.359C92.5833 245.359 92.1536 245.411 91.6797 245.516C91.2057 245.615 90.7161 245.76 90.2109 245.953H90.1328V244.461C90.4193 244.383 90.8333 244.297 91.375 244.203C91.9167 244.109 92.4505 244.062 92.9766 244.062C93.5911 244.062 94.125 244.115 94.5781 244.219C95.0365 244.318 95.4323 244.49 95.7656 244.734C96.0938 244.974 96.3438 245.284 96.5156 245.664C96.6875 246.044 96.7734 246.516 96.7734 247.078V253ZM95.3125 250.852V248.422C94.8646 248.448 94.3359 248.487 93.7266 248.539C93.1224 248.591 92.6432 248.667 92.2891 248.766C91.8672 248.885 91.526 249.073 91.2656 249.328C91.0052 249.578 90.875 249.924 90.875 250.367C90.875 250.867 91.026 251.245 91.3281 251.5C91.6302 251.75 92.0911 251.875 92.7109 251.875C93.2266 251.875 93.6979 251.776 94.125 251.578C94.5521 251.375 94.9479 251.133 95.3125 250.852ZM105.047 245.875H104.969C104.75 245.823 104.536 245.786 104.328 245.766C104.125 245.74 103.883 245.727 103.602 245.727C103.148 245.727 102.711 245.828 102.289 246.031C101.867 246.229 101.461 246.487 101.07 246.805V253H99.6016V244.273H101.07V245.562C101.654 245.094 102.167 244.763 102.609 244.57C103.057 244.372 103.513 244.273 103.977 244.273C104.232 244.273 104.417 244.281 104.531 244.297C104.646 244.307 104.818 244.331 105.047 244.367V245.875ZM107.914 253H106.445V240.844H107.914V253ZM117.602 253H116.141V252.07C116.01 252.159 115.833 252.284 115.609 252.445C115.391 252.602 115.177 252.727 114.969 252.82C114.724 252.94 114.443 253.039 114.125 253.117C113.807 253.201 113.435 253.242 113.008 253.242C112.221 253.242 111.555 252.982 111.008 252.461C110.461 251.94 110.188 251.276 110.188 250.469C110.188 249.807 110.328 249.273 110.609 248.867C110.896 248.456 111.302 248.133 111.828 247.898C112.359 247.664 112.997 247.505 113.742 247.422C114.487 247.339 115.286 247.276 116.141 247.234V247.008C116.141 246.674 116.081 246.398 115.961 246.18C115.846 245.961 115.68 245.789 115.461 245.664C115.253 245.544 115.003 245.464 114.711 245.422C114.419 245.38 114.115 245.359 113.797 245.359C113.411 245.359 112.982 245.411 112.508 245.516C112.034 245.615 111.544 245.76 111.039 245.953H110.961V244.461C111.247 244.383 111.661 244.297 112.203 244.203C112.745 244.109 113.279 244.062 113.805 244.062C114.419 244.062 114.953 244.115 115.406 244.219C115.865 244.318 116.26 244.49 116.594 244.734C116.922 244.974 117.172 245.284 117.344 245.664C117.516 246.044 117.602 246.516 117.602 247.078V253ZM116.141 250.852V248.422C115.693 248.448 115.164 248.487 114.555 248.539C113.951 248.591 113.471 248.667 113.117 248.766C112.695 248.885 112.354 249.073 112.094 249.328C111.833 249.578 111.703 249.924 111.703 250.367C111.703 250.867 111.854 251.245 112.156 251.5C112.458 251.75 112.919 251.875 113.539 251.875C114.055 251.875 114.526 251.776 114.953 251.578C115.38 251.375 115.776 251.133 116.141 250.852ZM125.875 245.875H125.797C125.578 245.823 125.365 245.786 125.156 245.766C124.953 245.74 124.711 245.727 124.43 245.727C123.977 245.727 123.539 245.828 123.117 246.031C122.695 246.229 122.289 246.487 121.898 246.805V253H120.43V244.273H121.898V245.562C122.482 245.094 122.995 244.763 123.438 244.57C123.885 244.372 124.341 244.273 124.805 244.273C125.06 244.273 125.245 244.281 125.359 244.297C125.474 244.307 125.646 244.331 125.875 244.367V245.875Z" fill="#333333"/>
<path d="M5 287L12.5 294.5L25 279.5" stroke="#61B857" stroke-width="2" stroke-linecap="round" stroke-linejoin="round"/>
<path d="M53.9609 289.922C53.9609 290.5 53.8516 291.01 53.6328 291.453C53.4141 291.896 53.1198 292.26 52.75 292.547C52.3125 292.891 51.8307 293.135 51.3047 293.281C50.7839 293.427 50.1198 293.5 49.3125 293.5H45.1875V281.867H48.6328C49.4818 281.867 50.1172 281.898 50.5391 281.961C50.9609 282.023 51.3646 282.154 51.75 282.352C52.1771 282.576 52.487 282.865 52.6797 283.219C52.8724 283.568 52.9688 283.987 52.9688 284.477C52.9688 285.029 52.8281 285.5 52.5469 285.891C52.2656 286.276 51.8906 286.586 51.4219 286.82V286.883C52.2083 287.044 52.8281 287.391 53.2812 287.922C53.7344 288.448 53.9609 289.115 53.9609 289.922ZM51.3594 284.68C51.3594 284.398 51.3125 284.161 51.2188 283.969C51.125 283.776 50.974 283.62 50.7656 283.5C50.5208 283.359 50.224 283.273 49.875 283.242C49.526 283.206 49.0938 283.188 48.5781 283.188H46.7344V286.547H48.7344C49.2188 286.547 49.6042 286.523 49.8906 286.477C50.1771 286.424 50.4427 286.32 50.6875 286.164C50.9323 286.008 51.1042 285.807 51.2031 285.562C51.3073 285.312 51.3594 285.018 51.3594 284.68ZM52.3516 289.984C52.3516 289.516 52.2812 289.143 52.1406 288.867C52 288.591 51.7448 288.357 51.375 288.164C51.125 288.034 50.8203 287.951 50.4609 287.914C50.1068 287.872 49.6745 287.852 49.1641 287.852H46.7344V292.18H48.7812C49.4583 292.18 50.013 292.146 50.4453 292.078C50.8776 292.005 51.2318 291.875 51.5078 291.688C51.7995 291.484 52.013 291.253 52.1484 290.992C52.2839 290.732 52.3516 290.396 52.3516 289.984ZM57.6172 283.312H55.9609V281.789H57.6172V283.312ZM57.5234 293.5H56.0547V284.773H57.5234V293.5ZM66.7578 293.5H59.7109V292.414L64.7969 286H59.8203V284.773H66.625V285.82L61.5156 292.258H66.7578V293.5ZM76.1328 293.5H74.6641V288.531C74.6641 288.13 74.6406 287.755 74.5938 287.406C74.5469 287.052 74.4609 286.776 74.3359 286.578C74.2057 286.359 74.0182 286.198 73.7734 286.094C73.5286 285.984 73.2109 285.93 72.8203 285.93C72.4193 285.93 72 286.029 71.5625 286.227C71.125 286.424 70.7057 286.677 70.3047 286.984V293.5H68.8359V284.773H70.3047V285.742C70.763 285.362 71.237 285.065 71.7266 284.852C72.2161 284.638 72.7188 284.531 73.2344 284.531C74.1771 284.531 74.8958 284.815 75.3906 285.383C75.8854 285.951 76.1328 286.768 76.1328 287.836V293.5ZM86.2656 289.289H79.8359C79.8359 289.826 79.9167 290.294 80.0781 290.695C80.2396 291.091 80.4609 291.417 80.7422 291.672C81.013 291.922 81.3333 292.109 81.7031 292.234C82.0781 292.359 82.4896 292.422 82.9375 292.422C83.5312 292.422 84.1276 292.305 84.7266 292.07C85.3307 291.831 85.7604 291.596 86.0156 291.367H86.0938V292.969C85.599 293.177 85.0938 293.352 84.5781 293.492C84.0625 293.633 83.5208 293.703 82.9531 293.703C81.5052 293.703 80.375 293.312 79.5625 292.531C78.75 291.745 78.3438 290.63 78.3438 289.188C78.3438 287.76 78.7318 286.628 79.5078 285.789C80.2891 284.951 81.3151 284.531 82.5859 284.531C83.763 284.531 84.6693 284.875 85.3047 285.562C85.9453 286.25 86.2656 287.227 86.2656 288.492V289.289ZM84.8359 288.164C84.8307 287.393 84.6354 286.797 84.25 286.375C83.8698 285.953 83.2891 285.742 82.5078 285.742C81.7214 285.742 81.0938 285.974 80.625 286.438C80.1615 286.901 79.8984 287.477 79.8359 288.164H84.8359ZM94.7266 290.984C94.7266 291.781 94.3958 292.435 93.7344 292.945C93.0781 293.456 92.1797 293.711 91.0391 293.711C90.3932 293.711 89.7995 293.635 89.2578 293.484C88.7214 293.328 88.2708 293.159 87.9062 292.977V291.328H87.9844C88.4479 291.677 88.9635 291.956 89.5312 292.164C90.099 292.367 90.6432 292.469 91.1641 292.469C91.8099 292.469 92.3151 292.365 92.6797 292.156C93.0443 291.948 93.2266 291.62 93.2266 291.172C93.2266 290.828 93.1276 290.568 92.9297 290.391C92.7318 290.214 92.3516 290.062 91.7891 289.938C91.5807 289.891 91.3073 289.836 90.9688 289.773C90.6354 289.711 90.3307 289.643 90.0547 289.57C89.2891 289.367 88.7448 289.07 88.4219 288.68C88.1042 288.284 87.9453 287.799 87.9453 287.227C87.9453 286.867 88.0182 286.529 88.1641 286.211C88.3151 285.893 88.5417 285.609 88.8438 285.359C89.1354 285.115 89.5052 284.922 89.9531 284.781C90.4062 284.635 90.9115 284.562 91.4688 284.562C91.9896 284.562 92.5156 284.628 93.0469 284.758C93.5833 284.883 94.0286 285.036 94.3828 285.219V286.789H94.3047C93.9297 286.513 93.474 286.281 92.9375 286.094C92.401 285.901 91.875 285.805 91.3594 285.805C90.8229 285.805 90.3698 285.909 90 286.117C89.6302 286.32 89.4453 286.625 89.4453 287.031C89.4453 287.391 89.5573 287.661 89.7812 287.844C90 288.026 90.3542 288.174 90.8438 288.289C91.1146 288.352 91.4167 288.414 91.75 288.477C92.0885 288.539 92.3698 288.596 92.5938 288.648C93.276 288.805 93.8021 289.073 94.1719 289.453C94.5417 289.839 94.7266 290.349 94.7266 290.984ZM103.945 293.5H102.477V281.344H103.945V293.5ZM113.633 293.5H112.172V292.57C112.042 292.659 111.865 292.784 111.641 292.945C111.422 293.102 111.208 293.227 111 293.32C110.755 293.44 110.474 293.539 110.156 293.617C109.839 293.701 109.466 293.742 109.039 293.742C108.253 293.742 107.586 293.482 107.039 292.961C106.492 292.44 106.219 291.776 106.219 290.969C106.219 290.307 106.359 289.773 106.641 289.367C106.927 288.956 107.333 288.633 107.859 288.398C108.391 288.164 109.029 288.005 109.773 287.922C110.518 287.839 111.318 287.776 112.172 287.734V287.508C112.172 287.174 112.112 286.898 111.992 286.68C111.878 286.461 111.711 286.289 111.492 286.164C111.284 286.044 111.034 285.964 110.742 285.922C110.451 285.88 110.146 285.859 109.828 285.859C109.443 285.859 109.013 285.911 108.539 286.016C108.065 286.115 107.576 286.26 107.07 286.453H106.992V284.961C107.279 284.883 107.693 284.797 108.234 284.703C108.776 284.609 109.31 284.562 109.836 284.562C110.451 284.562 110.984 284.615 111.438 284.719C111.896 284.818 112.292 284.99 112.625 285.234C112.953 285.474 113.203 285.784 113.375 286.164C113.547 286.544 113.633 287.016 113.633 287.578V293.5ZM112.172 291.352V288.922C111.724 288.948 111.195 288.987 110.586 289.039C109.982 289.091 109.503 289.167 109.148 289.266C108.727 289.385 108.385 289.573 108.125 289.828C107.865 290.078 107.734 290.424 107.734 290.867C107.734 291.367 107.885 291.745 108.188 292C108.49 292.25 108.951 292.375 109.57 292.375C110.086 292.375 110.557 292.276 110.984 292.078C111.411 291.875 111.807 291.633 112.172 291.352ZM123.539 292.508C123.539 293.987 123.203 295.073 122.531 295.766C121.859 296.458 120.826 296.805 119.43 296.805C118.966 296.805 118.513 296.771 118.07 296.703C117.633 296.641 117.201 296.549 116.773 296.43V294.93H116.852C117.091 295.023 117.471 295.138 117.992 295.273C118.513 295.414 119.034 295.484 119.555 295.484C120.055 295.484 120.469 295.424 120.797 295.305C121.125 295.185 121.38 295.018 121.562 294.805C121.745 294.602 121.875 294.357 121.953 294.07C122.031 293.784 122.07 293.464 122.07 293.109V292.312C121.628 292.667 121.203 292.932 120.797 293.109C120.396 293.281 119.883 293.367 119.258 293.367C118.216 293.367 117.388 292.992 116.773 292.242C116.164 291.487 115.859 290.424 115.859 289.055C115.859 288.305 115.964 287.659 116.172 287.117C116.385 286.57 116.674 286.099 117.039 285.703C117.378 285.333 117.789 285.047 118.273 284.844C118.758 284.635 119.24 284.531 119.719 284.531C120.224 284.531 120.646 284.583 120.984 284.688C121.328 284.786 121.69 284.94 122.07 285.148L122.164 284.773H123.539V292.508ZM122.07 291.102V286.344C121.68 286.167 121.315 286.042 120.977 285.969C120.643 285.891 120.31 285.852 119.977 285.852C119.169 285.852 118.534 286.122 118.07 286.664C117.607 287.206 117.375 287.992 117.375 289.023C117.375 290.003 117.547 290.745 117.891 291.25C118.234 291.755 118.805 292.008 119.602 292.008C120.029 292.008 120.456 291.927 120.883 291.766C121.315 291.599 121.711 291.378 122.07 291.102ZM133.734 289.289H127.305C127.305 289.826 127.385 290.294 127.547 290.695C127.708 291.091 127.93 291.417 128.211 291.672C128.482 291.922 128.802 292.109 129.172 292.234C129.547 292.359 129.958 292.422 130.406 292.422C131 292.422 131.596 292.305 132.195 292.07C132.799 291.831 133.229 291.596 133.484 291.367H133.562V292.969C133.068 293.177 132.562 293.352 132.047 293.492C131.531 293.633 130.99 293.703 130.422 293.703C128.974 293.703 127.844 293.312 127.031 292.531C126.219 291.745 125.812 290.63 125.812 289.188C125.812 287.76 126.201 286.628 126.977 285.789C127.758 284.951 128.784 284.531 130.055 284.531C131.232 284.531 132.138 284.875 132.773 285.562C133.414 286.25 133.734 287.227 133.734 288.492V289.289ZM132.305 288.164C132.299 287.393 132.104 286.797 131.719 286.375C131.339 285.953 130.758 285.742 129.977 285.742C129.19 285.742 128.562 285.974 128.094 286.438C127.63 286.901 127.367 287.477 127.305 288.164H132.305ZM141.406 286.375H141.328C141.109 286.323 140.896 286.286 140.688 286.266C140.484 286.24 140.242 286.227 139.961 286.227C139.508 286.227 139.07 286.328 138.648 286.531C138.227 286.729 137.82 286.987 137.43 287.305V293.5H135.961V284.773H137.43V286.062C138.013 285.594 138.526 285.263 138.969 285.07C139.417 284.872 139.872 284.773 140.336 284.773C140.591 284.773 140.776 284.781 140.891 284.797C141.005 284.807 141.177 284.831 141.406 284.867V286.375ZM144.273 293.5H142.805V281.344H144.273V293.5ZM153.961 293.5H152.5V292.57C152.37 292.659 152.193 292.784 151.969 292.945C151.75 293.102 151.536 293.227 151.328 293.32C151.083 293.44 150.802 293.539 150.484 293.617C150.167 293.701 149.794 293.742 149.367 293.742C148.581 293.742 147.914 293.482 147.367 292.961C146.82 292.44 146.547 291.776 146.547 290.969C146.547 290.307 146.688 289.773 146.969 289.367C147.255 288.956 147.661 288.633 148.188 288.398C148.719 288.164 149.357 288.005 150.102 287.922C150.846 287.839 151.646 287.776 152.5 287.734V287.508C152.5 287.174 152.44 286.898 152.32 286.68C152.206 286.461 152.039 286.289 151.82 286.164C151.612 286.044 151.362 285.964 151.07 285.922C150.779 285.88 150.474 285.859 150.156 285.859C149.771 285.859 149.341 285.911 148.867 286.016C148.393 286.115 147.904 286.26 147.398 286.453H147.32V284.961C147.607 284.883 148.021 284.797 148.562 284.703C149.104 284.609 149.638 284.562 150.164 284.562C150.779 284.562 151.312 284.615 151.766 284.719C152.224 284.818 152.62 284.99 152.953 285.234C153.281 285.474 153.531 285.784 153.703 286.164C153.875 286.544 153.961 287.016 153.961 287.578V293.5ZM152.5 291.352V288.922C152.052 288.948 151.523 288.987 150.914 289.039C150.31 289.091 149.831 289.167 149.477 289.266C149.055 289.385 148.714 289.573 148.453 289.828C148.193 290.078 148.062 290.424 148.062 290.867C148.062 291.367 148.214 291.745 148.516 292C148.818 292.25 149.279 292.375 149.898 292.375C150.414 292.375 150.885 292.276 151.312 292.078C151.74 291.875 152.135 291.633 152.5 291.352ZM162.234 286.375H162.156C161.938 286.323 161.724 286.286 161.516 286.266C161.312 286.24 161.07 286.227 160.789 286.227C160.336 286.227 159.898 286.328 159.477 286.531C159.055 286.729 158.648 286.987 158.258 287.305V293.5H156.789V284.773H158.258V286.062C158.841 285.594 159.354 285.263 159.797 285.07C160.245 284.872 160.701 284.773 161.164 284.773C161.419 284.773 161.604 284.781 161.719 284.797C161.833 284.807 162.005 284.831 162.234 284.867V286.375ZM165.195 283.312H163.539V281.789H165.195V283.312ZM165.102 293.5H163.633V284.773H165.102V293.5Z" fill="#333333"/>
</svg>
