<svg width="40" height="40" viewBox="0 0 40 40" fill="none" xmlns="http://www.w3.org/2000/svg">
<path d="M5 20L4.29289 19.2929C3.90237 19.6834 3.90237 20.3166 4.29289 20.7071L5 20ZM35 20L35.7071 20.7071C36.0976 20.3166 36.0976 19.6834 35.7071 19.2929L35 20ZM30.7071 14.2929C30.3166 13.9024 29.6834 13.9024 29.2929 14.2929C28.9024 14.6834 28.9024 15.3166 29.2929 15.7071L30.7071 14.2929ZM29.2929 24.2929C28.9024 24.6834 28.9024 25.3166 29.2929 25.7071C29.6834 26.0976 30.3166 26.0976 30.7071 25.7071L29.2929 24.2929ZM9.29289 25.7071C9.68342 26.0976 10.3166 26.0976 10.7071 25.7071C11.0976 25.3166 11.0976 24.6834 10.7071 24.2929L9.29289 25.7071ZM10.7071 15.7071C11.0976 15.3166 11.0976 14.6834 10.7071 14.2929C10.3166 13.9024 9.68342 13.9024 9.29289 14.2929L10.7071 15.7071ZM5 21H35V19H5V21ZM29.2929 15.7071L34.2929 20.7071L35.7071 19.2929L30.7071 14.2929L29.2929 15.7071ZM34.2929 19.2929L29.2929 24.2929L30.7071 25.7071L35.7071 20.7071L34.2929 19.2929ZM10.7071 24.2929L5.70711 19.2929L4.29289 20.7071L9.29289 25.7071L10.7071 24.2929ZM5.70711 20.7071L10.7071 15.7071L9.29289 14.2929L4.29289 19.2929L5.70711 20.7071Z" fill="white"/>
</svg>
