<svg width="326" height="540" viewBox="0 0 326 540" fill="none" xmlns="http://www.w3.org/2000/svg">
<g filter="url(#filter0_d_170_4031)">
<rect x="17" y="15" width="286" height="500" rx="5" fill="white" shape-rendering="crispEdges"/>
<g filter="url(#filter1_d_170_4031)">
<path d="M68.9181 122.417C67.9597 122.417 67.043 122 66.418 121.167L62.2097 115.542C61.3347 114.375 60.1681 113.708 58.9181 113.625C57.6681 113.542 56.418 114.125 55.418 115.167C49.3763 121.625 44.793 121.084 42.5847 120.25C40.3347 119.375 36.543 116.5 36.543 107.25V60.3335C36.543 41.8335 41.8763 36.2085 59.3346 36.2085H90.7931C108.251 36.2085 113.585 41.8335 113.585 60.3335V78.0834C113.585 79.7918 112.168 81.2084 110.46 81.2084C108.751 81.2084 107.335 79.7918 107.335 78.0834V60.3335C107.335 45.2919 104.71 42.4585 90.7931 42.4585H59.3346C45.418 42.4585 42.793 45.2919 42.793 60.3335V107.25C42.793 111.625 43.8763 114.042 44.8763 114.417C45.6263 114.708 47.6681 114.292 50.8347 110.917C53.1264 108.5 56.1264 107.208 59.2514 107.375C62.3347 107.542 65.2514 109.167 67.2097 111.792L71.4597 117.417C72.5013 118.792 72.2097 120.75 70.8347 121.792C70.2097 122.25 69.5431 122.417 68.9181 122.417Z" fill="#1959AB"/>
<path d="M100.833 123.292C91.7501 123.292 84.375 115.917 84.375 106.833C84.375 97.7501 91.7501 90.375 100.833 90.375C109.917 90.375 117.292 97.7501 117.292 106.833C117.292 115.917 109.917 123.292 100.833 123.292ZM100.833 96.625C95.2084 96.625 90.625 101.208 90.625 106.833C90.625 112.458 95.2084 117.042 100.833 117.042C106.458 117.042 111.042 112.458 111.042 106.833C111.042 101.208 106.458 96.625 100.833 96.625Z" fill="#1959AB"/>
<path d="M116.666 125.791C115.874 125.791 115.083 125.5 114.458 124.875L110.291 120.708C109.083 119.5 109.083 117.5 110.291 116.292C111.499 115.083 113.499 115.083 114.708 116.292L118.874 120.458C120.083 121.667 120.083 123.666 118.874 124.875C118.249 125.5 117.458 125.791 116.666 125.791Z" fill="#1959AB"/>
<path d="M91.6654 63.2915H58.332C56.6237 63.2915 55.207 61.8748 55.207 60.1665C55.207 58.4582 56.6237 57.0415 58.332 57.0415H91.6654C93.3737 57.0415 94.7904 58.4582 94.7904 60.1665C94.7904 61.8748 93.3737 63.2915 91.6654 63.2915Z" fill="#1959AB"/>
<path d="M87.5 79.9585H62.5C60.7917 79.9585 59.375 78.5418 59.375 76.8335C59.375 75.1252 60.7917 73.7085 62.5 73.7085H87.5C89.2083 73.7085 90.625 75.1252 90.625 76.8335C90.625 78.5418 89.2083 79.9585 87.5 79.9585Z" fill="#1959AB"/>
</g>
<path d="M44.6172 189.09C45.3047 189.668 45.832 190.383 46.1992 191.234C46.5742 192.078 46.7617 193.047 46.7617 194.141C46.7617 195.219 46.5703 196.184 46.1875 197.035C45.8047 197.887 45.2539 198.613 44.5352 199.215C43.8008 199.816 42.9531 200.285 41.9922 200.621C41.0391 200.957 39.9297 201.168 38.6641 201.254V203.164H34.1875V201.254C32.9609 201.168 31.8516 200.957 30.8594 200.621C29.8672 200.277 29.0156 199.805 28.3047 199.203C27.5938 198.602 27.0469 197.879 26.6641 197.035C26.2812 196.191 26.0898 195.227 26.0898 194.141C26.0898 193.047 26.2734 192.09 26.6406 191.27C27.0078 190.449 27.5391 189.742 28.2344 189.148C28.9141 188.578 29.7656 188.125 30.7891 187.789C31.8125 187.445 32.9453 187.227 34.1875 187.133V185.352H38.6641V187.133C39.9531 187.203 41.0898 187.402 42.0742 187.73C43.0664 188.051 43.9141 188.504 44.6172 189.09ZM42.1094 194.07C42.1094 192.945 41.8125 192.031 41.2188 191.328C40.625 190.625 39.7734 190.199 38.6641 190.051V198.348C39.9531 198.121 40.8477 197.664 41.3477 196.977C41.8555 196.281 42.1094 195.312 42.1094 194.07ZM34.1875 198.348V190.051C33.0469 190.223 32.1875 190.645 31.6094 191.316C31.0312 191.98 30.7422 192.898 30.7422 194.07C30.7422 195.297 31 196.262 31.5156 196.965C32.0391 197.66 32.9297 198.121 34.1875 198.348ZM63.1445 203H59.0547V194.949L53.3359 203H49.8438V189.84H53.9336V197.047L59.2305 189.84H63.1445V203ZM80.4297 203H76.2109V197.387H71.3594V203H67.1406V189.84H71.3594V194.375H76.2109V189.84H80.4297V203ZM92.3828 199.566V196.824C91.8125 196.871 91.1953 196.938 90.5312 197.023C89.8672 197.102 89.3633 197.195 89.0195 197.305C88.5977 197.438 88.2734 197.633 88.0469 197.891C87.8281 198.141 87.7188 198.473 87.7188 198.887C87.7188 199.16 87.7422 199.383 87.7891 199.555C87.8359 199.727 87.9531 199.891 88.1406 200.047C88.3203 200.203 88.5352 200.32 88.7852 200.398C89.0352 200.469 89.4258 200.504 89.957 200.504C90.3789 200.504 90.8047 200.418 91.2344 200.246C91.6719 200.074 92.0547 199.848 92.3828 199.566ZM92.3828 201.605C92.1562 201.777 91.875 201.984 91.5391 202.227C91.2031 202.469 90.8867 202.66 90.5898 202.801C90.1758 202.988 89.7461 203.125 89.3008 203.211C88.8555 203.305 88.3672 203.352 87.8359 203.352C86.5859 203.352 85.5391 202.965 84.6953 202.191C83.8516 201.418 83.4297 200.43 83.4297 199.227C83.4297 198.266 83.6445 197.48 84.0742 196.871C84.5039 196.262 85.1133 195.781 85.9023 195.43C86.6836 195.078 87.6523 194.828 88.8086 194.68C89.9648 194.531 91.1641 194.422 92.4062 194.352V194.281C92.4062 193.555 92.1094 193.055 91.5156 192.781C90.9219 192.5 90.0469 192.359 88.8906 192.359C88.1953 192.359 87.4531 192.484 86.6641 192.734C85.875 192.977 85.3086 193.164 84.9648 193.297H84.5781V190.121C85.0234 190.004 85.7461 189.867 86.7461 189.711C87.7539 189.547 88.7617 189.465 89.7695 189.465C92.168 189.465 93.8984 189.836 94.9609 190.578C96.0312 191.312 96.5664 192.469 96.5664 194.047V203H92.3828V201.605ZM113.734 203H109.516V197.387H104.664V203H100.445V189.84H104.664V194.375H109.516V189.84H113.734V203ZM124.574 203.352C123.426 203.352 122.375 203.215 121.422 202.941C120.477 202.668 119.652 202.246 118.949 201.676C118.254 201.105 117.715 200.387 117.332 199.52C116.949 198.652 116.758 197.637 116.758 196.473C116.758 195.246 116.961 194.188 117.367 193.297C117.781 192.406 118.355 191.668 119.09 191.082C119.801 190.527 120.621 190.121 121.551 189.863C122.48 189.605 123.445 189.477 124.445 189.477C125.344 189.477 126.172 189.574 126.93 189.77C127.688 189.965 128.395 190.219 129.051 190.531V194.129H128.453C128.289 193.988 128.09 193.824 127.855 193.637C127.629 193.449 127.348 193.266 127.012 193.086C126.691 192.914 126.34 192.773 125.957 192.664C125.574 192.547 125.129 192.488 124.621 192.488C123.496 192.488 122.629 192.848 122.02 193.566C121.418 194.277 121.117 195.246 121.117 196.473C121.117 197.738 121.426 198.699 122.043 199.355C122.668 200.012 123.551 200.34 124.691 200.34C125.223 200.34 125.699 200.281 126.121 200.164C126.551 200.039 126.906 199.895 127.188 199.73C127.453 199.574 127.688 199.41 127.891 199.238C128.094 199.066 128.281 198.898 128.453 198.734H129.051V202.332C128.387 202.645 127.691 202.891 126.965 203.07C126.246 203.258 125.449 203.352 124.574 203.352ZM145.387 203H141.297V194.949L135.578 203H132.086V189.84H136.176V197.047L141.473 189.84H145.387V203ZM163.117 196.238C163.117 197.324 162.949 198.312 162.613 199.203C162.285 200.094 161.852 200.828 161.312 201.406C160.75 202.016 160.113 202.477 159.402 202.789C158.691 203.102 157.93 203.258 157.117 203.258C156.367 203.258 155.73 203.176 155.207 203.012C154.684 202.855 154.148 202.633 153.602 202.344V207.828H149.383V189.84H153.602V191.211C154.25 190.695 154.91 190.277 155.582 189.957C156.262 189.637 157.043 189.477 157.926 189.477C159.566 189.477 160.84 190.078 161.746 191.281C162.66 192.484 163.117 194.137 163.117 196.238ZM158.77 196.32C158.77 195.039 158.551 194.109 158.113 193.531C157.676 192.953 156.984 192.664 156.039 192.664C155.641 192.664 155.23 192.727 154.809 192.852C154.387 192.969 153.984 193.141 153.602 193.367V199.988C153.883 200.098 154.184 200.168 154.504 200.199C154.824 200.23 155.141 200.246 155.453 200.246C156.57 200.246 157.402 199.922 157.949 199.273C158.496 198.617 158.77 197.633 158.77 196.32ZM179.617 196.426C179.617 198.59 178.984 200.297 177.719 201.547C176.461 202.789 174.691 203.41 172.41 203.41C170.129 203.41 168.355 202.789 167.09 201.547C165.832 200.297 165.203 198.59 165.203 196.426C165.203 194.246 165.836 192.535 167.102 191.293C168.375 190.051 170.145 189.43 172.41 189.43C174.707 189.43 176.48 190.055 177.73 191.305C178.988 192.555 179.617 194.262 179.617 196.426ZM174.426 199.625C174.699 199.289 174.902 198.887 175.035 198.418C175.176 197.941 175.246 197.285 175.246 196.449C175.246 195.676 175.176 195.027 175.035 194.504C174.895 193.98 174.699 193.562 174.449 193.25C174.199 192.93 173.898 192.703 173.547 192.57C173.195 192.438 172.816 192.371 172.41 192.371C172.004 192.371 171.641 192.426 171.32 192.535C171.008 192.645 170.707 192.863 170.418 193.191C170.16 193.496 169.953 193.914 169.797 194.445C169.648 194.977 169.574 195.645 169.574 196.449C169.574 197.168 169.641 197.793 169.773 198.324C169.906 198.848 170.102 199.27 170.359 199.59C170.609 199.895 170.906 200.117 171.25 200.258C171.602 200.398 172 200.469 172.445 200.469C172.828 200.469 173.191 200.406 173.535 200.281C173.887 200.148 174.184 199.93 174.426 199.625ZM195.836 199.027C195.836 199.66 195.707 200.223 195.449 200.715C195.199 201.207 194.863 201.617 194.441 201.945C193.91 202.359 193.348 202.641 192.754 202.789C192.168 202.93 191.469 203 190.656 203H182.641V189.84H190.316C191.277 189.84 191.984 189.871 192.438 189.934C192.891 189.996 193.336 190.148 193.773 190.391C194.234 190.641 194.578 190.973 194.805 191.387C195.039 191.801 195.156 192.293 195.156 192.863C195.156 193.512 194.969 194.082 194.594 194.574C194.227 195.059 193.781 195.43 193.258 195.688V195.816C193.984 195.996 194.594 196.359 195.086 196.906C195.586 197.445 195.836 198.152 195.836 199.027ZM190.902 193.801C190.902 193.316 190.754 192.973 190.457 192.77C190.168 192.566 189.699 192.465 189.051 192.465H186.824V195.09H189.121C189.691 195.09 190.129 194.977 190.434 194.75C190.746 194.516 190.902 194.199 190.902 193.801ZM191.488 198.898C191.488 198.328 191.324 197.93 190.996 197.703C190.676 197.469 190.199 197.352 189.566 197.352H186.824V200.363H189.637C190.215 200.363 190.668 200.234 190.996 199.977C191.324 199.711 191.488 199.352 191.488 198.898ZM206.875 199.566V196.824C206.305 196.871 205.688 196.938 205.023 197.023C204.359 197.102 203.855 197.195 203.512 197.305C203.09 197.438 202.766 197.633 202.539 197.891C202.32 198.141 202.211 198.473 202.211 198.887C202.211 199.16 202.234 199.383 202.281 199.555C202.328 199.727 202.445 199.891 202.633 200.047C202.812 200.203 203.027 200.32 203.277 200.398C203.527 200.469 203.918 200.504 204.449 200.504C204.871 200.504 205.297 200.418 205.727 200.246C206.164 200.074 206.547 199.848 206.875 199.566ZM206.875 201.605C206.648 201.777 206.367 201.984 206.031 202.227C205.695 202.469 205.379 202.66 205.082 202.801C204.668 202.988 204.238 203.125 203.793 203.211C203.348 203.305 202.859 203.352 202.328 203.352C201.078 203.352 200.031 202.965 199.188 202.191C198.344 201.418 197.922 200.43 197.922 199.227C197.922 198.266 198.137 197.48 198.566 196.871C198.996 196.262 199.605 195.781 200.395 195.43C201.176 195.078 202.145 194.828 203.301 194.68C204.457 194.531 205.656 194.422 206.898 194.352V194.281C206.898 193.555 206.602 193.055 206.008 192.781C205.414 192.5 204.539 192.359 203.383 192.359C202.688 192.359 201.945 192.484 201.156 192.734C200.367 192.977 199.801 193.164 199.457 193.297H199.07V190.121C199.516 190.004 200.238 189.867 201.238 189.711C202.246 189.547 203.254 189.465 204.262 189.465C206.66 189.465 208.391 189.836 209.453 190.578C210.523 191.312 211.059 192.469 211.059 194.047V203H206.875V201.605ZM228.227 203H224.008V197.387H219.156V203H214.938V189.84H219.156V194.375H224.008V189.84H228.227V203ZM245.512 203H241.422V194.949L235.703 203H232.211V189.84H236.301V197.047L241.598 189.84H245.512V203ZM262.469 197.199H252.812C252.875 198.23 253.266 199.02 253.984 199.566C254.711 200.113 255.777 200.387 257.184 200.387C258.074 200.387 258.938 200.227 259.773 199.906C260.609 199.586 261.27 199.242 261.754 198.875H262.223V202.262C261.27 202.645 260.371 202.922 259.527 203.094C258.684 203.266 257.75 203.352 256.727 203.352C254.086 203.352 252.062 202.758 250.656 201.57C249.25 200.383 248.547 198.691 248.547 196.496C248.547 194.324 249.211 192.605 250.539 191.34C251.875 190.066 253.703 189.43 256.023 189.43C258.164 189.43 259.773 189.973 260.852 191.059C261.93 192.137 262.469 193.691 262.469 195.723V197.199ZM258.273 194.727C258.25 193.844 258.031 193.18 257.617 192.734C257.203 192.289 256.559 192.066 255.684 192.066C254.871 192.066 254.203 192.277 253.68 192.699C253.156 193.121 252.863 193.797 252.801 194.727H258.273Z" fill="#333333"/>
<path d="M30 239L37.5 246.5L50 231.5" stroke="#61B857" stroke-width="2" stroke-linecap="round" stroke-linejoin="round"/>
<path d="M73.3438 241.898C73.3438 242.461 73.2318 242.971 73.0078 243.43C72.7891 243.888 72.4948 244.26 72.125 244.547C71.6875 244.891 71.2188 245.135 70.7188 245.281C70.2188 245.427 69.5729 245.5 68.7812 245.5H64.5625V233.867H72.3516V235.242H66.1094V238.43H68.8281C69.6198 238.43 70.2656 238.477 70.7656 238.57C71.2656 238.659 71.737 238.875 72.1797 239.219C72.5755 239.526 72.8672 239.906 73.0547 240.359C73.2474 240.812 73.3438 241.326 73.3438 241.898ZM71.7266 241.93C71.7266 241.539 71.6615 241.195 71.5312 240.898C71.401 240.602 71.1979 240.362 70.9219 240.18C70.6354 239.987 70.3047 239.87 69.9297 239.828C69.5547 239.786 69.026 239.766 68.3438 239.766H66.1094V244.18H68.3047C68.9974 244.18 69.5286 244.146 69.8984 244.078C70.2734 244.01 70.6016 243.88 70.8828 243.688C71.1745 243.484 71.388 243.247 71.5234 242.977C71.6589 242.701 71.7266 242.352 71.7266 241.93ZM82.1953 245.5H80.7344V244.57C80.6042 244.659 80.4271 244.784 80.2031 244.945C79.9844 245.102 79.7708 245.227 79.5625 245.32C79.3177 245.44 79.0365 245.539 78.7188 245.617C78.401 245.701 78.0286 245.742 77.6016 245.742C76.8151 245.742 76.1484 245.482 75.6016 244.961C75.0547 244.44 74.7812 243.776 74.7812 242.969C74.7812 242.307 74.9219 241.773 75.2031 241.367C75.4896 240.956 75.8958 240.633 76.4219 240.398C76.9531 240.164 77.5911 240.005 78.3359 239.922C79.0807 239.839 79.8802 239.776 80.7344 239.734V239.508C80.7344 239.174 80.6745 238.898 80.5547 238.68C80.4401 238.461 80.2734 238.289 80.0547 238.164C79.8464 238.044 79.5964 237.964 79.3047 237.922C79.013 237.88 78.7083 237.859 78.3906 237.859C78.0052 237.859 77.5755 237.911 77.1016 238.016C76.6276 238.115 76.138 238.26 75.6328 238.453H75.5547V236.961C75.8411 236.883 76.2552 236.797 76.7969 236.703C77.3385 236.609 77.8724 236.562 78.3984 236.562C79.013 236.562 79.5469 236.615 80 236.719C80.4583 236.818 80.8542 236.99 81.1875 237.234C81.5156 237.474 81.7656 237.784 81.9375 238.164C82.1094 238.544 82.1953 239.016 82.1953 239.578V245.5ZM80.7344 243.352V240.922C80.2865 240.948 79.7578 240.987 79.1484 241.039C78.5443 241.091 78.0651 241.167 77.7109 241.266C77.2891 241.385 76.9479 241.573 76.6875 241.828C76.4271 242.078 76.2969 242.424 76.2969 242.867C76.2969 243.367 76.4479 243.745 76.75 244C77.0521 244.25 77.513 244.375 78.1328 244.375C78.6484 244.375 79.1198 244.276 79.5469 244.078C79.974 243.875 80.3698 243.633 80.7344 243.352ZM91.0938 243.055C91.0938 243.544 90.9792 243.958 90.75 244.297C90.526 244.635 90.237 244.909 89.8828 245.117C89.5286 245.32 89.138 245.469 88.7109 245.562C88.2839 245.656 87.8568 245.703 87.4297 245.703C86.8255 245.703 86.25 245.646 85.7031 245.531C85.1562 245.417 84.6172 245.24 84.0859 245V243.391H84.1875C84.5677 243.724 85.0521 243.982 85.6406 244.164C86.2292 244.346 86.7995 244.438 87.3516 244.438C87.612 244.438 87.8802 244.414 88.1562 244.367C88.4323 244.315 88.6719 244.234 88.875 244.125C89.0938 244 89.2682 243.852 89.3984 243.68C89.5286 243.503 89.5938 243.263 89.5938 242.961C89.5938 242.648 89.5286 242.398 89.3984 242.211C89.2734 242.023 89.1016 241.883 88.8828 241.789C88.6693 241.695 88.4115 241.638 88.1094 241.617C87.8073 241.596 87.5312 241.586 87.2812 241.586H86.0078V240.32H86.8906C87.099 240.32 87.3698 240.312 87.7031 240.297C88.0417 240.281 88.3151 240.24 88.5234 240.172C88.7943 240.083 89.0078 239.958 89.1641 239.797C89.3255 239.635 89.4062 239.378 89.4062 239.023C89.4062 238.779 89.3438 238.578 89.2188 238.422C89.0938 238.26 88.9375 238.135 88.75 238.047C88.5573 237.958 88.3411 237.898 88.1016 237.867C87.8672 237.836 87.6589 237.82 87.4766 237.82C86.9453 237.82 86.4219 237.893 85.9062 238.039C85.3958 238.18 84.9661 238.385 84.6172 238.656H84.5156V237.039C84.9479 236.898 85.4115 236.784 85.9062 236.695C86.401 236.607 86.8958 236.562 87.3906 236.562C87.7969 236.562 88.2005 236.599 88.6016 236.672C89.0078 236.745 89.3854 236.87 89.7344 237.047C90.0781 237.224 90.3594 237.466 90.5781 237.773C90.7969 238.076 90.9062 238.451 90.9062 238.898C90.9062 239.357 90.763 239.76 90.4766 240.109C90.1953 240.453 89.8151 240.701 89.3359 240.852V240.906C89.8724 241.036 90.2995 241.281 90.6172 241.641C90.9349 241.995 91.0938 242.466 91.0938 243.055ZM100.195 245.5H98.7344V244.57C98.6042 244.659 98.4271 244.784 98.2031 244.945C97.9844 245.102 97.7708 245.227 97.5625 245.32C97.3177 245.44 97.0365 245.539 96.7188 245.617C96.401 245.701 96.0286 245.742 95.6016 245.742C94.8151 245.742 94.1484 245.482 93.6016 244.961C93.0547 244.44 92.7812 243.776 92.7812 242.969C92.7812 242.307 92.9219 241.773 93.2031 241.367C93.4896 240.956 93.8958 240.633 94.4219 240.398C94.9531 240.164 95.5911 240.005 96.3359 239.922C97.0807 239.839 97.8802 239.776 98.7344 239.734V239.508C98.7344 239.174 98.6745 238.898 98.5547 238.68C98.4401 238.461 98.2734 238.289 98.0547 238.164C97.8464 238.044 97.5964 237.964 97.3047 237.922C97.013 237.88 96.7083 237.859 96.3906 237.859C96.0052 237.859 95.5755 237.911 95.1016 238.016C94.6276 238.115 94.138 238.26 93.6328 238.453H93.5547V236.961C93.8411 236.883 94.2552 236.797 94.7969 236.703C95.3385 236.609 95.8724 236.562 96.3984 236.562C97.013 236.562 97.5469 236.615 98 236.719C98.4583 236.818 98.8542 236.99 99.1875 237.234C99.5156 237.474 99.7656 237.784 99.9375 238.164C100.109 238.544 100.195 239.016 100.195 239.578V245.5ZM98.7344 243.352V240.922C98.2865 240.948 97.7578 240.987 97.1484 241.039C96.5443 241.091 96.0651 241.167 95.7109 241.266C95.2891 241.385 94.9479 241.573 94.6875 241.828C94.4271 242.078 94.2969 242.424 94.2969 242.867C94.2969 243.367 94.4479 243.745 94.75 244C95.0521 244.25 95.513 244.375 96.1328 244.375C96.6484 244.375 97.1198 244.276 97.5469 244.078C97.974 243.875 98.3698 243.633 98.7344 243.352ZM118.438 248.133H116.969V245.469H108.75V248.133H107.281V244.125H108.219C108.896 243.01 109.435 241.557 109.836 239.766C110.242 237.969 110.445 236.003 110.445 233.867H117.336V244.125H118.438V248.133ZM115.789 244.125V235.211H111.898C111.826 237.07 111.596 238.773 111.211 240.32C110.826 241.862 110.326 243.13 109.711 244.125H115.789ZM127.367 245.5H125.906V244.57C125.776 244.659 125.599 244.784 125.375 244.945C125.156 245.102 124.943 245.227 124.734 245.32C124.49 245.44 124.208 245.539 123.891 245.617C123.573 245.701 123.201 245.742 122.773 245.742C121.987 245.742 121.32 245.482 120.773 244.961C120.227 244.44 119.953 243.776 119.953 242.969C119.953 242.307 120.094 241.773 120.375 241.367C120.661 240.956 121.068 240.633 121.594 240.398C122.125 240.164 122.763 240.005 123.508 239.922C124.253 239.839 125.052 239.776 125.906 239.734V239.508C125.906 239.174 125.846 238.898 125.727 238.68C125.612 238.461 125.445 238.289 125.227 238.164C125.018 238.044 124.768 237.964 124.477 237.922C124.185 237.88 123.88 237.859 123.562 237.859C123.177 237.859 122.747 237.911 122.273 238.016C121.799 238.115 121.31 238.26 120.805 238.453H120.727V236.961C121.013 236.883 121.427 236.797 121.969 236.703C122.51 236.609 123.044 236.562 123.57 236.562C124.185 236.562 124.719 236.615 125.172 236.719C125.63 236.818 126.026 236.99 126.359 237.234C126.688 237.474 126.938 237.784 127.109 238.164C127.281 238.544 127.367 239.016 127.367 239.578V245.5ZM125.906 243.352V240.922C125.458 240.948 124.93 240.987 124.32 241.039C123.716 241.091 123.237 241.167 122.883 241.266C122.461 241.385 122.12 241.573 121.859 241.828C121.599 242.078 121.469 242.424 121.469 242.867C121.469 243.367 121.62 243.745 121.922 244C122.224 244.25 122.685 244.375 123.305 244.375C123.82 244.375 124.292 244.276 124.719 244.078C125.146 243.875 125.542 243.633 125.906 243.352ZM137.5 245.5H136.031V241.57H131.664V245.5H130.195V236.773H131.664V240.305H136.031V236.773H137.5V245.5ZM147.703 245.5H146.234V241.57H141.867V245.5H140.398V236.773H141.867V240.305H146.234V236.773H147.703V245.5ZM155.977 242.82C155.977 242.555 155.93 242.323 155.836 242.125C155.747 241.922 155.599 241.758 155.391 241.633C155.172 241.503 154.922 241.424 154.641 241.398C154.365 241.372 153.966 241.359 153.445 241.359H152.07V244.328H153.414C153.935 244.328 154.339 244.307 154.625 244.266C154.911 244.219 155.159 244.133 155.367 244.008C155.581 243.872 155.734 243.714 155.828 243.531C155.927 243.344 155.977 243.107 155.977 242.82ZM157.492 242.797C157.492 243.219 157.406 243.602 157.234 243.945C157.068 244.289 156.839 244.568 156.547 244.781C156.203 245.042 155.836 245.227 155.445 245.336C155.055 245.445 154.552 245.5 153.938 245.5H150.602V236.773H152.07V240.172H153.977C154.633 240.172 155.141 240.206 155.5 240.273C155.865 240.341 156.227 240.508 156.586 240.773C156.888 240.997 157.115 241.284 157.266 241.633C157.417 241.982 157.492 242.37 157.492 242.797ZM158.953 236.773H160.422V245.5H158.953V236.773ZM170.875 245.5H169.023L166.547 242.148L164.055 245.5H162.344L165.75 241.148L162.375 236.773H164.227L166.688 240.07L169.156 236.773H170.875L167.445 241.07L170.875 245.5Z" fill="#333333"/>
<path d="M30 285L37.5 292.5L50 277.5" stroke="#61B857" stroke-width="2" stroke-linecap="round" stroke-linejoin="round"/>
<path d="M75.2812 285.602C75.2812 286.331 75.1641 286.979 74.9297 287.547C74.7005 288.109 74.3802 288.581 73.9688 288.961C73.526 289.372 72.987 289.701 72.3516 289.945C71.7161 290.185 71.0391 290.312 70.3203 290.328V291.625H68.7812V290.328C68.0833 290.312 67.4141 290.188 66.7734 289.953C66.1328 289.719 65.5859 289.388 65.1328 288.961C64.7214 288.576 64.3984 288.102 64.1641 287.539C63.9349 286.977 63.8203 286.331 63.8203 285.602C63.8203 284.893 63.9323 284.273 64.1562 283.742C64.3802 283.211 64.6901 282.747 65.0859 282.352C65.5078 281.93 66.0339 281.596 66.6641 281.352C67.2995 281.107 68.0052 280.974 68.7812 280.953V279.742H70.3203V280.953C71.0911 280.969 71.7969 281.104 72.4375 281.359C73.0781 281.615 73.6042 281.945 74.0156 282.352C74.4062 282.732 74.7135 283.193 74.9375 283.734C75.1667 284.276 75.2812 284.898 75.2812 285.602ZM73.6719 285.539C73.6719 285.023 73.5885 284.549 73.4219 284.117C73.2552 283.685 73.0182 283.32 72.7109 283.023C72.4089 282.732 72.0729 282.518 71.7031 282.383C71.3333 282.247 70.8724 282.174 70.3203 282.164V289.117C70.8099 289.107 71.2552 289.029 71.6562 288.883C72.0573 288.732 72.388 288.534 72.6484 288.289C72.987 287.977 73.2422 287.594 73.4141 287.141C73.5859 286.688 73.6719 286.154 73.6719 285.539ZM68.7812 289.117V282.164C68.2292 282.169 67.7682 282.242 67.3984 282.383C67.0286 282.523 66.6927 282.737 66.3906 283.023C66.0885 283.31 65.8516 283.674 65.6797 284.117C65.513 284.56 65.4297 285.034 65.4297 285.539C65.4297 286.122 65.5156 286.651 65.6875 287.125C65.8646 287.599 66.1198 287.987 66.4531 288.289C66.7083 288.523 67.0365 288.719 67.4375 288.875C67.8438 289.031 68.2917 289.112 68.7812 289.117ZM84.9062 291.5H83.4531V284.945L78.8828 291.5H77.5547V282.773H79.0078V289.234L83.5312 282.773H84.9062V291.5ZM95.1094 291.5H93.6406V287.57H89.2734V291.5H87.8047V282.773H89.2734V286.305H93.6406V282.773H95.1094V291.5ZM104.789 291.5H103.328V290.57C103.198 290.659 103.021 290.784 102.797 290.945C102.578 291.102 102.365 291.227 102.156 291.32C101.911 291.44 101.63 291.539 101.312 291.617C100.995 291.701 100.622 291.742 100.195 291.742C99.4089 291.742 98.7422 291.482 98.1953 290.961C97.6484 290.44 97.375 289.776 97.375 288.969C97.375 288.307 97.5156 287.773 97.7969 287.367C98.0833 286.956 98.4896 286.633 99.0156 286.398C99.5469 286.164 100.185 286.005 100.93 285.922C101.674 285.839 102.474 285.776 103.328 285.734V285.508C103.328 285.174 103.268 284.898 103.148 284.68C103.034 284.461 102.867 284.289 102.648 284.164C102.44 284.044 102.19 283.964 101.898 283.922C101.607 283.88 101.302 283.859 100.984 283.859C100.599 283.859 100.169 283.911 99.6953 284.016C99.2214 284.115 98.7318 284.26 98.2266 284.453H98.1484V282.961C98.4349 282.883 98.849 282.797 99.3906 282.703C99.9323 282.609 100.466 282.562 100.992 282.562C101.607 282.562 102.141 282.615 102.594 282.719C103.052 282.818 103.448 282.99 103.781 283.234C104.109 283.474 104.359 283.784 104.531 284.164C104.703 284.544 104.789 285.016 104.789 285.578V291.5ZM103.328 289.352V286.922C102.88 286.948 102.352 286.987 101.742 287.039C101.138 287.091 100.659 287.167 100.305 287.266C99.8828 287.385 99.5417 287.573 99.2812 287.828C99.0208 288.078 98.8906 288.424 98.8906 288.867C98.8906 289.367 99.0417 289.745 99.3438 290C99.6458 290.25 100.107 290.375 100.727 290.375C101.242 290.375 101.714 290.276 102.141 290.078C102.568 289.875 102.964 289.633 103.328 289.352ZM114.922 291.5H113.453V287.57H109.086V291.5H107.617V282.773H109.086V286.305H113.453V282.773H114.922V291.5ZM124.352 290.953C123.753 291.234 123.237 291.427 122.805 291.531C122.378 291.641 121.951 291.695 121.523 291.695C120.888 291.695 120.305 291.604 119.773 291.422C119.242 291.234 118.786 290.953 118.406 290.578C118.026 290.203 117.729 289.729 117.516 289.156C117.307 288.583 117.203 287.914 117.203 287.148C117.203 285.758 117.589 284.648 118.359 283.82C119.13 282.987 120.185 282.57 121.523 282.57C122.029 282.57 122.523 282.641 123.008 282.781C123.497 282.922 123.945 283.094 124.352 283.297V284.93H124.266C123.781 284.56 123.302 284.286 122.828 284.109C122.359 283.932 121.904 283.844 121.461 283.844C120.591 283.844 119.917 284.135 119.438 284.719C118.964 285.302 118.727 286.112 118.727 287.148C118.727 288.185 118.964 288.99 119.438 289.562C119.911 290.135 120.586 290.422 121.461 290.422C121.768 290.422 122.073 290.383 122.375 290.305C122.682 290.227 122.961 290.125 123.211 290C123.409 289.901 123.612 289.784 123.82 289.648C124.034 289.508 124.182 289.404 124.266 289.336H124.352V290.953ZM133.805 287.141C133.805 288.562 133.44 289.685 132.711 290.508C131.982 291.331 131.005 291.742 129.781 291.742C128.547 291.742 127.565 291.331 126.836 290.508C126.112 289.685 125.75 288.562 125.75 287.141C125.75 285.719 126.112 284.596 126.836 283.773C127.565 282.945 128.547 282.531 129.781 282.531C131.005 282.531 131.982 282.945 132.711 283.773C133.44 284.596 133.805 285.719 133.805 287.141ZM132.289 287.141C132.289 286.01 132.068 285.172 131.625 284.625C131.182 284.073 130.568 283.797 129.781 283.797C128.984 283.797 128.365 284.073 127.922 284.625C127.484 285.172 127.266 286.01 127.266 287.141C127.266 288.234 127.487 289.065 127.93 289.633C128.372 290.195 128.99 290.477 129.781 290.477C130.562 290.477 131.174 290.198 131.617 289.641C132.065 289.078 132.289 288.245 132.289 287.141ZM143.289 288.859C143.289 289.281 143.203 289.656 143.031 289.984C142.865 290.312 142.633 290.586 142.336 290.805C142.003 291.049 141.638 291.227 141.242 291.336C140.852 291.445 140.336 291.5 139.695 291.5H136.086V282.773H139.461C140.112 282.773 140.602 282.797 140.93 282.844C141.263 282.885 141.576 282.982 141.867 283.133C142.195 283.305 142.435 283.529 142.586 283.805C142.742 284.081 142.82 284.406 142.82 284.781C142.82 285.214 142.698 285.589 142.453 285.906C142.208 286.224 141.893 286.471 141.508 286.648V286.727C142.023 286.852 142.448 287.094 142.781 287.453C143.12 287.807 143.289 288.276 143.289 288.859ZM141.312 285.008C141.312 284.82 141.271 284.651 141.188 284.5C141.109 284.349 140.987 284.232 140.82 284.148C140.602 284.039 140.354 283.979 140.078 283.969C139.807 283.953 139.471 283.945 139.07 283.945H137.539V286.336H139.375C139.76 286.336 140.044 286.323 140.227 286.297C140.414 286.266 140.602 286.193 140.789 286.078C140.987 285.953 141.122 285.807 141.195 285.641C141.273 285.469 141.312 285.258 141.312 285.008ZM141.773 288.867C141.773 288.581 141.727 288.349 141.633 288.172C141.539 287.99 141.333 287.823 141.016 287.672C140.818 287.578 140.604 287.523 140.375 287.508C140.146 287.487 139.828 287.477 139.422 287.477H137.539V290.328H138.93C139.513 290.328 139.961 290.31 140.273 290.273C140.591 290.232 140.865 290.146 141.094 290.016C141.323 289.885 141.492 289.727 141.602 289.539C141.716 289.352 141.773 289.128 141.773 288.867ZM152.383 291.5H150.922V290.57C150.792 290.659 150.615 290.784 150.391 290.945C150.172 291.102 149.958 291.227 149.75 291.32C149.505 291.44 149.224 291.539 148.906 291.617C148.589 291.701 148.216 291.742 147.789 291.742C147.003 291.742 146.336 291.482 145.789 290.961C145.242 290.44 144.969 289.776 144.969 288.969C144.969 288.307 145.109 287.773 145.391 287.367C145.677 286.956 146.083 286.633 146.609 286.398C147.141 286.164 147.779 286.005 148.523 285.922C149.268 285.839 150.068 285.776 150.922 285.734V285.508C150.922 285.174 150.862 284.898 150.742 284.68C150.628 284.461 150.461 284.289 150.242 284.164C150.034 284.044 149.784 283.964 149.492 283.922C149.201 283.88 148.896 283.859 148.578 283.859C148.193 283.859 147.763 283.911 147.289 284.016C146.815 284.115 146.326 284.26 145.82 284.453H145.742V282.961C146.029 282.883 146.443 282.797 146.984 282.703C147.526 282.609 148.06 282.562 148.586 282.562C149.201 282.562 149.734 282.615 150.188 282.719C150.646 282.818 151.042 282.99 151.375 283.234C151.703 283.474 151.953 283.784 152.125 284.164C152.297 284.544 152.383 285.016 152.383 285.578V291.5ZM150.922 289.352V286.922C150.474 286.948 149.945 286.987 149.336 287.039C148.732 287.091 148.253 287.167 147.898 287.266C147.477 287.385 147.135 287.573 146.875 287.828C146.615 288.078 146.484 288.424 146.484 288.867C146.484 289.367 146.635 289.745 146.938 290C147.24 290.25 147.701 290.375 148.32 290.375C148.836 290.375 149.307 290.276 149.734 290.078C150.161 289.875 150.557 289.633 150.922 289.352ZM161.914 291.5H160.445V288.039H158.719L156.016 291.5H154.289L157.227 287.898C156.471 287.69 155.919 287.372 155.57 286.945C155.221 286.513 155.047 285.948 155.047 285.25C155.047 284.786 155.151 284.393 155.359 284.07C155.568 283.747 155.831 283.484 156.148 283.281C156.461 283.083 156.82 282.951 157.227 282.883C157.633 282.81 158.076 282.773 158.555 282.773H161.914V291.5ZM160.445 286.883V283.945H158.594C158.193 283.945 157.904 283.958 157.727 283.984C157.549 284.01 157.357 284.081 157.148 284.195C156.945 284.31 156.794 284.466 156.695 284.664C156.602 284.857 156.555 285.068 156.555 285.297C156.555 285.583 156.583 285.815 156.641 285.992C156.703 286.169 156.828 286.336 157.016 286.492C157.208 286.643 157.443 286.747 157.719 286.805C157.995 286.857 158.302 286.883 158.641 286.883H160.445ZM179.898 291.5H177.914L173.188 286.195H172.133V291.5H170.586V279.867H172.133V285.086C172.398 285.081 172.648 285.055 172.883 285.008C173.117 284.961 173.339 284.872 173.547 284.742C173.755 284.622 173.961 284.453 174.164 284.234C174.367 284.01 174.547 283.737 174.703 283.414C174.771 283.273 174.849 283.096 174.938 282.883C175.031 282.669 175.125 282.445 175.219 282.211C175.578 281.346 175.997 280.74 176.477 280.391C176.961 280.042 177.672 279.867 178.609 279.867H179.227V281.25H178.578C178.219 281.25 177.938 281.284 177.734 281.352C177.531 281.414 177.349 281.521 177.188 281.672C177.036 281.807 176.904 281.99 176.789 282.219C176.68 282.448 176.565 282.716 176.445 283.023C176.174 283.711 175.898 284.216 175.617 284.539C175.341 284.862 174.969 285.143 174.5 285.383L179.898 291.5ZM188.961 287.141C188.961 288.562 188.596 289.685 187.867 290.508C187.138 291.331 186.161 291.742 184.938 291.742C183.703 291.742 182.721 291.331 181.992 290.508C181.268 289.685 180.906 288.562 180.906 287.141C180.906 285.719 181.268 284.596 181.992 283.773C182.721 282.945 183.703 282.531 184.938 282.531C186.161 282.531 187.138 282.945 187.867 283.773C188.596 284.596 188.961 285.719 188.961 287.141ZM187.445 287.141C187.445 286.01 187.224 285.172 186.781 284.625C186.339 284.073 185.724 283.797 184.938 283.797C184.141 283.797 183.521 284.073 183.078 284.625C182.641 285.172 182.422 286.01 182.422 287.141C182.422 288.234 182.643 289.065 183.086 289.633C183.529 290.195 184.146 290.477 184.938 290.477C185.719 290.477 186.331 290.198 186.773 289.641C187.221 289.078 187.445 288.245 187.445 287.141ZM198.547 291.5H197.078V287.57H192.711V291.5H191.242V282.773H192.711V286.305H197.078V282.773H198.547V291.5ZM207.977 290.953C207.378 291.234 206.862 291.427 206.43 291.531C206.003 291.641 205.576 291.695 205.148 291.695C204.513 291.695 203.93 291.604 203.398 291.422C202.867 291.234 202.411 290.953 202.031 290.578C201.651 290.203 201.354 289.729 201.141 289.156C200.932 288.583 200.828 287.914 200.828 287.148C200.828 285.758 201.214 284.648 201.984 283.82C202.755 282.987 203.81 282.57 205.148 282.57C205.654 282.57 206.148 282.641 206.633 282.781C207.122 282.922 207.57 283.094 207.977 283.297V284.93H207.891C207.406 284.56 206.927 284.286 206.453 284.109C205.984 283.932 205.529 283.844 205.086 283.844C204.216 283.844 203.542 284.135 203.062 284.719C202.589 285.302 202.352 286.112 202.352 287.148C202.352 288.185 202.589 288.99 203.062 289.562C203.536 290.135 204.211 290.422 205.086 290.422C205.393 290.422 205.698 290.383 206 290.305C206.307 290.227 206.586 290.125 206.836 290C207.034 289.901 207.237 289.784 207.445 289.648C207.659 289.508 207.807 289.404 207.891 289.336H207.977V290.953ZM217.539 282.773L212.445 294.719H210.875L212.5 291.078L209.023 282.773H210.617L213.297 289.242L216 282.773H217.539ZM226.5 291.5H225.031V284.008H221.773C221.758 284.44 221.742 284.857 221.727 285.258C221.711 285.659 221.695 286.021 221.68 286.344C221.643 287.214 221.583 287.909 221.5 288.43C221.417 288.945 221.307 289.375 221.172 289.719C221.047 290.042 220.906 290.305 220.75 290.508C220.599 290.706 220.435 290.885 220.258 291.047C220.081 291.203 219.883 291.32 219.664 291.398C219.451 291.477 219.216 291.516 218.961 291.516C218.872 291.516 218.742 291.513 218.57 291.508C218.404 291.503 218.294 291.5 218.242 291.5V290.219H218.32C218.362 290.219 218.422 290.221 218.5 290.227C218.578 290.232 218.643 290.234 218.695 290.234C218.82 290.234 218.948 290.216 219.078 290.18C219.214 290.143 219.328 290.076 219.422 289.977C219.688 289.716 219.901 289.276 220.062 288.656C220.224 288.036 220.331 287.141 220.383 285.969C220.404 285.542 220.422 285.036 220.438 284.453C220.458 283.865 220.477 283.305 220.492 282.773H226.5V291.5ZM234.852 288.82C234.852 288.555 234.805 288.323 234.711 288.125C234.622 287.922 234.474 287.758 234.266 287.633C234.047 287.503 233.797 287.424 233.516 287.398C233.24 287.372 232.841 287.359 232.32 287.359H230.867V290.328H232.289C232.81 290.328 233.214 290.307 233.5 290.266C233.786 290.219 234.034 290.133 234.242 290.008C234.456 289.872 234.609 289.714 234.703 289.531C234.802 289.344 234.852 289.107 234.852 288.82ZM236.367 288.797C236.367 289.219 236.281 289.602 236.109 289.945C235.943 290.289 235.714 290.568 235.422 290.781C235.078 291.042 234.711 291.227 234.32 291.336C233.93 291.445 233.427 291.5 232.812 291.5H229.398V282.773H230.867V286.172H232.852C233.508 286.172 234.016 286.206 234.375 286.273C234.74 286.341 235.102 286.508 235.461 286.773C235.763 286.997 235.99 287.284 236.141 287.633C236.292 287.982 236.367 288.37 236.367 288.797ZM244.953 284.062H241.797V291.5H240.328V284.062H237.172V282.773H244.953V284.062ZM253.258 291.5H251.797V290.57C251.667 290.659 251.49 290.784 251.266 290.945C251.047 291.102 250.833 291.227 250.625 291.32C250.38 291.44 250.099 291.539 249.781 291.617C249.464 291.701 249.091 291.742 248.664 291.742C247.878 291.742 247.211 291.482 246.664 290.961C246.117 290.44 245.844 289.776 245.844 288.969C245.844 288.307 245.984 287.773 246.266 287.367C246.552 286.956 246.958 286.633 247.484 286.398C248.016 286.164 248.654 286.005 249.398 285.922C250.143 285.839 250.943 285.776 251.797 285.734V285.508C251.797 285.174 251.737 284.898 251.617 284.68C251.503 284.461 251.336 284.289 251.117 284.164C250.909 284.044 250.659 283.964 250.367 283.922C250.076 283.88 249.771 283.859 249.453 283.859C249.068 283.859 248.638 283.911 248.164 284.016C247.69 284.115 247.201 284.26 246.695 284.453H246.617V282.961C246.904 282.883 247.318 282.797 247.859 282.703C248.401 282.609 248.935 282.562 249.461 282.562C250.076 282.562 250.609 282.615 251.062 282.719C251.521 282.818 251.917 282.99 252.25 283.234C252.578 283.474 252.828 283.784 253 284.164C253.172 284.544 253.258 285.016 253.258 285.578V291.5ZM251.797 289.352V286.922C251.349 286.948 250.82 286.987 250.211 287.039C249.607 287.091 249.128 287.167 248.773 287.266C248.352 287.385 248.01 287.573 247.75 287.828C247.49 288.078 247.359 288.424 247.359 288.867C247.359 289.367 247.51 289.745 247.812 290C248.115 290.25 248.576 290.375 249.195 290.375C249.711 290.375 250.182 290.276 250.609 290.078C251.036 289.875 251.432 289.633 251.797 289.352ZM263.008 291.5H256.086V282.773H257.555V290.234H261.852V282.773H263.32V290.234H264.375V293.594H263.008V291.5ZM273.75 291.5H272.297V284.945L267.727 291.5H266.398V282.773H267.852V289.234L272.375 282.773H273.75V291.5ZM283.352 291.5H281.883V288.039H280.156L277.453 291.5H275.727L278.664 287.898C277.909 287.69 277.357 287.372 277.008 286.945C276.659 286.513 276.484 285.948 276.484 285.25C276.484 284.786 276.589 284.393 276.797 284.07C277.005 283.747 277.268 283.484 277.586 283.281C277.898 283.083 278.258 282.951 278.664 282.883C279.07 282.81 279.513 282.773 279.992 282.773H283.352V291.5ZM281.883 286.883V283.945H280.031C279.63 283.945 279.341 283.958 279.164 283.984C278.987 284.01 278.794 284.081 278.586 284.195C278.383 284.31 278.232 284.466 278.133 284.664C278.039 284.857 277.992 285.068 277.992 285.297C277.992 285.583 278.021 285.815 278.078 285.992C278.141 286.169 278.266 286.336 278.453 286.492C278.646 286.643 278.88 286.747 279.156 286.805C279.432 286.857 279.74 286.883 280.078 286.883H281.883Z" fill="#333333"/>
<path d="M30 331L37.5 338.5L50 323.5" stroke="#61B857" stroke-width="2" stroke-linecap="round" stroke-linejoin="round"/>
<path d="M73.9141 332H71.9297L67.2031 326.695H66.1484V332H64.6016V320.367H66.1484V325.586C66.4141 325.581 66.6641 325.555 66.8984 325.508C67.1328 325.461 67.3542 325.372 67.5625 325.242C67.7708 325.122 67.9766 324.953 68.1797 324.734C68.3828 324.51 68.5625 324.237 68.7188 323.914C68.7865 323.773 68.8646 323.596 68.9531 323.383C69.0469 323.169 69.1406 322.945 69.2344 322.711C69.5938 321.846 70.013 321.24 70.4922 320.891C70.9766 320.542 71.6875 320.367 72.625 320.367H73.2422V321.75H72.5938C72.2344 321.75 71.9531 321.784 71.75 321.852C71.5469 321.914 71.3646 322.021 71.2031 322.172C71.0521 322.307 70.9193 322.49 70.8047 322.719C70.6953 322.948 70.5807 323.216 70.4609 323.523C70.1901 324.211 69.9141 324.716 69.6328 325.039C69.3568 325.362 68.9844 325.643 68.5156 325.883L73.9141 332ZM83.0859 323.273L77.9922 335.219H76.4219L78.0469 331.578L74.5703 323.273H76.1641L78.8438 329.742L81.5469 323.273H83.0859ZM92.6875 327.531C92.6875 328.24 92.5859 328.888 92.3828 329.477C92.1797 330.06 91.8932 330.555 91.5234 330.961C91.1797 331.346 90.7734 331.646 90.3047 331.859C89.8411 332.068 89.349 332.172 88.8281 332.172C88.375 332.172 87.9635 332.122 87.5938 332.023C87.2292 331.924 86.8568 331.771 86.4766 331.562V335.219H85.0078V323.273H86.4766V324.188C86.8672 323.859 87.3047 323.586 87.7891 323.367C88.2786 323.143 88.7995 323.031 89.3516 323.031C90.4036 323.031 91.2214 323.43 91.8047 324.227C92.3932 325.018 92.6875 326.12 92.6875 327.531ZM91.1719 327.57C91.1719 326.518 90.9922 325.732 90.6328 325.211C90.2734 324.69 89.7214 324.43 88.9766 324.43C88.5547 324.43 88.1302 324.521 87.7031 324.703C87.276 324.885 86.8672 325.125 86.4766 325.422V330.367C86.8932 330.555 87.25 330.682 87.5469 330.75C87.849 330.818 88.1901 330.852 88.5703 330.852C89.388 330.852 90.026 330.576 90.4844 330.023C90.9427 329.471 91.1719 328.654 91.1719 327.57ZM101.508 331.453C100.909 331.734 100.393 331.927 99.9609 332.031C99.5339 332.141 99.1068 332.195 98.6797 332.195C98.0443 332.195 97.4609 332.104 96.9297 331.922C96.3984 331.734 95.9427 331.453 95.5625 331.078C95.1823 330.703 94.8854 330.229 94.6719 329.656C94.4635 329.083 94.3594 328.414 94.3594 327.648C94.3594 326.258 94.7448 325.148 95.5156 324.32C96.2865 323.487 97.3411 323.07 98.6797 323.07C99.1849 323.07 99.6797 323.141 100.164 323.281C100.654 323.422 101.102 323.594 101.508 323.797V325.43H101.422C100.938 325.06 100.458 324.786 99.9844 324.609C99.5156 324.432 99.0599 324.344 98.6172 324.344C97.7474 324.344 97.0729 324.635 96.5938 325.219C96.1198 325.802 95.8828 326.612 95.8828 327.648C95.8828 328.685 96.1198 329.49 96.5938 330.062C97.0677 330.635 97.7422 330.922 98.6172 330.922C98.9245 330.922 99.2292 330.883 99.5312 330.805C99.8385 330.727 100.117 330.625 100.367 330.5C100.565 330.401 100.768 330.284 100.977 330.148C101.19 330.008 101.339 329.904 101.422 329.836H101.508V331.453ZM108.898 329.32C108.898 329.055 108.852 328.823 108.758 328.625C108.669 328.422 108.521 328.258 108.312 328.133C108.094 328.003 107.844 327.924 107.562 327.898C107.286 327.872 106.888 327.859 106.367 327.859H104.992V330.828H106.336C106.857 330.828 107.26 330.807 107.547 330.766C107.833 330.719 108.081 330.633 108.289 330.508C108.503 330.372 108.656 330.214 108.75 330.031C108.849 329.844 108.898 329.607 108.898 329.32ZM110.414 329.297C110.414 329.719 110.328 330.102 110.156 330.445C109.99 330.789 109.76 331.068 109.469 331.281C109.125 331.542 108.758 331.727 108.367 331.836C107.977 331.945 107.474 332 106.859 332H103.523V323.273H104.992V326.672H106.898C107.555 326.672 108.062 326.706 108.422 326.773C108.786 326.841 109.148 327.008 109.508 327.273C109.81 327.497 110.036 327.784 110.188 328.133C110.339 328.482 110.414 328.87 110.414 329.297ZM111.875 323.273H113.344V332H111.875V323.273ZM132.703 326.102C132.703 326.831 132.586 327.479 132.352 328.047C132.122 328.609 131.802 329.081 131.391 329.461C130.948 329.872 130.409 330.201 129.773 330.445C129.138 330.685 128.461 330.812 127.742 330.828V332.125H126.203V330.828C125.505 330.812 124.836 330.688 124.195 330.453C123.555 330.219 123.008 329.888 122.555 329.461C122.143 329.076 121.82 328.602 121.586 328.039C121.357 327.477 121.242 326.831 121.242 326.102C121.242 325.393 121.354 324.773 121.578 324.242C121.802 323.711 122.112 323.247 122.508 322.852C122.93 322.43 123.456 322.096 124.086 321.852C124.721 321.607 125.427 321.474 126.203 321.453V320.242H127.742V321.453C128.513 321.469 129.219 321.604 129.859 321.859C130.5 322.115 131.026 322.445 131.438 322.852C131.828 323.232 132.135 323.693 132.359 324.234C132.589 324.776 132.703 325.398 132.703 326.102ZM131.094 326.039C131.094 325.523 131.01 325.049 130.844 324.617C130.677 324.185 130.44 323.82 130.133 323.523C129.831 323.232 129.495 323.018 129.125 322.883C128.755 322.747 128.294 322.674 127.742 322.664V329.617C128.232 329.607 128.677 329.529 129.078 329.383C129.479 329.232 129.81 329.034 130.07 328.789C130.409 328.477 130.664 328.094 130.836 327.641C131.008 327.188 131.094 326.654 131.094 326.039ZM126.203 329.617V322.664C125.651 322.669 125.19 322.742 124.82 322.883C124.451 323.023 124.115 323.237 123.812 323.523C123.51 323.81 123.273 324.174 123.102 324.617C122.935 325.06 122.852 325.534 122.852 326.039C122.852 326.622 122.938 327.151 123.109 327.625C123.286 328.099 123.542 328.487 123.875 328.789C124.13 329.023 124.458 329.219 124.859 329.375C125.266 329.531 125.714 329.612 126.203 329.617ZM142.328 332H140.875V325.445L136.305 332H134.977V323.273H136.43V329.734L140.953 323.273H142.328V332ZM152.531 332H151.062V328.07H146.695V332H145.227V323.273H146.695V326.805H151.062V323.273H152.531V332ZM162.211 332H160.75V331.07C160.62 331.159 160.443 331.284 160.219 331.445C160 331.602 159.786 331.727 159.578 331.82C159.333 331.94 159.052 332.039 158.734 332.117C158.417 332.201 158.044 332.242 157.617 332.242C156.831 332.242 156.164 331.982 155.617 331.461C155.07 330.94 154.797 330.276 154.797 329.469C154.797 328.807 154.938 328.273 155.219 327.867C155.505 327.456 155.911 327.133 156.438 326.898C156.969 326.664 157.607 326.505 158.352 326.422C159.096 326.339 159.896 326.276 160.75 326.234V326.008C160.75 325.674 160.69 325.398 160.57 325.18C160.456 324.961 160.289 324.789 160.07 324.664C159.862 324.544 159.612 324.464 159.32 324.422C159.029 324.38 158.724 324.359 158.406 324.359C158.021 324.359 157.591 324.411 157.117 324.516C156.643 324.615 156.154 324.76 155.648 324.953H155.57V323.461C155.857 323.383 156.271 323.297 156.812 323.203C157.354 323.109 157.888 323.062 158.414 323.062C159.029 323.062 159.562 323.115 160.016 323.219C160.474 323.318 160.87 323.49 161.203 323.734C161.531 323.974 161.781 324.284 161.953 324.664C162.125 325.044 162.211 325.516 162.211 326.078V332ZM160.75 329.852V327.422C160.302 327.448 159.773 327.487 159.164 327.539C158.56 327.591 158.081 327.667 157.727 327.766C157.305 327.885 156.964 328.073 156.703 328.328C156.443 328.578 156.312 328.924 156.312 329.367C156.312 329.867 156.464 330.245 156.766 330.5C157.068 330.75 157.529 330.875 158.148 330.875C158.664 330.875 159.135 330.776 159.562 330.578C159.99 330.375 160.385 330.133 160.75 329.852ZM172.344 332H170.875V328.07H166.508V332H165.039V323.273H166.508V326.805H170.875V323.273H172.344V332ZM181.773 331.453C181.174 331.734 180.659 331.927 180.227 332.031C179.799 332.141 179.372 332.195 178.945 332.195C178.31 332.195 177.727 332.104 177.195 331.922C176.664 331.734 176.208 331.453 175.828 331.078C175.448 330.703 175.151 330.229 174.938 329.656C174.729 329.083 174.625 328.414 174.625 327.648C174.625 326.258 175.01 325.148 175.781 324.32C176.552 323.487 177.607 323.07 178.945 323.07C179.451 323.07 179.945 323.141 180.43 323.281C180.919 323.422 181.367 323.594 181.773 323.797V325.43H181.688C181.203 325.06 180.724 324.786 180.25 324.609C179.781 324.432 179.326 324.344 178.883 324.344C178.013 324.344 177.339 324.635 176.859 325.219C176.385 325.802 176.148 326.612 176.148 327.648C176.148 328.685 176.385 329.49 176.859 330.062C177.333 330.635 178.008 330.922 178.883 330.922C179.19 330.922 179.495 330.883 179.797 330.805C180.104 330.727 180.383 330.625 180.633 330.5C180.831 330.401 181.034 330.284 181.242 330.148C181.456 330.008 181.604 329.904 181.688 329.836H181.773V331.453ZM191.227 327.641C191.227 329.062 190.862 330.185 190.133 331.008C189.404 331.831 188.427 332.242 187.203 332.242C185.969 332.242 184.987 331.831 184.258 331.008C183.534 330.185 183.172 329.062 183.172 327.641C183.172 326.219 183.534 325.096 184.258 324.273C184.987 323.445 185.969 323.031 187.203 323.031C188.427 323.031 189.404 323.445 190.133 324.273C190.862 325.096 191.227 326.219 191.227 327.641ZM189.711 327.641C189.711 326.51 189.49 325.672 189.047 325.125C188.604 324.573 187.99 324.297 187.203 324.297C186.406 324.297 185.786 324.573 185.344 325.125C184.906 325.672 184.688 326.51 184.688 327.641C184.688 328.734 184.909 329.565 185.352 330.133C185.794 330.695 186.411 330.977 187.203 330.977C187.984 330.977 188.596 330.698 189.039 330.141C189.487 329.578 189.711 328.745 189.711 327.641ZM200.711 329.359C200.711 329.781 200.625 330.156 200.453 330.484C200.286 330.812 200.055 331.086 199.758 331.305C199.424 331.549 199.06 331.727 198.664 331.836C198.273 331.945 197.758 332 197.117 332H193.508V323.273H196.883C197.534 323.273 198.023 323.297 198.352 323.344C198.685 323.385 198.997 323.482 199.289 323.633C199.617 323.805 199.857 324.029 200.008 324.305C200.164 324.581 200.242 324.906 200.242 325.281C200.242 325.714 200.12 326.089 199.875 326.406C199.63 326.724 199.315 326.971 198.93 327.148V327.227C199.445 327.352 199.87 327.594 200.203 327.953C200.542 328.307 200.711 328.776 200.711 329.359ZM198.734 325.508C198.734 325.32 198.693 325.151 198.609 325C198.531 324.849 198.409 324.732 198.242 324.648C198.023 324.539 197.776 324.479 197.5 324.469C197.229 324.453 196.893 324.445 196.492 324.445H194.961V326.836H196.797C197.182 326.836 197.466 326.823 197.648 326.797C197.836 326.766 198.023 326.693 198.211 326.578C198.409 326.453 198.544 326.307 198.617 326.141C198.695 325.969 198.734 325.758 198.734 325.508ZM199.195 329.367C199.195 329.081 199.148 328.849 199.055 328.672C198.961 328.49 198.755 328.323 198.438 328.172C198.24 328.078 198.026 328.023 197.797 328.008C197.568 327.987 197.25 327.977 196.844 327.977H194.961V330.828H196.352C196.935 330.828 197.383 330.81 197.695 330.773C198.013 330.732 198.286 330.646 198.516 330.516C198.745 330.385 198.914 330.227 199.023 330.039C199.138 329.852 199.195 329.628 199.195 329.367ZM210.461 327.641C210.461 329.062 210.096 330.185 209.367 331.008C208.638 331.831 207.661 332.242 206.438 332.242C205.203 332.242 204.221 331.831 203.492 331.008C202.768 330.185 202.406 329.062 202.406 327.641C202.406 326.219 202.768 325.096 203.492 324.273C204.221 323.445 205.203 323.031 206.438 323.031C207.661 323.031 208.638 323.445 209.367 324.273C210.096 325.096 210.461 326.219 210.461 327.641ZM208.945 327.641C208.945 326.51 208.724 325.672 208.281 325.125C207.839 324.573 207.224 324.297 206.438 324.297C205.641 324.297 205.021 324.573 204.578 325.125C204.141 325.672 203.922 326.51 203.922 327.641C203.922 328.734 204.143 329.565 204.586 330.133C205.029 330.695 205.646 330.977 206.438 330.977C207.219 330.977 207.831 330.698 208.273 330.141C208.721 329.578 208.945 328.745 208.945 327.641ZM220.094 332H218.641V325.445L214.07 332H212.742V323.273H214.195V329.734L218.719 323.273H220.094V332ZM219.258 319.836C219.232 320.607 218.987 321.208 218.523 321.641C218.065 322.073 217.396 322.289 216.516 322.289C215.635 322.289 214.964 322.073 214.5 321.641C214.042 321.208 213.799 320.607 213.773 319.836H215.109C215.115 320.383 215.234 320.779 215.469 321.023C215.708 321.268 216.057 321.391 216.516 321.391C216.979 321.391 217.328 321.271 217.562 321.031C217.797 320.792 217.917 320.393 217.922 319.836H219.258ZM72.0781 340.742H66.1094V351H64.5625V339.367H72.0781V340.742ZM81.1875 346.531C81.1875 347.24 81.0859 347.888 80.8828 348.477C80.6797 349.06 80.3932 349.555 80.0234 349.961C79.6797 350.346 79.2734 350.646 78.8047 350.859C78.3411 351.068 77.849 351.172 77.3281 351.172C76.875 351.172 76.4635 351.122 76.0938 351.023C75.7292 350.924 75.3568 350.771 74.9766 350.562V354.219H73.5078V342.273H74.9766V343.188C75.3672 342.859 75.8047 342.586 76.2891 342.367C76.7786 342.143 77.2995 342.031 77.8516 342.031C78.9036 342.031 79.7214 342.43 80.3047 343.227C80.8932 344.018 81.1875 345.12 81.1875 346.531ZM79.6719 346.57C79.6719 345.518 79.4922 344.732 79.1328 344.211C78.7734 343.69 78.2214 343.43 77.4766 343.43C77.0547 343.43 76.6302 343.521 76.2031 343.703C75.776 343.885 75.3672 344.125 74.9766 344.422V349.367C75.3932 349.555 75.75 349.682 76.0469 349.75C76.349 349.818 76.6901 349.852 77.0703 349.852C77.888 349.852 78.526 349.576 78.9844 349.023C79.4427 348.471 79.6719 347.654 79.6719 346.57ZM90.2578 351H88.7969V350.07C88.6667 350.159 88.4896 350.284 88.2656 350.445C88.0469 350.602 87.8333 350.727 87.625 350.82C87.3802 350.94 87.099 351.039 86.7812 351.117C86.4635 351.201 86.0911 351.242 85.6641 351.242C84.8776 351.242 84.2109 350.982 83.6641 350.461C83.1172 349.94 82.8438 349.276 82.8438 348.469C82.8438 347.807 82.9844 347.273 83.2656 346.867C83.5521 346.456 83.9583 346.133 84.4844 345.898C85.0156 345.664 85.6536 345.505 86.3984 345.422C87.1432 345.339 87.9427 345.276 88.7969 345.234V345.008C88.7969 344.674 88.737 344.398 88.6172 344.18C88.5026 343.961 88.3359 343.789 88.1172 343.664C87.9089 343.544 87.6589 343.464 87.3672 343.422C87.0755 343.38 86.7708 343.359 86.4531 343.359C86.0677 343.359 85.638 343.411 85.1641 343.516C84.6901 343.615 84.2005 343.76 83.6953 343.953H83.6172V342.461C83.9036 342.383 84.3177 342.297 84.8594 342.203C85.401 342.109 85.9349 342.062 86.4609 342.062C87.0755 342.062 87.6094 342.115 88.0625 342.219C88.5208 342.318 88.9167 342.49 89.25 342.734C89.5781 342.974 89.8281 343.284 90 343.664C90.1719 344.044 90.2578 344.516 90.2578 345.078V351ZM88.7969 348.852V346.422C88.349 346.448 87.8203 346.487 87.2109 346.539C86.6068 346.591 86.1276 346.667 85.7734 346.766C85.3516 346.885 85.0104 347.073 84.75 347.328C84.4896 347.578 84.3594 347.924 84.3594 348.367C84.3594 348.867 84.5104 349.245 84.8125 349.5C85.1146 349.75 85.5755 349.875 86.1953 349.875C86.7109 349.875 87.1823 349.776 87.6094 349.578C88.0365 349.375 88.4323 349.133 88.7969 348.852ZM101.336 351H99.8828V344.109L97.7109 348.594H96.6172L94.4609 344.109V351H93.0859V342.273H94.8594L97.2344 347.156L99.5312 342.273H101.336V351ZM111.664 346.641C111.664 348.062 111.299 349.185 110.57 350.008C109.841 350.831 108.865 351.242 107.641 351.242C106.406 351.242 105.424 350.831 104.695 350.008C103.971 349.185 103.609 348.062 103.609 346.641C103.609 345.219 103.971 344.096 104.695 343.273C105.424 342.445 106.406 342.031 107.641 342.031C108.865 342.031 109.841 342.445 110.57 343.273C111.299 344.096 111.664 345.219 111.664 346.641ZM110.148 346.641C110.148 345.51 109.927 344.672 109.484 344.125C109.042 343.573 108.427 343.297 107.641 343.297C106.844 343.297 106.224 343.573 105.781 344.125C105.344 344.672 105.125 345.51 105.125 346.641C105.125 347.734 105.346 348.565 105.789 349.133C106.232 349.695 106.849 349.977 107.641 349.977C108.422 349.977 109.034 349.698 109.477 349.141C109.924 348.578 110.148 347.745 110.148 346.641ZM120.359 343.562H117.203V351H115.734V343.562H112.578V342.273H120.359V343.562ZM129.188 351H127.719V347.07H123.352V351H121.883V342.273H123.352V345.805H127.719V342.273H129.188V351ZM139.523 346.641C139.523 348.062 139.159 349.185 138.43 350.008C137.701 350.831 136.724 351.242 135.5 351.242C134.266 351.242 133.284 350.831 132.555 350.008C131.831 349.185 131.469 348.062 131.469 346.641C131.469 345.219 131.831 344.096 132.555 343.273C133.284 342.445 134.266 342.031 135.5 342.031C136.724 342.031 137.701 342.445 138.43 343.273C139.159 344.096 139.523 345.219 139.523 346.641ZM138.008 346.641C138.008 345.51 137.786 344.672 137.344 344.125C136.901 343.573 136.286 343.297 135.5 343.297C134.703 343.297 134.083 343.573 133.641 344.125C133.203 344.672 132.984 345.51 132.984 346.641C132.984 347.734 133.206 348.565 133.648 349.133C134.091 349.695 134.708 349.977 135.5 349.977C136.281 349.977 136.893 349.698 137.336 349.141C137.784 348.578 138.008 347.745 138.008 346.641ZM148.336 350.453C147.737 350.734 147.221 350.927 146.789 351.031C146.362 351.141 145.935 351.195 145.508 351.195C144.872 351.195 144.289 351.104 143.758 350.922C143.227 350.734 142.771 350.453 142.391 350.078C142.01 349.703 141.714 349.229 141.5 348.656C141.292 348.083 141.188 347.414 141.188 346.648C141.188 345.258 141.573 344.148 142.344 343.32C143.115 342.487 144.169 342.07 145.508 342.07C146.013 342.07 146.508 342.141 146.992 342.281C147.482 342.422 147.93 342.594 148.336 342.797V344.43H148.25C147.766 344.06 147.286 343.786 146.812 343.609C146.344 343.432 145.888 343.344 145.445 343.344C144.576 343.344 143.901 343.635 143.422 344.219C142.948 344.802 142.711 345.612 142.711 346.648C142.711 347.685 142.948 348.49 143.422 349.062C143.896 349.635 144.57 349.922 145.445 349.922C145.753 349.922 146.057 349.883 146.359 349.805C146.667 349.727 146.945 349.625 147.195 349.5C147.393 349.401 147.596 349.284 147.805 349.148C148.018 349.008 148.167 348.904 148.25 348.836H148.336V350.453ZM156.766 343.562H153.609V351H152.141V343.562H148.984V342.273H156.766V343.562ZM165.641 351H164.188V344.445L159.617 351H158.289V342.273H159.742V348.734L164.266 342.273H165.641V351Z" fill="#333333"/>
<path d="M30 385L37.5 392.5L50 377.5" stroke="#61B857" stroke-width="2" stroke-linecap="round" stroke-linejoin="round"/>
<path d="M75.2812 380.102C75.2812 380.831 75.1641 381.479 74.9297 382.047C74.7005 382.609 74.3802 383.081 73.9688 383.461C73.526 383.872 72.987 384.201 72.3516 384.445C71.7161 384.685 71.0391 384.812 70.3203 384.828V386.125H68.7812V384.828C68.0833 384.812 67.4141 384.688 66.7734 384.453C66.1328 384.219 65.5859 383.888 65.1328 383.461C64.7214 383.076 64.3984 382.602 64.1641 382.039C63.9349 381.477 63.8203 380.831 63.8203 380.102C63.8203 379.393 63.9323 378.773 64.1562 378.242C64.3802 377.711 64.6901 377.247 65.0859 376.852C65.5078 376.43 66.0339 376.096 66.6641 375.852C67.2995 375.607 68.0052 375.474 68.7812 375.453V374.242H70.3203V375.453C71.0911 375.469 71.7969 375.604 72.4375 375.859C73.0781 376.115 73.6042 376.445 74.0156 376.852C74.4062 377.232 74.7135 377.693 74.9375 378.234C75.1667 378.776 75.2812 379.398 75.2812 380.102ZM73.6719 380.039C73.6719 379.523 73.5885 379.049 73.4219 378.617C73.2552 378.185 73.0182 377.82 72.7109 377.523C72.4089 377.232 72.0729 377.018 71.7031 376.883C71.3333 376.747 70.8724 376.674 70.3203 376.664V383.617C70.8099 383.607 71.2552 383.529 71.6562 383.383C72.0573 383.232 72.388 383.034 72.6484 382.789C72.987 382.477 73.2422 382.094 73.4141 381.641C73.5859 381.188 73.6719 380.654 73.6719 380.039ZM68.7812 383.617V376.664C68.2292 376.669 67.7682 376.742 67.3984 376.883C67.0286 377.023 66.6927 377.237 66.3906 377.523C66.0885 377.81 65.8516 378.174 65.6797 378.617C65.513 379.06 65.4297 379.534 65.4297 380.039C65.4297 380.622 65.5156 381.151 65.6875 381.625C65.8646 382.099 66.1198 382.487 66.4531 382.789C66.7083 383.023 67.0365 383.219 67.4375 383.375C67.8438 383.531 68.2917 383.612 68.7812 383.617ZM84.9062 386H83.4531V379.445L78.8828 386H77.5547V377.273H79.0078V383.734L83.5312 377.273H84.9062V386ZM95.1094 386H93.6406V382.07H89.2734V386H87.8047V377.273H89.2734V380.805H93.6406V377.273H95.1094V386ZM102.633 381.617H97.7578V380.203H102.633V381.617ZM113.523 386H112.07V379.109L109.898 383.594H108.805L106.648 379.109V386H105.273V377.273H107.047L109.422 382.156L111.719 377.273H113.523V386ZM123.719 381.789H117.289C117.289 382.326 117.37 382.794 117.531 383.195C117.693 383.591 117.914 383.917 118.195 384.172C118.466 384.422 118.786 384.609 119.156 384.734C119.531 384.859 119.943 384.922 120.391 384.922C120.984 384.922 121.581 384.805 122.18 384.57C122.784 384.331 123.214 384.096 123.469 383.867H123.547V385.469C123.052 385.677 122.547 385.852 122.031 385.992C121.516 386.133 120.974 386.203 120.406 386.203C118.958 386.203 117.828 385.812 117.016 385.031C116.203 384.245 115.797 383.13 115.797 381.688C115.797 380.26 116.185 379.128 116.961 378.289C117.742 377.451 118.768 377.031 120.039 377.031C121.216 377.031 122.122 377.375 122.758 378.062C123.398 378.75 123.719 379.727 123.719 380.992V381.789ZM122.289 380.664C122.284 379.893 122.089 379.297 121.703 378.875C121.323 378.453 120.742 378.242 119.961 378.242C119.174 378.242 118.547 378.474 118.078 378.938C117.615 379.401 117.352 379.977 117.289 380.664H122.289ZM133.25 386H131.781V382.07H127.414V386H125.945V377.273H127.414V380.805H131.781V377.273H133.25V386ZM143.453 381.789H137.023C137.023 382.326 137.104 382.794 137.266 383.195C137.427 383.591 137.648 383.917 137.93 384.172C138.201 384.422 138.521 384.609 138.891 384.734C139.266 384.859 139.677 384.922 140.125 384.922C140.719 384.922 141.315 384.805 141.914 384.57C142.518 384.331 142.948 384.096 143.203 383.867H143.281V385.469C142.786 385.677 142.281 385.852 141.766 385.992C141.25 386.133 140.708 386.203 140.141 386.203C138.693 386.203 137.562 385.812 136.75 385.031C135.938 384.245 135.531 383.13 135.531 381.688C135.531 380.26 135.919 379.128 136.695 378.289C137.477 377.451 138.503 377.031 139.773 377.031C140.951 377.031 141.857 377.375 142.492 378.062C143.133 378.75 143.453 379.727 143.453 380.992V381.789ZM142.023 380.664C142.018 379.893 141.823 379.297 141.438 378.875C141.057 378.453 140.477 378.242 139.695 378.242C138.909 378.242 138.281 378.474 137.812 378.938C137.349 379.401 137.086 379.977 137.023 380.664H142.023ZM153.602 388.094H152.234V385.977H145.672V388.094H144.305V384.75H145.25C145.859 383.745 146.312 382.586 146.609 381.273C146.911 379.956 147.062 378.622 147.062 377.273H152.547V384.75H153.602V388.094ZM151.078 384.75V378.508H148.445C148.378 379.815 148.177 381.008 147.844 382.086C147.51 383.164 147.128 384.052 146.695 384.75H151.078ZM166.578 386H164.805L162.008 382.016H161.297V386H159.844V382.016H159.211L156.289 386H154.594L157.961 381.43C157.706 381.294 157.479 381.102 157.281 380.852C157.089 380.602 156.911 380.224 156.75 379.719C156.609 379.276 156.443 378.969 156.25 378.797C156.057 378.625 155.742 378.539 155.305 378.539H154.891V377.273H155.43C156.076 377.273 156.594 377.404 156.984 377.664C157.375 377.924 157.688 378.38 157.922 379.031C157.969 379.167 158.026 379.323 158.094 379.5C158.167 379.672 158.229 379.818 158.281 379.938C158.453 380.333 158.672 380.615 158.938 380.781C159.208 380.943 159.51 381.034 159.844 381.055V377.273H161.297V381.055C161.63 381.034 161.932 380.94 162.203 380.773C162.479 380.607 162.703 380.328 162.875 379.938C162.932 379.807 162.995 379.656 163.062 379.484C163.135 379.312 163.193 379.161 163.234 379.031C163.464 378.391 163.771 377.938 164.156 377.672C164.542 377.406 165.06 377.273 165.711 377.273H166.25V378.539H165.836C165.393 378.539 165.073 378.63 164.875 378.812C164.682 378.995 164.521 379.297 164.391 379.719C164.245 380.182 164.07 380.544 163.867 380.805C163.669 381.06 163.453 381.253 163.219 381.383L166.578 386ZM176.648 386H175.195V379.109L173.023 383.594H171.93L169.773 379.109V386H168.398V377.273H170.172L172.547 382.156L174.844 377.273H176.648V386ZM186.844 381.789H180.414C180.414 382.326 180.495 382.794 180.656 383.195C180.818 383.591 181.039 383.917 181.32 384.172C181.591 384.422 181.911 384.609 182.281 384.734C182.656 384.859 183.068 384.922 183.516 384.922C184.109 384.922 184.706 384.805 185.305 384.57C185.909 384.331 186.339 384.096 186.594 383.867H186.672V385.469C186.177 385.677 185.672 385.852 185.156 385.992C184.641 386.133 184.099 386.203 183.531 386.203C182.083 386.203 180.953 385.812 180.141 385.031C179.328 384.245 178.922 383.13 178.922 381.688C178.922 380.26 179.31 379.128 180.086 378.289C180.867 377.451 181.893 377.031 183.164 377.031C184.341 377.031 185.247 377.375 185.883 378.062C186.523 378.75 186.844 379.727 186.844 380.992V381.789ZM185.414 380.664C185.409 379.893 185.214 379.297 184.828 378.875C184.448 378.453 183.867 378.242 183.086 378.242C182.299 378.242 181.672 378.474 181.203 378.938C180.74 379.401 180.477 379.977 180.414 380.664H185.414ZM196.375 386H194.906V382.07H190.539V386H189.07V377.273H190.539V380.805H194.906V377.273H196.375V386ZM205.688 378.562H202.531V386H201.062V378.562H197.906V377.273H205.688V378.562ZM74.2344 407.633H72.7656V404.969H64.5469V407.633H63.0781V403.625H64.0156C64.6927 402.51 65.2318 401.057 65.6328 399.266C66.0391 397.469 66.2422 395.503 66.2422 393.367H73.1328V403.625H74.2344V407.633ZM71.5859 403.625V394.711H67.6953C67.6224 396.57 67.3932 398.273 67.0078 399.82C66.6224 401.362 66.1224 402.63 65.5078 403.625H71.5859ZM83.4219 405H81.9531V397.508H78.6953C78.6797 397.94 78.6641 398.357 78.6484 398.758C78.6328 399.159 78.6172 399.521 78.6016 399.844C78.5651 400.714 78.5052 401.409 78.4219 401.93C78.3385 402.445 78.2292 402.875 78.0938 403.219C77.9688 403.542 77.8281 403.805 77.6719 404.008C77.5208 404.206 77.3568 404.385 77.1797 404.547C77.0026 404.703 76.8047 404.82 76.5859 404.898C76.3724 404.977 76.138 405.016 75.8828 405.016C75.7943 405.016 75.6641 405.013 75.4922 405.008C75.3255 405.003 75.2161 405 75.1641 405V403.719H75.2422C75.2839 403.719 75.3438 403.721 75.4219 403.727C75.5 403.732 75.5651 403.734 75.6172 403.734C75.7422 403.734 75.8698 403.716 76 403.68C76.1354 403.643 76.25 403.576 76.3438 403.477C76.6094 403.216 76.8229 402.776 76.9844 402.156C77.1458 401.536 77.2526 400.641 77.3047 399.469C77.3255 399.042 77.3438 398.536 77.3594 397.953C77.3802 397.365 77.3984 396.805 77.4141 396.273H83.4219V405ZM93.0234 405H91.5547V401.539H89.8281L87.125 405H85.3984L88.3359 401.398C87.5807 401.19 87.0286 400.872 86.6797 400.445C86.3307 400.013 86.1562 399.448 86.1562 398.75C86.1562 398.286 86.2604 397.893 86.4688 397.57C86.6771 397.247 86.9401 396.984 87.2578 396.781C87.5703 396.583 87.9297 396.451 88.3359 396.383C88.7422 396.31 89.1849 396.273 89.6641 396.273H93.0234V405ZM91.5547 400.383V397.445H89.7031C89.3021 397.445 89.013 397.458 88.8359 397.484C88.6589 397.51 88.4661 397.581 88.2578 397.695C88.0547 397.81 87.9036 397.966 87.8047 398.164C87.7109 398.357 87.6641 398.568 87.6641 398.797C87.6641 399.083 87.6927 399.315 87.75 399.492C87.8125 399.669 87.9375 399.836 88.125 399.992C88.3177 400.143 88.5521 400.247 88.8281 400.305C89.1042 400.357 89.4115 400.383 89.75 400.383H91.5547ZM110.555 405H109.008V394.742H103.203V405H101.656V393.367H110.555V405ZM121.25 400.531C121.25 401.24 121.148 401.888 120.945 402.477C120.742 403.06 120.456 403.555 120.086 403.961C119.742 404.346 119.336 404.646 118.867 404.859C118.404 405.068 117.911 405.172 117.391 405.172C116.938 405.172 116.526 405.122 116.156 405.023C115.792 404.924 115.419 404.771 115.039 404.562V408.219H113.57V396.273H115.039V397.188C115.43 396.859 115.867 396.586 116.352 396.367C116.841 396.143 117.362 396.031 117.914 396.031C118.966 396.031 119.784 396.43 120.367 397.227C120.956 398.018 121.25 399.12 121.25 400.531ZM119.734 400.57C119.734 399.518 119.555 398.732 119.195 398.211C118.836 397.69 118.284 397.43 117.539 397.43C117.117 397.43 116.693 397.521 116.266 397.703C115.839 397.885 115.43 398.125 115.039 398.422V403.367C115.456 403.555 115.812 403.682 116.109 403.75C116.411 403.818 116.753 403.852 117.133 403.852C117.951 403.852 118.589 403.576 119.047 403.023C119.505 402.471 119.734 401.654 119.734 400.57ZM130.844 400.789H124.414C124.414 401.326 124.495 401.794 124.656 402.195C124.818 402.591 125.039 402.917 125.32 403.172C125.591 403.422 125.911 403.609 126.281 403.734C126.656 403.859 127.068 403.922 127.516 403.922C128.109 403.922 128.706 403.805 129.305 403.57C129.909 403.331 130.339 403.096 130.594 402.867H130.672V404.469C130.177 404.677 129.672 404.852 129.156 404.992C128.641 405.133 128.099 405.203 127.531 405.203C126.083 405.203 124.953 404.812 124.141 404.031C123.328 403.245 122.922 402.13 122.922 400.688C122.922 399.26 123.31 398.128 124.086 397.289C124.867 396.451 125.893 396.031 127.164 396.031C128.341 396.031 129.247 396.375 129.883 397.062C130.523 397.75 130.844 398.727 130.844 399.992V400.789ZM129.414 399.664C129.409 398.893 129.214 398.297 128.828 397.875C128.448 397.453 127.867 397.242 127.086 397.242C126.299 397.242 125.672 397.474 125.203 397.938C124.74 398.401 124.477 398.977 124.414 399.664H129.414ZM140.992 407.094H139.625V404.977H133.062V407.094H131.695V403.75H132.641C133.25 402.745 133.703 401.586 134 400.273C134.302 398.956 134.453 397.622 134.453 396.273H139.938V403.75H140.992V407.094ZM138.469 403.75V397.508H135.836C135.768 398.815 135.568 400.008 135.234 401.086C134.901 402.164 134.518 403.052 134.086 403.75H138.469ZM150.328 405H148.859V397.539H144.492V405H143.023V396.273H150.328V405ZM160.906 400.531C160.906 401.24 160.805 401.888 160.602 402.477C160.398 403.06 160.112 403.555 159.742 403.961C159.398 404.346 158.992 404.646 158.523 404.859C158.06 405.068 157.568 405.172 157.047 405.172C156.594 405.172 156.182 405.122 155.812 405.023C155.448 404.924 155.076 404.771 154.695 404.562V408.219H153.227V396.273H154.695V397.188C155.086 396.859 155.523 396.586 156.008 396.367C156.497 396.143 157.018 396.031 157.57 396.031C158.622 396.031 159.44 396.43 160.023 397.227C160.612 398.018 160.906 399.12 160.906 400.531ZM159.391 400.57C159.391 399.518 159.211 398.732 158.852 398.211C158.492 397.69 157.94 397.43 157.195 397.43C156.773 397.43 156.349 397.521 155.922 397.703C155.495 397.885 155.086 398.125 154.695 398.422V403.367C155.112 403.555 155.469 403.682 155.766 403.75C156.068 403.818 156.409 403.852 156.789 403.852C157.607 403.852 158.245 403.576 158.703 403.023C159.161 402.471 159.391 401.654 159.391 400.57ZM170.547 405H169.094V398.445L164.523 405H163.195V396.273H164.648V402.734L169.172 396.273H170.547V405ZM180.75 405H179.281V401.07H174.914V405H173.445V396.273H174.914V399.805H179.281V396.273H180.75V405ZM191 405H189.547V398.445L184.977 405H183.648V396.273H185.102V402.734L189.625 396.273H191V405ZM202.148 405H200.695V398.109L198.523 402.594H197.43L195.273 398.109V405H193.898V396.273H195.672L198.047 401.156L200.344 396.273H202.148V405ZM211.82 405H210.359V404.07C210.229 404.159 210.052 404.284 209.828 404.445C209.609 404.602 209.396 404.727 209.188 404.82C208.943 404.94 208.661 405.039 208.344 405.117C208.026 405.201 207.654 405.242 207.227 405.242C206.44 405.242 205.773 404.982 205.227 404.461C204.68 403.94 204.406 403.276 204.406 402.469C204.406 401.807 204.547 401.273 204.828 400.867C205.115 400.456 205.521 400.133 206.047 399.898C206.578 399.664 207.216 399.505 207.961 399.422C208.706 399.339 209.505 399.276 210.359 399.234V399.008C210.359 398.674 210.299 398.398 210.18 398.18C210.065 397.961 209.898 397.789 209.68 397.664C209.471 397.544 209.221 397.464 208.93 397.422C208.638 397.38 208.333 397.359 208.016 397.359C207.63 397.359 207.201 397.411 206.727 397.516C206.253 397.615 205.763 397.76 205.258 397.953H205.18V396.461C205.466 396.383 205.88 396.297 206.422 396.203C206.964 396.109 207.497 396.062 208.023 396.062C208.638 396.062 209.172 396.115 209.625 396.219C210.083 396.318 210.479 396.49 210.812 396.734C211.141 396.974 211.391 397.284 211.562 397.664C211.734 398.044 211.82 398.516 211.82 399.078V405ZM210.359 402.852V400.422C209.911 400.448 209.383 400.487 208.773 400.539C208.169 400.591 207.69 400.667 207.336 400.766C206.914 400.885 206.573 401.073 206.312 401.328C206.052 401.578 205.922 401.924 205.922 402.367C205.922 402.867 206.073 403.245 206.375 403.5C206.677 403.75 207.138 403.875 207.758 403.875C208.273 403.875 208.745 403.776 209.172 403.578C209.599 403.375 209.995 403.133 210.359 402.852ZM221.062 397.562H217.906V405H216.438V397.562H213.281V396.273H221.062V397.562ZM229.891 400.789H223.461C223.461 401.326 223.542 401.794 223.703 402.195C223.865 402.591 224.086 402.917 224.367 403.172C224.638 403.422 224.958 403.609 225.328 403.734C225.703 403.859 226.115 403.922 226.562 403.922C227.156 403.922 227.753 403.805 228.352 403.57C228.956 403.331 229.385 403.096 229.641 402.867H229.719V404.469C229.224 404.677 228.719 404.852 228.203 404.992C227.688 405.133 227.146 405.203 226.578 405.203C225.13 405.203 224 404.812 223.188 404.031C222.375 403.245 221.969 402.13 221.969 400.688C221.969 399.26 222.357 398.128 223.133 397.289C223.914 396.451 224.94 396.031 226.211 396.031C227.388 396.031 228.294 396.375 228.93 397.062C229.57 397.75 229.891 398.727 229.891 399.992V400.789ZM228.461 399.664C228.456 398.893 228.26 398.297 227.875 397.875C227.495 397.453 226.914 397.242 226.133 397.242C225.346 397.242 224.719 397.474 224.25 397.938C223.786 398.401 223.523 398.977 223.461 399.664H228.461ZM239.156 405H237.688V397.508H234.43C234.414 397.94 234.398 398.357 234.383 398.758C234.367 399.159 234.352 399.521 234.336 399.844C234.299 400.714 234.24 401.409 234.156 401.93C234.073 402.445 233.964 402.875 233.828 403.219C233.703 403.542 233.562 403.805 233.406 404.008C233.255 404.206 233.091 404.385 232.914 404.547C232.737 404.703 232.539 404.82 232.32 404.898C232.107 404.977 231.872 405.016 231.617 405.016C231.529 405.016 231.398 405.013 231.227 405.008C231.06 405.003 230.951 405 230.898 405V403.719H230.977C231.018 403.719 231.078 403.721 231.156 403.727C231.234 403.732 231.299 403.734 231.352 403.734C231.477 403.734 231.604 403.716 231.734 403.68C231.87 403.643 231.984 403.576 232.078 403.477C232.344 403.216 232.557 402.776 232.719 402.156C232.88 401.536 232.987 400.641 233.039 399.469C233.06 399.042 233.078 398.536 233.094 397.953C233.115 397.365 233.133 396.805 233.148 396.273H239.156V405ZM249.359 400.789H242.93C242.93 401.326 243.01 401.794 243.172 402.195C243.333 402.591 243.555 402.917 243.836 403.172C244.107 403.422 244.427 403.609 244.797 403.734C245.172 403.859 245.583 403.922 246.031 403.922C246.625 403.922 247.221 403.805 247.82 403.57C248.424 403.331 248.854 403.096 249.109 402.867H249.188V404.469C248.693 404.677 248.188 404.852 247.672 404.992C247.156 405.133 246.615 405.203 246.047 405.203C244.599 405.203 243.469 404.812 242.656 404.031C241.844 403.245 241.438 402.13 241.438 400.688C241.438 399.26 241.826 398.128 242.602 397.289C243.383 396.451 244.409 396.031 245.68 396.031C246.857 396.031 247.763 396.375 248.398 397.062C249.039 397.75 249.359 398.727 249.359 399.992V400.789ZM247.93 399.664C247.924 398.893 247.729 398.297 247.344 397.875C246.964 397.453 246.383 397.242 245.602 397.242C244.815 397.242 244.188 397.474 243.719 397.938C243.255 398.401 242.992 398.977 242.93 399.664H247.93ZM258.938 405H257.484V398.445L252.914 405H251.586V396.273H253.039V402.734L257.562 396.273H258.938V405ZM258.102 392.836C258.076 393.607 257.831 394.208 257.367 394.641C256.909 395.073 256.24 395.289 255.359 395.289C254.479 395.289 253.807 395.073 253.344 394.641C252.885 394.208 252.643 393.607 252.617 392.836H253.953C253.958 393.383 254.078 393.779 254.312 394.023C254.552 394.268 254.901 394.391 255.359 394.391C255.823 394.391 256.172 394.271 256.406 394.031C256.641 393.792 256.76 393.393 256.766 392.836H258.102Z" fill="#333333"/>
<path d="M30 439L37.5 446.5L50 431.5" stroke="#61B857" stroke-width="2" stroke-linecap="round" stroke-linejoin="round"/>
<path d="M73.9141 440H71.9297L67.2031 434.695H66.1484V440H64.6016V428.367H66.1484V433.586C66.4141 433.581 66.6641 433.555 66.8984 433.508C67.1328 433.461 67.3542 433.372 67.5625 433.242C67.7708 433.122 67.9766 432.953 68.1797 432.734C68.3828 432.51 68.5625 432.237 68.7188 431.914C68.7865 431.773 68.8646 431.596 68.9531 431.383C69.0469 431.169 69.1406 430.945 69.2344 430.711C69.5938 429.846 70.013 429.24 70.4922 428.891C70.9766 428.542 71.6875 428.367 72.625 428.367H73.2422V429.75H72.5938C72.2344 429.75 71.9531 429.784 71.75 429.852C71.5469 429.914 71.3646 430.021 71.2031 430.172C71.0521 430.307 70.9193 430.49 70.8047 430.719C70.6953 430.948 70.5807 431.216 70.4609 431.523C70.1901 432.211 69.9141 432.716 69.6328 433.039C69.3568 433.362 68.9844 433.643 68.5156 433.883L73.9141 440ZM82.3203 440H80.8594V439.07C80.7292 439.159 80.5521 439.284 80.3281 439.445C80.1094 439.602 79.8958 439.727 79.6875 439.82C79.4427 439.94 79.1615 440.039 78.8438 440.117C78.526 440.201 78.1536 440.242 77.7266 440.242C76.9401 440.242 76.2734 439.982 75.7266 439.461C75.1797 438.94 74.9062 438.276 74.9062 437.469C74.9062 436.807 75.0469 436.273 75.3281 435.867C75.6146 435.456 76.0208 435.133 76.5469 434.898C77.0781 434.664 77.7161 434.505 78.4609 434.422C79.2057 434.339 80.0052 434.276 80.8594 434.234V434.008C80.8594 433.674 80.7995 433.398 80.6797 433.18C80.5651 432.961 80.3984 432.789 80.1797 432.664C79.9714 432.544 79.7214 432.464 79.4297 432.422C79.138 432.38 78.8333 432.359 78.5156 432.359C78.1302 432.359 77.7005 432.411 77.2266 432.516C76.7526 432.615 76.263 432.76 75.7578 432.953H75.6797V431.461C75.9661 431.383 76.3802 431.297 76.9219 431.203C77.4635 431.109 77.9974 431.062 78.5234 431.062C79.138 431.062 79.6719 431.115 80.125 431.219C80.5833 431.318 80.9792 431.49 81.3125 431.734C81.6406 431.974 81.8906 432.284 82.0625 432.664C82.2344 433.044 82.3203 433.516 82.3203 434.078V440ZM80.8594 437.852V435.422C80.4115 435.448 79.8828 435.487 79.2734 435.539C78.6693 435.591 78.1901 435.667 77.8359 435.766C77.4141 435.885 77.0729 436.073 76.8125 436.328C76.5521 436.578 76.4219 436.924 76.4219 437.367C76.4219 437.867 76.5729 438.245 76.875 438.5C77.1771 438.75 77.638 438.875 78.2578 438.875C78.7734 438.875 79.2448 438.776 79.6719 438.578C80.099 438.375 80.4948 438.133 80.8594 437.852ZM93.0234 440H91.1016L87.4766 436H86.6797V440H85.2109V431.273H86.6797V435.039C87.1641 435.039 87.5547 434.953 87.8516 434.781C88.1484 434.604 88.401 434.323 88.6094 433.938C88.6823 433.797 88.7526 433.648 88.8203 433.492C88.8932 433.331 88.9635 433.177 89.0312 433.031C89.3021 432.443 89.6406 432.003 90.0469 431.711C90.4531 431.419 91.0365 431.273 91.7969 431.273H92.4688V432.539H91.8203C91.4089 432.539 91.0859 432.628 90.8516 432.805C90.6224 432.977 90.4141 433.281 90.2266 433.719C90.0182 434.208 89.7969 434.576 89.5625 434.82C89.3333 435.06 89.0885 435.242 88.8281 435.367L93.0234 440ZM109.258 440H107.711V429.742H101.906V440H100.359V428.367H109.258V440ZM119.953 435.531C119.953 436.24 119.852 436.888 119.648 437.477C119.445 438.06 119.159 438.555 118.789 438.961C118.445 439.346 118.039 439.646 117.57 439.859C117.107 440.068 116.615 440.172 116.094 440.172C115.641 440.172 115.229 440.122 114.859 440.023C114.495 439.924 114.122 439.771 113.742 439.562V443.219H112.273V431.273H113.742V432.188C114.133 431.859 114.57 431.586 115.055 431.367C115.544 431.143 116.065 431.031 116.617 431.031C117.669 431.031 118.487 431.43 119.07 432.227C119.659 433.018 119.953 434.12 119.953 435.531ZM118.438 435.57C118.438 434.518 118.258 433.732 117.898 433.211C117.539 432.69 116.987 432.43 116.242 432.43C115.82 432.43 115.396 432.521 114.969 432.703C114.542 432.885 114.133 433.125 113.742 433.422V438.367C114.159 438.555 114.516 438.682 114.812 438.75C115.115 438.818 115.456 438.852 115.836 438.852C116.654 438.852 117.292 438.576 117.75 438.023C118.208 437.471 118.438 436.654 118.438 435.57ZM129.594 440H128.141V433.445L123.57 440H122.242V431.273H123.695V437.734L128.219 431.273H129.594V440ZM139.695 437.359C139.695 437.781 139.609 438.156 139.438 438.484C139.271 438.812 139.039 439.086 138.742 439.305C138.409 439.549 138.044 439.727 137.648 439.836C137.258 439.945 136.742 440 136.102 440H132.492V431.273H135.867C136.518 431.273 137.008 431.297 137.336 431.344C137.669 431.385 137.982 431.482 138.273 431.633C138.602 431.805 138.841 432.029 138.992 432.305C139.148 432.581 139.227 432.906 139.227 433.281C139.227 433.714 139.104 434.089 138.859 434.406C138.615 434.724 138.299 434.971 137.914 435.148V435.227C138.43 435.352 138.854 435.594 139.188 435.953C139.526 436.307 139.695 436.776 139.695 437.359ZM137.719 433.508C137.719 433.32 137.677 433.151 137.594 433C137.516 432.849 137.393 432.732 137.227 432.648C137.008 432.539 136.76 432.479 136.484 432.469C136.214 432.453 135.878 432.445 135.477 432.445H133.945V434.836H135.781C136.167 434.836 136.451 434.823 136.633 434.797C136.82 434.766 137.008 434.693 137.195 434.578C137.393 434.453 137.529 434.307 137.602 434.141C137.68 433.969 137.719 433.758 137.719 433.508ZM138.18 437.367C138.18 437.081 138.133 436.849 138.039 436.672C137.945 436.49 137.74 436.323 137.422 436.172C137.224 436.078 137.01 436.023 136.781 436.008C136.552 435.987 136.234 435.977 135.828 435.977H133.945V438.828H135.336C135.919 438.828 136.367 438.81 136.68 438.773C136.997 438.732 137.271 438.646 137.5 438.516C137.729 438.385 137.898 438.227 138.008 438.039C138.122 437.852 138.18 437.628 138.18 437.367ZM149.047 440H147.578V432.508H144.32C144.305 432.94 144.289 433.357 144.273 433.758C144.258 434.159 144.242 434.521 144.227 434.844C144.19 435.714 144.13 436.409 144.047 436.93C143.964 437.445 143.854 437.875 143.719 438.219C143.594 438.542 143.453 438.805 143.297 439.008C143.146 439.206 142.982 439.385 142.805 439.547C142.628 439.703 142.43 439.82 142.211 439.898C141.997 439.977 141.763 440.016 141.508 440.016C141.419 440.016 141.289 440.013 141.117 440.008C140.951 440.003 140.841 440 140.789 440V438.719H140.867C140.909 438.719 140.969 438.721 141.047 438.727C141.125 438.732 141.19 438.734 141.242 438.734C141.367 438.734 141.495 438.716 141.625 438.68C141.76 438.643 141.875 438.576 141.969 438.477C142.234 438.216 142.448 437.776 142.609 437.156C142.771 436.536 142.878 435.641 142.93 434.469C142.951 434.042 142.969 433.536 142.984 432.953C143.005 432.365 143.023 431.805 143.039 431.273H149.047V440ZM159.25 435.789H152.82C152.82 436.326 152.901 436.794 153.062 437.195C153.224 437.591 153.445 437.917 153.727 438.172C153.997 438.422 154.318 438.609 154.688 438.734C155.062 438.859 155.474 438.922 155.922 438.922C156.516 438.922 157.112 438.805 157.711 438.57C158.315 438.331 158.745 438.096 159 437.867H159.078V439.469C158.583 439.677 158.078 439.852 157.562 439.992C157.047 440.133 156.505 440.203 155.938 440.203C154.49 440.203 153.359 439.812 152.547 439.031C151.734 438.245 151.328 437.13 151.328 435.688C151.328 434.26 151.716 433.128 152.492 432.289C153.273 431.451 154.299 431.031 155.57 431.031C156.747 431.031 157.654 431.375 158.289 432.062C158.93 432.75 159.25 433.727 159.25 434.992V435.789ZM157.82 434.664C157.815 433.893 157.62 433.297 157.234 432.875C156.854 432.453 156.273 432.242 155.492 432.242C154.706 432.242 154.078 432.474 153.609 432.938C153.146 433.401 152.883 433.977 152.82 434.664H157.82ZM168.273 440H166.805V436.648C166.331 436.794 165.878 436.911 165.445 437C165.013 437.089 164.542 437.133 164.031 437.133C163.094 437.133 162.378 436.904 161.883 436.445C161.388 435.982 161.141 435.315 161.141 434.445V431.273H162.609V433.695C162.609 434.029 162.63 434.328 162.672 434.594C162.714 434.854 162.802 435.081 162.938 435.273C163.073 435.461 163.263 435.604 163.508 435.703C163.753 435.802 164.094 435.852 164.531 435.852C164.891 435.852 165.281 435.818 165.703 435.75C166.125 435.677 166.492 435.594 166.805 435.5V431.273H168.273V440ZM176.617 437.32C176.617 437.055 176.57 436.823 176.477 436.625C176.388 436.422 176.24 436.258 176.031 436.133C175.812 436.003 175.562 435.924 175.281 435.898C175.005 435.872 174.607 435.859 174.086 435.859H172.633V438.828H174.055C174.576 438.828 174.979 438.807 175.266 438.766C175.552 438.719 175.799 438.633 176.008 438.508C176.221 438.372 176.375 438.214 176.469 438.031C176.568 437.844 176.617 437.607 176.617 437.32ZM178.133 437.297C178.133 437.719 178.047 438.102 177.875 438.445C177.708 438.789 177.479 439.068 177.188 439.281C176.844 439.542 176.477 439.727 176.086 439.836C175.695 439.945 175.193 440 174.578 440H171.164V431.273H172.633V434.672H174.617C175.273 434.672 175.781 434.706 176.141 434.773C176.505 434.841 176.867 435.008 177.227 435.273C177.529 435.497 177.755 435.784 177.906 436.133C178.057 436.482 178.133 436.87 178.133 437.297ZM195.719 442.633H194.25V439.969H186.031V442.633H184.562V438.625H185.5C186.177 437.51 186.716 436.057 187.117 434.266C187.523 432.469 187.727 430.503 187.727 428.367H194.617V438.625H195.719V442.633ZM193.07 438.625V429.711H189.18C189.107 431.57 188.878 433.273 188.492 434.82C188.107 436.362 187.607 437.63 186.992 438.625H193.07ZM205.172 435.789H198.742C198.742 436.326 198.823 436.794 198.984 437.195C199.146 437.591 199.367 437.917 199.648 438.172C199.919 438.422 200.24 438.609 200.609 438.734C200.984 438.859 201.396 438.922 201.844 438.922C202.438 438.922 203.034 438.805 203.633 438.57C204.237 438.331 204.667 438.096 204.922 437.867H205V439.469C204.505 439.677 204 439.852 203.484 439.992C202.969 440.133 202.427 440.203 201.859 440.203C200.411 440.203 199.281 439.812 198.469 439.031C197.656 438.245 197.25 437.13 197.25 435.688C197.25 434.26 197.638 433.128 198.414 432.289C199.195 431.451 200.221 431.031 201.492 431.031C202.669 431.031 203.576 431.375 204.211 432.062C204.852 432.75 205.172 433.727 205.172 434.992V435.789ZM203.742 434.664C203.737 433.893 203.542 433.297 203.156 432.875C202.776 432.453 202.195 432.242 201.414 432.242C200.628 432.242 200 432.474 199.531 432.938C199.068 433.401 198.805 433.977 198.742 434.664H203.742ZM214.703 440H213.234V436.07H208.867V440H207.398V431.273H208.867V434.805H213.234V431.273H214.703V440ZM223.055 437.32C223.055 437.055 223.008 436.823 222.914 436.625C222.826 436.422 222.677 436.258 222.469 436.133C222.25 436.003 222 435.924 221.719 435.898C221.443 435.872 221.044 435.859 220.523 435.859H219.07V438.828H220.492C221.013 438.828 221.417 438.807 221.703 438.766C221.99 438.719 222.237 438.633 222.445 438.508C222.659 438.372 222.812 438.214 222.906 438.031C223.005 437.844 223.055 437.607 223.055 437.32ZM224.57 437.297C224.57 437.719 224.484 438.102 224.312 438.445C224.146 438.789 223.917 439.068 223.625 439.281C223.281 439.542 222.914 439.727 222.523 439.836C222.133 439.945 221.63 440 221.016 440H217.602V431.273H219.07V434.672H221.055C221.711 434.672 222.219 434.706 222.578 434.773C222.943 434.841 223.305 435.008 223.664 435.273C223.966 435.497 224.193 435.784 224.344 436.133C224.495 436.482 224.57 436.87 224.57 437.297ZM232.758 432.562H228.211V440H226.742V431.273H232.758V432.562ZM241.641 440H240.188V433.445L235.617 440H234.289V431.273H235.742V437.734L240.266 431.273H241.641V440ZM71.6484 456.359C71.6484 456.781 71.5625 457.156 71.3906 457.484C71.224 457.812 70.9922 458.086 70.6953 458.305C70.362 458.549 69.9974 458.727 69.6016 458.836C69.2109 458.945 68.6953 459 68.0547 459H64.4453V450.273H67.8203C68.4714 450.273 68.9609 450.297 69.2891 450.344C69.6224 450.385 69.9349 450.482 70.2266 450.633C70.5547 450.805 70.7943 451.029 70.9453 451.305C71.1016 451.581 71.1797 451.906 71.1797 452.281C71.1797 452.714 71.0573 453.089 70.8125 453.406C70.5677 453.724 70.2526 453.971 69.8672 454.148V454.227C70.3828 454.352 70.8073 454.594 71.1406 454.953C71.4792 455.307 71.6484 455.776 71.6484 456.359ZM69.6719 452.508C69.6719 452.32 69.6302 452.151 69.5469 452C69.4688 451.849 69.3464 451.732 69.1797 451.648C68.9609 451.539 68.7135 451.479 68.4375 451.469C68.1667 451.453 67.8307 451.445 67.4297 451.445H65.8984V453.836H67.7344C68.1198 453.836 68.4036 453.823 68.5859 453.797C68.7734 453.766 68.9609 453.693 69.1484 453.578C69.3464 453.453 69.4818 453.307 69.5547 453.141C69.6328 452.969 69.6719 452.758 69.6719 452.508ZM70.1328 456.367C70.1328 456.081 70.0859 455.849 69.9922 455.672C69.8984 455.49 69.6927 455.323 69.375 455.172C69.1771 455.078 68.9635 455.023 68.7344 455.008C68.5052 454.987 68.1875 454.977 67.7812 454.977H65.8984V457.828H67.2891C67.8724 457.828 68.3203 457.81 68.6328 457.773C68.9505 457.732 69.224 457.646 69.4531 457.516C69.6823 457.385 69.8516 457.227 69.9609 457.039C70.0755 456.852 70.1328 456.628 70.1328 456.367ZM88.4844 455.398C88.4844 455.961 88.3724 456.471 88.1484 456.93C87.9297 457.388 87.6354 457.76 87.2656 458.047C86.8281 458.391 86.3594 458.635 85.8594 458.781C85.3594 458.927 84.7135 459 83.9219 459H79.7031V447.367H87.4922V448.742H81.25V451.93H83.9688C84.7604 451.93 85.4062 451.977 85.9062 452.07C86.4062 452.159 86.8776 452.375 87.3203 452.719C87.7161 453.026 88.0078 453.406 88.1953 453.859C88.388 454.312 88.4844 454.826 88.4844 455.398ZM86.8672 455.43C86.8672 455.039 86.8021 454.695 86.6719 454.398C86.5417 454.102 86.3385 453.862 86.0625 453.68C85.776 453.487 85.4453 453.37 85.0703 453.328C84.6953 453.286 84.1667 453.266 83.4844 453.266H81.25V457.68H83.4453C84.138 457.68 84.6693 457.646 85.0391 457.578C85.4141 457.51 85.7422 457.38 86.0234 457.188C86.3151 456.984 86.5286 456.747 86.6641 456.477C86.7995 456.201 86.8672 455.852 86.8672 455.43ZM97.9062 459H96.4531V452.445L91.8828 459H90.5547V450.273H92.0078V456.734L96.5312 450.273H97.9062V459ZM106.875 456.555C106.875 457.044 106.76 457.458 106.531 457.797C106.307 458.135 106.018 458.409 105.664 458.617C105.31 458.82 104.919 458.969 104.492 459.062C104.065 459.156 103.638 459.203 103.211 459.203C102.607 459.203 102.031 459.146 101.484 459.031C100.938 458.917 100.398 458.74 99.8672 458.5V456.891H99.9688C100.349 457.224 100.833 457.482 101.422 457.664C102.01 457.846 102.581 457.938 103.133 457.938C103.393 457.938 103.661 457.914 103.938 457.867C104.214 457.815 104.453 457.734 104.656 457.625C104.875 457.5 105.049 457.352 105.18 457.18C105.31 457.003 105.375 456.763 105.375 456.461C105.375 456.148 105.31 455.898 105.18 455.711C105.055 455.523 104.883 455.383 104.664 455.289C104.451 455.195 104.193 455.138 103.891 455.117C103.589 455.096 103.312 455.086 103.062 455.086H101.789V453.82H102.672C102.88 453.82 103.151 453.812 103.484 453.797C103.823 453.781 104.096 453.74 104.305 453.672C104.576 453.583 104.789 453.458 104.945 453.297C105.107 453.135 105.188 452.878 105.188 452.523C105.188 452.279 105.125 452.078 105 451.922C104.875 451.76 104.719 451.635 104.531 451.547C104.339 451.458 104.122 451.398 103.883 451.367C103.648 451.336 103.44 451.32 103.258 451.32C102.727 451.32 102.203 451.393 101.688 451.539C101.177 451.68 100.747 451.885 100.398 452.156H100.297V450.539C100.729 450.398 101.193 450.284 101.688 450.195C102.182 450.107 102.677 450.062 103.172 450.062C103.578 450.062 103.982 450.099 104.383 450.172C104.789 450.245 105.167 450.37 105.516 450.547C105.859 450.724 106.141 450.966 106.359 451.273C106.578 451.576 106.688 451.951 106.688 452.398C106.688 452.857 106.544 453.26 106.258 453.609C105.977 453.953 105.596 454.201 105.117 454.352V454.406C105.654 454.536 106.081 454.781 106.398 455.141C106.716 455.495 106.875 455.966 106.875 456.555ZM116.5 459H115.031V455.07H110.664V459H109.195V450.273H110.664V453.805H115.031V450.273H116.5V459ZM126.703 454.789H120.273C120.273 455.326 120.354 455.794 120.516 456.195C120.677 456.591 120.898 456.917 121.18 457.172C121.451 457.422 121.771 457.609 122.141 457.734C122.516 457.859 122.927 457.922 123.375 457.922C123.969 457.922 124.565 457.805 125.164 457.57C125.768 457.331 126.198 457.096 126.453 456.867H126.531V458.469C126.036 458.677 125.531 458.852 125.016 458.992C124.5 459.133 123.958 459.203 123.391 459.203C121.943 459.203 120.812 458.812 120 458.031C119.188 457.245 118.781 456.13 118.781 454.688C118.781 453.26 119.169 452.128 119.945 451.289C120.727 450.451 121.753 450.031 123.023 450.031C124.201 450.031 125.107 450.375 125.742 451.062C126.383 451.75 126.703 452.727 126.703 453.992V454.789ZM125.273 453.664C125.268 452.893 125.073 452.297 124.688 451.875C124.307 451.453 123.727 451.242 122.945 451.242C122.159 451.242 121.531 451.474 121.062 451.938C120.599 452.401 120.336 452.977 120.273 453.664H125.273ZM135.461 458.453C134.862 458.734 134.346 458.927 133.914 459.031C133.487 459.141 133.06 459.195 132.633 459.195C131.997 459.195 131.414 459.104 130.883 458.922C130.352 458.734 129.896 458.453 129.516 458.078C129.135 457.703 128.839 457.229 128.625 456.656C128.417 456.083 128.312 455.414 128.312 454.648C128.312 453.258 128.698 452.148 129.469 451.32C130.24 450.487 131.294 450.07 132.633 450.07C133.138 450.07 133.633 450.141 134.117 450.281C134.607 450.422 135.055 450.594 135.461 450.797V452.43H135.375C134.891 452.06 134.411 451.786 133.938 451.609C133.469 451.432 133.013 451.344 132.57 451.344C131.701 451.344 131.026 451.635 130.547 452.219C130.073 452.802 129.836 453.612 129.836 454.648C129.836 455.685 130.073 456.49 130.547 457.062C131.021 457.635 131.695 457.922 132.57 457.922C132.878 457.922 133.182 457.883 133.484 457.805C133.792 457.727 134.07 457.625 134.32 457.5C134.518 457.401 134.721 457.284 134.93 457.148C135.143 457.008 135.292 456.904 135.375 456.836H135.461V458.453Z" fill="#333333"/>
</g>
<defs>
<filter id="filter0_d_170_4031" x="0" y="0" width="326" height="540" filterUnits="userSpaceOnUse" color-interpolation-filters="sRGB">
<feFlood flood-opacity="0" result="BackgroundImageFix"/>
<feColorMatrix in="SourceAlpha" type="matrix" values="0 0 0 0 0 0 0 0 0 0 0 0 0 0 0 0 0 0 127 0" result="hardAlpha"/>
<feOffset dx="3" dy="5"/>
<feGaussianBlur stdDeviation="10"/>
<feComposite in2="hardAlpha" operator="out"/>
<feColorMatrix type="matrix" values="0 0 0 0 0.2 0 0 0 0 0.2 0 0 0 0 0.2 0 0 0 0.1 0"/>
<feBlend mode="normal" in2="BackgroundImageFix" result="effect1_dropShadow_170_4031"/>
<feBlend mode="normal" in="SourceGraphic" in2="effect1_dropShadow_170_4031" result="shape"/>
</filter>
<filter id="filter1_d_170_4031" x="22" y="28" width="112" height="112" filterUnits="userSpaceOnUse" color-interpolation-filters="sRGB">
<feFlood flood-opacity="0" result="BackgroundImageFix"/>
<feColorMatrix in="SourceAlpha" type="matrix" values="0 0 0 0 0 0 0 0 0 0 0 0 0 0 0 0 0 0 127 0" result="hardAlpha"/>
<feOffset dx="3" dy="3"/>
<feGaussianBlur stdDeviation="3"/>
<feComposite in2="hardAlpha" operator="out"/>
<feColorMatrix type="matrix" values="0 0 0 0 0.2 0 0 0 0 0.2 0 0 0 0 0.2 0 0 0 0.25 0"/>
<feBlend mode="normal" in2="BackgroundImageFix" result="effect1_dropShadow_170_4031"/>
<feBlend mode="normal" in="SourceGraphic" in2="effect1_dropShadow_170_4031" result="shape"/>
</filter>
</defs>
</svg>
