<svg width="326" height="540" viewBox="0 0 326 540" fill="none" xmlns="http://www.w3.org/2000/svg">
<g filter="url(#filter0_d_1763_11156)">
<rect x="17" y="15" width="286" height="500" rx="5" fill="white" shape-rendering="crispEdges"/>
<g filter="url(#filter1_d_1763_11156)">
<path d="M68.9181 122.417C67.9597 122.417 67.043 122 66.418 121.167L62.2097 115.542C61.3347 114.375 60.1681 113.708 58.9181 113.625C57.6681 113.542 56.418 114.125 55.418 115.167C49.3763 121.625 44.793 121.084 42.5847 120.25C40.3347 119.375 36.543 116.5 36.543 107.25V60.3335C36.543 41.8335 41.8763 36.2085 59.3346 36.2085H90.7931C108.251 36.2085 113.585 41.8335 113.585 60.3335V78.0834C113.585 79.7918 112.168 81.2084 110.46 81.2084C108.751 81.2084 107.335 79.7918 107.335 78.0834V60.3335C107.335 45.2919 104.71 42.4585 90.7931 42.4585H59.3346C45.418 42.4585 42.793 45.2919 42.793 60.3335V107.25C42.793 111.625 43.8763 114.042 44.8763 114.417C45.6263 114.708 47.6681 114.292 50.8347 110.917C53.1264 108.5 56.1264 107.208 59.2514 107.375C62.3347 107.542 65.2514 109.167 67.2097 111.792L71.4597 117.417C72.5013 118.792 72.2097 120.75 70.8347 121.792C70.2097 122.25 69.5431 122.417 68.9181 122.417Z" fill="#1959AB"/>
<path d="M100.833 123.292C91.7501 123.292 84.375 115.917 84.375 106.833C84.375 97.7501 91.7501 90.375 100.833 90.375C109.917 90.375 117.292 97.7501 117.292 106.833C117.292 115.917 109.917 123.292 100.833 123.292ZM100.833 96.625C95.2084 96.625 90.625 101.208 90.625 106.833C90.625 112.458 95.2084 117.042 100.833 117.042C106.458 117.042 111.042 112.458 111.042 106.833C111.042 101.208 106.458 96.625 100.833 96.625Z" fill="#1959AB"/>
<path d="M116.666 125.791C115.874 125.791 115.083 125.5 114.458 124.875L110.291 120.708C109.083 119.5 109.083 117.5 110.291 116.292C111.499 115.083 113.499 115.083 114.708 116.292L118.874 120.458C120.083 121.667 120.083 123.666 118.874 124.875C118.249 125.5 117.458 125.791 116.666 125.791Z" fill="#1959AB"/>
<path d="M91.6654 63.2915H58.332C56.6237 63.2915 55.207 61.8748 55.207 60.1665C55.207 58.4582 56.6237 57.0415 58.332 57.0415H91.6654C93.3737 57.0415 94.7904 58.4582 94.7904 60.1665C94.7904 61.8748 93.3737 63.2915 91.6654 63.2915Z" fill="#1959AB"/>
<path d="M87.5 79.9585H62.5C60.7917 79.9585 59.375 78.5418 59.375 76.8335C59.375 75.1252 60.7917 73.7085 62.5 73.7085H87.5C89.2083 73.7085 90.625 75.1252 90.625 76.8335C90.625 78.5418 89.2083 79.9585 87.5 79.9585Z" fill="#1959AB"/>
</g>
<path d="M45.5195 203H41.043V191.316L37.8086 198.898H34.7031L31.4688 191.316V203H27.2266V185.551H32.4531L36.3789 194.305L40.293 185.551H45.5195V203ZM63.2031 196.426C63.2031 198.59 62.5703 200.297 61.3047 201.547C60.0469 202.789 58.2773 203.41 55.9961 203.41C53.7148 203.41 51.9414 202.789 50.6758 201.547C49.418 200.297 48.7891 198.59 48.7891 196.426C48.7891 194.246 49.4219 192.535 50.6875 191.293C51.9609 190.051 53.7305 189.43 55.9961 189.43C58.293 189.43 60.0664 190.055 61.3164 191.305C62.5742 192.555 63.2031 194.262 63.2031 196.426ZM58.0117 199.625C58.2852 199.289 58.4883 198.887 58.6211 198.418C58.7617 197.941 58.832 197.285 58.832 196.449C58.832 195.676 58.7617 195.027 58.6211 194.504C58.4805 193.98 58.2852 193.562 58.0352 193.25C57.7852 192.93 57.4844 192.703 57.1328 192.57C56.7812 192.438 56.4023 192.371 55.9961 192.371C55.5898 192.371 55.2266 192.426 54.9062 192.535C54.5938 192.645 54.293 192.863 54.0039 193.191C53.7461 193.496 53.5391 193.914 53.3828 194.445C53.2344 194.977 53.1602 195.645 53.1602 196.449C53.1602 197.168 53.2266 197.793 53.3594 198.324C53.4922 198.848 53.6875 199.27 53.9453 199.59C54.1953 199.895 54.4922 200.117 54.8359 200.258C55.1875 200.398 55.5859 200.469 56.0312 200.469C56.4141 200.469 56.7773 200.406 57.1211 200.281C57.4727 200.148 57.7695 199.93 58.0117 199.625ZM70.4453 203H66.2266V184.766H70.4453V203ZM78.6484 203H74.4297V189.84H78.6484V203ZM78.7656 187.965H74.3125V184.766H78.7656V187.965ZM88.5742 198.348L91.5742 189.84H95.9102L88.5977 207.828H84.0273L86.1133 202.906L80.9922 189.84H85.4219L88.5742 198.348ZM106.234 199.566V196.824C105.664 196.871 105.047 196.938 104.383 197.023C103.719 197.102 103.215 197.195 102.871 197.305C102.449 197.438 102.125 197.633 101.898 197.891C101.68 198.141 101.57 198.473 101.57 198.887C101.57 199.16 101.594 199.383 101.641 199.555C101.688 199.727 101.805 199.891 101.992 200.047C102.172 200.203 102.387 200.32 102.637 200.398C102.887 200.469 103.277 200.504 103.809 200.504C104.23 200.504 104.656 200.418 105.086 200.246C105.523 200.074 105.906 199.848 106.234 199.566ZM106.234 201.605C106.008 201.777 105.727 201.984 105.391 202.227C105.055 202.469 104.738 202.66 104.441 202.801C104.027 202.988 103.598 203.125 103.152 203.211C102.707 203.305 102.219 203.352 101.688 203.352C100.438 203.352 99.3906 202.965 98.5469 202.191C97.7031 201.418 97.2812 200.43 97.2812 199.227C97.2812 198.266 97.4961 197.48 97.9258 196.871C98.3555 196.262 98.9648 195.781 99.7539 195.43C100.535 195.078 101.504 194.828 102.66 194.68C103.816 194.531 105.016 194.422 106.258 194.352V194.281C106.258 193.555 105.961 193.055 105.367 192.781C104.773 192.5 103.898 192.359 102.742 192.359C102.047 192.359 101.305 192.484 100.516 192.734C99.7266 192.977 99.1602 193.164 98.8164 193.297H98.4297V190.121C98.875 190.004 99.5977 189.867 100.598 189.711C101.605 189.547 102.613 189.465 103.621 189.465C106.02 189.465 107.75 189.836 108.812 190.578C109.883 191.312 110.418 192.469 110.418 194.047V203H106.234V201.605ZM118.516 203H114.297V184.766H118.516V203ZM130.469 199.566V196.824C129.898 196.871 129.281 196.938 128.617 197.023C127.953 197.102 127.449 197.195 127.105 197.305C126.684 197.438 126.359 197.633 126.133 197.891C125.914 198.141 125.805 198.473 125.805 198.887C125.805 199.16 125.828 199.383 125.875 199.555C125.922 199.727 126.039 199.891 126.227 200.047C126.406 200.203 126.621 200.32 126.871 200.398C127.121 200.469 127.512 200.504 128.043 200.504C128.465 200.504 128.891 200.418 129.32 200.246C129.758 200.074 130.141 199.848 130.469 199.566ZM130.469 201.605C130.242 201.777 129.961 201.984 129.625 202.227C129.289 202.469 128.973 202.66 128.676 202.801C128.262 202.988 127.832 203.125 127.387 203.211C126.941 203.305 126.453 203.352 125.922 203.352C124.672 203.352 123.625 202.965 122.781 202.191C121.938 201.418 121.516 200.43 121.516 199.227C121.516 198.266 121.73 197.48 122.16 196.871C122.59 196.262 123.199 195.781 123.988 195.43C124.77 195.078 125.738 194.828 126.895 194.68C128.051 194.531 129.25 194.422 130.492 194.352V194.281C130.492 193.555 130.195 193.055 129.602 192.781C129.008 192.5 128.133 192.359 126.977 192.359C126.281 192.359 125.539 192.484 124.75 192.734C123.961 192.977 123.395 193.164 123.051 193.297H122.664V190.121C123.109 190.004 123.832 189.867 124.832 189.711C125.84 189.547 126.848 189.465 127.855 189.465C130.254 189.465 131.984 189.836 133.047 190.578C134.117 191.312 134.652 192.469 134.652 194.047V203H130.469V201.605ZM149.969 198.828C149.969 200.188 149.359 201.285 148.141 202.121C146.922 202.949 145.254 203.363 143.137 203.363C141.965 203.363 140.902 203.254 139.949 203.035C138.996 202.816 138.23 202.574 137.652 202.309V198.84H138.039C138.25 198.988 138.492 199.152 138.766 199.332C139.047 199.504 139.441 199.691 139.949 199.895C140.387 200.074 140.883 200.23 141.438 200.363C141.992 200.488 142.586 200.551 143.219 200.551C144.047 200.551 144.66 200.461 145.059 200.281C145.457 200.094 145.656 199.82 145.656 199.461C145.656 199.141 145.539 198.91 145.305 198.77C145.07 198.621 144.625 198.48 143.969 198.348C143.656 198.277 143.23 198.203 142.691 198.125C142.16 198.039 141.676 197.938 141.238 197.82C140.043 197.508 139.156 197.023 138.578 196.367C138 195.703 137.711 194.879 137.711 193.895C137.711 192.629 138.309 191.578 139.504 190.742C140.707 189.898 142.348 189.477 144.426 189.477C145.41 189.477 146.352 189.578 147.25 189.781C148.156 189.977 148.863 190.188 149.371 190.414V193.742H149.008C148.383 193.312 147.668 192.965 146.863 192.699C146.066 192.426 145.258 192.289 144.438 192.289C143.758 192.289 143.184 192.383 142.715 192.57C142.254 192.758 142.023 193.023 142.023 193.367C142.023 193.68 142.129 193.918 142.34 194.082C142.551 194.246 143.047 194.41 143.828 194.574C144.258 194.66 144.719 194.746 145.211 194.832C145.711 194.91 146.211 195.012 146.711 195.137C147.82 195.426 148.641 195.883 149.172 196.508C149.703 197.125 149.969 197.898 149.969 198.828ZM166 203H161.758V196.473C161.758 195.941 161.73 195.414 161.676 194.891C161.621 194.359 161.527 193.969 161.395 193.719C161.238 193.43 161.008 193.219 160.703 193.086C160.406 192.953 159.988 192.887 159.449 192.887C159.066 192.887 158.676 192.949 158.277 193.074C157.887 193.199 157.461 193.398 157 193.672V203H152.781V184.766H157V191.293C157.75 190.707 158.469 190.258 159.156 189.945C159.852 189.633 160.621 189.477 161.465 189.477C162.887 189.477 163.996 189.891 164.793 190.719C165.598 191.547 166 192.785 166 194.434V203ZM178.305 202.883C177.852 203 177.371 203.09 176.863 203.152C176.355 203.223 175.734 203.258 175 203.258C173.359 203.258 172.137 202.926 171.332 202.262C170.535 201.598 170.137 200.461 170.137 198.852V192.699H168.402V189.84H170.137V186.078H174.355V189.84H178.305V192.699H174.355V197.363C174.355 197.824 174.359 198.227 174.367 198.57C174.375 198.914 174.438 199.223 174.555 199.496C174.664 199.77 174.855 199.988 175.129 200.152C175.41 200.309 175.816 200.387 176.348 200.387C176.566 200.387 176.852 200.34 177.203 200.246C177.562 200.152 177.812 200.066 177.953 199.988H178.305V202.883ZM185.055 203H180.836V189.84H185.055V203ZM185.172 187.965H180.719V184.766H185.172V187.965ZM198.578 193.859H198.203C198.023 193.797 197.734 193.75 197.336 193.719C196.938 193.688 196.605 193.672 196.34 193.672C195.738 193.672 195.207 193.711 194.746 193.789C194.285 193.867 193.789 194 193.258 194.188V203H189.039V189.84H193.258V191.773C194.188 190.977 194.996 190.449 195.684 190.191C196.371 189.926 197.004 189.793 197.582 189.793C197.73 189.793 197.898 189.797 198.086 189.805C198.273 189.812 198.438 189.824 198.578 189.84V193.859ZM205.188 203H200.969V189.84H205.188V203ZM205.305 187.965H200.852V184.766H205.305V187.965ZM220.609 198.828C220.609 200.188 220 201.285 218.781 202.121C217.562 202.949 215.895 203.363 213.777 203.363C212.605 203.363 211.543 203.254 210.59 203.035C209.637 202.816 208.871 202.574 208.293 202.309V198.84H208.68C208.891 198.988 209.133 199.152 209.406 199.332C209.688 199.504 210.082 199.691 210.59 199.895C211.027 200.074 211.523 200.23 212.078 200.363C212.633 200.488 213.227 200.551 213.859 200.551C214.688 200.551 215.301 200.461 215.699 200.281C216.098 200.094 216.297 199.82 216.297 199.461C216.297 199.141 216.18 198.91 215.945 198.77C215.711 198.621 215.266 198.48 214.609 198.348C214.297 198.277 213.871 198.203 213.332 198.125C212.801 198.039 212.316 197.938 211.879 197.82C210.684 197.508 209.797 197.023 209.219 196.367C208.641 195.703 208.352 194.879 208.352 193.895C208.352 192.629 208.949 191.578 210.145 190.742C211.348 189.898 212.988 189.477 215.066 189.477C216.051 189.477 216.992 189.578 217.891 189.781C218.797 189.977 219.504 190.188 220.012 190.414V193.742H219.648C219.023 193.312 218.309 192.965 217.504 192.699C216.707 192.426 215.898 192.289 215.078 192.289C214.398 192.289 213.824 192.383 213.355 192.57C212.895 192.758 212.664 193.023 212.664 193.367C212.664 193.68 212.77 193.918 212.98 194.082C213.191 194.246 213.688 194.41 214.469 194.574C214.898 194.66 215.359 194.746 215.852 194.832C216.352 194.91 216.852 195.012 217.352 195.137C218.461 195.426 219.281 195.883 219.812 196.508C220.344 197.125 220.609 197.898 220.609 198.828ZM236.641 203H232.398V196.473C232.398 195.941 232.371 195.414 232.316 194.891C232.262 194.359 232.168 193.969 232.035 193.719C231.879 193.43 231.648 193.219 231.344 193.086C231.047 192.953 230.629 192.887 230.09 192.887C229.707 192.887 229.316 192.949 228.918 193.074C228.527 193.199 228.102 193.398 227.641 193.672V203H223.422V184.766H227.641V191.293C228.391 190.707 229.109 190.258 229.797 189.945C230.492 189.633 231.262 189.477 232.105 189.477C233.527 189.477 234.637 189.891 235.434 190.719C236.238 191.547 236.641 192.785 236.641 194.434V203Z" fill="#333333"/>
<path d="M30 239L37.5 246.5L50 231.5" stroke="#61B857" stroke-width="2" stroke-linecap="round" stroke-linejoin="round"/>
<path d="M74.9219 245.5H73.375V235.477L70.1406 242.297H69.2188L66.0078 235.477V245.5H64.5625V233.867H66.6719L69.7734 240.344L72.7734 233.867H74.9219V245.5ZM84.7109 245.5H83.25V244.57C83.1198 244.659 82.9427 244.784 82.7188 244.945C82.5 245.102 82.2865 245.227 82.0781 245.32C81.8333 245.44 81.5521 245.539 81.2344 245.617C80.9167 245.701 80.5443 245.742 80.1172 245.742C79.3307 245.742 78.6641 245.482 78.1172 244.961C77.5703 244.44 77.2969 243.776 77.2969 242.969C77.2969 242.307 77.4375 241.773 77.7188 241.367C78.0052 240.956 78.4115 240.633 78.9375 240.398C79.4688 240.164 80.1068 240.005 80.8516 239.922C81.5964 239.839 82.3958 239.776 83.25 239.734V239.508C83.25 239.174 83.1901 238.898 83.0703 238.68C82.9557 238.461 82.7891 238.289 82.5703 238.164C82.362 238.044 82.112 237.964 81.8203 237.922C81.5286 237.88 81.224 237.859 80.9062 237.859C80.5208 237.859 80.0911 237.911 79.6172 238.016C79.1432 238.115 78.6536 238.26 78.1484 238.453H78.0703V236.961C78.3568 236.883 78.7708 236.797 79.3125 236.703C79.8542 236.609 80.388 236.562 80.9141 236.562C81.5286 236.562 82.0625 236.615 82.5156 236.719C82.974 236.818 83.3698 236.99 83.7031 237.234C84.0312 237.474 84.2812 237.784 84.4531 238.164C84.625 238.544 84.7109 239.016 84.7109 239.578V245.5ZM83.25 243.352V240.922C82.8021 240.948 82.2734 240.987 81.6641 241.039C81.0599 241.091 80.5807 241.167 80.2266 241.266C79.8047 241.385 79.4635 241.573 79.2031 241.828C78.9427 242.078 78.8125 242.424 78.8125 242.867C78.8125 243.367 78.9635 243.745 79.2656 244C79.5677 244.25 80.0286 244.375 80.6484 244.375C81.1641 244.375 81.6354 244.276 82.0625 244.078C82.4896 243.875 82.8854 243.633 83.25 243.352ZM89.0234 245.5H87.5547V233.344H89.0234V245.5ZM99.1641 245.5H97.6953V244.531C97.2005 244.922 96.7266 245.221 96.2734 245.43C95.8203 245.638 95.3203 245.742 94.7734 245.742C93.8568 245.742 93.1432 245.464 92.6328 244.906C92.1224 244.344 91.8672 243.521 91.8672 242.438V236.773H93.3359V241.742C93.3359 242.185 93.3568 242.565 93.3984 242.883C93.4401 243.195 93.5286 243.464 93.6641 243.688C93.8047 243.917 93.987 244.083 94.2109 244.188C94.4349 244.292 94.7604 244.344 95.1875 244.344C95.5677 244.344 95.9818 244.245 96.4297 244.047C96.8828 243.849 97.3047 243.596 97.6953 243.289V236.773H99.1641V245.5ZM114.789 245.5H113.32V240.531C113.32 240.156 113.302 239.794 113.266 239.445C113.234 239.096 113.164 238.818 113.055 238.609C112.935 238.385 112.763 238.216 112.539 238.102C112.315 237.987 111.992 237.93 111.57 237.93C111.159 237.93 110.747 238.034 110.336 238.242C109.924 238.445 109.513 238.706 109.102 239.023C109.117 239.143 109.13 239.284 109.141 239.445C109.151 239.602 109.156 239.758 109.156 239.914V245.5H107.688V240.531C107.688 240.146 107.669 239.781 107.633 239.438C107.602 239.089 107.531 238.81 107.422 238.602C107.302 238.378 107.13 238.211 106.906 238.102C106.682 237.987 106.359 237.93 105.938 237.93C105.536 237.93 105.133 238.029 104.727 238.227C104.326 238.424 103.924 238.677 103.523 238.984V245.5H102.055V236.773H103.523V237.742C103.982 237.362 104.438 237.065 104.891 236.852C105.349 236.638 105.836 236.531 106.352 236.531C106.945 236.531 107.448 236.656 107.859 236.906C108.276 237.156 108.586 237.503 108.789 237.945C109.383 237.445 109.924 237.086 110.414 236.867C110.904 236.643 111.427 236.531 111.984 236.531C112.943 236.531 113.648 236.823 114.102 237.406C114.56 237.984 114.789 238.794 114.789 239.836V245.5ZM125.055 241.141C125.055 242.562 124.69 243.685 123.961 244.508C123.232 245.331 122.255 245.742 121.031 245.742C119.797 245.742 118.815 245.331 118.086 244.508C117.362 243.685 117 242.562 117 241.141C117 239.719 117.362 238.596 118.086 237.773C118.815 236.945 119.797 236.531 121.031 236.531C122.255 236.531 123.232 236.945 123.961 237.773C124.69 238.596 125.055 239.719 125.055 241.141ZM123.539 241.141C123.539 240.01 123.318 239.172 122.875 238.625C122.432 238.073 121.818 237.797 121.031 237.797C120.234 237.797 119.615 238.073 119.172 238.625C118.734 239.172 118.516 240.01 118.516 241.141C118.516 242.234 118.737 243.065 119.18 243.633C119.622 244.195 120.24 244.477 121.031 244.477C121.812 244.477 122.424 244.198 122.867 243.641C123.315 243.078 123.539 242.245 123.539 241.141ZM131.867 245.422C131.591 245.495 131.289 245.555 130.961 245.602C130.638 245.648 130.349 245.672 130.094 245.672C129.203 245.672 128.526 245.432 128.062 244.953C127.599 244.474 127.367 243.706 127.367 242.648V238.008H126.375V236.773H127.367V234.266H128.836V236.773H131.867V238.008H128.836V241.984C128.836 242.443 128.846 242.802 128.867 243.062C128.888 243.318 128.961 243.557 129.086 243.781C129.201 243.99 129.357 244.143 129.555 244.242C129.758 244.336 130.065 244.383 130.477 244.383C130.716 244.383 130.966 244.349 131.227 244.281C131.487 244.208 131.674 244.148 131.789 244.102H131.867V245.422ZM135.133 245.5H133.664V233.344H135.133V245.5ZM144.82 245.5H143.359V244.57C143.229 244.659 143.052 244.784 142.828 244.945C142.609 245.102 142.396 245.227 142.188 245.32C141.943 245.44 141.661 245.539 141.344 245.617C141.026 245.701 140.654 245.742 140.227 245.742C139.44 245.742 138.773 245.482 138.227 244.961C137.68 244.44 137.406 243.776 137.406 242.969C137.406 242.307 137.547 241.773 137.828 241.367C138.115 240.956 138.521 240.633 139.047 240.398C139.578 240.164 140.216 240.005 140.961 239.922C141.706 239.839 142.505 239.776 143.359 239.734V239.508C143.359 239.174 143.299 238.898 143.18 238.68C143.065 238.461 142.898 238.289 142.68 238.164C142.471 238.044 142.221 237.964 141.93 237.922C141.638 237.88 141.333 237.859 141.016 237.859C140.63 237.859 140.201 237.911 139.727 238.016C139.253 238.115 138.763 238.26 138.258 238.453H138.18V236.961C138.466 236.883 138.88 236.797 139.422 236.703C139.964 236.609 140.497 236.562 141.023 236.562C141.638 236.562 142.172 236.615 142.625 236.719C143.083 236.818 143.479 236.99 143.812 237.234C144.141 237.474 144.391 237.784 144.562 238.164C144.734 238.544 144.82 239.016 144.82 239.578V245.5ZM143.359 243.352V240.922C142.911 240.948 142.383 240.987 141.773 241.039C141.169 241.091 140.69 241.167 140.336 241.266C139.914 241.385 139.573 241.573 139.312 241.828C139.052 242.078 138.922 242.424 138.922 242.867C138.922 243.367 139.073 243.745 139.375 244C139.677 244.25 140.138 244.375 140.758 244.375C141.273 244.375 141.745 244.276 142.172 244.078C142.599 243.875 142.995 243.633 143.359 243.352ZM153.094 238.375H153.016C152.797 238.323 152.583 238.286 152.375 238.266C152.172 238.24 151.93 238.227 151.648 238.227C151.195 238.227 150.758 238.328 150.336 238.531C149.914 238.729 149.508 238.987 149.117 239.305V245.5H147.648V236.773H149.117V238.062C149.701 237.594 150.214 237.263 150.656 237.07C151.104 236.872 151.56 236.773 152.023 236.773C152.279 236.773 152.464 236.781 152.578 236.797C152.693 236.807 152.865 236.831 153.094 236.867V238.375ZM167.781 241.07C167.781 241.799 167.677 242.456 167.469 243.039C167.266 243.622 166.99 244.112 166.641 244.508C166.271 244.919 165.865 245.229 165.422 245.438C164.979 245.641 164.492 245.742 163.961 245.742C163.466 245.742 163.034 245.682 162.664 245.562C162.294 245.448 161.93 245.292 161.57 245.094L161.477 245.5H160.102V233.344H161.57V237.688C161.982 237.349 162.419 237.073 162.883 236.859C163.346 236.641 163.867 236.531 164.445 236.531C165.477 236.531 166.289 236.927 166.883 237.719C167.482 238.51 167.781 239.628 167.781 241.07ZM166.266 241.109C166.266 240.068 166.094 239.279 165.75 238.742C165.406 238.201 164.852 237.93 164.086 237.93C163.659 237.93 163.227 238.023 162.789 238.211C162.352 238.393 161.945 238.63 161.57 238.922V243.922C161.987 244.109 162.344 244.24 162.641 244.312C162.943 244.385 163.284 244.422 163.664 244.422C164.477 244.422 165.112 244.156 165.57 243.625C166.034 243.089 166.266 242.25 166.266 241.109ZM176.852 245.5H175.391V244.57C175.26 244.659 175.083 244.784 174.859 244.945C174.641 245.102 174.427 245.227 174.219 245.32C173.974 245.44 173.693 245.539 173.375 245.617C173.057 245.701 172.685 245.742 172.258 245.742C171.471 245.742 170.805 245.482 170.258 244.961C169.711 244.44 169.438 243.776 169.438 242.969C169.438 242.307 169.578 241.773 169.859 241.367C170.146 240.956 170.552 240.633 171.078 240.398C171.609 240.164 172.247 240.005 172.992 239.922C173.737 239.839 174.536 239.776 175.391 239.734V239.508C175.391 239.174 175.331 238.898 175.211 238.68C175.096 238.461 174.93 238.289 174.711 238.164C174.503 238.044 174.253 237.964 173.961 237.922C173.669 237.88 173.365 237.859 173.047 237.859C172.661 237.859 172.232 237.911 171.758 238.016C171.284 238.115 170.794 238.26 170.289 238.453H170.211V236.961C170.497 236.883 170.911 236.797 171.453 236.703C171.995 236.609 172.529 236.562 173.055 236.562C173.669 236.562 174.203 236.615 174.656 236.719C175.115 236.818 175.51 236.99 175.844 237.234C176.172 237.474 176.422 237.784 176.594 238.164C176.766 238.544 176.852 239.016 176.852 239.578V245.5ZM175.391 243.352V240.922C174.943 240.948 174.414 240.987 173.805 241.039C173.201 241.091 172.721 241.167 172.367 241.266C171.945 241.385 171.604 241.573 171.344 241.828C171.083 242.078 170.953 242.424 170.953 242.867C170.953 243.367 171.104 243.745 171.406 244C171.708 244.25 172.169 244.375 172.789 244.375C173.305 244.375 173.776 244.276 174.203 244.078C174.63 243.875 175.026 243.633 175.391 243.352ZM186.008 245.5H178.961V244.414L184.047 238H179.07V236.773H185.875V237.82L180.766 244.258H186.008V245.5ZM194.867 245.5H193.406V244.57C193.276 244.659 193.099 244.784 192.875 244.945C192.656 245.102 192.443 245.227 192.234 245.32C191.99 245.44 191.708 245.539 191.391 245.617C191.073 245.701 190.701 245.742 190.273 245.742C189.487 245.742 188.82 245.482 188.273 244.961C187.727 244.44 187.453 243.776 187.453 242.969C187.453 242.307 187.594 241.773 187.875 241.367C188.161 240.956 188.568 240.633 189.094 240.398C189.625 240.164 190.263 240.005 191.008 239.922C191.753 239.839 192.552 239.776 193.406 239.734V239.508C193.406 239.174 193.346 238.898 193.227 238.68C193.112 238.461 192.945 238.289 192.727 238.164C192.518 238.044 192.268 237.964 191.977 237.922C191.685 237.88 191.38 237.859 191.062 237.859C190.677 237.859 190.247 237.911 189.773 238.016C189.299 238.115 188.81 238.26 188.305 238.453H188.227V236.961C188.513 236.883 188.927 236.797 189.469 236.703C190.01 236.609 190.544 236.562 191.07 236.562C191.685 236.562 192.219 236.615 192.672 236.719C193.13 236.818 193.526 236.99 193.859 237.234C194.188 237.474 194.438 237.784 194.609 238.164C194.781 238.544 194.867 239.016 194.867 239.578V245.5ZM193.406 243.352V240.922C192.958 240.948 192.43 240.987 191.82 241.039C191.216 241.091 190.737 241.167 190.383 241.266C189.961 241.385 189.62 241.573 189.359 241.828C189.099 242.078 188.969 242.424 188.969 242.867C188.969 243.367 189.12 243.745 189.422 244C189.724 244.25 190.185 244.375 190.805 244.375C191.32 244.375 191.792 244.276 192.219 244.078C192.646 243.875 193.042 243.633 193.406 243.352ZM203.93 242.984C203.93 243.781 203.599 244.435 202.938 244.945C202.281 245.456 201.383 245.711 200.242 245.711C199.596 245.711 199.003 245.635 198.461 245.484C197.924 245.328 197.474 245.159 197.109 244.977V243.328H197.188C197.651 243.677 198.167 243.956 198.734 244.164C199.302 244.367 199.846 244.469 200.367 244.469C201.013 244.469 201.518 244.365 201.883 244.156C202.247 243.948 202.43 243.62 202.43 243.172C202.43 242.828 202.331 242.568 202.133 242.391C201.935 242.214 201.555 242.062 200.992 241.938C200.784 241.891 200.51 241.836 200.172 241.773C199.839 241.711 199.534 241.643 199.258 241.57C198.492 241.367 197.948 241.07 197.625 240.68C197.307 240.284 197.148 239.799 197.148 239.227C197.148 238.867 197.221 238.529 197.367 238.211C197.518 237.893 197.745 237.609 198.047 237.359C198.339 237.115 198.708 236.922 199.156 236.781C199.609 236.635 200.115 236.562 200.672 236.562C201.193 236.562 201.719 236.628 202.25 236.758C202.786 236.883 203.232 237.036 203.586 237.219V238.789H203.508C203.133 238.513 202.677 238.281 202.141 238.094C201.604 237.901 201.078 237.805 200.562 237.805C200.026 237.805 199.573 237.909 199.203 238.117C198.833 238.32 198.648 238.625 198.648 239.031C198.648 239.391 198.76 239.661 198.984 239.844C199.203 240.026 199.557 240.174 200.047 240.289C200.318 240.352 200.62 240.414 200.953 240.477C201.292 240.539 201.573 240.596 201.797 240.648C202.479 240.805 203.005 241.073 203.375 241.453C203.745 241.839 203.93 242.349 203.93 242.984ZM207.617 235.312H205.961V233.789H207.617V235.312ZM207.523 245.5H206.055V236.773H207.523V245.5Z" fill="#333333"/>
<path d="M30 285L37.5 292.5L50 277.5" stroke="#61B857" stroke-width="2" stroke-linecap="round" stroke-linejoin="round"/>
<path d="M74.9219 291.5H73.375V281.477L70.1406 288.297H69.2188L66.0078 281.477V291.5H64.5625V279.867H66.6719L69.7734 286.344L72.7734 279.867H74.9219V291.5ZM85.3672 287.141C85.3672 288.562 85.0026 289.685 84.2734 290.508C83.5443 291.331 82.5677 291.742 81.3438 291.742C80.1094 291.742 79.1276 291.331 78.3984 290.508C77.6745 289.685 77.3125 288.562 77.3125 287.141C77.3125 285.719 77.6745 284.596 78.3984 283.773C79.1276 282.945 80.1094 282.531 81.3438 282.531C82.5677 282.531 83.5443 282.945 84.2734 283.773C85.0026 284.596 85.3672 285.719 85.3672 287.141ZM83.8516 287.141C83.8516 286.01 83.6302 285.172 83.1875 284.625C82.7448 284.073 82.1302 283.797 81.3438 283.797C80.5469 283.797 79.9271 284.073 79.4844 284.625C79.0469 285.172 78.8281 286.01 78.8281 287.141C78.8281 288.234 79.0495 289.065 79.4922 289.633C79.9349 290.195 80.5521 290.477 81.3438 290.477C82.125 290.477 82.737 290.198 83.1797 289.641C83.6276 289.078 83.8516 288.245 83.8516 287.141ZM89.1328 291.5H87.6641V279.344H89.1328V291.5ZM93.6172 281.312H91.9609V279.789H93.6172V281.312ZM93.5234 291.5H92.0547V282.773H93.5234V291.5ZM103.977 282.773L98.8828 294.719H97.3125L98.9375 291.078L95.4609 282.773H97.0547L99.7344 289.242L102.438 282.773H103.977ZM112.367 291.5H110.906V290.57C110.776 290.659 110.599 290.784 110.375 290.945C110.156 291.102 109.943 291.227 109.734 291.32C109.49 291.44 109.208 291.539 108.891 291.617C108.573 291.701 108.201 291.742 107.773 291.742C106.987 291.742 106.32 291.482 105.773 290.961C105.227 290.44 104.953 289.776 104.953 288.969C104.953 288.307 105.094 287.773 105.375 287.367C105.661 286.956 106.068 286.633 106.594 286.398C107.125 286.164 107.763 286.005 108.508 285.922C109.253 285.839 110.052 285.776 110.906 285.734V285.508C110.906 285.174 110.846 284.898 110.727 284.68C110.612 284.461 110.445 284.289 110.227 284.164C110.018 284.044 109.768 283.964 109.477 283.922C109.185 283.88 108.88 283.859 108.562 283.859C108.177 283.859 107.747 283.911 107.273 284.016C106.799 284.115 106.31 284.26 105.805 284.453H105.727V282.961C106.013 282.883 106.427 282.797 106.969 282.703C107.51 282.609 108.044 282.562 108.57 282.562C109.185 282.562 109.719 282.615 110.172 282.719C110.63 282.818 111.026 282.99 111.359 283.234C111.688 283.474 111.938 283.784 112.109 284.164C112.281 284.544 112.367 285.016 112.367 285.578V291.5ZM110.906 289.352V286.922C110.458 286.948 109.93 286.987 109.32 287.039C108.716 287.091 108.237 287.167 107.883 287.266C107.461 287.385 107.12 287.573 106.859 287.828C106.599 288.078 106.469 288.424 106.469 288.867C106.469 289.367 106.62 289.745 106.922 290C107.224 290.25 107.685 290.375 108.305 290.375C108.82 290.375 109.292 290.276 109.719 290.078C110.146 289.875 110.542 289.633 110.906 289.352ZM122.617 282.773L119.086 291.5H117.609L114.102 282.773H115.695L118.398 289.719L121.078 282.773H122.617ZM126.117 281.312H124.461V279.789H126.117V281.312ZM126.023 291.5H124.555V282.773H126.023V291.5ZM136.477 282.773L131.383 294.719H129.812L131.438 291.078L127.961 282.773H129.555L132.234 289.242L134.938 282.773H136.477ZM156.758 291.5H155.289V286.531C155.289 286.156 155.271 285.794 155.234 285.445C155.203 285.096 155.133 284.818 155.023 284.609C154.904 284.385 154.732 284.216 154.508 284.102C154.284 283.987 153.961 283.93 153.539 283.93C153.128 283.93 152.716 284.034 152.305 284.242C151.893 284.445 151.482 284.706 151.07 285.023C151.086 285.143 151.099 285.284 151.109 285.445C151.12 285.602 151.125 285.758 151.125 285.914V291.5H149.656V286.531C149.656 286.146 149.638 285.781 149.602 285.438C149.57 285.089 149.5 284.81 149.391 284.602C149.271 284.378 149.099 284.211 148.875 284.102C148.651 283.987 148.328 283.93 147.906 283.93C147.505 283.93 147.102 284.029 146.695 284.227C146.294 284.424 145.893 284.677 145.492 284.984V291.5H144.023V282.773H145.492V283.742C145.951 283.362 146.406 283.065 146.859 282.852C147.318 282.638 147.805 282.531 148.32 282.531C148.914 282.531 149.417 282.656 149.828 282.906C150.245 283.156 150.555 283.503 150.758 283.945C151.352 283.445 151.893 283.086 152.383 282.867C152.872 282.643 153.396 282.531 153.953 282.531C154.911 282.531 155.617 282.823 156.07 283.406C156.529 283.984 156.758 284.794 156.758 285.836V291.5ZM166.367 291.5H164.906V290.57C164.776 290.659 164.599 290.784 164.375 290.945C164.156 291.102 163.943 291.227 163.734 291.32C163.49 291.44 163.208 291.539 162.891 291.617C162.573 291.701 162.201 291.742 161.773 291.742C160.987 291.742 160.32 291.482 159.773 290.961C159.227 290.44 158.953 289.776 158.953 288.969C158.953 288.307 159.094 287.773 159.375 287.367C159.661 286.956 160.068 286.633 160.594 286.398C161.125 286.164 161.763 286.005 162.508 285.922C163.253 285.839 164.052 285.776 164.906 285.734V285.508C164.906 285.174 164.846 284.898 164.727 284.68C164.612 284.461 164.445 284.289 164.227 284.164C164.018 284.044 163.768 283.964 163.477 283.922C163.185 283.88 162.88 283.859 162.562 283.859C162.177 283.859 161.747 283.911 161.273 284.016C160.799 284.115 160.31 284.26 159.805 284.453H159.727V282.961C160.013 282.883 160.427 282.797 160.969 282.703C161.51 282.609 162.044 282.562 162.57 282.562C163.185 282.562 163.719 282.615 164.172 282.719C164.63 282.818 165.026 282.99 165.359 283.234C165.688 283.474 165.938 283.784 166.109 284.164C166.281 284.544 166.367 285.016 166.367 285.578V291.5ZM164.906 289.352V286.922C164.458 286.948 163.93 286.987 163.32 287.039C162.716 287.091 162.237 287.167 161.883 287.266C161.461 287.385 161.12 287.573 160.859 287.828C160.599 288.078 160.469 288.424 160.469 288.867C160.469 289.367 160.62 289.745 160.922 290C161.224 290.25 161.685 290.375 162.305 290.375C162.82 290.375 163.292 290.276 163.719 290.078C164.146 289.875 164.542 289.633 164.906 289.352ZM175.43 288.984C175.43 289.781 175.099 290.435 174.438 290.945C173.781 291.456 172.883 291.711 171.742 291.711C171.096 291.711 170.503 291.635 169.961 291.484C169.424 291.328 168.974 291.159 168.609 290.977V289.328H168.688C169.151 289.677 169.667 289.956 170.234 290.164C170.802 290.367 171.346 290.469 171.867 290.469C172.513 290.469 173.018 290.365 173.383 290.156C173.747 289.948 173.93 289.62 173.93 289.172C173.93 288.828 173.831 288.568 173.633 288.391C173.435 288.214 173.055 288.062 172.492 287.938C172.284 287.891 172.01 287.836 171.672 287.773C171.339 287.711 171.034 287.643 170.758 287.57C169.992 287.367 169.448 287.07 169.125 286.68C168.807 286.284 168.648 285.799 168.648 285.227C168.648 284.867 168.721 284.529 168.867 284.211C169.018 283.893 169.245 283.609 169.547 283.359C169.839 283.115 170.208 282.922 170.656 282.781C171.109 282.635 171.615 282.562 172.172 282.562C172.693 282.562 173.219 282.628 173.75 282.758C174.286 282.883 174.732 283.036 175.086 283.219V284.789H175.008C174.633 284.513 174.177 284.281 173.641 284.094C173.104 283.901 172.578 283.805 172.062 283.805C171.526 283.805 171.073 283.909 170.703 284.117C170.333 284.32 170.148 284.625 170.148 285.031C170.148 285.391 170.26 285.661 170.484 285.844C170.703 286.026 171.057 286.174 171.547 286.289C171.818 286.352 172.12 286.414 172.453 286.477C172.792 286.539 173.073 286.596 173.297 286.648C173.979 286.805 174.505 287.073 174.875 287.453C175.245 287.839 175.43 288.349 175.43 288.984ZM179.023 291.5H177.555V279.344H179.023V291.5ZM188.711 291.5H187.25V290.57C187.12 290.659 186.943 290.784 186.719 290.945C186.5 291.102 186.286 291.227 186.078 291.32C185.833 291.44 185.552 291.539 185.234 291.617C184.917 291.701 184.544 291.742 184.117 291.742C183.331 291.742 182.664 291.482 182.117 290.961C181.57 290.44 181.297 289.776 181.297 288.969C181.297 288.307 181.438 287.773 181.719 287.367C182.005 286.956 182.411 286.633 182.938 286.398C183.469 286.164 184.107 286.005 184.852 285.922C185.596 285.839 186.396 285.776 187.25 285.734V285.508C187.25 285.174 187.19 284.898 187.07 284.68C186.956 284.461 186.789 284.289 186.57 284.164C186.362 284.044 186.112 283.964 185.82 283.922C185.529 283.88 185.224 283.859 184.906 283.859C184.521 283.859 184.091 283.911 183.617 284.016C183.143 284.115 182.654 284.26 182.148 284.453H182.07V282.961C182.357 282.883 182.771 282.797 183.312 282.703C183.854 282.609 184.388 282.562 184.914 282.562C185.529 282.562 186.062 282.615 186.516 282.719C186.974 282.818 187.37 282.99 187.703 283.234C188.031 283.474 188.281 283.784 188.453 284.164C188.625 284.544 188.711 285.016 188.711 285.578V291.5ZM187.25 289.352V286.922C186.802 286.948 186.273 286.987 185.664 287.039C185.06 287.091 184.581 287.167 184.227 287.266C183.805 287.385 183.464 287.573 183.203 287.828C182.943 288.078 182.812 288.424 182.812 288.867C182.812 289.367 182.964 289.745 183.266 290C183.568 290.25 184.029 290.375 184.648 290.375C185.164 290.375 185.635 290.276 186.062 290.078C186.49 289.875 186.885 289.633 187.25 289.352ZM198.836 291.5H197.367V286.531C197.367 286.13 197.344 285.755 197.297 285.406C197.25 285.052 197.164 284.776 197.039 284.578C196.909 284.359 196.721 284.198 196.477 284.094C196.232 283.984 195.914 283.93 195.523 283.93C195.122 283.93 194.703 284.029 194.266 284.227C193.828 284.424 193.409 284.677 193.008 284.984V291.5H191.539V279.344H193.008V283.742C193.466 283.362 193.94 283.065 194.43 282.852C194.919 282.638 195.422 282.531 195.938 282.531C196.88 282.531 197.599 282.815 198.094 283.383C198.589 283.951 198.836 284.768 198.836 285.836V291.5ZM208.445 291.5H206.984V290.57C206.854 290.659 206.677 290.784 206.453 290.945C206.234 291.102 206.021 291.227 205.812 291.32C205.568 291.44 205.286 291.539 204.969 291.617C204.651 291.701 204.279 291.742 203.852 291.742C203.065 291.742 202.398 291.482 201.852 290.961C201.305 290.44 201.031 289.776 201.031 288.969C201.031 288.307 201.172 287.773 201.453 287.367C201.74 286.956 202.146 286.633 202.672 286.398C203.203 286.164 203.841 286.005 204.586 285.922C205.331 285.839 206.13 285.776 206.984 285.734V285.508C206.984 285.174 206.924 284.898 206.805 284.68C206.69 284.461 206.523 284.289 206.305 284.164C206.096 284.044 205.846 283.964 205.555 283.922C205.263 283.88 204.958 283.859 204.641 283.859C204.255 283.859 203.826 283.911 203.352 284.016C202.878 284.115 202.388 284.26 201.883 284.453H201.805V282.961C202.091 282.883 202.505 282.797 203.047 282.703C203.589 282.609 204.122 282.562 204.648 282.562C205.263 282.562 205.797 282.615 206.25 282.719C206.708 282.818 207.104 282.99 207.438 283.234C207.766 283.474 208.016 283.784 208.188 284.164C208.359 284.544 208.445 285.016 208.445 285.578V291.5ZM206.984 289.352V286.922C206.536 286.948 206.008 286.987 205.398 287.039C204.794 287.091 204.315 287.167 203.961 287.266C203.539 287.385 203.198 287.573 202.938 287.828C202.677 288.078 202.547 288.424 202.547 288.867C202.547 289.367 202.698 289.745 203 290C203.302 290.25 203.763 290.375 204.383 290.375C204.898 290.375 205.37 290.276 205.797 290.078C206.224 289.875 206.62 289.633 206.984 289.352ZM215.805 291.422C215.529 291.495 215.227 291.555 214.898 291.602C214.576 291.648 214.286 291.672 214.031 291.672C213.141 291.672 212.464 291.432 212 290.953C211.536 290.474 211.305 289.706 211.305 288.648V284.008H210.312V282.773H211.305V280.266H212.773V282.773H215.805V284.008H212.773V287.984C212.773 288.443 212.784 288.802 212.805 289.062C212.826 289.318 212.898 289.557 213.023 289.781C213.138 289.99 213.294 290.143 213.492 290.242C213.695 290.336 214.003 290.383 214.414 290.383C214.654 290.383 214.904 290.349 215.164 290.281C215.424 290.208 215.612 290.148 215.727 290.102H215.805V291.422Z" fill="#333333"/>
<path d="M30 331L37.5 338.5L50 323.5" stroke="#61B857" stroke-width="2" stroke-linecap="round" stroke-linejoin="round"/>
<path d="M74.9219 332H73.375V321.977L70.1406 328.797H69.2188L66.0078 321.977V332H64.5625V320.367H66.6719L69.7734 326.844L72.7734 320.367H74.9219V332ZM85.3672 327.641C85.3672 329.062 85.0026 330.185 84.2734 331.008C83.5443 331.831 82.5677 332.242 81.3438 332.242C80.1094 332.242 79.1276 331.831 78.3984 331.008C77.6745 330.185 77.3125 329.062 77.3125 327.641C77.3125 326.219 77.6745 325.096 78.3984 324.273C79.1276 323.445 80.1094 323.031 81.3438 323.031C82.5677 323.031 83.5443 323.445 84.2734 324.273C85.0026 325.096 85.3672 326.219 85.3672 327.641ZM83.8516 327.641C83.8516 326.51 83.6302 325.672 83.1875 325.125C82.7448 324.573 82.1302 324.297 81.3438 324.297C80.5469 324.297 79.9271 324.573 79.4844 325.125C79.0469 325.672 78.8281 326.51 78.8281 327.641C78.8281 328.734 79.0495 329.565 79.4922 330.133C79.9349 330.695 80.5521 330.977 81.3438 330.977C82.125 330.977 82.737 330.698 83.1797 330.141C83.6276 329.578 83.8516 328.745 83.8516 327.641ZM89.1328 332H87.6641V319.844H89.1328V332ZM93.6172 321.812H91.9609V320.289H93.6172V321.812ZM93.5234 332H92.0547V323.273H93.5234V332ZM103.977 323.273L98.8828 335.219H97.3125L98.9375 331.578L95.4609 323.273H97.0547L99.7344 329.742L102.438 323.273H103.977ZM112.367 332H110.906V331.07C110.776 331.159 110.599 331.284 110.375 331.445C110.156 331.602 109.943 331.727 109.734 331.82C109.49 331.94 109.208 332.039 108.891 332.117C108.573 332.201 108.201 332.242 107.773 332.242C106.987 332.242 106.32 331.982 105.773 331.461C105.227 330.94 104.953 330.276 104.953 329.469C104.953 328.807 105.094 328.273 105.375 327.867C105.661 327.456 106.068 327.133 106.594 326.898C107.125 326.664 107.763 326.505 108.508 326.422C109.253 326.339 110.052 326.276 110.906 326.234V326.008C110.906 325.674 110.846 325.398 110.727 325.18C110.612 324.961 110.445 324.789 110.227 324.664C110.018 324.544 109.768 324.464 109.477 324.422C109.185 324.38 108.88 324.359 108.562 324.359C108.177 324.359 107.747 324.411 107.273 324.516C106.799 324.615 106.31 324.76 105.805 324.953H105.727V323.461C106.013 323.383 106.427 323.297 106.969 323.203C107.51 323.109 108.044 323.062 108.57 323.062C109.185 323.062 109.719 323.115 110.172 323.219C110.63 323.318 111.026 323.49 111.359 323.734C111.688 323.974 111.938 324.284 112.109 324.664C112.281 325.044 112.367 325.516 112.367 326.078V332ZM110.906 329.852V327.422C110.458 327.448 109.93 327.487 109.32 327.539C108.716 327.591 108.237 327.667 107.883 327.766C107.461 327.885 107.12 328.073 106.859 328.328C106.599 328.578 106.469 328.924 106.469 329.367C106.469 329.867 106.62 330.245 106.922 330.5C107.224 330.75 107.685 330.875 108.305 330.875C108.82 330.875 109.292 330.776 109.719 330.578C110.146 330.375 110.542 330.133 110.906 329.852ZM122.617 323.273L119.086 332H117.609L114.102 323.273H115.695L118.398 330.219L121.078 323.273H122.617ZM126.117 321.812H124.461V320.289H126.117V321.812ZM126.023 332H124.555V323.273H126.023V332ZM136.477 323.273L131.383 335.219H129.812L131.438 331.578L127.961 323.273H129.555L132.234 329.742L134.938 323.273H136.477ZM152.594 328.68C152.594 329.133 152.487 329.581 152.273 330.023C152.065 330.466 151.771 330.841 151.391 331.148C150.974 331.482 150.487 331.742 149.93 331.93C149.378 332.117 148.711 332.211 147.93 332.211C147.091 332.211 146.336 332.133 145.664 331.977C144.997 331.82 144.318 331.589 143.625 331.281V329.344H143.734C144.323 329.833 145.003 330.211 145.773 330.477C146.544 330.742 147.268 330.875 147.945 330.875C148.904 330.875 149.648 330.695 150.18 330.336C150.716 329.977 150.984 329.497 150.984 328.898C150.984 328.383 150.857 328.003 150.602 327.758C150.352 327.513 149.969 327.323 149.453 327.188C149.062 327.083 148.638 326.997 148.18 326.93C147.727 326.862 147.245 326.776 146.734 326.672C145.703 326.453 144.938 326.081 144.438 325.555C143.943 325.023 143.695 324.333 143.695 323.484C143.695 322.51 144.107 321.714 144.93 321.094C145.753 320.469 146.797 320.156 148.062 320.156C148.88 320.156 149.63 320.234 150.312 320.391C150.995 320.547 151.599 320.74 152.125 320.969V322.797H152.016C151.573 322.422 150.99 322.112 150.266 321.867C149.547 321.617 148.81 321.492 148.055 321.492C147.227 321.492 146.56 321.664 146.055 322.008C145.555 322.352 145.305 322.794 145.305 323.336C145.305 323.82 145.43 324.201 145.68 324.477C145.93 324.753 146.37 324.964 147 325.109C147.333 325.182 147.807 325.271 148.422 325.375C149.036 325.479 149.557 325.586 149.984 325.695C150.849 325.924 151.5 326.271 151.938 326.734C152.375 327.198 152.594 327.846 152.594 328.68ZM161.742 332H160.281V331.07C160.151 331.159 159.974 331.284 159.75 331.445C159.531 331.602 159.318 331.727 159.109 331.82C158.865 331.94 158.583 332.039 158.266 332.117C157.948 332.201 157.576 332.242 157.148 332.242C156.362 332.242 155.695 331.982 155.148 331.461C154.602 330.94 154.328 330.276 154.328 329.469C154.328 328.807 154.469 328.273 154.75 327.867C155.036 327.456 155.443 327.133 155.969 326.898C156.5 326.664 157.138 326.505 157.883 326.422C158.628 326.339 159.427 326.276 160.281 326.234V326.008C160.281 325.674 160.221 325.398 160.102 325.18C159.987 324.961 159.82 324.789 159.602 324.664C159.393 324.544 159.143 324.464 158.852 324.422C158.56 324.38 158.255 324.359 157.938 324.359C157.552 324.359 157.122 324.411 156.648 324.516C156.174 324.615 155.685 324.76 155.18 324.953H155.102V323.461C155.388 323.383 155.802 323.297 156.344 323.203C156.885 323.109 157.419 323.062 157.945 323.062C158.56 323.062 159.094 323.115 159.547 323.219C160.005 323.318 160.401 323.49 160.734 323.734C161.062 323.974 161.312 324.284 161.484 324.664C161.656 325.044 161.742 325.516 161.742 326.078V332ZM160.281 329.852V327.422C159.833 327.448 159.305 327.487 158.695 327.539C158.091 327.591 157.612 327.667 157.258 327.766C156.836 327.885 156.495 328.073 156.234 328.328C155.974 328.578 155.844 328.924 155.844 329.367C155.844 329.867 155.995 330.245 156.297 330.5C156.599 330.75 157.06 330.875 157.68 330.875C158.195 330.875 158.667 330.776 159.094 330.578C159.521 330.375 159.917 330.133 160.281 329.852ZM171.992 323.273L168.461 332H166.984L163.477 323.273H165.07L167.773 330.219L170.453 323.273H171.992ZM181.211 327.641C181.211 329.062 180.846 330.185 180.117 331.008C179.388 331.831 178.411 332.242 177.188 332.242C175.953 332.242 174.971 331.831 174.242 331.008C173.518 330.185 173.156 329.062 173.156 327.641C173.156 326.219 173.518 325.096 174.242 324.273C174.971 323.445 175.953 323.031 177.188 323.031C178.411 323.031 179.388 323.445 180.117 324.273C180.846 325.096 181.211 326.219 181.211 327.641ZM179.695 327.641C179.695 326.51 179.474 325.672 179.031 325.125C178.589 324.573 177.974 324.297 177.188 324.297C176.391 324.297 175.771 324.573 175.328 325.125C174.891 325.672 174.672 326.51 174.672 327.641C174.672 328.734 174.893 329.565 175.336 330.133C175.779 330.695 176.396 330.977 177.188 330.977C177.969 330.977 178.581 330.698 179.023 330.141C179.471 329.578 179.695 328.745 179.695 327.641ZM190.57 332H189.102V331.086C188.68 331.451 188.24 331.734 187.781 331.938C187.323 332.141 186.826 332.242 186.289 332.242C185.247 332.242 184.419 331.841 183.805 331.039C183.195 330.237 182.891 329.125 182.891 327.703C182.891 326.964 182.995 326.305 183.203 325.727C183.417 325.148 183.703 324.656 184.062 324.25C184.417 323.854 184.828 323.552 185.297 323.344C185.771 323.135 186.26 323.031 186.766 323.031C187.224 323.031 187.63 323.081 187.984 323.18C188.339 323.273 188.711 323.422 189.102 323.625V319.844H190.57V332ZM189.102 329.852V324.844C188.706 324.667 188.352 324.544 188.039 324.477C187.727 324.409 187.385 324.375 187.016 324.375C186.193 324.375 185.552 324.661 185.094 325.234C184.635 325.807 184.406 326.62 184.406 327.672C184.406 328.708 184.583 329.497 184.938 330.039C185.292 330.576 185.859 330.844 186.641 330.844C187.057 330.844 187.479 330.753 187.906 330.57C188.333 330.383 188.732 330.143 189.102 329.852ZM201.016 332H199.164L196.688 328.648L194.195 332H192.484L195.891 327.648L192.516 323.273H194.367L196.828 326.57L199.297 323.273H201.016L197.586 327.57L201.016 332ZM210.18 327.641C210.18 329.062 209.815 330.185 209.086 331.008C208.357 331.831 207.38 332.242 206.156 332.242C204.922 332.242 203.94 331.831 203.211 331.008C202.487 330.185 202.125 329.062 202.125 327.641C202.125 326.219 202.487 325.096 203.211 324.273C203.94 323.445 204.922 323.031 206.156 323.031C207.38 323.031 208.357 323.445 209.086 324.273C209.815 325.096 210.18 326.219 210.18 327.641ZM208.664 327.641C208.664 326.51 208.443 325.672 208 325.125C207.557 324.573 206.943 324.297 206.156 324.297C205.359 324.297 204.74 324.573 204.297 325.125C203.859 325.672 203.641 326.51 203.641 327.641C203.641 328.734 203.862 329.565 204.305 330.133C204.747 330.695 205.365 330.977 206.156 330.977C206.938 330.977 207.549 330.698 207.992 330.141C208.44 329.578 208.664 328.745 208.664 327.641ZM219.758 332H218.289V327.031C218.289 326.63 218.266 326.255 218.219 325.906C218.172 325.552 218.086 325.276 217.961 325.078C217.831 324.859 217.643 324.698 217.398 324.594C217.154 324.484 216.836 324.43 216.445 324.43C216.044 324.43 215.625 324.529 215.188 324.727C214.75 324.924 214.331 325.177 213.93 325.484V332H212.461V323.273H213.93V324.242C214.388 323.862 214.862 323.565 215.352 323.352C215.841 323.138 216.344 323.031 216.859 323.031C217.802 323.031 218.521 323.315 219.016 323.883C219.51 324.451 219.758 325.268 219.758 326.336V332ZM224.07 332H222.602V319.844H224.07V332ZM228.555 321.812H226.898V320.289H228.555V321.812ZM228.461 332H226.992V323.273H228.461V332ZM239.289 332H237.352L233.852 328.18L232.898 329.086V332H231.43V319.844H232.898V327.641L237.141 323.273H238.992L234.938 327.305L239.289 332ZM73.9141 351H71.9062L67.3047 345.82L66.1484 347.055V351H64.6016V339.367H66.1484V345.438L71.7969 339.367H73.6719L68.4766 344.836L73.9141 351ZM82.3828 351H80.9141V350.031C80.4193 350.422 79.9453 350.721 79.4922 350.93C79.0391 351.138 78.5391 351.242 77.9922 351.242C77.0755 351.242 76.362 350.964 75.8516 350.406C75.3411 349.844 75.0859 349.021 75.0859 347.938V342.273H76.5547V347.242C76.5547 347.685 76.5755 348.065 76.6172 348.383C76.6589 348.695 76.7474 348.964 76.8828 349.188C77.0234 349.417 77.2057 349.583 77.4297 349.688C77.6536 349.792 77.9792 349.844 78.4062 349.844C78.7865 349.844 79.2005 349.745 79.6484 349.547C80.1016 349.349 80.5234 349.096 80.9141 348.789V342.273H82.3828V351ZM90.7188 343.875H90.6406C90.4219 343.823 90.2083 343.786 90 343.766C89.7969 343.74 89.5547 343.727 89.2734 343.727C88.8203 343.727 88.3828 343.828 87.9609 344.031C87.5391 344.229 87.1328 344.487 86.7422 344.805V351H85.2734V342.273H86.7422V343.562C87.3255 343.094 87.8385 342.763 88.2812 342.57C88.7292 342.372 89.1849 342.273 89.6484 342.273C89.9036 342.273 90.0885 342.281 90.2031 342.297C90.3177 342.307 90.4896 342.331 90.7188 342.367V343.875ZM98.3359 348.484C98.3359 349.281 98.0052 349.935 97.3438 350.445C96.6875 350.956 95.7891 351.211 94.6484 351.211C94.0026 351.211 93.4089 351.135 92.8672 350.984C92.3307 350.828 91.8802 350.659 91.5156 350.477V348.828H91.5938C92.0573 349.177 92.5729 349.456 93.1406 349.664C93.7083 349.867 94.2526 349.969 94.7734 349.969C95.4193 349.969 95.9245 349.865 96.2891 349.656C96.6536 349.448 96.8359 349.12 96.8359 348.672C96.8359 348.328 96.737 348.068 96.5391 347.891C96.3411 347.714 95.9609 347.562 95.3984 347.438C95.1901 347.391 94.9167 347.336 94.5781 347.273C94.2448 347.211 93.9401 347.143 93.6641 347.07C92.8984 346.867 92.3542 346.57 92.0312 346.18C91.7135 345.784 91.5547 345.299 91.5547 344.727C91.5547 344.367 91.6276 344.029 91.7734 343.711C91.9245 343.393 92.151 343.109 92.4531 342.859C92.7448 342.615 93.1146 342.422 93.5625 342.281C94.0156 342.135 94.5208 342.062 95.0781 342.062C95.599 342.062 96.125 342.128 96.6562 342.258C97.1927 342.383 97.638 342.536 97.9922 342.719V344.289H97.9141C97.5391 344.013 97.0833 343.781 96.5469 343.594C96.0104 343.401 95.4844 343.305 94.9688 343.305C94.4323 343.305 93.9792 343.409 93.6094 343.617C93.2396 343.82 93.0547 344.125 93.0547 344.531C93.0547 344.891 93.1667 345.161 93.3906 345.344C93.6094 345.526 93.9635 345.674 94.4531 345.789C94.724 345.852 95.026 345.914 95.3594 345.977C95.6979 346.039 95.9792 346.096 96.2031 346.148C96.8854 346.305 97.4115 346.573 97.7812 346.953C98.151 347.339 98.3359 347.849 98.3359 348.484ZM101.93 351H100.461V338.844H101.93V351ZM111.617 351H110.156V350.07C110.026 350.159 109.849 350.284 109.625 350.445C109.406 350.602 109.193 350.727 108.984 350.82C108.74 350.94 108.458 351.039 108.141 351.117C107.823 351.201 107.451 351.242 107.023 351.242C106.237 351.242 105.57 350.982 105.023 350.461C104.477 349.94 104.203 349.276 104.203 348.469C104.203 347.807 104.344 347.273 104.625 346.867C104.911 346.456 105.318 346.133 105.844 345.898C106.375 345.664 107.013 345.505 107.758 345.422C108.503 345.339 109.302 345.276 110.156 345.234V345.008C110.156 344.674 110.096 344.398 109.977 344.18C109.862 343.961 109.695 343.789 109.477 343.664C109.268 343.544 109.018 343.464 108.727 343.422C108.435 343.38 108.13 343.359 107.812 343.359C107.427 343.359 106.997 343.411 106.523 343.516C106.049 343.615 105.56 343.76 105.055 343.953H104.977V342.461C105.263 342.383 105.677 342.297 106.219 342.203C106.76 342.109 107.294 342.062 107.82 342.062C108.435 342.062 108.969 342.115 109.422 342.219C109.88 342.318 110.276 342.49 110.609 342.734C110.938 342.974 111.188 343.284 111.359 343.664C111.531 344.044 111.617 344.516 111.617 345.078V351ZM110.156 348.852V346.422C109.708 346.448 109.18 346.487 108.57 346.539C107.966 346.591 107.487 346.667 107.133 346.766C106.711 346.885 106.37 347.073 106.109 347.328C105.849 347.578 105.719 347.924 105.719 348.367C105.719 348.867 105.87 349.245 106.172 349.5C106.474 349.75 106.935 349.875 107.555 349.875C108.07 349.875 108.542 349.776 108.969 349.578C109.396 349.375 109.792 349.133 110.156 348.852ZM119.891 343.875H119.812C119.594 343.823 119.38 343.786 119.172 343.766C118.969 343.74 118.727 343.727 118.445 343.727C117.992 343.727 117.555 343.828 117.133 344.031C116.711 344.229 116.305 344.487 115.914 344.805V351H114.445V342.273H115.914V343.562C116.497 343.094 117.01 342.763 117.453 342.57C117.901 342.372 118.357 342.273 118.82 342.273C119.076 342.273 119.26 342.281 119.375 342.297C119.49 342.307 119.661 342.331 119.891 342.367V343.875ZM122.852 340.812H121.195V339.289H122.852V340.812ZM122.758 351H121.289V342.273H122.758V351Z" fill="#333333"/>
<path d="M30 385L37.5 392.5L50 377.5" stroke="#61B857" stroke-width="2" stroke-linecap="round" stroke-linejoin="round"/>
<path d="M72.8594 375.742H68.7031V386H67.1562V375.742H63V374.367H72.8594V375.742ZM79.2109 386H77.75V385.07C77.6198 385.159 77.4427 385.284 77.2188 385.445C77 385.602 76.7865 385.727 76.5781 385.82C76.3333 385.94 76.0521 386.039 75.7344 386.117C75.4167 386.201 75.0443 386.242 74.6172 386.242C73.8307 386.242 73.1641 385.982 72.6172 385.461C72.0703 384.94 71.7969 384.276 71.7969 383.469C71.7969 382.807 71.9375 382.273 72.2188 381.867C72.5052 381.456 72.9115 381.133 73.4375 380.898C73.9688 380.664 74.6068 380.505 75.3516 380.422C76.0964 380.339 76.8958 380.276 77.75 380.234V380.008C77.75 379.674 77.6901 379.398 77.5703 379.18C77.4557 378.961 77.2891 378.789 77.0703 378.664C76.862 378.544 76.612 378.464 76.3203 378.422C76.0286 378.38 75.724 378.359 75.4062 378.359C75.0208 378.359 74.5911 378.411 74.1172 378.516C73.6432 378.615 73.1536 378.76 72.6484 378.953H72.5703V377.461C72.8568 377.383 73.2708 377.297 73.8125 377.203C74.3542 377.109 74.888 377.062 75.4141 377.062C76.0286 377.062 76.5625 377.115 77.0156 377.219C77.474 377.318 77.8698 377.49 78.2031 377.734C78.5312 377.974 78.7812 378.284 78.9531 378.664C79.125 379.044 79.2109 379.516 79.2109 380.078V386ZM77.75 383.852V381.422C77.3021 381.448 76.7734 381.487 76.1641 381.539C75.5599 381.591 75.0807 381.667 74.7266 381.766C74.3047 381.885 73.9635 382.073 73.7031 382.328C73.4427 382.578 73.3125 382.924 73.3125 383.367C73.3125 383.867 73.4635 384.245 73.7656 384.5C74.0677 384.75 74.5286 384.875 75.1484 384.875C75.6641 384.875 76.1354 384.776 76.5625 384.578C76.9896 384.375 77.3854 384.133 77.75 383.852ZM89.1172 386H87.6484V385.086C87.2266 385.451 86.7865 385.734 86.3281 385.938C85.8698 386.141 85.3724 386.242 84.8359 386.242C83.7943 386.242 82.9661 385.841 82.3516 385.039C81.7422 384.237 81.4375 383.125 81.4375 381.703C81.4375 380.964 81.5417 380.305 81.75 379.727C81.9635 379.148 82.25 378.656 82.6094 378.25C82.9635 377.854 83.375 377.552 83.8438 377.344C84.3177 377.135 84.8073 377.031 85.3125 377.031C85.7708 377.031 86.1771 377.081 86.5312 377.18C86.8854 377.273 87.2578 377.422 87.6484 377.625V373.844H89.1172V386ZM87.6484 383.852V378.844C87.2526 378.667 86.8984 378.544 86.5859 378.477C86.2734 378.409 85.9323 378.375 85.5625 378.375C84.7396 378.375 84.099 378.661 83.6406 379.234C83.1823 379.807 82.9531 380.62 82.9531 381.672C82.9531 382.708 83.1302 383.497 83.4844 384.039C83.8385 384.576 84.4062 384.844 85.1875 384.844C85.6042 384.844 86.026 384.753 86.4531 384.57C86.8802 384.383 87.2786 384.143 87.6484 383.852ZM99.6875 381.57C99.6875 382.299 99.5833 382.956 99.375 383.539C99.1719 384.122 98.8958 384.612 98.5469 385.008C98.1771 385.419 97.7708 385.729 97.3281 385.938C96.8854 386.141 96.3984 386.242 95.8672 386.242C95.3724 386.242 94.9401 386.182 94.5703 386.062C94.2005 385.948 93.8359 385.792 93.4766 385.594L93.3828 386H92.0078V373.844H93.4766V378.188C93.888 377.849 94.3255 377.573 94.7891 377.359C95.2526 377.141 95.7734 377.031 96.3516 377.031C97.3828 377.031 98.1953 377.427 98.7891 378.219C99.388 379.01 99.6875 380.128 99.6875 381.57ZM98.1719 381.609C98.1719 380.568 98 379.779 97.6562 379.242C97.3125 378.701 96.7578 378.43 95.9922 378.43C95.5651 378.43 95.1328 378.523 94.6953 378.711C94.2578 378.893 93.8516 379.13 93.4766 379.422V384.422C93.8932 384.609 94.25 384.74 94.5469 384.812C94.849 384.885 95.1901 384.922 95.5703 384.922C96.3828 384.922 97.0182 384.656 97.4766 384.125C97.9401 383.589 98.1719 382.75 98.1719 381.609ZM103.555 375.812H101.898V374.289H103.555V375.812ZM103.461 386H101.992V377.273H103.461V386ZM111.812 378.875H111.734C111.516 378.823 111.302 378.786 111.094 378.766C110.891 378.74 110.648 378.727 110.367 378.727C109.914 378.727 109.477 378.828 109.055 379.031C108.633 379.229 108.227 379.487 107.836 379.805V386H106.367V377.273H107.836V378.562C108.419 378.094 108.932 377.763 109.375 377.57C109.823 377.372 110.279 377.273 110.742 377.273C110.997 377.273 111.182 377.281 111.297 377.297C111.411 377.307 111.583 377.331 111.812 377.367V378.875ZM121.117 386H119.18L115.68 382.18L114.727 383.086V386H113.258V373.844H114.727V381.641L118.969 377.273H120.82L116.766 381.305L121.117 386ZM129.945 381.641C129.945 383.062 129.581 384.185 128.852 385.008C128.122 385.831 127.146 386.242 125.922 386.242C124.688 386.242 123.706 385.831 122.977 385.008C122.253 384.185 121.891 383.062 121.891 381.641C121.891 380.219 122.253 379.096 122.977 378.273C123.706 377.445 124.688 377.031 125.922 377.031C127.146 377.031 128.122 377.445 128.852 378.273C129.581 379.096 129.945 380.219 129.945 381.641ZM128.43 381.641C128.43 380.51 128.208 379.672 127.766 379.125C127.323 378.573 126.708 378.297 125.922 378.297C125.125 378.297 124.505 378.573 124.062 379.125C123.625 379.672 123.406 380.51 123.406 381.641C123.406 382.734 123.628 383.565 124.07 384.133C124.513 384.695 125.13 384.977 125.922 384.977C126.703 384.977 127.315 384.698 127.758 384.141C128.206 383.578 128.43 382.745 128.43 381.641ZM137.672 378.875H137.594C137.375 378.823 137.161 378.786 136.953 378.766C136.75 378.74 136.508 378.727 136.227 378.727C135.773 378.727 135.336 378.828 134.914 379.031C134.492 379.229 134.086 379.487 133.695 379.805V386H132.227V377.273H133.695V378.562C134.279 378.094 134.792 377.763 135.234 377.57C135.682 377.372 136.138 377.273 136.602 377.273C136.857 377.273 137.042 377.281 137.156 377.297C137.271 377.307 137.443 377.331 137.672 377.367V378.875ZM140.539 386H139.07V373.844H140.539V386ZM150.227 386H148.766V385.07C148.635 385.159 148.458 385.284 148.234 385.445C148.016 385.602 147.802 385.727 147.594 385.82C147.349 385.94 147.068 386.039 146.75 386.117C146.432 386.201 146.06 386.242 145.633 386.242C144.846 386.242 144.18 385.982 143.633 385.461C143.086 384.94 142.812 384.276 142.812 383.469C142.812 382.807 142.953 382.273 143.234 381.867C143.521 381.456 143.927 381.133 144.453 380.898C144.984 380.664 145.622 380.505 146.367 380.422C147.112 380.339 147.911 380.276 148.766 380.234V380.008C148.766 379.674 148.706 379.398 148.586 379.18C148.471 378.961 148.305 378.789 148.086 378.664C147.878 378.544 147.628 378.464 147.336 378.422C147.044 378.38 146.74 378.359 146.422 378.359C146.036 378.359 145.607 378.411 145.133 378.516C144.659 378.615 144.169 378.76 143.664 378.953H143.586V377.461C143.872 377.383 144.286 377.297 144.828 377.203C145.37 377.109 145.904 377.062 146.43 377.062C147.044 377.062 147.578 377.115 148.031 377.219C148.49 377.318 148.885 377.49 149.219 377.734C149.547 377.974 149.797 378.284 149.969 378.664C150.141 379.044 150.227 379.516 150.227 380.078V386ZM148.766 383.852V381.422C148.318 381.448 147.789 381.487 147.18 381.539C146.576 381.591 146.096 381.667 145.742 381.766C145.32 381.885 144.979 382.073 144.719 382.328C144.458 382.578 144.328 382.924 144.328 383.367C144.328 383.867 144.479 384.245 144.781 384.5C145.083 384.75 145.544 384.875 146.164 384.875C146.68 384.875 147.151 384.776 147.578 384.578C148.005 384.375 148.401 384.133 148.766 383.852ZM158.5 378.875H158.422C158.203 378.823 157.99 378.786 157.781 378.766C157.578 378.74 157.336 378.727 157.055 378.727C156.602 378.727 156.164 378.828 155.742 379.031C155.32 379.229 154.914 379.487 154.523 379.805V386H153.055V377.273H154.523V378.562C155.107 378.094 155.62 377.763 156.062 377.57C156.51 377.372 156.966 377.273 157.43 377.273C157.685 377.273 157.87 377.281 157.984 377.297C158.099 377.307 158.271 377.331 158.5 377.367V378.875ZM172.742 386H171.273V385.031C170.779 385.422 170.305 385.721 169.852 385.93C169.398 386.138 168.898 386.242 168.352 386.242C167.435 386.242 166.721 385.964 166.211 385.406C165.701 384.844 165.445 384.021 165.445 382.938V377.273H166.914V382.242C166.914 382.685 166.935 383.065 166.977 383.383C167.018 383.695 167.107 383.964 167.242 384.188C167.383 384.417 167.565 384.583 167.789 384.688C168.013 384.792 168.339 384.844 168.766 384.844C169.146 384.844 169.56 384.745 170.008 384.547C170.461 384.349 170.883 384.096 171.273 383.789V377.273H172.742V386ZM182.086 385.453C181.596 385.688 181.13 385.87 180.688 386C180.25 386.13 179.784 386.195 179.289 386.195C178.659 386.195 178.081 386.104 177.555 385.922C177.029 385.734 176.578 385.453 176.203 385.078C175.823 384.703 175.529 384.229 175.32 383.656C175.112 383.083 175.008 382.414 175.008 381.648C175.008 380.221 175.398 379.102 176.18 378.289C176.966 377.477 178.003 377.07 179.289 377.07C179.789 377.07 180.279 377.141 180.758 377.281C181.242 377.422 181.685 377.594 182.086 377.797V379.43H182.008C181.56 379.081 181.096 378.812 180.617 378.625C180.143 378.438 179.68 378.344 179.227 378.344C178.393 378.344 177.734 378.625 177.25 379.188C176.771 379.745 176.531 380.565 176.531 381.648C176.531 382.701 176.766 383.51 177.234 384.078C177.708 384.641 178.372 384.922 179.227 384.922C179.523 384.922 179.826 384.883 180.133 384.805C180.44 384.727 180.716 384.625 180.961 384.5C181.174 384.391 181.375 384.276 181.562 384.156C181.75 384.031 181.898 383.924 182.008 383.836H182.086V385.453ZM191.273 386H189.805V381.031C189.805 380.63 189.781 380.255 189.734 379.906C189.688 379.552 189.602 379.276 189.477 379.078C189.346 378.859 189.159 378.698 188.914 378.594C188.669 378.484 188.352 378.43 187.961 378.43C187.56 378.43 187.141 378.529 186.703 378.727C186.266 378.924 185.846 379.177 185.445 379.484V386H183.977V373.844H185.445V378.242C185.904 377.862 186.378 377.565 186.867 377.352C187.357 377.138 187.859 377.031 188.375 377.031C189.318 377.031 190.036 377.315 190.531 377.883C191.026 378.451 191.273 379.268 191.273 380.336V386ZM201.336 386H199.867V385.031C199.372 385.422 198.898 385.721 198.445 385.93C197.992 386.138 197.492 386.242 196.945 386.242C196.029 386.242 195.315 385.964 194.805 385.406C194.294 384.844 194.039 384.021 194.039 382.938V377.273H195.508V382.242C195.508 382.685 195.529 383.065 195.57 383.383C195.612 383.695 195.701 383.964 195.836 384.188C195.977 384.417 196.159 384.583 196.383 384.688C196.607 384.792 196.932 384.844 197.359 384.844C197.74 384.844 198.154 384.745 198.602 384.547C199.055 384.349 199.477 384.096 199.867 383.789V377.273H201.336V386ZM211.523 386H210.055V381.031C210.055 380.63 210.031 380.255 209.984 379.906C209.938 379.552 209.852 379.276 209.727 379.078C209.596 378.859 209.409 378.698 209.164 378.594C208.919 378.484 208.602 378.43 208.211 378.43C207.81 378.43 207.391 378.529 206.953 378.727C206.516 378.924 206.096 379.177 205.695 379.484V386H204.227V377.273H205.695V378.242C206.154 377.862 206.628 377.565 207.117 377.352C207.607 377.138 208.109 377.031 208.625 377.031C209.568 377.031 210.286 377.315 210.781 377.883C211.276 378.451 211.523 379.268 211.523 380.336V386ZM74.9219 405H73.375V394.977L70.1406 401.797H69.2188L66.0078 394.977V405H64.5625V393.367H66.6719L69.7734 399.844L72.7734 393.367H74.9219V405ZM85.3672 400.641C85.3672 402.062 85.0026 403.185 84.2734 404.008C83.5443 404.831 82.5677 405.242 81.3438 405.242C80.1094 405.242 79.1276 404.831 78.3984 404.008C77.6745 403.185 77.3125 402.062 77.3125 400.641C77.3125 399.219 77.6745 398.096 78.3984 397.273C79.1276 396.445 80.1094 396.031 81.3438 396.031C82.5677 396.031 83.5443 396.445 84.2734 397.273C85.0026 398.096 85.3672 399.219 85.3672 400.641ZM83.8516 400.641C83.8516 399.51 83.6302 398.672 83.1875 398.125C82.7448 397.573 82.1302 397.297 81.3438 397.297C80.5469 397.297 79.9271 397.573 79.4844 398.125C79.0469 398.672 78.8281 399.51 78.8281 400.641C78.8281 401.734 79.0495 402.565 79.4922 403.133C79.9349 403.695 80.5521 403.977 81.3438 403.977C82.125 403.977 82.737 403.698 83.1797 403.141C83.6276 402.578 83.8516 401.745 83.8516 400.641ZM89.1328 405H87.6641V392.844H89.1328V405ZM93.6172 394.812H91.9609V393.289H93.6172V394.812ZM93.5234 405H92.0547V396.273H93.5234V405ZM103.977 396.273L98.8828 408.219H97.3125L98.9375 404.578L95.4609 396.273H97.0547L99.7344 402.742L102.438 396.273H103.977ZM112.367 405H110.906V404.07C110.776 404.159 110.599 404.284 110.375 404.445C110.156 404.602 109.943 404.727 109.734 404.82C109.49 404.94 109.208 405.039 108.891 405.117C108.573 405.201 108.201 405.242 107.773 405.242C106.987 405.242 106.32 404.982 105.773 404.461C105.227 403.94 104.953 403.276 104.953 402.469C104.953 401.807 105.094 401.273 105.375 400.867C105.661 400.456 106.068 400.133 106.594 399.898C107.125 399.664 107.763 399.505 108.508 399.422C109.253 399.339 110.052 399.276 110.906 399.234V399.008C110.906 398.674 110.846 398.398 110.727 398.18C110.612 397.961 110.445 397.789 110.227 397.664C110.018 397.544 109.768 397.464 109.477 397.422C109.185 397.38 108.88 397.359 108.562 397.359C108.177 397.359 107.747 397.411 107.273 397.516C106.799 397.615 106.31 397.76 105.805 397.953H105.727V396.461C106.013 396.383 106.427 396.297 106.969 396.203C107.51 396.109 108.044 396.062 108.57 396.062C109.185 396.062 109.719 396.115 110.172 396.219C110.63 396.318 111.026 396.49 111.359 396.734C111.688 396.974 111.938 397.284 112.109 397.664C112.281 398.044 112.367 398.516 112.367 399.078V405ZM110.906 402.852V400.422C110.458 400.448 109.93 400.487 109.32 400.539C108.716 400.591 108.237 400.667 107.883 400.766C107.461 400.885 107.12 401.073 106.859 401.328C106.599 401.578 106.469 401.924 106.469 402.367C106.469 402.867 106.62 403.245 106.922 403.5C107.224 403.75 107.685 403.875 108.305 403.875C108.82 403.875 109.292 403.776 109.719 403.578C110.146 403.375 110.542 403.133 110.906 402.852ZM122.617 396.273L119.086 405H117.609L114.102 396.273H115.695L118.398 403.219L121.078 396.273H122.617ZM126.117 394.812H124.461V393.289H126.117V394.812ZM126.023 405H124.555V396.273H126.023V405ZM136.477 396.273L131.383 408.219H129.812L131.438 404.578L127.961 396.273H129.555L132.234 402.742L134.938 396.273H136.477ZM154.5 405H152.953V394.977L149.719 401.797H148.797L145.586 394.977V405H144.141V393.367H146.25L149.352 399.844L152.352 393.367H154.5V405ZM164.812 400.789H158.383C158.383 401.326 158.464 401.794 158.625 402.195C158.786 402.591 159.008 402.917 159.289 403.172C159.56 403.422 159.88 403.609 160.25 403.734C160.625 403.859 161.036 403.922 161.484 403.922C162.078 403.922 162.674 403.805 163.273 403.57C163.878 403.331 164.307 403.096 164.562 402.867H164.641V404.469C164.146 404.677 163.641 404.852 163.125 404.992C162.609 405.133 162.068 405.203 161.5 405.203C160.052 405.203 158.922 404.812 158.109 404.031C157.297 403.245 156.891 402.13 156.891 400.688C156.891 399.26 157.279 398.128 158.055 397.289C158.836 396.451 159.862 396.031 161.133 396.031C162.31 396.031 163.216 396.375 163.852 397.062C164.492 397.75 164.812 398.727 164.812 399.992V400.789ZM163.383 399.664C163.378 398.893 163.182 398.297 162.797 397.875C162.417 397.453 161.836 397.242 161.055 397.242C160.268 397.242 159.641 397.474 159.172 397.938C158.708 398.401 158.445 398.977 158.383 399.664H163.383ZM174.336 405H172.867V400.031C172.867 399.63 172.844 399.255 172.797 398.906C172.75 398.552 172.664 398.276 172.539 398.078C172.409 397.859 172.221 397.698 171.977 397.594C171.732 397.484 171.414 397.43 171.023 397.43C170.622 397.43 170.203 397.529 169.766 397.727C169.328 397.924 168.909 398.177 168.508 398.484V405H167.039V396.273H168.508V397.242C168.966 396.862 169.44 396.565 169.93 396.352C170.419 396.138 170.922 396.031 171.438 396.031C172.38 396.031 173.099 396.315 173.594 396.883C174.089 397.451 174.336 398.268 174.336 399.336V405ZM184.469 400.789H178.039C178.039 401.326 178.12 401.794 178.281 402.195C178.443 402.591 178.664 402.917 178.945 403.172C179.216 403.422 179.536 403.609 179.906 403.734C180.281 403.859 180.693 403.922 181.141 403.922C181.734 403.922 182.331 403.805 182.93 403.57C183.534 403.331 183.964 403.096 184.219 402.867H184.297V404.469C183.802 404.677 183.297 404.852 182.781 404.992C182.266 405.133 181.724 405.203 181.156 405.203C179.708 405.203 178.578 404.812 177.766 404.031C176.953 403.245 176.547 402.13 176.547 400.688C176.547 399.26 176.935 398.128 177.711 397.289C178.492 396.451 179.518 396.031 180.789 396.031C181.966 396.031 182.872 396.375 183.508 397.062C184.148 397.75 184.469 398.727 184.469 399.992V400.789ZM183.039 399.664C183.034 398.893 182.839 398.297 182.453 397.875C182.073 397.453 181.492 397.242 180.711 397.242C179.924 397.242 179.297 397.474 178.828 397.938C178.365 398.401 178.102 398.977 178.039 399.664H183.039ZM189.414 394.812H187.758V393.289H189.414V394.812ZM189.32 405.211C189.32 406.232 189.06 407.003 188.539 407.523C188.018 408.044 187.32 408.305 186.445 408.305C186.237 408.305 185.961 408.284 185.617 408.242C185.279 408.201 184.995 408.148 184.766 408.086V406.688H184.844C184.99 406.745 185.185 406.81 185.43 406.883C185.68 406.956 185.922 406.992 186.156 406.992C186.531 406.992 186.833 406.94 187.062 406.836C187.292 406.732 187.464 406.576 187.578 406.367C187.693 406.159 187.766 405.906 187.797 405.609C187.833 405.318 187.852 404.961 187.852 404.539V397.508H186.031V396.273H189.32V405.211ZM204.945 405H203.477V400.031C203.477 399.656 203.458 399.294 203.422 398.945C203.391 398.596 203.32 398.318 203.211 398.109C203.091 397.885 202.919 397.716 202.695 397.602C202.471 397.487 202.148 397.43 201.727 397.43C201.315 397.43 200.904 397.534 200.492 397.742C200.081 397.945 199.669 398.206 199.258 398.523C199.273 398.643 199.286 398.784 199.297 398.945C199.307 399.102 199.312 399.258 199.312 399.414V405H197.844V400.031C197.844 399.646 197.826 399.281 197.789 398.938C197.758 398.589 197.688 398.31 197.578 398.102C197.458 397.878 197.286 397.711 197.062 397.602C196.839 397.487 196.516 397.43 196.094 397.43C195.693 397.43 195.289 397.529 194.883 397.727C194.482 397.924 194.081 398.177 193.68 398.484V405H192.211V396.273H193.68V397.242C194.138 396.862 194.594 396.565 195.047 396.352C195.505 396.138 195.992 396.031 196.508 396.031C197.102 396.031 197.604 396.156 198.016 396.406C198.432 396.656 198.742 397.003 198.945 397.445C199.539 396.945 200.081 396.586 200.57 396.367C201.06 396.143 201.583 396.031 202.141 396.031C203.099 396.031 203.805 396.323 204.258 396.906C204.716 397.484 204.945 398.294 204.945 399.336V405ZM215.078 400.789H208.648C208.648 401.326 208.729 401.794 208.891 402.195C209.052 402.591 209.273 402.917 209.555 403.172C209.826 403.422 210.146 403.609 210.516 403.734C210.891 403.859 211.302 403.922 211.75 403.922C212.344 403.922 212.94 403.805 213.539 403.57C214.143 403.331 214.573 403.096 214.828 402.867H214.906V404.469C214.411 404.677 213.906 404.852 213.391 404.992C212.875 405.133 212.333 405.203 211.766 405.203C210.318 405.203 209.188 404.812 208.375 404.031C207.562 403.245 207.156 402.13 207.156 400.688C207.156 399.26 207.544 398.128 208.32 397.289C209.102 396.451 210.128 396.031 211.398 396.031C212.576 396.031 213.482 396.375 214.117 397.062C214.758 397.75 215.078 398.727 215.078 399.992V400.789ZM213.648 399.664C213.643 398.893 213.448 398.297 213.062 397.875C212.682 397.453 212.102 397.242 211.32 397.242C210.534 397.242 209.906 397.474 209.438 397.938C208.974 398.401 208.711 398.977 208.648 399.664H213.648ZM224.602 405H223.133V400.031C223.133 399.63 223.109 399.255 223.062 398.906C223.016 398.552 222.93 398.276 222.805 398.078C222.674 397.859 222.487 397.698 222.242 397.594C221.997 397.484 221.68 397.43 221.289 397.43C220.888 397.43 220.469 397.529 220.031 397.727C219.594 397.924 219.174 398.177 218.773 398.484V405H217.305V396.273H218.773V397.242C219.232 396.862 219.706 396.565 220.195 396.352C220.685 396.138 221.188 396.031 221.703 396.031C222.646 396.031 223.365 396.315 223.859 396.883C224.354 397.451 224.602 398.268 224.602 399.336V405ZM231.961 404.922C231.685 404.995 231.383 405.055 231.055 405.102C230.732 405.148 230.443 405.172 230.188 405.172C229.297 405.172 228.62 404.932 228.156 404.453C227.693 403.974 227.461 403.206 227.461 402.148V397.508H226.469V396.273H227.461V393.766H228.93V396.273H231.961V397.508H228.93V401.484C228.93 401.943 228.94 402.302 228.961 402.562C228.982 402.818 229.055 403.057 229.18 403.281C229.294 403.49 229.451 403.643 229.648 403.742C229.852 403.836 230.159 403.883 230.57 403.883C230.81 403.883 231.06 403.849 231.32 403.781C231.581 403.708 231.768 403.648 231.883 403.602H231.961V404.922Z" fill="#333333"/>
<path d="M30 439L37.5 446.5L50 431.5" stroke="#61B857" stroke-width="2" stroke-linecap="round" stroke-linejoin="round"/>
<path d="M73.3359 441.922C73.3359 442.5 73.2266 443.01 73.0078 443.453C72.7891 443.896 72.4948 444.26 72.125 444.547C71.6875 444.891 71.2057 445.135 70.6797 445.281C70.1589 445.427 69.4948 445.5 68.6875 445.5H64.5625V433.867H68.0078C68.8568 433.867 69.4922 433.898 69.9141 433.961C70.3359 434.023 70.7396 434.154 71.125 434.352C71.5521 434.576 71.862 434.865 72.0547 435.219C72.2474 435.568 72.3438 435.987 72.3438 436.477C72.3438 437.029 72.2031 437.5 71.9219 437.891C71.6406 438.276 71.2656 438.586 70.7969 438.82V438.883C71.5833 439.044 72.2031 439.391 72.6562 439.922C73.1094 440.448 73.3359 441.115 73.3359 441.922ZM70.7344 436.68C70.7344 436.398 70.6875 436.161 70.5938 435.969C70.5 435.776 70.349 435.62 70.1406 435.5C69.8958 435.359 69.599 435.273 69.25 435.242C68.901 435.206 68.4688 435.188 67.9531 435.188H66.1094V438.547H68.1094C68.5938 438.547 68.9792 438.523 69.2656 438.477C69.5521 438.424 69.8177 438.32 70.0625 438.164C70.3073 438.008 70.4792 437.807 70.5781 437.562C70.6823 437.312 70.7344 437.018 70.7344 436.68ZM71.7266 441.984C71.7266 441.516 71.6562 441.143 71.5156 440.867C71.375 440.591 71.1198 440.357 70.75 440.164C70.5 440.034 70.1953 439.951 69.8359 439.914C69.4818 439.872 69.0495 439.852 68.5391 439.852H66.1094V444.18H68.1562C68.8333 444.18 69.388 444.146 69.8203 444.078C70.2526 444.005 70.6068 443.875 70.8828 443.688C71.1745 443.484 71.388 443.253 71.5234 442.992C71.6589 442.732 71.7266 442.396 71.7266 441.984ZM76.9922 435.312H75.3359V433.789H76.9922V435.312ZM76.8984 445.5H75.4297V436.773H76.8984V445.5ZM86.1328 445.5H79.0859V444.414L84.1719 438H79.1953V436.773H86V437.82L80.8906 444.258H86.1328V445.5ZM95.5078 445.5H94.0391V440.531C94.0391 440.13 94.0156 439.755 93.9688 439.406C93.9219 439.052 93.8359 438.776 93.7109 438.578C93.5807 438.359 93.3932 438.198 93.1484 438.094C92.9036 437.984 92.5859 437.93 92.1953 437.93C91.7943 437.93 91.375 438.029 90.9375 438.227C90.5 438.424 90.0807 438.677 89.6797 438.984V445.5H88.2109V436.773H89.6797V437.742C90.138 437.362 90.612 437.065 91.1016 436.852C91.5911 436.638 92.0938 436.531 92.6094 436.531C93.5521 436.531 94.2708 436.815 94.7656 437.383C95.2604 437.951 95.5078 438.768 95.5078 439.836V445.5ZM105.641 441.289H99.2109C99.2109 441.826 99.2917 442.294 99.4531 442.695C99.6146 443.091 99.8359 443.417 100.117 443.672C100.388 443.922 100.708 444.109 101.078 444.234C101.453 444.359 101.865 444.422 102.312 444.422C102.906 444.422 103.503 444.305 104.102 444.07C104.706 443.831 105.135 443.596 105.391 443.367H105.469V444.969C104.974 445.177 104.469 445.352 103.953 445.492C103.438 445.633 102.896 445.703 102.328 445.703C100.88 445.703 99.75 445.312 98.9375 444.531C98.125 443.745 97.7188 442.63 97.7188 441.188C97.7188 439.76 98.1068 438.628 98.8828 437.789C99.6641 436.951 100.69 436.531 101.961 436.531C103.138 436.531 104.044 436.875 104.68 437.562C105.32 438.25 105.641 439.227 105.641 440.492V441.289ZM104.211 440.164C104.206 439.393 104.01 438.797 103.625 438.375C103.245 437.953 102.664 437.742 101.883 437.742C101.096 437.742 100.469 437.974 100 438.438C99.5365 438.901 99.2734 439.477 99.2109 440.164H104.211ZM114.102 442.984C114.102 443.781 113.771 444.435 113.109 444.945C112.453 445.456 111.555 445.711 110.414 445.711C109.768 445.711 109.174 445.635 108.633 445.484C108.096 445.328 107.646 445.159 107.281 444.977V443.328H107.359C107.823 443.677 108.339 443.956 108.906 444.164C109.474 444.367 110.018 444.469 110.539 444.469C111.185 444.469 111.69 444.365 112.055 444.156C112.419 443.948 112.602 443.62 112.602 443.172C112.602 442.828 112.503 442.568 112.305 442.391C112.107 442.214 111.727 442.062 111.164 441.938C110.956 441.891 110.682 441.836 110.344 441.773C110.01 441.711 109.706 441.643 109.43 441.57C108.664 441.367 108.12 441.07 107.797 440.68C107.479 440.284 107.32 439.799 107.32 439.227C107.32 438.867 107.393 438.529 107.539 438.211C107.69 437.893 107.917 437.609 108.219 437.359C108.51 437.115 108.88 436.922 109.328 436.781C109.781 436.635 110.286 436.562 110.844 436.562C111.365 436.562 111.891 436.628 112.422 436.758C112.958 436.883 113.404 437.036 113.758 437.219V438.789H113.68C113.305 438.513 112.849 438.281 112.312 438.094C111.776 437.901 111.25 437.805 110.734 437.805C110.198 437.805 109.745 437.909 109.375 438.117C109.005 438.32 108.82 438.625 108.82 439.031C108.82 439.391 108.932 439.661 109.156 439.844C109.375 440.026 109.729 440.174 110.219 440.289C110.49 440.352 110.792 440.414 111.125 440.477C111.464 440.539 111.745 440.596 111.969 440.648C112.651 440.805 113.177 441.073 113.547 441.453C113.917 441.839 114.102 442.349 114.102 442.984ZM123.289 444.508C123.289 445.987 122.953 447.073 122.281 447.766C121.609 448.458 120.576 448.805 119.18 448.805C118.716 448.805 118.263 448.771 117.82 448.703C117.383 448.641 116.951 448.549 116.523 448.43V446.93H116.602C116.841 447.023 117.221 447.138 117.742 447.273C118.263 447.414 118.784 447.484 119.305 447.484C119.805 447.484 120.219 447.424 120.547 447.305C120.875 447.185 121.13 447.018 121.312 446.805C121.495 446.602 121.625 446.357 121.703 446.07C121.781 445.784 121.82 445.464 121.82 445.109V444.312C121.378 444.667 120.953 444.932 120.547 445.109C120.146 445.281 119.633 445.367 119.008 445.367C117.966 445.367 117.138 444.992 116.523 444.242C115.914 443.487 115.609 442.424 115.609 441.055C115.609 440.305 115.714 439.659 115.922 439.117C116.135 438.57 116.424 438.099 116.789 437.703C117.128 437.333 117.539 437.047 118.023 436.844C118.508 436.635 118.99 436.531 119.469 436.531C119.974 436.531 120.396 436.583 120.734 436.688C121.078 436.786 121.44 436.94 121.82 437.148L121.914 436.773H123.289V444.508ZM121.82 443.102V438.344C121.43 438.167 121.065 438.042 120.727 437.969C120.393 437.891 120.06 437.852 119.727 437.852C118.919 437.852 118.284 438.122 117.82 438.664C117.357 439.206 117.125 439.992 117.125 441.023C117.125 442.003 117.297 442.745 117.641 443.25C117.984 443.755 118.555 444.008 119.352 444.008C119.779 444.008 120.206 443.927 120.633 443.766C121.065 443.599 121.461 443.378 121.82 443.102ZM132.961 445.5H131.5V444.57C131.37 444.659 131.193 444.784 130.969 444.945C130.75 445.102 130.536 445.227 130.328 445.32C130.083 445.44 129.802 445.539 129.484 445.617C129.167 445.701 128.794 445.742 128.367 445.742C127.581 445.742 126.914 445.482 126.367 444.961C125.82 444.44 125.547 443.776 125.547 442.969C125.547 442.307 125.688 441.773 125.969 441.367C126.255 440.956 126.661 440.633 127.188 440.398C127.719 440.164 128.357 440.005 129.102 439.922C129.846 439.839 130.646 439.776 131.5 439.734V439.508C131.5 439.174 131.44 438.898 131.32 438.68C131.206 438.461 131.039 438.289 130.82 438.164C130.612 438.044 130.362 437.964 130.07 437.922C129.779 437.88 129.474 437.859 129.156 437.859C128.771 437.859 128.341 437.911 127.867 438.016C127.393 438.115 126.904 438.26 126.398 438.453H126.32V436.961C126.607 436.883 127.021 436.797 127.562 436.703C128.104 436.609 128.638 436.562 129.164 436.562C129.779 436.562 130.312 436.615 130.766 436.719C131.224 436.818 131.62 436.99 131.953 437.234C132.281 437.474 132.531 437.784 132.703 438.164C132.875 438.544 132.961 439.016 132.961 439.578V445.5ZM131.5 443.352V440.922C131.052 440.948 130.523 440.987 129.914 441.039C129.31 441.091 128.831 441.167 128.477 441.266C128.055 441.385 127.714 441.573 127.453 441.828C127.193 442.078 127.062 442.424 127.062 442.867C127.062 443.367 127.214 443.745 127.516 444C127.818 444.25 128.279 444.375 128.898 444.375C129.414 444.375 129.885 444.276 130.312 444.078C130.74 443.875 131.135 443.633 131.5 443.352ZM154.148 445.5H152.68V440.531C152.68 440.156 152.661 439.794 152.625 439.445C152.594 439.096 152.523 438.818 152.414 438.609C152.294 438.385 152.122 438.216 151.898 438.102C151.674 437.987 151.352 437.93 150.93 437.93C150.518 437.93 150.107 438.034 149.695 438.242C149.284 438.445 148.872 438.706 148.461 439.023C148.477 439.143 148.49 439.284 148.5 439.445C148.51 439.602 148.516 439.758 148.516 439.914V445.5H147.047V440.531C147.047 440.146 147.029 439.781 146.992 439.438C146.961 439.089 146.891 438.81 146.781 438.602C146.661 438.378 146.49 438.211 146.266 438.102C146.042 437.987 145.719 437.93 145.297 437.93C144.896 437.93 144.492 438.029 144.086 438.227C143.685 438.424 143.284 438.677 142.883 438.984V445.5H141.414V436.773H142.883V437.742C143.341 437.362 143.797 437.065 144.25 436.852C144.708 436.638 145.195 436.531 145.711 436.531C146.305 436.531 146.807 436.656 147.219 436.906C147.635 437.156 147.945 437.503 148.148 437.945C148.742 437.445 149.284 437.086 149.773 436.867C150.263 436.643 150.786 436.531 151.344 436.531C152.302 436.531 153.008 436.823 153.461 437.406C153.919 437.984 154.148 438.794 154.148 439.836V445.5ZM164.414 441.141C164.414 442.562 164.049 443.685 163.32 444.508C162.591 445.331 161.615 445.742 160.391 445.742C159.156 445.742 158.174 445.331 157.445 444.508C156.721 443.685 156.359 442.562 156.359 441.141C156.359 439.719 156.721 438.596 157.445 437.773C158.174 436.945 159.156 436.531 160.391 436.531C161.615 436.531 162.591 436.945 163.32 437.773C164.049 438.596 164.414 439.719 164.414 441.141ZM162.898 441.141C162.898 440.01 162.677 439.172 162.234 438.625C161.792 438.073 161.177 437.797 160.391 437.797C159.594 437.797 158.974 438.073 158.531 438.625C158.094 439.172 157.875 440.01 157.875 441.141C157.875 442.234 158.096 443.065 158.539 443.633C158.982 444.195 159.599 444.477 160.391 444.477C161.172 444.477 161.784 444.198 162.227 443.641C162.674 443.078 162.898 442.245 162.898 441.141ZM168.18 445.5H166.711V433.344H168.18V445.5ZM172.664 435.312H171.008V433.789H172.664V435.312ZM172.57 445.5H171.102V436.773H172.57V445.5ZM183.023 436.773L177.93 448.719H176.359L177.984 445.078L174.508 436.773H176.102L178.781 443.242L181.484 436.773H183.023ZM191.414 445.5H189.953V444.57C189.823 444.659 189.646 444.784 189.422 444.945C189.203 445.102 188.99 445.227 188.781 445.32C188.536 445.44 188.255 445.539 187.938 445.617C187.62 445.701 187.247 445.742 186.82 445.742C186.034 445.742 185.367 445.482 184.82 444.961C184.273 444.44 184 443.776 184 442.969C184 442.307 184.141 441.773 184.422 441.367C184.708 440.956 185.115 440.633 185.641 440.398C186.172 440.164 186.81 440.005 187.555 439.922C188.299 439.839 189.099 439.776 189.953 439.734V439.508C189.953 439.174 189.893 438.898 189.773 438.68C189.659 438.461 189.492 438.289 189.273 438.164C189.065 438.044 188.815 437.964 188.523 437.922C188.232 437.88 187.927 437.859 187.609 437.859C187.224 437.859 186.794 437.911 186.32 438.016C185.846 438.115 185.357 438.26 184.852 438.453H184.773V436.961C185.06 436.883 185.474 436.797 186.016 436.703C186.557 436.609 187.091 436.562 187.617 436.562C188.232 436.562 188.766 436.615 189.219 436.719C189.677 436.818 190.073 436.99 190.406 437.234C190.734 437.474 190.984 437.784 191.156 438.164C191.328 438.544 191.414 439.016 191.414 439.578V445.5ZM189.953 443.352V440.922C189.505 440.948 188.977 440.987 188.367 441.039C187.763 441.091 187.284 441.167 186.93 441.266C186.508 441.385 186.167 441.573 185.906 441.828C185.646 442.078 185.516 442.424 185.516 442.867C185.516 443.367 185.667 443.745 185.969 444C186.271 444.25 186.732 444.375 187.352 444.375C187.867 444.375 188.339 444.276 188.766 444.078C189.193 443.875 189.589 443.633 189.953 443.352ZM201.539 445.5H200.07V440.531C200.07 440.13 200.047 439.755 200 439.406C199.953 439.052 199.867 438.776 199.742 438.578C199.612 438.359 199.424 438.198 199.18 438.094C198.935 437.984 198.617 437.93 198.227 437.93C197.826 437.93 197.406 438.029 196.969 438.227C196.531 438.424 196.112 438.677 195.711 438.984V445.5H194.242V436.773H195.711V437.742C196.169 437.362 196.643 437.065 197.133 436.852C197.622 436.638 198.125 436.531 198.641 436.531C199.583 436.531 200.302 436.815 200.797 437.383C201.292 437.951 201.539 438.768 201.539 439.836V445.5ZM205.945 435.312H204.289V433.789H205.945V435.312ZM205.852 445.5H204.383V436.773H205.852V445.5ZM217.102 435.312H215.445V433.789H217.102V435.312ZM217.008 445.711C217.008 446.732 216.747 447.503 216.227 448.023C215.706 448.544 215.008 448.805 214.133 448.805C213.924 448.805 213.648 448.784 213.305 448.742C212.966 448.701 212.682 448.648 212.453 448.586V447.188H212.531C212.677 447.245 212.872 447.31 213.117 447.383C213.367 447.456 213.609 447.492 213.844 447.492C214.219 447.492 214.521 447.44 214.75 447.336C214.979 447.232 215.151 447.076 215.266 446.867C215.38 446.659 215.453 446.406 215.484 446.109C215.521 445.818 215.539 445.461 215.539 445.039V438.008H213.719V436.773H217.008V445.711ZM226.68 445.5H225.219V444.57C225.089 444.659 224.911 444.784 224.688 444.945C224.469 445.102 224.255 445.227 224.047 445.32C223.802 445.44 223.521 445.539 223.203 445.617C222.885 445.701 222.513 445.742 222.086 445.742C221.299 445.742 220.633 445.482 220.086 444.961C219.539 444.44 219.266 443.776 219.266 442.969C219.266 442.307 219.406 441.773 219.688 441.367C219.974 440.956 220.38 440.633 220.906 440.398C221.438 440.164 222.076 440.005 222.82 439.922C223.565 439.839 224.365 439.776 225.219 439.734V439.508C225.219 439.174 225.159 438.898 225.039 438.68C224.924 438.461 224.758 438.289 224.539 438.164C224.331 438.044 224.081 437.964 223.789 437.922C223.497 437.88 223.193 437.859 222.875 437.859C222.49 437.859 222.06 437.911 221.586 438.016C221.112 438.115 220.622 438.26 220.117 438.453H220.039V436.961C220.326 436.883 220.74 436.797 221.281 436.703C221.823 436.609 222.357 436.562 222.883 436.562C223.497 436.562 224.031 436.615 224.484 436.719C224.943 436.818 225.339 436.99 225.672 437.234C226 437.474 226.25 437.784 226.422 438.164C226.594 438.544 226.68 439.016 226.68 439.578V445.5ZM225.219 443.352V440.922C224.771 440.948 224.242 440.987 223.633 441.039C223.029 441.091 222.549 441.167 222.195 441.266C221.773 441.385 221.432 441.573 221.172 441.828C220.911 442.078 220.781 442.424 220.781 442.867C220.781 443.367 220.932 443.745 221.234 444C221.536 444.25 221.997 444.375 222.617 444.375C223.133 444.375 223.604 444.276 224.031 444.078C224.458 443.875 224.854 443.633 225.219 443.352ZM230.992 445.5H229.523V433.344H230.992V445.5ZM241.578 441.07C241.578 441.799 241.474 442.456 241.266 443.039C241.062 443.622 240.786 444.112 240.438 444.508C240.068 444.919 239.661 445.229 239.219 445.438C238.776 445.641 238.289 445.742 237.758 445.742C237.263 445.742 236.831 445.682 236.461 445.562C236.091 445.448 235.727 445.292 235.367 445.094L235.273 445.5H233.898V433.344H235.367V437.688C235.779 437.349 236.216 437.073 236.68 436.859C237.143 436.641 237.664 436.531 238.242 436.531C239.273 436.531 240.086 436.927 240.68 437.719C241.279 438.51 241.578 439.628 241.578 441.07ZM240.062 441.109C240.062 440.068 239.891 439.279 239.547 438.742C239.203 438.201 238.648 437.93 237.883 437.93C237.456 437.93 237.023 438.023 236.586 438.211C236.148 438.393 235.742 438.63 235.367 438.922V443.922C235.784 444.109 236.141 444.24 236.438 444.312C236.74 444.385 237.081 444.422 237.461 444.422C238.273 444.422 238.909 444.156 239.367 443.625C239.831 443.089 240.062 442.25 240.062 441.109ZM256.57 448.719H255.102V444.516C254.648 444.906 254.198 445.198 253.75 445.391C253.302 445.578 252.818 445.672 252.297 445.672C251.26 445.672 250.432 445.273 249.812 444.477C249.198 443.674 248.891 442.57 248.891 441.164C248.891 440.414 248.997 439.753 249.211 439.18C249.43 438.602 249.716 438.117 250.07 437.727C250.414 437.346 250.818 437.052 251.281 436.844C251.745 436.635 252.234 436.531 252.75 436.531C253.219 436.531 253.633 436.583 253.992 436.688C254.357 436.792 254.727 436.945 255.102 437.148L255.195 436.773H256.57V448.719ZM255.102 443.281V438.344C254.695 438.161 254.336 438.034 254.023 437.961C253.711 437.888 253.372 437.852 253.008 437.852C252.159 437.852 251.513 438.141 251.07 438.719C250.628 439.292 250.406 440.083 250.406 441.094C250.406 442.115 250.583 442.901 250.938 443.453C251.297 444 251.859 444.273 252.625 444.273C253.052 444.273 253.479 444.182 253.906 444C254.333 443.812 254.732 443.573 255.102 443.281ZM261.039 435.312H259.383V433.789H261.039V435.312ZM260.945 445.5H259.477V436.773H260.945V445.5ZM265.336 445.5H263.867V433.344H265.336V445.5ZM269.82 435.312H268.164V433.789H269.82V435.312ZM269.727 445.5H268.258V436.773H269.727V445.5ZM278.867 442.984C278.867 443.781 278.536 444.435 277.875 444.945C277.219 445.456 276.32 445.711 275.18 445.711C274.534 445.711 273.94 445.635 273.398 445.484C272.862 445.328 272.411 445.159 272.047 444.977V443.328H272.125C272.589 443.677 273.104 443.956 273.672 444.164C274.24 444.367 274.784 444.469 275.305 444.469C275.951 444.469 276.456 444.365 276.82 444.156C277.185 443.948 277.367 443.62 277.367 443.172C277.367 442.828 277.268 442.568 277.07 442.391C276.872 442.214 276.492 442.062 275.93 441.938C275.721 441.891 275.448 441.836 275.109 441.773C274.776 441.711 274.471 441.643 274.195 441.57C273.43 441.367 272.885 441.07 272.562 440.68C272.245 440.284 272.086 439.799 272.086 439.227C272.086 438.867 272.159 438.529 272.305 438.211C272.456 437.893 272.682 437.609 272.984 437.359C273.276 437.115 273.646 436.922 274.094 436.781C274.547 436.635 275.052 436.562 275.609 436.562C276.13 436.562 276.656 436.628 277.188 436.758C277.724 436.883 278.169 437.036 278.523 437.219V438.789H278.445C278.07 438.513 277.615 438.281 277.078 438.094C276.542 437.901 276.016 437.805 275.5 437.805C274.964 437.805 274.51 437.909 274.141 438.117C273.771 438.32 273.586 438.625 273.586 439.031C273.586 439.391 273.698 439.661 273.922 439.844C274.141 440.026 274.495 440.174 274.984 440.289C275.255 440.352 275.557 440.414 275.891 440.477C276.229 440.539 276.51 440.596 276.734 440.648C277.417 440.805 277.943 441.073 278.312 441.453C278.682 441.839 278.867 442.349 278.867 442.984ZM288.273 445.5H286.805V440.531C286.805 440.13 286.781 439.755 286.734 439.406C286.688 439.052 286.602 438.776 286.477 438.578C286.346 438.359 286.159 438.198 285.914 438.094C285.669 437.984 285.352 437.93 284.961 437.93C284.56 437.93 284.141 438.029 283.703 438.227C283.266 438.424 282.846 438.677 282.445 438.984V445.5H280.977V433.344H282.445V437.742C282.904 437.362 283.378 437.065 283.867 436.852C284.357 436.638 284.859 436.531 285.375 436.531C286.318 436.531 287.036 436.815 287.531 437.383C288.026 437.951 288.273 438.768 288.273 439.836V445.5Z" fill="#333333"/>
</g>
<defs>
<filter id="filter0_d_1763_11156" x="0" y="0" width="326" height="540" filterUnits="userSpaceOnUse" color-interpolation-filters="sRGB">
<feFlood flood-opacity="0" result="BackgroundImageFix"/>
<feColorMatrix in="SourceAlpha" type="matrix" values="0 0 0 0 0 0 0 0 0 0 0 0 0 0 0 0 0 0 127 0" result="hardAlpha"/>
<feOffset dx="3" dy="5"/>
<feGaussianBlur stdDeviation="10"/>
<feComposite in2="hardAlpha" operator="out"/>
<feColorMatrix type="matrix" values="0 0 0 0 0.2 0 0 0 0 0.2 0 0 0 0 0.2 0 0 0 0.1 0"/>
<feBlend mode="normal" in2="BackgroundImageFix" result="effect1_dropShadow_1763_11156"/>
<feBlend mode="normal" in="SourceGraphic" in2="effect1_dropShadow_1763_11156" result="shape"/>
</filter>
<filter id="filter1_d_1763_11156" x="22" y="28" width="112" height="112" filterUnits="userSpaceOnUse" color-interpolation-filters="sRGB">
<feFlood flood-opacity="0" result="BackgroundImageFix"/>
<feColorMatrix in="SourceAlpha" type="matrix" values="0 0 0 0 0 0 0 0 0 0 0 0 0 0 0 0 0 0 127 0" result="hardAlpha"/>
<feOffset dx="3" dy="3"/>
<feGaussianBlur stdDeviation="3"/>
<feComposite in2="hardAlpha" operator="out"/>
<feColorMatrix type="matrix" values="0 0 0 0 0.2 0 0 0 0 0.2 0 0 0 0 0.2 0 0 0 0.25 0"/>
<feBlend mode="normal" in2="BackgroundImageFix" result="effect1_dropShadow_1763_11156"/>
<feBlend mode="normal" in="SourceGraphic" in2="effect1_dropShadow_1763_11156" result="shape"/>
</filter>
</defs>
</svg>
