<svg width="326" height="541" viewBox="0 0 326 541" fill="none" xmlns="http://www.w3.org/2000/svg">
<g filter="url(#filter0_d_1763_11036)">
<rect x="17" y="15" width="286" height="500" rx="5" fill="white" shape-rendering="crispEdges"/>
<g filter="url(#filter1_d_1763_11036)">
<path d="M79.1654 79.9585C78.3737 79.9585 77.582 79.6668 76.957 79.0418C75.7487 77.8335 75.7487 75.8335 76.957 74.6252L111.124 40.4585C112.332 39.2502 114.332 39.2502 115.54 40.4585C116.749 41.6668 116.749 43.6668 115.54 44.8752L81.3737 79.0418C80.7487 79.6668 79.957 79.9585 79.1654 79.9585Z" fill="#1959AB"/>
<path d="M116.668 62.4585C114.96 62.4585 113.543 61.0418 113.543 59.3335V42.4585H96.668C94.9596 42.4585 93.543 41.0418 93.543 39.3335C93.543 37.6252 94.9596 36.2085 96.668 36.2085H116.668C118.376 36.2085 119.793 37.6252 119.793 39.3335V59.3335C119.793 61.0418 118.376 62.4585 116.668 62.4585Z" fill="#1959AB"/>
<path d="M87.4987 125.792H62.4987C39.8737 125.792 30.207 116.125 30.207 93.5002V68.5002C30.207 45.8752 39.8737 36.2085 62.4987 36.2085H70.832C72.5404 36.2085 73.957 37.6252 73.957 39.3335C73.957 41.0418 72.5404 42.4585 70.832 42.4585H62.4987C43.2904 42.4585 36.457 49.2918 36.457 68.5002V93.5002C36.457 112.708 43.2904 119.542 62.4987 119.542H87.4987C106.707 119.542 113.54 112.708 113.54 93.5002V85.1668C113.54 83.4585 114.957 82.0418 116.665 82.0418C118.374 82.0418 119.79 83.4585 119.79 85.1668V93.5002C119.79 116.125 110.124 125.792 87.4987 125.792Z" fill="#1959AB"/>
</g>
<path d="M39.168 187.566C39.9492 188.324 40.5469 189.242 40.9609 190.32C41.3828 191.398 41.5938 192.633 41.5938 194.023C41.5938 195.516 41.3633 196.859 40.9023 198.055C40.4414 199.242 39.8086 200.215 39.0039 200.973C38.1992 201.73 37.2305 202.316 36.0977 202.73C34.9727 203.137 33.7148 203.34 32.3242 203.34C31.582 203.34 30.8906 203.289 30.25 203.188C29.6172 203.094 29.0469 202.977 28.5391 202.836C28 202.688 27.5117 202.535 27.0742 202.379C26.6367 202.215 26.3047 202.086 26.0781 201.992V198.043H26.5117C26.7461 198.238 27.0312 198.457 27.3672 198.699C27.7031 198.934 28.0703 199.148 28.4688 199.344C28.9453 199.57 29.4531 199.762 29.9922 199.918C30.5312 200.066 31.1719 200.141 31.9141 200.141C32.4375 200.141 32.9961 200.07 33.5898 199.93C34.1836 199.781 34.7148 199.535 35.1836 199.191C35.6758 198.84 36.0977 198.371 36.4492 197.785C36.8086 197.199 37.0352 196.453 37.1289 195.547H29.3594V192.219H37.0234C36.8984 191.516 36.6758 190.926 36.3555 190.449C36.0352 189.973 35.6523 189.582 35.207 189.277C34.7617 188.973 34.2734 188.754 33.7422 188.621C33.2188 188.48 32.6953 188.41 32.1719 188.41C31.5234 188.41 30.9219 188.488 30.3672 188.645C29.8203 188.793 29.3047 188.984 28.8203 189.219C28.3828 189.438 27.9922 189.672 27.6484 189.922C27.3125 190.172 27.0312 190.383 26.8047 190.555H26.3125V186.57C26.7422 186.383 27.1445 186.223 27.5195 186.09C27.8945 185.949 28.3789 185.801 28.9727 185.645C29.4492 185.52 30.0117 185.418 30.6602 185.34C31.3086 185.254 31.9727 185.211 32.6523 185.211C33.9961 185.211 35.2188 185.41 36.3203 185.809C37.4219 186.207 38.3711 186.793 39.168 187.566ZM58.7734 203H53.8984L50.3711 197.785H49.0234V203H44.8047V189.84H49.0234V195.125C49.8047 195.117 50.3438 195.035 50.6406 194.879C50.9375 194.715 51.2812 194.289 51.6719 193.602C51.7891 193.398 51.9297 193.137 52.0938 192.816C52.2578 192.496 52.3867 192.25 52.4805 192.078C52.9102 191.312 53.4102 190.746 53.9805 190.379C54.5586 190.004 55.3594 189.816 56.3828 189.816C56.6797 189.816 56.9922 189.82 57.3203 189.828C57.6562 189.836 57.8828 189.84 58 189.84V193.355H56.8516C56.3828 193.355 56.0078 193.473 55.7266 193.707C55.4531 193.941 55.2148 194.289 55.0117 194.75C54.8398 195.133 54.6836 195.438 54.543 195.664C54.4023 195.883 54.2227 196.07 54.0039 196.227L58.7734 203ZM67.7617 203.352C66.6133 203.352 65.5625 203.215 64.6094 202.941C63.6641 202.668 62.8398 202.246 62.1367 201.676C61.4414 201.105 60.9023 200.387 60.5195 199.52C60.1367 198.652 59.9453 197.637 59.9453 196.473C59.9453 195.246 60.1484 194.188 60.5547 193.297C60.9688 192.406 61.543 191.668 62.2773 191.082C62.9883 190.527 63.8086 190.121 64.7383 189.863C65.668 189.605 66.6328 189.477 67.6328 189.477C68.5312 189.477 69.3594 189.574 70.1172 189.77C70.875 189.965 71.582 190.219 72.2383 190.531V194.129H71.6406C71.4766 193.988 71.2773 193.824 71.043 193.637C70.8164 193.449 70.5352 193.266 70.1992 193.086C69.8789 192.914 69.5273 192.773 69.1445 192.664C68.7617 192.547 68.3164 192.488 67.8086 192.488C66.6836 192.488 65.8164 192.848 65.207 193.566C64.6055 194.277 64.3047 195.246 64.3047 196.473C64.3047 197.738 64.6133 198.699 65.2305 199.355C65.8555 200.012 66.7383 200.34 67.8789 200.34C68.4102 200.34 68.8867 200.281 69.3086 200.164C69.7383 200.039 70.0938 199.895 70.375 199.73C70.6406 199.574 70.875 199.41 71.0781 199.238C71.2812 199.066 71.4688 198.898 71.6406 198.734H72.2383V202.332C71.5742 202.645 70.8789 202.891 70.1523 203.07C69.4336 203.258 68.6367 203.352 67.7617 203.352ZM88.5625 203H84.3438V192.699H79.4922V203H75.2734V189.84H88.5625V203ZM106 196.426C106 198.59 105.367 200.297 104.102 201.547C102.844 202.789 101.074 203.41 98.793 203.41C96.5117 203.41 94.7383 202.789 93.4727 201.547C92.2148 200.297 91.5859 198.59 91.5859 196.426C91.5859 194.246 92.2188 192.535 93.4844 191.293C94.7578 190.051 96.5273 189.43 98.793 189.43C101.09 189.43 102.863 190.055 104.113 191.305C105.371 192.555 106 194.262 106 196.426ZM100.809 199.625C101.082 199.289 101.285 198.887 101.418 198.418C101.559 197.941 101.629 197.285 101.629 196.449C101.629 195.676 101.559 195.027 101.418 194.504C101.277 193.98 101.082 193.562 100.832 193.25C100.582 192.93 100.281 192.703 99.9297 192.57C99.5781 192.438 99.1992 192.371 98.793 192.371C98.3867 192.371 98.0234 192.426 97.7031 192.535C97.3906 192.645 97.0898 192.863 96.8008 193.191C96.543 193.496 96.3359 193.914 96.1797 194.445C96.0312 194.977 95.957 195.645 95.957 196.449C95.957 197.168 96.0234 197.793 96.1562 198.324C96.2891 198.848 96.4844 199.27 96.7422 199.59C96.9922 199.895 97.2891 200.117 97.6328 200.258C97.9844 200.398 98.3828 200.469 98.8281 200.469C99.2109 200.469 99.5742 200.406 99.918 200.281C100.27 200.148 100.566 199.93 100.809 199.625ZM122.758 196.238C122.758 197.324 122.59 198.312 122.254 199.203C121.926 200.094 121.492 200.828 120.953 201.406C120.391 202.016 119.754 202.477 119.043 202.789C118.332 203.102 117.57 203.258 116.758 203.258C116.008 203.258 115.371 203.176 114.848 203.012C114.324 202.855 113.789 202.633 113.242 202.344V207.828H109.023V189.84H113.242V191.211C113.891 190.695 114.551 190.277 115.223 189.957C115.902 189.637 116.684 189.477 117.566 189.477C119.207 189.477 120.48 190.078 121.387 191.281C122.301 192.484 122.758 194.137 122.758 196.238ZM118.41 196.32C118.41 195.039 118.191 194.109 117.754 193.531C117.316 192.953 116.625 192.664 115.68 192.664C115.281 192.664 114.871 192.727 114.449 192.852C114.027 192.969 113.625 193.141 113.242 193.367V199.988C113.523 200.098 113.824 200.168 114.145 200.199C114.465 200.23 114.781 200.246 115.094 200.246C116.211 200.246 117.043 199.922 117.59 199.273C118.137 198.617 118.41 197.633 118.41 196.32ZM136.539 192.699H132.344V203H128.125V192.699H123.93V189.84H136.539V192.699Z" fill="#333333"/>
<path d="M30 243L37.5 250.5L50 235.5" stroke="#61B857" stroke-width="2" stroke-linecap="round" stroke-linejoin="round"/>
<path d="M71.7578 229.656C72.2578 230.156 72.6432 230.776 72.9141 231.516C73.1849 232.255 73.3203 233.13 73.3203 234.141C73.3203 235.036 73.1823 235.862 72.9062 236.617C72.6354 237.367 72.2422 238.01 71.7266 238.547C71.1953 239.099 70.5729 239.516 69.8594 239.797C69.151 240.073 68.3724 240.211 67.5234 240.211C66.7891 240.211 66.0911 240.141 65.4297 240C64.7682 239.859 64.2109 239.693 63.7578 239.5V237.789H63.8828C64.3047 238.128 64.8359 238.398 65.4766 238.602C66.1224 238.799 66.8125 238.898 67.5469 238.898C68.1875 238.898 68.7734 238.786 69.3047 238.562C69.8359 238.333 70.2786 238.023 70.6328 237.633C71.0078 237.216 71.2891 236.747 71.4766 236.227C71.6693 235.701 71.7656 235.104 71.7656 234.438H65.4141V233.086H71.6875C71.6146 232.466 71.4583 231.93 71.2188 231.477C70.9792 231.018 70.6745 230.641 70.3047 230.344C69.9349 230.047 69.5156 229.828 69.0469 229.688C68.5781 229.542 68.0781 229.469 67.5469 229.469C66.8333 229.469 66.1641 229.57 65.5391 229.773C64.9141 229.971 64.375 230.245 63.9219 230.594H63.7891V228.875C64.2734 228.672 64.8464 228.503 65.5078 228.367C66.1693 228.227 66.8464 228.156 67.5391 228.156C68.4349 228.156 69.2344 228.281 69.9375 228.531C70.6458 228.781 71.2526 229.156 71.7578 229.656ZM83.5391 240H81.6172L77.9922 236H77.1953V240H75.7266V231.273H77.1953V235.039C77.6797 235.039 78.0703 234.953 78.3672 234.781C78.6641 234.604 78.9167 234.323 79.125 233.938C79.1979 233.797 79.2682 233.648 79.3359 233.492C79.4089 233.331 79.4792 233.177 79.5469 233.031C79.8177 232.443 80.1562 232.003 80.5625 231.711C80.9688 231.419 81.5521 231.273 82.3125 231.273H82.9844V232.539H82.3359C81.9245 232.539 81.6016 232.628 81.3672 232.805C81.138 232.977 80.9297 233.281 80.7422 233.719C80.5339 234.208 80.3125 234.576 80.0781 234.82C79.849 235.06 79.6042 235.242 79.3438 235.367L83.5391 240ZM91.6641 239.453C91.0651 239.734 90.5495 239.927 90.1172 240.031C89.6901 240.141 89.263 240.195 88.8359 240.195C88.2005 240.195 87.6172 240.104 87.0859 239.922C86.5547 239.734 86.099 239.453 85.7188 239.078C85.3385 238.703 85.0417 238.229 84.8281 237.656C84.6198 237.083 84.5156 236.414 84.5156 235.648C84.5156 234.258 84.901 233.148 85.6719 232.32C86.4427 231.487 87.4974 231.07 88.8359 231.07C89.3411 231.07 89.8359 231.141 90.3203 231.281C90.8099 231.422 91.2578 231.594 91.6641 231.797V233.43H91.5781C91.0938 233.06 90.6146 232.786 90.1406 232.609C89.6719 232.432 89.2161 232.344 88.7734 232.344C87.9036 232.344 87.2292 232.635 86.75 233.219C86.276 233.802 86.0391 234.612 86.0391 235.648C86.0391 236.685 86.276 237.49 86.75 238.062C87.224 238.635 87.8984 238.922 88.7734 238.922C89.0807 238.922 89.3854 238.883 89.6875 238.805C89.9948 238.727 90.2734 238.625 90.5234 238.5C90.7214 238.401 90.9245 238.284 91.1328 238.148C91.3464 238.008 91.4948 237.904 91.5781 237.836H91.6641V239.453ZM100.984 240H99.5156V232.539H95.1484V240H93.6797V231.273H100.984V240ZM111.32 235.641C111.32 237.062 110.956 238.185 110.227 239.008C109.497 239.831 108.521 240.242 107.297 240.242C106.062 240.242 105.081 239.831 104.352 239.008C103.628 238.185 103.266 237.062 103.266 235.641C103.266 234.219 103.628 233.096 104.352 232.273C105.081 231.445 106.062 231.031 107.297 231.031C108.521 231.031 109.497 231.445 110.227 232.273C110.956 233.096 111.32 234.219 111.32 235.641ZM109.805 235.641C109.805 234.51 109.583 233.672 109.141 233.125C108.698 232.573 108.083 232.297 107.297 232.297C106.5 232.297 105.88 232.573 105.438 233.125C105 233.672 104.781 234.51 104.781 235.641C104.781 236.734 105.003 237.565 105.445 238.133C105.888 238.695 106.505 238.977 107.297 238.977C108.078 238.977 108.69 238.698 109.133 238.141C109.581 237.578 109.805 236.745 109.805 235.641ZM121.281 235.531C121.281 236.24 121.18 236.888 120.977 237.477C120.773 238.06 120.487 238.555 120.117 238.961C119.773 239.346 119.367 239.646 118.898 239.859C118.435 240.068 117.943 240.172 117.422 240.172C116.969 240.172 116.557 240.122 116.188 240.023C115.823 239.924 115.451 239.771 115.07 239.562V243.219H113.602V231.273H115.07V232.188C115.461 231.859 115.898 231.586 116.383 231.367C116.872 231.143 117.393 231.031 117.945 231.031C118.997 231.031 119.815 231.43 120.398 232.227C120.987 233.018 121.281 234.12 121.281 235.531ZM119.766 235.57C119.766 234.518 119.586 233.732 119.227 233.211C118.867 232.69 118.315 232.43 117.57 232.43C117.148 232.43 116.724 232.521 116.297 232.703C115.87 232.885 115.461 233.125 115.07 233.422V238.367C115.487 238.555 115.844 238.682 116.141 238.75C116.443 238.818 116.784 238.852 117.164 238.852C117.982 238.852 118.62 238.576 119.078 238.023C119.536 237.471 119.766 236.654 119.766 235.57ZM129.984 232.562H126.828V240H125.359V232.562H122.203V231.273H129.984V232.562ZM143.547 232.562C143.911 232.927 144.188 233.37 144.375 233.891C144.562 234.406 144.656 235.013 144.656 235.711C144.656 237.013 144.266 238.094 143.484 238.953C142.703 239.812 141.742 240.242 140.602 240.242C140.039 240.242 139.521 240.148 139.047 239.961C138.573 239.768 138.169 239.474 137.836 239.078C137.419 238.583 137.107 237.961 136.898 237.211C136.695 236.456 136.594 235.536 136.594 234.453C136.594 234.062 136.612 233.667 136.648 233.266C136.685 232.859 136.768 232.375 136.898 231.812C137.003 231.328 137.154 230.862 137.352 230.414C137.555 229.966 137.794 229.604 138.07 229.328C138.445 228.948 138.938 228.643 139.547 228.414C140.161 228.18 140.974 228.018 141.984 227.93C142.396 227.893 142.779 227.865 143.133 227.844C143.487 227.818 143.805 227.794 144.086 227.773V229.125C143.742 229.146 143.401 229.167 143.062 229.188C142.729 229.208 142.396 229.234 142.062 229.266C141.396 229.323 140.792 229.432 140.25 229.594C139.714 229.755 139.32 229.964 139.07 230.219C138.794 230.495 138.586 230.857 138.445 231.305C138.31 231.747 138.221 232.169 138.18 232.57C138.57 232.289 138.997 232.055 139.461 231.867C139.93 231.674 140.427 231.578 140.953 231.578C141.443 231.578 141.914 231.659 142.367 231.82C142.82 231.982 143.214 232.229 143.547 232.562ZM143.164 235.797C143.164 234.833 142.932 234.115 142.469 233.641C142.005 233.161 141.393 232.922 140.633 232.922C140.18 232.922 139.745 232.995 139.328 233.141C138.911 233.281 138.516 233.471 138.141 233.711C138.13 233.841 138.12 233.995 138.109 234.172C138.104 234.344 138.102 234.503 138.102 234.648C138.102 235.555 138.177 236.289 138.328 236.852C138.479 237.414 138.693 237.862 138.969 238.195C139.208 238.477 139.469 238.677 139.75 238.797C140.031 238.911 140.333 238.969 140.656 238.969C141.443 238.969 142.057 238.685 142.5 238.117C142.943 237.549 143.164 236.776 143.164 235.797ZM154.398 235.641C154.398 237.062 154.034 238.185 153.305 239.008C152.576 239.831 151.599 240.242 150.375 240.242C149.141 240.242 148.159 239.831 147.43 239.008C146.706 238.185 146.344 237.062 146.344 235.641C146.344 234.219 146.706 233.096 147.43 232.273C148.159 231.445 149.141 231.031 150.375 231.031C151.599 231.031 152.576 231.445 153.305 232.273C154.034 233.096 154.398 234.219 154.398 235.641ZM152.883 235.641C152.883 234.51 152.661 233.672 152.219 233.125C151.776 232.573 151.161 232.297 150.375 232.297C149.578 232.297 148.958 232.573 148.516 233.125C148.078 233.672 147.859 234.51 147.859 235.641C147.859 236.734 148.081 237.565 148.523 238.133C148.966 238.695 149.583 238.977 150.375 238.977C151.156 238.977 151.768 238.698 152.211 238.141C152.659 237.578 152.883 236.745 152.883 235.641ZM166.312 235.641C166.312 234.521 166.096 233.685 165.664 233.133C165.232 232.576 164.633 232.297 163.867 232.297C163.07 232.297 162.461 232.589 162.039 233.172C161.622 233.75 161.414 234.573 161.414 235.641C161.414 236.745 161.633 237.578 162.07 238.141C162.508 238.698 163.107 238.977 163.867 238.977C164.628 238.977 165.224 238.701 165.656 238.148C166.094 237.591 166.312 236.755 166.312 235.641ZM159.961 236.047H158.148V240H156.68V231.273H158.148V234.812H160C160.13 233.609 160.549 232.68 161.258 232.023C161.971 231.362 162.846 231.031 163.883 231.031C165.086 231.031 166.044 231.443 166.758 232.266C167.471 233.089 167.828 234.214 167.828 235.641C167.828 237.052 167.477 238.172 166.773 239C166.07 239.828 165.107 240.242 163.883 240.242C162.727 240.242 161.799 239.867 161.102 239.117C160.409 238.367 160.029 237.344 159.961 236.047ZM177.406 240H175.938V236.07H171.57V240H170.102V231.273H171.57V234.805H175.938V231.273H177.406V240ZM187.102 240H185.633V236.648C185.159 236.794 184.706 236.911 184.273 237C183.841 237.089 183.37 237.133 182.859 237.133C181.922 237.133 181.206 236.904 180.711 236.445C180.216 235.982 179.969 235.315 179.969 234.445V231.273H181.438V233.695C181.438 234.029 181.458 234.328 181.5 234.594C181.542 234.854 181.63 235.081 181.766 235.273C181.901 235.461 182.091 235.604 182.336 235.703C182.581 235.802 182.922 235.852 183.359 235.852C183.719 235.852 184.109 235.818 184.531 235.75C184.953 235.677 185.32 235.594 185.633 235.5V231.273H187.102V240ZM196.773 240H195.312V239.07C195.182 239.159 195.005 239.284 194.781 239.445C194.562 239.602 194.349 239.727 194.141 239.82C193.896 239.94 193.615 240.039 193.297 240.117C192.979 240.201 192.607 240.242 192.18 240.242C191.393 240.242 190.727 239.982 190.18 239.461C189.633 238.94 189.359 238.276 189.359 237.469C189.359 236.807 189.5 236.273 189.781 235.867C190.068 235.456 190.474 235.133 191 234.898C191.531 234.664 192.169 234.505 192.914 234.422C193.659 234.339 194.458 234.276 195.312 234.234V234.008C195.312 233.674 195.253 233.398 195.133 233.18C195.018 232.961 194.852 232.789 194.633 232.664C194.424 232.544 194.174 232.464 193.883 232.422C193.591 232.38 193.286 232.359 192.969 232.359C192.583 232.359 192.154 232.411 191.68 232.516C191.206 232.615 190.716 232.76 190.211 232.953H190.133V231.461C190.419 231.383 190.833 231.297 191.375 231.203C191.917 231.109 192.451 231.062 192.977 231.062C193.591 231.062 194.125 231.115 194.578 231.219C195.036 231.318 195.432 231.49 195.766 231.734C196.094 231.974 196.344 232.284 196.516 232.664C196.688 233.044 196.773 233.516 196.773 234.078V240ZM195.312 237.852V235.422C194.865 235.448 194.336 235.487 193.727 235.539C193.122 235.591 192.643 235.667 192.289 235.766C191.867 235.885 191.526 236.073 191.266 236.328C191.005 236.578 190.875 236.924 190.875 237.367C190.875 237.867 191.026 238.245 191.328 238.5C191.63 238.75 192.091 238.875 192.711 238.875C193.227 238.875 193.698 238.776 194.125 238.578C194.552 238.375 194.948 238.133 195.312 237.852ZM73.9141 259H71.9297L67.2031 253.695H66.1484V259H64.6016V247.367H66.1484V252.586C66.4141 252.581 66.6641 252.555 66.8984 252.508C67.1328 252.461 67.3542 252.372 67.5625 252.242C67.7708 252.122 67.9766 251.953 68.1797 251.734C68.3828 251.51 68.5625 251.237 68.7188 250.914C68.7865 250.773 68.8646 250.596 68.9531 250.383C69.0469 250.169 69.1406 249.945 69.2344 249.711C69.5938 248.846 70.013 248.24 70.4922 247.891C70.9766 247.542 71.6875 247.367 72.625 247.367H73.2422V248.75H72.5938C72.2344 248.75 71.9531 248.784 71.75 248.852C71.5469 248.914 71.3646 249.021 71.2031 249.172C71.0521 249.307 70.9193 249.49 70.8047 249.719C70.6953 249.948 70.5807 250.216 70.4609 250.523C70.1901 251.211 69.9141 251.716 69.6328 252.039C69.3568 252.362 68.9844 252.643 68.5156 252.883L73.9141 259ZM82.9766 254.641C82.9766 256.062 82.612 257.185 81.8828 258.008C81.1536 258.831 80.1771 259.242 78.9531 259.242C77.7188 259.242 76.737 258.831 76.0078 258.008C75.2839 257.185 74.9219 256.062 74.9219 254.641C74.9219 253.219 75.2839 252.096 76.0078 251.273C76.737 250.445 77.7188 250.031 78.9531 250.031C80.1771 250.031 81.1536 250.445 81.8828 251.273C82.612 252.096 82.9766 253.219 82.9766 254.641ZM81.4609 254.641C81.4609 253.51 81.2396 252.672 80.7969 252.125C80.3542 251.573 79.7396 251.297 78.9531 251.297C78.1562 251.297 77.5365 251.573 77.0938 252.125C76.6562 252.672 76.4375 253.51 76.4375 254.641C76.4375 255.734 76.6589 256.565 77.1016 257.133C77.5443 257.695 78.1615 257.977 78.9531 257.977C79.7344 257.977 80.3464 257.698 80.7891 257.141C81.237 256.578 81.4609 255.745 81.4609 254.641ZM92.5625 259H91.0938V255.07H86.7266V259H85.2578V250.273H86.7266V253.805H91.0938V250.273H92.5625V259ZM101.992 258.453C101.393 258.734 100.878 258.927 100.445 259.031C100.018 259.141 99.5911 259.195 99.1641 259.195C98.5286 259.195 97.9453 259.104 97.4141 258.922C96.8828 258.734 96.4271 258.453 96.0469 258.078C95.6667 257.703 95.3698 257.229 95.1562 256.656C94.9479 256.083 94.8438 255.414 94.8438 254.648C94.8438 253.258 95.2292 252.148 96 251.32C96.7708 250.487 97.8255 250.07 99.1641 250.07C99.6693 250.07 100.164 250.141 100.648 250.281C101.138 250.422 101.586 250.594 101.992 250.797V252.43H101.906C101.422 252.06 100.943 251.786 100.469 251.609C100 251.432 99.5443 251.344 99.1016 251.344C98.2318 251.344 97.5573 251.635 97.0781 252.219C96.6042 252.802 96.3672 253.612 96.3672 254.648C96.3672 255.685 96.6042 256.49 97.0781 257.062C97.5521 257.635 98.2266 257.922 99.1016 257.922C99.4089 257.922 99.7135 257.883 100.016 257.805C100.323 257.727 100.602 257.625 100.852 257.5C101.049 257.401 101.253 257.284 101.461 257.148C101.674 257.008 101.823 256.904 101.906 256.836H101.992V258.453ZM111.555 250.273L106.461 262.219H104.891L106.516 258.578L103.039 250.273H104.633L107.312 256.742L110.016 250.273H111.555ZM120.516 259H119.047V251.508H115.789C115.773 251.94 115.758 252.357 115.742 252.758C115.727 253.159 115.711 253.521 115.695 253.844C115.659 254.714 115.599 255.409 115.516 255.93C115.432 256.445 115.323 256.875 115.188 257.219C115.062 257.542 114.922 257.805 114.766 258.008C114.615 258.206 114.451 258.385 114.273 258.547C114.096 258.703 113.898 258.82 113.68 258.898C113.466 258.977 113.232 259.016 112.977 259.016C112.888 259.016 112.758 259.013 112.586 259.008C112.419 259.003 112.31 259 112.258 259V257.719H112.336C112.378 257.719 112.438 257.721 112.516 257.727C112.594 257.732 112.659 257.734 112.711 257.734C112.836 257.734 112.964 257.716 113.094 257.68C113.229 257.643 113.344 257.576 113.438 257.477C113.703 257.216 113.917 256.776 114.078 256.156C114.24 255.536 114.346 254.641 114.398 253.469C114.419 253.042 114.438 252.536 114.453 251.953C114.474 251.365 114.492 250.805 114.508 250.273H120.516V259ZM128.867 256.32C128.867 256.055 128.82 255.823 128.727 255.625C128.638 255.422 128.49 255.258 128.281 255.133C128.062 255.003 127.812 254.924 127.531 254.898C127.255 254.872 126.857 254.859 126.336 254.859H124.883V257.828H126.305C126.826 257.828 127.229 257.807 127.516 257.766C127.802 257.719 128.049 257.633 128.258 257.508C128.471 257.372 128.625 257.214 128.719 257.031C128.818 256.844 128.867 256.607 128.867 256.32ZM130.383 256.297C130.383 256.719 130.297 257.102 130.125 257.445C129.958 257.789 129.729 258.068 129.438 258.281C129.094 258.542 128.727 258.727 128.336 258.836C127.945 258.945 127.443 259 126.828 259H123.414V250.273H124.883V253.672H126.867C127.523 253.672 128.031 253.706 128.391 253.773C128.755 253.841 129.117 254.008 129.477 254.273C129.779 254.497 130.005 254.784 130.156 255.133C130.307 255.482 130.383 255.87 130.383 256.297ZM138.969 251.562H135.812V259H134.344V251.562H131.188V250.273H138.969V251.562ZM147.273 259H145.812V258.07C145.682 258.159 145.505 258.284 145.281 258.445C145.062 258.602 144.849 258.727 144.641 258.82C144.396 258.94 144.115 259.039 143.797 259.117C143.479 259.201 143.107 259.242 142.68 259.242C141.893 259.242 141.227 258.982 140.68 258.461C140.133 257.94 139.859 257.276 139.859 256.469C139.859 255.807 140 255.273 140.281 254.867C140.568 254.456 140.974 254.133 141.5 253.898C142.031 253.664 142.669 253.505 143.414 253.422C144.159 253.339 144.958 253.276 145.812 253.234V253.008C145.812 252.674 145.753 252.398 145.633 252.18C145.518 251.961 145.352 251.789 145.133 251.664C144.924 251.544 144.674 251.464 144.383 251.422C144.091 251.38 143.786 251.359 143.469 251.359C143.083 251.359 142.654 251.411 142.18 251.516C141.706 251.615 141.216 251.76 140.711 251.953H140.633V250.461C140.919 250.383 141.333 250.297 141.875 250.203C142.417 250.109 142.951 250.062 143.477 250.062C144.091 250.062 144.625 250.115 145.078 250.219C145.536 250.318 145.932 250.49 146.266 250.734C146.594 250.974 146.844 251.284 147.016 251.664C147.188 252.044 147.273 252.516 147.273 253.078V259ZM145.812 256.852V254.422C145.365 254.448 144.836 254.487 144.227 254.539C143.622 254.591 143.143 254.667 142.789 254.766C142.367 254.885 142.026 255.073 141.766 255.328C141.505 255.578 141.375 255.924 141.375 256.367C141.375 256.867 141.526 257.245 141.828 257.5C142.13 257.75 142.591 257.875 143.211 257.875C143.727 257.875 144.198 257.776 144.625 257.578C145.052 257.375 145.448 257.133 145.812 256.852ZM157.023 259H150.102V250.273H151.57V257.734H155.867V250.273H157.336V257.734H158.391V261.094H157.023V259ZM167.766 259H166.312V252.445L161.742 259H160.414V250.273H161.867V256.734L166.391 250.273H167.766V259ZM177.367 259H175.898V255.539H174.172L171.469 259H169.742L172.68 255.398C171.924 255.19 171.372 254.872 171.023 254.445C170.674 254.013 170.5 253.448 170.5 252.75C170.5 252.286 170.604 251.893 170.812 251.57C171.021 251.247 171.284 250.984 171.602 250.781C171.914 250.583 172.273 250.451 172.68 250.383C173.086 250.31 173.529 250.273 174.008 250.273H177.367V259ZM175.898 254.383V251.445H174.047C173.646 251.445 173.357 251.458 173.18 251.484C173.003 251.51 172.81 251.581 172.602 251.695C172.398 251.81 172.247 251.966 172.148 252.164C172.055 252.357 172.008 252.568 172.008 252.797C172.008 253.083 172.036 253.315 172.094 253.492C172.156 253.669 172.281 253.836 172.469 253.992C172.661 254.143 172.896 254.247 173.172 254.305C173.448 254.357 173.755 254.383 174.094 254.383H175.898Z" fill="#333333"/>
<path d="M30 293L37.5 300.5L50 285.5" stroke="#61B857" stroke-width="2" stroke-linecap="round" stroke-linejoin="round"/>
<path d="M71.7578 289.156C72.2578 289.656 72.6432 290.276 72.9141 291.016C73.1849 291.755 73.3203 292.63 73.3203 293.641C73.3203 294.536 73.1823 295.362 72.9062 296.117C72.6354 296.867 72.2422 297.51 71.7266 298.047C71.1953 298.599 70.5729 299.016 69.8594 299.297C69.151 299.573 68.3724 299.711 67.5234 299.711C66.7891 299.711 66.0911 299.641 65.4297 299.5C64.7682 299.359 64.2109 299.193 63.7578 299V297.289H63.8828C64.3047 297.628 64.8359 297.898 65.4766 298.102C66.1224 298.299 66.8125 298.398 67.5469 298.398C68.1875 298.398 68.7734 298.286 69.3047 298.062C69.8359 297.833 70.2786 297.523 70.6328 297.133C71.0078 296.716 71.2891 296.247 71.4766 295.727C71.6693 295.201 71.7656 294.604 71.7656 293.938H65.4141V292.586H71.6875C71.6146 291.966 71.4583 291.43 71.2188 290.977C70.9792 290.518 70.6745 290.141 70.3047 289.844C69.9349 289.547 69.5156 289.328 69.0469 289.188C68.5781 289.042 68.0781 288.969 67.5469 288.969C66.8333 288.969 66.1641 289.07 65.5391 289.273C64.9141 289.471 64.375 289.745 63.9219 290.094H63.7891V288.375C64.2734 288.172 64.8464 288.003 65.5078 287.867C66.1693 287.727 66.8464 287.656 67.5391 287.656C68.4349 287.656 69.2344 287.781 69.9375 288.031C70.6458 288.281 71.2526 288.656 71.7578 289.156ZM83.5391 299.5H81.6172L77.9922 295.5H77.1953V299.5H75.7266V290.773H77.1953V294.539C77.6797 294.539 78.0703 294.453 78.3672 294.281C78.6641 294.104 78.9167 293.823 79.125 293.438C79.1979 293.297 79.2682 293.148 79.3359 292.992C79.4089 292.831 79.4792 292.677 79.5469 292.531C79.8177 291.943 80.1562 291.503 80.5625 291.211C80.9688 290.919 81.5521 290.773 82.3125 290.773H82.9844V292.039H82.3359C81.9245 292.039 81.6016 292.128 81.3672 292.305C81.138 292.477 80.9297 292.781 80.7422 293.219C80.5339 293.708 80.3125 294.076 80.0781 294.32C79.849 294.56 79.6042 294.742 79.3438 294.867L83.5391 299.5ZM91.6641 298.953C91.0651 299.234 90.5495 299.427 90.1172 299.531C89.6901 299.641 89.263 299.695 88.8359 299.695C88.2005 299.695 87.6172 299.604 87.0859 299.422C86.5547 299.234 86.099 298.953 85.7188 298.578C85.3385 298.203 85.0417 297.729 84.8281 297.156C84.6198 296.583 84.5156 295.914 84.5156 295.148C84.5156 293.758 84.901 292.648 85.6719 291.82C86.4427 290.987 87.4974 290.57 88.8359 290.57C89.3411 290.57 89.8359 290.641 90.3203 290.781C90.8099 290.922 91.2578 291.094 91.6641 291.297V292.93H91.5781C91.0938 292.56 90.6146 292.286 90.1406 292.109C89.6719 291.932 89.2161 291.844 88.7734 291.844C87.9036 291.844 87.2292 292.135 86.75 292.719C86.276 293.302 86.0391 294.112 86.0391 295.148C86.0391 296.185 86.276 296.99 86.75 297.562C87.224 298.135 87.8984 298.422 88.7734 298.422C89.0807 298.422 89.3854 298.383 89.6875 298.305C89.9948 298.227 90.2734 298.125 90.5234 298C90.7214 297.901 90.9245 297.784 91.1328 297.648C91.3464 297.508 91.4948 297.404 91.5781 297.336H91.6641V298.953ZM100.984 299.5H99.5156V292.039H95.1484V299.5H93.6797V290.773H100.984V299.5ZM111.32 295.141C111.32 296.562 110.956 297.685 110.227 298.508C109.497 299.331 108.521 299.742 107.297 299.742C106.062 299.742 105.081 299.331 104.352 298.508C103.628 297.685 103.266 296.562 103.266 295.141C103.266 293.719 103.628 292.596 104.352 291.773C105.081 290.945 106.062 290.531 107.297 290.531C108.521 290.531 109.497 290.945 110.227 291.773C110.956 292.596 111.32 293.719 111.32 295.141ZM109.805 295.141C109.805 294.01 109.583 293.172 109.141 292.625C108.698 292.073 108.083 291.797 107.297 291.797C106.5 291.797 105.88 292.073 105.438 292.625C105 293.172 104.781 294.01 104.781 295.141C104.781 296.234 105.003 297.065 105.445 297.633C105.888 298.195 106.505 298.477 107.297 298.477C108.078 298.477 108.69 298.198 109.133 297.641C109.581 297.078 109.805 296.245 109.805 295.141ZM121.281 295.031C121.281 295.74 121.18 296.388 120.977 296.977C120.773 297.56 120.487 298.055 120.117 298.461C119.773 298.846 119.367 299.146 118.898 299.359C118.435 299.568 117.943 299.672 117.422 299.672C116.969 299.672 116.557 299.622 116.188 299.523C115.823 299.424 115.451 299.271 115.07 299.062V302.719H113.602V290.773H115.07V291.688C115.461 291.359 115.898 291.086 116.383 290.867C116.872 290.643 117.393 290.531 117.945 290.531C118.997 290.531 119.815 290.93 120.398 291.727C120.987 292.518 121.281 293.62 121.281 295.031ZM119.766 295.07C119.766 294.018 119.586 293.232 119.227 292.711C118.867 292.19 118.315 291.93 117.57 291.93C117.148 291.93 116.724 292.021 116.297 292.203C115.87 292.385 115.461 292.625 115.07 292.922V297.867C115.487 298.055 115.844 298.182 116.141 298.25C116.443 298.318 116.784 298.352 117.164 298.352C117.982 298.352 118.62 298.076 119.078 297.523C119.536 296.971 119.766 296.154 119.766 295.07ZM129.984 292.062H126.828V299.5H125.359V292.062H122.203V290.773H129.984V292.062ZM139.383 299.5H137.461L133.836 295.5H133.039V299.5H131.57V290.773H133.039V294.539C133.523 294.539 133.914 294.453 134.211 294.281C134.508 294.104 134.76 293.823 134.969 293.438C135.042 293.297 135.112 293.148 135.18 292.992C135.253 292.831 135.323 292.677 135.391 292.531C135.661 291.943 136 291.503 136.406 291.211C136.812 290.919 137.396 290.773 138.156 290.773H138.828V292.039H138.18C137.768 292.039 137.445 292.128 137.211 292.305C136.982 292.477 136.773 292.781 136.586 293.219C136.378 293.708 136.156 294.076 135.922 294.32C135.693 294.56 135.448 294.742 135.188 294.867L139.383 299.5ZM148.414 295.141C148.414 296.562 148.049 297.685 147.32 298.508C146.591 299.331 145.615 299.742 144.391 299.742C143.156 299.742 142.174 299.331 141.445 298.508C140.721 297.685 140.359 296.562 140.359 295.141C140.359 293.719 140.721 292.596 141.445 291.773C142.174 290.945 143.156 290.531 144.391 290.531C145.615 290.531 146.591 290.945 147.32 291.773C148.049 292.596 148.414 293.719 148.414 295.141ZM146.898 295.141C146.898 294.01 146.677 293.172 146.234 292.625C145.792 292.073 145.177 291.797 144.391 291.797C143.594 291.797 142.974 292.073 142.531 292.625C142.094 293.172 141.875 294.01 141.875 295.141C141.875 296.234 142.096 297.065 142.539 297.633C142.982 298.195 143.599 298.477 144.391 298.477C145.172 298.477 145.784 298.198 146.227 297.641C146.674 297.078 146.898 296.245 146.898 295.141ZM164.242 301.594H162.875V299.477H156.312V301.594H154.945V298.25H155.891C156.5 297.245 156.953 296.086 157.25 294.773C157.552 293.456 157.703 292.122 157.703 290.773H163.188V298.25H164.242V301.594ZM161.719 298.25V292.008H159.086C159.018 293.315 158.818 294.508 158.484 295.586C158.151 296.664 157.768 297.552 157.336 298.25H161.719ZM173.055 299.5H171.594V298.57C171.464 298.659 171.286 298.784 171.062 298.945C170.844 299.102 170.63 299.227 170.422 299.32C170.177 299.44 169.896 299.539 169.578 299.617C169.26 299.701 168.888 299.742 168.461 299.742C167.674 299.742 167.008 299.482 166.461 298.961C165.914 298.44 165.641 297.776 165.641 296.969C165.641 296.307 165.781 295.773 166.062 295.367C166.349 294.956 166.755 294.633 167.281 294.398C167.812 294.164 168.451 294.005 169.195 293.922C169.94 293.839 170.74 293.776 171.594 293.734V293.508C171.594 293.174 171.534 292.898 171.414 292.68C171.299 292.461 171.133 292.289 170.914 292.164C170.706 292.044 170.456 291.964 170.164 291.922C169.872 291.88 169.568 291.859 169.25 291.859C168.865 291.859 168.435 291.911 167.961 292.016C167.487 292.115 166.997 292.26 166.492 292.453H166.414V290.961C166.701 290.883 167.115 290.797 167.656 290.703C168.198 290.609 168.732 290.562 169.258 290.562C169.872 290.562 170.406 290.615 170.859 290.719C171.318 290.818 171.714 290.99 172.047 291.234C172.375 291.474 172.625 291.784 172.797 292.164C172.969 292.544 173.055 293.016 173.055 293.578V299.5ZM171.594 297.352V294.922C171.146 294.948 170.617 294.987 170.008 295.039C169.404 295.091 168.924 295.167 168.57 295.266C168.148 295.385 167.807 295.573 167.547 295.828C167.286 296.078 167.156 296.424 167.156 296.867C167.156 297.367 167.307 297.745 167.609 298C167.911 298.25 168.372 298.375 168.992 298.375C169.508 298.375 169.979 298.276 170.406 298.078C170.833 297.875 171.229 297.633 171.594 297.352ZM182.586 299.5H181.117V296.039H179.391L176.688 299.5H174.961L177.898 295.898C177.143 295.69 176.591 295.372 176.242 294.945C175.893 294.513 175.719 293.948 175.719 293.25C175.719 292.786 175.823 292.393 176.031 292.07C176.24 291.747 176.503 291.484 176.82 291.281C177.133 291.083 177.492 290.951 177.898 290.883C178.305 290.81 178.747 290.773 179.227 290.773H182.586V299.5ZM181.117 294.883V291.945H179.266C178.865 291.945 178.576 291.958 178.398 291.984C178.221 292.01 178.029 292.081 177.82 292.195C177.617 292.31 177.466 292.466 177.367 292.664C177.273 292.857 177.227 293.068 177.227 293.297C177.227 293.583 177.255 293.815 177.312 293.992C177.375 294.169 177.5 294.336 177.688 294.492C177.88 294.643 178.115 294.747 178.391 294.805C178.667 294.857 178.974 294.883 179.312 294.883H181.117ZM193.156 295.031C193.156 295.74 193.055 296.388 192.852 296.977C192.648 297.56 192.362 298.055 191.992 298.461C191.648 298.846 191.242 299.146 190.773 299.359C190.31 299.568 189.818 299.672 189.297 299.672C188.844 299.672 188.432 299.622 188.062 299.523C187.698 299.424 187.326 299.271 186.945 299.062V302.719H185.477V290.773H186.945V291.688C187.336 291.359 187.773 291.086 188.258 290.867C188.747 290.643 189.268 290.531 189.82 290.531C190.872 290.531 191.69 290.93 192.273 291.727C192.862 292.518 193.156 293.62 193.156 295.031ZM191.641 295.07C191.641 294.018 191.461 293.232 191.102 292.711C190.742 292.19 190.19 291.93 189.445 291.93C189.023 291.93 188.599 292.021 188.172 292.203C187.745 292.385 187.336 292.625 186.945 292.922V297.867C187.362 298.055 187.719 298.182 188.016 298.25C188.318 298.318 188.659 298.352 189.039 298.352C189.857 298.352 190.495 298.076 190.953 297.523C191.411 296.971 191.641 296.154 191.641 295.07ZM203.367 301.594H202V299.477H195.438V301.594H194.07V298.25H195.016C195.625 297.245 196.078 296.086 196.375 294.773C196.677 293.456 196.828 292.122 196.828 290.773H202.312V298.25H203.367V301.594ZM200.844 298.25V292.008H198.211C198.143 293.315 197.943 294.508 197.609 295.586C197.276 296.664 196.893 297.552 196.461 298.25H200.844ZM210.773 296.82C210.773 296.555 210.727 296.323 210.633 296.125C210.544 295.922 210.396 295.758 210.188 295.633C209.969 295.503 209.719 295.424 209.438 295.398C209.161 295.372 208.763 295.359 208.242 295.359H206.867V298.328H208.211C208.732 298.328 209.135 298.307 209.422 298.266C209.708 298.219 209.956 298.133 210.164 298.008C210.378 297.872 210.531 297.714 210.625 297.531C210.724 297.344 210.773 297.107 210.773 296.82ZM212.289 296.797C212.289 297.219 212.203 297.602 212.031 297.945C211.865 298.289 211.635 298.568 211.344 298.781C211 299.042 210.633 299.227 210.242 299.336C209.852 299.445 209.349 299.5 208.734 299.5H205.398V290.773H206.867V294.172H208.773C209.43 294.172 209.938 294.206 210.297 294.273C210.661 294.341 211.023 294.508 211.383 294.773C211.685 294.997 211.911 295.284 212.062 295.633C212.214 295.982 212.289 296.37 212.289 296.797ZM213.75 290.773H215.219V299.5H213.75V290.773ZM225.992 299.5H224.07L220.445 295.5H219.648V299.5H218.18V290.773H219.648V294.539C220.133 294.539 220.523 294.453 220.82 294.281C221.117 294.104 221.37 293.823 221.578 293.438C221.651 293.297 221.721 293.148 221.789 292.992C221.862 292.831 221.932 292.677 222 292.531C222.271 291.943 222.609 291.503 223.016 291.211C223.422 290.919 224.005 290.773 224.766 290.773H225.438V292.039H224.789C224.378 292.039 224.055 292.128 223.82 292.305C223.591 292.477 223.383 292.781 223.195 293.219C222.987 293.708 222.766 294.076 222.531 294.32C222.302 294.56 222.057 294.742 221.797 294.867L225.992 299.5ZM241.086 299.5H239.164L235.539 295.5H234.742V299.5H233.273V290.773H234.742V294.539C235.227 294.539 235.617 294.453 235.914 294.281C236.211 294.104 236.464 293.823 236.672 293.438C236.745 293.297 236.815 293.148 236.883 292.992C236.956 292.831 237.026 292.677 237.094 292.531C237.365 291.943 237.703 291.503 238.109 291.211C238.516 290.919 239.099 290.773 239.859 290.773H240.531V292.039H239.883C239.471 292.039 239.148 292.128 238.914 292.305C238.685 292.477 238.477 292.781 238.289 293.219C238.081 293.708 237.859 294.076 237.625 294.32C237.396 294.56 237.151 294.742 236.891 294.867L241.086 299.5ZM250.117 295.141C250.117 296.479 249.786 297.562 249.125 298.391C248.406 299.292 247.396 299.742 246.094 299.742C244.786 299.742 243.773 299.292 243.055 298.391C242.393 297.568 242.062 296.484 242.062 295.141C242.062 293.797 242.393 292.711 243.055 291.883C243.773 290.982 244.786 290.531 246.094 290.531C247.401 290.531 248.414 290.982 249.133 291.883C249.789 292.711 250.117 293.797 250.117 295.141ZM248.578 294.555C248.432 292.716 247.604 291.797 246.094 291.797C244.573 291.797 243.742 292.716 243.602 294.555H248.578ZM248.586 295.68H243.594C243.656 296.503 243.878 297.156 244.258 297.641C244.69 298.198 245.302 298.477 246.094 298.477C247.615 298.477 248.445 297.544 248.586 295.68ZM260.078 295.031C260.078 295.74 259.977 296.388 259.773 296.977C259.57 297.56 259.284 298.055 258.914 298.461C258.57 298.846 258.164 299.146 257.695 299.359C257.232 299.568 256.74 299.672 256.219 299.672C255.766 299.672 255.354 299.622 254.984 299.523C254.62 299.424 254.247 299.271 253.867 299.062V302.719H252.398V290.773H253.867V291.688C254.258 291.359 254.695 291.086 255.18 290.867C255.669 290.643 256.19 290.531 256.742 290.531C257.794 290.531 258.612 290.93 259.195 291.727C259.784 292.518 260.078 293.62 260.078 295.031ZM258.562 295.07C258.562 294.018 258.383 293.232 258.023 292.711C257.664 292.19 257.112 291.93 256.367 291.93C255.945 291.93 255.521 292.021 255.094 292.203C254.667 292.385 254.258 292.625 253.867 292.922V297.867C254.284 298.055 254.641 298.182 254.938 298.25C255.24 298.318 255.581 298.352 255.961 298.352C256.779 298.352 257.417 298.076 257.875 297.523C258.333 296.971 258.562 296.154 258.562 295.07ZM269.914 290.773L266.344 299.062V302.719H264.875V299.062L261.398 290.773H262.992L265.672 297.242L268.375 290.773H269.914ZM279.383 290.773L275.812 299.062V302.719H274.344V299.062L270.867 290.773H272.461L275.141 297.242L277.844 290.773H279.383Z" fill="#333333"/>
<path d="M30 339L37.5 346.5L50 331.5" stroke="#61B857" stroke-width="2" stroke-linecap="round" stroke-linejoin="round"/>
<path d="M73.5469 344.656C73.2604 344.781 73 344.898 72.7656 345.008C72.5365 345.117 72.2344 345.232 71.8594 345.352C71.5417 345.451 71.1953 345.534 70.8203 345.602C70.4505 345.674 70.0417 345.711 69.5938 345.711C68.75 345.711 67.9818 345.594 67.2891 345.359C66.6016 345.12 66.0026 344.747 65.4922 344.242C64.9922 343.747 64.6016 343.12 64.3203 342.359C64.0391 341.594 63.8984 340.706 63.8984 339.695C63.8984 338.737 64.0339 337.88 64.3047 337.125C64.5755 336.37 64.9661 335.732 65.4766 335.211C65.9714 334.706 66.5677 334.32 67.2656 334.055C67.9688 333.789 68.7474 333.656 69.6016 333.656C70.2266 333.656 70.849 333.732 71.4688 333.883C72.0938 334.034 72.7865 334.299 73.5469 334.68V336.516H73.4297C72.7891 335.979 72.1536 335.589 71.5234 335.344C70.8932 335.099 70.2188 334.977 69.5 334.977C68.9115 334.977 68.3802 335.073 67.9062 335.266C67.4375 335.453 67.0182 335.747 66.6484 336.148C66.2891 336.539 66.0078 337.034 65.8047 337.633C65.6068 338.227 65.5078 338.914 65.5078 339.695C65.5078 340.513 65.6172 341.216 65.8359 341.805C66.0599 342.393 66.3464 342.872 66.6953 343.242C67.0599 343.628 67.4844 343.914 67.9688 344.102C68.4583 344.284 68.974 344.375 69.5156 344.375C70.2604 344.375 70.9583 344.247 71.6094 343.992C72.2604 343.737 72.8698 343.354 73.4375 342.844H73.5469V344.656ZM82.9219 341.289H76.4922C76.4922 341.826 76.5729 342.294 76.7344 342.695C76.8958 343.091 77.1172 343.417 77.3984 343.672C77.6693 343.922 77.9896 344.109 78.3594 344.234C78.7344 344.359 79.1458 344.422 79.5938 344.422C80.1875 344.422 80.7839 344.305 81.3828 344.07C81.987 343.831 82.4167 343.596 82.6719 343.367H82.75V344.969C82.2552 345.177 81.75 345.352 81.2344 345.492C80.7188 345.633 80.1771 345.703 79.6094 345.703C78.1615 345.703 77.0312 345.312 76.2188 344.531C75.4062 343.745 75 342.63 75 341.188C75 339.76 75.388 338.628 76.1641 337.789C76.9453 336.951 77.9714 336.531 79.2422 336.531C80.4193 336.531 81.3255 336.875 81.9609 337.562C82.6016 338.25 82.9219 339.227 82.9219 340.492V341.289ZM81.4922 340.164C81.487 339.393 81.2917 338.797 80.9062 338.375C80.526 337.953 79.9453 337.742 79.1641 337.742C78.3776 337.742 77.75 337.974 77.2812 338.438C76.8177 338.901 76.5547 339.477 76.4922 340.164H81.4922ZM92.8281 341.031C92.8281 341.74 92.7266 342.388 92.5234 342.977C92.3203 343.56 92.0339 344.055 91.6641 344.461C91.3203 344.846 90.9141 345.146 90.4453 345.359C89.9818 345.568 89.4896 345.672 88.9688 345.672C88.5156 345.672 88.1042 345.622 87.7344 345.523C87.3698 345.424 86.9974 345.271 86.6172 345.062V348.719H85.1484V336.773H86.6172V337.688C87.0078 337.359 87.4453 337.086 87.9297 336.867C88.4193 336.643 88.9401 336.531 89.4922 336.531C90.5443 336.531 91.362 336.93 91.9453 337.727C92.5339 338.518 92.8281 339.62 92.8281 341.031ZM91.3125 341.07C91.3125 340.018 91.1328 339.232 90.7734 338.711C90.4141 338.19 89.862 337.93 89.1172 337.93C88.6953 337.93 88.2708 338.021 87.8438 338.203C87.4167 338.385 87.0078 338.625 86.6172 338.922V343.867C87.0339 344.055 87.3906 344.182 87.6875 344.25C87.9896 344.318 88.3307 344.352 88.7109 344.352C89.5286 344.352 90.1667 344.076 90.625 343.523C91.0833 342.971 91.3125 342.154 91.3125 341.07ZM101.531 338.062H98.375V345.5H96.9062V338.062H93.75V336.773H101.531V338.062ZM110.406 345.5H108.953V338.945L104.383 345.5H103.055V336.773H104.508V343.234L109.031 336.773H110.406V345.5ZM124.445 340.906C124.445 341.682 124.346 342.37 124.148 342.969C123.951 343.562 123.688 344.052 123.359 344.438C123.036 344.823 122.664 345.117 122.242 345.32C121.82 345.523 121.378 345.625 120.914 345.625C120.565 345.625 120.26 345.565 120 345.445C119.745 345.326 119.516 345.216 119.312 345.117V348.719H117.859V345.117C117.542 345.273 117.279 345.398 117.07 345.492C116.867 345.581 116.547 345.625 116.109 345.625C115.104 345.625 114.289 345.232 113.664 344.445C113.039 343.659 112.727 342.565 112.727 341.164C112.727 340.43 112.828 339.776 113.031 339.203C113.234 338.625 113.5 338.141 113.828 337.75C114.146 337.37 114.518 337.081 114.945 336.883C115.378 336.68 115.807 336.578 116.234 336.578C116.547 336.578 116.831 336.628 117.086 336.727C117.346 336.82 117.604 336.945 117.859 337.102V333.344H119.312V337.102C119.552 336.961 119.833 336.839 120.156 336.734C120.479 336.63 120.805 336.578 121.133 336.578C122.164 336.578 122.974 336.969 123.562 337.75C124.151 338.526 124.445 339.578 124.445 340.906ZM122.938 341.07C122.938 340.076 122.76 339.289 122.406 338.711C122.052 338.133 121.521 337.844 120.812 337.844C120.526 337.844 120.286 337.867 120.094 337.914C119.901 337.961 119.641 338.049 119.312 338.18V344C119.557 344.115 119.76 344.206 119.922 344.273C120.089 344.336 120.323 344.367 120.625 344.367C121.359 344.367 121.927 344.086 122.328 343.523C122.734 342.956 122.938 342.138 122.938 341.07ZM117.859 344V338.18C117.656 338.086 117.451 338.008 117.242 337.945C117.034 337.878 116.802 337.844 116.547 337.844C115.844 337.844 115.281 338.112 114.859 338.648C114.443 339.185 114.234 340 114.234 341.094C114.234 342.109 114.419 342.909 114.789 343.492C115.164 344.076 115.703 344.367 116.406 344.367C116.682 344.367 116.938 344.331 117.172 344.258C117.411 344.18 117.641 344.094 117.859 344ZM134.109 345.5H132.656V338.945L128.086 345.5H126.758V336.773H128.211V343.234L132.734 336.773H134.109V345.5ZM144.883 345.5H142.961L139.336 341.5H138.539V345.5H137.07V336.773H138.539V340.539C139.023 340.539 139.414 340.453 139.711 340.281C140.008 340.104 140.26 339.823 140.469 339.438C140.542 339.297 140.612 339.148 140.68 338.992C140.753 338.831 140.823 338.677 140.891 338.531C141.161 337.943 141.5 337.503 141.906 337.211C142.312 336.919 142.896 336.773 143.656 336.773H144.328V338.039H143.68C143.268 338.039 142.945 338.128 142.711 338.305C142.482 338.477 142.273 338.781 142.086 339.219C141.878 339.708 141.656 340.076 141.422 340.32C141.193 340.56 140.948 340.742 140.688 340.867L144.883 345.5ZM153.258 345.5H151.797V344.57C151.667 344.659 151.49 344.784 151.266 344.945C151.047 345.102 150.833 345.227 150.625 345.32C150.38 345.44 150.099 345.539 149.781 345.617C149.464 345.701 149.091 345.742 148.664 345.742C147.878 345.742 147.211 345.482 146.664 344.961C146.117 344.44 145.844 343.776 145.844 342.969C145.844 342.307 145.984 341.773 146.266 341.367C146.552 340.956 146.958 340.633 147.484 340.398C148.016 340.164 148.654 340.005 149.398 339.922C150.143 339.839 150.943 339.776 151.797 339.734V339.508C151.797 339.174 151.737 338.898 151.617 338.68C151.503 338.461 151.336 338.289 151.117 338.164C150.909 338.044 150.659 337.964 150.367 337.922C150.076 337.88 149.771 337.859 149.453 337.859C149.068 337.859 148.638 337.911 148.164 338.016C147.69 338.115 147.201 338.26 146.695 338.453H146.617V336.961C146.904 336.883 147.318 336.797 147.859 336.703C148.401 336.609 148.935 336.562 149.461 336.562C150.076 336.562 150.609 336.615 151.062 336.719C151.521 336.818 151.917 336.99 152.25 337.234C152.578 337.474 152.828 337.784 153 338.164C153.172 338.544 153.258 339.016 153.258 339.578V345.5ZM151.797 343.352V340.922C151.349 340.948 150.82 340.987 150.211 341.039C149.607 341.091 149.128 341.167 148.773 341.266C148.352 341.385 148.01 341.573 147.75 341.828C147.49 342.078 147.359 342.424 147.359 342.867C147.359 343.367 147.51 343.745 147.812 344C148.115 344.25 148.576 344.375 149.195 344.375C149.711 344.375 150.182 344.276 150.609 344.078C151.036 343.875 151.432 343.633 151.797 343.352ZM163.008 345.5H156.086V336.773H157.555V344.234H161.852V336.773H163.32V344.234H164.375V347.594H163.008V345.5ZM173.75 345.5H172.297V338.945L167.727 345.5H166.398V336.773H167.852V343.234L172.375 336.773H173.75V345.5ZM183.352 345.5H181.883V342.039H180.156L177.453 345.5H175.727L178.664 341.898C177.909 341.69 177.357 341.372 177.008 340.945C176.659 340.513 176.484 339.948 176.484 339.25C176.484 338.786 176.589 338.393 176.797 338.07C177.005 337.747 177.268 337.484 177.586 337.281C177.898 337.083 178.258 336.951 178.664 336.883C179.07 336.81 179.513 336.773 179.992 336.773H183.352V345.5ZM181.883 340.883V337.945H180.031C179.63 337.945 179.341 337.958 179.164 337.984C178.987 338.01 178.794 338.081 178.586 338.195C178.383 338.31 178.232 338.466 178.133 338.664C178.039 338.857 177.992 339.068 177.992 339.297C177.992 339.583 178.021 339.815 178.078 339.992C178.141 340.169 178.266 340.336 178.453 340.492C178.646 340.643 178.88 340.747 179.156 340.805C179.432 340.857 179.74 340.883 180.078 340.883H181.883Z" fill="#333333"/>
<path d="M30 385L37.5 392.5L50 377.5" stroke="#61B857" stroke-width="2" stroke-linecap="round" stroke-linejoin="round"/>
<path d="M73.5469 390.656C73.2604 390.781 73 390.898 72.7656 391.008C72.5365 391.117 72.2344 391.232 71.8594 391.352C71.5417 391.451 71.1953 391.534 70.8203 391.602C70.4505 391.674 70.0417 391.711 69.5938 391.711C68.75 391.711 67.9818 391.594 67.2891 391.359C66.6016 391.12 66.0026 390.747 65.4922 390.242C64.9922 389.747 64.6016 389.12 64.3203 388.359C64.0391 387.594 63.8984 386.706 63.8984 385.695C63.8984 384.737 64.0339 383.88 64.3047 383.125C64.5755 382.37 64.9661 381.732 65.4766 381.211C65.9714 380.706 66.5677 380.32 67.2656 380.055C67.9688 379.789 68.7474 379.656 69.6016 379.656C70.2266 379.656 70.849 379.732 71.4688 379.883C72.0938 380.034 72.7865 380.299 73.5469 380.68V382.516H73.4297C72.7891 381.979 72.1536 381.589 71.5234 381.344C70.8932 381.099 70.2188 380.977 69.5 380.977C68.9115 380.977 68.3802 381.073 67.9062 381.266C67.4375 381.453 67.0182 381.747 66.6484 382.148C66.2891 382.539 66.0078 383.034 65.8047 383.633C65.6068 384.227 65.5078 384.914 65.5078 385.695C65.5078 386.513 65.6172 387.216 65.8359 387.805C66.0599 388.393 66.3464 388.872 66.6953 389.242C67.0599 389.628 67.4844 389.914 67.9688 390.102C68.4583 390.284 68.974 390.375 69.5156 390.375C70.2604 390.375 70.9583 390.247 71.6094 389.992C72.2604 389.737 72.8698 389.354 73.4375 388.844H73.5469V390.656ZM82.3984 391.5H80.9375V390.57C80.8073 390.659 80.6302 390.784 80.4062 390.945C80.1875 391.102 79.974 391.227 79.7656 391.32C79.5208 391.44 79.2396 391.539 78.9219 391.617C78.6042 391.701 78.2318 391.742 77.8047 391.742C77.0182 391.742 76.3516 391.482 75.8047 390.961C75.2578 390.44 74.9844 389.776 74.9844 388.969C74.9844 388.307 75.125 387.773 75.4062 387.367C75.6927 386.956 76.099 386.633 76.625 386.398C77.1562 386.164 77.7943 386.005 78.5391 385.922C79.2839 385.839 80.0833 385.776 80.9375 385.734V385.508C80.9375 385.174 80.8776 384.898 80.7578 384.68C80.6432 384.461 80.4766 384.289 80.2578 384.164C80.0495 384.044 79.7995 383.964 79.5078 383.922C79.2161 383.88 78.9115 383.859 78.5938 383.859C78.2083 383.859 77.7786 383.911 77.3047 384.016C76.8307 384.115 76.3411 384.26 75.8359 384.453H75.7578V382.961C76.0443 382.883 76.4583 382.797 77 382.703C77.5417 382.609 78.0755 382.562 78.6016 382.562C79.2161 382.562 79.75 382.615 80.2031 382.719C80.6615 382.818 81.0573 382.99 81.3906 383.234C81.7188 383.474 81.9688 383.784 82.1406 384.164C82.3125 384.544 82.3984 385.016 82.3984 385.578V391.5ZM80.9375 389.352V386.922C80.4896 386.948 79.9609 386.987 79.3516 387.039C78.7474 387.091 78.2682 387.167 77.9141 387.266C77.4922 387.385 77.151 387.573 76.8906 387.828C76.6302 388.078 76.5 388.424 76.5 388.867C76.5 389.367 76.651 389.745 76.9531 390C77.2552 390.25 77.7161 390.375 78.3359 390.375C78.8516 390.375 79.3229 390.276 79.75 390.078C80.1771 389.875 80.5729 389.633 80.9375 389.352ZM91.6406 384.062H88.4844V391.5H87.0156V384.062H83.8594V382.773H91.6406V384.062ZM100.711 382.773L95.6172 394.719H94.0469L95.6719 391.078L92.1953 382.773H93.7891L96.4688 389.242L99.1719 382.773H100.711ZM110.18 382.773L105.086 394.719H103.516L105.141 391.078L101.664 382.773H103.258L105.938 389.242L108.641 382.773H110.18ZM124.141 384.062C124.505 384.427 124.781 384.87 124.969 385.391C125.156 385.906 125.25 386.513 125.25 387.211C125.25 388.513 124.859 389.594 124.078 390.453C123.297 391.312 122.336 391.742 121.195 391.742C120.633 391.742 120.115 391.648 119.641 391.461C119.167 391.268 118.763 390.974 118.43 390.578C118.013 390.083 117.701 389.461 117.492 388.711C117.289 387.956 117.188 387.036 117.188 385.953C117.188 385.562 117.206 385.167 117.242 384.766C117.279 384.359 117.362 383.875 117.492 383.312C117.596 382.828 117.747 382.362 117.945 381.914C118.148 381.466 118.388 381.104 118.664 380.828C119.039 380.448 119.531 380.143 120.141 379.914C120.755 379.68 121.568 379.518 122.578 379.43C122.99 379.393 123.372 379.365 123.727 379.344C124.081 379.318 124.398 379.294 124.68 379.273V380.625C124.336 380.646 123.995 380.667 123.656 380.688C123.323 380.708 122.99 380.734 122.656 380.766C121.99 380.823 121.385 380.932 120.844 381.094C120.307 381.255 119.914 381.464 119.664 381.719C119.388 381.995 119.18 382.357 119.039 382.805C118.904 383.247 118.815 383.669 118.773 384.07C119.164 383.789 119.591 383.555 120.055 383.367C120.523 383.174 121.021 383.078 121.547 383.078C122.036 383.078 122.508 383.159 122.961 383.32C123.414 383.482 123.807 383.729 124.141 384.062ZM123.758 387.297C123.758 386.333 123.526 385.615 123.062 385.141C122.599 384.661 121.987 384.422 121.227 384.422C120.773 384.422 120.339 384.495 119.922 384.641C119.505 384.781 119.109 384.971 118.734 385.211C118.724 385.341 118.714 385.495 118.703 385.672C118.698 385.844 118.695 386.003 118.695 386.148C118.695 387.055 118.771 387.789 118.922 388.352C119.073 388.914 119.286 389.362 119.562 389.695C119.802 389.977 120.062 390.177 120.344 390.297C120.625 390.411 120.927 390.469 121.25 390.469C122.036 390.469 122.651 390.185 123.094 389.617C123.536 389.049 123.758 388.276 123.758 387.297ZM134.992 387.141C134.992 388.479 134.661 389.562 134 390.391C133.281 391.292 132.271 391.742 130.969 391.742C129.661 391.742 128.648 391.292 127.93 390.391C127.268 389.568 126.938 388.484 126.938 387.141C126.938 385.797 127.268 384.711 127.93 383.883C128.648 382.982 129.661 382.531 130.969 382.531C132.276 382.531 133.289 382.982 134.008 383.883C134.664 384.711 134.992 385.797 134.992 387.141ZM133.453 386.555C133.307 384.716 132.479 383.797 130.969 383.797C129.448 383.797 128.617 384.716 128.477 386.555H133.453ZM133.461 387.68H128.469C128.531 388.503 128.753 389.156 129.133 389.641C129.565 390.198 130.177 390.477 130.969 390.477C132.49 390.477 133.32 389.544 133.461 387.68ZM144.312 391.5H142.844V384.008H139.586C139.57 384.44 139.555 384.857 139.539 385.258C139.523 385.659 139.508 386.021 139.492 386.344C139.456 387.214 139.396 387.909 139.312 388.43C139.229 388.945 139.12 389.375 138.984 389.719C138.859 390.042 138.719 390.305 138.562 390.508C138.411 390.706 138.247 390.885 138.07 391.047C137.893 391.203 137.695 391.32 137.477 391.398C137.263 391.477 137.029 391.516 136.773 391.516C136.685 391.516 136.555 391.513 136.383 391.508C136.216 391.503 136.107 391.5 136.055 391.5V390.219H136.133C136.174 390.219 136.234 390.221 136.312 390.227C136.391 390.232 136.456 390.234 136.508 390.234C136.633 390.234 136.76 390.216 136.891 390.18C137.026 390.143 137.141 390.076 137.234 389.977C137.5 389.716 137.714 389.276 137.875 388.656C138.036 388.036 138.143 387.141 138.195 385.969C138.216 385.542 138.234 385.036 138.25 384.453C138.271 383.865 138.289 383.305 138.305 382.773H144.312V391.5ZM154.758 382.773L151.188 391.062V394.719H149.719V391.062L146.242 382.773H147.836L150.516 389.242L153.219 382.773H154.758ZM164.93 391.5H163.477V384.609L161.305 389.094H160.211L158.055 384.609V391.5H156.68V382.773H158.453L160.828 387.656L163.125 382.773H164.93V391.5ZM175.367 382.773L171.797 391.062V394.719H170.328V391.062L166.852 382.773H168.445L171.125 389.242L173.828 382.773H175.367Z" fill="#333333"/>
<path d="M30 431L37.5 438.5L50 423.5" stroke="#61B857" stroke-width="2" stroke-linecap="round" stroke-linejoin="round"/>
<path d="M77.0391 431.688C77.0391 430.146 76.7031 428.974 76.0312 428.172C75.3646 427.365 74.4609 426.961 73.3203 426.961C72.1693 426.961 71.2578 427.362 70.5859 428.164C69.9141 428.966 69.5781 430.141 69.5781 431.688C69.5781 433.214 69.9141 434.383 70.5859 435.195C71.263 436.003 72.1745 436.406 73.3203 436.406C74.4609 436.406 75.3646 436.003 76.0312 435.195C76.7031 434.388 77.0391 433.219 77.0391 431.688ZM67.9844 431.875H66.1094V437.5H64.5625V425.867H66.1094V430.523H68.0547C68.2422 428.956 68.8073 427.747 69.75 426.898C70.6927 426.049 71.8802 425.625 73.3125 425.625C74.974 425.625 76.2786 426.164 77.2266 427.242C78.1745 428.315 78.6484 429.797 78.6484 431.688C78.6484 433.589 78.1693 435.073 77.2109 436.141C76.2526 437.208 74.9531 437.742 73.3125 437.742C71.7083 437.742 70.4271 437.232 69.4688 436.211C68.5156 435.185 68.0208 433.74 67.9844 431.875ZM88.6719 433.031C88.6719 433.74 88.5703 434.388 88.3672 434.977C88.1641 435.56 87.8776 436.055 87.5078 436.461C87.1641 436.846 86.7578 437.146 86.2891 437.359C85.8255 437.568 85.3333 437.672 84.8125 437.672C84.3594 437.672 83.9479 437.622 83.5781 437.523C83.2135 437.424 82.8411 437.271 82.4609 437.062V440.719H80.9922V428.773H82.4609V429.688C82.8516 429.359 83.2891 429.086 83.7734 428.867C84.263 428.643 84.7839 428.531 85.3359 428.531C86.388 428.531 87.2057 428.93 87.7891 429.727C88.3776 430.518 88.6719 431.62 88.6719 433.031ZM87.1562 433.07C87.1562 432.018 86.9766 431.232 86.6172 430.711C86.2578 430.19 85.7057 429.93 84.9609 429.93C84.5391 429.93 84.1146 430.021 83.6875 430.203C83.2604 430.385 82.8516 430.625 82.4609 430.922V435.867C82.8776 436.055 83.2344 436.182 83.5312 436.25C83.8333 436.318 84.1745 436.352 84.5547 436.352C85.3724 436.352 86.0104 436.076 86.4688 435.523C86.9271 434.971 87.1562 434.154 87.1562 433.07ZM98.3125 437.5H96.8594V430.945L92.2891 437.5H90.9609V428.773H92.4141V435.234L96.9375 428.773H98.3125V437.5ZM109.133 439.594H107.766V437.477H101.203V439.594H99.8359V436.25H100.781C101.391 435.245 101.844 434.086 102.141 432.773C102.443 431.456 102.594 430.122 102.594 428.773H108.078V436.25H109.133V439.594ZM106.609 436.25V430.008H103.977C103.909 431.315 103.708 432.508 103.375 433.586C103.042 434.664 102.659 435.552 102.227 436.25H106.609ZM118.516 437.5H117.062V430.945L112.492 437.5H111.164V428.773H112.617V435.234L117.141 428.773H118.516V437.5ZM129.289 437.5H127.367L123.742 433.5H122.945V437.5H121.477V428.773H122.945V432.539C123.43 432.539 123.82 432.453 124.117 432.281C124.414 432.104 124.667 431.823 124.875 431.438C124.948 431.297 125.018 431.148 125.086 430.992C125.159 430.831 125.229 430.677 125.297 430.531C125.568 429.943 125.906 429.503 126.312 429.211C126.719 428.919 127.302 428.773 128.062 428.773H128.734V430.039H128.086C127.674 430.039 127.352 430.128 127.117 430.305C126.888 430.477 126.68 430.781 126.492 431.219C126.284 431.708 126.062 432.076 125.828 432.32C125.599 432.56 125.354 432.742 125.094 432.867L129.289 437.5ZM137.664 437.5H136.203V436.57C136.073 436.659 135.896 436.784 135.672 436.945C135.453 437.102 135.24 437.227 135.031 437.32C134.786 437.44 134.505 437.539 134.188 437.617C133.87 437.701 133.497 437.742 133.07 437.742C132.284 437.742 131.617 437.482 131.07 436.961C130.523 436.44 130.25 435.776 130.25 434.969C130.25 434.307 130.391 433.773 130.672 433.367C130.958 432.956 131.365 432.633 131.891 432.398C132.422 432.164 133.06 432.005 133.805 431.922C134.549 431.839 135.349 431.776 136.203 431.734V431.508C136.203 431.174 136.143 430.898 136.023 430.68C135.909 430.461 135.742 430.289 135.523 430.164C135.315 430.044 135.065 429.964 134.773 429.922C134.482 429.88 134.177 429.859 133.859 429.859C133.474 429.859 133.044 429.911 132.57 430.016C132.096 430.115 131.607 430.26 131.102 430.453H131.023V428.961C131.31 428.883 131.724 428.797 132.266 428.703C132.807 428.609 133.341 428.562 133.867 428.562C134.482 428.562 135.016 428.615 135.469 428.719C135.927 428.818 136.323 428.99 136.656 429.234C136.984 429.474 137.234 429.784 137.406 430.164C137.578 430.544 137.664 431.016 137.664 431.578V437.5ZM136.203 435.352V432.922C135.755 432.948 135.227 432.987 134.617 433.039C134.013 433.091 133.534 433.167 133.18 433.266C132.758 433.385 132.417 433.573 132.156 433.828C131.896 434.078 131.766 434.424 131.766 434.867C131.766 435.367 131.917 435.745 132.219 436C132.521 436.25 132.982 436.375 133.602 436.375C134.117 436.375 134.589 436.276 135.016 436.078C135.443 435.875 135.839 435.633 136.203 435.352ZM147.531 437.5H146.062V430.008H142.805C142.789 430.44 142.773 430.857 142.758 431.258C142.742 431.659 142.727 432.021 142.711 432.344C142.674 433.214 142.615 433.909 142.531 434.43C142.448 434.945 142.339 435.375 142.203 435.719C142.078 436.042 141.938 436.305 141.781 436.508C141.63 436.706 141.466 436.885 141.289 437.047C141.112 437.203 140.914 437.32 140.695 437.398C140.482 437.477 140.247 437.516 139.992 437.516C139.904 437.516 139.773 437.513 139.602 437.508C139.435 437.503 139.326 437.5 139.273 437.5V436.219H139.352C139.393 436.219 139.453 436.221 139.531 436.227C139.609 436.232 139.674 436.234 139.727 436.234C139.852 436.234 139.979 436.216 140.109 436.18C140.245 436.143 140.359 436.076 140.453 435.977C140.719 435.716 140.932 435.276 141.094 434.656C141.255 434.036 141.362 433.141 141.414 431.969C141.435 431.542 141.453 431.036 141.469 430.453C141.49 429.865 141.508 429.305 141.523 428.773H147.531V437.5ZM155.805 434.82C155.805 434.555 155.758 434.323 155.664 434.125C155.576 433.922 155.427 433.758 155.219 433.633C155 433.503 154.75 433.424 154.469 433.398C154.193 433.372 153.794 433.359 153.273 433.359H151.898V436.328H153.242C153.763 436.328 154.167 436.307 154.453 436.266C154.74 436.219 154.987 436.133 155.195 436.008C155.409 435.872 155.562 435.714 155.656 435.531C155.755 435.344 155.805 435.107 155.805 434.82ZM157.32 434.797C157.32 435.219 157.234 435.602 157.062 435.945C156.896 436.289 156.667 436.568 156.375 436.781C156.031 437.042 155.664 437.227 155.273 437.336C154.883 437.445 154.38 437.5 153.766 437.5H150.43V428.773H151.898V432.172H153.805C154.461 432.172 154.969 432.206 155.328 432.273C155.693 432.341 156.055 432.508 156.414 432.773C156.716 432.997 156.943 433.284 157.094 433.633C157.245 433.982 157.32 434.37 157.32 434.797ZM158.781 428.773H160.25V437.5H158.781V428.773ZM171.023 437.5H169.102L165.477 433.5H164.68V437.5H163.211V428.773H164.68V432.539C165.164 432.539 165.555 432.453 165.852 432.281C166.148 432.104 166.401 431.823 166.609 431.438C166.682 431.297 166.753 431.148 166.82 430.992C166.893 430.831 166.964 430.677 167.031 430.531C167.302 429.943 167.641 429.503 168.047 429.211C168.453 428.919 169.036 428.773 169.797 428.773H170.469V430.039H169.82C169.409 430.039 169.086 430.128 168.852 430.305C168.622 430.477 168.414 430.781 168.227 431.219C168.018 431.708 167.797 432.076 167.562 432.32C167.333 432.56 167.089 432.742 166.828 432.867L171.023 437.5ZM186.117 437.5H184.195L180.57 433.5H179.773V437.5H178.305V428.773H179.773V432.539C180.258 432.539 180.648 432.453 180.945 432.281C181.242 432.104 181.495 431.823 181.703 431.438C181.776 431.297 181.846 431.148 181.914 430.992C181.987 430.831 182.057 430.677 182.125 430.531C182.396 429.943 182.734 429.503 183.141 429.211C183.547 428.919 184.13 428.773 184.891 428.773H185.562V430.039H184.914C184.503 430.039 184.18 430.128 183.945 430.305C183.716 430.477 183.508 430.781 183.32 431.219C183.112 431.708 182.891 432.076 182.656 432.32C182.427 432.56 182.182 432.742 181.922 432.867L186.117 437.5ZM195.148 433.141C195.148 434.562 194.784 435.685 194.055 436.508C193.326 437.331 192.349 437.742 191.125 437.742C189.891 437.742 188.909 437.331 188.18 436.508C187.456 435.685 187.094 434.562 187.094 433.141C187.094 431.719 187.456 430.596 188.18 429.773C188.909 428.945 189.891 428.531 191.125 428.531C192.349 428.531 193.326 428.945 194.055 429.773C194.784 430.596 195.148 431.719 195.148 433.141ZM193.633 433.141C193.633 432.01 193.411 431.172 192.969 430.625C192.526 430.073 191.911 429.797 191.125 429.797C190.328 429.797 189.708 430.073 189.266 430.625C188.828 431.172 188.609 432.01 188.609 433.141C188.609 434.234 188.831 435.065 189.273 435.633C189.716 436.195 190.333 436.477 191.125 436.477C191.906 436.477 192.518 436.198 192.961 435.641C193.409 435.078 193.633 434.245 193.633 433.141ZM204.469 437.5H203V430.008H199.742C199.727 430.44 199.711 430.857 199.695 431.258C199.68 431.659 199.664 432.021 199.648 432.344C199.612 433.214 199.552 433.909 199.469 434.43C199.385 434.945 199.276 435.375 199.141 435.719C199.016 436.042 198.875 436.305 198.719 436.508C198.568 436.706 198.404 436.885 198.227 437.047C198.049 437.203 197.852 437.32 197.633 437.398C197.419 437.477 197.185 437.516 196.93 437.516C196.841 437.516 196.711 437.513 196.539 437.508C196.372 437.503 196.263 437.5 196.211 437.5V436.219H196.289C196.331 436.219 196.391 436.221 196.469 436.227C196.547 436.232 196.612 436.234 196.664 436.234C196.789 436.234 196.917 436.216 197.047 436.18C197.182 436.143 197.297 436.076 197.391 435.977C197.656 435.716 197.87 435.276 198.031 434.656C198.193 434.036 198.299 433.141 198.352 431.969C198.372 431.542 198.391 431.036 198.406 430.453C198.427 429.865 198.445 429.305 198.461 428.773H204.469V437.5ZM215.289 439.594H213.922V437.477H207.359V439.594H205.992V436.25H206.938C207.547 435.245 208 434.086 208.297 432.773C208.599 431.456 208.75 430.122 208.75 428.773H214.234V436.25H215.289V439.594ZM212.766 436.25V430.008H210.133C210.065 431.315 209.865 432.508 209.531 433.586C209.198 434.664 208.815 435.552 208.383 436.25H212.766ZM224.758 433.141C224.758 434.562 224.393 435.685 223.664 436.508C222.935 437.331 221.958 437.742 220.734 437.742C219.5 437.742 218.518 437.331 217.789 436.508C217.065 435.685 216.703 434.562 216.703 433.141C216.703 431.719 217.065 430.596 217.789 429.773C218.518 428.945 219.5 428.531 220.734 428.531C221.958 428.531 222.935 428.945 223.664 429.773C224.393 430.596 224.758 431.719 224.758 433.141ZM223.242 433.141C223.242 432.01 223.021 431.172 222.578 430.625C222.135 430.073 221.521 429.797 220.734 429.797C219.938 429.797 219.318 430.073 218.875 430.625C218.438 431.172 218.219 432.01 218.219 433.141C218.219 434.234 218.44 435.065 218.883 435.633C219.326 436.195 219.943 436.477 220.734 436.477C221.516 436.477 222.128 436.198 222.57 435.641C223.018 435.078 223.242 434.245 223.242 433.141ZM234.477 433.141C234.477 434.562 234.112 435.685 233.383 436.508C232.654 437.331 231.677 437.742 230.453 437.742C229.219 437.742 228.237 437.331 227.508 436.508C226.784 435.685 226.422 434.562 226.422 433.141C226.422 431.719 226.784 430.596 227.508 429.773C228.237 428.945 229.219 428.531 230.453 428.531C231.677 428.531 232.654 428.945 233.383 429.773C234.112 430.596 234.477 431.719 234.477 433.141ZM232.961 433.141C232.961 432.01 232.74 431.172 232.297 430.625C231.854 430.073 231.24 429.797 230.453 429.797C229.656 429.797 229.036 430.073 228.594 430.625C228.156 431.172 227.938 432.01 227.938 433.141C227.938 434.234 228.159 435.065 228.602 435.633C229.044 436.195 229.661 436.477 230.453 436.477C231.234 436.477 231.846 436.198 232.289 435.641C232.737 435.078 232.961 434.245 232.961 433.141Z" fill="#333333"/>
<path d="M30 477L37.5 484.5L50 469.5" stroke="#61B857" stroke-width="2" stroke-linecap="round" stroke-linejoin="round"/>
<path d="M73.3438 474.398C73.3438 474.961 73.2318 475.471 73.0078 475.93C72.7891 476.388 72.4948 476.76 72.125 477.047C71.6875 477.391 71.2188 477.635 70.7188 477.781C70.2188 477.927 69.5729 478 68.7812 478H64.5625V466.367H72.3516V467.742H66.1094V470.93H68.8281C69.6198 470.93 70.2656 470.977 70.7656 471.07C71.2656 471.159 71.737 471.375 72.1797 471.719C72.5755 472.026 72.8672 472.406 73.0547 472.859C73.2474 473.312 73.3438 473.826 73.3438 474.398ZM71.7266 474.43C71.7266 474.039 71.6615 473.695 71.5312 473.398C71.401 473.102 71.1979 472.862 70.9219 472.68C70.6354 472.487 70.3047 472.37 69.9297 472.328C69.5547 472.286 69.026 472.266 68.3438 472.266H66.1094V476.68H68.3047C68.9974 476.68 69.5286 476.646 69.8984 476.578C70.2734 476.51 70.6016 476.38 70.8828 476.188C71.1745 475.984 71.388 475.747 71.5234 475.477C71.6589 475.201 71.7266 474.852 71.7266 474.43ZM82.1953 478H80.7344V477.07C80.6042 477.159 80.4271 477.284 80.2031 477.445C79.9844 477.602 79.7708 477.727 79.5625 477.82C79.3177 477.94 79.0365 478.039 78.7188 478.117C78.401 478.201 78.0286 478.242 77.6016 478.242C76.8151 478.242 76.1484 477.982 75.6016 477.461C75.0547 476.94 74.7812 476.276 74.7812 475.469C74.7812 474.807 74.9219 474.273 75.2031 473.867C75.4896 473.456 75.8958 473.133 76.4219 472.898C76.9531 472.664 77.5911 472.505 78.3359 472.422C79.0807 472.339 79.8802 472.276 80.7344 472.234V472.008C80.7344 471.674 80.6745 471.398 80.5547 471.18C80.4401 470.961 80.2734 470.789 80.0547 470.664C79.8464 470.544 79.5964 470.464 79.3047 470.422C79.013 470.38 78.7083 470.359 78.3906 470.359C78.0052 470.359 77.5755 470.411 77.1016 470.516C76.6276 470.615 76.138 470.76 75.6328 470.953H75.5547V469.461C75.8411 469.383 76.2552 469.297 76.7969 469.203C77.3385 469.109 77.8724 469.062 78.3984 469.062C79.013 469.062 79.5469 469.115 80 469.219C80.4583 469.318 80.8542 469.49 81.1875 469.734C81.5156 469.974 81.7656 470.284 81.9375 470.664C82.1094 471.044 82.1953 471.516 82.1953 472.078V478ZM80.7344 475.852V473.422C80.2865 473.448 79.7578 473.487 79.1484 473.539C78.5443 473.591 78.0651 473.667 77.7109 473.766C77.2891 473.885 76.9479 474.073 76.6875 474.328C76.4271 474.578 76.2969 474.924 76.2969 475.367C76.2969 475.867 76.4479 476.245 76.75 476.5C77.0521 476.75 77.513 476.875 78.1328 476.875C78.6484 476.875 79.1198 476.776 79.5469 476.578C79.974 476.375 80.3698 476.133 80.7344 475.852ZM95.9688 478H94.1953L91.3984 474.016H90.6875V478H89.2344V474.016H88.6016L85.6797 478H83.9844L87.3516 473.43C87.0964 473.294 86.8698 473.102 86.6719 472.852C86.4792 472.602 86.3021 472.224 86.1406 471.719C86 471.276 85.8333 470.969 85.6406 470.797C85.4479 470.625 85.1328 470.539 84.6953 470.539H84.2812V469.273H84.8203C85.4661 469.273 85.9844 469.404 86.375 469.664C86.7656 469.924 87.0781 470.38 87.3125 471.031C87.3594 471.167 87.4167 471.323 87.4844 471.5C87.5573 471.672 87.6198 471.818 87.6719 471.938C87.8438 472.333 88.0625 472.615 88.3281 472.781C88.599 472.943 88.901 473.034 89.2344 473.055V469.273H90.6875V473.055C91.0208 473.034 91.3229 472.94 91.5938 472.773C91.8698 472.607 92.0938 472.328 92.2656 471.938C92.3229 471.807 92.3854 471.656 92.4531 471.484C92.526 471.312 92.5833 471.161 92.625 471.031C92.8542 470.391 93.1615 469.938 93.5469 469.672C93.9323 469.406 94.4505 469.273 95.1016 469.273H95.6406V470.539H95.2266C94.7839 470.539 94.4635 470.63 94.2656 470.812C94.0729 470.995 93.9115 471.297 93.7812 471.719C93.6354 472.182 93.4609 472.544 93.2578 472.805C93.0599 473.06 92.8438 473.253 92.6094 473.383L95.9688 478ZM103.164 475.32C103.164 475.055 103.117 474.823 103.023 474.625C102.935 474.422 102.786 474.258 102.578 474.133C102.359 474.003 102.109 473.924 101.828 473.898C101.552 473.872 101.154 473.859 100.633 473.859H99.2578V476.828H100.602C101.122 476.828 101.526 476.807 101.812 476.766C102.099 476.719 102.346 476.633 102.555 476.508C102.768 476.372 102.922 476.214 103.016 476.031C103.115 475.844 103.164 475.607 103.164 475.32ZM104.68 475.297C104.68 475.719 104.594 476.102 104.422 476.445C104.255 476.789 104.026 477.068 103.734 477.281C103.391 477.542 103.023 477.727 102.633 477.836C102.242 477.945 101.74 478 101.125 478H97.7891V469.273H99.2578V472.672H101.164C101.82 472.672 102.328 472.706 102.688 472.773C103.052 472.841 103.414 473.008 103.773 473.273C104.076 473.497 104.302 473.784 104.453 474.133C104.604 474.482 104.68 474.87 104.68 475.297ZM106.141 469.273H107.609V478H106.141V469.273ZM123.445 467.656C123.945 468.156 124.331 468.776 124.602 469.516C124.872 470.255 125.008 471.13 125.008 472.141C125.008 473.036 124.87 473.862 124.594 474.617C124.323 475.367 123.93 476.01 123.414 476.547C122.883 477.099 122.26 477.516 121.547 477.797C120.839 478.073 120.06 478.211 119.211 478.211C118.477 478.211 117.779 478.141 117.117 478C116.456 477.859 115.898 477.693 115.445 477.5V475.789H115.57C115.992 476.128 116.523 476.398 117.164 476.602C117.81 476.799 118.5 476.898 119.234 476.898C119.875 476.898 120.461 476.786 120.992 476.562C121.523 476.333 121.966 476.023 122.32 475.633C122.695 475.216 122.977 474.747 123.164 474.227C123.357 473.701 123.453 473.104 123.453 472.438H117.102V471.086H123.375C123.302 470.466 123.146 469.93 122.906 469.477C122.667 469.018 122.362 468.641 121.992 468.344C121.622 468.047 121.203 467.828 120.734 467.688C120.266 467.542 119.766 467.469 119.234 467.469C118.521 467.469 117.852 467.57 117.227 467.773C116.602 467.971 116.062 468.245 115.609 468.594H115.477V466.875C115.961 466.672 116.534 466.503 117.195 466.367C117.857 466.227 118.534 466.156 119.227 466.156C120.122 466.156 120.922 466.281 121.625 466.531C122.333 466.781 122.94 467.156 123.445 467.656ZM135.227 478H133.305L129.68 474H128.883V478H127.414V469.273H128.883V473.039C129.367 473.039 129.758 472.953 130.055 472.781C130.352 472.604 130.604 472.323 130.812 471.938C130.885 471.797 130.956 471.648 131.023 471.492C131.096 471.331 131.167 471.177 131.234 471.031C131.505 470.443 131.844 470.003 132.25 469.711C132.656 469.419 133.24 469.273 134 469.273H134.672V470.539H134.023C133.612 470.539 133.289 470.628 133.055 470.805C132.826 470.977 132.617 471.281 132.43 471.719C132.221 472.208 132 472.576 131.766 472.82C131.536 473.06 131.292 473.242 131.031 473.367L135.227 478ZM143.352 477.453C142.753 477.734 142.237 477.927 141.805 478.031C141.378 478.141 140.951 478.195 140.523 478.195C139.888 478.195 139.305 478.104 138.773 477.922C138.242 477.734 137.786 477.453 137.406 477.078C137.026 476.703 136.729 476.229 136.516 475.656C136.307 475.083 136.203 474.414 136.203 473.648C136.203 472.258 136.589 471.148 137.359 470.32C138.13 469.487 139.185 469.07 140.523 469.07C141.029 469.07 141.523 469.141 142.008 469.281C142.497 469.422 142.945 469.594 143.352 469.797V471.43H143.266C142.781 471.06 142.302 470.786 141.828 470.609C141.359 470.432 140.904 470.344 140.461 470.344C139.591 470.344 138.917 470.635 138.438 471.219C137.964 471.802 137.727 472.612 137.727 473.648C137.727 474.685 137.964 475.49 138.438 476.062C138.911 476.635 139.586 476.922 140.461 476.922C140.768 476.922 141.073 476.883 141.375 476.805C141.682 476.727 141.961 476.625 142.211 476.5C142.409 476.401 142.612 476.284 142.82 476.148C143.034 476.008 143.182 475.904 143.266 475.836H143.352V477.453ZM152.672 478H151.203V470.539H146.836V478H145.367V469.273H152.672V478ZM162.875 473.789H156.445C156.445 474.326 156.526 474.794 156.688 475.195C156.849 475.591 157.07 475.917 157.352 476.172C157.622 476.422 157.943 476.609 158.312 476.734C158.688 476.859 159.099 476.922 159.547 476.922C160.141 476.922 160.737 476.805 161.336 476.57C161.94 476.331 162.37 476.096 162.625 475.867H162.703V477.469C162.208 477.677 161.703 477.852 161.188 477.992C160.672 478.133 160.13 478.203 159.562 478.203C158.115 478.203 156.984 477.812 156.172 477.031C155.359 476.245 154.953 475.13 154.953 473.688C154.953 472.26 155.341 471.128 156.117 470.289C156.898 469.451 157.924 469.031 159.195 469.031C160.372 469.031 161.279 469.375 161.914 470.062C162.555 470.75 162.875 471.727 162.875 472.992V473.789ZM161.445 472.664C161.44 471.893 161.245 471.297 160.859 470.875C160.479 470.453 159.898 470.242 159.117 470.242C158.331 470.242 157.703 470.474 157.234 470.938C156.771 471.401 156.508 471.977 156.445 472.664H161.445ZM172.781 473.531C172.781 474.24 172.68 474.888 172.477 475.477C172.273 476.06 171.987 476.555 171.617 476.961C171.273 477.346 170.867 477.646 170.398 477.859C169.935 478.068 169.443 478.172 168.922 478.172C168.469 478.172 168.057 478.122 167.688 478.023C167.323 477.924 166.951 477.771 166.57 477.562V481.219H165.102V469.273H166.57V470.188C166.961 469.859 167.398 469.586 167.883 469.367C168.372 469.143 168.893 469.031 169.445 469.031C170.497 469.031 171.315 469.43 171.898 470.227C172.487 471.018 172.781 472.12 172.781 473.531ZM171.266 473.57C171.266 472.518 171.086 471.732 170.727 471.211C170.367 470.69 169.815 470.43 169.07 470.43C168.648 470.43 168.224 470.521 167.797 470.703C167.37 470.885 166.961 471.125 166.57 471.422V476.367C166.987 476.555 167.344 476.682 167.641 476.75C167.943 476.818 168.284 476.852 168.664 476.852C169.482 476.852 170.12 476.576 170.578 476.023C171.036 475.471 171.266 474.654 171.266 473.57ZM181.484 470.562H178.328V478H176.859V470.562H173.703V469.273H181.484V470.562ZM189.422 470.562H186.266V478H184.797V470.562H181.641V469.273H189.422V470.562ZM198.25 473.789H191.82C191.82 474.326 191.901 474.794 192.062 475.195C192.224 475.591 192.445 475.917 192.727 476.172C192.997 476.422 193.318 476.609 193.688 476.734C194.062 476.859 194.474 476.922 194.922 476.922C195.516 476.922 196.112 476.805 196.711 476.57C197.315 476.331 197.745 476.096 198 475.867H198.078V477.469C197.583 477.677 197.078 477.852 196.562 477.992C196.047 478.133 195.505 478.203 194.938 478.203C193.49 478.203 192.359 477.812 191.547 477.031C190.734 476.245 190.328 475.13 190.328 473.688C190.328 472.26 190.716 471.128 191.492 470.289C192.273 469.451 193.299 469.031 194.57 469.031C195.747 469.031 196.654 469.375 197.289 470.062C197.93 470.75 198.25 471.727 198.25 472.992V473.789ZM196.82 472.664C196.815 471.893 196.62 471.297 196.234 470.875C195.854 470.453 195.273 470.242 194.492 470.242C193.706 470.242 193.078 470.474 192.609 470.938C192.146 471.401 191.883 471.977 191.82 472.664H196.82ZM208.156 473.531C208.156 474.24 208.055 474.888 207.852 475.477C207.648 476.06 207.362 476.555 206.992 476.961C206.648 477.346 206.242 477.646 205.773 477.859C205.31 478.068 204.818 478.172 204.297 478.172C203.844 478.172 203.432 478.122 203.062 478.023C202.698 477.924 202.326 477.771 201.945 477.562V481.219H200.477V469.273H201.945V470.188C202.336 469.859 202.773 469.586 203.258 469.367C203.747 469.143 204.268 469.031 204.82 469.031C205.872 469.031 206.69 469.43 207.273 470.227C207.862 471.018 208.156 472.12 208.156 473.531ZM206.641 473.57C206.641 472.518 206.461 471.732 206.102 471.211C205.742 470.69 205.19 470.43 204.445 470.43C204.023 470.43 203.599 470.521 203.172 470.703C202.745 470.885 202.336 471.125 201.945 471.422V476.367C202.362 476.555 202.719 476.682 203.016 476.75C203.318 476.818 203.659 476.852 204.039 476.852C204.857 476.852 205.495 476.576 205.953 476.023C206.411 475.471 206.641 474.654 206.641 473.57ZM217.797 478H216.344V471.445L211.773 478H210.445V469.273H211.898V475.734L216.422 469.273H217.797V478ZM228 478H226.531V474.07H222.164V478H220.695V469.273H222.164V472.805H226.531V469.273H228V478ZM238.25 478H236.797V471.445L232.227 478H230.898V469.273H232.352V475.734L236.875 469.273H238.25V478ZM248.453 478H246.984V474.07H242.617V478H241.148V469.273H242.617V472.805H246.984V469.273H248.453V478ZM73.9141 497H71.9297L67.2031 491.695H66.1484V497H64.6016V485.367H66.1484V490.586C66.4141 490.581 66.6641 490.555 66.8984 490.508C67.1328 490.461 67.3542 490.372 67.5625 490.242C67.7708 490.122 67.9766 489.953 68.1797 489.734C68.3828 489.51 68.5625 489.237 68.7188 488.914C68.7865 488.773 68.8646 488.596 68.9531 488.383C69.0469 488.169 69.1406 487.945 69.2344 487.711C69.5938 486.846 70.013 486.24 70.4922 485.891C70.9766 485.542 71.6875 485.367 72.625 485.367H73.2422V486.75H72.5938C72.2344 486.75 71.9531 486.784 71.75 486.852C71.5469 486.914 71.3646 487.021 71.2031 487.172C71.0521 487.307 70.9193 487.49 70.8047 487.719C70.6953 487.948 70.5807 488.216 70.4609 488.523C70.1901 489.211 69.9141 489.716 69.6328 490.039C69.3568 490.362 68.9844 490.643 68.5156 490.883L73.9141 497ZM83.0859 488.273L77.9922 500.219H76.4219L78.0469 496.578L74.5703 488.273H76.1641L78.8438 494.742L81.5469 488.273H83.0859ZM92.6875 492.531C92.6875 493.24 92.5859 493.888 92.3828 494.477C92.1797 495.06 91.8932 495.555 91.5234 495.961C91.1797 496.346 90.7734 496.646 90.3047 496.859C89.8411 497.068 89.349 497.172 88.8281 497.172C88.375 497.172 87.9635 497.122 87.5938 497.023C87.2292 496.924 86.8568 496.771 86.4766 496.562V500.219H85.0078V488.273H86.4766V489.188C86.8672 488.859 87.3047 488.586 87.7891 488.367C88.2786 488.143 88.7995 488.031 89.3516 488.031C90.4036 488.031 91.2214 488.43 91.8047 489.227C92.3932 490.018 92.6875 491.12 92.6875 492.531ZM91.1719 492.57C91.1719 491.518 90.9922 490.732 90.6328 490.211C90.2734 489.69 89.7214 489.43 88.9766 489.43C88.5547 489.43 88.1302 489.521 87.7031 489.703C87.276 489.885 86.8672 490.125 86.4766 490.422V495.367C86.8932 495.555 87.25 495.682 87.5469 495.75C87.849 495.818 88.1901 495.852 88.5703 495.852C89.388 495.852 90.026 495.576 90.4844 495.023C90.9427 494.471 91.1719 493.654 91.1719 492.57ZM101.508 496.453C100.909 496.734 100.393 496.927 99.9609 497.031C99.5339 497.141 99.1068 497.195 98.6797 497.195C98.0443 497.195 97.4609 497.104 96.9297 496.922C96.3984 496.734 95.9427 496.453 95.5625 496.078C95.1823 495.703 94.8854 495.229 94.6719 494.656C94.4635 494.083 94.3594 493.414 94.3594 492.648C94.3594 491.258 94.7448 490.148 95.5156 489.32C96.2865 488.487 97.3411 488.07 98.6797 488.07C99.1849 488.07 99.6797 488.141 100.164 488.281C100.654 488.422 101.102 488.594 101.508 488.797V490.43H101.422C100.938 490.06 100.458 489.786 99.9844 489.609C99.5156 489.432 99.0599 489.344 98.6172 489.344C97.7474 489.344 97.0729 489.635 96.5938 490.219C96.1198 490.802 95.8828 491.612 95.8828 492.648C95.8828 493.685 96.1198 494.49 96.5938 495.062C97.0677 495.635 97.7422 495.922 98.6172 495.922C98.9245 495.922 99.2292 495.883 99.5312 495.805C99.8385 495.727 100.117 495.625 100.367 495.5C100.565 495.401 100.768 495.284 100.977 495.148C101.19 495.008 101.339 494.904 101.422 494.836H101.508V496.453ZM111.07 488.273L105.977 500.219H104.406L106.031 496.578L102.555 488.273H104.148L106.828 494.742L109.531 488.273H111.07Z" fill="#333333"/>
</g>
<defs>
<filter id="filter0_d_1763_11036" x="0" y="0" width="326" height="541" filterUnits="userSpaceOnUse" color-interpolation-filters="sRGB">
<feFlood flood-opacity="0" result="BackgroundImageFix"/>
<feColorMatrix in="SourceAlpha" type="matrix" values="0 0 0 0 0 0 0 0 0 0 0 0 0 0 0 0 0 0 127 0" result="hardAlpha"/>
<feOffset dx="3" dy="5"/>
<feGaussianBlur stdDeviation="10"/>
<feComposite in2="hardAlpha" operator="out"/>
<feColorMatrix type="matrix" values="0 0 0 0 0.2 0 0 0 0 0.2 0 0 0 0 0.2 0 0 0 0.1 0"/>
<feBlend mode="normal" in2="BackgroundImageFix" result="effect1_dropShadow_1763_11036"/>
<feBlend mode="normal" in="SourceGraphic" in2="effect1_dropShadow_1763_11036" result="shape"/>
</filter>
<filter id="filter1_d_1763_11036" x="22" y="28" width="112" height="112" filterUnits="userSpaceOnUse" color-interpolation-filters="sRGB">
<feFlood flood-opacity="0" result="BackgroundImageFix"/>
<feColorMatrix in="SourceAlpha" type="matrix" values="0 0 0 0 0 0 0 0 0 0 0 0 0 0 0 0 0 0 127 0" result="hardAlpha"/>
<feOffset dx="3" dy="3"/>
<feGaussianBlur stdDeviation="3"/>
<feComposite in2="hardAlpha" operator="out"/>
<feColorMatrix type="matrix" values="0 0 0 0 0.2 0 0 0 0 0.2 0 0 0 0 0.2 0 0 0 0.25 0"/>
<feBlend mode="normal" in2="BackgroundImageFix" result="effect1_dropShadow_1763_11036"/>
<feBlend mode="normal" in="SourceGraphic" in2="effect1_dropShadow_1763_11036" result="shape"/>
</filter>
</defs>
</svg>
