<svg width="90" height="90" viewBox="0 0 90 90" fill="none" xmlns="http://www.w3.org/2000/svg">
<rect opacity="0.8" width="90" height="90" rx="5" fill="#1959AB"/>
<g clip-path="url(#clip0_291_6173)">
<path d="M70 45C70 31.193 58.807 20 45 20C31.193 20 20 31.1928 20 45C20 57.4781 29.1422 67.8209 41.0938 69.6963V52.2266H34.7461V45H41.0938V39.4922C41.0938 33.2266 44.8262 29.7656 50.5365 29.7656C53.2719 29.7656 56.1328 30.2539 56.1328 30.2539V36.4063H52.9805C49.8746 36.4063 48.9062 38.3334 48.9062 40.3105V45H55.8398L54.7314 52.2266H48.9062V69.6963C60.8578 67.8209 70 57.4783 70 45Z" fill="#1877F2"/>
<path d="M54.7314 52.2266L55.8398 45H48.9062V40.3105C48.9062 38.3332 49.8748 36.4062 52.9805 36.4062H56.1328V30.2539C56.1328 30.2539 53.2719 29.7656 50.5365 29.7656C44.8262 29.7656 41.0938 33.2266 41.0938 39.4922V45H34.7461V52.2266H41.0938V69.6963C42.386 69.8988 43.692 70.0003 45 70C46.308 70.0004 47.614 69.8988 48.9062 69.6963V52.2266H54.7314Z" fill="white"/>
</g>
<defs>
<clipPath id="clip0_291_6173">
<rect width="50" height="50" fill="white" transform="translate(20 20)"/>
</clipPath>
</defs>
</svg>
