<svg width="90" height="90" viewBox="0 0 90 90" fill="none" xmlns="http://www.w3.org/2000/svg">
<rect opacity="0.8" width="90" height="90" rx="5" fill="#1959AB"/>
<path d="M45 70C58.8071 70 70 58.8071 70 45C70 31.1929 58.8071 20 45 20C31.1929 20 20 31.1929 20 45C20 58.8071 31.1929 70 45 70Z" fill="#25D366"/>
<path fill-rule="evenodd" clip-rule="evenodd" d="M45.8232 58.9087H45.8171C43.3291 58.9079 40.8844 58.2836 38.7131 57.0993L30.8325 59.1665L32.9415 51.4632C31.6406 49.2087 30.956 46.6514 30.9572 44.0313C30.9604 35.8349 37.6292 29.1665 45.8231 29.1665C49.7999 29.1682 53.5323 30.7164 56.339 33.5263C59.1456 36.3361 60.6905 40.071 60.6889 44.0431C60.6856 52.2376 54.0195 58.9054 45.8232 58.9087ZM39.0782 54.408L39.5294 54.6758C41.4265 55.8016 43.6011 56.3973 45.8182 56.3981H45.8232C52.6334 56.3981 58.1762 50.8552 58.1789 44.0422C58.1802 40.7407 56.8962 37.6364 54.5634 35.3009C52.2306 32.9653 49.1283 31.6785 45.8281 31.6774C39.0127 31.6774 33.4698 37.2197 33.4671 44.0322C33.4661 46.3669 34.1194 48.6406 35.3562 50.6078L35.65 51.0753L34.4018 55.6348L39.0782 54.408ZM52.8033 47.2436C53.0624 47.3688 53.2373 47.4534 53.312 47.5781C53.4049 47.733 53.4049 48.4767 53.0955 49.3445C52.7858 50.2121 51.3019 51.004 50.5882 51.1106C49.9483 51.2063 49.1384 51.2462 48.2487 50.9634C47.7092 50.7922 47.0173 50.5637 46.1311 50.1809C42.6489 48.6773 40.2956 45.3023 39.8509 44.6644C39.8197 44.6197 39.7979 44.5885 39.7857 44.5723L39.7828 44.5683C39.5862 44.306 38.269 42.5486 38.269 40.7298C38.269 39.0188 39.1095 38.122 39.4964 37.7092C39.5229 37.6809 39.5472 37.6549 39.5691 37.6311C39.9095 37.2592 40.312 37.1662 40.5596 37.1662C40.8072 37.1662 41.0551 37.1685 41.2715 37.1794C41.2982 37.1807 41.326 37.1806 41.3547 37.1804C41.5712 37.1791 41.841 37.1775 42.1072 37.817C42.2097 38.0631 42.3595 38.4279 42.5176 38.8127C42.8372 39.5909 43.1903 40.4506 43.2525 40.575C43.3453 40.761 43.4072 40.9778 43.2834 41.2258C43.2648 41.263 43.2477 41.2981 43.2312 41.3316C43.1382 41.5215 43.0698 41.6611 42.912 41.8454C42.8499 41.9179 42.7858 41.996 42.7217 42.0741C42.5939 42.2297 42.4661 42.3853 42.3548 42.4962C42.1689 42.6814 41.9753 42.8824 42.192 43.2542C42.4086 43.6261 43.1541 44.8424 44.2583 45.8274C45.4453 46.8862 46.477 47.3337 46.9999 47.5605C47.1021 47.6048 47.1848 47.6407 47.2455 47.671C47.6168 47.857 47.8335 47.8259 48.0501 47.5781C48.2668 47.3302 48.9787 46.4934 49.2263 46.1216C49.4738 45.7499 49.7216 45.8118 50.062 45.9357C50.4025 46.0598 52.2287 46.9583 52.6002 47.1442C52.6727 47.1805 52.7405 47.2133 52.8033 47.2436Z" fill="#FDFDFD"/>
</svg>
