<svg width="40" height="40" viewBox="0 0 40 40" fill="none" xmlns="http://www.w3.org/2000/svg">
<g clip-path="url(#clip0_498_1792)">
<path d="M20 40.0781C8.956 40.0781 0 31.1221 0 20.0781C0 9.03412 8.956 0.078125 20 0.078125C31.044 0.078125 40 9.03412 40 20.0781C40 31.1221 31.044 40.0781 20 40.0781Z" fill="url(#paint0_linear_498_1792)"/>
<path d="M20.0773 8.92988C23.707 8.92988 24.1373 8.94184 25.5717 9.00957C26.8985 9.06934 27.6197 9.29246 28.0978 9.47973C28.7313 9.72676 29.1855 10.0216 29.6597 10.4957C30.1338 10.9699 30.4287 11.4241 30.6757 12.0576C30.863 12.5357 31.0821 13.2569 31.1459 14.5837C31.2096 16.0181 31.2255 16.4484 31.2255 20.0782C31.2255 23.7079 31.2136 24.1382 31.1459 25.5726C31.0861 26.8994 30.863 27.6206 30.6757 28.0987C30.4287 28.7322 30.1338 29.1864 29.6597 29.6606C29.1855 30.1347 28.7313 30.4296 28.0978 30.6766C27.6197 30.8639 26.8985 31.083 25.5717 31.1468C24.1373 31.2105 23.707 31.2264 20.0773 31.2264C16.4475 31.2264 16.0172 31.2145 14.5828 31.1468C13.256 31.087 12.5348 30.8639 12.0567 30.6766C11.4232 30.4296 10.969 30.1347 10.4948 29.6606C10.0207 29.1864 9.72586 28.7322 9.47883 28.0987C9.29156 27.6206 9.07242 26.8994 9.00867 25.5726C8.94492 24.1382 8.92898 23.7079 8.92898 20.0782C8.92898 16.4484 8.94094 16.0181 9.00867 14.5837C9.06844 13.2569 9.29156 12.5357 9.47883 12.0576C9.72586 11.4241 10.0207 10.9699 10.4948 10.4957C10.969 10.0216 11.4232 9.72676 12.0567 9.47973C12.5348 9.29246 13.256 9.07332 14.5828 9.00957C16.0172 8.94184 16.4475 8.92988 20.0773 8.92988ZM20.0773 6.47949C16.3838 6.47949 15.9216 6.49543 14.4713 6.56316C13.0249 6.6309 12.0368 6.85801 11.1682 7.19668C10.2757 7.53934 9.51469 8.00551 8.76164 8.76254C8.00461 9.51957 7.54242 10.2766 7.1918 11.1731C6.85711 12.0377 6.62602 13.0258 6.55828 14.4761C6.49055 15.9264 6.47461 16.3886 6.47461 20.0822C6.47461 23.7757 6.49055 24.2379 6.55828 25.6882C6.62602 27.1345 6.85313 28.1226 7.1918 28.9912C7.53844 29.8797 8.00461 30.6407 8.76164 31.3938C9.51867 32.1508 10.2757 32.613 11.1722 32.9636C12.0368 33.2983 13.0249 33.5294 14.4752 33.5972C15.9255 33.6649 16.3877 33.6808 20.0813 33.6808C23.7748 33.6808 24.237 33.6649 25.6873 33.5972C27.1336 33.5294 28.1217 33.3023 28.9903 32.9636C29.8788 32.617 30.6398 32.1508 31.3929 31.3938C32.1499 30.6368 32.6121 29.8797 32.9627 28.9832C33.2974 28.1186 33.5285 27.1305 33.5963 25.6802C33.664 24.2299 33.6799 23.7677 33.6799 20.0742C33.6799 16.3807 33.664 15.9185 33.5963 14.4682C33.5285 13.0218 33.3014 12.0337 32.9627 11.1651C32.6161 10.2766 32.1499 9.51559 31.3929 8.76254C30.6359 8.00551 29.8788 7.54332 28.9823 7.1927C28.1177 6.85801 27.1296 6.62691 25.6793 6.55918C24.233 6.49543 23.7708 6.47949 20.0773 6.47949Z" fill="white"/>
<path d="M20.0784 13.0938C16.2215 13.0938 13.0938 16.2215 13.0938 20.0784C13.0938 23.9352 16.2215 27.063 20.0784 27.063C23.9352 27.063 27.063 23.9352 27.063 20.0784C27.063 16.2215 23.9352 13.0938 20.0784 13.0938ZM20.0784 24.6126C17.5762 24.6126 15.5441 22.5845 15.5441 20.0784C15.5441 17.5722 17.5762 15.5441 20.0784 15.5441C22.5805 15.5441 24.6126 17.5722 24.6126 20.0784C24.6126 22.5845 22.5805 24.6126 20.0784 24.6126Z" fill="white"/>
<path d="M27.3367 14.4522C28.2389 14.4522 28.9703 13.7209 28.9703 12.8187C28.9703 11.9164 28.2389 11.1851 27.3367 11.1851C26.4345 11.1851 25.7031 11.9164 25.7031 12.8187C25.7031 13.7209 26.4345 14.4522 27.3367 14.4522Z" fill="white"/>
</g>
<defs>
<linearGradient id="paint0_linear_498_1792" x1="5.85786" y1="34.2203" x2="34.1421" y2="5.93598" gradientUnits="userSpaceOnUse">
<stop stop-color="#FFD521"/>
<stop offset="0.0551048" stop-color="#FFD020"/>
<stop offset="0.1241" stop-color="#FEC01E"/>
<stop offset="0.2004" stop-color="#FCA71B"/>
<stop offset="0.2821" stop-color="#FA8316"/>
<stop offset="0.3681" stop-color="#F85510"/>
<stop offset="0.4563" stop-color="#F51E09"/>
<stop offset="0.5" stop-color="#F30005"/>
<stop offset="0.5035" stop-color="#F20007"/>
<stop offset="0.5966" stop-color="#E1003B"/>
<stop offset="0.6879" stop-color="#D30067"/>
<stop offset="0.7757" stop-color="#C70088"/>
<stop offset="0.8589" stop-color="#BF00A0"/>
<stop offset="0.9357" stop-color="#BB00AF"/>
<stop offset="1" stop-color="#B900B4"/>
</linearGradient>
<clipPath id="clip0_498_1792">
<rect width="40" height="40" fill="white"/>
</clipPath>
</defs>
</svg>
