<svg width="40" height="40" viewBox="0 0 40 40" fill="none" xmlns="http://www.w3.org/2000/svg">
<g clip-path="url(#clip0_498_1801)">
<path d="M20 0C14.6969 0 9.60625 2.10844 5.85938 5.85781C2.10863 9.60868 0.00103897 14.6956 0 20C0 25.3022 2.10938 30.3928 5.85938 34.1422C9.60625 37.8916 14.6969 40 20 40C25.3031 40 30.3937 37.8916 34.1406 34.1422C37.8906 30.3928 40 25.3022 40 20C40 14.6978 37.8906 9.60719 34.1406 5.85781C30.3937 2.10844 25.3031 0 20 0Z" fill="url(#paint0_linear_498_1801)"/>
<path d="M9.0534 19.7886C14.8846 17.2486 18.7721 15.5739 20.7159 14.7648C26.2721 12.4545 27.4253 12.0533 28.1784 12.0397C28.344 12.037 28.7128 12.078 28.9534 12.2725C29.1534 12.4365 29.2096 12.6584 29.2378 12.8142C29.2628 12.9698 29.2971 13.3245 29.269 13.6014C28.969 16.7639 27.6659 24.4383 27.0034 27.9805C26.7253 29.4792 26.1721 29.9817 25.6378 30.0308C24.4753 30.1376 23.594 29.2633 22.469 28.5261C20.7096 27.372 19.7159 26.6539 18.0065 25.528C16.0315 24.2267 17.3128 23.5114 18.4378 22.3426C18.7315 22.0367 23.8503 17.382 23.9471 16.9598C23.9596 16.907 23.9721 16.7101 23.8534 16.6064C23.7378 16.5023 23.5659 16.538 23.4409 16.5661C23.2628 16.6061 20.4534 18.4648 15.0034 22.142C14.2065 22.6901 13.4846 22.9573 12.8346 22.9433C12.1221 22.9279 10.7471 22.5395 9.72527 22.2076C8.47527 21.8005 7.4784 21.5851 7.5659 20.8936C7.60965 20.5336 8.10652 20.1651 9.0534 19.7886Z" fill="white"/>
</g>
<defs>
<linearGradient id="paint0_linear_498_1801" x1="20" y1="0" x2="20" y2="40" gradientUnits="userSpaceOnUse">
<stop stop-color="#2AABEE"/>
<stop offset="1" stop-color="#229ED9"/>
</linearGradient>
<clipPath id="clip0_498_1801">
<rect width="40" height="40" fill="white"/>
</clipPath>
</defs>
</svg>
