<svg width="40" height="40" viewBox="0 0 40 40" fill="none" xmlns="http://www.w3.org/2000/svg">
<path d="M20 40C31.0457 40 40 31.0457 40 20C40 8.9543 31.0457 0 20 0C8.9543 0 0 8.9543 0 20C0 31.0457 8.9543 40 20 40Z" fill="#25D366"/>
<path fill-rule="evenodd" clip-rule="evenodd" d="M20.6586 31.1273H20.6537C18.6633 31.1266 16.7075 30.6272 14.9705 29.6797L8.66602 31.3335L10.3532 25.1709C9.31246 23.3673 8.76483 21.3214 8.76572 19.2254C8.76833 12.6682 14.1034 7.3335 20.6585 7.3335C23.8399 7.33487 26.8259 8.57338 29.0712 10.8213C31.3165 13.0692 32.5524 16.0571 32.5511 19.2347C32.5485 25.7904 27.2156 31.1246 20.6586 31.1273ZM15.2626 27.5267L15.6235 27.741C17.1412 28.6416 18.8808 29.1181 20.6546 29.1188H20.6586C26.1067 29.1188 30.541 24.6844 30.5431 19.2341C30.5442 16.5928 29.517 14.1094 27.6507 12.241C25.7845 10.3726 23.3027 9.34311 20.6625 9.34219C15.2101 9.34219 10.7758 13.7761 10.7737 19.2261C10.7729 21.0938 11.2955 22.9128 12.285 24.4865L12.52 24.8605L11.5214 28.5081L15.2626 27.5267ZM26.243 21.7952C26.4503 21.8954 26.5902 21.963 26.65 22.0628C26.7243 22.1867 26.7243 22.7816 26.4768 23.4759C26.229 24.17 25.0419 24.8035 24.4709 24.8888C23.959 24.9653 23.3111 24.9972 22.5993 24.771C22.1677 24.6341 21.6142 24.4512 20.9053 24.1451C18.1195 22.9422 16.2369 20.2422 15.8811 19.7319C15.8561 19.6961 15.8387 19.6711 15.829 19.6581L15.8266 19.6549C15.6693 19.4451 14.6156 18.0392 14.6156 16.5841C14.6156 15.2154 15.288 14.4979 15.5975 14.1677C15.6187 14.145 15.6382 14.1242 15.6556 14.1052C15.928 13.8077 16.25 13.7333 16.4481 13.7333C16.6461 13.7333 16.8444 13.7351 17.0176 13.7438C17.0389 13.7449 17.0612 13.7448 17.0841 13.7446C17.2573 13.7436 17.4732 13.7423 17.6862 14.2539C17.7681 14.4508 17.888 14.7426 18.0144 15.0505C18.2701 15.673 18.5526 16.3608 18.6024 16.4603C18.6767 16.6091 18.7262 16.7825 18.6271 16.981C18.6123 17.0107 18.5985 17.0388 18.5854 17.0656C18.511 17.2175 18.4562 17.3292 18.33 17.4766C18.2803 17.5346 18.229 17.5971 18.1777 17.6596C18.0755 17.7841 17.9732 17.9086 17.8842 17.9973C17.7355 18.1454 17.5806 18.3062 17.754 18.6037C17.9273 18.9012 18.5237 19.8743 19.4071 20.6622C20.3567 21.5092 21.182 21.8672 21.6003 22.0487C21.682 22.0841 21.7482 22.1128 21.7967 22.1371C22.0938 22.2859 22.2671 22.261 22.4405 22.0628C22.6138 21.8645 23.1833 21.195 23.3814 20.8976C23.5795 20.6002 23.7776 20.6497 24.05 20.7489C24.3224 20.8481 25.7834 21.5669 26.0805 21.7157C26.1385 21.7447 26.1928 21.7709 26.243 21.7952Z" fill="#FDFDFD"/>
</svg>
