<svg width="326" height="540" viewBox="0 0 326 540" fill="none" xmlns="http://www.w3.org/2000/svg">
<g filter="url(#filter0_d_170_4011)">
<rect x="17" y="15" width="286" height="500" rx="5" fill="white" shape-rendering="crispEdges"/>
<g filter="url(#filter1_d_170_4011)">
<path d="M112.5 125.792H37.5C35.7917 125.792 34.375 124.375 34.375 122.667C34.375 120.958 35.7917 119.542 37.5 119.542H112.5C114.208 119.542 115.625 120.958 115.625 122.667C115.625 124.375 114.208 125.792 112.5 125.792Z" fill="#1959AB"/>
<path d="M48.3332 113.291H41.6667C37.6667 113.291 34.375 110 34.375 106V70.0832C34.375 66.0832 37.6667 62.7915 41.6667 62.7915H48.3332C52.3332 62.7915 55.6249 66.0832 55.6249 70.0832V106C55.6249 110 52.3332 113.291 48.3332 113.291ZM41.6667 68.9998C41.0833 68.9998 40.625 69.4581 40.625 70.0415V106C40.625 106.583 41.0833 107.041 41.6667 107.041H48.3332C48.9166 107.041 49.3749 106.583 49.3749 106V70.0832C49.3749 69.4998 48.9166 69.0415 48.3332 69.0415H41.6667V68.9998Z" fill="#1959AB"/>
<path d="M78.3332 113.292H71.6667C67.6667 113.292 64.375 110 64.375 106V56.7917C64.375 52.7917 67.6667 49.5 71.6667 49.5H78.3332C82.3332 49.5 85.6249 52.7917 85.6249 56.7917V106C85.6249 110 82.3332 113.292 78.3332 113.292ZM71.6667 55.75C71.0833 55.75 70.625 56.2083 70.625 56.7917V106C70.625 106.583 71.0833 107.042 71.6667 107.042H78.3332C78.9166 107.042 79.3749 106.583 79.3749 106V56.7917C79.3749 56.2083 78.9166 55.75 78.3332 55.75H71.6667Z" fill="#1959AB"/>
<path d="M108.333 113.292H101.667C97.6667 113.292 94.375 110 94.375 106V43.5002C94.375 39.5002 97.6667 36.2085 101.667 36.2085H108.333C112.333 36.2085 115.625 39.5002 115.625 43.5002V106C115.625 110 112.333 113.292 108.333 113.292ZM101.667 42.4585C101.083 42.4585 100.625 42.9168 100.625 43.5002V106C100.625 106.584 101.083 107.042 101.667 107.042H108.333C108.917 107.042 109.375 106.584 109.375 106V43.5002C109.375 42.9168 108.917 42.4585 108.333 42.4585H101.667Z" fill="#1959AB"/>
</g>
<path d="M42.1094 197.398C42.1094 198.25 41.9453 199.035 41.6172 199.754C41.2969 200.465 40.8555 201.047 40.293 201.5C39.582 202.07 38.8398 202.465 38.0664 202.684C37.3008 202.895 36.3711 203 35.2773 203H27.2266V185.551H40.7852V188.926H31.7031V192.055H35.3477C36.5664 192.055 37.5625 192.145 38.3359 192.324C39.1094 192.496 39.793 192.816 40.3867 193.285C40.9883 193.754 41.4258 194.348 41.6992 195.066C41.9727 195.777 42.1094 196.555 42.1094 197.398ZM37.457 197.527C37.457 197.238 37.4258 196.965 37.3633 196.707C37.3008 196.449 37.1641 196.211 36.9531 195.992C36.7422 195.781 36.4531 195.613 36.0859 195.488C35.7188 195.363 35.2109 195.301 34.5625 195.301H31.7031V199.742H34.5625C35.0547 199.742 35.4961 199.68 35.8867 199.555C36.2852 199.43 36.5898 199.27 36.8008 199.074C37.0117 198.887 37.1719 198.664 37.2812 198.406C37.3984 198.141 37.457 197.848 37.457 197.527ZM58.4805 203H54.3906V194.949L48.6719 203H45.1797V189.84H49.2695V197.047L54.5664 189.84H58.4805V203ZM73.5156 199.273C73.5156 200.023 73.332 200.668 72.9648 201.207C72.5977 201.738 72.1016 202.164 71.4766 202.484C70.8438 202.805 70.1406 203.031 69.3672 203.164C68.5938 203.297 67.7695 203.363 66.8945 203.363C65.7461 203.363 64.7266 203.266 63.8359 203.07C62.9531 202.875 62.0898 202.633 61.2461 202.344V199.145H61.7148C62.332 199.488 63.0234 199.789 63.7891 200.047C64.5547 200.297 65.3359 200.422 66.1328 200.422C66.4297 200.422 66.7812 200.402 67.1875 200.363C67.6016 200.324 67.9297 200.258 68.1719 200.164C68.5 200.039 68.7461 199.895 68.9102 199.73C69.082 199.566 69.168 199.305 69.168 198.945C69.168 198.609 69.0898 198.348 68.9336 198.16C68.7852 197.973 68.5781 197.836 68.3125 197.75C68.0859 197.672 67.7969 197.621 67.4453 197.598C67.1016 197.574 66.6641 197.562 66.1328 197.562H64.1172V194.891H65.7344C66.0469 194.891 66.418 194.887 66.8477 194.879C67.2852 194.871 67.6289 194.836 67.8789 194.773C68.2461 194.688 68.5078 194.551 68.6641 194.363C68.8281 194.176 68.9102 193.934 68.9102 193.637C68.9102 193.395 68.8281 193.191 68.6641 193.027C68.5 192.863 68.2852 192.734 68.0195 192.641C67.793 192.562 67.5273 192.504 67.2227 192.465C66.918 192.426 66.5977 192.406 66.2617 192.406C65.707 192.406 65.0586 192.504 64.3164 192.699C63.582 192.895 62.9297 193.137 62.3594 193.426H61.9023V190.273C62.3867 190.125 63.1055 189.953 64.0586 189.758C65.0195 189.562 66 189.465 67 189.465C67.875 189.465 68.6719 189.531 69.3906 189.664C70.1094 189.797 70.7461 189.996 71.3008 190.262C71.8867 190.551 72.3594 190.926 72.7188 191.387C73.0781 191.848 73.2578 192.422 73.2578 193.109C73.2578 193.812 73.0156 194.441 72.5312 194.996C72.0547 195.551 71.4805 195.922 70.8086 196.109V196.215C71.582 196.418 72.2266 196.773 72.7422 197.281C73.2578 197.781 73.5156 198.445 73.5156 199.273ZM89.875 203H85.6562V197.387H80.8047V203H76.5859V189.84H80.8047V194.375H85.6562V189.84H89.875V203ZM106.82 197.199H97.1641C97.2266 198.23 97.6172 199.02 98.3359 199.566C99.0625 200.113 100.129 200.387 101.535 200.387C102.426 200.387 103.289 200.227 104.125 199.906C104.961 199.586 105.621 199.242 106.105 198.875H106.574V202.262C105.621 202.645 104.723 202.922 103.879 203.094C103.035 203.266 102.102 203.352 101.078 203.352C98.4375 203.352 96.4141 202.758 95.0078 201.57C93.6016 200.383 92.8984 198.691 92.8984 196.496C92.8984 194.324 93.5625 192.605 94.8906 191.34C96.2266 190.066 98.0547 189.43 100.375 189.43C102.516 189.43 104.125 189.973 105.203 191.059C106.281 192.137 106.82 193.691 106.82 195.723V197.199ZM102.625 194.727C102.602 193.844 102.383 193.18 101.969 192.734C101.555 192.289 100.91 192.066 100.035 192.066C99.2227 192.066 98.5547 192.277 98.0312 192.699C97.5078 193.121 97.2148 193.797 97.1523 194.727H102.625ZM116.652 203.352C115.504 203.352 114.453 203.215 113.5 202.941C112.555 202.668 111.73 202.246 111.027 201.676C110.332 201.105 109.793 200.387 109.41 199.52C109.027 198.652 108.836 197.637 108.836 196.473C108.836 195.246 109.039 194.188 109.445 193.297C109.859 192.406 110.434 191.668 111.168 191.082C111.879 190.527 112.699 190.121 113.629 189.863C114.559 189.605 115.523 189.477 116.523 189.477C117.422 189.477 118.25 189.574 119.008 189.77C119.766 189.965 120.473 190.219 121.129 190.531V194.129H120.531C120.367 193.988 120.168 193.824 119.934 193.637C119.707 193.449 119.426 193.266 119.09 193.086C118.77 192.914 118.418 192.773 118.035 192.664C117.652 192.547 117.207 192.488 116.699 192.488C115.574 192.488 114.707 192.848 114.098 193.566C113.496 194.277 113.195 195.246 113.195 196.473C113.195 197.738 113.504 198.699 114.121 199.355C114.746 200.012 115.629 200.34 116.77 200.34C117.301 200.34 117.777 200.281 118.199 200.164C118.629 200.039 118.984 199.895 119.266 199.73C119.531 199.574 119.766 199.41 119.969 199.238C120.172 199.066 120.359 198.898 120.531 198.734H121.129V202.332C120.465 202.645 119.77 202.891 119.043 203.07C118.324 203.258 117.527 203.352 116.652 203.352ZM147.965 185.551L141.613 199.508C141.246 200.312 140.824 200.961 140.348 201.453C139.871 201.945 139.379 202.309 138.871 202.543C138.363 202.785 137.859 202.941 137.359 203.012C136.867 203.082 136.375 203.117 135.883 203.117C135.336 203.117 134.688 203.102 133.938 203.07C133.188 203.047 132.691 203.023 132.449 203V199.191H132.719C132.883 199.238 133.172 199.289 133.586 199.344C134 199.391 134.41 199.414 134.816 199.414C135.59 199.414 136.215 199.34 136.691 199.191C137.176 199.043 137.473 198.848 137.582 198.605L130.492 185.551H135.379L139.715 193.824L143.289 185.551H147.965ZM163.352 203H159.133V192.699H154.281V203H150.062V189.84H163.352V203ZM181.07 196.238C181.07 197.324 180.902 198.312 180.566 199.203C180.238 200.094 179.805 200.828 179.266 201.406C178.703 202.016 178.066 202.477 177.355 202.789C176.645 203.102 175.883 203.258 175.07 203.258C174.32 203.258 173.684 203.176 173.16 203.012C172.637 202.855 172.102 202.633 171.555 202.344V207.828H167.336V189.84H171.555V191.211C172.203 190.695 172.863 190.277 173.535 189.957C174.215 189.637 174.996 189.477 175.879 189.477C177.52 189.477 178.793 190.078 179.699 191.281C180.613 192.484 181.07 194.137 181.07 196.238ZM176.723 196.32C176.723 195.039 176.504 194.109 176.066 193.531C175.629 192.953 174.938 192.664 173.992 192.664C173.594 192.664 173.184 192.727 172.762 192.852C172.34 192.969 171.938 193.141 171.555 193.367V199.988C171.836 200.098 172.137 200.168 172.457 200.199C172.777 200.23 173.094 200.246 173.406 200.246C174.523 200.246 175.355 199.922 175.902 199.273C176.449 198.617 176.723 197.633 176.723 196.32ZM192.086 199.566V196.824C191.516 196.871 190.898 196.938 190.234 197.023C189.57 197.102 189.066 197.195 188.723 197.305C188.301 197.438 187.977 197.633 187.75 197.891C187.531 198.141 187.422 198.473 187.422 198.887C187.422 199.16 187.445 199.383 187.492 199.555C187.539 199.727 187.656 199.891 187.844 200.047C188.023 200.203 188.238 200.32 188.488 200.398C188.738 200.469 189.129 200.504 189.66 200.504C190.082 200.504 190.508 200.418 190.938 200.246C191.375 200.074 191.758 199.848 192.086 199.566ZM192.086 201.605C191.859 201.777 191.578 201.984 191.242 202.227C190.906 202.469 190.59 202.66 190.293 202.801C189.879 202.988 189.449 203.125 189.004 203.211C188.559 203.305 188.07 203.352 187.539 203.352C186.289 203.352 185.242 202.965 184.398 202.191C183.555 201.418 183.133 200.43 183.133 199.227C183.133 198.266 183.348 197.48 183.777 196.871C184.207 196.262 184.816 195.781 185.605 195.43C186.387 195.078 187.355 194.828 188.512 194.68C189.668 194.531 190.867 194.422 192.109 194.352V194.281C192.109 193.555 191.812 193.055 191.219 192.781C190.625 192.5 189.75 192.359 188.594 192.359C187.898 192.359 187.156 192.484 186.367 192.734C185.578 192.977 185.012 193.164 184.668 193.297H184.281V190.121C184.727 190.004 185.449 189.867 186.449 189.711C187.457 189.547 188.465 189.465 189.473 189.465C191.871 189.465 193.602 189.836 194.664 190.578C195.734 191.312 196.27 192.469 196.27 194.047V203H192.086V201.605ZM213.344 199.027C213.344 199.66 213.215 200.223 212.957 200.715C212.707 201.207 212.371 201.617 211.949 201.945C211.418 202.359 210.855 202.641 210.262 202.789C209.676 202.93 208.977 203 208.164 203H200.148V189.84H207.824C208.785 189.84 209.492 189.871 209.945 189.934C210.398 189.996 210.844 190.148 211.281 190.391C211.742 190.641 212.086 190.973 212.312 191.387C212.547 191.801 212.664 192.293 212.664 192.863C212.664 193.512 212.477 194.082 212.102 194.574C211.734 195.059 211.289 195.43 210.766 195.688V195.816C211.492 195.996 212.102 196.359 212.594 196.906C213.094 197.445 213.344 198.152 213.344 199.027ZM208.41 193.801C208.41 193.316 208.262 192.973 207.965 192.77C207.676 192.566 207.207 192.465 206.559 192.465H204.332V195.09H206.629C207.199 195.09 207.637 194.977 207.941 194.75C208.254 194.516 208.41 194.199 208.41 193.801ZM208.996 198.898C208.996 198.328 208.832 197.93 208.504 197.703C208.184 197.469 207.707 197.352 207.074 197.352H204.332V200.363H207.145C207.723 200.363 208.176 200.234 208.504 199.977C208.832 199.711 208.996 199.352 208.996 198.898ZM229.457 203H225.238V192.781H221.758C221.734 193.367 221.715 193.824 221.699 194.152C221.691 194.473 221.68 194.848 221.664 195.277C221.609 196.535 221.504 197.559 221.348 198.348C221.191 199.137 220.992 199.781 220.75 200.281C220.516 200.789 220.262 201.191 219.988 201.488C219.723 201.785 219.453 202.043 219.18 202.262C218.867 202.512 218.457 202.711 217.949 202.859C217.449 203.008 216.965 203.082 216.496 203.082C216.129 203.082 215.758 203.066 215.383 203.035C215.008 203.012 214.785 203 214.715 203V199.625H214.844C214.875 199.625 214.93 199.629 215.008 199.637C215.086 199.645 215.164 199.648 215.242 199.648C215.445 199.648 215.652 199.629 215.863 199.59C216.082 199.551 216.262 199.465 216.402 199.332C216.926 198.832 217.273 198.207 217.445 197.457C217.625 196.699 217.754 195.582 217.832 194.105C217.863 193.559 217.895 192.934 217.926 192.23C217.957 191.527 217.984 190.73 218.008 189.84H229.457V203ZM246.414 197.199H236.758C236.82 198.23 237.211 199.02 237.93 199.566C238.656 200.113 239.723 200.387 241.129 200.387C242.02 200.387 242.883 200.227 243.719 199.906C244.555 199.586 245.215 199.242 245.699 198.875H246.168V202.262C245.215 202.645 244.316 202.922 243.473 203.094C242.629 203.266 241.695 203.352 240.672 203.352C238.031 203.352 236.008 202.758 234.602 201.57C233.195 200.383 232.492 198.691 232.492 196.496C232.492 194.324 233.156 192.605 234.484 191.34C235.82 190.066 237.648 189.43 239.969 189.43C242.109 189.43 243.719 189.973 244.797 191.059C245.875 192.137 246.414 193.691 246.414 195.723V197.199ZM242.219 194.727C242.195 193.844 241.977 193.18 241.562 192.734C241.148 192.289 240.504 192.066 239.629 192.066C238.816 192.066 238.148 192.277 237.625 192.699C237.102 193.121 236.809 193.797 236.746 194.727H242.219ZM262.68 203H258.461V197.387H253.609V203H249.391V189.84H253.609V194.375H258.461V189.84H262.68V203ZM279.965 203H275.875V194.949L270.156 203H266.664V189.84H270.754V197.047L276.051 189.84H279.965V203ZM296.922 197.199H287.266C287.328 198.23 287.719 199.02 288.438 199.566C289.164 200.113 290.23 200.387 291.637 200.387C292.527 200.387 293.391 200.227 294.227 199.906C295.062 199.586 295.723 199.242 296.207 198.875H296.676V202.262C295.723 202.645 294.824 202.922 293.98 203.094C293.137 203.266 292.203 203.352 291.18 203.352C288.539 203.352 286.516 202.758 285.109 201.57C283.703 200.383 283 198.691 283 196.496C283 194.324 283.664 192.605 284.992 191.34C286.328 190.066 288.156 189.43 290.477 189.43C292.617 189.43 294.227 189.973 295.305 191.059C296.383 192.137 296.922 193.691 296.922 195.723V197.199ZM292.727 194.727C292.703 193.844 292.484 193.18 292.07 192.734C291.656 192.289 291.012 192.066 290.137 192.066C289.324 192.066 288.656 192.277 288.133 192.699C287.609 193.121 287.316 193.797 287.254 194.727H292.727Z" fill="#333333"/>
<path d="M30 239L37.5 246.5L50 231.5" stroke="#61B857" stroke-width="2" stroke-linecap="round" stroke-linejoin="round"/>
<path d="M73.9141 245.5H71.9297L67.2031 240.195H66.1484V245.5H64.6016V233.867H66.1484V239.086C66.4141 239.081 66.6641 239.055 66.8984 239.008C67.1328 238.961 67.3542 238.872 67.5625 238.742C67.7708 238.622 67.9766 238.453 68.1797 238.234C68.3828 238.01 68.5625 237.737 68.7188 237.414C68.7865 237.273 68.8646 237.096 68.9531 236.883C69.0469 236.669 69.1406 236.445 69.2344 236.211C69.5938 235.346 70.013 234.74 70.4922 234.391C70.9766 234.042 71.6875 233.867 72.625 233.867H73.2422V235.25H72.5938C72.2344 235.25 71.9531 235.284 71.75 235.352C71.5469 235.414 71.3646 235.521 71.2031 235.672C71.0521 235.807 70.9193 235.99 70.8047 236.219C70.6953 236.448 70.5807 236.716 70.4609 237.023C70.1901 237.711 69.9141 238.216 69.6328 238.539C69.3568 238.862 68.9844 239.143 68.5156 239.383L73.9141 245.5ZM83.0859 236.773L77.9922 248.719H76.4219L78.0469 245.078L74.5703 236.773H76.1641L78.8438 243.242L81.5469 236.773H83.0859ZM92.6875 241.031C92.6875 241.74 92.5859 242.388 92.3828 242.977C92.1797 243.56 91.8932 244.055 91.5234 244.461C91.1797 244.846 90.7734 245.146 90.3047 245.359C89.8411 245.568 89.349 245.672 88.8281 245.672C88.375 245.672 87.9635 245.622 87.5938 245.523C87.2292 245.424 86.8568 245.271 86.4766 245.062V248.719H85.0078V236.773H86.4766V237.688C86.8672 237.359 87.3047 237.086 87.7891 236.867C88.2786 236.643 88.7995 236.531 89.3516 236.531C90.4036 236.531 91.2214 236.93 91.8047 237.727C92.3932 238.518 92.6875 239.62 92.6875 241.031ZM91.1719 241.07C91.1719 240.018 90.9922 239.232 90.6328 238.711C90.2734 238.19 89.7214 237.93 88.9766 237.93C88.5547 237.93 88.1302 238.021 87.7031 238.203C87.276 238.385 86.8672 238.625 86.4766 238.922V243.867C86.8932 244.055 87.25 244.182 87.5469 244.25C87.849 244.318 88.1901 244.352 88.5703 244.352C89.388 244.352 90.026 244.076 90.4844 243.523C90.9427 242.971 91.1719 242.154 91.1719 241.07ZM101.508 244.953C100.909 245.234 100.393 245.427 99.9609 245.531C99.5339 245.641 99.1068 245.695 98.6797 245.695C98.0443 245.695 97.4609 245.604 96.9297 245.422C96.3984 245.234 95.9427 244.953 95.5625 244.578C95.1823 244.203 94.8854 243.729 94.6719 243.156C94.4635 242.583 94.3594 241.914 94.3594 241.148C94.3594 239.758 94.7448 238.648 95.5156 237.82C96.2865 236.987 97.3411 236.57 98.6797 236.57C99.1849 236.57 99.6797 236.641 100.164 236.781C100.654 236.922 101.102 237.094 101.508 237.297V238.93H101.422C100.938 238.56 100.458 238.286 99.9844 238.109C99.5156 237.932 99.0599 237.844 98.6172 237.844C97.7474 237.844 97.0729 238.135 96.5938 238.719C96.1198 239.302 95.8828 240.112 95.8828 241.148C95.8828 242.185 96.1198 242.99 96.5938 243.562C97.0677 244.135 97.7422 244.422 98.6172 244.422C98.9245 244.422 99.2292 244.383 99.5312 244.305C99.8385 244.227 100.117 244.125 100.367 244C100.565 243.901 100.768 243.784 100.977 243.648C101.19 243.508 101.339 243.404 101.422 243.336H101.508V244.953ZM113.875 237.711H112.828L110.711 233.344H112.586L113.875 237.711ZM110.719 237.711H109.672L107.555 233.344H109.43L110.719 237.711ZM125.391 241.898C125.391 242.461 125.279 242.971 125.055 243.43C124.836 243.888 124.542 244.26 124.172 244.547C123.734 244.891 123.266 245.135 122.766 245.281C122.266 245.427 121.62 245.5 120.828 245.5H116.609V233.867H124.398V235.242H118.156V238.43H120.875C121.667 238.43 122.312 238.477 122.812 238.57C123.312 238.659 123.784 238.875 124.227 239.219C124.622 239.526 124.914 239.906 125.102 240.359C125.294 240.812 125.391 241.326 125.391 241.898ZM123.773 241.93C123.773 241.539 123.708 241.195 123.578 240.898C123.448 240.602 123.245 240.362 122.969 240.18C122.682 239.987 122.352 239.87 121.977 239.828C121.602 239.786 121.073 239.766 120.391 239.766H118.156V244.18H120.352C121.044 244.18 121.576 244.146 121.945 244.078C122.32 244.01 122.648 243.88 122.93 243.688C123.221 243.484 123.435 243.247 123.57 242.977C123.706 242.701 123.773 242.352 123.773 241.93ZM134.812 245.5H133.359V238.945L128.789 245.5H127.461V236.773H128.914V243.234L133.438 236.773H134.812V245.5ZM143.781 243.055C143.781 243.544 143.667 243.958 143.438 244.297C143.214 244.635 142.924 244.909 142.57 245.117C142.216 245.32 141.826 245.469 141.398 245.562C140.971 245.656 140.544 245.703 140.117 245.703C139.513 245.703 138.938 245.646 138.391 245.531C137.844 245.417 137.305 245.24 136.773 245V243.391H136.875C137.255 243.724 137.74 243.982 138.328 244.164C138.917 244.346 139.487 244.438 140.039 244.438C140.299 244.438 140.568 244.414 140.844 244.367C141.12 244.315 141.359 244.234 141.562 244.125C141.781 244 141.956 243.852 142.086 243.68C142.216 243.503 142.281 243.263 142.281 242.961C142.281 242.648 142.216 242.398 142.086 242.211C141.961 242.023 141.789 241.883 141.57 241.789C141.357 241.695 141.099 241.638 140.797 241.617C140.495 241.596 140.219 241.586 139.969 241.586H138.695V240.32H139.578C139.786 240.32 140.057 240.312 140.391 240.297C140.729 240.281 141.003 240.24 141.211 240.172C141.482 240.083 141.695 239.958 141.852 239.797C142.013 239.635 142.094 239.378 142.094 239.023C142.094 238.779 142.031 238.578 141.906 238.422C141.781 238.26 141.625 238.135 141.438 238.047C141.245 237.958 141.029 237.898 140.789 237.867C140.555 237.836 140.346 237.82 140.164 237.82C139.633 237.82 139.109 237.893 138.594 238.039C138.083 238.18 137.654 238.385 137.305 238.656H137.203V237.039C137.635 236.898 138.099 236.784 138.594 236.695C139.089 236.607 139.583 236.562 140.078 236.562C140.484 236.562 140.888 236.599 141.289 236.672C141.695 236.745 142.073 236.87 142.422 237.047C142.766 237.224 143.047 237.466 143.266 237.773C143.484 238.076 143.594 238.451 143.594 238.898C143.594 239.357 143.451 239.76 143.164 240.109C142.883 240.453 142.503 240.701 142.023 240.852V240.906C142.56 241.036 142.987 241.281 143.305 241.641C143.622 241.995 143.781 242.466 143.781 243.055ZM153.406 245.5H151.938V241.57H147.57V245.5H146.102V236.773H147.57V240.305H151.938V236.773H153.406V245.5ZM163.609 241.289H157.18C157.18 241.826 157.26 242.294 157.422 242.695C157.583 243.091 157.805 243.417 158.086 243.672C158.357 243.922 158.677 244.109 159.047 244.234C159.422 244.359 159.833 244.422 160.281 244.422C160.875 244.422 161.471 244.305 162.07 244.07C162.674 243.831 163.104 243.596 163.359 243.367H163.438V244.969C162.943 245.177 162.438 245.352 161.922 245.492C161.406 245.633 160.865 245.703 160.297 245.703C158.849 245.703 157.719 245.312 156.906 244.531C156.094 243.745 155.688 242.63 155.688 241.188C155.688 239.76 156.076 238.628 156.852 237.789C157.633 236.951 158.659 236.531 159.93 236.531C161.107 236.531 162.013 236.875 162.648 237.562C163.289 238.25 163.609 239.227 163.609 240.492V241.289ZM162.18 240.164C162.174 239.393 161.979 238.797 161.594 238.375C161.214 237.953 160.633 237.742 159.852 237.742C159.065 237.742 158.438 237.974 157.969 238.438C157.505 238.901 157.242 239.477 157.18 240.164H162.18ZM172.367 244.953C171.768 245.234 171.253 245.427 170.82 245.531C170.393 245.641 169.966 245.695 169.539 245.695C168.904 245.695 168.32 245.604 167.789 245.422C167.258 245.234 166.802 244.953 166.422 244.578C166.042 244.203 165.745 243.729 165.531 243.156C165.323 242.583 165.219 241.914 165.219 241.148C165.219 239.758 165.604 238.648 166.375 237.82C167.146 236.987 168.201 236.57 169.539 236.57C170.044 236.57 170.539 236.641 171.023 236.781C171.513 236.922 171.961 237.094 172.367 237.297V238.93H172.281C171.797 238.56 171.318 238.286 170.844 238.109C170.375 237.932 169.919 237.844 169.477 237.844C168.607 237.844 167.932 238.135 167.453 238.719C166.979 239.302 166.742 240.112 166.742 241.148C166.742 242.185 166.979 242.99 167.453 243.562C167.927 244.135 168.602 244.422 169.477 244.422C169.784 244.422 170.089 244.383 170.391 244.305C170.698 244.227 170.977 244.125 171.227 244C171.424 243.901 171.628 243.784 171.836 243.648C172.049 243.508 172.198 243.404 172.281 243.336H172.367V244.953ZM186.539 244.953C185.94 245.234 185.424 245.427 184.992 245.531C184.565 245.641 184.138 245.695 183.711 245.695C183.076 245.695 182.492 245.604 181.961 245.422C181.43 245.234 180.974 244.953 180.594 244.578C180.214 244.203 179.917 243.729 179.703 243.156C179.495 242.583 179.391 241.914 179.391 241.148C179.391 239.758 179.776 238.648 180.547 237.82C181.318 236.987 182.372 236.57 183.711 236.57C184.216 236.57 184.711 236.641 185.195 236.781C185.685 236.922 186.133 237.094 186.539 237.297V238.93H186.453C185.969 238.56 185.49 238.286 185.016 238.109C184.547 237.932 184.091 237.844 183.648 237.844C182.779 237.844 182.104 238.135 181.625 238.719C181.151 239.302 180.914 240.112 180.914 241.148C180.914 242.185 181.151 242.99 181.625 243.562C182.099 244.135 182.773 244.422 183.648 244.422C183.956 244.422 184.26 244.383 184.562 244.305C184.87 244.227 185.148 244.125 185.398 244C185.596 243.901 185.799 243.784 186.008 243.648C186.221 243.508 186.37 243.404 186.453 243.336H186.539V244.953ZM201.852 239.68C201.852 241.768 201.523 243.302 200.867 244.281C200.216 245.255 199.203 245.742 197.828 245.742C196.432 245.742 195.411 245.247 194.766 244.258C194.125 243.268 193.805 241.747 193.805 239.695C193.805 237.628 194.13 236.102 194.781 235.117C195.432 234.128 196.448 233.633 197.828 233.633C199.224 233.633 200.242 234.135 200.883 235.141C201.529 236.141 201.852 237.654 201.852 239.68ZM199.797 243.227C199.979 242.805 200.102 242.31 200.164 241.742C200.232 241.169 200.266 240.482 200.266 239.68C200.266 238.888 200.232 238.201 200.164 237.617C200.102 237.034 199.977 236.539 199.789 236.133C199.607 235.732 199.357 235.43 199.039 235.227C198.727 235.023 198.323 234.922 197.828 234.922C197.339 234.922 196.932 235.023 196.609 235.227C196.292 235.43 196.039 235.737 195.852 236.148C195.674 236.534 195.552 237.036 195.484 237.656C195.422 238.276 195.391 238.956 195.391 239.695C195.391 240.508 195.419 241.188 195.477 241.734C195.534 242.281 195.656 242.771 195.844 243.203C196.016 243.609 196.258 243.919 196.57 244.133C196.888 244.346 197.307 244.453 197.828 244.453C198.318 244.453 198.724 244.352 199.047 244.148C199.37 243.945 199.62 243.638 199.797 243.227ZM210.398 233.344L208.281 237.711H207.234L208.523 233.344H210.398ZM207.242 233.344L205.125 237.711H204.078L205.367 233.344H207.242Z" fill="#333333"/>
<path d="M30 285L37.5 292.5L50 277.5" stroke="#61B857" stroke-width="2" stroke-linecap="round" stroke-linejoin="round"/>
<path d="M73.3438 287.898C73.3438 288.461 73.2318 288.971 73.0078 289.43C72.7891 289.888 72.4948 290.26 72.125 290.547C71.6875 290.891 71.2188 291.135 70.7188 291.281C70.2188 291.427 69.5729 291.5 68.7812 291.5H64.5625V279.867H72.3516V281.242H66.1094V284.43H68.8281C69.6198 284.43 70.2656 284.477 70.7656 284.57C71.2656 284.659 71.737 284.875 72.1797 285.219C72.5755 285.526 72.8672 285.906 73.0547 286.359C73.2474 286.812 73.3438 287.326 73.3438 287.898ZM71.7266 287.93C71.7266 287.539 71.6615 287.195 71.5312 286.898C71.401 286.602 71.1979 286.362 70.9219 286.18C70.6354 285.987 70.3047 285.87 69.9297 285.828C69.5547 285.786 69.026 285.766 68.3438 285.766H66.1094V290.18H68.3047C68.9974 290.18 69.5286 290.146 69.8984 290.078C70.2734 290.01 70.6016 289.88 70.8828 289.688C71.1745 289.484 71.388 289.247 71.5234 288.977C71.6589 288.701 71.7266 288.352 71.7266 287.93ZM82.7656 291.5H81.3125V284.945L76.7422 291.5H75.4141V282.773H76.8672V289.234L81.3906 282.773H82.7656V291.5ZM91.7344 289.055C91.7344 289.544 91.6198 289.958 91.3906 290.297C91.1667 290.635 90.8776 290.909 90.5234 291.117C90.1693 291.32 89.7786 291.469 89.3516 291.562C88.9245 291.656 88.4974 291.703 88.0703 291.703C87.4661 291.703 86.8906 291.646 86.3438 291.531C85.7969 291.417 85.2578 291.24 84.7266 291V289.391H84.8281C85.2083 289.724 85.6927 289.982 86.2812 290.164C86.8698 290.346 87.4401 290.438 87.9922 290.438C88.2526 290.438 88.5208 290.414 88.7969 290.367C89.0729 290.315 89.3125 290.234 89.5156 290.125C89.7344 290 89.9089 289.852 90.0391 289.68C90.1693 289.503 90.2344 289.263 90.2344 288.961C90.2344 288.648 90.1693 288.398 90.0391 288.211C89.9141 288.023 89.7422 287.883 89.5234 287.789C89.3099 287.695 89.0521 287.638 88.75 287.617C88.4479 287.596 88.1719 287.586 87.9219 287.586H86.6484V286.32H87.5312C87.7396 286.32 88.0104 286.312 88.3438 286.297C88.6823 286.281 88.9557 286.24 89.1641 286.172C89.4349 286.083 89.6484 285.958 89.8047 285.797C89.9661 285.635 90.0469 285.378 90.0469 285.023C90.0469 284.779 89.9844 284.578 89.8594 284.422C89.7344 284.26 89.5781 284.135 89.3906 284.047C89.1979 283.958 88.9818 283.898 88.7422 283.867C88.5078 283.836 88.2995 283.82 88.1172 283.82C87.5859 283.82 87.0625 283.893 86.5469 284.039C86.0365 284.18 85.6068 284.385 85.2578 284.656H85.1562V283.039C85.5885 282.898 86.0521 282.784 86.5469 282.695C87.0417 282.607 87.5365 282.562 88.0312 282.562C88.4375 282.562 88.8411 282.599 89.2422 282.672C89.6484 282.745 90.026 282.87 90.375 283.047C90.7188 283.224 91 283.466 91.2188 283.773C91.4375 284.076 91.5469 284.451 91.5469 284.898C91.5469 285.357 91.4036 285.76 91.1172 286.109C90.8359 286.453 90.4557 286.701 89.9766 286.852V286.906C90.513 287.036 90.9401 287.281 91.2578 287.641C91.5755 287.995 91.7344 288.466 91.7344 289.055ZM101.359 291.5H99.8906V287.57H95.5234V291.5H94.0547V282.773H95.5234V286.305H99.8906V282.773H101.359V291.5ZM111.562 287.289H105.133C105.133 287.826 105.214 288.294 105.375 288.695C105.536 289.091 105.758 289.417 106.039 289.672C106.31 289.922 106.63 290.109 107 290.234C107.375 290.359 107.786 290.422 108.234 290.422C108.828 290.422 109.424 290.305 110.023 290.07C110.628 289.831 111.057 289.596 111.312 289.367H111.391V290.969C110.896 291.177 110.391 291.352 109.875 291.492C109.359 291.633 108.818 291.703 108.25 291.703C106.802 291.703 105.672 291.312 104.859 290.531C104.047 289.745 103.641 288.63 103.641 287.188C103.641 285.76 104.029 284.628 104.805 283.789C105.586 282.951 106.612 282.531 107.883 282.531C109.06 282.531 109.966 282.875 110.602 283.562C111.242 284.25 111.562 285.227 111.562 286.492V287.289ZM110.133 286.164C110.128 285.393 109.932 284.797 109.547 284.375C109.167 283.953 108.586 283.742 107.805 283.742C107.018 283.742 106.391 283.974 105.922 284.438C105.458 284.901 105.195 285.477 105.133 286.164H110.133ZM120.32 290.953C119.721 291.234 119.206 291.427 118.773 291.531C118.346 291.641 117.919 291.695 117.492 291.695C116.857 291.695 116.273 291.604 115.742 291.422C115.211 291.234 114.755 290.953 114.375 290.578C113.995 290.203 113.698 289.729 113.484 289.156C113.276 288.583 113.172 287.914 113.172 287.148C113.172 285.758 113.557 284.648 114.328 283.82C115.099 282.987 116.154 282.57 117.492 282.57C117.997 282.57 118.492 282.641 118.977 282.781C119.466 282.922 119.914 283.094 120.32 283.297V284.93H120.234C119.75 284.56 119.271 284.286 118.797 284.109C118.328 283.932 117.872 283.844 117.43 283.844C116.56 283.844 115.885 284.135 115.406 284.719C114.932 285.302 114.695 286.112 114.695 287.148C114.695 288.185 114.932 288.99 115.406 289.562C115.88 290.135 116.555 290.422 117.43 290.422C117.737 290.422 118.042 290.383 118.344 290.305C118.651 290.227 118.93 290.125 119.18 290C119.378 289.901 119.581 289.784 119.789 289.648C120.003 289.508 120.151 289.404 120.234 289.336H120.32V290.953ZM137.43 291.5H135.445L130.719 286.195H129.664V291.5H128.117V279.867H129.664V285.086C129.93 285.081 130.18 285.055 130.414 285.008C130.648 284.961 130.87 284.872 131.078 284.742C131.286 284.622 131.492 284.453 131.695 284.234C131.898 284.01 132.078 283.737 132.234 283.414C132.302 283.273 132.38 283.096 132.469 282.883C132.562 282.669 132.656 282.445 132.75 282.211C133.109 281.346 133.529 280.74 134.008 280.391C134.492 280.042 135.203 279.867 136.141 279.867H136.758V281.25H136.109C135.75 281.25 135.469 281.284 135.266 281.352C135.062 281.414 134.88 281.521 134.719 281.672C134.568 281.807 134.435 281.99 134.32 282.219C134.211 282.448 134.096 282.716 133.977 283.023C133.706 283.711 133.43 284.216 133.148 284.539C132.872 284.862 132.5 285.143 132.031 285.383L137.43 291.5ZM146.492 287.141C146.492 288.562 146.128 289.685 145.398 290.508C144.669 291.331 143.693 291.742 142.469 291.742C141.234 291.742 140.253 291.331 139.523 290.508C138.799 289.685 138.438 288.562 138.438 287.141C138.438 285.719 138.799 284.596 139.523 283.773C140.253 282.945 141.234 282.531 142.469 282.531C143.693 282.531 144.669 282.945 145.398 283.773C146.128 284.596 146.492 285.719 146.492 287.141ZM144.977 287.141C144.977 286.01 144.755 285.172 144.312 284.625C143.87 284.073 143.255 283.797 142.469 283.797C141.672 283.797 141.052 284.073 140.609 284.625C140.172 285.172 139.953 286.01 139.953 287.141C139.953 288.234 140.174 289.065 140.617 289.633C141.06 290.195 141.677 290.477 142.469 290.477C143.25 290.477 143.862 290.198 144.305 289.641C144.753 289.078 144.977 288.245 144.977 287.141ZM156.078 291.5H154.609V287.57H150.242V291.5H148.773V282.773H150.242V286.305H154.609V282.773H156.078V291.5ZM165.508 290.953C164.909 291.234 164.393 291.427 163.961 291.531C163.534 291.641 163.107 291.695 162.68 291.695C162.044 291.695 161.461 291.604 160.93 291.422C160.398 291.234 159.943 290.953 159.562 290.578C159.182 290.203 158.885 289.729 158.672 289.156C158.464 288.583 158.359 287.914 158.359 287.148C158.359 285.758 158.745 284.648 159.516 283.82C160.286 282.987 161.341 282.57 162.68 282.57C163.185 282.57 163.68 282.641 164.164 282.781C164.654 282.922 165.102 283.094 165.508 283.297V284.93H165.422C164.938 284.56 164.458 284.286 163.984 284.109C163.516 283.932 163.06 283.844 162.617 283.844C161.747 283.844 161.073 284.135 160.594 284.719C160.12 285.302 159.883 286.112 159.883 287.148C159.883 288.185 160.12 288.99 160.594 289.562C161.068 290.135 161.742 290.422 162.617 290.422C162.924 290.422 163.229 290.383 163.531 290.305C163.839 290.227 164.117 290.125 164.367 290C164.565 289.901 164.768 289.784 164.977 289.648C165.19 289.508 165.339 289.404 165.422 289.336H165.508V290.953ZM175.07 282.773L169.977 294.719H168.406L170.031 291.078L166.555 282.773H168.148L170.828 289.242L173.531 282.773H175.07ZM184.031 291.5H182.562V284.008H179.305C179.289 284.44 179.273 284.857 179.258 285.258C179.242 285.659 179.227 286.021 179.211 286.344C179.174 287.214 179.115 287.909 179.031 288.43C178.948 288.945 178.839 289.375 178.703 289.719C178.578 290.042 178.438 290.305 178.281 290.508C178.13 290.706 177.966 290.885 177.789 291.047C177.612 291.203 177.414 291.32 177.195 291.398C176.982 291.477 176.747 291.516 176.492 291.516C176.404 291.516 176.273 291.513 176.102 291.508C175.935 291.503 175.826 291.5 175.773 291.5V290.219H175.852C175.893 290.219 175.953 290.221 176.031 290.227C176.109 290.232 176.174 290.234 176.227 290.234C176.352 290.234 176.479 290.216 176.609 290.18C176.745 290.143 176.859 290.076 176.953 289.977C177.219 289.716 177.432 289.276 177.594 288.656C177.755 288.036 177.862 287.141 177.914 285.969C177.935 285.542 177.953 285.036 177.969 284.453C177.99 283.865 178.008 283.305 178.023 282.773H184.031V291.5ZM192.383 288.82C192.383 288.555 192.336 288.323 192.242 288.125C192.154 287.922 192.005 287.758 191.797 287.633C191.578 287.503 191.328 287.424 191.047 287.398C190.771 287.372 190.372 287.359 189.852 287.359H188.398V290.328H189.82C190.341 290.328 190.745 290.307 191.031 290.266C191.318 290.219 191.565 290.133 191.773 290.008C191.987 289.872 192.141 289.714 192.234 289.531C192.333 289.344 192.383 289.107 192.383 288.82ZM193.898 288.797C193.898 289.219 193.812 289.602 193.641 289.945C193.474 290.289 193.245 290.568 192.953 290.781C192.609 291.042 192.242 291.227 191.852 291.336C191.461 291.445 190.958 291.5 190.344 291.5H186.93V282.773H188.398V286.172H190.383C191.039 286.172 191.547 286.206 191.906 286.273C192.271 286.341 192.633 286.508 192.992 286.773C193.294 286.997 193.521 287.284 193.672 287.633C193.823 287.982 193.898 288.37 193.898 288.797ZM202.484 284.062H199.328V291.5H197.859V284.062H194.703V282.773H202.484V284.062ZM210.789 291.5H209.328V290.57C209.198 290.659 209.021 290.784 208.797 290.945C208.578 291.102 208.365 291.227 208.156 291.32C207.911 291.44 207.63 291.539 207.312 291.617C206.995 291.701 206.622 291.742 206.195 291.742C205.409 291.742 204.742 291.482 204.195 290.961C203.648 290.44 203.375 289.776 203.375 288.969C203.375 288.307 203.516 287.773 203.797 287.367C204.083 286.956 204.49 286.633 205.016 286.398C205.547 286.164 206.185 286.005 206.93 285.922C207.674 285.839 208.474 285.776 209.328 285.734V285.508C209.328 285.174 209.268 284.898 209.148 284.68C209.034 284.461 208.867 284.289 208.648 284.164C208.44 284.044 208.19 283.964 207.898 283.922C207.607 283.88 207.302 283.859 206.984 283.859C206.599 283.859 206.169 283.911 205.695 284.016C205.221 284.115 204.732 284.26 204.227 284.453H204.148V282.961C204.435 282.883 204.849 282.797 205.391 282.703C205.932 282.609 206.466 282.562 206.992 282.562C207.607 282.562 208.141 282.615 208.594 282.719C209.052 282.818 209.448 282.99 209.781 283.234C210.109 283.474 210.359 283.784 210.531 284.164C210.703 284.544 210.789 285.016 210.789 285.578V291.5ZM209.328 289.352V286.922C208.88 286.948 208.352 286.987 207.742 287.039C207.138 287.091 206.659 287.167 206.305 287.266C205.883 287.385 205.542 287.573 205.281 287.828C205.021 288.078 204.891 288.424 204.891 288.867C204.891 289.367 205.042 289.745 205.344 290C205.646 290.25 206.107 290.375 206.727 290.375C207.242 290.375 207.714 290.276 208.141 290.078C208.568 289.875 208.964 289.633 209.328 289.352ZM220.539 291.5H213.617V282.773H215.086V290.234H219.383V282.773H220.852V290.234H221.906V293.594H220.539V291.5ZM231.281 291.5H229.828V284.945L225.258 291.5H223.93V282.773H225.383V289.234L229.906 282.773H231.281V291.5ZM240.883 291.5H239.414V288.039H237.688L234.984 291.5H233.258L236.195 287.898C235.44 287.69 234.888 287.372 234.539 286.945C234.19 286.513 234.016 285.948 234.016 285.25C234.016 284.786 234.12 284.393 234.328 284.07C234.536 283.747 234.799 283.484 235.117 283.281C235.43 283.083 235.789 282.951 236.195 282.883C236.602 282.81 237.044 282.773 237.523 282.773H240.883V291.5ZM239.414 286.883V283.945H237.562C237.161 283.945 236.872 283.958 236.695 283.984C236.518 284.01 236.326 284.081 236.117 284.195C235.914 284.31 235.763 284.466 235.664 284.664C235.57 284.857 235.523 285.068 235.523 285.297C235.523 285.583 235.552 285.815 235.609 285.992C235.672 286.169 235.797 286.336 235.984 286.492C236.177 286.643 236.411 286.747 236.688 286.805C236.964 286.857 237.271 286.883 237.609 286.883H239.414Z" fill="#333333"/>
<path d="M30 331L37.5 338.5L50 323.5" stroke="#61B857" stroke-width="2" stroke-linecap="round" stroke-linejoin="round"/>
<path d="M73.5469 331.156C73.2604 331.281 73 331.398 72.7656 331.508C72.5365 331.617 72.2344 331.732 71.8594 331.852C71.5417 331.951 71.1953 332.034 70.8203 332.102C70.4505 332.174 70.0417 332.211 69.5938 332.211C68.75 332.211 67.9818 332.094 67.2891 331.859C66.6016 331.62 66.0026 331.247 65.4922 330.742C64.9922 330.247 64.6016 329.62 64.3203 328.859C64.0391 328.094 63.8984 327.206 63.8984 326.195C63.8984 325.237 64.0339 324.38 64.3047 323.625C64.5755 322.87 64.9661 322.232 65.4766 321.711C65.9714 321.206 66.5677 320.82 67.2656 320.555C67.9688 320.289 68.7474 320.156 69.6016 320.156C70.2266 320.156 70.849 320.232 71.4688 320.383C72.0938 320.534 72.7865 320.799 73.5469 321.18V323.016H73.4297C72.7891 322.479 72.1536 322.089 71.5234 321.844C70.8932 321.599 70.2188 321.477 69.5 321.477C68.9115 321.477 68.3802 321.573 67.9062 321.766C67.4375 321.953 67.0182 322.247 66.6484 322.648C66.2891 323.039 66.0078 323.534 65.8047 324.133C65.6068 324.727 65.5078 325.414 65.5078 326.195C65.5078 327.013 65.6172 327.716 65.8359 328.305C66.0599 328.893 66.3464 329.372 66.6953 329.742C67.0599 330.128 67.4844 330.414 67.9688 330.602C68.4583 330.784 68.974 330.875 69.5156 330.875C70.2604 330.875 70.9583 330.747 71.6094 330.492C72.2604 330.237 72.8698 329.854 73.4375 329.344H73.5469V331.156ZM83.0547 327.641C83.0547 329.062 82.6901 330.185 81.9609 331.008C81.2318 331.831 80.2552 332.242 79.0312 332.242C77.7969 332.242 76.8151 331.831 76.0859 331.008C75.362 330.185 75 329.062 75 327.641C75 326.219 75.362 325.096 76.0859 324.273C76.8151 323.445 77.7969 323.031 79.0312 323.031C80.2552 323.031 81.2318 323.445 81.9609 324.273C82.6901 325.096 83.0547 326.219 83.0547 327.641ZM81.5391 327.641C81.5391 326.51 81.3177 325.672 80.875 325.125C80.4323 324.573 79.8177 324.297 79.0312 324.297C78.2344 324.297 77.6146 324.573 77.1719 325.125C76.7344 325.672 76.5156 326.51 76.5156 327.641C76.5156 328.734 76.737 329.565 77.1797 330.133C77.6224 330.695 78.2396 330.977 79.0312 330.977C79.8125 330.977 80.4245 330.698 80.8672 330.141C81.3151 329.578 81.5391 328.745 81.5391 327.641ZM92.7734 327.641C92.7734 329.062 92.4089 330.185 91.6797 331.008C90.9505 331.831 89.974 332.242 88.75 332.242C87.5156 332.242 86.5339 331.831 85.8047 331.008C85.0807 330.185 84.7188 329.062 84.7188 327.641C84.7188 326.219 85.0807 325.096 85.8047 324.273C86.5339 323.445 87.5156 323.031 88.75 323.031C89.974 323.031 90.9505 323.445 91.6797 324.273C92.4089 325.096 92.7734 326.219 92.7734 327.641ZM91.2578 327.641C91.2578 326.51 91.0365 325.672 90.5938 325.125C90.151 324.573 89.5365 324.297 88.75 324.297C87.9531 324.297 87.3333 324.573 86.8906 325.125C86.4531 325.672 86.2344 326.51 86.2344 327.641C86.2344 328.734 86.4557 329.565 86.8984 330.133C87.3411 330.695 87.9583 330.977 88.75 330.977C89.5312 330.977 90.1432 330.698 90.5859 330.141C91.0339 329.578 91.2578 328.745 91.2578 327.641ZM101.469 324.562C101.833 324.927 102.109 325.37 102.297 325.891C102.484 326.406 102.578 327.013 102.578 327.711C102.578 329.013 102.188 330.094 101.406 330.953C100.625 331.812 99.6641 332.242 98.5234 332.242C97.9609 332.242 97.4427 332.148 96.9688 331.961C96.4948 331.768 96.0911 331.474 95.7578 331.078C95.3411 330.583 95.0286 329.961 94.8203 329.211C94.6172 328.456 94.5156 327.536 94.5156 326.453C94.5156 326.062 94.5339 325.667 94.5703 325.266C94.6068 324.859 94.6901 324.375 94.8203 323.812C94.9245 323.328 95.0755 322.862 95.2734 322.414C95.4766 321.966 95.7161 321.604 95.9922 321.328C96.3672 320.948 96.8594 320.643 97.4688 320.414C98.0833 320.18 98.8958 320.018 99.9062 319.93C100.318 319.893 100.701 319.865 101.055 319.844C101.409 319.818 101.727 319.794 102.008 319.773V321.125C101.664 321.146 101.323 321.167 100.984 321.188C100.651 321.208 100.318 321.234 99.9844 321.266C99.3177 321.323 98.7135 321.432 98.1719 321.594C97.6354 321.755 97.2422 321.964 96.9922 322.219C96.7161 322.495 96.5078 322.857 96.3672 323.305C96.2318 323.747 96.1432 324.169 96.1016 324.57C96.4922 324.289 96.9193 324.055 97.3828 323.867C97.8516 323.674 98.349 323.578 98.875 323.578C99.3646 323.578 99.8359 323.659 100.289 323.82C100.742 323.982 101.135 324.229 101.469 324.562ZM101.086 327.797C101.086 326.833 100.854 326.115 100.391 325.641C99.9271 325.161 99.3151 324.922 98.5547 324.922C98.1016 324.922 97.6667 324.995 97.25 325.141C96.8333 325.281 96.4375 325.471 96.0625 325.711C96.0521 325.841 96.0417 325.995 96.0312 326.172C96.026 326.344 96.0234 326.503 96.0234 326.648C96.0234 327.555 96.099 328.289 96.25 328.852C96.401 329.414 96.6146 329.862 96.8906 330.195C97.1302 330.477 97.3906 330.677 97.6719 330.797C97.9531 330.911 98.2552 330.969 98.5781 330.969C99.3646 330.969 99.9792 330.685 100.422 330.117C100.865 329.549 101.086 328.776 101.086 327.797ZM115.695 332H104.883V323.273H106.352V330.734H109.711V323.273H111.18V330.734H114.539V323.273H116.008V330.734H117.062V334.094H115.695V332ZM126.391 327.789H119.961C119.961 328.326 120.042 328.794 120.203 329.195C120.365 329.591 120.586 329.917 120.867 330.172C121.138 330.422 121.458 330.609 121.828 330.734C122.203 330.859 122.615 330.922 123.062 330.922C123.656 330.922 124.253 330.805 124.852 330.57C125.456 330.331 125.885 330.096 126.141 329.867H126.219V331.469C125.724 331.677 125.219 331.852 124.703 331.992C124.188 332.133 123.646 332.203 123.078 332.203C121.63 332.203 120.5 331.812 119.688 331.031C118.875 330.245 118.469 329.13 118.469 327.688C118.469 326.26 118.857 325.128 119.633 324.289C120.414 323.451 121.44 323.031 122.711 323.031C123.888 323.031 124.794 323.375 125.43 324.062C126.07 324.75 126.391 325.727 126.391 326.992V327.789ZM124.961 326.664C124.956 325.893 124.76 325.297 124.375 324.875C123.995 324.453 123.414 324.242 122.633 324.242C121.846 324.242 121.219 324.474 120.75 324.938C120.286 325.401 120.023 325.977 119.961 326.664H124.961ZM135.148 331.453C134.549 331.734 134.034 331.927 133.602 332.031C133.174 332.141 132.747 332.195 132.32 332.195C131.685 332.195 131.102 332.104 130.57 331.922C130.039 331.734 129.583 331.453 129.203 331.078C128.823 330.703 128.526 330.229 128.312 329.656C128.104 329.083 128 328.414 128 327.648C128 326.258 128.385 325.148 129.156 324.32C129.927 323.487 130.982 323.07 132.32 323.07C132.826 323.07 133.32 323.141 133.805 323.281C134.294 323.422 134.742 323.594 135.148 323.797V325.43H135.062C134.578 325.06 134.099 324.786 133.625 324.609C133.156 324.432 132.701 324.344 132.258 324.344C131.388 324.344 130.714 324.635 130.234 325.219C129.76 325.802 129.523 326.612 129.523 327.648C129.523 328.685 129.76 329.49 130.234 330.062C130.708 330.635 131.383 330.922 132.258 330.922C132.565 330.922 132.87 330.883 133.172 330.805C133.479 330.727 133.758 330.625 134.008 330.5C134.206 330.401 134.409 330.284 134.617 330.148C134.831 330.008 134.979 329.904 135.062 329.836H135.148V331.453ZM143.578 324.562H140.422V332H138.953V324.562H135.797V323.273H143.578V324.562ZM152.305 329.359C152.305 329.781 152.219 330.156 152.047 330.484C151.88 330.812 151.648 331.086 151.352 331.305C151.018 331.549 150.654 331.727 150.258 331.836C149.867 331.945 149.352 332 148.711 332H145.102V323.273H148.477C149.128 323.273 149.617 323.297 149.945 323.344C150.279 323.385 150.591 323.482 150.883 323.633C151.211 323.805 151.451 324.029 151.602 324.305C151.758 324.581 151.836 324.906 151.836 325.281C151.836 325.714 151.714 326.089 151.469 326.406C151.224 326.724 150.909 326.971 150.523 327.148V327.227C151.039 327.352 151.464 327.594 151.797 327.953C152.135 328.307 152.305 328.776 152.305 329.359ZM150.328 325.508C150.328 325.32 150.286 325.151 150.203 325C150.125 324.849 150.003 324.732 149.836 324.648C149.617 324.539 149.37 324.479 149.094 324.469C148.823 324.453 148.487 324.445 148.086 324.445H146.555V326.836H148.391C148.776 326.836 149.06 326.823 149.242 326.797C149.43 326.766 149.617 326.693 149.805 326.578C150.003 326.453 150.138 326.307 150.211 326.141C150.289 325.969 150.328 325.758 150.328 325.508ZM150.789 329.367C150.789 329.081 150.742 328.849 150.648 328.672C150.555 328.49 150.349 328.323 150.031 328.172C149.833 328.078 149.62 328.023 149.391 328.008C149.161 327.987 148.844 327.977 148.438 327.977H146.555V330.828H147.945C148.529 330.828 148.977 330.81 149.289 330.773C149.607 330.732 149.88 330.646 150.109 330.516C150.339 330.385 150.508 330.227 150.617 330.039C150.732 329.852 150.789 329.628 150.789 329.367ZM161.398 332H159.938V331.07C159.807 331.159 159.63 331.284 159.406 331.445C159.188 331.602 158.974 331.727 158.766 331.82C158.521 331.94 158.24 332.039 157.922 332.117C157.604 332.201 157.232 332.242 156.805 332.242C156.018 332.242 155.352 331.982 154.805 331.461C154.258 330.94 153.984 330.276 153.984 329.469C153.984 328.807 154.125 328.273 154.406 327.867C154.693 327.456 155.099 327.133 155.625 326.898C156.156 326.664 156.794 326.505 157.539 326.422C158.284 326.339 159.083 326.276 159.938 326.234V326.008C159.938 325.674 159.878 325.398 159.758 325.18C159.643 324.961 159.477 324.789 159.258 324.664C159.049 324.544 158.799 324.464 158.508 324.422C158.216 324.38 157.911 324.359 157.594 324.359C157.208 324.359 156.779 324.411 156.305 324.516C155.831 324.615 155.341 324.76 154.836 324.953H154.758V323.461C155.044 323.383 155.458 323.297 156 323.203C156.542 323.109 157.076 323.062 157.602 323.062C158.216 323.062 158.75 323.115 159.203 323.219C159.661 323.318 160.057 323.49 160.391 323.734C160.719 323.974 160.969 324.284 161.141 324.664C161.312 325.044 161.398 325.516 161.398 326.078V332ZM159.938 329.852V327.422C159.49 327.448 158.961 327.487 158.352 327.539C157.747 327.591 157.268 327.667 156.914 327.766C156.492 327.885 156.151 328.073 155.891 328.328C155.63 328.578 155.5 328.924 155.5 329.367C155.5 329.867 155.651 330.245 155.953 330.5C156.255 330.75 156.716 330.875 157.336 330.875C157.852 330.875 158.323 330.776 158.75 330.578C159.177 330.375 159.573 330.133 159.938 329.852ZM73.4609 351H71.9141V340.742H66.1094V351H64.5625V339.367H73.4609V351ZM84.1562 346.531C84.1562 347.24 84.0547 347.888 83.8516 348.477C83.6484 349.06 83.362 349.555 82.9922 349.961C82.6484 350.346 82.2422 350.646 81.7734 350.859C81.3099 351.068 80.8177 351.172 80.2969 351.172C79.8438 351.172 79.4323 351.122 79.0625 351.023C78.6979 350.924 78.3255 350.771 77.9453 350.562V354.219H76.4766V342.273H77.9453V343.188C78.3359 342.859 78.7734 342.586 79.2578 342.367C79.7474 342.143 80.2682 342.031 80.8203 342.031C81.8724 342.031 82.6901 342.43 83.2734 343.227C83.862 344.018 84.1562 345.12 84.1562 346.531ZM82.6406 346.57C82.6406 345.518 82.4609 344.732 82.1016 344.211C81.7422 343.69 81.1901 343.43 80.4453 343.43C80.0234 343.43 79.599 343.521 79.1719 343.703C78.7448 343.885 78.3359 344.125 77.9453 344.422V349.367C78.362 349.555 78.7188 349.682 79.0156 349.75C79.3177 349.818 79.6589 349.852 80.0391 349.852C80.8568 349.852 81.4948 349.576 81.9531 349.023C82.4115 348.471 82.6406 347.654 82.6406 346.57ZM93.75 346.789H87.3203C87.3203 347.326 87.401 347.794 87.5625 348.195C87.724 348.591 87.9453 348.917 88.2266 349.172C88.4974 349.422 88.8177 349.609 89.1875 349.734C89.5625 349.859 89.974 349.922 90.4219 349.922C91.0156 349.922 91.612 349.805 92.2109 349.57C92.8151 349.331 93.2448 349.096 93.5 348.867H93.5781V350.469C93.0833 350.677 92.5781 350.852 92.0625 350.992C91.5469 351.133 91.0052 351.203 90.4375 351.203C88.9896 351.203 87.8594 350.812 87.0469 350.031C86.2344 349.245 85.8281 348.13 85.8281 346.688C85.8281 345.26 86.2161 344.128 86.9922 343.289C87.7734 342.451 88.7995 342.031 90.0703 342.031C91.2474 342.031 92.1536 342.375 92.7891 343.062C93.4297 343.75 93.75 344.727 93.75 345.992V346.789ZM92.3203 345.664C92.3151 344.893 92.1198 344.297 91.7344 343.875C91.3542 343.453 90.7734 343.242 89.9922 343.242C89.2057 343.242 88.5781 343.474 88.1094 343.938C87.6458 344.401 87.3828 344.977 87.3203 345.664H92.3203ZM103.898 353.094H102.531V350.977H95.9688V353.094H94.6016V349.75H95.5469C96.1562 348.745 96.6094 347.586 96.9062 346.273C97.2083 344.956 97.3594 343.622 97.3594 342.273H102.844V349.75H103.898V353.094ZM101.375 349.75V343.508H98.7422C98.6745 344.815 98.474 346.008 98.1406 347.086C97.8073 348.164 97.4245 349.052 96.9922 349.75H101.375ZM113.234 351H111.766V343.539H107.398V351H105.93V342.273H113.234V351ZM123.812 346.531C123.812 347.24 123.711 347.888 123.508 348.477C123.305 349.06 123.018 349.555 122.648 349.961C122.305 350.346 121.898 350.646 121.43 350.859C120.966 351.068 120.474 351.172 119.953 351.172C119.5 351.172 119.089 351.122 118.719 351.023C118.354 350.924 117.982 350.771 117.602 350.562V354.219H116.133V342.273H117.602V343.188C117.992 342.859 118.43 342.586 118.914 342.367C119.404 342.143 119.924 342.031 120.477 342.031C121.529 342.031 122.346 342.43 122.93 343.227C123.518 344.018 123.812 345.12 123.812 346.531ZM122.297 346.57C122.297 345.518 122.117 344.732 121.758 344.211C121.398 343.69 120.846 343.43 120.102 343.43C119.68 343.43 119.255 343.521 118.828 343.703C118.401 343.885 117.992 344.125 117.602 344.422V349.367C118.018 349.555 118.375 349.682 118.672 349.75C118.974 349.818 119.315 349.852 119.695 349.852C120.513 349.852 121.151 349.576 121.609 349.023C122.068 348.471 122.297 347.654 122.297 346.57ZM133.453 351H132V344.445L127.43 351H126.102V342.273H127.555V348.734L132.078 342.273H133.453V351ZM143.656 351H142.188V347.07H137.82V351H136.352V342.273H137.82V345.805H142.188V342.273H143.656V351ZM153.906 351H152.453V344.445L147.883 351H146.555V342.273H148.008V348.734L152.531 342.273H153.906V351ZM165.055 351H163.602V344.109L161.43 348.594H160.336L158.18 344.109V351H156.805V342.273H158.578L160.953 347.156L163.25 342.273H165.055V351ZM174.727 351H173.266V350.07C173.135 350.159 172.958 350.284 172.734 350.445C172.516 350.602 172.302 350.727 172.094 350.82C171.849 350.94 171.568 351.039 171.25 351.117C170.932 351.201 170.56 351.242 170.133 351.242C169.346 351.242 168.68 350.982 168.133 350.461C167.586 349.94 167.312 349.276 167.312 348.469C167.312 347.807 167.453 347.273 167.734 346.867C168.021 346.456 168.427 346.133 168.953 345.898C169.484 345.664 170.122 345.505 170.867 345.422C171.612 345.339 172.411 345.276 173.266 345.234V345.008C173.266 344.674 173.206 344.398 173.086 344.18C172.971 343.961 172.805 343.789 172.586 343.664C172.378 343.544 172.128 343.464 171.836 343.422C171.544 343.38 171.24 343.359 170.922 343.359C170.536 343.359 170.107 343.411 169.633 343.516C169.159 343.615 168.669 343.76 168.164 343.953H168.086V342.461C168.372 342.383 168.786 342.297 169.328 342.203C169.87 342.109 170.404 342.062 170.93 342.062C171.544 342.062 172.078 342.115 172.531 342.219C172.99 342.318 173.385 342.49 173.719 342.734C174.047 342.974 174.297 343.284 174.469 343.664C174.641 344.044 174.727 344.516 174.727 345.078V351ZM173.266 348.852V346.422C172.818 346.448 172.289 346.487 171.68 346.539C171.076 346.591 170.596 346.667 170.242 346.766C169.82 346.885 169.479 347.073 169.219 347.328C168.958 347.578 168.828 347.924 168.828 348.367C168.828 348.867 168.979 349.245 169.281 349.5C169.583 349.75 170.044 349.875 170.664 349.875C171.18 349.875 171.651 349.776 172.078 349.578C172.505 349.375 172.901 349.133 173.266 348.852ZM183.969 343.562H180.812V351H179.344V343.562H176.188V342.273H183.969V343.562ZM192.797 346.789H186.367C186.367 347.326 186.448 347.794 186.609 348.195C186.771 348.591 186.992 348.917 187.273 349.172C187.544 349.422 187.865 349.609 188.234 349.734C188.609 349.859 189.021 349.922 189.469 349.922C190.062 349.922 190.659 349.805 191.258 349.57C191.862 349.331 192.292 349.096 192.547 348.867H192.625V350.469C192.13 350.677 191.625 350.852 191.109 350.992C190.594 351.133 190.052 351.203 189.484 351.203C188.036 351.203 186.906 350.812 186.094 350.031C185.281 349.245 184.875 348.13 184.875 346.688C184.875 345.26 185.263 344.128 186.039 343.289C186.82 342.451 187.846 342.031 189.117 342.031C190.294 342.031 191.201 342.375 191.836 343.062C192.477 343.75 192.797 344.727 192.797 345.992V346.789ZM191.367 345.664C191.362 344.893 191.167 344.297 190.781 343.875C190.401 343.453 189.82 343.242 189.039 343.242C188.253 343.242 187.625 343.474 187.156 343.938C186.693 344.401 186.43 344.977 186.367 345.664H191.367ZM202.062 351H200.594V343.508H197.336C197.32 343.94 197.305 344.357 197.289 344.758C197.273 345.159 197.258 345.521 197.242 345.844C197.206 346.714 197.146 347.409 197.062 347.93C196.979 348.445 196.87 348.875 196.734 349.219C196.609 349.542 196.469 349.805 196.312 350.008C196.161 350.206 195.997 350.385 195.82 350.547C195.643 350.703 195.445 350.82 195.227 350.898C195.013 350.977 194.779 351.016 194.523 351.016C194.435 351.016 194.305 351.013 194.133 351.008C193.966 351.003 193.857 351 193.805 351V349.719H193.883C193.924 349.719 193.984 349.721 194.062 349.727C194.141 349.732 194.206 349.734 194.258 349.734C194.383 349.734 194.51 349.716 194.641 349.68C194.776 349.643 194.891 349.576 194.984 349.477C195.25 349.216 195.464 348.776 195.625 348.156C195.786 347.536 195.893 346.641 195.945 345.469C195.966 345.042 195.984 344.536 196 343.953C196.021 343.365 196.039 342.805 196.055 342.273H202.062V351ZM212.266 346.789H205.836C205.836 347.326 205.917 347.794 206.078 348.195C206.24 348.591 206.461 348.917 206.742 349.172C207.013 349.422 207.333 349.609 207.703 349.734C208.078 349.859 208.49 349.922 208.938 349.922C209.531 349.922 210.128 349.805 210.727 349.57C211.331 349.331 211.76 349.096 212.016 348.867H212.094V350.469C211.599 350.677 211.094 350.852 210.578 350.992C210.062 351.133 209.521 351.203 208.953 351.203C207.505 351.203 206.375 350.812 205.562 350.031C204.75 349.245 204.344 348.13 204.344 346.688C204.344 345.26 204.732 344.128 205.508 343.289C206.289 342.451 207.315 342.031 208.586 342.031C209.763 342.031 210.669 342.375 211.305 343.062C211.945 343.75 212.266 344.727 212.266 345.992V346.789ZM210.836 345.664C210.831 344.893 210.635 344.297 210.25 343.875C209.87 343.453 209.289 343.242 208.508 343.242C207.721 343.242 207.094 343.474 206.625 343.938C206.161 344.401 205.898 344.977 205.836 345.664H210.836ZM221.844 351H220.391V344.445L215.82 351H214.492V342.273H215.945V348.734L220.469 342.273H221.844V351ZM221.008 338.836C220.982 339.607 220.737 340.208 220.273 340.641C219.815 341.073 219.146 341.289 218.266 341.289C217.385 341.289 216.714 341.073 216.25 340.641C215.792 340.208 215.549 339.607 215.523 338.836H216.859C216.865 339.383 216.984 339.779 217.219 340.023C217.458 340.268 217.807 340.391 218.266 340.391C218.729 340.391 219.078 340.271 219.312 340.031C219.547 339.792 219.667 339.393 219.672 338.836H221.008Z" fill="#333333"/>
<path d="M30 385L37.5 392.5L50 377.5" stroke="#61B857" stroke-width="2" stroke-linecap="round" stroke-linejoin="round"/>
<path d="M73.3438 382.398C73.3438 382.961 73.2318 383.471 73.0078 383.93C72.7891 384.388 72.4948 384.76 72.125 385.047C71.6875 385.391 71.2188 385.635 70.7188 385.781C70.2188 385.927 69.5729 386 68.7812 386H64.5625V374.367H72.3516V375.742H66.1094V378.93H68.8281C69.6198 378.93 70.2656 378.977 70.7656 379.07C71.2656 379.159 71.737 379.375 72.1797 379.719C72.5755 380.026 72.8672 380.406 73.0547 380.859C73.2474 381.312 73.3438 381.826 73.3438 382.398ZM71.7266 382.43C71.7266 382.039 71.6615 381.695 71.5312 381.398C71.401 381.102 71.1979 380.862 70.9219 380.68C70.6354 380.487 70.3047 380.37 69.9297 380.328C69.5547 380.286 69.026 380.266 68.3438 380.266H66.1094V384.68H68.3047C68.9974 384.68 69.5286 384.646 69.8984 384.578C70.2734 384.51 70.6016 384.38 70.8828 384.188C71.1745 383.984 71.388 383.747 71.5234 383.477C71.6589 383.201 71.7266 382.852 71.7266 382.43ZM82.7656 386H81.3125V379.445L76.7422 386H75.4141V377.273H76.8672V383.734L81.3906 377.273H82.7656V386ZM91.7344 383.555C91.7344 384.044 91.6198 384.458 91.3906 384.797C91.1667 385.135 90.8776 385.409 90.5234 385.617C90.1693 385.82 89.7786 385.969 89.3516 386.062C88.9245 386.156 88.4974 386.203 88.0703 386.203C87.4661 386.203 86.8906 386.146 86.3438 386.031C85.7969 385.917 85.2578 385.74 84.7266 385.5V383.891H84.8281C85.2083 384.224 85.6927 384.482 86.2812 384.664C86.8698 384.846 87.4401 384.938 87.9922 384.938C88.2526 384.938 88.5208 384.914 88.7969 384.867C89.0729 384.815 89.3125 384.734 89.5156 384.625C89.7344 384.5 89.9089 384.352 90.0391 384.18C90.1693 384.003 90.2344 383.763 90.2344 383.461C90.2344 383.148 90.1693 382.898 90.0391 382.711C89.9141 382.523 89.7422 382.383 89.5234 382.289C89.3099 382.195 89.0521 382.138 88.75 382.117C88.4479 382.096 88.1719 382.086 87.9219 382.086H86.6484V380.82H87.5312C87.7396 380.82 88.0104 380.812 88.3438 380.797C88.6823 380.781 88.9557 380.74 89.1641 380.672C89.4349 380.583 89.6484 380.458 89.8047 380.297C89.9661 380.135 90.0469 379.878 90.0469 379.523C90.0469 379.279 89.9844 379.078 89.8594 378.922C89.7344 378.76 89.5781 378.635 89.3906 378.547C89.1979 378.458 88.9818 378.398 88.7422 378.367C88.5078 378.336 88.2995 378.32 88.1172 378.32C87.5859 378.32 87.0625 378.393 86.5469 378.539C86.0365 378.68 85.6068 378.885 85.2578 379.156H85.1562V377.539C85.5885 377.398 86.0521 377.284 86.5469 377.195C87.0417 377.107 87.5365 377.062 88.0312 377.062C88.4375 377.062 88.8411 377.099 89.2422 377.172C89.6484 377.245 90.026 377.37 90.375 377.547C90.7188 377.724 91 377.966 91.2188 378.273C91.4375 378.576 91.5469 378.951 91.5469 379.398C91.5469 379.857 91.4036 380.26 91.1172 380.609C90.8359 380.953 90.4557 381.201 89.9766 381.352V381.406C90.513 381.536 90.9401 381.781 91.2578 382.141C91.5755 382.495 91.7344 382.966 91.7344 383.555ZM101.359 386H99.8906V382.07H95.5234V386H94.0547V377.273H95.5234V380.805H99.8906V377.273H101.359V386ZM111.562 381.789H105.133C105.133 382.326 105.214 382.794 105.375 383.195C105.536 383.591 105.758 383.917 106.039 384.172C106.31 384.422 106.63 384.609 107 384.734C107.375 384.859 107.786 384.922 108.234 384.922C108.828 384.922 109.424 384.805 110.023 384.57C110.628 384.331 111.057 384.096 111.312 383.867H111.391V385.469C110.896 385.677 110.391 385.852 109.875 385.992C109.359 386.133 108.818 386.203 108.25 386.203C106.802 386.203 105.672 385.812 104.859 385.031C104.047 384.245 103.641 383.13 103.641 381.688C103.641 380.26 104.029 379.128 104.805 378.289C105.586 377.451 106.612 377.031 107.883 377.031C109.06 377.031 109.966 377.375 110.602 378.062C111.242 378.75 111.562 379.727 111.562 380.992V381.789ZM110.133 380.664C110.128 379.893 109.932 379.297 109.547 378.875C109.167 378.453 108.586 378.242 107.805 378.242C107.018 378.242 106.391 378.474 105.922 378.938C105.458 379.401 105.195 379.977 105.133 380.664H110.133ZM120.32 385.453C119.721 385.734 119.206 385.927 118.773 386.031C118.346 386.141 117.919 386.195 117.492 386.195C116.857 386.195 116.273 386.104 115.742 385.922C115.211 385.734 114.755 385.453 114.375 385.078C113.995 384.703 113.698 384.229 113.484 383.656C113.276 383.083 113.172 382.414 113.172 381.648C113.172 380.258 113.557 379.148 114.328 378.32C115.099 377.487 116.154 377.07 117.492 377.07C117.997 377.07 118.492 377.141 118.977 377.281C119.466 377.422 119.914 377.594 120.32 377.797V379.43H120.234C119.75 379.06 119.271 378.786 118.797 378.609C118.328 378.432 117.872 378.344 117.43 378.344C116.56 378.344 115.885 378.635 115.406 379.219C114.932 379.802 114.695 380.612 114.695 381.648C114.695 382.685 114.932 383.49 115.406 384.062C115.88 384.635 116.555 384.922 117.43 384.922C117.737 384.922 118.042 384.883 118.344 384.805C118.651 384.727 118.93 384.625 119.18 384.5C119.378 384.401 119.581 384.284 119.789 384.148C120.003 384.008 120.151 383.904 120.234 383.836H120.32V385.453ZM136.375 375.742H132.219V386H130.672V375.742H126.516V374.367H136.375V375.742ZM145.5 381.531C145.5 382.24 145.398 382.888 145.195 383.477C144.992 384.06 144.706 384.555 144.336 384.961C143.992 385.346 143.586 385.646 143.117 385.859C142.654 386.068 142.161 386.172 141.641 386.172C141.188 386.172 140.776 386.122 140.406 386.023C140.042 385.924 139.669 385.771 139.289 385.562V389.219H137.82V377.273H139.289V378.188C139.68 377.859 140.117 377.586 140.602 377.367C141.091 377.143 141.612 377.031 142.164 377.031C143.216 377.031 144.034 377.43 144.617 378.227C145.206 379.018 145.5 380.12 145.5 381.531ZM143.984 381.57C143.984 380.518 143.805 379.732 143.445 379.211C143.086 378.69 142.534 378.43 141.789 378.43C141.367 378.43 140.943 378.521 140.516 378.703C140.089 378.885 139.68 379.125 139.289 379.422V384.367C139.706 384.555 140.062 384.682 140.359 384.75C140.661 384.818 141.003 384.852 141.383 384.852C142.201 384.852 142.839 384.576 143.297 384.023C143.755 383.471 143.984 382.654 143.984 381.57ZM155.094 381.789H148.664C148.664 382.326 148.745 382.794 148.906 383.195C149.068 383.591 149.289 383.917 149.57 384.172C149.841 384.422 150.161 384.609 150.531 384.734C150.906 384.859 151.318 384.922 151.766 384.922C152.359 384.922 152.956 384.805 153.555 384.57C154.159 384.331 154.589 384.096 154.844 383.867H154.922V385.469C154.427 385.677 153.922 385.852 153.406 385.992C152.891 386.133 152.349 386.203 151.781 386.203C150.333 386.203 149.203 385.812 148.391 385.031C147.578 384.245 147.172 383.13 147.172 381.688C147.172 380.26 147.56 379.128 148.336 378.289C149.117 377.451 150.143 377.031 151.414 377.031C152.591 377.031 153.497 377.375 154.133 378.062C154.773 378.75 155.094 379.727 155.094 380.992V381.789ZM153.664 380.664C153.659 379.893 153.464 379.297 153.078 378.875C152.698 378.453 152.117 378.242 151.336 378.242C150.549 378.242 149.922 378.474 149.453 378.938C148.99 379.401 148.727 379.977 148.664 380.664H153.664ZM164.625 386H163.156V382.07H158.789V386H157.32V377.273H158.789V380.805H163.156V377.273H164.625V386ZM174.875 386H173.422V379.445L168.852 386H167.523V377.273H168.977V383.734L173.5 377.273H174.875V386ZM185.078 386H183.609V382.07H179.242V386H177.773V377.273H179.242V380.805H183.609V377.273H185.078V386ZM193.992 378.562H189.445V386H187.977V377.273H193.992V378.562ZM202.875 386H201.422V379.445L196.852 386H195.523V377.273H196.977V383.734L201.5 377.273H202.875V386ZM208.82 383.773L206.617 388.891H205.477L206.836 383.773H208.82ZM74.9219 405H73.375V394.977L70.1406 401.797H69.2188L66.0078 394.977V405H64.5625V393.367H66.6719L69.7734 399.844L72.7734 393.367H74.9219V405ZM84.7109 405H83.25V404.07C83.1198 404.159 82.9427 404.284 82.7188 404.445C82.5 404.602 82.2865 404.727 82.0781 404.82C81.8333 404.94 81.5521 405.039 81.2344 405.117C80.9167 405.201 80.5443 405.242 80.1172 405.242C79.3307 405.242 78.6641 404.982 78.1172 404.461C77.5703 403.94 77.2969 403.276 77.2969 402.469C77.2969 401.807 77.4375 401.273 77.7188 400.867C78.0052 400.456 78.4115 400.133 78.9375 399.898C79.4688 399.664 80.1068 399.505 80.8516 399.422C81.5964 399.339 82.3958 399.276 83.25 399.234V399.008C83.25 398.674 83.1901 398.398 83.0703 398.18C82.9557 397.961 82.7891 397.789 82.5703 397.664C82.362 397.544 82.112 397.464 81.8203 397.422C81.5286 397.38 81.224 397.359 80.9062 397.359C80.5208 397.359 80.0911 397.411 79.6172 397.516C79.1432 397.615 78.6536 397.76 78.1484 397.953H78.0703V396.461C78.3568 396.383 78.7708 396.297 79.3125 396.203C79.8542 396.109 80.388 396.062 80.9141 396.062C81.5286 396.062 82.0625 396.115 82.5156 396.219C82.974 396.318 83.3698 396.49 83.7031 396.734C84.0312 396.974 84.2812 397.284 84.4531 397.664C84.625 398.044 84.7109 398.516 84.7109 399.078V405ZM83.25 402.852V400.422C82.8021 400.448 82.2734 400.487 81.6641 400.539C81.0599 400.591 80.5807 400.667 80.2266 400.766C79.8047 400.885 79.4635 401.073 79.2031 401.328C78.9427 401.578 78.8125 401.924 78.8125 402.367C78.8125 402.867 78.9635 403.245 79.2656 403.5C79.5677 403.75 80.0286 403.875 80.6484 403.875C81.1641 403.875 81.6354 403.776 82.0625 403.578C82.4896 403.375 82.8854 403.133 83.25 402.852ZM94.0703 404.453C93.4714 404.734 92.9557 404.927 92.5234 405.031C92.0964 405.141 91.6693 405.195 91.2422 405.195C90.6068 405.195 90.0234 405.104 89.4922 404.922C88.9609 404.734 88.5052 404.453 88.125 404.078C87.7448 403.703 87.4479 403.229 87.2344 402.656C87.026 402.083 86.9219 401.414 86.9219 400.648C86.9219 399.258 87.3073 398.148 88.0781 397.32C88.849 396.487 89.9036 396.07 91.2422 396.07C91.7474 396.07 92.2422 396.141 92.7266 396.281C93.2161 396.422 93.6641 396.594 94.0703 396.797V398.43H93.9844C93.5 398.06 93.0208 397.786 92.5469 397.609C92.0781 397.432 91.6224 397.344 91.1797 397.344C90.3099 397.344 89.6354 397.635 89.1562 398.219C88.6823 398.802 88.4453 399.612 88.4453 400.648C88.4453 401.685 88.6823 402.49 89.1562 403.062C89.6302 403.635 90.3047 403.922 91.1797 403.922C91.487 403.922 91.7917 403.883 92.0938 403.805C92.401 403.727 92.6797 403.625 92.9297 403.5C93.1276 403.401 93.3307 403.284 93.5391 403.148C93.7526 403.008 93.901 402.904 93.9844 402.836H94.0703V404.453ZM102.5 397.562H99.3438V405H97.875V397.562H94.7188V396.273H102.5V397.562ZM111.328 400.789H104.898C104.898 401.326 104.979 401.794 105.141 402.195C105.302 402.591 105.523 402.917 105.805 403.172C106.076 403.422 106.396 403.609 106.766 403.734C107.141 403.859 107.552 403.922 108 403.922C108.594 403.922 109.19 403.805 109.789 403.57C110.393 403.331 110.823 403.096 111.078 402.867H111.156V404.469C110.661 404.677 110.156 404.852 109.641 404.992C109.125 405.133 108.583 405.203 108.016 405.203C106.568 405.203 105.438 404.812 104.625 404.031C103.812 403.245 103.406 402.13 103.406 400.688C103.406 399.26 103.794 398.128 104.57 397.289C105.352 396.451 106.378 396.031 107.648 396.031C108.826 396.031 109.732 396.375 110.367 397.062C111.008 397.75 111.328 398.727 111.328 399.992V400.789ZM109.898 399.664C109.893 398.893 109.698 398.297 109.312 397.875C108.932 397.453 108.352 397.242 107.57 397.242C106.784 397.242 106.156 397.474 105.688 397.938C105.224 398.401 104.961 398.977 104.898 399.664H109.898ZM121.234 400.531C121.234 401.24 121.133 401.888 120.93 402.477C120.727 403.06 120.44 403.555 120.07 403.961C119.727 404.346 119.32 404.646 118.852 404.859C118.388 405.068 117.896 405.172 117.375 405.172C116.922 405.172 116.51 405.122 116.141 405.023C115.776 404.924 115.404 404.771 115.023 404.562V408.219H113.555V396.273H115.023V397.188C115.414 396.859 115.852 396.586 116.336 396.367C116.826 396.143 117.346 396.031 117.898 396.031C118.951 396.031 119.768 396.43 120.352 397.227C120.94 398.018 121.234 399.12 121.234 400.531ZM119.719 400.57C119.719 399.518 119.539 398.732 119.18 398.211C118.82 397.69 118.268 397.43 117.523 397.43C117.102 397.43 116.677 397.521 116.25 397.703C115.823 397.885 115.414 398.125 115.023 398.422V403.367C115.44 403.555 115.797 403.682 116.094 403.75C116.396 403.818 116.737 403.852 117.117 403.852C117.935 403.852 118.573 403.576 119.031 403.023C119.49 402.471 119.719 401.654 119.719 400.57ZM138.617 405H136.633L131.906 399.695H130.852V405H129.305V393.367H130.852V398.586C131.117 398.581 131.367 398.555 131.602 398.508C131.836 398.461 132.057 398.372 132.266 398.242C132.474 398.122 132.68 397.953 132.883 397.734C133.086 397.51 133.266 397.237 133.422 396.914C133.49 396.773 133.568 396.596 133.656 396.383C133.75 396.169 133.844 395.945 133.938 395.711C134.297 394.846 134.716 394.24 135.195 393.891C135.68 393.542 136.391 393.367 137.328 393.367H137.945V394.75H137.297C136.938 394.75 136.656 394.784 136.453 394.852C136.25 394.914 136.068 395.021 135.906 395.172C135.755 395.307 135.622 395.49 135.508 395.719C135.398 395.948 135.284 396.216 135.164 396.523C134.893 397.211 134.617 397.716 134.336 398.039C134.06 398.362 133.688 398.643 133.219 398.883L138.617 405ZM147.281 405H145.812V397.508H142.555C142.539 397.94 142.523 398.357 142.508 398.758C142.492 399.159 142.477 399.521 142.461 399.844C142.424 400.714 142.365 401.409 142.281 401.93C142.198 402.445 142.089 402.875 141.953 403.219C141.828 403.542 141.688 403.805 141.531 404.008C141.38 404.206 141.216 404.385 141.039 404.547C140.862 404.703 140.664 404.82 140.445 404.898C140.232 404.977 139.997 405.016 139.742 405.016C139.654 405.016 139.523 405.013 139.352 405.008C139.185 405.003 139.076 405 139.023 405V403.719H139.102C139.143 403.719 139.203 403.721 139.281 403.727C139.359 403.732 139.424 403.734 139.477 403.734C139.602 403.734 139.729 403.716 139.859 403.68C139.995 403.643 140.109 403.576 140.203 403.477C140.469 403.216 140.682 402.776 140.844 402.156C141.005 401.536 141.112 400.641 141.164 399.469C141.185 399.042 141.203 398.536 141.219 397.953C141.24 397.365 141.258 396.805 141.273 396.273H147.281V405ZM156.961 405H155.5V404.07C155.37 404.159 155.193 404.284 154.969 404.445C154.75 404.602 154.536 404.727 154.328 404.82C154.083 404.94 153.802 405.039 153.484 405.117C153.167 405.201 152.794 405.242 152.367 405.242C151.581 405.242 150.914 404.982 150.367 404.461C149.82 403.94 149.547 403.276 149.547 402.469C149.547 401.807 149.688 401.273 149.969 400.867C150.255 400.456 150.661 400.133 151.188 399.898C151.719 399.664 152.357 399.505 153.102 399.422C153.846 399.339 154.646 399.276 155.5 399.234V399.008C155.5 398.674 155.44 398.398 155.32 398.18C155.206 397.961 155.039 397.789 154.82 397.664C154.612 397.544 154.362 397.464 154.07 397.422C153.779 397.38 153.474 397.359 153.156 397.359C152.771 397.359 152.341 397.411 151.867 397.516C151.393 397.615 150.904 397.76 150.398 397.953H150.32V396.461C150.607 396.383 151.021 396.297 151.562 396.203C152.104 396.109 152.638 396.062 153.164 396.062C153.779 396.062 154.312 396.115 154.766 396.219C155.224 396.318 155.62 396.49 155.953 396.734C156.281 396.974 156.531 397.284 156.703 397.664C156.875 398.044 156.961 398.516 156.961 399.078V405ZM155.5 402.852V400.422C155.052 400.448 154.523 400.487 153.914 400.539C153.31 400.591 152.831 400.667 152.477 400.766C152.055 400.885 151.714 401.073 151.453 401.328C151.193 401.578 151.062 401.924 151.062 402.367C151.062 402.867 151.214 403.245 151.516 403.5C151.818 403.75 152.279 403.875 152.898 403.875C153.414 403.875 153.885 403.776 154.312 403.578C154.74 403.375 155.135 403.133 155.5 402.852ZM166.32 404.453C165.721 404.734 165.206 404.927 164.773 405.031C164.346 405.141 163.919 405.195 163.492 405.195C162.857 405.195 162.273 405.104 161.742 404.922C161.211 404.734 160.755 404.453 160.375 404.078C159.995 403.703 159.698 403.229 159.484 402.656C159.276 402.083 159.172 401.414 159.172 400.648C159.172 399.258 159.557 398.148 160.328 397.32C161.099 396.487 162.154 396.07 163.492 396.07C163.997 396.07 164.492 396.141 164.977 396.281C165.466 396.422 165.914 396.594 166.32 396.797V398.43H166.234C165.75 398.06 165.271 397.786 164.797 397.609C164.328 397.432 163.872 397.344 163.43 397.344C162.56 397.344 161.885 397.635 161.406 398.219C160.932 398.802 160.695 399.612 160.695 400.648C160.695 401.685 160.932 402.49 161.406 403.062C161.88 403.635 162.555 403.922 163.43 403.922C163.737 403.922 164.042 403.883 164.344 403.805C164.651 403.727 164.93 403.625 165.18 403.5C165.378 403.401 165.581 403.284 165.789 403.148C166.003 403.008 166.151 402.904 166.234 402.836H166.32V404.453ZM174.867 404.453C174.268 404.734 173.753 404.927 173.32 405.031C172.893 405.141 172.466 405.195 172.039 405.195C171.404 405.195 170.82 405.104 170.289 404.922C169.758 404.734 169.302 404.453 168.922 404.078C168.542 403.703 168.245 403.229 168.031 402.656C167.823 402.083 167.719 401.414 167.719 400.648C167.719 399.258 168.104 398.148 168.875 397.32C169.646 396.487 170.701 396.07 172.039 396.07C172.544 396.07 173.039 396.141 173.523 396.281C174.013 396.422 174.461 396.594 174.867 396.797V398.43H174.781C174.297 398.06 173.818 397.786 173.344 397.609C172.875 397.432 172.419 397.344 171.977 397.344C171.107 397.344 170.432 397.635 169.953 398.219C169.479 398.802 169.242 399.612 169.242 400.648C169.242 401.685 169.479 402.49 169.953 403.062C170.427 403.635 171.102 403.922 171.977 403.922C172.284 403.922 172.589 403.883 172.891 403.805C173.198 403.727 173.477 403.625 173.727 403.5C173.924 403.401 174.128 403.284 174.336 403.148C174.549 403.008 174.698 402.904 174.781 402.836H174.867V404.453ZM182.258 402.32C182.258 402.055 182.211 401.823 182.117 401.625C182.029 401.422 181.88 401.258 181.672 401.133C181.453 401.003 181.203 400.924 180.922 400.898C180.646 400.872 180.247 400.859 179.727 400.859H178.352V403.828H179.695C180.216 403.828 180.62 403.807 180.906 403.766C181.193 403.719 181.44 403.633 181.648 403.508C181.862 403.372 182.016 403.214 182.109 403.031C182.208 402.844 182.258 402.607 182.258 402.32ZM183.773 402.297C183.773 402.719 183.688 403.102 183.516 403.445C183.349 403.789 183.12 404.068 182.828 404.281C182.484 404.542 182.117 404.727 181.727 404.836C181.336 404.945 180.833 405 180.219 405H176.883V396.273H178.352V399.672H180.258C180.914 399.672 181.422 399.706 181.781 399.773C182.146 399.841 182.508 400.008 182.867 400.273C183.169 400.497 183.396 400.784 183.547 401.133C183.698 401.482 183.773 401.87 183.773 402.297ZM185.234 396.273H186.703V405H185.234V396.273ZM192.648 402.773L190.445 407.891H189.305L190.664 402.773H192.648ZM73.5469 423.156C73.2604 423.281 73 423.398 72.7656 423.508C72.5365 423.617 72.2344 423.732 71.8594 423.852C71.5417 423.951 71.1953 424.034 70.8203 424.102C70.4505 424.174 70.0417 424.211 69.5938 424.211C68.75 424.211 67.9818 424.094 67.2891 423.859C66.6016 423.62 66.0026 423.247 65.4922 422.742C64.9922 422.247 64.6016 421.62 64.3203 420.859C64.0391 420.094 63.8984 419.206 63.8984 418.195C63.8984 417.237 64.0339 416.38 64.3047 415.625C64.5755 414.87 64.9661 414.232 65.4766 413.711C65.9714 413.206 66.5677 412.82 67.2656 412.555C67.9688 412.289 68.7474 412.156 69.6016 412.156C70.2266 412.156 70.849 412.232 71.4688 412.383C72.0938 412.534 72.7865 412.799 73.5469 413.18V415.016H73.4297C72.7891 414.479 72.1536 414.089 71.5234 413.844C70.8932 413.599 70.2188 413.477 69.5 413.477C68.9115 413.477 68.3802 413.573 67.9062 413.766C67.4375 413.953 67.0182 414.247 66.6484 414.648C66.2891 415.039 66.0078 415.534 65.8047 416.133C65.6068 416.727 65.5078 417.414 65.5078 418.195C65.5078 419.013 65.6172 419.716 65.8359 420.305C66.0599 420.893 66.3464 421.372 66.6953 421.742C67.0599 422.128 67.4844 422.414 67.9688 422.602C68.4583 422.784 68.974 422.875 69.5156 422.875C70.2604 422.875 70.9583 422.747 71.6094 422.492C72.2604 422.237 72.8698 421.854 73.4375 421.344H73.5469V423.156ZM82.9219 419.789H76.4922C76.4922 420.326 76.5729 420.794 76.7344 421.195C76.8958 421.591 77.1172 421.917 77.3984 422.172C77.6693 422.422 77.9896 422.609 78.3594 422.734C78.7344 422.859 79.1458 422.922 79.5938 422.922C80.1875 422.922 80.7839 422.805 81.3828 422.57C81.987 422.331 82.4167 422.096 82.6719 421.867H82.75V423.469C82.2552 423.677 81.75 423.852 81.2344 423.992C80.7188 424.133 80.1771 424.203 79.6094 424.203C78.1615 424.203 77.0312 423.812 76.2188 423.031C75.4062 422.245 75 421.13 75 419.688C75 418.26 75.388 417.128 76.1641 416.289C76.9453 415.451 77.9714 415.031 79.2422 415.031C80.4193 415.031 81.3255 415.375 81.9609 416.062C82.6016 416.75 82.9219 417.727 82.9219 418.992V419.789ZM81.4922 418.664C81.487 417.893 81.2917 417.297 80.9062 416.875C80.526 416.453 79.9453 416.242 79.1641 416.242C78.3776 416.242 77.75 416.474 77.2812 416.938C76.8177 417.401 76.5547 417.977 76.4922 418.664H81.4922ZM93.3984 424H91.9453V417.109L89.7734 421.594H88.6797L86.5234 417.109V424H85.1484V415.273H86.9219L89.2969 420.156L91.5938 415.273H93.3984V424ZM103.641 424H102.188V417.445L97.6172 424H96.2891V415.273H97.7422V421.734L102.266 415.273H103.641V424ZM113.844 424H112.375V420.07H108.008V424H106.539V415.273H108.008V418.805H112.375V415.273H113.844V424ZM123.523 424H122.062V423.07C121.932 423.159 121.755 423.284 121.531 423.445C121.312 423.602 121.099 423.727 120.891 423.82C120.646 423.94 120.365 424.039 120.047 424.117C119.729 424.201 119.357 424.242 118.93 424.242C118.143 424.242 117.477 423.982 116.93 423.461C116.383 422.94 116.109 422.276 116.109 421.469C116.109 420.807 116.25 420.273 116.531 419.867C116.818 419.456 117.224 419.133 117.75 418.898C118.281 418.664 118.919 418.505 119.664 418.422C120.409 418.339 121.208 418.276 122.062 418.234V418.008C122.062 417.674 122.003 417.398 121.883 417.18C121.768 416.961 121.602 416.789 121.383 416.664C121.174 416.544 120.924 416.464 120.633 416.422C120.341 416.38 120.036 416.359 119.719 416.359C119.333 416.359 118.904 416.411 118.43 416.516C117.956 416.615 117.466 416.76 116.961 416.953H116.883V415.461C117.169 415.383 117.583 415.297 118.125 415.203C118.667 415.109 119.201 415.062 119.727 415.062C120.341 415.062 120.875 415.115 121.328 415.219C121.786 415.318 122.182 415.49 122.516 415.734C122.844 415.974 123.094 416.284 123.266 416.664C123.438 417.044 123.523 417.516 123.523 418.078V424ZM122.062 421.852V419.422C121.615 419.448 121.086 419.487 120.477 419.539C119.872 419.591 119.393 419.667 119.039 419.766C118.617 419.885 118.276 420.073 118.016 420.328C117.755 420.578 117.625 420.924 117.625 421.367C117.625 421.867 117.776 422.245 118.078 422.5C118.38 422.75 118.841 422.875 119.461 422.875C119.977 422.875 120.448 422.776 120.875 422.578C121.302 422.375 121.698 422.133 122.062 421.852ZM134.031 419.531C134.031 420.24 133.93 420.888 133.727 421.477C133.523 422.06 133.237 422.555 132.867 422.961C132.523 423.346 132.117 423.646 131.648 423.859C131.185 424.068 130.693 424.172 130.172 424.172C129.719 424.172 129.307 424.122 128.938 424.023C128.573 423.924 128.201 423.771 127.82 423.562V427.219H126.352V415.273H127.82V416.188C128.211 415.859 128.648 415.586 129.133 415.367C129.622 415.143 130.143 415.031 130.695 415.031C131.747 415.031 132.565 415.43 133.148 416.227C133.737 417.018 134.031 418.12 134.031 419.531ZM132.516 419.57C132.516 418.518 132.336 417.732 131.977 417.211C131.617 416.69 131.065 416.43 130.32 416.43C129.898 416.43 129.474 416.521 129.047 416.703C128.62 416.885 128.211 417.125 127.82 417.422V422.367C128.237 422.555 128.594 422.682 128.891 422.75C129.193 422.818 129.534 422.852 129.914 422.852C130.732 422.852 131.37 422.576 131.828 422.023C132.286 421.471 132.516 420.654 132.516 419.57ZM141.695 421.32C141.695 421.055 141.648 420.823 141.555 420.625C141.466 420.422 141.318 420.258 141.109 420.133C140.891 420.003 140.641 419.924 140.359 419.898C140.083 419.872 139.685 419.859 139.164 419.859H137.789V422.828H139.133C139.654 422.828 140.057 422.807 140.344 422.766C140.63 422.719 140.878 422.633 141.086 422.508C141.299 422.372 141.453 422.214 141.547 422.031C141.646 421.844 141.695 421.607 141.695 421.32ZM143.211 421.297C143.211 421.719 143.125 422.102 142.953 422.445C142.786 422.789 142.557 423.068 142.266 423.281C141.922 423.542 141.555 423.727 141.164 423.836C140.773 423.945 140.271 424 139.656 424H136.32V415.273H137.789V418.672H139.695C140.352 418.672 140.859 418.706 141.219 418.773C141.583 418.841 141.945 419.008 142.305 419.273C142.607 419.497 142.833 419.784 142.984 420.133C143.135 420.482 143.211 420.87 143.211 421.297ZM144.672 415.273H146.141V424H144.672V415.273Z" fill="#333333"/>
<path d="M30 458L37.5 465.5L50 450.5" stroke="#61B857" stroke-width="2" stroke-linecap="round" stroke-linejoin="round"/>
<path d="M73.3438 460.898C73.3438 461.461 73.2318 461.971 73.0078 462.43C72.7891 462.888 72.4948 463.26 72.125 463.547C71.6875 463.891 71.2188 464.135 70.7188 464.281C70.2188 464.427 69.5729 464.5 68.7812 464.5H64.5625V452.867H72.3516V454.242H66.1094V457.43H68.8281C69.6198 457.43 70.2656 457.477 70.7656 457.57C71.2656 457.659 71.737 457.875 72.1797 458.219C72.5755 458.526 72.8672 458.906 73.0547 459.359C73.2474 459.812 73.3438 460.326 73.3438 460.898ZM71.7266 460.93C71.7266 460.539 71.6615 460.195 71.5312 459.898C71.401 459.602 71.1979 459.362 70.9219 459.18C70.6354 458.987 70.3047 458.87 69.9297 458.828C69.5547 458.786 69.026 458.766 68.3438 458.766H66.1094V463.18H68.3047C68.9974 463.18 69.5286 463.146 69.8984 463.078C70.2734 463.01 70.6016 462.88 70.8828 462.688C71.1745 462.484 71.388 462.247 71.5234 461.977C71.6589 461.701 71.7266 461.352 71.7266 460.93ZM82.7656 464.5H81.3125V457.945L76.7422 464.5H75.4141V455.773H76.8672V462.234L81.3906 455.773H82.7656V464.5ZM91.7344 462.055C91.7344 462.544 91.6198 462.958 91.3906 463.297C91.1667 463.635 90.8776 463.909 90.5234 464.117C90.1693 464.32 89.7786 464.469 89.3516 464.562C88.9245 464.656 88.4974 464.703 88.0703 464.703C87.4661 464.703 86.8906 464.646 86.3438 464.531C85.7969 464.417 85.2578 464.24 84.7266 464V462.391H84.8281C85.2083 462.724 85.6927 462.982 86.2812 463.164C86.8698 463.346 87.4401 463.438 87.9922 463.438C88.2526 463.438 88.5208 463.414 88.7969 463.367C89.0729 463.315 89.3125 463.234 89.5156 463.125C89.7344 463 89.9089 462.852 90.0391 462.68C90.1693 462.503 90.2344 462.263 90.2344 461.961C90.2344 461.648 90.1693 461.398 90.0391 461.211C89.9141 461.023 89.7422 460.883 89.5234 460.789C89.3099 460.695 89.0521 460.638 88.75 460.617C88.4479 460.596 88.1719 460.586 87.9219 460.586H86.6484V459.32H87.5312C87.7396 459.32 88.0104 459.312 88.3438 459.297C88.6823 459.281 88.9557 459.24 89.1641 459.172C89.4349 459.083 89.6484 458.958 89.8047 458.797C89.9661 458.635 90.0469 458.378 90.0469 458.023C90.0469 457.779 89.9844 457.578 89.8594 457.422C89.7344 457.26 89.5781 457.135 89.3906 457.047C89.1979 456.958 88.9818 456.898 88.7422 456.867C88.5078 456.836 88.2995 456.82 88.1172 456.82C87.5859 456.82 87.0625 456.893 86.5469 457.039C86.0365 457.18 85.6068 457.385 85.2578 457.656H85.1562V456.039C85.5885 455.898 86.0521 455.784 86.5469 455.695C87.0417 455.607 87.5365 455.562 88.0312 455.562C88.4375 455.562 88.8411 455.599 89.2422 455.672C89.6484 455.745 90.026 455.87 90.375 456.047C90.7188 456.224 91 456.466 91.2188 456.773C91.4375 457.076 91.5469 457.451 91.5469 457.898C91.5469 458.357 91.4036 458.76 91.1172 459.109C90.8359 459.453 90.4557 459.701 89.9766 459.852V459.906C90.513 460.036 90.9401 460.281 91.2578 460.641C91.5755 460.995 91.7344 461.466 91.7344 462.055ZM101.359 464.5H99.8906V460.57H95.5234V464.5H94.0547V455.773H95.5234V459.305H99.8906V455.773H101.359V464.5ZM111.562 460.289H105.133C105.133 460.826 105.214 461.294 105.375 461.695C105.536 462.091 105.758 462.417 106.039 462.672C106.31 462.922 106.63 463.109 107 463.234C107.375 463.359 107.786 463.422 108.234 463.422C108.828 463.422 109.424 463.305 110.023 463.07C110.628 462.831 111.057 462.596 111.312 462.367H111.391V463.969C110.896 464.177 110.391 464.352 109.875 464.492C109.359 464.633 108.818 464.703 108.25 464.703C106.802 464.703 105.672 464.312 104.859 463.531C104.047 462.745 103.641 461.63 103.641 460.188C103.641 458.76 104.029 457.628 104.805 456.789C105.586 455.951 106.612 455.531 107.883 455.531C109.06 455.531 109.966 455.875 110.602 456.562C111.242 457.25 111.562 458.227 111.562 459.492V460.289ZM110.133 459.164C110.128 458.393 109.932 457.797 109.547 457.375C109.167 456.953 108.586 456.742 107.805 456.742C107.018 456.742 106.391 456.974 105.922 457.438C105.458 457.901 105.195 458.477 105.133 459.164H110.133ZM120.32 463.953C119.721 464.234 119.206 464.427 118.773 464.531C118.346 464.641 117.919 464.695 117.492 464.695C116.857 464.695 116.273 464.604 115.742 464.422C115.211 464.234 114.755 463.953 114.375 463.578C113.995 463.203 113.698 462.729 113.484 462.156C113.276 461.583 113.172 460.914 113.172 460.148C113.172 458.758 113.557 457.648 114.328 456.82C115.099 455.987 116.154 455.57 117.492 455.57C117.997 455.57 118.492 455.641 118.977 455.781C119.466 455.922 119.914 456.094 120.32 456.297V457.93H120.234C119.75 457.56 119.271 457.286 118.797 457.109C118.328 456.932 117.872 456.844 117.43 456.844C116.56 456.844 115.885 457.135 115.406 457.719C114.932 458.302 114.695 459.112 114.695 460.148C114.695 461.185 114.932 461.99 115.406 462.562C115.88 463.135 116.555 463.422 117.43 463.422C117.737 463.422 118.042 463.383 118.344 463.305C118.651 463.227 118.93 463.125 119.18 463C119.378 462.901 119.581 462.784 119.789 462.648C120.003 462.508 120.151 462.404 120.234 462.336H120.32V463.953ZM136.703 464.5H135.156V454.242H130.953C130.938 454.831 130.914 455.409 130.883 455.977C130.857 456.539 130.836 457.042 130.82 457.484C130.779 458.599 130.708 459.516 130.609 460.234C130.516 460.953 130.393 461.544 130.242 462.008C130.091 462.477 129.919 462.852 129.727 463.133C129.539 463.409 129.323 463.659 129.078 463.883C128.828 464.112 128.57 464.276 128.305 464.375C128.044 464.474 127.737 464.523 127.383 464.523C127.273 464.523 127.141 464.518 126.984 464.508C126.828 464.503 126.719 464.5 126.656 464.5V463H126.766C126.818 463.005 126.883 463.01 126.961 463.016C127.039 463.021 127.117 463.023 127.195 463.023C127.383 463.023 127.56 462.995 127.727 462.938C127.893 462.88 128.034 462.792 128.148 462.672C128.518 462.302 128.789 461.693 128.961 460.844C129.138 459.995 129.263 458.786 129.336 457.219C129.362 456.708 129.388 456.031 129.414 455.188C129.445 454.344 129.471 453.57 129.492 452.867H136.703V464.5ZM146.492 464.5H145.031V463.57C144.901 463.659 144.724 463.784 144.5 463.945C144.281 464.102 144.068 464.227 143.859 464.32C143.615 464.44 143.333 464.539 143.016 464.617C142.698 464.701 142.326 464.742 141.898 464.742C141.112 464.742 140.445 464.482 139.898 463.961C139.352 463.44 139.078 462.776 139.078 461.969C139.078 461.307 139.219 460.773 139.5 460.367C139.786 459.956 140.193 459.633 140.719 459.398C141.25 459.164 141.888 459.005 142.633 458.922C143.378 458.839 144.177 458.776 145.031 458.734V458.508C145.031 458.174 144.971 457.898 144.852 457.68C144.737 457.461 144.57 457.289 144.352 457.164C144.143 457.044 143.893 456.964 143.602 456.922C143.31 456.88 143.005 456.859 142.688 456.859C142.302 456.859 141.872 456.911 141.398 457.016C140.924 457.115 140.435 457.26 139.93 457.453H139.852V455.961C140.138 455.883 140.552 455.797 141.094 455.703C141.635 455.609 142.169 455.562 142.695 455.562C143.31 455.562 143.844 455.615 144.297 455.719C144.755 455.818 145.151 455.99 145.484 456.234C145.812 456.474 146.062 456.784 146.234 457.164C146.406 457.544 146.492 458.016 146.492 458.578V464.5ZM145.031 462.352V459.922C144.583 459.948 144.055 459.987 143.445 460.039C142.841 460.091 142.362 460.167 142.008 460.266C141.586 460.385 141.245 460.573 140.984 460.828C140.724 461.078 140.594 461.424 140.594 461.867C140.594 462.367 140.745 462.745 141.047 463C141.349 463.25 141.81 463.375 142.43 463.375C142.945 463.375 143.417 463.276 143.844 463.078C144.271 462.875 144.667 462.633 145.031 462.352ZM155.336 457.062H150.789V464.5H149.32V455.773H155.336V457.062ZM164.172 460.289H157.742C157.742 460.826 157.823 461.294 157.984 461.695C158.146 462.091 158.367 462.417 158.648 462.672C158.919 462.922 159.24 463.109 159.609 463.234C159.984 463.359 160.396 463.422 160.844 463.422C161.438 463.422 162.034 463.305 162.633 463.07C163.237 462.831 163.667 462.596 163.922 462.367H164V463.969C163.505 464.177 163 464.352 162.484 464.492C161.969 464.633 161.427 464.703 160.859 464.703C159.411 464.703 158.281 464.312 157.469 463.531C156.656 462.745 156.25 461.63 156.25 460.188C156.25 458.76 156.638 457.628 157.414 456.789C158.195 455.951 159.221 455.531 160.492 455.531C161.669 455.531 162.576 455.875 163.211 456.562C163.852 457.25 164.172 458.227 164.172 459.492V460.289ZM162.742 459.164C162.737 458.393 162.542 457.797 162.156 457.375C161.776 456.953 161.195 456.742 160.414 456.742C159.628 456.742 159 456.974 158.531 457.438C158.068 457.901 157.805 458.477 157.742 459.164H162.742ZM174.078 460.031C174.078 460.74 173.977 461.388 173.773 461.977C173.57 462.56 173.284 463.055 172.914 463.461C172.57 463.846 172.164 464.146 171.695 464.359C171.232 464.568 170.74 464.672 170.219 464.672C169.766 464.672 169.354 464.622 168.984 464.523C168.62 464.424 168.247 464.271 167.867 464.062V467.719H166.398V455.773H167.867V456.688C168.258 456.359 168.695 456.086 169.18 455.867C169.669 455.643 170.19 455.531 170.742 455.531C171.794 455.531 172.612 455.93 173.195 456.727C173.784 457.518 174.078 458.62 174.078 460.031ZM172.562 460.07C172.562 459.018 172.383 458.232 172.023 457.711C171.664 457.19 171.112 456.93 170.367 456.93C169.945 456.93 169.521 457.021 169.094 457.203C168.667 457.385 168.258 457.625 167.867 457.922V462.867C168.284 463.055 168.641 463.182 168.938 463.25C169.24 463.318 169.581 463.352 169.961 463.352C170.779 463.352 171.417 463.076 171.875 462.523C172.333 461.971 172.562 461.154 172.562 460.07ZM183.07 464.5H181.602V461.039H179.875L177.172 464.5H175.445L178.383 460.898C177.628 460.69 177.076 460.372 176.727 459.945C176.378 459.513 176.203 458.948 176.203 458.25C176.203 457.786 176.307 457.393 176.516 457.07C176.724 456.747 176.987 456.484 177.305 456.281C177.617 456.083 177.977 455.951 178.383 455.883C178.789 455.81 179.232 455.773 179.711 455.773H183.07V464.5ZM181.602 459.883V456.945H179.75C179.349 456.945 179.06 456.958 178.883 456.984C178.706 457.01 178.513 457.081 178.305 457.195C178.102 457.31 177.951 457.466 177.852 457.664C177.758 457.857 177.711 458.068 177.711 458.297C177.711 458.583 177.74 458.815 177.797 458.992C177.859 459.169 177.984 459.336 178.172 459.492C178.365 459.643 178.599 459.747 178.875 459.805C179.151 459.857 179.458 459.883 179.797 459.883H181.602Z" fill="#333333"/>
</g>
<defs>
<filter id="filter0_d_170_4011" x="0" y="0" width="326" height="540" filterUnits="userSpaceOnUse" color-interpolation-filters="sRGB">
<feFlood flood-opacity="0" result="BackgroundImageFix"/>
<feColorMatrix in="SourceAlpha" type="matrix" values="0 0 0 0 0 0 0 0 0 0 0 0 0 0 0 0 0 0 127 0" result="hardAlpha"/>
<feOffset dx="3" dy="5"/>
<feGaussianBlur stdDeviation="10"/>
<feComposite in2="hardAlpha" operator="out"/>
<feColorMatrix type="matrix" values="0 0 0 0 0.2 0 0 0 0 0.2 0 0 0 0 0.2 0 0 0 0.1 0"/>
<feBlend mode="normal" in2="BackgroundImageFix" result="effect1_dropShadow_170_4011"/>
<feBlend mode="normal" in="SourceGraphic" in2="effect1_dropShadow_170_4011" result="shape"/>
</filter>
<filter id="filter1_d_170_4011" x="22" y="28" width="112" height="112" filterUnits="userSpaceOnUse" color-interpolation-filters="sRGB">
<feFlood flood-opacity="0" result="BackgroundImageFix"/>
<feColorMatrix in="SourceAlpha" type="matrix" values="0 0 0 0 0 0 0 0 0 0 0 0 0 0 0 0 0 0 127 0" result="hardAlpha"/>
<feOffset dx="3" dy="3"/>
<feGaussianBlur stdDeviation="3"/>
<feComposite in2="hardAlpha" operator="out"/>
<feColorMatrix type="matrix" values="0 0 0 0 0.2 0 0 0 0 0.2 0 0 0 0 0.2 0 0 0 0.25 0"/>
<feBlend mode="normal" in2="BackgroundImageFix" result="effect1_dropShadow_170_4011"/>
<feBlend mode="normal" in="SourceGraphic" in2="effect1_dropShadow_170_4011" result="shape"/>
</filter>
</defs>
</svg>
