<svg width="40" height="40" viewBox="0 0 40 40" fill="none" xmlns="http://www.w3.org/2000/svg">
<path d="M8.48568 32.9701L8.93967 32.0791L8.48568 32.9701ZM7.02933 31.5135L6.13832 31.9675H6.13832L7.02933 31.5135ZM32.9697 31.5135L32.0787 31.0596L32.9697 31.5135ZM31.5123 32.9701L31.0583 32.0791L31.5123 32.9701ZM31.5123 7.03014L31.9663 6.13913L31.5123 7.03014ZM32.9697 8.4869L32.0787 8.94089V8.94089L32.9697 8.4869ZM8.48568 7.03014L8.93967 7.92115L8.48568 7.03014ZM7.02933 8.4869L7.92033 8.94089L7.02933 8.4869ZM26.666 26.6668V25.6668C26.1137 25.6668 25.666 26.1145 25.666 26.6668H26.666ZM26.6693 26.6668L27.6691 26.6902C27.6754 26.421 27.5728 26.1606 27.3847 25.968C27.1965 25.7754 26.9386 25.6668 26.6693 25.6668V26.6668ZM26.6693 26.6702L26.6454 27.6699C26.9106 27.6762 27.1675 27.5769 27.3595 27.3938C27.5515 27.2107 27.6628 26.9588 27.669 26.6935L26.6693 26.6702ZM26.666 26.6701H25.666C25.666 27.2131 26.0993 27.6568 26.6421 27.6698L26.666 26.6701ZM19.9993 26.6668V25.6668C19.4471 25.6668 18.9993 26.1145 18.9993 26.6668H19.9993ZM20.0027 26.6668L21.0024 26.6902C21.0087 26.421 20.9062 26.1606 20.718 25.968C20.5298 25.7754 20.2719 25.6668 20.0027 25.6668V26.6668ZM20.0026 26.6702L19.9787 27.6699C20.2439 27.6762 20.5008 27.5769 20.6928 27.3938C20.8848 27.2107 20.9961 26.9588 21.0023 26.6935L20.0026 26.6702ZM19.9993 26.6701H18.9993C18.9993 27.2131 19.4326 27.6568 19.9754 27.6698L19.9993 26.6701ZM13.3327 26.6668V25.6668C12.7804 25.6668 12.3327 26.1145 12.3327 26.6668H13.3327ZM13.336 26.6668L14.3357 26.6902C14.342 26.421 14.2395 26.1606 14.0513 25.968C13.8632 25.7754 13.6053 25.6668 13.336 25.6668V26.6668ZM13.3359 26.6702L13.312 27.6699C13.5773 27.6762 13.8341 27.5769 14.0261 27.3938C14.2181 27.2107 14.3295 26.9588 14.3357 26.6935L13.3359 26.6702ZM13.3327 26.6701H12.3327C12.3327 27.2131 12.766 27.6568 13.3088 27.6698L13.3327 26.6701ZM26.6693 20.0002H27.6693C27.6693 19.4479 27.2216 19.0002 26.6693 19.0002V20.0002ZM26.6693 20.0035L26.6454 21.0032C26.9146 21.0097 27.1751 20.9072 27.3679 20.719C27.5606 20.5308 27.6693 20.2729 27.6693 20.0035H26.6693ZM26.666 20.0034H25.666C25.666 20.5464 26.0993 20.9901 26.6421 21.0031L26.666 20.0034ZM26.666 20.0002V19.0002C26.1137 19.0002 25.666 19.4479 25.666 20.0002H26.666ZM19.9993 20.0002V19.0002C19.4471 19.0002 18.9993 19.4479 18.9993 20.0002H19.9993ZM20.0027 20.0002L21.0024 20.0235C21.0087 19.7543 20.9062 19.494 20.718 19.3014C20.5298 19.1088 20.2719 19.0002 20.0027 19.0002V20.0002ZM20.0026 20.0035L19.9787 21.0032C20.2439 21.0096 20.5008 20.9102 20.6928 20.7271C20.8848 20.544 20.9961 20.2921 21.0023 20.0269L20.0026 20.0035ZM19.9993 20.0034H18.9993C18.9993 20.5464 19.4326 20.9901 19.9754 21.0031L19.9993 20.0034ZM13.3327 20.0002V19.0002C12.7804 19.0002 12.3327 19.4479 12.3327 20.0002H13.3327ZM13.336 20.0002L14.3357 20.0235C14.342 19.7543 14.2395 19.494 14.0513 19.3014C13.8632 19.1088 13.6053 19.0002 13.336 19.0002V20.0002ZM13.3359 20.0035L13.312 21.0032C13.5773 21.0096 13.8341 20.9102 14.0261 20.7271C14.2181 20.544 14.3295 20.2921 14.3357 20.0269L13.3359 20.0035ZM13.3327 20.0034H12.3327C12.3327 20.5464 12.766 20.9901 13.3088 21.0031L13.3327 20.0034ZM6.66602 12.3335C6.11373 12.3335 5.66602 12.7812 5.66602 13.3335C5.66602 13.8858 6.11373 14.3335 6.66602 14.3335V12.3335ZM33.3327 14.3335C33.885 14.3335 34.3327 13.8858 34.3327 13.3335C34.3327 12.7812 33.885 12.3335 33.3327 12.3335V14.3335ZM27.666 3.3335C27.666 2.78121 27.2183 2.3335 26.666 2.3335C26.1137 2.3335 25.666 2.78121 25.666 3.3335H27.666ZM25.666 6.66683C25.666 7.21911 26.1137 7.66683 26.666 7.66683C27.2183 7.66683 27.666 7.21911 27.666 6.66683H25.666ZM14.3327 3.3335C14.3327 2.78121 13.885 2.3335 13.3327 2.3335C12.7804 2.3335 12.3327 2.78121 12.3327 3.3335H14.3327ZM12.3327 6.66683C12.3327 7.21911 12.7804 7.66683 13.3327 7.66683C13.885 7.66683 14.3327 7.21911 14.3327 6.66683H12.3327ZM11.9997 7.66683H27.9997V5.66683H11.9997V7.66683ZM32.3327 12.0001V28.0001H34.3327V12.0001H32.3327ZM27.9997 32.3335H11.9997V34.3335H27.9997V32.3335ZM7.66602 28.0001V12.0001H5.66602V28.0001H7.66602ZM11.9997 32.3335C11.0498 32.3335 10.3973 32.3327 9.89143 32.2914C9.39718 32.251 9.13168 32.177 8.93967 32.0791L8.03169 33.8611C8.55272 34.1266 9.11079 34.2343 9.72857 34.2847C10.3347 34.3343 11.0827 34.3335 11.9997 34.3335V32.3335ZM5.66602 28.0001C5.66602 28.917 5.66524 29.6649 5.71475 30.2709C5.76521 30.8886 5.87286 31.4465 6.13832 31.9675L7.92033 31.0596C7.82249 30.8675 7.74847 30.6021 7.70811 30.1081C7.66679 29.6023 7.66602 28.95 7.66602 28.0001H5.66602ZM8.93967 32.0791C8.50077 31.8555 8.14412 31.4988 7.92033 31.0596L6.13832 31.9675C6.55369 32.7828 7.21617 33.4456 8.03169 33.8611L8.93967 32.0791ZM32.3327 28.0001C32.3327 28.9501 32.332 29.6024 32.2908 30.1082C32.2505 30.6023 32.1765 30.8676 32.0787 31.0596L33.8607 31.9675C34.1263 31.4464 34.2338 30.8884 34.2841 30.2708C34.3335 29.6648 34.3327 28.9169 34.3327 28.0001H32.3327ZM27.9997 34.3335C28.9166 34.3335 29.6643 34.3343 30.2702 34.2847C30.8878 34.2342 31.4454 34.1266 31.9663 33.8611L31.0583 32.0791C30.8662 32.177 30.6009 32.251 30.1072 32.2914C29.6017 32.3327 28.9496 32.3335 27.9997 32.3335V34.3335ZM32.0787 31.0596C31.8553 31.4981 31.4979 31.8552 31.0583 32.0791L31.9663 33.8611C32.7812 33.446 33.445 32.7834 33.8607 31.9675L32.0787 31.0596ZM27.9997 7.66683C28.9496 7.66683 29.6017 7.66761 30.1072 7.70892C30.601 7.74927 30.8662 7.82326 31.0583 7.92115L31.9663 6.13913C31.4454 5.87371 30.8877 5.76604 30.2701 5.71557C29.6643 5.66605 28.9166 5.66683 27.9997 5.66683V7.66683ZM34.3327 12.0001C34.3327 11.0833 34.3335 10.3355 34.2841 9.72954C34.2338 9.11192 34.1262 8.554 33.8607 8.03291L32.0787 8.94089C32.1765 9.13284 32.2505 9.39808 32.2908 9.89209C32.332 10.3978 32.3327 11.0501 32.3327 12.0001H34.3327ZM31.0583 7.92115C31.4978 8.14506 31.8552 8.50225 32.0787 8.94089L33.8607 8.03291C33.4451 7.21713 32.7813 6.55438 31.9663 6.13913L31.0583 7.92115ZM11.9997 5.66683C11.0827 5.66683 10.3348 5.66605 9.72859 5.71556C9.11082 5.76602 8.55273 5.87365 8.03169 6.13913L8.93967 7.92115C9.13166 7.82332 9.39715 7.74929 9.89141 7.70892C10.3973 7.66761 11.0498 7.66683 11.9997 7.66683V5.66683ZM7.66602 12.0001C7.66602 11.0502 7.66679 10.3979 7.70811 9.89225C7.74847 9.39829 7.82247 9.13295 7.92033 8.94089L6.13832 8.03291C5.87287 8.55388 5.76522 9.11171 5.71475 9.72938C5.66524 10.3354 5.66602 11.0832 5.66602 12.0001H7.66602ZM8.03169 6.13913C7.21606 6.55472 6.55364 7.2178 6.13832 8.03291L7.92033 8.94089C8.14417 8.50159 8.50088 8.14472 8.93967 7.92115L8.03169 6.13913ZM26.666 27.6668H26.6693V25.6668H26.666V27.6668ZM25.6696 26.6435L25.6695 26.6468L27.669 26.6935L27.6691 26.6902L25.6696 26.6435ZM26.6932 25.6704L26.6899 25.6704L26.6421 27.6698L26.6454 27.6699L26.6932 25.6704ZM27.666 26.6701V26.6668H25.666V26.6701H27.666ZM19.9993 27.6668H20.0027V25.6668H19.9993V27.6668ZM19.003 26.6435L19.0029 26.6468L21.0023 26.6935L21.0024 26.6902L19.003 26.6435ZM20.0265 25.6704L20.0233 25.6704L19.9754 27.6698L19.9787 27.6699L20.0265 25.6704ZM20.9993 26.6701V26.6668H18.9993V26.6701H20.9993ZM13.3327 27.6668H13.336V25.6668H13.3327V27.6668ZM12.3363 26.6435L12.3362 26.6468L14.3357 26.6935L14.3357 26.6902L12.3363 26.6435ZM13.3599 25.6704L13.3566 25.6704L13.3088 27.6698L13.312 27.6699L13.3599 25.6704ZM14.3327 26.6701V26.6668H12.3327V26.6701H14.3327ZM25.6693 20.0002V20.0035H27.6693V20.0002H25.6693ZM26.6932 19.0038L26.6899 19.0037L26.6421 21.0031L26.6454 21.0032L26.6932 19.0038ZM27.666 20.0034V20.0002H25.666V20.0034H27.666ZM26.666 21.0002H26.6693V19.0002H26.666V21.0002ZM19.9993 21.0002H20.0027V19.0002H19.9993V21.0002ZM19.003 19.9768L19.0029 19.9801L21.0023 20.0269L21.0024 20.0235L19.003 19.9768ZM20.0265 19.0038L20.0233 19.0037L19.9754 21.0031L19.9787 21.0032L20.0265 19.0038ZM20.9993 20.0034V20.0002H18.9993V20.0034H20.9993ZM13.3327 21.0002H13.336V19.0002H13.3327V21.0002ZM12.3363 19.9768L12.3362 19.9801L14.3357 20.0269L14.3357 20.0235L12.3363 19.9768ZM13.3599 19.0038L13.3566 19.0037L13.3088 21.0031L13.312 21.0032L13.3599 19.0038ZM14.3327 20.0034V20.0002H12.3327V20.0034H14.3327ZM6.66602 14.3335H33.3327V12.3335H6.66602V14.3335ZM25.666 3.3335V6.66683H27.666V3.3335H25.666ZM12.3327 3.3335V6.66683H14.3327V3.3335H12.3327Z" fill="white"/>
</svg>
