<svg width="326" height="540" viewBox="0 0 326 540" fill="none" xmlns="http://www.w3.org/2000/svg">
<g filter="url(#filter0_d_170_4074)">
<rect x="17" y="15" width="286" height="500" rx="5" fill="white" shape-rendering="crispEdges"/>
<g filter="url(#filter1_d_170_4074)">
<path d="M58.332 54.9585C56.6237 54.9585 55.207 53.5418 55.207 51.8335V39.3335C55.207 37.6252 56.6237 36.2085 58.332 36.2085C60.0404 36.2085 61.457 37.6252 61.457 39.3335V51.8335C61.457 53.5418 60.0404 54.9585 58.332 54.9585Z" fill="#1959AB"/>
<path d="M91.668 54.9585C89.9596 54.9585 88.543 53.5418 88.543 51.8335V39.3335C88.543 37.6252 89.9596 36.2085 91.668 36.2085C93.3763 36.2085 94.793 37.6252 94.793 39.3335V51.8335C94.793 53.5418 93.3763 54.9585 91.668 54.9585Z" fill="#1959AB"/>
<path d="M60.4167 91.4165C59.3333 91.4165 58.25 90.9581 57.4583 90.2081C56.7083 89.4164 56.25 88.3748 56.25 87.2498C56.25 86.7081 56.375 86.1664 56.5833 85.6664C56.7917 85.1664 57.0833 84.7082 57.4583 84.2915C59 82.7498 61.7917 82.7498 63.375 84.2915C64.125 85.0832 64.5833 86.1665 64.5833 87.2498C64.5833 87.4998 64.5417 87.7915 64.5 88.0832C64.4583 88.3332 64.375 88.5832 64.25 88.8332C64.1667 89.0832 64.0417 89.3331 63.875 89.5831C63.7083 89.7915 63.5417 89.9998 63.375 90.2081C62.5833 90.9581 61.5 91.4165 60.4167 91.4165Z" fill="#1959AB"/>
<path d="M74.9987 91.4167C74.457 91.4167 73.9154 91.2917 73.4154 91.0834C72.8737 90.8751 72.457 90.5833 72.0404 90.2083C71.2904 89.4166 70.832 88.375 70.832 87.25C70.832 86.7083 70.957 86.1666 71.1654 85.6666C71.3737 85.1666 71.6654 84.7084 72.0404 84.2917C72.457 83.9167 72.8737 83.6249 73.4154 83.4166C74.957 82.7916 76.7904 83.125 77.957 84.2917C78.707 85.0834 79.1654 86.1667 79.1654 87.25C79.1654 87.5 79.1237 87.7917 79.082 88.0834C79.0404 88.3334 78.957 88.5834 78.832 88.8334C78.7487 89.0834 78.6237 89.3333 78.457 89.5833C78.332 89.7917 78.1237 90 77.957 90.2083C77.1654 90.9583 76.082 91.4167 74.9987 91.4167Z" fill="#1959AB"/>
<path d="M60.4167 106C59.875 106 59.3333 105.875 58.8333 105.667C58.2917 105.459 57.8333 105.167 57.4583 104.792C57.0833 104.417 56.7917 103.959 56.5833 103.417C56.375 102.917 56.25 102.375 56.25 101.834C56.25 101.292 56.375 100.75 56.5833 100.25C56.7917 99.7086 57.0833 99.2503 57.4583 98.8753C57.8333 98.5003 58.2917 98.2085 58.8333 98.0002C59.8333 97.5835 61 97.5419 62 98.0002C62.5417 98.2085 63 98.5003 63.375 98.8753C63.75 99.2503 64.0417 99.7086 64.25 100.25C64.4583 100.75 64.5833 101.292 64.5833 101.834C64.5833 102.375 64.4583 102.917 64.25 103.417C64.0417 103.959 63.75 104.417 63.375 104.792C63 105.167 62.5417 105.459 62 105.667C61.5 105.875 60.9583 106 60.4167 106Z" fill="#1959AB"/>
<path d="M110.415 72H39.582C37.8737 72 36.457 70.5833 36.457 68.875C36.457 67.1667 37.8737 65.75 39.582 65.75H110.415C112.124 65.75 113.54 67.1667 113.54 68.875C113.54 70.5833 112.124 72 110.415 72Z" fill="#1959AB"/>
<path d="M99.9987 129.958C95.1237 129.958 90.4987 128.208 86.957 125C85.457 123.75 84.1237 122.167 83.0404 120.333C81.207 117.333 80.207 113.792 80.207 110.167C80.207 99.25 89.082 90.375 99.9987 90.375C105.665 90.375 111.082 92.8333 114.832 97.0833C118.04 100.75 119.79 105.375 119.79 110.167C119.79 113.792 118.79 117.333 116.915 120.375C113.415 126.292 106.915 129.958 99.9987 129.958ZM99.9987 96.625C92.5404 96.625 86.457 102.708 86.457 110.167C86.457 112.625 87.1237 115.042 88.4154 117.125C89.1237 118.375 90.0404 119.417 91.0404 120.292C93.5404 122.542 96.6654 123.708 99.9987 123.708C104.79 123.708 109.124 121.25 111.582 117.167C112.874 115.042 113.54 112.667 113.54 110.167C113.54 106.917 112.332 103.75 110.165 101.208C107.582 98.2917 103.874 96.625 99.9987 96.625Z" fill="#1959AB"/>
<path d="M97.6243 117.417C96.8327 117.417 96.041 117.125 95.416 116.5L91.291 112.375C90.0827 111.167 90.0827 109.167 91.291 107.958C92.4993 106.75 94.4993 106.75 95.7077 107.958L97.7077 109.958L104.374 103.792C105.624 102.625 107.624 102.708 108.791 103.958C109.958 105.208 109.874 107.208 108.624 108.375L99.7493 116.583C99.1243 117.125 98.3743 117.417 97.6243 117.417Z" fill="#1959AB"/>
<path d="M89.0417 125.792H58.3333C43.125 125.792 34.375 117.042 34.375 101.833V66.4168C34.375 51.2085 43.125 42.4585 58.3333 42.4585H91.6667C106.875 42.4585 115.625 51.2085 115.625 66.4168V99.1668C115.625 100.458 114.833 101.625 113.583 102.083C112.375 102.542 111 102.209 110.125 101.209C107.542 98.2919 103.833 96.6252 99.9583 96.6252C92.5 96.6252 86.4167 102.708 86.4167 110.167C86.4167 112.625 87.0833 115.042 88.375 117.125C89.0833 118.375 90 119.417 91 120.292C92 121.125 92.375 122.5 91.9167 123.75C91.5417 124.959 90.375 125.792 89.0417 125.792ZM58.3333 48.7085C46.4167 48.7085 40.625 54.5002 40.625 66.4168V101.833C40.625 113.75 46.4167 119.542 58.3333 119.542H82.5833C81.0417 116.709 80.2083 113.5 80.2083 110.167C80.2083 99.2502 89.0833 90.3752 100 90.3752C103.292 90.3752 106.542 91.2085 109.375 92.7502V66.4168C109.375 54.5002 103.583 48.7085 91.6667 48.7085H58.3333Z" fill="#1959AB"/>
</g>
<path d="M45.5195 203H41.043V191.316L37.8086 198.898H34.7031L31.4688 191.316V203H27.2266V185.551H32.4531L36.3789 194.305L40.293 185.551H45.5195V203ZM62.7109 197.199H53.0547C53.1172 198.23 53.5078 199.02 54.2266 199.566C54.9531 200.113 56.0195 200.387 57.4258 200.387C58.3164 200.387 59.1797 200.227 60.0156 199.906C60.8516 199.586 61.5117 199.242 61.9961 198.875H62.4648V202.262C61.5117 202.645 60.6133 202.922 59.7695 203.094C58.9258 203.266 57.9922 203.352 56.9688 203.352C54.3281 203.352 52.3047 202.758 50.8984 201.57C49.4922 200.383 48.7891 198.691 48.7891 196.496C48.7891 194.324 49.4531 192.605 50.7812 191.34C52.1172 190.066 53.9453 189.43 56.2656 189.43C58.4062 189.43 60.0156 189.973 61.0938 191.059C62.1719 192.137 62.7109 193.691 62.7109 195.723V197.199ZM58.5156 194.727C58.4922 193.844 58.2734 193.18 57.8594 192.734C57.4453 192.289 56.8008 192.066 55.9258 192.066C55.1133 192.066 54.4453 192.277 53.9219 192.699C53.3984 193.121 53.1055 193.797 53.043 194.727H58.5156ZM79.4219 196.238C79.4219 197.324 79.2539 198.312 78.918 199.203C78.5898 200.094 78.1562 200.828 77.6172 201.406C77.0547 202.016 76.418 202.477 75.707 202.789C74.9961 203.102 74.2344 203.258 73.4219 203.258C72.6719 203.258 72.0352 203.176 71.5117 203.012C70.9883 202.855 70.4531 202.633 69.9062 202.344V207.828H65.6875V189.84H69.9062V191.211C70.5547 190.695 71.2148 190.277 71.8867 189.957C72.5664 189.637 73.3477 189.477 74.2305 189.477C75.8711 189.477 77.1445 190.078 78.0508 191.281C78.9648 192.484 79.4219 194.137 79.4219 196.238ZM75.0742 196.32C75.0742 195.039 74.8555 194.109 74.418 193.531C73.9805 192.953 73.2891 192.664 72.3438 192.664C71.9453 192.664 71.5352 192.727 71.1133 192.852C70.6914 192.969 70.2891 193.141 69.9062 193.367V199.988C70.1875 200.098 70.4883 200.168 70.8086 200.199C71.1289 200.23 71.4453 200.246 71.7578 200.246C72.875 200.246 73.707 199.922 74.2539 199.273C74.8008 198.617 75.0742 197.633 75.0742 196.32ZM95.9219 196.426C95.9219 198.59 95.2891 200.297 94.0234 201.547C92.7656 202.789 90.9961 203.41 88.7148 203.41C86.4336 203.41 84.6602 202.789 83.3945 201.547C82.1367 200.297 81.5078 198.59 81.5078 196.426C81.5078 194.246 82.1406 192.535 83.4062 191.293C84.6797 190.051 86.4492 189.43 88.7148 189.43C91.0117 189.43 92.7852 190.055 94.0352 191.305C95.293 192.555 95.9219 194.262 95.9219 196.426ZM90.7305 199.625C91.0039 199.289 91.207 198.887 91.3398 198.418C91.4805 197.941 91.5508 197.285 91.5508 196.449C91.5508 195.676 91.4805 195.027 91.3398 194.504C91.1992 193.98 91.0039 193.562 90.7539 193.25C90.5039 192.93 90.2031 192.703 89.8516 192.57C89.5 192.438 89.1211 192.371 88.7148 192.371C88.3086 192.371 87.9453 192.426 87.625 192.535C87.3125 192.645 87.0117 192.863 86.7227 193.191C86.4648 193.496 86.2578 193.914 86.1016 194.445C85.9531 194.977 85.8789 195.645 85.8789 196.449C85.8789 197.168 85.9453 197.793 86.0781 198.324C86.2109 198.848 86.4062 199.27 86.6641 199.59C86.9141 199.895 87.2109 200.117 87.5547 200.258C87.9062 200.398 88.3047 200.469 88.75 200.469C89.1328 200.469 89.4961 200.406 89.8398 200.281C90.1914 200.148 90.4883 199.93 90.7305 199.625ZM112.234 203H108.016V192.699H103.164V203H98.9453V189.84H112.234V203ZM129.953 196.238C129.953 197.324 129.785 198.312 129.449 199.203C129.121 200.094 128.688 200.828 128.148 201.406C127.586 202.016 126.949 202.477 126.238 202.789C125.527 203.102 124.766 203.258 123.953 203.258C123.203 203.258 122.566 203.176 122.043 203.012C121.52 202.855 120.984 202.633 120.438 202.344V207.828H116.219V189.84H120.438V191.211C121.086 190.695 121.746 190.277 122.418 189.957C123.098 189.637 123.879 189.477 124.762 189.477C126.402 189.477 127.676 190.078 128.582 191.281C129.496 192.484 129.953 194.137 129.953 196.238ZM125.605 196.32C125.605 195.039 125.387 194.109 124.949 193.531C124.512 192.953 123.82 192.664 122.875 192.664C122.477 192.664 122.066 192.727 121.645 192.852C121.223 192.969 120.82 193.141 120.438 193.367V199.988C120.719 200.098 121.02 200.168 121.34 200.199C121.66 200.23 121.977 200.246 122.289 200.246C123.406 200.246 124.238 199.922 124.785 199.273C125.332 198.617 125.605 197.633 125.605 196.32ZM146.301 203H142.211V194.949L136.492 203H133V189.84H137.09V197.047L142.387 189.84H146.301V203ZM162.672 203H158.465V198.43H156.578L153.426 203H148.703L152.477 197.844C151.594 197.445 150.922 196.945 150.461 196.344C150.008 195.734 149.781 194.895 149.781 193.824C149.781 193.098 149.922 192.488 150.203 191.996C150.492 191.504 150.879 191.082 151.363 190.73C151.793 190.434 152.297 190.211 152.875 190.062C153.461 189.914 154.113 189.84 154.832 189.84H162.672V203ZM158.465 195.852V192.57H155.969C155.391 192.57 154.938 192.703 154.609 192.969C154.289 193.227 154.129 193.605 154.129 194.105C154.129 194.723 154.289 195.168 154.609 195.441C154.93 195.715 155.406 195.852 156.039 195.852H158.465ZM177.391 192.699H173.195V203H168.977V192.699H164.781V189.84H177.391V192.699ZM192.801 203H188.711V194.949L182.992 203H179.5V189.84H183.59V197.047L188.887 189.84H192.801V203ZM209.758 197.199H200.102C200.164 198.23 200.555 199.02 201.273 199.566C202 200.113 203.066 200.387 204.473 200.387C205.363 200.387 206.227 200.227 207.062 199.906C207.898 199.586 208.559 199.242 209.043 198.875H209.512V202.262C208.559 202.645 207.66 202.922 206.816 203.094C205.973 203.266 205.039 203.352 204.016 203.352C201.375 203.352 199.352 202.758 197.945 201.57C196.539 200.383 195.836 198.691 195.836 196.496C195.836 194.324 196.5 192.605 197.828 191.34C199.164 190.066 200.992 189.43 203.312 189.43C205.453 189.43 207.062 189.973 208.141 191.059C209.219 192.137 209.758 193.691 209.758 195.723V197.199ZM205.562 194.727C205.539 193.844 205.32 193.18 204.906 192.734C204.492 192.289 203.848 192.066 202.973 192.066C202.16 192.066 201.492 192.277 200.969 192.699C200.445 193.121 200.152 193.797 200.09 194.727H205.562Z" fill="#333333"/>
<path d="M30 239L37.5 246.5L50 231.5" stroke="#61B857" stroke-width="2" stroke-linecap="round" stroke-linejoin="round"/>
<path d="M73.2344 229.703C73.7083 230.224 74.0703 230.862 74.3203 231.617C74.5755 232.372 74.7031 233.229 74.7031 234.188C74.7031 235.146 74.5729 236.005 74.3125 236.766C74.0573 237.521 73.6979 238.151 73.2344 238.656C72.7552 239.182 72.1875 239.578 71.5312 239.844C70.8802 240.109 70.1354 240.242 69.2969 240.242C68.4792 240.242 67.7344 240.107 67.0625 239.836C66.3958 239.565 65.8281 239.172 65.3594 238.656C64.8906 238.141 64.5286 237.508 64.2734 236.758C64.0234 236.008 63.8984 235.151 63.8984 234.188C63.8984 233.24 64.0234 232.391 64.2734 231.641C64.5234 230.885 64.888 230.24 65.3672 229.703C65.8255 229.193 66.3932 228.802 67.0703 228.531C67.7526 228.26 68.4948 228.125 69.2969 228.125C70.1302 228.125 70.8776 228.263 71.5391 228.539C72.2057 228.81 72.7708 229.198 73.2344 229.703ZM73.0938 234.188C73.0938 232.677 72.7552 231.513 72.0781 230.695C71.401 229.872 70.4766 229.461 69.3047 229.461C68.1224 229.461 67.1927 229.872 66.5156 230.695C65.8438 231.513 65.5078 232.677 65.5078 234.188C65.5078 235.714 65.8516 236.883 66.5391 237.695C67.2266 238.503 68.1484 238.906 69.3047 238.906C70.4609 238.906 71.3802 238.503 72.0625 237.695C72.75 236.883 73.0938 235.714 73.0938 234.188ZM84.7188 235.531C84.7188 236.24 84.6172 236.888 84.4141 237.477C84.2109 238.06 83.9245 238.555 83.5547 238.961C83.2109 239.346 82.8047 239.646 82.3359 239.859C81.8724 240.068 81.3802 240.172 80.8594 240.172C80.4062 240.172 79.9948 240.122 79.625 240.023C79.2604 239.924 78.888 239.771 78.5078 239.562V243.219H77.0391V231.273H78.5078V232.188C78.8984 231.859 79.3359 231.586 79.8203 231.367C80.3099 231.143 80.8307 231.031 81.3828 231.031C82.4349 231.031 83.2526 231.43 83.8359 232.227C84.4245 233.018 84.7188 234.12 84.7188 235.531ZM83.2031 235.57C83.2031 234.518 83.0234 233.732 82.6641 233.211C82.3047 232.69 81.7526 232.43 81.0078 232.43C80.5859 232.43 80.1615 232.521 79.7344 232.703C79.3073 232.885 78.8984 233.125 78.5078 233.422V238.367C78.9245 238.555 79.2812 238.682 79.5781 238.75C79.8802 238.818 80.2214 238.852 80.6016 238.852C81.4193 238.852 82.0573 238.576 82.5156 238.023C82.974 237.471 83.2031 236.654 83.2031 235.57ZM93.0234 232.562H88.4766V240H87.0078V231.273H93.0234V232.562ZM101.336 240H99.875V239.07C99.7448 239.159 99.5677 239.284 99.3438 239.445C99.125 239.602 98.9115 239.727 98.7031 239.82C98.4583 239.94 98.1771 240.039 97.8594 240.117C97.5417 240.201 97.1693 240.242 96.7422 240.242C95.9557 240.242 95.2891 239.982 94.7422 239.461C94.1953 238.94 93.9219 238.276 93.9219 237.469C93.9219 236.807 94.0625 236.273 94.3438 235.867C94.6302 235.456 95.0365 235.133 95.5625 234.898C96.0938 234.664 96.7318 234.505 97.4766 234.422C98.2214 234.339 99.0208 234.276 99.875 234.234V234.008C99.875 233.674 99.8151 233.398 99.6953 233.18C99.5807 232.961 99.4141 232.789 99.1953 232.664C98.987 232.544 98.737 232.464 98.4453 232.422C98.1536 232.38 97.849 232.359 97.5312 232.359C97.1458 232.359 96.7161 232.411 96.2422 232.516C95.7682 232.615 95.2786 232.76 94.7734 232.953H94.6953V231.461C94.9818 231.383 95.3958 231.297 95.9375 231.203C96.4792 231.109 97.013 231.062 97.5391 231.062C98.1536 231.062 98.6875 231.115 99.1406 231.219C99.599 231.318 99.9948 231.49 100.328 231.734C100.656 231.974 100.906 232.284 101.078 232.664C101.25 233.044 101.336 233.516 101.336 234.078V240ZM99.875 237.852V235.422C99.4271 235.448 98.8984 235.487 98.2891 235.539C97.6849 235.591 97.2057 235.667 96.8516 235.766C96.4297 235.885 96.0885 236.073 95.8281 236.328C95.5677 236.578 95.4375 236.924 95.4375 237.367C95.4375 237.867 95.5885 238.245 95.8906 238.5C96.1927 238.75 96.6536 238.875 97.2734 238.875C97.7891 238.875 98.2604 238.776 98.6875 238.578C99.1146 238.375 99.5104 238.133 99.875 237.852ZM111.469 240H110V236.07H105.633V240H104.164V231.273H105.633V234.805H110V231.273H111.469V240ZM121.719 240H120.266V233.445L115.695 240H114.367V231.273H115.82V237.734L120.344 231.273H121.719V240ZM130.688 237.555C130.688 238.044 130.573 238.458 130.344 238.797C130.12 239.135 129.831 239.409 129.477 239.617C129.122 239.82 128.732 239.969 128.305 240.062C127.878 240.156 127.451 240.203 127.023 240.203C126.419 240.203 125.844 240.146 125.297 240.031C124.75 239.917 124.211 239.74 123.68 239.5V237.891H123.781C124.161 238.224 124.646 238.482 125.234 238.664C125.823 238.846 126.393 238.938 126.945 238.938C127.206 238.938 127.474 238.914 127.75 238.867C128.026 238.815 128.266 238.734 128.469 238.625C128.688 238.5 128.862 238.352 128.992 238.18C129.122 238.003 129.188 237.763 129.188 237.461C129.188 237.148 129.122 236.898 128.992 236.711C128.867 236.523 128.695 236.383 128.477 236.289C128.263 236.195 128.005 236.138 127.703 236.117C127.401 236.096 127.125 236.086 126.875 236.086H125.602V234.82H126.484C126.693 234.82 126.964 234.812 127.297 234.797C127.635 234.781 127.909 234.74 128.117 234.672C128.388 234.583 128.602 234.458 128.758 234.297C128.919 234.135 129 233.878 129 233.523C129 233.279 128.938 233.078 128.812 232.922C128.688 232.76 128.531 232.635 128.344 232.547C128.151 232.458 127.935 232.398 127.695 232.367C127.461 232.336 127.253 232.32 127.07 232.32C126.539 232.32 126.016 232.393 125.5 232.539C124.99 232.68 124.56 232.885 124.211 233.156H124.109V231.539C124.542 231.398 125.005 231.284 125.5 231.195C125.995 231.107 126.49 231.062 126.984 231.062C127.391 231.062 127.794 231.099 128.195 231.172C128.602 231.245 128.979 231.37 129.328 231.547C129.672 231.724 129.953 231.966 130.172 232.273C130.391 232.576 130.5 232.951 130.5 233.398C130.5 233.857 130.357 234.26 130.07 234.609C129.789 234.953 129.409 235.201 128.93 235.352V235.406C129.466 235.536 129.893 235.781 130.211 236.141C130.529 236.495 130.688 236.966 130.688 237.555ZM139.789 240H138.328V239.07C138.198 239.159 138.021 239.284 137.797 239.445C137.578 239.602 137.365 239.727 137.156 239.82C136.911 239.94 136.63 240.039 136.312 240.117C135.995 240.201 135.622 240.242 135.195 240.242C134.409 240.242 133.742 239.982 133.195 239.461C132.648 238.94 132.375 238.276 132.375 237.469C132.375 236.807 132.516 236.273 132.797 235.867C133.083 235.456 133.49 235.133 134.016 234.898C134.547 234.664 135.185 234.505 135.93 234.422C136.674 234.339 137.474 234.276 138.328 234.234V234.008C138.328 233.674 138.268 233.398 138.148 233.18C138.034 232.961 137.867 232.789 137.648 232.664C137.44 232.544 137.19 232.464 136.898 232.422C136.607 232.38 136.302 232.359 135.984 232.359C135.599 232.359 135.169 232.411 134.695 232.516C134.221 232.615 133.732 232.76 133.227 232.953H133.148V231.461C133.435 231.383 133.849 231.297 134.391 231.203C134.932 231.109 135.466 231.062 135.992 231.062C136.607 231.062 137.141 231.115 137.594 231.219C138.052 231.318 138.448 231.49 138.781 231.734C139.109 231.974 139.359 232.284 139.531 232.664C139.703 233.044 139.789 233.516 139.789 234.078V240ZM138.328 237.852V235.422C137.88 235.448 137.352 235.487 136.742 235.539C136.138 235.591 135.659 235.667 135.305 235.766C134.883 235.885 134.542 236.073 134.281 236.328C134.021 236.578 133.891 236.924 133.891 237.367C133.891 237.867 134.042 238.245 134.344 238.5C134.646 238.75 135.107 238.875 135.727 238.875C136.242 238.875 136.714 238.776 137.141 238.578C137.568 238.375 137.964 238.133 138.328 237.852ZM149.539 240H142.617V231.273H144.086V238.734H148.383V231.273H149.852V238.734H150.906V242.094H149.539V240ZM160.281 240H158.828V233.445L154.258 240H152.93V231.273H154.383V237.734L158.906 231.273H160.281V240ZM169.883 240H168.414V236.539H166.688L163.984 240H162.258L165.195 236.398C164.44 236.19 163.888 235.872 163.539 235.445C163.19 235.013 163.016 234.448 163.016 233.75C163.016 233.286 163.12 232.893 163.328 232.57C163.536 232.247 163.799 231.984 164.117 231.781C164.43 231.583 164.789 231.451 165.195 231.383C165.602 231.31 166.044 231.273 166.523 231.273H169.883V240ZM168.414 235.383V232.445H166.562C166.161 232.445 165.872 232.458 165.695 232.484C165.518 232.51 165.326 232.581 165.117 232.695C164.914 232.81 164.763 232.966 164.664 233.164C164.57 233.357 164.523 233.568 164.523 233.797C164.523 234.083 164.552 234.315 164.609 234.492C164.672 234.669 164.797 234.836 164.984 234.992C165.177 235.143 165.411 235.247 165.688 235.305C165.964 235.357 166.271 235.383 166.609 235.383H168.414ZM187.297 236.398C187.297 236.961 187.185 237.471 186.961 237.93C186.742 238.388 186.448 238.76 186.078 239.047C185.641 239.391 185.172 239.635 184.672 239.781C184.172 239.927 183.526 240 182.734 240H178.516V228.367H186.305V229.742H180.062V232.93H182.781C183.573 232.93 184.219 232.977 184.719 233.07C185.219 233.159 185.69 233.375 186.133 233.719C186.529 234.026 186.82 234.406 187.008 234.859C187.201 235.312 187.297 235.826 187.297 236.398ZM185.68 236.43C185.68 236.039 185.615 235.695 185.484 235.398C185.354 235.102 185.151 234.862 184.875 234.68C184.589 234.487 184.258 234.37 183.883 234.328C183.508 234.286 182.979 234.266 182.297 234.266H180.062V238.68H182.258C182.951 238.68 183.482 238.646 183.852 238.578C184.227 238.51 184.555 238.38 184.836 238.188C185.128 237.984 185.341 237.747 185.477 237.477C185.612 237.201 185.68 236.852 185.68 236.43ZM196.719 240H195.266V233.445L190.695 240H189.367V231.273H190.82V237.734L195.344 231.273H196.719V240ZM205.688 237.555C205.688 238.044 205.573 238.458 205.344 238.797C205.12 239.135 204.831 239.409 204.477 239.617C204.122 239.82 203.732 239.969 203.305 240.062C202.878 240.156 202.451 240.203 202.023 240.203C201.419 240.203 200.844 240.146 200.297 240.031C199.75 239.917 199.211 239.74 198.68 239.5V237.891H198.781C199.161 238.224 199.646 238.482 200.234 238.664C200.823 238.846 201.393 238.938 201.945 238.938C202.206 238.938 202.474 238.914 202.75 238.867C203.026 238.815 203.266 238.734 203.469 238.625C203.688 238.5 203.862 238.352 203.992 238.18C204.122 238.003 204.188 237.763 204.188 237.461C204.188 237.148 204.122 236.898 203.992 236.711C203.867 236.523 203.695 236.383 203.477 236.289C203.263 236.195 203.005 236.138 202.703 236.117C202.401 236.096 202.125 236.086 201.875 236.086H200.602V234.82H201.484C201.693 234.82 201.964 234.812 202.297 234.797C202.635 234.781 202.909 234.74 203.117 234.672C203.388 234.583 203.602 234.458 203.758 234.297C203.919 234.135 204 233.878 204 233.523C204 233.279 203.938 233.078 203.812 232.922C203.688 232.76 203.531 232.635 203.344 232.547C203.151 232.458 202.935 232.398 202.695 232.367C202.461 232.336 202.253 232.32 202.07 232.32C201.539 232.32 201.016 232.393 200.5 232.539C199.99 232.68 199.56 232.885 199.211 233.156H199.109V231.539C199.542 231.398 200.005 231.284 200.5 231.195C200.995 231.107 201.49 231.062 201.984 231.062C202.391 231.062 202.794 231.099 203.195 231.172C203.602 231.245 203.979 231.37 204.328 231.547C204.672 231.724 204.953 231.966 205.172 232.273C205.391 232.576 205.5 232.951 205.5 233.398C205.5 233.857 205.357 234.26 205.07 234.609C204.789 234.953 204.409 235.201 203.93 235.352V235.406C204.466 235.536 204.893 235.781 205.211 236.141C205.529 236.495 205.688 236.966 205.688 237.555ZM215.312 240H213.844V236.07H209.477V240H208.008V231.273H209.477V234.805H213.844V231.273H215.312V240ZM225.516 235.789H219.086C219.086 236.326 219.167 236.794 219.328 237.195C219.49 237.591 219.711 237.917 219.992 238.172C220.263 238.422 220.583 238.609 220.953 238.734C221.328 238.859 221.74 238.922 222.188 238.922C222.781 238.922 223.378 238.805 223.977 238.57C224.581 238.331 225.01 238.096 225.266 237.867H225.344V239.469C224.849 239.677 224.344 239.852 223.828 239.992C223.312 240.133 222.771 240.203 222.203 240.203C220.755 240.203 219.625 239.812 218.812 239.031C218 238.245 217.594 237.13 217.594 235.688C217.594 234.26 217.982 233.128 218.758 232.289C219.539 231.451 220.565 231.031 221.836 231.031C223.013 231.031 223.919 231.375 224.555 232.062C225.195 232.75 225.516 233.727 225.516 234.992V235.789ZM224.086 234.664C224.081 233.893 223.885 233.297 223.5 232.875C223.12 232.453 222.539 232.242 221.758 232.242C220.971 232.242 220.344 232.474 219.875 232.938C219.411 233.401 219.148 233.977 219.086 234.664H224.086ZM234.273 239.453C233.674 239.734 233.159 239.927 232.727 240.031C232.299 240.141 231.872 240.195 231.445 240.195C230.81 240.195 230.227 240.104 229.695 239.922C229.164 239.734 228.708 239.453 228.328 239.078C227.948 238.703 227.651 238.229 227.438 237.656C227.229 237.083 227.125 236.414 227.125 235.648C227.125 234.258 227.51 233.148 228.281 232.32C229.052 231.487 230.107 231.07 231.445 231.07C231.951 231.07 232.445 231.141 232.93 231.281C233.419 231.422 233.867 231.594 234.273 231.797V233.43H234.188C233.703 233.06 233.224 232.786 232.75 232.609C232.281 232.432 231.826 232.344 231.383 232.344C230.513 232.344 229.839 232.635 229.359 233.219C228.885 233.802 228.648 234.612 228.648 235.648C228.648 236.685 228.885 237.49 229.359 238.062C229.833 238.635 230.508 238.922 231.383 238.922C231.69 238.922 231.995 238.883 232.297 238.805C232.604 238.727 232.883 238.625 233.133 238.5C233.331 238.401 233.534 238.284 233.742 238.148C233.956 238.008 234.104 237.904 234.188 237.836H234.273V239.453ZM73.3359 255.422C73.3359 256 73.2266 256.51 73.0078 256.953C72.7891 257.396 72.4948 257.76 72.125 258.047C71.6875 258.391 71.2057 258.635 70.6797 258.781C70.1589 258.927 69.4948 259 68.6875 259H64.5625V247.367H68.0078C68.8568 247.367 69.4922 247.398 69.9141 247.461C70.3359 247.523 70.7396 247.654 71.125 247.852C71.5521 248.076 71.862 248.365 72.0547 248.719C72.2474 249.068 72.3438 249.487 72.3438 249.977C72.3438 250.529 72.2031 251 71.9219 251.391C71.6406 251.776 71.2656 252.086 70.7969 252.32V252.383C71.5833 252.544 72.2031 252.891 72.6562 253.422C73.1094 253.948 73.3359 254.615 73.3359 255.422ZM70.7344 250.18C70.7344 249.898 70.6875 249.661 70.5938 249.469C70.5 249.276 70.349 249.12 70.1406 249C69.8958 248.859 69.599 248.773 69.25 248.742C68.901 248.706 68.4688 248.688 67.9531 248.688H66.1094V252.047H68.1094C68.5938 252.047 68.9792 252.023 69.2656 251.977C69.5521 251.924 69.8177 251.82 70.0625 251.664C70.3073 251.508 70.4792 251.307 70.5781 251.062C70.6823 250.812 70.7344 250.518 70.7344 250.18ZM71.7266 255.484C71.7266 255.016 71.6562 254.643 71.5156 254.367C71.375 254.091 71.1198 253.857 70.75 253.664C70.5 253.534 70.1953 253.451 69.8359 253.414C69.4818 253.372 69.0495 253.352 68.5391 253.352H66.1094V257.68H68.1562C68.8333 257.68 69.388 257.646 69.8203 257.578C70.2526 257.505 70.6068 257.375 70.8828 257.188C71.1745 256.984 71.388 256.753 71.5234 256.492C71.6589 256.232 71.7266 255.896 71.7266 255.484ZM81.9453 258.453C81.3464 258.734 80.8307 258.927 80.3984 259.031C79.9714 259.141 79.5443 259.195 79.1172 259.195C78.4818 259.195 77.8984 259.104 77.3672 258.922C76.8359 258.734 76.3802 258.453 76 258.078C75.6198 257.703 75.3229 257.229 75.1094 256.656C74.901 256.083 74.7969 255.414 74.7969 254.648C74.7969 253.258 75.1823 252.148 75.9531 251.32C76.724 250.487 77.7786 250.07 79.1172 250.07C79.6224 250.07 80.1172 250.141 80.6016 250.281C81.0911 250.422 81.5391 250.594 81.9453 250.797V252.43H81.8594C81.375 252.06 80.8958 251.786 80.4219 251.609C79.9531 251.432 79.4974 251.344 79.0547 251.344C78.1849 251.344 77.5104 251.635 77.0312 252.219C76.5573 252.802 76.3203 253.612 76.3203 254.648C76.3203 255.685 76.5573 256.49 77.0312 257.062C77.5052 257.635 78.1797 257.922 79.0547 257.922C79.362 257.922 79.6667 257.883 79.9688 257.805C80.276 257.727 80.5547 257.625 80.8047 257.5C81.0026 257.401 81.2057 257.284 81.4141 257.148C81.6276 257.008 81.776 256.904 81.8594 256.836H81.9453V258.453ZM90.375 251.562H87.2188V259H85.75V251.562H82.5938V250.273H90.375V251.562ZM99.5781 254.531C99.5781 255.24 99.4766 255.888 99.2734 256.477C99.0703 257.06 98.7839 257.555 98.4141 257.961C98.0703 258.346 97.6641 258.646 97.1953 258.859C96.7318 259.068 96.2396 259.172 95.7188 259.172C95.2656 259.172 94.8542 259.122 94.4844 259.023C94.1198 258.924 93.7474 258.771 93.3672 258.562V262.219H91.8984V250.273H93.3672V251.188C93.7578 250.859 94.1953 250.586 94.6797 250.367C95.1693 250.143 95.6901 250.031 96.2422 250.031C97.2943 250.031 98.112 250.43 98.6953 251.227C99.2839 252.018 99.5781 253.12 99.5781 254.531ZM98.0625 254.57C98.0625 253.518 97.8828 252.732 97.5234 252.211C97.1641 251.69 96.612 251.43 95.8672 251.43C95.4453 251.43 95.0208 251.521 94.5938 251.703C94.1667 251.885 93.7578 252.125 93.3672 252.422V257.367C93.7839 257.555 94.1406 257.682 94.4375 257.75C94.7396 257.818 95.0807 257.852 95.4609 257.852C96.2786 257.852 96.9167 257.576 97.375 257.023C97.8333 256.471 98.0625 255.654 98.0625 254.57ZM109.172 254.789H102.742C102.742 255.326 102.823 255.794 102.984 256.195C103.146 256.591 103.367 256.917 103.648 257.172C103.919 257.422 104.24 257.609 104.609 257.734C104.984 257.859 105.396 257.922 105.844 257.922C106.438 257.922 107.034 257.805 107.633 257.57C108.237 257.331 108.667 257.096 108.922 256.867H109V258.469C108.505 258.677 108 258.852 107.484 258.992C106.969 259.133 106.427 259.203 105.859 259.203C104.411 259.203 103.281 258.812 102.469 258.031C101.656 257.245 101.25 256.13 101.25 254.688C101.25 253.26 101.638 252.128 102.414 251.289C103.195 250.451 104.221 250.031 105.492 250.031C106.669 250.031 107.576 250.375 108.211 251.062C108.852 251.75 109.172 252.727 109.172 253.992V254.789ZM107.742 253.664C107.737 252.893 107.542 252.297 107.156 251.875C106.776 251.453 106.195 251.242 105.414 251.242C104.628 251.242 104 251.474 103.531 251.938C103.068 252.401 102.805 252.977 102.742 253.664H107.742ZM118.195 259H116.727V255.648C116.253 255.794 115.799 255.911 115.367 256C114.935 256.089 114.464 256.133 113.953 256.133C113.016 256.133 112.299 255.904 111.805 255.445C111.31 254.982 111.062 254.315 111.062 253.445V250.273H112.531V252.695C112.531 253.029 112.552 253.328 112.594 253.594C112.635 253.854 112.724 254.081 112.859 254.273C112.995 254.461 113.185 254.604 113.43 254.703C113.674 254.802 114.016 254.852 114.453 254.852C114.812 254.852 115.203 254.818 115.625 254.75C116.047 254.677 116.414 254.594 116.727 254.5V250.273H118.195V259Z" fill="#333333"/>
<path d="M30 293L37.5 300.5L50 285.5" stroke="#61B857" stroke-width="2" stroke-linecap="round" stroke-linejoin="round"/>
<path d="M73.2344 283.703C73.7083 284.224 74.0703 284.862 74.3203 285.617C74.5755 286.372 74.7031 287.229 74.7031 288.188C74.7031 289.146 74.5729 290.005 74.3125 290.766C74.0573 291.521 73.6979 292.151 73.2344 292.656C72.7552 293.182 72.1875 293.578 71.5312 293.844C70.8802 294.109 70.1354 294.242 69.2969 294.242C68.4792 294.242 67.7344 294.107 67.0625 293.836C66.3958 293.565 65.8281 293.172 65.3594 292.656C64.8906 292.141 64.5286 291.508 64.2734 290.758C64.0234 290.008 63.8984 289.151 63.8984 288.188C63.8984 287.24 64.0234 286.391 64.2734 285.641C64.5234 284.885 64.888 284.24 65.3672 283.703C65.8255 283.193 66.3932 282.802 67.0703 282.531C67.7526 282.26 68.4948 282.125 69.2969 282.125C70.1302 282.125 70.8776 282.263 71.5391 282.539C72.2057 282.81 72.7708 283.198 73.2344 283.703ZM73.0938 288.188C73.0938 286.677 72.7552 285.513 72.0781 284.695C71.401 283.872 70.4766 283.461 69.3047 283.461C68.1224 283.461 67.1927 283.872 66.5156 284.695C65.8438 285.513 65.5078 286.677 65.5078 288.188C65.5078 289.714 65.8516 290.883 66.5391 291.695C67.2266 292.503 68.1484 292.906 69.3047 292.906C70.4609 292.906 71.3802 292.503 72.0625 291.695C72.75 290.883 73.0938 289.714 73.0938 288.188ZM84.7188 289.531C84.7188 290.24 84.6172 290.888 84.4141 291.477C84.2109 292.06 83.9245 292.555 83.5547 292.961C83.2109 293.346 82.8047 293.646 82.3359 293.859C81.8724 294.068 81.3802 294.172 80.8594 294.172C80.4062 294.172 79.9948 294.122 79.625 294.023C79.2604 293.924 78.888 293.771 78.5078 293.562V297.219H77.0391V285.273H78.5078V286.188C78.8984 285.859 79.3359 285.586 79.8203 285.367C80.3099 285.143 80.8307 285.031 81.3828 285.031C82.4349 285.031 83.2526 285.43 83.8359 286.227C84.4245 287.018 84.7188 288.12 84.7188 289.531ZM83.2031 289.57C83.2031 288.518 83.0234 287.732 82.6641 287.211C82.3047 286.69 81.7526 286.43 81.0078 286.43C80.5859 286.43 80.1615 286.521 79.7344 286.703C79.3073 286.885 78.8984 287.125 78.5078 287.422V292.367C78.9245 292.555 79.2812 292.682 79.5781 292.75C79.8802 292.818 80.2214 292.852 80.6016 292.852C81.4193 292.852 82.0573 292.576 82.5156 292.023C82.974 291.471 83.2031 290.654 83.2031 289.57ZM93.0234 286.562H88.4766V294H87.0078V285.273H93.0234V286.562ZM101.336 294H99.875V293.07C99.7448 293.159 99.5677 293.284 99.3438 293.445C99.125 293.602 98.9115 293.727 98.7031 293.82C98.4583 293.94 98.1771 294.039 97.8594 294.117C97.5417 294.201 97.1693 294.242 96.7422 294.242C95.9557 294.242 95.2891 293.982 94.7422 293.461C94.1953 292.94 93.9219 292.276 93.9219 291.469C93.9219 290.807 94.0625 290.273 94.3438 289.867C94.6302 289.456 95.0365 289.133 95.5625 288.898C96.0938 288.664 96.7318 288.505 97.4766 288.422C98.2214 288.339 99.0208 288.276 99.875 288.234V288.008C99.875 287.674 99.8151 287.398 99.6953 287.18C99.5807 286.961 99.4141 286.789 99.1953 286.664C98.987 286.544 98.737 286.464 98.4453 286.422C98.1536 286.38 97.849 286.359 97.5312 286.359C97.1458 286.359 96.7161 286.411 96.2422 286.516C95.7682 286.615 95.2786 286.76 94.7734 286.953H94.6953V285.461C94.9818 285.383 95.3958 285.297 95.9375 285.203C96.4792 285.109 97.013 285.062 97.5391 285.062C98.1536 285.062 98.6875 285.115 99.1406 285.219C99.599 285.318 99.9948 285.49 100.328 285.734C100.656 285.974 100.906 286.284 101.078 286.664C101.25 287.044 101.336 287.516 101.336 288.078V294ZM99.875 291.852V289.422C99.4271 289.448 98.8984 289.487 98.2891 289.539C97.6849 289.591 97.2057 289.667 96.8516 289.766C96.4297 289.885 96.0885 290.073 95.8281 290.328C95.5677 290.578 95.4375 290.924 95.4375 291.367C95.4375 291.867 95.5885 292.245 95.8906 292.5C96.1927 292.75 96.6536 292.875 97.2734 292.875C97.7891 292.875 98.2604 292.776 98.6875 292.578C99.1146 292.375 99.5104 292.133 99.875 291.852ZM111.469 294H110V290.07H105.633V294H104.164V285.273H105.633V288.805H110V285.273H111.469V294ZM121.719 294H120.266V287.445L115.695 294H114.367V285.273H115.82V291.734L120.344 285.273H121.719V294ZM130.688 291.555C130.688 292.044 130.573 292.458 130.344 292.797C130.12 293.135 129.831 293.409 129.477 293.617C129.122 293.82 128.732 293.969 128.305 294.062C127.878 294.156 127.451 294.203 127.023 294.203C126.419 294.203 125.844 294.146 125.297 294.031C124.75 293.917 124.211 293.74 123.68 293.5V291.891H123.781C124.161 292.224 124.646 292.482 125.234 292.664C125.823 292.846 126.393 292.938 126.945 292.938C127.206 292.938 127.474 292.914 127.75 292.867C128.026 292.815 128.266 292.734 128.469 292.625C128.688 292.5 128.862 292.352 128.992 292.18C129.122 292.003 129.188 291.763 129.188 291.461C129.188 291.148 129.122 290.898 128.992 290.711C128.867 290.523 128.695 290.383 128.477 290.289C128.263 290.195 128.005 290.138 127.703 290.117C127.401 290.096 127.125 290.086 126.875 290.086H125.602V288.82H126.484C126.693 288.82 126.964 288.812 127.297 288.797C127.635 288.781 127.909 288.74 128.117 288.672C128.388 288.583 128.602 288.458 128.758 288.297C128.919 288.135 129 287.878 129 287.523C129 287.279 128.938 287.078 128.812 286.922C128.688 286.76 128.531 286.635 128.344 286.547C128.151 286.458 127.935 286.398 127.695 286.367C127.461 286.336 127.253 286.32 127.07 286.32C126.539 286.32 126.016 286.393 125.5 286.539C124.99 286.68 124.56 286.885 124.211 287.156H124.109V285.539C124.542 285.398 125.005 285.284 125.5 285.195C125.995 285.107 126.49 285.062 126.984 285.062C127.391 285.062 127.794 285.099 128.195 285.172C128.602 285.245 128.979 285.37 129.328 285.547C129.672 285.724 129.953 285.966 130.172 286.273C130.391 286.576 130.5 286.951 130.5 287.398C130.5 287.857 130.357 288.26 130.07 288.609C129.789 288.953 129.409 289.201 128.93 289.352V289.406C129.466 289.536 129.893 289.781 130.211 290.141C130.529 290.495 130.688 290.966 130.688 291.555ZM139.789 294H138.328V293.07C138.198 293.159 138.021 293.284 137.797 293.445C137.578 293.602 137.365 293.727 137.156 293.82C136.911 293.94 136.63 294.039 136.312 294.117C135.995 294.201 135.622 294.242 135.195 294.242C134.409 294.242 133.742 293.982 133.195 293.461C132.648 292.94 132.375 292.276 132.375 291.469C132.375 290.807 132.516 290.273 132.797 289.867C133.083 289.456 133.49 289.133 134.016 288.898C134.547 288.664 135.185 288.505 135.93 288.422C136.674 288.339 137.474 288.276 138.328 288.234V288.008C138.328 287.674 138.268 287.398 138.148 287.18C138.034 286.961 137.867 286.789 137.648 286.664C137.44 286.544 137.19 286.464 136.898 286.422C136.607 286.38 136.302 286.359 135.984 286.359C135.599 286.359 135.169 286.411 134.695 286.516C134.221 286.615 133.732 286.76 133.227 286.953H133.148V285.461C133.435 285.383 133.849 285.297 134.391 285.203C134.932 285.109 135.466 285.062 135.992 285.062C136.607 285.062 137.141 285.115 137.594 285.219C138.052 285.318 138.448 285.49 138.781 285.734C139.109 285.974 139.359 286.284 139.531 286.664C139.703 287.044 139.789 287.516 139.789 288.078V294ZM138.328 291.852V289.422C137.88 289.448 137.352 289.487 136.742 289.539C136.138 289.591 135.659 289.667 135.305 289.766C134.883 289.885 134.542 290.073 134.281 290.328C134.021 290.578 133.891 290.924 133.891 291.367C133.891 291.867 134.042 292.245 134.344 292.5C134.646 292.75 135.107 292.875 135.727 292.875C136.242 292.875 136.714 292.776 137.141 292.578C137.568 292.375 137.964 292.133 138.328 291.852ZM149.539 294H142.617V285.273H144.086V292.734H148.383V285.273H149.852V292.734H150.906V296.094H149.539V294ZM160.281 294H158.828V287.445L154.258 294H152.93V285.273H154.383V291.734L158.906 285.273H160.281V294ZM169.883 294H168.414V290.539H166.688L163.984 294H162.258L165.195 290.398C164.44 290.19 163.888 289.872 163.539 289.445C163.19 289.013 163.016 288.448 163.016 287.75C163.016 287.286 163.12 286.893 163.328 286.57C163.536 286.247 163.799 285.984 164.117 285.781C164.43 285.583 164.789 285.451 165.195 285.383C165.602 285.31 166.044 285.273 166.523 285.273H169.883V294ZM168.414 289.383V286.445H166.562C166.161 286.445 165.872 286.458 165.695 286.484C165.518 286.51 165.326 286.581 165.117 286.695C164.914 286.81 164.763 286.966 164.664 287.164C164.57 287.357 164.523 287.568 164.523 287.797C164.523 288.083 164.552 288.315 164.609 288.492C164.672 288.669 164.797 288.836 164.984 288.992C165.177 289.143 165.411 289.247 165.688 289.305C165.964 289.357 166.271 289.383 166.609 289.383H168.414ZM187.297 290.398C187.297 290.961 187.185 291.471 186.961 291.93C186.742 292.388 186.448 292.76 186.078 293.047C185.641 293.391 185.172 293.635 184.672 293.781C184.172 293.927 183.526 294 182.734 294H178.516V282.367H186.305V283.742H180.062V286.93H182.781C183.573 286.93 184.219 286.977 184.719 287.07C185.219 287.159 185.69 287.375 186.133 287.719C186.529 288.026 186.82 288.406 187.008 288.859C187.201 289.312 187.297 289.826 187.297 290.398ZM185.68 290.43C185.68 290.039 185.615 289.695 185.484 289.398C185.354 289.102 185.151 288.862 184.875 288.68C184.589 288.487 184.258 288.37 183.883 288.328C183.508 288.286 182.979 288.266 182.297 288.266H180.062V292.68H182.258C182.951 292.68 183.482 292.646 183.852 292.578C184.227 292.51 184.555 292.38 184.836 292.188C185.128 291.984 185.341 291.747 185.477 291.477C185.612 291.201 185.68 290.852 185.68 290.43ZM196.719 294H195.266V287.445L190.695 294H189.367V285.273H190.82V291.734L195.344 285.273H196.719V294ZM205.688 291.555C205.688 292.044 205.573 292.458 205.344 292.797C205.12 293.135 204.831 293.409 204.477 293.617C204.122 293.82 203.732 293.969 203.305 294.062C202.878 294.156 202.451 294.203 202.023 294.203C201.419 294.203 200.844 294.146 200.297 294.031C199.75 293.917 199.211 293.74 198.68 293.5V291.891H198.781C199.161 292.224 199.646 292.482 200.234 292.664C200.823 292.846 201.393 292.938 201.945 292.938C202.206 292.938 202.474 292.914 202.75 292.867C203.026 292.815 203.266 292.734 203.469 292.625C203.688 292.5 203.862 292.352 203.992 292.18C204.122 292.003 204.188 291.763 204.188 291.461C204.188 291.148 204.122 290.898 203.992 290.711C203.867 290.523 203.695 290.383 203.477 290.289C203.263 290.195 203.005 290.138 202.703 290.117C202.401 290.096 202.125 290.086 201.875 290.086H200.602V288.82H201.484C201.693 288.82 201.964 288.812 202.297 288.797C202.635 288.781 202.909 288.74 203.117 288.672C203.388 288.583 203.602 288.458 203.758 288.297C203.919 288.135 204 287.878 204 287.523C204 287.279 203.938 287.078 203.812 286.922C203.688 286.76 203.531 286.635 203.344 286.547C203.151 286.458 202.935 286.398 202.695 286.367C202.461 286.336 202.253 286.32 202.07 286.32C201.539 286.32 201.016 286.393 200.5 286.539C199.99 286.68 199.56 286.885 199.211 287.156H199.109V285.539C199.542 285.398 200.005 285.284 200.5 285.195C200.995 285.107 201.49 285.062 201.984 285.062C202.391 285.062 202.794 285.099 203.195 285.172C203.602 285.245 203.979 285.37 204.328 285.547C204.672 285.724 204.953 285.966 205.172 286.273C205.391 286.576 205.5 286.951 205.5 287.398C205.5 287.857 205.357 288.26 205.07 288.609C204.789 288.953 204.409 289.201 203.93 289.352V289.406C204.466 289.536 204.893 289.781 205.211 290.141C205.529 290.495 205.688 290.966 205.688 291.555ZM215.312 294H213.844V290.07H209.477V294H208.008V285.273H209.477V288.805H213.844V285.273H215.312V294ZM225.516 289.789H219.086C219.086 290.326 219.167 290.794 219.328 291.195C219.49 291.591 219.711 291.917 219.992 292.172C220.263 292.422 220.583 292.609 220.953 292.734C221.328 292.859 221.74 292.922 222.188 292.922C222.781 292.922 223.378 292.805 223.977 292.57C224.581 292.331 225.01 292.096 225.266 291.867H225.344V293.469C224.849 293.677 224.344 293.852 223.828 293.992C223.312 294.133 222.771 294.203 222.203 294.203C220.755 294.203 219.625 293.812 218.812 293.031C218 292.245 217.594 291.13 217.594 289.688C217.594 288.26 217.982 287.128 218.758 286.289C219.539 285.451 220.565 285.031 221.836 285.031C223.013 285.031 223.919 285.375 224.555 286.062C225.195 286.75 225.516 287.727 225.516 288.992V289.789ZM224.086 288.664C224.081 287.893 223.885 287.297 223.5 286.875C223.12 286.453 222.539 286.242 221.758 286.242C220.971 286.242 220.344 286.474 219.875 286.938C219.411 287.401 219.148 287.977 219.086 288.664H224.086ZM234.273 293.453C233.674 293.734 233.159 293.927 232.727 294.031C232.299 294.141 231.872 294.195 231.445 294.195C230.81 294.195 230.227 294.104 229.695 293.922C229.164 293.734 228.708 293.453 228.328 293.078C227.948 292.703 227.651 292.229 227.438 291.656C227.229 291.083 227.125 290.414 227.125 289.648C227.125 288.258 227.51 287.148 228.281 286.32C229.052 285.487 230.107 285.07 231.445 285.07C231.951 285.07 232.445 285.141 232.93 285.281C233.419 285.422 233.867 285.594 234.273 285.797V287.43H234.188C233.703 287.06 233.224 286.786 232.75 286.609C232.281 286.432 231.826 286.344 231.383 286.344C230.513 286.344 229.839 286.635 229.359 287.219C228.885 287.802 228.648 288.612 228.648 289.648C228.648 290.685 228.885 291.49 229.359 292.062C229.833 292.635 230.508 292.922 231.383 292.922C231.69 292.922 231.995 292.883 232.297 292.805C232.604 292.727 232.883 292.625 233.133 292.5C233.331 292.401 233.534 292.284 233.742 292.148C233.956 292.008 234.104 291.904 234.188 291.836H234.273V293.453ZM75.2812 307.102C75.2812 307.831 75.1641 308.479 74.9297 309.047C74.7005 309.609 74.3802 310.081 73.9688 310.461C73.526 310.872 72.987 311.201 72.3516 311.445C71.7161 311.685 71.0391 311.812 70.3203 311.828V313.125H68.7812V311.828C68.0833 311.812 67.4141 311.688 66.7734 311.453C66.1328 311.219 65.5859 310.888 65.1328 310.461C64.7214 310.076 64.3984 309.602 64.1641 309.039C63.9349 308.477 63.8203 307.831 63.8203 307.102C63.8203 306.393 63.9323 305.773 64.1562 305.242C64.3802 304.711 64.6901 304.247 65.0859 303.852C65.5078 303.43 66.0339 303.096 66.6641 302.852C67.2995 302.607 68.0052 302.474 68.7812 302.453V301.242H70.3203V302.453C71.0911 302.469 71.7969 302.604 72.4375 302.859C73.0781 303.115 73.6042 303.445 74.0156 303.852C74.4062 304.232 74.7135 304.693 74.9375 305.234C75.1667 305.776 75.2812 306.398 75.2812 307.102ZM73.6719 307.039C73.6719 306.523 73.5885 306.049 73.4219 305.617C73.2552 305.185 73.0182 304.82 72.7109 304.523C72.4089 304.232 72.0729 304.018 71.7031 303.883C71.3333 303.747 70.8724 303.674 70.3203 303.664V310.617C70.8099 310.607 71.2552 310.529 71.6562 310.383C72.0573 310.232 72.388 310.034 72.6484 309.789C72.987 309.477 73.2422 309.094 73.4141 308.641C73.5859 308.188 73.6719 307.654 73.6719 307.039ZM68.7812 310.617V303.664C68.2292 303.669 67.7682 303.742 67.3984 303.883C67.0286 304.023 66.6927 304.237 66.3906 304.523C66.0885 304.81 65.8516 305.174 65.6797 305.617C65.513 306.06 65.4297 306.534 65.4297 307.039C65.4297 307.622 65.5156 308.151 65.6875 308.625C65.8646 309.099 66.1198 309.487 66.4531 309.789C66.7083 310.023 67.0365 310.219 67.4375 310.375C67.8438 310.531 68.2917 310.612 68.7812 310.617ZM84.9922 308.641C84.9922 310.062 84.6276 311.185 83.8984 312.008C83.1693 312.831 82.1927 313.242 80.9688 313.242C79.7344 313.242 78.7526 312.831 78.0234 312.008C77.2995 311.185 76.9375 310.062 76.9375 308.641C76.9375 307.219 77.2995 306.096 78.0234 305.273C78.7526 304.445 79.7344 304.031 80.9688 304.031C82.1927 304.031 83.1693 304.445 83.8984 305.273C84.6276 306.096 84.9922 307.219 84.9922 308.641ZM83.4766 308.641C83.4766 307.51 83.2552 306.672 82.8125 306.125C82.3698 305.573 81.7552 305.297 80.9688 305.297C80.1719 305.297 79.5521 305.573 79.1094 306.125C78.6719 306.672 78.4531 307.51 78.4531 308.641C78.4531 309.734 78.6745 310.565 79.1172 311.133C79.5599 311.695 80.1771 311.977 80.9688 311.977C81.75 311.977 82.362 311.698 82.8047 311.141C83.2526 310.578 83.4766 309.745 83.4766 308.641ZM94.9531 308.531C94.9531 309.24 94.8516 309.888 94.6484 310.477C94.4453 311.06 94.1589 311.555 93.7891 311.961C93.4453 312.346 93.0391 312.646 92.5703 312.859C92.1068 313.068 91.6146 313.172 91.0938 313.172C90.6406 313.172 90.2292 313.122 89.8594 313.023C89.4948 312.924 89.1224 312.771 88.7422 312.562V316.219H87.2734V304.273H88.7422V305.188C89.1328 304.859 89.5703 304.586 90.0547 304.367C90.5443 304.143 91.0651 304.031 91.6172 304.031C92.6693 304.031 93.487 304.43 94.0703 305.227C94.6589 306.018 94.9531 307.12 94.9531 308.531ZM93.4375 308.57C93.4375 307.518 93.2578 306.732 92.8984 306.211C92.5391 305.69 91.987 305.43 91.2422 305.43C90.8203 305.43 90.3958 305.521 89.9688 305.703C89.5417 305.885 89.1328 306.125 88.7422 306.422V311.367C89.1589 311.555 89.5156 311.682 89.8125 311.75C90.1146 311.818 90.4557 311.852 90.8359 311.852C91.6536 311.852 92.2917 311.576 92.75 311.023C93.2083 310.471 93.4375 309.654 93.4375 308.57ZM104.789 304.273L99.6953 316.219H98.125L99.75 312.578L96.2734 304.273H97.8672L100.547 310.742L103.25 304.273H104.789ZM114.961 313H113.508V306.109L111.336 310.594H110.242L108.086 306.109V313H106.711V304.273H108.484L110.859 309.156L113.156 304.273H114.961V313ZM125.289 308.641C125.289 310.062 124.924 311.185 124.195 312.008C123.466 312.831 122.49 313.242 121.266 313.242C120.031 313.242 119.049 312.831 118.32 312.008C117.596 311.185 117.234 310.062 117.234 308.641C117.234 307.219 117.596 306.096 118.32 305.273C119.049 304.445 120.031 304.031 121.266 304.031C122.49 304.031 123.466 304.445 124.195 305.273C124.924 306.096 125.289 307.219 125.289 308.641ZM123.773 308.641C123.773 307.51 123.552 306.672 123.109 306.125C122.667 305.573 122.052 305.297 121.266 305.297C120.469 305.297 119.849 305.573 119.406 306.125C118.969 306.672 118.75 307.51 118.75 308.641C118.75 309.734 118.971 310.565 119.414 311.133C119.857 311.695 120.474 311.977 121.266 311.977C122.047 311.977 122.659 311.698 123.102 311.141C123.549 310.578 123.773 309.745 123.773 308.641ZM134.773 310.359C134.773 310.781 134.688 311.156 134.516 311.484C134.349 311.812 134.117 312.086 133.82 312.305C133.487 312.549 133.122 312.727 132.727 312.836C132.336 312.945 131.82 313 131.18 313H127.57V304.273H130.945C131.596 304.273 132.086 304.297 132.414 304.344C132.747 304.385 133.06 304.482 133.352 304.633C133.68 304.805 133.919 305.029 134.07 305.305C134.227 305.581 134.305 305.906 134.305 306.281C134.305 306.714 134.182 307.089 133.938 307.406C133.693 307.724 133.378 307.971 132.992 308.148V308.227C133.508 308.352 133.932 308.594 134.266 308.953C134.604 309.307 134.773 309.776 134.773 310.359ZM132.797 306.508C132.797 306.32 132.755 306.151 132.672 306C132.594 305.849 132.471 305.732 132.305 305.648C132.086 305.539 131.839 305.479 131.562 305.469C131.292 305.453 130.956 305.445 130.555 305.445H129.023V307.836H130.859C131.245 307.836 131.529 307.823 131.711 307.797C131.898 307.766 132.086 307.693 132.273 307.578C132.471 307.453 132.607 307.307 132.68 307.141C132.758 306.969 132.797 306.758 132.797 306.508ZM133.258 310.367C133.258 310.081 133.211 309.849 133.117 309.672C133.023 309.49 132.818 309.323 132.5 309.172C132.302 309.078 132.089 309.023 131.859 309.008C131.63 308.987 131.312 308.977 130.906 308.977H129.023V311.828H130.414C130.997 311.828 131.445 311.81 131.758 311.773C132.076 311.732 132.349 311.646 132.578 311.516C132.807 311.385 132.977 311.227 133.086 311.039C133.201 310.852 133.258 310.628 133.258 310.367Z" fill="#333333"/>
<path d="M30 347L37.5 354.5L50 339.5" stroke="#61B857" stroke-width="2" stroke-linecap="round" stroke-linejoin="round"/>
<path d="M73.2344 337.703C73.7083 338.224 74.0703 338.862 74.3203 339.617C74.5755 340.372 74.7031 341.229 74.7031 342.188C74.7031 343.146 74.5729 344.005 74.3125 344.766C74.0573 345.521 73.6979 346.151 73.2344 346.656C72.7552 347.182 72.1875 347.578 71.5312 347.844C70.8802 348.109 70.1354 348.242 69.2969 348.242C68.4792 348.242 67.7344 348.107 67.0625 347.836C66.3958 347.565 65.8281 347.172 65.3594 346.656C64.8906 346.141 64.5286 345.508 64.2734 344.758C64.0234 344.008 63.8984 343.151 63.8984 342.188C63.8984 341.24 64.0234 340.391 64.2734 339.641C64.5234 338.885 64.888 338.24 65.3672 337.703C65.8255 337.193 66.3932 336.802 67.0703 336.531C67.7526 336.26 68.4948 336.125 69.2969 336.125C70.1302 336.125 70.8776 336.263 71.5391 336.539C72.2057 336.81 72.7708 337.198 73.2344 337.703ZM73.0938 342.188C73.0938 340.677 72.7552 339.513 72.0781 338.695C71.401 337.872 70.4766 337.461 69.3047 337.461C68.1224 337.461 67.1927 337.872 66.5156 338.695C65.8438 339.513 65.5078 340.677 65.5078 342.188C65.5078 343.714 65.8516 344.883 66.5391 345.695C67.2266 346.503 68.1484 346.906 69.3047 346.906C70.4609 346.906 71.3802 346.503 72.0625 345.695C72.75 344.883 73.0938 343.714 73.0938 342.188ZM84.7188 343.531C84.7188 344.24 84.6172 344.888 84.4141 345.477C84.2109 346.06 83.9245 346.555 83.5547 346.961C83.2109 347.346 82.8047 347.646 82.3359 347.859C81.8724 348.068 81.3802 348.172 80.8594 348.172C80.4062 348.172 79.9948 348.122 79.625 348.023C79.2604 347.924 78.888 347.771 78.5078 347.562V351.219H77.0391V339.273H78.5078V340.188C78.8984 339.859 79.3359 339.586 79.8203 339.367C80.3099 339.143 80.8307 339.031 81.3828 339.031C82.4349 339.031 83.2526 339.43 83.8359 340.227C84.4245 341.018 84.7188 342.12 84.7188 343.531ZM83.2031 343.57C83.2031 342.518 83.0234 341.732 82.6641 341.211C82.3047 340.69 81.7526 340.43 81.0078 340.43C80.5859 340.43 80.1615 340.521 79.7344 340.703C79.3073 340.885 78.8984 341.125 78.5078 341.422V346.367C78.9245 346.555 79.2812 346.682 79.5781 346.75C79.8802 346.818 80.2214 346.852 80.6016 346.852C81.4193 346.852 82.0573 346.576 82.5156 346.023C82.974 345.471 83.2031 344.654 83.2031 343.57ZM93.0234 340.562H88.4766V348H87.0078V339.273H93.0234V340.562ZM101.336 348H99.875V347.07C99.7448 347.159 99.5677 347.284 99.3438 347.445C99.125 347.602 98.9115 347.727 98.7031 347.82C98.4583 347.94 98.1771 348.039 97.8594 348.117C97.5417 348.201 97.1693 348.242 96.7422 348.242C95.9557 348.242 95.2891 347.982 94.7422 347.461C94.1953 346.94 93.9219 346.276 93.9219 345.469C93.9219 344.807 94.0625 344.273 94.3438 343.867C94.6302 343.456 95.0365 343.133 95.5625 342.898C96.0938 342.664 96.7318 342.505 97.4766 342.422C98.2214 342.339 99.0208 342.276 99.875 342.234V342.008C99.875 341.674 99.8151 341.398 99.6953 341.18C99.5807 340.961 99.4141 340.789 99.1953 340.664C98.987 340.544 98.737 340.464 98.4453 340.422C98.1536 340.38 97.849 340.359 97.5312 340.359C97.1458 340.359 96.7161 340.411 96.2422 340.516C95.7682 340.615 95.2786 340.76 94.7734 340.953H94.6953V339.461C94.9818 339.383 95.3958 339.297 95.9375 339.203C96.4792 339.109 97.013 339.062 97.5391 339.062C98.1536 339.062 98.6875 339.115 99.1406 339.219C99.599 339.318 99.9948 339.49 100.328 339.734C100.656 339.974 100.906 340.284 101.078 340.664C101.25 341.044 101.336 341.516 101.336 342.078V348ZM99.875 345.852V343.422C99.4271 343.448 98.8984 343.487 98.2891 343.539C97.6849 343.591 97.2057 343.667 96.8516 343.766C96.4297 343.885 96.0885 344.073 95.8281 344.328C95.5677 344.578 95.4375 344.924 95.4375 345.367C95.4375 345.867 95.5885 346.245 95.8906 346.5C96.1927 346.75 96.6536 346.875 97.2734 346.875C97.7891 346.875 98.2604 346.776 98.6875 346.578C99.1146 346.375 99.5104 346.133 99.875 345.852ZM111.469 348H110V344.07H105.633V348H104.164V339.273H105.633V342.805H110V339.273H111.469V348ZM121.719 348H120.266V341.445L115.695 348H114.367V339.273H115.82V345.734L120.344 339.273H121.719V348ZM130.688 345.555C130.688 346.044 130.573 346.458 130.344 346.797C130.12 347.135 129.831 347.409 129.477 347.617C129.122 347.82 128.732 347.969 128.305 348.062C127.878 348.156 127.451 348.203 127.023 348.203C126.419 348.203 125.844 348.146 125.297 348.031C124.75 347.917 124.211 347.74 123.68 347.5V345.891H123.781C124.161 346.224 124.646 346.482 125.234 346.664C125.823 346.846 126.393 346.938 126.945 346.938C127.206 346.938 127.474 346.914 127.75 346.867C128.026 346.815 128.266 346.734 128.469 346.625C128.688 346.5 128.862 346.352 128.992 346.18C129.122 346.003 129.188 345.763 129.188 345.461C129.188 345.148 129.122 344.898 128.992 344.711C128.867 344.523 128.695 344.383 128.477 344.289C128.263 344.195 128.005 344.138 127.703 344.117C127.401 344.096 127.125 344.086 126.875 344.086H125.602V342.82H126.484C126.693 342.82 126.964 342.812 127.297 342.797C127.635 342.781 127.909 342.74 128.117 342.672C128.388 342.583 128.602 342.458 128.758 342.297C128.919 342.135 129 341.878 129 341.523C129 341.279 128.938 341.078 128.812 340.922C128.688 340.76 128.531 340.635 128.344 340.547C128.151 340.458 127.935 340.398 127.695 340.367C127.461 340.336 127.253 340.32 127.07 340.32C126.539 340.32 126.016 340.393 125.5 340.539C124.99 340.68 124.56 340.885 124.211 341.156H124.109V339.539C124.542 339.398 125.005 339.284 125.5 339.195C125.995 339.107 126.49 339.062 126.984 339.062C127.391 339.062 127.794 339.099 128.195 339.172C128.602 339.245 128.979 339.37 129.328 339.547C129.672 339.724 129.953 339.966 130.172 340.273C130.391 340.576 130.5 340.951 130.5 341.398C130.5 341.857 130.357 342.26 130.07 342.609C129.789 342.953 129.409 343.201 128.93 343.352V343.406C129.466 343.536 129.893 343.781 130.211 344.141C130.529 344.495 130.688 344.966 130.688 345.555ZM139.789 348H138.328V347.07C138.198 347.159 138.021 347.284 137.797 347.445C137.578 347.602 137.365 347.727 137.156 347.82C136.911 347.94 136.63 348.039 136.312 348.117C135.995 348.201 135.622 348.242 135.195 348.242C134.409 348.242 133.742 347.982 133.195 347.461C132.648 346.94 132.375 346.276 132.375 345.469C132.375 344.807 132.516 344.273 132.797 343.867C133.083 343.456 133.49 343.133 134.016 342.898C134.547 342.664 135.185 342.505 135.93 342.422C136.674 342.339 137.474 342.276 138.328 342.234V342.008C138.328 341.674 138.268 341.398 138.148 341.18C138.034 340.961 137.867 340.789 137.648 340.664C137.44 340.544 137.19 340.464 136.898 340.422C136.607 340.38 136.302 340.359 135.984 340.359C135.599 340.359 135.169 340.411 134.695 340.516C134.221 340.615 133.732 340.76 133.227 340.953H133.148V339.461C133.435 339.383 133.849 339.297 134.391 339.203C134.932 339.109 135.466 339.062 135.992 339.062C136.607 339.062 137.141 339.115 137.594 339.219C138.052 339.318 138.448 339.49 138.781 339.734C139.109 339.974 139.359 340.284 139.531 340.664C139.703 341.044 139.789 341.516 139.789 342.078V348ZM138.328 345.852V343.422C137.88 343.448 137.352 343.487 136.742 343.539C136.138 343.591 135.659 343.667 135.305 343.766C134.883 343.885 134.542 344.073 134.281 344.328C134.021 344.578 133.891 344.924 133.891 345.367C133.891 345.867 134.042 346.245 134.344 346.5C134.646 346.75 135.107 346.875 135.727 346.875C136.242 346.875 136.714 346.776 137.141 346.578C137.568 346.375 137.964 346.133 138.328 345.852ZM149.539 348H142.617V339.273H144.086V346.734H148.383V339.273H149.852V346.734H150.906V350.094H149.539V348ZM160.281 348H158.828V341.445L154.258 348H152.93V339.273H154.383V345.734L158.906 339.273H160.281V348ZM169.883 348H168.414V344.539H166.688L163.984 348H162.258L165.195 344.398C164.44 344.19 163.888 343.872 163.539 343.445C163.19 343.013 163.016 342.448 163.016 341.75C163.016 341.286 163.12 340.893 163.328 340.57C163.536 340.247 163.799 339.984 164.117 339.781C164.43 339.583 164.789 339.451 165.195 339.383C165.602 339.31 166.044 339.273 166.523 339.273H169.883V348ZM168.414 343.383V340.445H166.562C166.161 340.445 165.872 340.458 165.695 340.484C165.518 340.51 165.326 340.581 165.117 340.695C164.914 340.81 164.763 340.966 164.664 341.164C164.57 341.357 164.523 341.568 164.523 341.797C164.523 342.083 164.552 342.315 164.609 342.492C164.672 342.669 164.797 342.836 164.984 342.992C165.177 343.143 165.411 343.247 165.688 343.305C165.964 343.357 166.271 343.383 166.609 343.383H168.414ZM187.297 344.398C187.297 344.961 187.185 345.471 186.961 345.93C186.742 346.388 186.448 346.76 186.078 347.047C185.641 347.391 185.172 347.635 184.672 347.781C184.172 347.927 183.526 348 182.734 348H178.516V336.367H186.305V337.742H180.062V340.93H182.781C183.573 340.93 184.219 340.977 184.719 341.07C185.219 341.159 185.69 341.375 186.133 341.719C186.529 342.026 186.82 342.406 187.008 342.859C187.201 343.312 187.297 343.826 187.297 344.398ZM185.68 344.43C185.68 344.039 185.615 343.695 185.484 343.398C185.354 343.102 185.151 342.862 184.875 342.68C184.589 342.487 184.258 342.37 183.883 342.328C183.508 342.286 182.979 342.266 182.297 342.266H180.062V346.68H182.258C182.951 346.68 183.482 346.646 183.852 346.578C184.227 346.51 184.555 346.38 184.836 346.188C185.128 345.984 185.341 345.747 185.477 345.477C185.612 345.201 185.68 344.852 185.68 344.43ZM196.719 348H195.266V341.445L190.695 348H189.367V339.273H190.82V345.734L195.344 339.273H196.719V348ZM205.688 345.555C205.688 346.044 205.573 346.458 205.344 346.797C205.12 347.135 204.831 347.409 204.477 347.617C204.122 347.82 203.732 347.969 203.305 348.062C202.878 348.156 202.451 348.203 202.023 348.203C201.419 348.203 200.844 348.146 200.297 348.031C199.75 347.917 199.211 347.74 198.68 347.5V345.891H198.781C199.161 346.224 199.646 346.482 200.234 346.664C200.823 346.846 201.393 346.938 201.945 346.938C202.206 346.938 202.474 346.914 202.75 346.867C203.026 346.815 203.266 346.734 203.469 346.625C203.688 346.5 203.862 346.352 203.992 346.18C204.122 346.003 204.188 345.763 204.188 345.461C204.188 345.148 204.122 344.898 203.992 344.711C203.867 344.523 203.695 344.383 203.477 344.289C203.263 344.195 203.005 344.138 202.703 344.117C202.401 344.096 202.125 344.086 201.875 344.086H200.602V342.82H201.484C201.693 342.82 201.964 342.812 202.297 342.797C202.635 342.781 202.909 342.74 203.117 342.672C203.388 342.583 203.602 342.458 203.758 342.297C203.919 342.135 204 341.878 204 341.523C204 341.279 203.938 341.078 203.812 340.922C203.688 340.76 203.531 340.635 203.344 340.547C203.151 340.458 202.935 340.398 202.695 340.367C202.461 340.336 202.253 340.32 202.07 340.32C201.539 340.32 201.016 340.393 200.5 340.539C199.99 340.68 199.56 340.885 199.211 341.156H199.109V339.539C199.542 339.398 200.005 339.284 200.5 339.195C200.995 339.107 201.49 339.062 201.984 339.062C202.391 339.062 202.794 339.099 203.195 339.172C203.602 339.245 203.979 339.37 204.328 339.547C204.672 339.724 204.953 339.966 205.172 340.273C205.391 340.576 205.5 340.951 205.5 341.398C205.5 341.857 205.357 342.26 205.07 342.609C204.789 342.953 204.409 343.201 203.93 343.352V343.406C204.466 343.536 204.893 343.781 205.211 344.141C205.529 344.495 205.688 344.966 205.688 345.555ZM215.312 348H213.844V344.07H209.477V348H208.008V339.273H209.477V342.805H213.844V339.273H215.312V348ZM225.516 343.789H219.086C219.086 344.326 219.167 344.794 219.328 345.195C219.49 345.591 219.711 345.917 219.992 346.172C220.263 346.422 220.583 346.609 220.953 346.734C221.328 346.859 221.74 346.922 222.188 346.922C222.781 346.922 223.378 346.805 223.977 346.57C224.581 346.331 225.01 346.096 225.266 345.867H225.344V347.469C224.849 347.677 224.344 347.852 223.828 347.992C223.312 348.133 222.771 348.203 222.203 348.203C220.755 348.203 219.625 347.812 218.812 347.031C218 346.245 217.594 345.13 217.594 343.688C217.594 342.26 217.982 341.128 218.758 340.289C219.539 339.451 220.565 339.031 221.836 339.031C223.013 339.031 223.919 339.375 224.555 340.062C225.195 340.75 225.516 341.727 225.516 342.992V343.789ZM224.086 342.664C224.081 341.893 223.885 341.297 223.5 340.875C223.12 340.453 222.539 340.242 221.758 340.242C220.971 340.242 220.344 340.474 219.875 340.938C219.411 341.401 219.148 341.977 219.086 342.664H224.086ZM234.273 347.453C233.674 347.734 233.159 347.927 232.727 348.031C232.299 348.141 231.872 348.195 231.445 348.195C230.81 348.195 230.227 348.104 229.695 347.922C229.164 347.734 228.708 347.453 228.328 347.078C227.948 346.703 227.651 346.229 227.438 345.656C227.229 345.083 227.125 344.414 227.125 343.648C227.125 342.258 227.51 341.148 228.281 340.32C229.052 339.487 230.107 339.07 231.445 339.07C231.951 339.07 232.445 339.141 232.93 339.281C233.419 339.422 233.867 339.594 234.273 339.797V341.43H234.188C233.703 341.06 233.224 340.786 232.75 340.609C232.281 340.432 231.826 340.344 231.383 340.344C230.513 340.344 229.839 340.635 229.359 341.219C228.885 341.802 228.648 342.612 228.648 343.648C228.648 344.685 228.885 345.49 229.359 346.062C229.833 346.635 230.508 346.922 231.383 346.922C231.69 346.922 231.995 346.883 232.297 346.805C232.604 346.727 232.883 346.625 233.133 346.5C233.331 346.401 233.534 346.284 233.742 346.148C233.956 346.008 234.104 345.904 234.188 345.836H234.273V347.453ZM73.9141 367H71.9297L67.2031 361.695H66.1484V367H64.6016V355.367H66.1484V360.586C66.4141 360.581 66.6641 360.555 66.8984 360.508C67.1328 360.461 67.3542 360.372 67.5625 360.242C67.7708 360.122 67.9766 359.953 68.1797 359.734C68.3828 359.51 68.5625 359.237 68.7188 358.914C68.7865 358.773 68.8646 358.596 68.9531 358.383C69.0469 358.169 69.1406 357.945 69.2344 357.711C69.5938 356.846 70.013 356.24 70.4922 355.891C70.9766 355.542 71.6875 355.367 72.625 355.367H73.2422V356.75H72.5938C72.2344 356.75 71.9531 356.784 71.75 356.852C71.5469 356.914 71.3646 357.021 71.2031 357.172C71.0521 357.307 70.9193 357.49 70.8047 357.719C70.6953 357.948 70.5807 358.216 70.4609 358.523C70.1901 359.211 69.9141 359.716 69.6328 360.039C69.3568 360.362 68.9844 360.643 68.5156 360.883L73.9141 367ZM82.9766 362.641C82.9766 364.062 82.612 365.185 81.8828 366.008C81.1536 366.831 80.1771 367.242 78.9531 367.242C77.7188 367.242 76.737 366.831 76.0078 366.008C75.2839 365.185 74.9219 364.062 74.9219 362.641C74.9219 361.219 75.2839 360.096 76.0078 359.273C76.737 358.445 77.7188 358.031 78.9531 358.031C80.1771 358.031 81.1536 358.445 81.8828 359.273C82.612 360.096 82.9766 361.219 82.9766 362.641ZM81.4609 362.641C81.4609 361.51 81.2396 360.672 80.7969 360.125C80.3542 359.573 79.7396 359.297 78.9531 359.297C78.1562 359.297 77.5365 359.573 77.0938 360.125C76.6562 360.672 76.4375 361.51 76.4375 362.641C76.4375 363.734 76.6589 364.565 77.1016 365.133C77.5443 365.695 78.1615 365.977 78.9531 365.977C79.7344 365.977 80.3464 365.698 80.7891 365.141C81.237 364.578 81.4609 363.745 81.4609 362.641ZM92.5625 367H91.0938V363.07H86.7266V367H85.2578V358.273H86.7266V361.805H91.0938V358.273H92.5625V367ZM101.992 366.453C101.393 366.734 100.878 366.927 100.445 367.031C100.018 367.141 99.5911 367.195 99.1641 367.195C98.5286 367.195 97.9453 367.104 97.4141 366.922C96.8828 366.734 96.4271 366.453 96.0469 366.078C95.6667 365.703 95.3698 365.229 95.1562 364.656C94.9479 364.083 94.8438 363.414 94.8438 362.648C94.8438 361.258 95.2292 360.148 96 359.32C96.7708 358.487 97.8255 358.07 99.1641 358.07C99.6693 358.07 100.164 358.141 100.648 358.281C101.138 358.422 101.586 358.594 101.992 358.797V360.43H101.906C101.422 360.06 100.943 359.786 100.469 359.609C100 359.432 99.5443 359.344 99.1016 359.344C98.2318 359.344 97.5573 359.635 97.0781 360.219C96.6042 360.802 96.3672 361.612 96.3672 362.648C96.3672 363.685 96.6042 364.49 97.0781 365.062C97.5521 365.635 98.2266 365.922 99.1016 365.922C99.4089 365.922 99.7135 365.883 100.016 365.805C100.323 365.727 100.602 365.625 100.852 365.5C101.049 365.401 101.253 365.284 101.461 365.148C101.674 365.008 101.823 364.904 101.906 364.836H101.992V366.453ZM111.555 358.273L106.461 370.219H104.891L106.516 366.578L103.039 358.273H104.633L107.312 364.742L110.016 358.273H111.555ZM120.516 367H119.047V359.508H115.789C115.773 359.94 115.758 360.357 115.742 360.758C115.727 361.159 115.711 361.521 115.695 361.844C115.659 362.714 115.599 363.409 115.516 363.93C115.432 364.445 115.323 364.875 115.188 365.219C115.062 365.542 114.922 365.805 114.766 366.008C114.615 366.206 114.451 366.385 114.273 366.547C114.096 366.703 113.898 366.82 113.68 366.898C113.466 366.977 113.232 367.016 112.977 367.016C112.888 367.016 112.758 367.013 112.586 367.008C112.419 367.003 112.31 367 112.258 367V365.719H112.336C112.378 365.719 112.438 365.721 112.516 365.727C112.594 365.732 112.659 365.734 112.711 365.734C112.836 365.734 112.964 365.716 113.094 365.68C113.229 365.643 113.344 365.576 113.438 365.477C113.703 365.216 113.917 364.776 114.078 364.156C114.24 363.536 114.346 362.641 114.398 361.469C114.419 361.042 114.438 360.536 114.453 359.953C114.474 359.365 114.492 358.805 114.508 358.273H120.516V367ZM128.867 364.32C128.867 364.055 128.82 363.823 128.727 363.625C128.638 363.422 128.49 363.258 128.281 363.133C128.062 363.003 127.812 362.924 127.531 362.898C127.255 362.872 126.857 362.859 126.336 362.859H124.883V365.828H126.305C126.826 365.828 127.229 365.807 127.516 365.766C127.802 365.719 128.049 365.633 128.258 365.508C128.471 365.372 128.625 365.214 128.719 365.031C128.818 364.844 128.867 364.607 128.867 364.32ZM130.383 364.297C130.383 364.719 130.297 365.102 130.125 365.445C129.958 365.789 129.729 366.068 129.438 366.281C129.094 366.542 128.727 366.727 128.336 366.836C127.945 366.945 127.443 367 126.828 367H123.414V358.273H124.883V361.672H126.867C127.523 361.672 128.031 361.706 128.391 361.773C128.755 361.841 129.117 362.008 129.477 362.273C129.779 362.497 130.005 362.784 130.156 363.133C130.307 363.482 130.383 363.87 130.383 364.297ZM138.969 359.562H135.812V367H134.344V359.562H131.188V358.273H138.969V359.562ZM147.273 367H145.812V366.07C145.682 366.159 145.505 366.284 145.281 366.445C145.062 366.602 144.849 366.727 144.641 366.82C144.396 366.94 144.115 367.039 143.797 367.117C143.479 367.201 143.107 367.242 142.68 367.242C141.893 367.242 141.227 366.982 140.68 366.461C140.133 365.94 139.859 365.276 139.859 364.469C139.859 363.807 140 363.273 140.281 362.867C140.568 362.456 140.974 362.133 141.5 361.898C142.031 361.664 142.669 361.505 143.414 361.422C144.159 361.339 144.958 361.276 145.812 361.234V361.008C145.812 360.674 145.753 360.398 145.633 360.18C145.518 359.961 145.352 359.789 145.133 359.664C144.924 359.544 144.674 359.464 144.383 359.422C144.091 359.38 143.786 359.359 143.469 359.359C143.083 359.359 142.654 359.411 142.18 359.516C141.706 359.615 141.216 359.76 140.711 359.953H140.633V358.461C140.919 358.383 141.333 358.297 141.875 358.203C142.417 358.109 142.951 358.062 143.477 358.062C144.091 358.062 144.625 358.115 145.078 358.219C145.536 358.318 145.932 358.49 146.266 358.734C146.594 358.974 146.844 359.284 147.016 359.664C147.188 360.044 147.273 360.516 147.273 361.078V367ZM145.812 364.852V362.422C145.365 362.448 144.836 362.487 144.227 362.539C143.622 362.591 143.143 362.667 142.789 362.766C142.367 362.885 142.026 363.073 141.766 363.328C141.505 363.578 141.375 363.924 141.375 364.367C141.375 364.867 141.526 365.245 141.828 365.5C142.13 365.75 142.591 365.875 143.211 365.875C143.727 365.875 144.198 365.776 144.625 365.578C145.052 365.375 145.448 365.133 145.812 364.852ZM157.023 367H150.102V358.273H151.57V365.734H155.867V358.273H157.336V365.734H158.391V369.094H157.023V367ZM167.766 367H166.312V360.445L161.742 367H160.414V358.273H161.867V364.734L166.391 358.273H167.766V367ZM178.016 367H176.562V360.445L171.992 367H170.664V358.273H172.117V364.734L176.641 358.273H178.016V367Z" fill="#333333"/>
<path d="M30 401L37.5 408.5L50 393.5" stroke="#61B857" stroke-width="2" stroke-linecap="round" stroke-linejoin="round"/>
<path d="M73.2344 391.703C73.7083 392.224 74.0703 392.862 74.3203 393.617C74.5755 394.372 74.7031 395.229 74.7031 396.188C74.7031 397.146 74.5729 398.005 74.3125 398.766C74.0573 399.521 73.6979 400.151 73.2344 400.656C72.7552 401.182 72.1875 401.578 71.5312 401.844C70.8802 402.109 70.1354 402.242 69.2969 402.242C68.4792 402.242 67.7344 402.107 67.0625 401.836C66.3958 401.565 65.8281 401.172 65.3594 400.656C64.8906 400.141 64.5286 399.508 64.2734 398.758C64.0234 398.008 63.8984 397.151 63.8984 396.188C63.8984 395.24 64.0234 394.391 64.2734 393.641C64.5234 392.885 64.888 392.24 65.3672 391.703C65.8255 391.193 66.3932 390.802 67.0703 390.531C67.7526 390.26 68.4948 390.125 69.2969 390.125C70.1302 390.125 70.8776 390.263 71.5391 390.539C72.2057 390.81 72.7708 391.198 73.2344 391.703ZM73.0938 396.188C73.0938 394.677 72.7552 393.513 72.0781 392.695C71.401 391.872 70.4766 391.461 69.3047 391.461C68.1224 391.461 67.1927 391.872 66.5156 392.695C65.8438 393.513 65.5078 394.677 65.5078 396.188C65.5078 397.714 65.8516 398.883 66.5391 399.695C67.2266 400.503 68.1484 400.906 69.3047 400.906C70.4609 400.906 71.3802 400.503 72.0625 399.695C72.75 398.883 73.0938 397.714 73.0938 396.188ZM84.7188 397.531C84.7188 398.24 84.6172 398.888 84.4141 399.477C84.2109 400.06 83.9245 400.555 83.5547 400.961C83.2109 401.346 82.8047 401.646 82.3359 401.859C81.8724 402.068 81.3802 402.172 80.8594 402.172C80.4062 402.172 79.9948 402.122 79.625 402.023C79.2604 401.924 78.888 401.771 78.5078 401.562V405.219H77.0391V393.273H78.5078V394.188C78.8984 393.859 79.3359 393.586 79.8203 393.367C80.3099 393.143 80.8307 393.031 81.3828 393.031C82.4349 393.031 83.2526 393.43 83.8359 394.227C84.4245 395.018 84.7188 396.12 84.7188 397.531ZM83.2031 397.57C83.2031 396.518 83.0234 395.732 82.6641 395.211C82.3047 394.69 81.7526 394.43 81.0078 394.43C80.5859 394.43 80.1615 394.521 79.7344 394.703C79.3073 394.885 78.8984 395.125 78.5078 395.422V400.367C78.9245 400.555 79.2812 400.682 79.5781 400.75C79.8802 400.818 80.2214 400.852 80.6016 400.852C81.4193 400.852 82.0573 400.576 82.5156 400.023C82.974 399.471 83.2031 398.654 83.2031 397.57ZM93.0234 394.562H88.4766V402H87.0078V393.273H93.0234V394.562ZM101.336 402H99.875V401.07C99.7448 401.159 99.5677 401.284 99.3438 401.445C99.125 401.602 98.9115 401.727 98.7031 401.82C98.4583 401.94 98.1771 402.039 97.8594 402.117C97.5417 402.201 97.1693 402.242 96.7422 402.242C95.9557 402.242 95.2891 401.982 94.7422 401.461C94.1953 400.94 93.9219 400.276 93.9219 399.469C93.9219 398.807 94.0625 398.273 94.3438 397.867C94.6302 397.456 95.0365 397.133 95.5625 396.898C96.0938 396.664 96.7318 396.505 97.4766 396.422C98.2214 396.339 99.0208 396.276 99.875 396.234V396.008C99.875 395.674 99.8151 395.398 99.6953 395.18C99.5807 394.961 99.4141 394.789 99.1953 394.664C98.987 394.544 98.737 394.464 98.4453 394.422C98.1536 394.38 97.849 394.359 97.5312 394.359C97.1458 394.359 96.7161 394.411 96.2422 394.516C95.7682 394.615 95.2786 394.76 94.7734 394.953H94.6953V393.461C94.9818 393.383 95.3958 393.297 95.9375 393.203C96.4792 393.109 97.013 393.062 97.5391 393.062C98.1536 393.062 98.6875 393.115 99.1406 393.219C99.599 393.318 99.9948 393.49 100.328 393.734C100.656 393.974 100.906 394.284 101.078 394.664C101.25 395.044 101.336 395.516 101.336 396.078V402ZM99.875 399.852V397.422C99.4271 397.448 98.8984 397.487 98.2891 397.539C97.6849 397.591 97.2057 397.667 96.8516 397.766C96.4297 397.885 96.0885 398.073 95.8281 398.328C95.5677 398.578 95.4375 398.924 95.4375 399.367C95.4375 399.867 95.5885 400.245 95.8906 400.5C96.1927 400.75 96.6536 400.875 97.2734 400.875C97.7891 400.875 98.2604 400.776 98.6875 400.578C99.1146 400.375 99.5104 400.133 99.875 399.852ZM111.469 402H110V398.07H105.633V402H104.164V393.273H105.633V396.805H110V393.273H111.469V402ZM121.719 402H120.266V395.445L115.695 402H114.367V393.273H115.82V399.734L120.344 393.273H121.719V402ZM130.688 399.555C130.688 400.044 130.573 400.458 130.344 400.797C130.12 401.135 129.831 401.409 129.477 401.617C129.122 401.82 128.732 401.969 128.305 402.062C127.878 402.156 127.451 402.203 127.023 402.203C126.419 402.203 125.844 402.146 125.297 402.031C124.75 401.917 124.211 401.74 123.68 401.5V399.891H123.781C124.161 400.224 124.646 400.482 125.234 400.664C125.823 400.846 126.393 400.938 126.945 400.938C127.206 400.938 127.474 400.914 127.75 400.867C128.026 400.815 128.266 400.734 128.469 400.625C128.688 400.5 128.862 400.352 128.992 400.18C129.122 400.003 129.188 399.763 129.188 399.461C129.188 399.148 129.122 398.898 128.992 398.711C128.867 398.523 128.695 398.383 128.477 398.289C128.263 398.195 128.005 398.138 127.703 398.117C127.401 398.096 127.125 398.086 126.875 398.086H125.602V396.82H126.484C126.693 396.82 126.964 396.812 127.297 396.797C127.635 396.781 127.909 396.74 128.117 396.672C128.388 396.583 128.602 396.458 128.758 396.297C128.919 396.135 129 395.878 129 395.523C129 395.279 128.938 395.078 128.812 394.922C128.688 394.76 128.531 394.635 128.344 394.547C128.151 394.458 127.935 394.398 127.695 394.367C127.461 394.336 127.253 394.32 127.07 394.32C126.539 394.32 126.016 394.393 125.5 394.539C124.99 394.68 124.56 394.885 124.211 395.156H124.109V393.539C124.542 393.398 125.005 393.284 125.5 393.195C125.995 393.107 126.49 393.062 126.984 393.062C127.391 393.062 127.794 393.099 128.195 393.172C128.602 393.245 128.979 393.37 129.328 393.547C129.672 393.724 129.953 393.966 130.172 394.273C130.391 394.576 130.5 394.951 130.5 395.398C130.5 395.857 130.357 396.26 130.07 396.609C129.789 396.953 129.409 397.201 128.93 397.352V397.406C129.466 397.536 129.893 397.781 130.211 398.141C130.529 398.495 130.688 398.966 130.688 399.555ZM139.789 402H138.328V401.07C138.198 401.159 138.021 401.284 137.797 401.445C137.578 401.602 137.365 401.727 137.156 401.82C136.911 401.94 136.63 402.039 136.312 402.117C135.995 402.201 135.622 402.242 135.195 402.242C134.409 402.242 133.742 401.982 133.195 401.461C132.648 400.94 132.375 400.276 132.375 399.469C132.375 398.807 132.516 398.273 132.797 397.867C133.083 397.456 133.49 397.133 134.016 396.898C134.547 396.664 135.185 396.505 135.93 396.422C136.674 396.339 137.474 396.276 138.328 396.234V396.008C138.328 395.674 138.268 395.398 138.148 395.18C138.034 394.961 137.867 394.789 137.648 394.664C137.44 394.544 137.19 394.464 136.898 394.422C136.607 394.38 136.302 394.359 135.984 394.359C135.599 394.359 135.169 394.411 134.695 394.516C134.221 394.615 133.732 394.76 133.227 394.953H133.148V393.461C133.435 393.383 133.849 393.297 134.391 393.203C134.932 393.109 135.466 393.062 135.992 393.062C136.607 393.062 137.141 393.115 137.594 393.219C138.052 393.318 138.448 393.49 138.781 393.734C139.109 393.974 139.359 394.284 139.531 394.664C139.703 395.044 139.789 395.516 139.789 396.078V402ZM138.328 399.852V397.422C137.88 397.448 137.352 397.487 136.742 397.539C136.138 397.591 135.659 397.667 135.305 397.766C134.883 397.885 134.542 398.073 134.281 398.328C134.021 398.578 133.891 398.924 133.891 399.367C133.891 399.867 134.042 400.245 134.344 400.5C134.646 400.75 135.107 400.875 135.727 400.875C136.242 400.875 136.714 400.776 137.141 400.578C137.568 400.375 137.964 400.133 138.328 399.852ZM149.539 402H142.617V393.273H144.086V400.734H148.383V393.273H149.852V400.734H150.906V404.094H149.539V402ZM160.281 402H158.828V395.445L154.258 402H152.93V393.273H154.383V399.734L158.906 393.273H160.281V402ZM169.883 402H168.414V398.539H166.688L163.984 402H162.258L165.195 398.398C164.44 398.19 163.888 397.872 163.539 397.445C163.19 397.013 163.016 396.448 163.016 395.75C163.016 395.286 163.12 394.893 163.328 394.57C163.536 394.247 163.799 393.984 164.117 393.781C164.43 393.583 164.789 393.451 165.195 393.383C165.602 393.31 166.044 393.273 166.523 393.273H169.883V402ZM168.414 397.383V394.445H166.562C166.161 394.445 165.872 394.458 165.695 394.484C165.518 394.51 165.326 394.581 165.117 394.695C164.914 394.81 164.763 394.966 164.664 395.164C164.57 395.357 164.523 395.568 164.523 395.797C164.523 396.083 164.552 396.315 164.609 396.492C164.672 396.669 164.797 396.836 164.984 396.992C165.177 397.143 165.411 397.247 165.688 397.305C165.964 397.357 166.271 397.383 166.609 397.383H168.414ZM187.297 398.398C187.297 398.961 187.185 399.471 186.961 399.93C186.742 400.388 186.448 400.76 186.078 401.047C185.641 401.391 185.172 401.635 184.672 401.781C184.172 401.927 183.526 402 182.734 402H178.516V390.367H186.305V391.742H180.062V394.93H182.781C183.573 394.93 184.219 394.977 184.719 395.07C185.219 395.159 185.69 395.375 186.133 395.719C186.529 396.026 186.82 396.406 187.008 396.859C187.201 397.312 187.297 397.826 187.297 398.398ZM185.68 398.43C185.68 398.039 185.615 397.695 185.484 397.398C185.354 397.102 185.151 396.862 184.875 396.68C184.589 396.487 184.258 396.37 183.883 396.328C183.508 396.286 182.979 396.266 182.297 396.266H180.062V400.68H182.258C182.951 400.68 183.482 400.646 183.852 400.578C184.227 400.51 184.555 400.38 184.836 400.188C185.128 399.984 185.341 399.747 185.477 399.477C185.612 399.201 185.68 398.852 185.68 398.43ZM196.719 402H195.266V395.445L190.695 402H189.367V393.273H190.82V399.734L195.344 393.273H196.719V402ZM205.688 399.555C205.688 400.044 205.573 400.458 205.344 400.797C205.12 401.135 204.831 401.409 204.477 401.617C204.122 401.82 203.732 401.969 203.305 402.062C202.878 402.156 202.451 402.203 202.023 402.203C201.419 402.203 200.844 402.146 200.297 402.031C199.75 401.917 199.211 401.74 198.68 401.5V399.891H198.781C199.161 400.224 199.646 400.482 200.234 400.664C200.823 400.846 201.393 400.938 201.945 400.938C202.206 400.938 202.474 400.914 202.75 400.867C203.026 400.815 203.266 400.734 203.469 400.625C203.688 400.5 203.862 400.352 203.992 400.18C204.122 400.003 204.188 399.763 204.188 399.461C204.188 399.148 204.122 398.898 203.992 398.711C203.867 398.523 203.695 398.383 203.477 398.289C203.263 398.195 203.005 398.138 202.703 398.117C202.401 398.096 202.125 398.086 201.875 398.086H200.602V396.82H201.484C201.693 396.82 201.964 396.812 202.297 396.797C202.635 396.781 202.909 396.74 203.117 396.672C203.388 396.583 203.602 396.458 203.758 396.297C203.919 396.135 204 395.878 204 395.523C204 395.279 203.938 395.078 203.812 394.922C203.688 394.76 203.531 394.635 203.344 394.547C203.151 394.458 202.935 394.398 202.695 394.367C202.461 394.336 202.253 394.32 202.07 394.32C201.539 394.32 201.016 394.393 200.5 394.539C199.99 394.68 199.56 394.885 199.211 395.156H199.109V393.539C199.542 393.398 200.005 393.284 200.5 393.195C200.995 393.107 201.49 393.062 201.984 393.062C202.391 393.062 202.794 393.099 203.195 393.172C203.602 393.245 203.979 393.37 204.328 393.547C204.672 393.724 204.953 393.966 205.172 394.273C205.391 394.576 205.5 394.951 205.5 395.398C205.5 395.857 205.357 396.26 205.07 396.609C204.789 396.953 204.409 397.201 203.93 397.352V397.406C204.466 397.536 204.893 397.781 205.211 398.141C205.529 398.495 205.688 398.966 205.688 399.555ZM215.312 402H213.844V398.07H209.477V402H208.008V393.273H209.477V396.805H213.844V393.273H215.312V402ZM225.516 397.789H219.086C219.086 398.326 219.167 398.794 219.328 399.195C219.49 399.591 219.711 399.917 219.992 400.172C220.263 400.422 220.583 400.609 220.953 400.734C221.328 400.859 221.74 400.922 222.188 400.922C222.781 400.922 223.378 400.805 223.977 400.57C224.581 400.331 225.01 400.096 225.266 399.867H225.344V401.469C224.849 401.677 224.344 401.852 223.828 401.992C223.312 402.133 222.771 402.203 222.203 402.203C220.755 402.203 219.625 401.812 218.812 401.031C218 400.245 217.594 399.13 217.594 397.688C217.594 396.26 217.982 395.128 218.758 394.289C219.539 393.451 220.565 393.031 221.836 393.031C223.013 393.031 223.919 393.375 224.555 394.062C225.195 394.75 225.516 395.727 225.516 396.992V397.789ZM224.086 396.664C224.081 395.893 223.885 395.297 223.5 394.875C223.12 394.453 222.539 394.242 221.758 394.242C220.971 394.242 220.344 394.474 219.875 394.938C219.411 395.401 219.148 395.977 219.086 396.664H224.086ZM234.273 401.453C233.674 401.734 233.159 401.927 232.727 402.031C232.299 402.141 231.872 402.195 231.445 402.195C230.81 402.195 230.227 402.104 229.695 401.922C229.164 401.734 228.708 401.453 228.328 401.078C227.948 400.703 227.651 400.229 227.438 399.656C227.229 399.083 227.125 398.414 227.125 397.648C227.125 396.258 227.51 395.148 228.281 394.32C229.052 393.487 230.107 393.07 231.445 393.07C231.951 393.07 232.445 393.141 232.93 393.281C233.419 393.422 233.867 393.594 234.273 393.797V395.43H234.188C233.703 395.06 233.224 394.786 232.75 394.609C232.281 394.432 231.826 394.344 231.383 394.344C230.513 394.344 229.839 394.635 229.359 395.219C228.885 395.802 228.648 396.612 228.648 397.648C228.648 398.685 228.885 399.49 229.359 400.062C229.833 400.635 230.508 400.922 231.383 400.922C231.69 400.922 231.995 400.883 232.297 400.805C232.604 400.727 232.883 400.625 233.133 400.5C233.331 400.401 233.534 400.284 233.742 400.148C233.956 400.008 234.104 399.904 234.188 399.836H234.273V401.453ZM72.8594 410.742H68.7031V421H67.1562V410.742H63V409.367H72.8594V410.742ZM81.9844 416.531C81.9844 417.24 81.8828 417.888 81.6797 418.477C81.4766 419.06 81.1901 419.555 80.8203 419.961C80.4766 420.346 80.0703 420.646 79.6016 420.859C79.138 421.068 78.6458 421.172 78.125 421.172C77.6719 421.172 77.2604 421.122 76.8906 421.023C76.526 420.924 76.1536 420.771 75.7734 420.562V424.219H74.3047V412.273H75.7734V413.188C76.1641 412.859 76.6016 412.586 77.0859 412.367C77.5755 412.143 78.0964 412.031 78.6484 412.031C79.7005 412.031 80.5182 412.43 81.1016 413.227C81.6901 414.018 81.9844 415.12 81.9844 416.531ZM80.4688 416.57C80.4688 415.518 80.2891 414.732 79.9297 414.211C79.5703 413.69 79.0182 413.43 78.2734 413.43C77.8516 413.43 77.4271 413.521 77 413.703C76.5729 413.885 76.1641 414.125 75.7734 414.422V419.367C76.1901 419.555 76.5469 419.682 76.8438 419.75C77.1458 419.818 77.487 419.852 77.8672 419.852C78.6849 419.852 79.3229 419.576 79.7812 419.023C80.2396 418.471 80.4688 417.654 80.4688 416.57ZM91.625 421H90.1719V414.445L85.6016 421H84.2734V412.273H85.7266V418.734L90.25 412.273H91.625V421ZM101.828 421H100.359V413.539H95.9922V421H94.5234V412.273H101.828V421ZM112.164 416.641C112.164 418.062 111.799 419.185 111.07 420.008C110.341 420.831 109.365 421.242 108.141 421.242C106.906 421.242 105.924 420.831 105.195 420.008C104.471 419.185 104.109 418.062 104.109 416.641C104.109 415.219 104.471 414.096 105.195 413.273C105.924 412.445 106.906 412.031 108.141 412.031C109.365 412.031 110.341 412.445 111.07 413.273C111.799 414.096 112.164 415.219 112.164 416.641ZM110.648 416.641C110.648 415.51 110.427 414.672 109.984 414.125C109.542 413.573 108.927 413.297 108.141 413.297C107.344 413.297 106.724 413.573 106.281 414.125C105.844 414.672 105.625 415.51 105.625 416.641C105.625 417.734 105.846 418.565 106.289 419.133C106.732 419.695 107.349 419.977 108.141 419.977C108.922 419.977 109.534 419.698 109.977 419.141C110.424 418.578 110.648 417.745 110.648 416.641ZM121.648 418.359C121.648 418.781 121.562 419.156 121.391 419.484C121.224 419.812 120.992 420.086 120.695 420.305C120.362 420.549 119.997 420.727 119.602 420.836C119.211 420.945 118.695 421 118.055 421H114.445V412.273H117.82C118.471 412.273 118.961 412.297 119.289 412.344C119.622 412.385 119.935 412.482 120.227 412.633C120.555 412.805 120.794 413.029 120.945 413.305C121.102 413.581 121.18 413.906 121.18 414.281C121.18 414.714 121.057 415.089 120.812 415.406C120.568 415.724 120.253 415.971 119.867 416.148V416.227C120.383 416.352 120.807 416.594 121.141 416.953C121.479 417.307 121.648 417.776 121.648 418.359ZM119.672 414.508C119.672 414.32 119.63 414.151 119.547 414C119.469 413.849 119.346 413.732 119.18 413.648C118.961 413.539 118.714 413.479 118.438 413.469C118.167 413.453 117.831 413.445 117.43 413.445H115.898V415.836H117.734C118.12 415.836 118.404 415.823 118.586 415.797C118.773 415.766 118.961 415.693 119.148 415.578C119.346 415.453 119.482 415.307 119.555 415.141C119.633 414.969 119.672 414.758 119.672 414.508ZM120.133 418.367C120.133 418.081 120.086 417.849 119.992 417.672C119.898 417.49 119.693 417.323 119.375 417.172C119.177 417.078 118.964 417.023 118.734 417.008C118.505 416.987 118.188 416.977 117.781 416.977H115.898V419.828H117.289C117.872 419.828 118.32 419.81 118.633 419.773C118.951 419.732 119.224 419.646 119.453 419.516C119.682 419.385 119.852 419.227 119.961 419.039C120.076 418.852 120.133 418.628 120.133 418.367Z" fill="#333333"/>
</g>
<defs>
<filter id="filter0_d_170_4074" x="0" y="0" width="326" height="540" filterUnits="userSpaceOnUse" color-interpolation-filters="sRGB">
<feFlood flood-opacity="0" result="BackgroundImageFix"/>
<feColorMatrix in="SourceAlpha" type="matrix" values="0 0 0 0 0 0 0 0 0 0 0 0 0 0 0 0 0 0 127 0" result="hardAlpha"/>
<feOffset dx="3" dy="5"/>
<feGaussianBlur stdDeviation="10"/>
<feComposite in2="hardAlpha" operator="out"/>
<feColorMatrix type="matrix" values="0 0 0 0 0.2 0 0 0 0 0.2 0 0 0 0 0.2 0 0 0 0.1 0"/>
<feBlend mode="normal" in2="BackgroundImageFix" result="effect1_dropShadow_170_4074"/>
<feBlend mode="normal" in="SourceGraphic" in2="effect1_dropShadow_170_4074" result="shape"/>
</filter>
<filter id="filter1_d_170_4074" x="22" y="28" width="112" height="112" filterUnits="userSpaceOnUse" color-interpolation-filters="sRGB">
<feFlood flood-opacity="0" result="BackgroundImageFix"/>
<feColorMatrix in="SourceAlpha" type="matrix" values="0 0 0 0 0 0 0 0 0 0 0 0 0 0 0 0 0 0 127 0" result="hardAlpha"/>
<feOffset dx="3" dy="3"/>
<feGaussianBlur stdDeviation="3"/>
<feComposite in2="hardAlpha" operator="out"/>
<feColorMatrix type="matrix" values="0 0 0 0 0.2 0 0 0 0 0.2 0 0 0 0 0.2 0 0 0 0.25 0"/>
<feBlend mode="normal" in2="BackgroundImageFix" result="effect1_dropShadow_170_4074"/>
<feBlend mode="normal" in="SourceGraphic" in2="effect1_dropShadow_170_4074" result="shape"/>
</filter>
</defs>
</svg>
