<svg width="40" height="40" viewBox="0 0 40 40" fill="none" xmlns="http://www.w3.org/2000/svg">
<path d="M31.6663 21C32.2186 21 32.6663 20.5523 32.6663 20C32.6663 19.4477 32.2186 19 31.6663 19V21ZM8.33301 20L7.6259 19.2929C7.23538 19.6834 7.23538 20.3166 7.6259 20.7071L8.33301 20ZM17.6259 30.7071C18.0164 31.0976 18.6496 31.0976 19.0401 30.7071C19.4306 30.3166 19.4306 29.6834 19.0401 29.2929L17.6259 30.7071ZM19.0401 10.7071C19.4306 10.3166 19.4306 9.68342 19.0401 9.29289C18.6496 8.90237 18.0164 8.90237 17.6259 9.29289L19.0401 10.7071ZM31.6663 19L8.33301 19L8.33301 21L31.6663 21V19ZM19.0401 29.2929L9.04011 19.2929L7.6259 20.7071L17.6259 30.7071L19.0401 29.2929ZM9.04011 20.7071L19.0401 10.7071L17.6259 9.29289L7.6259 19.2929L9.04011 20.7071Z" fill="#BDBDBD"/>
</svg>
