<svg width="40" height="40"   
 xmlns="http://www.w3.org/2000/svg"
 >
<path

 d="M1 6L0.292893 5.29289C-0.0976311 5.68342 -0.097631 6.31658 0.292893 6.70711L1 6ZM31 6L31.7071 6.70711C32.0976 6.31658 32.0976 5.68342 31.7071 5.29289L31 6ZM26.7071 0.292893C26.3166 -0.0976311 25.6834 -0.0976311 25.2929 0.292893C24.9024 0.683417 24.9024 1.31658 25.2929 1.70711L26.7071 0.292893ZM25.2929 10.2929C24.9024 10.6834 24.9024 11.3166 25.2929 11.7071C25.6834 12.0976 26.3166 12.0976 26.7071 11.7071L25.2929 10.2929ZM5.29289 11.7071C5.68342 12.0976 6.31658 12.0976 6.70711 11.7071C7.09763 11.3166 7.09763 10.6834 6.70711 10.2929L5.29289 11.7071ZM6.7071 1.70711C7.09763 1.31658 7.09763 0.683417 6.7071 0.292893C6.31658 -0.0976311 5.68342 -0.097631 5.29289 0.292893L6.7071 1.70711ZM1 7H31V5H1V7ZM25.2929 1.70711L30.2929 6.70711L31.7071 5.29289L26.7071 0.292893L25.2929 1.70711ZM30.2929 5.29289L25.2929 10.2929L26.7071 11.7071L31.7071 6.70711L30.2929 5.29289ZM6.70711 10.2929L1.70711 5.29289L0.292893 6.70711L5.29289 11.7071L6.70711 10.2929ZM1.70711 6.70711L6.7071 1.70711L5.29289 0.292893L0.292893 5.29289L1.70711 6.70711Z" 
/>
</svg>
