<svg width="326" height="541" viewBox="0 0 326 541" fill="none" xmlns="http://www.w3.org/2000/svg">
<g filter="url(#filter0_d_170_4051)">
<rect x="17" y="15" width="286" height="500" rx="5" fill="white" shape-rendering="crispEdges"/>
<g filter="url(#filter1_d_170_4051)">
<path d="M79.1654 79.9585C78.3737 79.9585 77.582 79.6668 76.957 79.0418C75.7487 77.8335 75.7487 75.8335 76.957 74.6252L111.124 40.4585C112.332 39.2502 114.332 39.2502 115.54 40.4585C116.749 41.6668 116.749 43.6668 115.54 44.8752L81.3737 79.0418C80.7487 79.6668 79.957 79.9585 79.1654 79.9585Z" fill="#1959AB"/>
<path d="M116.668 62.4585C114.96 62.4585 113.543 61.0418 113.543 59.3335V42.4585H96.668C94.9596 42.4585 93.543 41.0418 93.543 39.3335C93.543 37.6252 94.9596 36.2085 96.668 36.2085H116.668C118.376 36.2085 119.793 37.6252 119.793 39.3335V59.3335C119.793 61.0418 118.376 62.4585 116.668 62.4585Z" fill="#1959AB"/>
<path d="M87.4987 125.792H62.4987C39.8737 125.792 30.207 116.125 30.207 93.5002V68.5002C30.207 45.8752 39.8737 36.2085 62.4987 36.2085H70.832C72.5404 36.2085 73.957 37.6252 73.957 39.3335C73.957 41.0418 72.5404 42.4585 70.832 42.4585H62.4987C43.2904 42.4585 36.457 49.2918 36.457 68.5002V93.5002C36.457 112.708 43.2904 119.542 62.4987 119.542H87.4987C106.707 119.542 113.54 112.708 113.54 93.5002V85.1668C113.54 83.4585 114.957 82.0418 116.665 82.0418C118.374 82.0418 119.79 83.4585 119.79 85.1668V93.5002C119.79 116.125 110.124 125.792 87.4987 125.792Z" fill="#1959AB"/>
</g>
<path d="M39.168 187.566C39.9492 188.324 40.5469 189.242 40.9609 190.32C41.3828 191.398 41.5938 192.633 41.5938 194.023C41.5938 195.516 41.3633 196.859 40.9023 198.055C40.4414 199.242 39.8086 200.215 39.0039 200.973C38.1992 201.73 37.2305 202.316 36.0977 202.73C34.9727 203.137 33.7148 203.34 32.3242 203.34C31.582 203.34 30.8906 203.289 30.25 203.188C29.6172 203.094 29.0469 202.977 28.5391 202.836C28 202.688 27.5117 202.535 27.0742 202.379C26.6367 202.215 26.3047 202.086 26.0781 201.992V198.043H26.5117C26.7461 198.238 27.0312 198.457 27.3672 198.699C27.7031 198.934 28.0703 199.148 28.4688 199.344C28.9453 199.57 29.4531 199.762 29.9922 199.918C30.5312 200.066 31.1719 200.141 31.9141 200.141C32.4375 200.141 32.9961 200.07 33.5898 199.93C34.1836 199.781 34.7148 199.535 35.1836 199.191C35.6758 198.84 36.0977 198.371 36.4492 197.785C36.8086 197.199 37.0352 196.453 37.1289 195.547H29.3594V192.219H37.0234C36.8984 191.516 36.6758 190.926 36.3555 190.449C36.0352 189.973 35.6523 189.582 35.207 189.277C34.7617 188.973 34.2734 188.754 33.7422 188.621C33.2188 188.48 32.6953 188.41 32.1719 188.41C31.5234 188.41 30.9219 188.488 30.3672 188.645C29.8203 188.793 29.3047 188.984 28.8203 189.219C28.3828 189.438 27.9922 189.672 27.6484 189.922C27.3125 190.172 27.0312 190.383 26.8047 190.555H26.3125V186.57C26.7422 186.383 27.1445 186.223 27.5195 186.09C27.8945 185.949 28.3789 185.801 28.9727 185.645C29.4492 185.52 30.0117 185.418 30.6602 185.34C31.3086 185.254 31.9727 185.211 32.6523 185.211C33.9961 185.211 35.2188 185.41 36.3203 185.809C37.4219 186.207 38.3711 186.793 39.168 187.566ZM58.7734 203H53.8984L50.3711 197.785H49.0234V203H44.8047V189.84H49.0234V195.125C49.8047 195.117 50.3438 195.035 50.6406 194.879C50.9375 194.715 51.2812 194.289 51.6719 193.602C51.7891 193.398 51.9297 193.137 52.0938 192.816C52.2578 192.496 52.3867 192.25 52.4805 192.078C52.9102 191.312 53.4102 190.746 53.9805 190.379C54.5586 190.004 55.3594 189.816 56.3828 189.816C56.6797 189.816 56.9922 189.82 57.3203 189.828C57.6562 189.836 57.8828 189.84 58 189.84V193.355H56.8516C56.3828 193.355 56.0078 193.473 55.7266 193.707C55.4531 193.941 55.2148 194.289 55.0117 194.75C54.8398 195.133 54.6836 195.438 54.543 195.664C54.4023 195.883 54.2227 196.07 54.0039 196.227L58.7734 203ZM67.7617 203.352C66.6133 203.352 65.5625 203.215 64.6094 202.941C63.6641 202.668 62.8398 202.246 62.1367 201.676C61.4414 201.105 60.9023 200.387 60.5195 199.52C60.1367 198.652 59.9453 197.637 59.9453 196.473C59.9453 195.246 60.1484 194.188 60.5547 193.297C60.9688 192.406 61.543 191.668 62.2773 191.082C62.9883 190.527 63.8086 190.121 64.7383 189.863C65.668 189.605 66.6328 189.477 67.6328 189.477C68.5312 189.477 69.3594 189.574 70.1172 189.77C70.875 189.965 71.582 190.219 72.2383 190.531V194.129H71.6406C71.4766 193.988 71.2773 193.824 71.043 193.637C70.8164 193.449 70.5352 193.266 70.1992 193.086C69.8789 192.914 69.5273 192.773 69.1445 192.664C68.7617 192.547 68.3164 192.488 67.8086 192.488C66.6836 192.488 65.8164 192.848 65.207 193.566C64.6055 194.277 64.3047 195.246 64.3047 196.473C64.3047 197.738 64.6133 198.699 65.2305 199.355C65.8555 200.012 66.7383 200.34 67.8789 200.34C68.4102 200.34 68.8867 200.281 69.3086 200.164C69.7383 200.039 70.0938 199.895 70.375 199.73C70.6406 199.574 70.875 199.41 71.0781 199.238C71.2812 199.066 71.4688 198.898 71.6406 198.734H72.2383V202.332C71.5742 202.645 70.8789 202.891 70.1523 203.07C69.4336 203.258 68.6367 203.352 67.7617 203.352ZM88.5625 203H84.3438V192.699H79.4922V203H75.2734V189.84H88.5625V203ZM106 196.426C106 198.59 105.367 200.297 104.102 201.547C102.844 202.789 101.074 203.41 98.793 203.41C96.5117 203.41 94.7383 202.789 93.4727 201.547C92.2148 200.297 91.5859 198.59 91.5859 196.426C91.5859 194.246 92.2188 192.535 93.4844 191.293C94.7578 190.051 96.5273 189.43 98.793 189.43C101.09 189.43 102.863 190.055 104.113 191.305C105.371 192.555 106 194.262 106 196.426ZM100.809 199.625C101.082 199.289 101.285 198.887 101.418 198.418C101.559 197.941 101.629 197.285 101.629 196.449C101.629 195.676 101.559 195.027 101.418 194.504C101.277 193.98 101.082 193.562 100.832 193.25C100.582 192.93 100.281 192.703 99.9297 192.57C99.5781 192.438 99.1992 192.371 98.793 192.371C98.3867 192.371 98.0234 192.426 97.7031 192.535C97.3906 192.645 97.0898 192.863 96.8008 193.191C96.543 193.496 96.3359 193.914 96.1797 194.445C96.0312 194.977 95.957 195.645 95.957 196.449C95.957 197.168 96.0234 197.793 96.1562 198.324C96.2891 198.848 96.4844 199.27 96.7422 199.59C96.9922 199.895 97.2891 200.117 97.6328 200.258C97.9844 200.398 98.3828 200.469 98.8281 200.469C99.2109 200.469 99.5742 200.406 99.918 200.281C100.27 200.148 100.566 199.93 100.809 199.625ZM122.758 196.238C122.758 197.324 122.59 198.312 122.254 199.203C121.926 200.094 121.492 200.828 120.953 201.406C120.391 202.016 119.754 202.477 119.043 202.789C118.332 203.102 117.57 203.258 116.758 203.258C116.008 203.258 115.371 203.176 114.848 203.012C114.324 202.855 113.789 202.633 113.242 202.344V207.828H109.023V189.84H113.242V191.211C113.891 190.695 114.551 190.277 115.223 189.957C115.902 189.637 116.684 189.477 117.566 189.477C119.207 189.477 120.48 190.078 121.387 191.281C122.301 192.484 122.758 194.137 122.758 196.238ZM118.41 196.32C118.41 195.039 118.191 194.109 117.754 193.531C117.316 192.953 116.625 192.664 115.68 192.664C115.281 192.664 114.871 192.727 114.449 192.852C114.027 192.969 113.625 193.141 113.242 193.367V199.988C113.523 200.098 113.824 200.168 114.145 200.199C114.465 200.23 114.781 200.246 115.094 200.246C116.211 200.246 117.043 199.922 117.59 199.273C118.137 198.617 118.41 197.633 118.41 196.32ZM136.539 192.699H132.344V203H128.125V192.699H123.93V189.84H136.539V192.699Z" fill="#333333"/>
<path d="M30 239L37.5 246.5L50 231.5" stroke="#61B857" stroke-width="2" stroke-linecap="round" stroke-linejoin="round"/>
<path d="M73.9141 245.5H71.9297L67.2031 240.195H66.1484V245.5H64.6016V233.867H66.1484V239.086C66.4141 239.081 66.6641 239.055 66.8984 239.008C67.1328 238.961 67.3542 238.872 67.5625 238.742C67.7708 238.622 67.9766 238.453 68.1797 238.234C68.3828 238.01 68.5625 237.737 68.7188 237.414C68.7865 237.273 68.8646 237.096 68.9531 236.883C69.0469 236.669 69.1406 236.445 69.2344 236.211C69.5938 235.346 70.013 234.74 70.4922 234.391C70.9766 234.042 71.6875 233.867 72.625 233.867H73.2422V235.25H72.5938C72.2344 235.25 71.9531 235.284 71.75 235.352C71.5469 235.414 71.3646 235.521 71.2031 235.672C71.0521 235.807 70.9193 235.99 70.8047 236.219C70.6953 236.448 70.5807 236.716 70.4609 237.023C70.1901 237.711 69.9141 238.216 69.6328 238.539C69.3568 238.862 68.9844 239.143 68.5156 239.383L73.9141 245.5ZM82.9766 241.141C82.9766 242.562 82.612 243.685 81.8828 244.508C81.1536 245.331 80.1771 245.742 78.9531 245.742C77.7188 245.742 76.737 245.331 76.0078 244.508C75.2839 243.685 74.9219 242.562 74.9219 241.141C74.9219 239.719 75.2839 238.596 76.0078 237.773C76.737 236.945 77.7188 236.531 78.9531 236.531C80.1771 236.531 81.1536 236.945 81.8828 237.773C82.612 238.596 82.9766 239.719 82.9766 241.141ZM81.4609 241.141C81.4609 240.01 81.2396 239.172 80.7969 238.625C80.3542 238.073 79.7396 237.797 78.9531 237.797C78.1562 237.797 77.5365 238.073 77.0938 238.625C76.6562 239.172 76.4375 240.01 76.4375 241.141C76.4375 242.234 76.6589 243.065 77.1016 243.633C77.5443 244.195 78.1615 244.477 78.9531 244.477C79.7344 244.477 80.3464 244.198 80.7891 243.641C81.237 243.078 81.4609 242.245 81.4609 241.141ZM92.5625 245.5H91.0938V241.57H86.7266V245.5H85.2578V236.773H86.7266V240.305H91.0938V236.773H92.5625V245.5ZM101.992 244.953C101.393 245.234 100.878 245.427 100.445 245.531C100.018 245.641 99.5911 245.695 99.1641 245.695C98.5286 245.695 97.9453 245.604 97.4141 245.422C96.8828 245.234 96.4271 244.953 96.0469 244.578C95.6667 244.203 95.3698 243.729 95.1562 243.156C94.9479 242.583 94.8438 241.914 94.8438 241.148C94.8438 239.758 95.2292 238.648 96 237.82C96.7708 236.987 97.8255 236.57 99.1641 236.57C99.6693 236.57 100.164 236.641 100.648 236.781C101.138 236.922 101.586 237.094 101.992 237.297V238.93H101.906C101.422 238.56 100.943 238.286 100.469 238.109C100 237.932 99.5443 237.844 99.1016 237.844C98.2318 237.844 97.5573 238.135 97.0781 238.719C96.6042 239.302 96.3672 240.112 96.3672 241.148C96.3672 242.185 96.6042 242.99 97.0781 243.562C97.5521 244.135 98.2266 244.422 99.1016 244.422C99.4089 244.422 99.7135 244.383 100.016 244.305C100.323 244.227 100.602 244.125 100.852 244C101.049 243.901 101.253 243.784 101.461 243.648C101.674 243.508 101.823 243.404 101.906 243.336H101.992V244.953ZM111.555 236.773L106.461 248.719H104.891L106.516 245.078L103.039 236.773H104.633L107.312 243.242L110.016 236.773H111.555ZM120.516 245.5H119.047V238.008H115.789C115.773 238.44 115.758 238.857 115.742 239.258C115.727 239.659 115.711 240.021 115.695 240.344C115.659 241.214 115.599 241.909 115.516 242.43C115.432 242.945 115.323 243.375 115.188 243.719C115.062 244.042 114.922 244.305 114.766 244.508C114.615 244.706 114.451 244.885 114.273 245.047C114.096 245.203 113.898 245.32 113.68 245.398C113.466 245.477 113.232 245.516 112.977 245.516C112.888 245.516 112.758 245.513 112.586 245.508C112.419 245.503 112.31 245.5 112.258 245.5V244.219H112.336C112.378 244.219 112.438 244.221 112.516 244.227C112.594 244.232 112.659 244.234 112.711 244.234C112.836 244.234 112.964 244.216 113.094 244.18C113.229 244.143 113.344 244.076 113.438 243.977C113.703 243.716 113.917 243.276 114.078 242.656C114.24 242.036 114.346 241.141 114.398 239.969C114.419 239.542 114.438 239.036 114.453 238.453C114.474 237.865 114.492 237.305 114.508 236.773H120.516V245.5ZM128.867 242.82C128.867 242.555 128.82 242.323 128.727 242.125C128.638 241.922 128.49 241.758 128.281 241.633C128.062 241.503 127.812 241.424 127.531 241.398C127.255 241.372 126.857 241.359 126.336 241.359H124.883V244.328H126.305C126.826 244.328 127.229 244.307 127.516 244.266C127.802 244.219 128.049 244.133 128.258 244.008C128.471 243.872 128.625 243.714 128.719 243.531C128.818 243.344 128.867 243.107 128.867 242.82ZM130.383 242.797C130.383 243.219 130.297 243.602 130.125 243.945C129.958 244.289 129.729 244.568 129.438 244.781C129.094 245.042 128.727 245.227 128.336 245.336C127.945 245.445 127.443 245.5 126.828 245.5H123.414V236.773H124.883V240.172H126.867C127.523 240.172 128.031 240.206 128.391 240.273C128.755 240.341 129.117 240.508 129.477 240.773C129.779 240.997 130.005 241.284 130.156 241.633C130.307 241.982 130.383 242.37 130.383 242.797ZM138.969 238.062H135.812V245.5H134.344V238.062H131.188V236.773H138.969V238.062ZM147.273 245.5H145.812V244.57C145.682 244.659 145.505 244.784 145.281 244.945C145.062 245.102 144.849 245.227 144.641 245.32C144.396 245.44 144.115 245.539 143.797 245.617C143.479 245.701 143.107 245.742 142.68 245.742C141.893 245.742 141.227 245.482 140.68 244.961C140.133 244.44 139.859 243.776 139.859 242.969C139.859 242.307 140 241.773 140.281 241.367C140.568 240.956 140.974 240.633 141.5 240.398C142.031 240.164 142.669 240.005 143.414 239.922C144.159 239.839 144.958 239.776 145.812 239.734V239.508C145.812 239.174 145.753 238.898 145.633 238.68C145.518 238.461 145.352 238.289 145.133 238.164C144.924 238.044 144.674 237.964 144.383 237.922C144.091 237.88 143.786 237.859 143.469 237.859C143.083 237.859 142.654 237.911 142.18 238.016C141.706 238.115 141.216 238.26 140.711 238.453H140.633V236.961C140.919 236.883 141.333 236.797 141.875 236.703C142.417 236.609 142.951 236.562 143.477 236.562C144.091 236.562 144.625 236.615 145.078 236.719C145.536 236.818 145.932 236.99 146.266 237.234C146.594 237.474 146.844 237.784 147.016 238.164C147.188 238.544 147.273 239.016 147.273 239.578V245.5ZM145.812 243.352V240.922C145.365 240.948 144.836 240.987 144.227 241.039C143.622 241.091 143.143 241.167 142.789 241.266C142.367 241.385 142.026 241.573 141.766 241.828C141.505 242.078 141.375 242.424 141.375 242.867C141.375 243.367 141.526 243.745 141.828 244C142.13 244.25 142.591 244.375 143.211 244.375C143.727 244.375 144.198 244.276 144.625 244.078C145.052 243.875 145.448 243.633 145.812 243.352ZM157.023 245.5H150.102V236.773H151.57V244.234H155.867V236.773H157.336V244.234H158.391V247.594H157.023V245.5ZM167.766 245.5H166.312V238.945L161.742 245.5H160.414V236.773H161.867V243.234L166.391 236.773H167.766V245.5ZM178.016 245.5H176.562V238.945L171.992 245.5H170.664V236.773H172.117V243.234L176.641 236.773H178.016V245.5ZM193.844 245.5H192.375V238.039H188.008V245.5H186.539V236.773H193.844V245.5ZM204.18 241.141C204.18 242.562 203.815 243.685 203.086 244.508C202.357 245.331 201.38 245.742 200.156 245.742C198.922 245.742 197.94 245.331 197.211 244.508C196.487 243.685 196.125 242.562 196.125 241.141C196.125 239.719 196.487 238.596 197.211 237.773C197.94 236.945 198.922 236.531 200.156 236.531C201.38 236.531 202.357 236.945 203.086 237.773C203.815 238.596 204.18 239.719 204.18 241.141ZM202.664 241.141C202.664 240.01 202.443 239.172 202 238.625C201.557 238.073 200.943 237.797 200.156 237.797C199.359 237.797 198.74 238.073 198.297 238.625C197.859 239.172 197.641 240.01 197.641 241.141C197.641 242.234 197.862 243.065 198.305 243.633C198.747 244.195 199.365 244.477 200.156 244.477C200.938 244.477 201.549 244.198 201.992 243.641C202.44 243.078 202.664 242.245 202.664 241.141ZM219.398 235.156C219.898 235.656 220.284 236.276 220.555 237.016C220.826 237.755 220.961 238.63 220.961 239.641C220.961 240.536 220.823 241.362 220.547 242.117C220.276 242.867 219.883 243.51 219.367 244.047C218.836 244.599 218.214 245.016 217.5 245.297C216.792 245.573 216.013 245.711 215.164 245.711C214.43 245.711 213.732 245.641 213.07 245.5C212.409 245.359 211.852 245.193 211.398 245V243.289H211.523C211.945 243.628 212.477 243.898 213.117 244.102C213.763 244.299 214.453 244.398 215.188 244.398C215.828 244.398 216.414 244.286 216.945 244.062C217.477 243.833 217.919 243.523 218.273 243.133C218.648 242.716 218.93 242.247 219.117 241.727C219.31 241.201 219.406 240.604 219.406 239.938H213.055V238.586H219.328C219.255 237.966 219.099 237.43 218.859 236.977C218.62 236.518 218.315 236.141 217.945 235.844C217.576 235.547 217.156 235.328 216.688 235.188C216.219 235.042 215.719 234.969 215.188 234.969C214.474 234.969 213.805 235.07 213.18 235.273C212.555 235.471 212.016 235.745 211.562 236.094H211.43V234.375C211.914 234.172 212.487 234.003 213.148 233.867C213.81 233.727 214.487 233.656 215.18 233.656C216.076 233.656 216.875 233.781 217.578 234.031C218.286 234.281 218.893 234.656 219.398 235.156ZM231.18 245.5H229.258L225.633 241.5H224.836V245.5H223.367V236.773H224.836V240.539C225.32 240.539 225.711 240.453 226.008 240.281C226.305 240.104 226.557 239.823 226.766 239.438C226.839 239.297 226.909 239.148 226.977 238.992C227.049 238.831 227.12 238.677 227.188 238.531C227.458 237.943 227.797 237.503 228.203 237.211C228.609 236.919 229.193 236.773 229.953 236.773H230.625V238.039H229.977C229.565 238.039 229.242 238.128 229.008 238.305C228.779 238.477 228.57 238.781 228.383 239.219C228.174 239.708 227.953 240.076 227.719 240.32C227.49 240.56 227.245 240.742 226.984 240.867L231.18 245.5ZM239.305 244.953C238.706 245.234 238.19 245.427 237.758 245.531C237.331 245.641 236.904 245.695 236.477 245.695C235.841 245.695 235.258 245.604 234.727 245.422C234.195 245.234 233.74 244.953 233.359 244.578C232.979 244.203 232.682 243.729 232.469 243.156C232.26 242.583 232.156 241.914 232.156 241.148C232.156 239.758 232.542 238.648 233.312 237.82C234.083 236.987 235.138 236.57 236.477 236.57C236.982 236.57 237.477 236.641 237.961 236.781C238.451 236.922 238.898 237.094 239.305 237.297V238.93H239.219C238.734 238.56 238.255 238.286 237.781 238.109C237.312 237.932 236.857 237.844 236.414 237.844C235.544 237.844 234.87 238.135 234.391 238.719C233.917 239.302 233.68 240.112 233.68 241.148C233.68 242.185 233.917 242.99 234.391 243.562C234.865 244.135 235.539 244.422 236.414 244.422C236.721 244.422 237.026 244.383 237.328 244.305C237.635 244.227 237.914 244.125 238.164 244C238.362 243.901 238.565 243.784 238.773 243.648C238.987 243.508 239.135 243.404 239.219 243.336H239.305V244.953ZM248.625 245.5H247.156V238.039H242.789V245.5H241.32V236.773H248.625V245.5ZM258.961 241.141C258.961 242.562 258.596 243.685 257.867 244.508C257.138 245.331 256.161 245.742 254.938 245.742C253.703 245.742 252.721 245.331 251.992 244.508C251.268 243.685 250.906 242.562 250.906 241.141C250.906 239.719 251.268 238.596 251.992 237.773C252.721 236.945 253.703 236.531 254.938 236.531C256.161 236.531 257.138 236.945 257.867 237.773C258.596 238.596 258.961 239.719 258.961 241.141ZM257.445 241.141C257.445 240.01 257.224 239.172 256.781 238.625C256.339 238.073 255.724 237.797 254.938 237.797C254.141 237.797 253.521 238.073 253.078 238.625C252.641 239.172 252.422 240.01 252.422 241.141C252.422 242.234 252.643 243.065 253.086 243.633C253.529 244.195 254.146 244.477 254.938 244.477C255.719 244.477 256.331 244.198 256.773 243.641C257.221 243.078 257.445 242.245 257.445 241.141ZM268.922 241.031C268.922 241.74 268.82 242.388 268.617 242.977C268.414 243.56 268.128 244.055 267.758 244.461C267.414 244.846 267.008 245.146 266.539 245.359C266.076 245.568 265.583 245.672 265.062 245.672C264.609 245.672 264.198 245.622 263.828 245.523C263.464 245.424 263.091 245.271 262.711 245.062V248.719H261.242V236.773H262.711V237.688C263.102 237.359 263.539 237.086 264.023 236.867C264.513 236.643 265.034 236.531 265.586 236.531C266.638 236.531 267.456 236.93 268.039 237.727C268.628 238.518 268.922 239.62 268.922 241.031ZM267.406 241.07C267.406 240.018 267.227 239.232 266.867 238.711C266.508 238.19 265.956 237.93 265.211 237.93C264.789 237.93 264.365 238.021 263.938 238.203C263.51 238.385 263.102 238.625 262.711 238.922V243.867C263.128 244.055 263.484 244.182 263.781 244.25C264.083 244.318 264.424 244.352 264.805 244.352C265.622 244.352 266.26 244.076 266.719 243.523C267.177 242.971 267.406 242.154 267.406 241.07ZM277.625 238.062H274.469V245.5H273V238.062H269.844V236.773H277.625V238.062ZM286.695 236.773L281.602 248.719H280.031L281.656 245.078L278.18 236.773H279.773L282.453 243.242L285.156 236.773H286.695Z" fill="#333333"/>
<path d="M30 285L37.5 292.5L50 277.5" stroke="#61B857" stroke-width="2" stroke-linecap="round" stroke-linejoin="round"/>
<path d="M73.4609 291.5H71.9141V281.242H66.1094V291.5H64.5625V279.867H73.4609V291.5ZM83.9141 287.141C83.9141 288.562 83.5495 289.685 82.8203 290.508C82.0911 291.331 81.1146 291.742 79.8906 291.742C78.6562 291.742 77.6745 291.331 76.9453 290.508C76.2214 289.685 75.8594 288.562 75.8594 287.141C75.8594 285.719 76.2214 284.596 76.9453 283.773C77.6745 282.945 78.6562 282.531 79.8906 282.531C81.1146 282.531 82.0911 282.945 82.8203 283.773C83.5495 284.596 83.9141 285.719 83.9141 287.141ZM82.3984 287.141C82.3984 286.01 82.1771 285.172 81.7344 284.625C81.2917 284.073 80.6771 283.797 79.8906 283.797C79.0938 283.797 78.474 284.073 78.0312 284.625C77.5938 285.172 77.375 286.01 77.375 287.141C77.375 288.234 77.5964 289.065 78.0391 289.633C78.4818 290.195 79.099 290.477 79.8906 290.477C80.6719 290.477 81.2839 290.198 81.7266 289.641C82.1745 289.078 82.3984 288.245 82.3984 287.141ZM94.1172 293.594H92.75V291.477H86.1875V293.594H84.8203V290.25H85.7656C86.375 289.245 86.8281 288.086 87.125 286.773C87.4271 285.456 87.5781 284.122 87.5781 282.773H93.0625V290.25H94.1172V293.594ZM91.5938 290.25V284.008H88.9609C88.8932 285.315 88.6927 286.508 88.3594 287.586C88.026 288.664 87.6432 289.552 87.2109 290.25H91.5938ZM102.164 284.062H97.6172V291.5H96.1484V282.773H102.164V284.062ZM111.133 287.141C111.133 288.562 110.768 289.685 110.039 290.508C109.31 291.331 108.333 291.742 107.109 291.742C105.875 291.742 104.893 291.331 104.164 290.508C103.44 289.685 103.078 288.562 103.078 287.141C103.078 285.719 103.44 284.596 104.164 283.773C104.893 282.945 105.875 282.531 107.109 282.531C108.333 282.531 109.31 282.945 110.039 283.773C110.768 284.596 111.133 285.719 111.133 287.141ZM109.617 287.141C109.617 286.01 109.396 285.172 108.953 284.625C108.51 284.073 107.896 283.797 107.109 283.797C106.312 283.797 105.693 284.073 105.25 284.625C104.812 285.172 104.594 286.01 104.594 287.141C104.594 288.234 104.815 289.065 105.258 289.633C105.701 290.195 106.318 290.477 107.109 290.477C107.891 290.477 108.503 290.198 108.945 289.641C109.393 289.078 109.617 288.245 109.617 287.141ZM119.828 284.062H116.672V291.5H115.203V284.062H112.047V282.773H119.828V284.062ZM128.789 287.141C128.789 288.562 128.424 289.685 127.695 290.508C126.966 291.331 125.99 291.742 124.766 291.742C123.531 291.742 122.549 291.331 121.82 290.508C121.096 289.685 120.734 288.562 120.734 287.141C120.734 285.719 121.096 284.596 121.82 283.773C122.549 282.945 123.531 282.531 124.766 282.531C125.99 282.531 126.966 282.945 127.695 283.773C128.424 284.596 128.789 285.719 128.789 287.141ZM127.273 287.141C127.273 286.01 127.052 285.172 126.609 284.625C126.167 284.073 125.552 283.797 124.766 283.797C123.969 283.797 123.349 284.073 122.906 284.625C122.469 285.172 122.25 286.01 122.25 287.141C122.25 288.234 122.471 289.065 122.914 289.633C123.357 290.195 123.974 290.477 124.766 290.477C125.547 290.477 126.159 290.198 126.602 289.641C127.049 289.078 127.273 288.245 127.273 287.141ZM138.273 288.859C138.273 289.281 138.188 289.656 138.016 289.984C137.849 290.312 137.617 290.586 137.32 290.805C136.987 291.049 136.622 291.227 136.227 291.336C135.836 291.445 135.32 291.5 134.68 291.5H131.07V282.773H134.445C135.096 282.773 135.586 282.797 135.914 282.844C136.247 282.885 136.56 282.982 136.852 283.133C137.18 283.305 137.419 283.529 137.57 283.805C137.727 284.081 137.805 284.406 137.805 284.781C137.805 285.214 137.682 285.589 137.438 285.906C137.193 286.224 136.878 286.471 136.492 286.648V286.727C137.008 286.852 137.432 287.094 137.766 287.453C138.104 287.807 138.273 288.276 138.273 288.859ZM136.297 285.008C136.297 284.82 136.255 284.651 136.172 284.5C136.094 284.349 135.971 284.232 135.805 284.148C135.586 284.039 135.339 283.979 135.062 283.969C134.792 283.953 134.456 283.945 134.055 283.945H132.523V286.336H134.359C134.745 286.336 135.029 286.323 135.211 286.297C135.398 286.266 135.586 286.193 135.773 286.078C135.971 285.953 136.107 285.807 136.18 285.641C136.258 285.469 136.297 285.258 136.297 285.008ZM136.758 288.867C136.758 288.581 136.711 288.349 136.617 288.172C136.523 287.99 136.318 287.823 136 287.672C135.802 287.578 135.589 287.523 135.359 287.508C135.13 287.487 134.812 287.477 134.406 287.477H132.523V290.328H133.914C134.497 290.328 134.945 290.31 135.258 290.273C135.576 290.232 135.849 290.146 136.078 290.016C136.307 289.885 136.477 289.727 136.586 289.539C136.701 289.352 136.758 289.128 136.758 288.867ZM148.461 291.5H146.539L142.914 287.5H142.117V291.5H140.648V282.773H142.117V286.539C142.602 286.539 142.992 286.453 143.289 286.281C143.586 286.104 143.839 285.823 144.047 285.438C144.12 285.297 144.19 285.148 144.258 284.992C144.331 284.831 144.401 284.677 144.469 284.531C144.74 283.943 145.078 283.503 145.484 283.211C145.891 282.919 146.474 282.773 147.234 282.773H147.906V284.039H147.258C146.846 284.039 146.523 284.128 146.289 284.305C146.06 284.477 145.852 284.781 145.664 285.219C145.456 285.708 145.234 286.076 145 286.32C144.771 286.56 144.526 286.742 144.266 286.867L148.461 291.5ZM156.836 291.5H155.375V290.57C155.245 290.659 155.068 290.784 154.844 290.945C154.625 291.102 154.411 291.227 154.203 291.32C153.958 291.44 153.677 291.539 153.359 291.617C153.042 291.701 152.669 291.742 152.242 291.742C151.456 291.742 150.789 291.482 150.242 290.961C149.695 290.44 149.422 289.776 149.422 288.969C149.422 288.307 149.562 287.773 149.844 287.367C150.13 286.956 150.536 286.633 151.062 286.398C151.594 286.164 152.232 286.005 152.977 285.922C153.721 285.839 154.521 285.776 155.375 285.734V285.508C155.375 285.174 155.315 284.898 155.195 284.68C155.081 284.461 154.914 284.289 154.695 284.164C154.487 284.044 154.237 283.964 153.945 283.922C153.654 283.88 153.349 283.859 153.031 283.859C152.646 283.859 152.216 283.911 151.742 284.016C151.268 284.115 150.779 284.26 150.273 284.453H150.195V282.961C150.482 282.883 150.896 282.797 151.438 282.703C151.979 282.609 152.513 282.562 153.039 282.562C153.654 282.562 154.188 282.615 154.641 282.719C155.099 282.818 155.495 282.99 155.828 283.234C156.156 283.474 156.406 283.784 156.578 284.164C156.75 284.544 156.836 285.016 156.836 285.578V291.5ZM155.375 289.352V286.922C154.927 286.948 154.398 286.987 153.789 287.039C153.185 287.091 152.706 287.167 152.352 287.266C151.93 287.385 151.589 287.573 151.328 287.828C151.068 288.078 150.938 288.424 150.938 288.867C150.938 289.367 151.089 289.745 151.391 290C151.693 290.25 152.154 290.375 152.773 290.375C153.289 290.375 153.76 290.276 154.188 290.078C154.615 289.875 155.01 289.633 155.375 289.352ZM173.164 291.5H171.242L167.617 287.5H166.82V291.5H165.352V282.773H166.82V286.539C167.305 286.539 167.695 286.453 167.992 286.281C168.289 286.104 168.542 285.823 168.75 285.438C168.823 285.297 168.893 285.148 168.961 284.992C169.034 284.831 169.104 284.677 169.172 284.531C169.443 283.943 169.781 283.503 170.188 283.211C170.594 282.919 171.177 282.773 171.938 282.773H172.609V284.039H171.961C171.549 284.039 171.227 284.128 170.992 284.305C170.763 284.477 170.555 284.781 170.367 285.219C170.159 285.708 169.938 286.076 169.703 286.32C169.474 286.56 169.229 286.742 168.969 286.867L173.164 291.5ZM187.695 281.156C188.195 281.656 188.581 282.276 188.852 283.016C189.122 283.755 189.258 284.63 189.258 285.641C189.258 286.536 189.12 287.362 188.844 288.117C188.573 288.867 188.18 289.51 187.664 290.047C187.133 290.599 186.51 291.016 185.797 291.297C185.089 291.573 184.31 291.711 183.461 291.711C182.727 291.711 182.029 291.641 181.367 291.5C180.706 291.359 180.148 291.193 179.695 291V289.289H179.82C180.242 289.628 180.773 289.898 181.414 290.102C182.06 290.299 182.75 290.398 183.484 290.398C184.125 290.398 184.711 290.286 185.242 290.062C185.773 289.833 186.216 289.523 186.57 289.133C186.945 288.716 187.227 288.247 187.414 287.727C187.607 287.201 187.703 286.604 187.703 285.938H181.352V284.586H187.625C187.552 283.966 187.396 283.43 187.156 282.977C186.917 282.518 186.612 282.141 186.242 281.844C185.872 281.547 185.453 281.328 184.984 281.188C184.516 281.042 184.016 280.969 183.484 280.969C182.771 280.969 182.102 281.07 181.477 281.273C180.852 281.471 180.312 281.745 179.859 282.094H179.727V280.375C180.211 280.172 180.784 280.003 181.445 279.867C182.107 279.727 182.784 279.656 183.477 279.656C184.372 279.656 185.172 279.781 185.875 280.031C186.583 280.281 187.19 280.656 187.695 281.156ZM199.477 291.5H197.555L193.93 287.5H193.133V291.5H191.664V282.773H193.133V286.539C193.617 286.539 194.008 286.453 194.305 286.281C194.602 286.104 194.854 285.823 195.062 285.438C195.135 285.297 195.206 285.148 195.273 284.992C195.346 284.831 195.417 284.677 195.484 284.531C195.755 283.943 196.094 283.503 196.5 283.211C196.906 282.919 197.49 282.773 198.25 282.773H198.922V284.039H198.273C197.862 284.039 197.539 284.128 197.305 284.305C197.076 284.477 196.867 284.781 196.68 285.219C196.471 285.708 196.25 286.076 196.016 286.32C195.786 286.56 195.542 286.742 195.281 286.867L199.477 291.5ZM207.602 290.953C207.003 291.234 206.487 291.427 206.055 291.531C205.628 291.641 205.201 291.695 204.773 291.695C204.138 291.695 203.555 291.604 203.023 291.422C202.492 291.234 202.036 290.953 201.656 290.578C201.276 290.203 200.979 289.729 200.766 289.156C200.557 288.583 200.453 287.914 200.453 287.148C200.453 285.758 200.839 284.648 201.609 283.82C202.38 282.987 203.435 282.57 204.773 282.57C205.279 282.57 205.773 282.641 206.258 282.781C206.747 282.922 207.195 283.094 207.602 283.297V284.93H207.516C207.031 284.56 206.552 284.286 206.078 284.109C205.609 283.932 205.154 283.844 204.711 283.844C203.841 283.844 203.167 284.135 202.688 284.719C202.214 285.302 201.977 286.112 201.977 287.148C201.977 288.185 202.214 288.99 202.688 289.562C203.161 290.135 203.836 290.422 204.711 290.422C205.018 290.422 205.323 290.383 205.625 290.305C205.932 290.227 206.211 290.125 206.461 290C206.659 289.901 206.862 289.784 207.07 289.648C207.284 289.508 207.432 289.404 207.516 289.336H207.602V290.953ZM216.922 291.5H215.453V284.039H211.086V291.5H209.617V282.773H216.922V291.5ZM227.258 287.141C227.258 288.562 226.893 289.685 226.164 290.508C225.435 291.331 224.458 291.742 223.234 291.742C222 291.742 221.018 291.331 220.289 290.508C219.565 289.685 219.203 288.562 219.203 287.141C219.203 285.719 219.565 284.596 220.289 283.773C221.018 282.945 222 282.531 223.234 282.531C224.458 282.531 225.435 282.945 226.164 283.773C226.893 284.596 227.258 285.719 227.258 287.141ZM225.742 287.141C225.742 286.01 225.521 285.172 225.078 284.625C224.635 284.073 224.021 283.797 223.234 283.797C222.438 283.797 221.818 284.073 221.375 284.625C220.938 285.172 220.719 286.01 220.719 287.141C220.719 288.234 220.94 289.065 221.383 289.633C221.826 290.195 222.443 290.477 223.234 290.477C224.016 290.477 224.628 290.198 225.07 289.641C225.518 289.078 225.742 288.245 225.742 287.141ZM237.219 287.031C237.219 287.74 237.117 288.388 236.914 288.977C236.711 289.56 236.424 290.055 236.055 290.461C235.711 290.846 235.305 291.146 234.836 291.359C234.372 291.568 233.88 291.672 233.359 291.672C232.906 291.672 232.495 291.622 232.125 291.523C231.76 291.424 231.388 291.271 231.008 291.062V294.719H229.539V282.773H231.008V283.688C231.398 283.359 231.836 283.086 232.32 282.867C232.81 282.643 233.331 282.531 233.883 282.531C234.935 282.531 235.753 282.93 236.336 283.727C236.924 284.518 237.219 285.62 237.219 287.031ZM235.703 287.07C235.703 286.018 235.523 285.232 235.164 284.711C234.805 284.19 234.253 283.93 233.508 283.93C233.086 283.93 232.661 284.021 232.234 284.203C231.807 284.385 231.398 284.625 231.008 284.922V289.867C231.424 290.055 231.781 290.182 232.078 290.25C232.38 290.318 232.721 290.352 233.102 290.352C233.919 290.352 234.557 290.076 235.016 289.523C235.474 288.971 235.703 288.154 235.703 287.07ZM245.922 284.062H242.766V291.5H241.297V284.062H238.141V282.773H245.922V284.062ZM254.992 282.773L249.898 294.719H248.328L249.953 291.078L246.477 282.773H248.07L250.75 289.242L253.453 282.773H254.992Z" fill="#333333"/>
<path d="M30 331L37.5 338.5L50 323.5" stroke="#61B857" stroke-width="2" stroke-linecap="round" stroke-linejoin="round"/>
<path d="M73.5469 331.156C73.2604 331.281 73 331.398 72.7656 331.508C72.5365 331.617 72.2344 331.732 71.8594 331.852C71.5417 331.951 71.1953 332.034 70.8203 332.102C70.4505 332.174 70.0417 332.211 69.5938 332.211C68.75 332.211 67.9818 332.094 67.2891 331.859C66.6016 331.62 66.0026 331.247 65.4922 330.742C64.9922 330.247 64.6016 329.62 64.3203 328.859C64.0391 328.094 63.8984 327.206 63.8984 326.195C63.8984 325.237 64.0339 324.38 64.3047 323.625C64.5755 322.87 64.9661 322.232 65.4766 321.711C65.9714 321.206 66.5677 320.82 67.2656 320.555C67.9688 320.289 68.7474 320.156 69.6016 320.156C70.2266 320.156 70.849 320.232 71.4688 320.383C72.0938 320.534 72.7865 320.799 73.5469 321.18V323.016H73.4297C72.7891 322.479 72.1536 322.089 71.5234 321.844C70.8932 321.599 70.2188 321.477 69.5 321.477C68.9115 321.477 68.3802 321.573 67.9062 321.766C67.4375 321.953 67.0182 322.247 66.6484 322.648C66.2891 323.039 66.0078 323.534 65.8047 324.133C65.6068 324.727 65.5078 325.414 65.5078 326.195C65.5078 327.013 65.6172 327.716 65.8359 328.305C66.0599 328.893 66.3464 329.372 66.6953 329.742C67.0599 330.128 67.4844 330.414 67.9688 330.602C68.4583 330.784 68.974 330.875 69.5156 330.875C70.2604 330.875 70.9583 330.747 71.6094 330.492C72.2604 330.237 72.8698 329.854 73.4375 329.344H73.5469V331.156ZM82.9219 327.789H76.4922C76.4922 328.326 76.5729 328.794 76.7344 329.195C76.8958 329.591 77.1172 329.917 77.3984 330.172C77.6693 330.422 77.9896 330.609 78.3594 330.734C78.7344 330.859 79.1458 330.922 79.5938 330.922C80.1875 330.922 80.7839 330.805 81.3828 330.57C81.987 330.331 82.4167 330.096 82.6719 329.867H82.75V331.469C82.2552 331.677 81.75 331.852 81.2344 331.992C80.7188 332.133 80.1771 332.203 79.6094 332.203C78.1615 332.203 77.0312 331.812 76.2188 331.031C75.4062 330.245 75 329.13 75 327.688C75 326.26 75.388 325.128 76.1641 324.289C76.9453 323.451 77.9714 323.031 79.2422 323.031C80.4193 323.031 81.3255 323.375 81.9609 324.062C82.6016 324.75 82.9219 325.727 82.9219 326.992V327.789ZM81.4922 326.664C81.487 325.893 81.2917 325.297 80.9062 324.875C80.526 324.453 79.9453 324.242 79.1641 324.242C78.3776 324.242 77.75 324.474 77.2812 324.938C76.8177 325.401 76.5547 325.977 76.4922 326.664H81.4922ZM92.8281 327.531C92.8281 328.24 92.7266 328.888 92.5234 329.477C92.3203 330.06 92.0339 330.555 91.6641 330.961C91.3203 331.346 90.9141 331.646 90.4453 331.859C89.9818 332.068 89.4896 332.172 88.9688 332.172C88.5156 332.172 88.1042 332.122 87.7344 332.023C87.3698 331.924 86.9974 331.771 86.6172 331.562V335.219H85.1484V323.273H86.6172V324.188C87.0078 323.859 87.4453 323.586 87.9297 323.367C88.4193 323.143 88.9401 323.031 89.4922 323.031C90.5443 323.031 91.362 323.43 91.9453 324.227C92.5339 325.018 92.8281 326.12 92.8281 327.531ZM91.3125 327.57C91.3125 326.518 91.1328 325.732 90.7734 325.211C90.4141 324.69 89.862 324.43 89.1172 324.43C88.6953 324.43 88.2708 324.521 87.8438 324.703C87.4167 324.885 87.0078 325.125 86.6172 325.422V330.367C87.0339 330.555 87.3906 330.682 87.6875 330.75C87.9896 330.818 88.3307 330.852 88.7109 330.852C89.5286 330.852 90.1667 330.576 90.625 330.023C91.0833 329.471 91.3125 328.654 91.3125 327.57ZM101.531 324.562H98.375V332H96.9062V324.562H93.75V323.273H101.531V324.562ZM110.406 332H108.953V325.445L104.383 332H103.055V323.273H104.508V329.734L109.031 323.273H110.406V332ZM124.445 327.406C124.445 328.182 124.346 328.87 124.148 329.469C123.951 330.062 123.688 330.552 123.359 330.938C123.036 331.323 122.664 331.617 122.242 331.82C121.82 332.023 121.378 332.125 120.914 332.125C120.565 332.125 120.26 332.065 120 331.945C119.745 331.826 119.516 331.716 119.312 331.617V335.219H117.859V331.617C117.542 331.773 117.279 331.898 117.07 331.992C116.867 332.081 116.547 332.125 116.109 332.125C115.104 332.125 114.289 331.732 113.664 330.945C113.039 330.159 112.727 329.065 112.727 327.664C112.727 326.93 112.828 326.276 113.031 325.703C113.234 325.125 113.5 324.641 113.828 324.25C114.146 323.87 114.518 323.581 114.945 323.383C115.378 323.18 115.807 323.078 116.234 323.078C116.547 323.078 116.831 323.128 117.086 323.227C117.346 323.32 117.604 323.445 117.859 323.602V319.844H119.312V323.602C119.552 323.461 119.833 323.339 120.156 323.234C120.479 323.13 120.805 323.078 121.133 323.078C122.164 323.078 122.974 323.469 123.562 324.25C124.151 325.026 124.445 326.078 124.445 327.406ZM122.938 327.57C122.938 326.576 122.76 325.789 122.406 325.211C122.052 324.633 121.521 324.344 120.812 324.344C120.526 324.344 120.286 324.367 120.094 324.414C119.901 324.461 119.641 324.549 119.312 324.68V330.5C119.557 330.615 119.76 330.706 119.922 330.773C120.089 330.836 120.323 330.867 120.625 330.867C121.359 330.867 121.927 330.586 122.328 330.023C122.734 329.456 122.938 328.638 122.938 327.57ZM117.859 330.5V324.68C117.656 324.586 117.451 324.508 117.242 324.445C117.034 324.378 116.802 324.344 116.547 324.344C115.844 324.344 115.281 324.612 114.859 325.148C114.443 325.685 114.234 326.5 114.234 327.594C114.234 328.609 114.419 329.409 114.789 329.992C115.164 330.576 115.703 330.867 116.406 330.867C116.682 330.867 116.938 330.831 117.172 330.758C117.411 330.68 117.641 330.594 117.859 330.5ZM134.109 332H132.656V325.445L128.086 332H126.758V323.273H128.211V329.734L132.734 323.273H134.109V332ZM144.883 332H142.961L139.336 328H138.539V332H137.07V323.273H138.539V327.039C139.023 327.039 139.414 326.953 139.711 326.781C140.008 326.604 140.26 326.323 140.469 325.938C140.542 325.797 140.612 325.648 140.68 325.492C140.753 325.331 140.823 325.177 140.891 325.031C141.161 324.443 141.5 324.003 141.906 323.711C142.312 323.419 142.896 323.273 143.656 323.273H144.328V324.539H143.68C143.268 324.539 142.945 324.628 142.711 324.805C142.482 324.977 142.273 325.281 142.086 325.719C141.878 326.208 141.656 326.576 141.422 326.82C141.193 327.06 140.948 327.242 140.688 327.367L144.883 332ZM153.258 332H151.797V331.07C151.667 331.159 151.49 331.284 151.266 331.445C151.047 331.602 150.833 331.727 150.625 331.82C150.38 331.94 150.099 332.039 149.781 332.117C149.464 332.201 149.091 332.242 148.664 332.242C147.878 332.242 147.211 331.982 146.664 331.461C146.117 330.94 145.844 330.276 145.844 329.469C145.844 328.807 145.984 328.273 146.266 327.867C146.552 327.456 146.958 327.133 147.484 326.898C148.016 326.664 148.654 326.505 149.398 326.422C150.143 326.339 150.943 326.276 151.797 326.234V326.008C151.797 325.674 151.737 325.398 151.617 325.18C151.503 324.961 151.336 324.789 151.117 324.664C150.909 324.544 150.659 324.464 150.367 324.422C150.076 324.38 149.771 324.359 149.453 324.359C149.068 324.359 148.638 324.411 148.164 324.516C147.69 324.615 147.201 324.76 146.695 324.953H146.617V323.461C146.904 323.383 147.318 323.297 147.859 323.203C148.401 323.109 148.935 323.062 149.461 323.062C150.076 323.062 150.609 323.115 151.062 323.219C151.521 323.318 151.917 323.49 152.25 323.734C152.578 323.974 152.828 324.284 153 324.664C153.172 325.044 153.258 325.516 153.258 326.078V332ZM151.797 329.852V327.422C151.349 327.448 150.82 327.487 150.211 327.539C149.607 327.591 149.128 327.667 148.773 327.766C148.352 327.885 148.01 328.073 147.75 328.328C147.49 328.578 147.359 328.924 147.359 329.367C147.359 329.867 147.51 330.245 147.812 330.5C148.115 330.75 148.576 330.875 149.195 330.875C149.711 330.875 150.182 330.776 150.609 330.578C151.036 330.375 151.432 330.133 151.797 329.852ZM163.008 332H156.086V323.273H157.555V330.734H161.852V323.273H163.32V330.734H164.375V334.094H163.008V332ZM173.75 332H172.297V325.445L167.727 332H166.398V323.273H167.852V329.734L172.375 323.273H173.75V332ZM183.352 332H181.883V328.539H180.156L177.453 332H175.727L178.664 328.398C177.909 328.19 177.357 327.872 177.008 327.445C176.659 327.013 176.484 326.448 176.484 325.75C176.484 325.286 176.589 324.893 176.797 324.57C177.005 324.247 177.268 323.984 177.586 323.781C177.898 323.583 178.258 323.451 178.664 323.383C179.07 323.31 179.513 323.273 179.992 323.273H183.352V332ZM181.883 327.383V324.445H180.031C179.63 324.445 179.341 324.458 179.164 324.484C178.987 324.51 178.794 324.581 178.586 324.695C178.383 324.81 178.232 324.966 178.133 325.164C178.039 325.357 177.992 325.568 177.992 325.797C177.992 326.083 178.021 326.315 178.078 326.492C178.141 326.669 178.266 326.836 178.453 326.992C178.646 327.143 178.88 327.247 179.156 327.305C179.432 327.357 179.74 327.383 180.078 327.383H181.883Z" fill="#333333"/>
<path d="M30 377L37.5 384.5L50 369.5" stroke="#61B857" stroke-width="2" stroke-linecap="round" stroke-linejoin="round"/>
<path d="M73.2344 367.703C73.7083 368.224 74.0703 368.862 74.3203 369.617C74.5755 370.372 74.7031 371.229 74.7031 372.188C74.7031 373.146 74.5729 374.005 74.3125 374.766C74.0573 375.521 73.6979 376.151 73.2344 376.656C72.7552 377.182 72.1875 377.578 71.5312 377.844C70.8802 378.109 70.1354 378.242 69.2969 378.242C68.4792 378.242 67.7344 378.107 67.0625 377.836C66.3958 377.565 65.8281 377.172 65.3594 376.656C64.8906 376.141 64.5286 375.508 64.2734 374.758C64.0234 374.008 63.8984 373.151 63.8984 372.188C63.8984 371.24 64.0234 370.391 64.2734 369.641C64.5234 368.885 64.888 368.24 65.3672 367.703C65.8255 367.193 66.3932 366.802 67.0703 366.531C67.7526 366.26 68.4948 366.125 69.2969 366.125C70.1302 366.125 70.8776 366.263 71.5391 366.539C72.2057 366.81 72.7708 367.198 73.2344 367.703ZM73.0938 372.188C73.0938 370.677 72.7552 369.513 72.0781 368.695C71.401 367.872 70.4766 367.461 69.3047 367.461C68.1224 367.461 67.1927 367.872 66.5156 368.695C65.8438 369.513 65.5078 370.677 65.5078 372.188C65.5078 373.714 65.8516 374.883 66.5391 375.695C67.2266 376.503 68.1484 376.906 69.3047 376.906C70.4609 376.906 71.3802 376.503 72.0625 375.695C72.75 374.883 73.0938 373.714 73.0938 372.188ZM83.4531 370.562H80.2969V378H78.8281V370.562H75.6719V369.273H83.4531V370.562ZM92.8984 380.094H91.5312V377.977H84.9688V380.094H83.6016V376.75H84.5469C85.1562 375.745 85.6094 374.586 85.9062 373.273C86.2083 371.956 86.3594 370.622 86.3594 369.273H91.8438V376.75H92.8984V380.094ZM90.375 376.75V370.508H87.7422C87.6745 371.815 87.474 373.008 87.1406 374.086C86.8073 375.164 86.4245 376.052 85.9922 376.75H90.375ZM102.234 373.789H95.8047C95.8047 374.326 95.8854 374.794 96.0469 375.195C96.2083 375.591 96.4297 375.917 96.7109 376.172C96.9818 376.422 97.3021 376.609 97.6719 376.734C98.0469 376.859 98.4583 376.922 98.9062 376.922C99.5 376.922 100.096 376.805 100.695 376.57C101.299 376.331 101.729 376.096 101.984 375.867H102.062V377.469C101.568 377.677 101.062 377.852 100.547 377.992C100.031 378.133 99.4896 378.203 98.9219 378.203C97.474 378.203 96.3438 377.812 95.5312 377.031C94.7188 376.245 94.3125 375.13 94.3125 373.688C94.3125 372.26 94.7005 371.128 95.4766 370.289C96.2578 369.451 97.2839 369.031 98.5547 369.031C99.7318 369.031 100.638 369.375 101.273 370.062C101.914 370.75 102.234 371.727 102.234 372.992V373.789ZM100.805 372.664C100.799 371.893 100.604 371.297 100.219 370.875C99.8385 370.453 99.2578 370.242 98.4766 370.242C97.6901 370.242 97.0625 370.474 96.5938 370.938C96.1302 371.401 95.8672 371.977 95.8047 372.664H100.805ZM111.5 378H110.031V370.508H106.773C106.758 370.94 106.742 371.357 106.727 371.758C106.711 372.159 106.695 372.521 106.68 372.844C106.643 373.714 106.583 374.409 106.5 374.93C106.417 375.445 106.307 375.875 106.172 376.219C106.047 376.542 105.906 376.805 105.75 377.008C105.599 377.206 105.435 377.385 105.258 377.547C105.081 377.703 104.883 377.82 104.664 377.898C104.451 377.977 104.216 378.016 103.961 378.016C103.872 378.016 103.742 378.013 103.57 378.008C103.404 378.003 103.294 378 103.242 378V376.719H103.32C103.362 376.719 103.422 376.721 103.5 376.727C103.578 376.732 103.643 376.734 103.695 376.734C103.82 376.734 103.948 376.716 104.078 376.68C104.214 376.643 104.328 376.576 104.422 376.477C104.688 376.216 104.901 375.776 105.062 375.156C105.224 374.536 105.331 373.641 105.383 372.469C105.404 372.042 105.422 371.536 105.438 370.953C105.458 370.365 105.477 369.805 105.492 369.273H111.5V378ZM129.039 378H127.492V367.742H121.688V378H120.141V366.367H129.039V378ZM139.734 373.531C139.734 374.24 139.633 374.888 139.43 375.477C139.227 376.06 138.94 376.555 138.57 376.961C138.227 377.346 137.82 377.646 137.352 377.859C136.888 378.068 136.396 378.172 135.875 378.172C135.422 378.172 135.01 378.122 134.641 378.023C134.276 377.924 133.904 377.771 133.523 377.562V381.219H132.055V369.273H133.523V370.188C133.914 369.859 134.352 369.586 134.836 369.367C135.326 369.143 135.846 369.031 136.398 369.031C137.451 369.031 138.268 369.43 138.852 370.227C139.44 371.018 139.734 372.12 139.734 373.531ZM138.219 373.57C138.219 372.518 138.039 371.732 137.68 371.211C137.32 370.69 136.768 370.43 136.023 370.43C135.602 370.43 135.177 370.521 134.75 370.703C134.323 370.885 133.914 371.125 133.523 371.422V376.367C133.94 376.555 134.297 376.682 134.594 376.75C134.896 376.818 135.237 376.852 135.617 376.852C136.435 376.852 137.073 376.576 137.531 376.023C137.99 375.471 138.219 374.654 138.219 373.57ZM149.461 373.641C149.461 375.062 149.096 376.185 148.367 377.008C147.638 377.831 146.661 378.242 145.438 378.242C144.203 378.242 143.221 377.831 142.492 377.008C141.768 376.185 141.406 375.062 141.406 373.641C141.406 372.219 141.768 371.096 142.492 370.273C143.221 369.445 144.203 369.031 145.438 369.031C146.661 369.031 147.638 369.445 148.367 370.273C149.096 371.096 149.461 372.219 149.461 373.641ZM147.945 373.641C147.945 372.51 147.724 371.672 147.281 371.125C146.839 370.573 146.224 370.297 145.438 370.297C144.641 370.297 144.021 370.573 143.578 371.125C143.141 371.672 142.922 372.51 142.922 373.641C142.922 374.734 143.143 375.565 143.586 376.133C144.029 376.695 144.646 376.977 145.438 376.977C146.219 376.977 146.831 376.698 147.273 376.141C147.721 375.578 147.945 374.745 147.945 373.641ZM159.664 380.094H158.297V377.977H151.734V380.094H150.367V376.75H151.312C151.922 375.745 152.375 374.586 152.672 373.273C152.974 371.956 153.125 370.622 153.125 369.273H158.609V376.75H159.664V380.094ZM157.141 376.75V370.508H154.508C154.44 371.815 154.24 373.008 153.906 374.086C153.573 375.164 153.19 376.052 152.758 376.75H157.141ZM168.477 378H167.016V377.07C166.885 377.159 166.708 377.284 166.484 377.445C166.266 377.602 166.052 377.727 165.844 377.82C165.599 377.94 165.318 378.039 165 378.117C164.682 378.201 164.31 378.242 163.883 378.242C163.096 378.242 162.43 377.982 161.883 377.461C161.336 376.94 161.062 376.276 161.062 375.469C161.062 374.807 161.203 374.273 161.484 373.867C161.771 373.456 162.177 373.133 162.703 372.898C163.234 372.664 163.872 372.505 164.617 372.422C165.362 372.339 166.161 372.276 167.016 372.234V372.008C167.016 371.674 166.956 371.398 166.836 371.18C166.721 370.961 166.555 370.789 166.336 370.664C166.128 370.544 165.878 370.464 165.586 370.422C165.294 370.38 164.99 370.359 164.672 370.359C164.286 370.359 163.857 370.411 163.383 370.516C162.909 370.615 162.419 370.76 161.914 370.953H161.836V369.461C162.122 369.383 162.536 369.297 163.078 369.203C163.62 369.109 164.154 369.062 164.68 369.062C165.294 369.062 165.828 369.115 166.281 369.219C166.74 369.318 167.135 369.49 167.469 369.734C167.797 369.974 168.047 370.284 168.219 370.664C168.391 371.044 168.477 371.516 168.477 372.078V378ZM167.016 375.852V373.422C166.568 373.448 166.039 373.487 165.43 373.539C164.826 373.591 164.346 373.667 163.992 373.766C163.57 373.885 163.229 374.073 162.969 374.328C162.708 374.578 162.578 374.924 162.578 375.367C162.578 375.867 162.729 376.245 163.031 376.5C163.333 376.75 163.794 376.875 164.414 376.875C164.93 376.875 165.401 376.776 165.828 376.578C166.255 376.375 166.651 376.133 167.016 375.852ZM182.25 378H180.477L177.68 374.016H176.969V378H175.516V374.016H174.883L171.961 378H170.266L173.633 373.43C173.378 373.294 173.151 373.102 172.953 372.852C172.76 372.602 172.583 372.224 172.422 371.719C172.281 371.276 172.115 370.969 171.922 370.797C171.729 370.625 171.414 370.539 170.977 370.539H170.562V369.273H171.102C171.747 369.273 172.266 369.404 172.656 369.664C173.047 369.924 173.359 370.38 173.594 371.031C173.641 371.167 173.698 371.323 173.766 371.5C173.839 371.672 173.901 371.818 173.953 371.938C174.125 372.333 174.344 372.615 174.609 372.781C174.88 372.943 175.182 373.034 175.516 373.055V369.273H176.969V373.055C177.302 373.034 177.604 372.94 177.875 372.773C178.151 372.607 178.375 372.328 178.547 371.938C178.604 371.807 178.667 371.656 178.734 371.484C178.807 371.312 178.865 371.161 178.906 371.031C179.135 370.391 179.443 369.938 179.828 369.672C180.214 369.406 180.732 369.273 181.383 369.273H181.922V370.539H181.508C181.065 370.539 180.745 370.63 180.547 370.812C180.354 370.995 180.193 371.297 180.062 371.719C179.917 372.182 179.742 372.544 179.539 372.805C179.341 373.06 179.125 373.253 178.891 373.383L182.25 378Z" fill="#333333"/>
<path d="M30 423L37.5 430.5L50 415.5" stroke="#61B857" stroke-width="2" stroke-linecap="round" stroke-linejoin="round"/>
<path d="M77.0391 418.188C77.0391 416.646 76.7031 415.474 76.0312 414.672C75.3646 413.865 74.4609 413.461 73.3203 413.461C72.1693 413.461 71.2578 413.862 70.5859 414.664C69.9141 415.466 69.5781 416.641 69.5781 418.188C69.5781 419.714 69.9141 420.883 70.5859 421.695C71.263 422.503 72.1745 422.906 73.3203 422.906C74.4609 422.906 75.3646 422.503 76.0312 421.695C76.7031 420.888 77.0391 419.719 77.0391 418.188ZM67.9844 418.375H66.1094V424H64.5625V412.367H66.1094V417.023H68.0547C68.2422 415.456 68.8073 414.247 69.75 413.398C70.6927 412.549 71.8802 412.125 73.3125 412.125C74.974 412.125 76.2786 412.664 77.2266 413.742C78.1745 414.815 78.6484 416.297 78.6484 418.188C78.6484 420.089 78.1693 421.573 77.2109 422.641C76.2526 423.708 74.9531 424.242 73.3125 424.242C71.7083 424.242 70.4271 423.732 69.4688 422.711C68.5156 421.685 68.0208 420.24 67.9844 418.375ZM88.6719 419.531C88.6719 420.24 88.5703 420.888 88.3672 421.477C88.1641 422.06 87.8776 422.555 87.5078 422.961C87.1641 423.346 86.7578 423.646 86.2891 423.859C85.8255 424.068 85.3333 424.172 84.8125 424.172C84.3594 424.172 83.9479 424.122 83.5781 424.023C83.2135 423.924 82.8411 423.771 82.4609 423.562V427.219H80.9922V415.273H82.4609V416.188C82.8516 415.859 83.2891 415.586 83.7734 415.367C84.263 415.143 84.7839 415.031 85.3359 415.031C86.388 415.031 87.2057 415.43 87.7891 416.227C88.3776 417.018 88.6719 418.12 88.6719 419.531ZM87.1562 419.57C87.1562 418.518 86.9766 417.732 86.6172 417.211C86.2578 416.69 85.7057 416.43 84.9609 416.43C84.5391 416.43 84.1146 416.521 83.6875 416.703C83.2604 416.885 82.8516 417.125 82.4609 417.422V422.367C82.8776 422.555 83.2344 422.682 83.5312 422.75C83.8333 422.818 84.1745 422.852 84.5547 422.852C85.3724 422.852 86.0104 422.576 86.4688 422.023C86.9271 421.471 87.1562 420.654 87.1562 419.57ZM98.3125 424H96.8594V417.445L92.2891 424H90.9609V415.273H92.4141V421.734L96.9375 415.273H98.3125V424ZM109.133 426.094H107.766V423.977H101.203V426.094H99.8359V422.75H100.781C101.391 421.745 101.844 420.586 102.141 419.273C102.443 417.956 102.594 416.622 102.594 415.273H108.078V422.75H109.133V426.094ZM106.609 422.75V416.508H103.977C103.909 417.815 103.708 419.008 103.375 420.086C103.042 421.164 102.659 422.052 102.227 422.75H106.609ZM118.516 424H117.062V417.445L112.492 424H111.164V415.273H112.617V421.734L117.141 415.273H118.516V424ZM128.211 424H126.742V420.648C126.268 420.794 125.815 420.911 125.383 421C124.951 421.089 124.479 421.133 123.969 421.133C123.031 421.133 122.315 420.904 121.82 420.445C121.326 419.982 121.078 419.315 121.078 418.445V415.273H122.547V417.695C122.547 418.029 122.568 418.328 122.609 418.594C122.651 418.854 122.74 419.081 122.875 419.273C123.01 419.461 123.201 419.604 123.445 419.703C123.69 419.802 124.031 419.852 124.469 419.852C124.828 419.852 125.219 419.818 125.641 419.75C126.062 419.677 126.43 419.594 126.742 419.5V415.273H128.211V424ZM138.406 419.789H131.977C131.977 420.326 132.057 420.794 132.219 421.195C132.38 421.591 132.602 421.917 132.883 422.172C133.154 422.422 133.474 422.609 133.844 422.734C134.219 422.859 134.63 422.922 135.078 422.922C135.672 422.922 136.268 422.805 136.867 422.57C137.471 422.331 137.901 422.096 138.156 421.867H138.234V423.469C137.74 423.677 137.234 423.852 136.719 423.992C136.203 424.133 135.661 424.203 135.094 424.203C133.646 424.203 132.516 423.812 131.703 423.031C130.891 422.245 130.484 421.13 130.484 419.688C130.484 418.26 130.872 417.128 131.648 416.289C132.43 415.451 133.456 415.031 134.727 415.031C135.904 415.031 136.81 415.375 137.445 416.062C138.086 416.75 138.406 417.727 138.406 418.992V419.789ZM136.977 418.664C136.971 417.893 136.776 417.297 136.391 416.875C136.01 416.453 135.43 416.242 134.648 416.242C133.862 416.242 133.234 416.474 132.766 416.938C132.302 417.401 132.039 417.977 131.977 418.664H136.977ZM147.164 423.453C146.565 423.734 146.049 423.927 145.617 424.031C145.19 424.141 144.763 424.195 144.336 424.195C143.701 424.195 143.117 424.104 142.586 423.922C142.055 423.734 141.599 423.453 141.219 423.078C140.839 422.703 140.542 422.229 140.328 421.656C140.12 421.083 140.016 420.414 140.016 419.648C140.016 418.258 140.401 417.148 141.172 416.32C141.943 415.487 142.997 415.07 144.336 415.07C144.841 415.07 145.336 415.141 145.82 415.281C146.31 415.422 146.758 415.594 147.164 415.797V417.43H147.078C146.594 417.06 146.115 416.786 145.641 416.609C145.172 416.432 144.716 416.344 144.273 416.344C143.404 416.344 142.729 416.635 142.25 417.219C141.776 417.802 141.539 418.612 141.539 419.648C141.539 420.685 141.776 421.49 142.25 422.062C142.724 422.635 143.398 422.922 144.273 422.922C144.581 422.922 144.885 422.883 145.188 422.805C145.495 422.727 145.773 422.625 146.023 422.5C146.221 422.401 146.424 422.284 146.633 422.148C146.846 422.008 146.995 421.904 147.078 421.836H147.164V423.453ZM157.055 424H155.133L151.508 420H150.711V424H149.242V415.273H150.711V419.039C151.195 419.039 151.586 418.953 151.883 418.781C152.18 418.604 152.432 418.323 152.641 417.938C152.714 417.797 152.784 417.648 152.852 417.492C152.924 417.331 152.995 417.177 153.062 417.031C153.333 416.443 153.672 416.003 154.078 415.711C154.484 415.419 155.068 415.273 155.828 415.273H156.5V416.539H155.852C155.44 416.539 155.117 416.628 154.883 416.805C154.654 416.977 154.445 417.281 154.258 417.719C154.049 418.208 153.828 418.576 153.594 418.82C153.365 419.06 153.12 419.242 152.859 419.367L157.055 424ZM166.086 419.641C166.086 421.062 165.721 422.185 164.992 423.008C164.263 423.831 163.286 424.242 162.062 424.242C160.828 424.242 159.846 423.831 159.117 423.008C158.393 422.185 158.031 421.062 158.031 419.641C158.031 418.219 158.393 417.096 159.117 416.273C159.846 415.445 160.828 415.031 162.062 415.031C163.286 415.031 164.263 415.445 164.992 416.273C165.721 417.096 166.086 418.219 166.086 419.641ZM164.57 419.641C164.57 418.51 164.349 417.672 163.906 417.125C163.464 416.573 162.849 416.297 162.062 416.297C161.266 416.297 160.646 416.573 160.203 417.125C159.766 417.672 159.547 418.51 159.547 419.641C159.547 420.734 159.768 421.565 160.211 422.133C160.654 422.695 161.271 422.977 162.062 422.977C162.844 422.977 163.456 422.698 163.898 422.141C164.346 421.578 164.57 420.745 164.57 419.641ZM175.672 419.789H169.242C169.242 420.326 169.323 420.794 169.484 421.195C169.646 421.591 169.867 421.917 170.148 422.172C170.419 422.422 170.74 422.609 171.109 422.734C171.484 422.859 171.896 422.922 172.344 422.922C172.938 422.922 173.534 422.805 174.133 422.57C174.737 422.331 175.167 422.096 175.422 421.867H175.5V423.469C175.005 423.677 174.5 423.852 173.984 423.992C173.469 424.133 172.927 424.203 172.359 424.203C170.911 424.203 169.781 423.812 168.969 423.031C168.156 422.245 167.75 421.13 167.75 419.688C167.75 418.26 168.138 417.128 168.914 416.289C169.695 415.451 170.721 415.031 171.992 415.031C173.169 415.031 174.076 415.375 174.711 416.062C175.352 416.75 175.672 417.727 175.672 418.992V419.789ZM174.242 418.664C174.237 417.893 174.042 417.297 173.656 416.875C173.276 416.453 172.695 416.242 171.914 416.242C171.128 416.242 170.5 416.474 170.031 416.938C169.568 417.401 169.305 417.977 169.242 418.664H174.242ZM73.5469 442.156C73.2604 442.281 73 442.398 72.7656 442.508C72.5365 442.617 72.2344 442.732 71.8594 442.852C71.5417 442.951 71.1953 443.034 70.8203 443.102C70.4505 443.174 70.0417 443.211 69.5938 443.211C68.75 443.211 67.9818 443.094 67.2891 442.859C66.6016 442.62 66.0026 442.247 65.4922 441.742C64.9922 441.247 64.6016 440.62 64.3203 439.859C64.0391 439.094 63.8984 438.206 63.8984 437.195C63.8984 436.237 64.0339 435.38 64.3047 434.625C64.5755 433.87 64.9661 433.232 65.4766 432.711C65.9714 432.206 66.5677 431.82 67.2656 431.555C67.9688 431.289 68.7474 431.156 69.6016 431.156C70.2266 431.156 70.849 431.232 71.4688 431.383C72.0938 431.534 72.7865 431.799 73.5469 432.18V434.016H73.4297C72.7891 433.479 72.1536 433.089 71.5234 432.844C70.8932 432.599 70.2188 432.477 69.5 432.477C68.9115 432.477 68.3802 432.573 67.9062 432.766C67.4375 432.953 67.0182 433.247 66.6484 433.648C66.2891 434.039 66.0078 434.534 65.8047 435.133C65.6068 435.727 65.5078 436.414 65.5078 437.195C65.5078 438.013 65.6172 438.716 65.8359 439.305C66.0599 439.893 66.3464 440.372 66.6953 440.742C67.0599 441.128 67.4844 441.414 67.9688 441.602C68.4583 441.784 68.974 441.875 69.5156 441.875C70.2604 441.875 70.9583 441.747 71.6094 441.492C72.2604 441.237 72.8698 440.854 73.4375 440.344H73.5469V442.156ZM83.0547 438.641C83.0547 440.062 82.6901 441.185 81.9609 442.008C81.2318 442.831 80.2552 443.242 79.0312 443.242C77.7969 443.242 76.8151 442.831 76.0859 442.008C75.362 441.185 75 440.062 75 438.641C75 437.219 75.362 436.096 76.0859 435.273C76.8151 434.445 77.7969 434.031 79.0312 434.031C80.2552 434.031 81.2318 434.445 81.9609 435.273C82.6901 436.096 83.0547 437.219 83.0547 438.641ZM81.5391 438.641C81.5391 437.51 81.3177 436.672 80.875 436.125C80.4323 435.573 79.8177 435.297 79.0312 435.297C78.2344 435.297 77.6146 435.573 77.1719 436.125C76.7344 436.672 76.5156 437.51 76.5156 438.641C76.5156 439.734 76.737 440.565 77.1797 441.133C77.6224 441.695 78.2396 441.977 79.0312 441.977C79.8125 441.977 80.4245 441.698 80.8672 441.141C81.3151 440.578 81.5391 439.745 81.5391 438.641ZM92.6406 443H91.1719V435.539H86.8047V443H85.3359V434.273H92.6406V443ZM103.219 438.531C103.219 439.24 103.117 439.888 102.914 440.477C102.711 441.06 102.424 441.555 102.055 441.961C101.711 442.346 101.305 442.646 100.836 442.859C100.372 443.068 99.8802 443.172 99.3594 443.172C98.9062 443.172 98.4948 443.122 98.125 443.023C97.7604 442.924 97.388 442.771 97.0078 442.562V446.219H95.5391V434.273H97.0078V435.188C97.3984 434.859 97.8359 434.586 98.3203 434.367C98.8099 434.143 99.3307 434.031 99.8828 434.031C100.935 434.031 101.753 434.43 102.336 435.227C102.924 436.018 103.219 437.12 103.219 438.531ZM101.703 438.57C101.703 437.518 101.523 436.732 101.164 436.211C100.805 435.69 100.253 435.43 99.5078 435.43C99.0859 435.43 98.6615 435.521 98.2344 435.703C97.8073 435.885 97.3984 436.125 97.0078 436.422V441.367C97.4245 441.555 97.7812 441.682 98.0781 441.75C98.3802 441.818 98.7214 441.852 99.1016 441.852C99.9193 441.852 100.557 441.576 101.016 441.023C101.474 440.471 101.703 439.654 101.703 438.57ZM112.945 438.641C112.945 440.062 112.581 441.185 111.852 442.008C111.122 442.831 110.146 443.242 108.922 443.242C107.688 443.242 106.706 442.831 105.977 442.008C105.253 441.185 104.891 440.062 104.891 438.641C104.891 437.219 105.253 436.096 105.977 435.273C106.706 434.445 107.688 434.031 108.922 434.031C110.146 434.031 111.122 434.445 111.852 435.273C112.581 436.096 112.945 437.219 112.945 438.641ZM111.43 438.641C111.43 437.51 111.208 436.672 110.766 436.125C110.323 435.573 109.708 435.297 108.922 435.297C108.125 435.297 107.505 435.573 107.062 436.125C106.625 436.672 106.406 437.51 106.406 438.641C106.406 439.734 106.628 440.565 107.07 441.133C107.513 441.695 108.13 441.977 108.922 441.977C109.703 441.977 110.315 441.698 110.758 441.141C111.206 440.578 111.43 439.745 111.43 438.641ZM122.43 440.359C122.43 440.781 122.344 441.156 122.172 441.484C122.005 441.812 121.773 442.086 121.477 442.305C121.143 442.549 120.779 442.727 120.383 442.836C119.992 442.945 119.477 443 118.836 443H115.227V434.273H118.602C119.253 434.273 119.742 434.297 120.07 434.344C120.404 434.385 120.716 434.482 121.008 434.633C121.336 434.805 121.576 435.029 121.727 435.305C121.883 435.581 121.961 435.906 121.961 436.281C121.961 436.714 121.839 437.089 121.594 437.406C121.349 437.724 121.034 437.971 120.648 438.148V438.227C121.164 438.352 121.589 438.594 121.922 438.953C122.26 439.307 122.43 439.776 122.43 440.359ZM120.453 436.508C120.453 436.32 120.411 436.151 120.328 436C120.25 435.849 120.128 435.732 119.961 435.648C119.742 435.539 119.495 435.479 119.219 435.469C118.948 435.453 118.612 435.445 118.211 435.445H116.68V437.836H118.516C118.901 437.836 119.185 437.823 119.367 437.797C119.555 437.766 119.742 437.693 119.93 437.578C120.128 437.453 120.263 437.307 120.336 437.141C120.414 436.969 120.453 436.758 120.453 436.508ZM120.914 440.367C120.914 440.081 120.867 439.849 120.773 439.672C120.68 439.49 120.474 439.323 120.156 439.172C119.958 439.078 119.745 439.023 119.516 439.008C119.286 438.987 118.969 438.977 118.562 438.977H116.68V441.828H118.07C118.654 441.828 119.102 441.81 119.414 441.773C119.732 441.732 120.005 441.646 120.234 441.516C120.464 441.385 120.633 441.227 120.742 441.039C120.857 440.852 120.914 440.628 120.914 440.367ZM132.18 438.641C132.18 440.062 131.815 441.185 131.086 442.008C130.357 442.831 129.38 443.242 128.156 443.242C126.922 443.242 125.94 442.831 125.211 442.008C124.487 441.185 124.125 440.062 124.125 438.641C124.125 437.219 124.487 436.096 125.211 435.273C125.94 434.445 126.922 434.031 128.156 434.031C129.38 434.031 130.357 434.445 131.086 435.273C131.815 436.096 132.18 437.219 132.18 438.641ZM130.664 438.641C130.664 437.51 130.443 436.672 130 436.125C129.557 435.573 128.943 435.297 128.156 435.297C127.359 435.297 126.74 435.573 126.297 436.125C125.859 436.672 125.641 437.51 125.641 438.641C125.641 439.734 125.862 440.565 126.305 441.133C126.747 441.695 127.365 441.977 128.156 441.977C128.938 441.977 129.549 441.698 129.992 441.141C130.44 440.578 130.664 439.745 130.664 438.641ZM145.406 443H143.633L140.836 439.016H140.125V443H138.672V439.016H138.039L135.117 443H133.422L136.789 438.43C136.534 438.294 136.307 438.102 136.109 437.852C135.917 437.602 135.74 437.224 135.578 436.719C135.438 436.276 135.271 435.969 135.078 435.797C134.885 435.625 134.57 435.539 134.133 435.539H133.719V434.273H134.258C134.904 434.273 135.422 434.404 135.812 434.664C136.203 434.924 136.516 435.38 136.75 436.031C136.797 436.167 136.854 436.323 136.922 436.5C136.995 436.672 137.057 436.818 137.109 436.938C137.281 437.333 137.5 437.615 137.766 437.781C138.036 437.943 138.339 438.034 138.672 438.055V434.273H140.125V438.055C140.458 438.034 140.76 437.94 141.031 437.773C141.307 437.607 141.531 437.328 141.703 436.938C141.76 436.807 141.823 436.656 141.891 436.484C141.964 436.312 142.021 436.161 142.062 436.031C142.292 435.391 142.599 434.938 142.984 434.672C143.37 434.406 143.888 434.273 144.539 434.273H145.078V435.539H144.664C144.221 435.539 143.901 435.63 143.703 435.812C143.51 435.995 143.349 436.297 143.219 436.719C143.073 437.182 142.898 437.544 142.695 437.805C142.497 438.06 142.281 438.253 142.047 438.383L145.406 443ZM155.148 445.094H153.781V442.977H147.219V445.094H145.852V441.75H146.797C147.406 440.745 147.859 439.586 148.156 438.273C148.458 436.956 148.609 435.622 148.609 434.273H154.094V441.75H155.148V445.094ZM152.625 441.75V435.508H149.992C149.924 436.815 149.724 438.008 149.391 439.086C149.057 440.164 148.674 441.052 148.242 441.75H152.625ZM164.484 438.789H158.055C158.055 439.326 158.135 439.794 158.297 440.195C158.458 440.591 158.68 440.917 158.961 441.172C159.232 441.422 159.552 441.609 159.922 441.734C160.297 441.859 160.708 441.922 161.156 441.922C161.75 441.922 162.346 441.805 162.945 441.57C163.549 441.331 163.979 441.096 164.234 440.867H164.312V442.469C163.818 442.677 163.312 442.852 162.797 442.992C162.281 443.133 161.74 443.203 161.172 443.203C159.724 443.203 158.594 442.812 157.781 442.031C156.969 441.245 156.562 440.13 156.562 438.688C156.562 437.26 156.951 436.128 157.727 435.289C158.508 434.451 159.534 434.031 160.805 434.031C161.982 434.031 162.888 434.375 163.523 435.062C164.164 435.75 164.484 436.727 164.484 437.992V438.789ZM163.055 437.664C163.049 436.893 162.854 436.297 162.469 435.875C162.089 435.453 161.508 435.242 160.727 435.242C159.94 435.242 159.312 435.474 158.844 435.938C158.38 436.401 158.117 436.977 158.055 437.664H163.055ZM174.016 443H172.547V439.07H168.18V443H166.711V434.273H168.18V437.805H172.547V434.273H174.016V443ZM184.266 443H182.812V436.445L178.242 443H176.914V434.273H178.367V440.734L182.891 434.273H184.266V443ZM194.469 438.789H188.039C188.039 439.326 188.12 439.794 188.281 440.195C188.443 440.591 188.664 440.917 188.945 441.172C189.216 441.422 189.536 441.609 189.906 441.734C190.281 441.859 190.693 441.922 191.141 441.922C191.734 441.922 192.331 441.805 192.93 441.57C193.534 441.331 193.964 441.096 194.219 440.867H194.297V442.469C193.802 442.677 193.297 442.852 192.781 442.992C192.266 443.133 191.724 443.203 191.156 443.203C189.708 443.203 188.578 442.812 187.766 442.031C186.953 441.245 186.547 440.13 186.547 438.688C186.547 437.26 186.935 436.128 187.711 435.289C188.492 434.451 189.518 434.031 190.789 434.031C191.966 434.031 192.872 434.375 193.508 435.062C194.148 435.75 194.469 436.727 194.469 437.992V438.789ZM193.039 437.664C193.034 436.893 192.839 436.297 192.453 435.875C192.073 435.453 191.492 435.242 190.711 435.242C189.924 435.242 189.297 435.474 188.828 435.938C188.365 436.401 188.102 436.977 188.039 437.664H193.039Z" fill="#333333"/>
<path d="M30 477L37.5 484.5L50 469.5" stroke="#61B857" stroke-width="2" stroke-linecap="round" stroke-linejoin="round"/>
<path d="M73.9141 478H71.9297L67.2031 472.695H66.1484V478H64.6016V466.367H66.1484V471.586C66.4141 471.581 66.6641 471.555 66.8984 471.508C67.1328 471.461 67.3542 471.372 67.5625 471.242C67.7708 471.122 67.9766 470.953 68.1797 470.734C68.3828 470.51 68.5625 470.237 68.7188 469.914C68.7865 469.773 68.8646 469.596 68.9531 469.383C69.0469 469.169 69.1406 468.945 69.2344 468.711C69.5938 467.846 70.013 467.24 70.4922 466.891C70.9766 466.542 71.6875 466.367 72.625 466.367H73.2422V467.75H72.5938C72.2344 467.75 71.9531 467.784 71.75 467.852C71.5469 467.914 71.3646 468.021 71.2031 468.172C71.0521 468.307 70.9193 468.49 70.8047 468.719C70.6953 468.948 70.5807 469.216 70.4609 469.523C70.1901 470.211 69.9141 470.716 69.6328 471.039C69.3568 471.362 68.9844 471.643 68.5156 471.883L73.9141 478ZM83.0859 469.273L77.9922 481.219H76.4219L78.0469 477.578L74.5703 469.273H76.1641L78.8438 475.742L81.5469 469.273H83.0859ZM92.6875 473.531C92.6875 474.24 92.5859 474.888 92.3828 475.477C92.1797 476.06 91.8932 476.555 91.5234 476.961C91.1797 477.346 90.7734 477.646 90.3047 477.859C89.8411 478.068 89.349 478.172 88.8281 478.172C88.375 478.172 87.9635 478.122 87.5938 478.023C87.2292 477.924 86.8568 477.771 86.4766 477.562V481.219H85.0078V469.273H86.4766V470.188C86.8672 469.859 87.3047 469.586 87.7891 469.367C88.2786 469.143 88.7995 469.031 89.3516 469.031C90.4036 469.031 91.2214 469.43 91.8047 470.227C92.3932 471.018 92.6875 472.12 92.6875 473.531ZM91.1719 473.57C91.1719 472.518 90.9922 471.732 90.6328 471.211C90.2734 470.69 89.7214 470.43 88.9766 470.43C88.5547 470.43 88.1302 470.521 87.7031 470.703C87.276 470.885 86.8672 471.125 86.4766 471.422V476.367C86.8932 476.555 87.25 476.682 87.5469 476.75C87.849 476.818 88.1901 476.852 88.5703 476.852C89.388 476.852 90.026 476.576 90.4844 476.023C90.9427 475.471 91.1719 474.654 91.1719 473.57ZM101.508 477.453C100.909 477.734 100.393 477.927 99.9609 478.031C99.5339 478.141 99.1068 478.195 98.6797 478.195C98.0443 478.195 97.4609 478.104 96.9297 477.922C96.3984 477.734 95.9427 477.453 95.5625 477.078C95.1823 476.703 94.8854 476.229 94.6719 475.656C94.4635 475.083 94.3594 474.414 94.3594 473.648C94.3594 472.258 94.7448 471.148 95.5156 470.32C96.2865 469.487 97.3411 469.07 98.6797 469.07C99.1849 469.07 99.6797 469.141 100.164 469.281C100.654 469.422 101.102 469.594 101.508 469.797V471.43H101.422C100.938 471.06 100.458 470.786 99.9844 470.609C99.5156 470.432 99.0599 470.344 98.6172 470.344C97.7474 470.344 97.0729 470.635 96.5938 471.219C96.1198 471.802 95.8828 472.612 95.8828 473.648C95.8828 474.685 96.1198 475.49 96.5938 476.062C97.0677 476.635 97.7422 476.922 98.6172 476.922C98.9245 476.922 99.2292 476.883 99.5312 476.805C99.8385 476.727 100.117 476.625 100.367 476.5C100.565 476.401 100.768 476.284 100.977 476.148C101.19 476.008 101.339 475.904 101.422 475.836H101.508V477.453ZM117.562 467.742H113.406V478H111.859V467.742H107.703V466.367H117.562V467.742ZM125.789 478H124.328V477.07C124.198 477.159 124.021 477.284 123.797 477.445C123.578 477.602 123.365 477.727 123.156 477.82C122.911 477.94 122.63 478.039 122.312 478.117C121.995 478.201 121.622 478.242 121.195 478.242C120.409 478.242 119.742 477.982 119.195 477.461C118.648 476.94 118.375 476.276 118.375 475.469C118.375 474.807 118.516 474.273 118.797 473.867C119.083 473.456 119.49 473.133 120.016 472.898C120.547 472.664 121.185 472.505 121.93 472.422C122.674 472.339 123.474 472.276 124.328 472.234V472.008C124.328 471.674 124.268 471.398 124.148 471.18C124.034 470.961 123.867 470.789 123.648 470.664C123.44 470.544 123.19 470.464 122.898 470.422C122.607 470.38 122.302 470.359 121.984 470.359C121.599 470.359 121.169 470.411 120.695 470.516C120.221 470.615 119.732 470.76 119.227 470.953H119.148V469.461C119.435 469.383 119.849 469.297 120.391 469.203C120.932 469.109 121.466 469.062 121.992 469.062C122.607 469.062 123.141 469.115 123.594 469.219C124.052 469.318 124.448 469.49 124.781 469.734C125.109 469.974 125.359 470.284 125.531 470.664C125.703 471.044 125.789 471.516 125.789 472.078V478ZM124.328 475.852V473.422C123.88 473.448 123.352 473.487 122.742 473.539C122.138 473.591 121.659 473.667 121.305 473.766C120.883 473.885 120.542 474.073 120.281 474.328C120.021 474.578 119.891 474.924 119.891 475.367C119.891 475.867 120.042 476.245 120.344 476.5C120.646 476.75 121.107 476.875 121.727 476.875C122.242 476.875 122.714 476.776 123.141 476.578C123.568 476.375 123.964 476.133 124.328 475.852ZM136.867 478H135.414V471.109L133.242 475.594H132.148L129.992 471.109V478H128.617V469.273H130.391L132.766 474.156L135.062 469.273H136.867V478ZM147.195 473.641C147.195 475.062 146.831 476.185 146.102 477.008C145.372 477.831 144.396 478.242 143.172 478.242C141.938 478.242 140.956 477.831 140.227 477.008C139.503 476.185 139.141 475.062 139.141 473.641C139.141 472.219 139.503 471.096 140.227 470.273C140.956 469.445 141.938 469.031 143.172 469.031C144.396 469.031 145.372 469.445 146.102 470.273C146.831 471.096 147.195 472.219 147.195 473.641ZM145.68 473.641C145.68 472.51 145.458 471.672 145.016 471.125C144.573 470.573 143.958 470.297 143.172 470.297C142.375 470.297 141.755 470.573 141.312 471.125C140.875 471.672 140.656 472.51 140.656 473.641C140.656 474.734 140.878 475.565 141.32 476.133C141.763 476.695 142.38 476.977 143.172 476.977C143.953 476.977 144.565 476.698 145.008 476.141C145.456 475.578 145.68 474.745 145.68 473.641ZM160.422 478H158.648L155.852 474.016H155.141V478H153.688V474.016H153.055L150.133 478H148.438L151.805 473.43C151.549 473.294 151.323 473.102 151.125 472.852C150.932 472.602 150.755 472.224 150.594 471.719C150.453 471.276 150.286 470.969 150.094 470.797C149.901 470.625 149.586 470.539 149.148 470.539H148.734V469.273H149.273C149.919 469.273 150.438 469.404 150.828 469.664C151.219 469.924 151.531 470.38 151.766 471.031C151.812 471.167 151.87 471.323 151.938 471.5C152.01 471.672 152.073 471.818 152.125 471.938C152.297 472.333 152.516 472.615 152.781 472.781C153.052 472.943 153.354 473.034 153.688 473.055V469.273H155.141V473.055C155.474 473.034 155.776 472.94 156.047 472.773C156.323 472.607 156.547 472.328 156.719 471.938C156.776 471.807 156.839 471.656 156.906 471.484C156.979 471.312 157.036 471.161 157.078 471.031C157.307 470.391 157.615 469.938 158 469.672C158.385 469.406 158.904 469.273 159.555 469.273H160.094V470.539H159.68C159.237 470.539 158.917 470.63 158.719 470.812C158.526 470.995 158.365 471.297 158.234 471.719C158.089 472.182 157.914 472.544 157.711 472.805C157.513 473.06 157.297 473.253 157.062 473.383L160.422 478ZM169.547 473.789H163.117C163.117 474.326 163.198 474.794 163.359 475.195C163.521 475.591 163.742 475.917 164.023 476.172C164.294 476.422 164.615 476.609 164.984 476.734C165.359 476.859 165.771 476.922 166.219 476.922C166.812 476.922 167.409 476.805 168.008 476.57C168.612 476.331 169.042 476.096 169.297 475.867H169.375V477.469C168.88 477.677 168.375 477.852 167.859 477.992C167.344 478.133 166.802 478.203 166.234 478.203C164.786 478.203 163.656 477.812 162.844 477.031C162.031 476.245 161.625 475.13 161.625 473.688C161.625 472.26 162.013 471.128 162.789 470.289C163.57 469.451 164.596 469.031 165.867 469.031C167.044 469.031 167.951 469.375 168.586 470.062C169.227 470.75 169.547 471.727 169.547 472.992V473.789ZM168.117 472.664C168.112 471.893 167.917 471.297 167.531 470.875C167.151 470.453 166.57 470.242 165.789 470.242C165.003 470.242 164.375 470.474 163.906 470.938C163.443 471.401 163.18 471.977 163.117 472.664H168.117ZM179.078 478H177.609V474.07H173.242V478H171.773V469.273H173.242V472.805H177.609V469.273H179.078V478ZM189.281 478H187.812V474.07H183.445V478H181.977V469.273H183.445V472.805H187.812V469.273H189.281V478ZM197.555 475.32C197.555 475.055 197.508 474.823 197.414 474.625C197.326 474.422 197.177 474.258 196.969 474.133C196.75 474.003 196.5 473.924 196.219 473.898C195.943 473.872 195.544 473.859 195.023 473.859H193.648V476.828H194.992C195.513 476.828 195.917 476.807 196.203 476.766C196.49 476.719 196.737 476.633 196.945 476.508C197.159 476.372 197.312 476.214 197.406 476.031C197.505 475.844 197.555 475.607 197.555 475.32ZM199.07 475.297C199.07 475.719 198.984 476.102 198.812 476.445C198.646 476.789 198.417 477.068 198.125 477.281C197.781 477.542 197.414 477.727 197.023 477.836C196.633 477.945 196.13 478 195.516 478H192.18V469.273H193.648V472.672H195.555C196.211 472.672 196.719 472.706 197.078 472.773C197.443 472.841 197.805 473.008 198.164 473.273C198.466 473.497 198.693 473.784 198.844 474.133C198.995 474.482 199.07 474.87 199.07 475.297ZM200.531 469.273H202V478H200.531V469.273ZM212.453 478H210.602L208.125 474.648L205.633 478H203.922L207.328 473.648L203.953 469.273H205.805L208.266 472.57L210.734 469.273H212.453L209.023 473.57L212.453 478ZM71.7578 486.656C72.2578 487.156 72.6432 487.776 72.9141 488.516C73.1849 489.255 73.3203 490.13 73.3203 491.141C73.3203 492.036 73.1823 492.862 72.9062 493.617C72.6354 494.367 72.2422 495.01 71.7266 495.547C71.1953 496.099 70.5729 496.516 69.8594 496.797C69.151 497.073 68.3724 497.211 67.5234 497.211C66.7891 497.211 66.0911 497.141 65.4297 497C64.7682 496.859 64.2109 496.693 63.7578 496.5V494.789H63.8828C64.3047 495.128 64.8359 495.398 65.4766 495.602C66.1224 495.799 66.8125 495.898 67.5469 495.898C68.1875 495.898 68.7734 495.786 69.3047 495.562C69.8359 495.333 70.2786 495.023 70.6328 494.633C71.0078 494.216 71.2891 493.747 71.4766 493.227C71.6693 492.701 71.7656 492.104 71.7656 491.438H65.4141V490.086H71.6875C71.6146 489.466 71.4583 488.93 71.2188 488.477C70.9792 488.018 70.6745 487.641 70.3047 487.344C69.9349 487.047 69.5156 486.828 69.0469 486.688C68.5781 486.542 68.0781 486.469 67.5469 486.469C66.8333 486.469 66.1641 486.57 65.5391 486.773C64.9141 486.971 64.375 487.245 63.9219 487.594H63.7891V485.875C64.2734 485.672 64.8464 485.503 65.5078 485.367C66.1693 485.227 66.8464 485.156 67.5391 485.156C68.4349 485.156 69.2344 485.281 69.9375 485.531C70.6458 485.781 71.2526 486.156 71.7578 486.656ZM83.5391 497H81.6172L77.9922 493H77.1953V497H75.7266V488.273H77.1953V492.039C77.6797 492.039 78.0703 491.953 78.3672 491.781C78.6641 491.604 78.9167 491.323 79.125 490.938C79.1979 490.797 79.2682 490.648 79.3359 490.492C79.4089 490.331 79.4792 490.177 79.5469 490.031C79.8177 489.443 80.1562 489.003 80.5625 488.711C80.9688 488.419 81.5521 488.273 82.3125 488.273H82.9844V489.539H82.3359C81.9245 489.539 81.6016 489.628 81.3672 489.805C81.138 489.977 80.9297 490.281 80.7422 490.719C80.5339 491.208 80.3125 491.576 80.0781 491.82C79.849 492.06 79.6042 492.242 79.3438 492.367L83.5391 497ZM91.6641 496.453C91.0651 496.734 90.5495 496.927 90.1172 497.031C89.6901 497.141 89.263 497.195 88.8359 497.195C88.2005 497.195 87.6172 497.104 87.0859 496.922C86.5547 496.734 86.099 496.453 85.7188 496.078C85.3385 495.703 85.0417 495.229 84.8281 494.656C84.6198 494.083 84.5156 493.414 84.5156 492.648C84.5156 491.258 84.901 490.148 85.6719 489.32C86.4427 488.487 87.4974 488.07 88.8359 488.07C89.3411 488.07 89.8359 488.141 90.3203 488.281C90.8099 488.422 91.2578 488.594 91.6641 488.797V490.43H91.5781C91.0938 490.06 90.6146 489.786 90.1406 489.609C89.6719 489.432 89.2161 489.344 88.7734 489.344C87.9036 489.344 87.2292 489.635 86.75 490.219C86.276 490.802 86.0391 491.612 86.0391 492.648C86.0391 493.685 86.276 494.49 86.75 495.062C87.224 495.635 87.8984 495.922 88.7734 495.922C89.0807 495.922 89.3854 495.883 89.6875 495.805C89.9948 495.727 90.2734 495.625 90.5234 495.5C90.7214 495.401 90.9245 495.284 91.1328 495.148C91.3464 495.008 91.4948 494.904 91.5781 494.836H91.6641V496.453ZM100.984 497H99.5156V489.539H95.1484V497H93.6797V488.273H100.984V497ZM111.32 492.641C111.32 494.062 110.956 495.185 110.227 496.008C109.497 496.831 108.521 497.242 107.297 497.242C106.062 497.242 105.081 496.831 104.352 496.008C103.628 495.185 103.266 494.062 103.266 492.641C103.266 491.219 103.628 490.096 104.352 489.273C105.081 488.445 106.062 488.031 107.297 488.031C108.521 488.031 109.497 488.445 110.227 489.273C110.956 490.096 111.32 491.219 111.32 492.641ZM109.805 492.641C109.805 491.51 109.583 490.672 109.141 490.125C108.698 489.573 108.083 489.297 107.297 489.297C106.5 489.297 105.88 489.573 105.438 490.125C105 490.672 104.781 491.51 104.781 492.641C104.781 493.734 105.003 494.565 105.445 495.133C105.888 495.695 106.505 495.977 107.297 495.977C108.078 495.977 108.69 495.698 109.133 495.141C109.581 494.578 109.805 493.745 109.805 492.641ZM121.281 492.531C121.281 493.24 121.18 493.888 120.977 494.477C120.773 495.06 120.487 495.555 120.117 495.961C119.773 496.346 119.367 496.646 118.898 496.859C118.435 497.068 117.943 497.172 117.422 497.172C116.969 497.172 116.557 497.122 116.188 497.023C115.823 496.924 115.451 496.771 115.07 496.562V500.219H113.602V488.273H115.07V489.188C115.461 488.859 115.898 488.586 116.383 488.367C116.872 488.143 117.393 488.031 117.945 488.031C118.997 488.031 119.815 488.43 120.398 489.227C120.987 490.018 121.281 491.12 121.281 492.531ZM119.766 492.57C119.766 491.518 119.586 490.732 119.227 490.211C118.867 489.69 118.315 489.43 117.57 489.43C117.148 489.43 116.724 489.521 116.297 489.703C115.87 489.885 115.461 490.125 115.07 490.422V495.367C115.487 495.555 115.844 495.682 116.141 495.75C116.443 495.818 116.784 495.852 117.164 495.852C117.982 495.852 118.62 495.576 119.078 495.023C119.536 494.471 119.766 493.654 119.766 492.57ZM129.984 489.562H126.828V497H125.359V489.562H122.203V488.273H129.984V489.562ZM138.945 492.641C138.945 494.062 138.581 495.185 137.852 496.008C137.122 496.831 136.146 497.242 134.922 497.242C133.688 497.242 132.706 496.831 131.977 496.008C131.253 495.185 130.891 494.062 130.891 492.641C130.891 491.219 131.253 490.096 131.977 489.273C132.706 488.445 133.688 488.031 134.922 488.031C136.146 488.031 137.122 488.445 137.852 489.273C138.581 490.096 138.945 491.219 138.945 492.641ZM137.43 492.641C137.43 491.51 137.208 490.672 136.766 490.125C136.323 489.573 135.708 489.297 134.922 489.297C134.125 489.297 133.505 489.573 133.062 490.125C132.625 490.672 132.406 491.51 132.406 492.641C132.406 493.734 132.628 494.565 133.07 495.133C133.513 495.695 134.13 495.977 134.922 495.977C135.703 495.977 136.315 495.698 136.758 495.141C137.206 494.578 137.43 493.745 137.43 492.641ZM148.43 494.359C148.43 494.781 148.344 495.156 148.172 495.484C148.005 495.812 147.773 496.086 147.477 496.305C147.143 496.549 146.779 496.727 146.383 496.836C145.992 496.945 145.477 497 144.836 497H141.227V488.273H144.602C145.253 488.273 145.742 488.297 146.07 488.344C146.404 488.385 146.716 488.482 147.008 488.633C147.336 488.805 147.576 489.029 147.727 489.305C147.883 489.581 147.961 489.906 147.961 490.281C147.961 490.714 147.839 491.089 147.594 491.406C147.349 491.724 147.034 491.971 146.648 492.148V492.227C147.164 492.352 147.589 492.594 147.922 492.953C148.26 493.307 148.43 493.776 148.43 494.359ZM146.453 490.508C146.453 490.32 146.411 490.151 146.328 490C146.25 489.849 146.128 489.732 145.961 489.648C145.742 489.539 145.495 489.479 145.219 489.469C144.948 489.453 144.612 489.445 144.211 489.445H142.68V491.836H144.516C144.901 491.836 145.185 491.823 145.367 491.797C145.555 491.766 145.742 491.693 145.93 491.578C146.128 491.453 146.263 491.307 146.336 491.141C146.414 490.969 146.453 490.758 146.453 490.508ZM146.914 494.367C146.914 494.081 146.867 493.849 146.773 493.672C146.68 493.49 146.474 493.323 146.156 493.172C145.958 493.078 145.745 493.023 145.516 493.008C145.286 492.987 144.969 492.977 144.562 492.977H142.68V495.828H144.07C144.654 495.828 145.102 495.81 145.414 495.773C145.732 495.732 146.005 495.646 146.234 495.516C146.464 495.385 146.633 495.227 146.742 495.039C146.857 494.852 146.914 494.628 146.914 494.367Z" fill="#333333"/>
</g>
<defs>
<filter id="filter0_d_170_4051" x="0" y="0" width="326" height="541" filterUnits="userSpaceOnUse" color-interpolation-filters="sRGB">
<feFlood flood-opacity="0" result="BackgroundImageFix"/>
<feColorMatrix in="SourceAlpha" type="matrix" values="0 0 0 0 0 0 0 0 0 0 0 0 0 0 0 0 0 0 127 0" result="hardAlpha"/>
<feOffset dx="3" dy="5"/>
<feGaussianBlur stdDeviation="10"/>
<feComposite in2="hardAlpha" operator="out"/>
<feColorMatrix type="matrix" values="0 0 0 0 0.2 0 0 0 0 0.2 0 0 0 0 0.2 0 0 0 0.1 0"/>
<feBlend mode="normal" in2="BackgroundImageFix" result="effect1_dropShadow_170_4051"/>
<feBlend mode="normal" in="SourceGraphic" in2="effect1_dropShadow_170_4051" result="shape"/>
</filter>
<filter id="filter1_d_170_4051" x="22" y="28" width="112" height="112" filterUnits="userSpaceOnUse" color-interpolation-filters="sRGB">
<feFlood flood-opacity="0" result="BackgroundImageFix"/>
<feColorMatrix in="SourceAlpha" type="matrix" values="0 0 0 0 0 0 0 0 0 0 0 0 0 0 0 0 0 0 127 0" result="hardAlpha"/>
<feOffset dx="3" dy="3"/>
<feGaussianBlur stdDeviation="3"/>
<feComposite in2="hardAlpha" operator="out"/>
<feColorMatrix type="matrix" values="0 0 0 0 0.2 0 0 0 0 0.2 0 0 0 0 0.2 0 0 0 0.25 0"/>
<feBlend mode="normal" in2="BackgroundImageFix" result="effect1_dropShadow_170_4051"/>
<feBlend mode="normal" in="SourceGraphic" in2="effect1_dropShadow_170_4051" result="shape"/>
</filter>
</defs>
</svg>
