<svg width="30" height="30" viewBox="0 0 30 30" fill="none" xmlns="http://www.w3.org/2000/svg">
<g clip-path="url(#clip0_137_7335)">
<path d="M15 29.0625C22.7665 29.0625 29.0625 22.7665 29.0625 15C29.0625 7.2335 22.7665 0.9375 15 0.9375C7.2335 0.9375 0.9375 7.2335 0.9375 15C0.9375 22.7665 7.2335 29.0625 15 29.0625Z" fill="#F42F4C"/>
<path d="M23.2969 16.0781C22.6875 15.5625 21.6094 15.6562 20.8594 15.7031C21.7031 15.2812 23.0156 14.4375 23.9062 15.1875C23.25 14.2969 21.7969 14.5781 20.9062 14.7656C21.6562 14.2031 22.8281 13.2187 23.8125 13.7812C23.0156 12.9844 21.6094 13.5 20.7656 13.875C21.4219 13.2187 22.4062 12.0469 23.4844 12.4219C22.5937 11.7656 21.2812 12.4688 20.4844 12.9844C21 12.2344 21.8437 10.9219 22.9687 11.1562C21.9844 10.6406 20.8125 11.5781 20.1094 12.1406C20.5312 11.2969 21.0937 9.89062 22.2656 9.9375C21.1875 9.60938 20.2031 10.6875 19.5937 11.3906C19.875 10.5 20.2031 9 21.375 8.85937C20.2969 8.67187 19.4531 9.89062 18.9844 10.6875C19.125 9.75 19.2188 8.20312 20.3438 7.92187C19.2188 7.92187 18.6094 9.28125 18.2344 10.125C18.2344 9.1875 18.0938 7.64062 19.1719 7.17188C18.0938 7.35938 17.6719 8.76562 17.4375 9.65625C17.2969 8.71875 16.9219 7.21875 17.8594 6.60938C16.7812 6.9375 16.6406 8.4375 16.5469 9.32812C16.2656 8.4375 15.6562 7.03125 16.5 6.23438C15.5156 6.75 15.5625 8.20312 15.6094 9.14062C15.1875 8.29688 14.3438 6.98437 15.0938 6.09375C14.2031 6.75 14.4844 8.20312 14.6719 9.09375C14.1094 8.34375 13.125 7.17187 13.6875 6.1875C12.8906 6.98437 13.4062 8.34375 13.7812 9.23438C13.125 8.57813 11.9531 7.59375 12.3281 6.51562C11.6719 7.40625 12.375 8.71875 12.8906 9.51562C12.1406 9 10.8281 8.15625 11.0625 7.03125C10.5469 8.01562 11.4844 9.1875 12.0937 9.89062C11.25 9.46875 9.84375 8.90625 9.89062 7.73437C9.5625 8.76562 10.6406 9.79688 11.3438 10.4062C10.4531 10.125 8.95312 9.79687 8.8125 8.625C8.625 9.70312 9.84375 10.5469 10.6406 11.0156C9.70313 10.875 8.15625 10.7812 7.875 9.65625C7.875 10.7812 9.23438 11.3906 10.0781 11.7656C9.14062 11.7656 7.59375 11.9062 7.125 10.8281C7.3125 11.9062 8.71875 12.3281 9.60938 12.5625C8.67188 12.7031 7.17188 13.0781 6.5625 12.1406C6.89063 13.2187 8.39062 13.3594 9.28125 13.4531C8.39062 13.7344 6.98438 14.3437 6.1875 13.5C6.70313 14.4844 8.15625 14.4375 9.09375 14.3906C8.25 14.8125 6.9375 15.6562 6.04688 14.9062C6.70312 15.7969 8.15625 15.5156 9.04687 15.3281C8.29687 15.8906 7.125 16.875 6.14063 16.3125C6.9375 17.1094 8.29688 16.5937 9.1875 16.2187C8.53125 16.875 7.54688 18.0469 6.46875 17.6719C7.35938 18.3281 8.67188 17.625 9.46875 17.1094C8.95313 17.8594 8.10938 19.1719 6.98437 18.9375C7.96875 19.4531 9.14062 18.5156 9.84375 17.9062C9.42188 18.75 8.85937 20.1562 7.6875 20.1094C8.76562 20.4375 9.75 19.3594 10.3594 18.6562C10.0781 19.5469 9.75 21.0469 8.57812 21.1875C9.65625 21.375 10.5 20.1094 10.9687 19.3594C10.8281 20.2969 10.7344 21.8437 9.60938 22.125C10.7344 22.125 11.3438 20.7656 11.7188 19.9219C11.7188 20.8594 11.8594 22.4062 10.7812 22.875C11.8594 22.6875 12.2812 21.2812 12.5156 20.3906C12.6562 21.3281 13.0312 22.8281 12.0937 23.4375C13.1719 23.1094 13.3125 21.6094 13.4062 20.7187C13.6875 21.6094 14.2969 23.0156 13.4531 23.8125C14.4375 23.2969 14.3906 21.8437 14.3438 20.9062C14.7656 21.75 15.6094 23.0625 14.8594 23.9531C15.75 23.2969 15.4687 21.8437 15.2812 20.9531C15.8437 21.7031 16.8281 22.875 16.2656 23.8594C17.0625 23.0625 16.5469 21.7031 16.1719 20.8125C16.8281 21.4688 18 22.4531 17.625 23.5312C18.2812 22.6406 17.5781 21.3281 17.0625 20.5312C17.8125 21.0469 19.125 21.8906 18.8906 23.0156C19.4062 22.0312 18.4688 20.8594 17.9062 20.1562C18.75 20.5781 20.1562 21.1406 20.1094 22.3125C20.4375 21.2344 19.3594 20.25 18.6562 19.6406C19.5469 19.9219 21.0469 20.25 21.1875 21.4219C21.375 20.2969 20.1094 19.5 19.3594 19.0312C20.2969 19.1719 21.7969 19.2656 22.125 20.3906C22.125 19.2656 20.7656 18.6562 19.9219 18.2812C20.8594 18.2812 22.4062 18.1406 22.875 19.2187C22.6875 18.0937 21.2812 17.7187 20.3906 17.4844C21.3281 17.3437 22.8281 16.9688 23.4375 17.9062C23.1094 16.875 21.6094 16.6406 20.7188 16.5938C21.6094 16.2656 23.0156 15.7031 23.8125 16.5469C23.6719 16.3594 23.4844 16.2187 23.2969 16.0781ZM15 20.625C12.8906 20.625 10.9219 19.4062 9.98437 17.5312C9 15.6562 9.23437 13.3125 10.5 11.5781C11.7656 9.89063 13.9219 9.04688 16.0312 9.42188C18.0938 9.79688 19.7812 11.3437 20.3906 13.3125C21.4687 16.9219 18.7031 20.625 15 20.625Z" fill="#FFE62E"/>
<path d="M11.625 11.7188C10.7812 12.5625 10.3125 13.7344 10.3125 15C10.3125 15.9375 10.5938 16.8281 11.0625 17.5781C11.4375 15.8438 12.2344 14.25 13.2656 12.9375C12.7969 12.4688 12.2344 12.0469 11.625 11.7188ZM14.6719 11.4375C14.2969 11.1094 13.875 10.8281 13.4531 10.5469C13.2656 10.5938 13.0781 10.6875 12.8906 10.7812C13.3594 11.0625 13.8281 11.4375 14.2969 11.7656C14.3906 11.7188 14.5312 11.5781 14.6719 11.4375ZM13.9687 12.1406C13.5 11.7187 12.9844 11.3906 12.4219 11.0625C12.2812 11.1563 12.1406 11.2969 12 11.3906C12.5625 11.7187 13.125 12.0937 13.5938 12.5625C13.6875 12.4219 13.8281 12.2812 13.9687 12.1406ZM13.6406 13.2188C12.5625 14.625 11.8125 16.2656 11.4375 18.0469C11.6719 18.2812 11.9062 18.5156 12.1875 18.75C12.375 16.875 13.0312 15.1406 14.0625 13.6875C13.9219 13.5 13.7813 13.3594 13.6406 13.2188ZM15.9375 13.6875C16.9688 15.1406 17.6719 16.875 17.8125 18.75C18.0938 18.5625 18.3281 18.3281 18.5625 18.0469C18.2344 16.2656 17.4375 14.625 16.3594 13.2188C16.2188 13.3594 16.0781 13.5 15.9375 13.6875ZM14.625 13.6875C14.7656 13.875 14.9062 14.0156 15 14.2031C15.1406 14.0156 15.2344 13.875 15.375 13.6875C15.2344 13.5469 15.1406 13.3594 15 13.2188C14.8594 13.3594 14.7188 13.5 14.625 13.6875ZM15.9844 10.4063C15.6562 10.3594 15.3281 10.3125 15 10.3125C14.6719 10.3125 14.3438 10.3594 14.0156 10.4063C14.3438 10.6406 14.7188 10.875 15 11.1562C15.3281 10.875 15.6562 10.6406 15.9844 10.4063Z" fill="#FFE62E"/>
<path d="M14.7656 14.625L14.3438 14.0625C13.3594 15.5156 12.7031 17.2031 12.5625 19.0312L13.4063 19.4531V19.3125C13.4531 17.5781 13.9219 15.9844 14.7656 14.625ZM15 12.5156L15.4219 12.0937C15.2813 11.9531 15.1406 11.8125 15 11.7188C14.8594 11.8594 14.7188 11.9531 14.5781 12.0937L15 12.5156ZM15.7031 13.3125C15.8438 13.1719 15.9844 12.9844 16.125 12.8437C15.9844 12.7031 15.8906 12.5625 15.75 12.4219L15.3281 12.8437C15.4219 13.0312 15.5625 13.1719 15.7031 13.3125ZM14.2969 12.4688C14.1563 12.6094 14.0625 12.75 13.9219 12.8906C14.0625 13.0312 14.2031 13.1719 14.3438 13.3594C14.4844 13.2188 14.5781 13.0312 14.7188 12.8906C14.5781 12.7031 14.4375 12.5625 14.2969 12.4688Z" fill="#FFE62E"/>
<path d="M15 15.0469C14.2969 16.3125 13.875 17.7656 13.875 19.2656V19.5469C14.25 19.6406 14.625 19.6875 15 19.6875C15.375 19.6875 15.75 19.6406 16.125 19.5469V19.2656C16.125 17.7187 15.7031 16.2656 15 15.0469ZM15.2812 14.625C16.125 15.9844 16.5938 17.5781 16.5938 19.3125V19.4531C16.875 19.3594 17.2031 19.2187 17.4375 19.0312C17.2969 17.2031 16.6875 15.5156 15.6563 14.0625C15.5156 14.2031 15.375 14.3906 15.2812 14.625ZM15.75 11.8125C16.1719 11.4375 16.6406 11.1094 17.1562 10.8281C16.9687 10.7344 16.7813 10.6406 16.5938 10.5938C16.1719 10.875 15.75 11.1562 15.375 11.4844C15.4687 11.5781 15.6094 11.7188 15.75 11.8125ZM18.9375 17.5781C19.4063 16.8281 19.6875 15.9375 19.6875 15C19.6875 13.7344 19.1719 12.5625 18.375 11.7187C17.7656 12.0469 17.2031 12.4219 16.7344 12.8906C17.7656 14.25 18.5156 15.8438 18.9375 17.5781ZM16.4062 12.5625C16.875 12.1406 17.4375 11.7187 18 11.3906C17.8594 11.25 17.7187 11.1562 17.5781 11.0625C17.0156 11.3906 16.5469 11.7187 16.0313 12.1406C16.1719 12.2812 16.3125 12.4219 16.4062 12.5625Z" fill="#FFE62E"/>
</g>
<defs>
<clipPath id="clip0_137_7335">
<rect width="30" height="30" fill="white"/>
</clipPath>
</defs>
</svg>
