<svg width="100" height="100" viewBox="0 0 100 100" fill="none" xmlns="http://www.w3.org/2000/svg">
<path d="M38.1647 48.4168C38.0397 48.4168 37.9564 48.4168 37.8314 48.4168C37.623 48.3752 37.3314 48.3752 37.0814 48.4168C24.998 48.0418 15.873 38.5418 15.873 26.8335C15.873 14.9168 25.5814 5.2085 37.498 5.2085C49.4147 5.2085 59.123 14.9168 59.123 26.8335C59.0814 38.5418 49.9147 48.0418 38.2897 48.4168C38.248 48.4168 38.2064 48.4168 38.1647 48.4168ZM37.498 11.4585C29.0397 11.4585 22.123 18.3752 22.123 26.8335C22.123 35.1668 28.623 41.8752 36.9147 42.1668C37.1647 42.1252 37.7064 42.1252 38.248 42.1668C46.4147 41.7918 52.8314 35.0835 52.873 26.8335C52.873 18.3752 45.9564 11.4585 37.498 11.4585Z" fill="#1959AB"/>
<path d="M68.9159 48.9582C68.7909 48.9582 68.6659 48.9582 68.5409 48.9165C66.8325 49.0832 65.0825 47.8748 64.9159 46.1665C64.7492 44.4582 65.7909 42.9165 67.4992 42.7082C67.9992 42.6665 68.5409 42.6665 68.9992 42.6665C75.0825 42.3332 79.8325 37.3332 79.8325 31.2082C79.8325 24.8748 74.7075 19.7498 68.3742 19.7498C66.6659 19.7915 65.2492 18.3748 65.2492 16.6665C65.2492 14.9582 66.6659 13.5415 68.3742 13.5415C78.1242 13.5415 86.0825 21.4998 86.0825 31.2498C86.0825 40.8332 78.5825 48.5832 69.0409 48.9582C68.9992 48.9582 68.9575 48.9582 68.9159 48.9582Z" fill="#1959AB"/>
<path d="M38.2057 93.9582C30.0391 93.9582 21.8307 91.8748 15.6224 87.7082C9.83073 83.8748 6.66406 78.6248 6.66406 72.9165C6.66406 67.2082 9.83073 61.9165 15.6224 58.0415C28.1224 49.7498 48.3724 49.7498 60.7891 58.0415C66.5391 61.8748 69.7474 67.1248 69.7474 72.8332C69.7474 78.5415 66.5807 83.8332 60.7891 87.7082C54.5391 91.8748 46.3724 93.9582 38.2057 93.9582ZM19.0807 63.2915C15.0807 65.9582 12.9141 69.3748 12.9141 72.9582C12.9141 76.4998 15.1224 79.9165 19.0807 82.5415C29.4557 89.4998 46.9557 89.4998 57.3307 82.5415C61.3307 79.8748 63.4974 76.4582 63.4974 72.8748C63.4974 69.3332 61.2891 65.9165 57.3307 63.2915C46.9557 56.3748 29.4557 56.3748 19.0807 63.2915Z" fill="#1959AB"/>
<path d="M76.4144 86.4584C74.9561 86.4584 73.6644 85.4584 73.3728 83.9584C73.0394 82.2501 74.1228 80.6251 75.7894 80.2501C78.4144 79.7084 80.8311 78.6667 82.7061 77.2084C85.0811 75.4167 86.3728 73.1667 86.3728 70.7917C86.3728 68.4167 85.0811 66.1667 82.7478 64.4167C80.9144 63.0001 78.6227 62.0001 75.9144 61.3751C74.2478 61.0001 73.1644 59.3334 73.5394 57.6251C73.9144 55.9584 75.5811 54.8751 77.2894 55.2501C80.8727 56.0417 83.9978 57.4584 86.5394 59.4167C90.4144 62.3334 92.6227 66.4584 92.6227 70.7917C92.6227 75.1251 90.3728 79.2501 86.4978 82.2084C83.9144 84.2084 80.6644 85.6667 77.0811 86.3751C76.8311 86.4584 76.6228 86.4584 76.4144 86.4584Z" fill="#1959AB"/>
</svg>
