<svg width="249" height="353" viewBox="0 0 249 353" fill="none" xmlns="http://www.w3.org/2000/svg">
<path d="M14.168 24.5664C14.9492 25.3242 15.5469 26.2422 15.9609 27.3203C16.3828 28.3984 16.5938 29.6328 16.5938 31.0234C16.5938 32.5156 16.3633 33.8594 15.9023 35.0547C15.4414 36.2422 14.8086 37.2148 14.0039 37.9727C13.1992 38.7305 12.2305 39.3164 11.0977 39.7305C9.97266 40.1367 8.71484 40.3398 7.32422 40.3398C6.58203 40.3398 5.89062 40.2891 5.25 40.1875C4.61719 40.0938 4.04688 39.9766 3.53906 39.8359C3 39.6875 2.51172 39.5352 2.07422 39.3789C1.63672 39.2148 1.30469 39.0859 1.07812 38.9922V35.043H1.51172C1.74609 35.2383 2.03125 35.457 2.36719 35.6992C2.70312 35.9336 3.07031 36.1484 3.46875 36.3438C3.94531 36.5703 4.45312 36.7617 4.99219 36.918C5.53125 37.0664 6.17188 37.1406 6.91406 37.1406C7.4375 37.1406 7.99609 37.0703 8.58984 36.9297C9.18359 36.7812 9.71484 36.5352 10.1836 36.1914C10.6758 35.8398 11.0977 35.3711 11.4492 34.7852C11.8086 34.1992 12.0352 33.4531 12.1289 32.5469H4.35938V29.2188H12.0234C11.8984 28.5156 11.6758 27.9258 11.3555 27.4492C11.0352 26.9727 10.6523 26.582 10.207 26.2773C9.76172 25.9727 9.27344 25.7539 8.74219 25.6211C8.21875 25.4805 7.69531 25.4102 7.17188 25.4102C6.52344 25.4102 5.92188 25.4883 5.36719 25.6445C4.82031 25.793 4.30469 25.9844 3.82031 26.2188C3.38281 26.4375 2.99219 26.6719 2.64844 26.9219C2.3125 27.1719 2.03125 27.3828 1.80469 27.5547H1.3125V23.5703C1.74219 23.3828 2.14453 23.2227 2.51953 23.0898C2.89453 22.9492 3.37891 22.8008 3.97266 22.6445C4.44922 22.5195 5.01172 22.418 5.66016 22.3398C6.30859 22.2539 6.97266 22.2109 7.65234 22.2109C8.99609 22.2109 10.2188 22.4102 11.3203 22.8086C12.4219 23.207 13.3711 23.793 14.168 24.5664ZM33.7734 40H28.8984L25.3711 34.7852H24.0234V40H19.8047V26.8398H24.0234V32.125C24.8047 32.1172 25.3438 32.0352 25.6406 31.8789C25.9375 31.7148 26.2812 31.2891 26.6719 30.6016C26.7891 30.3984 26.9297 30.1367 27.0938 29.8164C27.2578 29.4961 27.3867 29.25 27.4805 29.0781C27.9102 28.3125 28.4102 27.7461 28.9805 27.3789C29.5586 27.0039 30.3594 26.8164 31.3828 26.8164C31.6797 26.8164 31.9922 26.8203 32.3203 26.8281C32.6562 26.8359 32.8828 26.8398 33 26.8398V30.3555H31.8516C31.3828 30.3555 31.0078 30.4727 30.7266 30.707C30.4531 30.9414 30.2148 31.2891 30.0117 31.75C29.8398 32.1328 29.6836 32.4375 29.543 32.6641C29.4023 32.8828 29.2227 33.0703 29.0039 33.2266L33.7734 40ZM42.7617 40.3516C41.6133 40.3516 40.5625 40.2148 39.6094 39.9414C38.6641 39.668 37.8398 39.2461 37.1367 38.6758C36.4414 38.1055 35.9023 37.3867 35.5195 36.5195C35.1367 35.6523 34.9453 34.6367 34.9453 33.4727C34.9453 32.2461 35.1484 31.1875 35.5547 30.2969C35.9688 29.4062 36.543 28.668 37.2773 28.082C37.9883 27.5273 38.8086 27.1211 39.7383 26.8633C40.668 26.6055 41.6328 26.4766 42.6328 26.4766C43.5312 26.4766 44.3594 26.5742 45.1172 26.7695C45.875 26.9648 46.582 27.2188 47.2383 27.5312V31.1289H46.6406C46.4766 30.9883 46.2773 30.8242 46.043 30.6367C45.8164 30.4492 45.5352 30.2656 45.1992 30.0859C44.8789 29.9141 44.5273 29.7734 44.1445 29.6641C43.7617 29.5469 43.3164 29.4883 42.8086 29.4883C41.6836 29.4883 40.8164 29.8477 40.207 30.5664C39.6055 31.2773 39.3047 32.2461 39.3047 33.4727C39.3047 34.7383 39.6133 35.6992 40.2305 36.3555C40.8555 37.0117 41.7383 37.3398 42.8789 37.3398C43.4102 37.3398 43.8867 37.2812 44.3086 37.1641C44.7383 37.0391 45.0938 36.8945 45.375 36.7305C45.6406 36.5742 45.875 36.4102 46.0781 36.2383C46.2812 36.0664 46.4688 35.8984 46.6406 35.7344H47.2383V39.332C46.5742 39.6445 45.8789 39.8906 45.1523 40.0703C44.4336 40.2578 43.6367 40.3516 42.7617 40.3516ZM63.5625 40H59.3438V29.6992H54.4922V40H50.2734V26.8398H63.5625V40ZM81 33.4258C81 35.5898 80.3672 37.2969 79.1016 38.5469C77.8438 39.7891 76.0742 40.4102 73.793 40.4102C71.5117 40.4102 69.7383 39.7891 68.4727 38.5469C67.2148 37.2969 66.5859 35.5898 66.5859 33.4258C66.5859 31.2461 67.2188 29.5352 68.4844 28.293C69.7578 27.0508 71.5273 26.4297 73.793 26.4297C76.0898 26.4297 77.8633 27.0547 79.1133 28.3047C80.3711 29.5547 81 31.2617 81 33.4258ZM75.8086 36.625C76.082 36.2891 76.2852 35.8867 76.418 35.418C76.5586 34.9414 76.6289 34.2852 76.6289 33.4492C76.6289 32.6758 76.5586 32.0273 76.418 31.5039C76.2773 30.9805 76.082 30.5625 75.832 30.25C75.582 29.9297 75.2812 29.7031 74.9297 29.5703C74.5781 29.4375 74.1992 29.3711 73.793 29.3711C73.3867 29.3711 73.0234 29.4258 72.7031 29.5352C72.3906 29.6445 72.0898 29.8633 71.8008 30.1914C71.543 30.4961 71.3359 30.9141 71.1797 31.4453C71.0312 31.9766 70.957 32.6445 70.957 33.4492C70.957 34.168 71.0234 34.793 71.1562 35.3242C71.2891 35.8477 71.4844 36.2695 71.7422 36.5898C71.9922 36.8945 72.2891 37.1172 72.6328 37.2578C72.9844 37.3984 73.3828 37.4688 73.8281 37.4688C74.2109 37.4688 74.5742 37.4062 74.918 37.2812C75.2695 37.1484 75.5664 36.9297 75.8086 36.625ZM97.7578 33.2383C97.7578 34.3242 97.5898 35.3125 97.2539 36.2031C96.9258 37.0938 96.4922 37.8281 95.9531 38.4062C95.3906 39.0156 94.7539 39.4766 94.043 39.7891C93.332 40.1016 92.5703 40.2578 91.7578 40.2578C91.0078 40.2578 90.3711 40.1758 89.8477 40.0117C89.3242 39.8555 88.7891 39.6328 88.2422 39.3438V44.8281H84.0234V26.8398H88.2422V28.2109C88.8906 27.6953 89.5508 27.2773 90.2227 26.957C90.9023 26.6367 91.6836 26.4766 92.5664 26.4766C94.207 26.4766 95.4805 27.0781 96.3867 28.2812C97.3008 29.4844 97.7578 31.1367 97.7578 33.2383ZM93.4102 33.3203C93.4102 32.0391 93.1914 31.1094 92.7539 30.5312C92.3164 29.9531 91.625 29.6641 90.6797 29.6641C90.2812 29.6641 89.8711 29.7266 89.4492 29.8516C89.0273 29.9688 88.625 30.1406 88.2422 30.3672V36.9883C88.5234 37.0977 88.8242 37.168 89.1445 37.1992C89.4648 37.2305 89.7812 37.2461 90.0938 37.2461C91.2109 37.2461 92.043 36.9219 92.5898 36.2734C93.1367 35.6172 93.4102 34.6328 93.4102 33.3203ZM111.539 29.6992H107.344V40H103.125V29.6992H98.9297V26.8398H111.539V29.6992Z" fill="#333333"/>
<path d="M5 76L12.5 83.5L25 68.5" stroke="#61B857" stroke-width="2" stroke-linecap="round" stroke-linejoin="round"/>
<path d="M47.888 81.5H46.16L40.992 75.708V81.5H39.552V70.076H40.992V75.612L46.032 70.076H47.664L42.704 75.628L47.888 81.5ZM56.7066 77.196C56.7066 77.9107 56.6106 78.5453 56.4186 79.1C56.2373 79.644 55.9706 80.108 55.6186 80.492C55.2773 80.876 54.856 81.1693 54.3546 81.372C53.864 81.564 53.3146 81.66 52.7066 81.66C52.1413 81.66 51.6186 81.564 51.1386 81.372C50.6586 81.1693 50.2426 80.876 49.8906 80.492C49.5386 80.108 49.2613 79.644 49.0586 79.1C48.8666 78.5453 48.7706 77.9107 48.7706 77.196C48.7706 76.2467 48.9306 75.4467 49.2506 74.796C49.5706 74.1347 50.0293 73.6333 50.6266 73.292C51.224 72.94 51.9333 72.764 52.7546 72.764C53.5333 72.764 54.216 72.94 54.8026 73.292C55.4 73.6333 55.864 74.1347 56.1946 74.796C56.536 75.4467 56.7066 76.2467 56.7066 77.196ZM50.2266 77.196C50.2266 77.868 50.312 78.4547 50.4826 78.956C50.664 79.4467 50.9413 79.8253 51.3146 80.092C51.688 80.3587 52.1626 80.492 52.7386 80.492C53.3146 80.492 53.7893 80.3587 54.1626 80.092C54.536 79.8253 54.808 79.4467 54.9786 78.956C55.16 78.4547 55.2506 77.868 55.2506 77.196C55.2506 76.5133 55.16 75.932 54.9786 75.452C54.7973 74.972 54.52 74.604 54.1466 74.348C53.784 74.0813 53.3093 73.948 52.7226 73.948C51.848 73.948 51.2133 74.236 50.8186 74.812C50.424 75.388 50.2266 76.1827 50.2266 77.196ZM60.3461 72.924V76.492H65.0021V72.924H66.4101V81.5H65.0021V77.676H60.3461V81.5H58.9381V72.924H60.3461ZM72.5656 81.66C71.8083 81.66 71.131 81.5053 70.5336 81.196C69.947 80.8867 69.483 80.4067 69.1416 79.756C68.811 79.1053 68.6456 78.2733 68.6456 77.26C68.6456 76.204 68.8216 75.3453 69.1736 74.684C69.5256 74.0227 70.0003 73.5373 70.5976 73.228C71.2056 72.9187 71.8936 72.764 72.6616 72.764C73.099 72.764 73.5203 72.812 73.9256 72.908C74.331 72.9933 74.6616 73.1 74.9176 73.228L74.4856 74.396C74.2296 74.3 73.931 74.2093 73.5896 74.124C73.2483 74.0387 72.9283 73.996 72.6296 73.996C72.0536 73.996 71.579 74.1187 71.2056 74.364C70.8323 74.6093 70.555 74.972 70.3736 75.452C70.1923 75.932 70.1016 76.5293 70.1016 77.244C70.1016 77.9267 70.1923 78.508 70.3736 78.988C70.555 79.468 70.827 79.8307 71.1896 80.076C71.5523 80.3213 72.0056 80.444 72.5496 80.444C73.019 80.444 73.4296 80.396 73.7816 80.3C74.1443 80.204 74.475 80.0867 74.7736 79.948V81.196C74.4856 81.3453 74.1656 81.4573 73.8136 81.532C73.4723 81.6173 73.0563 81.66 72.5656 81.66ZM75.4691 72.924H76.9731L78.8291 77.804C78.9358 78.092 79.0318 78.3693 79.1171 78.636C79.2131 78.9027 79.2985 79.164 79.3731 79.42C79.4478 79.6653 79.5065 79.9053 79.5491 80.14H79.6131C79.6771 79.8733 79.7785 79.5267 79.9171 79.1C80.0558 78.6627 80.1998 78.2253 80.3491 77.788L82.0931 72.924H83.6131L79.9171 82.684C79.7145 83.2173 79.4745 83.6813 79.1971 84.076C78.9305 84.4813 78.5998 84.7907 78.2051 85.004C77.8211 85.228 77.3518 85.34 76.7971 85.34C76.5411 85.34 76.3171 85.324 76.1251 85.292C75.9331 85.2707 75.7678 85.244 75.6291 85.212V84.092C75.7465 84.1133 75.8851 84.1347 76.0451 84.156C76.2158 84.1773 76.3918 84.188 76.5731 84.188C76.9038 84.188 77.1865 84.124 77.4211 83.996C77.6665 83.8787 77.8745 83.7027 78.0451 83.468C78.2158 83.244 78.3598 82.9773 78.4771 82.668L78.9251 81.532L75.4691 72.924ZM91.1849 81.5H89.7609V74.092H87.2329C87.1262 75.4467 86.9929 76.604 86.8329 77.564C86.6729 78.5133 86.4702 79.2867 86.2249 79.884C85.9795 80.4813 85.6862 80.9187 85.3449 81.196C85.0035 81.4733 84.6035 81.612 84.1449 81.612C84.0062 81.612 83.8675 81.6013 83.7289 81.58C83.6009 81.5693 83.4942 81.5427 83.4089 81.5V80.444C83.4729 80.4653 83.5422 80.4813 83.6169 80.492C83.6915 80.5027 83.7662 80.508 83.8409 80.508C84.0755 80.508 84.2889 80.412 84.4809 80.22C84.6729 80.028 84.8435 79.7347 84.9929 79.34C85.1529 78.9453 85.2969 78.4493 85.4249 77.852C85.5529 77.244 85.6649 76.5293 85.7609 75.708C85.8569 74.8867 85.9422 73.9587 86.0169 72.924H91.1849V81.5ZM97.8589 76.444C98.6055 76.444 99.2242 76.5347 99.7149 76.716C100.206 76.8973 100.574 77.1693 100.819 77.532C101.075 77.884 101.203 78.332 101.203 78.876C101.203 79.4093 101.08 79.8733 100.835 80.268C100.6 80.6627 100.232 80.9667 99.7309 81.18C99.2295 81.3933 98.5842 81.5 97.7949 81.5H93.9069V72.924H95.3149V76.444H97.8589ZM99.7949 78.956C99.7949 78.4333 99.6082 78.0813 99.2349 77.9C98.8722 77.708 98.3602 77.612 97.6989 77.612H95.3149V80.364H97.7309C98.3282 80.364 98.8189 80.2573 99.2029 80.044C99.5975 79.8307 99.7949 79.468 99.7949 78.956ZM108.53 74.108H105.73V81.5H104.338V74.108H101.57V72.924H108.53V74.108ZM113.467 72.78C114.513 72.78 115.286 73.0093 115.787 73.468C116.289 73.9267 116.539 74.6573 116.539 75.66V81.5H115.515L115.243 80.284H115.179C114.934 80.5933 114.678 80.8547 114.411 81.068C114.155 81.2707 113.857 81.42 113.515 81.516C113.185 81.612 112.779 81.66 112.299 81.66C111.787 81.66 111.323 81.5693 110.907 81.388C110.502 81.2067 110.182 80.9293 109.947 80.556C109.713 80.172 109.595 79.692 109.595 79.116C109.595 78.2627 109.931 77.6067 110.603 77.148C111.275 76.6787 112.31 76.4227 113.707 76.38L115.163 76.332V75.82C115.163 75.1053 115.009 74.6093 114.699 74.332C114.39 74.0547 113.953 73.916 113.387 73.916C112.939 73.916 112.513 73.9853 112.107 74.124C111.702 74.252 111.323 74.4013 110.971 74.572L110.539 73.516C110.913 73.3133 111.355 73.1427 111.867 73.004C112.379 72.8547 112.913 72.78 113.467 72.78ZM113.883 77.356C112.817 77.3987 112.075 77.5693 111.659 77.868C111.254 78.1667 111.051 78.588 111.051 79.132C111.051 79.612 111.195 79.964 111.483 80.188C111.782 80.412 112.161 80.524 112.619 80.524C113.345 80.524 113.947 80.3267 114.427 79.932C114.907 79.5267 115.147 78.908 115.147 78.076V77.308L113.883 77.356ZM127.652 84.476H126.276V81.5H119.188V72.924H120.596V80.316H125.028V72.924H126.436V80.332H127.652V84.476ZM130.626 78.156C130.626 78.252 130.62 78.3907 130.61 78.572C130.61 78.7427 130.604 78.9293 130.594 79.132C130.583 79.324 130.572 79.5107 130.562 79.692C130.551 79.8627 130.54 80.0013 130.53 80.108L135.122 72.924H136.85V81.5H135.538V76.444C135.538 76.2733 135.538 76.0493 135.538 75.772C135.548 75.4947 135.559 75.2227 135.57 74.956C135.58 74.6787 135.591 74.4707 135.602 74.332L131.042 81.5H129.298V72.924H130.626V78.156ZM140.907 78.156C140.907 78.252 140.901 78.3907 140.891 78.572C140.891 78.7427 140.885 78.9293 140.875 79.132C140.864 79.324 140.853 79.5107 140.843 79.692C140.832 79.8627 140.821 80.0013 140.811 80.108L145.403 72.924H147.131V81.5H145.819V76.444C145.819 76.2733 145.819 76.0493 145.819 75.772C145.829 75.4947 145.84 75.2227 145.851 74.956C145.861 74.6787 145.872 74.4707 145.883 74.332L141.323 81.5H139.579V72.924H140.907V78.156ZM161.905 72.924V81.5H160.497V74.124H156.065V81.5H154.657V72.924H161.905ZM172.097 77.196C172.097 77.9107 172.001 78.5453 171.809 79.1C171.628 79.644 171.361 80.108 171.009 80.492C170.668 80.876 170.247 81.1693 169.745 81.372C169.255 81.564 168.705 81.66 168.097 81.66C167.532 81.66 167.009 81.564 166.529 81.372C166.049 81.1693 165.633 80.876 165.281 80.492C164.929 80.108 164.652 79.644 164.449 79.1C164.257 78.5453 164.161 77.9107 164.161 77.196C164.161 76.2467 164.321 75.4467 164.641 74.796C164.961 74.1347 165.42 73.6333 166.017 73.292C166.615 72.94 167.324 72.764 168.145 72.764C168.924 72.764 169.607 72.94 170.193 73.292C170.791 73.6333 171.255 74.1347 171.585 74.796C171.927 75.4467 172.097 76.2467 172.097 77.196ZM165.617 77.196C165.617 77.868 165.703 78.4547 165.873 78.956C166.055 79.4467 166.332 79.8253 166.705 80.092C167.079 80.3587 167.553 80.492 168.129 80.492C168.705 80.492 169.18 80.3587 169.553 80.092C169.927 79.8253 170.199 79.4467 170.369 78.956C170.551 78.4547 170.641 77.868 170.641 77.196C170.641 76.5133 170.551 75.932 170.369 75.452C170.188 74.972 169.911 74.604 169.537 74.348C169.175 74.0813 168.7 73.948 168.113 73.948C167.239 73.948 166.604 74.236 166.209 74.812C165.815 75.388 165.617 76.1827 165.617 77.196ZM181.478 71.18C180.944 71.18 180.459 71.244 180.022 71.372C179.584 71.4893 179.19 71.628 178.838 71.788L178.246 70.588C178.683 70.3747 179.184 70.2093 179.75 70.092C180.315 69.9747 180.896 69.916 181.494 69.916C182.411 69.916 183.206 70.06 183.878 70.348C184.56 70.6253 185.126 71.02 185.574 71.532C186.022 72.044 186.352 72.6467 186.566 73.34C186.79 74.0227 186.902 74.7747 186.902 75.596C186.902 76.844 186.699 77.9213 186.294 78.828C185.888 79.7347 185.275 80.4333 184.454 80.924C183.643 81.4147 182.619 81.66 181.382 81.66C180.72 81.66 180.16 81.6227 179.702 81.548C179.243 81.4733 178.79 81.356 178.342 81.196V79.948C178.79 80.0653 179.243 80.172 179.702 80.268C180.16 80.3533 180.646 80.396 181.158 80.396C181.851 80.396 182.454 80.3053 182.966 80.124C183.488 79.932 183.926 79.66 184.278 79.308C184.63 78.9453 184.896 78.5027 185.078 77.98C185.259 77.4467 185.36 76.8387 185.382 76.156H179.83V74.892H185.366C185.312 74.3053 185.184 73.7827 184.982 73.324C184.779 72.8653 184.507 72.476 184.166 72.156C183.835 71.836 183.44 71.596 182.982 71.436C182.534 71.2653 182.032 71.18 181.478 71.18ZM194.323 72.924H195.859L192.195 77.052L196.163 81.5H194.531L190.659 77.148V81.5H189.251V72.924H190.659V77.084L194.323 72.924ZM200.847 81.66C200.09 81.66 199.412 81.5053 198.815 81.196C198.228 80.8867 197.764 80.4067 197.423 79.756C197.092 79.1053 196.927 78.2733 196.927 77.26C196.927 76.204 197.103 75.3453 197.455 74.684C197.807 74.0227 198.282 73.5373 198.879 73.228C199.487 72.9187 200.175 72.764 200.943 72.764C201.38 72.764 201.802 72.812 202.207 72.908C202.612 72.9933 202.943 73.1 203.199 73.228L202.767 74.396C202.511 74.3 202.212 74.2093 201.871 74.124C201.53 74.0387 201.21 73.996 200.911 73.996C200.335 73.996 199.86 74.1187 199.487 74.364C199.114 74.6093 198.836 74.972 198.655 75.452C198.474 75.932 198.383 76.5293 198.383 77.244C198.383 77.9267 198.474 78.508 198.655 78.988C198.836 79.468 199.108 79.8307 199.471 80.076C199.834 80.3213 200.287 80.444 200.831 80.444C201.3 80.444 201.711 80.396 202.063 80.3C202.426 80.204 202.756 80.0867 203.055 79.948V81.196C202.767 81.3453 202.447 81.4573 202.095 81.532C201.754 81.6173 201.338 81.66 200.847 81.66ZM212.342 72.924V81.5H210.934V74.124H206.502V81.5H205.094V72.924H212.342ZM222.535 77.196C222.535 77.9107 222.439 78.5453 222.247 79.1C222.065 79.644 221.799 80.108 221.447 80.492C221.105 80.876 220.684 81.1693 220.183 81.372C219.692 81.564 219.143 81.66 218.535 81.66C217.969 81.66 217.447 81.564 216.967 81.372C216.487 81.1693 216.071 80.876 215.719 80.492C215.367 80.108 215.089 79.644 214.887 79.1C214.695 78.5453 214.599 77.9107 214.599 77.196C214.599 76.2467 214.759 75.4467 215.079 74.796C215.399 74.1347 215.857 73.6333 216.455 73.292C217.052 72.94 217.761 72.764 218.583 72.764C219.361 72.764 220.044 72.94 220.631 73.292C221.228 73.6333 221.692 74.1347 222.023 74.796C222.364 75.4467 222.535 76.2467 222.535 77.196ZM216.055 77.196C216.055 77.868 216.14 78.4547 216.311 78.956C216.492 79.4467 216.769 79.8253 217.143 80.092C217.516 80.3587 217.991 80.492 218.567 80.492C219.143 80.492 219.617 80.3587 219.991 80.092C220.364 79.8253 220.636 79.4467 220.807 78.956C220.988 78.4547 221.079 77.868 221.079 77.196C221.079 76.5133 220.988 75.932 220.807 75.452C220.625 74.972 220.348 74.604 219.975 74.348C219.612 74.0813 219.137 73.948 218.551 73.948C217.676 73.948 217.041 74.236 216.647 74.812C216.252 75.388 216.055 76.1827 216.055 77.196ZM228.846 72.764C229.902 72.764 230.75 73.132 231.39 73.868C232.041 74.604 232.366 75.7133 232.366 77.196C232.366 78.1667 232.217 78.988 231.918 79.66C231.63 80.3213 231.22 80.8227 230.686 81.164C230.164 81.4947 229.545 81.66 228.83 81.66C228.393 81.66 228.004 81.6013 227.662 81.484C227.321 81.3667 227.028 81.2173 226.782 81.036C226.548 80.844 226.345 80.636 226.174 80.412H226.078C226.1 80.5933 226.121 80.8227 226.142 81.1C226.164 81.3773 226.174 81.6173 226.174 81.82V85.34H224.766V72.924H225.918L226.11 74.092H226.174C226.345 73.8467 226.548 73.6227 226.782 73.42C227.028 73.2173 227.316 73.0573 227.646 72.94C227.988 72.8227 228.388 72.764 228.846 72.764ZM228.59 73.948C228.014 73.948 227.55 74.06 227.198 74.284C226.846 74.4973 226.59 74.8227 226.43 75.26C226.27 75.6973 226.185 76.252 226.174 76.924V77.196C226.174 77.9 226.249 78.4973 226.398 78.988C226.548 79.4787 226.798 79.852 227.15 80.108C227.513 80.364 228.004 80.492 228.622 80.492C229.145 80.492 229.572 80.348 229.902 80.06C230.244 79.772 230.494 79.3827 230.654 78.892C230.825 78.3907 230.91 77.82 230.91 77.18C230.91 76.1987 230.718 75.4147 230.334 74.828C229.961 74.2413 229.38 73.948 228.59 73.948ZM240.374 74.108H237.574V81.5H236.182V74.108H233.414V72.924H240.374V74.108ZM240.719 72.924H242.223L244.079 77.804C244.186 78.092 244.282 78.3693 244.367 78.636C244.463 78.9027 244.548 79.164 244.623 79.42C244.698 79.6653 244.756 79.9053 244.799 80.14H244.863C244.927 79.8733 245.028 79.5267 245.167 79.1C245.306 78.6627 245.45 78.2253 245.599 77.788L247.343 72.924H248.863L245.167 82.684C244.964 83.2173 244.724 83.6813 244.447 84.076C244.18 84.4813 243.85 84.7907 243.455 85.004C243.071 85.228 242.602 85.34 242.047 85.34C241.791 85.34 241.567 85.324 241.375 85.292C241.183 85.2707 241.018 85.244 240.879 85.212V84.092C240.996 84.1133 241.135 84.1347 241.295 84.156C241.466 84.1773 241.642 84.188 241.823 84.188C242.154 84.188 242.436 84.124 242.671 83.996C242.916 83.8787 243.124 83.7027 243.295 83.468C243.466 83.244 243.61 82.9773 243.727 82.668L244.175 81.532L240.719 72.924Z" fill="#333333"/>
<path d="M5 122L12.5 129.5L25 114.5" stroke="#61B857" stroke-width="2" stroke-linecap="round" stroke-linejoin="round"/>
<path d="M39.552 127.5V116.076H48.128V127.5H46.704V117.34H40.992V127.5H39.552ZM58.5191 123.196C58.5191 123.911 58.4231 124.545 58.2311 125.1C58.0498 125.644 57.7831 126.108 57.4311 126.492C57.0898 126.876 56.6685 127.169 56.1671 127.372C55.6765 127.564 55.1271 127.66 54.5191 127.66C53.9538 127.66 53.4311 127.564 52.9511 127.372C52.4711 127.169 52.0551 126.876 51.7031 126.492C51.3511 126.108 51.0738 125.644 50.8711 125.1C50.6791 124.545 50.5831 123.911 50.5831 123.196C50.5831 122.247 50.7431 121.447 51.0631 120.796C51.3831 120.135 51.8418 119.633 52.4391 119.292C53.0365 118.94 53.7458 118.764 54.5671 118.764C55.3458 118.764 56.0285 118.94 56.6151 119.292C57.2125 119.633 57.6765 120.135 58.0071 120.796C58.3485 121.447 58.5191 122.247 58.5191 123.196ZM52.0391 123.196C52.0391 123.868 52.1245 124.455 52.2951 124.956C52.4765 125.447 52.7538 125.825 53.1271 126.092C53.5005 126.359 53.9751 126.492 54.5511 126.492C55.1271 126.492 55.6018 126.359 55.9751 126.092C56.3485 125.825 56.6205 125.447 56.7911 124.956C56.9725 124.455 57.0631 123.868 57.0631 123.196C57.0631 122.513 56.9725 121.932 56.7911 121.452C56.6098 120.972 56.3325 120.604 55.9591 120.348C55.5965 120.081 55.1218 119.948 54.5351 119.948C53.6605 119.948 53.0258 120.236 52.6311 120.812C52.2365 121.388 52.0391 122.183 52.0391 123.196ZM67.1186 118.924V126.316H68.3666V130.476H67.0066V127.5H61.0386V130.476H59.6946V126.316H60.3826C60.8733 125.633 61.2786 124.892 61.5986 124.092C61.9293 123.281 62.1746 122.439 62.3346 121.564C62.5053 120.679 62.596 119.799 62.6066 118.924H67.1186ZM63.8546 120.028C63.812 120.753 63.7 121.505 63.5186 122.284C63.3373 123.052 63.1026 123.788 62.8146 124.492C62.5373 125.196 62.212 125.804 61.8386 126.316H65.7586V120.028H63.8546ZM75.2795 118.924V120.108H71.4555V127.5H70.0475V118.924H75.2795ZM84.2691 123.196C84.2691 123.911 84.1731 124.545 83.9811 125.1C83.7998 125.644 83.5331 126.108 83.1811 126.492C82.8398 126.876 82.4185 127.169 81.9171 127.372C81.4265 127.564 80.8771 127.66 80.2691 127.66C79.7038 127.66 79.1811 127.564 78.7011 127.372C78.2211 127.169 77.8051 126.876 77.4531 126.492C77.1011 126.108 76.8238 125.644 76.6211 125.1C76.4291 124.545 76.3331 123.911 76.3331 123.196C76.3331 122.247 76.4931 121.447 76.8131 120.796C77.1331 120.135 77.5918 119.633 78.1891 119.292C78.7865 118.94 79.4958 118.764 80.3171 118.764C81.0958 118.764 81.7785 118.94 82.3651 119.292C82.9625 119.633 83.4265 120.135 83.7571 120.796C84.0985 121.447 84.2691 122.247 84.2691 123.196ZM77.7891 123.196C77.7891 123.868 77.8745 124.455 78.0451 124.956C78.2265 125.447 78.5038 125.825 78.8771 126.092C79.2505 126.359 79.7251 126.492 80.3011 126.492C80.8771 126.492 81.3518 126.359 81.7251 126.092C82.0985 125.825 82.3705 125.447 82.5411 124.956C82.7225 124.455 82.8131 123.868 82.8131 123.196C82.8131 122.513 82.7225 121.932 82.5411 121.452C82.3598 120.972 82.0825 120.604 81.7091 120.348C81.3465 120.081 80.8718 119.948 80.2851 119.948C79.4105 119.948 78.7758 120.236 78.3811 120.812C77.9865 121.388 77.7891 122.183 77.7891 123.196ZM92.2644 120.108H89.4644V127.5H88.0724V120.108H85.3044V118.924H92.2644V120.108ZM101.253 123.196C101.253 123.911 101.158 124.545 100.966 125.1C100.784 125.644 100.518 126.108 100.166 126.492C99.8242 126.876 99.4028 127.169 98.9015 127.372C98.4108 127.564 97.8615 127.66 97.2535 127.66C96.6882 127.66 96.1655 127.564 95.6855 127.372C95.2055 127.169 94.7895 126.876 94.4375 126.492C94.0855 126.108 93.8082 125.644 93.6055 125.1C93.4135 124.545 93.3175 123.911 93.3175 123.196C93.3175 122.247 93.4775 121.447 93.7975 120.796C94.1175 120.135 94.5762 119.633 95.1735 119.292C95.7708 118.94 96.4802 118.764 97.3015 118.764C98.0802 118.764 98.7628 118.94 99.3495 119.292C99.9468 119.633 100.411 120.135 100.742 120.796C101.083 121.447 101.253 122.247 101.253 123.196ZM94.7735 123.196C94.7735 123.868 94.8588 124.455 95.0295 124.956C95.2108 125.447 95.4882 125.825 95.8615 126.092C96.2348 126.359 96.7095 126.492 97.2855 126.492C97.8615 126.492 98.3362 126.359 98.7095 126.092C99.0828 125.825 99.3548 125.447 99.5255 124.956C99.7068 124.455 99.7975 123.868 99.7975 123.196C99.7975 122.513 99.7068 121.932 99.5255 121.452C99.3442 120.972 99.0668 120.604 98.6935 120.348C98.3308 120.081 97.8562 119.948 97.2695 119.948C96.3948 119.948 95.7602 120.236 95.3655 120.812C94.9708 121.388 94.7735 122.183 94.7735 123.196ZM110.381 121.084C110.381 121.617 110.221 122.033 109.901 122.332C109.581 122.631 109.17 122.833 108.669 122.94V123.004C109.202 123.079 109.666 123.271 110.061 123.58C110.456 123.879 110.653 124.348 110.653 124.988C110.653 125.351 110.584 125.687 110.445 125.996C110.317 126.305 110.114 126.572 109.837 126.796C109.56 127.02 109.202 127.196 108.765 127.324C108.328 127.441 107.8 127.5 107.181 127.5H103.485V118.924H107.165C107.773 118.924 108.317 118.993 108.797 119.132C109.288 119.26 109.672 119.484 109.949 119.804C110.237 120.113 110.381 120.54 110.381 121.084ZM109.197 124.988C109.197 124.497 109.01 124.145 108.637 123.932C108.264 123.719 107.714 123.612 106.989 123.612H104.893V126.364H107.021C107.725 126.364 108.264 126.263 108.637 126.06C109.01 125.847 109.197 125.489 109.197 124.988ZM108.957 121.26C108.957 120.855 108.808 120.561 108.509 120.38C108.221 120.188 107.746 120.092 107.085 120.092H104.893V122.444H106.829C107.522 122.444 108.05 122.348 108.413 122.156C108.776 121.964 108.957 121.665 108.957 121.26ZM117.776 118.924H119.312L115.648 123.052L119.616 127.5H117.984L114.112 123.148V127.5H112.704V118.924H114.112V123.084L117.776 118.924ZM124.421 118.78C125.466 118.78 126.239 119.009 126.741 119.468C127.242 119.927 127.493 120.657 127.493 121.66V127.5H126.469L126.197 126.284H126.133C125.887 126.593 125.631 126.855 125.365 127.068C125.109 127.271 124.81 127.42 124.469 127.516C124.138 127.612 123.733 127.66 123.253 127.66C122.741 127.66 122.277 127.569 121.861 127.388C121.455 127.207 121.135 126.929 120.901 126.556C120.666 126.172 120.549 125.692 120.549 125.116C120.549 124.263 120.885 123.607 121.557 123.148C122.229 122.679 123.263 122.423 124.661 122.38L126.117 122.332V121.82C126.117 121.105 125.962 120.609 125.653 120.332C125.343 120.055 124.906 119.916 124.341 119.916C123.893 119.916 123.466 119.985 123.061 120.124C122.655 120.252 122.277 120.401 121.924 120.572L121.493 119.516C121.866 119.313 122.309 119.143 122.821 119.004C123.333 118.855 123.866 118.78 124.421 118.78ZM124.837 123.356C123.77 123.399 123.029 123.569 122.613 123.868C122.207 124.167 122.005 124.588 122.005 125.132C122.005 125.612 122.149 125.964 122.437 126.188C122.735 126.412 123.114 126.524 123.573 126.524C124.298 126.524 124.901 126.327 125.381 125.932C125.861 125.527 126.101 124.908 126.101 124.076V123.308L124.837 123.356ZM140.01 118.924H141.546L137.882 123.052L141.85 127.5H140.218L136.346 123.148V127.5H134.938V118.924H136.346V123.084L140.01 118.924ZM150.556 117.18C150.022 117.18 149.537 117.244 149.1 117.372C148.662 117.489 148.268 117.628 147.916 117.788L147.324 116.588C147.761 116.375 148.262 116.209 148.828 116.092C149.393 115.975 149.974 115.916 150.572 115.916C151.489 115.916 152.284 116.06 152.956 116.348C153.638 116.625 154.204 117.02 154.652 117.532C155.1 118.044 155.43 118.647 155.644 119.34C155.868 120.023 155.98 120.775 155.98 121.596C155.98 122.844 155.777 123.921 155.372 124.828C154.966 125.735 154.353 126.433 153.532 126.924C152.721 127.415 151.697 127.66 150.46 127.66C149.798 127.66 149.238 127.623 148.78 127.548C148.321 127.473 147.868 127.356 147.42 127.196V125.948C147.868 126.065 148.321 126.172 148.78 126.268C149.238 126.353 149.724 126.396 150.236 126.396C150.929 126.396 151.532 126.305 152.044 126.124C152.566 125.932 153.004 125.66 153.356 125.308C153.708 124.945 153.974 124.503 154.156 123.98C154.337 123.447 154.438 122.839 154.46 122.156H148.908V120.892H154.444C154.39 120.305 154.262 119.783 154.06 119.324C153.857 118.865 153.585 118.476 153.244 118.156C152.913 117.836 152.518 117.596 152.06 117.436C151.612 117.265 151.11 117.18 150.556 117.18ZM163.401 118.924H164.937L161.273 123.052L165.241 127.5H163.609L159.737 123.148V127.5H158.329V118.924H159.737V123.084L163.401 118.924ZM169.925 127.66C169.168 127.66 168.49 127.505 167.893 127.196C167.306 126.887 166.842 126.407 166.501 125.756C166.17 125.105 166.005 124.273 166.005 123.26C166.005 122.204 166.181 121.345 166.533 120.684C166.885 120.023 167.36 119.537 167.957 119.228C168.565 118.919 169.253 118.764 170.021 118.764C170.458 118.764 170.88 118.812 171.285 118.908C171.69 118.993 172.021 119.1 172.277 119.228L171.845 120.396C171.589 120.3 171.29 120.209 170.949 120.124C170.608 120.039 170.288 119.996 169.989 119.996C169.413 119.996 168.938 120.119 168.565 120.364C168.192 120.609 167.914 120.972 167.733 121.452C167.552 121.932 167.461 122.529 167.461 123.244C167.461 123.927 167.552 124.508 167.733 124.988C167.914 125.468 168.186 125.831 168.549 126.076C168.912 126.321 169.365 126.444 169.909 126.444C170.378 126.444 170.789 126.396 171.141 126.3C171.504 126.204 171.834 126.087 172.133 125.948V127.196C171.845 127.345 171.525 127.457 171.173 127.532C170.832 127.617 170.416 127.66 169.925 127.66ZM181.421 118.924V127.5H180.013V120.124H175.581V127.5H174.173V118.924H181.421ZM191.613 123.196C191.613 123.911 191.517 124.545 191.325 125.1C191.144 125.644 190.877 126.108 190.525 126.492C190.184 126.876 189.762 127.169 189.261 127.372C188.77 127.564 188.221 127.66 187.613 127.66C187.048 127.66 186.525 127.564 186.045 127.372C185.565 127.169 185.149 126.876 184.797 126.492C184.445 126.108 184.168 125.644 183.965 125.1C183.773 124.545 183.677 123.911 183.677 123.196C183.677 122.247 183.837 121.447 184.157 120.796C184.477 120.135 184.936 119.633 185.533 119.292C186.13 118.94 186.84 118.764 187.661 118.764C188.44 118.764 189.122 118.94 189.709 119.292C190.306 119.633 190.77 120.135 191.101 120.796C191.442 121.447 191.613 122.247 191.613 123.196ZM185.133 123.196C185.133 123.868 185.218 124.455 185.389 124.956C185.57 125.447 185.848 125.825 186.221 126.092C186.594 126.359 187.069 126.492 187.645 126.492C188.221 126.492 188.696 126.359 189.069 126.092C189.442 125.825 189.714 125.447 189.885 124.956C190.066 124.455 190.157 123.868 190.157 123.196C190.157 122.513 190.066 121.932 189.885 121.452C189.704 120.972 189.426 120.604 189.053 120.348C188.69 120.081 188.216 119.948 187.629 119.948C186.754 119.948 186.12 120.236 185.725 120.812C185.33 121.388 185.133 122.183 185.133 123.196ZM197.924 118.764C198.98 118.764 199.828 119.132 200.468 119.868C201.119 120.604 201.444 121.713 201.444 123.196C201.444 124.167 201.295 124.988 200.996 125.66C200.708 126.321 200.298 126.823 199.764 127.164C199.242 127.495 198.623 127.66 197.908 127.66C197.471 127.66 197.082 127.601 196.74 127.484C196.399 127.367 196.106 127.217 195.86 127.036C195.626 126.844 195.423 126.636 195.252 126.412H195.156C195.178 126.593 195.199 126.823 195.22 127.1C195.242 127.377 195.252 127.617 195.252 127.82V131.34H193.844V118.924H194.996L195.188 120.092H195.252C195.423 119.847 195.626 119.623 195.86 119.42C196.106 119.217 196.394 119.057 196.724 118.94C197.066 118.823 197.466 118.764 197.924 118.764ZM197.668 119.948C197.092 119.948 196.628 120.06 196.276 120.284C195.924 120.497 195.668 120.823 195.508 121.26C195.348 121.697 195.263 122.252 195.252 122.924V123.196C195.252 123.9 195.327 124.497 195.476 124.988C195.626 125.479 195.876 125.852 196.228 126.108C196.591 126.364 197.082 126.492 197.7 126.492C198.223 126.492 198.65 126.348 198.98 126.06C199.322 125.772 199.572 125.383 199.732 124.892C199.903 124.391 199.988 123.82 199.988 123.18C199.988 122.199 199.796 121.415 199.412 120.828C199.039 120.241 198.458 119.948 197.668 119.948ZM209.452 120.108H206.652V127.5H205.26V120.108H202.492V118.924H209.452V120.108ZM209.797 118.924H211.301L213.157 123.804C213.264 124.092 213.36 124.369 213.445 124.636C213.541 124.903 213.627 125.164 213.701 125.42C213.776 125.665 213.835 125.905 213.877 126.14H213.941C214.005 125.873 214.107 125.527 214.245 125.1C214.384 124.663 214.528 124.225 214.677 123.788L216.421 118.924H217.941L214.245 128.684C214.043 129.217 213.803 129.681 213.525 130.076C213.259 130.481 212.928 130.791 212.533 131.004C212.149 131.228 211.68 131.34 211.125 131.34C210.869 131.34 210.645 131.324 210.453 131.292C210.261 131.271 210.096 131.244 209.957 131.212V130.092C210.075 130.113 210.213 130.135 210.373 130.156C210.544 130.177 210.72 130.188 210.901 130.188C211.232 130.188 211.515 130.124 211.749 129.996C211.995 129.879 212.203 129.703 212.373 129.468C212.544 129.244 212.688 128.977 212.805 128.668L213.253 127.532L209.797 118.924Z" fill="#333333"/>
<path d="M5 168L12.5 175.5L25 160.5" stroke="#61B857" stroke-width="2" stroke-linecap="round" stroke-linejoin="round"/>
<path d="M44.448 163.18C43.84 163.18 43.2907 163.287 42.8 163.5C42.3093 163.703 41.8933 164.007 41.552 164.412C41.2107 164.807 40.9493 165.292 40.768 165.868C40.5867 166.433 40.496 167.073 40.496 167.788C40.496 168.727 40.64 169.543 40.928 170.236C41.2267 170.929 41.664 171.463 42.24 171.836C42.8267 172.209 43.5573 172.396 44.432 172.396C44.9333 172.396 45.408 172.353 45.856 172.268C46.304 172.183 46.7413 172.076 47.168 171.948V173.196C46.7413 173.356 46.2987 173.473 45.84 173.548C45.392 173.623 44.8533 173.66 44.224 173.66C43.0613 173.66 42.0907 173.42 41.312 172.94C40.5333 172.46 39.9467 171.777 39.552 170.892C39.168 170.007 38.976 168.967 38.976 167.772C38.976 166.908 39.0933 166.119 39.328 165.404C39.5733 164.689 39.9253 164.071 40.384 163.548C40.8533 163.025 41.4293 162.625 42.112 162.348C42.7947 162.06 43.5787 161.916 44.464 161.916C45.0507 161.916 45.616 161.975 46.16 162.092C46.704 162.209 47.1893 162.375 47.616 162.588L47.04 163.804C46.688 163.644 46.2933 163.5 45.856 163.372C45.4293 163.244 44.96 163.18 44.448 163.18ZM52.7814 164.764C53.5174 164.764 54.1467 164.924 54.6694 165.244C55.2027 165.564 55.608 166.017 55.8854 166.604C56.1734 167.18 56.3174 167.857 56.3174 168.636V169.484H50.4454C50.4667 170.455 50.712 171.196 51.1814 171.708C51.6614 172.209 52.328 172.46 53.1814 172.46C53.7254 172.46 54.2054 172.412 54.6214 172.316C55.048 172.209 55.4854 172.06 55.9334 171.868V173.1C55.496 173.292 55.064 173.431 54.6374 173.516C54.2107 173.612 53.704 173.66 53.1174 173.66C52.3067 173.66 51.5867 173.495 50.9574 173.164C50.3387 172.833 49.8534 172.343 49.5014 171.692C49.16 171.031 48.9894 170.225 48.9894 169.276C48.9894 168.337 49.144 167.532 49.4534 166.86C49.7734 166.188 50.216 165.671 50.7814 165.308C51.3574 164.945 52.024 164.764 52.7814 164.764ZM52.7654 165.916C52.0934 165.916 51.56 166.135 51.1654 166.572C50.7814 166.999 50.552 167.596 50.4774 168.364H54.8454C54.8454 167.873 54.7707 167.447 54.6214 167.084C54.472 166.721 54.2427 166.439 53.9334 166.236C53.6347 166.023 53.2454 165.916 52.7654 165.916ZM62.5806 164.764C63.6366 164.764 64.4846 165.132 65.1246 165.868C65.7753 166.604 66.1006 167.713 66.1006 169.196C66.1006 170.167 65.9513 170.988 65.6526 171.66C65.3646 172.321 64.954 172.823 64.4206 173.164C63.898 173.495 63.2793 173.66 62.5646 173.66C62.1273 173.66 61.738 173.601 61.3966 173.484C61.0553 173.367 60.762 173.217 60.5166 173.036C60.282 172.844 60.0793 172.636 59.9086 172.412H59.8126C59.834 172.593 59.8553 172.823 59.8766 173.1C59.898 173.377 59.9086 173.617 59.9086 173.82V177.34H58.5006V164.924H59.6526L59.8446 166.092H59.9086C60.0793 165.847 60.282 165.623 60.5166 165.42C60.762 165.217 61.05 165.057 61.3806 164.94C61.722 164.823 62.122 164.764 62.5806 164.764ZM62.3246 165.948C61.7486 165.948 61.2846 166.06 60.9326 166.284C60.5806 166.497 60.3246 166.823 60.1646 167.26C60.0046 167.697 59.9193 168.252 59.9086 168.924V169.196C59.9086 169.9 59.9833 170.497 60.1326 170.988C60.282 171.479 60.5326 171.852 60.8846 172.108C61.2473 172.364 61.738 172.492 62.3566 172.492C62.8793 172.492 63.306 172.348 63.6366 172.06C63.978 171.772 64.2286 171.383 64.3886 170.892C64.5593 170.391 64.6446 169.82 64.6446 169.18C64.6446 168.199 64.4526 167.415 64.0686 166.828C63.6953 166.241 63.114 165.948 62.3246 165.948ZM74.1081 166.108H71.3081V173.5H69.9161V166.108H67.1481V164.924H74.1081V166.108ZM77.1255 170.156C77.1255 170.252 77.1202 170.391 77.1095 170.572C77.1095 170.743 77.1042 170.929 77.0935 171.132C77.0828 171.324 77.0722 171.511 77.0615 171.692C77.0508 171.863 77.0402 172.001 77.0295 172.108L81.6215 164.924H83.3495V173.5H82.0375V168.444C82.0375 168.273 82.0375 168.049 82.0375 167.772C82.0482 167.495 82.0588 167.223 82.0695 166.956C82.0802 166.679 82.0908 166.471 82.1015 166.332L77.5415 173.5H75.7975V164.924H77.1255V170.156ZM91.1988 164.796C92.0521 164.871 92.7934 165.095 93.4228 165.468C94.0628 165.841 94.5588 166.343 94.9108 166.972C95.2628 167.601 95.4388 168.348 95.4388 169.212C95.4388 170.076 95.2681 170.828 94.9268 171.468C94.5854 172.097 94.1001 172.599 93.4708 172.972C92.8414 173.335 92.0841 173.553 91.1988 173.628V177.34H89.8228V173.628C88.9801 173.553 88.2388 173.335 87.5988 172.972C86.9588 172.599 86.4628 172.097 86.1108 171.468C85.7588 170.828 85.5828 170.076 85.5828 169.212C85.5828 168.337 85.7534 167.585 86.0948 166.956C86.4361 166.316 86.9268 165.815 87.5668 165.452C88.2068 165.079 88.9748 164.86 89.8708 164.796V161.34H91.1988V164.796ZM89.8708 165.964C89.2201 166.028 88.6868 166.193 88.2708 166.46C87.8548 166.727 87.5454 167.089 87.3428 167.548C87.1508 168.007 87.0548 168.561 87.0548 169.212C87.0548 169.852 87.1508 170.407 87.3428 170.876C87.5454 171.335 87.8548 171.703 88.2708 171.98C88.6868 172.247 89.2201 172.412 89.8708 172.476V165.964ZM91.1988 172.476C91.8388 172.401 92.3614 172.231 92.7668 171.964C93.1828 171.697 93.4868 171.335 93.6788 170.876C93.8814 170.407 93.9828 169.852 93.9828 169.212C93.9828 168.572 93.8814 168.023 93.6788 167.564C93.4761 167.105 93.1668 166.743 92.7508 166.476C92.3454 166.209 91.8281 166.044 91.1988 165.98V172.476ZM99.0005 170.156C99.0005 170.252 98.9952 170.391 98.9845 170.572C98.9845 170.743 98.9792 170.929 98.9685 171.132C98.9578 171.324 98.9472 171.511 98.9365 171.692C98.9258 171.863 98.9152 172.001 98.9045 172.108L103.497 164.924H105.225V173.5H103.913V168.444C103.913 168.273 103.913 168.049 103.913 167.772C103.923 167.495 103.934 167.223 103.945 166.956C103.955 166.679 103.966 166.471 103.977 166.332L99.4165 173.5H97.6725V164.924H99.0005V170.156ZM113.026 164.924H114.562L110.898 169.052L114.866 173.5H113.234L109.362 169.148V173.5H107.954V164.924H109.362V169.084L113.026 164.924ZM119.671 164.78C120.716 164.78 121.489 165.009 121.991 165.468C122.492 165.927 122.743 166.657 122.743 167.66V173.5H121.719L121.447 172.284H121.383C121.137 172.593 120.881 172.855 120.615 173.068C120.359 173.271 120.06 173.42 119.719 173.516C119.388 173.612 118.983 173.66 118.503 173.66C117.991 173.66 117.527 173.569 117.111 173.388C116.705 173.207 116.385 172.929 116.151 172.556C115.916 172.172 115.799 171.692 115.799 171.116C115.799 170.263 116.135 169.607 116.807 169.148C117.479 168.679 118.513 168.423 119.911 168.38L121.367 168.332V167.82C121.367 167.105 121.212 166.609 120.903 166.332C120.593 166.055 120.156 165.916 119.591 165.916C119.143 165.916 118.716 165.985 118.311 166.124C117.905 166.252 117.527 166.401 117.174 166.572L116.743 165.516C117.116 165.313 117.559 165.143 118.071 165.004C118.583 164.855 119.116 164.78 119.671 164.78ZM120.087 169.356C119.02 169.399 118.279 169.569 117.863 169.868C117.457 170.167 117.255 170.588 117.255 171.132C117.255 171.612 117.399 171.964 117.687 172.188C117.985 172.412 118.364 172.524 118.823 172.524C119.548 172.524 120.151 172.327 120.631 171.932C121.111 171.527 121.351 170.908 121.351 170.076V169.308L120.087 169.356ZM133.855 176.476H132.479V173.5H125.391V164.924H126.799V172.316H131.231V164.924H132.639V172.332H133.855V176.476ZM136.829 170.156C136.829 170.252 136.823 170.391 136.813 170.572C136.813 170.743 136.807 170.929 136.797 171.132C136.786 171.324 136.775 171.511 136.765 171.692C136.754 171.863 136.743 172.001 136.733 172.108L141.325 164.924H143.053V173.5H141.741V168.444C141.741 168.273 141.741 168.049 141.741 167.772C141.751 167.495 141.762 167.223 141.773 166.956C141.783 166.679 141.794 166.471 141.805 166.332L137.245 173.5H135.501V164.924H136.829V170.156ZM146.31 173.5H144.678L147.126 169.9C146.795 169.815 146.475 169.681 146.166 169.5C145.857 169.308 145.606 169.047 145.414 168.716C145.222 168.375 145.126 167.953 145.126 167.452C145.126 166.631 145.403 166.007 145.958 165.58C146.513 165.143 147.249 164.924 148.166 164.924H152.006V173.5H150.598V170.092H148.518L146.31 173.5ZM146.486 167.468C146.486 167.959 146.667 168.327 147.03 168.572C147.403 168.807 147.921 168.924 148.582 168.924H150.598V166.092H148.31C147.659 166.092 147.19 166.22 146.902 166.476C146.625 166.732 146.486 167.063 146.486 167.468Z" fill="#333333"/>
<path d="M5 214L12.5 221.5L25 206.5" stroke="#61B857" stroke-width="2" stroke-linecap="round" stroke-linejoin="round"/>
<path d="M49.52 213.772C49.52 214.657 49.408 215.463 49.184 216.188C48.96 216.903 48.624 217.521 48.176 218.044C47.7387 218.567 47.1893 218.967 46.528 219.244C45.8773 219.521 45.12 219.66 44.256 219.66C43.36 219.66 42.5813 219.521 41.92 219.244C41.2587 218.956 40.7093 218.556 40.272 218.044C39.8347 217.521 39.5093 216.897 39.296 216.172C39.0827 215.447 38.976 214.641 38.976 213.756C38.976 212.583 39.168 211.559 39.552 210.684C39.936 209.809 40.5173 209.127 41.296 208.636C42.0853 208.145 43.0773 207.9 44.272 207.9C45.4133 207.9 46.3733 208.145 47.152 208.636C47.9307 209.116 48.5173 209.799 48.912 210.684C49.3173 211.559 49.52 212.588 49.52 213.772ZM40.496 213.772C40.496 214.732 40.6293 215.559 40.896 216.252C41.1627 216.945 41.5733 217.479 42.128 217.852C42.6933 218.225 43.4027 218.412 44.256 218.412C45.12 218.412 45.824 218.225 46.368 217.852C46.9227 217.479 47.3333 216.945 47.6 216.252C47.8667 215.559 48 214.732 48 213.772C48 212.332 47.7013 211.207 47.104 210.396C46.5067 209.575 45.5627 209.164 44.272 209.164C43.408 209.164 42.6933 209.351 42.128 209.724C41.5733 210.087 41.1627 210.615 40.896 211.308C40.6293 211.991 40.496 212.812 40.496 213.772ZM57.78 212.108H54.98V219.5H53.588V212.108H50.82V210.924H57.78V212.108ZM65.353 210.924V218.316H66.601V222.476H65.241V219.5H59.273V222.476H57.929V218.316H58.617C59.1077 217.633 59.513 216.892 59.833 216.092C60.1637 215.281 60.409 214.439 60.569 213.564C60.7397 212.679 60.8303 211.799 60.841 210.924H65.353ZM62.089 212.028C62.0463 212.753 61.9343 213.505 61.753 214.284C61.5717 215.052 61.337 215.788 61.049 216.492C60.7717 217.196 60.4463 217.804 60.073 218.316H63.993V212.028H62.089ZM71.5939 210.764C72.3299 210.764 72.9592 210.924 73.4819 211.244C74.0152 211.564 74.4205 212.017 74.6979 212.604C74.9859 213.18 75.1299 213.857 75.1299 214.636V215.484H69.2579C69.2792 216.455 69.5245 217.196 69.9939 217.708C70.4739 218.209 71.1405 218.46 71.9939 218.46C72.5379 218.46 73.0179 218.412 73.4339 218.316C73.8605 218.209 74.2979 218.06 74.7459 217.868V219.1C74.3085 219.292 73.8765 219.431 73.4499 219.516C73.0232 219.612 72.5165 219.66 71.9299 219.66C71.1192 219.66 70.3992 219.495 69.7699 219.164C69.1512 218.833 68.6659 218.343 68.3139 217.692C67.9725 217.031 67.8019 216.225 67.8019 215.276C67.8019 214.337 67.9565 213.532 68.2659 212.86C68.5859 212.188 69.0285 211.671 69.5939 211.308C70.1699 210.945 70.8365 210.764 71.5939 210.764ZM71.5779 211.916C70.9059 211.916 70.3725 212.135 69.9779 212.572C69.5939 212.999 69.3645 213.596 69.2899 214.364H73.6579C73.6579 213.873 73.5832 213.447 73.4339 213.084C73.2845 212.721 73.0552 212.439 72.7459 212.236C72.4472 212.023 72.0579 211.916 71.5779 211.916ZM83.8411 219.5H82.4171V212.092H79.8891C79.7825 213.447 79.6491 214.604 79.4891 215.564C79.3291 216.513 79.1265 217.287 78.8811 217.884C78.6358 218.481 78.3425 218.919 78.0011 219.196C77.6598 219.473 77.2598 219.612 76.8011 219.612C76.6625 219.612 76.5238 219.601 76.3851 219.58C76.2571 219.569 76.1505 219.543 76.0651 219.5V218.444C76.1291 218.465 76.1985 218.481 76.2731 218.492C76.3478 218.503 76.4225 218.508 76.4971 218.508C76.7318 218.508 76.9451 218.412 77.1371 218.22C77.3291 218.028 77.4998 217.735 77.6491 217.34C77.8091 216.945 77.9531 216.449 78.0811 215.852C78.2091 215.244 78.3211 214.529 78.4171 213.708C78.5131 212.887 78.5985 211.959 78.6731 210.924H83.8411V219.5ZM91.552 219.5V208.076H100.128V219.5H98.704V209.34H92.992V219.5H91.552ZM107.143 210.764C108.199 210.764 109.047 211.132 109.687 211.868C110.338 212.604 110.663 213.713 110.663 215.196C110.663 216.167 110.514 216.988 110.215 217.66C109.927 218.321 109.516 218.823 108.983 219.164C108.46 219.495 107.842 219.66 107.127 219.66C106.69 219.66 106.3 219.601 105.959 219.484C105.618 219.367 105.324 219.217 105.079 219.036C104.844 218.844 104.642 218.636 104.471 218.412H104.375C104.396 218.593 104.418 218.823 104.439 219.1C104.46 219.377 104.471 219.617 104.471 219.82V223.34H103.063V210.924H104.215L104.407 212.092H104.471C104.642 211.847 104.844 211.623 105.079 211.42C105.324 211.217 105.612 211.057 105.943 210.94C106.284 210.823 106.684 210.764 107.143 210.764ZM106.887 211.948C106.311 211.948 105.847 212.06 105.495 212.284C105.143 212.497 104.887 212.823 104.727 213.26C104.567 213.697 104.482 214.252 104.471 214.924V215.196C104.471 215.9 104.546 216.497 104.695 216.988C104.844 217.479 105.095 217.852 105.447 218.108C105.81 218.364 106.3 218.492 106.919 218.492C107.442 218.492 107.868 218.348 108.199 218.06C108.54 217.772 108.791 217.383 108.951 216.892C109.122 216.391 109.207 215.82 109.207 215.18C109.207 214.199 109.015 213.415 108.631 212.828C108.258 212.241 107.676 211.948 106.887 211.948ZM120.363 215.196C120.363 215.911 120.267 216.545 120.075 217.1C119.894 217.644 119.627 218.108 119.275 218.492C118.934 218.876 118.512 219.169 118.011 219.372C117.52 219.564 116.971 219.66 116.363 219.66C115.798 219.66 115.275 219.564 114.795 219.372C114.315 219.169 113.899 218.876 113.547 218.492C113.195 218.108 112.918 217.644 112.715 217.1C112.523 216.545 112.427 215.911 112.427 215.196C112.427 214.247 112.587 213.447 112.907 212.796C113.227 212.135 113.686 211.633 114.283 211.292C114.88 210.94 115.59 210.764 116.411 210.764C117.19 210.764 117.872 210.94 118.459 211.292C119.056 211.633 119.52 212.135 119.851 212.796C120.192 213.447 120.363 214.247 120.363 215.196ZM113.883 215.196C113.883 215.868 113.968 216.455 114.139 216.956C114.32 217.447 114.598 217.825 114.971 218.092C115.344 218.359 115.819 218.492 116.395 218.492C116.971 218.492 117.446 218.359 117.819 218.092C118.192 217.825 118.464 217.447 118.635 216.956C118.816 216.455 118.907 215.868 118.907 215.196C118.907 214.513 118.816 213.932 118.635 213.452C118.454 212.972 118.176 212.604 117.803 212.348C117.44 212.081 116.966 211.948 116.379 211.948C115.504 211.948 114.87 212.236 114.475 212.812C114.08 213.388 113.883 214.183 113.883 215.196ZM128.962 210.924V218.316H130.21V222.476H128.85V219.5H122.882V222.476H121.538V218.316H122.226C122.717 217.633 123.122 216.892 123.442 216.092C123.773 215.281 124.018 214.439 124.178 213.564C124.349 212.679 124.44 211.799 124.45 210.924H128.962ZM125.698 212.028C125.656 212.753 125.544 213.505 125.362 214.284C125.181 215.052 124.946 215.788 124.658 216.492C124.381 217.196 124.056 217.804 123.682 218.316H127.602V212.028H125.698ZM135.139 210.78C136.185 210.78 136.958 211.009 137.459 211.468C137.961 211.927 138.211 212.657 138.211 213.66V219.5H137.187L136.915 218.284H136.851C136.606 218.593 136.35 218.855 136.083 219.068C135.827 219.271 135.529 219.42 135.187 219.516C134.857 219.612 134.451 219.66 133.971 219.66C133.459 219.66 132.995 219.569 132.579 219.388C132.174 219.207 131.854 218.929 131.619 218.556C131.385 218.172 131.267 217.692 131.267 217.116C131.267 216.263 131.603 215.607 132.275 215.148C132.947 214.679 133.982 214.423 135.379 214.38L136.835 214.332V213.82C136.835 213.105 136.681 212.609 136.371 212.332C136.062 212.055 135.625 211.916 135.059 211.916C134.611 211.916 134.185 211.985 133.779 212.124C133.374 212.252 132.995 212.401 132.643 212.572L132.211 211.516C132.585 211.313 133.027 211.143 133.539 211.004C134.051 210.855 134.585 210.78 135.139 210.78ZM135.555 215.356C134.489 215.399 133.747 215.569 133.331 215.868C132.926 216.167 132.723 216.588 132.723 217.132C132.723 217.612 132.867 217.964 133.155 218.188C133.454 218.412 133.833 218.524 134.291 218.524C135.017 218.524 135.619 218.327 136.099 217.932C136.579 217.527 136.819 216.908 136.819 216.076V215.308L135.555 215.356ZM151.148 210.924L147.612 215.084L151.452 219.5H149.852L146.14 215.148V219.5H144.828V215.148L141.116 219.5H139.516L143.356 215.084L139.82 210.924H141.356L144.828 215.084V210.924H146.14V215.084L149.628 210.924H151.148Z" fill="#333333"/>
<path d="M5 260L12.5 267.5L25 252.5" stroke="#61B857" stroke-width="2" stroke-linecap="round" stroke-linejoin="round"/>
<path d="M53.84 254.272C53.84 255.157 53.7333 255.963 53.52 256.688C53.3067 257.413 52.9867 258.037 52.56 258.56C52.1333 259.072 51.6053 259.467 50.976 259.744C50.3573 260.021 49.632 260.16 48.8 260.16C47.712 260.16 46.7947 259.936 46.048 259.488C45.312 259.04 44.7467 258.405 44.352 257.584C43.9573 256.763 43.7387 255.792 43.696 254.672H40.992V260H39.552V248.576H40.992V253.408H43.728C43.8027 252.395 44.0373 251.515 44.432 250.768C44.8267 250.011 45.3867 249.429 46.112 249.024C46.8373 248.608 47.7227 248.4 48.768 248.4C49.8667 248.4 50.7893 248.645 51.536 249.136C52.2933 249.616 52.864 250.299 53.248 251.184C53.6427 252.059 53.84 253.088 53.84 254.272ZM45.2 254.272C45.2 255.232 45.3227 256.059 45.568 256.752C45.824 257.445 46.2133 257.979 46.736 258.352C47.2693 258.725 47.9413 258.912 48.752 258.912C49.584 258.912 50.2613 258.725 50.784 258.352C51.3173 257.979 51.7067 257.445 51.952 256.752C52.208 256.059 52.336 255.232 52.336 254.272C52.336 253.312 52.2133 252.491 51.968 251.808C51.7227 251.115 51.3387 250.587 50.816 250.224C50.2933 249.851 49.616 249.664 48.784 249.664C47.9627 249.664 47.2853 249.851 46.752 250.224C46.2187 250.587 45.824 251.115 45.568 251.808C45.3227 252.491 45.2 253.312 45.2 254.272ZM60.2681 251.264C61.3241 251.264 62.1721 251.632 62.8121 252.368C63.4628 253.104 63.7881 254.213 63.7881 255.696C63.7881 256.667 63.6388 257.488 63.3401 258.16C63.0521 258.821 62.6415 259.323 62.1081 259.664C61.5855 259.995 60.9668 260.16 60.2521 260.16C59.8148 260.16 59.4255 260.101 59.0841 259.984C58.7428 259.867 58.4495 259.717 58.2041 259.536C57.9695 259.344 57.7668 259.136 57.5961 258.912H57.5001C57.5215 259.093 57.5428 259.323 57.5641 259.6C57.5855 259.877 57.5961 260.117 57.5961 260.32V263.84H56.1881V251.424H57.3401L57.5321 252.592H57.5961C57.7668 252.347 57.9695 252.123 58.2041 251.92C58.4495 251.717 58.7375 251.557 59.0681 251.44C59.4095 251.323 59.8095 251.264 60.2681 251.264ZM60.0121 252.448C59.4361 252.448 58.9721 252.56 58.6201 252.784C58.2681 252.997 58.0121 253.323 57.8521 253.76C57.6921 254.197 57.6068 254.752 57.5961 255.424V255.696C57.5961 256.4 57.6708 256.997 57.8201 257.488C57.9695 257.979 58.2201 258.352 58.5721 258.608C58.9348 258.864 59.4255 258.992 60.0441 258.992C60.5668 258.992 60.9935 258.848 61.3241 258.56C61.6655 258.272 61.9161 257.883 62.0761 257.392C62.2468 256.891 62.3321 256.32 62.3321 255.68C62.3321 254.699 62.1401 253.915 61.7561 253.328C61.3828 252.741 60.8015 252.448 60.0121 252.448ZM67.3599 256.656C67.3599 256.752 67.3545 256.891 67.3439 257.072C67.3439 257.243 67.3385 257.429 67.3279 257.632C67.3172 257.824 67.3065 258.011 67.2959 258.192C67.2852 258.363 67.2745 258.501 67.2639 258.608L71.8559 251.424H73.5839V260H72.2719V254.944C72.2719 254.773 72.2719 254.549 72.2719 254.272C72.2825 253.995 72.2932 253.723 72.3039 253.456C72.3145 253.179 72.3252 252.971 72.3359 252.832L67.7759 260H66.0319V251.424H67.3599V256.656ZM82.6811 251.424V258.816H83.9291V262.976H82.5691V260H76.6011V262.976H75.2571V258.816H75.9451C76.4358 258.133 76.8411 257.392 77.1611 256.592C77.4918 255.781 77.7371 254.939 77.8971 254.064C78.0678 253.179 78.1585 252.299 78.1691 251.424H82.6811ZM79.4171 252.528C79.3745 253.253 79.2625 254.005 79.0811 254.784C78.8998 255.552 78.6651 256.288 78.3771 256.992C78.0998 257.696 77.7745 258.304 77.4011 258.816H81.3211V252.528H79.4171ZM86.938 256.656C86.938 256.752 86.9327 256.891 86.922 257.072C86.922 257.243 86.9167 257.429 86.906 257.632C86.8953 257.824 86.8847 258.011 86.874 258.192C86.8633 258.363 86.8527 258.501 86.842 258.608L91.434 251.424H93.162V260H91.85V254.944C91.85 254.773 91.85 254.549 91.85 254.272C91.8607 253.995 91.8713 253.723 91.882 253.456C91.8927 253.179 91.9033 252.971 91.914 252.832L87.354 260H85.61V251.424H86.938V256.656ZM97.1233 254.544C97.1233 255.045 97.2619 255.419 97.5393 255.664C97.8273 255.899 98.2379 256.016 98.7713 256.016C99.3046 256.016 99.7899 255.936 100.227 255.776C100.665 255.605 101.113 255.381 101.571 255.104V251.424H102.979V260H101.571V256.176C101.091 256.485 100.617 256.731 100.147 256.912C99.6886 257.083 99.1339 257.168 98.4833 257.168C97.6086 257.168 96.9259 256.939 96.4353 256.48C95.9553 256.021 95.7153 255.408 95.7153 254.64V251.424H97.1233V254.544ZM109.016 251.264C109.752 251.264 110.381 251.424 110.904 251.744C111.437 252.064 111.842 252.517 112.12 253.104C112.408 253.68 112.552 254.357 112.552 255.136V255.984H106.68C106.701 256.955 106.946 257.696 107.416 258.208C107.896 258.709 108.562 258.96 109.416 258.96C109.96 258.96 110.44 258.912 110.856 258.816C111.282 258.709 111.72 258.56 112.168 258.368V259.6C111.73 259.792 111.298 259.931 110.872 260.016C110.445 260.112 109.938 260.16 109.352 260.16C108.541 260.16 107.821 259.995 107.192 259.664C106.573 259.333 106.088 258.843 105.736 258.192C105.394 257.531 105.224 256.725 105.224 255.776C105.224 254.837 105.378 254.032 105.688 253.36C106.008 252.688 106.45 252.171 107.016 251.808C107.592 251.445 108.258 251.264 109.016 251.264ZM109 252.416C108.328 252.416 107.794 252.635 107.4 253.072C107.016 253.499 106.786 254.096 106.712 254.864H111.08C111.08 254.373 111.005 253.947 110.856 253.584C110.706 253.221 110.477 252.939 110.168 252.736C109.869 252.523 109.48 252.416 109 252.416ZM118.175 260.16C117.418 260.16 116.74 260.005 116.143 259.696C115.556 259.387 115.092 258.907 114.751 258.256C114.42 257.605 114.255 256.773 114.255 255.76C114.255 254.704 114.431 253.845 114.783 253.184C115.135 252.523 115.61 252.037 116.207 251.728C116.815 251.419 117.503 251.264 118.271 251.264C118.708 251.264 119.13 251.312 119.535 251.408C119.94 251.493 120.271 251.6 120.527 251.728L120.095 252.896C119.839 252.8 119.54 252.709 119.199 252.624C118.858 252.539 118.538 252.496 118.239 252.496C117.663 252.496 117.188 252.619 116.815 252.864C116.442 253.109 116.164 253.472 115.983 253.952C115.802 254.432 115.711 255.029 115.711 255.744C115.711 256.427 115.802 257.008 115.983 257.488C116.164 257.968 116.436 258.331 116.799 258.576C117.162 258.821 117.615 258.944 118.159 258.944C118.628 258.944 119.039 258.896 119.391 258.8C119.754 258.704 120.084 258.587 120.383 258.448V259.696C120.095 259.845 119.775 259.957 119.423 260.032C119.082 260.117 118.666 260.16 118.175 260.16ZM127.495 251.424H129.031L125.367 255.552L129.335 260H127.703L123.831 255.648V260H122.423V251.424H123.831V255.584L127.495 251.424ZM138.035 255.696C138.035 256.411 137.939 257.045 137.747 257.6C137.565 258.144 137.299 258.608 136.947 258.992C136.605 259.376 136.184 259.669 135.683 259.872C135.192 260.064 134.643 260.16 134.035 260.16C133.469 260.16 132.947 260.064 132.467 259.872C131.987 259.669 131.571 259.376 131.219 258.992C130.867 258.608 130.589 258.144 130.387 257.6C130.195 257.045 130.099 256.411 130.099 255.696C130.099 254.747 130.259 253.947 130.579 253.296C130.899 252.635 131.357 252.133 131.955 251.792C132.552 251.44 133.261 251.264 134.083 251.264C134.861 251.264 135.544 251.44 136.131 251.792C136.728 252.133 137.192 252.635 137.523 253.296C137.864 253.947 138.035 254.747 138.035 255.696ZM131.555 255.696C131.555 256.368 131.64 256.955 131.811 257.456C131.992 257.947 132.269 258.325 132.643 258.592C133.016 258.859 133.491 258.992 134.067 258.992C134.643 258.992 135.117 258.859 135.491 258.592C135.864 258.325 136.136 257.947 136.307 257.456C136.488 256.955 136.579 256.368 136.579 255.696C136.579 255.013 136.488 254.432 136.307 253.952C136.125 253.472 135.848 253.104 135.475 252.848C135.112 252.581 134.637 252.448 134.051 252.448C133.176 252.448 132.541 252.736 132.147 253.312C131.752 253.888 131.555 254.683 131.555 255.696ZM143.578 251.264C144.314 251.264 144.944 251.424 145.466 251.744C146 252.064 146.405 252.517 146.682 253.104C146.97 253.68 147.114 254.357 147.114 255.136V255.984H141.242C141.264 256.955 141.509 257.696 141.978 258.208C142.458 258.709 143.125 258.96 143.978 258.96C144.522 258.96 145.002 258.912 145.418 258.816C145.845 258.709 146.282 258.56 146.73 258.368V259.6C146.293 259.792 145.861 259.931 145.434 260.016C145.008 260.112 144.501 260.16 143.914 260.16C143.104 260.16 142.384 259.995 141.754 259.664C141.136 259.333 140.65 258.843 140.298 258.192C139.957 257.531 139.786 256.725 139.786 255.776C139.786 254.837 139.941 254.032 140.25 253.36C140.57 252.688 141.013 252.171 141.578 251.808C142.154 251.445 142.821 251.264 143.578 251.264ZM143.562 252.416C142.89 252.416 142.357 252.635 141.962 253.072C141.578 253.499 141.349 254.096 141.274 254.864H145.642C145.642 254.373 145.568 253.947 145.418 253.584C145.269 253.221 145.04 252.939 144.73 252.736C144.432 252.523 144.042 252.416 143.562 252.416ZM44.448 268.68C43.84 268.68 43.2907 268.787 42.8 269C42.3093 269.203 41.8933 269.507 41.552 269.912C41.2107 270.307 40.9493 270.792 40.768 271.368C40.5867 271.933 40.496 272.573 40.496 273.288C40.496 274.227 40.64 275.043 40.928 275.736C41.2267 276.429 41.664 276.963 42.24 277.336C42.8267 277.709 43.5573 277.896 44.432 277.896C44.9333 277.896 45.408 277.853 45.856 277.768C46.304 277.683 46.7413 277.576 47.168 277.448V278.696C46.7413 278.856 46.2987 278.973 45.84 279.048C45.392 279.123 44.8533 279.16 44.224 279.16C43.0613 279.16 42.0907 278.92 41.312 278.44C40.5333 277.96 39.9467 277.277 39.552 276.392C39.168 275.507 38.976 274.467 38.976 273.272C38.976 272.408 39.0933 271.619 39.328 270.904C39.5733 270.189 39.9253 269.571 40.384 269.048C40.8533 268.525 41.4293 268.125 42.112 267.848C42.7947 267.56 43.5787 267.416 44.464 267.416C45.0507 267.416 45.616 267.475 46.16 267.592C46.704 267.709 47.1893 267.875 47.616 268.088L47.04 269.304C46.688 269.144 46.2933 269 45.856 268.872C45.4293 268.744 44.96 268.68 44.448 268.68ZM56.9254 274.696C56.9254 275.411 56.8294 276.045 56.6374 276.6C56.456 277.144 56.1894 277.608 55.8374 277.992C55.496 278.376 55.0747 278.669 54.5734 278.872C54.0827 279.064 53.5334 279.16 52.9254 279.16C52.36 279.16 51.8374 279.064 51.3574 278.872C50.8774 278.669 50.4614 278.376 50.1094 277.992C49.7574 277.608 49.48 277.144 49.2774 276.6C49.0854 276.045 48.9894 275.411 48.9894 274.696C48.9894 273.747 49.1494 272.947 49.4694 272.296C49.7894 271.635 50.248 271.133 50.8454 270.792C51.4427 270.44 52.152 270.264 52.9734 270.264C53.752 270.264 54.4347 270.44 55.0214 270.792C55.6187 271.133 56.0827 271.635 56.4134 272.296C56.7547 272.947 56.9254 273.747 56.9254 274.696ZM50.4454 274.696C50.4454 275.368 50.5307 275.955 50.7014 276.456C50.8827 276.947 51.16 277.325 51.5334 277.592C51.9067 277.859 52.3814 277.992 52.9574 277.992C53.5334 277.992 54.008 277.859 54.3814 277.592C54.7547 277.325 55.0267 276.947 55.1974 276.456C55.3787 275.955 55.4694 275.368 55.4694 274.696C55.4694 274.013 55.3787 273.432 55.1974 272.952C55.016 272.472 54.7387 272.104 54.3654 271.848C54.0027 271.581 53.528 271.448 52.9414 271.448C52.0667 271.448 51.432 271.736 51.0374 272.312C50.6427 272.888 50.4454 273.683 50.4454 274.696ZM66.4049 270.424V279H64.9969V271.624H60.5649V279H59.1569V270.424H66.4049ZM73.2213 270.264C74.2773 270.264 75.1253 270.632 75.7653 271.368C76.4159 272.104 76.7413 273.213 76.7413 274.696C76.7413 275.667 76.5919 276.488 76.2933 277.16C76.0052 277.821 75.5946 278.323 75.0613 278.664C74.5386 278.995 73.9199 279.16 73.2053 279.16C72.7679 279.16 72.3786 279.101 72.0373 278.984C71.6959 278.867 71.4026 278.717 71.1573 278.536C70.9226 278.344 70.7199 278.136 70.5493 277.912H70.4533C70.4746 278.093 70.4959 278.323 70.5173 278.6C70.5386 278.877 70.5493 279.117 70.5493 279.32V282.84H69.1413V270.424H70.2933L70.4853 271.592H70.5493C70.7199 271.347 70.9226 271.123 71.1573 270.92C71.4026 270.717 71.6906 270.557 72.0213 270.44C72.3626 270.323 72.7626 270.264 73.2213 270.264ZM72.9653 271.448C72.3893 271.448 71.9253 271.56 71.5733 271.784C71.2213 271.997 70.9653 272.323 70.8053 272.76C70.6453 273.197 70.5599 273.752 70.5493 274.424V274.696C70.5493 275.4 70.6239 275.997 70.7733 276.488C70.9226 276.979 71.1733 277.352 71.5253 277.608C71.8879 277.864 72.3786 277.992 72.9973 277.992C73.5199 277.992 73.9466 277.848 74.2773 277.56C74.6186 277.272 74.8693 276.883 75.0293 276.392C75.1999 275.891 75.2853 275.32 75.2853 274.68C75.2853 273.699 75.0933 272.915 74.7093 272.328C74.3359 271.741 73.7546 271.448 72.9653 271.448ZM86.441 274.696C86.441 275.411 86.345 276.045 86.153 276.6C85.9717 277.144 85.705 277.608 85.353 277.992C85.0117 278.376 84.5903 278.669 84.089 278.872C83.5983 279.064 83.049 279.16 82.441 279.16C81.8757 279.16 81.353 279.064 80.873 278.872C80.393 278.669 79.977 278.376 79.625 277.992C79.273 277.608 78.9957 277.144 78.793 276.6C78.601 276.045 78.505 275.411 78.505 274.696C78.505 273.747 78.665 272.947 78.985 272.296C79.305 271.635 79.7637 271.133 80.361 270.792C80.9583 270.44 81.6677 270.264 82.489 270.264C83.2677 270.264 83.9503 270.44 84.537 270.792C85.1343 271.133 85.5983 271.635 85.929 272.296C86.2703 272.947 86.441 273.747 86.441 274.696ZM79.961 274.696C79.961 275.368 80.0463 275.955 80.217 276.456C80.3983 276.947 80.6757 277.325 81.049 277.592C81.4223 277.859 81.897 277.992 82.473 277.992C83.049 277.992 83.5237 277.859 83.897 277.592C84.2703 277.325 84.5423 276.947 84.713 276.456C84.8943 275.955 84.985 275.368 84.985 274.696C84.985 274.013 84.8943 273.432 84.713 272.952C84.5317 272.472 84.2543 272.104 83.881 271.848C83.5183 271.581 83.0437 271.448 82.457 271.448C81.5823 271.448 80.9477 271.736 80.553 272.312C80.1583 272.888 79.961 273.683 79.961 274.696ZM95.5685 272.584C95.5685 273.117 95.4085 273.533 95.0885 273.832C94.7685 274.131 94.3578 274.333 93.8565 274.44V274.504C94.3898 274.579 94.8538 274.771 95.2485 275.08C95.6432 275.379 95.8405 275.848 95.8405 276.488C95.8405 276.851 95.7712 277.187 95.6325 277.496C95.5045 277.805 95.3018 278.072 95.0245 278.296C94.7472 278.52 94.3898 278.696 93.9525 278.824C93.5152 278.941 92.9872 279 92.3685 279H88.6725V270.424H92.3525C92.9605 270.424 93.5045 270.493 93.9845 270.632C94.4752 270.76 94.8592 270.984 95.1365 271.304C95.4245 271.613 95.5685 272.04 95.5685 272.584ZM94.3845 276.488C94.3845 275.997 94.1978 275.645 93.8245 275.432C93.4512 275.219 92.9018 275.112 92.1765 275.112H90.0805V277.864H92.2085C92.9125 277.864 93.4512 277.763 93.8245 277.56C94.1978 277.347 94.3845 276.989 94.3845 276.488ZM94.1445 272.76C94.1445 272.355 93.9952 272.061 93.6965 271.88C93.4085 271.688 92.9338 271.592 92.2725 271.592H90.0805V273.944H92.0165C92.7098 273.944 93.2378 273.848 93.6005 273.656C93.9632 273.464 94.1445 273.165 94.1445 272.76ZM105.347 274.696C105.347 275.411 105.251 276.045 105.059 276.6C104.878 277.144 104.611 277.608 104.259 277.992C103.918 278.376 103.497 278.669 102.995 278.872C102.505 279.064 101.955 279.16 101.347 279.16C100.782 279.16 100.259 279.064 99.7793 278.872C99.2993 278.669 98.8833 278.376 98.5312 277.992C98.1793 277.608 97.9019 277.144 97.6993 276.6C97.5073 276.045 97.4113 275.411 97.4113 274.696C97.4113 273.747 97.5713 272.947 97.8913 272.296C98.2113 271.635 98.6699 271.133 99.2673 270.792C99.8646 270.44 100.574 270.264 101.395 270.264C102.174 270.264 102.857 270.44 103.443 270.792C104.041 271.133 104.505 271.635 104.835 272.296C105.177 272.947 105.347 273.747 105.347 274.696ZM98.8673 274.696C98.8673 275.368 98.9526 275.955 99.1233 276.456C99.3046 276.947 99.5819 277.325 99.9553 277.592C100.329 277.859 100.803 277.992 101.379 277.992C101.955 277.992 102.43 277.859 102.803 277.592C103.177 277.325 103.449 276.947 103.619 276.456C103.801 275.955 103.891 275.368 103.891 274.696C103.891 274.013 103.801 273.432 103.619 272.952C103.438 272.472 103.161 272.104 102.787 271.848C102.425 271.581 101.95 271.448 101.363 271.448C100.489 271.448 99.8539 271.736 99.4593 272.312C99.0646 272.888 98.8673 273.683 98.8673 274.696ZM117.554 270.424L114.018 274.584L117.858 279H116.258L112.546 274.648V279H111.234V274.648L107.522 279H105.922L109.762 274.584L106.226 270.424H107.762L111.234 274.584V270.424H112.546V274.584L116.034 270.424H117.554ZM125.634 270.424V277.816H126.882V281.976H125.522V279H119.554V281.976H118.21V277.816H118.898C119.389 277.133 119.794 276.392 120.114 275.592C120.445 274.781 120.69 273.939 120.85 273.064C121.021 272.179 121.112 271.299 121.122 270.424H125.634ZM122.37 271.528C122.328 272.253 122.216 273.005 122.034 273.784C121.853 274.552 121.618 275.288 121.33 275.992C121.053 276.696 120.728 277.304 120.354 277.816H124.274V271.528H122.37ZM131.875 270.264C132.611 270.264 133.24 270.424 133.763 270.744C134.296 271.064 134.702 271.517 134.979 272.104C135.267 272.68 135.411 273.357 135.411 274.136V274.984H129.539C129.56 275.955 129.806 276.696 130.275 277.208C130.755 277.709 131.422 277.96 132.275 277.96C132.819 277.96 133.299 277.912 133.715 277.816C134.142 277.709 134.579 277.56 135.027 277.368V278.6C134.59 278.792 134.158 278.931 133.731 279.016C133.304 279.112 132.798 279.16 132.211 279.16C131.4 279.16 130.68 278.995 130.051 278.664C129.432 278.333 128.947 277.843 128.595 277.192C128.254 276.531 128.083 275.725 128.083 274.776C128.083 273.837 128.238 273.032 128.547 272.36C128.867 271.688 129.31 271.171 129.875 270.808C130.451 270.445 131.118 270.264 131.875 270.264ZM131.859 271.416C131.187 271.416 130.654 271.635 130.259 272.072C129.875 272.499 129.646 273.096 129.571 273.864H133.939C133.939 273.373 133.864 272.947 133.715 272.584C133.566 272.221 133.336 271.939 133.027 271.736C132.728 271.523 132.339 271.416 131.859 271.416ZM139.002 270.424V273.992H143.658V270.424H145.066V279H143.658V275.176H139.002V279H137.594V270.424H139.002ZM149.11 275.656C149.11 275.752 149.105 275.891 149.094 276.072C149.094 276.243 149.089 276.429 149.078 276.632C149.067 276.824 149.057 277.011 149.046 277.192C149.035 277.363 149.025 277.501 149.014 277.608L153.606 270.424H155.334V279H154.022V273.944C154.022 273.773 154.022 273.549 154.022 273.272C154.033 272.995 154.043 272.723 154.054 272.456C154.065 272.179 154.075 271.971 154.086 271.832L149.526 279H147.782V270.424H149.11V275.656ZM161.375 270.264C162.111 270.264 162.74 270.424 163.263 270.744C163.796 271.064 164.202 271.517 164.479 272.104C164.767 272.68 164.911 273.357 164.911 274.136V274.984H159.039C159.06 275.955 159.306 276.696 159.775 277.208C160.255 277.709 160.922 277.96 161.775 277.96C162.319 277.96 162.799 277.912 163.215 277.816C163.642 277.709 164.079 277.56 164.527 277.368V278.6C164.09 278.792 163.658 278.931 163.231 279.016C162.804 279.112 162.298 279.16 161.711 279.16C160.9 279.16 160.18 278.995 159.551 278.664C158.932 278.333 158.447 277.843 158.095 277.192C157.754 276.531 157.583 275.725 157.583 274.776C157.583 273.837 157.738 273.032 158.047 272.36C158.367 271.688 158.81 271.171 159.375 270.808C159.951 270.445 160.618 270.264 161.375 270.264ZM161.359 271.416C160.687 271.416 160.154 271.635 159.759 272.072C159.375 272.499 159.146 273.096 159.071 273.864H163.439C163.439 273.373 163.364 272.947 163.215 272.584C163.066 272.221 162.836 271.939 162.527 271.736C162.228 271.523 161.839 271.416 161.359 271.416Z" fill="#333333"/>
<path d="M5 314L12.5 321.5L25 306.5" stroke="#61B857" stroke-width="2" stroke-linecap="round" stroke-linejoin="round"/>
<path d="M47.888 314H46.16L40.992 308.208V314H39.552V302.576H40.992V308.112L46.032 302.576H47.664L42.704 308.128L47.888 314ZM47.9066 305.424H49.4106L51.2666 310.304C51.3733 310.592 51.4693 310.869 51.5546 311.136C51.6506 311.403 51.736 311.664 51.8106 311.92C51.8853 312.165 51.944 312.405 51.9866 312.64H52.0506C52.1146 312.373 52.216 312.027 52.3546 311.6C52.4933 311.163 52.6373 310.725 52.7866 310.288L54.5306 305.424H56.0506L52.3546 315.184C52.152 315.717 51.912 316.181 51.6346 316.576C51.368 316.981 51.0373 317.291 50.6426 317.504C50.2586 317.728 49.7893 317.84 49.2346 317.84C48.9786 317.84 48.7546 317.824 48.5626 317.792C48.3706 317.771 48.2053 317.744 48.0666 317.712V316.592C48.184 316.613 48.3226 316.635 48.4826 316.656C48.6533 316.677 48.8293 316.688 49.0106 316.688C49.3413 316.688 49.624 316.624 49.8586 316.496C50.104 316.379 50.312 316.203 50.4826 315.968C50.6533 315.744 50.7973 315.477 50.9146 315.168L51.3626 314.032L47.9066 305.424ZM61.4869 305.264C62.5429 305.264 63.3909 305.632 64.0309 306.368C64.6815 307.104 65.0069 308.213 65.0069 309.696C65.0069 310.667 64.8575 311.488 64.5589 312.16C64.2709 312.821 63.8602 313.323 63.3269 313.664C62.8042 313.995 62.1855 314.16 61.4709 314.16C61.0335 314.16 60.6442 314.101 60.3029 313.984C59.9615 313.867 59.6682 313.717 59.4229 313.536C59.1882 313.344 58.9855 313.136 58.8149 312.912H58.7189C58.7402 313.093 58.7615 313.323 58.7829 313.6C58.8042 313.877 58.8149 314.117 58.8149 314.32V317.84H57.4069V305.424H58.5589L58.7509 306.592H58.8149C58.9855 306.347 59.1882 306.123 59.4229 305.92C59.6682 305.717 59.9562 305.557 60.2869 305.44C60.6282 305.323 61.0282 305.264 61.4869 305.264ZM61.2309 306.448C60.6549 306.448 60.1909 306.56 59.8389 306.784C59.4869 306.997 59.2309 307.323 59.0709 307.76C58.9109 308.197 58.8255 308.752 58.8149 309.424V309.696C58.8149 310.4 58.8895 310.997 59.0389 311.488C59.1882 311.979 59.4389 312.352 59.7909 312.608C60.1535 312.864 60.6442 312.992 61.2629 312.992C61.7855 312.992 62.2122 312.848 62.5429 312.56C62.8842 312.272 63.1349 311.883 63.2949 311.392C63.4655 310.891 63.5509 310.32 63.5509 309.68C63.5509 308.699 63.3589 307.915 62.9749 307.328C62.6015 306.741 62.0202 306.448 61.2309 306.448ZM70.6906 314.16C69.9333 314.16 69.256 314.005 68.6586 313.696C68.072 313.387 67.608 312.907 67.2666 312.256C66.936 311.605 66.7706 310.773 66.7706 309.76C66.7706 308.704 66.9466 307.845 67.2986 307.184C67.6506 306.523 68.1253 306.037 68.7226 305.728C69.3306 305.419 70.0186 305.264 70.7866 305.264C71.224 305.264 71.6453 305.312 72.0506 305.408C72.456 305.493 72.7866 305.6 73.0426 305.728L72.6106 306.896C72.3546 306.8 72.056 306.709 71.7146 306.624C71.3733 306.539 71.0533 306.496 70.7546 306.496C70.1786 306.496 69.704 306.619 69.3306 306.864C68.9573 307.109 68.68 307.472 68.4986 307.952C68.3173 308.432 68.2266 309.029 68.2266 309.744C68.2266 310.427 68.3173 311.008 68.4986 311.488C68.68 311.968 68.952 312.331 69.3146 312.576C69.6773 312.821 70.1306 312.944 70.6746 312.944C71.144 312.944 71.5546 312.896 71.9066 312.8C72.2693 312.704 72.6 312.587 72.8986 312.448V313.696C72.6106 313.845 72.2906 313.957 71.9386 314.032C71.5973 314.117 71.1813 314.16 70.6906 314.16ZM83.543 314H82.103V303.84H78.535V302.576H87.095V303.84H83.543V314ZM90.5924 305.28C91.6377 305.28 92.411 305.509 92.9124 305.968C93.4137 306.427 93.6644 307.157 93.6644 308.16V314H92.6404L92.3684 312.784H92.3044C92.059 313.093 91.803 313.355 91.5364 313.568C91.2804 313.771 90.9817 313.92 90.6404 314.016C90.3097 314.112 89.9044 314.16 89.4244 314.16C88.9124 314.16 88.4484 314.069 88.0324 313.888C87.627 313.707 87.307 313.429 87.0724 313.056C86.8377 312.672 86.7204 312.192 86.7204 311.616C86.7204 310.763 87.0564 310.107 87.7284 309.648C88.4004 309.179 89.435 308.923 90.8324 308.88L92.2884 308.832V308.32C92.2884 307.605 92.1337 307.109 91.8244 306.832C91.515 306.555 91.0777 306.416 90.5124 306.416C90.0644 306.416 89.6377 306.485 89.2324 306.624C88.827 306.752 88.4484 306.901 88.0964 307.072L87.6644 306.016C88.0377 305.813 88.4804 305.643 88.9924 305.504C89.5044 305.355 90.0377 305.28 90.5924 305.28ZM91.0084 309.856C89.9417 309.899 89.2004 310.069 88.7844 310.368C88.379 310.667 88.1764 311.088 88.1764 311.632C88.1764 312.112 88.3204 312.464 88.6084 312.688C88.907 312.912 89.2857 313.024 89.7444 313.024C90.4697 313.024 91.0724 312.827 91.5524 312.432C92.0324 312.027 92.2724 311.408 92.2724 310.576V309.808L91.0084 309.856ZM105.513 305.424V314H104.249V308.528C104.249 308.304 104.254 308.069 104.265 307.824C104.286 307.579 104.308 307.339 104.329 307.104H104.281L101.481 314H100.297L97.5771 307.104H97.5291C97.5505 307.339 97.5611 307.579 97.5611 307.824C97.5718 308.069 97.5771 308.32 97.5771 308.576V314H96.3131V305.424H98.1851L100.889 312.32L103.641 305.424H105.513ZM115.707 309.696C115.707 310.411 115.611 311.045 115.419 311.6C115.237 312.144 114.971 312.608 114.619 312.992C114.277 313.376 113.856 313.669 113.355 313.872C112.864 314.064 112.315 314.16 111.707 314.16C111.141 314.16 110.619 314.064 110.139 313.872C109.659 313.669 109.243 313.376 108.891 312.992C108.539 312.608 108.261 312.144 108.059 311.6C107.867 311.045 107.771 310.411 107.771 309.696C107.771 308.747 107.931 307.947 108.251 307.296C108.571 306.635 109.029 306.133 109.627 305.792C110.224 305.44 110.933 305.264 111.755 305.264C112.533 305.264 113.216 305.44 113.803 305.792C114.4 306.133 114.864 306.635 115.195 307.296C115.536 307.947 115.707 308.747 115.707 309.696ZM109.227 309.696C109.227 310.368 109.312 310.955 109.483 311.456C109.664 311.947 109.941 312.325 110.315 312.592C110.688 312.859 111.163 312.992 111.739 312.992C112.315 312.992 112.789 312.859 113.163 312.592C113.536 312.325 113.808 311.947 113.979 311.456C114.16 310.955 114.251 310.368 114.251 309.696C114.251 309.013 114.16 308.432 113.979 307.952C113.797 307.472 113.52 307.104 113.147 306.848C112.784 306.581 112.309 306.448 111.723 306.448C110.848 306.448 110.213 306.736 109.819 307.312C109.424 307.888 109.227 308.683 109.227 309.696ZM127.914 305.424L124.378 309.584L128.218 314H126.618L122.906 309.648V314H121.594V309.648L117.882 314H116.282L120.122 309.584L116.586 305.424H118.122L121.594 309.584V305.424H122.906V309.584L126.394 305.424H127.914ZM132.625 305.264C133.361 305.264 133.99 305.424 134.513 305.744C135.046 306.064 135.452 306.517 135.729 307.104C136.017 307.68 136.161 308.357 136.161 309.136V309.984H130.289C130.31 310.955 130.556 311.696 131.025 312.208C131.505 312.709 132.172 312.96 133.025 312.96C133.569 312.96 134.049 312.912 134.465 312.816C134.892 312.709 135.329 312.56 135.777 312.368V313.6C135.34 313.792 134.908 313.931 134.481 314.016C134.054 314.112 133.548 314.16 132.961 314.16C132.15 314.16 131.43 313.995 130.801 313.664C130.182 313.333 129.697 312.843 129.345 312.192C129.004 311.531 128.833 310.725 128.833 309.776C128.833 308.837 128.988 308.032 129.297 307.36C129.617 306.688 130.06 306.171 130.625 305.808C131.201 305.445 131.868 305.264 132.625 305.264ZM132.609 306.416C131.937 306.416 131.404 306.635 131.009 307.072C130.625 307.499 130.396 308.096 130.321 308.864H134.689C134.689 308.373 134.614 307.947 134.465 307.584C134.316 307.221 134.086 306.939 133.777 306.736C133.478 306.523 133.089 306.416 132.609 306.416ZM139.752 305.424V308.992H144.408V305.424H145.816V314H144.408V310.176H139.752V314H138.344V305.424H139.752ZM149.94 305.424V308.992H154.596V305.424H156.004V314H154.596V310.176H149.94V314H148.532V305.424H149.94ZM158.719 314V305.424H160.127V308.944H162.351C163.098 308.944 163.711 309.035 164.191 309.216C164.671 309.397 165.029 309.669 165.263 310.032C165.498 310.384 165.615 310.832 165.615 311.376C165.615 311.909 165.498 312.373 165.263 312.768C165.039 313.163 164.682 313.467 164.191 313.68C163.711 313.893 163.077 314 162.287 314H158.719ZM162.159 312.864C162.767 312.864 163.263 312.763 163.647 312.56C164.031 312.347 164.223 311.979 164.223 311.456C164.223 310.933 164.047 310.581 163.695 310.4C163.343 310.208 162.837 310.112 162.175 310.112H160.127V312.864H162.159ZM167.039 314V305.424H168.447V314H167.039ZM173.205 309.616L170.245 305.424H171.845L174.053 308.656L176.245 305.424H177.829L174.869 309.616L177.989 314H176.389L174.053 310.576L171.685 314H170.101L173.205 309.616ZM41.712 322.68C41.1787 322.68 40.6933 322.744 40.256 322.872C39.8187 322.989 39.424 323.128 39.072 323.288L38.48 322.088C38.9173 321.875 39.4187 321.709 39.984 321.592C40.5493 321.475 41.1307 321.416 41.728 321.416C42.6453 321.416 43.44 321.56 44.112 321.848C44.7947 322.125 45.36 322.52 45.808 323.032C46.256 323.544 46.5867 324.147 46.8 324.84C47.024 325.523 47.136 326.275 47.136 327.096C47.136 328.344 46.9333 329.421 46.528 330.328C46.1227 331.235 45.5093 331.933 44.688 332.424C43.8773 332.915 42.8533 333.16 41.616 333.16C40.9547 333.16 40.3947 333.123 39.936 333.048C39.4773 332.973 39.024 332.856 38.576 332.696V331.448C39.024 331.565 39.4773 331.672 39.936 331.768C40.3947 331.853 40.88 331.896 41.392 331.896C42.0853 331.896 42.688 331.805 43.2 331.624C43.7227 331.432 44.16 331.16 44.512 330.808C44.864 330.445 45.1307 330.003 45.312 329.48C45.4933 328.947 45.5947 328.339 45.616 327.656H40.064V326.392H45.6C45.5467 325.805 45.4187 325.283 45.216 324.824C45.0133 324.365 44.7413 323.976 44.4 323.656C44.0693 323.336 43.6747 323.096 43.216 322.936C42.768 322.765 42.2667 322.68 41.712 322.68ZM54.557 324.424H56.093L52.429 328.552L56.397 333H54.765L50.893 328.648V333H49.485V324.424H50.893V328.584L54.557 324.424ZM61.0813 333.16C60.3239 333.16 59.6466 333.005 59.0493 332.696C58.4626 332.387 57.9986 331.907 57.6573 331.256C57.3266 330.605 57.1613 329.773 57.1613 328.76C57.1613 327.704 57.3373 326.845 57.6893 326.184C58.0413 325.523 58.5159 325.037 59.1133 324.728C59.7213 324.419 60.4093 324.264 61.1773 324.264C61.6146 324.264 62.0359 324.312 62.4413 324.408C62.8466 324.493 63.1773 324.6 63.4333 324.728L63.0013 325.896C62.7453 325.8 62.4466 325.709 62.1053 325.624C61.7639 325.539 61.4439 325.496 61.1453 325.496C60.5693 325.496 60.0946 325.619 59.7213 325.864C59.3479 326.109 59.0706 326.472 58.8893 326.952C58.7079 327.432 58.6173 328.029 58.6173 328.744C58.6173 329.427 58.7079 330.008 58.8893 330.488C59.0706 330.968 59.3426 331.331 59.7053 331.576C60.0679 331.821 60.5213 331.944 61.0653 331.944C61.5346 331.944 61.9453 331.896 62.2973 331.8C62.6599 331.704 62.9906 331.587 63.2893 331.448V332.696C63.0013 332.845 62.6813 332.957 62.3293 333.032C61.9879 333.117 61.5719 333.16 61.0813 333.16ZM72.5768 324.424V333H71.1688V325.624H66.7368V333H65.3288V324.424H72.5768ZM78.6251 324.264C79.3611 324.264 79.9905 324.424 80.5131 324.744C81.0465 325.064 81.4518 325.517 81.7291 326.104C82.0171 326.68 82.1611 327.357 82.1611 328.136V328.984H76.2891C76.3105 329.955 76.5558 330.696 77.0251 331.208C77.5051 331.709 78.1718 331.96 79.0251 331.96C79.5691 331.96 80.0491 331.912 80.4651 331.816C80.8918 331.709 81.3291 331.56 81.7771 331.368V332.6C81.3398 332.792 80.9078 332.931 80.4811 333.016C80.0545 333.112 79.5478 333.16 78.9611 333.16C78.1505 333.16 77.4305 332.995 76.8011 332.664C76.1825 332.333 75.6971 331.843 75.3451 331.192C75.0038 330.531 74.8331 329.725 74.8331 328.776C74.8331 327.837 74.9878 327.032 75.2971 326.36C75.6171 325.688 76.0598 325.171 76.6251 324.808C77.2011 324.445 77.8678 324.264 78.6251 324.264ZM78.6091 325.416C77.9371 325.416 77.4038 325.635 77.0091 326.072C76.6251 326.499 76.3958 327.096 76.3211 327.864H80.6891C80.6891 327.373 80.6145 326.947 80.4651 326.584C80.3158 326.221 80.0865 325.939 79.7771 325.736C79.4785 325.523 79.0891 325.416 78.6091 325.416ZM88.4244 324.264C89.4804 324.264 90.3284 324.632 90.9684 325.368C91.619 326.104 91.9444 327.213 91.9444 328.696C91.9444 329.667 91.795 330.488 91.4964 331.16C91.2084 331.821 90.7977 332.323 90.2644 332.664C89.7417 332.995 89.123 333.16 88.4084 333.16C87.971 333.16 87.5817 333.101 87.2404 332.984C86.899 332.867 86.6057 332.717 86.3604 332.536C86.1257 332.344 85.923 332.136 85.7524 331.912H85.6564C85.6777 332.093 85.699 332.323 85.7204 332.6C85.7417 332.877 85.7524 333.117 85.7524 333.32V336.84H84.3444V324.424H85.4964L85.6884 325.592H85.7524C85.923 325.347 86.1257 325.123 86.3604 324.92C86.6057 324.717 86.8937 324.557 87.2244 324.44C87.5657 324.323 87.9657 324.264 88.4244 324.264ZM88.1684 325.448C87.5924 325.448 87.1284 325.56 86.7764 325.784C86.4244 325.997 86.1684 326.323 86.0084 326.76C85.8484 327.197 85.763 327.752 85.7524 328.424V328.696C85.7524 329.4 85.827 329.997 85.9764 330.488C86.1257 330.979 86.3764 331.352 86.7284 331.608C87.091 331.864 87.5817 331.992 88.2004 331.992C88.723 331.992 89.1497 331.848 89.4804 331.56C89.8217 331.272 90.0724 330.883 90.2324 330.392C90.403 329.891 90.4884 329.32 90.4884 328.68C90.4884 327.699 90.2964 326.915 89.9124 326.328C89.539 325.741 88.9577 325.448 88.1684 325.448ZM99.9519 325.608H97.1519V333H95.7599V325.608H92.9919V324.424H99.9519V325.608ZM108.941 328.696C108.941 329.411 108.845 330.045 108.653 330.6C108.472 331.144 108.205 331.608 107.853 331.992C107.512 332.376 107.09 332.669 106.589 332.872C106.098 333.064 105.549 333.16 104.941 333.16C104.376 333.16 103.853 333.064 103.373 332.872C102.893 332.669 102.477 332.376 102.125 331.992C101.773 331.608 101.496 331.144 101.293 330.6C101.101 330.045 101.005 329.411 101.005 328.696C101.005 327.747 101.165 326.947 101.485 326.296C101.805 325.635 102.264 325.133 102.861 324.792C103.458 324.44 104.168 324.264 104.989 324.264C105.768 324.264 106.45 324.44 107.037 324.792C107.634 325.133 108.098 325.635 108.429 326.296C108.77 326.947 108.941 327.747 108.941 328.696ZM102.461 328.696C102.461 329.368 102.546 329.955 102.717 330.456C102.898 330.947 103.176 331.325 103.549 331.592C103.922 331.859 104.397 331.992 104.973 331.992C105.549 331.992 106.024 331.859 106.397 331.592C106.77 331.325 107.042 330.947 107.213 330.456C107.394 329.955 107.485 329.368 107.485 328.696C107.485 328.013 107.394 327.432 107.213 326.952C107.032 326.472 106.754 326.104 106.381 325.848C106.018 325.581 105.544 325.448 104.957 325.448C104.082 325.448 103.448 325.736 103.053 326.312C102.658 326.888 102.461 327.683 102.461 328.696ZM118.069 326.584C118.069 327.117 117.909 327.533 117.589 327.832C117.269 328.131 116.858 328.333 116.357 328.44V328.504C116.89 328.579 117.354 328.771 117.749 329.08C118.143 329.379 118.341 329.848 118.341 330.488C118.341 330.851 118.271 331.187 118.133 331.496C118.005 331.805 117.802 332.072 117.525 332.296C117.247 332.52 116.89 332.696 116.453 332.824C116.015 332.941 115.487 333 114.869 333H111.173V324.424H114.853C115.461 324.424 116.005 324.493 116.485 324.632C116.975 324.76 117.359 324.984 117.637 325.304C117.925 325.613 118.069 326.04 118.069 326.584ZM116.885 330.488C116.885 329.997 116.698 329.645 116.325 329.432C115.951 329.219 115.402 329.112 114.677 329.112H112.581V331.864H114.709C115.413 331.864 115.951 331.763 116.325 331.56C116.698 331.347 116.885 330.989 116.885 330.488ZM116.645 326.76C116.645 326.355 116.495 326.061 116.197 325.88C115.909 325.688 115.434 325.592 114.773 325.592H112.581V327.944H114.516C115.21 327.944 115.738 327.848 116.101 327.656C116.463 327.464 116.645 327.165 116.645 326.76Z" fill="#333333"/>
</svg>
