<svg width="326" height="540" viewBox="0 0 326 540" fill="none" xmlns="http://www.w3.org/2000/svg">
<g filter="url(#filter0_d_170_4074)">
<rect x="17" y="15" width="286" height="500" rx="5" fill="white" shape-rendering="crispEdges"/>
<g filter="url(#filter1_d_170_4074)">
<path d="M58.332 54.9585C56.6237 54.9585 55.207 53.5418 55.207 51.8335V39.3335C55.207 37.6252 56.6237 36.2085 58.332 36.2085C60.0404 36.2085 61.457 37.6252 61.457 39.3335V51.8335C61.457 53.5418 60.0404 54.9585 58.332 54.9585Z" fill="#1959AB"/>
<path d="M91.668 54.9585C89.9596 54.9585 88.543 53.5418 88.543 51.8335V39.3335C88.543 37.6252 89.9596 36.2085 91.668 36.2085C93.3763 36.2085 94.793 37.6252 94.793 39.3335V51.8335C94.793 53.5418 93.3763 54.9585 91.668 54.9585Z" fill="#1959AB"/>
<path d="M60.4167 91.4165C59.3333 91.4165 58.25 90.9581 57.4583 90.2081C56.7083 89.4164 56.25 88.3748 56.25 87.2498C56.25 86.7081 56.375 86.1664 56.5833 85.6664C56.7917 85.1664 57.0833 84.7082 57.4583 84.2915C59 82.7498 61.7917 82.7498 63.375 84.2915C64.125 85.0832 64.5833 86.1665 64.5833 87.2498C64.5833 87.4998 64.5417 87.7915 64.5 88.0832C64.4583 88.3332 64.375 88.5832 64.25 88.8332C64.1667 89.0832 64.0417 89.3331 63.875 89.5831C63.7083 89.7915 63.5417 89.9998 63.375 90.2081C62.5833 90.9581 61.5 91.4165 60.4167 91.4165Z" fill="#1959AB"/>
<path d="M74.9987 91.4167C74.457 91.4167 73.9154 91.2917 73.4154 91.0834C72.8737 90.8751 72.457 90.5833 72.0404 90.2083C71.2904 89.4166 70.832 88.375 70.832 87.25C70.832 86.7083 70.957 86.1666 71.1654 85.6666C71.3737 85.1666 71.6654 84.7084 72.0404 84.2917C72.457 83.9167 72.8737 83.6249 73.4154 83.4166C74.957 82.7916 76.7904 83.125 77.957 84.2917C78.707 85.0834 79.1654 86.1667 79.1654 87.25C79.1654 87.5 79.1237 87.7917 79.082 88.0834C79.0404 88.3334 78.957 88.5834 78.832 88.8334C78.7487 89.0834 78.6237 89.3333 78.457 89.5833C78.332 89.7917 78.1237 90 77.957 90.2083C77.1654 90.9583 76.082 91.4167 74.9987 91.4167Z" fill="#1959AB"/>
<path d="M60.4167 106C59.875 106 59.3333 105.875 58.8333 105.667C58.2917 105.459 57.8333 105.167 57.4583 104.792C57.0833 104.417 56.7917 103.959 56.5833 103.417C56.375 102.917 56.25 102.375 56.25 101.834C56.25 101.292 56.375 100.75 56.5833 100.25C56.7917 99.7086 57.0833 99.2503 57.4583 98.8753C57.8333 98.5003 58.2917 98.2085 58.8333 98.0002C59.8333 97.5835 61 97.5419 62 98.0002C62.5417 98.2085 63 98.5003 63.375 98.8753C63.75 99.2503 64.0417 99.7086 64.25 100.25C64.4583 100.75 64.5833 101.292 64.5833 101.834C64.5833 102.375 64.4583 102.917 64.25 103.417C64.0417 103.959 63.75 104.417 63.375 104.792C63 105.167 62.5417 105.459 62 105.667C61.5 105.875 60.9583 106 60.4167 106Z" fill="#1959AB"/>
<path d="M110.415 72H39.582C37.8737 72 36.457 70.5833 36.457 68.875C36.457 67.1667 37.8737 65.75 39.582 65.75H110.415C112.124 65.75 113.54 67.1667 113.54 68.875C113.54 70.5833 112.124 72 110.415 72Z" fill="#1959AB"/>
<path d="M99.9987 129.958C95.1237 129.958 90.4987 128.208 86.957 125C85.457 123.75 84.1237 122.167 83.0404 120.333C81.207 117.333 80.207 113.792 80.207 110.167C80.207 99.25 89.082 90.375 99.9987 90.375C105.665 90.375 111.082 92.8333 114.832 97.0833C118.04 100.75 119.79 105.375 119.79 110.167C119.79 113.792 118.79 117.333 116.915 120.375C113.415 126.292 106.915 129.958 99.9987 129.958ZM99.9987 96.625C92.5404 96.625 86.457 102.708 86.457 110.167C86.457 112.625 87.1237 115.042 88.4154 117.125C89.1237 118.375 90.0404 119.417 91.0404 120.292C93.5404 122.542 96.6654 123.708 99.9987 123.708C104.79 123.708 109.124 121.25 111.582 117.167C112.874 115.042 113.54 112.667 113.54 110.167C113.54 106.917 112.332 103.75 110.165 101.208C107.582 98.2917 103.874 96.625 99.9987 96.625Z" fill="#1959AB"/>
<path d="M97.6243 117.417C96.8327 117.417 96.041 117.125 95.416 116.5L91.291 112.375C90.0827 111.167 90.0827 109.167 91.291 107.958C92.4993 106.75 94.4993 106.75 95.7077 107.958L97.7077 109.958L104.374 103.792C105.624 102.625 107.624 102.708 108.791 103.958C109.958 105.208 109.874 107.208 108.624 108.375L99.7493 116.583C99.1243 117.125 98.3743 117.417 97.6243 117.417Z" fill="#1959AB"/>
<path d="M89.0417 125.792H58.3333C43.125 125.792 34.375 117.042 34.375 101.833V66.4168C34.375 51.2085 43.125 42.4585 58.3333 42.4585H91.6667C106.875 42.4585 115.625 51.2085 115.625 66.4168V99.1668C115.625 100.458 114.833 101.625 113.583 102.083C112.375 102.542 111 102.209 110.125 101.209C107.542 98.2919 103.833 96.6252 99.9583 96.6252C92.5 96.6252 86.4167 102.708 86.4167 110.167C86.4167 112.625 87.0833 115.042 88.375 117.125C89.0833 118.375 90 119.417 91 120.292C92 121.125 92.375 122.5 91.9167 123.75C91.5417 124.959 90.375 125.792 89.0417 125.792ZM58.3333 48.7085C46.4167 48.7085 40.625 54.5002 40.625 66.4168V101.833C40.625 113.75 46.4167 119.542 58.3333 119.542H82.5833C81.0417 116.709 80.2083 113.5 80.2083 110.167C80.2083 99.2502 89.0833 90.3752 100 90.3752C103.292 90.3752 106.542 91.2085 109.375 92.7502V66.4168C109.375 54.5002 103.583 48.7085 91.6667 48.7085H58.3333Z" fill="#1959AB"/>
</g>
<path d="M45.5195 203H41.043V191.316L37.8086 198.898H34.7031L31.4688 191.316V203H27.2266V185.551H32.4531L36.3789 194.305L40.293 185.551H45.5195V203ZM62.7109 197.199H53.0547C53.1172 198.23 53.5078 199.02 54.2266 199.566C54.9531 200.113 56.0195 200.387 57.4258 200.387C58.3164 200.387 59.1797 200.227 60.0156 199.906C60.8516 199.586 61.5117 199.242 61.9961 198.875H62.4648V202.262C61.5117 202.645 60.6133 202.922 59.7695 203.094C58.9258 203.266 57.9922 203.352 56.9688 203.352C54.3281 203.352 52.3047 202.758 50.8984 201.57C49.4922 200.383 48.7891 198.691 48.7891 196.496C48.7891 194.324 49.4531 192.605 50.7812 191.34C52.1172 190.066 53.9453 189.43 56.2656 189.43C58.4062 189.43 60.0156 189.973 61.0938 191.059C62.1719 192.137 62.7109 193.691 62.7109 195.723V197.199ZM58.5156 194.727C58.4922 193.844 58.2734 193.18 57.8594 192.734C57.4453 192.289 56.8008 192.066 55.9258 192.066C55.1133 192.066 54.4453 192.277 53.9219 192.699C53.3984 193.121 53.1055 193.797 53.043 194.727H58.5156ZM79.4219 196.238C79.4219 197.324 79.2539 198.312 78.918 199.203C78.5898 200.094 78.1562 200.828 77.6172 201.406C77.0547 202.016 76.418 202.477 75.707 202.789C74.9961 203.102 74.2344 203.258 73.4219 203.258C72.6719 203.258 72.0352 203.176 71.5117 203.012C70.9883 202.855 70.4531 202.633 69.9062 202.344V207.828H65.6875V189.84H69.9062V191.211C70.5547 190.695 71.2148 190.277 71.8867 189.957C72.5664 189.637 73.3477 189.477 74.2305 189.477C75.8711 189.477 77.1445 190.078 78.0508 191.281C78.9648 192.484 79.4219 194.137 79.4219 196.238ZM75.0742 196.32C75.0742 195.039 74.8555 194.109 74.418 193.531C73.9805 192.953 73.2891 192.664 72.3438 192.664C71.9453 192.664 71.5352 192.727 71.1133 192.852C70.6914 192.969 70.2891 193.141 69.9062 193.367V199.988C70.1875 200.098 70.4883 200.168 70.8086 200.199C71.1289 200.23 71.4453 200.246 71.7578 200.246C72.875 200.246 73.707 199.922 74.2539 199.273C74.8008 198.617 75.0742 197.633 75.0742 196.32ZM95.9219 196.426C95.9219 198.59 95.2891 200.297 94.0234 201.547C92.7656 202.789 90.9961 203.41 88.7148 203.41C86.4336 203.41 84.6602 202.789 83.3945 201.547C82.1367 200.297 81.5078 198.59 81.5078 196.426C81.5078 194.246 82.1406 192.535 83.4062 191.293C84.6797 190.051 86.4492 189.43 88.7148 189.43C91.0117 189.43 92.7852 190.055 94.0352 191.305C95.293 192.555 95.9219 194.262 95.9219 196.426ZM90.7305 199.625C91.0039 199.289 91.207 198.887 91.3398 198.418C91.4805 197.941 91.5508 197.285 91.5508 196.449C91.5508 195.676 91.4805 195.027 91.3398 194.504C91.1992 193.98 91.0039 193.562 90.7539 193.25C90.5039 192.93 90.2031 192.703 89.8516 192.57C89.5 192.438 89.1211 192.371 88.7148 192.371C88.3086 192.371 87.9453 192.426 87.625 192.535C87.3125 192.645 87.0117 192.863 86.7227 193.191C86.4648 193.496 86.2578 193.914 86.1016 194.445C85.9531 194.977 85.8789 195.645 85.8789 196.449C85.8789 197.168 85.9453 197.793 86.0781 198.324C86.2109 198.848 86.4062 199.27 86.6641 199.59C86.9141 199.895 87.2109 200.117 87.5547 200.258C87.9062 200.398 88.3047 200.469 88.75 200.469C89.1328 200.469 89.4961 200.406 89.8398 200.281C90.1914 200.148 90.4883 199.93 90.7305 199.625ZM112.234 203H108.016V192.699H103.164V203H98.9453V189.84H112.234V203ZM129.953 196.238C129.953 197.324 129.785 198.312 129.449 199.203C129.121 200.094 128.688 200.828 128.148 201.406C127.586 202.016 126.949 202.477 126.238 202.789C125.527 203.102 124.766 203.258 123.953 203.258C123.203 203.258 122.566 203.176 122.043 203.012C121.52 202.855 120.984 202.633 120.438 202.344V207.828H116.219V189.84H120.438V191.211C121.086 190.695 121.746 190.277 122.418 189.957C123.098 189.637 123.879 189.477 124.762 189.477C126.402 189.477 127.676 190.078 128.582 191.281C129.496 192.484 129.953 194.137 129.953 196.238ZM125.605 196.32C125.605 195.039 125.387 194.109 124.949 193.531C124.512 192.953 123.82 192.664 122.875 192.664C122.477 192.664 122.066 192.727 121.645 192.852C121.223 192.969 120.82 193.141 120.438 193.367V199.988C120.719 200.098 121.02 200.168 121.34 200.199C121.66 200.23 121.977 200.246 122.289 200.246C123.406 200.246 124.238 199.922 124.785 199.273C125.332 198.617 125.605 197.633 125.605 196.32ZM146.301 203H142.211V194.949L136.492 203H133V189.84H137.09V197.047L142.387 189.84H146.301V203ZM162.672 203H158.465V198.43H156.578L153.426 203H148.703L152.477 197.844C151.594 197.445 150.922 196.945 150.461 196.344C150.008 195.734 149.781 194.895 149.781 193.824C149.781 193.098 149.922 192.488 150.203 191.996C150.492 191.504 150.879 191.082 151.363 190.73C151.793 190.434 152.297 190.211 152.875 190.062C153.461 189.914 154.113 189.84 154.832 189.84H162.672V203ZM158.465 195.852V192.57H155.969C155.391 192.57 154.938 192.703 154.609 192.969C154.289 193.227 154.129 193.605 154.129 194.105C154.129 194.723 154.289 195.168 154.609 195.441C154.93 195.715 155.406 195.852 156.039 195.852H158.465ZM177.391 192.699H173.195V203H168.977V192.699H164.781V189.84H177.391V192.699ZM192.801 203H188.711V194.949L182.992 203H179.5V189.84H183.59V197.047L188.887 189.84H192.801V203ZM209.172 203H204.965V198.43H203.078L199.926 203H195.203L198.977 197.844C198.094 197.445 197.422 196.945 196.961 196.344C196.508 195.734 196.281 194.895 196.281 193.824C196.281 193.098 196.422 192.488 196.703 191.996C196.992 191.504 197.379 191.082 197.863 190.73C198.293 190.434 198.797 190.211 199.375 190.062C199.961 189.914 200.613 189.84 201.332 189.84H209.172V203ZM204.965 195.852V192.57H202.469C201.891 192.57 201.438 192.703 201.109 192.969C200.789 193.227 200.629 193.605 200.629 194.105C200.629 194.723 200.789 195.168 201.109 195.441C201.43 195.715 201.906 195.852 202.539 195.852H204.965Z" fill="#333333"/>
<path d="M30 239L37.5 246.5L50 231.5" stroke="#61B857" stroke-width="2" stroke-linecap="round" stroke-linejoin="round"/>
<path d="M74.52 233.272C74.52 234.157 74.408 234.963 74.184 235.688C73.96 236.403 73.624 237.021 73.176 237.544C72.7387 238.067 72.1893 238.467 71.528 238.744C70.8773 239.021 70.12 239.16 69.256 239.16C68.36 239.16 67.5813 239.021 66.92 238.744C66.2587 238.456 65.7093 238.056 65.272 237.544C64.8347 237.021 64.5093 236.397 64.296 235.672C64.0827 234.947 63.976 234.141 63.976 233.256C63.976 232.083 64.168 231.059 64.552 230.184C64.936 229.309 65.5173 228.627 66.296 228.136C67.0853 227.645 68.0773 227.4 69.272 227.4C70.4133 227.4 71.3733 227.645 72.152 228.136C72.9307 228.616 73.5173 229.299 73.912 230.184C74.3173 231.059 74.52 232.088 74.52 233.272ZM65.496 233.272C65.496 234.232 65.6293 235.059 65.896 235.752C66.1627 236.445 66.5733 236.979 67.128 237.352C67.6933 237.725 68.4027 237.912 69.256 237.912C70.12 237.912 70.824 237.725 71.368 237.352C71.9227 236.979 72.3333 236.445 72.6 235.752C72.8667 235.059 73 234.232 73 233.272C73 231.832 72.7013 230.707 72.104 229.896C71.5067 229.075 70.5627 228.664 69.272 228.664C68.408 228.664 67.6933 228.851 67.128 229.224C66.5733 229.587 66.1627 230.115 65.896 230.808C65.6293 231.491 65.496 232.312 65.496 233.272ZM80.94 230.264C81.996 230.264 82.844 230.632 83.484 231.368C84.1347 232.104 84.46 233.213 84.46 234.696C84.46 235.667 84.3107 236.488 84.012 237.16C83.724 237.821 83.3133 238.323 82.78 238.664C82.2573 238.995 81.6387 239.16 80.924 239.16C80.4867 239.16 80.0973 239.101 79.756 238.984C79.4147 238.867 79.1213 238.717 78.876 238.536C78.6413 238.344 78.4387 238.136 78.268 237.912H78.172C78.1933 238.093 78.2147 238.323 78.236 238.6C78.2573 238.877 78.268 239.117 78.268 239.32V242.84H76.86V230.424H78.012L78.204 231.592H78.268C78.4387 231.347 78.6413 231.123 78.876 230.92C79.1213 230.717 79.4093 230.557 79.74 230.44C80.0813 230.323 80.4813 230.264 80.94 230.264ZM80.684 231.448C80.108 231.448 79.644 231.56 79.292 231.784C78.94 231.997 78.684 232.323 78.524 232.76C78.364 233.197 78.2787 233.752 78.268 234.424V234.696C78.268 235.4 78.3427 235.997 78.492 236.488C78.6413 236.979 78.892 237.352 79.244 237.608C79.6067 237.864 80.0973 237.992 80.716 237.992C81.2387 237.992 81.6653 237.848 81.996 237.56C82.3373 237.272 82.588 236.883 82.748 236.392C82.9187 235.891 83.004 235.32 83.004 234.68C83.004 233.699 82.812 232.915 82.428 232.328C82.0547 231.741 81.4733 231.448 80.684 231.448ZM91.9358 230.424V231.608H88.1118V239H86.7038V230.424H91.9358ZM96.8736 230.28C97.919 230.28 98.6923 230.509 99.1936 230.968C99.695 231.427 99.9456 232.157 99.9456 233.16V239H98.9216L98.6496 237.784H98.5856C98.3403 238.093 98.0843 238.355 97.8176 238.568C97.5616 238.771 97.263 238.92 96.9216 239.016C96.591 239.112 96.1856 239.16 95.7056 239.16C95.1936 239.16 94.7296 239.069 94.3136 238.888C93.9083 238.707 93.5883 238.429 93.3536 238.056C93.119 237.672 93.0016 237.192 93.0016 236.616C93.0016 235.763 93.3376 235.107 94.0096 234.648C94.6816 234.179 95.7163 233.923 97.1136 233.88L98.5696 233.832V233.32C98.5696 232.605 98.415 232.109 98.1056 231.832C97.7963 231.555 97.359 231.416 96.7936 231.416C96.3456 231.416 95.919 231.485 95.5136 231.624C95.1083 231.752 94.7296 231.901 94.3776 232.072L93.9456 231.016C94.319 230.813 94.7616 230.643 95.2736 230.504C95.7856 230.355 96.319 230.28 96.8736 230.28ZM97.2896 234.856C96.223 234.899 95.4816 235.069 95.0656 235.368C94.6603 235.667 94.4576 236.088 94.4576 236.632C94.4576 237.112 94.6016 237.464 94.8896 237.688C95.1883 237.912 95.567 238.024 96.0256 238.024C96.751 238.024 97.3536 237.827 97.8336 237.432C98.3136 237.027 98.5536 236.408 98.5536 235.576V234.808L97.2896 234.856ZM104.002 230.424V233.992H108.658V230.424H110.066V239H108.658V235.176H104.002V239H102.594V230.424H104.002ZM114.11 235.656C114.11 235.752 114.105 235.891 114.094 236.072C114.094 236.243 114.089 236.429 114.078 236.632C114.067 236.824 114.057 237.011 114.046 237.192C114.035 237.363 114.025 237.501 114.014 237.608L118.606 230.424H120.334V239H119.022V233.944C119.022 233.773 119.022 233.549 119.022 233.272C119.033 232.995 119.043 232.723 119.054 232.456C119.065 232.179 119.075 231.971 119.086 231.832L114.526 239H112.782V230.424H114.11V235.656ZM125.319 230.264C125.97 230.264 126.535 230.355 127.015 230.536C127.495 230.707 127.868 230.963 128.135 231.304C128.402 231.635 128.535 232.04 128.535 232.52C128.535 233.043 128.391 233.459 128.103 233.768C127.815 234.067 127.42 234.285 126.919 234.424V234.488C127.26 234.584 127.575 234.717 127.863 234.888C128.151 235.059 128.38 235.283 128.551 235.56C128.732 235.837 128.823 236.195 128.823 236.632C128.823 237.101 128.69 237.528 128.423 237.912C128.167 238.296 127.767 238.6 127.223 238.824C126.69 239.048 126.002 239.16 125.159 239.16C124.754 239.16 124.364 239.139 123.991 239.096C123.628 239.053 123.298 238.989 122.999 238.904C122.711 238.819 122.455 238.717 122.231 238.6V237.336C122.594 237.507 123.02 237.661 123.511 237.8C124.012 237.939 124.556 238.008 125.143 238.008C125.57 238.008 125.954 237.96 126.295 237.864C126.647 237.768 126.924 237.619 127.127 237.416C127.33 237.203 127.431 236.915 127.431 236.552C127.431 236.221 127.34 235.955 127.159 235.752C126.978 235.539 126.706 235.379 126.343 235.272C125.991 235.165 125.538 235.112 124.983 235.112H123.831V233.96H124.759C125.495 233.96 126.082 233.864 126.519 233.672C126.967 233.469 127.191 233.128 127.191 232.648C127.191 232.243 127.02 231.939 126.679 231.736C126.348 231.533 125.868 231.432 125.239 231.432C124.77 231.432 124.354 231.48 123.991 231.576C123.639 231.661 123.25 231.795 122.823 231.976L122.327 230.856C122.786 230.653 123.266 230.504 123.767 230.408C124.268 230.312 124.786 230.264 125.319 230.264ZM134.155 230.28C135.2 230.28 135.974 230.509 136.475 230.968C136.976 231.427 137.227 232.157 137.227 233.16V239H136.203L135.931 237.784H135.867C135.622 238.093 135.366 238.355 135.099 238.568C134.843 238.771 134.544 238.92 134.203 239.016C133.872 239.112 133.467 239.16 132.987 239.16C132.475 239.16 132.011 239.069 131.595 238.888C131.19 238.707 130.87 238.429 130.635 238.056C130.4 237.672 130.283 237.192 130.283 236.616C130.283 235.763 130.619 235.107 131.291 234.648C131.963 234.179 132.998 233.923 134.395 233.88L135.851 233.832V233.32C135.851 232.605 135.696 232.109 135.387 231.832C135.078 231.555 134.64 231.416 134.075 231.416C133.627 231.416 133.2 231.485 132.795 231.624C132.39 231.752 132.011 231.901 131.659 232.072L131.227 231.016C131.6 230.813 132.043 230.643 132.555 230.504C133.067 230.355 133.6 230.28 134.155 230.28ZM134.571 234.856C133.504 234.899 132.763 235.069 132.347 235.368C131.942 235.667 131.739 236.088 131.739 236.632C131.739 237.112 131.883 237.464 132.171 237.688C132.47 237.912 132.848 238.024 133.307 238.024C134.032 238.024 134.635 237.827 135.115 237.432C135.595 237.027 135.835 236.408 135.835 235.576V234.808L134.571 234.856ZM148.34 241.976H146.964V239H139.876V230.424H141.284V237.816H145.716V230.424H147.124V237.832H148.34V241.976ZM151.313 235.656C151.313 235.752 151.308 235.891 151.297 236.072C151.297 236.243 151.292 236.429 151.281 236.632C151.27 236.824 151.26 237.011 151.249 237.192C151.238 237.363 151.228 237.501 151.217 237.608L155.809 230.424H157.537V239H156.225V233.944C156.225 233.773 156.225 233.549 156.225 233.272C156.236 232.995 156.246 232.723 156.257 232.456C156.268 232.179 156.278 231.971 156.289 231.832L151.729 239H149.985V230.424H151.313V235.656ZM160.794 239H159.162L161.61 235.4C161.28 235.315 160.96 235.181 160.65 235C160.341 234.808 160.09 234.547 159.898 234.216C159.706 233.875 159.61 233.453 159.61 232.952C159.61 232.131 159.888 231.507 160.442 231.08C160.997 230.643 161.733 230.424 162.65 230.424H166.49V239H165.082V235.592H163.002L160.794 239ZM160.97 232.968C160.97 233.459 161.152 233.827 161.514 234.072C161.888 234.307 162.405 234.424 163.066 234.424H165.082V231.592H162.794C162.144 231.592 161.674 231.72 161.386 231.976C161.109 232.232 160.97 232.563 160.97 232.968ZM174.193 239V227.576H180.977V228.84H175.633V232.408H177.329C178.47 232.408 179.355 232.552 179.985 232.84C180.614 233.117 181.051 233.501 181.297 233.992C181.542 234.472 181.665 235.027 181.665 235.656C181.665 236.349 181.526 236.947 181.249 237.448C180.982 237.949 180.545 238.333 179.937 238.6C179.329 238.867 178.529 239 177.537 239H174.193ZM177.393 237.768C178.417 237.768 179.137 237.597 179.553 237.256C179.969 236.904 180.177 236.371 180.177 235.656C180.177 235.165 180.075 234.776 179.873 234.488C179.681 234.189 179.361 233.976 178.913 233.848C178.475 233.72 177.889 233.656 177.153 233.656H175.633V237.768H177.393ZM185.172 235.656C185.172 235.752 185.167 235.891 185.156 236.072C185.156 236.243 185.151 236.429 185.14 236.632C185.13 236.824 185.119 237.011 185.108 237.192C185.098 237.363 185.087 237.501 185.076 237.608L189.668 230.424H191.396V239H190.084V233.944C190.084 233.773 190.084 233.549 190.084 233.272C190.095 232.995 190.106 232.723 190.116 232.456C190.127 232.179 190.138 231.971 190.148 231.832L185.588 239H183.844V230.424H185.172V235.656ZM196.382 230.264C197.032 230.264 197.598 230.355 198.078 230.536C198.558 230.707 198.931 230.963 199.198 231.304C199.464 231.635 199.598 232.04 199.598 232.52C199.598 233.043 199.454 233.459 199.166 233.768C198.878 234.067 198.483 234.285 197.982 234.424V234.488C198.323 234.584 198.638 234.717 198.926 234.888C199.214 235.059 199.443 235.283 199.614 235.56C199.795 235.837 199.886 236.195 199.886 236.632C199.886 237.101 199.752 237.528 199.486 237.912C199.23 238.296 198.83 238.6 198.286 238.824C197.752 239.048 197.064 239.16 196.222 239.16C195.816 239.16 195.427 239.139 195.054 239.096C194.691 239.053 194.36 238.989 194.062 238.904C193.774 238.819 193.518 238.717 193.294 238.6V237.336C193.656 237.507 194.083 237.661 194.574 237.8C195.075 237.939 195.619 238.008 196.206 238.008C196.632 238.008 197.016 237.96 197.358 237.864C197.71 237.768 197.987 237.619 198.19 237.416C198.392 237.203 198.494 236.915 198.494 236.552C198.494 236.221 198.403 235.955 198.222 235.752C198.04 235.539 197.768 235.379 197.406 235.272C197.054 235.165 196.6 235.112 196.046 235.112H194.894V233.96H195.822C196.558 233.96 197.144 233.864 197.582 233.672C198.03 233.469 198.254 233.128 198.254 232.648C198.254 232.243 198.083 231.939 197.742 231.736C197.411 231.533 196.931 231.432 196.302 231.432C195.832 231.432 195.416 231.48 195.054 231.576C194.702 231.661 194.312 231.795 193.886 231.976L193.39 230.856C193.848 230.653 194.328 230.504 194.83 230.408C195.331 230.312 195.848 230.264 196.382 230.264ZM203.377 230.424V233.992H208.033V230.424H209.441V239H208.033V235.176H203.377V239H201.969V230.424H203.377ZM215.469 230.264C216.205 230.264 216.834 230.424 217.357 230.744C217.89 231.064 218.296 231.517 218.573 232.104C218.861 232.68 219.005 233.357 219.005 234.136V234.984H213.133C213.154 235.955 213.4 236.696 213.869 237.208C214.349 237.709 215.016 237.96 215.869 237.96C216.413 237.96 216.893 237.912 217.309 237.816C217.736 237.709 218.173 237.56 218.621 237.368V238.6C218.184 238.792 217.752 238.931 217.325 239.016C216.898 239.112 216.392 239.16 215.805 239.16C214.994 239.16 214.274 238.995 213.645 238.664C213.026 238.333 212.541 237.843 212.189 237.192C211.848 236.531 211.677 235.725 211.677 234.776C211.677 233.837 211.832 233.032 212.141 232.36C212.461 231.688 212.904 231.171 213.469 230.808C214.045 230.445 214.712 230.264 215.469 230.264ZM215.453 231.416C214.781 231.416 214.248 231.635 213.853 232.072C213.469 232.499 213.24 233.096 213.165 233.864H217.533C217.533 233.373 217.458 232.947 217.309 232.584C217.16 232.221 216.93 231.939 216.621 231.736C216.322 231.523 215.933 231.416 215.453 231.416ZM224.628 239.16C223.871 239.16 223.193 239.005 222.596 238.696C222.009 238.387 221.545 237.907 221.204 237.256C220.873 236.605 220.708 235.773 220.708 234.76C220.708 233.704 220.884 232.845 221.236 232.184C221.588 231.523 222.063 231.037 222.66 230.728C223.268 230.419 223.956 230.264 224.724 230.264C225.161 230.264 225.583 230.312 225.988 230.408C226.393 230.493 226.724 230.6 226.98 230.728L226.548 231.896C226.292 231.8 225.993 231.709 225.652 231.624C225.311 231.539 224.991 231.496 224.692 231.496C224.116 231.496 223.641 231.619 223.268 231.864C222.895 232.109 222.617 232.472 222.436 232.952C222.255 233.432 222.164 234.029 222.164 234.744C222.164 235.427 222.255 236.008 222.436 236.488C222.617 236.968 222.889 237.331 223.252 237.576C223.615 237.821 224.068 237.944 224.612 237.944C225.081 237.944 225.492 237.896 225.844 237.8C226.207 237.704 226.537 237.587 226.836 237.448V238.696C226.548 238.845 226.228 238.957 225.876 239.032C225.535 239.117 225.119 239.16 224.628 239.16ZM67.816 246.576C68.7653 246.576 69.56 246.667 70.2 246.848C70.8507 247.029 71.336 247.328 71.656 247.744C71.9867 248.16 72.152 248.715 72.152 249.408C72.152 249.856 72.0667 250.256 71.896 250.608C71.736 250.949 71.4907 251.237 71.16 251.472C70.84 251.696 70.4453 251.851 69.976 251.936V252.016C70.456 252.091 70.888 252.229 71.272 252.432C71.6667 252.635 71.976 252.923 72.2 253.296C72.424 253.669 72.536 254.155 72.536 254.752C72.536 255.445 72.376 256.037 72.056 256.528C71.736 257.008 71.2773 257.376 70.68 257.632C70.0933 257.877 69.3893 258 68.568 258H64.552V246.576H67.816ZM68.104 251.44C69.0853 251.44 69.7573 251.285 70.12 250.976C70.4827 250.656 70.664 250.187 70.664 249.568C70.664 248.939 70.44 248.491 69.992 248.224C69.5547 247.947 68.8507 247.808 67.88 247.808H65.992V251.44H68.104ZM65.992 252.64V256.784H68.296C69.3093 256.784 70.0133 256.587 70.408 256.192C70.8027 255.797 71 255.28 71 254.64C71 254.235 70.9093 253.883 70.728 253.584C70.5573 253.285 70.264 253.056 69.848 252.896C69.4427 252.725 68.888 252.64 68.184 252.64H65.992ZM78.2063 258.16C77.4489 258.16 76.7716 258.005 76.1743 257.696C75.5876 257.387 75.1236 256.907 74.7823 256.256C74.4516 255.605 74.2863 254.773 74.2863 253.76C74.2863 252.704 74.4623 251.845 74.8143 251.184C75.1663 250.523 75.6409 250.037 76.2383 249.728C76.8463 249.419 77.5343 249.264 78.3023 249.264C78.7396 249.264 79.1609 249.312 79.5663 249.408C79.9716 249.493 80.3023 249.6 80.5583 249.728L80.1263 250.896C79.8703 250.8 79.5716 250.709 79.2303 250.624C78.8889 250.539 78.5689 250.496 78.2703 250.496C77.6943 250.496 77.2196 250.619 76.8463 250.864C76.4729 251.109 76.1956 251.472 76.0143 251.952C75.8329 252.432 75.7423 253.029 75.7423 253.744C75.7423 254.427 75.8329 255.008 76.0143 255.488C76.1956 255.968 76.4676 256.331 76.8303 256.576C77.1929 256.821 77.6463 256.944 78.1903 256.944C78.6596 256.944 79.0703 256.896 79.4223 256.8C79.7849 256.704 80.1156 256.587 80.4143 256.448V257.696C80.1263 257.845 79.8063 257.957 79.4543 258.032C79.1129 258.117 78.6969 258.16 78.2063 258.16ZM88.3738 250.608H85.5738V258H84.1818V250.608H81.4138V249.424H88.3738V250.608ZM94.1431 249.264C95.1991 249.264 96.0471 249.632 96.6871 250.368C97.3378 251.104 97.6631 252.213 97.6631 253.696C97.6631 254.667 97.5138 255.488 97.2151 256.16C96.9271 256.821 96.5165 257.323 95.9831 257.664C95.4605 257.995 94.8418 258.16 94.1271 258.16C93.6898 258.16 93.3005 258.101 92.9591 257.984C92.6178 257.867 92.3245 257.717 92.0791 257.536C91.8445 257.344 91.6418 257.136 91.4711 256.912H91.3751C91.3965 257.093 91.4178 257.323 91.4391 257.6C91.4605 257.877 91.4711 258.117 91.4711 258.32V261.84H90.0631V249.424H91.2151L91.4071 250.592H91.4711C91.6418 250.347 91.8445 250.123 92.0791 249.92C92.3245 249.717 92.6125 249.557 92.9431 249.44C93.2845 249.323 93.6845 249.264 94.1431 249.264ZM93.8871 250.448C93.3111 250.448 92.8471 250.56 92.4951 250.784C92.1431 250.997 91.8871 251.323 91.7271 251.76C91.5671 252.197 91.4818 252.752 91.4711 253.424V253.696C91.4711 254.4 91.5458 254.997 91.6951 255.488C91.8445 255.979 92.0951 256.352 92.4471 256.608C92.8098 256.864 93.3005 256.992 93.9191 256.992C94.4418 256.992 94.8685 256.848 95.1991 256.56C95.5405 256.272 95.7911 255.883 95.9511 255.392C96.1218 254.891 96.2071 254.32 96.2071 253.68C96.2071 252.699 96.0151 251.915 95.6311 251.328C95.2578 250.741 94.6765 250.448 93.8871 250.448ZM103.219 249.264C103.955 249.264 104.584 249.424 105.107 249.744C105.64 250.064 106.046 250.517 106.323 251.104C106.611 251.68 106.755 252.357 106.755 253.136V253.984H100.883C100.904 254.955 101.15 255.696 101.619 256.208C102.099 256.709 102.766 256.96 103.619 256.96C104.163 256.96 104.643 256.912 105.059 256.816C105.486 256.709 105.923 256.56 106.371 256.368V257.6C105.934 257.792 105.502 257.931 105.075 258.016C104.648 258.112 104.142 258.16 103.555 258.16C102.744 258.16 102.024 257.995 101.395 257.664C100.776 257.333 100.291 256.843 99.9389 256.192C99.5975 255.531 99.4269 254.725 99.4269 253.776C99.4269 252.837 99.5815 252.032 99.8909 251.36C100.211 250.688 100.654 250.171 101.219 249.808C101.795 249.445 102.462 249.264 103.219 249.264ZM103.203 250.416C102.531 250.416 101.998 250.635 101.603 251.072C101.219 251.499 100.99 252.096 100.915 252.864H105.283C105.283 252.373 105.208 251.947 105.059 251.584C104.91 251.221 104.68 250.939 104.371 250.736C104.072 250.523 103.683 250.416 103.203 250.416ZM110.17 252.544C110.17 253.045 110.309 253.419 110.586 253.664C110.874 253.899 111.285 254.016 111.818 254.016C112.351 254.016 112.837 253.936 113.274 253.776C113.711 253.605 114.159 253.381 114.618 253.104V249.424H116.026V258H114.618V254.176C114.138 254.485 113.663 254.731 113.194 254.912C112.735 255.083 112.181 255.168 111.53 255.168C110.655 255.168 109.973 254.939 109.482 254.48C109.002 254.021 108.762 253.408 108.762 252.64V249.424H110.17V252.544Z" fill="#333333"/>
<path d="M30 293L37.5 300.5L50 285.5" stroke="#61B857" stroke-width="2" stroke-linecap="round" stroke-linejoin="round"/>
<path d="M74.52 287.272C74.52 288.157 74.408 288.963 74.184 289.688C73.96 290.403 73.624 291.021 73.176 291.544C72.7387 292.067 72.1893 292.467 71.528 292.744C70.8773 293.021 70.12 293.16 69.256 293.16C68.36 293.16 67.5813 293.021 66.92 292.744C66.2587 292.456 65.7093 292.056 65.272 291.544C64.8347 291.021 64.5093 290.397 64.296 289.672C64.0827 288.947 63.976 288.141 63.976 287.256C63.976 286.083 64.168 285.059 64.552 284.184C64.936 283.309 65.5173 282.627 66.296 282.136C67.0853 281.645 68.0773 281.4 69.272 281.4C70.4133 281.4 71.3733 281.645 72.152 282.136C72.9307 282.616 73.5173 283.299 73.912 284.184C74.3173 285.059 74.52 286.088 74.52 287.272ZM65.496 287.272C65.496 288.232 65.6293 289.059 65.896 289.752C66.1627 290.445 66.5733 290.979 67.128 291.352C67.6933 291.725 68.4027 291.912 69.256 291.912C70.12 291.912 70.824 291.725 71.368 291.352C71.9227 290.979 72.3333 290.445 72.6 289.752C72.8667 289.059 73 288.232 73 287.272C73 285.832 72.7013 284.707 72.104 283.896C71.5067 283.075 70.5627 282.664 69.272 282.664C68.408 282.664 67.6933 282.851 67.128 283.224C66.5733 283.587 66.1627 284.115 65.896 284.808C65.6293 285.491 65.496 286.312 65.496 287.272ZM80.94 284.264C81.996 284.264 82.844 284.632 83.484 285.368C84.1347 286.104 84.46 287.213 84.46 288.696C84.46 289.667 84.3107 290.488 84.012 291.16C83.724 291.821 83.3133 292.323 82.78 292.664C82.2573 292.995 81.6387 293.16 80.924 293.16C80.4867 293.16 80.0973 293.101 79.756 292.984C79.4147 292.867 79.1213 292.717 78.876 292.536C78.6413 292.344 78.4387 292.136 78.268 291.912H78.172C78.1933 292.093 78.2147 292.323 78.236 292.6C78.2573 292.877 78.268 293.117 78.268 293.32V296.84H76.86V284.424H78.012L78.204 285.592H78.268C78.4387 285.347 78.6413 285.123 78.876 284.92C79.1213 284.717 79.4093 284.557 79.74 284.44C80.0813 284.323 80.4813 284.264 80.94 284.264ZM80.684 285.448C80.108 285.448 79.644 285.56 79.292 285.784C78.94 285.997 78.684 286.323 78.524 286.76C78.364 287.197 78.2787 287.752 78.268 288.424V288.696C78.268 289.4 78.3427 289.997 78.492 290.488C78.6413 290.979 78.892 291.352 79.244 291.608C79.6067 291.864 80.0973 291.992 80.716 291.992C81.2387 291.992 81.6653 291.848 81.996 291.56C82.3373 291.272 82.588 290.883 82.748 290.392C82.9187 289.891 83.004 289.32 83.004 288.68C83.004 287.699 82.812 286.915 82.428 286.328C82.0547 285.741 81.4733 285.448 80.684 285.448ZM91.9358 284.424V285.608H88.1118V293H86.7038V284.424H91.9358ZM96.8736 284.28C97.919 284.28 98.6923 284.509 99.1936 284.968C99.695 285.427 99.9456 286.157 99.9456 287.16V293H98.9216L98.6496 291.784H98.5856C98.3403 292.093 98.0843 292.355 97.8176 292.568C97.5616 292.771 97.263 292.92 96.9216 293.016C96.591 293.112 96.1856 293.16 95.7056 293.16C95.1936 293.16 94.7296 293.069 94.3136 292.888C93.9083 292.707 93.5883 292.429 93.3536 292.056C93.119 291.672 93.0016 291.192 93.0016 290.616C93.0016 289.763 93.3376 289.107 94.0096 288.648C94.6816 288.179 95.7163 287.923 97.1136 287.88L98.5696 287.832V287.32C98.5696 286.605 98.415 286.109 98.1056 285.832C97.7963 285.555 97.359 285.416 96.7936 285.416C96.3456 285.416 95.919 285.485 95.5136 285.624C95.1083 285.752 94.7296 285.901 94.3776 286.072L93.9456 285.016C94.319 284.813 94.7616 284.643 95.2736 284.504C95.7856 284.355 96.319 284.28 96.8736 284.28ZM97.2896 288.856C96.223 288.899 95.4816 289.069 95.0656 289.368C94.6603 289.667 94.4576 290.088 94.4576 290.632C94.4576 291.112 94.6016 291.464 94.8896 291.688C95.1883 291.912 95.567 292.024 96.0256 292.024C96.751 292.024 97.3536 291.827 97.8336 291.432C98.3136 291.027 98.5536 290.408 98.5536 289.576V288.808L97.2896 288.856ZM104.002 284.424V287.992H108.658V284.424H110.066V293H108.658V289.176H104.002V293H102.594V284.424H104.002ZM114.11 289.656C114.11 289.752 114.105 289.891 114.094 290.072C114.094 290.243 114.089 290.429 114.078 290.632C114.067 290.824 114.057 291.011 114.046 291.192C114.035 291.363 114.025 291.501 114.014 291.608L118.606 284.424H120.334V293H119.022V287.944C119.022 287.773 119.022 287.549 119.022 287.272C119.033 286.995 119.043 286.723 119.054 286.456C119.065 286.179 119.075 285.971 119.086 285.832L114.526 293H112.782V284.424H114.11V289.656ZM125.319 284.264C125.97 284.264 126.535 284.355 127.015 284.536C127.495 284.707 127.868 284.963 128.135 285.304C128.402 285.635 128.535 286.04 128.535 286.52C128.535 287.043 128.391 287.459 128.103 287.768C127.815 288.067 127.42 288.285 126.919 288.424V288.488C127.26 288.584 127.575 288.717 127.863 288.888C128.151 289.059 128.38 289.283 128.551 289.56C128.732 289.837 128.823 290.195 128.823 290.632C128.823 291.101 128.69 291.528 128.423 291.912C128.167 292.296 127.767 292.6 127.223 292.824C126.69 293.048 126.002 293.16 125.159 293.16C124.754 293.16 124.364 293.139 123.991 293.096C123.628 293.053 123.298 292.989 122.999 292.904C122.711 292.819 122.455 292.717 122.231 292.6V291.336C122.594 291.507 123.02 291.661 123.511 291.8C124.012 291.939 124.556 292.008 125.143 292.008C125.57 292.008 125.954 291.96 126.295 291.864C126.647 291.768 126.924 291.619 127.127 291.416C127.33 291.203 127.431 290.915 127.431 290.552C127.431 290.221 127.34 289.955 127.159 289.752C126.978 289.539 126.706 289.379 126.343 289.272C125.991 289.165 125.538 289.112 124.983 289.112H123.831V287.96H124.759C125.495 287.96 126.082 287.864 126.519 287.672C126.967 287.469 127.191 287.128 127.191 286.648C127.191 286.243 127.02 285.939 126.679 285.736C126.348 285.533 125.868 285.432 125.239 285.432C124.77 285.432 124.354 285.48 123.991 285.576C123.639 285.661 123.25 285.795 122.823 285.976L122.327 284.856C122.786 284.653 123.266 284.504 123.767 284.408C124.268 284.312 124.786 284.264 125.319 284.264ZM134.155 284.28C135.2 284.28 135.974 284.509 136.475 284.968C136.976 285.427 137.227 286.157 137.227 287.16V293H136.203L135.931 291.784H135.867C135.622 292.093 135.366 292.355 135.099 292.568C134.843 292.771 134.544 292.92 134.203 293.016C133.872 293.112 133.467 293.16 132.987 293.16C132.475 293.16 132.011 293.069 131.595 292.888C131.19 292.707 130.87 292.429 130.635 292.056C130.4 291.672 130.283 291.192 130.283 290.616C130.283 289.763 130.619 289.107 131.291 288.648C131.963 288.179 132.998 287.923 134.395 287.88L135.851 287.832V287.32C135.851 286.605 135.696 286.109 135.387 285.832C135.078 285.555 134.64 285.416 134.075 285.416C133.627 285.416 133.2 285.485 132.795 285.624C132.39 285.752 132.011 285.901 131.659 286.072L131.227 285.016C131.6 284.813 132.043 284.643 132.555 284.504C133.067 284.355 133.6 284.28 134.155 284.28ZM134.571 288.856C133.504 288.899 132.763 289.069 132.347 289.368C131.942 289.667 131.739 290.088 131.739 290.632C131.739 291.112 131.883 291.464 132.171 291.688C132.47 291.912 132.848 292.024 133.307 292.024C134.032 292.024 134.635 291.827 135.115 291.432C135.595 291.027 135.835 290.408 135.835 289.576V288.808L134.571 288.856ZM148.34 295.976H146.964V293H139.876V284.424H141.284V291.816H145.716V284.424H147.124V291.832H148.34V295.976ZM151.313 289.656C151.313 289.752 151.308 289.891 151.297 290.072C151.297 290.243 151.292 290.429 151.281 290.632C151.27 290.824 151.26 291.011 151.249 291.192C151.238 291.363 151.228 291.501 151.217 291.608L155.809 284.424H157.537V293H156.225V287.944C156.225 287.773 156.225 287.549 156.225 287.272C156.236 286.995 156.246 286.723 156.257 286.456C156.268 286.179 156.278 285.971 156.289 285.832L151.729 293H149.985V284.424H151.313V289.656ZM160.794 293H159.162L161.61 289.4C161.28 289.315 160.96 289.181 160.65 289C160.341 288.808 160.09 288.547 159.898 288.216C159.706 287.875 159.61 287.453 159.61 286.952C159.61 286.131 159.888 285.507 160.442 285.08C160.997 284.643 161.733 284.424 162.65 284.424H166.49V293H165.082V289.592H163.002L160.794 293ZM160.97 286.968C160.97 287.459 161.152 287.827 161.514 288.072C161.888 288.307 162.405 288.424 163.066 288.424H165.082V285.592H162.794C162.144 285.592 161.674 285.72 161.386 285.976C161.109 286.232 160.97 286.563 160.97 286.968ZM174.193 293V281.576H180.977V282.84H175.633V286.408H177.329C178.47 286.408 179.355 286.552 179.985 286.84C180.614 287.117 181.051 287.501 181.297 287.992C181.542 288.472 181.665 289.027 181.665 289.656C181.665 290.349 181.526 290.947 181.249 291.448C180.982 291.949 180.545 292.333 179.937 292.6C179.329 292.867 178.529 293 177.537 293H174.193ZM177.393 291.768C178.417 291.768 179.137 291.597 179.553 291.256C179.969 290.904 180.177 290.371 180.177 289.656C180.177 289.165 180.075 288.776 179.873 288.488C179.681 288.189 179.361 287.976 178.913 287.848C178.475 287.72 177.889 287.656 177.153 287.656H175.633V291.768H177.393ZM185.172 289.656C185.172 289.752 185.167 289.891 185.156 290.072C185.156 290.243 185.151 290.429 185.14 290.632C185.13 290.824 185.119 291.011 185.108 291.192C185.098 291.363 185.087 291.501 185.076 291.608L189.668 284.424H191.396V293H190.084V287.944C190.084 287.773 190.084 287.549 190.084 287.272C190.095 286.995 190.106 286.723 190.116 286.456C190.127 286.179 190.138 285.971 190.148 285.832L185.588 293H183.844V284.424H185.172V289.656ZM196.382 284.264C197.032 284.264 197.598 284.355 198.078 284.536C198.558 284.707 198.931 284.963 199.198 285.304C199.464 285.635 199.598 286.04 199.598 286.52C199.598 287.043 199.454 287.459 199.166 287.768C198.878 288.067 198.483 288.285 197.982 288.424V288.488C198.323 288.584 198.638 288.717 198.926 288.888C199.214 289.059 199.443 289.283 199.614 289.56C199.795 289.837 199.886 290.195 199.886 290.632C199.886 291.101 199.752 291.528 199.486 291.912C199.23 292.296 198.83 292.6 198.286 292.824C197.752 293.048 197.064 293.16 196.222 293.16C195.816 293.16 195.427 293.139 195.054 293.096C194.691 293.053 194.36 292.989 194.062 292.904C193.774 292.819 193.518 292.717 193.294 292.6V291.336C193.656 291.507 194.083 291.661 194.574 291.8C195.075 291.939 195.619 292.008 196.206 292.008C196.632 292.008 197.016 291.96 197.358 291.864C197.71 291.768 197.987 291.619 198.19 291.416C198.392 291.203 198.494 290.915 198.494 290.552C198.494 290.221 198.403 289.955 198.222 289.752C198.04 289.539 197.768 289.379 197.406 289.272C197.054 289.165 196.6 289.112 196.046 289.112H194.894V287.96H195.822C196.558 287.96 197.144 287.864 197.582 287.672C198.03 287.469 198.254 287.128 198.254 286.648C198.254 286.243 198.083 285.939 197.742 285.736C197.411 285.533 196.931 285.432 196.302 285.432C195.832 285.432 195.416 285.48 195.054 285.576C194.702 285.661 194.312 285.795 193.886 285.976L193.39 284.856C193.848 284.653 194.328 284.504 194.83 284.408C195.331 284.312 195.848 284.264 196.382 284.264ZM203.377 284.424V287.992H208.033V284.424H209.441V293H208.033V289.176H203.377V293H201.969V284.424H203.377ZM215.469 284.264C216.205 284.264 216.834 284.424 217.357 284.744C217.89 285.064 218.296 285.517 218.573 286.104C218.861 286.68 219.005 287.357 219.005 288.136V288.984H213.133C213.154 289.955 213.4 290.696 213.869 291.208C214.349 291.709 215.016 291.96 215.869 291.96C216.413 291.96 216.893 291.912 217.309 291.816C217.736 291.709 218.173 291.56 218.621 291.368V292.6C218.184 292.792 217.752 292.931 217.325 293.016C216.898 293.112 216.392 293.16 215.805 293.16C214.994 293.16 214.274 292.995 213.645 292.664C213.026 292.333 212.541 291.843 212.189 291.192C211.848 290.531 211.677 289.725 211.677 288.776C211.677 287.837 211.832 287.032 212.141 286.36C212.461 285.688 212.904 285.171 213.469 284.808C214.045 284.445 214.712 284.264 215.469 284.264ZM215.453 285.416C214.781 285.416 214.248 285.635 213.853 286.072C213.469 286.499 213.24 287.096 213.165 287.864H217.533C217.533 287.373 217.458 286.947 217.309 286.584C217.16 286.221 216.93 285.939 216.621 285.736C216.322 285.523 215.933 285.416 215.453 285.416ZM224.628 293.16C223.871 293.16 223.193 293.005 222.596 292.696C222.009 292.387 221.545 291.907 221.204 291.256C220.873 290.605 220.708 289.773 220.708 288.76C220.708 287.704 220.884 286.845 221.236 286.184C221.588 285.523 222.063 285.037 222.66 284.728C223.268 284.419 223.956 284.264 224.724 284.264C225.161 284.264 225.583 284.312 225.988 284.408C226.393 284.493 226.724 284.6 226.98 284.728L226.548 285.896C226.292 285.8 225.993 285.709 225.652 285.624C225.311 285.539 224.991 285.496 224.692 285.496C224.116 285.496 223.641 285.619 223.268 285.864C222.895 286.109 222.617 286.472 222.436 286.952C222.255 287.432 222.164 288.029 222.164 288.744C222.164 289.427 222.255 290.008 222.436 290.488C222.617 290.968 222.889 291.331 223.252 291.576C223.615 291.821 224.068 291.944 224.612 291.944C225.081 291.944 225.492 291.896 225.844 291.8C226.207 291.704 226.537 291.587 226.836 291.448V292.696C226.548 292.845 226.228 292.957 225.876 293.032C225.535 293.117 225.119 293.16 224.628 293.16ZM72.888 312H71.16L65.992 306.208V312H64.552V300.576H65.992V306.112L71.032 300.576H72.664L67.704 306.128L72.888 312ZM81.7066 307.696C81.7066 308.411 81.6106 309.045 81.4186 309.6C81.2373 310.144 80.9706 310.608 80.6186 310.992C80.2773 311.376 79.856 311.669 79.3546 311.872C78.864 312.064 78.3146 312.16 77.7066 312.16C77.1413 312.16 76.6186 312.064 76.1386 311.872C75.6586 311.669 75.2426 311.376 74.8906 310.992C74.5386 310.608 74.2613 310.144 74.0586 309.6C73.8666 309.045 73.7706 308.411 73.7706 307.696C73.7706 306.747 73.9306 305.947 74.2506 305.296C74.5706 304.635 75.0293 304.133 75.6266 303.792C76.224 303.44 76.9333 303.264 77.7546 303.264C78.5333 303.264 79.216 303.44 79.8026 303.792C80.4 304.133 80.864 304.635 81.1946 305.296C81.536 305.947 81.7066 306.747 81.7066 307.696ZM75.2266 307.696C75.2266 308.368 75.312 308.955 75.4826 309.456C75.664 309.947 75.9413 310.325 76.3146 310.592C76.688 310.859 77.1626 310.992 77.7386 310.992C78.3146 310.992 78.7893 310.859 79.1626 310.592C79.536 310.325 79.808 309.947 79.9786 309.456C80.16 308.955 80.2506 308.368 80.2506 307.696C80.2506 307.013 80.16 306.432 79.9786 305.952C79.7973 305.472 79.52 305.104 79.1466 304.848C78.784 304.581 78.3093 304.448 77.7226 304.448C76.848 304.448 76.2133 304.736 75.8186 305.312C75.424 305.888 75.2266 306.683 75.2266 307.696ZM85.3461 303.424V306.992H90.0021V303.424H91.4101V312H90.0021V308.176H85.3461V312H83.9381V303.424H85.3461ZM99.2456 303.296C100.099 303.371 100.84 303.595 101.47 303.968C102.11 304.341 102.606 304.843 102.958 305.472C103.31 306.101 103.486 306.848 103.486 307.712C103.486 308.576 103.315 309.328 102.974 309.968C102.632 310.597 102.147 311.099 101.518 311.472C100.888 311.835 100.131 312.053 99.2456 312.128V315.84H97.8696V312.128C97.027 312.053 96.2856 311.835 95.6456 311.472C95.0056 311.099 94.5096 310.597 94.1576 309.968C93.8056 309.328 93.6296 308.576 93.6296 307.712C93.6296 306.837 93.8003 306.085 94.1416 305.456C94.483 304.816 94.9736 304.315 95.6136 303.952C96.2536 303.579 97.0216 303.36 97.9176 303.296V299.84H99.2456V303.296ZM97.9176 304.464C97.267 304.528 96.7336 304.693 96.3176 304.96C95.9016 305.227 95.5923 305.589 95.3896 306.048C95.1976 306.507 95.1016 307.061 95.1016 307.712C95.1016 308.352 95.1976 308.907 95.3896 309.376C95.5923 309.835 95.9016 310.203 96.3176 310.48C96.7336 310.747 97.267 310.912 97.9176 310.976V304.464ZM99.2456 310.976C99.8856 310.901 100.408 310.731 100.814 310.464C101.23 310.197 101.534 309.835 101.726 309.376C101.928 308.907 102.03 308.352 102.03 307.712C102.03 307.072 101.928 306.523 101.726 306.064C101.523 305.605 101.214 305.243 100.798 304.976C100.392 304.709 99.875 304.544 99.2456 304.48V310.976ZM109.031 303.264C109.767 303.264 110.397 303.424 110.919 303.744C111.453 304.064 111.858 304.517 112.135 305.104C112.423 305.68 112.567 306.357 112.567 307.136V307.984H106.695C106.717 308.955 106.962 309.696 107.431 310.208C107.911 310.709 108.578 310.96 109.431 310.96C109.975 310.96 110.455 310.912 110.871 310.816C111.298 310.709 111.735 310.56 112.183 310.368V311.6C111.746 311.792 111.314 311.931 110.887 312.016C110.461 312.112 109.954 312.16 109.367 312.16C108.557 312.16 107.837 311.995 107.207 311.664C106.589 311.333 106.103 310.843 105.751 310.192C105.41 309.531 105.239 308.725 105.239 307.776C105.239 306.837 105.394 306.032 105.703 305.36C106.023 304.688 106.466 304.171 107.031 303.808C107.607 303.445 108.274 303.264 109.031 303.264ZM109.015 304.416C108.343 304.416 107.81 304.635 107.415 305.072C107.031 305.499 106.802 306.096 106.727 306.864H111.095C111.095 306.373 111.021 305.947 110.871 305.584C110.722 305.221 110.493 304.939 110.183 304.736C109.885 304.523 109.495 304.416 109.015 304.416ZM118.831 303.264C119.887 303.264 120.735 303.632 121.375 304.368C122.025 305.104 122.351 306.213 122.351 307.696C122.351 308.667 122.201 309.488 121.903 310.16C121.615 310.821 121.204 311.323 120.671 311.664C120.148 311.995 119.529 312.16 118.815 312.16C118.377 312.16 117.988 312.101 117.647 311.984C117.305 311.867 117.012 311.717 116.767 311.536C116.532 311.344 116.329 311.136 116.159 310.912H116.063C116.084 311.093 116.105 311.323 116.127 311.6C116.148 311.877 116.159 312.117 116.159 312.32V315.84H114.751V303.424H115.903L116.095 304.592H116.159C116.329 304.347 116.532 304.123 116.767 303.92C117.012 303.717 117.3 303.557 117.631 303.44C117.972 303.323 118.372 303.264 118.831 303.264ZM118.575 304.448C117.999 304.448 117.535 304.56 117.183 304.784C116.831 304.997 116.575 305.323 116.415 305.76C116.255 306.197 116.169 306.752 116.159 307.424V307.696C116.159 308.4 116.233 308.997 116.383 309.488C116.532 309.979 116.783 310.352 117.135 310.608C117.497 310.864 117.988 310.992 118.607 310.992C119.129 310.992 119.556 310.848 119.887 310.56C120.228 310.272 120.479 309.883 120.639 309.392C120.809 308.891 120.895 308.32 120.895 307.68C120.895 306.699 120.703 305.915 120.319 305.328C119.945 304.741 119.364 304.448 118.575 304.448ZM127.906 303.264C128.642 303.264 129.272 303.424 129.794 303.744C130.328 304.064 130.733 304.517 131.01 305.104C131.298 305.68 131.442 306.357 131.442 307.136V307.984H125.57C125.592 308.955 125.837 309.696 126.306 310.208C126.786 310.709 127.453 310.96 128.306 310.96C128.85 310.96 129.33 310.912 129.746 310.816C130.173 310.709 130.61 310.56 131.058 310.368V311.6C130.621 311.792 130.189 311.931 129.762 312.016C129.336 312.112 128.829 312.16 128.242 312.16C127.432 312.16 126.712 311.995 126.082 311.664C125.464 311.333 124.978 310.843 124.626 310.192C124.285 309.531 124.114 308.725 124.114 307.776C124.114 306.837 124.269 306.032 124.578 305.36C124.898 304.688 125.341 304.171 125.906 303.808C126.482 303.445 127.149 303.264 127.906 303.264ZM127.89 304.416C127.218 304.416 126.685 304.635 126.29 305.072C125.906 305.499 125.677 306.096 125.602 306.864H129.97C129.97 306.373 129.896 305.947 129.746 305.584C129.597 305.221 129.368 304.939 129.058 304.736C128.76 304.523 128.37 304.416 127.89 304.416ZM135.034 303.424V306.992H139.69V303.424H141.098V312H139.69V308.176H135.034V312H133.626V303.424H135.034ZM152.277 314.976H150.901V312H143.813V303.424H145.221V310.816H149.653V303.424H151.061V310.832H152.277V314.976ZM155.251 308.656C155.251 308.752 155.245 308.891 155.235 309.072C155.235 309.243 155.229 309.429 155.219 309.632C155.208 309.824 155.197 310.011 155.187 310.192C155.176 310.363 155.165 310.501 155.155 310.608L159.747 303.424H161.475V312H160.163V306.944C160.163 306.773 160.163 306.549 160.163 306.272C160.173 305.995 160.184 305.723 160.195 305.456C160.205 305.179 160.216 304.971 160.227 304.832L155.667 312H153.923V303.424H155.251V308.656ZM171.148 299.872C171.105 300.405 170.972 300.853 170.748 301.216C170.534 301.579 170.214 301.851 169.788 302.032C169.361 302.213 168.806 302.304 168.124 302.304C167.43 302.304 166.87 302.213 166.444 302.032C166.028 301.851 165.724 301.584 165.532 301.232C165.34 300.869 165.222 300.416 165.18 299.872H166.492C166.545 300.448 166.694 300.837 166.94 301.04C167.196 301.232 167.601 301.328 168.156 301.328C168.646 301.328 169.03 301.227 169.308 301.024C169.596 300.811 169.766 300.427 169.82 299.872H171.148ZM165.532 308.656C165.532 308.752 165.526 308.891 165.516 309.072C165.516 309.243 165.51 309.429 165.5 309.632C165.489 309.824 165.478 310.011 165.468 310.192C165.457 310.363 165.446 310.501 165.436 310.608L170.028 303.424H171.756V312H170.444V306.944C170.444 306.773 170.444 306.549 170.444 306.272C170.454 305.995 170.465 305.723 170.476 305.456C170.486 305.179 170.497 304.971 170.508 304.832L165.948 312H164.204V303.424H165.532V308.656Z" fill="#333333"/>
<path d="M30 347L37.5 354.5L50 339.5" stroke="#61B857" stroke-width="2" stroke-linecap="round" stroke-linejoin="round"/>
<path d="M74.52 341.272C74.52 342.157 74.408 342.963 74.184 343.688C73.96 344.403 73.624 345.021 73.176 345.544C72.7387 346.067 72.1893 346.467 71.528 346.744C70.8773 347.021 70.12 347.16 69.256 347.16C68.36 347.16 67.5813 347.021 66.92 346.744C66.2587 346.456 65.7093 346.056 65.272 345.544C64.8347 345.021 64.5093 344.397 64.296 343.672C64.0827 342.947 63.976 342.141 63.976 341.256C63.976 340.083 64.168 339.059 64.552 338.184C64.936 337.309 65.5173 336.627 66.296 336.136C67.0853 335.645 68.0773 335.4 69.272 335.4C70.4133 335.4 71.3733 335.645 72.152 336.136C72.9307 336.616 73.5173 337.299 73.912 338.184C74.3173 339.059 74.52 340.088 74.52 341.272ZM65.496 341.272C65.496 342.232 65.6293 343.059 65.896 343.752C66.1627 344.445 66.5733 344.979 67.128 345.352C67.6933 345.725 68.4027 345.912 69.256 345.912C70.12 345.912 70.824 345.725 71.368 345.352C71.9227 344.979 72.3333 344.445 72.6 343.752C72.8667 343.059 73 342.232 73 341.272C73 339.832 72.7013 338.707 72.104 337.896C71.5067 337.075 70.5627 336.664 69.272 336.664C68.408 336.664 67.6933 336.851 67.128 337.224C66.5733 337.587 66.1627 338.115 65.896 338.808C65.6293 339.491 65.496 340.312 65.496 341.272ZM80.94 338.264C81.996 338.264 82.844 338.632 83.484 339.368C84.1347 340.104 84.46 341.213 84.46 342.696C84.46 343.667 84.3107 344.488 84.012 345.16C83.724 345.821 83.3133 346.323 82.78 346.664C82.2573 346.995 81.6387 347.16 80.924 347.16C80.4867 347.16 80.0973 347.101 79.756 346.984C79.4147 346.867 79.1213 346.717 78.876 346.536C78.6413 346.344 78.4387 346.136 78.268 345.912H78.172C78.1933 346.093 78.2147 346.323 78.236 346.6C78.2573 346.877 78.268 347.117 78.268 347.32V350.84H76.86V338.424H78.012L78.204 339.592H78.268C78.4387 339.347 78.6413 339.123 78.876 338.92C79.1213 338.717 79.4093 338.557 79.74 338.44C80.0813 338.323 80.4813 338.264 80.94 338.264ZM80.684 339.448C80.108 339.448 79.644 339.56 79.292 339.784C78.94 339.997 78.684 340.323 78.524 340.76C78.364 341.197 78.2787 341.752 78.268 342.424V342.696C78.268 343.4 78.3427 343.997 78.492 344.488C78.6413 344.979 78.892 345.352 79.244 345.608C79.6067 345.864 80.0973 345.992 80.716 345.992C81.2387 345.992 81.6653 345.848 81.996 345.56C82.3373 345.272 82.588 344.883 82.748 344.392C82.9187 343.891 83.004 343.32 83.004 342.68C83.004 341.699 82.812 340.915 82.428 340.328C82.0547 339.741 81.4733 339.448 80.684 339.448ZM91.9358 338.424V339.608H88.1118V347H86.7038V338.424H91.9358ZM96.8736 338.28C97.919 338.28 98.6923 338.509 99.1936 338.968C99.695 339.427 99.9456 340.157 99.9456 341.16V347H98.9216L98.6496 345.784H98.5856C98.3403 346.093 98.0843 346.355 97.8176 346.568C97.5616 346.771 97.263 346.92 96.9216 347.016C96.591 347.112 96.1856 347.16 95.7056 347.16C95.1936 347.16 94.7296 347.069 94.3136 346.888C93.9083 346.707 93.5883 346.429 93.3536 346.056C93.119 345.672 93.0016 345.192 93.0016 344.616C93.0016 343.763 93.3376 343.107 94.0096 342.648C94.6816 342.179 95.7163 341.923 97.1136 341.88L98.5696 341.832V341.32C98.5696 340.605 98.415 340.109 98.1056 339.832C97.7963 339.555 97.359 339.416 96.7936 339.416C96.3456 339.416 95.919 339.485 95.5136 339.624C95.1083 339.752 94.7296 339.901 94.3776 340.072L93.9456 339.016C94.319 338.813 94.7616 338.643 95.2736 338.504C95.7856 338.355 96.319 338.28 96.8736 338.28ZM97.2896 342.856C96.223 342.899 95.4816 343.069 95.0656 343.368C94.6603 343.667 94.4576 344.088 94.4576 344.632C94.4576 345.112 94.6016 345.464 94.8896 345.688C95.1883 345.912 95.567 346.024 96.0256 346.024C96.751 346.024 97.3536 345.827 97.8336 345.432C98.3136 345.027 98.5536 344.408 98.5536 343.576V342.808L97.2896 342.856ZM104.002 338.424V341.992H108.658V338.424H110.066V347H108.658V343.176H104.002V347H102.594V338.424H104.002ZM114.11 343.656C114.11 343.752 114.105 343.891 114.094 344.072C114.094 344.243 114.089 344.429 114.078 344.632C114.067 344.824 114.057 345.011 114.046 345.192C114.035 345.363 114.025 345.501 114.014 345.608L118.606 338.424H120.334V347H119.022V341.944C119.022 341.773 119.022 341.549 119.022 341.272C119.033 340.995 119.043 340.723 119.054 340.456C119.065 340.179 119.075 339.971 119.086 339.832L114.526 347H112.782V338.424H114.11V343.656ZM125.319 338.264C125.97 338.264 126.535 338.355 127.015 338.536C127.495 338.707 127.868 338.963 128.135 339.304C128.402 339.635 128.535 340.04 128.535 340.52C128.535 341.043 128.391 341.459 128.103 341.768C127.815 342.067 127.42 342.285 126.919 342.424V342.488C127.26 342.584 127.575 342.717 127.863 342.888C128.151 343.059 128.38 343.283 128.551 343.56C128.732 343.837 128.823 344.195 128.823 344.632C128.823 345.101 128.69 345.528 128.423 345.912C128.167 346.296 127.767 346.6 127.223 346.824C126.69 347.048 126.002 347.16 125.159 347.16C124.754 347.16 124.364 347.139 123.991 347.096C123.628 347.053 123.298 346.989 122.999 346.904C122.711 346.819 122.455 346.717 122.231 346.6V345.336C122.594 345.507 123.02 345.661 123.511 345.8C124.012 345.939 124.556 346.008 125.143 346.008C125.57 346.008 125.954 345.96 126.295 345.864C126.647 345.768 126.924 345.619 127.127 345.416C127.33 345.203 127.431 344.915 127.431 344.552C127.431 344.221 127.34 343.955 127.159 343.752C126.978 343.539 126.706 343.379 126.343 343.272C125.991 343.165 125.538 343.112 124.983 343.112H123.831V341.96H124.759C125.495 341.96 126.082 341.864 126.519 341.672C126.967 341.469 127.191 341.128 127.191 340.648C127.191 340.243 127.02 339.939 126.679 339.736C126.348 339.533 125.868 339.432 125.239 339.432C124.77 339.432 124.354 339.48 123.991 339.576C123.639 339.661 123.25 339.795 122.823 339.976L122.327 338.856C122.786 338.653 123.266 338.504 123.767 338.408C124.268 338.312 124.786 338.264 125.319 338.264ZM134.155 338.28C135.2 338.28 135.974 338.509 136.475 338.968C136.976 339.427 137.227 340.157 137.227 341.16V347H136.203L135.931 345.784H135.867C135.622 346.093 135.366 346.355 135.099 346.568C134.843 346.771 134.544 346.92 134.203 347.016C133.872 347.112 133.467 347.16 132.987 347.16C132.475 347.16 132.011 347.069 131.595 346.888C131.19 346.707 130.87 346.429 130.635 346.056C130.4 345.672 130.283 345.192 130.283 344.616C130.283 343.763 130.619 343.107 131.291 342.648C131.963 342.179 132.998 341.923 134.395 341.88L135.851 341.832V341.32C135.851 340.605 135.696 340.109 135.387 339.832C135.078 339.555 134.64 339.416 134.075 339.416C133.627 339.416 133.2 339.485 132.795 339.624C132.39 339.752 132.011 339.901 131.659 340.072L131.227 339.016C131.6 338.813 132.043 338.643 132.555 338.504C133.067 338.355 133.6 338.28 134.155 338.28ZM134.571 342.856C133.504 342.899 132.763 343.069 132.347 343.368C131.942 343.667 131.739 344.088 131.739 344.632C131.739 345.112 131.883 345.464 132.171 345.688C132.47 345.912 132.848 346.024 133.307 346.024C134.032 346.024 134.635 345.827 135.115 345.432C135.595 345.027 135.835 344.408 135.835 343.576V342.808L134.571 342.856ZM148.34 349.976H146.964V347H139.876V338.424H141.284V345.816H145.716V338.424H147.124V345.832H148.34V349.976ZM151.313 343.656C151.313 343.752 151.308 343.891 151.297 344.072C151.297 344.243 151.292 344.429 151.281 344.632C151.27 344.824 151.26 345.011 151.249 345.192C151.238 345.363 151.228 345.501 151.217 345.608L155.809 338.424H157.537V347H156.225V341.944C156.225 341.773 156.225 341.549 156.225 341.272C156.236 340.995 156.246 340.723 156.257 340.456C156.268 340.179 156.278 339.971 156.289 339.832L151.729 347H149.985V338.424H151.313V343.656ZM160.794 347H159.162L161.61 343.4C161.28 343.315 160.96 343.181 160.65 343C160.341 342.808 160.09 342.547 159.898 342.216C159.706 341.875 159.61 341.453 159.61 340.952C159.61 340.131 159.888 339.507 160.442 339.08C160.997 338.643 161.733 338.424 162.65 338.424H166.49V347H165.082V343.592H163.002L160.794 347ZM160.97 340.968C160.97 341.459 161.152 341.827 161.514 342.072C161.888 342.307 162.405 342.424 163.066 342.424H165.082V339.592H162.794C162.144 339.592 161.674 339.72 161.386 339.976C161.109 340.232 160.97 340.563 160.97 340.968ZM174.193 347V335.576H180.977V336.84H175.633V340.408H177.329C178.47 340.408 179.355 340.552 179.985 340.84C180.614 341.117 181.051 341.501 181.297 341.992C181.542 342.472 181.665 343.027 181.665 343.656C181.665 344.349 181.526 344.947 181.249 345.448C180.982 345.949 180.545 346.333 179.937 346.6C179.329 346.867 178.529 347 177.537 347H174.193ZM177.393 345.768C178.417 345.768 179.137 345.597 179.553 345.256C179.969 344.904 180.177 344.371 180.177 343.656C180.177 343.165 180.075 342.776 179.873 342.488C179.681 342.189 179.361 341.976 178.913 341.848C178.475 341.72 177.889 341.656 177.153 341.656H175.633V345.768H177.393ZM185.172 343.656C185.172 343.752 185.167 343.891 185.156 344.072C185.156 344.243 185.151 344.429 185.14 344.632C185.13 344.824 185.119 345.011 185.108 345.192C185.098 345.363 185.087 345.501 185.076 345.608L189.668 338.424H191.396V347H190.084V341.944C190.084 341.773 190.084 341.549 190.084 341.272C190.095 340.995 190.106 340.723 190.116 340.456C190.127 340.179 190.138 339.971 190.148 339.832L185.588 347H183.844V338.424H185.172V343.656ZM196.382 338.264C197.032 338.264 197.598 338.355 198.078 338.536C198.558 338.707 198.931 338.963 199.198 339.304C199.464 339.635 199.598 340.04 199.598 340.52C199.598 341.043 199.454 341.459 199.166 341.768C198.878 342.067 198.483 342.285 197.982 342.424V342.488C198.323 342.584 198.638 342.717 198.926 342.888C199.214 343.059 199.443 343.283 199.614 343.56C199.795 343.837 199.886 344.195 199.886 344.632C199.886 345.101 199.752 345.528 199.486 345.912C199.23 346.296 198.83 346.6 198.286 346.824C197.752 347.048 197.064 347.16 196.222 347.16C195.816 347.16 195.427 347.139 195.054 347.096C194.691 347.053 194.36 346.989 194.062 346.904C193.774 346.819 193.518 346.717 193.294 346.6V345.336C193.656 345.507 194.083 345.661 194.574 345.8C195.075 345.939 195.619 346.008 196.206 346.008C196.632 346.008 197.016 345.96 197.358 345.864C197.71 345.768 197.987 345.619 198.19 345.416C198.392 345.203 198.494 344.915 198.494 344.552C198.494 344.221 198.403 343.955 198.222 343.752C198.04 343.539 197.768 343.379 197.406 343.272C197.054 343.165 196.6 343.112 196.046 343.112H194.894V341.96H195.822C196.558 341.96 197.144 341.864 197.582 341.672C198.03 341.469 198.254 341.128 198.254 340.648C198.254 340.243 198.083 339.939 197.742 339.736C197.411 339.533 196.931 339.432 196.302 339.432C195.832 339.432 195.416 339.48 195.054 339.576C194.702 339.661 194.312 339.795 193.886 339.976L193.39 338.856C193.848 338.653 194.328 338.504 194.83 338.408C195.331 338.312 195.848 338.264 196.382 338.264ZM203.377 338.424V341.992H208.033V338.424H209.441V347H208.033V343.176H203.377V347H201.969V338.424H203.377ZM215.469 338.264C216.205 338.264 216.834 338.424 217.357 338.744C217.89 339.064 218.296 339.517 218.573 340.104C218.861 340.68 219.005 341.357 219.005 342.136V342.984H213.133C213.154 343.955 213.4 344.696 213.869 345.208C214.349 345.709 215.016 345.96 215.869 345.96C216.413 345.96 216.893 345.912 217.309 345.816C217.736 345.709 218.173 345.56 218.621 345.368V346.6C218.184 346.792 217.752 346.931 217.325 347.016C216.898 347.112 216.392 347.16 215.805 347.16C214.994 347.16 214.274 346.995 213.645 346.664C213.026 346.333 212.541 345.843 212.189 345.192C211.848 344.531 211.677 343.725 211.677 342.776C211.677 341.837 211.832 341.032 212.141 340.36C212.461 339.688 212.904 339.171 213.469 338.808C214.045 338.445 214.712 338.264 215.469 338.264ZM215.453 339.416C214.781 339.416 214.248 339.635 213.853 340.072C213.469 340.499 213.24 341.096 213.165 341.864H217.533C217.533 341.373 217.458 340.947 217.309 340.584C217.16 340.221 216.93 339.939 216.621 339.736C216.322 339.523 215.933 339.416 215.453 339.416ZM224.628 347.16C223.871 347.16 223.193 347.005 222.596 346.696C222.009 346.387 221.545 345.907 221.204 345.256C220.873 344.605 220.708 343.773 220.708 342.76C220.708 341.704 220.884 340.845 221.236 340.184C221.588 339.523 222.063 339.037 222.66 338.728C223.268 338.419 223.956 338.264 224.724 338.264C225.161 338.264 225.583 338.312 225.988 338.408C226.393 338.493 226.724 338.6 226.98 338.728L226.548 339.896C226.292 339.8 225.993 339.709 225.652 339.624C225.311 339.539 224.991 339.496 224.692 339.496C224.116 339.496 223.641 339.619 223.268 339.864C222.895 340.109 222.617 340.472 222.436 340.952C222.255 341.432 222.164 342.029 222.164 342.744C222.164 343.427 222.255 344.008 222.436 344.488C222.617 344.968 222.889 345.331 223.252 345.576C223.615 345.821 224.068 345.944 224.612 345.944C225.081 345.944 225.492 345.896 225.844 345.8C226.207 345.704 226.537 345.587 226.836 345.448V346.696C226.548 346.845 226.228 346.957 225.876 347.032C225.535 347.117 225.119 347.16 224.628 347.16ZM72.888 366H71.16L65.992 360.208V366H64.552V354.576H65.992V360.112L71.032 354.576H72.664L67.704 360.128L72.888 366ZM81.7066 361.696C81.7066 362.411 81.6106 363.045 81.4186 363.6C81.2373 364.144 80.9706 364.608 80.6186 364.992C80.2773 365.376 79.856 365.669 79.3546 365.872C78.864 366.064 78.3146 366.16 77.7066 366.16C77.1413 366.16 76.6186 366.064 76.1386 365.872C75.6586 365.669 75.2426 365.376 74.8906 364.992C74.5386 364.608 74.2613 364.144 74.0586 363.6C73.8666 363.045 73.7706 362.411 73.7706 361.696C73.7706 360.747 73.9306 359.947 74.2506 359.296C74.5706 358.635 75.0293 358.133 75.6266 357.792C76.224 357.44 76.9333 357.264 77.7546 357.264C78.5333 357.264 79.216 357.44 79.8026 357.792C80.4 358.133 80.864 358.635 81.1946 359.296C81.536 359.947 81.7066 360.747 81.7066 361.696ZM75.2266 361.696C75.2266 362.368 75.312 362.955 75.4826 363.456C75.664 363.947 75.9413 364.325 76.3146 364.592C76.688 364.859 77.1626 364.992 77.7386 364.992C78.3146 364.992 78.7893 364.859 79.1626 364.592C79.536 364.325 79.808 363.947 79.9786 363.456C80.16 362.955 80.2506 362.368 80.2506 361.696C80.2506 361.013 80.16 360.432 79.9786 359.952C79.7973 359.472 79.52 359.104 79.1466 358.848C78.784 358.581 78.3093 358.448 77.7226 358.448C76.848 358.448 76.2133 358.736 75.8186 359.312C75.424 359.888 75.2266 360.683 75.2266 361.696ZM85.3461 357.424V360.992H90.0021V357.424H91.4101V366H90.0021V362.176H85.3461V366H83.9381V357.424H85.3461ZM97.5656 366.16C96.8083 366.16 96.131 366.005 95.5336 365.696C94.947 365.387 94.483 364.907 94.1416 364.256C93.811 363.605 93.6456 362.773 93.6456 361.76C93.6456 360.704 93.8216 359.845 94.1736 359.184C94.5256 358.523 95.0003 358.037 95.5976 357.728C96.2056 357.419 96.8936 357.264 97.6616 357.264C98.099 357.264 98.5203 357.312 98.9256 357.408C99.331 357.493 99.6616 357.6 99.9176 357.728L99.4856 358.896C99.2296 358.8 98.931 358.709 98.5896 358.624C98.2483 358.539 97.9283 358.496 97.6296 358.496C97.0536 358.496 96.579 358.619 96.2056 358.864C95.8323 359.109 95.555 359.472 95.3736 359.952C95.1923 360.432 95.1016 361.029 95.1016 361.744C95.1016 362.427 95.1923 363.008 95.3736 363.488C95.555 363.968 95.827 364.331 96.1896 364.576C96.5523 364.821 97.0056 364.944 97.5496 364.944C98.019 364.944 98.4296 364.896 98.7816 364.8C99.1443 364.704 99.475 364.587 99.7736 364.448V365.696C99.4856 365.845 99.1656 365.957 98.8136 366.032C98.4723 366.117 98.0563 366.16 97.5656 366.16ZM100.469 357.424H101.973L103.829 362.304C103.936 362.592 104.032 362.869 104.117 363.136C104.213 363.403 104.298 363.664 104.373 363.92C104.448 364.165 104.506 364.405 104.549 364.64H104.613C104.677 364.373 104.778 364.027 104.917 363.6C105.056 363.163 105.2 362.725 105.349 362.288L107.093 357.424H108.613L104.917 367.184C104.714 367.717 104.474 368.181 104.197 368.576C103.93 368.981 103.6 369.291 103.205 369.504C102.821 369.728 102.352 369.84 101.797 369.84C101.541 369.84 101.317 369.824 101.125 369.792C100.933 369.771 100.768 369.744 100.629 369.712V368.592C100.746 368.613 100.885 368.635 101.045 368.656C101.216 368.677 101.392 368.688 101.573 368.688C101.904 368.688 102.186 368.624 102.421 368.496C102.666 368.379 102.874 368.203 103.045 367.968C103.216 367.744 103.36 367.477 103.477 367.168L103.925 366.032L100.469 357.424ZM116.185 366H114.761V358.592H112.233C112.126 359.947 111.993 361.104 111.833 362.064C111.673 363.013 111.47 363.787 111.225 364.384C110.98 364.981 110.686 365.419 110.345 365.696C110.004 365.973 109.604 366.112 109.145 366.112C109.006 366.112 108.868 366.101 108.729 366.08C108.601 366.069 108.494 366.043 108.409 366V364.944C108.473 364.965 108.542 364.981 108.617 364.992C108.692 365.003 108.766 365.008 108.841 365.008C109.076 365.008 109.289 364.912 109.481 364.72C109.673 364.528 109.844 364.235 109.993 363.84C110.153 363.445 110.297 362.949 110.425 362.352C110.553 361.744 110.665 361.029 110.761 360.208C110.857 359.387 110.942 358.459 111.017 357.424H116.185V366ZM122.859 360.944C123.606 360.944 124.224 361.035 124.715 361.216C125.206 361.397 125.574 361.669 125.819 362.032C126.075 362.384 126.203 362.832 126.203 363.376C126.203 363.909 126.08 364.373 125.835 364.768C125.6 365.163 125.232 365.467 124.731 365.68C124.23 365.893 123.584 366 122.795 366H118.907V357.424H120.315V360.944H122.859ZM124.795 363.456C124.795 362.933 124.608 362.581 124.235 362.4C123.872 362.208 123.36 362.112 122.699 362.112H120.315V364.864H122.731C123.328 364.864 123.819 364.757 124.203 364.544C124.598 364.331 124.795 363.968 124.795 363.456ZM133.53 358.608H130.73V366H129.338V358.608H126.57V357.424H133.53V358.608ZM138.467 357.28C139.513 357.28 140.286 357.509 140.787 357.968C141.289 358.427 141.539 359.157 141.539 360.16V366H140.515L140.243 364.784H140.179C139.934 365.093 139.678 365.355 139.411 365.568C139.155 365.771 138.857 365.92 138.515 366.016C138.185 366.112 137.779 366.16 137.299 366.16C136.787 366.16 136.323 366.069 135.907 365.888C135.502 365.707 135.182 365.429 134.947 365.056C134.713 364.672 134.595 364.192 134.595 363.616C134.595 362.763 134.931 362.107 135.603 361.648C136.275 361.179 137.31 360.923 138.707 360.88L140.163 360.832V360.32C140.163 359.605 140.009 359.109 139.699 358.832C139.39 358.555 138.953 358.416 138.387 358.416C137.939 358.416 137.513 358.485 137.107 358.624C136.702 358.752 136.323 358.901 135.971 359.072L135.539 358.016C135.913 357.813 136.355 357.643 136.867 357.504C137.379 357.355 137.913 357.28 138.467 357.28ZM138.883 361.856C137.817 361.899 137.075 362.069 136.659 362.368C136.254 362.667 136.051 363.088 136.051 363.632C136.051 364.112 136.195 364.464 136.483 364.688C136.782 364.912 137.161 365.024 137.619 365.024C138.345 365.024 138.947 364.827 139.427 364.432C139.907 364.027 140.147 363.408 140.147 362.576V361.808L138.883 361.856ZM152.652 368.976H151.276V366H144.188V357.424H145.596V364.816H150.028V357.424H151.436V364.832H152.652V368.976ZM155.626 362.656C155.626 362.752 155.62 362.891 155.61 363.072C155.61 363.243 155.604 363.429 155.594 363.632C155.583 363.824 155.572 364.011 155.562 364.192C155.551 364.363 155.54 364.501 155.53 364.608L160.122 357.424H161.85V366H160.538V360.944C160.538 360.773 160.538 360.549 160.538 360.272C160.548 359.995 160.559 359.723 160.57 359.456C160.58 359.179 160.591 358.971 160.602 358.832L156.042 366H154.298V357.424H155.626V362.656ZM171.523 353.872C171.48 354.405 171.347 354.853 171.123 355.216C170.909 355.579 170.589 355.851 170.163 356.032C169.736 356.213 169.181 356.304 168.499 356.304C167.805 356.304 167.245 356.213 166.819 356.032C166.403 355.851 166.099 355.584 165.907 355.232C165.715 354.869 165.597 354.416 165.555 353.872H166.867C166.92 354.448 167.069 354.837 167.315 355.04C167.571 355.232 167.976 355.328 168.531 355.328C169.021 355.328 169.405 355.227 169.683 355.024C169.971 354.811 170.141 354.427 170.195 353.872H171.523ZM165.907 362.656C165.907 362.752 165.901 362.891 165.891 363.072C165.891 363.243 165.885 363.429 165.875 363.632C165.864 363.824 165.853 364.011 165.843 364.192C165.832 364.363 165.821 364.501 165.811 364.608L170.403 357.424H172.131V366H170.819V360.944C170.819 360.773 170.819 360.549 170.819 360.272C170.829 359.995 170.84 359.723 170.851 359.456C170.861 359.179 170.872 358.971 170.883 358.832L166.323 366H164.579V357.424H165.907V362.656Z" fill="#333333"/>
<path d="M30 401L37.5 408.5L50 393.5" stroke="#61B857" stroke-width="2" stroke-linecap="round" stroke-linejoin="round"/>
<path d="M74.52 395.272C74.52 396.157 74.408 396.963 74.184 397.688C73.96 398.403 73.624 399.021 73.176 399.544C72.7387 400.067 72.1893 400.467 71.528 400.744C70.8773 401.021 70.12 401.16 69.256 401.16C68.36 401.16 67.5813 401.021 66.92 400.744C66.2587 400.456 65.7093 400.056 65.272 399.544C64.8347 399.021 64.5093 398.397 64.296 397.672C64.0827 396.947 63.976 396.141 63.976 395.256C63.976 394.083 64.168 393.059 64.552 392.184C64.936 391.309 65.5173 390.627 66.296 390.136C67.0853 389.645 68.0773 389.4 69.272 389.4C70.4133 389.4 71.3733 389.645 72.152 390.136C72.9307 390.616 73.5173 391.299 73.912 392.184C74.3173 393.059 74.52 394.088 74.52 395.272ZM65.496 395.272C65.496 396.232 65.6293 397.059 65.896 397.752C66.1627 398.445 66.5733 398.979 67.128 399.352C67.6933 399.725 68.4027 399.912 69.256 399.912C70.12 399.912 70.824 399.725 71.368 399.352C71.9227 398.979 72.3333 398.445 72.6 397.752C72.8667 397.059 73 396.232 73 395.272C73 393.832 72.7013 392.707 72.104 391.896C71.5067 391.075 70.5627 390.664 69.272 390.664C68.408 390.664 67.6933 390.851 67.128 391.224C66.5733 391.587 66.1627 392.115 65.896 392.808C65.6293 393.491 65.496 394.312 65.496 395.272ZM80.94 392.264C81.996 392.264 82.844 392.632 83.484 393.368C84.1347 394.104 84.46 395.213 84.46 396.696C84.46 397.667 84.3107 398.488 84.012 399.16C83.724 399.821 83.3133 400.323 82.78 400.664C82.2573 400.995 81.6387 401.16 80.924 401.16C80.4867 401.16 80.0973 401.101 79.756 400.984C79.4147 400.867 79.1213 400.717 78.876 400.536C78.6413 400.344 78.4387 400.136 78.268 399.912H78.172C78.1933 400.093 78.2147 400.323 78.236 400.6C78.2573 400.877 78.268 401.117 78.268 401.32V404.84H76.86V392.424H78.012L78.204 393.592H78.268C78.4387 393.347 78.6413 393.123 78.876 392.92C79.1213 392.717 79.4093 392.557 79.74 392.44C80.0813 392.323 80.4813 392.264 80.94 392.264ZM80.684 393.448C80.108 393.448 79.644 393.56 79.292 393.784C78.94 393.997 78.684 394.323 78.524 394.76C78.364 395.197 78.2787 395.752 78.268 396.424V396.696C78.268 397.4 78.3427 397.997 78.492 398.488C78.6413 398.979 78.892 399.352 79.244 399.608C79.6067 399.864 80.0973 399.992 80.716 399.992C81.2387 399.992 81.6653 399.848 81.996 399.56C82.3373 399.272 82.588 398.883 82.748 398.392C82.9187 397.891 83.004 397.32 83.004 396.68C83.004 395.699 82.812 394.915 82.428 394.328C82.0547 393.741 81.4733 393.448 80.684 393.448ZM91.9358 392.424V393.608H88.1118V401H86.7038V392.424H91.9358ZM96.8736 392.28C97.919 392.28 98.6923 392.509 99.1936 392.968C99.695 393.427 99.9456 394.157 99.9456 395.16V401H98.9216L98.6496 399.784H98.5856C98.3403 400.093 98.0843 400.355 97.8176 400.568C97.5616 400.771 97.263 400.92 96.9216 401.016C96.591 401.112 96.1856 401.16 95.7056 401.16C95.1936 401.16 94.7296 401.069 94.3136 400.888C93.9083 400.707 93.5883 400.429 93.3536 400.056C93.119 399.672 93.0016 399.192 93.0016 398.616C93.0016 397.763 93.3376 397.107 94.0096 396.648C94.6816 396.179 95.7163 395.923 97.1136 395.88L98.5696 395.832V395.32C98.5696 394.605 98.415 394.109 98.1056 393.832C97.7963 393.555 97.359 393.416 96.7936 393.416C96.3456 393.416 95.919 393.485 95.5136 393.624C95.1083 393.752 94.7296 393.901 94.3776 394.072L93.9456 393.016C94.319 392.813 94.7616 392.643 95.2736 392.504C95.7856 392.355 96.319 392.28 96.8736 392.28ZM97.2896 396.856C96.223 396.899 95.4816 397.069 95.0656 397.368C94.6603 397.667 94.4576 398.088 94.4576 398.632C94.4576 399.112 94.6016 399.464 94.8896 399.688C95.1883 399.912 95.567 400.024 96.0256 400.024C96.751 400.024 97.3536 399.827 97.8336 399.432C98.3136 399.027 98.5536 398.408 98.5536 397.576V396.808L97.2896 396.856ZM104.002 392.424V395.992H108.658V392.424H110.066V401H108.658V397.176H104.002V401H102.594V392.424H104.002ZM114.11 397.656C114.11 397.752 114.105 397.891 114.094 398.072C114.094 398.243 114.089 398.429 114.078 398.632C114.067 398.824 114.057 399.011 114.046 399.192C114.035 399.363 114.025 399.501 114.014 399.608L118.606 392.424H120.334V401H119.022V395.944C119.022 395.773 119.022 395.549 119.022 395.272C119.033 394.995 119.043 394.723 119.054 394.456C119.065 394.179 119.075 393.971 119.086 393.832L114.526 401H112.782V392.424H114.11V397.656ZM125.319 392.264C125.97 392.264 126.535 392.355 127.015 392.536C127.495 392.707 127.868 392.963 128.135 393.304C128.402 393.635 128.535 394.04 128.535 394.52C128.535 395.043 128.391 395.459 128.103 395.768C127.815 396.067 127.42 396.285 126.919 396.424V396.488C127.26 396.584 127.575 396.717 127.863 396.888C128.151 397.059 128.38 397.283 128.551 397.56C128.732 397.837 128.823 398.195 128.823 398.632C128.823 399.101 128.69 399.528 128.423 399.912C128.167 400.296 127.767 400.6 127.223 400.824C126.69 401.048 126.002 401.16 125.159 401.16C124.754 401.16 124.364 401.139 123.991 401.096C123.628 401.053 123.298 400.989 122.999 400.904C122.711 400.819 122.455 400.717 122.231 400.6V399.336C122.594 399.507 123.02 399.661 123.511 399.8C124.012 399.939 124.556 400.008 125.143 400.008C125.57 400.008 125.954 399.96 126.295 399.864C126.647 399.768 126.924 399.619 127.127 399.416C127.33 399.203 127.431 398.915 127.431 398.552C127.431 398.221 127.34 397.955 127.159 397.752C126.978 397.539 126.706 397.379 126.343 397.272C125.991 397.165 125.538 397.112 124.983 397.112H123.831V395.96H124.759C125.495 395.96 126.082 395.864 126.519 395.672C126.967 395.469 127.191 395.128 127.191 394.648C127.191 394.243 127.02 393.939 126.679 393.736C126.348 393.533 125.868 393.432 125.239 393.432C124.77 393.432 124.354 393.48 123.991 393.576C123.639 393.661 123.25 393.795 122.823 393.976L122.327 392.856C122.786 392.653 123.266 392.504 123.767 392.408C124.268 392.312 124.786 392.264 125.319 392.264ZM134.155 392.28C135.2 392.28 135.974 392.509 136.475 392.968C136.976 393.427 137.227 394.157 137.227 395.16V401H136.203L135.931 399.784H135.867C135.622 400.093 135.366 400.355 135.099 400.568C134.843 400.771 134.544 400.92 134.203 401.016C133.872 401.112 133.467 401.16 132.987 401.16C132.475 401.16 132.011 401.069 131.595 400.888C131.19 400.707 130.87 400.429 130.635 400.056C130.4 399.672 130.283 399.192 130.283 398.616C130.283 397.763 130.619 397.107 131.291 396.648C131.963 396.179 132.998 395.923 134.395 395.88L135.851 395.832V395.32C135.851 394.605 135.696 394.109 135.387 393.832C135.078 393.555 134.64 393.416 134.075 393.416C133.627 393.416 133.2 393.485 132.795 393.624C132.39 393.752 132.011 393.901 131.659 394.072L131.227 393.016C131.6 392.813 132.043 392.643 132.555 392.504C133.067 392.355 133.6 392.28 134.155 392.28ZM134.571 396.856C133.504 396.899 132.763 397.069 132.347 397.368C131.942 397.667 131.739 398.088 131.739 398.632C131.739 399.112 131.883 399.464 132.171 399.688C132.47 399.912 132.848 400.024 133.307 400.024C134.032 400.024 134.635 399.827 135.115 399.432C135.595 399.027 135.835 398.408 135.835 397.576V396.808L134.571 396.856ZM148.34 403.976H146.964V401H139.876V392.424H141.284V399.816H145.716V392.424H147.124V399.832H148.34V403.976ZM151.313 397.656C151.313 397.752 151.308 397.891 151.297 398.072C151.297 398.243 151.292 398.429 151.281 398.632C151.27 398.824 151.26 399.011 151.249 399.192C151.238 399.363 151.228 399.501 151.217 399.608L155.809 392.424H157.537V401H156.225V395.944C156.225 395.773 156.225 395.549 156.225 395.272C156.236 394.995 156.246 394.723 156.257 394.456C156.268 394.179 156.278 393.971 156.289 393.832L151.729 401H149.985V392.424H151.313V397.656ZM160.794 401H159.162L161.61 397.4C161.28 397.315 160.96 397.181 160.65 397C160.341 396.808 160.09 396.547 159.898 396.216C159.706 395.875 159.61 395.453 159.61 394.952C159.61 394.131 159.888 393.507 160.442 393.08C160.997 392.643 161.733 392.424 162.65 392.424H166.49V401H165.082V397.592H163.002L160.794 401ZM160.97 394.968C160.97 395.459 161.152 395.827 161.514 396.072C161.888 396.307 162.405 396.424 163.066 396.424H165.082V393.592H162.794C162.144 393.592 161.674 393.72 161.386 393.976C161.109 394.232 160.97 394.563 160.97 394.968ZM174.193 401V389.576H180.977V390.84H175.633V394.408H177.329C178.47 394.408 179.355 394.552 179.985 394.84C180.614 395.117 181.051 395.501 181.297 395.992C181.542 396.472 181.665 397.027 181.665 397.656C181.665 398.349 181.526 398.947 181.249 399.448C180.982 399.949 180.545 400.333 179.937 400.6C179.329 400.867 178.529 401 177.537 401H174.193ZM177.393 399.768C178.417 399.768 179.137 399.597 179.553 399.256C179.969 398.904 180.177 398.371 180.177 397.656C180.177 397.165 180.075 396.776 179.873 396.488C179.681 396.189 179.361 395.976 178.913 395.848C178.475 395.72 177.889 395.656 177.153 395.656H175.633V399.768H177.393ZM185.172 397.656C185.172 397.752 185.167 397.891 185.156 398.072C185.156 398.243 185.151 398.429 185.14 398.632C185.13 398.824 185.119 399.011 185.108 399.192C185.098 399.363 185.087 399.501 185.076 399.608L189.668 392.424H191.396V401H190.084V395.944C190.084 395.773 190.084 395.549 190.084 395.272C190.095 394.995 190.106 394.723 190.116 394.456C190.127 394.179 190.138 393.971 190.148 393.832L185.588 401H183.844V392.424H185.172V397.656ZM196.382 392.264C197.032 392.264 197.598 392.355 198.078 392.536C198.558 392.707 198.931 392.963 199.198 393.304C199.464 393.635 199.598 394.04 199.598 394.52C199.598 395.043 199.454 395.459 199.166 395.768C198.878 396.067 198.483 396.285 197.982 396.424V396.488C198.323 396.584 198.638 396.717 198.926 396.888C199.214 397.059 199.443 397.283 199.614 397.56C199.795 397.837 199.886 398.195 199.886 398.632C199.886 399.101 199.752 399.528 199.486 399.912C199.23 400.296 198.83 400.6 198.286 400.824C197.752 401.048 197.064 401.16 196.222 401.16C195.816 401.16 195.427 401.139 195.054 401.096C194.691 401.053 194.36 400.989 194.062 400.904C193.774 400.819 193.518 400.717 193.294 400.6V399.336C193.656 399.507 194.083 399.661 194.574 399.8C195.075 399.939 195.619 400.008 196.206 400.008C196.632 400.008 197.016 399.96 197.358 399.864C197.71 399.768 197.987 399.619 198.19 399.416C198.392 399.203 198.494 398.915 198.494 398.552C198.494 398.221 198.403 397.955 198.222 397.752C198.04 397.539 197.768 397.379 197.406 397.272C197.054 397.165 196.6 397.112 196.046 397.112H194.894V395.96H195.822C196.558 395.96 197.144 395.864 197.582 395.672C198.03 395.469 198.254 395.128 198.254 394.648C198.254 394.243 198.083 393.939 197.742 393.736C197.411 393.533 196.931 393.432 196.302 393.432C195.832 393.432 195.416 393.48 195.054 393.576C194.702 393.661 194.312 393.795 193.886 393.976L193.39 392.856C193.848 392.653 194.328 392.504 194.83 392.408C195.331 392.312 195.848 392.264 196.382 392.264ZM203.377 392.424V395.992H208.033V392.424H209.441V401H208.033V397.176H203.377V401H201.969V392.424H203.377ZM215.469 392.264C216.205 392.264 216.834 392.424 217.357 392.744C217.89 393.064 218.296 393.517 218.573 394.104C218.861 394.68 219.005 395.357 219.005 396.136V396.984H213.133C213.154 397.955 213.4 398.696 213.869 399.208C214.349 399.709 215.016 399.96 215.869 399.96C216.413 399.96 216.893 399.912 217.309 399.816C217.736 399.709 218.173 399.56 218.621 399.368V400.6C218.184 400.792 217.752 400.931 217.325 401.016C216.898 401.112 216.392 401.16 215.805 401.16C214.994 401.16 214.274 400.995 213.645 400.664C213.026 400.333 212.541 399.843 212.189 399.192C211.848 398.531 211.677 397.725 211.677 396.776C211.677 395.837 211.832 395.032 212.141 394.36C212.461 393.688 212.904 393.171 213.469 392.808C214.045 392.445 214.712 392.264 215.469 392.264ZM215.453 393.416C214.781 393.416 214.248 393.635 213.853 394.072C213.469 394.499 213.24 395.096 213.165 395.864H217.533C217.533 395.373 217.458 394.947 217.309 394.584C217.16 394.221 216.93 393.939 216.621 393.736C216.322 393.523 215.933 393.416 215.453 393.416ZM224.628 401.16C223.871 401.16 223.193 401.005 222.596 400.696C222.009 400.387 221.545 399.907 221.204 399.256C220.873 398.605 220.708 397.773 220.708 396.76C220.708 395.704 220.884 394.845 221.236 394.184C221.588 393.523 222.063 393.037 222.66 392.728C223.268 392.419 223.956 392.264 224.724 392.264C225.161 392.264 225.583 392.312 225.988 392.408C226.393 392.493 226.724 392.6 226.98 392.728L226.548 393.896C226.292 393.8 225.993 393.709 225.652 393.624C225.311 393.539 224.991 393.496 224.692 393.496C224.116 393.496 223.641 393.619 223.268 393.864C222.895 394.109 222.617 394.472 222.436 394.952C222.255 395.432 222.164 396.029 222.164 396.744C222.164 397.427 222.255 398.008 222.436 398.488C222.617 398.968 222.889 399.331 223.252 399.576C223.615 399.821 224.068 399.944 224.612 399.944C225.081 399.944 225.492 399.896 225.844 399.8C226.207 399.704 226.537 399.587 226.836 399.448V400.696C226.548 400.845 226.228 400.957 225.876 401.032C225.535 401.117 225.119 401.16 224.628 401.16ZM64.552 420V408.576H73.128V420H71.704V409.84H65.992V420H64.552ZM83.5191 415.696C83.5191 416.411 83.4231 417.045 83.2311 417.6C83.0498 418.144 82.7831 418.608 82.4311 418.992C82.0898 419.376 81.6685 419.669 81.1671 419.872C80.6765 420.064 80.1271 420.16 79.5191 420.16C78.9538 420.16 78.4311 420.064 77.9511 419.872C77.4711 419.669 77.0551 419.376 76.7031 418.992C76.3511 418.608 76.0738 418.144 75.8711 417.6C75.6791 417.045 75.5831 416.411 75.5831 415.696C75.5831 414.747 75.7431 413.947 76.0631 413.296C76.3831 412.635 76.8418 412.133 77.4391 411.792C78.0365 411.44 78.7458 411.264 79.5671 411.264C80.3458 411.264 81.0285 411.44 81.6151 411.792C82.2125 412.133 82.6765 412.635 83.0071 413.296C83.3485 413.947 83.5191 414.747 83.5191 415.696ZM77.0391 415.696C77.0391 416.368 77.1245 416.955 77.2951 417.456C77.4765 417.947 77.7538 418.325 78.1271 418.592C78.5005 418.859 78.9751 418.992 79.5511 418.992C80.1271 418.992 80.6018 418.859 80.9751 418.592C81.3485 418.325 81.6205 417.947 81.7911 417.456C81.9725 416.955 82.0631 416.368 82.0631 415.696C82.0631 415.013 81.9725 414.432 81.7911 413.952C81.6098 413.472 81.3325 413.104 80.9591 412.848C80.5965 412.581 80.1218 412.448 79.5351 412.448C78.6605 412.448 78.0258 412.736 77.6311 413.312C77.2365 413.888 77.0391 414.683 77.0391 415.696ZM89.0626 411.264C89.7986 411.264 90.428 411.424 90.9506 411.744C91.484 412.064 91.8893 412.517 92.1666 413.104C92.4546 413.68 92.5986 414.357 92.5986 415.136V415.984H86.7266C86.748 416.955 86.9933 417.696 87.4626 418.208C87.9426 418.709 88.6093 418.96 89.4626 418.96C90.0066 418.96 90.4866 418.912 90.9026 418.816C91.3293 418.709 91.7666 418.56 92.2146 418.368V419.6C91.7773 419.792 91.3453 419.931 90.9186 420.016C90.492 420.112 89.9853 420.16 89.3986 420.16C88.588 420.16 87.868 419.995 87.2386 419.664C86.62 419.333 86.1346 418.843 85.7826 418.192C85.4413 417.531 85.2706 416.725 85.2706 415.776C85.2706 414.837 85.4253 414.032 85.7346 413.36C86.0546 412.688 86.4973 412.171 87.0626 411.808C87.6386 411.445 88.3053 411.264 89.0626 411.264ZM89.0466 412.416C88.3746 412.416 87.8413 412.635 87.4466 413.072C87.0626 413.499 86.8333 414.096 86.7586 414.864H91.1266C91.1266 414.373 91.052 413.947 90.9026 413.584C90.7533 413.221 90.524 412.939 90.2146 412.736C89.916 412.523 89.5266 412.416 89.0466 412.416ZM97.0379 411.264C97.6885 411.264 98.2539 411.355 98.7339 411.536C99.2139 411.707 99.5872 411.963 99.8539 412.304C100.121 412.635 100.254 413.04 100.254 413.52C100.254 414.043 100.11 414.459 99.8219 414.768C99.5339 415.067 99.1392 415.285 98.6379 415.424V415.488C98.9792 415.584 99.2939 415.717 99.5819 415.888C99.8699 416.059 100.099 416.283 100.27 416.56C100.451 416.837 100.542 417.195 100.542 417.632C100.542 418.101 100.409 418.528 100.142 418.912C99.8859 419.296 99.4859 419.6 98.9419 419.824C98.4085 420.048 97.7205 420.16 96.8779 420.16C96.4725 420.16 96.0832 420.139 95.7099 420.096C95.3472 420.053 95.0165 419.989 94.7179 419.904C94.4299 419.819 94.1739 419.717 93.9499 419.6V418.336C94.3125 418.507 94.7392 418.661 95.2299 418.8C95.7312 418.939 96.2752 419.008 96.8619 419.008C97.2885 419.008 97.6725 418.96 98.0139 418.864C98.3659 418.768 98.6432 418.619 98.8459 418.416C99.0485 418.203 99.1499 417.915 99.1499 417.552C99.1499 417.221 99.0592 416.955 98.8779 416.752C98.6965 416.539 98.4245 416.379 98.0619 416.272C97.7099 416.165 97.2565 416.112 96.7019 416.112H95.5499V414.96H96.4779C97.2139 414.96 97.8005 414.864 98.2379 414.672C98.6859 414.469 98.9099 414.128 98.9099 413.648C98.9099 413.243 98.7392 412.939 98.3979 412.736C98.0672 412.533 97.5872 412.432 96.9579 412.432C96.4885 412.432 96.0725 412.48 95.7099 412.576C95.3579 412.661 94.9685 412.795 94.5419 412.976L94.0459 411.856C94.5045 411.653 94.9845 411.504 95.4859 411.408C95.9872 411.312 96.5045 411.264 97.0379 411.264ZM108.994 411.424V418.816H110.242V422.976H108.882V420H102.914V422.976H101.57V418.816H102.258C102.748 418.133 103.154 417.392 103.474 416.592C103.804 415.781 104.05 414.939 104.21 414.064C104.38 413.179 104.471 412.299 104.482 411.424H108.994ZM105.73 412.528C105.687 413.253 105.575 414.005 105.394 414.784C105.212 415.552 104.978 416.288 104.69 416.992C104.412 417.696 104.087 418.304 103.714 418.816H107.634V412.528H105.73ZM119.378 415.696C119.378 416.411 119.283 417.045 119.091 417.6C118.909 418.144 118.643 418.608 118.291 418.992C117.949 419.376 117.528 419.669 117.027 419.872C116.536 420.064 115.987 420.16 115.379 420.16C114.813 420.16 114.291 420.064 113.811 419.872C113.331 419.669 112.915 419.376 112.562 418.992C112.211 418.608 111.933 418.144 111.731 417.6C111.539 417.045 111.443 416.411 111.443 415.696C111.443 414.747 111.603 413.947 111.923 413.296C112.243 412.635 112.701 412.133 113.299 411.792C113.896 411.44 114.605 411.264 115.427 411.264C116.205 411.264 116.888 411.44 117.475 411.792C118.072 412.133 118.536 412.635 118.867 413.296C119.208 413.947 119.378 414.747 119.378 415.696ZM112.899 415.696C112.899 416.368 112.984 416.955 113.155 417.456C113.336 417.947 113.613 418.325 113.987 418.592C114.36 418.859 114.835 418.992 115.411 418.992C115.987 418.992 116.461 418.859 116.835 418.592C117.208 418.325 117.48 417.947 117.651 417.456C117.832 416.955 117.923 416.368 117.923 415.696C117.923 415.013 117.832 414.432 117.651 413.952C117.469 413.472 117.192 413.104 116.819 412.848C116.456 412.581 115.981 412.448 115.395 412.448C114.52 412.448 113.885 412.736 113.491 413.312C113.096 413.888 112.899 414.683 112.899 415.696ZM126.682 411.424H128.218L124.554 415.552L128.522 420H126.89L123.018 415.648V420H121.61V411.424H123.018V415.584L126.682 411.424Z" fill="#333333"/>
</g>
<defs>
<filter id="filter0_d_170_4074" x="0" y="0" width="326" height="540" filterUnits="userSpaceOnUse" color-interpolation-filters="sRGB">
<feFlood flood-opacity="0" result="BackgroundImageFix"/>
<feColorMatrix in="SourceAlpha" type="matrix" values="0 0 0 0 0 0 0 0 0 0 0 0 0 0 0 0 0 0 127 0" result="hardAlpha"/>
<feOffset dx="3" dy="5"/>
<feGaussianBlur stdDeviation="10"/>
<feComposite in2="hardAlpha" operator="out"/>
<feColorMatrix type="matrix" values="0 0 0 0 0.2 0 0 0 0 0.2 0 0 0 0 0.2 0 0 0 0.1 0"/>
<feBlend mode="normal" in2="BackgroundImageFix" result="effect1_dropShadow_170_4074"/>
<feBlend mode="normal" in="SourceGraphic" in2="effect1_dropShadow_170_4074" result="shape"/>
</filter>
<filter id="filter1_d_170_4074" x="22" y="28" width="112" height="112" filterUnits="userSpaceOnUse" color-interpolation-filters="sRGB">
<feFlood flood-opacity="0" result="BackgroundImageFix"/>
<feColorMatrix in="SourceAlpha" type="matrix" values="0 0 0 0 0 0 0 0 0 0 0 0 0 0 0 0 0 0 127 0" result="hardAlpha"/>
<feOffset dx="3" dy="3"/>
<feGaussianBlur stdDeviation="3"/>
<feComposite in2="hardAlpha" operator="out"/>
<feColorMatrix type="matrix" values="0 0 0 0 0.2 0 0 0 0 0.2 0 0 0 0 0.2 0 0 0 0.25 0"/>
<feBlend mode="normal" in2="BackgroundImageFix" result="effect1_dropShadow_170_4074"/>
<feBlend mode="normal" in="SourceGraphic" in2="effect1_dropShadow_170_4074" result="shape"/>
</filter>
</defs>
</svg>
