<svg width="273" height="326" viewBox="0 0 273 326" fill="none" xmlns="http://www.w3.org/2000/svg">
<path d="M17.1094 34.3984C17.1094 35.25 16.9453 36.0352 16.6172 36.7539C16.2969 37.4648 15.8555 38.0469 15.293 38.5C14.582 39.0703 13.8398 39.4648 13.0664 39.6836C12.3008 39.8945 11.3711 40 10.2773 40H2.22656V22.5508H15.7852V25.9258H6.70312V29.0547H10.3477C11.5664 29.0547 12.5625 29.1445 13.3359 29.3242C14.1094 29.4961 14.793 29.8164 15.3867 30.2852C15.9883 30.7539 16.4258 31.3477 16.6992 32.0664C16.9727 32.7773 17.1094 33.5547 17.1094 34.3984ZM12.457 34.5273C12.457 34.2383 12.4258 33.9648 12.3633 33.707C12.3008 33.4492 12.1641 33.2109 11.9531 32.9922C11.7422 32.7812 11.4531 32.6133 11.0859 32.4883C10.7188 32.3633 10.2109 32.3008 9.5625 32.3008H6.70312V36.7422H9.5625C10.0547 36.7422 10.4961 36.6797 10.8867 36.5547C11.2852 36.4297 11.5898 36.2695 11.8008 36.0742C12.0117 35.8867 12.1719 35.6641 12.2812 35.4062C12.3984 35.1406 12.457 34.8477 12.457 34.5273ZM33.4805 40H29.3906V31.9492L23.6719 40H20.1797V26.8398H24.2695V34.0469L29.5664 26.8398H33.4805V40ZM48.5156 36.2734C48.5156 37.0234 48.332 37.668 47.9648 38.207C47.5977 38.7383 47.1016 39.1641 46.4766 39.4844C45.8438 39.8047 45.1406 40.0312 44.3672 40.1641C43.5938 40.2969 42.7695 40.3633 41.8945 40.3633C40.7461 40.3633 39.7266 40.2656 38.8359 40.0703C37.9531 39.875 37.0898 39.6328 36.2461 39.3438V36.1445H36.7148C37.332 36.4883 38.0234 36.7891 38.7891 37.0469C39.5547 37.2969 40.3359 37.4219 41.1328 37.4219C41.4297 37.4219 41.7812 37.4023 42.1875 37.3633C42.6016 37.3242 42.9297 37.2578 43.1719 37.1641C43.5 37.0391 43.7461 36.8945 43.9102 36.7305C44.082 36.5664 44.168 36.3047 44.168 35.9453C44.168 35.6094 44.0898 35.3477 43.9336 35.1602C43.7852 34.9727 43.5781 34.8359 43.3125 34.75C43.0859 34.6719 42.7969 34.6211 42.4453 34.5977C42.1016 34.5742 41.6641 34.5625 41.1328 34.5625H39.1172V31.8906H40.7344C41.0469 31.8906 41.418 31.8867 41.8477 31.8789C42.2852 31.8711 42.6289 31.8359 42.8789 31.7734C43.2461 31.6875 43.5078 31.5508 43.6641 31.3633C43.8281 31.1758 43.9102 30.9336 43.9102 30.6367C43.9102 30.3945 43.8281 30.1914 43.6641 30.0273C43.5 29.8633 43.2852 29.7344 43.0195 29.6406C42.793 29.5625 42.5273 29.5039 42.2227 29.4648C41.918 29.4258 41.5977 29.4062 41.2617 29.4062C40.707 29.4062 40.0586 29.5039 39.3164 29.6992C38.582 29.8945 37.9297 30.1367 37.3594 30.4258H36.9023V27.2734C37.3867 27.125 38.1055 26.9531 39.0586 26.7578C40.0195 26.5625 41 26.4648 42 26.4648C42.875 26.4648 43.6719 26.5312 44.3906 26.6641C45.1094 26.7969 45.7461 26.9961 46.3008 27.2617C46.8867 27.5508 47.3594 27.9258 47.7188 28.3867C48.0781 28.8477 48.2578 29.4219 48.2578 30.1094C48.2578 30.8125 48.0156 31.4414 47.5312 31.9961C47.0547 32.5508 46.4805 32.9219 45.8086 33.1094V33.2148C46.582 33.418 47.2266 33.7734 47.7422 34.2812C48.2578 34.7812 48.5156 35.4453 48.5156 36.2734ZM64.875 40H60.6562V34.3867H55.8047V40H51.5859V26.8398H55.8047V31.375H60.6562V26.8398H64.875V40ZM81.8203 34.1992H72.1641C72.2266 35.2305 72.6172 36.0195 73.3359 36.5664C74.0625 37.1133 75.1289 37.3867 76.5352 37.3867C77.4258 37.3867 78.2891 37.2266 79.125 36.9062C79.9609 36.5859 80.6211 36.2422 81.1055 35.875H81.5742V39.2617C80.6211 39.6445 79.7227 39.9219 78.8789 40.0938C78.0352 40.2656 77.1016 40.3516 76.0781 40.3516C73.4375 40.3516 71.4141 39.7578 70.0078 38.5703C68.6016 37.3828 67.8984 35.6914 67.8984 33.4961C67.8984 31.3242 68.5625 29.6055 69.8906 28.3398C71.2266 27.0664 73.0547 26.4297 75.375 26.4297C77.5156 26.4297 79.125 26.9727 80.2031 28.0586C81.2812 29.1367 81.8203 30.6914 81.8203 32.7227V34.1992ZM77.625 31.7266C77.6016 30.8438 77.3828 30.1797 76.9688 29.7344C76.5547 29.2891 75.9102 29.0664 75.0352 29.0664C74.2227 29.0664 73.5547 29.2773 73.0312 29.6992C72.5078 30.1211 72.2148 30.7969 72.1523 31.7266H77.625ZM91.6523 40.3516C90.5039 40.3516 89.4531 40.2148 88.5 39.9414C87.5547 39.668 86.7305 39.2461 86.0273 38.6758C85.332 38.1055 84.793 37.3867 84.4102 36.5195C84.0273 35.6523 83.8359 34.6367 83.8359 33.4727C83.8359 32.2461 84.0391 31.1875 84.4453 30.2969C84.8594 29.4062 85.4336 28.668 86.168 28.082C86.8789 27.5273 87.6992 27.1211 88.6289 26.8633C89.5586 26.6055 90.5234 26.4766 91.5234 26.4766C92.4219 26.4766 93.25 26.5742 94.0078 26.7695C94.7656 26.9648 95.4727 27.2188 96.1289 27.5312V31.1289H95.5312C95.3672 30.9883 95.168 30.8242 94.9336 30.6367C94.707 30.4492 94.4258 30.2656 94.0898 30.0859C93.7695 29.9141 93.418 29.7734 93.0352 29.6641C92.6523 29.5469 92.207 29.4883 91.6992 29.4883C90.5742 29.4883 89.707 29.8477 89.0977 30.5664C88.4961 31.2773 88.1953 32.2461 88.1953 33.4727C88.1953 34.7383 88.5039 35.6992 89.1211 36.3555C89.7461 37.0117 90.6289 37.3398 91.7695 37.3398C92.3008 37.3398 92.7773 37.2812 93.1992 37.1641C93.6289 37.0391 93.9844 36.8945 94.2656 36.7305C94.5312 36.5742 94.7656 36.4102 94.9688 36.2383C95.1719 36.0664 95.3594 35.8984 95.5312 35.7344H96.1289V39.332C95.4648 39.6445 94.7695 39.8906 94.043 40.0703C93.3242 40.2578 92.5273 40.3516 91.6523 40.3516ZM122.965 22.5508L116.613 36.5078C116.246 37.3125 115.824 37.9609 115.348 38.4531C114.871 38.9453 114.379 39.3086 113.871 39.543C113.363 39.7852 112.859 39.9414 112.359 40.0117C111.867 40.082 111.375 40.1172 110.883 40.1172C110.336 40.1172 109.688 40.1016 108.938 40.0703C108.188 40.0469 107.691 40.0234 107.449 40V36.1914H107.719C107.883 36.2383 108.172 36.2891 108.586 36.3438C109 36.3906 109.41 36.4141 109.816 36.4141C110.59 36.4141 111.215 36.3398 111.691 36.1914C112.176 36.043 112.473 35.8477 112.582 35.6055L105.492 22.5508H110.379L114.715 30.8242L118.289 22.5508H122.965ZM138.352 40H134.133V29.6992H129.281V40H125.062V26.8398H138.352V40ZM156.07 33.2383C156.07 34.3242 155.902 35.3125 155.566 36.2031C155.238 37.0938 154.805 37.8281 154.266 38.4062C153.703 39.0156 153.066 39.4766 152.355 39.7891C151.645 40.1016 150.883 40.2578 150.07 40.2578C149.32 40.2578 148.684 40.1758 148.16 40.0117C147.637 39.8555 147.102 39.6328 146.555 39.3438V44.8281H142.336V26.8398H146.555V28.2109C147.203 27.6953 147.863 27.2773 148.535 26.957C149.215 26.6367 149.996 26.4766 150.879 26.4766C152.52 26.4766 153.793 27.0781 154.699 28.2812C155.613 29.4844 156.07 31.1367 156.07 33.2383ZM151.723 33.3203C151.723 32.0391 151.504 31.1094 151.066 30.5312C150.629 29.9531 149.938 29.6641 148.992 29.6641C148.594 29.6641 148.184 29.7266 147.762 29.8516C147.34 29.9688 146.938 30.1406 146.555 30.3672V36.9883C146.836 37.0977 147.137 37.168 147.457 37.1992C147.777 37.2305 148.094 37.2461 148.406 37.2461C149.523 37.2461 150.355 36.9219 150.902 36.2734C151.449 35.6172 151.723 34.6328 151.723 33.3203ZM167.086 36.5664V33.8242C166.516 33.8711 165.898 33.9375 165.234 34.0234C164.57 34.1016 164.066 34.1953 163.723 34.3047C163.301 34.4375 162.977 34.6328 162.75 34.8906C162.531 35.1406 162.422 35.4727 162.422 35.8867C162.422 36.1602 162.445 36.3828 162.492 36.5547C162.539 36.7266 162.656 36.8906 162.844 37.0469C163.023 37.2031 163.238 37.3203 163.488 37.3984C163.738 37.4688 164.129 37.5039 164.66 37.5039C165.082 37.5039 165.508 37.418 165.938 37.2461C166.375 37.0742 166.758 36.8477 167.086 36.5664ZM167.086 38.6055C166.859 38.7773 166.578 38.9844 166.242 39.2266C165.906 39.4688 165.59 39.6602 165.293 39.8008C164.879 39.9883 164.449 40.125 164.004 40.2109C163.559 40.3047 163.07 40.3516 162.539 40.3516C161.289 40.3516 160.242 39.9648 159.398 39.1914C158.555 38.418 158.133 37.4297 158.133 36.2266C158.133 35.2656 158.348 34.4805 158.777 33.8711C159.207 33.2617 159.816 32.7812 160.605 32.4297C161.387 32.0781 162.355 31.8281 163.512 31.6797C164.668 31.5312 165.867 31.4219 167.109 31.3516V31.2812C167.109 30.5547 166.812 30.0547 166.219 29.7812C165.625 29.5 164.75 29.3594 163.594 29.3594C162.898 29.3594 162.156 29.4844 161.367 29.7344C160.578 29.9766 160.012 30.1641 159.668 30.2969H159.281V27.1211C159.727 27.0039 160.449 26.8672 161.449 26.7109C162.457 26.5469 163.465 26.4648 164.473 26.4648C166.871 26.4648 168.602 26.8359 169.664 27.5781C170.734 28.3125 171.27 29.4688 171.27 31.0469V40H167.086V38.6055ZM188.344 36.0273C188.344 36.6602 188.215 37.2227 187.957 37.7148C187.707 38.207 187.371 38.6172 186.949 38.9453C186.418 39.3594 185.855 39.6406 185.262 39.7891C184.676 39.9297 183.977 40 183.164 40H175.148V26.8398H182.824C183.785 26.8398 184.492 26.8711 184.945 26.9336C185.398 26.9961 185.844 27.1484 186.281 27.3906C186.742 27.6406 187.086 27.9727 187.312 28.3867C187.547 28.8008 187.664 29.293 187.664 29.8633C187.664 30.5117 187.477 31.082 187.102 31.5742C186.734 32.0586 186.289 32.4297 185.766 32.6875V32.8164C186.492 32.9961 187.102 33.3594 187.594 33.9062C188.094 34.4453 188.344 35.1523 188.344 36.0273ZM183.41 30.8008C183.41 30.3164 183.262 29.9727 182.965 29.7695C182.676 29.5664 182.207 29.4648 181.559 29.4648H179.332V32.0898H181.629C182.199 32.0898 182.637 31.9766 182.941 31.75C183.254 31.5156 183.41 31.1992 183.41 30.8008ZM183.996 35.8984C183.996 35.3281 183.832 34.9297 183.504 34.7031C183.184 34.4688 182.707 34.3516 182.074 34.3516H179.332V37.3633H182.145C182.723 37.3633 183.176 37.2344 183.504 36.9766C183.832 36.7109 183.996 36.3516 183.996 35.8984ZM204.457 40H200.238V29.7812H196.758C196.734 30.3672 196.715 30.8242 196.699 31.1523C196.691 31.4727 196.68 31.8477 196.664 32.2773C196.609 33.5352 196.504 34.5586 196.348 35.3477C196.191 36.1367 195.992 36.7812 195.75 37.2812C195.516 37.7891 195.262 38.1914 194.988 38.4883C194.723 38.7852 194.453 39.043 194.18 39.2617C193.867 39.5117 193.457 39.7109 192.949 39.8594C192.449 40.0078 191.965 40.082 191.496 40.082C191.129 40.082 190.758 40.0664 190.383 40.0352C190.008 40.0117 189.785 40 189.715 40V36.625H189.844C189.875 36.625 189.93 36.6289 190.008 36.6367C190.086 36.6445 190.164 36.6484 190.242 36.6484C190.445 36.6484 190.652 36.6289 190.863 36.5898C191.082 36.5508 191.262 36.4648 191.402 36.332C191.926 35.832 192.273 35.207 192.445 34.457C192.625 33.6992 192.754 32.582 192.832 31.1055C192.863 30.5586 192.895 29.9336 192.926 29.2305C192.957 28.5273 192.984 27.7305 193.008 26.8398H204.457V40ZM221.414 34.1992H211.758C211.82 35.2305 212.211 36.0195 212.93 36.5664C213.656 37.1133 214.723 37.3867 216.129 37.3867C217.02 37.3867 217.883 37.2266 218.719 36.9062C219.555 36.5859 220.215 36.2422 220.699 35.875H221.168V39.2617C220.215 39.6445 219.316 39.9219 218.473 40.0938C217.629 40.2656 216.695 40.3516 215.672 40.3516C213.031 40.3516 211.008 39.7578 209.602 38.5703C208.195 37.3828 207.492 35.6914 207.492 33.4961C207.492 31.3242 208.156 29.6055 209.484 28.3398C210.82 27.0664 212.648 26.4297 214.969 26.4297C217.109 26.4297 218.719 26.9727 219.797 28.0586C220.875 29.1367 221.414 30.6914 221.414 32.7227V34.1992ZM217.219 31.7266C217.195 30.8438 216.977 30.1797 216.562 29.7344C216.148 29.2891 215.504 29.0664 214.629 29.0664C213.816 29.0664 213.148 29.2773 212.625 29.6992C212.102 30.1211 211.809 30.7969 211.746 31.7266H217.219ZM237.68 40H233.461V34.3867H228.609V40H224.391V26.8398H228.609V31.375H233.461V26.8398H237.68V40ZM254.965 40H250.875V31.9492L245.156 40H241.664V26.8398H245.754V34.0469L251.051 26.8398H254.965V40ZM271.922 34.1992H262.266C262.328 35.2305 262.719 36.0195 263.438 36.5664C264.164 37.1133 265.23 37.3867 266.637 37.3867C267.527 37.3867 268.391 37.2266 269.227 36.9062C270.062 36.5859 270.723 36.2422 271.207 35.875H271.676V39.2617C270.723 39.6445 269.824 39.9219 268.98 40.0938C268.137 40.2656 267.203 40.3516 266.18 40.3516C263.539 40.3516 261.516 39.7578 260.109 38.5703C258.703 37.3828 258 35.6914 258 33.4961C258 31.3242 258.664 29.6055 259.992 28.3398C261.328 27.0664 263.156 26.4297 265.477 26.4297C267.617 26.4297 269.227 26.9727 270.305 28.0586C271.383 29.1367 271.922 30.6914 271.922 32.7227V34.1992ZM267.727 31.7266C267.703 30.8438 267.484 30.1797 267.07 29.7344C266.656 29.2891 266.012 29.0664 265.137 29.0664C264.324 29.0664 263.656 29.2773 263.133 29.6992C262.609 30.1211 262.316 30.7969 262.254 31.7266H267.727Z" fill="#333333"/>
<path d="M5 76L12.5 83.5L25 68.5" stroke="#61B857" stroke-width="2" stroke-linecap="round" stroke-linejoin="round"/>
<path d="M47.888 81.5H46.16L40.992 75.708V81.5H39.552V70.076H40.992V75.612L46.032 70.076H47.664L42.704 75.628L47.888 81.5ZM47.9066 72.924H49.4106L51.2666 77.804C51.3733 78.092 51.4693 78.3693 51.5546 78.636C51.6506 78.9027 51.736 79.164 51.8106 79.42C51.8853 79.6653 51.944 79.9053 51.9866 80.14H52.0506C52.1146 79.8733 52.216 79.5267 52.3546 79.1C52.4933 78.6627 52.6373 78.2253 52.7866 77.788L54.5306 72.924H56.0506L52.3546 82.684C52.152 83.2173 51.912 83.6813 51.6346 84.076C51.368 84.4813 51.0373 84.7907 50.6426 85.004C50.2586 85.228 49.7893 85.34 49.2346 85.34C48.9786 85.34 48.7546 85.324 48.5626 85.292C48.3706 85.2707 48.2053 85.244 48.0666 85.212V84.092C48.184 84.1133 48.3226 84.1347 48.4826 84.156C48.6533 84.1773 48.8293 84.188 49.0106 84.188C49.3413 84.188 49.624 84.124 49.8586 83.996C50.104 83.8787 50.312 83.7027 50.4826 83.468C50.6533 83.244 50.7973 82.9773 50.9146 82.668L51.3626 81.532L47.9066 72.924ZM61.4869 72.764C62.5429 72.764 63.3909 73.132 64.0309 73.868C64.6815 74.604 65.0069 75.7133 65.0069 77.196C65.0069 78.1667 64.8575 78.988 64.5589 79.66C64.2709 80.3213 63.8602 80.8227 63.3269 81.164C62.8042 81.4947 62.1855 81.66 61.4709 81.66C61.0335 81.66 60.6442 81.6013 60.3029 81.484C59.9615 81.3667 59.6682 81.2173 59.4229 81.036C59.1882 80.844 58.9855 80.636 58.8149 80.412H58.7189C58.7402 80.5933 58.7615 80.8227 58.7829 81.1C58.8042 81.3773 58.8149 81.6173 58.8149 81.82V85.34H57.4069V72.924H58.5589L58.7509 74.092H58.8149C58.9855 73.8467 59.1882 73.6227 59.4229 73.42C59.6682 73.2173 59.9562 73.0573 60.2869 72.94C60.6282 72.8227 61.0282 72.764 61.4869 72.764ZM61.2309 73.948C60.6549 73.948 60.1909 74.06 59.8389 74.284C59.4869 74.4973 59.2309 74.8227 59.0709 75.26C58.9109 75.6973 58.8255 76.252 58.8149 76.924V77.196C58.8149 77.9 58.8895 78.4973 59.0389 78.988C59.1882 79.4787 59.4389 79.852 59.7909 80.108C60.1535 80.364 60.6442 80.492 61.2629 80.492C61.7855 80.492 62.2122 80.348 62.5429 80.06C62.8842 79.772 63.1349 79.3827 63.2949 78.892C63.4655 78.3907 63.5509 77.82 63.5509 77.18C63.5509 76.1987 63.3589 75.4147 62.9749 74.828C62.6015 74.2413 62.0202 73.948 61.2309 73.948ZM70.6906 81.66C69.9333 81.66 69.256 81.5053 68.6586 81.196C68.072 80.8867 67.608 80.4067 67.2666 79.756C66.936 79.1053 66.7706 78.2733 66.7706 77.26C66.7706 76.204 66.9466 75.3453 67.2986 74.684C67.6506 74.0227 68.1253 73.5373 68.7226 73.228C69.3306 72.9187 70.0186 72.764 70.7866 72.764C71.224 72.764 71.6453 72.812 72.0506 72.908C72.456 72.9933 72.7866 73.1 73.0426 73.228L72.6106 74.396C72.3546 74.3 72.056 74.2093 71.7146 74.124C71.3733 74.0387 71.0533 73.996 70.7546 73.996C70.1786 73.996 69.704 74.1187 69.3306 74.364C68.9573 74.6093 68.68 74.972 68.4986 75.452C68.3173 75.932 68.2266 76.5293 68.2266 77.244C68.2266 77.9267 68.3173 78.508 68.4986 78.988C68.68 79.468 68.952 79.8307 69.3146 80.076C69.6773 80.3213 70.1306 80.444 70.6746 80.444C71.144 80.444 71.5546 80.396 71.9066 80.3C72.2693 80.204 72.6 80.0867 72.8986 79.948V81.196C72.6106 81.3453 72.2906 81.4573 71.9386 81.532C71.5973 81.6173 71.1813 81.66 70.6906 81.66ZM83.239 72.988C82.8657 72.988 82.5563 72.8653 82.311 72.62C82.0763 72.3747 81.959 72.0227 81.959 71.564C81.959 71.0733 82.0977 70.588 82.375 70.108C82.663 69.628 83.063 69.2547 83.575 68.988L83.943 69.548C83.3883 69.932 83.0577 70.4173 82.951 71.004C83.047 70.9613 83.159 70.94 83.287 70.94C83.5857 70.94 83.831 71.036 84.023 71.228C84.215 71.42 84.311 71.6653 84.311 71.964C84.311 72.2627 84.2097 72.508 84.007 72.7C83.8043 72.892 83.5483 72.988 83.239 72.988ZM80.295 72.988C79.9217 72.988 79.6123 72.8653 79.367 72.62C79.1323 72.3747 79.015 72.0227 79.015 71.564C79.015 71.0733 79.1537 70.588 79.431 70.108C79.719 69.628 80.119 69.2547 80.631 68.988L80.999 69.548C80.4443 69.932 80.1137 70.4173 80.007 71.004C80.103 70.9613 80.215 70.94 80.343 70.94C80.6417 70.94 80.887 71.036 81.079 71.228C81.271 71.42 81.367 71.6653 81.367 71.964C81.367 72.2627 81.2657 72.508 81.063 72.7C80.8603 72.892 80.6043 72.988 80.295 72.988ZM86.5051 81.5V70.076H93.2891V71.34H87.9451V74.908H89.6411C90.7825 74.908 91.6678 75.052 92.2971 75.34C92.9265 75.6173 93.3638 76.0013 93.6091 76.492C93.8545 76.972 93.9771 77.5267 93.9771 78.156C93.9771 78.8493 93.8385 79.4467 93.5611 79.948C93.2945 80.4493 92.8571 80.8333 92.2491 81.1C91.6411 81.3667 90.8411 81.5 89.8491 81.5H86.5051ZM89.7051 80.268C90.7291 80.268 91.4491 80.0973 91.8651 79.756C92.2811 79.404 92.4891 78.8707 92.4891 78.156C92.4891 77.6653 92.3878 77.276 92.1851 76.988C91.9931 76.6893 91.6731 76.476 91.2251 76.348C90.7878 76.22 90.2011 76.156 89.4651 76.156H87.9451V80.268H89.7051ZM97.4849 78.156C97.4849 78.252 97.4795 78.3907 97.4689 78.572C97.4689 78.7427 97.4635 78.9293 97.4529 79.132C97.4422 79.324 97.4315 79.5107 97.4209 79.692C97.4102 79.8627 97.3995 80.0013 97.3889 80.108L101.981 72.924H103.709V81.5H102.397V76.444C102.397 76.2733 102.397 76.0493 102.397 75.772C102.408 75.4947 102.418 75.2227 102.429 74.956C102.44 74.6787 102.45 74.4707 102.461 74.332L97.9009 81.5H96.1569V72.924H97.4849V78.156ZM108.694 72.764C109.345 72.764 109.91 72.8547 110.39 73.036C110.87 73.2067 111.243 73.4627 111.51 73.804C111.777 74.1347 111.91 74.54 111.91 75.02C111.91 75.5427 111.766 75.9587 111.478 76.268C111.19 76.5667 110.795 76.7853 110.294 76.924V76.988C110.635 77.084 110.95 77.2173 111.238 77.388C111.526 77.5587 111.755 77.7827 111.926 78.06C112.107 78.3373 112.198 78.6947 112.198 79.132C112.198 79.6013 112.065 80.028 111.798 80.412C111.542 80.796 111.142 81.1 110.598 81.324C110.065 81.548 109.377 81.66 108.534 81.66C108.129 81.66 107.739 81.6387 107.366 81.596C107.003 81.5533 106.673 81.4893 106.374 81.404C106.086 81.3187 105.83 81.2173 105.606 81.1V79.836C105.969 80.0067 106.395 80.1613 106.886 80.3C107.387 80.4387 107.931 80.508 108.518 80.508C108.945 80.508 109.329 80.46 109.67 80.364C110.022 80.268 110.299 80.1187 110.502 79.916C110.705 79.7027 110.806 79.4147 110.806 79.052C110.806 78.7213 110.715 78.4547 110.534 78.252C110.353 78.0387 110.081 77.8787 109.718 77.772C109.366 77.6653 108.913 77.612 108.358 77.612H107.206V76.46H108.134C108.87 76.46 109.457 76.364 109.894 76.172C110.342 75.9693 110.566 75.628 110.566 75.148C110.566 74.7427 110.395 74.4387 110.054 74.236C109.723 74.0333 109.243 73.932 108.614 73.932C108.145 73.932 107.729 73.98 107.366 74.076C107.014 74.1613 106.625 74.2947 106.198 74.476L105.702 73.356C106.161 73.1533 106.641 73.004 107.142 72.908C107.643 72.812 108.161 72.764 108.694 72.764ZM115.69 72.924V76.492H120.346V72.924H121.754V81.5H120.346V77.676H115.69V81.5H114.282V72.924H115.69ZM127.781 72.764C128.517 72.764 129.147 72.924 129.669 73.244C130.203 73.564 130.608 74.0173 130.885 74.604C131.173 75.18 131.317 75.8573 131.317 76.636V77.484H125.445C125.467 78.4547 125.712 79.196 126.181 79.708C126.661 80.2093 127.328 80.46 128.181 80.46C128.725 80.46 129.205 80.412 129.621 80.316C130.048 80.2093 130.485 80.06 130.933 79.868V81.1C130.496 81.292 130.064 81.4307 129.637 81.516C129.211 81.612 128.704 81.66 128.117 81.66C127.307 81.66 126.587 81.4947 125.957 81.164C125.339 80.8333 124.853 80.3427 124.501 79.692C124.16 79.0307 123.989 78.2253 123.989 77.276C123.989 76.3373 124.144 75.532 124.453 74.86C124.773 74.188 125.216 73.6707 125.781 73.308C126.357 72.9453 127.024 72.764 127.781 72.764ZM127.765 73.916C127.093 73.916 126.56 74.1347 126.165 74.572C125.781 74.9987 125.552 75.596 125.477 76.364H129.845C129.845 75.8733 129.771 75.4467 129.621 75.084C129.472 74.7213 129.243 74.4387 128.933 74.236C128.635 74.0227 128.245 73.916 127.765 73.916ZM136.941 81.66C136.183 81.66 135.506 81.5053 134.909 81.196C134.322 80.8867 133.858 80.4067 133.517 79.756C133.186 79.1053 133.021 78.2733 133.021 77.26C133.021 76.204 133.197 75.3453 133.549 74.684C133.901 74.0227 134.375 73.5373 134.973 73.228C135.581 72.9187 136.269 72.764 137.037 72.764C137.474 72.764 137.895 72.812 138.301 72.908C138.706 72.9933 139.037 73.1 139.293 73.228L138.861 74.396C138.605 74.3 138.306 74.2093 137.965 74.124C137.623 74.0387 137.303 73.996 137.005 73.996C136.429 73.996 135.954 74.1187 135.581 74.364C135.207 74.6093 134.93 74.972 134.749 75.452C134.567 75.932 134.477 76.5293 134.477 77.244C134.477 77.9267 134.567 78.508 134.749 78.988C134.93 79.468 135.202 79.8307 135.565 80.076C135.927 80.3213 136.381 80.444 136.925 80.444C137.394 80.444 137.805 80.396 138.157 80.3C138.519 80.204 138.85 80.0867 139.149 79.948V81.196C138.861 81.3453 138.541 81.4573 138.189 81.532C137.847 81.6173 137.431 81.66 136.941 81.66ZM149.425 81.66C148.668 81.66 147.99 81.5053 147.393 81.196C146.806 80.8867 146.342 80.4067 146.001 79.756C145.67 79.1053 145.505 78.2733 145.505 77.26C145.505 76.204 145.681 75.3453 146.033 74.684C146.385 74.0227 146.86 73.5373 147.457 73.228C148.065 72.9187 148.753 72.764 149.521 72.764C149.958 72.764 150.38 72.812 150.785 72.908C151.19 72.9933 151.521 73.1 151.777 73.228L151.345 74.396C151.089 74.3 150.79 74.2093 150.449 74.124C150.108 74.0387 149.788 73.996 149.489 73.996C148.913 73.996 148.438 74.1187 148.065 74.364C147.692 74.6093 147.414 74.972 147.233 75.452C147.052 75.932 146.961 76.5293 146.961 77.244C146.961 77.9267 147.052 78.508 147.233 78.988C147.414 79.468 147.686 79.8307 148.049 80.076C148.412 80.3213 148.865 80.444 149.409 80.444C149.878 80.444 150.289 80.396 150.641 80.3C151.004 80.204 151.334 80.0867 151.633 79.948V81.196C151.345 81.3453 151.025 81.4573 150.673 81.532C150.332 81.6173 149.916 81.66 149.425 81.66ZM161.893 81.692C160.645 81.692 159.696 81.1853 159.045 80.172C158.395 79.148 158.069 77.7187 158.069 75.884C158.069 74.0387 158.4 72.6147 159.061 71.612C159.733 70.6093 160.688 70.108 161.925 70.108C163.173 70.108 164.123 70.6147 164.773 71.628C165.424 72.6413 165.749 74.0707 165.749 75.916C165.749 77.7613 165.413 79.1853 164.741 80.188C164.08 81.1907 163.131 81.692 161.893 81.692ZM161.909 80.38C162.389 80.38 162.8 80.2413 163.141 79.964C163.493 79.676 163.76 79.2067 163.941 78.556C164.133 77.9053 164.229 77.0307 164.229 75.932C164.229 74.46 164.021 73.34 163.605 72.572C163.2 71.804 162.635 71.42 161.909 71.42C161.429 71.42 161.013 71.564 160.661 71.852C160.32 72.1293 160.053 72.5933 159.861 73.244C159.68 73.884 159.589 74.7587 159.589 75.868C159.589 77.34 159.792 78.46 160.197 79.228C160.613 79.996 161.184 80.38 161.909 80.38ZM171.023 73.468L170.655 72.908C171.21 72.524 171.54 72.0387 171.647 71.452C171.551 71.4947 171.439 71.516 171.311 71.516C171.012 71.516 170.767 71.42 170.575 71.228C170.383 71.036 170.287 70.7907 170.287 70.492C170.287 70.1827 170.388 69.9373 170.591 69.756C170.794 69.564 171.05 69.468 171.359 69.468C171.732 69.468 172.036 69.5907 172.271 69.836C172.516 70.0813 172.639 70.4333 172.639 70.892C172.639 71.3827 172.495 71.868 172.207 72.348C171.93 72.8173 171.535 73.1907 171.023 73.468ZM168.079 73.468L167.711 72.908C168.266 72.524 168.596 72.0387 168.703 71.452C168.607 71.4947 168.495 71.516 168.367 71.516C168.068 71.516 167.823 71.42 167.631 71.228C167.439 71.036 167.343 70.7907 167.343 70.492C167.343 70.1827 167.444 69.9373 167.647 69.756C167.85 69.564 168.106 69.468 168.415 69.468C168.788 69.468 169.092 69.5907 169.327 69.836C169.572 70.0813 169.695 70.4333 169.695 70.892C169.695 71.3827 169.551 71.868 169.263 72.348C168.986 72.8173 168.591 73.1907 168.079 73.468Z" fill="#333333"/>
<path d="M5 122L12.5 129.5L25 114.5" stroke="#61B857" stroke-width="2" stroke-linecap="round" stroke-linejoin="round"/>
<path d="M39.552 127.5V116.076H46.336V117.34H40.992V120.908H42.688C43.8293 120.908 44.7147 121.052 45.344 121.34C45.9733 121.617 46.4107 122.001 46.656 122.492C46.9013 122.972 47.024 123.527 47.024 124.156C47.024 124.849 46.8853 125.447 46.608 125.948C46.3413 126.449 45.904 126.833 45.296 127.1C44.688 127.367 43.888 127.5 42.896 127.5H39.552ZM42.752 126.268C43.776 126.268 44.496 126.097 44.912 125.756C45.328 125.404 45.536 124.871 45.536 124.156C45.536 123.665 45.4347 123.276 45.232 122.988C45.04 122.689 44.72 122.476 44.272 122.348C43.8347 122.22 43.248 122.156 42.512 122.156H40.992V126.268H42.752ZM50.5318 124.156C50.5318 124.252 50.5264 124.391 50.5158 124.572C50.5158 124.743 50.5104 124.929 50.4998 125.132C50.4891 125.324 50.4784 125.511 50.4678 125.692C50.4571 125.863 50.4464 126.001 50.4358 126.108L55.0278 118.924H56.7558V127.5H55.4438V122.444C55.4438 122.273 55.4438 122.049 55.4438 121.772C55.4544 121.495 55.4651 121.223 55.4758 120.956C55.4864 120.679 55.4971 120.471 55.5078 120.332L50.9478 127.5H49.2038V118.924H50.5318V124.156ZM61.741 118.764C62.3917 118.764 62.957 118.855 63.437 119.036C63.917 119.207 64.2903 119.463 64.557 119.804C64.8237 120.135 64.957 120.54 64.957 121.02C64.957 121.543 64.813 121.959 64.525 122.268C64.237 122.567 63.8423 122.785 63.341 122.924V122.988C63.6823 123.084 63.997 123.217 64.285 123.388C64.573 123.559 64.8023 123.783 64.973 124.06C65.1543 124.337 65.245 124.695 65.245 125.132C65.245 125.601 65.1117 126.028 64.845 126.412C64.589 126.796 64.189 127.1 63.645 127.324C63.1117 127.548 62.4237 127.66 61.581 127.66C61.1757 127.66 60.7863 127.639 60.413 127.596C60.0503 127.553 59.7197 127.489 59.421 127.404C59.133 127.319 58.877 127.217 58.653 127.1V125.836C59.0157 126.007 59.4423 126.161 59.933 126.3C60.4343 126.439 60.9783 126.508 61.565 126.508C61.9917 126.508 62.3757 126.46 62.717 126.364C63.069 126.268 63.3463 126.119 63.549 125.916C63.7517 125.703 63.853 125.415 63.853 125.052C63.853 124.721 63.7623 124.455 63.581 124.252C63.3997 124.039 63.1277 123.879 62.765 123.772C62.413 123.665 61.9597 123.612 61.405 123.612H60.253V122.46H61.181C61.917 122.46 62.5037 122.364 62.941 122.172C63.389 121.969 63.613 121.628 63.613 121.148C63.613 120.743 63.4423 120.439 63.101 120.236C62.7703 120.033 62.2903 119.932 61.661 119.932C61.1917 119.932 60.7757 119.98 60.413 120.076C60.061 120.161 59.6717 120.295 59.245 120.476L58.749 119.356C59.2077 119.153 59.6877 119.004 60.189 118.908C60.6903 118.812 61.2077 118.764 61.741 118.764ZM68.7368 118.924V122.492H73.3928V118.924H74.8008V127.5H73.3928V123.676H68.7368V127.5H67.3288V118.924H68.7368ZM80.8283 118.764C81.5643 118.764 82.1936 118.924 82.7163 119.244C83.2496 119.564 83.6549 120.017 83.9323 120.604C84.2203 121.18 84.3643 121.857 84.3643 122.636V123.484H78.4923C78.5136 124.455 78.7589 125.196 79.2283 125.708C79.7083 126.209 80.3749 126.46 81.2283 126.46C81.7723 126.46 82.2523 126.412 82.6683 126.316C83.0949 126.209 83.5323 126.06 83.9803 125.868V127.1C83.5429 127.292 83.1109 127.431 82.6843 127.516C82.2576 127.612 81.7509 127.66 81.1643 127.66C80.3536 127.66 79.6336 127.495 79.0043 127.164C78.3856 126.833 77.9003 126.343 77.5483 125.692C77.2069 125.031 77.0363 124.225 77.0363 123.276C77.0363 122.337 77.1909 121.532 77.5003 120.86C77.8203 120.188 78.2629 119.671 78.8283 119.308C79.4043 118.945 80.0709 118.764 80.8283 118.764ZM80.8123 119.916C80.1403 119.916 79.6069 120.135 79.2123 120.572C78.8283 120.999 78.5989 121.596 78.5243 122.364H82.8923C82.8923 121.873 82.8176 121.447 82.6683 121.084C82.5189 120.721 82.2896 120.439 81.9803 120.236C81.6816 120.023 81.2923 119.916 80.8123 119.916ZM89.9875 127.66C89.2302 127.66 88.5528 127.505 87.9555 127.196C87.3688 126.887 86.9048 126.407 86.5635 125.756C86.2328 125.105 86.0675 124.273 86.0675 123.26C86.0675 122.204 86.2435 121.345 86.5955 120.684C86.9475 120.023 87.4222 119.537 88.0195 119.228C88.6275 118.919 89.3155 118.764 90.0835 118.764C90.5208 118.764 90.9422 118.812 91.3475 118.908C91.7528 118.993 92.0835 119.1 92.3395 119.228L91.9075 120.396C91.6515 120.3 91.3528 120.209 91.0115 120.124C90.6702 120.039 90.3502 119.996 90.0515 119.996C89.4755 119.996 89.0008 120.119 88.6275 120.364C88.2542 120.609 87.9768 120.972 87.7955 121.452C87.6142 121.932 87.5235 122.529 87.5235 123.244C87.5235 123.927 87.6142 124.508 87.7955 124.988C87.9768 125.468 88.2488 125.831 88.6115 126.076C88.9742 126.321 89.4275 126.444 89.9715 126.444C90.4408 126.444 90.8515 126.396 91.2035 126.3C91.5662 126.204 91.8968 126.087 92.1955 125.948V127.196C91.9075 127.345 91.5875 127.457 91.2355 127.532C90.8942 127.617 90.4782 127.66 89.9875 127.66ZM107.56 127.5H105.832L100.664 121.708V127.5H99.2239V116.076H100.664V121.612L105.704 116.076H107.336L102.376 121.628L107.56 127.5ZM116.378 123.196C116.378 123.911 116.283 124.545 116.091 125.1C115.909 125.644 115.643 126.108 115.291 126.492C114.949 126.876 114.528 127.169 114.027 127.372C113.536 127.564 112.987 127.66 112.379 127.66C111.813 127.66 111.291 127.564 110.811 127.372C110.331 127.169 109.915 126.876 109.562 126.492C109.211 126.108 108.933 125.644 108.731 125.1C108.539 124.545 108.443 123.911 108.443 123.196C108.443 122.247 108.603 121.447 108.923 120.796C109.243 120.135 109.701 119.633 110.299 119.292C110.896 118.94 111.605 118.764 112.427 118.764C113.205 118.764 113.888 118.94 114.475 119.292C115.072 119.633 115.536 120.135 115.867 120.796C116.208 121.447 116.378 122.247 116.378 123.196ZM109.899 123.196C109.899 123.868 109.984 124.455 110.155 124.956C110.336 125.447 110.613 125.825 110.987 126.092C111.36 126.359 111.835 126.492 112.411 126.492C112.987 126.492 113.461 126.359 113.835 126.092C114.208 125.825 114.48 125.447 114.651 124.956C114.832 124.455 114.923 123.868 114.923 123.196C114.923 122.513 114.832 121.932 114.651 121.452C114.469 120.972 114.192 120.604 113.819 120.348C113.456 120.081 112.981 119.948 112.395 119.948C111.52 119.948 110.885 120.236 110.491 120.812C110.096 121.388 109.899 122.183 109.899 123.196ZM120.018 118.924V122.492H124.674V118.924H126.082V127.5H124.674V123.676H120.018V127.5H118.61V118.924H120.018ZM132.238 127.66C131.48 127.66 130.803 127.505 130.206 127.196C129.619 126.887 129.155 126.407 128.814 125.756C128.483 125.105 128.318 124.273 128.318 123.26C128.318 122.204 128.494 121.345 128.846 120.684C129.198 120.023 129.672 119.537 130.27 119.228C130.878 118.919 131.566 118.764 132.334 118.764C132.771 118.764 133.192 118.812 133.598 118.908C134.003 118.993 134.334 119.1 134.59 119.228L134.158 120.396C133.902 120.3 133.603 120.209 133.262 120.124C132.92 120.039 132.6 119.996 132.302 119.996C131.726 119.996 131.251 120.119 130.878 120.364C130.504 120.609 130.227 120.972 130.046 121.452C129.864 121.932 129.774 122.529 129.774 123.244C129.774 123.927 129.864 124.508 130.046 124.988C130.227 125.468 130.499 125.831 130.862 126.076C131.224 126.321 131.678 126.444 132.222 126.444C132.691 126.444 133.102 126.396 133.454 126.3C133.816 126.204 134.147 126.087 134.446 125.948V127.196C134.158 127.345 133.838 127.457 133.486 127.532C133.144 127.617 132.728 127.66 132.238 127.66ZM135.141 118.924H136.645L138.501 123.804C138.608 124.092 138.704 124.369 138.789 124.636C138.885 124.903 138.97 125.164 139.045 125.42C139.12 125.665 139.178 125.905 139.221 126.14H139.285C139.349 125.873 139.45 125.527 139.589 125.1C139.728 124.663 139.872 124.225 140.021 123.788L141.765 118.924H143.285L139.589 128.684C139.386 129.217 139.146 129.681 138.869 130.076C138.602 130.481 138.272 130.791 137.877 131.004C137.493 131.228 137.024 131.34 136.469 131.34C136.213 131.34 135.989 131.324 135.797 131.292C135.605 131.271 135.44 131.244 135.301 131.212V130.092C135.418 130.113 135.557 130.135 135.717 130.156C135.888 130.177 136.064 130.188 136.245 130.188C136.576 130.188 136.858 130.124 137.093 129.996C137.338 129.879 137.546 129.703 137.717 129.468C137.888 129.244 138.032 128.977 138.149 128.668L138.597 127.532L135.141 118.924ZM150.857 127.5H149.433V120.092H146.905C146.798 121.447 146.665 122.604 146.505 123.564C146.345 124.513 146.142 125.287 145.897 125.884C145.651 126.481 145.358 126.919 145.017 127.196C144.675 127.473 144.275 127.612 143.817 127.612C143.678 127.612 143.539 127.601 143.401 127.58C143.273 127.569 143.166 127.543 143.081 127.5V126.444C143.145 126.465 143.214 126.481 143.289 126.492C143.363 126.503 143.438 126.508 143.513 126.508C143.747 126.508 143.961 126.412 144.153 126.22C144.345 126.028 144.515 125.735 144.665 125.34C144.825 124.945 144.969 124.449 145.097 123.852C145.225 123.244 145.337 122.529 145.433 121.708C145.529 120.887 145.614 119.959 145.689 118.924H150.857V127.5ZM157.531 122.444C158.277 122.444 158.896 122.535 159.387 122.716C159.877 122.897 160.245 123.169 160.491 123.532C160.747 123.884 160.875 124.332 160.875 124.876C160.875 125.409 160.752 125.873 160.507 126.268C160.272 126.663 159.904 126.967 159.403 127.18C158.901 127.393 158.256 127.5 157.467 127.5H153.579V118.924H154.987V122.444H157.531ZM159.467 124.956C159.467 124.433 159.28 124.081 158.907 123.9C158.544 123.708 158.032 123.612 157.371 123.612H154.987V126.364H157.403C158 126.364 158.491 126.257 158.875 126.044C159.269 125.831 159.467 125.468 159.467 124.956ZM168.202 120.108H165.402V127.5H164.01V120.108H161.242V118.924H168.202V120.108ZM173.139 118.78C174.185 118.78 174.958 119.009 175.459 119.468C175.961 119.927 176.211 120.657 176.211 121.66V127.5H175.187L174.915 126.284H174.851C174.606 126.593 174.35 126.855 174.083 127.068C173.827 127.271 173.529 127.42 173.187 127.516C172.857 127.612 172.451 127.66 171.971 127.66C171.459 127.66 170.995 127.569 170.579 127.388C170.174 127.207 169.854 126.929 169.619 126.556C169.385 126.172 169.267 125.692 169.267 125.116C169.267 124.263 169.603 123.607 170.275 123.148C170.947 122.679 171.982 122.423 173.379 122.38L174.835 122.332V121.82C174.835 121.105 174.681 120.609 174.371 120.332C174.062 120.055 173.625 119.916 173.059 119.916C172.611 119.916 172.185 119.985 171.779 120.124C171.374 120.252 170.995 120.401 170.643 120.572L170.211 119.516C170.585 119.313 171.027 119.143 171.539 119.004C172.051 118.855 172.585 118.78 173.139 118.78ZM173.555 123.356C172.489 123.399 171.747 123.569 171.331 123.868C170.926 124.167 170.723 124.588 170.723 125.132C170.723 125.612 170.867 125.964 171.155 126.188C171.454 126.412 171.833 126.524 172.291 126.524C173.017 126.524 173.619 126.327 174.099 125.932C174.579 125.527 174.819 124.908 174.819 124.076V123.308L173.555 123.356ZM187.324 130.476H185.948V127.5H178.86V118.924H180.268V126.316H184.7V118.924H186.108V126.332H187.324V130.476ZM190.297 124.156C190.297 124.252 190.292 124.391 190.281 124.572C190.281 124.743 190.276 124.929 190.265 125.132C190.255 125.324 190.244 125.511 190.233 125.692C190.223 125.863 190.212 126.001 190.201 126.108L194.793 118.924H196.521V127.5H195.209V122.444C195.209 122.273 195.209 122.049 195.209 121.772C195.22 121.495 195.231 121.223 195.241 120.956C195.252 120.679 195.263 120.471 195.273 120.332L190.713 127.5H188.969V118.924H190.297V124.156ZM200.579 124.156C200.579 124.252 200.573 124.391 200.563 124.572C200.563 124.743 200.557 124.929 200.547 125.132C200.536 125.324 200.525 125.511 200.515 125.692C200.504 125.863 200.493 126.001 200.483 126.108L205.075 118.924H206.803V127.5H205.491V122.444C205.491 122.273 205.491 122.049 205.491 121.772C205.501 121.495 205.512 121.223 205.523 120.956C205.533 120.679 205.544 120.471 205.555 120.332L200.995 127.5H199.251V118.924H200.579V124.156Z" fill="#333333"/>
<path d="M5 168L12.5 175.5L25 160.5" stroke="#61B857" stroke-width="2" stroke-linecap="round" stroke-linejoin="round"/>
<path d="M44.448 157.68C43.84 157.68 43.2907 157.787 42.8 158C42.3093 158.203 41.8933 158.507 41.552 158.912C41.2107 159.307 40.9493 159.792 40.768 160.368C40.5867 160.933 40.496 161.573 40.496 162.288C40.496 163.227 40.64 164.043 40.928 164.736C41.2267 165.429 41.664 165.963 42.24 166.336C42.8267 166.709 43.5573 166.896 44.432 166.896C44.9333 166.896 45.408 166.853 45.856 166.768C46.304 166.683 46.7413 166.576 47.168 166.448V167.696C46.7413 167.856 46.2987 167.973 45.84 168.048C45.392 168.123 44.8533 168.16 44.224 168.16C43.0613 168.16 42.0907 167.92 41.312 167.44C40.5333 166.96 39.9467 166.277 39.552 165.392C39.168 164.507 38.976 163.467 38.976 162.272C38.976 161.408 39.0933 160.619 39.328 159.904C39.5733 159.189 39.9253 158.571 40.384 158.048C40.8533 157.525 41.4293 157.125 42.112 156.848C42.7947 156.56 43.5787 156.416 44.464 156.416C45.0507 156.416 45.616 156.475 46.16 156.592C46.704 156.709 47.1893 156.875 47.616 157.088L47.04 158.304C46.688 158.144 46.2933 158 45.856 157.872C45.4293 157.744 44.96 157.68 44.448 157.68ZM56.9254 163.696C56.9254 164.411 56.8294 165.045 56.6374 165.6C56.456 166.144 56.1894 166.608 55.8374 166.992C55.496 167.376 55.0747 167.669 54.5734 167.872C54.0827 168.064 53.5334 168.16 52.9254 168.16C52.36 168.16 51.8374 168.064 51.3574 167.872C50.8774 167.669 50.4614 167.376 50.1094 166.992C49.7574 166.608 49.48 166.144 49.2774 165.6C49.0854 165.045 48.9894 164.411 48.9894 163.696C48.9894 162.747 49.1494 161.947 49.4694 161.296C49.7894 160.635 50.248 160.133 50.8454 159.792C51.4427 159.44 52.152 159.264 52.9734 159.264C53.752 159.264 54.4347 159.44 55.0214 159.792C55.6187 160.133 56.0827 160.635 56.4134 161.296C56.7547 161.947 56.9254 162.747 56.9254 163.696ZM50.4454 163.696C50.4454 164.368 50.5307 164.955 50.7014 165.456C50.8827 165.947 51.16 166.325 51.5334 166.592C51.9067 166.859 52.3814 166.992 52.9574 166.992C53.5334 166.992 54.008 166.859 54.3814 166.592C54.7547 166.325 55.0267 165.947 55.1974 165.456C55.3787 164.955 55.4694 164.368 55.4694 163.696C55.4694 163.013 55.3787 162.432 55.1974 161.952C55.016 161.472 54.7387 161.104 54.3654 160.848C54.0027 160.581 53.528 160.448 52.9414 160.448C52.0667 160.448 51.432 160.736 51.0374 161.312C50.6427 161.888 50.4454 162.683 50.4454 163.696ZM66.6129 163.696C66.6129 164.411 66.5169 165.045 66.3249 165.6C66.1435 166.144 65.8769 166.608 65.5249 166.992C65.1835 167.376 64.7622 167.669 64.2609 167.872C63.7702 168.064 63.2209 168.16 62.6129 168.16C62.0475 168.16 61.5249 168.064 61.0449 167.872C60.5649 167.669 60.1489 167.376 59.7969 166.992C59.4449 166.608 59.1675 166.144 58.9649 165.6C58.7729 165.045 58.6769 164.411 58.6769 163.696C58.6769 162.747 58.8369 161.947 59.1569 161.296C59.4769 160.635 59.9355 160.133 60.5329 159.792C61.1302 159.44 61.8395 159.264 62.6609 159.264C63.4395 159.264 64.1222 159.44 64.7089 159.792C65.3062 160.133 65.7702 160.635 66.1009 161.296C66.4422 161.947 66.6129 162.747 66.6129 163.696ZM60.1329 163.696C60.1329 164.368 60.2182 164.955 60.3889 165.456C60.5702 165.947 60.8475 166.325 61.2209 166.592C61.5942 166.859 62.0689 166.992 62.6449 166.992C63.2209 166.992 63.6955 166.859 64.0689 166.592C64.4422 166.325 64.7142 165.947 64.8849 165.456C65.0662 164.955 65.1569 164.368 65.1569 163.696C65.1569 163.013 65.0662 162.432 64.8849 161.952C64.7035 161.472 64.4262 161.104 64.0529 160.848C63.6902 160.581 63.2155 160.448 62.6289 160.448C61.7542 160.448 61.1195 160.736 60.7249 161.312C60.3302 161.888 60.1329 162.683 60.1329 163.696ZM68.3964 162.848C68.3964 161.6 68.519 160.539 68.7644 159.664C69.0204 158.779 69.4097 158.075 69.9324 157.552C70.4657 157.019 71.1484 156.661 71.9804 156.48C72.6737 156.331 73.351 156.197 74.0124 156.08C74.6737 155.963 75.2924 155.856 75.8684 155.76L76.1084 156.992C75.831 157.035 75.5217 157.088 75.1804 157.152C74.839 157.205 74.4924 157.264 74.1404 157.328C73.7884 157.381 73.447 157.44 73.1164 157.504C72.7964 157.557 72.5137 157.611 72.2684 157.664C71.9164 157.739 71.6017 157.867 71.3244 158.048C71.047 158.219 70.807 158.453 70.6044 158.752C70.4124 159.051 70.2577 159.419 70.1404 159.856C70.023 160.293 69.9537 160.811 69.9324 161.408H70.0284C70.1777 161.205 70.3804 160.997 70.6364 160.784C70.903 160.571 71.2177 160.389 71.5804 160.24C71.9537 160.091 72.375 160.016 72.8444 160.016C73.591 160.016 74.2097 160.181 74.7004 160.512C75.2017 160.832 75.575 161.28 75.8204 161.856C76.0764 162.432 76.2044 163.104 76.2044 163.872C76.2044 164.821 76.039 165.616 75.7084 166.256C75.3777 166.896 74.919 167.376 74.3324 167.696C73.7457 168.005 73.063 168.16 72.2844 168.16C71.6977 168.16 71.1644 168.048 70.6844 167.824C70.2044 167.589 69.7937 167.248 69.4524 166.8C69.111 166.352 68.8497 165.797 68.6684 165.136C68.487 164.475 68.3964 163.712 68.3964 162.848ZM72.3964 166.992C72.8657 166.992 73.271 166.896 73.6124 166.704C73.9644 166.512 74.2364 166.197 74.4284 165.76C74.6204 165.323 74.7164 164.741 74.7164 164.016C74.7164 163.141 74.551 162.453 74.2204 161.952C73.9004 161.44 73.367 161.184 72.6204 161.184C72.151 161.184 71.7244 161.291 71.3404 161.504C70.9564 161.707 70.6364 161.941 70.3804 162.208C70.1244 162.475 69.943 162.699 69.8364 162.88C69.8364 163.403 69.8737 163.909 69.9484 164.4C70.023 164.891 70.151 165.333 70.3324 165.728C70.5244 166.112 70.7857 166.421 71.1164 166.656C71.4577 166.88 71.8844 166.992 72.3964 166.992ZM90.0385 159.424V166.832H91.2865V170.96H89.8785V168H78.4225V159.424H79.8305V166.816H83.5265V159.424H84.9345V166.816H88.6465V159.424H90.0385ZM96.2345 159.264C96.9705 159.264 97.5998 159.424 98.1225 159.744C98.6558 160.064 99.0612 160.517 99.3385 161.104C99.6265 161.68 99.7705 162.357 99.7705 163.136V163.984H93.8985C93.9198 164.955 94.1652 165.696 94.6345 166.208C95.1145 166.709 95.7812 166.96 96.6345 166.96C97.1785 166.96 97.6585 166.912 98.0745 166.816C98.5012 166.709 98.9385 166.56 99.3865 166.368V167.6C98.9492 167.792 98.5172 167.931 98.0905 168.016C97.6638 168.112 97.1572 168.16 96.5705 168.16C95.7598 168.16 95.0398 167.995 94.4105 167.664C93.7918 167.333 93.3065 166.843 92.9545 166.192C92.6132 165.531 92.4425 164.725 92.4425 163.776C92.4425 162.837 92.5972 162.032 92.9065 161.36C93.2265 160.688 93.6692 160.171 94.2345 159.808C94.8105 159.445 95.4772 159.264 96.2345 159.264ZM96.2185 160.416C95.5465 160.416 95.0132 160.635 94.6185 161.072C94.2345 161.499 94.0052 162.096 93.9305 162.864H98.2985C98.2985 162.373 98.2238 161.947 98.0745 161.584C97.9252 161.221 97.6958 160.939 97.3865 160.736C97.0878 160.523 96.6985 160.416 96.2185 160.416ZM105.394 168.16C104.636 168.16 103.959 168.005 103.362 167.696C102.775 167.387 102.311 166.907 101.97 166.256C101.639 165.605 101.474 164.773 101.474 163.76C101.474 162.704 101.65 161.845 102.002 161.184C102.354 160.523 102.828 160.037 103.426 159.728C104.034 159.419 104.722 159.264 105.49 159.264C105.927 159.264 106.348 159.312 106.754 159.408C107.159 159.493 107.49 159.6 107.746 159.728L107.314 160.896C107.058 160.8 106.759 160.709 106.418 160.624C106.076 160.539 105.756 160.496 105.458 160.496C104.882 160.496 104.407 160.619 104.034 160.864C103.66 161.109 103.383 161.472 103.202 161.952C103.02 162.432 102.93 163.029 102.93 163.744C102.93 164.427 103.02 165.008 103.202 165.488C103.383 165.968 103.655 166.331 104.018 166.576C104.38 166.821 104.834 166.944 105.378 166.944C105.847 166.944 106.258 166.896 106.61 166.8C106.972 166.704 107.303 166.587 107.602 166.448V167.696C107.314 167.845 106.994 167.957 106.642 168.032C106.3 168.117 105.884 168.16 105.394 168.16ZM115.561 160.608H112.761V168H111.369V160.608H108.601V159.424H115.561V160.608ZM124.147 161.584C124.147 162.117 123.987 162.533 123.667 162.832C123.347 163.131 122.936 163.333 122.435 163.44V163.504C122.968 163.579 123.432 163.771 123.827 164.08C124.221 164.379 124.419 164.848 124.419 165.488C124.419 165.851 124.349 166.187 124.211 166.496C124.083 166.805 123.88 167.072 123.603 167.296C123.325 167.52 122.968 167.696 122.531 167.824C122.093 167.941 121.565 168 120.947 168H117.251V159.424H120.931C121.539 159.424 122.083 159.493 122.563 159.632C123.053 159.76 123.437 159.984 123.715 160.304C124.003 160.613 124.147 161.04 124.147 161.584ZM122.963 165.488C122.963 164.997 122.776 164.645 122.403 164.432C122.029 164.219 121.48 164.112 120.755 164.112H118.659V166.864H120.787C121.491 166.864 122.029 166.763 122.403 166.56C122.776 166.347 122.963 165.989 122.963 165.488ZM122.723 161.76C122.723 161.355 122.573 161.061 122.275 160.88C121.987 160.688 121.512 160.592 120.851 160.592H118.659V162.944H120.595C121.288 162.944 121.816 162.848 122.179 162.656C122.541 162.464 122.723 162.165 122.723 161.76ZM133.925 163.696C133.925 164.411 133.829 165.045 133.637 165.6C133.456 166.144 133.189 166.608 132.837 166.992C132.496 167.376 132.075 167.669 131.573 167.872C131.083 168.064 130.533 168.16 129.925 168.16C129.36 168.16 128.837 168.064 128.357 167.872C127.877 167.669 127.461 167.376 127.109 166.992C126.757 166.608 126.48 166.144 126.277 165.6C126.085 165.045 125.989 164.411 125.989 163.696C125.989 162.747 126.149 161.947 126.469 161.296C126.789 160.635 127.248 160.133 127.845 159.792C128.443 159.44 129.152 159.264 129.973 159.264C130.752 159.264 131.435 159.44 132.021 159.792C132.619 160.133 133.083 160.635 133.413 161.296C133.755 161.947 133.925 162.747 133.925 163.696ZM127.445 163.696C127.445 164.368 127.531 164.955 127.701 165.456C127.883 165.947 128.16 166.325 128.533 166.592C128.907 166.859 129.381 166.992 129.957 166.992C130.533 166.992 131.008 166.859 131.381 166.592C131.755 166.325 132.027 165.947 132.197 165.456C132.379 164.955 132.469 164.368 132.469 163.696C132.469 163.013 132.379 162.432 132.197 161.952C132.016 161.472 131.739 161.104 131.365 160.848C131.003 160.581 130.528 160.448 129.941 160.448C129.067 160.448 128.432 160.736 128.037 161.312C127.643 161.888 127.445 162.683 127.445 163.696ZM39.552 187V175.576H48.128V187H46.704V176.84H40.992V187H39.552ZM55.1431 178.264C56.1991 178.264 57.0471 178.632 57.6871 179.368C58.3378 180.104 58.6631 181.213 58.6631 182.696C58.6631 183.667 58.5138 184.488 58.2151 185.16C57.9271 185.821 57.5165 186.323 56.9831 186.664C56.4605 186.995 55.8418 187.16 55.1271 187.16C54.6898 187.16 54.3005 187.101 53.9591 186.984C53.6178 186.867 53.3245 186.717 53.0791 186.536C52.8445 186.344 52.6418 186.136 52.4711 185.912H52.3751C52.3965 186.093 52.4178 186.323 52.4391 186.6C52.4605 186.877 52.4711 187.117 52.4711 187.32V190.84H51.0631V178.424H52.2151L52.4071 179.592H52.4711C52.6418 179.347 52.8445 179.123 53.0791 178.92C53.3245 178.717 53.6125 178.557 53.9431 178.44C54.2845 178.323 54.6845 178.264 55.1431 178.264ZM54.8871 179.448C54.3111 179.448 53.8471 179.56 53.4951 179.784C53.1431 179.997 52.8871 180.323 52.7271 180.76C52.5671 181.197 52.4818 181.752 52.4711 182.424V182.696C52.4711 183.4 52.5458 183.997 52.6951 184.488C52.8445 184.979 53.0951 185.352 53.4471 185.608C53.8098 185.864 54.3005 185.992 54.9191 185.992C55.4418 185.992 55.8685 185.848 56.1991 185.56C56.5405 185.272 56.7911 184.883 56.9511 184.392C57.1218 183.891 57.2071 183.32 57.2071 182.68C57.2071 181.699 57.0151 180.915 56.6311 180.328C56.2578 179.741 55.6765 179.448 54.8871 179.448ZM64.2189 178.264C64.9549 178.264 65.5842 178.424 66.1069 178.744C66.6402 179.064 67.0455 179.517 67.3229 180.104C67.6109 180.68 67.7549 181.357 67.7549 182.136V182.984H61.8829C61.9042 183.955 62.1495 184.696 62.6189 185.208C63.0989 185.709 63.7655 185.96 64.6189 185.96C65.1629 185.96 65.6429 185.912 66.0589 185.816C66.4855 185.709 66.9229 185.56 67.3709 185.368V186.6C66.9335 186.792 66.5015 186.931 66.0749 187.016C65.6482 187.112 65.1415 187.16 64.5549 187.16C63.7442 187.16 63.0242 186.995 62.3949 186.664C61.7762 186.333 61.2909 185.843 60.9389 185.192C60.5975 184.531 60.4269 183.725 60.4269 182.776C60.4269 181.837 60.5815 181.032 60.8909 180.36C61.2109 179.688 61.6535 179.171 62.2189 178.808C62.7949 178.445 63.4615 178.264 64.2189 178.264ZM64.2029 179.416C63.5309 179.416 62.9975 179.635 62.6029 180.072C62.2189 180.499 61.9895 181.096 61.9149 181.864H66.2829C66.2829 181.373 66.2082 180.947 66.0589 180.584C65.9095 180.221 65.6802 179.939 65.3709 179.736C65.0722 179.523 64.6829 179.416 64.2029 179.416ZM76.3061 178.424V185.816H77.5541V189.976H76.1941V187H70.2261V189.976H68.8821V185.816H69.5701C70.0608 185.133 70.4661 184.392 70.7861 183.592C71.1168 182.781 71.3621 181.939 71.5221 181.064C71.6928 180.179 71.7835 179.299 71.7941 178.424H76.3061ZM73.0421 179.528C72.9995 180.253 72.8875 181.005 72.7061 181.784C72.5248 182.552 72.2901 183.288 72.0021 183.992C71.7248 184.696 71.3995 185.304 71.0261 185.816H74.9461V179.528H73.0421ZM86.483 178.424V187H85.075V179.624H80.643V187H79.235V178.424H86.483ZM93.2994 178.264C94.3554 178.264 95.2034 178.632 95.8434 179.368C96.494 180.104 96.8194 181.213 96.8194 182.696C96.8194 183.667 96.67 184.488 96.3714 185.16C96.0834 185.821 95.6727 186.323 95.1394 186.664C94.6167 186.995 93.998 187.16 93.2834 187.16C92.846 187.16 92.4567 187.101 92.1154 186.984C91.774 186.867 91.4807 186.717 91.2354 186.536C91.0007 186.344 90.798 186.136 90.6274 185.912H90.5314C90.5527 186.093 90.574 186.323 90.5954 186.6C90.6167 186.877 90.6274 187.117 90.6274 187.32V190.84H89.2194V178.424H90.3714L90.5634 179.592H90.6274C90.798 179.347 91.0007 179.123 91.2354 178.92C91.4807 178.717 91.7687 178.557 92.0994 178.44C92.4407 178.323 92.8407 178.264 93.2994 178.264ZM93.0434 179.448C92.4674 179.448 92.0034 179.56 91.6514 179.784C91.2994 179.997 91.0434 180.323 90.8834 180.76C90.7234 181.197 90.638 181.752 90.6274 182.424V182.696C90.6274 183.4 90.702 183.997 90.8514 184.488C91.0007 184.979 91.2514 185.352 91.6034 185.608C91.966 185.864 92.4567 185.992 93.0754 185.992C93.598 185.992 94.0247 185.848 94.3554 185.56C94.6967 185.272 94.9474 184.883 95.1074 184.392C95.278 183.891 95.3634 183.32 95.3634 182.68C95.3634 181.699 95.1714 180.915 94.7874 180.328C94.414 179.741 93.8327 179.448 93.0434 179.448ZM100.391 183.656C100.391 183.752 100.386 183.891 100.375 184.072C100.375 184.243 100.37 184.429 100.359 184.632C100.348 184.824 100.338 185.011 100.327 185.192C100.316 185.363 100.306 185.501 100.295 185.608L104.887 178.424H106.615V187H105.303V181.944C105.303 181.773 105.303 181.549 105.303 181.272C105.314 180.995 105.324 180.723 105.335 180.456C105.346 180.179 105.356 179.971 105.367 179.832L100.807 187H99.0631V178.424H100.391V183.656ZM110.752 178.424V181.992H115.408V178.424H116.816V187H115.408V183.176H110.752V187H109.344V178.424H110.752ZM120.86 183.656C120.86 183.752 120.855 183.891 120.844 184.072C120.844 184.243 120.839 184.429 120.828 184.632C120.817 184.824 120.807 185.011 120.796 185.192C120.785 185.363 120.775 185.501 120.764 185.608L125.356 178.424H127.084V187H125.772V181.944C125.772 181.773 125.772 181.549 125.772 181.272C125.783 180.995 125.793 180.723 125.804 180.456C125.815 180.179 125.825 179.971 125.836 179.832L121.276 187H119.532V178.424H120.86V183.656ZM139.013 178.424V187H137.749V181.528C137.749 181.304 137.754 181.069 137.765 180.824C137.786 180.579 137.808 180.339 137.829 180.104H137.781L134.981 187H133.797L131.077 180.104H131.029C131.05 180.339 131.061 180.579 131.061 180.824C131.072 181.069 131.077 181.32 131.077 181.576V187H129.813V178.424H131.685L134.389 185.32L137.141 178.424H139.013ZM144.999 178.28C146.044 178.28 146.817 178.509 147.319 178.968C147.82 179.427 148.071 180.157 148.071 181.16V187H147.047L146.775 185.784H146.711C146.465 186.093 146.209 186.355 145.943 186.568C145.687 186.771 145.388 186.92 145.047 187.016C144.716 187.112 144.311 187.16 143.831 187.16C143.319 187.16 142.855 187.069 142.439 186.888C142.033 186.707 141.713 186.429 141.479 186.056C141.244 185.672 141.127 185.192 141.127 184.616C141.127 183.763 141.463 183.107 142.135 182.648C142.807 182.179 143.841 181.923 145.239 181.88L146.695 181.832V181.32C146.695 180.605 146.54 180.109 146.231 179.832C145.921 179.555 145.484 179.416 144.919 179.416C144.471 179.416 144.044 179.485 143.639 179.624C143.233 179.752 142.855 179.901 142.503 180.072L142.071 179.016C142.444 178.813 142.887 178.643 143.399 178.504C143.911 178.355 144.444 178.28 144.999 178.28ZM145.415 182.856C144.348 182.899 143.607 183.069 143.191 183.368C142.785 183.667 142.583 184.088 142.583 184.632C142.583 185.112 142.727 185.464 143.015 185.688C143.313 185.912 143.692 186.024 144.151 186.024C144.876 186.024 145.479 185.827 145.959 185.432C146.439 185.027 146.679 184.408 146.679 183.576V182.808L145.415 182.856ZM156.639 179.608H153.839V187H152.447V179.608H149.679V178.424H156.639V179.608ZM161.485 178.264C162.221 178.264 162.85 178.424 163.373 178.744C163.906 179.064 164.311 179.517 164.589 180.104C164.877 180.68 165.021 181.357 165.021 182.136V182.984H159.149C159.17 183.955 159.415 184.696 159.885 185.208C160.365 185.709 161.031 185.96 161.885 185.96C162.429 185.96 162.909 185.912 163.325 185.816C163.751 185.709 164.189 185.56 164.637 185.368V186.6C164.199 186.792 163.767 186.931 163.341 187.016C162.914 187.112 162.407 187.16 161.821 187.16C161.01 187.16 160.29 186.995 159.661 186.664C159.042 186.333 158.557 185.843 158.205 185.192C157.863 184.531 157.693 183.725 157.693 182.776C157.693 181.837 157.847 181.032 158.157 180.36C158.477 179.688 158.919 179.171 159.485 178.808C160.061 178.445 160.727 178.264 161.485 178.264ZM161.469 179.416C160.797 179.416 160.263 179.635 159.869 180.072C159.485 180.499 159.255 181.096 159.181 181.864H163.549C163.549 181.373 163.474 180.947 163.325 180.584C163.175 180.221 162.946 179.939 162.637 179.736C162.338 179.523 161.949 179.416 161.469 179.416ZM173.732 187H172.308V179.592H169.78C169.673 180.947 169.54 182.104 169.38 183.064C169.22 184.013 169.017 184.787 168.772 185.384C168.526 185.981 168.233 186.419 167.892 186.696C167.55 186.973 167.15 187.112 166.692 187.112C166.553 187.112 166.414 187.101 166.276 187.08C166.148 187.069 166.041 187.043 165.956 187V185.944C166.02 185.965 166.089 185.981 166.164 185.992C166.238 186.003 166.313 186.008 166.388 186.008C166.622 186.008 166.836 185.912 167.028 185.72C167.22 185.528 167.39 185.235 167.54 184.84C167.7 184.445 167.844 183.949 167.972 183.352C168.1 182.744 168.212 182.029 168.308 181.208C168.404 180.387 168.489 179.459 168.564 178.424H173.732V187ZM179.766 178.264C180.502 178.264 181.131 178.424 181.654 178.744C182.187 179.064 182.592 179.517 182.87 180.104C183.158 180.68 183.302 181.357 183.302 182.136V182.984H177.43C177.451 183.955 177.696 184.696 178.166 185.208C178.646 185.709 179.312 185.96 180.166 185.96C180.71 185.96 181.19 185.912 181.606 185.816C182.032 185.709 182.47 185.56 182.918 185.368V186.6C182.48 186.792 182.048 186.931 181.622 187.016C181.195 187.112 180.688 187.16 180.102 187.16C179.291 187.16 178.571 186.995 177.942 186.664C177.323 186.333 176.838 185.843 176.486 185.192C176.144 184.531 175.974 183.725 175.974 182.776C175.974 181.837 176.128 181.032 176.438 180.36C176.758 179.688 177.2 179.171 177.766 178.808C178.342 178.445 179.008 178.264 179.766 178.264ZM179.75 179.416C179.078 179.416 178.544 179.635 178.15 180.072C177.766 180.499 177.536 181.096 177.462 181.864H181.83C181.83 181.373 181.755 180.947 181.606 180.584C181.456 180.221 181.227 179.939 180.918 179.736C180.619 179.523 180.23 179.416 179.75 179.416ZM192.429 174.872C192.386 175.405 192.253 175.853 192.029 176.216C191.816 176.579 191.496 176.851 191.069 177.032C190.642 177.213 190.088 177.304 189.405 177.304C188.712 177.304 188.152 177.213 187.725 177.032C187.309 176.851 187.005 176.584 186.813 176.232C186.621 175.869 186.504 175.416 186.461 174.872H187.773C187.826 175.448 187.976 175.837 188.221 176.04C188.477 176.232 188.882 176.328 189.437 176.328C189.928 176.328 190.312 176.227 190.589 176.024C190.877 175.811 191.048 175.427 191.101 174.872H192.429ZM186.813 183.656C186.813 183.752 186.808 183.891 186.797 184.072C186.797 184.243 186.792 184.429 186.781 184.632C186.77 184.824 186.76 185.011 186.749 185.192C186.738 185.363 186.728 185.501 186.717 185.608L191.309 178.424H193.037V187H191.725V181.944C191.725 181.773 191.725 181.549 191.725 181.272C191.736 180.995 191.746 180.723 191.757 180.456C191.768 180.179 191.778 179.971 191.789 179.832L187.229 187H185.485V178.424H186.813V183.656Z" fill="#333333"/>
<path d="M5 222L12.5 229.5L25 214.5" stroke="#61B857" stroke-width="2" stroke-linecap="round" stroke-linejoin="round"/>
<path d="M39.552 222V210.576H46.336V211.84H40.992V215.408H42.688C43.8293 215.408 44.7147 215.552 45.344 215.84C45.9733 216.117 46.4107 216.501 46.656 216.992C46.9013 217.472 47.024 218.027 47.024 218.656C47.024 219.349 46.8853 219.947 46.608 220.448C46.3413 220.949 45.904 221.333 45.296 221.6C44.688 221.867 43.888 222 42.896 222H39.552ZM42.752 220.768C43.776 220.768 44.496 220.597 44.912 220.256C45.328 219.904 45.536 219.371 45.536 218.656C45.536 218.165 45.4347 217.776 45.232 217.488C45.04 217.189 44.72 216.976 44.272 216.848C43.8347 216.72 43.248 216.656 42.512 216.656H40.992V220.768H42.752ZM50.5318 218.656C50.5318 218.752 50.5264 218.891 50.5158 219.072C50.5158 219.243 50.5104 219.429 50.4998 219.632C50.4891 219.824 50.4784 220.011 50.4678 220.192C50.4571 220.363 50.4464 220.501 50.4358 220.608L55.0278 213.424H56.7558V222H55.4438V216.944C55.4438 216.773 55.4438 216.549 55.4438 216.272C55.4544 215.995 55.4651 215.723 55.4758 215.456C55.4864 215.179 55.4971 214.971 55.5078 214.832L50.9478 222H49.2038V213.424H50.5318V218.656ZM61.741 213.264C62.3917 213.264 62.957 213.355 63.437 213.536C63.917 213.707 64.2903 213.963 64.557 214.304C64.8237 214.635 64.957 215.04 64.957 215.52C64.957 216.043 64.813 216.459 64.525 216.768C64.237 217.067 63.8423 217.285 63.341 217.424V217.488C63.6823 217.584 63.997 217.717 64.285 217.888C64.573 218.059 64.8023 218.283 64.973 218.56C65.1543 218.837 65.245 219.195 65.245 219.632C65.245 220.101 65.1117 220.528 64.845 220.912C64.589 221.296 64.189 221.6 63.645 221.824C63.1117 222.048 62.4237 222.16 61.581 222.16C61.1757 222.16 60.7863 222.139 60.413 222.096C60.0503 222.053 59.7197 221.989 59.421 221.904C59.133 221.819 58.877 221.717 58.653 221.6V220.336C59.0157 220.507 59.4423 220.661 59.933 220.8C60.4343 220.939 60.9783 221.008 61.565 221.008C61.9917 221.008 62.3757 220.96 62.717 220.864C63.069 220.768 63.3463 220.619 63.549 220.416C63.7517 220.203 63.853 219.915 63.853 219.552C63.853 219.221 63.7623 218.955 63.581 218.752C63.3997 218.539 63.1277 218.379 62.765 218.272C62.413 218.165 61.9597 218.112 61.405 218.112H60.253V216.96H61.181C61.917 216.96 62.5037 216.864 62.941 216.672C63.389 216.469 63.613 216.128 63.613 215.648C63.613 215.243 63.4423 214.939 63.101 214.736C62.7703 214.533 62.2903 214.432 61.661 214.432C61.1917 214.432 60.7757 214.48 60.413 214.576C60.061 214.661 59.6717 214.795 59.245 214.976L58.749 213.856C59.2077 213.653 59.6877 213.504 60.189 213.408C60.6903 213.312 61.2077 213.264 61.741 213.264ZM68.7368 213.424V216.992H73.3928V213.424H74.8008V222H73.3928V218.176H68.7368V222H67.3288V213.424H68.7368ZM80.8283 213.264C81.5643 213.264 82.1936 213.424 82.7163 213.744C83.2496 214.064 83.6549 214.517 83.9323 215.104C84.2203 215.68 84.3643 216.357 84.3643 217.136V217.984H78.4923C78.5136 218.955 78.7589 219.696 79.2283 220.208C79.7083 220.709 80.3749 220.96 81.2283 220.96C81.7723 220.96 82.2523 220.912 82.6683 220.816C83.0949 220.709 83.5323 220.56 83.9803 220.368V221.6C83.5429 221.792 83.1109 221.931 82.6843 222.016C82.2576 222.112 81.7509 222.16 81.1643 222.16C80.3536 222.16 79.6336 221.995 79.0043 221.664C78.3856 221.333 77.9003 220.843 77.5483 220.192C77.2069 219.531 77.0363 218.725 77.0363 217.776C77.0363 216.837 77.1909 216.032 77.5003 215.36C77.8203 214.688 78.2629 214.171 78.8283 213.808C79.4043 213.445 80.0709 213.264 80.8283 213.264ZM80.8123 214.416C80.1403 214.416 79.6069 214.635 79.2123 215.072C78.8283 215.499 78.5989 216.096 78.5243 216.864H82.8923C82.8923 216.373 82.8176 215.947 82.6683 215.584C82.5189 215.221 82.2896 214.939 81.9803 214.736C81.6816 214.523 81.2923 214.416 80.8123 214.416ZM89.9875 222.16C89.2302 222.16 88.5528 222.005 87.9555 221.696C87.3688 221.387 86.9048 220.907 86.5635 220.256C86.2328 219.605 86.0675 218.773 86.0675 217.76C86.0675 216.704 86.2435 215.845 86.5955 215.184C86.9475 214.523 87.4222 214.037 88.0195 213.728C88.6275 213.419 89.3155 213.264 90.0835 213.264C90.5208 213.264 90.9422 213.312 91.3475 213.408C91.7528 213.493 92.0835 213.6 92.3395 213.728L91.9075 214.896C91.6515 214.8 91.3528 214.709 91.0115 214.624C90.6702 214.539 90.3502 214.496 90.0515 214.496C89.4755 214.496 89.0008 214.619 88.6275 214.864C88.2542 215.109 87.9768 215.472 87.7955 215.952C87.6142 216.432 87.5235 217.029 87.5235 217.744C87.5235 218.427 87.6142 219.008 87.7955 219.488C87.9768 219.968 88.2488 220.331 88.6115 220.576C88.9742 220.821 89.4275 220.944 89.9715 220.944C90.4408 220.944 90.8515 220.896 91.2035 220.8C91.5662 220.704 91.8968 220.587 92.1955 220.448V221.696C91.9075 221.845 91.5875 221.957 91.2355 222.032C90.8942 222.117 90.4782 222.16 89.9875 222.16ZM102.84 222H101.4V211.84H97.8319V210.576H106.392V211.84H102.84V222ZM111.206 213.264C112.262 213.264 113.11 213.632 113.75 214.368C114.4 215.104 114.726 216.213 114.726 217.696C114.726 218.667 114.576 219.488 114.278 220.16C113.99 220.821 113.579 221.323 113.046 221.664C112.523 221.995 111.904 222.16 111.19 222.16C110.752 222.16 110.363 222.101 110.022 221.984C109.68 221.867 109.387 221.717 109.142 221.536C108.907 221.344 108.704 221.136 108.534 220.912H108.438C108.459 221.093 108.48 221.323 108.502 221.6C108.523 221.877 108.534 222.117 108.534 222.32V225.84H107.126V213.424H108.278L108.47 214.592H108.534C108.704 214.347 108.907 214.123 109.142 213.92C109.387 213.717 109.675 213.557 110.006 213.44C110.347 213.323 110.747 213.264 111.206 213.264ZM110.95 214.448C110.374 214.448 109.91 214.56 109.558 214.784C109.206 214.997 108.95 215.323 108.79 215.76C108.63 216.197 108.544 216.752 108.534 217.424V217.696C108.534 218.4 108.608 218.997 108.758 219.488C108.907 219.979 109.158 220.352 109.51 220.608C109.872 220.864 110.363 220.992 110.982 220.992C111.504 220.992 111.931 220.848 112.262 220.56C112.603 220.272 112.854 219.883 113.014 219.392C113.184 218.891 113.27 218.32 113.27 217.68C113.27 216.699 113.078 215.915 112.694 215.328C112.32 214.741 111.739 214.448 110.95 214.448ZM120.281 213.264C121.017 213.264 121.647 213.424 122.169 213.744C122.703 214.064 123.108 214.517 123.385 215.104C123.673 215.68 123.817 216.357 123.817 217.136V217.984H117.945C117.967 218.955 118.212 219.696 118.681 220.208C119.161 220.709 119.828 220.96 120.681 220.96C121.225 220.96 121.705 220.912 122.121 220.816C122.548 220.709 122.985 220.56 123.433 220.368V221.6C122.996 221.792 122.564 221.931 122.137 222.016C121.711 222.112 121.204 222.16 120.617 222.16C119.807 222.16 119.087 221.995 118.457 221.664C117.839 221.333 117.353 220.843 117.001 220.192C116.66 219.531 116.489 218.725 116.489 217.776C116.489 216.837 116.644 216.032 116.953 215.36C117.273 214.688 117.716 214.171 118.281 213.808C118.857 213.445 119.524 213.264 120.281 213.264ZM120.265 214.416C119.593 214.416 119.06 214.635 118.665 215.072C118.281 215.499 118.052 216.096 117.977 216.864H122.345C122.345 216.373 122.271 215.947 122.121 215.584C121.972 215.221 121.743 214.939 121.433 214.736C121.135 214.523 120.745 214.416 120.265 214.416ZM127.409 213.424V216.992H132.065V213.424H133.473V222H132.065V218.176H127.409V222H126.001V213.424H127.409ZM137.516 218.656C137.516 218.752 137.511 218.891 137.5 219.072C137.5 219.243 137.495 219.429 137.484 219.632C137.473 219.824 137.463 220.011 137.452 220.192C137.441 220.363 137.431 220.501 137.42 220.608L142.012 213.424H143.74V222H142.428V216.944C142.428 216.773 142.428 216.549 142.428 216.272C142.439 215.995 142.449 215.723 142.46 215.456C142.471 215.179 142.481 214.971 142.492 214.832L137.932 222H136.188V213.424H137.516V218.656ZM147.877 213.424V216.992H152.533V213.424H153.941V222H152.533V218.176H147.877V222H146.469V213.424H147.877ZM161.889 213.424V214.608H158.065V222H156.657V213.424H161.889ZM164.907 218.656C164.907 218.752 164.901 218.891 164.891 219.072C164.891 219.243 164.885 219.429 164.875 219.632C164.864 219.824 164.853 220.011 164.843 220.192C164.832 220.363 164.821 220.501 164.811 220.608L169.403 213.424H171.131V222H169.819V216.944C169.819 216.773 169.819 216.549 169.819 216.272C169.829 215.995 169.84 215.723 169.851 215.456C169.861 215.179 169.872 214.971 169.883 214.832L165.323 222H163.579V213.424H164.907V218.656ZM173.764 224.56L172.98 224.112C173.407 223.568 173.748 223.019 174.004 222.464C174.271 221.909 174.473 221.275 174.612 220.56L176.02 220.96C175.913 221.771 175.657 222.48 175.252 223.088C174.857 223.696 174.361 224.187 173.764 224.56ZM44.592 241L40.832 230.984H40.768C40.7893 231.197 40.8053 231.469 40.816 231.8C40.8373 232.131 40.8533 232.493 40.864 232.888C40.8747 233.272 40.88 233.667 40.88 234.072V241H39.552V229.576H41.68L45.2 238.936H45.264L48.848 229.576H50.96V241H49.536V233.976C49.536 233.603 49.5413 233.235 49.552 232.872C49.5627 232.499 49.5787 232.152 49.6 231.832C49.6213 231.501 49.6373 231.224 49.648 231H49.584L45.776 241H44.592ZM57.1236 232.28C58.169 232.28 58.9423 232.509 59.4436 232.968C59.945 233.427 60.1956 234.157 60.1956 235.16V241H59.1716L58.8996 239.784H58.8356C58.5903 240.093 58.3343 240.355 58.0676 240.568C57.8116 240.771 57.513 240.92 57.1716 241.016C56.841 241.112 56.4356 241.16 55.9556 241.16C55.4436 241.16 54.9796 241.069 54.5636 240.888C54.1583 240.707 53.8383 240.429 53.6036 240.056C53.369 239.672 53.2516 239.192 53.2516 238.616C53.2516 237.763 53.5876 237.107 54.2596 236.648C54.9316 236.179 55.9663 235.923 57.3636 235.88L58.8196 235.832V235.32C58.8196 234.605 58.665 234.109 58.3556 233.832C58.0463 233.555 57.609 233.416 57.0436 233.416C56.5956 233.416 56.169 233.485 55.7636 233.624C55.3583 233.752 54.9796 233.901 54.6276 234.072L54.1956 233.016C54.569 232.813 55.0116 232.643 55.5236 232.504C56.0356 232.355 56.569 232.28 57.1236 232.28ZM57.5396 236.856C56.473 236.899 55.7316 237.069 55.3156 237.368C54.9103 237.667 54.7076 238.088 54.7076 238.632C54.7076 239.112 54.8516 239.464 55.1396 239.688C55.4383 239.912 55.817 240.024 56.2756 240.024C57.001 240.024 57.6036 239.827 58.0836 239.432C58.5636 239.027 58.8036 238.408 58.8036 237.576V236.808L57.5396 236.856ZM66.2844 241.16C65.527 241.16 64.8497 241.005 64.2524 240.696C63.6657 240.387 63.2017 239.907 62.8604 239.256C62.5297 238.605 62.3644 237.773 62.3644 236.76C62.3644 235.704 62.5404 234.845 62.8924 234.184C63.2444 233.523 63.719 233.037 64.3164 232.728C64.9244 232.419 65.6124 232.264 66.3804 232.264C66.8177 232.264 67.239 232.312 67.6444 232.408C68.0497 232.493 68.3804 232.6 68.6364 232.728L68.2044 233.896C67.9484 233.8 67.6497 233.709 67.3084 233.624C66.967 233.539 66.647 233.496 66.3484 233.496C65.7724 233.496 65.2977 233.619 64.9244 233.864C64.551 234.109 64.2737 234.472 64.0924 234.952C63.911 235.432 63.8204 236.029 63.8204 236.744C63.8204 237.427 63.911 238.008 64.0924 238.488C64.2737 238.968 64.5457 239.331 64.9084 239.576C65.271 239.821 65.7244 239.944 66.2684 239.944C66.7377 239.944 67.1484 239.896 67.5004 239.8C67.863 239.704 68.1937 239.587 68.4924 239.448V240.696C68.2044 240.845 67.8844 240.957 67.5324 241.032C67.191 241.117 66.775 241.16 66.2844 241.16ZM76.4519 233.608H73.6519V241H72.2599V233.608H69.4919V232.424H76.4519V233.608ZM81.297 232.264C82.033 232.264 82.6623 232.424 83.185 232.744C83.7183 233.064 84.1237 233.517 84.401 234.104C84.689 234.68 84.833 235.357 84.833 236.136V236.984H78.961C78.9823 237.955 79.2277 238.696 79.697 239.208C80.177 239.709 80.8437 239.96 81.697 239.96C82.241 239.96 82.721 239.912 83.137 239.816C83.5637 239.709 84.001 239.56 84.449 239.368V240.6C84.0117 240.792 83.5797 240.931 83.153 241.016C82.7263 241.112 82.2197 241.16 81.633 241.16C80.8223 241.16 80.1023 240.995 79.473 240.664C78.8543 240.333 78.369 239.843 78.017 239.192C77.6757 238.531 77.505 237.725 77.505 236.776C77.505 235.837 77.6597 235.032 77.969 234.36C78.289 233.688 78.7317 233.171 79.297 232.808C79.873 232.445 80.5397 232.264 81.297 232.264ZM81.281 233.416C80.609 233.416 80.0757 233.635 79.681 234.072C79.297 234.499 79.0677 235.096 78.993 235.864H83.361C83.361 235.373 83.2863 234.947 83.137 234.584C82.9877 234.221 82.7583 233.939 82.449 233.736C82.1503 233.523 81.761 233.416 81.281 233.416ZM91.0963 232.264C92.1523 232.264 93.0003 232.632 93.6403 233.368C94.2909 234.104 94.6163 235.213 94.6163 236.696C94.6163 237.667 94.4669 238.488 94.1683 239.16C93.8802 239.821 93.4696 240.323 92.9363 240.664C92.4136 240.995 91.7949 241.16 91.0803 241.16C90.6429 241.16 90.2536 241.101 89.9123 240.984C89.5709 240.867 89.2776 240.717 89.0323 240.536C88.7976 240.344 88.5949 240.136 88.4243 239.912H88.3283C88.3496 240.093 88.3709 240.323 88.3923 240.6C88.4136 240.877 88.4243 241.117 88.4243 241.32V244.84H87.0163V232.424H88.1683L88.3603 233.592H88.4243C88.5949 233.347 88.7976 233.123 89.0323 232.92C89.2776 232.717 89.5656 232.557 89.8963 232.44C90.2376 232.323 90.6376 232.264 91.0963 232.264ZM90.8403 233.448C90.2643 233.448 89.8003 233.56 89.4483 233.784C89.0963 233.997 88.8403 234.323 88.6803 234.76C88.5203 235.197 88.4349 235.752 88.4243 236.424V236.696C88.4243 237.4 88.4989 237.997 88.6483 238.488C88.7976 238.979 89.0483 239.352 89.4003 239.608C89.7629 239.864 90.2536 239.992 90.8723 239.992C91.3949 239.992 91.8216 239.848 92.1523 239.56C92.4936 239.272 92.7443 238.883 92.9043 238.392C93.0749 237.891 93.1603 237.32 93.1603 236.68C93.1603 235.699 92.9683 234.915 92.5843 234.328C92.2109 233.741 91.6296 233.448 90.8403 233.448ZM110.185 241H108.457L103.289 235.208V241H101.849V229.576H103.289V235.112L108.329 229.576H109.961L105.001 235.128L110.185 241ZM118.076 241H116.652V233.592H114.124C114.017 234.947 113.884 236.104 113.724 237.064C113.564 238.013 113.361 238.787 113.116 239.384C112.87 239.981 112.577 240.419 112.236 240.696C111.894 240.973 111.494 241.112 111.036 241.112C110.897 241.112 110.758 241.101 110.62 241.08C110.492 241.069 110.385 241.043 110.3 241V239.944C110.364 239.965 110.433 239.981 110.508 239.992C110.582 240.003 110.657 240.008 110.732 240.008C110.966 240.008 111.18 239.912 111.372 239.72C111.564 239.528 111.734 239.235 111.884 238.84C112.044 238.445 112.188 237.949 112.316 237.352C112.444 236.744 112.556 236.029 112.652 235.208C112.748 234.387 112.833 233.459 112.908 232.424H118.076V241ZM124.046 232.28C125.091 232.28 125.864 232.509 126.366 232.968C126.867 233.427 127.118 234.157 127.118 235.16V241H126.094L125.822 239.784H125.758C125.512 240.093 125.256 240.355 124.99 240.568C124.734 240.771 124.435 240.92 124.094 241.016C123.763 241.112 123.358 241.16 122.878 241.16C122.366 241.16 121.902 241.069 121.486 240.888C121.08 240.707 120.76 240.429 120.526 240.056C120.291 239.672 120.174 239.192 120.174 238.616C120.174 237.763 120.51 237.107 121.182 236.648C121.854 236.179 122.888 235.923 124.286 235.88L125.742 235.832V235.32C125.742 234.605 125.587 234.109 125.278 233.832C124.968 233.555 124.531 233.416 123.966 233.416C123.518 233.416 123.091 233.485 122.686 233.624C122.28 233.752 121.902 233.901 121.549 234.072L121.118 233.016C121.491 232.813 121.934 232.643 122.446 232.504C122.958 232.355 123.491 232.28 124.046 232.28ZM124.462 236.856C123.395 236.899 122.654 237.069 122.238 237.368C121.832 237.667 121.63 238.088 121.63 238.632C121.63 239.112 121.774 239.464 122.062 239.688C122.36 239.912 122.739 240.024 123.198 240.024C123.923 240.024 124.526 239.827 125.006 239.432C125.486 239.027 125.726 238.408 125.726 237.576V236.808L124.462 236.856ZM133.206 241.16C132.449 241.16 131.772 241.005 131.174 240.696C130.588 240.387 130.124 239.907 129.782 239.256C129.452 238.605 129.286 237.773 129.286 236.76C129.286 235.704 129.462 234.845 129.814 234.184C130.166 233.523 130.641 233.037 131.238 232.728C131.846 232.419 132.534 232.264 133.302 232.264C133.74 232.264 134.161 232.312 134.566 232.408C134.972 232.493 135.302 232.6 135.558 232.728L135.126 233.896C134.87 233.8 134.572 233.709 134.23 233.624C133.889 233.539 133.569 233.496 133.27 233.496C132.694 233.496 132.22 233.619 131.846 233.864C131.473 234.109 131.196 234.472 131.014 234.952C130.833 235.432 130.742 236.029 130.742 236.744C130.742 237.427 130.833 238.008 131.014 238.488C131.196 238.968 131.468 239.331 131.83 239.576C132.193 239.821 132.646 239.944 133.19 239.944C133.66 239.944 134.07 239.896 134.422 239.8C134.785 239.704 135.116 239.587 135.414 239.448V240.696C135.126 240.845 134.806 240.957 134.454 241.032C134.113 241.117 133.697 241.16 133.206 241.16ZM140.894 241.16C140.136 241.16 139.459 241.005 138.862 240.696C138.275 240.387 137.811 239.907 137.47 239.256C137.139 238.605 136.974 237.773 136.974 236.76C136.974 235.704 137.15 234.845 137.502 234.184C137.854 233.523 138.328 233.037 138.926 232.728C139.534 232.419 140.222 232.264 140.99 232.264C141.427 232.264 141.848 232.312 142.254 232.408C142.659 232.493 142.99 232.6 143.246 232.728L142.814 233.896C142.558 233.8 142.259 233.709 141.918 233.624C141.576 233.539 141.256 233.496 140.958 233.496C140.382 233.496 139.907 233.619 139.534 233.864C139.16 234.109 138.883 234.472 138.702 234.952C138.52 235.432 138.43 236.029 138.43 236.744C138.43 237.427 138.52 238.008 138.702 238.488C138.883 238.968 139.155 239.331 139.518 239.576C139.88 239.821 140.334 239.944 140.878 239.944C141.347 239.944 141.758 239.896 142.11 239.8C142.472 239.704 142.803 239.587 143.102 239.448V240.696C142.814 240.845 142.494 240.957 142.142 241.032C141.8 241.117 141.384 241.16 140.894 241.16ZM145.141 241V232.424H146.549V235.944H148.773C149.52 235.944 150.133 236.035 150.613 236.216C151.093 236.397 151.451 236.669 151.685 237.032C151.92 237.384 152.037 237.832 152.037 238.376C152.037 238.909 151.92 239.373 151.685 239.768C151.461 240.163 151.104 240.467 150.613 240.68C150.133 240.893 149.499 241 148.709 241H145.141ZM148.581 239.864C149.189 239.864 149.685 239.763 150.069 239.56C150.453 239.347 150.645 238.979 150.645 238.456C150.645 237.933 150.469 237.581 150.117 237.4C149.765 237.208 149.259 237.112 148.597 237.112H146.549V239.864H148.581ZM153.461 241V232.424H154.869V241H153.461ZM157.498 243.56L156.714 243.112C157.141 242.568 157.482 242.019 157.738 241.464C158.005 240.909 158.208 240.275 158.346 239.56L159.754 239.96C159.648 240.771 159.392 241.48 158.986 242.088C158.592 242.696 158.096 243.187 157.498 243.56ZM44.448 249.68C43.84 249.68 43.2907 249.787 42.8 250C42.3093 250.203 41.8933 250.507 41.552 250.912C41.2107 251.307 40.9493 251.792 40.768 252.368C40.5867 252.933 40.496 253.573 40.496 254.288C40.496 255.227 40.64 256.043 40.928 256.736C41.2267 257.429 41.664 257.963 42.24 258.336C42.8267 258.709 43.5573 258.896 44.432 258.896C44.9333 258.896 45.408 258.853 45.856 258.768C46.304 258.683 46.7413 258.576 47.168 258.448V259.696C46.7413 259.856 46.2987 259.973 45.84 260.048C45.392 260.123 44.8533 260.16 44.224 260.16C43.0613 260.16 42.0907 259.92 41.312 259.44C40.5333 258.96 39.9467 258.277 39.552 257.392C39.168 256.507 38.976 255.467 38.976 254.272C38.976 253.408 39.0933 252.619 39.328 251.904C39.5733 251.189 39.9253 250.571 40.384 250.048C40.8533 249.525 41.4293 249.125 42.112 248.848C42.7947 248.56 43.5787 248.416 44.464 248.416C45.0507 248.416 45.616 248.475 46.16 248.592C46.704 248.709 47.1893 248.875 47.616 249.088L47.04 250.304C46.688 250.144 46.2933 250 45.856 249.872C45.4293 249.744 44.96 249.68 44.448 249.68ZM52.7814 251.264C53.5174 251.264 54.1467 251.424 54.6694 251.744C55.2027 252.064 55.608 252.517 55.8854 253.104C56.1734 253.68 56.3174 254.357 56.3174 255.136V255.984H50.4454C50.4667 256.955 50.712 257.696 51.1814 258.208C51.6614 258.709 52.328 258.96 53.1814 258.96C53.7254 258.96 54.2054 258.912 54.6214 258.816C55.048 258.709 55.4854 258.56 55.9334 258.368V259.6C55.496 259.792 55.064 259.931 54.6374 260.016C54.2107 260.112 53.704 260.16 53.1174 260.16C52.3067 260.16 51.5867 259.995 50.9574 259.664C50.3387 259.333 49.8534 258.843 49.5014 258.192C49.16 257.531 48.9894 256.725 48.9894 255.776C48.9894 254.837 49.144 254.032 49.4534 253.36C49.7734 252.688 50.216 252.171 50.7814 251.808C51.3574 251.445 52.024 251.264 52.7814 251.264ZM52.7654 252.416C52.0934 252.416 51.56 252.635 51.1654 253.072C50.7814 253.499 50.552 254.096 50.4774 254.864H54.8454C54.8454 254.373 54.7707 253.947 54.6214 253.584C54.472 253.221 54.2427 252.939 53.9334 252.736C53.6347 252.523 53.2454 252.416 52.7654 252.416ZM67.7006 251.424V260H66.4366V254.528C66.4366 254.304 66.442 254.069 66.4526 253.824C66.474 253.579 66.4953 253.339 66.5166 253.104H66.4686L63.6686 260H62.4846L59.7646 253.104H59.7166C59.738 253.339 59.7486 253.579 59.7486 253.824C59.7593 254.069 59.7646 254.32 59.7646 254.576V260H58.5006V251.424H60.3726L63.0766 258.32L65.8286 251.424H67.7006ZM71.7661 256.656C71.7661 256.752 71.7608 256.891 71.7501 257.072C71.7501 257.243 71.7448 257.429 71.7341 257.632C71.7235 257.824 71.7128 258.011 71.7021 258.192C71.6915 258.363 71.6808 258.501 71.6701 258.608L76.2621 251.424H77.9901V260H76.6781V254.944C76.6781 254.773 76.6781 254.549 76.6781 254.272C76.6888 253.995 76.6995 253.723 76.7101 253.456C76.7208 253.179 76.7315 252.971 76.7421 252.832L72.1821 260H70.4381V251.424H71.7661V256.656ZM82.1274 251.424V254.992H86.7834V251.424H88.1914V260H86.7834V256.176H82.1274V260H80.7194V251.424H82.1274ZM94.1549 251.28C95.2002 251.28 95.9735 251.509 96.4749 251.968C96.9762 252.427 97.2269 253.157 97.2269 254.16V260H96.2029L95.9309 258.784H95.8669C95.6215 259.093 95.3655 259.355 95.0989 259.568C94.8429 259.771 94.5442 259.92 94.2029 260.016C93.8722 260.112 93.4669 260.16 92.9869 260.16C92.4749 260.16 92.0109 260.069 91.5949 259.888C91.1895 259.707 90.8695 259.429 90.6349 259.056C90.4002 258.672 90.2829 258.192 90.2829 257.616C90.2829 256.763 90.6189 256.107 91.2909 255.648C91.9629 255.179 92.9975 254.923 94.3949 254.88L95.8509 254.832V254.32C95.8509 253.605 95.6962 253.109 95.3869 252.832C95.0775 252.555 94.6402 252.416 94.0749 252.416C93.6269 252.416 93.2002 252.485 92.7949 252.624C92.3895 252.752 92.0109 252.901 91.6589 253.072L91.2269 252.016C91.6002 251.813 92.0429 251.643 92.5549 251.504C93.0669 251.355 93.6002 251.28 94.1549 251.28ZM94.5709 255.856C93.5042 255.899 92.7629 256.069 92.3469 256.368C91.9415 256.667 91.7389 257.088 91.7389 257.632C91.7389 258.112 91.8829 258.464 92.1709 258.688C92.4695 258.912 92.8482 259.024 93.3069 259.024C94.0322 259.024 94.6349 258.827 95.1149 258.432C95.5949 258.027 95.8349 257.408 95.8349 256.576V255.808L94.5709 255.856ZM103.956 251.264C105.012 251.264 105.86 251.632 106.5 252.368C107.15 253.104 107.476 254.213 107.476 255.696C107.476 256.667 107.326 257.488 107.028 258.16C106.74 258.821 106.329 259.323 105.796 259.664C105.273 259.995 104.654 260.16 103.94 260.16C103.502 260.16 103.113 260.101 102.772 259.984C102.43 259.867 102.137 259.717 101.892 259.536C101.657 259.344 101.454 259.136 101.284 258.912H101.188C101.209 259.093 101.23 259.323 101.252 259.6C101.273 259.877 101.284 260.117 101.284 260.32V263.84H99.8756V251.424H101.028L101.22 252.592H101.284C101.454 252.347 101.657 252.123 101.892 251.92C102.137 251.717 102.425 251.557 102.756 251.44C103.097 251.323 103.497 251.264 103.956 251.264ZM103.7 252.448C103.124 252.448 102.66 252.56 102.308 252.784C101.956 252.997 101.7 253.323 101.54 253.76C101.38 254.197 101.294 254.752 101.284 255.424V255.696C101.284 256.4 101.358 256.997 101.508 257.488C101.657 257.979 101.908 258.352 102.26 258.608C102.622 258.864 103.113 258.992 103.732 258.992C104.254 258.992 104.681 258.848 105.012 258.56C105.353 258.272 105.604 257.883 105.764 257.392C105.934 256.891 106.02 256.32 106.02 255.68C106.02 254.699 105.828 253.915 105.444 253.328C105.07 252.741 104.489 252.448 103.7 252.448ZM109.719 260V251.424H111.127V254.944H113.351C114.098 254.944 114.711 255.035 115.191 255.216C115.671 255.397 116.029 255.669 116.263 256.032C116.498 256.384 116.615 256.832 116.615 257.376C116.615 257.909 116.498 258.373 116.263 258.768C116.039 259.163 115.682 259.467 115.191 259.68C114.711 259.893 114.077 260 113.287 260H109.719ZM113.159 258.864C113.767 258.864 114.263 258.763 114.647 258.56C115.031 258.347 115.223 257.979 115.223 257.456C115.223 256.933 115.047 256.581 114.695 256.4C114.343 256.208 113.837 256.112 113.175 256.112H111.127V258.864H113.159ZM118.039 260V251.424H119.447V260H118.039Z" fill="#333333"/>
<path d="M5 295L12.5 302.5L25 287.5" stroke="#61B857" stroke-width="2" stroke-linecap="round" stroke-linejoin="round"/>
<path d="M39.552 300.5V289.076H46.336V290.34H40.992V293.908H42.688C43.8293 293.908 44.7147 294.052 45.344 294.34C45.9733 294.617 46.4107 295.001 46.656 295.492C46.9013 295.972 47.024 296.527 47.024 297.156C47.024 297.849 46.8853 298.447 46.608 298.948C46.3413 299.449 45.904 299.833 45.296 300.1C44.688 300.367 43.888 300.5 42.896 300.5H39.552ZM42.752 299.268C43.776 299.268 44.496 299.097 44.912 298.756C45.328 298.404 45.536 297.871 45.536 297.156C45.536 296.665 45.4347 296.276 45.232 295.988C45.04 295.689 44.72 295.476 44.272 295.348C43.8347 295.22 43.248 295.156 42.512 295.156H40.992V299.268H42.752ZM50.5318 297.156C50.5318 297.252 50.5264 297.391 50.5158 297.572C50.5158 297.743 50.5104 297.929 50.4998 298.132C50.4891 298.324 50.4784 298.511 50.4678 298.692C50.4571 298.863 50.4464 299.001 50.4358 299.108L55.0278 291.924H56.7558V300.5H55.4438V295.444C55.4438 295.273 55.4438 295.049 55.4438 294.772C55.4544 294.495 55.4651 294.223 55.4758 293.956C55.4864 293.679 55.4971 293.471 55.5078 293.332L50.9478 300.5H49.2038V291.924H50.5318V297.156ZM61.741 291.764C62.3917 291.764 62.957 291.855 63.437 292.036C63.917 292.207 64.2903 292.463 64.557 292.804C64.8237 293.135 64.957 293.54 64.957 294.02C64.957 294.543 64.813 294.959 64.525 295.268C64.237 295.567 63.8423 295.785 63.341 295.924V295.988C63.6823 296.084 63.997 296.217 64.285 296.388C64.573 296.559 64.8023 296.783 64.973 297.06C65.1543 297.337 65.245 297.695 65.245 298.132C65.245 298.601 65.1117 299.028 64.845 299.412C64.589 299.796 64.189 300.1 63.645 300.324C63.1117 300.548 62.4237 300.66 61.581 300.66C61.1757 300.66 60.7863 300.639 60.413 300.596C60.0503 300.553 59.7197 300.489 59.421 300.404C59.133 300.319 58.877 300.217 58.653 300.1V298.836C59.0157 299.007 59.4423 299.161 59.933 299.3C60.4343 299.439 60.9783 299.508 61.565 299.508C61.9917 299.508 62.3757 299.46 62.717 299.364C63.069 299.268 63.3463 299.119 63.549 298.916C63.7517 298.703 63.853 298.415 63.853 298.052C63.853 297.721 63.7623 297.455 63.581 297.252C63.3997 297.039 63.1277 296.879 62.765 296.772C62.413 296.665 61.9597 296.612 61.405 296.612H60.253V295.46H61.181C61.917 295.46 62.5037 295.364 62.941 295.172C63.389 294.969 63.613 294.628 63.613 294.148C63.613 293.743 63.4423 293.439 63.101 293.236C62.7703 293.033 62.2903 292.932 61.661 292.932C61.1917 292.932 60.7757 292.98 60.413 293.076C60.061 293.161 59.6717 293.295 59.245 293.476L58.749 292.356C59.2077 292.153 59.6877 292.004 60.189 291.908C60.6903 291.812 61.2077 291.764 61.741 291.764ZM68.7368 291.924V295.492H73.3928V291.924H74.8008V300.5H73.3928V296.676H68.7368V300.5H67.3288V291.924H68.7368ZM80.8283 291.764C81.5643 291.764 82.1936 291.924 82.7163 292.244C83.2496 292.564 83.6549 293.017 83.9323 293.604C84.2203 294.18 84.3643 294.857 84.3643 295.636V296.484H78.4923C78.5136 297.455 78.7589 298.196 79.2283 298.708C79.7083 299.209 80.3749 299.46 81.2283 299.46C81.7723 299.46 82.2523 299.412 82.6683 299.316C83.0949 299.209 83.5323 299.06 83.9803 298.868V300.1C83.5429 300.292 83.1109 300.431 82.6843 300.516C82.2576 300.612 81.7509 300.66 81.1643 300.66C80.3536 300.66 79.6336 300.495 79.0043 300.164C78.3856 299.833 77.9003 299.343 77.5483 298.692C77.2069 298.031 77.0363 297.225 77.0363 296.276C77.0363 295.337 77.1909 294.532 77.5003 293.86C77.8203 293.188 78.2629 292.671 78.8283 292.308C79.4043 291.945 80.0709 291.764 80.8283 291.764ZM80.8123 292.916C80.1403 292.916 79.6069 293.135 79.2123 293.572C78.8283 293.999 78.5989 294.596 78.5243 295.364H82.8923C82.8923 294.873 82.8176 294.447 82.6683 294.084C82.5189 293.721 82.2896 293.439 81.9803 293.236C81.6816 293.023 81.2923 292.916 80.8123 292.916ZM89.9875 300.66C89.2302 300.66 88.5528 300.505 87.9555 300.196C87.3688 299.887 86.9048 299.407 86.5635 298.756C86.2328 298.105 86.0675 297.273 86.0675 296.26C86.0675 295.204 86.2435 294.345 86.5955 293.684C86.9475 293.023 87.4222 292.537 88.0195 292.228C88.6275 291.919 89.3155 291.764 90.0835 291.764C90.5208 291.764 90.9422 291.812 91.3475 291.908C91.7528 291.993 92.0835 292.1 92.3395 292.228L91.9075 293.396C91.6515 293.3 91.3528 293.209 91.0115 293.124C90.6702 293.039 90.3502 292.996 90.0515 292.996C89.4755 292.996 89.0008 293.119 88.6275 293.364C88.2542 293.609 87.9768 293.972 87.7955 294.452C87.6142 294.932 87.5235 295.529 87.5235 296.244C87.5235 296.927 87.6142 297.508 87.7955 297.988C87.9768 298.468 88.2488 298.831 88.6115 299.076C88.9742 299.321 89.4275 299.444 89.9715 299.444C90.4408 299.444 90.8515 299.396 91.2035 299.3C91.5662 299.204 91.8968 299.087 92.1955 298.948V300.196C91.9075 300.345 91.5875 300.457 91.2355 300.532C90.8942 300.617 90.4782 300.66 89.9875 300.66ZM107.448 300.5H106.008V290.34H102.392C102.317 290.927 102.237 291.545 102.152 292.196C102.067 292.836 101.976 293.471 101.88 294.1C101.795 294.729 101.709 295.321 101.624 295.876C101.539 296.431 101.453 296.916 101.368 297.332C101.229 298.047 101.059 298.655 100.856 299.156C100.653 299.657 100.381 300.036 100.04 300.292C99.7092 300.548 99.2719 300.676 98.7279 300.676C98.5465 300.676 98.3599 300.655 98.1679 300.612C97.9865 300.58 97.8265 300.537 97.6879 300.484V299.284C97.8052 299.337 97.9385 299.385 98.0879 299.428C98.2372 299.46 98.3972 299.476 98.5679 299.476C98.8879 299.476 99.1385 299.348 99.3199 299.092C99.5119 298.825 99.6612 298.5 99.7679 298.116C99.8745 297.721 99.9652 297.332 100.04 296.948C100.104 296.639 100.179 296.228 100.264 295.716C100.349 295.193 100.44 294.585 100.536 293.892C100.643 293.199 100.749 292.447 100.856 291.636C100.973 290.815 101.085 289.961 101.192 289.076H107.448V300.5ZM113.608 291.78C114.653 291.78 115.427 292.009 115.928 292.468C116.429 292.927 116.68 293.657 116.68 294.66V300.5H115.656L115.384 299.284H115.32C115.075 299.593 114.819 299.855 114.552 300.068C114.296 300.271 113.997 300.42 113.656 300.516C113.325 300.612 112.92 300.66 112.44 300.66C111.928 300.66 111.464 300.569 111.048 300.388C110.643 300.207 110.323 299.929 110.088 299.556C109.853 299.172 109.736 298.692 109.736 298.116C109.736 297.263 110.072 296.607 110.744 296.148C111.416 295.679 112.451 295.423 113.848 295.38L115.304 295.332V294.82C115.304 294.105 115.149 293.609 114.84 293.332C114.531 293.055 114.093 292.916 113.528 292.916C113.08 292.916 112.653 292.985 112.248 293.124C111.843 293.252 111.464 293.401 111.112 293.572L110.68 292.516C111.053 292.313 111.496 292.143 112.008 292.004C112.52 291.855 113.053 291.78 113.608 291.78ZM114.024 296.356C112.957 296.399 112.216 296.569 111.8 296.868C111.395 297.167 111.192 297.588 111.192 298.132C111.192 298.612 111.336 298.964 111.624 299.188C111.923 299.412 112.301 299.524 112.76 299.524C113.485 299.524 114.088 299.327 114.568 298.932C115.048 298.527 115.288 297.908 115.288 297.076V296.308L114.024 296.356ZM124.561 291.924V293.108H120.737V300.5H119.329V291.924H124.561ZM129.406 291.764C130.142 291.764 130.772 291.924 131.294 292.244C131.828 292.564 132.233 293.017 132.51 293.604C132.798 294.18 132.942 294.857 132.942 295.636V296.484H127.07C127.092 297.455 127.337 298.196 127.806 298.708C128.286 299.209 128.953 299.46 129.806 299.46C130.35 299.46 130.83 299.412 131.246 299.316C131.673 299.209 132.11 299.06 132.558 298.868V300.1C132.121 300.292 131.689 300.431 131.262 300.516C130.836 300.612 130.329 300.66 129.742 300.66C128.932 300.66 128.212 300.495 127.582 300.164C126.964 299.833 126.478 299.343 126.126 298.692C125.785 298.031 125.614 297.225 125.614 296.276C125.614 295.337 125.769 294.532 126.078 293.86C126.398 293.188 126.841 292.671 127.406 292.308C127.982 291.945 128.649 291.764 129.406 291.764ZM129.39 292.916C128.718 292.916 128.185 293.135 127.79 293.572C127.406 293.999 127.177 294.596 127.102 295.364H131.47C131.47 294.873 131.396 294.447 131.246 294.084C131.097 293.721 130.868 293.439 130.558 293.236C130.26 293.023 129.87 292.916 129.39 292.916ZM139.206 291.764C140.262 291.764 141.11 292.132 141.75 292.868C142.4 293.604 142.726 294.713 142.726 296.196C142.726 297.167 142.576 297.988 142.278 298.66C141.99 299.321 141.579 299.823 141.046 300.164C140.523 300.495 139.904 300.66 139.19 300.66C138.752 300.66 138.363 300.601 138.022 300.484C137.68 300.367 137.387 300.217 137.142 300.036C136.907 299.844 136.704 299.636 136.534 299.412H136.438C136.459 299.593 136.48 299.823 136.502 300.1C136.523 300.377 136.534 300.617 136.534 300.82V304.34H135.126V291.924H136.278L136.47 293.092H136.534C136.704 292.847 136.907 292.623 137.142 292.42C137.387 292.217 137.675 292.057 138.006 291.94C138.347 291.823 138.747 291.764 139.206 291.764ZM138.95 292.948C138.374 292.948 137.91 293.06 137.558 293.284C137.206 293.497 136.95 293.823 136.79 294.26C136.63 294.697 136.544 295.252 136.534 295.924V296.196C136.534 296.9 136.608 297.497 136.758 297.988C136.907 298.479 137.158 298.852 137.51 299.108C137.872 299.364 138.363 299.492 138.982 299.492C139.504 299.492 139.931 299.348 140.262 299.06C140.603 298.772 140.854 298.383 141.014 297.892C141.184 297.391 141.27 296.82 141.27 296.18C141.27 295.199 141.078 294.415 140.694 293.828C140.32 293.241 139.739 292.948 138.95 292.948ZM145.497 300.5H143.865L146.313 296.9C145.983 296.815 145.663 296.681 145.353 296.5C145.044 296.308 144.793 296.047 144.601 295.716C144.409 295.375 144.313 294.953 144.313 294.452C144.313 293.631 144.591 293.007 145.145 292.58C145.7 292.143 146.436 291.924 147.353 291.924H151.193V300.5H149.785V297.092H147.705L145.497 300.5ZM145.673 294.468C145.673 294.959 145.855 295.327 146.217 295.572C146.591 295.807 147.108 295.924 147.769 295.924H149.785V293.092H147.497C146.847 293.092 146.377 293.22 146.089 293.476C145.812 293.732 145.673 294.063 145.673 294.468Z" fill="#333333"/>
</svg>
