<svg width="326" height="541" viewBox="0 0 326 541" fill="none" xmlns="http://www.w3.org/2000/svg">
<g filter="url(#filter0_d_170_4051)">
<rect x="17" y="15" width="286" height="500" rx="5" fill="white" shape-rendering="crispEdges"/>
<g filter="url(#filter1_d_170_4051)">
<path d="M79.1654 79.9585C78.3737 79.9585 77.582 79.6668 76.957 79.0418C75.7487 77.8335 75.7487 75.8335 76.957 74.6252L111.124 40.4585C112.332 39.2502 114.332 39.2502 115.54 40.4585C116.749 41.6668 116.749 43.6668 115.54 44.8752L81.3737 79.0418C80.7487 79.6668 79.957 79.9585 79.1654 79.9585Z" fill="#1959AB"/>
<path d="M116.668 62.4585C114.96 62.4585 113.543 61.0418 113.543 59.3335V42.4585H96.668C94.9596 42.4585 93.543 41.0418 93.543 39.3335C93.543 37.6252 94.9596 36.2085 96.668 36.2085H116.668C118.376 36.2085 119.793 37.6252 119.793 39.3335V59.3335C119.793 61.0418 118.376 62.4585 116.668 62.4585Z" fill="#1959AB"/>
<path d="M87.4987 125.792H62.4987C39.8737 125.792 30.207 116.125 30.207 93.5002V68.5002C30.207 45.8752 39.8737 36.2085 62.4987 36.2085H70.832C72.5404 36.2085 73.957 37.6252 73.957 39.3335C73.957 41.0418 72.5404 42.4585 70.832 42.4585H62.4987C43.2904 42.4585 36.457 49.2918 36.457 68.5002V93.5002C36.457 112.708 43.2904 119.542 62.4987 119.542H87.4987C106.707 119.542 113.54 112.708 113.54 93.5002V85.1668C113.54 83.4585 114.957 82.0418 116.665 82.0418C118.374 82.0418 119.79 83.4585 119.79 85.1668V93.5002C119.79 116.125 110.124 125.792 87.4987 125.792Z" fill="#1959AB"/>
</g>
<path d="M39.168 187.566C39.9492 188.324 40.5469 189.242 40.9609 190.32C41.3828 191.398 41.5938 192.633 41.5938 194.023C41.5938 195.516 41.3633 196.859 40.9023 198.055C40.4414 199.242 39.8086 200.215 39.0039 200.973C38.1992 201.73 37.2305 202.316 36.0977 202.73C34.9727 203.137 33.7148 203.34 32.3242 203.34C31.582 203.34 30.8906 203.289 30.25 203.188C29.6172 203.094 29.0469 202.977 28.5391 202.836C28 202.688 27.5117 202.535 27.0742 202.379C26.6367 202.215 26.3047 202.086 26.0781 201.992V198.043H26.5117C26.7461 198.238 27.0312 198.457 27.3672 198.699C27.7031 198.934 28.0703 199.148 28.4688 199.344C28.9453 199.57 29.4531 199.762 29.9922 199.918C30.5312 200.066 31.1719 200.141 31.9141 200.141C32.4375 200.141 32.9961 200.07 33.5898 199.93C34.1836 199.781 34.7148 199.535 35.1836 199.191C35.6758 198.84 36.0977 198.371 36.4492 197.785C36.8086 197.199 37.0352 196.453 37.1289 195.547H29.3594V192.219H37.0234C36.8984 191.516 36.6758 190.926 36.3555 190.449C36.0352 189.973 35.6523 189.582 35.207 189.277C34.7617 188.973 34.2734 188.754 33.7422 188.621C33.2188 188.48 32.6953 188.41 32.1719 188.41C31.5234 188.41 30.9219 188.488 30.3672 188.645C29.8203 188.793 29.3047 188.984 28.8203 189.219C28.3828 189.438 27.9922 189.672 27.6484 189.922C27.3125 190.172 27.0312 190.383 26.8047 190.555H26.3125V186.57C26.7422 186.383 27.1445 186.223 27.5195 186.09C27.8945 185.949 28.3789 185.801 28.9727 185.645C29.4492 185.52 30.0117 185.418 30.6602 185.34C31.3086 185.254 31.9727 185.211 32.6523 185.211C33.9961 185.211 35.2188 185.41 36.3203 185.809C37.4219 186.207 38.3711 186.793 39.168 187.566ZM58.7734 203H53.8984L50.3711 197.785H49.0234V203H44.8047V189.84H49.0234V195.125C49.8047 195.117 50.3438 195.035 50.6406 194.879C50.9375 194.715 51.2812 194.289 51.6719 193.602C51.7891 193.398 51.9297 193.137 52.0938 192.816C52.2578 192.496 52.3867 192.25 52.4805 192.078C52.9102 191.312 53.4102 190.746 53.9805 190.379C54.5586 190.004 55.3594 189.816 56.3828 189.816C56.6797 189.816 56.9922 189.82 57.3203 189.828C57.6562 189.836 57.8828 189.84 58 189.84V193.355H56.8516C56.3828 193.355 56.0078 193.473 55.7266 193.707C55.4531 193.941 55.2148 194.289 55.0117 194.75C54.8398 195.133 54.6836 195.438 54.543 195.664C54.4023 195.883 54.2227 196.07 54.0039 196.227L58.7734 203ZM67.7617 203.352C66.6133 203.352 65.5625 203.215 64.6094 202.941C63.6641 202.668 62.8398 202.246 62.1367 201.676C61.4414 201.105 60.9023 200.387 60.5195 199.52C60.1367 198.652 59.9453 197.637 59.9453 196.473C59.9453 195.246 60.1484 194.188 60.5547 193.297C60.9688 192.406 61.543 191.668 62.2773 191.082C62.9883 190.527 63.8086 190.121 64.7383 189.863C65.668 189.605 66.6328 189.477 67.6328 189.477C68.5312 189.477 69.3594 189.574 70.1172 189.77C70.875 189.965 71.582 190.219 72.2383 190.531V194.129H71.6406C71.4766 193.988 71.2773 193.824 71.043 193.637C70.8164 193.449 70.5352 193.266 70.1992 193.086C69.8789 192.914 69.5273 192.773 69.1445 192.664C68.7617 192.547 68.3164 192.488 67.8086 192.488C66.6836 192.488 65.8164 192.848 65.207 193.566C64.6055 194.277 64.3047 195.246 64.3047 196.473C64.3047 197.738 64.6133 198.699 65.2305 199.355C65.8555 200.012 66.7383 200.34 67.8789 200.34C68.4102 200.34 68.8867 200.281 69.3086 200.164C69.7383 200.039 70.0938 199.895 70.375 199.73C70.6406 199.574 70.875 199.41 71.0781 199.238C71.2812 199.066 71.4688 198.898 71.6406 198.734H72.2383V202.332C71.5742 202.645 70.8789 202.891 70.1523 203.07C69.4336 203.258 68.6367 203.352 67.7617 203.352ZM88.5625 203H84.3438V192.699H79.4922V203H75.2734V189.84H88.5625V203ZM106 196.426C106 198.59 105.367 200.297 104.102 201.547C102.844 202.789 101.074 203.41 98.793 203.41C96.5117 203.41 94.7383 202.789 93.4727 201.547C92.2148 200.297 91.5859 198.59 91.5859 196.426C91.5859 194.246 92.2188 192.535 93.4844 191.293C94.7578 190.051 96.5273 189.43 98.793 189.43C101.09 189.43 102.863 190.055 104.113 191.305C105.371 192.555 106 194.262 106 196.426ZM100.809 199.625C101.082 199.289 101.285 198.887 101.418 198.418C101.559 197.941 101.629 197.285 101.629 196.449C101.629 195.676 101.559 195.027 101.418 194.504C101.277 193.98 101.082 193.562 100.832 193.25C100.582 192.93 100.281 192.703 99.9297 192.57C99.5781 192.438 99.1992 192.371 98.793 192.371C98.3867 192.371 98.0234 192.426 97.7031 192.535C97.3906 192.645 97.0898 192.863 96.8008 193.191C96.543 193.496 96.3359 193.914 96.1797 194.445C96.0312 194.977 95.957 195.645 95.957 196.449C95.957 197.168 96.0234 197.793 96.1562 198.324C96.2891 198.848 96.4844 199.27 96.7422 199.59C96.9922 199.895 97.2891 200.117 97.6328 200.258C97.9844 200.398 98.3828 200.469 98.8281 200.469C99.2109 200.469 99.5742 200.406 99.918 200.281C100.27 200.148 100.566 199.93 100.809 199.625ZM122.758 196.238C122.758 197.324 122.59 198.312 122.254 199.203C121.926 200.094 121.492 200.828 120.953 201.406C120.391 202.016 119.754 202.477 119.043 202.789C118.332 203.102 117.57 203.258 116.758 203.258C116.008 203.258 115.371 203.176 114.848 203.012C114.324 202.855 113.789 202.633 113.242 202.344V207.828H109.023V189.84H113.242V191.211C113.891 190.695 114.551 190.277 115.223 189.957C115.902 189.637 116.684 189.477 117.566 189.477C119.207 189.477 120.48 190.078 121.387 191.281C122.301 192.484 122.758 194.137 122.758 196.238ZM118.41 196.32C118.41 195.039 118.191 194.109 117.754 193.531C117.316 192.953 116.625 192.664 115.68 192.664C115.281 192.664 114.871 192.727 114.449 192.852C114.027 192.969 113.625 193.141 113.242 193.367V199.988C113.523 200.098 113.824 200.168 114.145 200.199C114.465 200.23 114.781 200.246 115.094 200.246C116.211 200.246 117.043 199.922 117.59 199.273C118.137 198.617 118.41 197.633 118.41 196.32ZM136.539 192.699H132.344V203H128.125V192.699H123.93V189.84H136.539V192.699Z" fill="#333333"/>
<path d="M30 239L37.5 246.5L50 231.5" stroke="#61B857" stroke-width="2" stroke-linecap="round" stroke-linejoin="round"/>
<path d="M72.888 244.5H71.16L65.992 238.708V244.5H64.552V233.076H65.992V238.612L71.032 233.076H72.664L67.704 238.628L72.888 244.5ZM81.7066 240.196C81.7066 240.911 81.6106 241.545 81.4186 242.1C81.2373 242.644 80.9706 243.108 80.6186 243.492C80.2773 243.876 79.856 244.169 79.3546 244.372C78.864 244.564 78.3146 244.66 77.7066 244.66C77.1413 244.66 76.6186 244.564 76.1386 244.372C75.6586 244.169 75.2426 243.876 74.8906 243.492C74.5386 243.108 74.2613 242.644 74.0586 242.1C73.8666 241.545 73.7706 240.911 73.7706 240.196C73.7706 239.247 73.9306 238.447 74.2506 237.796C74.5706 237.135 75.0293 236.633 75.6266 236.292C76.224 235.94 76.9333 235.764 77.7546 235.764C78.5333 235.764 79.216 235.94 79.8026 236.292C80.4 236.633 80.864 237.135 81.1946 237.796C81.536 238.447 81.7066 239.247 81.7066 240.196ZM75.2266 240.196C75.2266 240.868 75.312 241.455 75.4826 241.956C75.664 242.447 75.9413 242.825 76.3146 243.092C76.688 243.359 77.1626 243.492 77.7386 243.492C78.3146 243.492 78.7893 243.359 79.1626 243.092C79.536 242.825 79.808 242.447 79.9786 241.956C80.16 241.455 80.2506 240.868 80.2506 240.196C80.2506 239.513 80.16 238.932 79.9786 238.452C79.7973 237.972 79.52 237.604 79.1466 237.348C78.784 237.081 78.3093 236.948 77.7226 236.948C76.848 236.948 76.2133 237.236 75.8186 237.812C75.424 238.388 75.2266 239.183 75.2266 240.196ZM85.3461 235.924V239.492H90.0021V235.924H91.4101V244.5H90.0021V240.676H85.3461V244.5H83.9381V235.924H85.3461ZM97.5656 244.66C96.8083 244.66 96.131 244.505 95.5336 244.196C94.947 243.887 94.483 243.407 94.1416 242.756C93.811 242.105 93.6456 241.273 93.6456 240.26C93.6456 239.204 93.8216 238.345 94.1736 237.684C94.5256 237.023 95.0003 236.537 95.5976 236.228C96.2056 235.919 96.8936 235.764 97.6616 235.764C98.099 235.764 98.5203 235.812 98.9256 235.908C99.331 235.993 99.6616 236.1 99.9176 236.228L99.4856 237.396C99.2296 237.3 98.931 237.209 98.5896 237.124C98.2483 237.039 97.9283 236.996 97.6296 236.996C97.0536 236.996 96.579 237.119 96.2056 237.364C95.8323 237.609 95.555 237.972 95.3736 238.452C95.1923 238.932 95.1016 239.529 95.1016 240.244C95.1016 240.927 95.1923 241.508 95.3736 241.988C95.555 242.468 95.827 242.831 96.1896 243.076C96.5523 243.321 97.0056 243.444 97.5496 243.444C98.019 243.444 98.4296 243.396 98.7816 243.3C99.1443 243.204 99.475 243.087 99.7736 242.948V244.196C99.4856 244.345 99.1656 244.457 98.8136 244.532C98.4723 244.617 98.0563 244.66 97.5656 244.66ZM100.469 235.924H101.973L103.829 240.804C103.936 241.092 104.032 241.369 104.117 241.636C104.213 241.903 104.298 242.164 104.373 242.42C104.448 242.665 104.506 242.905 104.549 243.14H104.613C104.677 242.873 104.778 242.527 104.917 242.1C105.056 241.663 105.2 241.225 105.349 240.788L107.093 235.924H108.613L104.917 245.684C104.714 246.217 104.474 246.681 104.197 247.076C103.93 247.481 103.6 247.791 103.205 248.004C102.821 248.228 102.352 248.34 101.797 248.34C101.541 248.34 101.317 248.324 101.125 248.292C100.933 248.271 100.768 248.244 100.629 248.212V247.092C100.746 247.113 100.885 247.135 101.045 247.156C101.216 247.177 101.392 247.188 101.573 247.188C101.904 247.188 102.186 247.124 102.421 246.996C102.666 246.879 102.874 246.703 103.045 246.468C103.216 246.244 103.36 245.977 103.477 245.668L103.925 244.532L100.469 235.924ZM116.185 244.5H114.761V237.092H112.233C112.126 238.447 111.993 239.604 111.833 240.564C111.673 241.513 111.47 242.287 111.225 242.884C110.98 243.481 110.686 243.919 110.345 244.196C110.004 244.473 109.604 244.612 109.145 244.612C109.006 244.612 108.868 244.601 108.729 244.58C108.601 244.569 108.494 244.543 108.409 244.5V243.444C108.473 243.465 108.542 243.481 108.617 243.492C108.692 243.503 108.766 243.508 108.841 243.508C109.076 243.508 109.289 243.412 109.481 243.22C109.673 243.028 109.844 242.735 109.993 242.34C110.153 241.945 110.297 241.449 110.425 240.852C110.553 240.244 110.665 239.529 110.761 238.708C110.857 237.887 110.942 236.959 111.017 235.924H116.185V244.5ZM122.859 239.444C123.606 239.444 124.224 239.535 124.715 239.716C125.206 239.897 125.574 240.169 125.819 240.532C126.075 240.884 126.203 241.332 126.203 241.876C126.203 242.409 126.08 242.873 125.835 243.268C125.6 243.663 125.232 243.967 124.731 244.18C124.23 244.393 123.584 244.5 122.795 244.5H118.907V235.924H120.315V239.444H122.859ZM124.795 241.956C124.795 241.433 124.608 241.081 124.235 240.9C123.872 240.708 123.36 240.612 122.699 240.612H120.315V243.364H122.731C123.328 243.364 123.819 243.257 124.203 243.044C124.598 242.831 124.795 242.468 124.795 241.956ZM133.53 237.108H130.73V244.5H129.338V237.108H126.57V235.924H133.53V237.108ZM138.467 235.78C139.513 235.78 140.286 236.009 140.787 236.468C141.289 236.927 141.539 237.657 141.539 238.66V244.5H140.515L140.243 243.284H140.179C139.934 243.593 139.678 243.855 139.411 244.068C139.155 244.271 138.857 244.42 138.515 244.516C138.185 244.612 137.779 244.66 137.299 244.66C136.787 244.66 136.323 244.569 135.907 244.388C135.502 244.207 135.182 243.929 134.947 243.556C134.713 243.172 134.595 242.692 134.595 242.116C134.595 241.263 134.931 240.607 135.603 240.148C136.275 239.679 137.31 239.423 138.707 239.38L140.163 239.332V238.82C140.163 238.105 140.009 237.609 139.699 237.332C139.39 237.055 138.953 236.916 138.387 236.916C137.939 236.916 137.513 236.985 137.107 237.124C136.702 237.252 136.323 237.401 135.971 237.572L135.539 236.516C135.913 236.313 136.355 236.143 136.867 236.004C137.379 235.855 137.913 235.78 138.467 235.78ZM138.883 240.356C137.817 240.399 137.075 240.569 136.659 240.868C136.254 241.167 136.051 241.588 136.051 242.132C136.051 242.612 136.195 242.964 136.483 243.188C136.782 243.412 137.161 243.524 137.619 243.524C138.345 243.524 138.947 243.327 139.427 242.932C139.907 242.527 140.147 241.908 140.147 241.076V240.308L138.883 240.356ZM152.652 247.476H151.276V244.5H144.188V235.924H145.596V243.316H150.028V235.924H151.436V243.332H152.652V247.476ZM155.626 241.156C155.626 241.252 155.62 241.391 155.61 241.572C155.61 241.743 155.604 241.929 155.594 242.132C155.583 242.324 155.572 242.511 155.562 242.692C155.551 242.863 155.54 243.001 155.53 243.108L160.122 235.924H161.85V244.5H160.538V239.444C160.538 239.273 160.538 239.049 160.538 238.772C160.548 238.495 160.559 238.223 160.57 237.956C160.58 237.679 160.591 237.471 160.602 237.332L156.042 244.5H154.298V235.924H155.626V241.156ZM165.907 241.156C165.907 241.252 165.901 241.391 165.891 241.572C165.891 241.743 165.885 241.929 165.875 242.132C165.864 242.324 165.853 242.511 165.843 242.692C165.832 242.863 165.821 243.001 165.811 243.108L170.403 235.924H172.131V244.5H170.819V239.444C170.819 239.273 170.819 239.049 170.819 238.772C170.829 238.495 170.84 238.223 170.851 237.956C170.861 237.679 170.872 237.471 170.883 237.332L166.323 244.5H164.579V235.924H165.907V241.156ZM186.905 235.924V244.5H185.497V237.124H181.065V244.5H179.657V235.924H186.905ZM197.097 240.196C197.097 240.911 197.001 241.545 196.809 242.1C196.628 242.644 196.361 243.108 196.009 243.492C195.668 243.876 195.247 244.169 194.745 244.372C194.255 244.564 193.705 244.66 193.097 244.66C192.532 244.66 192.009 244.564 191.529 244.372C191.049 244.169 190.633 243.876 190.281 243.492C189.929 243.108 189.652 242.644 189.449 242.1C189.257 241.545 189.161 240.911 189.161 240.196C189.161 239.247 189.321 238.447 189.641 237.796C189.961 237.135 190.42 236.633 191.017 236.292C191.615 235.94 192.324 235.764 193.145 235.764C193.924 235.764 194.607 235.94 195.193 236.292C195.791 236.633 196.255 237.135 196.585 237.796C196.927 238.447 197.097 239.247 197.097 240.196ZM190.617 240.196C190.617 240.868 190.703 241.455 190.873 241.956C191.055 242.447 191.332 242.825 191.705 243.092C192.079 243.359 192.553 243.492 193.129 243.492C193.705 243.492 194.18 243.359 194.553 243.092C194.927 242.825 195.199 242.447 195.369 241.956C195.551 241.455 195.641 240.868 195.641 240.196C195.641 239.513 195.551 238.932 195.369 238.452C195.188 237.972 194.911 237.604 194.537 237.348C194.175 237.081 193.7 236.948 193.113 236.948C192.239 236.948 191.604 237.236 191.209 237.812C190.815 238.388 190.617 239.183 190.617 240.196ZM206.478 234.18C205.944 234.18 205.459 234.244 205.022 234.372C204.584 234.489 204.19 234.628 203.838 234.788L203.246 233.588C203.683 233.375 204.184 233.209 204.75 233.092C205.315 232.975 205.896 232.916 206.494 232.916C207.411 232.916 208.206 233.06 208.878 233.348C209.56 233.625 210.126 234.02 210.574 234.532C211.022 235.044 211.352 235.647 211.566 236.34C211.79 237.023 211.902 237.775 211.902 238.596C211.902 239.844 211.699 240.921 211.294 241.828C210.888 242.735 210.275 243.433 209.454 243.924C208.643 244.415 207.619 244.66 206.382 244.66C205.72 244.66 205.16 244.623 204.702 244.548C204.243 244.473 203.79 244.356 203.342 244.196V242.948C203.79 243.065 204.243 243.172 204.702 243.268C205.16 243.353 205.646 243.396 206.158 243.396C206.851 243.396 207.454 243.305 207.966 243.124C208.488 242.932 208.926 242.66 209.278 242.308C209.63 241.945 209.896 241.503 210.078 240.98C210.259 240.447 210.36 239.839 210.382 239.156H204.83V237.892H210.366C210.312 237.305 210.184 236.783 209.982 236.324C209.779 235.865 209.507 235.476 209.166 235.156C208.835 234.836 208.44 234.596 207.982 234.436C207.534 234.265 207.032 234.18 206.478 234.18ZM219.323 235.924H220.859L217.195 240.052L221.163 244.5H219.531L215.659 240.148V244.5H214.251V235.924H215.659V240.084L219.323 235.924ZM225.847 244.66C225.09 244.66 224.412 244.505 223.815 244.196C223.228 243.887 222.764 243.407 222.423 242.756C222.092 242.105 221.927 241.273 221.927 240.26C221.927 239.204 222.103 238.345 222.455 237.684C222.807 237.023 223.282 236.537 223.879 236.228C224.487 235.919 225.175 235.764 225.943 235.764C226.38 235.764 226.802 235.812 227.207 235.908C227.612 235.993 227.943 236.1 228.199 236.228L227.767 237.396C227.511 237.3 227.212 237.209 226.871 237.124C226.53 237.039 226.21 236.996 225.911 236.996C225.335 236.996 224.86 237.119 224.487 237.364C224.114 237.609 223.836 237.972 223.655 238.452C223.474 238.932 223.383 239.529 223.383 240.244C223.383 240.927 223.474 241.508 223.655 241.988C223.836 242.468 224.108 242.831 224.471 243.076C224.834 243.321 225.287 243.444 225.831 243.444C226.3 243.444 226.711 243.396 227.063 243.3C227.426 243.204 227.756 243.087 228.055 242.948V244.196C227.767 244.345 227.447 244.457 227.095 244.532C226.754 244.617 226.338 244.66 225.847 244.66ZM237.342 235.924V244.5H235.934V237.124H231.502V244.5H230.094V235.924H237.342ZM247.535 240.196C247.535 240.911 247.439 241.545 247.247 242.1C247.065 242.644 246.799 243.108 246.447 243.492C246.105 243.876 245.684 244.169 245.183 244.372C244.692 244.564 244.143 244.66 243.535 244.66C242.969 244.66 242.447 244.564 241.967 244.372C241.487 244.169 241.071 243.876 240.719 243.492C240.367 243.108 240.089 242.644 239.887 242.1C239.695 241.545 239.599 240.911 239.599 240.196C239.599 239.247 239.759 238.447 240.079 237.796C240.399 237.135 240.857 236.633 241.455 236.292C242.052 235.94 242.761 235.764 243.583 235.764C244.361 235.764 245.044 235.94 245.631 236.292C246.228 236.633 246.692 237.135 247.023 237.796C247.364 238.447 247.535 239.247 247.535 240.196ZM241.055 240.196C241.055 240.868 241.14 241.455 241.311 241.956C241.492 242.447 241.769 242.825 242.143 243.092C242.516 243.359 242.991 243.492 243.567 243.492C244.143 243.492 244.617 243.359 244.991 243.092C245.364 242.825 245.636 242.447 245.807 241.956C245.988 241.455 246.079 240.868 246.079 240.196C246.079 239.513 245.988 238.932 245.807 238.452C245.625 237.972 245.348 237.604 244.975 237.348C244.612 237.081 244.137 236.948 243.551 236.948C242.676 236.948 242.041 237.236 241.647 237.812C241.252 238.388 241.055 239.183 241.055 240.196ZM253.846 235.764C254.902 235.764 255.75 236.132 256.39 236.868C257.041 237.604 257.366 238.713 257.366 240.196C257.366 241.167 257.217 241.988 256.918 242.66C256.63 243.321 256.22 243.823 255.686 244.164C255.164 244.495 254.545 244.66 253.83 244.66C253.393 244.66 253.004 244.601 252.662 244.484C252.321 244.367 252.028 244.217 251.782 244.036C251.548 243.844 251.345 243.636 251.174 243.412H251.078C251.1 243.593 251.121 243.823 251.142 244.1C251.164 244.377 251.174 244.617 251.174 244.82V248.34H249.766V235.924H250.918L251.11 237.092H251.174C251.345 236.847 251.548 236.623 251.782 236.42C252.028 236.217 252.316 236.057 252.646 235.94C252.988 235.823 253.388 235.764 253.846 235.764ZM253.59 236.948C253.014 236.948 252.55 237.06 252.198 237.284C251.846 237.497 251.59 237.823 251.43 238.26C251.27 238.697 251.185 239.252 251.174 239.924V240.196C251.174 240.9 251.249 241.497 251.398 241.988C251.548 242.479 251.798 242.852 252.15 243.108C252.513 243.364 253.004 243.492 253.622 243.492C254.145 243.492 254.572 243.348 254.902 243.06C255.244 242.772 255.494 242.383 255.654 241.892C255.825 241.391 255.91 240.82 255.91 240.18C255.91 239.199 255.718 238.415 255.334 237.828C254.961 237.241 254.38 236.948 253.59 236.948ZM265.374 237.108H262.574V244.5H261.182V237.108H258.414V235.924H265.374V237.108ZM265.719 235.924H267.223L269.079 240.804C269.186 241.092 269.282 241.369 269.367 241.636C269.463 241.903 269.548 242.164 269.623 242.42C269.698 242.665 269.756 242.905 269.799 243.14H269.863C269.927 242.873 270.028 242.527 270.167 242.1C270.306 241.663 270.45 241.225 270.599 240.788L272.343 235.924H273.863L270.167 245.684C269.964 246.217 269.724 246.681 269.447 247.076C269.18 247.481 268.85 247.791 268.455 248.004C268.071 248.228 267.602 248.34 267.047 248.34C266.791 248.34 266.567 248.324 266.375 248.292C266.183 248.271 266.018 248.244 265.879 248.212V247.092C265.996 247.113 266.135 247.135 266.295 247.156C266.466 247.177 266.642 247.188 266.823 247.188C267.154 247.188 267.436 247.124 267.671 246.996C267.916 246.879 268.124 246.703 268.295 246.468C268.466 246.244 268.61 245.977 268.727 245.668L269.175 244.532L265.719 235.924Z" fill="#333333"/>
<path d="M30 285L37.5 292.5L50 277.5" stroke="#61B857" stroke-width="2" stroke-linecap="round" stroke-linejoin="round"/>
<path d="M64.552 290.5V279.076H73.128V290.5H71.704V280.34H65.992V290.5H64.552ZM83.5191 286.196C83.5191 286.911 83.4231 287.545 83.2311 288.1C83.0498 288.644 82.7831 289.108 82.4311 289.492C82.0898 289.876 81.6685 290.169 81.1671 290.372C80.6765 290.564 80.1271 290.66 79.5191 290.66C78.9538 290.66 78.4311 290.564 77.9511 290.372C77.4711 290.169 77.0551 289.876 76.7031 289.492C76.3511 289.108 76.0738 288.644 75.8711 288.1C75.6791 287.545 75.5831 286.911 75.5831 286.196C75.5831 285.247 75.7431 284.447 76.0631 283.796C76.3831 283.135 76.8418 282.633 77.4391 282.292C78.0365 281.94 78.7458 281.764 79.5671 281.764C80.3458 281.764 81.0285 281.94 81.6151 282.292C82.2125 282.633 82.6765 283.135 83.0071 283.796C83.3485 284.447 83.5191 285.247 83.5191 286.196ZM77.0391 286.196C77.0391 286.868 77.1245 287.455 77.2951 287.956C77.4765 288.447 77.7538 288.825 78.1271 289.092C78.5005 289.359 78.9751 289.492 79.5511 289.492C80.1271 289.492 80.6018 289.359 80.9751 289.092C81.3485 288.825 81.6205 288.447 81.7911 287.956C81.9725 287.455 82.0631 286.868 82.0631 286.196C82.0631 285.513 81.9725 284.932 81.7911 284.452C81.6098 283.972 81.3325 283.604 80.9591 283.348C80.5965 283.081 80.1218 282.948 79.5351 282.948C78.6605 282.948 78.0258 283.236 77.6311 283.812C77.2365 284.388 77.0391 285.183 77.0391 286.196ZM92.1186 281.924V289.316H93.3666V293.476H92.0066V290.5H86.0386V293.476H84.6946V289.316H85.3826C85.8733 288.633 86.2786 287.892 86.5986 287.092C86.9293 286.281 87.1746 285.439 87.3346 284.564C87.5053 283.679 87.596 282.799 87.6066 281.924H92.1186ZM88.8546 283.028C88.812 283.753 88.7 284.505 88.5186 285.284C88.3373 286.052 88.1026 286.788 87.8146 287.492C87.5373 288.196 87.212 288.804 86.8386 289.316H90.7586V283.028H88.8546ZM100.28 281.924V283.108H96.4555V290.5H95.0475V281.924H100.28ZM109.269 286.196C109.269 286.911 109.173 287.545 108.981 288.1C108.8 288.644 108.533 289.108 108.181 289.492C107.84 289.876 107.418 290.169 106.917 290.372C106.426 290.564 105.877 290.66 105.269 290.66C104.704 290.66 104.181 290.564 103.701 290.372C103.221 290.169 102.805 289.876 102.453 289.492C102.101 289.108 101.824 288.644 101.621 288.1C101.429 287.545 101.333 286.911 101.333 286.196C101.333 285.247 101.493 284.447 101.813 283.796C102.133 283.135 102.592 282.633 103.189 282.292C103.786 281.94 104.496 281.764 105.317 281.764C106.096 281.764 106.778 281.94 107.365 282.292C107.962 282.633 108.426 283.135 108.757 283.796C109.098 284.447 109.269 285.247 109.269 286.196ZM102.789 286.196C102.789 286.868 102.874 287.455 103.045 287.956C103.226 288.447 103.504 288.825 103.877 289.092C104.25 289.359 104.725 289.492 105.301 289.492C105.877 289.492 106.352 289.359 106.725 289.092C107.098 288.825 107.37 288.447 107.541 287.956C107.722 287.455 107.813 286.868 107.813 286.196C107.813 285.513 107.722 284.932 107.541 284.452C107.36 283.972 107.082 283.604 106.709 283.348C106.346 283.081 105.872 282.948 105.285 282.948C104.41 282.948 103.776 283.236 103.381 283.812C102.986 284.388 102.789 285.183 102.789 286.196ZM117.264 283.108H114.464V290.5H113.072V283.108H110.304V281.924H117.264V283.108ZM126.253 286.196C126.253 286.911 126.158 287.545 125.966 288.1C125.784 288.644 125.518 289.108 125.166 289.492C124.824 289.876 124.403 290.169 123.902 290.372C123.411 290.564 122.862 290.66 122.254 290.66C121.688 290.66 121.166 290.564 120.686 290.372C120.206 290.169 119.79 289.876 119.438 289.492C119.086 289.108 118.808 288.644 118.606 288.1C118.414 287.545 118.318 286.911 118.318 286.196C118.318 285.247 118.478 284.447 118.798 283.796C119.118 283.135 119.576 282.633 120.174 282.292C120.771 281.94 121.48 281.764 122.302 281.764C123.08 281.764 123.763 281.94 124.35 282.292C124.947 282.633 125.411 283.135 125.742 283.796C126.083 284.447 126.253 285.247 126.253 286.196ZM119.774 286.196C119.774 286.868 119.859 287.455 120.03 287.956C120.211 288.447 120.488 288.825 120.862 289.092C121.235 289.359 121.71 289.492 122.286 289.492C122.862 289.492 123.336 289.359 123.71 289.092C124.083 288.825 124.355 288.447 124.526 287.956C124.707 287.455 124.798 286.868 124.798 286.196C124.798 285.513 124.707 284.932 124.526 284.452C124.344 283.972 124.067 283.604 123.694 283.348C123.331 283.081 122.856 282.948 122.27 282.948C121.395 282.948 120.76 283.236 120.366 283.812C119.971 284.388 119.774 285.183 119.774 286.196ZM135.381 284.084C135.381 284.617 135.221 285.033 134.901 285.332C134.581 285.631 134.17 285.833 133.669 285.94V286.004C134.202 286.079 134.666 286.271 135.061 286.58C135.456 286.879 135.653 287.348 135.653 287.988C135.653 288.351 135.584 288.687 135.445 288.996C135.317 289.305 135.114 289.572 134.837 289.796C134.56 290.02 134.202 290.196 133.765 290.324C133.328 290.441 132.8 290.5 132.181 290.5H128.485V281.924H132.165C132.773 281.924 133.317 281.993 133.797 282.132C134.288 282.26 134.672 282.484 134.949 282.804C135.237 283.113 135.381 283.54 135.381 284.084ZM134.197 287.988C134.197 287.497 134.01 287.145 133.637 286.932C133.264 286.719 132.714 286.612 131.989 286.612H129.893V289.364H132.021C132.725 289.364 133.264 289.263 133.637 289.06C134.01 288.847 134.197 288.489 134.197 287.988ZM133.957 284.26C133.957 283.855 133.808 283.561 133.509 283.38C133.221 283.188 132.746 283.092 132.085 283.092H129.893V285.444H131.829C132.522 285.444 133.05 285.348 133.413 285.156C133.776 284.964 133.957 284.665 133.957 284.26ZM142.776 281.924H144.312L140.648 286.052L144.616 290.5H142.984L139.112 286.148V290.5H137.704V281.924H139.112V286.084L142.776 281.924ZM149.421 281.78C150.466 281.78 151.239 282.009 151.741 282.468C152.242 282.927 152.493 283.657 152.493 284.66V290.5H151.469L151.197 289.284H151.133C150.887 289.593 150.631 289.855 150.365 290.068C150.109 290.271 149.81 290.42 149.469 290.516C149.138 290.612 148.733 290.66 148.253 290.66C147.741 290.66 147.277 290.569 146.861 290.388C146.455 290.207 146.135 289.929 145.901 289.556C145.666 289.172 145.549 288.692 145.549 288.116C145.549 287.263 145.885 286.607 146.557 286.148C147.229 285.679 148.263 285.423 149.661 285.38L151.117 285.332V284.82C151.117 284.105 150.962 283.609 150.653 283.332C150.343 283.055 149.906 282.916 149.341 282.916C148.893 282.916 148.466 282.985 148.061 283.124C147.655 283.252 147.277 283.401 146.924 283.572L146.493 282.516C146.866 282.313 147.309 282.143 147.821 282.004C148.333 281.855 148.866 281.78 149.421 281.78ZM149.837 286.356C148.77 286.399 148.029 286.569 147.613 286.868C147.207 287.167 147.005 287.588 147.005 288.132C147.005 288.612 147.149 288.964 147.437 289.188C147.735 289.412 148.114 289.524 148.573 289.524C149.298 289.524 149.901 289.327 150.381 288.932C150.861 288.527 151.101 287.908 151.101 287.076V286.308L149.837 286.356ZM165.01 281.924H166.546L162.882 286.052L166.85 290.5H165.218L161.346 286.148V290.5H159.938V281.924H161.346V286.084L165.01 281.924ZM175.556 280.18C175.022 280.18 174.537 280.244 174.1 280.372C173.662 280.489 173.268 280.628 172.916 280.788L172.324 279.588C172.761 279.375 173.262 279.209 173.828 279.092C174.393 278.975 174.974 278.916 175.572 278.916C176.489 278.916 177.284 279.06 177.956 279.348C178.638 279.625 179.204 280.02 179.652 280.532C180.1 281.044 180.43 281.647 180.644 282.34C180.868 283.023 180.98 283.775 180.98 284.596C180.98 285.844 180.777 286.921 180.372 287.828C179.966 288.735 179.353 289.433 178.532 289.924C177.721 290.415 176.697 290.66 175.46 290.66C174.798 290.66 174.238 290.623 173.78 290.548C173.321 290.473 172.868 290.356 172.42 290.196V288.948C172.868 289.065 173.321 289.172 173.78 289.268C174.238 289.353 174.724 289.396 175.236 289.396C175.929 289.396 176.532 289.305 177.044 289.124C177.566 288.932 178.004 288.66 178.356 288.308C178.708 287.945 178.974 287.503 179.156 286.98C179.337 286.447 179.438 285.839 179.46 285.156H173.908V283.892H179.444C179.39 283.305 179.262 282.783 179.06 282.324C178.857 281.865 178.585 281.476 178.244 281.156C177.913 280.836 177.518 280.596 177.06 280.436C176.612 280.265 176.11 280.18 175.556 280.18ZM188.401 281.924H189.937L186.273 286.052L190.241 290.5H188.609L184.737 286.148V290.5H183.329V281.924H184.737V286.084L188.401 281.924ZM194.925 290.66C194.168 290.66 193.49 290.505 192.893 290.196C192.306 289.887 191.842 289.407 191.501 288.756C191.17 288.105 191.005 287.273 191.005 286.26C191.005 285.204 191.181 284.345 191.533 283.684C191.885 283.023 192.36 282.537 192.957 282.228C193.565 281.919 194.253 281.764 195.021 281.764C195.458 281.764 195.88 281.812 196.285 281.908C196.69 281.993 197.021 282.1 197.277 282.228L196.845 283.396C196.589 283.3 196.29 283.209 195.949 283.124C195.608 283.039 195.288 282.996 194.989 282.996C194.413 282.996 193.938 283.119 193.565 283.364C193.192 283.609 192.914 283.972 192.733 284.452C192.552 284.932 192.461 285.529 192.461 286.244C192.461 286.927 192.552 287.508 192.733 287.988C192.914 288.468 193.186 288.831 193.549 289.076C193.912 289.321 194.365 289.444 194.909 289.444C195.378 289.444 195.789 289.396 196.141 289.3C196.504 289.204 196.834 289.087 197.133 288.948V290.196C196.845 290.345 196.525 290.457 196.173 290.532C195.832 290.617 195.416 290.66 194.925 290.66ZM206.421 281.924V290.5H205.013V283.124H200.581V290.5H199.173V281.924H206.421ZM216.613 286.196C216.613 286.911 216.517 287.545 216.325 288.1C216.144 288.644 215.877 289.108 215.525 289.492C215.184 289.876 214.762 290.169 214.261 290.372C213.77 290.564 213.221 290.66 212.613 290.66C212.048 290.66 211.525 290.564 211.045 290.372C210.565 290.169 210.149 289.876 209.797 289.492C209.445 289.108 209.168 288.644 208.965 288.1C208.773 287.545 208.677 286.911 208.677 286.196C208.677 285.247 208.837 284.447 209.157 283.796C209.477 283.135 209.936 282.633 210.533 282.292C211.13 281.94 211.84 281.764 212.661 281.764C213.44 281.764 214.122 281.94 214.709 282.292C215.306 282.633 215.77 283.135 216.101 283.796C216.442 284.447 216.613 285.247 216.613 286.196ZM210.133 286.196C210.133 286.868 210.218 287.455 210.389 287.956C210.57 288.447 210.848 288.825 211.221 289.092C211.594 289.359 212.069 289.492 212.645 289.492C213.221 289.492 213.696 289.359 214.069 289.092C214.442 288.825 214.714 288.447 214.885 287.956C215.066 287.455 215.157 286.868 215.157 286.196C215.157 285.513 215.066 284.932 214.885 284.452C214.704 283.972 214.426 283.604 214.053 283.348C213.69 283.081 213.216 282.948 212.629 282.948C211.754 282.948 211.12 283.236 210.725 283.812C210.33 284.388 210.133 285.183 210.133 286.196ZM222.924 281.764C223.98 281.764 224.828 282.132 225.468 282.868C226.119 283.604 226.444 284.713 226.444 286.196C226.444 287.167 226.295 287.988 225.996 288.66C225.708 289.321 225.298 289.823 224.764 290.164C224.242 290.495 223.623 290.66 222.908 290.66C222.471 290.66 222.082 290.601 221.74 290.484C221.399 290.367 221.106 290.217 220.86 290.036C220.626 289.844 220.423 289.636 220.252 289.412H220.156C220.178 289.593 220.199 289.823 220.22 290.1C220.242 290.377 220.252 290.617 220.252 290.82V294.34H218.844V281.924H219.996L220.188 283.092H220.252C220.423 282.847 220.626 282.623 220.86 282.42C221.106 282.217 221.394 282.057 221.724 281.94C222.066 281.823 222.466 281.764 222.924 281.764ZM222.668 282.948C222.092 282.948 221.628 283.06 221.276 283.284C220.924 283.497 220.668 283.823 220.508 284.26C220.348 284.697 220.263 285.252 220.252 285.924V286.196C220.252 286.9 220.327 287.497 220.476 287.988C220.626 288.479 220.876 288.852 221.228 289.108C221.591 289.364 222.082 289.492 222.7 289.492C223.223 289.492 223.65 289.348 223.98 289.06C224.322 288.772 224.572 288.383 224.732 287.892C224.903 287.391 224.988 286.82 224.988 286.18C224.988 285.199 224.796 284.415 224.412 283.828C224.039 283.241 223.458 282.948 222.668 282.948ZM234.452 283.108H231.652V290.5H230.26V283.108H227.492V281.924H234.452V283.108ZM234.797 281.924H236.301L238.157 286.804C238.264 287.092 238.36 287.369 238.445 287.636C238.541 287.903 238.627 288.164 238.701 288.42C238.776 288.665 238.835 288.905 238.877 289.14H238.941C239.005 288.873 239.107 288.527 239.245 288.1C239.384 287.663 239.528 287.225 239.677 286.788L241.421 281.924H242.941L239.245 291.684C239.043 292.217 238.803 292.681 238.525 293.076C238.259 293.481 237.928 293.791 237.533 294.004C237.149 294.228 236.68 294.34 236.125 294.34C235.869 294.34 235.645 294.324 235.453 294.292C235.261 294.271 235.096 294.244 234.957 294.212V293.092C235.075 293.113 235.213 293.135 235.373 293.156C235.544 293.177 235.72 293.188 235.901 293.188C236.232 293.188 236.515 293.124 236.749 292.996C236.995 292.879 237.203 292.703 237.373 292.468C237.544 292.244 237.688 291.977 237.805 291.668L238.253 290.532L234.797 281.924Z" fill="#333333"/>
<path d="M30 331L37.5 338.5L50 323.5" stroke="#61B857" stroke-width="2" stroke-linecap="round" stroke-linejoin="round"/>
<path d="M69.448 326.18C68.84 326.18 68.2907 326.287 67.8 326.5C67.3093 326.703 66.8933 327.007 66.552 327.412C66.2107 327.807 65.9493 328.292 65.768 328.868C65.5867 329.433 65.496 330.073 65.496 330.788C65.496 331.727 65.64 332.543 65.928 333.236C66.2267 333.929 66.664 334.463 67.24 334.836C67.8267 335.209 68.5573 335.396 69.432 335.396C69.9333 335.396 70.408 335.353 70.856 335.268C71.304 335.183 71.7413 335.076 72.168 334.948V336.196C71.7413 336.356 71.2987 336.473 70.84 336.548C70.392 336.623 69.8533 336.66 69.224 336.66C68.0613 336.66 67.0907 336.42 66.312 335.94C65.5333 335.46 64.9467 334.777 64.552 333.892C64.168 333.007 63.976 331.967 63.976 330.772C63.976 329.908 64.0933 329.119 64.328 328.404C64.5733 327.689 64.9253 327.071 65.384 326.548C65.8533 326.025 66.4293 325.625 67.112 325.348C67.7947 325.06 68.5787 324.916 69.464 324.916C70.0507 324.916 70.616 324.975 71.16 325.092C71.704 325.209 72.1893 325.375 72.616 325.588L72.04 326.804C71.688 326.644 71.2933 326.5 70.856 326.372C70.4293 326.244 69.96 326.18 69.448 326.18ZM77.7814 327.764C78.5174 327.764 79.1467 327.924 79.6694 328.244C80.2027 328.564 80.608 329.017 80.8854 329.604C81.1734 330.18 81.3174 330.857 81.3174 331.636V332.484H75.4454C75.4667 333.455 75.712 334.196 76.1814 334.708C76.6614 335.209 77.328 335.46 78.1814 335.46C78.7254 335.46 79.2054 335.412 79.6214 335.316C80.048 335.209 80.4854 335.06 80.9334 334.868V336.1C80.496 336.292 80.064 336.431 79.6374 336.516C79.2107 336.612 78.704 336.66 78.1174 336.66C77.3067 336.66 76.5867 336.495 75.9574 336.164C75.3387 335.833 74.8534 335.343 74.5014 334.692C74.16 334.031 73.9894 333.225 73.9894 332.276C73.9894 331.337 74.144 330.532 74.4534 329.86C74.7734 329.188 75.216 328.671 75.7814 328.308C76.3574 327.945 77.024 327.764 77.7814 327.764ZM77.7654 328.916C77.0934 328.916 76.56 329.135 76.1654 329.572C75.7814 329.999 75.552 330.596 75.4774 331.364H79.8454C79.8454 330.873 79.7707 330.447 79.6214 330.084C79.472 329.721 79.2427 329.439 78.9334 329.236C78.6347 329.023 78.2454 328.916 77.7654 328.916ZM87.5806 327.764C88.6366 327.764 89.4846 328.132 90.1246 328.868C90.7753 329.604 91.1006 330.713 91.1006 332.196C91.1006 333.167 90.9513 333.988 90.6526 334.66C90.3646 335.321 89.954 335.823 89.4206 336.164C88.898 336.495 88.2793 336.66 87.5646 336.66C87.1273 336.66 86.738 336.601 86.3966 336.484C86.0553 336.367 85.762 336.217 85.5166 336.036C85.282 335.844 85.0793 335.636 84.9086 335.412H84.8126C84.834 335.593 84.8553 335.823 84.8766 336.1C84.898 336.377 84.9086 336.617 84.9086 336.82V340.34H83.5006V327.924H84.6526L84.8446 329.092H84.9086C85.0793 328.847 85.282 328.623 85.5166 328.42C85.762 328.217 86.05 328.057 86.3806 327.94C86.722 327.823 87.122 327.764 87.5806 327.764ZM87.3246 328.948C86.7486 328.948 86.2846 329.06 85.9326 329.284C85.5806 329.497 85.3246 329.823 85.1646 330.26C85.0046 330.697 84.9193 331.252 84.9086 331.924V332.196C84.9086 332.9 84.9833 333.497 85.1326 333.988C85.282 334.479 85.5326 334.852 85.8846 335.108C86.2473 335.364 86.738 335.492 87.3566 335.492C87.8793 335.492 88.306 335.348 88.6366 335.06C88.978 334.772 89.2286 334.383 89.3886 333.892C89.5593 333.391 89.6446 332.82 89.6446 332.18C89.6446 331.199 89.4526 330.415 89.0686 329.828C88.6953 329.241 88.114 328.948 87.3246 328.948ZM99.1081 329.108H96.3081V336.5H94.9161V329.108H92.1481V327.924H99.1081V329.108ZM102.126 333.156C102.126 333.252 102.12 333.391 102.11 333.572C102.11 333.743 102.104 333.929 102.094 334.132C102.083 334.324 102.072 334.511 102.062 334.692C102.051 334.863 102.04 335.001 102.03 335.108L106.622 327.924H108.35V336.5H107.038V331.444C107.038 331.273 107.038 331.049 107.038 330.772C107.048 330.495 107.059 330.223 107.07 329.956C107.08 329.679 107.091 329.471 107.102 329.332L102.542 336.5H100.798V327.924H102.126V333.156ZM116.199 327.796C117.052 327.871 117.793 328.095 118.423 328.468C119.063 328.841 119.559 329.343 119.911 329.972C120.263 330.601 120.439 331.348 120.439 332.212C120.439 333.076 120.268 333.828 119.927 334.468C119.585 335.097 119.1 335.599 118.471 335.972C117.841 336.335 117.084 336.553 116.199 336.628V340.34H114.823V336.628C113.98 336.553 113.239 336.335 112.599 335.972C111.959 335.599 111.463 335.097 111.111 334.468C110.759 333.828 110.583 333.076 110.583 332.212C110.583 331.337 110.753 330.585 111.095 329.956C111.436 329.316 111.927 328.815 112.567 328.452C113.207 328.079 113.975 327.86 114.871 327.796V324.34H116.199V327.796ZM114.871 328.964C114.22 329.028 113.687 329.193 113.271 329.46C112.855 329.727 112.545 330.089 112.343 330.548C112.151 331.007 112.055 331.561 112.055 332.212C112.055 332.852 112.151 333.407 112.343 333.876C112.545 334.335 112.855 334.703 113.271 334.98C113.687 335.247 114.22 335.412 114.871 335.476V328.964ZM116.199 335.476C116.839 335.401 117.361 335.231 117.767 334.964C118.183 334.697 118.487 334.335 118.679 333.876C118.881 333.407 118.983 332.852 118.983 332.212C118.983 331.572 118.881 331.023 118.679 330.564C118.476 330.105 118.167 329.743 117.751 329.476C117.345 329.209 116.828 329.044 116.199 328.98V335.476ZM124.001 333.156C124.001 333.252 123.995 333.391 123.985 333.572C123.985 333.743 123.979 333.929 123.969 334.132C123.958 334.324 123.947 334.511 123.937 334.692C123.926 334.863 123.915 335.001 123.905 335.108L128.497 327.924H130.225V336.5H128.913V331.444C128.913 331.273 128.913 331.049 128.913 330.772C128.923 330.495 128.934 330.223 128.945 329.956C128.955 329.679 128.966 329.471 128.977 329.332L124.417 336.5H122.673V327.924H124.001V333.156ZM138.026 327.924H139.562L135.898 332.052L139.866 336.5H138.234L134.362 332.148V336.5H132.954V327.924H134.362V332.084L138.026 327.924ZM144.671 327.78C145.716 327.78 146.489 328.009 146.991 328.468C147.492 328.927 147.743 329.657 147.743 330.66V336.5H146.719L146.447 335.284H146.383C146.137 335.593 145.881 335.855 145.615 336.068C145.359 336.271 145.06 336.42 144.719 336.516C144.388 336.612 143.983 336.66 143.503 336.66C142.991 336.66 142.527 336.569 142.111 336.388C141.705 336.207 141.385 335.929 141.151 335.556C140.916 335.172 140.799 334.692 140.799 334.116C140.799 333.263 141.135 332.607 141.807 332.148C142.479 331.679 143.513 331.423 144.911 331.38L146.367 331.332V330.82C146.367 330.105 146.212 329.609 145.903 329.332C145.593 329.055 145.156 328.916 144.591 328.916C144.143 328.916 143.716 328.985 143.311 329.124C142.905 329.252 142.527 329.401 142.174 329.572L141.743 328.516C142.116 328.313 142.559 328.143 143.071 328.004C143.583 327.855 144.116 327.78 144.671 327.78ZM145.087 332.356C144.02 332.399 143.279 332.569 142.863 332.868C142.457 333.167 142.255 333.588 142.255 334.132C142.255 334.612 142.399 334.964 142.687 335.188C142.985 335.412 143.364 335.524 143.823 335.524C144.548 335.524 145.151 335.327 145.631 334.932C146.111 334.527 146.351 333.908 146.351 333.076V332.308L145.087 332.356ZM158.855 339.476H157.479V336.5H150.391V327.924H151.799V335.316H156.231V327.924H157.639V335.332H158.855V339.476ZM161.829 333.156C161.829 333.252 161.823 333.391 161.813 333.572C161.813 333.743 161.807 333.929 161.797 334.132C161.786 334.324 161.775 334.511 161.765 334.692C161.754 334.863 161.743 335.001 161.733 335.108L166.325 327.924H168.053V336.5H166.741V331.444C166.741 331.273 166.741 331.049 166.741 330.772C166.751 330.495 166.762 330.223 166.773 329.956C166.783 329.679 166.794 329.471 166.805 329.332L162.245 336.5H160.501V327.924H161.829V333.156ZM171.31 336.5H169.678L172.126 332.9C171.795 332.815 171.475 332.681 171.166 332.5C170.857 332.308 170.606 332.047 170.414 331.716C170.222 331.375 170.126 330.953 170.126 330.452C170.126 329.631 170.403 329.007 170.958 328.58C171.513 328.143 172.249 327.924 173.166 327.924H177.006V336.5H175.598V333.092H173.518L171.31 336.5ZM171.486 330.468C171.486 330.959 171.667 331.327 172.03 331.572C172.403 331.807 172.921 331.924 173.582 331.924H175.598V329.092H173.31C172.659 329.092 172.19 329.22 171.902 329.476C171.625 329.732 171.486 330.063 171.486 330.468Z" fill="#333333"/>
<path d="M30 377L37.5 384.5L50 369.5" stroke="#61B857" stroke-width="2" stroke-linecap="round" stroke-linejoin="round"/>
<path d="M74.52 376.772C74.52 377.657 74.408 378.463 74.184 379.188C73.96 379.903 73.624 380.521 73.176 381.044C72.7387 381.567 72.1893 381.967 71.528 382.244C70.8773 382.521 70.12 382.66 69.256 382.66C68.36 382.66 67.5813 382.521 66.92 382.244C66.2587 381.956 65.7093 381.556 65.272 381.044C64.8347 380.521 64.5093 379.897 64.296 379.172C64.0827 378.447 63.976 377.641 63.976 376.756C63.976 375.583 64.168 374.559 64.552 373.684C64.936 372.809 65.5173 372.127 66.296 371.636C67.0853 371.145 68.0773 370.9 69.272 370.9C70.4133 370.9 71.3733 371.145 72.152 371.636C72.9307 372.116 73.5173 372.799 73.912 373.684C74.3173 374.559 74.52 375.588 74.52 376.772ZM65.496 376.772C65.496 377.732 65.6293 378.559 65.896 379.252C66.1627 379.945 66.5733 380.479 67.128 380.852C67.6933 381.225 68.4027 381.412 69.256 381.412C70.12 381.412 70.824 381.225 71.368 380.852C71.9227 380.479 72.3333 379.945 72.6 379.252C72.8667 378.559 73 377.732 73 376.772C73 375.332 72.7013 374.207 72.104 373.396C71.5067 372.575 70.5627 372.164 69.272 372.164C68.408 372.164 67.6933 372.351 67.128 372.724C66.5733 373.087 66.1627 373.615 65.896 374.308C65.6293 374.991 65.496 375.812 65.496 376.772ZM82.78 375.108H79.98V382.5H78.588V375.108H75.82V373.924H82.78V375.108ZM90.353 373.924V381.316H91.601V385.476H90.241V382.5H84.273V385.476H82.929V381.316H83.617C84.1077 380.633 84.513 379.892 84.833 379.092C85.1637 378.281 85.409 377.439 85.569 376.564C85.7397 375.679 85.8303 374.799 85.841 373.924H90.353ZM87.089 375.028C87.0463 375.753 86.9343 376.505 86.753 377.284C86.5717 378.052 86.337 378.788 86.049 379.492C85.7717 380.196 85.4463 380.804 85.073 381.316H88.993V375.028H87.089ZM96.5939 373.764C97.3299 373.764 97.9592 373.924 98.4819 374.244C99.0152 374.564 99.4205 375.017 99.6979 375.604C99.9859 376.18 100.13 376.857 100.13 377.636V378.484H94.2579C94.2792 379.455 94.5245 380.196 94.9939 380.708C95.4739 381.209 96.1405 381.46 96.9939 381.46C97.5379 381.46 98.0179 381.412 98.4339 381.316C98.8605 381.209 99.2979 381.06 99.7459 380.868V382.1C99.3085 382.292 98.8765 382.431 98.4499 382.516C98.0232 382.612 97.5165 382.66 96.9299 382.66C96.1192 382.66 95.3992 382.495 94.7699 382.164C94.1512 381.833 93.6659 381.343 93.3139 380.692C92.9725 380.031 92.8019 379.225 92.8019 378.276C92.8019 377.337 92.9565 376.532 93.2659 375.86C93.5859 375.188 94.0285 374.671 94.5939 374.308C95.1699 373.945 95.8365 373.764 96.5939 373.764ZM96.5779 374.916C95.9059 374.916 95.3725 375.135 94.9779 375.572C94.5939 375.999 94.3645 376.596 94.2899 377.364H98.6579C98.6579 376.873 98.5832 376.447 98.4339 376.084C98.2845 375.721 98.0552 375.439 97.7459 375.236C97.4472 375.023 97.0579 374.916 96.5779 374.916ZM108.841 382.5H107.417V375.092H104.889C104.782 376.447 104.649 377.604 104.489 378.564C104.329 379.513 104.126 380.287 103.881 380.884C103.636 381.481 103.342 381.919 103.001 382.196C102.66 382.473 102.26 382.612 101.801 382.612C101.662 382.612 101.524 382.601 101.385 382.58C101.257 382.569 101.15 382.543 101.065 382.5V381.444C101.129 381.465 101.198 381.481 101.273 381.492C101.348 381.503 101.422 381.508 101.497 381.508C101.732 381.508 101.945 381.412 102.137 381.22C102.329 381.028 102.5 380.735 102.649 380.34C102.809 379.945 102.953 379.449 103.081 378.852C103.209 378.244 103.321 377.529 103.417 376.708C103.513 375.887 103.598 374.959 103.673 373.924H108.841V382.5ZM116.552 382.5V371.076H125.128V382.5H123.704V372.34H117.992V382.5H116.552ZM132.143 373.764C133.199 373.764 134.047 374.132 134.687 374.868C135.338 375.604 135.663 376.713 135.663 378.196C135.663 379.167 135.514 379.988 135.215 380.66C134.927 381.321 134.516 381.823 133.983 382.164C133.46 382.495 132.842 382.66 132.127 382.66C131.69 382.66 131.3 382.601 130.959 382.484C130.618 382.367 130.324 382.217 130.079 382.036C129.844 381.844 129.642 381.636 129.471 381.412H129.375C129.396 381.593 129.418 381.823 129.439 382.1C129.46 382.377 129.471 382.617 129.471 382.82V386.34H128.063V373.924H129.215L129.407 375.092H129.471C129.642 374.847 129.844 374.623 130.079 374.42C130.324 374.217 130.612 374.057 130.943 373.94C131.284 373.823 131.684 373.764 132.143 373.764ZM131.887 374.948C131.311 374.948 130.847 375.06 130.495 375.284C130.143 375.497 129.887 375.823 129.727 376.26C129.567 376.697 129.482 377.252 129.471 377.924V378.196C129.471 378.9 129.546 379.497 129.695 379.988C129.844 380.479 130.095 380.852 130.447 381.108C130.81 381.364 131.3 381.492 131.919 381.492C132.442 381.492 132.868 381.348 133.199 381.06C133.54 380.772 133.791 380.383 133.951 379.892C134.122 379.391 134.207 378.82 134.207 378.18C134.207 377.199 134.015 376.415 133.631 375.828C133.258 375.241 132.676 374.948 131.887 374.948ZM145.363 378.196C145.363 378.911 145.267 379.545 145.075 380.1C144.894 380.644 144.627 381.108 144.275 381.492C143.934 381.876 143.512 382.169 143.011 382.372C142.52 382.564 141.971 382.66 141.363 382.66C140.798 382.66 140.275 382.564 139.795 382.372C139.315 382.169 138.899 381.876 138.547 381.492C138.195 381.108 137.918 380.644 137.715 380.1C137.523 379.545 137.427 378.911 137.427 378.196C137.427 377.247 137.587 376.447 137.907 375.796C138.227 375.135 138.686 374.633 139.283 374.292C139.88 373.94 140.59 373.764 141.411 373.764C142.19 373.764 142.872 373.94 143.459 374.292C144.056 374.633 144.52 375.135 144.851 375.796C145.192 376.447 145.363 377.247 145.363 378.196ZM138.883 378.196C138.883 378.868 138.968 379.455 139.139 379.956C139.32 380.447 139.598 380.825 139.971 381.092C140.344 381.359 140.819 381.492 141.395 381.492C141.971 381.492 142.446 381.359 142.819 381.092C143.192 380.825 143.464 380.447 143.635 379.956C143.816 379.455 143.907 378.868 143.907 378.196C143.907 377.513 143.816 376.932 143.635 376.452C143.454 375.972 143.176 375.604 142.803 375.348C142.44 375.081 141.966 374.948 141.379 374.948C140.504 374.948 139.87 375.236 139.475 375.812C139.08 376.388 138.883 377.183 138.883 378.196ZM153.962 373.924V381.316H155.21V385.476H153.85V382.5H147.882V385.476H146.538V381.316H147.226C147.717 380.633 148.122 379.892 148.442 379.092C148.773 378.281 149.018 377.439 149.178 376.564C149.349 375.679 149.44 374.799 149.45 373.924H153.962ZM150.698 375.028C150.656 375.753 150.544 376.505 150.362 377.284C150.181 378.052 149.946 378.788 149.658 379.492C149.381 380.196 149.056 380.804 148.682 381.316H152.602V375.028H150.698ZM160.139 373.78C161.185 373.78 161.958 374.009 162.459 374.468C162.961 374.927 163.211 375.657 163.211 376.66V382.5H162.187L161.915 381.284H161.851C161.606 381.593 161.35 381.855 161.083 382.068C160.827 382.271 160.529 382.42 160.187 382.516C159.857 382.612 159.451 382.66 158.971 382.66C158.459 382.66 157.995 382.569 157.579 382.388C157.174 382.207 156.854 381.929 156.619 381.556C156.385 381.172 156.267 380.692 156.267 380.116C156.267 379.263 156.603 378.607 157.275 378.148C157.947 377.679 158.982 377.423 160.379 377.38L161.835 377.332V376.82C161.835 376.105 161.681 375.609 161.371 375.332C161.062 375.055 160.625 374.916 160.059 374.916C159.611 374.916 159.185 374.985 158.779 375.124C158.374 375.252 157.995 375.401 157.643 375.572L157.211 374.516C157.585 374.313 158.027 374.143 158.539 374.004C159.051 373.855 159.585 373.78 160.139 373.78ZM160.555 378.356C159.489 378.399 158.747 378.569 158.331 378.868C157.926 379.167 157.723 379.588 157.723 380.132C157.723 380.612 157.867 380.964 158.155 381.188C158.454 381.412 158.833 381.524 159.291 381.524C160.017 381.524 160.619 381.327 161.099 380.932C161.579 380.527 161.819 379.908 161.819 379.076V378.308L160.555 378.356ZM176.148 373.924L172.612 378.084L176.452 382.5H174.852L171.14 378.148V382.5H169.828V378.148L166.116 382.5H164.516L168.356 378.084L164.82 373.924H166.356L169.828 378.084V373.924H171.14V378.084L174.628 373.924H176.148Z" fill="#333333"/>
<path d="M30 423L37.5 430.5L50 415.5" stroke="#61B857" stroke-width="2" stroke-linecap="round" stroke-linejoin="round"/>
<path d="M78.84 417.272C78.84 418.157 78.7333 418.963 78.52 419.688C78.3067 420.413 77.9867 421.037 77.56 421.56C77.1333 422.072 76.6053 422.467 75.976 422.744C75.3573 423.021 74.632 423.16 73.8 423.16C72.712 423.16 71.7947 422.936 71.048 422.488C70.312 422.04 69.7467 421.405 69.352 420.584C68.9573 419.763 68.7387 418.792 68.696 417.672H65.992V423H64.552V411.576H65.992V416.408H68.728C68.8027 415.395 69.0373 414.515 69.432 413.768C69.8267 413.011 70.3867 412.429 71.112 412.024C71.8373 411.608 72.7227 411.4 73.768 411.4C74.8667 411.4 75.7893 411.645 76.536 412.136C77.2933 412.616 77.864 413.299 78.248 414.184C78.6427 415.059 78.84 416.088 78.84 417.272ZM70.2 417.272C70.2 418.232 70.3227 419.059 70.568 419.752C70.824 420.445 71.2133 420.979 71.736 421.352C72.2693 421.725 72.9413 421.912 73.752 421.912C74.584 421.912 75.2613 421.725 75.784 421.352C76.3173 420.979 76.7067 420.445 76.952 419.752C77.208 419.059 77.336 418.232 77.336 417.272C77.336 416.312 77.2133 415.491 76.968 414.808C76.7227 414.115 76.3387 413.587 75.816 413.224C75.2933 412.851 74.616 412.664 73.784 412.664C72.9627 412.664 72.2853 412.851 71.752 413.224C71.2187 413.587 70.824 414.115 70.568 414.808C70.3227 415.491 70.2 416.312 70.2 417.272ZM85.2681 414.264C86.3241 414.264 87.1721 414.632 87.8121 415.368C88.4628 416.104 88.7881 417.213 88.7881 418.696C88.7881 419.667 88.6388 420.488 88.3401 421.16C88.0521 421.821 87.6415 422.323 87.1081 422.664C86.5855 422.995 85.9668 423.16 85.2521 423.16C84.8148 423.16 84.4255 423.101 84.0841 422.984C83.7428 422.867 83.4495 422.717 83.2041 422.536C82.9695 422.344 82.7668 422.136 82.5961 421.912H82.5001C82.5215 422.093 82.5428 422.323 82.5641 422.6C82.5855 422.877 82.5961 423.117 82.5961 423.32V426.84H81.1881V414.424H82.3401L82.5321 415.592H82.5961C82.7668 415.347 82.9695 415.123 83.2041 414.92C83.4495 414.717 83.7375 414.557 84.0681 414.44C84.4095 414.323 84.8095 414.264 85.2681 414.264ZM85.0121 415.448C84.4361 415.448 83.9721 415.56 83.6201 415.784C83.2681 415.997 83.0121 416.323 82.8521 416.76C82.6921 417.197 82.6068 417.752 82.5961 418.424V418.696C82.5961 419.4 82.6708 419.997 82.8201 420.488C82.9695 420.979 83.2201 421.352 83.5721 421.608C83.9348 421.864 84.4255 421.992 85.0441 421.992C85.5668 421.992 85.9935 421.848 86.3241 421.56C86.6655 421.272 86.9161 420.883 87.0761 420.392C87.2468 419.891 87.3321 419.32 87.3321 418.68C87.3321 417.699 87.1401 416.915 86.7561 416.328C86.3828 415.741 85.8015 415.448 85.0121 415.448ZM92.3599 419.656C92.3599 419.752 92.3545 419.891 92.3439 420.072C92.3439 420.243 92.3385 420.429 92.3279 420.632C92.3172 420.824 92.3065 421.011 92.2959 421.192C92.2852 421.363 92.2745 421.501 92.2639 421.608L96.8559 414.424H98.5839V423H97.2719V417.944C97.2719 417.773 97.2719 417.549 97.2719 417.272C97.2825 416.995 97.2932 416.723 97.3039 416.456C97.3145 416.179 97.3252 415.971 97.3359 415.832L92.7759 423H91.0319V414.424H92.3599V419.656ZM107.681 414.424V421.816H108.929V425.976H107.569V423H101.601V425.976H100.257V421.816H100.945C101.436 421.133 101.841 420.392 102.161 419.592C102.492 418.781 102.737 417.939 102.897 417.064C103.068 416.179 103.158 415.299 103.169 414.424H107.681ZM104.417 415.528C104.374 416.253 104.262 417.005 104.081 417.784C103.9 418.552 103.665 419.288 103.377 419.992C103.1 420.696 102.774 421.304 102.401 421.816H106.321V415.528H104.417ZM111.938 419.656C111.938 419.752 111.933 419.891 111.922 420.072C111.922 420.243 111.917 420.429 111.906 420.632C111.895 420.824 111.885 421.011 111.874 421.192C111.863 421.363 111.853 421.501 111.842 421.608L116.434 414.424H118.162V423H116.85V417.944C116.85 417.773 116.85 417.549 116.85 417.272C116.861 416.995 116.871 416.723 116.882 416.456C116.893 416.179 116.903 415.971 116.914 415.832L112.354 423H110.61V414.424H111.938V419.656ZM122.123 417.544C122.123 418.045 122.262 418.419 122.539 418.664C122.827 418.899 123.238 419.016 123.771 419.016C124.305 419.016 124.79 418.936 125.227 418.776C125.665 418.605 126.113 418.381 126.571 418.104V414.424H127.979V423H126.571V419.176C126.091 419.485 125.617 419.731 125.147 419.912C124.689 420.083 124.134 420.168 123.483 420.168C122.609 420.168 121.926 419.939 121.435 419.48C120.955 419.021 120.715 418.408 120.715 417.64V414.424H122.123V417.544ZM134.016 414.264C134.752 414.264 135.381 414.424 135.904 414.744C136.437 415.064 136.842 415.517 137.12 416.104C137.408 416.68 137.552 417.357 137.552 418.136V418.984H131.68C131.701 419.955 131.946 420.696 132.416 421.208C132.896 421.709 133.562 421.96 134.416 421.96C134.96 421.96 135.44 421.912 135.856 421.816C136.282 421.709 136.72 421.56 137.168 421.368V422.6C136.73 422.792 136.298 422.931 135.872 423.016C135.445 423.112 134.938 423.16 134.352 423.16C133.541 423.16 132.821 422.995 132.192 422.664C131.573 422.333 131.088 421.843 130.736 421.192C130.394 420.531 130.224 419.725 130.224 418.776C130.224 417.837 130.378 417.032 130.688 416.36C131.008 415.688 131.45 415.171 132.016 414.808C132.592 414.445 133.258 414.264 134.016 414.264ZM134 415.416C133.328 415.416 132.794 415.635 132.4 416.072C132.016 416.499 131.786 417.096 131.712 417.864H136.08C136.08 417.373 136.005 416.947 135.856 416.584C135.706 416.221 135.477 415.939 135.168 415.736C134.869 415.523 134.48 415.416 134 415.416ZM143.175 423.16C142.418 423.16 141.74 423.005 141.143 422.696C140.556 422.387 140.092 421.907 139.751 421.256C139.42 420.605 139.255 419.773 139.255 418.76C139.255 417.704 139.431 416.845 139.783 416.184C140.135 415.523 140.61 415.037 141.207 414.728C141.815 414.419 142.503 414.264 143.271 414.264C143.708 414.264 144.13 414.312 144.535 414.408C144.94 414.493 145.271 414.6 145.527 414.728L145.095 415.896C144.839 415.8 144.54 415.709 144.199 415.624C143.858 415.539 143.538 415.496 143.239 415.496C142.663 415.496 142.188 415.619 141.815 415.864C141.442 416.109 141.164 416.472 140.983 416.952C140.802 417.432 140.711 418.029 140.711 418.744C140.711 419.427 140.802 420.008 140.983 420.488C141.164 420.968 141.436 421.331 141.799 421.576C142.162 421.821 142.615 421.944 143.159 421.944C143.628 421.944 144.039 421.896 144.391 421.8C144.754 421.704 145.084 421.587 145.383 421.448V422.696C145.095 422.845 144.775 422.957 144.423 423.032C144.082 423.117 143.666 423.16 143.175 423.16ZM152.495 414.424H154.031L150.367 418.552L154.335 423H152.703L148.831 418.648V423H147.423V414.424H148.831V418.584L152.495 414.424ZM163.035 418.696C163.035 419.411 162.939 420.045 162.747 420.6C162.565 421.144 162.299 421.608 161.947 421.992C161.605 422.376 161.184 422.669 160.683 422.872C160.192 423.064 159.643 423.16 159.035 423.16C158.469 423.16 157.947 423.064 157.467 422.872C156.987 422.669 156.571 422.376 156.219 421.992C155.867 421.608 155.589 421.144 155.387 420.6C155.195 420.045 155.099 419.411 155.099 418.696C155.099 417.747 155.259 416.947 155.579 416.296C155.899 415.635 156.357 415.133 156.955 414.792C157.552 414.44 158.261 414.264 159.083 414.264C159.861 414.264 160.544 414.44 161.131 414.792C161.728 415.133 162.192 415.635 162.523 416.296C162.864 416.947 163.035 417.747 163.035 418.696ZM156.555 418.696C156.555 419.368 156.64 419.955 156.811 420.456C156.992 420.947 157.269 421.325 157.643 421.592C158.016 421.859 158.491 421.992 159.067 421.992C159.643 421.992 160.117 421.859 160.491 421.592C160.864 421.325 161.136 420.947 161.307 420.456C161.488 419.955 161.579 419.368 161.579 418.696C161.579 418.013 161.488 417.432 161.307 416.952C161.125 416.472 160.848 416.104 160.475 415.848C160.112 415.581 159.637 415.448 159.051 415.448C158.176 415.448 157.541 415.736 157.147 416.312C156.752 416.888 156.555 417.683 156.555 418.696ZM168.578 414.264C169.314 414.264 169.944 414.424 170.466 414.744C171 415.064 171.405 415.517 171.682 416.104C171.97 416.68 172.114 417.357 172.114 418.136V418.984H166.242C166.264 419.955 166.509 420.696 166.978 421.208C167.458 421.709 168.125 421.96 168.978 421.96C169.522 421.96 170.002 421.912 170.418 421.816C170.845 421.709 171.282 421.56 171.73 421.368V422.6C171.293 422.792 170.861 422.931 170.434 423.016C170.008 423.112 169.501 423.16 168.914 423.16C168.104 423.16 167.384 422.995 166.754 422.664C166.136 422.333 165.65 421.843 165.298 421.192C164.957 420.531 164.786 419.725 164.786 418.776C164.786 417.837 164.941 417.032 165.25 416.36C165.57 415.688 166.013 415.171 166.578 414.808C167.154 414.445 167.821 414.264 168.578 414.264ZM168.562 415.416C167.89 415.416 167.357 415.635 166.962 416.072C166.578 416.499 166.349 417.096 166.274 417.864H170.642C170.642 417.373 170.568 416.947 170.418 416.584C170.269 416.221 170.04 415.939 169.73 415.736C169.432 415.523 169.042 415.416 168.562 415.416ZM69.448 431.68C68.84 431.68 68.2907 431.787 67.8 432C67.3093 432.203 66.8933 432.507 66.552 432.912C66.2107 433.307 65.9493 433.792 65.768 434.368C65.5867 434.933 65.496 435.573 65.496 436.288C65.496 437.227 65.64 438.043 65.928 438.736C66.2267 439.429 66.664 439.963 67.24 440.336C67.8267 440.709 68.5573 440.896 69.432 440.896C69.9333 440.896 70.408 440.853 70.856 440.768C71.304 440.683 71.7413 440.576 72.168 440.448V441.696C71.7413 441.856 71.2987 441.973 70.84 442.048C70.392 442.123 69.8533 442.16 69.224 442.16C68.0613 442.16 67.0907 441.92 66.312 441.44C65.5333 440.96 64.9467 440.277 64.552 439.392C64.168 438.507 63.976 437.467 63.976 436.272C63.976 435.408 64.0933 434.619 64.328 433.904C64.5733 433.189 64.9253 432.571 65.384 432.048C65.8533 431.525 66.4293 431.125 67.112 430.848C67.7947 430.56 68.5787 430.416 69.464 430.416C70.0507 430.416 70.616 430.475 71.16 430.592C71.704 430.709 72.1893 430.875 72.616 431.088L72.04 432.304C71.688 432.144 71.2933 432 70.856 431.872C70.4293 431.744 69.96 431.68 69.448 431.68ZM81.9254 437.696C81.9254 438.411 81.8294 439.045 81.6374 439.6C81.456 440.144 81.1894 440.608 80.8374 440.992C80.496 441.376 80.0747 441.669 79.5734 441.872C79.0827 442.064 78.5334 442.16 77.9254 442.16C77.36 442.16 76.8374 442.064 76.3574 441.872C75.8774 441.669 75.4614 441.376 75.1094 440.992C74.7574 440.608 74.48 440.144 74.2774 439.6C74.0854 439.045 73.9894 438.411 73.9894 437.696C73.9894 436.747 74.1494 435.947 74.4694 435.296C74.7894 434.635 75.248 434.133 75.8454 433.792C76.4427 433.44 77.152 433.264 77.9734 433.264C78.752 433.264 79.4347 433.44 80.0214 433.792C80.6187 434.133 81.0827 434.635 81.4134 435.296C81.7547 435.947 81.9254 436.747 81.9254 437.696ZM75.4454 437.696C75.4454 438.368 75.5307 438.955 75.7014 439.456C75.8827 439.947 76.16 440.325 76.5334 440.592C76.9067 440.859 77.3814 440.992 77.9574 440.992C78.5334 440.992 79.008 440.859 79.3814 440.592C79.7547 440.325 80.0267 439.947 80.1974 439.456C80.3787 438.955 80.4694 438.368 80.4694 437.696C80.4694 437.013 80.3787 436.432 80.1974 435.952C80.016 435.472 79.7387 435.104 79.3654 434.848C79.0027 434.581 78.528 434.448 77.9414 434.448C77.0667 434.448 76.432 434.736 76.0374 435.312C75.6427 435.888 75.4454 436.683 75.4454 437.696ZM91.4049 433.424V442H89.9969V434.624H85.5649V442H84.1569V433.424H91.4049ZM98.2213 433.264C99.2773 433.264 100.125 433.632 100.765 434.368C101.416 435.104 101.741 436.213 101.741 437.696C101.741 438.667 101.592 439.488 101.293 440.16C101.005 440.821 100.595 441.323 100.061 441.664C99.5386 441.995 98.9199 442.16 98.2053 442.16C97.7679 442.16 97.3786 442.101 97.0373 441.984C96.6959 441.867 96.4026 441.717 96.1573 441.536C95.9226 441.344 95.7199 441.136 95.5493 440.912H95.4533C95.4746 441.093 95.4959 441.323 95.5173 441.6C95.5386 441.877 95.5493 442.117 95.5493 442.32V445.84H94.1413V433.424H95.2933L95.4853 434.592H95.5493C95.7199 434.347 95.9226 434.123 96.1573 433.92C96.4026 433.717 96.6906 433.557 97.0213 433.44C97.3626 433.323 97.7626 433.264 98.2213 433.264ZM97.9653 434.448C97.3893 434.448 96.9253 434.56 96.5733 434.784C96.2213 434.997 95.9653 435.323 95.8053 435.76C95.6453 436.197 95.5599 436.752 95.5493 437.424V437.696C95.5493 438.4 95.6239 438.997 95.7733 439.488C95.9226 439.979 96.1733 440.352 96.5253 440.608C96.8879 440.864 97.3786 440.992 97.9973 440.992C98.5199 440.992 98.9466 440.848 99.2773 440.56C99.6186 440.272 99.8693 439.883 100.029 439.392C100.2 438.891 100.285 438.32 100.285 437.68C100.285 436.699 100.093 435.915 99.7093 435.328C99.3359 434.741 98.7546 434.448 97.9653 434.448ZM111.441 437.696C111.441 438.411 111.345 439.045 111.153 439.6C110.972 440.144 110.705 440.608 110.353 440.992C110.012 441.376 109.59 441.669 109.089 441.872C108.598 442.064 108.049 442.16 107.441 442.16C106.876 442.16 106.353 442.064 105.873 441.872C105.393 441.669 104.977 441.376 104.625 440.992C104.273 440.608 103.996 440.144 103.793 439.6C103.601 439.045 103.505 438.411 103.505 437.696C103.505 436.747 103.665 435.947 103.985 435.296C104.305 434.635 104.764 434.133 105.361 433.792C105.958 433.44 106.668 433.264 107.489 433.264C108.268 433.264 108.95 433.44 109.537 433.792C110.134 434.133 110.598 434.635 110.929 435.296C111.27 435.947 111.441 436.747 111.441 437.696ZM104.961 437.696C104.961 438.368 105.046 438.955 105.217 439.456C105.398 439.947 105.676 440.325 106.049 440.592C106.422 440.859 106.897 440.992 107.473 440.992C108.049 440.992 108.524 440.859 108.897 440.592C109.27 440.325 109.542 439.947 109.713 439.456C109.894 438.955 109.985 438.368 109.985 437.696C109.985 437.013 109.894 436.432 109.713 435.952C109.532 435.472 109.254 435.104 108.881 434.848C108.518 434.581 108.044 434.448 107.457 434.448C106.582 434.448 105.948 434.736 105.553 435.312C105.158 435.888 104.961 436.683 104.961 437.696ZM120.569 435.584C120.569 436.117 120.409 436.533 120.089 436.832C119.769 437.131 119.358 437.333 118.857 437.44V437.504C119.39 437.579 119.854 437.771 120.249 438.08C120.643 438.379 120.841 438.848 120.841 439.488C120.841 439.851 120.771 440.187 120.633 440.496C120.505 440.805 120.302 441.072 120.025 441.296C119.747 441.52 119.39 441.696 118.953 441.824C118.515 441.941 117.987 442 117.369 442H113.673V433.424H117.353C117.961 433.424 118.505 433.493 118.985 433.632C119.475 433.76 119.859 433.984 120.137 434.304C120.425 434.613 120.569 435.04 120.569 435.584ZM119.385 439.488C119.385 438.997 119.198 438.645 118.825 438.432C118.451 438.219 117.902 438.112 117.177 438.112H115.081V440.864H117.209C117.913 440.864 118.451 440.763 118.825 440.56C119.198 440.347 119.385 439.989 119.385 439.488ZM119.145 435.76C119.145 435.355 118.995 435.061 118.697 434.88C118.409 434.688 117.934 434.592 117.273 434.592H115.081V436.944H117.016C117.71 436.944 118.238 436.848 118.601 436.656C118.963 436.464 119.145 436.165 119.145 435.76ZM130.347 437.696C130.347 438.411 130.251 439.045 130.059 439.6C129.878 440.144 129.611 440.608 129.259 440.992C128.918 441.376 128.497 441.669 127.995 441.872C127.505 442.064 126.955 442.16 126.347 442.16C125.782 442.16 125.259 442.064 124.779 441.872C124.299 441.669 123.883 441.376 123.531 440.992C123.179 440.608 122.902 440.144 122.699 439.6C122.507 439.045 122.411 438.411 122.411 437.696C122.411 436.747 122.571 435.947 122.891 435.296C123.211 434.635 123.67 434.133 124.267 433.792C124.865 433.44 125.574 433.264 126.395 433.264C127.174 433.264 127.857 433.44 128.443 433.792C129.041 434.133 129.505 434.635 129.835 435.296C130.177 435.947 130.347 436.747 130.347 437.696ZM123.867 437.696C123.867 438.368 123.953 438.955 124.123 439.456C124.305 439.947 124.582 440.325 124.955 440.592C125.329 440.859 125.803 440.992 126.379 440.992C126.955 440.992 127.43 440.859 127.803 440.592C128.177 440.325 128.449 439.947 128.619 439.456C128.801 438.955 128.891 438.368 128.891 437.696C128.891 437.013 128.801 436.432 128.619 435.952C128.438 435.472 128.161 435.104 127.787 434.848C127.425 434.581 126.95 434.448 126.363 434.448C125.489 434.448 124.854 434.736 124.459 435.312C124.065 435.888 123.867 436.683 123.867 437.696ZM142.554 433.424L139.018 437.584L142.858 442H141.258L137.546 437.648V442H136.234V437.648L132.522 442H130.922L134.762 437.584L131.226 433.424H132.762L136.234 437.584V433.424H137.546V437.584L141.034 433.424H142.554ZM150.634 433.424V440.816H151.882V444.976H150.522V442H144.554V444.976H143.21V440.816H143.898C144.389 440.133 144.794 439.392 145.114 438.592C145.445 437.781 145.69 436.939 145.85 436.064C146.021 435.179 146.112 434.299 146.122 433.424H150.634ZM147.37 434.528C147.328 435.253 147.216 436.005 147.034 436.784C146.853 437.552 146.618 438.288 146.33 438.992C146.053 439.696 145.728 440.304 145.354 440.816H149.274V434.528H147.37ZM156.875 433.264C157.611 433.264 158.24 433.424 158.763 433.744C159.296 434.064 159.702 434.517 159.979 435.104C160.267 435.68 160.411 436.357 160.411 437.136V437.984H154.539C154.56 438.955 154.806 439.696 155.275 440.208C155.755 440.709 156.422 440.96 157.275 440.96C157.819 440.96 158.299 440.912 158.715 440.816C159.142 440.709 159.579 440.56 160.027 440.368V441.6C159.59 441.792 159.158 441.931 158.731 442.016C158.304 442.112 157.798 442.16 157.211 442.16C156.4 442.16 155.68 441.995 155.051 441.664C154.432 441.333 153.947 440.843 153.595 440.192C153.254 439.531 153.083 438.725 153.083 437.776C153.083 436.837 153.238 436.032 153.547 435.36C153.867 434.688 154.31 434.171 154.875 433.808C155.451 433.445 156.118 433.264 156.875 433.264ZM156.859 434.416C156.187 434.416 155.654 434.635 155.259 435.072C154.875 435.499 154.646 436.096 154.571 436.864H158.939C158.939 436.373 158.864 435.947 158.715 435.584C158.566 435.221 158.336 434.939 158.027 434.736C157.728 434.523 157.339 434.416 156.859 434.416ZM164.002 433.424V436.992H168.658V433.424H170.066V442H168.658V438.176H164.002V442H162.594V433.424H164.002ZM174.11 438.656C174.11 438.752 174.105 438.891 174.094 439.072C174.094 439.243 174.089 439.429 174.078 439.632C174.067 439.824 174.057 440.011 174.046 440.192C174.035 440.363 174.025 440.501 174.014 440.608L178.606 433.424H180.334V442H179.022V436.944C179.022 436.773 179.022 436.549 179.022 436.272C179.033 435.995 179.043 435.723 179.054 435.456C179.065 435.179 179.075 434.971 179.086 434.832L174.526 442H172.782V433.424H174.11V438.656ZM186.375 433.264C187.111 433.264 187.74 433.424 188.263 433.744C188.796 434.064 189.202 434.517 189.479 435.104C189.767 435.68 189.911 436.357 189.911 437.136V437.984H184.039C184.06 438.955 184.306 439.696 184.775 440.208C185.255 440.709 185.922 440.96 186.775 440.96C187.319 440.96 187.799 440.912 188.215 440.816C188.642 440.709 189.079 440.56 189.527 440.368V441.6C189.09 441.792 188.658 441.931 188.231 442.016C187.804 442.112 187.298 442.16 186.711 442.16C185.9 442.16 185.18 441.995 184.551 441.664C183.932 441.333 183.447 440.843 183.095 440.192C182.754 439.531 182.583 438.725 182.583 437.776C182.583 436.837 182.738 436.032 183.047 435.36C183.367 434.688 183.81 434.171 184.375 433.808C184.951 433.445 185.618 433.264 186.375 433.264ZM186.359 434.416C185.687 434.416 185.154 434.635 184.759 435.072C184.375 435.499 184.146 436.096 184.071 436.864H188.439C188.439 436.373 188.364 435.947 188.215 435.584C188.066 435.221 187.836 434.939 187.527 434.736C187.228 434.523 186.839 434.416 186.359 434.416Z" fill="#333333"/>
<path d="M30 477L37.5 484.5L50 469.5" stroke="#61B857" stroke-width="2" stroke-linecap="round" stroke-linejoin="round"/>
<path d="M72.888 477H71.16L65.992 471.208V477H64.552V465.576H65.992V471.112L71.032 465.576H72.664L67.704 471.128L72.888 477ZM72.9066 468.424H74.4106L76.2666 473.304C76.3733 473.592 76.4693 473.869 76.5546 474.136C76.6506 474.403 76.736 474.664 76.8106 474.92C76.8853 475.165 76.944 475.405 76.9866 475.64H77.0506C77.1146 475.373 77.216 475.027 77.3546 474.6C77.4933 474.163 77.6373 473.725 77.7866 473.288L79.5306 468.424H81.0506L77.3546 478.184C77.152 478.717 76.912 479.181 76.6346 479.576C76.368 479.981 76.0373 480.291 75.6426 480.504C75.2586 480.728 74.7893 480.84 74.2346 480.84C73.9786 480.84 73.7546 480.824 73.5626 480.792C73.3706 480.771 73.2053 480.744 73.0666 480.712V479.592C73.184 479.613 73.3226 479.635 73.4826 479.656C73.6533 479.677 73.8293 479.688 74.0106 479.688C74.3413 479.688 74.624 479.624 74.8586 479.496C75.104 479.379 75.312 479.203 75.4826 478.968C75.6533 478.744 75.7973 478.477 75.9146 478.168L76.3626 477.032L72.9066 468.424ZM86.4869 468.264C87.5429 468.264 88.3909 468.632 89.0309 469.368C89.6815 470.104 90.0069 471.213 90.0069 472.696C90.0069 473.667 89.8575 474.488 89.5589 475.16C89.2709 475.821 88.8602 476.323 88.3269 476.664C87.8042 476.995 87.1855 477.16 86.4709 477.16C86.0335 477.16 85.6442 477.101 85.3029 476.984C84.9615 476.867 84.6682 476.717 84.4229 476.536C84.1882 476.344 83.9855 476.136 83.8149 475.912H83.7189C83.7402 476.093 83.7615 476.323 83.7829 476.6C83.8042 476.877 83.8149 477.117 83.8149 477.32V480.84H82.4069V468.424H83.5589L83.7509 469.592H83.8149C83.9855 469.347 84.1882 469.123 84.4229 468.92C84.6682 468.717 84.9562 468.557 85.2869 468.44C85.6282 468.323 86.0282 468.264 86.4869 468.264ZM86.2309 469.448C85.6549 469.448 85.1909 469.56 84.8389 469.784C84.4869 469.997 84.2309 470.323 84.0709 470.76C83.9109 471.197 83.8255 471.752 83.8149 472.424V472.696C83.8149 473.4 83.8895 473.997 84.0389 474.488C84.1882 474.979 84.4389 475.352 84.7909 475.608C85.1535 475.864 85.6442 475.992 86.2629 475.992C86.7855 475.992 87.2122 475.848 87.5429 475.56C87.8842 475.272 88.1349 474.883 88.2949 474.392C88.4655 473.891 88.5509 473.32 88.5509 472.68C88.5509 471.699 88.3589 470.915 87.9749 470.328C87.6015 469.741 87.0202 469.448 86.2309 469.448ZM95.6906 477.16C94.9333 477.16 94.256 477.005 93.6586 476.696C93.072 476.387 92.608 475.907 92.2666 475.256C91.936 474.605 91.7706 473.773 91.7706 472.76C91.7706 471.704 91.9466 470.845 92.2986 470.184C92.6506 469.523 93.1253 469.037 93.7226 468.728C94.3306 468.419 95.0186 468.264 95.7866 468.264C96.224 468.264 96.6453 468.312 97.0506 468.408C97.456 468.493 97.7866 468.6 98.0426 468.728L97.6106 469.896C97.3546 469.8 97.056 469.709 96.7146 469.624C96.3733 469.539 96.0533 469.496 95.7546 469.496C95.1786 469.496 94.704 469.619 94.3306 469.864C93.9573 470.109 93.68 470.472 93.4986 470.952C93.3173 471.432 93.2266 472.029 93.2266 472.744C93.2266 473.427 93.3173 474.008 93.4986 474.488C93.68 474.968 93.952 475.331 94.3146 475.576C94.6773 475.821 95.1306 475.944 95.6746 475.944C96.144 475.944 96.5546 475.896 96.9066 475.8C97.2693 475.704 97.6 475.587 97.8986 475.448V476.696C97.6106 476.845 97.2906 476.957 96.9386 477.032C96.5973 477.117 96.1813 477.16 95.6906 477.16ZM108.543 477H107.103V466.84H103.535V465.576H112.095V466.84H108.543V477ZM115.592 468.28C116.638 468.28 117.411 468.509 117.912 468.968C118.414 469.427 118.664 470.157 118.664 471.16V477H117.64L117.368 475.784H117.304C117.059 476.093 116.803 476.355 116.536 476.568C116.28 476.771 115.982 476.92 115.64 477.016C115.31 477.112 114.904 477.16 114.424 477.16C113.912 477.16 113.448 477.069 113.032 476.888C112.627 476.707 112.307 476.429 112.072 476.056C111.838 475.672 111.72 475.192 111.72 474.616C111.72 473.763 112.056 473.107 112.728 472.648C113.4 472.179 114.435 471.923 115.832 471.88L117.288 471.832V471.32C117.288 470.605 117.134 470.109 116.824 469.832C116.515 469.555 116.078 469.416 115.512 469.416C115.064 469.416 114.638 469.485 114.232 469.624C113.827 469.752 113.448 469.901 113.096 470.072L112.664 469.016C113.038 468.813 113.48 468.643 113.992 468.504C114.504 468.355 115.038 468.28 115.592 468.28ZM116.008 472.856C114.942 472.899 114.2 473.069 113.784 473.368C113.379 473.667 113.176 474.088 113.176 474.632C113.176 475.112 113.32 475.464 113.608 475.688C113.907 475.912 114.286 476.024 114.744 476.024C115.47 476.024 116.072 475.827 116.552 475.432C117.032 475.027 117.272 474.408 117.272 473.576V472.808L116.008 472.856ZM130.513 468.424V477H129.249V471.528C129.249 471.304 129.254 471.069 129.265 470.824C129.286 470.579 129.308 470.339 129.329 470.104H129.281L126.481 477H125.297L122.577 470.104H122.529C122.55 470.339 122.561 470.579 122.561 470.824C122.572 471.069 122.577 471.32 122.577 471.576V477H121.313V468.424H123.185L125.889 475.32L128.641 468.424H130.513ZM140.707 472.696C140.707 473.411 140.611 474.045 140.419 474.6C140.237 475.144 139.971 475.608 139.619 475.992C139.277 476.376 138.856 476.669 138.355 476.872C137.864 477.064 137.315 477.16 136.707 477.16C136.141 477.16 135.619 477.064 135.139 476.872C134.659 476.669 134.243 476.376 133.891 475.992C133.539 475.608 133.261 475.144 133.059 474.6C132.867 474.045 132.771 473.411 132.771 472.696C132.771 471.747 132.931 470.947 133.251 470.296C133.571 469.635 134.029 469.133 134.627 468.792C135.224 468.44 135.933 468.264 136.755 468.264C137.533 468.264 138.216 468.44 138.803 468.792C139.4 469.133 139.864 469.635 140.195 470.296C140.536 470.947 140.707 471.747 140.707 472.696ZM134.227 472.696C134.227 473.368 134.312 473.955 134.483 474.456C134.664 474.947 134.941 475.325 135.315 475.592C135.688 475.859 136.163 475.992 136.739 475.992C137.315 475.992 137.789 475.859 138.163 475.592C138.536 475.325 138.808 474.947 138.979 474.456C139.16 473.955 139.251 473.368 139.251 472.696C139.251 472.013 139.16 471.432 138.979 470.952C138.797 470.472 138.52 470.104 138.147 469.848C137.784 469.581 137.309 469.448 136.723 469.448C135.848 469.448 135.213 469.736 134.819 470.312C134.424 470.888 134.227 471.683 134.227 472.696ZM152.914 468.424L149.378 472.584L153.218 477H151.618L147.906 472.648V477H146.594V472.648L142.882 477H141.282L145.122 472.584L141.586 468.424H143.122L146.594 472.584V468.424H147.906V472.584L151.394 468.424H152.914ZM157.625 468.264C158.361 468.264 158.99 468.424 159.513 468.744C160.046 469.064 160.452 469.517 160.729 470.104C161.017 470.68 161.161 471.357 161.161 472.136V472.984H155.289C155.31 473.955 155.556 474.696 156.025 475.208C156.505 475.709 157.172 475.96 158.025 475.96C158.569 475.96 159.049 475.912 159.465 475.816C159.892 475.709 160.329 475.56 160.777 475.368V476.6C160.34 476.792 159.908 476.931 159.481 477.016C159.054 477.112 158.548 477.16 157.961 477.16C157.15 477.16 156.43 476.995 155.801 476.664C155.182 476.333 154.697 475.843 154.345 475.192C154.004 474.531 153.833 473.725 153.833 472.776C153.833 471.837 153.988 471.032 154.297 470.36C154.617 469.688 155.06 469.171 155.625 468.808C156.201 468.445 156.868 468.264 157.625 468.264ZM157.609 469.416C156.937 469.416 156.404 469.635 156.009 470.072C155.625 470.499 155.396 471.096 155.321 471.864H159.689C159.689 471.373 159.614 470.947 159.465 470.584C159.316 470.221 159.086 469.939 158.777 469.736C158.478 469.523 158.089 469.416 157.609 469.416ZM164.752 468.424V471.992H169.408V468.424H170.816V477H169.408V473.176H164.752V477H163.344V468.424H164.752ZM174.94 468.424V471.992H179.596V468.424H181.004V477H179.596V473.176H174.94V477H173.532V468.424H174.94ZM183.719 477V468.424H185.127V471.944H187.351C188.098 471.944 188.711 472.035 189.191 472.216C189.671 472.397 190.029 472.669 190.263 473.032C190.498 473.384 190.615 473.832 190.615 474.376C190.615 474.909 190.498 475.373 190.263 475.768C190.039 476.163 189.682 476.467 189.191 476.68C188.711 476.893 188.077 477 187.287 477H183.719ZM187.159 475.864C187.767 475.864 188.263 475.763 188.647 475.56C189.031 475.347 189.223 474.979 189.223 474.456C189.223 473.933 189.047 473.581 188.695 473.4C188.343 473.208 187.837 473.112 187.175 473.112H185.127V475.864H187.159ZM192.039 477V468.424H193.447V477H192.039ZM198.205 472.616L195.245 468.424H196.845L199.053 471.656L201.245 468.424H202.829L199.869 472.616L202.989 477H201.389L199.053 473.576L196.685 477H195.101L198.205 472.616ZM66.712 485.68C66.1787 485.68 65.6933 485.744 65.256 485.872C64.8187 485.989 64.424 486.128 64.072 486.288L63.48 485.088C63.9173 484.875 64.4187 484.709 64.984 484.592C65.5493 484.475 66.1307 484.416 66.728 484.416C67.6453 484.416 68.44 484.56 69.112 484.848C69.7947 485.125 70.36 485.52 70.808 486.032C71.256 486.544 71.5867 487.147 71.8 487.84C72.024 488.523 72.136 489.275 72.136 490.096C72.136 491.344 71.9333 492.421 71.528 493.328C71.1227 494.235 70.5093 494.933 69.688 495.424C68.8773 495.915 67.8533 496.16 66.616 496.16C65.9547 496.16 65.3947 496.123 64.936 496.048C64.4773 495.973 64.024 495.856 63.576 495.696V494.448C64.024 494.565 64.4773 494.672 64.936 494.768C65.3947 494.853 65.88 494.896 66.392 494.896C67.0853 494.896 67.688 494.805 68.2 494.624C68.7227 494.432 69.16 494.16 69.512 493.808C69.864 493.445 70.1307 493.003 70.312 492.48C70.4933 491.947 70.5947 491.339 70.616 490.656H65.064V489.392H70.6C70.5467 488.805 70.4187 488.283 70.216 487.824C70.0133 487.365 69.7413 486.976 69.4 486.656C69.0693 486.336 68.6747 486.096 68.216 485.936C67.768 485.765 67.2667 485.68 66.712 485.68ZM79.557 487.424H81.093L77.429 491.552L81.397 496H79.765L75.893 491.648V496H74.485V487.424H75.893V491.584L79.557 487.424ZM86.0813 496.16C85.3239 496.16 84.6466 496.005 84.0493 495.696C83.4626 495.387 82.9986 494.907 82.6573 494.256C82.3266 493.605 82.1613 492.773 82.1613 491.76C82.1613 490.704 82.3373 489.845 82.6893 489.184C83.0413 488.523 83.5159 488.037 84.1133 487.728C84.7213 487.419 85.4093 487.264 86.1773 487.264C86.6146 487.264 87.0359 487.312 87.4413 487.408C87.8466 487.493 88.1773 487.6 88.4333 487.728L88.0013 488.896C87.7453 488.8 87.4466 488.709 87.1053 488.624C86.7639 488.539 86.4439 488.496 86.1453 488.496C85.5693 488.496 85.0946 488.619 84.7213 488.864C84.3479 489.109 84.0706 489.472 83.8893 489.952C83.7079 490.432 83.6173 491.029 83.6173 491.744C83.6173 492.427 83.7079 493.008 83.8893 493.488C84.0706 493.968 84.3426 494.331 84.7053 494.576C85.0679 494.821 85.5213 494.944 86.0653 494.944C86.5346 494.944 86.9453 494.896 87.2973 494.8C87.6599 494.704 87.9906 494.587 88.2893 494.448V495.696C88.0013 495.845 87.6813 495.957 87.3293 496.032C86.9879 496.117 86.5719 496.16 86.0813 496.16ZM97.5768 487.424V496H96.1688V488.624H91.7368V496H90.3288V487.424H97.5768ZM103.625 487.264C104.361 487.264 104.99 487.424 105.513 487.744C106.046 488.064 106.452 488.517 106.729 489.104C107.017 489.68 107.161 490.357 107.161 491.136V491.984H101.289C101.31 492.955 101.556 493.696 102.025 494.208C102.505 494.709 103.172 494.96 104.025 494.96C104.569 494.96 105.049 494.912 105.465 494.816C105.892 494.709 106.329 494.56 106.777 494.368V495.6C106.34 495.792 105.908 495.931 105.481 496.016C105.054 496.112 104.548 496.16 103.961 496.16C103.15 496.16 102.43 495.995 101.801 495.664C101.182 495.333 100.697 494.843 100.345 494.192C100.004 493.531 99.8331 492.725 99.8331 491.776C99.8331 490.837 99.9878 490.032 100.297 489.36C100.617 488.688 101.06 488.171 101.625 487.808C102.201 487.445 102.868 487.264 103.625 487.264ZM103.609 488.416C102.937 488.416 102.404 488.635 102.009 489.072C101.625 489.499 101.396 490.096 101.321 490.864H105.689C105.689 490.373 105.614 489.947 105.465 489.584C105.316 489.221 105.086 488.939 104.777 488.736C104.478 488.523 104.089 488.416 103.609 488.416ZM113.424 487.264C114.48 487.264 115.328 487.632 115.968 488.368C116.619 489.104 116.944 490.213 116.944 491.696C116.944 492.667 116.795 493.488 116.496 494.16C116.208 494.821 115.798 495.323 115.264 495.664C114.742 495.995 114.123 496.16 113.408 496.16C112.971 496.16 112.582 496.101 112.24 495.984C111.899 495.867 111.606 495.717 111.36 495.536C111.126 495.344 110.923 495.136 110.752 494.912H110.656C110.678 495.093 110.699 495.323 110.72 495.6C110.742 495.877 110.752 496.117 110.752 496.32V499.84H109.344V487.424H110.496L110.688 488.592H110.752C110.923 488.347 111.126 488.123 111.36 487.92C111.606 487.717 111.894 487.557 112.224 487.44C112.566 487.323 112.966 487.264 113.424 487.264ZM113.168 488.448C112.592 488.448 112.128 488.56 111.776 488.784C111.424 488.997 111.168 489.323 111.008 489.76C110.848 490.197 110.763 490.752 110.752 491.424V491.696C110.752 492.4 110.827 492.997 110.976 493.488C111.126 493.979 111.376 494.352 111.728 494.608C112.091 494.864 112.582 494.992 113.2 494.992C113.723 494.992 114.15 494.848 114.48 494.56C114.822 494.272 115.072 493.883 115.232 493.392C115.403 492.891 115.488 492.32 115.488 491.68C115.488 490.699 115.296 489.915 114.912 489.328C114.539 488.741 113.958 488.448 113.168 488.448ZM124.952 488.608H122.152V496H120.76V488.608H117.992V487.424H124.952V488.608ZM133.941 491.696C133.941 492.411 133.845 493.045 133.653 493.6C133.472 494.144 133.205 494.608 132.853 494.992C132.512 495.376 132.09 495.669 131.589 495.872C131.098 496.064 130.549 496.16 129.941 496.16C129.376 496.16 128.853 496.064 128.373 495.872C127.893 495.669 127.477 495.376 127.125 494.992C126.773 494.608 126.496 494.144 126.293 493.6C126.101 493.045 126.005 492.411 126.005 491.696C126.005 490.747 126.165 489.947 126.485 489.296C126.805 488.635 127.264 488.133 127.861 487.792C128.458 487.44 129.168 487.264 129.989 487.264C130.768 487.264 131.45 487.44 132.037 487.792C132.634 488.133 133.098 488.635 133.429 489.296C133.77 489.947 133.941 490.747 133.941 491.696ZM127.461 491.696C127.461 492.368 127.546 492.955 127.717 493.456C127.898 493.947 128.176 494.325 128.549 494.592C128.922 494.859 129.397 494.992 129.973 494.992C130.549 494.992 131.024 494.859 131.397 494.592C131.77 494.325 132.042 493.947 132.213 493.456C132.394 492.955 132.485 492.368 132.485 491.696C132.485 491.013 132.394 490.432 132.213 489.952C132.032 489.472 131.754 489.104 131.381 488.848C131.018 488.581 130.544 488.448 129.957 488.448C129.082 488.448 128.448 488.736 128.053 489.312C127.658 489.888 127.461 490.683 127.461 491.696ZM143.069 489.584C143.069 490.117 142.909 490.533 142.589 490.832C142.269 491.131 141.858 491.333 141.357 491.44V491.504C141.89 491.579 142.354 491.771 142.749 492.08C143.143 492.379 143.341 492.848 143.341 493.488C143.341 493.851 143.271 494.187 143.133 494.496C143.005 494.805 142.802 495.072 142.525 495.296C142.247 495.52 141.89 495.696 141.453 495.824C141.015 495.941 140.487 496 139.869 496H136.173V487.424H139.853C140.461 487.424 141.005 487.493 141.485 487.632C141.975 487.76 142.359 487.984 142.637 488.304C142.925 488.613 143.069 489.04 143.069 489.584ZM141.885 493.488C141.885 492.997 141.698 492.645 141.325 492.432C140.951 492.219 140.402 492.112 139.677 492.112H137.581V494.864H139.709C140.413 494.864 140.951 494.763 141.325 494.56C141.698 494.347 141.885 493.989 141.885 493.488ZM141.645 489.76C141.645 489.355 141.495 489.061 141.197 488.88C140.909 488.688 140.434 488.592 139.773 488.592H137.581V490.944H139.516C140.21 490.944 140.738 490.848 141.101 490.656C141.463 490.464 141.645 490.165 141.645 489.76Z" fill="#333333"/>
</g>
<defs>
<filter id="filter0_d_170_4051" x="0" y="0" width="326" height="541" filterUnits="userSpaceOnUse" color-interpolation-filters="sRGB">
<feFlood flood-opacity="0" result="BackgroundImageFix"/>
<feColorMatrix in="SourceAlpha" type="matrix" values="0 0 0 0 0 0 0 0 0 0 0 0 0 0 0 0 0 0 127 0" result="hardAlpha"/>
<feOffset dx="3" dy="5"/>
<feGaussianBlur stdDeviation="10"/>
<feComposite in2="hardAlpha" operator="out"/>
<feColorMatrix type="matrix" values="0 0 0 0 0.2 0 0 0 0 0.2 0 0 0 0 0.2 0 0 0 0.1 0"/>
<feBlend mode="normal" in2="BackgroundImageFix" result="effect1_dropShadow_170_4051"/>
<feBlend mode="normal" in="SourceGraphic" in2="effect1_dropShadow_170_4051" result="shape"/>
</filter>
<filter id="filter1_d_170_4051" x="22" y="28" width="112" height="112" filterUnits="userSpaceOnUse" color-interpolation-filters="sRGB">
<feFlood flood-opacity="0" result="BackgroundImageFix"/>
<feColorMatrix in="SourceAlpha" type="matrix" values="0 0 0 0 0 0 0 0 0 0 0 0 0 0 0 0 0 0 127 0" result="hardAlpha"/>
<feOffset dx="3" dy="3"/>
<feGaussianBlur stdDeviation="3"/>
<feComposite in2="hardAlpha" operator="out"/>
<feColorMatrix type="matrix" values="0 0 0 0 0.2 0 0 0 0 0.2 0 0 0 0 0.2 0 0 0 0.25 0"/>
<feBlend mode="normal" in2="BackgroundImageFix" result="effect1_dropShadow_170_4051"/>
<feBlend mode="normal" in="SourceGraphic" in2="effect1_dropShadow_170_4051" result="shape"/>
</filter>
</defs>
</svg>
