<svg width="326" height="540" viewBox="0 0 326 540" fill="none" xmlns="http://www.w3.org/2000/svg">
<g filter="url(#filter0_d_1763_9009)">
<rect x="17" y="15" width="286" height="500" rx="5" fill="white" shape-rendering="crispEdges"/>
<g filter="url(#filter1_d_1763_9009)">
<path d="M68.9181 122.417C67.9597 122.417 67.043 122 66.418 121.167L62.2097 115.542C61.3347 114.375 60.1681 113.708 58.9181 113.625C57.6681 113.542 56.418 114.125 55.418 115.167C49.3763 121.625 44.793 121.084 42.5847 120.25C40.3347 119.375 36.543 116.5 36.543 107.25V60.3335C36.543 41.8335 41.8763 36.2085 59.3346 36.2085H90.7931C108.251 36.2085 113.585 41.8335 113.585 60.3335V78.0834C113.585 79.7918 112.168 81.2084 110.46 81.2084C108.751 81.2084 107.335 79.7918 107.335 78.0834V60.3335C107.335 45.2919 104.71 42.4585 90.7931 42.4585H59.3346C45.418 42.4585 42.793 45.2919 42.793 60.3335V107.25C42.793 111.625 43.8763 114.042 44.8763 114.417C45.6263 114.708 47.6681 114.292 50.8347 110.917C53.1264 108.5 56.1264 107.208 59.2514 107.375C62.3347 107.542 65.2514 109.167 67.2097 111.792L71.4597 117.417C72.5013 118.792 72.2097 120.75 70.8347 121.792C70.2097 122.25 69.5431 122.417 68.9181 122.417Z" fill="#1959AB"/>
<path d="M100.833 123.292C91.7501 123.292 84.375 115.917 84.375 106.833C84.375 97.7501 91.7501 90.375 100.833 90.375C109.917 90.375 117.292 97.7501 117.292 106.833C117.292 115.917 109.917 123.292 100.833 123.292ZM100.833 96.625C95.2084 96.625 90.625 101.208 90.625 106.833C90.625 112.458 95.2084 117.042 100.833 117.042C106.458 117.042 111.042 112.458 111.042 106.833C111.042 101.208 106.458 96.625 100.833 96.625Z" fill="#1959AB"/>
<path d="M116.666 125.791C115.874 125.791 115.083 125.5 114.458 124.875L110.291 120.708C109.083 119.5 109.083 117.5 110.291 116.292C111.499 115.083 113.499 115.083 114.708 116.292L118.874 120.458C120.083 121.667 120.083 123.666 118.874 124.875C118.249 125.5 117.458 125.791 116.666 125.791Z" fill="#1959AB"/>
<path d="M91.6654 63.2915H58.332C56.6237 63.2915 55.207 61.8748 55.207 60.1665C55.207 58.4582 56.6237 57.0415 58.332 57.0415H91.6654C93.3737 57.0415 94.7904 58.4582 94.7904 60.1665C94.7904 61.8748 93.3737 63.2915 91.6654 63.2915Z" fill="#1959AB"/>
<path d="M87.5 79.9585H62.5C60.7917 79.9585 59.375 78.5418 59.375 76.8335C59.375 75.1252 60.7917 73.7085 62.5 73.7085H87.5C89.2083 73.7085 90.625 75.1252 90.625 76.8335C90.625 78.5418 89.2083 79.9585 87.5 79.9585Z" fill="#1959AB"/>
</g>
<path d="M44.6172 189.09C45.3047 189.668 45.832 190.383 46.1992 191.234C46.5742 192.078 46.7617 193.047 46.7617 194.141C46.7617 195.219 46.5703 196.184 46.1875 197.035C45.8047 197.887 45.2539 198.613 44.5352 199.215C43.8008 199.816 42.9531 200.285 41.9922 200.621C41.0391 200.957 39.9297 201.168 38.6641 201.254V203.164H34.1875V201.254C32.9609 201.168 31.8516 200.957 30.8594 200.621C29.8672 200.277 29.0156 199.805 28.3047 199.203C27.5938 198.602 27.0469 197.879 26.6641 197.035C26.2812 196.191 26.0898 195.227 26.0898 194.141C26.0898 193.047 26.2734 192.09 26.6406 191.27C27.0078 190.449 27.5391 189.742 28.2344 189.148C28.9141 188.578 29.7656 188.125 30.7891 187.789C31.8125 187.445 32.9453 187.227 34.1875 187.133V185.352H38.6641V187.133C39.9531 187.203 41.0898 187.402 42.0742 187.73C43.0664 188.051 43.9141 188.504 44.6172 189.09ZM42.1094 194.07C42.1094 192.945 41.8125 192.031 41.2188 191.328C40.625 190.625 39.7734 190.199 38.6641 190.051V198.348C39.9531 198.121 40.8477 197.664 41.3477 196.977C41.8555 196.281 42.1094 195.312 42.1094 194.07ZM34.1875 198.348V190.051C33.0469 190.223 32.1875 190.645 31.6094 191.316C31.0312 191.98 30.7422 192.898 30.7422 194.07C30.7422 195.297 31 196.262 31.5156 196.965C32.0391 197.66 32.9297 198.121 34.1875 198.348ZM63.1445 203H59.0547V194.949L53.3359 203H49.8438V189.84H53.9336V197.047L59.2305 189.84H63.1445V203ZM80.4297 203H76.2109V197.387H71.3594V203H67.1406V189.84H71.3594V194.375H76.2109V189.84H80.4297V203ZM92.3828 199.566V196.824C91.8125 196.871 91.1953 196.938 90.5312 197.023C89.8672 197.102 89.3633 197.195 89.0195 197.305C88.5977 197.438 88.2734 197.633 88.0469 197.891C87.8281 198.141 87.7188 198.473 87.7188 198.887C87.7188 199.16 87.7422 199.383 87.7891 199.555C87.8359 199.727 87.9531 199.891 88.1406 200.047C88.3203 200.203 88.5352 200.32 88.7852 200.398C89.0352 200.469 89.4258 200.504 89.957 200.504C90.3789 200.504 90.8047 200.418 91.2344 200.246C91.6719 200.074 92.0547 199.848 92.3828 199.566ZM92.3828 201.605C92.1562 201.777 91.875 201.984 91.5391 202.227C91.2031 202.469 90.8867 202.66 90.5898 202.801C90.1758 202.988 89.7461 203.125 89.3008 203.211C88.8555 203.305 88.3672 203.352 87.8359 203.352C86.5859 203.352 85.5391 202.965 84.6953 202.191C83.8516 201.418 83.4297 200.43 83.4297 199.227C83.4297 198.266 83.6445 197.48 84.0742 196.871C84.5039 196.262 85.1133 195.781 85.9023 195.43C86.6836 195.078 87.6523 194.828 88.8086 194.68C89.9648 194.531 91.1641 194.422 92.4062 194.352V194.281C92.4062 193.555 92.1094 193.055 91.5156 192.781C90.9219 192.5 90.0469 192.359 88.8906 192.359C88.1953 192.359 87.4531 192.484 86.6641 192.734C85.875 192.977 85.3086 193.164 84.9648 193.297H84.5781V190.121C85.0234 190.004 85.7461 189.867 86.7461 189.711C87.7539 189.547 88.7617 189.465 89.7695 189.465C92.168 189.465 93.8984 189.836 94.9609 190.578C96.0312 191.312 96.5664 192.469 96.5664 194.047V203H92.3828V201.605ZM113.734 203H109.516V197.387H104.664V203H100.445V189.84H104.664V194.375H109.516V189.84H113.734V203ZM124.574 203.352C123.426 203.352 122.375 203.215 121.422 202.941C120.477 202.668 119.652 202.246 118.949 201.676C118.254 201.105 117.715 200.387 117.332 199.52C116.949 198.652 116.758 197.637 116.758 196.473C116.758 195.246 116.961 194.188 117.367 193.297C117.781 192.406 118.355 191.668 119.09 191.082C119.801 190.527 120.621 190.121 121.551 189.863C122.48 189.605 123.445 189.477 124.445 189.477C125.344 189.477 126.172 189.574 126.93 189.77C127.688 189.965 128.395 190.219 129.051 190.531V194.129H128.453C128.289 193.988 128.09 193.824 127.855 193.637C127.629 193.449 127.348 193.266 127.012 193.086C126.691 192.914 126.34 192.773 125.957 192.664C125.574 192.547 125.129 192.488 124.621 192.488C123.496 192.488 122.629 192.848 122.02 193.566C121.418 194.277 121.117 195.246 121.117 196.473C121.117 197.738 121.426 198.699 122.043 199.355C122.668 200.012 123.551 200.34 124.691 200.34C125.223 200.34 125.699 200.281 126.121 200.164C126.551 200.039 126.906 199.895 127.188 199.73C127.453 199.574 127.688 199.41 127.891 199.238C128.094 199.066 128.281 198.898 128.453 198.734H129.051V202.332C128.387 202.645 127.691 202.891 126.965 203.07C126.246 203.258 125.449 203.352 124.574 203.352ZM145.387 203H141.297V194.949L135.578 203H132.086V189.84H136.176V197.047L141.473 189.84H145.387V203ZM163.117 196.238C163.117 197.324 162.949 198.312 162.613 199.203C162.285 200.094 161.852 200.828 161.312 201.406C160.75 202.016 160.113 202.477 159.402 202.789C158.691 203.102 157.93 203.258 157.117 203.258C156.367 203.258 155.73 203.176 155.207 203.012C154.684 202.855 154.148 202.633 153.602 202.344V207.828H149.383V189.84H153.602V191.211C154.25 190.695 154.91 190.277 155.582 189.957C156.262 189.637 157.043 189.477 157.926 189.477C159.566 189.477 160.84 190.078 161.746 191.281C162.66 192.484 163.117 194.137 163.117 196.238ZM158.77 196.32C158.77 195.039 158.551 194.109 158.113 193.531C157.676 192.953 156.984 192.664 156.039 192.664C155.641 192.664 155.23 192.727 154.809 192.852C154.387 192.969 153.984 193.141 153.602 193.367V199.988C153.883 200.098 154.184 200.168 154.504 200.199C154.824 200.23 155.141 200.246 155.453 200.246C156.57 200.246 157.402 199.922 157.949 199.273C158.496 198.617 158.77 197.633 158.77 196.32ZM179.617 196.426C179.617 198.59 178.984 200.297 177.719 201.547C176.461 202.789 174.691 203.41 172.41 203.41C170.129 203.41 168.355 202.789 167.09 201.547C165.832 200.297 165.203 198.59 165.203 196.426C165.203 194.246 165.836 192.535 167.102 191.293C168.375 190.051 170.145 189.43 172.41 189.43C174.707 189.43 176.48 190.055 177.73 191.305C178.988 192.555 179.617 194.262 179.617 196.426ZM174.426 199.625C174.699 199.289 174.902 198.887 175.035 198.418C175.176 197.941 175.246 197.285 175.246 196.449C175.246 195.676 175.176 195.027 175.035 194.504C174.895 193.98 174.699 193.562 174.449 193.25C174.199 192.93 173.898 192.703 173.547 192.57C173.195 192.438 172.816 192.371 172.41 192.371C172.004 192.371 171.641 192.426 171.32 192.535C171.008 192.645 170.707 192.863 170.418 193.191C170.16 193.496 169.953 193.914 169.797 194.445C169.648 194.977 169.574 195.645 169.574 196.449C169.574 197.168 169.641 197.793 169.773 198.324C169.906 198.848 170.102 199.27 170.359 199.59C170.609 199.895 170.906 200.117 171.25 200.258C171.602 200.398 172 200.469 172.445 200.469C172.828 200.469 173.191 200.406 173.535 200.281C173.887 200.148 174.184 199.93 174.426 199.625ZM195.836 199.027C195.836 199.66 195.707 200.223 195.449 200.715C195.199 201.207 194.863 201.617 194.441 201.945C193.91 202.359 193.348 202.641 192.754 202.789C192.168 202.93 191.469 203 190.656 203H182.641V189.84H190.316C191.277 189.84 191.984 189.871 192.438 189.934C192.891 189.996 193.336 190.148 193.773 190.391C194.234 190.641 194.578 190.973 194.805 191.387C195.039 191.801 195.156 192.293 195.156 192.863C195.156 193.512 194.969 194.082 194.594 194.574C194.227 195.059 193.781 195.43 193.258 195.688V195.816C193.984 195.996 194.594 196.359 195.086 196.906C195.586 197.445 195.836 198.152 195.836 199.027ZM190.902 193.801C190.902 193.316 190.754 192.973 190.457 192.77C190.168 192.566 189.699 192.465 189.051 192.465H186.824V195.09H189.121C189.691 195.09 190.129 194.977 190.434 194.75C190.746 194.516 190.902 194.199 190.902 193.801ZM191.488 198.898C191.488 198.328 191.324 197.93 190.996 197.703C190.676 197.469 190.199 197.352 189.566 197.352H186.824V200.363H189.637C190.215 200.363 190.668 200.234 190.996 199.977C191.324 199.711 191.488 199.352 191.488 198.898ZM206.875 199.566V196.824C206.305 196.871 205.688 196.938 205.023 197.023C204.359 197.102 203.855 197.195 203.512 197.305C203.09 197.438 202.766 197.633 202.539 197.891C202.32 198.141 202.211 198.473 202.211 198.887C202.211 199.16 202.234 199.383 202.281 199.555C202.328 199.727 202.445 199.891 202.633 200.047C202.812 200.203 203.027 200.32 203.277 200.398C203.527 200.469 203.918 200.504 204.449 200.504C204.871 200.504 205.297 200.418 205.727 200.246C206.164 200.074 206.547 199.848 206.875 199.566ZM206.875 201.605C206.648 201.777 206.367 201.984 206.031 202.227C205.695 202.469 205.379 202.66 205.082 202.801C204.668 202.988 204.238 203.125 203.793 203.211C203.348 203.305 202.859 203.352 202.328 203.352C201.078 203.352 200.031 202.965 199.188 202.191C198.344 201.418 197.922 200.43 197.922 199.227C197.922 198.266 198.137 197.48 198.566 196.871C198.996 196.262 199.605 195.781 200.395 195.43C201.176 195.078 202.145 194.828 203.301 194.68C204.457 194.531 205.656 194.422 206.898 194.352V194.281C206.898 193.555 206.602 193.055 206.008 192.781C205.414 192.5 204.539 192.359 203.383 192.359C202.688 192.359 201.945 192.484 201.156 192.734C200.367 192.977 199.801 193.164 199.457 193.297H199.07V190.121C199.516 190.004 200.238 189.867 201.238 189.711C202.246 189.547 203.254 189.465 204.262 189.465C206.66 189.465 208.391 189.836 209.453 190.578C210.523 191.312 211.059 192.469 211.059 194.047V203H206.875V201.605ZM228.227 203H224.008V197.387H219.156V203H214.938V189.84H219.156V194.375H224.008V189.84H228.227V203ZM245.512 203H241.422V194.949L235.703 203H232.211V189.84H236.301V197.047L241.598 189.84H245.512V203ZM262.469 197.199H252.812C252.875 198.23 253.266 199.02 253.984 199.566C254.711 200.113 255.777 200.387 257.184 200.387C258.074 200.387 258.938 200.227 259.773 199.906C260.609 199.586 261.27 199.242 261.754 198.875H262.223V202.262C261.27 202.645 260.371 202.922 259.527 203.094C258.684 203.266 257.75 203.352 256.727 203.352C254.086 203.352 252.062 202.758 250.656 201.57C249.25 200.383 248.547 198.691 248.547 196.496C248.547 194.324 249.211 192.605 250.539 191.34C251.875 190.066 253.703 189.43 256.023 189.43C258.164 189.43 259.773 189.973 260.852 191.059C261.93 192.137 262.469 193.691 262.469 195.723V197.199ZM258.273 194.727C258.25 193.844 258.031 193.18 257.617 192.734C257.203 192.289 256.559 192.066 255.684 192.066C254.871 192.066 254.203 192.277 253.68 192.699C253.156 193.121 252.863 193.797 252.801 194.727H258.273Z" fill="#333333"/>
<path d="M30 239L37.5 246.5L50 231.5" stroke="#61B857" stroke-width="2" stroke-linecap="round" stroke-linejoin="round"/>
<path d="M73.3438 241.898C73.3438 242.461 73.2318 242.971 73.0078 243.43C72.7891 243.888 72.4948 244.26 72.125 244.547C71.6875 244.891 71.2188 245.135 70.7188 245.281C70.2188 245.427 69.5729 245.5 68.7812 245.5H64.5625V233.867H72.3516V235.242H66.1094V238.43H68.8281C69.6198 238.43 70.2656 238.477 70.7656 238.57C71.2656 238.659 71.737 238.875 72.1797 239.219C72.5755 239.526 72.8672 239.906 73.0547 240.359C73.2474 240.812 73.3438 241.326 73.3438 241.898ZM71.7266 241.93C71.7266 241.539 71.6615 241.195 71.5312 240.898C71.401 240.602 71.1979 240.362 70.9219 240.18C70.6354 239.987 70.3047 239.87 69.9297 239.828C69.5547 239.786 69.026 239.766 68.3438 239.766H66.1094V244.18H68.3047C68.9974 244.18 69.5286 244.146 69.8984 244.078C70.2734 244.01 70.6016 243.88 70.8828 243.688C71.1745 243.484 71.388 243.247 71.5234 242.977C71.6589 242.701 71.7266 242.352 71.7266 241.93ZM82.1953 245.5H80.7344V244.57C80.6042 244.659 80.4271 244.784 80.2031 244.945C79.9844 245.102 79.7708 245.227 79.5625 245.32C79.3177 245.44 79.0365 245.539 78.7188 245.617C78.401 245.701 78.0286 245.742 77.6016 245.742C76.8151 245.742 76.1484 245.482 75.6016 244.961C75.0547 244.44 74.7812 243.776 74.7812 242.969C74.7812 242.307 74.9219 241.773 75.2031 241.367C75.4896 240.956 75.8958 240.633 76.4219 240.398C76.9531 240.164 77.5911 240.005 78.3359 239.922C79.0807 239.839 79.8802 239.776 80.7344 239.734V239.508C80.7344 239.174 80.6745 238.898 80.5547 238.68C80.4401 238.461 80.2734 238.289 80.0547 238.164C79.8464 238.044 79.5964 237.964 79.3047 237.922C79.013 237.88 78.7083 237.859 78.3906 237.859C78.0052 237.859 77.5755 237.911 77.1016 238.016C76.6276 238.115 76.138 238.26 75.6328 238.453H75.5547V236.961C75.8411 236.883 76.2552 236.797 76.7969 236.703C77.3385 236.609 77.8724 236.562 78.3984 236.562C79.013 236.562 79.5469 236.615 80 236.719C80.4583 236.818 80.8542 236.99 81.1875 237.234C81.5156 237.474 81.7656 237.784 81.9375 238.164C82.1094 238.544 82.1953 239.016 82.1953 239.578V245.5ZM80.7344 243.352V240.922C80.2865 240.948 79.7578 240.987 79.1484 241.039C78.5443 241.091 78.0651 241.167 77.7109 241.266C77.2891 241.385 76.9479 241.573 76.6875 241.828C76.4271 242.078 76.2969 242.424 76.2969 242.867C76.2969 243.367 76.4479 243.745 76.75 244C77.0521 244.25 77.513 244.375 78.1328 244.375C78.6484 244.375 79.1198 244.276 79.5469 244.078C79.974 243.875 80.3698 243.633 80.7344 243.352ZM91.0938 243.055C91.0938 243.544 90.9792 243.958 90.75 244.297C90.526 244.635 90.237 244.909 89.8828 245.117C89.5286 245.32 89.138 245.469 88.7109 245.562C88.2839 245.656 87.8568 245.703 87.4297 245.703C86.8255 245.703 86.25 245.646 85.7031 245.531C85.1562 245.417 84.6172 245.24 84.0859 245V243.391H84.1875C84.5677 243.724 85.0521 243.982 85.6406 244.164C86.2292 244.346 86.7995 244.438 87.3516 244.438C87.612 244.438 87.8802 244.414 88.1562 244.367C88.4323 244.315 88.6719 244.234 88.875 244.125C89.0938 244 89.2682 243.852 89.3984 243.68C89.5286 243.503 89.5938 243.263 89.5938 242.961C89.5938 242.648 89.5286 242.398 89.3984 242.211C89.2734 242.023 89.1016 241.883 88.8828 241.789C88.6693 241.695 88.4115 241.638 88.1094 241.617C87.8073 241.596 87.5312 241.586 87.2812 241.586H86.0078V240.32H86.8906C87.099 240.32 87.3698 240.312 87.7031 240.297C88.0417 240.281 88.3151 240.24 88.5234 240.172C88.7943 240.083 89.0078 239.958 89.1641 239.797C89.3255 239.635 89.4062 239.378 89.4062 239.023C89.4062 238.779 89.3438 238.578 89.2188 238.422C89.0938 238.26 88.9375 238.135 88.75 238.047C88.5573 237.958 88.3411 237.898 88.1016 237.867C87.8672 237.836 87.6589 237.82 87.4766 237.82C86.9453 237.82 86.4219 237.893 85.9062 238.039C85.3958 238.18 84.9661 238.385 84.6172 238.656H84.5156V237.039C84.9479 236.898 85.4115 236.784 85.9062 236.695C86.401 236.607 86.8958 236.562 87.3906 236.562C87.7969 236.562 88.2005 236.599 88.6016 236.672C89.0078 236.745 89.3854 236.87 89.7344 237.047C90.0781 237.224 90.3594 237.466 90.5781 237.773C90.7969 238.076 90.9062 238.451 90.9062 238.898C90.9062 239.357 90.763 239.76 90.4766 240.109C90.1953 240.453 89.8151 240.701 89.3359 240.852V240.906C89.8724 241.036 90.2995 241.281 90.6172 241.641C90.9349 241.995 91.0938 242.466 91.0938 243.055ZM100.195 245.5H98.7344V244.57C98.6042 244.659 98.4271 244.784 98.2031 244.945C97.9844 245.102 97.7708 245.227 97.5625 245.32C97.3177 245.44 97.0365 245.539 96.7188 245.617C96.401 245.701 96.0286 245.742 95.6016 245.742C94.8151 245.742 94.1484 245.482 93.6016 244.961C93.0547 244.44 92.7812 243.776 92.7812 242.969C92.7812 242.307 92.9219 241.773 93.2031 241.367C93.4896 240.956 93.8958 240.633 94.4219 240.398C94.9531 240.164 95.5911 240.005 96.3359 239.922C97.0807 239.839 97.8802 239.776 98.7344 239.734V239.508C98.7344 239.174 98.6745 238.898 98.5547 238.68C98.4401 238.461 98.2734 238.289 98.0547 238.164C97.8464 238.044 97.5964 237.964 97.3047 237.922C97.013 237.88 96.7083 237.859 96.3906 237.859C96.0052 237.859 95.5755 237.911 95.1016 238.016C94.6276 238.115 94.138 238.26 93.6328 238.453H93.5547V236.961C93.8411 236.883 94.2552 236.797 94.7969 236.703C95.3385 236.609 95.8724 236.562 96.3984 236.562C97.013 236.562 97.5469 236.615 98 236.719C98.4583 236.818 98.8542 236.99 99.1875 237.234C99.5156 237.474 99.7656 237.784 99.9375 238.164C100.109 238.544 100.195 239.016 100.195 239.578V245.5ZM98.7344 243.352V240.922C98.2865 240.948 97.7578 240.987 97.1484 241.039C96.5443 241.091 96.0651 241.167 95.7109 241.266C95.2891 241.385 94.9479 241.573 94.6875 241.828C94.4271 242.078 94.2969 242.424 94.2969 242.867C94.2969 243.367 94.4479 243.745 94.75 244C95.0521 244.25 95.513 244.375 96.1328 244.375C96.6484 244.375 97.1198 244.276 97.5469 244.078C97.974 243.875 98.3698 243.633 98.7344 243.352ZM118.438 248.133H116.969V245.469H108.75V248.133H107.281V244.125H108.219C108.896 243.01 109.435 241.557 109.836 239.766C110.242 237.969 110.445 236.003 110.445 233.867H117.336V244.125H118.438V248.133ZM115.789 244.125V235.211H111.898C111.826 237.07 111.596 238.773 111.211 240.32C110.826 241.862 110.326 243.13 109.711 244.125H115.789ZM127.367 245.5H125.906V244.57C125.776 244.659 125.599 244.784 125.375 244.945C125.156 245.102 124.943 245.227 124.734 245.32C124.49 245.44 124.208 245.539 123.891 245.617C123.573 245.701 123.201 245.742 122.773 245.742C121.987 245.742 121.32 245.482 120.773 244.961C120.227 244.44 119.953 243.776 119.953 242.969C119.953 242.307 120.094 241.773 120.375 241.367C120.661 240.956 121.068 240.633 121.594 240.398C122.125 240.164 122.763 240.005 123.508 239.922C124.253 239.839 125.052 239.776 125.906 239.734V239.508C125.906 239.174 125.846 238.898 125.727 238.68C125.612 238.461 125.445 238.289 125.227 238.164C125.018 238.044 124.768 237.964 124.477 237.922C124.185 237.88 123.88 237.859 123.562 237.859C123.177 237.859 122.747 237.911 122.273 238.016C121.799 238.115 121.31 238.26 120.805 238.453H120.727V236.961C121.013 236.883 121.427 236.797 121.969 236.703C122.51 236.609 123.044 236.562 123.57 236.562C124.185 236.562 124.719 236.615 125.172 236.719C125.63 236.818 126.026 236.99 126.359 237.234C126.688 237.474 126.938 237.784 127.109 238.164C127.281 238.544 127.367 239.016 127.367 239.578V245.5ZM125.906 243.352V240.922C125.458 240.948 124.93 240.987 124.32 241.039C123.716 241.091 123.237 241.167 122.883 241.266C122.461 241.385 122.12 241.573 121.859 241.828C121.599 242.078 121.469 242.424 121.469 242.867C121.469 243.367 121.62 243.745 121.922 244C122.224 244.25 122.685 244.375 123.305 244.375C123.82 244.375 124.292 244.276 124.719 244.078C125.146 243.875 125.542 243.633 125.906 243.352ZM137.5 245.5H136.031V241.57H131.664V245.5H130.195V236.773H131.664V240.305H136.031V236.773H137.5V245.5ZM147.703 245.5H146.234V241.57H141.867V245.5H140.398V236.773H141.867V240.305H146.234V236.773H147.703V245.5ZM155.977 242.82C155.977 242.555 155.93 242.323 155.836 242.125C155.747 241.922 155.599 241.758 155.391 241.633C155.172 241.503 154.922 241.424 154.641 241.398C154.365 241.372 153.966 241.359 153.445 241.359H152.07V244.328H153.414C153.935 244.328 154.339 244.307 154.625 244.266C154.911 244.219 155.159 244.133 155.367 244.008C155.581 243.872 155.734 243.714 155.828 243.531C155.927 243.344 155.977 243.107 155.977 242.82ZM157.492 242.797C157.492 243.219 157.406 243.602 157.234 243.945C157.068 244.289 156.839 244.568 156.547 244.781C156.203 245.042 155.836 245.227 155.445 245.336C155.055 245.445 154.552 245.5 153.938 245.5H150.602V236.773H152.07V240.172H153.977C154.633 240.172 155.141 240.206 155.5 240.273C155.865 240.341 156.227 240.508 156.586 240.773C156.888 240.997 157.115 241.284 157.266 241.633C157.417 241.982 157.492 242.37 157.492 242.797ZM158.953 236.773H160.422V245.5H158.953V236.773ZM170.875 245.5H169.023L166.547 242.148L164.055 245.5H162.344L165.75 241.148L162.375 236.773H164.227L166.688 240.07L169.156 236.773H170.875L167.445 241.07L170.875 245.5Z" fill="#333333"/>
<path d="M30 285L37.5 292.5L50 277.5" stroke="#61B857" stroke-width="2" stroke-linecap="round" stroke-linejoin="round"/>
<path d="M75.2812 285.602C75.2812 286.331 75.1641 286.979 74.9297 287.547C74.7005 288.109 74.3802 288.581 73.9688 288.961C73.526 289.372 72.987 289.701 72.3516 289.945C71.7161 290.185 71.0391 290.312 70.3203 290.328V291.625H68.7812V290.328C68.0833 290.312 67.4141 290.188 66.7734 289.953C66.1328 289.719 65.5859 289.388 65.1328 288.961C64.7214 288.576 64.3984 288.102 64.1641 287.539C63.9349 286.977 63.8203 286.331 63.8203 285.602C63.8203 284.893 63.9323 284.273 64.1562 283.742C64.3802 283.211 64.6901 282.747 65.0859 282.352C65.5078 281.93 66.0339 281.596 66.6641 281.352C67.2995 281.107 68.0052 280.974 68.7812 280.953V279.742H70.3203V280.953C71.0911 280.969 71.7969 281.104 72.4375 281.359C73.0781 281.615 73.6042 281.945 74.0156 282.352C74.4062 282.732 74.7135 283.193 74.9375 283.734C75.1667 284.276 75.2812 284.898 75.2812 285.602ZM73.6719 285.539C73.6719 285.023 73.5885 284.549 73.4219 284.117C73.2552 283.685 73.0182 283.32 72.7109 283.023C72.4089 282.732 72.0729 282.518 71.7031 282.383C71.3333 282.247 70.8724 282.174 70.3203 282.164V289.117C70.8099 289.107 71.2552 289.029 71.6562 288.883C72.0573 288.732 72.388 288.534 72.6484 288.289C72.987 287.977 73.2422 287.594 73.4141 287.141C73.5859 286.688 73.6719 286.154 73.6719 285.539ZM68.7812 289.117V282.164C68.2292 282.169 67.7682 282.242 67.3984 282.383C67.0286 282.523 66.6927 282.737 66.3906 283.023C66.0885 283.31 65.8516 283.674 65.6797 284.117C65.513 284.56 65.4297 285.034 65.4297 285.539C65.4297 286.122 65.5156 286.651 65.6875 287.125C65.8646 287.599 66.1198 287.987 66.4531 288.289C66.7083 288.523 67.0365 288.719 67.4375 288.875C67.8438 289.031 68.2917 289.112 68.7812 289.117ZM84.9062 291.5H83.4531V284.945L78.8828 291.5H77.5547V282.773H79.0078V289.234L83.5312 282.773H84.9062V291.5ZM95.1094 291.5H93.6406V287.57H89.2734V291.5H87.8047V282.773H89.2734V286.305H93.6406V282.773H95.1094V291.5ZM104.789 291.5H103.328V290.57C103.198 290.659 103.021 290.784 102.797 290.945C102.578 291.102 102.365 291.227 102.156 291.32C101.911 291.44 101.63 291.539 101.312 291.617C100.995 291.701 100.622 291.742 100.195 291.742C99.4089 291.742 98.7422 291.482 98.1953 290.961C97.6484 290.44 97.375 289.776 97.375 288.969C97.375 288.307 97.5156 287.773 97.7969 287.367C98.0833 286.956 98.4896 286.633 99.0156 286.398C99.5469 286.164 100.185 286.005 100.93 285.922C101.674 285.839 102.474 285.776 103.328 285.734V285.508C103.328 285.174 103.268 284.898 103.148 284.68C103.034 284.461 102.867 284.289 102.648 284.164C102.44 284.044 102.19 283.964 101.898 283.922C101.607 283.88 101.302 283.859 100.984 283.859C100.599 283.859 100.169 283.911 99.6953 284.016C99.2214 284.115 98.7318 284.26 98.2266 284.453H98.1484V282.961C98.4349 282.883 98.849 282.797 99.3906 282.703C99.9323 282.609 100.466 282.562 100.992 282.562C101.607 282.562 102.141 282.615 102.594 282.719C103.052 282.818 103.448 282.99 103.781 283.234C104.109 283.474 104.359 283.784 104.531 284.164C104.703 284.544 104.789 285.016 104.789 285.578V291.5ZM103.328 289.352V286.922C102.88 286.948 102.352 286.987 101.742 287.039C101.138 287.091 100.659 287.167 100.305 287.266C99.8828 287.385 99.5417 287.573 99.2812 287.828C99.0208 288.078 98.8906 288.424 98.8906 288.867C98.8906 289.367 99.0417 289.745 99.3438 290C99.6458 290.25 100.107 290.375 100.727 290.375C101.242 290.375 101.714 290.276 102.141 290.078C102.568 289.875 102.964 289.633 103.328 289.352ZM114.922 291.5H113.453V287.57H109.086V291.5H107.617V282.773H109.086V286.305H113.453V282.773H114.922V291.5ZM124.352 290.953C123.753 291.234 123.237 291.427 122.805 291.531C122.378 291.641 121.951 291.695 121.523 291.695C120.888 291.695 120.305 291.604 119.773 291.422C119.242 291.234 118.786 290.953 118.406 290.578C118.026 290.203 117.729 289.729 117.516 289.156C117.307 288.583 117.203 287.914 117.203 287.148C117.203 285.758 117.589 284.648 118.359 283.82C119.13 282.987 120.185 282.57 121.523 282.57C122.029 282.57 122.523 282.641 123.008 282.781C123.497 282.922 123.945 283.094 124.352 283.297V284.93H124.266C123.781 284.56 123.302 284.286 122.828 284.109C122.359 283.932 121.904 283.844 121.461 283.844C120.591 283.844 119.917 284.135 119.438 284.719C118.964 285.302 118.727 286.112 118.727 287.148C118.727 288.185 118.964 288.99 119.438 289.562C119.911 290.135 120.586 290.422 121.461 290.422C121.768 290.422 122.073 290.383 122.375 290.305C122.682 290.227 122.961 290.125 123.211 290C123.409 289.901 123.612 289.784 123.82 289.648C124.034 289.508 124.182 289.404 124.266 289.336H124.352V290.953ZM133.805 287.141C133.805 288.562 133.44 289.685 132.711 290.508C131.982 291.331 131.005 291.742 129.781 291.742C128.547 291.742 127.565 291.331 126.836 290.508C126.112 289.685 125.75 288.562 125.75 287.141C125.75 285.719 126.112 284.596 126.836 283.773C127.565 282.945 128.547 282.531 129.781 282.531C131.005 282.531 131.982 282.945 132.711 283.773C133.44 284.596 133.805 285.719 133.805 287.141ZM132.289 287.141C132.289 286.01 132.068 285.172 131.625 284.625C131.182 284.073 130.568 283.797 129.781 283.797C128.984 283.797 128.365 284.073 127.922 284.625C127.484 285.172 127.266 286.01 127.266 287.141C127.266 288.234 127.487 289.065 127.93 289.633C128.372 290.195 128.99 290.477 129.781 290.477C130.562 290.477 131.174 290.198 131.617 289.641C132.065 289.078 132.289 288.245 132.289 287.141ZM143.289 288.859C143.289 289.281 143.203 289.656 143.031 289.984C142.865 290.312 142.633 290.586 142.336 290.805C142.003 291.049 141.638 291.227 141.242 291.336C140.852 291.445 140.336 291.5 139.695 291.5H136.086V282.773H139.461C140.112 282.773 140.602 282.797 140.93 282.844C141.263 282.885 141.576 282.982 141.867 283.133C142.195 283.305 142.435 283.529 142.586 283.805C142.742 284.081 142.82 284.406 142.82 284.781C142.82 285.214 142.698 285.589 142.453 285.906C142.208 286.224 141.893 286.471 141.508 286.648V286.727C142.023 286.852 142.448 287.094 142.781 287.453C143.12 287.807 143.289 288.276 143.289 288.859ZM141.312 285.008C141.312 284.82 141.271 284.651 141.188 284.5C141.109 284.349 140.987 284.232 140.82 284.148C140.602 284.039 140.354 283.979 140.078 283.969C139.807 283.953 139.471 283.945 139.07 283.945H137.539V286.336H139.375C139.76 286.336 140.044 286.323 140.227 286.297C140.414 286.266 140.602 286.193 140.789 286.078C140.987 285.953 141.122 285.807 141.195 285.641C141.273 285.469 141.312 285.258 141.312 285.008ZM141.773 288.867C141.773 288.581 141.727 288.349 141.633 288.172C141.539 287.99 141.333 287.823 141.016 287.672C140.818 287.578 140.604 287.523 140.375 287.508C140.146 287.487 139.828 287.477 139.422 287.477H137.539V290.328H138.93C139.513 290.328 139.961 290.31 140.273 290.273C140.591 290.232 140.865 290.146 141.094 290.016C141.323 289.885 141.492 289.727 141.602 289.539C141.716 289.352 141.773 289.128 141.773 288.867ZM152.383 291.5H150.922V290.57C150.792 290.659 150.615 290.784 150.391 290.945C150.172 291.102 149.958 291.227 149.75 291.32C149.505 291.44 149.224 291.539 148.906 291.617C148.589 291.701 148.216 291.742 147.789 291.742C147.003 291.742 146.336 291.482 145.789 290.961C145.242 290.44 144.969 289.776 144.969 288.969C144.969 288.307 145.109 287.773 145.391 287.367C145.677 286.956 146.083 286.633 146.609 286.398C147.141 286.164 147.779 286.005 148.523 285.922C149.268 285.839 150.068 285.776 150.922 285.734V285.508C150.922 285.174 150.862 284.898 150.742 284.68C150.628 284.461 150.461 284.289 150.242 284.164C150.034 284.044 149.784 283.964 149.492 283.922C149.201 283.88 148.896 283.859 148.578 283.859C148.193 283.859 147.763 283.911 147.289 284.016C146.815 284.115 146.326 284.26 145.82 284.453H145.742V282.961C146.029 282.883 146.443 282.797 146.984 282.703C147.526 282.609 148.06 282.562 148.586 282.562C149.201 282.562 149.734 282.615 150.188 282.719C150.646 282.818 151.042 282.99 151.375 283.234C151.703 283.474 151.953 283.784 152.125 284.164C152.297 284.544 152.383 285.016 152.383 285.578V291.5ZM150.922 289.352V286.922C150.474 286.948 149.945 286.987 149.336 287.039C148.732 287.091 148.253 287.167 147.898 287.266C147.477 287.385 147.135 287.573 146.875 287.828C146.615 288.078 146.484 288.424 146.484 288.867C146.484 289.367 146.635 289.745 146.938 290C147.24 290.25 147.701 290.375 148.32 290.375C148.836 290.375 149.307 290.276 149.734 290.078C150.161 289.875 150.557 289.633 150.922 289.352ZM161.914 291.5H160.445V288.039H158.719L156.016 291.5H154.289L157.227 287.898C156.471 287.69 155.919 287.372 155.57 286.945C155.221 286.513 155.047 285.948 155.047 285.25C155.047 284.786 155.151 284.393 155.359 284.07C155.568 283.747 155.831 283.484 156.148 283.281C156.461 283.083 156.82 282.951 157.227 282.883C157.633 282.81 158.076 282.773 158.555 282.773H161.914V291.5ZM160.445 286.883V283.945H158.594C158.193 283.945 157.904 283.958 157.727 283.984C157.549 284.01 157.357 284.081 157.148 284.195C156.945 284.31 156.794 284.466 156.695 284.664C156.602 284.857 156.555 285.068 156.555 285.297C156.555 285.583 156.583 285.815 156.641 285.992C156.703 286.169 156.828 286.336 157.016 286.492C157.208 286.643 157.443 286.747 157.719 286.805C157.995 286.857 158.302 286.883 158.641 286.883H160.445ZM179.898 291.5H177.914L173.188 286.195H172.133V291.5H170.586V279.867H172.133V285.086C172.398 285.081 172.648 285.055 172.883 285.008C173.117 284.961 173.339 284.872 173.547 284.742C173.755 284.622 173.961 284.453 174.164 284.234C174.367 284.01 174.547 283.737 174.703 283.414C174.771 283.273 174.849 283.096 174.938 282.883C175.031 282.669 175.125 282.445 175.219 282.211C175.578 281.346 175.997 280.74 176.477 280.391C176.961 280.042 177.672 279.867 178.609 279.867H179.227V281.25H178.578C178.219 281.25 177.938 281.284 177.734 281.352C177.531 281.414 177.349 281.521 177.188 281.672C177.036 281.807 176.904 281.99 176.789 282.219C176.68 282.448 176.565 282.716 176.445 283.023C176.174 283.711 175.898 284.216 175.617 284.539C175.341 284.862 174.969 285.143 174.5 285.383L179.898 291.5ZM188.961 287.141C188.961 288.562 188.596 289.685 187.867 290.508C187.138 291.331 186.161 291.742 184.938 291.742C183.703 291.742 182.721 291.331 181.992 290.508C181.268 289.685 180.906 288.562 180.906 287.141C180.906 285.719 181.268 284.596 181.992 283.773C182.721 282.945 183.703 282.531 184.938 282.531C186.161 282.531 187.138 282.945 187.867 283.773C188.596 284.596 188.961 285.719 188.961 287.141ZM187.445 287.141C187.445 286.01 187.224 285.172 186.781 284.625C186.339 284.073 185.724 283.797 184.938 283.797C184.141 283.797 183.521 284.073 183.078 284.625C182.641 285.172 182.422 286.01 182.422 287.141C182.422 288.234 182.643 289.065 183.086 289.633C183.529 290.195 184.146 290.477 184.938 290.477C185.719 290.477 186.331 290.198 186.773 289.641C187.221 289.078 187.445 288.245 187.445 287.141ZM198.547 291.5H197.078V287.57H192.711V291.5H191.242V282.773H192.711V286.305H197.078V282.773H198.547V291.5ZM207.977 290.953C207.378 291.234 206.862 291.427 206.43 291.531C206.003 291.641 205.576 291.695 205.148 291.695C204.513 291.695 203.93 291.604 203.398 291.422C202.867 291.234 202.411 290.953 202.031 290.578C201.651 290.203 201.354 289.729 201.141 289.156C200.932 288.583 200.828 287.914 200.828 287.148C200.828 285.758 201.214 284.648 201.984 283.82C202.755 282.987 203.81 282.57 205.148 282.57C205.654 282.57 206.148 282.641 206.633 282.781C207.122 282.922 207.57 283.094 207.977 283.297V284.93H207.891C207.406 284.56 206.927 284.286 206.453 284.109C205.984 283.932 205.529 283.844 205.086 283.844C204.216 283.844 203.542 284.135 203.062 284.719C202.589 285.302 202.352 286.112 202.352 287.148C202.352 288.185 202.589 288.99 203.062 289.562C203.536 290.135 204.211 290.422 205.086 290.422C205.393 290.422 205.698 290.383 206 290.305C206.307 290.227 206.586 290.125 206.836 290C207.034 289.901 207.237 289.784 207.445 289.648C207.659 289.508 207.807 289.404 207.891 289.336H207.977V290.953ZM217.539 282.773L212.445 294.719H210.875L212.5 291.078L209.023 282.773H210.617L213.297 289.242L216 282.773H217.539ZM226.5 291.5H225.031V284.008H221.773C221.758 284.44 221.742 284.857 221.727 285.258C221.711 285.659 221.695 286.021 221.68 286.344C221.643 287.214 221.583 287.909 221.5 288.43C221.417 288.945 221.307 289.375 221.172 289.719C221.047 290.042 220.906 290.305 220.75 290.508C220.599 290.706 220.435 290.885 220.258 291.047C220.081 291.203 219.883 291.32 219.664 291.398C219.451 291.477 219.216 291.516 218.961 291.516C218.872 291.516 218.742 291.513 218.57 291.508C218.404 291.503 218.294 291.5 218.242 291.5V290.219H218.32C218.362 290.219 218.422 290.221 218.5 290.227C218.578 290.232 218.643 290.234 218.695 290.234C218.82 290.234 218.948 290.216 219.078 290.18C219.214 290.143 219.328 290.076 219.422 289.977C219.688 289.716 219.901 289.276 220.062 288.656C220.224 288.036 220.331 287.141 220.383 285.969C220.404 285.542 220.422 285.036 220.438 284.453C220.458 283.865 220.477 283.305 220.492 282.773H226.5V291.5ZM234.852 288.82C234.852 288.555 234.805 288.323 234.711 288.125C234.622 287.922 234.474 287.758 234.266 287.633C234.047 287.503 233.797 287.424 233.516 287.398C233.24 287.372 232.841 287.359 232.32 287.359H230.867V290.328H232.289C232.81 290.328 233.214 290.307 233.5 290.266C233.786 290.219 234.034 290.133 234.242 290.008C234.456 289.872 234.609 289.714 234.703 289.531C234.802 289.344 234.852 289.107 234.852 288.82ZM236.367 288.797C236.367 289.219 236.281 289.602 236.109 289.945C235.943 290.289 235.714 290.568 235.422 290.781C235.078 291.042 234.711 291.227 234.32 291.336C233.93 291.445 233.427 291.5 232.812 291.5H229.398V282.773H230.867V286.172H232.852C233.508 286.172 234.016 286.206 234.375 286.273C234.74 286.341 235.102 286.508 235.461 286.773C235.763 286.997 235.99 287.284 236.141 287.633C236.292 287.982 236.367 288.37 236.367 288.797ZM244.953 284.062H241.797V291.5H240.328V284.062H237.172V282.773H244.953V284.062ZM253.258 291.5H251.797V290.57C251.667 290.659 251.49 290.784 251.266 290.945C251.047 291.102 250.833 291.227 250.625 291.32C250.38 291.44 250.099 291.539 249.781 291.617C249.464 291.701 249.091 291.742 248.664 291.742C247.878 291.742 247.211 291.482 246.664 290.961C246.117 290.44 245.844 289.776 245.844 288.969C245.844 288.307 245.984 287.773 246.266 287.367C246.552 286.956 246.958 286.633 247.484 286.398C248.016 286.164 248.654 286.005 249.398 285.922C250.143 285.839 250.943 285.776 251.797 285.734V285.508C251.797 285.174 251.737 284.898 251.617 284.68C251.503 284.461 251.336 284.289 251.117 284.164C250.909 284.044 250.659 283.964 250.367 283.922C250.076 283.88 249.771 283.859 249.453 283.859C249.068 283.859 248.638 283.911 248.164 284.016C247.69 284.115 247.201 284.26 246.695 284.453H246.617V282.961C246.904 282.883 247.318 282.797 247.859 282.703C248.401 282.609 248.935 282.562 249.461 282.562C250.076 282.562 250.609 282.615 251.062 282.719C251.521 282.818 251.917 282.99 252.25 283.234C252.578 283.474 252.828 283.784 253 284.164C253.172 284.544 253.258 285.016 253.258 285.578V291.5ZM251.797 289.352V286.922C251.349 286.948 250.82 286.987 250.211 287.039C249.607 287.091 249.128 287.167 248.773 287.266C248.352 287.385 248.01 287.573 247.75 287.828C247.49 288.078 247.359 288.424 247.359 288.867C247.359 289.367 247.51 289.745 247.812 290C248.115 290.25 248.576 290.375 249.195 290.375C249.711 290.375 250.182 290.276 250.609 290.078C251.036 289.875 251.432 289.633 251.797 289.352ZM263.008 291.5H256.086V282.773H257.555V290.234H261.852V282.773H263.32V290.234H264.375V293.594H263.008V291.5ZM273.75 291.5H272.297V284.945L267.727 291.5H266.398V282.773H267.852V289.234L272.375 282.773H273.75V291.5ZM283.352 291.5H281.883V288.039H280.156L277.453 291.5H275.727L278.664 287.898C277.909 287.69 277.357 287.372 277.008 286.945C276.659 286.513 276.484 285.948 276.484 285.25C276.484 284.786 276.589 284.393 276.797 284.07C277.005 283.747 277.268 283.484 277.586 283.281C277.898 283.083 278.258 282.951 278.664 282.883C279.07 282.81 279.513 282.773 279.992 282.773H283.352V291.5ZM281.883 286.883V283.945H280.031C279.63 283.945 279.341 283.958 279.164 283.984C278.987 284.01 278.794 284.081 278.586 284.195C278.383 284.31 278.232 284.466 278.133 284.664C278.039 284.857 277.992 285.068 277.992 285.297C277.992 285.583 278.021 285.815 278.078 285.992C278.141 286.169 278.266 286.336 278.453 286.492C278.646 286.643 278.88 286.747 279.156 286.805C279.432 286.857 279.74 286.883 280.078 286.883H281.883Z" fill="#333333"/>
<path d="M30 331L37.5 338.5L50 323.5" stroke="#61B857" stroke-width="2" stroke-linecap="round" stroke-linejoin="round"/>
<path d="M73.9141 332H71.9297L67.2031 326.695H66.1484V332H64.6016V320.367H66.1484V325.586C66.4141 325.581 66.6641 325.555 66.8984 325.508C67.1328 325.461 67.3542 325.372 67.5625 325.242C67.7708 325.122 67.9766 324.953 68.1797 324.734C68.3828 324.51 68.5625 324.237 68.7188 323.914C68.7865 323.773 68.8646 323.596 68.9531 323.383C69.0469 323.169 69.1406 322.945 69.2344 322.711C69.5938 321.846 70.013 321.24 70.4922 320.891C70.9766 320.542 71.6875 320.367 72.625 320.367H73.2422V321.75H72.5938C72.2344 321.75 71.9531 321.784 71.75 321.852C71.5469 321.914 71.3646 322.021 71.2031 322.172C71.0521 322.307 70.9193 322.49 70.8047 322.719C70.6953 322.948 70.5807 323.216 70.4609 323.523C70.1901 324.211 69.9141 324.716 69.6328 325.039C69.3568 325.362 68.9844 325.643 68.5156 325.883L73.9141 332ZM83.0859 323.273L77.9922 335.219H76.4219L78.0469 331.578L74.5703 323.273H76.1641L78.8438 329.742L81.5469 323.273H83.0859ZM92.6875 327.531C92.6875 328.24 92.5859 328.888 92.3828 329.477C92.1797 330.06 91.8932 330.555 91.5234 330.961C91.1797 331.346 90.7734 331.646 90.3047 331.859C89.8411 332.068 89.349 332.172 88.8281 332.172C88.375 332.172 87.9635 332.122 87.5938 332.023C87.2292 331.924 86.8568 331.771 86.4766 331.562V335.219H85.0078V323.273H86.4766V324.188C86.8672 323.859 87.3047 323.586 87.7891 323.367C88.2786 323.143 88.7995 323.031 89.3516 323.031C90.4036 323.031 91.2214 323.43 91.8047 324.227C92.3932 325.018 92.6875 326.12 92.6875 327.531ZM91.1719 327.57C91.1719 326.518 90.9922 325.732 90.6328 325.211C90.2734 324.69 89.7214 324.43 88.9766 324.43C88.5547 324.43 88.1302 324.521 87.7031 324.703C87.276 324.885 86.8672 325.125 86.4766 325.422V330.367C86.8932 330.555 87.25 330.682 87.5469 330.75C87.849 330.818 88.1901 330.852 88.5703 330.852C89.388 330.852 90.026 330.576 90.4844 330.023C90.9427 329.471 91.1719 328.654 91.1719 327.57ZM101.508 331.453C100.909 331.734 100.393 331.927 99.9609 332.031C99.5339 332.141 99.1068 332.195 98.6797 332.195C98.0443 332.195 97.4609 332.104 96.9297 331.922C96.3984 331.734 95.9427 331.453 95.5625 331.078C95.1823 330.703 94.8854 330.229 94.6719 329.656C94.4635 329.083 94.3594 328.414 94.3594 327.648C94.3594 326.258 94.7448 325.148 95.5156 324.32C96.2865 323.487 97.3411 323.07 98.6797 323.07C99.1849 323.07 99.6797 323.141 100.164 323.281C100.654 323.422 101.102 323.594 101.508 323.797V325.43H101.422C100.938 325.06 100.458 324.786 99.9844 324.609C99.5156 324.432 99.0599 324.344 98.6172 324.344C97.7474 324.344 97.0729 324.635 96.5938 325.219C96.1198 325.802 95.8828 326.612 95.8828 327.648C95.8828 328.685 96.1198 329.49 96.5938 330.062C97.0677 330.635 97.7422 330.922 98.6172 330.922C98.9245 330.922 99.2292 330.883 99.5312 330.805C99.8385 330.727 100.117 330.625 100.367 330.5C100.565 330.401 100.768 330.284 100.977 330.148C101.19 330.008 101.339 329.904 101.422 329.836H101.508V331.453ZM108.898 329.32C108.898 329.055 108.852 328.823 108.758 328.625C108.669 328.422 108.521 328.258 108.312 328.133C108.094 328.003 107.844 327.924 107.562 327.898C107.286 327.872 106.888 327.859 106.367 327.859H104.992V330.828H106.336C106.857 330.828 107.26 330.807 107.547 330.766C107.833 330.719 108.081 330.633 108.289 330.508C108.503 330.372 108.656 330.214 108.75 330.031C108.849 329.844 108.898 329.607 108.898 329.32ZM110.414 329.297C110.414 329.719 110.328 330.102 110.156 330.445C109.99 330.789 109.76 331.068 109.469 331.281C109.125 331.542 108.758 331.727 108.367 331.836C107.977 331.945 107.474 332 106.859 332H103.523V323.273H104.992V326.672H106.898C107.555 326.672 108.062 326.706 108.422 326.773C108.786 326.841 109.148 327.008 109.508 327.273C109.81 327.497 110.036 327.784 110.188 328.133C110.339 328.482 110.414 328.87 110.414 329.297ZM111.875 323.273H113.344V332H111.875V323.273ZM132.703 326.102C132.703 326.831 132.586 327.479 132.352 328.047C132.122 328.609 131.802 329.081 131.391 329.461C130.948 329.872 130.409 330.201 129.773 330.445C129.138 330.685 128.461 330.812 127.742 330.828V332.125H126.203V330.828C125.505 330.812 124.836 330.688 124.195 330.453C123.555 330.219 123.008 329.888 122.555 329.461C122.143 329.076 121.82 328.602 121.586 328.039C121.357 327.477 121.242 326.831 121.242 326.102C121.242 325.393 121.354 324.773 121.578 324.242C121.802 323.711 122.112 323.247 122.508 322.852C122.93 322.43 123.456 322.096 124.086 321.852C124.721 321.607 125.427 321.474 126.203 321.453V320.242H127.742V321.453C128.513 321.469 129.219 321.604 129.859 321.859C130.5 322.115 131.026 322.445 131.438 322.852C131.828 323.232 132.135 323.693 132.359 324.234C132.589 324.776 132.703 325.398 132.703 326.102ZM131.094 326.039C131.094 325.523 131.01 325.049 130.844 324.617C130.677 324.185 130.44 323.82 130.133 323.523C129.831 323.232 129.495 323.018 129.125 322.883C128.755 322.747 128.294 322.674 127.742 322.664V329.617C128.232 329.607 128.677 329.529 129.078 329.383C129.479 329.232 129.81 329.034 130.07 328.789C130.409 328.477 130.664 328.094 130.836 327.641C131.008 327.188 131.094 326.654 131.094 326.039ZM126.203 329.617V322.664C125.651 322.669 125.19 322.742 124.82 322.883C124.451 323.023 124.115 323.237 123.812 323.523C123.51 323.81 123.273 324.174 123.102 324.617C122.935 325.06 122.852 325.534 122.852 326.039C122.852 326.622 122.938 327.151 123.109 327.625C123.286 328.099 123.542 328.487 123.875 328.789C124.13 329.023 124.458 329.219 124.859 329.375C125.266 329.531 125.714 329.612 126.203 329.617ZM142.328 332H140.875V325.445L136.305 332H134.977V323.273H136.43V329.734L140.953 323.273H142.328V332ZM152.531 332H151.062V328.07H146.695V332H145.227V323.273H146.695V326.805H151.062V323.273H152.531V332ZM162.211 332H160.75V331.07C160.62 331.159 160.443 331.284 160.219 331.445C160 331.602 159.786 331.727 159.578 331.82C159.333 331.94 159.052 332.039 158.734 332.117C158.417 332.201 158.044 332.242 157.617 332.242C156.831 332.242 156.164 331.982 155.617 331.461C155.07 330.94 154.797 330.276 154.797 329.469C154.797 328.807 154.938 328.273 155.219 327.867C155.505 327.456 155.911 327.133 156.438 326.898C156.969 326.664 157.607 326.505 158.352 326.422C159.096 326.339 159.896 326.276 160.75 326.234V326.008C160.75 325.674 160.69 325.398 160.57 325.18C160.456 324.961 160.289 324.789 160.07 324.664C159.862 324.544 159.612 324.464 159.32 324.422C159.029 324.38 158.724 324.359 158.406 324.359C158.021 324.359 157.591 324.411 157.117 324.516C156.643 324.615 156.154 324.76 155.648 324.953H155.57V323.461C155.857 323.383 156.271 323.297 156.812 323.203C157.354 323.109 157.888 323.062 158.414 323.062C159.029 323.062 159.562 323.115 160.016 323.219C160.474 323.318 160.87 323.49 161.203 323.734C161.531 323.974 161.781 324.284 161.953 324.664C162.125 325.044 162.211 325.516 162.211 326.078V332ZM160.75 329.852V327.422C160.302 327.448 159.773 327.487 159.164 327.539C158.56 327.591 158.081 327.667 157.727 327.766C157.305 327.885 156.964 328.073 156.703 328.328C156.443 328.578 156.312 328.924 156.312 329.367C156.312 329.867 156.464 330.245 156.766 330.5C157.068 330.75 157.529 330.875 158.148 330.875C158.664 330.875 159.135 330.776 159.562 330.578C159.99 330.375 160.385 330.133 160.75 329.852ZM172.344 332H170.875V328.07H166.508V332H165.039V323.273H166.508V326.805H170.875V323.273H172.344V332ZM181.773 331.453C181.174 331.734 180.659 331.927 180.227 332.031C179.799 332.141 179.372 332.195 178.945 332.195C178.31 332.195 177.727 332.104 177.195 331.922C176.664 331.734 176.208 331.453 175.828 331.078C175.448 330.703 175.151 330.229 174.938 329.656C174.729 329.083 174.625 328.414 174.625 327.648C174.625 326.258 175.01 325.148 175.781 324.32C176.552 323.487 177.607 323.07 178.945 323.07C179.451 323.07 179.945 323.141 180.43 323.281C180.919 323.422 181.367 323.594 181.773 323.797V325.43H181.688C181.203 325.06 180.724 324.786 180.25 324.609C179.781 324.432 179.326 324.344 178.883 324.344C178.013 324.344 177.339 324.635 176.859 325.219C176.385 325.802 176.148 326.612 176.148 327.648C176.148 328.685 176.385 329.49 176.859 330.062C177.333 330.635 178.008 330.922 178.883 330.922C179.19 330.922 179.495 330.883 179.797 330.805C180.104 330.727 180.383 330.625 180.633 330.5C180.831 330.401 181.034 330.284 181.242 330.148C181.456 330.008 181.604 329.904 181.688 329.836H181.773V331.453ZM191.227 327.641C191.227 329.062 190.862 330.185 190.133 331.008C189.404 331.831 188.427 332.242 187.203 332.242C185.969 332.242 184.987 331.831 184.258 331.008C183.534 330.185 183.172 329.062 183.172 327.641C183.172 326.219 183.534 325.096 184.258 324.273C184.987 323.445 185.969 323.031 187.203 323.031C188.427 323.031 189.404 323.445 190.133 324.273C190.862 325.096 191.227 326.219 191.227 327.641ZM189.711 327.641C189.711 326.51 189.49 325.672 189.047 325.125C188.604 324.573 187.99 324.297 187.203 324.297C186.406 324.297 185.786 324.573 185.344 325.125C184.906 325.672 184.688 326.51 184.688 327.641C184.688 328.734 184.909 329.565 185.352 330.133C185.794 330.695 186.411 330.977 187.203 330.977C187.984 330.977 188.596 330.698 189.039 330.141C189.487 329.578 189.711 328.745 189.711 327.641ZM200.711 329.359C200.711 329.781 200.625 330.156 200.453 330.484C200.286 330.812 200.055 331.086 199.758 331.305C199.424 331.549 199.06 331.727 198.664 331.836C198.273 331.945 197.758 332 197.117 332H193.508V323.273H196.883C197.534 323.273 198.023 323.297 198.352 323.344C198.685 323.385 198.997 323.482 199.289 323.633C199.617 323.805 199.857 324.029 200.008 324.305C200.164 324.581 200.242 324.906 200.242 325.281C200.242 325.714 200.12 326.089 199.875 326.406C199.63 326.724 199.315 326.971 198.93 327.148V327.227C199.445 327.352 199.87 327.594 200.203 327.953C200.542 328.307 200.711 328.776 200.711 329.359ZM198.734 325.508C198.734 325.32 198.693 325.151 198.609 325C198.531 324.849 198.409 324.732 198.242 324.648C198.023 324.539 197.776 324.479 197.5 324.469C197.229 324.453 196.893 324.445 196.492 324.445H194.961V326.836H196.797C197.182 326.836 197.466 326.823 197.648 326.797C197.836 326.766 198.023 326.693 198.211 326.578C198.409 326.453 198.544 326.307 198.617 326.141C198.695 325.969 198.734 325.758 198.734 325.508ZM199.195 329.367C199.195 329.081 199.148 328.849 199.055 328.672C198.961 328.49 198.755 328.323 198.438 328.172C198.24 328.078 198.026 328.023 197.797 328.008C197.568 327.987 197.25 327.977 196.844 327.977H194.961V330.828H196.352C196.935 330.828 197.383 330.81 197.695 330.773C198.013 330.732 198.286 330.646 198.516 330.516C198.745 330.385 198.914 330.227 199.023 330.039C199.138 329.852 199.195 329.628 199.195 329.367ZM210.461 327.641C210.461 329.062 210.096 330.185 209.367 331.008C208.638 331.831 207.661 332.242 206.438 332.242C205.203 332.242 204.221 331.831 203.492 331.008C202.768 330.185 202.406 329.062 202.406 327.641C202.406 326.219 202.768 325.096 203.492 324.273C204.221 323.445 205.203 323.031 206.438 323.031C207.661 323.031 208.638 323.445 209.367 324.273C210.096 325.096 210.461 326.219 210.461 327.641ZM208.945 327.641C208.945 326.51 208.724 325.672 208.281 325.125C207.839 324.573 207.224 324.297 206.438 324.297C205.641 324.297 205.021 324.573 204.578 325.125C204.141 325.672 203.922 326.51 203.922 327.641C203.922 328.734 204.143 329.565 204.586 330.133C205.029 330.695 205.646 330.977 206.438 330.977C207.219 330.977 207.831 330.698 208.273 330.141C208.721 329.578 208.945 328.745 208.945 327.641ZM220.094 332H218.641V325.445L214.07 332H212.742V323.273H214.195V329.734L218.719 323.273H220.094V332ZM219.258 319.836C219.232 320.607 218.987 321.208 218.523 321.641C218.065 322.073 217.396 322.289 216.516 322.289C215.635 322.289 214.964 322.073 214.5 321.641C214.042 321.208 213.799 320.607 213.773 319.836H215.109C215.115 320.383 215.234 320.779 215.469 321.023C215.708 321.268 216.057 321.391 216.516 321.391C216.979 321.391 217.328 321.271 217.562 321.031C217.797 320.792 217.917 320.393 217.922 319.836H219.258ZM72.0781 340.742H66.1094V351H64.5625V339.367H72.0781V340.742ZM81.1875 346.531C81.1875 347.24 81.0859 347.888 80.8828 348.477C80.6797 349.06 80.3932 349.555 80.0234 349.961C79.6797 350.346 79.2734 350.646 78.8047 350.859C78.3411 351.068 77.849 351.172 77.3281 351.172C76.875 351.172 76.4635 351.122 76.0938 351.023C75.7292 350.924 75.3568 350.771 74.9766 350.562V354.219H73.5078V342.273H74.9766V343.188C75.3672 342.859 75.8047 342.586 76.2891 342.367C76.7786 342.143 77.2995 342.031 77.8516 342.031C78.9036 342.031 79.7214 342.43 80.3047 343.227C80.8932 344.018 81.1875 345.12 81.1875 346.531ZM79.6719 346.57C79.6719 345.518 79.4922 344.732 79.1328 344.211C78.7734 343.69 78.2214 343.43 77.4766 343.43C77.0547 343.43 76.6302 343.521 76.2031 343.703C75.776 343.885 75.3672 344.125 74.9766 344.422V349.367C75.3932 349.555 75.75 349.682 76.0469 349.75C76.349 349.818 76.6901 349.852 77.0703 349.852C77.888 349.852 78.526 349.576 78.9844 349.023C79.4427 348.471 79.6719 347.654 79.6719 346.57ZM90.2578 351H88.7969V350.07C88.6667 350.159 88.4896 350.284 88.2656 350.445C88.0469 350.602 87.8333 350.727 87.625 350.82C87.3802 350.94 87.099 351.039 86.7812 351.117C86.4635 351.201 86.0911 351.242 85.6641 351.242C84.8776 351.242 84.2109 350.982 83.6641 350.461C83.1172 349.94 82.8438 349.276 82.8438 348.469C82.8438 347.807 82.9844 347.273 83.2656 346.867C83.5521 346.456 83.9583 346.133 84.4844 345.898C85.0156 345.664 85.6536 345.505 86.3984 345.422C87.1432 345.339 87.9427 345.276 88.7969 345.234V345.008C88.7969 344.674 88.737 344.398 88.6172 344.18C88.5026 343.961 88.3359 343.789 88.1172 343.664C87.9089 343.544 87.6589 343.464 87.3672 343.422C87.0755 343.38 86.7708 343.359 86.4531 343.359C86.0677 343.359 85.638 343.411 85.1641 343.516C84.6901 343.615 84.2005 343.76 83.6953 343.953H83.6172V342.461C83.9036 342.383 84.3177 342.297 84.8594 342.203C85.401 342.109 85.9349 342.062 86.4609 342.062C87.0755 342.062 87.6094 342.115 88.0625 342.219C88.5208 342.318 88.9167 342.49 89.25 342.734C89.5781 342.974 89.8281 343.284 90 343.664C90.1719 344.044 90.2578 344.516 90.2578 345.078V351ZM88.7969 348.852V346.422C88.349 346.448 87.8203 346.487 87.2109 346.539C86.6068 346.591 86.1276 346.667 85.7734 346.766C85.3516 346.885 85.0104 347.073 84.75 347.328C84.4896 347.578 84.3594 347.924 84.3594 348.367C84.3594 348.867 84.5104 349.245 84.8125 349.5C85.1146 349.75 85.5755 349.875 86.1953 349.875C86.7109 349.875 87.1823 349.776 87.6094 349.578C88.0365 349.375 88.4323 349.133 88.7969 348.852ZM101.336 351H99.8828V344.109L97.7109 348.594H96.6172L94.4609 344.109V351H93.0859V342.273H94.8594L97.2344 347.156L99.5312 342.273H101.336V351ZM111.664 346.641C111.664 348.062 111.299 349.185 110.57 350.008C109.841 350.831 108.865 351.242 107.641 351.242C106.406 351.242 105.424 350.831 104.695 350.008C103.971 349.185 103.609 348.062 103.609 346.641C103.609 345.219 103.971 344.096 104.695 343.273C105.424 342.445 106.406 342.031 107.641 342.031C108.865 342.031 109.841 342.445 110.57 343.273C111.299 344.096 111.664 345.219 111.664 346.641ZM110.148 346.641C110.148 345.51 109.927 344.672 109.484 344.125C109.042 343.573 108.427 343.297 107.641 343.297C106.844 343.297 106.224 343.573 105.781 344.125C105.344 344.672 105.125 345.51 105.125 346.641C105.125 347.734 105.346 348.565 105.789 349.133C106.232 349.695 106.849 349.977 107.641 349.977C108.422 349.977 109.034 349.698 109.477 349.141C109.924 348.578 110.148 347.745 110.148 346.641ZM120.359 343.562H117.203V351H115.734V343.562H112.578V342.273H120.359V343.562ZM129.188 351H127.719V347.07H123.352V351H121.883V342.273H123.352V345.805H127.719V342.273H129.188V351ZM139.523 346.641C139.523 348.062 139.159 349.185 138.43 350.008C137.701 350.831 136.724 351.242 135.5 351.242C134.266 351.242 133.284 350.831 132.555 350.008C131.831 349.185 131.469 348.062 131.469 346.641C131.469 345.219 131.831 344.096 132.555 343.273C133.284 342.445 134.266 342.031 135.5 342.031C136.724 342.031 137.701 342.445 138.43 343.273C139.159 344.096 139.523 345.219 139.523 346.641ZM138.008 346.641C138.008 345.51 137.786 344.672 137.344 344.125C136.901 343.573 136.286 343.297 135.5 343.297C134.703 343.297 134.083 343.573 133.641 344.125C133.203 344.672 132.984 345.51 132.984 346.641C132.984 347.734 133.206 348.565 133.648 349.133C134.091 349.695 134.708 349.977 135.5 349.977C136.281 349.977 136.893 349.698 137.336 349.141C137.784 348.578 138.008 347.745 138.008 346.641ZM148.336 350.453C147.737 350.734 147.221 350.927 146.789 351.031C146.362 351.141 145.935 351.195 145.508 351.195C144.872 351.195 144.289 351.104 143.758 350.922C143.227 350.734 142.771 350.453 142.391 350.078C142.01 349.703 141.714 349.229 141.5 348.656C141.292 348.083 141.188 347.414 141.188 346.648C141.188 345.258 141.573 344.148 142.344 343.32C143.115 342.487 144.169 342.07 145.508 342.07C146.013 342.07 146.508 342.141 146.992 342.281C147.482 342.422 147.93 342.594 148.336 342.797V344.43H148.25C147.766 344.06 147.286 343.786 146.812 343.609C146.344 343.432 145.888 343.344 145.445 343.344C144.576 343.344 143.901 343.635 143.422 344.219C142.948 344.802 142.711 345.612 142.711 346.648C142.711 347.685 142.948 348.49 143.422 349.062C143.896 349.635 144.57 349.922 145.445 349.922C145.753 349.922 146.057 349.883 146.359 349.805C146.667 349.727 146.945 349.625 147.195 349.5C147.393 349.401 147.596 349.284 147.805 349.148C148.018 349.008 148.167 348.904 148.25 348.836H148.336V350.453ZM156.766 343.562H153.609V351H152.141V343.562H148.984V342.273H156.766V343.562ZM165.641 351H164.188V344.445L159.617 351H158.289V342.273H159.742V348.734L164.266 342.273H165.641V351Z" fill="#333333"/>
<path d="M30 385L37.5 392.5L50 377.5" stroke="#61B857" stroke-width="2" stroke-linecap="round" stroke-linejoin="round"/>
<path d="M75.2812 380.102C75.2812 380.831 75.1641 381.479 74.9297 382.047C74.7005 382.609 74.3802 383.081 73.9688 383.461C73.526 383.872 72.987 384.201 72.3516 384.445C71.7161 384.685 71.0391 384.812 70.3203 384.828V386.125H68.7812V384.828C68.0833 384.812 67.4141 384.688 66.7734 384.453C66.1328 384.219 65.5859 383.888 65.1328 383.461C64.7214 383.076 64.3984 382.602 64.1641 382.039C63.9349 381.477 63.8203 380.831 63.8203 380.102C63.8203 379.393 63.9323 378.773 64.1562 378.242C64.3802 377.711 64.6901 377.247 65.0859 376.852C65.5078 376.43 66.0339 376.096 66.6641 375.852C67.2995 375.607 68.0052 375.474 68.7812 375.453V374.242H70.3203V375.453C71.0911 375.469 71.7969 375.604 72.4375 375.859C73.0781 376.115 73.6042 376.445 74.0156 376.852C74.4062 377.232 74.7135 377.693 74.9375 378.234C75.1667 378.776 75.2812 379.398 75.2812 380.102ZM73.6719 380.039C73.6719 379.523 73.5885 379.049 73.4219 378.617C73.2552 378.185 73.0182 377.82 72.7109 377.523C72.4089 377.232 72.0729 377.018 71.7031 376.883C71.3333 376.747 70.8724 376.674 70.3203 376.664V383.617C70.8099 383.607 71.2552 383.529 71.6562 383.383C72.0573 383.232 72.388 383.034 72.6484 382.789C72.987 382.477 73.2422 382.094 73.4141 381.641C73.5859 381.188 73.6719 380.654 73.6719 380.039ZM68.7812 383.617V376.664C68.2292 376.669 67.7682 376.742 67.3984 376.883C67.0286 377.023 66.6927 377.237 66.3906 377.523C66.0885 377.81 65.8516 378.174 65.6797 378.617C65.513 379.06 65.4297 379.534 65.4297 380.039C65.4297 380.622 65.5156 381.151 65.6875 381.625C65.8646 382.099 66.1198 382.487 66.4531 382.789C66.7083 383.023 67.0365 383.219 67.4375 383.375C67.8438 383.531 68.2917 383.612 68.7812 383.617ZM84.9062 386H83.4531V379.445L78.8828 386H77.5547V377.273H79.0078V383.734L83.5312 377.273H84.9062V386ZM95.1094 386H93.6406V382.07H89.2734V386H87.8047V377.273H89.2734V380.805H93.6406V377.273H95.1094V386ZM104.789 386H103.328V385.07C103.198 385.159 103.021 385.284 102.797 385.445C102.578 385.602 102.365 385.727 102.156 385.82C101.911 385.94 101.63 386.039 101.312 386.117C100.995 386.201 100.622 386.242 100.195 386.242C99.4089 386.242 98.7422 385.982 98.1953 385.461C97.6484 384.94 97.375 384.276 97.375 383.469C97.375 382.807 97.5156 382.273 97.7969 381.867C98.0833 381.456 98.4896 381.133 99.0156 380.898C99.5469 380.664 100.185 380.505 100.93 380.422C101.674 380.339 102.474 380.276 103.328 380.234V380.008C103.328 379.674 103.268 379.398 103.148 379.18C103.034 378.961 102.867 378.789 102.648 378.664C102.44 378.544 102.19 378.464 101.898 378.422C101.607 378.38 101.302 378.359 100.984 378.359C100.599 378.359 100.169 378.411 99.6953 378.516C99.2214 378.615 98.7318 378.76 98.2266 378.953H98.1484V377.461C98.4349 377.383 98.849 377.297 99.3906 377.203C99.9323 377.109 100.466 377.062 100.992 377.062C101.607 377.062 102.141 377.115 102.594 377.219C103.052 377.318 103.448 377.49 103.781 377.734C104.109 377.974 104.359 378.284 104.531 378.664C104.703 379.044 104.789 379.516 104.789 380.078V386ZM103.328 383.852V381.422C102.88 381.448 102.352 381.487 101.742 381.539C101.138 381.591 100.659 381.667 100.305 381.766C99.8828 381.885 99.5417 382.073 99.2812 382.328C99.0208 382.578 98.8906 382.924 98.8906 383.367C98.8906 383.867 99.0417 384.245 99.3438 384.5C99.6458 384.75 100.107 384.875 100.727 384.875C101.242 384.875 101.714 384.776 102.141 384.578C102.568 384.375 102.964 384.133 103.328 383.852ZM114.922 386H113.453V382.07H109.086V386H107.617V377.273H109.086V380.805H113.453V377.273H114.922V386ZM124.352 385.453C123.753 385.734 123.237 385.927 122.805 386.031C122.378 386.141 121.951 386.195 121.523 386.195C120.888 386.195 120.305 386.104 119.773 385.922C119.242 385.734 118.786 385.453 118.406 385.078C118.026 384.703 117.729 384.229 117.516 383.656C117.307 383.083 117.203 382.414 117.203 381.648C117.203 380.258 117.589 379.148 118.359 378.32C119.13 377.487 120.185 377.07 121.523 377.07C122.029 377.07 122.523 377.141 123.008 377.281C123.497 377.422 123.945 377.594 124.352 377.797V379.43H124.266C123.781 379.06 123.302 378.786 122.828 378.609C122.359 378.432 121.904 378.344 121.461 378.344C120.591 378.344 119.917 378.635 119.438 379.219C118.964 379.802 118.727 380.612 118.727 381.648C118.727 382.685 118.964 383.49 119.438 384.062C119.911 384.635 120.586 384.922 121.461 384.922C121.768 384.922 122.073 384.883 122.375 384.805C122.682 384.727 122.961 384.625 123.211 384.5C123.409 384.401 123.612 384.284 123.82 384.148C124.034 384.008 124.182 383.904 124.266 383.836H124.352V385.453ZM133.805 381.641C133.805 383.062 133.44 384.185 132.711 385.008C131.982 385.831 131.005 386.242 129.781 386.242C128.547 386.242 127.565 385.831 126.836 385.008C126.112 384.185 125.75 383.062 125.75 381.641C125.75 380.219 126.112 379.096 126.836 378.273C127.565 377.445 128.547 377.031 129.781 377.031C131.005 377.031 131.982 377.445 132.711 378.273C133.44 379.096 133.805 380.219 133.805 381.641ZM132.289 381.641C132.289 380.51 132.068 379.672 131.625 379.125C131.182 378.573 130.568 378.297 129.781 378.297C128.984 378.297 128.365 378.573 127.922 379.125C127.484 379.672 127.266 380.51 127.266 381.641C127.266 382.734 127.487 383.565 127.93 384.133C128.372 384.695 128.99 384.977 129.781 384.977C130.562 384.977 131.174 384.698 131.617 384.141C132.065 383.578 132.289 382.745 132.289 381.641ZM143.289 383.359C143.289 383.781 143.203 384.156 143.031 384.484C142.865 384.812 142.633 385.086 142.336 385.305C142.003 385.549 141.638 385.727 141.242 385.836C140.852 385.945 140.336 386 139.695 386H136.086V377.273H139.461C140.112 377.273 140.602 377.297 140.93 377.344C141.263 377.385 141.576 377.482 141.867 377.633C142.195 377.805 142.435 378.029 142.586 378.305C142.742 378.581 142.82 378.906 142.82 379.281C142.82 379.714 142.698 380.089 142.453 380.406C142.208 380.724 141.893 380.971 141.508 381.148V381.227C142.023 381.352 142.448 381.594 142.781 381.953C143.12 382.307 143.289 382.776 143.289 383.359ZM141.312 379.508C141.312 379.32 141.271 379.151 141.188 379C141.109 378.849 140.987 378.732 140.82 378.648C140.602 378.539 140.354 378.479 140.078 378.469C139.807 378.453 139.471 378.445 139.07 378.445H137.539V380.836H139.375C139.76 380.836 140.044 380.823 140.227 380.797C140.414 380.766 140.602 380.693 140.789 380.578C140.987 380.453 141.122 380.307 141.195 380.141C141.273 379.969 141.312 379.758 141.312 379.508ZM141.773 383.367C141.773 383.081 141.727 382.849 141.633 382.672C141.539 382.49 141.333 382.323 141.016 382.172C140.818 382.078 140.604 382.023 140.375 382.008C140.146 381.987 139.828 381.977 139.422 381.977H137.539V384.828H138.93C139.513 384.828 139.961 384.81 140.273 384.773C140.591 384.732 140.865 384.646 141.094 384.516C141.323 384.385 141.492 384.227 141.602 384.039C141.716 383.852 141.773 383.628 141.773 383.367ZM150.977 383.32C150.977 383.055 150.93 382.823 150.836 382.625C150.747 382.422 150.599 382.258 150.391 382.133C150.172 382.003 149.922 381.924 149.641 381.898C149.365 381.872 148.966 381.859 148.445 381.859H147.07V384.828H148.414C148.935 384.828 149.339 384.807 149.625 384.766C149.911 384.719 150.159 384.633 150.367 384.508C150.581 384.372 150.734 384.214 150.828 384.031C150.927 383.844 150.977 383.607 150.977 383.32ZM152.492 383.297C152.492 383.719 152.406 384.102 152.234 384.445C152.068 384.789 151.839 385.068 151.547 385.281C151.203 385.542 150.836 385.727 150.445 385.836C150.055 385.945 149.552 386 148.938 386H145.602V377.273H147.07V380.672H148.977C149.633 380.672 150.141 380.706 150.5 380.773C150.865 380.841 151.227 381.008 151.586 381.273C151.888 381.497 152.115 381.784 152.266 382.133C152.417 382.482 152.492 382.87 152.492 383.297ZM153.953 377.273H155.422V386H153.953V377.273ZM165.672 386H164.219V379.445L159.648 386H158.32V377.273H159.773V383.734L164.297 377.273H165.672V386ZM164.836 373.836C164.81 374.607 164.565 375.208 164.102 375.641C163.643 376.073 162.974 376.289 162.094 376.289C161.214 376.289 160.542 376.073 160.078 375.641C159.62 375.208 159.378 374.607 159.352 373.836H160.688C160.693 374.383 160.812 374.779 161.047 375.023C161.286 375.268 161.635 375.391 162.094 375.391C162.557 375.391 162.906 375.271 163.141 375.031C163.375 374.792 163.495 374.393 163.5 373.836H164.836ZM182.445 386H180.992V379.109L178.82 383.594H177.727L175.57 379.109V386H174.195V377.273H175.969L178.344 382.156L180.641 377.273H182.445V386ZM192.641 381.789H186.211C186.211 382.326 186.292 382.794 186.453 383.195C186.615 383.591 186.836 383.917 187.117 384.172C187.388 384.422 187.708 384.609 188.078 384.734C188.453 384.859 188.865 384.922 189.312 384.922C189.906 384.922 190.503 384.805 191.102 384.57C191.706 384.331 192.135 384.096 192.391 383.867H192.469V385.469C191.974 385.677 191.469 385.852 190.953 385.992C190.438 386.133 189.896 386.203 189.328 386.203C187.88 386.203 186.75 385.812 185.938 385.031C185.125 384.245 184.719 383.13 184.719 381.688C184.719 380.26 185.107 379.128 185.883 378.289C186.664 377.451 187.69 377.031 188.961 377.031C190.138 377.031 191.044 377.375 191.68 378.062C192.32 378.75 192.641 379.727 192.641 380.992V381.789ZM191.211 380.664C191.206 379.893 191.01 379.297 190.625 378.875C190.245 378.453 189.664 378.242 188.883 378.242C188.096 378.242 187.469 378.474 187 378.938C186.536 379.401 186.273 379.977 186.211 380.664H191.211ZM202.172 386H200.703V382.07H196.336V386H194.867V377.273H196.336V380.805H200.703V377.273H202.172V386ZM212.375 381.789H205.945C205.945 382.326 206.026 382.794 206.188 383.195C206.349 383.591 206.57 383.917 206.852 384.172C207.122 384.422 207.443 384.609 207.812 384.734C208.188 384.859 208.599 384.922 209.047 384.922C209.641 384.922 210.237 384.805 210.836 384.57C211.44 384.331 211.87 384.096 212.125 383.867H212.203V385.469C211.708 385.677 211.203 385.852 210.688 385.992C210.172 386.133 209.63 386.203 209.062 386.203C207.615 386.203 206.484 385.812 205.672 385.031C204.859 384.245 204.453 383.13 204.453 381.688C204.453 380.26 204.841 379.128 205.617 378.289C206.398 377.451 207.424 377.031 208.695 377.031C209.872 377.031 210.779 377.375 211.414 378.062C212.055 378.75 212.375 379.727 212.375 380.992V381.789ZM210.945 380.664C210.94 379.893 210.745 379.297 210.359 378.875C209.979 378.453 209.398 378.242 208.617 378.242C207.831 378.242 207.203 378.474 206.734 378.938C206.271 379.401 206.008 379.977 205.945 380.664H210.945ZM222.523 388.094H221.156V385.977H214.594V388.094H213.227V384.75H214.172C214.781 383.745 215.234 382.586 215.531 381.273C215.833 379.956 215.984 378.622 215.984 377.273H221.469V384.75H222.523V388.094ZM220 384.75V378.508H217.367C217.299 379.815 217.099 381.008 216.766 382.086C216.432 383.164 216.049 384.052 215.617 384.75H220ZM235.5 386H233.727L230.93 382.016H230.219V386H228.766V382.016H228.133L225.211 386H223.516L226.883 381.43C226.628 381.294 226.401 381.102 226.203 380.852C226.01 380.602 225.833 380.224 225.672 379.719C225.531 379.276 225.365 378.969 225.172 378.797C224.979 378.625 224.664 378.539 224.227 378.539H223.812V377.273H224.352C224.997 377.273 225.516 377.404 225.906 377.664C226.297 377.924 226.609 378.38 226.844 379.031C226.891 379.167 226.948 379.323 227.016 379.5C227.089 379.672 227.151 379.818 227.203 379.938C227.375 380.333 227.594 380.615 227.859 380.781C228.13 380.943 228.432 381.034 228.766 381.055V377.273H230.219V381.055C230.552 381.034 230.854 380.94 231.125 380.773C231.401 380.607 231.625 380.328 231.797 379.938C231.854 379.807 231.917 379.656 231.984 379.484C232.057 379.312 232.115 379.161 232.156 379.031C232.385 378.391 232.693 377.938 233.078 377.672C233.464 377.406 233.982 377.273 234.633 377.273H235.172V378.539H234.758C234.315 378.539 233.995 378.63 233.797 378.812C233.604 378.995 233.443 379.297 233.312 379.719C233.167 380.182 232.992 380.544 232.789 380.805C232.591 381.06 232.375 381.253 232.141 381.383L235.5 386ZM245.57 386H244.117V379.109L241.945 383.594H240.852L238.695 379.109V386H237.32V377.273H239.094L241.469 382.156L243.766 377.273H245.57V386ZM255.766 381.789H249.336C249.336 382.326 249.417 382.794 249.578 383.195C249.74 383.591 249.961 383.917 250.242 384.172C250.513 384.422 250.833 384.609 251.203 384.734C251.578 384.859 251.99 384.922 252.438 384.922C253.031 384.922 253.628 384.805 254.227 384.57C254.831 384.331 255.26 384.096 255.516 383.867H255.594V385.469C255.099 385.677 254.594 385.852 254.078 385.992C253.562 386.133 253.021 386.203 252.453 386.203C251.005 386.203 249.875 385.812 249.062 385.031C248.25 384.245 247.844 383.13 247.844 381.688C247.844 380.26 248.232 379.128 249.008 378.289C249.789 377.451 250.815 377.031 252.086 377.031C253.263 377.031 254.169 377.375 254.805 378.062C255.445 378.75 255.766 379.727 255.766 380.992V381.789ZM254.336 380.664C254.331 379.893 254.135 379.297 253.75 378.875C253.37 378.453 252.789 378.242 252.008 378.242C251.221 378.242 250.594 378.474 250.125 378.938C249.661 379.401 249.398 379.977 249.336 380.664H254.336ZM265.297 386H263.828V382.07H259.461V386H257.992V377.273H259.461V380.805H263.828V377.273H265.297V386ZM274.609 378.562H271.453V386H269.984V378.562H266.828V377.273H274.609V378.562ZM74.2344 407.633H72.7656V404.969H64.5469V407.633H63.0781V403.625H64.0156C64.6927 402.51 65.2318 401.057 65.6328 399.266C66.0391 397.469 66.2422 395.503 66.2422 393.367H73.1328V403.625H74.2344V407.633ZM71.5859 403.625V394.711H67.6953C67.6224 396.57 67.3932 398.273 67.0078 399.82C66.6224 401.362 66.1224 402.63 65.5078 403.625H71.5859ZM83.4219 405H81.9531V397.508H78.6953C78.6797 397.94 78.6641 398.357 78.6484 398.758C78.6328 399.159 78.6172 399.521 78.6016 399.844C78.5651 400.714 78.5052 401.409 78.4219 401.93C78.3385 402.445 78.2292 402.875 78.0938 403.219C77.9688 403.542 77.8281 403.805 77.6719 404.008C77.5208 404.206 77.3568 404.385 77.1797 404.547C77.0026 404.703 76.8047 404.82 76.5859 404.898C76.3724 404.977 76.138 405.016 75.8828 405.016C75.7943 405.016 75.6641 405.013 75.4922 405.008C75.3255 405.003 75.2161 405 75.1641 405V403.719H75.2422C75.2839 403.719 75.3438 403.721 75.4219 403.727C75.5 403.732 75.5651 403.734 75.6172 403.734C75.7422 403.734 75.8698 403.716 76 403.68C76.1354 403.643 76.25 403.576 76.3438 403.477C76.6094 403.216 76.8229 402.776 76.9844 402.156C77.1458 401.536 77.2526 400.641 77.3047 399.469C77.3255 399.042 77.3438 398.536 77.3594 397.953C77.3802 397.365 77.3984 396.805 77.4141 396.273H83.4219V405ZM93.0234 405H91.5547V401.539H89.8281L87.125 405H85.3984L88.3359 401.398C87.5807 401.19 87.0286 400.872 86.6797 400.445C86.3307 400.013 86.1562 399.448 86.1562 398.75C86.1562 398.286 86.2604 397.893 86.4688 397.57C86.6771 397.247 86.9401 396.984 87.2578 396.781C87.5703 396.583 87.9297 396.451 88.3359 396.383C88.7422 396.31 89.1849 396.273 89.6641 396.273H93.0234V405ZM91.5547 400.383V397.445H89.7031C89.3021 397.445 89.013 397.458 88.8359 397.484C88.6589 397.51 88.4661 397.581 88.2578 397.695C88.0547 397.81 87.9036 397.966 87.8047 398.164C87.7109 398.357 87.6641 398.568 87.6641 398.797C87.6641 399.083 87.6927 399.315 87.75 399.492C87.8125 399.669 87.9375 399.836 88.125 399.992C88.3177 400.143 88.5521 400.247 88.8281 400.305C89.1042 400.357 89.4115 400.383 89.75 400.383H91.5547ZM110.555 405H109.008V394.742H103.203V405H101.656V393.367H110.555V405ZM121.25 400.531C121.25 401.24 121.148 401.888 120.945 402.477C120.742 403.06 120.456 403.555 120.086 403.961C119.742 404.346 119.336 404.646 118.867 404.859C118.404 405.068 117.911 405.172 117.391 405.172C116.938 405.172 116.526 405.122 116.156 405.023C115.792 404.924 115.419 404.771 115.039 404.562V408.219H113.57V396.273H115.039V397.188C115.43 396.859 115.867 396.586 116.352 396.367C116.841 396.143 117.362 396.031 117.914 396.031C118.966 396.031 119.784 396.43 120.367 397.227C120.956 398.018 121.25 399.12 121.25 400.531ZM119.734 400.57C119.734 399.518 119.555 398.732 119.195 398.211C118.836 397.69 118.284 397.43 117.539 397.43C117.117 397.43 116.693 397.521 116.266 397.703C115.839 397.885 115.43 398.125 115.039 398.422V403.367C115.456 403.555 115.812 403.682 116.109 403.75C116.411 403.818 116.753 403.852 117.133 403.852C117.951 403.852 118.589 403.576 119.047 403.023C119.505 402.471 119.734 401.654 119.734 400.57ZM130.844 400.789H124.414C124.414 401.326 124.495 401.794 124.656 402.195C124.818 402.591 125.039 402.917 125.32 403.172C125.591 403.422 125.911 403.609 126.281 403.734C126.656 403.859 127.068 403.922 127.516 403.922C128.109 403.922 128.706 403.805 129.305 403.57C129.909 403.331 130.339 403.096 130.594 402.867H130.672V404.469C130.177 404.677 129.672 404.852 129.156 404.992C128.641 405.133 128.099 405.203 127.531 405.203C126.083 405.203 124.953 404.812 124.141 404.031C123.328 403.245 122.922 402.13 122.922 400.688C122.922 399.26 123.31 398.128 124.086 397.289C124.867 396.451 125.893 396.031 127.164 396.031C128.341 396.031 129.247 396.375 129.883 397.062C130.523 397.75 130.844 398.727 130.844 399.992V400.789ZM129.414 399.664C129.409 398.893 129.214 398.297 128.828 397.875C128.448 397.453 127.867 397.242 127.086 397.242C126.299 397.242 125.672 397.474 125.203 397.938C124.74 398.401 124.477 398.977 124.414 399.664H129.414ZM140.992 407.094H139.625V404.977H133.062V407.094H131.695V403.75H132.641C133.25 402.745 133.703 401.586 134 400.273C134.302 398.956 134.453 397.622 134.453 396.273H139.938V403.75H140.992V407.094ZM138.469 403.75V397.508H135.836C135.768 398.815 135.568 400.008 135.234 401.086C134.901 402.164 134.518 403.052 134.086 403.75H138.469ZM150.328 405H148.859V397.539H144.492V405H143.023V396.273H150.328V405ZM160.906 400.531C160.906 401.24 160.805 401.888 160.602 402.477C160.398 403.06 160.112 403.555 159.742 403.961C159.398 404.346 158.992 404.646 158.523 404.859C158.06 405.068 157.568 405.172 157.047 405.172C156.594 405.172 156.182 405.122 155.812 405.023C155.448 404.924 155.076 404.771 154.695 404.562V408.219H153.227V396.273H154.695V397.188C155.086 396.859 155.523 396.586 156.008 396.367C156.497 396.143 157.018 396.031 157.57 396.031C158.622 396.031 159.44 396.43 160.023 397.227C160.612 398.018 160.906 399.12 160.906 400.531ZM159.391 400.57C159.391 399.518 159.211 398.732 158.852 398.211C158.492 397.69 157.94 397.43 157.195 397.43C156.773 397.43 156.349 397.521 155.922 397.703C155.495 397.885 155.086 398.125 154.695 398.422V403.367C155.112 403.555 155.469 403.682 155.766 403.75C156.068 403.818 156.409 403.852 156.789 403.852C157.607 403.852 158.245 403.576 158.703 403.023C159.161 402.471 159.391 401.654 159.391 400.57ZM170.547 405H169.094V398.445L164.523 405H163.195V396.273H164.648V402.734L169.172 396.273H170.547V405ZM180.75 405H179.281V401.07H174.914V405H173.445V396.273H174.914V399.805H179.281V396.273H180.75V405ZM191 405H189.547V398.445L184.977 405H183.648V396.273H185.102V402.734L189.625 396.273H191V405ZM202.148 405H200.695V398.109L198.523 402.594H197.43L195.273 398.109V405H193.898V396.273H195.672L198.047 401.156L200.344 396.273H202.148V405ZM211.82 405H210.359V404.07C210.229 404.159 210.052 404.284 209.828 404.445C209.609 404.602 209.396 404.727 209.188 404.82C208.943 404.94 208.661 405.039 208.344 405.117C208.026 405.201 207.654 405.242 207.227 405.242C206.44 405.242 205.773 404.982 205.227 404.461C204.68 403.94 204.406 403.276 204.406 402.469C204.406 401.807 204.547 401.273 204.828 400.867C205.115 400.456 205.521 400.133 206.047 399.898C206.578 399.664 207.216 399.505 207.961 399.422C208.706 399.339 209.505 399.276 210.359 399.234V399.008C210.359 398.674 210.299 398.398 210.18 398.18C210.065 397.961 209.898 397.789 209.68 397.664C209.471 397.544 209.221 397.464 208.93 397.422C208.638 397.38 208.333 397.359 208.016 397.359C207.63 397.359 207.201 397.411 206.727 397.516C206.253 397.615 205.763 397.76 205.258 397.953H205.18V396.461C205.466 396.383 205.88 396.297 206.422 396.203C206.964 396.109 207.497 396.062 208.023 396.062C208.638 396.062 209.172 396.115 209.625 396.219C210.083 396.318 210.479 396.49 210.812 396.734C211.141 396.974 211.391 397.284 211.562 397.664C211.734 398.044 211.82 398.516 211.82 399.078V405ZM210.359 402.852V400.422C209.911 400.448 209.383 400.487 208.773 400.539C208.169 400.591 207.69 400.667 207.336 400.766C206.914 400.885 206.573 401.073 206.312 401.328C206.052 401.578 205.922 401.924 205.922 402.367C205.922 402.867 206.073 403.245 206.375 403.5C206.677 403.75 207.138 403.875 207.758 403.875C208.273 403.875 208.745 403.776 209.172 403.578C209.599 403.375 209.995 403.133 210.359 402.852ZM221.062 397.562H217.906V405H216.438V397.562H213.281V396.273H221.062V397.562ZM229.891 400.789H223.461C223.461 401.326 223.542 401.794 223.703 402.195C223.865 402.591 224.086 402.917 224.367 403.172C224.638 403.422 224.958 403.609 225.328 403.734C225.703 403.859 226.115 403.922 226.562 403.922C227.156 403.922 227.753 403.805 228.352 403.57C228.956 403.331 229.385 403.096 229.641 402.867H229.719V404.469C229.224 404.677 228.719 404.852 228.203 404.992C227.688 405.133 227.146 405.203 226.578 405.203C225.13 405.203 224 404.812 223.188 404.031C222.375 403.245 221.969 402.13 221.969 400.688C221.969 399.26 222.357 398.128 223.133 397.289C223.914 396.451 224.94 396.031 226.211 396.031C227.388 396.031 228.294 396.375 228.93 397.062C229.57 397.75 229.891 398.727 229.891 399.992V400.789ZM228.461 399.664C228.456 398.893 228.26 398.297 227.875 397.875C227.495 397.453 226.914 397.242 226.133 397.242C225.346 397.242 224.719 397.474 224.25 397.938C223.786 398.401 223.523 398.977 223.461 399.664H228.461ZM239.156 405H237.688V397.508H234.43C234.414 397.94 234.398 398.357 234.383 398.758C234.367 399.159 234.352 399.521 234.336 399.844C234.299 400.714 234.24 401.409 234.156 401.93C234.073 402.445 233.964 402.875 233.828 403.219C233.703 403.542 233.562 403.805 233.406 404.008C233.255 404.206 233.091 404.385 232.914 404.547C232.737 404.703 232.539 404.82 232.32 404.898C232.107 404.977 231.872 405.016 231.617 405.016C231.529 405.016 231.398 405.013 231.227 405.008C231.06 405.003 230.951 405 230.898 405V403.719H230.977C231.018 403.719 231.078 403.721 231.156 403.727C231.234 403.732 231.299 403.734 231.352 403.734C231.477 403.734 231.604 403.716 231.734 403.68C231.87 403.643 231.984 403.576 232.078 403.477C232.344 403.216 232.557 402.776 232.719 402.156C232.88 401.536 232.987 400.641 233.039 399.469C233.06 399.042 233.078 398.536 233.094 397.953C233.115 397.365 233.133 396.805 233.148 396.273H239.156V405ZM249.359 400.789H242.93C242.93 401.326 243.01 401.794 243.172 402.195C243.333 402.591 243.555 402.917 243.836 403.172C244.107 403.422 244.427 403.609 244.797 403.734C245.172 403.859 245.583 403.922 246.031 403.922C246.625 403.922 247.221 403.805 247.82 403.57C248.424 403.331 248.854 403.096 249.109 402.867H249.188V404.469C248.693 404.677 248.188 404.852 247.672 404.992C247.156 405.133 246.615 405.203 246.047 405.203C244.599 405.203 243.469 404.812 242.656 404.031C241.844 403.245 241.438 402.13 241.438 400.688C241.438 399.26 241.826 398.128 242.602 397.289C243.383 396.451 244.409 396.031 245.68 396.031C246.857 396.031 247.763 396.375 248.398 397.062C249.039 397.75 249.359 398.727 249.359 399.992V400.789ZM247.93 399.664C247.924 398.893 247.729 398.297 247.344 397.875C246.964 397.453 246.383 397.242 245.602 397.242C244.815 397.242 244.188 397.474 243.719 397.938C243.255 398.401 242.992 398.977 242.93 399.664H247.93ZM258.938 405H257.484V398.445L252.914 405H251.586V396.273H253.039V402.734L257.562 396.273H258.938V405ZM258.102 392.836C258.076 393.607 257.831 394.208 257.367 394.641C256.909 395.073 256.24 395.289 255.359 395.289C254.479 395.289 253.807 395.073 253.344 394.641C252.885 394.208 252.643 393.607 252.617 392.836H253.953C253.958 393.383 254.078 393.779 254.312 394.023C254.552 394.268 254.901 394.391 255.359 394.391C255.823 394.391 256.172 394.271 256.406 394.031C256.641 393.792 256.76 393.393 256.766 392.836H258.102Z" fill="#333333"/>
<path d="M30 439L37.5 446.5L50 431.5" stroke="#61B857" stroke-width="2" stroke-linecap="round" stroke-linejoin="round"/>
<path d="M73.4609 440H71.9141V429.742H66.1094V440H64.5625V428.367H73.4609V440ZM84.1562 435.531C84.1562 436.24 84.0547 436.888 83.8516 437.477C83.6484 438.06 83.362 438.555 82.9922 438.961C82.6484 439.346 82.2422 439.646 81.7734 439.859C81.3099 440.068 80.8177 440.172 80.2969 440.172C79.8438 440.172 79.4323 440.122 79.0625 440.023C78.6979 439.924 78.3255 439.771 77.9453 439.562V443.219H76.4766V431.273H77.9453V432.188C78.3359 431.859 78.7734 431.586 79.2578 431.367C79.7474 431.143 80.2682 431.031 80.8203 431.031C81.8724 431.031 82.6901 431.43 83.2734 432.227C83.862 433.018 84.1562 434.12 84.1562 435.531ZM82.6406 435.57C82.6406 434.518 82.4609 433.732 82.1016 433.211C81.7422 432.69 81.1901 432.43 80.4453 432.43C80.0234 432.43 79.599 432.521 79.1719 432.703C78.7448 432.885 78.3359 433.125 77.9453 433.422V438.367C78.362 438.555 78.7188 438.682 79.0156 438.75C79.3177 438.818 79.6589 438.852 80.0391 438.852C80.8568 438.852 81.4948 438.576 81.9531 438.023C82.4115 437.471 82.6406 436.654 82.6406 435.57ZM93.7969 440H92.3438V433.445L87.7734 440H86.4453V431.273H87.8984V437.734L92.4219 431.273H93.7969V440ZM103.898 437.359C103.898 437.781 103.812 438.156 103.641 438.484C103.474 438.812 103.242 439.086 102.945 439.305C102.612 439.549 102.247 439.727 101.852 439.836C101.461 439.945 100.945 440 100.305 440H96.6953V431.273H100.07C100.721 431.273 101.211 431.297 101.539 431.344C101.872 431.385 102.185 431.482 102.477 431.633C102.805 431.805 103.044 432.029 103.195 432.305C103.352 432.581 103.43 432.906 103.43 433.281C103.43 433.714 103.307 434.089 103.062 434.406C102.818 434.724 102.503 434.971 102.117 435.148V435.227C102.633 435.352 103.057 435.594 103.391 435.953C103.729 436.307 103.898 436.776 103.898 437.359ZM101.922 433.508C101.922 433.32 101.88 433.151 101.797 433C101.719 432.849 101.596 432.732 101.43 432.648C101.211 432.539 100.964 432.479 100.688 432.469C100.417 432.453 100.081 432.445 99.6797 432.445H98.1484V434.836H99.9844C100.37 434.836 100.654 434.823 100.836 434.797C101.023 434.766 101.211 434.693 101.398 434.578C101.596 434.453 101.732 434.307 101.805 434.141C101.883 433.969 101.922 433.758 101.922 433.508ZM102.383 437.367C102.383 437.081 102.336 436.849 102.242 436.672C102.148 436.49 101.943 436.323 101.625 436.172C101.427 436.078 101.214 436.023 100.984 436.008C100.755 435.987 100.438 435.977 100.031 435.977H98.1484V438.828H99.5391C100.122 438.828 100.57 438.81 100.883 438.773C101.201 438.732 101.474 438.646 101.703 438.516C101.932 438.385 102.102 438.227 102.211 438.039C102.326 437.852 102.383 437.628 102.383 437.367ZM113.25 440H111.781V432.508H108.523C108.508 432.94 108.492 433.357 108.477 433.758C108.461 434.159 108.445 434.521 108.43 434.844C108.393 435.714 108.333 436.409 108.25 436.93C108.167 437.445 108.057 437.875 107.922 438.219C107.797 438.542 107.656 438.805 107.5 439.008C107.349 439.206 107.185 439.385 107.008 439.547C106.831 439.703 106.633 439.82 106.414 439.898C106.201 439.977 105.966 440.016 105.711 440.016C105.622 440.016 105.492 440.013 105.32 440.008C105.154 440.003 105.044 440 104.992 440V438.719H105.07C105.112 438.719 105.172 438.721 105.25 438.727C105.328 438.732 105.393 438.734 105.445 438.734C105.57 438.734 105.698 438.716 105.828 438.68C105.964 438.643 106.078 438.576 106.172 438.477C106.438 438.216 106.651 437.776 106.812 437.156C106.974 436.536 107.081 435.641 107.133 434.469C107.154 434.042 107.172 433.536 107.188 432.953C107.208 432.365 107.227 431.805 107.242 431.273H113.25V440ZM123.453 435.789H117.023C117.023 436.326 117.104 436.794 117.266 437.195C117.427 437.591 117.648 437.917 117.93 438.172C118.201 438.422 118.521 438.609 118.891 438.734C119.266 438.859 119.677 438.922 120.125 438.922C120.719 438.922 121.315 438.805 121.914 438.57C122.518 438.331 122.948 438.096 123.203 437.867H123.281V439.469C122.786 439.677 122.281 439.852 121.766 439.992C121.25 440.133 120.708 440.203 120.141 440.203C118.693 440.203 117.562 439.812 116.75 439.031C115.938 438.245 115.531 437.13 115.531 435.688C115.531 434.26 115.919 433.128 116.695 432.289C117.477 431.451 118.503 431.031 119.773 431.031C120.951 431.031 121.857 431.375 122.492 432.062C123.133 432.75 123.453 433.727 123.453 434.992V435.789ZM122.023 434.664C122.018 433.893 121.823 433.297 121.438 432.875C121.057 432.453 120.477 432.242 119.695 432.242C118.909 432.242 118.281 432.474 117.812 432.938C117.349 433.401 117.086 433.977 117.023 434.664H122.023ZM132.477 440H131.008V436.648C130.534 436.794 130.081 436.911 129.648 437C129.216 437.089 128.745 437.133 128.234 437.133C127.297 437.133 126.581 436.904 126.086 436.445C125.591 435.982 125.344 435.315 125.344 434.445V431.273H126.812V433.695C126.812 434.029 126.833 434.328 126.875 434.594C126.917 434.854 127.005 435.081 127.141 435.273C127.276 435.461 127.466 435.604 127.711 435.703C127.956 435.802 128.297 435.852 128.734 435.852C129.094 435.852 129.484 435.818 129.906 435.75C130.328 435.677 130.695 435.594 131.008 435.5V431.273H132.477V440ZM142.672 435.789H136.242C136.242 436.326 136.323 436.794 136.484 437.195C136.646 437.591 136.867 437.917 137.148 438.172C137.419 438.422 137.74 438.609 138.109 438.734C138.484 438.859 138.896 438.922 139.344 438.922C139.938 438.922 140.534 438.805 141.133 438.57C141.737 438.331 142.167 438.096 142.422 437.867H142.5V439.469C142.005 439.677 141.5 439.852 140.984 439.992C140.469 440.133 139.927 440.203 139.359 440.203C137.911 440.203 136.781 439.812 135.969 439.031C135.156 438.245 134.75 437.13 134.75 435.688C134.75 434.26 135.138 433.128 135.914 432.289C136.695 431.451 137.721 431.031 138.992 431.031C140.169 431.031 141.076 431.375 141.711 432.062C142.352 432.75 142.672 433.727 142.672 434.992V435.789ZM141.242 434.664C141.237 433.893 141.042 433.297 140.656 432.875C140.276 432.453 139.695 432.242 138.914 432.242C138.128 432.242 137.5 432.474 137.031 432.938C136.568 433.401 136.305 433.977 136.242 434.664H141.242ZM152.203 440H150.734V436.07H146.367V440H144.898V431.273H146.367V434.805H150.734V431.273H152.203V440ZM162.453 440H161V433.445L156.43 440H155.102V431.273H156.555V437.734L161.078 431.273H162.453V440ZM172.656 435.789H166.227C166.227 436.326 166.307 436.794 166.469 437.195C166.63 437.591 166.852 437.917 167.133 438.172C167.404 438.422 167.724 438.609 168.094 438.734C168.469 438.859 168.88 438.922 169.328 438.922C169.922 438.922 170.518 438.805 171.117 438.57C171.721 438.331 172.151 438.096 172.406 437.867H172.484V439.469C171.99 439.677 171.484 439.852 170.969 439.992C170.453 440.133 169.911 440.203 169.344 440.203C167.896 440.203 166.766 439.812 165.953 439.031C165.141 438.245 164.734 437.13 164.734 435.688C164.734 434.26 165.122 433.128 165.898 432.289C166.68 431.451 167.706 431.031 168.977 431.031C170.154 431.031 171.06 431.375 171.695 432.062C172.336 432.75 172.656 433.727 172.656 434.992V435.789ZM171.227 434.664C171.221 433.893 171.026 433.297 170.641 432.875C170.26 432.453 169.68 432.242 168.898 432.242C168.112 432.242 167.484 432.474 167.016 432.938C166.552 433.401 166.289 433.977 166.227 434.664H171.227ZM191.344 434.102C191.344 434.831 191.227 435.479 190.992 436.047C190.763 436.609 190.443 437.081 190.031 437.461C189.589 437.872 189.049 438.201 188.414 438.445C187.779 438.685 187.102 438.812 186.383 438.828V440.125H184.844V438.828C184.146 438.812 183.477 438.688 182.836 438.453C182.195 438.219 181.648 437.888 181.195 437.461C180.784 437.076 180.461 436.602 180.227 436.039C179.997 435.477 179.883 434.831 179.883 434.102C179.883 433.393 179.995 432.773 180.219 432.242C180.443 431.711 180.753 431.247 181.148 430.852C181.57 430.43 182.096 430.096 182.727 429.852C183.362 429.607 184.068 429.474 184.844 429.453V428.242H186.383V429.453C187.154 429.469 187.859 429.604 188.5 429.859C189.141 430.115 189.667 430.445 190.078 430.852C190.469 431.232 190.776 431.693 191 432.234C191.229 432.776 191.344 433.398 191.344 434.102ZM189.734 434.039C189.734 433.523 189.651 433.049 189.484 432.617C189.318 432.185 189.081 431.82 188.773 431.523C188.471 431.232 188.135 431.018 187.766 430.883C187.396 430.747 186.935 430.674 186.383 430.664V437.617C186.872 437.607 187.318 437.529 187.719 437.383C188.12 437.232 188.451 437.034 188.711 436.789C189.049 436.477 189.305 436.094 189.477 435.641C189.648 435.188 189.734 434.654 189.734 434.039ZM184.844 437.617V430.664C184.292 430.669 183.831 430.742 183.461 430.883C183.091 431.023 182.755 431.237 182.453 431.523C182.151 431.81 181.914 432.174 181.742 432.617C181.576 433.06 181.492 433.534 181.492 434.039C181.492 434.622 181.578 435.151 181.75 435.625C181.927 436.099 182.182 436.487 182.516 436.789C182.771 437.023 183.099 437.219 183.5 437.375C183.906 437.531 184.354 437.612 184.844 437.617ZM200.969 440H199.516V433.445L194.945 440H193.617V431.273H195.07V437.734L199.594 431.273H200.969V440ZM211.172 440H209.703V436.07H205.336V440H203.867V431.273H205.336V434.805H209.703V431.273H211.172V440ZM220.852 440H219.391V439.07C219.26 439.159 219.083 439.284 218.859 439.445C218.641 439.602 218.427 439.727 218.219 439.82C217.974 439.94 217.693 440.039 217.375 440.117C217.057 440.201 216.685 440.242 216.258 440.242C215.471 440.242 214.805 439.982 214.258 439.461C213.711 438.94 213.438 438.276 213.438 437.469C213.438 436.807 213.578 436.273 213.859 435.867C214.146 435.456 214.552 435.133 215.078 434.898C215.609 434.664 216.247 434.505 216.992 434.422C217.737 434.339 218.536 434.276 219.391 434.234V434.008C219.391 433.674 219.331 433.398 219.211 433.18C219.096 432.961 218.93 432.789 218.711 432.664C218.503 432.544 218.253 432.464 217.961 432.422C217.669 432.38 217.365 432.359 217.047 432.359C216.661 432.359 216.232 432.411 215.758 432.516C215.284 432.615 214.794 432.76 214.289 432.953H214.211V431.461C214.497 431.383 214.911 431.297 215.453 431.203C215.995 431.109 216.529 431.062 217.055 431.062C217.669 431.062 218.203 431.115 218.656 431.219C219.115 431.318 219.51 431.49 219.844 431.734C220.172 431.974 220.422 432.284 220.594 432.664C220.766 433.044 220.852 433.516 220.852 434.078V440ZM219.391 437.852V435.422C218.943 435.448 218.414 435.487 217.805 435.539C217.201 435.591 216.721 435.667 216.367 435.766C215.945 435.885 215.604 436.073 215.344 436.328C215.083 436.578 214.953 436.924 214.953 437.367C214.953 437.867 215.104 438.245 215.406 438.5C215.708 438.75 216.169 438.875 216.789 438.875C217.305 438.875 217.776 438.776 218.203 438.578C218.63 438.375 219.026 438.133 219.391 437.852ZM230.984 440H229.516V436.07H225.148V440H223.68V431.273H225.148V434.805H229.516V431.273H230.984V440ZM240.414 439.453C239.815 439.734 239.299 439.927 238.867 440.031C238.44 440.141 238.013 440.195 237.586 440.195C236.951 440.195 236.367 440.104 235.836 439.922C235.305 439.734 234.849 439.453 234.469 439.078C234.089 438.703 233.792 438.229 233.578 437.656C233.37 437.083 233.266 436.414 233.266 435.648C233.266 434.258 233.651 433.148 234.422 432.32C235.193 431.487 236.247 431.07 237.586 431.07C238.091 431.07 238.586 431.141 239.07 431.281C239.56 431.422 240.008 431.594 240.414 431.797V433.43H240.328C239.844 433.06 239.365 432.786 238.891 432.609C238.422 432.432 237.966 432.344 237.523 432.344C236.654 432.344 235.979 432.635 235.5 433.219C235.026 433.802 234.789 434.612 234.789 435.648C234.789 436.685 235.026 437.49 235.5 438.062C235.974 438.635 236.648 438.922 237.523 438.922C237.831 438.922 238.135 438.883 238.438 438.805C238.745 438.727 239.023 438.625 239.273 438.5C239.471 438.401 239.674 438.284 239.883 438.148C240.096 438.008 240.245 437.904 240.328 437.836H240.414V439.453ZM249.867 435.641C249.867 437.062 249.503 438.185 248.773 439.008C248.044 439.831 247.068 440.242 245.844 440.242C244.609 440.242 243.628 439.831 242.898 439.008C242.174 438.185 241.812 437.062 241.812 435.641C241.812 434.219 242.174 433.096 242.898 432.273C243.628 431.445 244.609 431.031 245.844 431.031C247.068 431.031 248.044 431.445 248.773 432.273C249.503 433.096 249.867 434.219 249.867 435.641ZM248.352 435.641C248.352 434.51 248.13 433.672 247.688 433.125C247.245 432.573 246.63 432.297 245.844 432.297C245.047 432.297 244.427 432.573 243.984 433.125C243.547 433.672 243.328 434.51 243.328 435.641C243.328 436.734 243.549 437.565 243.992 438.133C244.435 438.695 245.052 438.977 245.844 438.977C246.625 438.977 247.237 438.698 247.68 438.141C248.128 437.578 248.352 436.745 248.352 435.641ZM259.352 437.359C259.352 437.781 259.266 438.156 259.094 438.484C258.927 438.812 258.695 439.086 258.398 439.305C258.065 439.549 257.701 439.727 257.305 439.836C256.914 439.945 256.398 440 255.758 440H252.148V431.273H255.523C256.174 431.273 256.664 431.297 256.992 431.344C257.326 431.385 257.638 431.482 257.93 431.633C258.258 431.805 258.497 432.029 258.648 432.305C258.805 432.581 258.883 432.906 258.883 433.281C258.883 433.714 258.76 434.089 258.516 434.406C258.271 434.724 257.956 434.971 257.57 435.148V435.227C258.086 435.352 258.51 435.594 258.844 435.953C259.182 436.307 259.352 436.776 259.352 437.359ZM257.375 433.508C257.375 433.32 257.333 433.151 257.25 433C257.172 432.849 257.049 432.732 256.883 432.648C256.664 432.539 256.417 432.479 256.141 432.469C255.87 432.453 255.534 432.445 255.133 432.445H253.602V434.836H255.438C255.823 434.836 256.107 434.823 256.289 434.797C256.477 434.766 256.664 434.693 256.852 434.578C257.049 434.453 257.185 434.307 257.258 434.141C257.336 433.969 257.375 433.758 257.375 433.508ZM257.836 437.367C257.836 437.081 257.789 436.849 257.695 436.672C257.602 436.49 257.396 436.323 257.078 436.172C256.88 436.078 256.667 436.023 256.438 436.008C256.208 435.987 255.891 435.977 255.484 435.977H253.602V438.828H254.992C255.576 438.828 256.023 438.81 256.336 438.773C256.654 438.732 256.927 438.646 257.156 438.516C257.385 438.385 257.555 438.227 257.664 438.039C257.779 437.852 257.836 437.628 257.836 437.367ZM274.492 437.359C274.492 437.781 274.406 438.156 274.234 438.484C274.068 438.812 273.836 439.086 273.539 439.305C273.206 439.549 272.841 439.727 272.445 439.836C272.055 439.945 271.539 440 270.898 440H267.289V431.273H270.664C271.315 431.273 271.805 431.297 272.133 431.344C272.466 431.385 272.779 431.482 273.07 431.633C273.398 431.805 273.638 432.029 273.789 432.305C273.945 432.581 274.023 432.906 274.023 433.281C274.023 433.714 273.901 434.089 273.656 434.406C273.411 434.724 273.096 434.971 272.711 435.148V435.227C273.227 435.352 273.651 435.594 273.984 435.953C274.323 436.307 274.492 436.776 274.492 437.359ZM272.516 433.508C272.516 433.32 272.474 433.151 272.391 433C272.312 432.849 272.19 432.732 272.023 432.648C271.805 432.539 271.557 432.479 271.281 432.469C271.01 432.453 270.674 432.445 270.273 432.445H268.742V434.836H270.578C270.964 434.836 271.247 434.823 271.43 434.797C271.617 434.766 271.805 434.693 271.992 434.578C272.19 434.453 272.326 434.307 272.398 434.141C272.477 433.969 272.516 433.758 272.516 433.508ZM272.977 437.367C272.977 437.081 272.93 436.849 272.836 436.672C272.742 436.49 272.536 436.323 272.219 436.172C272.021 436.078 271.807 436.023 271.578 436.008C271.349 435.987 271.031 435.977 270.625 435.977H268.742V438.828H270.133C270.716 438.828 271.164 438.81 271.477 438.773C271.794 438.732 272.068 438.646 272.297 438.516C272.526 438.385 272.695 438.227 272.805 438.039C272.919 437.852 272.977 437.628 272.977 437.367ZM73.3438 455.398C73.3438 455.961 73.2318 456.471 73.0078 456.93C72.7891 457.388 72.4948 457.76 72.125 458.047C71.6875 458.391 71.2188 458.635 70.7188 458.781C70.2188 458.927 69.5729 459 68.7812 459H64.5625V447.367H72.3516V448.742H66.1094V451.93H68.8281C69.6198 451.93 70.2656 451.977 70.7656 452.07C71.2656 452.159 71.737 452.375 72.1797 452.719C72.5755 453.026 72.8672 453.406 73.0547 453.859C73.2474 454.312 73.3438 454.826 73.3438 455.398ZM71.7266 455.43C71.7266 455.039 71.6615 454.695 71.5312 454.398C71.401 454.102 71.1979 453.862 70.9219 453.68C70.6354 453.487 70.3047 453.37 69.9297 453.328C69.5547 453.286 69.026 453.266 68.3438 453.266H66.1094V457.68H68.3047C68.9974 457.68 69.5286 457.646 69.8984 457.578C70.2734 457.51 70.6016 457.38 70.8828 457.188C71.1745 456.984 71.388 456.747 71.5234 456.477C71.6589 456.201 71.7266 455.852 71.7266 455.43ZM82.7656 459H81.3125V452.445L76.7422 459H75.4141V450.273H76.8672V456.734L81.3906 450.273H82.7656V459ZM91.7344 456.555C91.7344 457.044 91.6198 457.458 91.3906 457.797C91.1667 458.135 90.8776 458.409 90.5234 458.617C90.1693 458.82 89.7786 458.969 89.3516 459.062C88.9245 459.156 88.4974 459.203 88.0703 459.203C87.4661 459.203 86.8906 459.146 86.3438 459.031C85.7969 458.917 85.2578 458.74 84.7266 458.5V456.891H84.8281C85.2083 457.224 85.6927 457.482 86.2812 457.664C86.8698 457.846 87.4401 457.938 87.9922 457.938C88.2526 457.938 88.5208 457.914 88.7969 457.867C89.0729 457.815 89.3125 457.734 89.5156 457.625C89.7344 457.5 89.9089 457.352 90.0391 457.18C90.1693 457.003 90.2344 456.763 90.2344 456.461C90.2344 456.148 90.1693 455.898 90.0391 455.711C89.9141 455.523 89.7422 455.383 89.5234 455.289C89.3099 455.195 89.0521 455.138 88.75 455.117C88.4479 455.096 88.1719 455.086 87.9219 455.086H86.6484V453.82H87.5312C87.7396 453.82 88.0104 453.812 88.3438 453.797C88.6823 453.781 88.9557 453.74 89.1641 453.672C89.4349 453.583 89.6484 453.458 89.8047 453.297C89.9661 453.135 90.0469 452.878 90.0469 452.523C90.0469 452.279 89.9844 452.078 89.8594 451.922C89.7344 451.76 89.5781 451.635 89.3906 451.547C89.1979 451.458 88.9818 451.398 88.7422 451.367C88.5078 451.336 88.2995 451.32 88.1172 451.32C87.5859 451.32 87.0625 451.393 86.5469 451.539C86.0365 451.68 85.6068 451.885 85.2578 452.156H85.1562V450.539C85.5885 450.398 86.0521 450.284 86.5469 450.195C87.0417 450.107 87.5365 450.062 88.0312 450.062C88.4375 450.062 88.8411 450.099 89.2422 450.172C89.6484 450.245 90.026 450.37 90.375 450.547C90.7188 450.724 91 450.966 91.2188 451.273C91.4375 451.576 91.5469 451.951 91.5469 452.398C91.5469 452.857 91.4036 453.26 91.1172 453.609C90.8359 453.953 90.4557 454.201 89.9766 454.352V454.406C90.513 454.536 90.9401 454.781 91.2578 455.141C91.5755 455.495 91.7344 455.966 91.7344 456.555ZM101.359 459H99.8906V455.07H95.5234V459H94.0547V450.273H95.5234V453.805H99.8906V450.273H101.359V459ZM111.562 454.789H105.133C105.133 455.326 105.214 455.794 105.375 456.195C105.536 456.591 105.758 456.917 106.039 457.172C106.31 457.422 106.63 457.609 107 457.734C107.375 457.859 107.786 457.922 108.234 457.922C108.828 457.922 109.424 457.805 110.023 457.57C110.628 457.331 111.057 457.096 111.312 456.867H111.391V458.469C110.896 458.677 110.391 458.852 109.875 458.992C109.359 459.133 108.818 459.203 108.25 459.203C106.802 459.203 105.672 458.812 104.859 458.031C104.047 457.245 103.641 456.13 103.641 454.688C103.641 453.26 104.029 452.128 104.805 451.289C105.586 450.451 106.612 450.031 107.883 450.031C109.06 450.031 109.966 450.375 110.602 451.062C111.242 451.75 111.562 452.727 111.562 453.992V454.789ZM110.133 453.664C110.128 452.893 109.932 452.297 109.547 451.875C109.167 451.453 108.586 451.242 107.805 451.242C107.018 451.242 106.391 451.474 105.922 451.938C105.458 452.401 105.195 452.977 105.133 453.664H110.133ZM120.32 458.453C119.721 458.734 119.206 458.927 118.773 459.031C118.346 459.141 117.919 459.195 117.492 459.195C116.857 459.195 116.273 459.104 115.742 458.922C115.211 458.734 114.755 458.453 114.375 458.078C113.995 457.703 113.698 457.229 113.484 456.656C113.276 456.083 113.172 455.414 113.172 454.648C113.172 453.258 113.557 452.148 114.328 451.32C115.099 450.487 116.154 450.07 117.492 450.07C117.997 450.07 118.492 450.141 118.977 450.281C119.466 450.422 119.914 450.594 120.32 450.797V452.43H120.234C119.75 452.06 119.271 451.786 118.797 451.609C118.328 451.432 117.872 451.344 117.43 451.344C116.56 451.344 115.885 451.635 115.406 452.219C114.932 452.802 114.695 453.612 114.695 454.648C114.695 455.685 114.932 456.49 115.406 457.062C115.88 457.635 116.555 457.922 117.43 457.922C117.737 457.922 118.042 457.883 118.344 457.805C118.651 457.727 118.93 457.625 119.18 457.5C119.378 457.401 119.581 457.284 119.789 457.148C120.003 457.008 120.151 456.904 120.234 456.836H120.32V458.453Z" fill="#333333"/>
</g>
<defs>
<filter id="filter0_d_1763_9009" x="0" y="0" width="326" height="540" filterUnits="userSpaceOnUse" color-interpolation-filters="sRGB">
<feFlood flood-opacity="0" result="BackgroundImageFix"/>
<feColorMatrix in="SourceAlpha" type="matrix" values="0 0 0 0 0 0 0 0 0 0 0 0 0 0 0 0 0 0 127 0" result="hardAlpha"/>
<feOffset dx="3" dy="5"/>
<feGaussianBlur stdDeviation="10"/>
<feComposite in2="hardAlpha" operator="out"/>
<feColorMatrix type="matrix" values="0 0 0 0 0.2 0 0 0 0 0.2 0 0 0 0 0.2 0 0 0 0.1 0"/>
<feBlend mode="normal" in2="BackgroundImageFix" result="effect1_dropShadow_1763_9009"/>
<feBlend mode="normal" in="SourceGraphic" in2="effect1_dropShadow_1763_9009" result="shape"/>
</filter>
<filter id="filter1_d_1763_9009" x="22" y="28" width="112" height="112" filterUnits="userSpaceOnUse" color-interpolation-filters="sRGB">
<feFlood flood-opacity="0" result="BackgroundImageFix"/>
<feColorMatrix in="SourceAlpha" type="matrix" values="0 0 0 0 0 0 0 0 0 0 0 0 0 0 0 0 0 0 127 0" result="hardAlpha"/>
<feOffset dx="3" dy="3"/>
<feGaussianBlur stdDeviation="3"/>
<feComposite in2="hardAlpha" operator="out"/>
<feColorMatrix type="matrix" values="0 0 0 0 0.2 0 0 0 0 0.2 0 0 0 0 0.2 0 0 0 0.25 0"/>
<feBlend mode="normal" in2="BackgroundImageFix" result="effect1_dropShadow_1763_9009"/>
<feBlend mode="normal" in="SourceGraphic" in2="effect1_dropShadow_1763_9009" result="shape"/>
</filter>
</defs>
</svg>
