<svg width="100" height="100" viewBox="0 0 100 100" fill="none" xmlns="http://www.w3.org/2000/svg">
<path d="M87.5 94.7915H12.5C10.7917 94.7915 9.375 93.3748 9.375 91.6665C9.375 89.9582 10.7917 88.5415 12.5 88.5415H87.5C89.2083 88.5415 90.625 89.9582 90.625 91.6665C90.625 93.3748 89.2083 94.7915 87.5 94.7915Z" fill="#1959AB"/>
<path d="M23.3332 82.2915H16.6667C12.6667 82.2915 9.375 78.9998 9.375 74.9998V39.0832C9.375 35.0832 12.6667 31.7915 16.6667 31.7915H23.3332C27.3332 31.7915 30.6249 35.0832 30.6249 39.0832V74.9998C30.6249 78.9998 27.3332 82.2915 23.3332 82.2915ZM16.6667 37.9998C16.0833 37.9998 15.625 38.4581 15.625 39.0415V74.9998C15.625 75.5832 16.0833 76.0415 16.6667 76.0415H23.3332C23.9166 76.0415 24.3749 75.5832 24.3749 74.9998V39.0832C24.3749 38.4998 23.9166 38.0415 23.3332 38.0415H16.6667V37.9998Z" fill="#1959AB"/>
<path d="M53.3332 82.2917H46.6667C42.6667 82.2917 39.375 79 39.375 75V25.7917C39.375 21.7917 42.6667 18.5 46.6667 18.5H53.3332C57.3332 18.5 60.6249 21.7917 60.6249 25.7917V75C60.6249 79 57.3332 82.2917 53.3332 82.2917ZM46.6667 24.75C46.0833 24.75 45.625 25.2083 45.625 25.7917V75C45.625 75.5833 46.0833 76.0417 46.6667 76.0417H53.3332C53.9166 76.0417 54.3749 75.5833 54.3749 75V25.7917C54.3749 25.2083 53.9166 24.75 53.3332 24.75H46.6667Z" fill="#1959AB"/>
<path d="M83.3332 82.2918H76.6667C72.6667 82.2918 69.375 79.0002 69.375 75.0002V12.5002C69.375 8.50016 72.6667 5.2085 76.6667 5.2085H83.3332C87.3332 5.2085 90.6249 8.50016 90.6249 12.5002V75.0002C90.6249 79.0002 87.3332 82.2918 83.3332 82.2918ZM76.6667 11.4585C76.0833 11.4585 75.625 11.9168 75.625 12.5002V75.0002C75.625 75.5835 76.0833 76.0418 76.6667 76.0418H83.3332C83.9166 76.0418 84.3749 75.5835 84.3749 75.0002V12.5002C84.3749 11.9168 83.9166 11.4585 83.3332 11.4585H76.6667Z" fill="#1959AB"/>
</svg>
