<svg width="189" height="194" viewBox="0 0 189 194" fill="none" xmlns="http://www.w3.org/2000/svg">
<path d="M17.9546 21H14.0376V10.7769L11.2075 17.4111H8.49023L5.66016 10.7769V21H1.94824V5.73193H6.52148L9.95654 13.3916L13.3813 5.73193H17.9546V21ZM32.9971 15.9243H24.5479C24.6025 16.8267 24.9443 17.5171 25.5732 17.9956C26.209 18.4741 27.1421 18.7134 28.3726 18.7134C29.1519 18.7134 29.9072 18.5732 30.6387 18.293C31.3701 18.0127 31.9478 17.7119 32.3716 17.3906H32.7817V20.354C31.9478 20.689 31.1616 20.9316 30.4233 21.082C29.6851 21.2324 28.8682 21.3076 27.9727 21.3076C25.6621 21.3076 23.8916 20.7881 22.6611 19.749C21.4307 18.71 20.8154 17.23 20.8154 15.3091C20.8154 13.4087 21.3965 11.9048 22.5586 10.7974C23.7275 9.68311 25.3271 9.12598 27.3574 9.12598C29.2305 9.12598 30.6387 9.60107 31.582 10.5513C32.5254 11.4946 32.9971 12.855 32.9971 14.6323V15.9243ZM29.3262 13.7607C29.3057 12.9883 29.1143 12.4072 28.752 12.0176C28.3896 11.6279 27.8257 11.4331 27.0601 11.4331C26.3491 11.4331 25.7646 11.6177 25.3066 11.9868C24.8486 12.356 24.5923 12.9473 24.5376 13.7607H29.3262ZM47.6191 15.0835C47.6191 16.0337 47.4722 16.8984 47.1782 17.6777C46.8911 18.457 46.5117 19.0996 46.04 19.6055C45.5479 20.1387 44.9907 20.542 44.3687 20.8154C43.7466 21.0889 43.0801 21.2256 42.3691 21.2256C41.7129 21.2256 41.1558 21.1538 40.6978 21.0103C40.2397 20.8735 39.7715 20.6787 39.293 20.4258V25.2246H35.6016V9.48486H39.293V10.6846C39.8604 10.2334 40.438 9.86768 41.0259 9.5874C41.6206 9.30713 42.3042 9.16699 43.0767 9.16699C44.5122 9.16699 45.6265 9.69336 46.4194 10.7461C47.2192 11.7988 47.6191 13.2446 47.6191 15.0835ZM43.8149 15.1553C43.8149 14.0342 43.6235 13.2207 43.2407 12.7148C42.8579 12.209 42.2529 11.9561 41.4258 11.9561C41.0771 11.9561 40.7183 12.0107 40.3491 12.1201C39.98 12.2227 39.6279 12.373 39.293 12.5713V18.3647C39.5391 18.4604 39.8022 18.522 40.0825 18.5493C40.3628 18.5767 40.6396 18.5903 40.9131 18.5903C41.8906 18.5903 42.6187 18.3066 43.0972 17.7393C43.5757 17.165 43.8149 16.3037 43.8149 15.1553ZM62.0566 15.2476C62.0566 17.1411 61.5029 18.6348 60.3955 19.7285C59.2949 20.8154 57.7466 21.3589 55.7505 21.3589C53.7544 21.3589 52.2026 20.8154 51.0952 19.7285C49.9946 18.6348 49.4443 17.1411 49.4443 15.2476C49.4443 13.3403 49.998 11.8433 51.1055 10.7563C52.2197 9.66943 53.7681 9.12598 55.7505 9.12598C57.7603 9.12598 59.312 9.67285 60.4058 10.7666C61.5063 11.8604 62.0566 13.354 62.0566 15.2476ZM57.5142 18.0469C57.7534 17.7529 57.9312 17.4009 58.0474 16.9907C58.1704 16.5737 58.2319 15.9995 58.2319 15.2681C58.2319 14.5913 58.1704 14.0239 58.0474 13.5659C57.9243 13.1079 57.7534 12.7422 57.5347 12.4688C57.3159 12.1885 57.0527 11.9902 56.7451 11.874C56.4375 11.7578 56.106 11.6997 55.7505 11.6997C55.395 11.6997 55.0771 11.7476 54.7969 11.8433C54.5234 11.939 54.2603 12.1304 54.0073 12.4175C53.7817 12.6841 53.6006 13.0498 53.4639 13.5146C53.334 13.9795 53.269 14.564 53.269 15.2681C53.269 15.897 53.3271 16.4438 53.4434 16.9087C53.5596 17.3667 53.7305 17.7358 53.9561 18.0161C54.1748 18.2827 54.4346 18.4775 54.7354 18.6006C55.043 18.7236 55.3916 18.7852 55.7812 18.7852C56.1162 18.7852 56.4341 18.7305 56.7349 18.6211C57.0425 18.5049 57.3022 18.3135 57.5142 18.0469ZM76.3301 21H72.6387V11.9868H68.3936V21H64.7021V9.48486H76.3301V21ZM91.834 15.0835C91.834 16.0337 91.687 16.8984 91.3931 17.6777C91.106 18.457 90.7266 19.0996 90.2549 19.6055C89.7627 20.1387 89.2056 20.542 88.5835 20.8154C87.9614 21.0889 87.2949 21.2256 86.584 21.2256C85.9277 21.2256 85.3706 21.1538 84.9126 21.0103C84.4546 20.8735 83.9863 20.6787 83.5078 20.4258V25.2246H79.8164V9.48486H83.5078V10.6846C84.0752 10.2334 84.6528 9.86768 85.2407 9.5874C85.8354 9.30713 86.519 9.16699 87.2915 9.16699C88.7271 9.16699 89.8413 9.69336 90.6343 10.7461C91.4341 11.7988 91.834 13.2446 91.834 15.0835ZM88.0298 15.1553C88.0298 14.0342 87.8384 13.2207 87.4556 12.7148C87.0728 12.209 86.4678 11.9561 85.6406 11.9561C85.292 11.9561 84.9331 12.0107 84.564 12.1201C84.1948 12.2227 83.8428 12.373 83.5078 12.5713V18.3647C83.7539 18.4604 84.0171 18.522 84.2974 18.5493C84.5776 18.5767 84.8545 18.5903 85.1279 18.5903C86.1055 18.5903 86.8335 18.3066 87.312 17.7393C87.7905 17.165 88.0298 16.3037 88.0298 15.1553ZM106.138 21H102.56V13.9556L97.5557 21H94.5V9.48486H98.0786V15.791L102.713 9.48486H106.138V21ZM120.463 21H116.782V17.001H115.131L112.373 21H108.24L111.542 16.4883C110.77 16.1396 110.182 15.7021 109.778 15.1758C109.382 14.6426 109.184 13.9077 109.184 12.9712C109.184 12.3354 109.307 11.8022 109.553 11.3716C109.806 10.9409 110.144 10.5718 110.568 10.2642C110.944 10.0044 111.385 9.80957 111.891 9.67969C112.403 9.5498 112.974 9.48486 113.603 9.48486H120.463V21ZM116.782 14.7451V11.874H114.598C114.092 11.874 113.695 11.9902 113.408 12.2227C113.128 12.4482 112.988 12.7798 112.988 13.2173C112.988 13.7573 113.128 14.147 113.408 14.3862C113.688 14.6255 114.105 14.7451 114.659 14.7451H116.782ZM133.342 11.9868H129.671V21H125.979V11.9868H122.309V9.48486H133.342V11.9868ZM146.826 21H143.247V13.9556L138.243 21H135.188V9.48486H138.766V15.791L143.401 9.48486H146.826V21ZM161.15 21H157.469V17.001H155.818L153.06 21H148.928L152.229 16.4883C151.457 16.1396 150.869 15.7021 150.466 15.1758C150.069 14.6426 149.871 13.9077 149.871 12.9712C149.871 12.3354 149.994 11.8022 150.24 11.3716C150.493 10.9409 150.832 10.5718 151.255 10.2642C151.631 10.0044 152.072 9.80957 152.578 9.67969C153.091 9.5498 153.662 9.48486 154.291 9.48486H161.15V21ZM157.469 14.7451V11.874H155.285C154.779 11.874 154.383 11.9902 154.096 12.2227C153.815 12.4482 153.675 12.7798 153.675 13.2173C153.675 13.7573 153.815 14.147 154.096 14.3862C154.376 14.6255 154.793 14.7451 155.347 14.7451H157.469Z" fill="#333333"/>
<path d="M5 49L12.5 56.5L25 41.5" stroke="#61B857" stroke-width="2" stroke-linecap="round" stroke-linejoin="round"/>
<path d="M46.9551 38.9902C47.3698 39.446 47.6865 40.0042 47.9053 40.665C48.1286 41.3258 48.2402 42.0755 48.2402 42.9141C48.2402 43.7526 48.1263 44.5046 47.8984 45.1699C47.6751 45.8307 47.3607 46.3822 46.9551 46.8242C46.5358 47.2845 46.0391 47.6309 45.4648 47.8633C44.8952 48.0957 44.2435 48.2119 43.5098 48.2119C42.7943 48.2119 42.1426 48.0934 41.5547 47.8564C40.9714 47.6195 40.4746 47.2754 40.0645 46.8242C39.6543 46.373 39.3376 45.8193 39.1143 45.1631C38.8955 44.5068 38.7861 43.7572 38.7861 42.9141C38.7861 42.0846 38.8955 41.3418 39.1143 40.6855C39.333 40.0247 39.652 39.4596 40.0713 38.9902C40.4723 38.5436 40.9691 38.2018 41.5615 37.9648C42.1585 37.7279 42.8079 37.6094 43.5098 37.6094C44.2389 37.6094 44.8929 37.7301 45.4717 37.9717C46.055 38.2087 46.5495 38.5482 46.9551 38.9902ZM46.832 42.9141C46.832 41.5924 46.5358 40.5739 45.9434 39.8584C45.3509 39.1383 44.542 38.7783 43.5166 38.7783C42.4821 38.7783 41.6686 39.1383 41.0762 39.8584C40.4883 40.5739 40.1943 41.5924 40.1943 42.9141C40.1943 44.2493 40.4951 45.2725 41.0967 45.9834C41.6982 46.6898 42.5049 47.043 43.5166 47.043C44.5283 47.043 45.3327 46.6898 45.9297 45.9834C46.5312 45.2725 46.832 44.2493 46.832 42.9141ZM57.0039 44.0898C57.0039 44.7096 56.915 45.277 56.7373 45.792C56.5596 46.3024 56.3089 46.7354 55.9854 47.0908C55.6846 47.4281 55.3291 47.6901 54.9189 47.877C54.5133 48.0592 54.0827 48.1504 53.627 48.1504C53.2305 48.1504 52.8704 48.1071 52.5469 48.0205C52.2279 47.9339 51.902 47.7995 51.5693 47.6172V50.8164H50.2842V40.3643H51.5693V41.1641C51.9111 40.877 52.2939 40.6377 52.7178 40.4463C53.1462 40.2503 53.6019 40.1523 54.085 40.1523C55.0055 40.1523 55.721 40.501 56.2314 41.1982C56.7464 41.891 57.0039 42.8548 57.0039 44.0898ZM55.6777 44.124C55.6777 43.2035 55.5205 42.5153 55.2061 42.0596C54.8916 41.6038 54.4085 41.376 53.7568 41.376C53.3877 41.376 53.0163 41.4557 52.6426 41.6152C52.2689 41.7747 51.9111 41.9844 51.5693 42.2441V46.5713C51.9339 46.7354 52.2461 46.847 52.5059 46.9062C52.7702 46.9655 53.0687 46.9951 53.4014 46.9951C54.1169 46.9951 54.6751 46.7536 55.0762 46.2705C55.4772 45.7874 55.6777 45.0719 55.6777 44.124ZM64.2705 41.4922H60.292V48H59.0068V40.3643H64.2705V41.4922ZM71.5439 48H70.2656V47.1865C70.1517 47.264 69.9967 47.3734 69.8008 47.5146C69.6094 47.6514 69.4225 47.7607 69.2402 47.8428C69.026 47.9476 68.7799 48.0342 68.502 48.1025C68.224 48.1755 67.8981 48.2119 67.5244 48.2119C66.8363 48.2119 66.2529 47.984 65.7744 47.5283C65.2959 47.0726 65.0566 46.4915 65.0566 45.7852C65.0566 45.2064 65.1797 44.7393 65.4258 44.3838C65.6764 44.0238 66.0319 43.7412 66.4922 43.5361C66.957 43.3311 67.5153 43.1921 68.167 43.1191C68.8187 43.0462 69.5182 42.9915 70.2656 42.9551V42.7568C70.2656 42.4652 70.2132 42.2236 70.1084 42.0322C70.0081 41.8408 69.8623 41.6904 69.6709 41.5811C69.4886 41.4762 69.2699 41.4056 69.0146 41.3691C68.7594 41.3327 68.4928 41.3145 68.2148 41.3145C67.8776 41.3145 67.5016 41.36 67.0869 41.4512C66.6722 41.5378 66.2438 41.6654 65.8018 41.834H65.7334V40.5283C65.984 40.46 66.3464 40.3848 66.8203 40.3027C67.2943 40.2207 67.7614 40.1797 68.2217 40.1797C68.7594 40.1797 69.2266 40.2253 69.623 40.3164C70.0241 40.403 70.3704 40.5534 70.6621 40.7676C70.9492 40.9772 71.168 41.2484 71.3184 41.5811C71.4688 41.9137 71.5439 42.3262 71.5439 42.8184V48ZM70.2656 46.1201V43.9941C69.8737 44.0169 69.4111 44.0511 68.8779 44.0967C68.3493 44.1423 67.93 44.2083 67.6201 44.2949C67.251 44.3997 66.9525 44.5638 66.7246 44.7871C66.4967 45.0059 66.3828 45.3089 66.3828 45.6963C66.3828 46.1338 66.515 46.4642 66.7793 46.6875C67.0436 46.9062 67.4469 47.0156 67.9893 47.0156C68.4404 47.0156 68.8529 46.929 69.2266 46.7559C69.6003 46.5781 69.9466 46.3662 70.2656 46.1201ZM80.4102 48H79.125V44.5615H75.3037V48H74.0186V40.3643H75.3037V43.4541H79.125V40.3643H80.4102V48ZM89.3789 48H88.1074V42.2646L84.1084 48H82.9463V40.3643H84.2178V46.0176L88.1758 40.3643H89.3789V48ZM97.2266 45.8604C97.2266 46.2887 97.1263 46.651 96.9258 46.9473C96.7298 47.2435 96.4769 47.4827 96.167 47.665C95.8571 47.8428 95.5153 47.9727 95.1416 48.0547C94.7679 48.1367 94.3942 48.1777 94.0205 48.1777C93.4919 48.1777 92.9883 48.1276 92.5098 48.0273C92.0312 47.9271 91.5596 47.7721 91.0947 47.5625V46.1543H91.1836C91.5163 46.446 91.9401 46.6715 92.4551 46.8311C92.9701 46.9906 93.4691 47.0703 93.9521 47.0703C94.18 47.0703 94.4147 47.0498 94.6562 47.0088C94.8978 46.9632 95.1074 46.8926 95.2852 46.7969C95.4766 46.6875 95.6292 46.5576 95.7432 46.4072C95.8571 46.2523 95.9141 46.0426 95.9141 45.7783C95.9141 45.5049 95.8571 45.2861 95.7432 45.1221C95.6338 44.958 95.4834 44.835 95.292 44.7529C95.1051 44.6709 94.8796 44.6208 94.6152 44.6025C94.3509 44.5843 94.1094 44.5752 93.8906 44.5752H92.7764V43.4678H93.5488C93.7311 43.4678 93.9681 43.4609 94.2598 43.4473C94.556 43.4336 94.7952 43.3971 94.9775 43.3379C95.2145 43.2604 95.4014 43.151 95.5381 43.0098C95.6794 42.8685 95.75 42.6429 95.75 42.333C95.75 42.1188 95.6953 41.9434 95.5859 41.8066C95.4766 41.6654 95.3398 41.556 95.1758 41.4785C95.0072 41.401 94.818 41.3486 94.6084 41.3213C94.4033 41.2939 94.221 41.2803 94.0615 41.2803C93.5967 41.2803 93.1387 41.3441 92.6875 41.4717C92.2409 41.5947 91.8649 41.7747 91.5596 42.0117H91.4707V40.5967C91.849 40.4736 92.2546 40.3734 92.6875 40.2959C93.1204 40.2184 93.5534 40.1797 93.9863 40.1797C94.3418 40.1797 94.695 40.2116 95.0459 40.2754C95.4014 40.3392 95.7318 40.4486 96.0371 40.6035C96.3379 40.7585 96.584 40.9704 96.7754 41.2393C96.9668 41.5036 97.0625 41.8317 97.0625 42.2236C97.0625 42.6247 96.9372 42.9779 96.6865 43.2832C96.4404 43.584 96.1077 43.8005 95.6885 43.9326V43.9805C96.1579 44.0944 96.5316 44.3086 96.8096 44.623C97.0876 44.9329 97.2266 45.3454 97.2266 45.8604ZM105.19 48H103.912V47.1865C103.798 47.264 103.643 47.3734 103.447 47.5146C103.256 47.6514 103.069 47.7607 102.887 47.8428C102.673 47.9476 102.426 48.0342 102.148 48.1025C101.87 48.1755 101.545 48.2119 101.171 48.2119C100.483 48.2119 99.8994 47.984 99.4209 47.5283C98.9424 47.0726 98.7031 46.4915 98.7031 45.7852C98.7031 45.2064 98.8262 44.7393 99.0723 44.3838C99.3229 44.0238 99.6784 43.7412 100.139 43.5361C100.604 43.3311 101.162 43.1921 101.813 43.1191C102.465 43.0462 103.165 42.9915 103.912 42.9551V42.7568C103.912 42.4652 103.86 42.2236 103.755 42.0322C103.655 41.8408 103.509 41.6904 103.317 41.5811C103.135 41.4762 102.916 41.4056 102.661 41.3691C102.406 41.3327 102.139 41.3145 101.861 41.3145C101.524 41.3145 101.148 41.36 100.733 41.4512C100.319 41.5378 99.8903 41.6654 99.4482 41.834H99.3799V40.5283C99.6305 40.46 99.9928 40.3848 100.467 40.3027C100.941 40.2207 101.408 40.1797 101.868 40.1797C102.406 40.1797 102.873 40.2253 103.27 40.3164C103.671 40.403 104.017 40.5534 104.309 40.7676C104.596 40.9772 104.814 41.2484 104.965 41.5811C105.115 41.9137 105.19 42.3262 105.19 42.8184V48ZM103.912 46.1201V43.9941C103.52 44.0169 103.058 44.0511 102.524 44.0967C101.996 44.1423 101.576 44.2083 101.267 44.2949C100.897 44.3997 100.599 44.5638 100.371 44.7871C100.143 45.0059 100.029 45.3089 100.029 45.6963C100.029 46.1338 100.161 46.4642 100.426 46.6875C100.69 46.9062 101.093 47.0156 101.636 47.0156C102.087 47.0156 102.499 46.929 102.873 46.7559C103.247 46.5781 103.593 46.3662 103.912 46.1201ZM113.722 48H107.665V40.3643H108.95V46.8926H112.71V40.3643H113.995V46.8926H114.918V49.832H113.722V48ZM123.121 48H121.85V42.2646L117.851 48H116.688V40.3643H117.96V46.0176L121.918 40.3643H123.121V48ZM131.522 48H130.237V44.9717H128.727L126.361 48H124.851L127.421 44.8486C126.76 44.6663 126.277 44.3883 125.972 44.0146C125.666 43.6364 125.514 43.1419 125.514 42.5312C125.514 42.1257 125.605 41.7816 125.787 41.499C125.969 41.2165 126.2 40.9863 126.478 40.8086C126.751 40.6354 127.065 40.5192 127.421 40.46C127.776 40.3962 128.164 40.3643 128.583 40.3643H131.522V48ZM130.237 43.96V41.3896H128.617C128.266 41.3896 128.013 41.401 127.858 41.4238C127.703 41.4466 127.535 41.5081 127.353 41.6084C127.175 41.7087 127.043 41.8454 126.956 42.0186C126.874 42.1872 126.833 42.3717 126.833 42.5723C126.833 42.8229 126.858 43.0257 126.908 43.1807C126.963 43.3356 127.072 43.4814 127.236 43.6182C127.405 43.7503 127.61 43.8415 127.852 43.8916C128.093 43.9372 128.362 43.96 128.658 43.96H130.237ZM146.76 44.8486C146.76 45.3408 146.662 45.7874 146.466 46.1885C146.274 46.5895 146.017 46.9154 145.693 47.166C145.311 47.4668 144.9 47.681 144.463 47.8086C144.025 47.9362 143.46 48 142.768 48H139.076V37.8213H145.892V39.0244H140.43V41.8135H142.809C143.501 41.8135 144.066 41.8545 144.504 41.9365C144.941 42.014 145.354 42.2031 145.741 42.5039C146.088 42.7728 146.343 43.1055 146.507 43.502C146.675 43.8984 146.76 44.3473 146.76 44.8486ZM145.345 44.876C145.345 44.5342 145.288 44.2334 145.174 43.9736C145.06 43.7139 144.882 43.5042 144.641 43.3447C144.39 43.1761 144.101 43.0736 143.772 43.0371C143.444 43.0007 142.982 42.9824 142.385 42.9824H140.43V46.8447H142.351C142.957 46.8447 143.422 46.8151 143.745 46.7559C144.073 46.6966 144.36 46.5827 144.606 46.4141C144.862 46.2363 145.049 46.029 145.167 45.792C145.285 45.5505 145.345 45.2451 145.345 44.876ZM155.004 48H153.732V42.2646L149.733 48H148.571V40.3643H149.843V46.0176L153.801 40.3643H155.004V48ZM162.852 45.8604C162.852 46.2887 162.751 46.651 162.551 46.9473C162.355 47.2435 162.102 47.4827 161.792 47.665C161.482 47.8428 161.14 47.9727 160.767 48.0547C160.393 48.1367 160.019 48.1777 159.646 48.1777C159.117 48.1777 158.613 48.1276 158.135 48.0273C157.656 47.9271 157.185 47.7721 156.72 47.5625V46.1543H156.809C157.141 46.446 157.565 46.6715 158.08 46.8311C158.595 46.9906 159.094 47.0703 159.577 47.0703C159.805 47.0703 160.04 47.0498 160.281 47.0088C160.523 46.9632 160.732 46.8926 160.91 46.7969C161.102 46.6875 161.254 46.5576 161.368 46.4072C161.482 46.2523 161.539 46.0426 161.539 45.7783C161.539 45.5049 161.482 45.2861 161.368 45.1221C161.259 44.958 161.108 44.835 160.917 44.7529C160.73 44.6709 160.505 44.6208 160.24 44.6025C159.976 44.5843 159.734 44.5752 159.516 44.5752H158.401V43.4678H159.174C159.356 43.4678 159.593 43.4609 159.885 43.4473C160.181 43.4336 160.42 43.3971 160.603 43.3379C160.84 43.2604 161.026 43.151 161.163 43.0098C161.304 42.8685 161.375 42.6429 161.375 42.333C161.375 42.1188 161.32 41.9434 161.211 41.8066C161.102 41.6654 160.965 41.556 160.801 41.4785C160.632 41.401 160.443 41.3486 160.233 41.3213C160.028 41.2939 159.846 41.2803 159.687 41.2803C159.222 41.2803 158.764 41.3441 158.312 41.4717C157.866 41.5947 157.49 41.7747 157.185 42.0117H157.096V40.5967C157.474 40.4736 157.88 40.3734 158.312 40.2959C158.745 40.2184 159.178 40.1797 159.611 40.1797C159.967 40.1797 160.32 40.2116 160.671 40.2754C161.026 40.3392 161.357 40.4486 161.662 40.6035C161.963 40.7585 162.209 40.9704 162.4 41.2393C162.592 41.5036 162.688 41.8317 162.688 42.2236C162.688 42.6247 162.562 42.9779 162.312 43.2832C162.065 43.584 161.733 43.8005 161.313 43.9326V43.9805C161.783 44.0944 162.157 44.3086 162.435 44.623C162.713 44.9329 162.852 45.3454 162.852 45.8604ZM171.273 48H169.988V44.5615H166.167V48H164.882V40.3643H166.167V43.4541H169.988V40.3643H171.273V48ZM180.201 44.3154H174.575C174.575 44.7848 174.646 45.195 174.787 45.5459C174.928 45.8923 175.122 46.1771 175.368 46.4004C175.605 46.6191 175.885 46.7832 176.209 46.8926C176.537 47.002 176.897 47.0566 177.289 47.0566C177.809 47.0566 178.33 46.9541 178.854 46.749C179.383 46.5394 179.759 46.3343 179.982 46.1338H180.051V47.5352C179.618 47.7174 179.176 47.8701 178.725 47.9932C178.273 48.1162 177.799 48.1777 177.303 48.1777C176.036 48.1777 175.047 47.8359 174.336 47.1523C173.625 46.4642 173.27 45.4889 173.27 44.2266C173.27 42.9779 173.609 41.9867 174.288 41.2529C174.972 40.5192 175.869 40.1523 176.981 40.1523C178.011 40.1523 178.804 40.4531 179.36 41.0547C179.921 41.6562 180.201 42.5107 180.201 43.6182V44.3154ZM178.95 43.3311C178.946 42.6566 178.775 42.1348 178.438 41.7656C178.105 41.3965 177.597 41.2119 176.913 41.2119C176.225 41.2119 175.676 41.4147 175.266 41.8203C174.86 42.2259 174.63 42.7295 174.575 43.3311H178.95ZM187.864 47.5215C187.34 47.7676 186.889 47.9362 186.511 48.0273C186.137 48.123 185.763 48.1709 185.39 48.1709C184.834 48.1709 184.323 48.0911 183.858 47.9316C183.394 47.7676 182.995 47.5215 182.662 47.1934C182.329 46.8652 182.07 46.4505 181.883 45.9492C181.701 45.4479 181.609 44.8623 181.609 44.1924C181.609 42.9756 181.947 42.0049 182.621 41.2803C183.296 40.5511 184.218 40.1865 185.39 40.1865C185.832 40.1865 186.265 40.248 186.688 40.3711C187.117 40.4941 187.509 40.6445 187.864 40.8223V42.251H187.789C187.365 41.9274 186.946 41.6882 186.531 41.5332C186.121 41.3783 185.722 41.3008 185.335 41.3008C184.574 41.3008 183.984 41.556 183.564 42.0664C183.15 42.5768 182.942 43.2855 182.942 44.1924C182.942 45.0993 183.15 45.8034 183.564 46.3047C183.979 46.806 184.569 47.0566 185.335 47.0566C185.604 47.0566 185.87 47.0225 186.135 46.9541C186.404 46.8857 186.647 46.7969 186.866 46.6875C187.039 46.6009 187.217 46.4984 187.399 46.3799C187.586 46.2568 187.716 46.1657 187.789 46.1064H187.864V47.5215ZM47.0439 61.8691C47.0439 62.375 46.9482 62.8216 46.7568 63.209C46.5654 63.5964 46.3079 63.9154 45.9844 64.166C45.6016 64.4668 45.18 64.681 44.7197 64.8086C44.264 64.9362 43.6829 65 42.9766 65H39.3672V54.8213H42.3818C43.1247 54.8213 43.6807 54.8486 44.0498 54.9033C44.4189 54.958 44.7721 55.0719 45.1094 55.2451C45.4831 55.4411 45.7542 55.694 45.9229 56.0039C46.0915 56.3092 46.1758 56.6761 46.1758 57.1045C46.1758 57.5876 46.0527 58 45.8066 58.3418C45.5605 58.679 45.2324 58.9502 44.8223 59.1553V59.21C45.5104 59.3512 46.0527 59.6543 46.4492 60.1191C46.8457 60.5794 47.0439 61.1628 47.0439 61.8691ZM44.7676 57.2822C44.7676 57.0361 44.7266 56.8288 44.6445 56.6602C44.5625 56.4915 44.4303 56.3548 44.248 56.25C44.0339 56.127 43.7741 56.0518 43.4688 56.0244C43.1634 55.9925 42.7852 55.9766 42.334 55.9766H40.7207V58.916H42.4707C42.8945 58.916 43.2318 58.8955 43.4824 58.8545C43.7331 58.8089 43.9655 58.7178 44.1797 58.5811C44.3939 58.4443 44.5443 58.2689 44.6309 58.0547C44.722 57.8359 44.7676 57.5785 44.7676 57.2822ZM45.6357 61.9238C45.6357 61.5137 45.5742 61.1878 45.4512 60.9463C45.3281 60.7048 45.1048 60.4997 44.7812 60.3311C44.5625 60.2171 44.2959 60.1442 43.9814 60.1123C43.6715 60.0758 43.2933 60.0576 42.8467 60.0576H40.7207V63.8447H42.5117C43.1042 63.8447 43.5895 63.8151 43.9678 63.7559C44.346 63.6921 44.6559 63.5781 44.8975 63.4141C45.1527 63.2363 45.3395 63.0335 45.458 62.8057C45.5765 62.5778 45.6357 62.2839 45.6357 61.9238ZM54.5771 64.5215C54.0531 64.7676 53.6019 64.9362 53.2236 65.0273C52.8499 65.123 52.4762 65.1709 52.1025 65.1709C51.5465 65.1709 51.0361 65.0911 50.5713 64.9316C50.1064 64.7676 49.7077 64.5215 49.375 64.1934C49.0423 63.8652 48.7826 63.4505 48.5957 62.9492C48.4134 62.4479 48.3223 61.8623 48.3223 61.1924C48.3223 59.9756 48.6595 59.0049 49.334 58.2803C50.0085 57.5511 50.9313 57.1865 52.1025 57.1865C52.5446 57.1865 52.9775 57.248 53.4014 57.3711C53.8298 57.4941 54.2217 57.6445 54.5771 57.8223V59.251H54.502C54.0781 58.9274 53.6589 58.6882 53.2441 58.5332C52.834 58.3783 52.4352 58.3008 52.0479 58.3008C51.2868 58.3008 50.6966 58.556 50.2773 59.0664C49.8626 59.5768 49.6553 60.2855 49.6553 61.1924C49.6553 62.0993 49.8626 62.8034 50.2773 63.3047C50.6921 63.806 51.2822 64.0566 52.0479 64.0566C52.3167 64.0566 52.5833 64.0225 52.8477 63.9541C53.1165 63.8857 53.3604 63.7969 53.5791 63.6875C53.7523 63.6009 53.93 63.4984 54.1123 63.3799C54.2992 63.2568 54.429 63.1657 54.502 63.1064H54.5771V64.5215ZM61.9531 58.4922H59.1914V65H57.9062V58.4922H55.1445V57.3643H61.9531V58.4922ZM70.0059 61.0898C70.0059 61.7096 69.917 62.277 69.7393 62.792C69.5615 63.3024 69.3109 63.7354 68.9873 64.0908C68.6865 64.4281 68.3311 64.6901 67.9209 64.877C67.5153 65.0592 67.0846 65.1504 66.6289 65.1504C66.2324 65.1504 65.8724 65.1071 65.5488 65.0205C65.2298 64.9339 64.904 64.7995 64.5713 64.6172V67.8164H63.2861V57.3643H64.5713V58.1641C64.9131 57.877 65.2959 57.6377 65.7197 57.4463C66.1481 57.2503 66.6038 57.1523 67.0869 57.1523C68.0075 57.1523 68.723 57.501 69.2334 58.1982C69.7484 58.891 70.0059 59.8548 70.0059 61.0898ZM68.6797 61.124C68.6797 60.2035 68.5225 59.5153 68.208 59.0596C67.8936 58.6038 67.4105 58.376 66.7588 58.376C66.3896 58.376 66.0182 58.4557 65.6445 58.6152C65.2708 58.7747 64.9131 58.9844 64.5713 59.2441V63.5713C64.9359 63.7354 65.248 63.847 65.5078 63.9062C65.7721 63.9655 66.0706 63.9951 66.4033 63.9951C67.1188 63.9951 67.6771 63.7536 68.0781 63.2705C68.4792 62.7874 68.6797 62.0719 68.6797 61.124ZM78.4004 61.3154H72.7744C72.7744 61.7848 72.8451 62.195 72.9863 62.5459C73.1276 62.8923 73.3213 63.1771 73.5674 63.4004C73.8044 63.6191 74.0846 63.7832 74.4082 63.8926C74.7363 64.002 75.0964 64.0566 75.4883 64.0566C76.0078 64.0566 76.5296 63.9541 77.0537 63.749C77.5824 63.5394 77.9583 63.3343 78.1816 63.1338H78.25V64.5352C77.8171 64.7174 77.375 64.8701 76.9238 64.9932C76.4727 65.1162 75.9987 65.1777 75.502 65.1777C74.235 65.1777 73.2461 64.8359 72.5352 64.1523C71.8242 63.4642 71.4688 62.4889 71.4688 61.2266C71.4688 59.9779 71.8083 58.9867 72.4873 58.2529C73.1709 57.5192 74.0687 57.1523 75.1807 57.1523C76.2106 57.1523 77.0036 57.4531 77.5596 58.0547C78.1201 58.6562 78.4004 59.5107 78.4004 60.6182V61.3154ZM77.1494 60.3311C77.1449 59.6566 76.974 59.1348 76.6367 58.7656C76.304 58.3965 75.7959 58.2119 75.1123 58.2119C74.4242 58.2119 73.875 58.4147 73.4648 58.8203C73.0592 59.2259 72.8291 59.7295 72.7744 60.3311H77.1494ZM86.2959 65H85.0107V62.0674C84.596 62.195 84.1995 62.2975 83.8213 62.375C83.443 62.4525 83.0306 62.4912 82.584 62.4912C81.7637 62.4912 81.137 62.2907 80.7041 61.8896C80.2712 61.484 80.0547 60.9007 80.0547 60.1396V57.3643H81.3398V59.4834C81.3398 59.7751 81.3581 60.0371 81.3945 60.2695C81.431 60.4974 81.5085 60.6956 81.627 60.8643C81.7454 61.0283 81.9118 61.1536 82.126 61.2402C82.3402 61.3268 82.6387 61.3701 83.0215 61.3701C83.3359 61.3701 83.6777 61.3405 84.0469 61.2812C84.416 61.2174 84.7373 61.1445 85.0107 61.0625V57.3643H86.2959V65Z" fill="#333333"/>
<path d="M5 91L12.5 98.5L25 83.5" stroke="#61B857" stroke-width="2" stroke-linecap="round" stroke-linejoin="round"/>
<path d="M46.9551 80.9902C47.3698 81.446 47.6865 82.0042 47.9053 82.665C48.1286 83.3258 48.2402 84.0755 48.2402 84.9141C48.2402 85.7526 48.1263 86.5046 47.8984 87.1699C47.6751 87.8307 47.3607 88.3822 46.9551 88.8242C46.5358 89.2845 46.0391 89.6309 45.4648 89.8633C44.8952 90.0957 44.2435 90.2119 43.5098 90.2119C42.7943 90.2119 42.1426 90.0934 41.5547 89.8564C40.9714 89.6195 40.4746 89.2754 40.0645 88.8242C39.6543 88.373 39.3376 87.8193 39.1143 87.1631C38.8955 86.5068 38.7861 85.7572 38.7861 84.9141C38.7861 84.0846 38.8955 83.3418 39.1143 82.6855C39.333 82.0247 39.652 81.4596 40.0713 80.9902C40.4723 80.5436 40.9691 80.2018 41.5615 79.9648C42.1585 79.7279 42.8079 79.6094 43.5098 79.6094C44.2389 79.6094 44.8929 79.7301 45.4717 79.9717C46.055 80.2087 46.5495 80.5482 46.9551 80.9902ZM46.832 84.9141C46.832 83.5924 46.5358 82.5739 45.9434 81.8584C45.3509 81.1383 44.542 80.7783 43.5166 80.7783C42.4821 80.7783 41.6686 81.1383 41.0762 81.8584C40.4883 82.5739 40.1943 83.5924 40.1943 84.9141C40.1943 86.2493 40.4951 87.2725 41.0967 87.9834C41.6982 88.6898 42.5049 89.043 43.5166 89.043C44.5283 89.043 45.3327 88.6898 45.9297 87.9834C46.5312 87.2725 46.832 86.2493 46.832 84.9141ZM57.0039 86.0898C57.0039 86.7096 56.915 87.277 56.7373 87.792C56.5596 88.3024 56.3089 88.7354 55.9854 89.0908C55.6846 89.4281 55.3291 89.6901 54.9189 89.877C54.5133 90.0592 54.0827 90.1504 53.627 90.1504C53.2305 90.1504 52.8704 90.1071 52.5469 90.0205C52.2279 89.9339 51.902 89.7995 51.5693 89.6172V92.8164H50.2842V82.3643H51.5693V83.1641C51.9111 82.877 52.2939 82.6377 52.7178 82.4463C53.1462 82.2503 53.6019 82.1523 54.085 82.1523C55.0055 82.1523 55.721 82.501 56.2314 83.1982C56.7464 83.891 57.0039 84.8548 57.0039 86.0898ZM55.6777 86.124C55.6777 85.2035 55.5205 84.5153 55.2061 84.0596C54.8916 83.6038 54.4085 83.376 53.7568 83.376C53.3877 83.376 53.0163 83.4557 52.6426 83.6152C52.2689 83.7747 51.9111 83.9844 51.5693 84.2441V88.5713C51.9339 88.7354 52.2461 88.847 52.5059 88.9062C52.7702 88.9655 53.0687 88.9951 53.4014 88.9951C54.1169 88.9951 54.6751 88.7536 55.0762 88.2705C55.4772 87.7874 55.6777 87.0719 55.6777 86.124ZM64.2705 83.4922H60.292V90H59.0068V82.3643H64.2705V83.4922ZM71.5439 90H70.2656V89.1865C70.1517 89.264 69.9967 89.3734 69.8008 89.5146C69.6094 89.6514 69.4225 89.7607 69.2402 89.8428C69.026 89.9476 68.7799 90.0342 68.502 90.1025C68.224 90.1755 67.8981 90.2119 67.5244 90.2119C66.8363 90.2119 66.2529 89.984 65.7744 89.5283C65.2959 89.0726 65.0566 88.4915 65.0566 87.7852C65.0566 87.2064 65.1797 86.7393 65.4258 86.3838C65.6764 86.0238 66.0319 85.7412 66.4922 85.5361C66.957 85.3311 67.5153 85.1921 68.167 85.1191C68.8187 85.0462 69.5182 84.9915 70.2656 84.9551V84.7568C70.2656 84.4652 70.2132 84.2236 70.1084 84.0322C70.0081 83.8408 69.8623 83.6904 69.6709 83.5811C69.4886 83.4762 69.2699 83.4056 69.0146 83.3691C68.7594 83.3327 68.4928 83.3145 68.2148 83.3145C67.8776 83.3145 67.5016 83.36 67.0869 83.4512C66.6722 83.5378 66.2438 83.6654 65.8018 83.834H65.7334V82.5283C65.984 82.46 66.3464 82.3848 66.8203 82.3027C67.2943 82.2207 67.7614 82.1797 68.2217 82.1797C68.7594 82.1797 69.2266 82.2253 69.623 82.3164C70.0241 82.403 70.3704 82.5534 70.6621 82.7676C70.9492 82.9772 71.168 83.2484 71.3184 83.5811C71.4688 83.9137 71.5439 84.3262 71.5439 84.8184V90ZM70.2656 88.1201V85.9941C69.8737 86.0169 69.4111 86.0511 68.8779 86.0967C68.3493 86.1423 67.93 86.2083 67.6201 86.2949C67.251 86.3997 66.9525 86.5638 66.7246 86.7871C66.4967 87.0059 66.3828 87.3089 66.3828 87.6963C66.3828 88.1338 66.515 88.4642 66.7793 88.6875C67.0436 88.9062 67.4469 89.0156 67.9893 89.0156C68.4404 89.0156 68.8529 88.929 69.2266 88.7559C69.6003 88.5781 69.9466 88.3662 70.2656 88.1201ZM80.4102 90H79.125V86.5615H75.3037V90H74.0186V82.3643H75.3037V85.4541H79.125V82.3643H80.4102V90ZM89.3789 90H88.1074V84.2646L84.1084 90H82.9463V82.3643H84.2178V88.0176L88.1758 82.3643H89.3789V90ZM97.2266 87.8604C97.2266 88.2887 97.1263 88.651 96.9258 88.9473C96.7298 89.2435 96.4769 89.4827 96.167 89.665C95.8571 89.8428 95.5153 89.9727 95.1416 90.0547C94.7679 90.1367 94.3942 90.1777 94.0205 90.1777C93.4919 90.1777 92.9883 90.1276 92.5098 90.0273C92.0312 89.9271 91.5596 89.7721 91.0947 89.5625V88.1543H91.1836C91.5163 88.446 91.9401 88.6715 92.4551 88.8311C92.9701 88.9906 93.4691 89.0703 93.9521 89.0703C94.18 89.0703 94.4147 89.0498 94.6562 89.0088C94.8978 88.9632 95.1074 88.8926 95.2852 88.7969C95.4766 88.6875 95.6292 88.5576 95.7432 88.4072C95.8571 88.2523 95.9141 88.0426 95.9141 87.7783C95.9141 87.5049 95.8571 87.2861 95.7432 87.1221C95.6338 86.958 95.4834 86.835 95.292 86.7529C95.1051 86.6709 94.8796 86.6208 94.6152 86.6025C94.3509 86.5843 94.1094 86.5752 93.8906 86.5752H92.7764V85.4678H93.5488C93.7311 85.4678 93.9681 85.4609 94.2598 85.4473C94.556 85.4336 94.7952 85.3971 94.9775 85.3379C95.2145 85.2604 95.4014 85.151 95.5381 85.0098C95.6794 84.8685 95.75 84.6429 95.75 84.333C95.75 84.1188 95.6953 83.9434 95.5859 83.8066C95.4766 83.6654 95.3398 83.556 95.1758 83.4785C95.0072 83.401 94.818 83.3486 94.6084 83.3213C94.4033 83.2939 94.221 83.2803 94.0615 83.2803C93.5967 83.2803 93.1387 83.3441 92.6875 83.4717C92.2409 83.5947 91.8649 83.7747 91.5596 84.0117H91.4707V82.5967C91.849 82.4736 92.2546 82.3734 92.6875 82.2959C93.1204 82.2184 93.5534 82.1797 93.9863 82.1797C94.3418 82.1797 94.695 82.2116 95.0459 82.2754C95.4014 82.3392 95.7318 82.4486 96.0371 82.6035C96.3379 82.7585 96.584 82.9704 96.7754 83.2393C96.9668 83.5036 97.0625 83.8317 97.0625 84.2236C97.0625 84.6247 96.9372 84.9779 96.6865 85.2832C96.4404 85.584 96.1077 85.8005 95.6885 85.9326V85.9805C96.1579 86.0944 96.5316 86.3086 96.8096 86.623C97.0876 86.9329 97.2266 87.3454 97.2266 87.8604ZM105.19 90H103.912V89.1865C103.798 89.264 103.643 89.3734 103.447 89.5146C103.256 89.6514 103.069 89.7607 102.887 89.8428C102.673 89.9476 102.426 90.0342 102.148 90.1025C101.87 90.1755 101.545 90.2119 101.171 90.2119C100.483 90.2119 99.8994 89.984 99.4209 89.5283C98.9424 89.0726 98.7031 88.4915 98.7031 87.7852C98.7031 87.2064 98.8262 86.7393 99.0723 86.3838C99.3229 86.0238 99.6784 85.7412 100.139 85.5361C100.604 85.3311 101.162 85.1921 101.813 85.1191C102.465 85.0462 103.165 84.9915 103.912 84.9551V84.7568C103.912 84.4652 103.86 84.2236 103.755 84.0322C103.655 83.8408 103.509 83.6904 103.317 83.5811C103.135 83.4762 102.916 83.4056 102.661 83.3691C102.406 83.3327 102.139 83.3145 101.861 83.3145C101.524 83.3145 101.148 83.36 100.733 83.4512C100.319 83.5378 99.8903 83.6654 99.4482 83.834H99.3799V82.5283C99.6305 82.46 99.9928 82.3848 100.467 82.3027C100.941 82.2207 101.408 82.1797 101.868 82.1797C102.406 82.1797 102.873 82.2253 103.27 82.3164C103.671 82.403 104.017 82.5534 104.309 82.7676C104.596 82.9772 104.814 83.2484 104.965 83.5811C105.115 83.9137 105.19 84.3262 105.19 84.8184V90ZM103.912 88.1201V85.9941C103.52 86.0169 103.058 86.0511 102.524 86.0967C101.996 86.1423 101.576 86.2083 101.267 86.2949C100.897 86.3997 100.599 86.5638 100.371 86.7871C100.143 87.0059 100.029 87.3089 100.029 87.6963C100.029 88.1338 100.161 88.4642 100.426 88.6875C100.69 88.9062 101.093 89.0156 101.636 89.0156C102.087 89.0156 102.499 88.929 102.873 88.7559C103.247 88.5781 103.593 88.3662 103.912 88.1201ZM113.722 90H107.665V82.3643H108.95V88.8926H112.71V82.3643H113.995V88.8926H114.918V91.832H113.722V90ZM123.121 90H121.85V84.2646L117.851 90H116.688V82.3643H117.96V88.0176L121.918 82.3643H123.121V90ZM131.522 90H130.237V86.9717H128.727L126.361 90H124.851L127.421 86.8486C126.76 86.6663 126.277 86.3883 125.972 86.0146C125.666 85.6364 125.514 85.1419 125.514 84.5312C125.514 84.1257 125.605 83.7816 125.787 83.499C125.969 83.2165 126.2 82.9863 126.478 82.8086C126.751 82.6354 127.065 82.5192 127.421 82.46C127.776 82.3962 128.164 82.3643 128.583 82.3643H131.522V90ZM130.237 85.96V83.3896H128.617C128.266 83.3896 128.013 83.401 127.858 83.4238C127.703 83.4466 127.535 83.5081 127.353 83.6084C127.175 83.7087 127.043 83.8454 126.956 84.0186C126.874 84.1872 126.833 84.3717 126.833 84.5723C126.833 84.8229 126.858 85.0257 126.908 85.1807C126.963 85.3356 127.072 85.4814 127.236 85.6182C127.405 85.7503 127.61 85.8415 127.852 85.8916C128.093 85.9372 128.362 85.96 128.658 85.96H130.237ZM146.76 86.8486C146.76 87.3408 146.662 87.7874 146.466 88.1885C146.274 88.5895 146.017 88.9154 145.693 89.166C145.311 89.4668 144.9 89.681 144.463 89.8086C144.025 89.9362 143.46 90 142.768 90H139.076V79.8213H145.892V81.0244H140.43V83.8135H142.809C143.501 83.8135 144.066 83.8545 144.504 83.9365C144.941 84.014 145.354 84.2031 145.741 84.5039C146.088 84.7728 146.343 85.1055 146.507 85.502C146.675 85.8984 146.76 86.3473 146.76 86.8486ZM145.345 86.876C145.345 86.5342 145.288 86.2334 145.174 85.9736C145.06 85.7139 144.882 85.5042 144.641 85.3447C144.39 85.1761 144.101 85.0736 143.772 85.0371C143.444 85.0007 142.982 84.9824 142.385 84.9824H140.43V88.8447H142.351C142.957 88.8447 143.422 88.8151 143.745 88.7559C144.073 88.6966 144.36 88.5827 144.606 88.4141C144.862 88.2363 145.049 88.029 145.167 87.792C145.285 87.5505 145.345 87.2451 145.345 86.876ZM155.004 90H153.732V84.2646L149.733 90H148.571V82.3643H149.843V88.0176L153.801 82.3643H155.004V90ZM162.852 87.8604C162.852 88.2887 162.751 88.651 162.551 88.9473C162.355 89.2435 162.102 89.4827 161.792 89.665C161.482 89.8428 161.14 89.9727 160.767 90.0547C160.393 90.1367 160.019 90.1777 159.646 90.1777C159.117 90.1777 158.613 90.1276 158.135 90.0273C157.656 89.9271 157.185 89.7721 156.72 89.5625V88.1543H156.809C157.141 88.446 157.565 88.6715 158.08 88.8311C158.595 88.9906 159.094 89.0703 159.577 89.0703C159.805 89.0703 160.04 89.0498 160.281 89.0088C160.523 88.9632 160.732 88.8926 160.91 88.7969C161.102 88.6875 161.254 88.5576 161.368 88.4072C161.482 88.2523 161.539 88.0426 161.539 87.7783C161.539 87.5049 161.482 87.2861 161.368 87.1221C161.259 86.958 161.108 86.835 160.917 86.7529C160.73 86.6709 160.505 86.6208 160.24 86.6025C159.976 86.5843 159.734 86.5752 159.516 86.5752H158.401V85.4678H159.174C159.356 85.4678 159.593 85.4609 159.885 85.4473C160.181 85.4336 160.42 85.3971 160.603 85.3379C160.84 85.2604 161.026 85.151 161.163 85.0098C161.304 84.8685 161.375 84.6429 161.375 84.333C161.375 84.1188 161.32 83.9434 161.211 83.8066C161.102 83.6654 160.965 83.556 160.801 83.4785C160.632 83.401 160.443 83.3486 160.233 83.3213C160.028 83.2939 159.846 83.2803 159.687 83.2803C159.222 83.2803 158.764 83.3441 158.312 83.4717C157.866 83.5947 157.49 83.7747 157.185 84.0117H157.096V82.5967C157.474 82.4736 157.88 82.3734 158.312 82.2959C158.745 82.2184 159.178 82.1797 159.611 82.1797C159.967 82.1797 160.32 82.2116 160.671 82.2754C161.026 82.3392 161.357 82.4486 161.662 82.6035C161.963 82.7585 162.209 82.9704 162.4 83.2393C162.592 83.5036 162.688 83.8317 162.688 84.2236C162.688 84.6247 162.562 84.9779 162.312 85.2832C162.065 85.584 161.733 85.8005 161.313 85.9326V85.9805C161.783 86.0944 162.157 86.3086 162.435 86.623C162.713 86.9329 162.852 87.3454 162.852 87.8604ZM171.273 90H169.988V86.5615H166.167V90H164.882V82.3643H166.167V85.4541H169.988V82.3643H171.273V90ZM180.201 86.3154H174.575C174.575 86.7848 174.646 87.195 174.787 87.5459C174.928 87.8923 175.122 88.1771 175.368 88.4004C175.605 88.6191 175.885 88.7832 176.209 88.8926C176.537 89.002 176.897 89.0566 177.289 89.0566C177.809 89.0566 178.33 88.9541 178.854 88.749C179.383 88.5394 179.759 88.3343 179.982 88.1338H180.051V89.5352C179.618 89.7174 179.176 89.8701 178.725 89.9932C178.273 90.1162 177.799 90.1777 177.303 90.1777C176.036 90.1777 175.047 89.8359 174.336 89.1523C173.625 88.4642 173.27 87.4889 173.27 86.2266C173.27 84.9779 173.609 83.9867 174.288 83.2529C174.972 82.5192 175.869 82.1523 176.981 82.1523C178.011 82.1523 178.804 82.4531 179.36 83.0547C179.921 83.6562 180.201 84.5107 180.201 85.6182V86.3154ZM178.95 85.3311C178.946 84.6566 178.775 84.1348 178.438 83.7656C178.105 83.3965 177.597 83.2119 176.913 83.2119C176.225 83.2119 175.676 83.4147 175.266 83.8203C174.86 84.2259 174.63 84.7295 174.575 85.3311H178.95ZM187.864 89.5215C187.34 89.7676 186.889 89.9362 186.511 90.0273C186.137 90.123 185.763 90.1709 185.39 90.1709C184.834 90.1709 184.323 90.0911 183.858 89.9316C183.394 89.7676 182.995 89.5215 182.662 89.1934C182.329 88.8652 182.07 88.4505 181.883 87.9492C181.701 87.4479 181.609 86.8623 181.609 86.1924C181.609 84.9756 181.947 84.0049 182.621 83.2803C183.296 82.5511 184.218 82.1865 185.39 82.1865C185.832 82.1865 186.265 82.248 186.688 82.3711C187.117 82.4941 187.509 82.6445 187.864 82.8223V84.251H187.789C187.365 83.9274 186.946 83.6882 186.531 83.5332C186.121 83.3783 185.722 83.3008 185.335 83.3008C184.574 83.3008 183.984 83.556 183.564 84.0664C183.15 84.5768 182.942 85.2855 182.942 86.1924C182.942 87.0993 183.15 87.8034 183.564 88.3047C183.979 88.806 184.569 89.0566 185.335 89.0566C185.604 89.0566 185.87 89.0225 186.135 88.9541C186.404 88.8857 186.647 88.7969 186.866 88.6875C187.039 88.6009 187.217 88.4984 187.399 88.3799C187.586 88.2568 187.716 88.1657 187.789 88.1064H187.864V89.5215ZM47.5498 107H45.8135L41.6777 102.358H40.7549V107H39.4014V96.8213H40.7549V101.388C40.9873 101.383 41.2061 101.36 41.4111 101.319C41.6162 101.278 41.8099 101.201 41.9922 101.087C42.1745 100.982 42.3545 100.834 42.5322 100.643C42.71 100.447 42.8672 100.207 43.0039 99.9248C43.0632 99.8018 43.1315 99.6468 43.209 99.46C43.291 99.2731 43.373 99.0771 43.4551 98.8721C43.7695 98.1156 44.1364 97.5846 44.5557 97.2793C44.9795 96.974 45.6016 96.8213 46.4219 96.8213H46.9619V98.0312H46.3945C46.0801 98.0312 45.834 98.0609 45.6562 98.1201C45.4785 98.1748 45.319 98.2682 45.1777 98.4004C45.0456 98.5189 44.9294 98.6784 44.8291 98.8789C44.7334 99.0794 44.6331 99.3141 44.5283 99.583C44.2913 100.185 44.0498 100.627 43.8037 100.909C43.5622 101.192 43.2363 101.438 42.8262 101.647L47.5498 107ZM55.4795 103.186C55.4795 104.43 55.1605 105.412 54.5225 106.132C53.8844 106.852 53.0299 107.212 51.959 107.212C50.8789 107.212 50.0199 106.852 49.3818 106.132C48.7484 105.412 48.4316 104.43 48.4316 103.186C48.4316 101.941 48.7484 100.959 49.3818 100.239C50.0199 99.5146 50.8789 99.1523 51.959 99.1523C53.0299 99.1523 53.8844 99.5146 54.5225 100.239C55.1605 100.959 55.4795 101.941 55.4795 103.186ZM54.1533 103.186C54.1533 102.197 53.9596 101.463 53.5723 100.984C53.1849 100.501 52.6471 100.26 51.959 100.26C51.2617 100.26 50.7194 100.501 50.332 100.984C49.9492 101.463 49.7578 102.197 49.7578 103.186C49.7578 104.143 49.9515 104.869 50.3389 105.366C50.7262 105.858 51.2663 106.104 51.959 106.104C52.6426 106.104 53.1781 105.861 53.5654 105.373C53.9574 104.881 54.1533 104.152 54.1533 103.186ZM63.8672 107H62.582V103.562H58.7607V107H57.4756V99.3643H58.7607V102.454H62.582V99.3643H63.8672V107ZM76.1514 102.98C76.1514 103.66 76.0648 104.261 75.8916 104.785C75.7184 105.305 75.4883 105.733 75.2012 106.07C74.9186 106.408 74.5928 106.665 74.2236 106.843C73.8545 107.021 73.4671 107.109 73.0615 107.109C72.7562 107.109 72.4896 107.057 72.2617 106.952C72.0384 106.847 71.8379 106.752 71.6602 106.665V109.816H70.3887V106.665C70.1107 106.802 69.8805 106.911 69.6982 106.993C69.5205 107.071 69.2402 107.109 68.8574 107.109C67.9779 107.109 67.2646 106.765 66.7178 106.077C66.1709 105.389 65.8975 104.432 65.8975 103.206C65.8975 102.563 65.9863 101.992 66.1641 101.49C66.3418 100.984 66.5742 100.561 66.8613 100.219C67.1393 99.8861 67.4652 99.6331 67.8389 99.46C68.2171 99.2822 68.5931 99.1934 68.9668 99.1934C69.2402 99.1934 69.4886 99.2367 69.7119 99.3232C69.9398 99.4053 70.1654 99.5146 70.3887 99.6514V96.3633H71.6602V99.6514C71.8698 99.5283 72.1159 99.4212 72.3984 99.3301C72.681 99.2389 72.9658 99.1934 73.2529 99.1934C74.1553 99.1934 74.8639 99.5352 75.3789 100.219C75.8939 100.898 76.1514 101.818 76.1514 102.98ZM74.832 103.124C74.832 102.254 74.6771 101.565 74.3672 101.06C74.0573 100.554 73.5924 100.301 72.9727 100.301C72.722 100.301 72.5124 100.321 72.3438 100.362C72.1751 100.403 71.9473 100.481 71.6602 100.595V105.688C71.8743 105.788 72.0521 105.868 72.1934 105.927C72.3392 105.981 72.5443 106.009 72.8086 106.009C73.4512 106.009 73.9479 105.763 74.2988 105.271C74.6543 104.774 74.832 104.058 74.832 103.124ZM70.3887 105.688V100.595C70.2109 100.513 70.0309 100.444 69.8486 100.39C69.6663 100.33 69.4635 100.301 69.2402 100.301C68.625 100.301 68.1328 100.535 67.7637 101.005C67.3991 101.474 67.2168 102.188 67.2168 103.145C67.2168 104.033 67.3786 104.733 67.7021 105.243C68.0303 105.754 68.502 106.009 69.1172 106.009C69.3587 106.009 69.582 105.977 69.7871 105.913C69.9967 105.845 70.1973 105.77 70.3887 105.688ZM84.5664 103.315H78.9404C78.9404 103.785 79.0111 104.195 79.1523 104.546C79.2936 104.892 79.4873 105.177 79.7334 105.4C79.9704 105.619 80.2507 105.783 80.5742 105.893C80.9023 106.002 81.2624 106.057 81.6543 106.057C82.1738 106.057 82.6956 105.954 83.2197 105.749C83.7484 105.539 84.1243 105.334 84.3477 105.134H84.416V106.535C83.9831 106.717 83.541 106.87 83.0898 106.993C82.6387 107.116 82.1647 107.178 81.668 107.178C80.401 107.178 79.4121 106.836 78.7012 106.152C77.9902 105.464 77.6348 104.489 77.6348 103.227C77.6348 101.978 77.9743 100.987 78.6533 100.253C79.3369 99.5192 80.2347 99.1523 81.3467 99.1523C82.3766 99.1523 83.1696 99.4531 83.7256 100.055C84.2861 100.656 84.5664 101.511 84.5664 102.618V103.315ZM83.3154 102.331C83.3109 101.657 83.14 101.135 82.8027 100.766C82.4701 100.396 81.9619 100.212 81.2783 100.212C80.5902 100.212 80.041 100.415 79.6309 100.82C79.2253 101.226 78.9951 101.729 78.9404 102.331H83.3154ZM93.2344 103.09C93.2344 103.71 93.1455 104.277 92.9678 104.792C92.79 105.302 92.5394 105.735 92.2158 106.091C91.915 106.428 91.5596 106.69 91.1494 106.877C90.7438 107.059 90.3132 107.15 89.8574 107.15C89.4609 107.15 89.1009 107.107 88.7773 107.021C88.4583 106.934 88.1325 106.799 87.7998 106.617V109.816H86.5146V99.3643H87.7998V100.164C88.1416 99.877 88.5244 99.6377 88.9482 99.4463C89.3766 99.2503 89.8324 99.1523 90.3154 99.1523C91.236 99.1523 91.9515 99.501 92.4619 100.198C92.9769 100.891 93.2344 101.855 93.2344 103.09ZM91.9082 103.124C91.9082 102.203 91.751 101.515 91.4365 101.06C91.1221 100.604 90.639 100.376 89.9873 100.376C89.6182 100.376 89.2467 100.456 88.873 100.615C88.4993 100.775 88.1416 100.984 87.7998 101.244V105.571C88.1644 105.735 88.4766 105.847 88.7363 105.906C89.0007 105.965 89.2992 105.995 89.6318 105.995C90.3473 105.995 90.9056 105.754 91.3066 105.271C91.7077 104.787 91.9082 104.072 91.9082 103.124ZM101.629 103.315H96.0029C96.0029 103.785 96.0736 104.195 96.2148 104.546C96.3561 104.892 96.5498 105.177 96.7959 105.4C97.0329 105.619 97.3132 105.783 97.6367 105.893C97.9648 106.002 98.3249 106.057 98.7168 106.057C99.2363 106.057 99.7581 105.954 100.282 105.749C100.811 105.539 101.187 105.334 101.41 105.134H101.479V106.535C101.046 106.717 100.604 106.87 100.152 106.993C99.7012 107.116 99.2272 107.178 98.7305 107.178C97.4635 107.178 96.4746 106.836 95.7637 106.152C95.0527 105.464 94.6973 104.489 94.6973 103.227C94.6973 101.978 95.0368 100.987 95.7158 100.253C96.3994 99.5192 97.2972 99.1523 98.4092 99.1523C99.4391 99.1523 100.232 99.4531 100.788 100.055C101.349 100.656 101.629 101.511 101.629 102.618V103.315ZM100.378 102.331C100.373 101.657 100.202 101.135 99.8652 100.766C99.5326 100.396 99.0244 100.212 98.3408 100.212C97.6527 100.212 97.1035 100.415 96.6934 100.82C96.2878 101.226 96.0576 101.729 96.0029 102.331H100.378ZM109.969 107H108.684V103.562H104.862V107H103.577V99.3643H104.862V102.454H108.684V99.3643H109.969V107ZM118.562 107H112.505V99.3643H113.79V105.893H117.55V99.3643H118.835V105.893H119.758V108.832H118.562V107ZM127.961 107H126.689V101.265L122.69 107H121.528V99.3643H122.8V105.018L126.758 99.3643H127.961V107ZM136.93 107H135.658V101.265L131.659 107H130.497V99.3643H131.769V105.018L135.727 99.3643H136.93V107ZM136.198 96.3564C136.175 97.0309 135.961 97.5573 135.556 97.9355C135.155 98.3138 134.569 98.5029 133.799 98.5029C133.029 98.5029 132.441 98.3138 132.035 97.9355C131.634 97.5573 131.422 97.0309 131.399 96.3564H132.568C132.573 96.835 132.678 97.1813 132.883 97.3955C133.092 97.6097 133.398 97.7168 133.799 97.7168C134.204 97.7168 134.51 97.612 134.715 97.4023C134.92 97.1927 135.025 96.8441 135.029 96.3564H136.198Z" fill="#333333"/>
<path d="M5 133L12.5 140.5L25 125.5" stroke="#61B857" stroke-width="2" stroke-linecap="round" stroke-linejoin="round"/>
<path d="M46.9551 122.99C47.3698 123.446 47.6865 124.004 47.9053 124.665C48.1286 125.326 48.2402 126.076 48.2402 126.914C48.2402 127.753 48.1263 128.505 47.8984 129.17C47.6751 129.831 47.3607 130.382 46.9551 130.824C46.5358 131.285 46.0391 131.631 45.4648 131.863C44.8952 132.096 44.2435 132.212 43.5098 132.212C42.7943 132.212 42.1426 132.093 41.5547 131.856C40.9714 131.619 40.4746 131.275 40.0645 130.824C39.6543 130.373 39.3376 129.819 39.1143 129.163C38.8955 128.507 38.7861 127.757 38.7861 126.914C38.7861 126.085 38.8955 125.342 39.1143 124.686C39.333 124.025 39.652 123.46 40.0713 122.99C40.4723 122.544 40.9691 122.202 41.5615 121.965C42.1585 121.728 42.8079 121.609 43.5098 121.609C44.2389 121.609 44.8929 121.73 45.4717 121.972C46.055 122.209 46.5495 122.548 46.9551 122.99ZM46.832 126.914C46.832 125.592 46.5358 124.574 45.9434 123.858C45.3509 123.138 44.542 122.778 43.5166 122.778C42.4821 122.778 41.6686 123.138 41.0762 123.858C40.4883 124.574 40.1943 125.592 40.1943 126.914C40.1943 128.249 40.4951 129.272 41.0967 129.983C41.6982 130.69 42.5049 131.043 43.5166 131.043C44.5283 131.043 45.3327 130.69 45.9297 129.983C46.5312 129.272 46.832 128.249 46.832 126.914ZM57.0039 128.09C57.0039 128.71 56.915 129.277 56.7373 129.792C56.5596 130.302 56.3089 130.735 55.9854 131.091C55.6846 131.428 55.3291 131.69 54.9189 131.877C54.5133 132.059 54.0827 132.15 53.627 132.15C53.2305 132.15 52.8704 132.107 52.5469 132.021C52.2279 131.934 51.902 131.799 51.5693 131.617V134.816H50.2842V124.364H51.5693V125.164C51.9111 124.877 52.2939 124.638 52.7178 124.446C53.1462 124.25 53.6019 124.152 54.085 124.152C55.0055 124.152 55.721 124.501 56.2314 125.198C56.7464 125.891 57.0039 126.855 57.0039 128.09ZM55.6777 128.124C55.6777 127.203 55.5205 126.515 55.2061 126.06C54.8916 125.604 54.4085 125.376 53.7568 125.376C53.3877 125.376 53.0163 125.456 52.6426 125.615C52.2689 125.775 51.9111 125.984 51.5693 126.244V130.571C51.9339 130.735 52.2461 130.847 52.5059 130.906C52.7702 130.965 53.0687 130.995 53.4014 130.995C54.1169 130.995 54.6751 130.754 55.0762 130.271C55.4772 129.787 55.6777 129.072 55.6777 128.124ZM64.2705 125.492H60.292V132H59.0068V124.364H64.2705V125.492ZM71.5439 132H70.2656V131.187C70.1517 131.264 69.9967 131.373 69.8008 131.515C69.6094 131.651 69.4225 131.761 69.2402 131.843C69.026 131.948 68.7799 132.034 68.502 132.103C68.224 132.175 67.8981 132.212 67.5244 132.212C66.8363 132.212 66.2529 131.984 65.7744 131.528C65.2959 131.073 65.0566 130.492 65.0566 129.785C65.0566 129.206 65.1797 128.739 65.4258 128.384C65.6764 128.024 66.0319 127.741 66.4922 127.536C66.957 127.331 67.5153 127.192 68.167 127.119C68.8187 127.046 69.5182 126.992 70.2656 126.955V126.757C70.2656 126.465 70.2132 126.224 70.1084 126.032C70.0081 125.841 69.8623 125.69 69.6709 125.581C69.4886 125.476 69.2699 125.406 69.0146 125.369C68.7594 125.333 68.4928 125.314 68.2148 125.314C67.8776 125.314 67.5016 125.36 67.0869 125.451C66.6722 125.538 66.2438 125.665 65.8018 125.834H65.7334V124.528C65.984 124.46 66.3464 124.385 66.8203 124.303C67.2943 124.221 67.7614 124.18 68.2217 124.18C68.7594 124.18 69.2266 124.225 69.623 124.316C70.0241 124.403 70.3704 124.553 70.6621 124.768C70.9492 124.977 71.168 125.248 71.3184 125.581C71.4688 125.914 71.5439 126.326 71.5439 126.818V132ZM70.2656 130.12V127.994C69.8737 128.017 69.4111 128.051 68.8779 128.097C68.3493 128.142 67.93 128.208 67.6201 128.295C67.251 128.4 66.9525 128.564 66.7246 128.787C66.4967 129.006 66.3828 129.309 66.3828 129.696C66.3828 130.134 66.515 130.464 66.7793 130.688C67.0436 130.906 67.4469 131.016 67.9893 131.016C68.4404 131.016 68.8529 130.929 69.2266 130.756C69.6003 130.578 69.9466 130.366 70.2656 130.12ZM80.4102 132H79.125V128.562H75.3037V132H74.0186V124.364H75.3037V127.454H79.125V124.364H80.4102V132ZM89.3789 132H88.1074V126.265L84.1084 132H82.9463V124.364H84.2178V130.018L88.1758 124.364H89.3789V132ZM97.2266 129.86C97.2266 130.289 97.1263 130.651 96.9258 130.947C96.7298 131.243 96.4769 131.483 96.167 131.665C95.8571 131.843 95.5153 131.973 95.1416 132.055C94.7679 132.137 94.3942 132.178 94.0205 132.178C93.4919 132.178 92.9883 132.128 92.5098 132.027C92.0312 131.927 91.5596 131.772 91.0947 131.562V130.154H91.1836C91.5163 130.446 91.9401 130.672 92.4551 130.831C92.9701 130.991 93.4691 131.07 93.9521 131.07C94.18 131.07 94.4147 131.05 94.6562 131.009C94.8978 130.963 95.1074 130.893 95.2852 130.797C95.4766 130.688 95.6292 130.558 95.7432 130.407C95.8571 130.252 95.9141 130.043 95.9141 129.778C95.9141 129.505 95.8571 129.286 95.7432 129.122C95.6338 128.958 95.4834 128.835 95.292 128.753C95.1051 128.671 94.8796 128.621 94.6152 128.603C94.3509 128.584 94.1094 128.575 93.8906 128.575H92.7764V127.468H93.5488C93.7311 127.468 93.9681 127.461 94.2598 127.447C94.556 127.434 94.7952 127.397 94.9775 127.338C95.2145 127.26 95.4014 127.151 95.5381 127.01C95.6794 126.868 95.75 126.643 95.75 126.333C95.75 126.119 95.6953 125.943 95.5859 125.807C95.4766 125.665 95.3398 125.556 95.1758 125.479C95.0072 125.401 94.818 125.349 94.6084 125.321C94.4033 125.294 94.221 125.28 94.0615 125.28C93.5967 125.28 93.1387 125.344 92.6875 125.472C92.2409 125.595 91.8649 125.775 91.5596 126.012H91.4707V124.597C91.849 124.474 92.2546 124.373 92.6875 124.296C93.1204 124.218 93.5534 124.18 93.9863 124.18C94.3418 124.18 94.695 124.212 95.0459 124.275C95.4014 124.339 95.7318 124.449 96.0371 124.604C96.3379 124.758 96.584 124.97 96.7754 125.239C96.9668 125.504 97.0625 125.832 97.0625 126.224C97.0625 126.625 96.9372 126.978 96.6865 127.283C96.4404 127.584 96.1077 127.8 95.6885 127.933V127.98C96.1579 128.094 96.5316 128.309 96.8096 128.623C97.0876 128.933 97.2266 129.345 97.2266 129.86ZM105.19 132H103.912V131.187C103.798 131.264 103.643 131.373 103.447 131.515C103.256 131.651 103.069 131.761 102.887 131.843C102.673 131.948 102.426 132.034 102.148 132.103C101.87 132.175 101.545 132.212 101.171 132.212C100.483 132.212 99.8994 131.984 99.4209 131.528C98.9424 131.073 98.7031 130.492 98.7031 129.785C98.7031 129.206 98.8262 128.739 99.0723 128.384C99.3229 128.024 99.6784 127.741 100.139 127.536C100.604 127.331 101.162 127.192 101.813 127.119C102.465 127.046 103.165 126.992 103.912 126.955V126.757C103.912 126.465 103.86 126.224 103.755 126.032C103.655 125.841 103.509 125.69 103.317 125.581C103.135 125.476 102.916 125.406 102.661 125.369C102.406 125.333 102.139 125.314 101.861 125.314C101.524 125.314 101.148 125.36 100.733 125.451C100.319 125.538 99.8903 125.665 99.4482 125.834H99.3799V124.528C99.6305 124.46 99.9928 124.385 100.467 124.303C100.941 124.221 101.408 124.18 101.868 124.18C102.406 124.18 102.873 124.225 103.27 124.316C103.671 124.403 104.017 124.553 104.309 124.768C104.596 124.977 104.814 125.248 104.965 125.581C105.115 125.914 105.19 126.326 105.19 126.818V132ZM103.912 130.12V127.994C103.52 128.017 103.058 128.051 102.524 128.097C101.996 128.142 101.576 128.208 101.267 128.295C100.897 128.4 100.599 128.564 100.371 128.787C100.143 129.006 100.029 129.309 100.029 129.696C100.029 130.134 100.161 130.464 100.426 130.688C100.69 130.906 101.093 131.016 101.636 131.016C102.087 131.016 102.499 130.929 102.873 130.756C103.247 130.578 103.593 130.366 103.912 130.12ZM113.722 132H107.665V124.364H108.95V130.893H112.71V124.364H113.995V130.893H114.918V133.832H113.722V132ZM123.121 132H121.85V126.265L117.851 132H116.688V124.364H117.96V130.018L121.918 124.364H123.121V132ZM131.522 132H130.237V128.972H128.727L126.361 132H124.851L127.421 128.849C126.76 128.666 126.277 128.388 125.972 128.015C125.666 127.636 125.514 127.142 125.514 126.531C125.514 126.126 125.605 125.782 125.787 125.499C125.969 125.216 126.2 124.986 126.478 124.809C126.751 124.635 127.065 124.519 127.421 124.46C127.776 124.396 128.164 124.364 128.583 124.364H131.522V132ZM130.237 127.96V125.39H128.617C128.266 125.39 128.013 125.401 127.858 125.424C127.703 125.447 127.535 125.508 127.353 125.608C127.175 125.709 127.043 125.845 126.956 126.019C126.874 126.187 126.833 126.372 126.833 126.572C126.833 126.823 126.858 127.026 126.908 127.181C126.963 127.336 127.072 127.481 127.236 127.618C127.405 127.75 127.61 127.841 127.852 127.892C128.093 127.937 128.362 127.96 128.658 127.96H130.237ZM146.76 128.849C146.76 129.341 146.662 129.787 146.466 130.188C146.274 130.59 146.017 130.915 145.693 131.166C145.311 131.467 144.9 131.681 144.463 131.809C144.025 131.936 143.46 132 142.768 132H139.076V121.821H145.892V123.024H140.43V125.813H142.809C143.501 125.813 144.066 125.854 144.504 125.937C144.941 126.014 145.354 126.203 145.741 126.504C146.088 126.773 146.343 127.105 146.507 127.502C146.675 127.898 146.76 128.347 146.76 128.849ZM145.345 128.876C145.345 128.534 145.288 128.233 145.174 127.974C145.06 127.714 144.882 127.504 144.641 127.345C144.39 127.176 144.101 127.074 143.772 127.037C143.444 127.001 142.982 126.982 142.385 126.982H140.43V130.845H142.351C142.957 130.845 143.422 130.815 143.745 130.756C144.073 130.697 144.36 130.583 144.606 130.414C144.862 130.236 145.049 130.029 145.167 129.792C145.285 129.55 145.345 129.245 145.345 128.876ZM155.004 132H153.732V126.265L149.733 132H148.571V124.364H149.843V130.018L153.801 124.364H155.004V132ZM162.852 129.86C162.852 130.289 162.751 130.651 162.551 130.947C162.355 131.243 162.102 131.483 161.792 131.665C161.482 131.843 161.14 131.973 160.767 132.055C160.393 132.137 160.019 132.178 159.646 132.178C159.117 132.178 158.613 132.128 158.135 132.027C157.656 131.927 157.185 131.772 156.72 131.562V130.154H156.809C157.141 130.446 157.565 130.672 158.08 130.831C158.595 130.991 159.094 131.07 159.577 131.07C159.805 131.07 160.04 131.05 160.281 131.009C160.523 130.963 160.732 130.893 160.91 130.797C161.102 130.688 161.254 130.558 161.368 130.407C161.482 130.252 161.539 130.043 161.539 129.778C161.539 129.505 161.482 129.286 161.368 129.122C161.259 128.958 161.108 128.835 160.917 128.753C160.73 128.671 160.505 128.621 160.24 128.603C159.976 128.584 159.734 128.575 159.516 128.575H158.401V127.468H159.174C159.356 127.468 159.593 127.461 159.885 127.447C160.181 127.434 160.42 127.397 160.603 127.338C160.84 127.26 161.026 127.151 161.163 127.01C161.304 126.868 161.375 126.643 161.375 126.333C161.375 126.119 161.32 125.943 161.211 125.807C161.102 125.665 160.965 125.556 160.801 125.479C160.632 125.401 160.443 125.349 160.233 125.321C160.028 125.294 159.846 125.28 159.687 125.28C159.222 125.28 158.764 125.344 158.312 125.472C157.866 125.595 157.49 125.775 157.185 126.012H157.096V124.597C157.474 124.474 157.88 124.373 158.312 124.296C158.745 124.218 159.178 124.18 159.611 124.18C159.967 124.18 160.32 124.212 160.671 124.275C161.026 124.339 161.357 124.449 161.662 124.604C161.963 124.758 162.209 124.97 162.4 125.239C162.592 125.504 162.688 125.832 162.688 126.224C162.688 126.625 162.562 126.978 162.312 127.283C162.065 127.584 161.733 127.8 161.313 127.933V127.98C161.783 128.094 162.157 128.309 162.435 128.623C162.713 128.933 162.852 129.345 162.852 129.86ZM171.273 132H169.988V128.562H166.167V132H164.882V124.364H166.167V127.454H169.988V124.364H171.273V132ZM180.201 128.315H174.575C174.575 128.785 174.646 129.195 174.787 129.546C174.928 129.892 175.122 130.177 175.368 130.4C175.605 130.619 175.885 130.783 176.209 130.893C176.537 131.002 176.897 131.057 177.289 131.057C177.809 131.057 178.33 130.954 178.854 130.749C179.383 130.539 179.759 130.334 179.982 130.134H180.051V131.535C179.618 131.717 179.176 131.87 178.725 131.993C178.273 132.116 177.799 132.178 177.303 132.178C176.036 132.178 175.047 131.836 174.336 131.152C173.625 130.464 173.27 129.489 173.27 128.227C173.27 126.978 173.609 125.987 174.288 125.253C174.972 124.519 175.869 124.152 176.981 124.152C178.011 124.152 178.804 124.453 179.36 125.055C179.921 125.656 180.201 126.511 180.201 127.618V128.315ZM178.95 127.331C178.946 126.657 178.775 126.135 178.438 125.766C178.105 125.396 177.597 125.212 176.913 125.212C176.225 125.212 175.676 125.415 175.266 125.82C174.86 126.226 174.63 126.729 174.575 127.331H178.95ZM187.864 131.521C187.34 131.768 186.889 131.936 186.511 132.027C186.137 132.123 185.763 132.171 185.39 132.171C184.834 132.171 184.323 132.091 183.858 131.932C183.394 131.768 182.995 131.521 182.662 131.193C182.329 130.865 182.07 130.451 181.883 129.949C181.701 129.448 181.609 128.862 181.609 128.192C181.609 126.976 181.947 126.005 182.621 125.28C183.296 124.551 184.218 124.187 185.39 124.187C185.832 124.187 186.265 124.248 186.688 124.371C187.117 124.494 187.509 124.645 187.864 124.822V126.251H187.789C187.365 125.927 186.946 125.688 186.531 125.533C186.121 125.378 185.722 125.301 185.335 125.301C184.574 125.301 183.984 125.556 183.564 126.066C183.15 126.577 182.942 127.285 182.942 128.192C182.942 129.099 183.15 129.803 183.564 130.305C183.979 130.806 184.569 131.057 185.335 131.057C185.604 131.057 185.87 131.022 186.135 130.954C186.404 130.886 186.647 130.797 186.866 130.688C187.039 130.601 187.217 130.498 187.399 130.38C187.586 130.257 187.716 130.166 187.789 130.106H187.864V131.521ZM47.5498 149H45.8135L41.6777 144.358H40.7549V149H39.4014V138.821H40.7549V143.388C40.9873 143.383 41.2061 143.36 41.4111 143.319C41.6162 143.278 41.8099 143.201 41.9922 143.087C42.1745 142.982 42.3545 142.834 42.5322 142.643C42.71 142.447 42.8672 142.207 43.0039 141.925C43.0632 141.802 43.1315 141.647 43.209 141.46C43.291 141.273 43.373 141.077 43.4551 140.872C43.7695 140.116 44.1364 139.585 44.5557 139.279C44.9795 138.974 45.6016 138.821 46.4219 138.821H46.9619V140.031H46.3945C46.0801 140.031 45.834 140.061 45.6562 140.12C45.4785 140.175 45.319 140.268 45.1777 140.4C45.0456 140.519 44.9294 140.678 44.8291 140.879C44.7334 141.079 44.6331 141.314 44.5283 141.583C44.2913 142.185 44.0498 142.627 43.8037 142.909C43.5622 143.192 43.2363 143.438 42.8262 143.647L47.5498 149ZM55.4795 145.186C55.4795 146.43 55.1605 147.412 54.5225 148.132C53.8844 148.852 53.0299 149.212 51.959 149.212C50.8789 149.212 50.0199 148.852 49.3818 148.132C48.7484 147.412 48.4316 146.43 48.4316 145.186C48.4316 143.941 48.7484 142.959 49.3818 142.239C50.0199 141.515 50.8789 141.152 51.959 141.152C53.0299 141.152 53.8844 141.515 54.5225 142.239C55.1605 142.959 55.4795 143.941 55.4795 145.186ZM54.1533 145.186C54.1533 144.197 53.9596 143.463 53.5723 142.984C53.1849 142.501 52.6471 142.26 51.959 142.26C51.2617 142.26 50.7194 142.501 50.332 142.984C49.9492 143.463 49.7578 144.197 49.7578 145.186C49.7578 146.143 49.9515 146.869 50.3389 147.366C50.7262 147.858 51.2663 148.104 51.959 148.104C52.6426 148.104 53.1781 147.861 53.5654 147.373C53.9574 146.881 54.1533 146.152 54.1533 145.186ZM63.8672 149H62.582V145.562H58.7607V149H57.4756V141.364H58.7607V144.454H62.582V141.364H63.8672V149ZM72.1182 148.521C71.5941 148.768 71.1429 148.936 70.7646 149.027C70.391 149.123 70.0173 149.171 69.6436 149.171C69.0876 149.171 68.5771 149.091 68.1123 148.932C67.6475 148.768 67.2487 148.521 66.916 148.193C66.5833 147.865 66.3236 147.451 66.1367 146.949C65.9544 146.448 65.8633 145.862 65.8633 145.192C65.8633 143.976 66.2005 143.005 66.875 142.28C67.5495 141.551 68.4723 141.187 69.6436 141.187C70.0856 141.187 70.5186 141.248 70.9424 141.371C71.3708 141.494 71.7627 141.645 72.1182 141.822V143.251H72.043C71.6191 142.927 71.1999 142.688 70.7852 142.533C70.375 142.378 69.9762 142.301 69.5889 142.301C68.8278 142.301 68.2376 142.556 67.8184 143.066C67.4036 143.577 67.1963 144.285 67.1963 145.192C67.1963 146.099 67.4036 146.803 67.8184 147.305C68.2331 147.806 68.8232 148.057 69.5889 148.057C69.8577 148.057 70.1243 148.022 70.3887 147.954C70.6576 147.886 70.9014 147.797 71.1201 147.688C71.2933 147.601 71.471 147.498 71.6533 147.38C71.8402 147.257 71.9701 147.166 72.043 147.106H72.1182V148.521ZM80.4854 141.364L76.0283 151.816H74.6543L76.0762 148.631L73.0342 141.364H74.4287L76.7734 147.024L79.1387 141.364H80.4854ZM88.3262 149H87.041V142.444H84.1904C84.1768 142.823 84.1631 143.187 84.1494 143.538C84.1357 143.889 84.1221 144.206 84.1084 144.488C84.0765 145.249 84.0241 145.858 83.9512 146.313C83.8783 146.765 83.7826 147.141 83.6641 147.441C83.5547 147.724 83.4316 147.954 83.2949 148.132C83.1628 148.305 83.0192 148.462 82.8643 148.604C82.7093 148.74 82.5361 148.843 82.3447 148.911C82.1579 148.979 81.9528 149.014 81.7295 149.014C81.652 149.014 81.5381 149.011 81.3877 149.007C81.2419 149.002 81.1462 149 81.1006 149V147.879H81.1689C81.2054 147.879 81.2578 147.881 81.3262 147.886C81.3945 147.89 81.4515 147.893 81.4971 147.893C81.6064 147.893 81.7181 147.877 81.832 147.845C81.9505 147.813 82.0508 147.754 82.1328 147.667C82.3652 147.439 82.5521 147.054 82.6934 146.512C82.8346 145.969 82.9281 145.186 82.9736 144.16C82.9919 143.786 83.0078 143.344 83.0215 142.834C83.0397 142.319 83.0557 141.829 83.0693 141.364H88.3262V149ZM95.6338 146.655C95.6338 146.423 95.5928 146.22 95.5107 146.047C95.4333 145.869 95.3034 145.726 95.1211 145.616C94.9297 145.502 94.7109 145.434 94.4648 145.411C94.2233 145.388 93.8747 145.377 93.4189 145.377H92.1475V147.975H93.3916C93.8473 147.975 94.2005 147.956 94.4512 147.92C94.7018 147.879 94.9183 147.804 95.1006 147.694C95.2874 147.576 95.4219 147.437 95.5039 147.277C95.5905 147.113 95.6338 146.906 95.6338 146.655ZM96.96 146.635C96.96 147.004 96.8848 147.339 96.7344 147.64C96.5885 147.94 96.388 148.184 96.1328 148.371C95.832 148.599 95.5107 148.761 95.1689 148.856C94.8271 148.952 94.3874 149 93.8496 149H90.8623V141.364H92.1475V144.338H93.8838C94.458 144.338 94.9023 144.368 95.2168 144.427C95.5358 144.486 95.8525 144.632 96.167 144.864C96.4313 145.06 96.6296 145.311 96.7617 145.616C96.8939 145.922 96.96 146.261 96.96 146.635ZM104.473 142.492H101.711V149H100.426V142.492H97.6641V141.364H104.473V142.492ZM111.739 149H110.461V148.187C110.347 148.264 110.192 148.373 109.996 148.515C109.805 148.651 109.618 148.761 109.436 148.843C109.221 148.948 108.975 149.034 108.697 149.103C108.419 149.175 108.093 149.212 107.72 149.212C107.032 149.212 106.448 148.984 105.97 148.528C105.491 148.073 105.252 147.492 105.252 146.785C105.252 146.206 105.375 145.739 105.621 145.384C105.872 145.024 106.227 144.741 106.688 144.536C107.152 144.331 107.711 144.192 108.362 144.119C109.014 144.046 109.714 143.992 110.461 143.955V143.757C110.461 143.465 110.409 143.224 110.304 143.032C110.203 142.841 110.058 142.69 109.866 142.581C109.684 142.476 109.465 142.406 109.21 142.369C108.955 142.333 108.688 142.314 108.41 142.314C108.073 142.314 107.697 142.36 107.282 142.451C106.868 142.538 106.439 142.665 105.997 142.834H105.929V141.528C106.179 141.46 106.542 141.385 107.016 141.303C107.49 141.221 107.957 141.18 108.417 141.18C108.955 141.18 109.422 141.225 109.818 141.316C110.219 141.403 110.566 141.553 110.857 141.768C111.145 141.977 111.363 142.248 111.514 142.581C111.664 142.914 111.739 143.326 111.739 143.818V149ZM110.461 147.12V144.994C110.069 145.017 109.606 145.051 109.073 145.097C108.545 145.142 108.125 145.208 107.815 145.295C107.446 145.4 107.148 145.564 106.92 145.787C106.692 146.006 106.578 146.309 106.578 146.696C106.578 147.134 106.71 147.464 106.975 147.688C107.239 147.906 107.642 148.016 108.185 148.016C108.636 148.016 109.048 147.929 109.422 147.756C109.796 147.578 110.142 147.366 110.461 147.12ZM120.271 149H114.214V141.364H115.499V147.893H119.259V141.364H120.544V147.893H121.467V150.832H120.271V149ZM129.67 149H128.398V143.265L124.399 149H123.237V141.364H124.509V147.018L128.467 141.364H129.67V149ZM138.639 149H137.367V143.265L133.368 149H132.206V141.364H133.478V147.018L137.436 141.364H138.639V149Z" fill="#333333"/>
<path d="M5 175L12.5 182.5L25 167.5" stroke="#61B857" stroke-width="2" stroke-linecap="round" stroke-linejoin="round"/>
<path d="M46.9551 164.99C47.3698 165.446 47.6865 166.004 47.9053 166.665C48.1286 167.326 48.2402 168.076 48.2402 168.914C48.2402 169.753 48.1263 170.505 47.8984 171.17C47.6751 171.831 47.3607 172.382 46.9551 172.824C46.5358 173.285 46.0391 173.631 45.4648 173.863C44.8952 174.096 44.2435 174.212 43.5098 174.212C42.7943 174.212 42.1426 174.093 41.5547 173.856C40.9714 173.619 40.4746 173.275 40.0645 172.824C39.6543 172.373 39.3376 171.819 39.1143 171.163C38.8955 170.507 38.7861 169.757 38.7861 168.914C38.7861 168.085 38.8955 167.342 39.1143 166.686C39.333 166.025 39.652 165.46 40.0713 164.99C40.4723 164.544 40.9691 164.202 41.5615 163.965C42.1585 163.728 42.8079 163.609 43.5098 163.609C44.2389 163.609 44.8929 163.73 45.4717 163.972C46.055 164.209 46.5495 164.548 46.9551 164.99ZM46.832 168.914C46.832 167.592 46.5358 166.574 45.9434 165.858C45.3509 165.138 44.542 164.778 43.5166 164.778C42.4821 164.778 41.6686 165.138 41.0762 165.858C40.4883 166.574 40.1943 167.592 40.1943 168.914C40.1943 170.249 40.4951 171.272 41.0967 171.983C41.6982 172.69 42.5049 173.043 43.5166 173.043C44.5283 173.043 45.3327 172.69 45.9297 171.983C46.5312 171.272 46.832 170.249 46.832 168.914ZM57.0039 170.09C57.0039 170.71 56.915 171.277 56.7373 171.792C56.5596 172.302 56.3089 172.735 55.9854 173.091C55.6846 173.428 55.3291 173.69 54.9189 173.877C54.5133 174.059 54.0827 174.15 53.627 174.15C53.2305 174.15 52.8704 174.107 52.5469 174.021C52.2279 173.934 51.902 173.799 51.5693 173.617V176.816H50.2842V166.364H51.5693V167.164C51.9111 166.877 52.2939 166.638 52.7178 166.446C53.1462 166.25 53.6019 166.152 54.085 166.152C55.0055 166.152 55.721 166.501 56.2314 167.198C56.7464 167.891 57.0039 168.855 57.0039 170.09ZM55.6777 170.124C55.6777 169.203 55.5205 168.515 55.2061 168.06C54.8916 167.604 54.4085 167.376 53.7568 167.376C53.3877 167.376 53.0163 167.456 52.6426 167.615C52.2689 167.775 51.9111 167.984 51.5693 168.244V172.571C51.9339 172.735 52.2461 172.847 52.5059 172.906C52.7702 172.965 53.0687 172.995 53.4014 172.995C54.1169 172.995 54.6751 172.754 55.0762 172.271C55.4772 171.787 55.6777 171.072 55.6777 170.124ZM64.2705 167.492H60.292V174H59.0068V166.364H64.2705V167.492ZM71.5439 174H70.2656V173.187C70.1517 173.264 69.9967 173.373 69.8008 173.515C69.6094 173.651 69.4225 173.761 69.2402 173.843C69.026 173.948 68.7799 174.034 68.502 174.103C68.224 174.175 67.8981 174.212 67.5244 174.212C66.8363 174.212 66.2529 173.984 65.7744 173.528C65.2959 173.073 65.0566 172.492 65.0566 171.785C65.0566 171.206 65.1797 170.739 65.4258 170.384C65.6764 170.024 66.0319 169.741 66.4922 169.536C66.957 169.331 67.5153 169.192 68.167 169.119C68.8187 169.046 69.5182 168.992 70.2656 168.955V168.757C70.2656 168.465 70.2132 168.224 70.1084 168.032C70.0081 167.841 69.8623 167.69 69.6709 167.581C69.4886 167.476 69.2699 167.406 69.0146 167.369C68.7594 167.333 68.4928 167.314 68.2148 167.314C67.8776 167.314 67.5016 167.36 67.0869 167.451C66.6722 167.538 66.2438 167.665 65.8018 167.834H65.7334V166.528C65.984 166.46 66.3464 166.385 66.8203 166.303C67.2943 166.221 67.7614 166.18 68.2217 166.18C68.7594 166.18 69.2266 166.225 69.623 166.316C70.0241 166.403 70.3704 166.553 70.6621 166.768C70.9492 166.977 71.168 167.248 71.3184 167.581C71.4688 167.914 71.5439 168.326 71.5439 168.818V174ZM70.2656 172.12V169.994C69.8737 170.017 69.4111 170.051 68.8779 170.097C68.3493 170.142 67.93 170.208 67.6201 170.295C67.251 170.4 66.9525 170.564 66.7246 170.787C66.4967 171.006 66.3828 171.309 66.3828 171.696C66.3828 172.134 66.515 172.464 66.7793 172.688C67.0436 172.906 67.4469 173.016 67.9893 173.016C68.4404 173.016 68.8529 172.929 69.2266 172.756C69.6003 172.578 69.9466 172.366 70.2656 172.12ZM80.4102 174H79.125V170.562H75.3037V174H74.0186V166.364H75.3037V169.454H79.125V166.364H80.4102V174ZM89.3789 174H88.1074V168.265L84.1084 174H82.9463V166.364H84.2178V172.018L88.1758 166.364H89.3789V174ZM97.2266 171.86C97.2266 172.289 97.1263 172.651 96.9258 172.947C96.7298 173.243 96.4769 173.483 96.167 173.665C95.8571 173.843 95.5153 173.973 95.1416 174.055C94.7679 174.137 94.3942 174.178 94.0205 174.178C93.4919 174.178 92.9883 174.128 92.5098 174.027C92.0312 173.927 91.5596 173.772 91.0947 173.562V172.154H91.1836C91.5163 172.446 91.9401 172.672 92.4551 172.831C92.9701 172.991 93.4691 173.07 93.9521 173.07C94.18 173.07 94.4147 173.05 94.6562 173.009C94.8978 172.963 95.1074 172.893 95.2852 172.797C95.4766 172.688 95.6292 172.558 95.7432 172.407C95.8571 172.252 95.9141 172.043 95.9141 171.778C95.9141 171.505 95.8571 171.286 95.7432 171.122C95.6338 170.958 95.4834 170.835 95.292 170.753C95.1051 170.671 94.8796 170.621 94.6152 170.603C94.3509 170.584 94.1094 170.575 93.8906 170.575H92.7764V169.468H93.5488C93.7311 169.468 93.9681 169.461 94.2598 169.447C94.556 169.434 94.7952 169.397 94.9775 169.338C95.2145 169.26 95.4014 169.151 95.5381 169.01C95.6794 168.868 95.75 168.643 95.75 168.333C95.75 168.119 95.6953 167.943 95.5859 167.807C95.4766 167.665 95.3398 167.556 95.1758 167.479C95.0072 167.401 94.818 167.349 94.6084 167.321C94.4033 167.294 94.221 167.28 94.0615 167.28C93.5967 167.28 93.1387 167.344 92.6875 167.472C92.2409 167.595 91.8649 167.775 91.5596 168.012H91.4707V166.597C91.849 166.474 92.2546 166.373 92.6875 166.296C93.1204 166.218 93.5534 166.18 93.9863 166.18C94.3418 166.18 94.695 166.212 95.0459 166.275C95.4014 166.339 95.7318 166.449 96.0371 166.604C96.3379 166.758 96.584 166.97 96.7754 167.239C96.9668 167.504 97.0625 167.832 97.0625 168.224C97.0625 168.625 96.9372 168.978 96.6865 169.283C96.4404 169.584 96.1077 169.8 95.6885 169.933V169.98C96.1579 170.094 96.5316 170.309 96.8096 170.623C97.0876 170.933 97.2266 171.345 97.2266 171.86ZM105.19 174H103.912V173.187C103.798 173.264 103.643 173.373 103.447 173.515C103.256 173.651 103.069 173.761 102.887 173.843C102.673 173.948 102.426 174.034 102.148 174.103C101.87 174.175 101.545 174.212 101.171 174.212C100.483 174.212 99.8994 173.984 99.4209 173.528C98.9424 173.073 98.7031 172.492 98.7031 171.785C98.7031 171.206 98.8262 170.739 99.0723 170.384C99.3229 170.024 99.6784 169.741 100.139 169.536C100.604 169.331 101.162 169.192 101.813 169.119C102.465 169.046 103.165 168.992 103.912 168.955V168.757C103.912 168.465 103.86 168.224 103.755 168.032C103.655 167.841 103.509 167.69 103.317 167.581C103.135 167.476 102.916 167.406 102.661 167.369C102.406 167.333 102.139 167.314 101.861 167.314C101.524 167.314 101.148 167.36 100.733 167.451C100.319 167.538 99.8903 167.665 99.4482 167.834H99.3799V166.528C99.6305 166.46 99.9928 166.385 100.467 166.303C100.941 166.221 101.408 166.18 101.868 166.18C102.406 166.18 102.873 166.225 103.27 166.316C103.671 166.403 104.017 166.553 104.309 166.768C104.596 166.977 104.814 167.248 104.965 167.581C105.115 167.914 105.19 168.326 105.19 168.818V174ZM103.912 172.12V169.994C103.52 170.017 103.058 170.051 102.524 170.097C101.996 170.142 101.576 170.208 101.267 170.295C100.897 170.4 100.599 170.564 100.371 170.787C100.143 171.006 100.029 171.309 100.029 171.696C100.029 172.134 100.161 172.464 100.426 172.688C100.69 172.906 101.093 173.016 101.636 173.016C102.087 173.016 102.499 172.929 102.873 172.756C103.247 172.578 103.593 172.366 103.912 172.12ZM113.722 174H107.665V166.364H108.95V172.893H112.71V166.364H113.995V172.893H114.918V175.832H113.722V174ZM123.121 174H121.85V168.265L117.851 174H116.688V166.364H117.96V172.018L121.918 166.364H123.121V174ZM131.522 174H130.237V170.972H128.727L126.361 174H124.851L127.421 170.849C126.76 170.666 126.277 170.388 125.972 170.015C125.666 169.636 125.514 169.142 125.514 168.531C125.514 168.126 125.605 167.782 125.787 167.499C125.969 167.216 126.2 166.986 126.478 166.809C126.751 166.635 127.065 166.519 127.421 166.46C127.776 166.396 128.164 166.364 128.583 166.364H131.522V174ZM130.237 169.96V167.39H128.617C128.266 167.39 128.013 167.401 127.858 167.424C127.703 167.447 127.535 167.508 127.353 167.608C127.175 167.709 127.043 167.845 126.956 168.019C126.874 168.187 126.833 168.372 126.833 168.572C126.833 168.823 126.858 169.026 126.908 169.181C126.963 169.336 127.072 169.481 127.236 169.618C127.405 169.75 127.61 169.841 127.852 169.892C128.093 169.937 128.362 169.96 128.658 169.96H130.237ZM146.76 170.849C146.76 171.341 146.662 171.787 146.466 172.188C146.274 172.59 146.017 172.915 145.693 173.166C145.311 173.467 144.9 173.681 144.463 173.809C144.025 173.936 143.46 174 142.768 174H139.076V163.821H145.892V165.024H140.43V167.813H142.809C143.501 167.813 144.066 167.854 144.504 167.937C144.941 168.014 145.354 168.203 145.741 168.504C146.088 168.773 146.343 169.105 146.507 169.502C146.675 169.898 146.76 170.347 146.76 170.849ZM145.345 170.876C145.345 170.534 145.288 170.233 145.174 169.974C145.06 169.714 144.882 169.504 144.641 169.345C144.39 169.176 144.101 169.074 143.772 169.037C143.444 169.001 142.982 168.982 142.385 168.982H140.43V172.845H142.351C142.957 172.845 143.422 172.815 143.745 172.756C144.073 172.697 144.36 172.583 144.606 172.414C144.862 172.236 145.049 172.029 145.167 171.792C145.285 171.55 145.345 171.245 145.345 170.876ZM155.004 174H153.732V168.265L149.733 174H148.571V166.364H149.843V172.018L153.801 166.364H155.004V174ZM162.852 171.86C162.852 172.289 162.751 172.651 162.551 172.947C162.355 173.243 162.102 173.483 161.792 173.665C161.482 173.843 161.14 173.973 160.767 174.055C160.393 174.137 160.019 174.178 159.646 174.178C159.117 174.178 158.613 174.128 158.135 174.027C157.656 173.927 157.185 173.772 156.72 173.562V172.154H156.809C157.141 172.446 157.565 172.672 158.08 172.831C158.595 172.991 159.094 173.07 159.577 173.07C159.805 173.07 160.04 173.05 160.281 173.009C160.523 172.963 160.732 172.893 160.91 172.797C161.102 172.688 161.254 172.558 161.368 172.407C161.482 172.252 161.539 172.043 161.539 171.778C161.539 171.505 161.482 171.286 161.368 171.122C161.259 170.958 161.108 170.835 160.917 170.753C160.73 170.671 160.505 170.621 160.24 170.603C159.976 170.584 159.734 170.575 159.516 170.575H158.401V169.468H159.174C159.356 169.468 159.593 169.461 159.885 169.447C160.181 169.434 160.42 169.397 160.603 169.338C160.84 169.26 161.026 169.151 161.163 169.01C161.304 168.868 161.375 168.643 161.375 168.333C161.375 168.119 161.32 167.943 161.211 167.807C161.102 167.665 160.965 167.556 160.801 167.479C160.632 167.401 160.443 167.349 160.233 167.321C160.028 167.294 159.846 167.28 159.687 167.28C159.222 167.28 158.764 167.344 158.312 167.472C157.866 167.595 157.49 167.775 157.185 168.012H157.096V166.597C157.474 166.474 157.88 166.373 158.312 166.296C158.745 166.218 159.178 166.18 159.611 166.18C159.967 166.18 160.32 166.212 160.671 166.275C161.026 166.339 161.357 166.449 161.662 166.604C161.963 166.758 162.209 166.97 162.4 167.239C162.592 167.504 162.688 167.832 162.688 168.224C162.688 168.625 162.562 168.978 162.312 169.283C162.065 169.584 161.733 169.8 161.313 169.933V169.98C161.783 170.094 162.157 170.309 162.435 170.623C162.713 170.933 162.852 171.345 162.852 171.86ZM171.273 174H169.988V170.562H166.167V174H164.882V166.364H166.167V169.454H169.988V166.364H171.273V174ZM180.201 170.315H174.575C174.575 170.785 174.646 171.195 174.787 171.546C174.928 171.892 175.122 172.177 175.368 172.4C175.605 172.619 175.885 172.783 176.209 172.893C176.537 173.002 176.897 173.057 177.289 173.057C177.809 173.057 178.33 172.954 178.854 172.749C179.383 172.539 179.759 172.334 179.982 172.134H180.051V173.535C179.618 173.717 179.176 173.87 178.725 173.993C178.273 174.116 177.799 174.178 177.303 174.178C176.036 174.178 175.047 173.836 174.336 173.152C173.625 172.464 173.27 171.489 173.27 170.227C173.27 168.978 173.609 167.987 174.288 167.253C174.972 166.519 175.869 166.152 176.981 166.152C178.011 166.152 178.804 166.453 179.36 167.055C179.921 167.656 180.201 168.511 180.201 169.618V170.315ZM178.95 169.331C178.946 168.657 178.775 168.135 178.438 167.766C178.105 167.396 177.597 167.212 176.913 167.212C176.225 167.212 175.676 167.415 175.266 167.82C174.86 168.226 174.63 168.729 174.575 169.331H178.95ZM187.864 173.521C187.34 173.768 186.889 173.936 186.511 174.027C186.137 174.123 185.763 174.171 185.39 174.171C184.834 174.171 184.323 174.091 183.858 173.932C183.394 173.768 182.995 173.521 182.662 173.193C182.329 172.865 182.07 172.451 181.883 171.949C181.701 171.448 181.609 170.862 181.609 170.192C181.609 168.976 181.947 168.005 182.621 167.28C183.296 166.551 184.218 166.187 185.39 166.187C185.832 166.187 186.265 166.248 186.688 166.371C187.117 166.494 187.509 166.645 187.864 166.822V168.251H187.789C187.365 167.927 186.946 167.688 186.531 167.533C186.121 167.378 185.722 167.301 185.335 167.301C184.574 167.301 183.984 167.556 183.564 168.066C183.15 168.577 182.942 169.285 182.942 170.192C182.942 171.099 183.15 171.803 183.564 172.305C183.979 172.806 184.569 173.057 185.335 173.057C185.604 173.057 185.87 173.022 186.135 172.954C186.404 172.886 186.647 172.797 186.866 172.688C187.039 172.601 187.217 172.498 187.399 172.38C187.586 172.257 187.716 172.166 187.789 172.106H187.864V173.521ZM47.1533 191H45.7998V182.024H40.7207V191H39.3672V180.821H47.1533V191ZM56.2998 187.186C56.2998 188.43 55.9808 189.412 55.3428 190.132C54.7048 190.852 53.8503 191.212 52.7793 191.212C51.6992 191.212 50.8402 190.852 50.2021 190.132C49.5687 189.412 49.252 188.43 49.252 187.186C49.252 185.941 49.5687 184.959 50.2021 184.239C50.8402 183.515 51.6992 183.152 52.7793 183.152C53.8503 183.152 54.7048 183.515 55.3428 184.239C55.9808 184.959 56.2998 185.941 56.2998 187.186ZM54.9736 187.186C54.9736 186.197 54.7799 185.463 54.3926 184.984C54.0052 184.501 53.4674 184.26 52.7793 184.26C52.082 184.26 51.5397 184.501 51.1523 184.984C50.7695 185.463 50.5781 186.197 50.5781 187.186C50.5781 188.143 50.7718 188.869 51.1592 189.366C51.5465 189.858 52.0866 190.104 52.7793 190.104C53.4629 190.104 53.9984 189.861 54.3857 189.373C54.7777 188.881 54.9736 188.152 54.9736 187.186ZM64.6875 187.315H59.0615C59.0615 187.785 59.1322 188.195 59.2734 188.546C59.4147 188.892 59.6084 189.177 59.8545 189.4C60.0915 189.619 60.3717 189.783 60.6953 189.893C61.0234 190.002 61.3835 190.057 61.7754 190.057C62.2949 190.057 62.8167 189.954 63.3408 189.749C63.8695 189.539 64.2454 189.334 64.4688 189.134H64.5371V190.535C64.1042 190.717 63.6621 190.87 63.2109 190.993C62.7598 191.116 62.2858 191.178 61.7891 191.178C60.5221 191.178 59.5332 190.836 58.8223 190.152C58.1113 189.464 57.7559 188.489 57.7559 187.227C57.7559 185.978 58.0954 184.987 58.7744 184.253C59.458 183.519 60.3558 183.152 61.4678 183.152C62.4977 183.152 63.2907 183.453 63.8467 184.055C64.4072 184.656 64.6875 185.511 64.6875 186.618V187.315ZM63.4365 186.331C63.432 185.657 63.2611 185.135 62.9238 184.766C62.5911 184.396 62.083 184.212 61.3994 184.212C60.7113 184.212 60.1621 184.415 59.752 184.82C59.3464 185.226 59.1162 185.729 59.0615 186.331H63.4365ZM71.9473 188.86C71.9473 189.289 71.847 189.651 71.6465 189.947C71.4505 190.243 71.1976 190.483 70.8877 190.665C70.5778 190.843 70.236 190.973 69.8623 191.055C69.4886 191.137 69.1149 191.178 68.7412 191.178C68.2126 191.178 67.709 191.128 67.2305 191.027C66.752 190.927 66.2803 190.772 65.8154 190.562V189.154H65.9043C66.237 189.446 66.6608 189.672 67.1758 189.831C67.6908 189.991 68.1898 190.07 68.6729 190.07C68.9007 190.07 69.1354 190.05 69.377 190.009C69.6185 189.963 69.8281 189.893 70.0059 189.797C70.1973 189.688 70.3499 189.558 70.4639 189.407C70.5778 189.252 70.6348 189.043 70.6348 188.778C70.6348 188.505 70.5778 188.286 70.4639 188.122C70.3545 187.958 70.2041 187.835 70.0127 187.753C69.8258 187.671 69.6003 187.621 69.3359 187.603C69.0716 187.584 68.8301 187.575 68.6113 187.575H67.4971V186.468H68.2695C68.4518 186.468 68.6888 186.461 68.9805 186.447C69.2767 186.434 69.516 186.397 69.6982 186.338C69.9352 186.26 70.1221 186.151 70.2588 186.01C70.4001 185.868 70.4707 185.643 70.4707 185.333C70.4707 185.119 70.416 184.943 70.3066 184.807C70.1973 184.665 70.0605 184.556 69.8965 184.479C69.7279 184.401 69.5387 184.349 69.3291 184.321C69.124 184.294 68.9417 184.28 68.7822 184.28C68.3174 184.28 67.8594 184.344 67.4082 184.472C66.9616 184.595 66.5856 184.775 66.2803 185.012H66.1914V183.597C66.5697 183.474 66.9753 183.373 67.4082 183.296C67.8411 183.218 68.2741 183.18 68.707 183.18C69.0625 183.18 69.4157 183.212 69.7666 183.275C70.1221 183.339 70.4525 183.449 70.7578 183.604C71.0586 183.758 71.3047 183.97 71.4961 184.239C71.6875 184.504 71.7832 184.832 71.7832 185.224C71.7832 185.625 71.6579 185.978 71.4072 186.283C71.1611 186.584 70.8285 186.8 70.4092 186.933V186.98C70.8786 187.094 71.2523 187.309 71.5303 187.623C71.8083 187.933 71.9473 188.345 71.9473 188.86ZM80.9092 192.832H79.7129V190.979H73.9707V192.832H72.7744V189.906H73.6016C74.1348 189.027 74.5312 188.013 74.791 186.864C75.0553 185.711 75.1875 184.545 75.1875 183.364H79.9863V189.906H80.9092V192.832ZM78.7012 189.906V184.444H76.3975C76.3382 185.588 76.1628 186.632 75.8711 187.575C75.5794 188.519 75.2445 189.296 74.8662 189.906H78.7012ZM89.1943 187.186C89.1943 188.43 88.8753 189.412 88.2373 190.132C87.5993 190.852 86.7448 191.212 85.6738 191.212C84.5938 191.212 83.7347 190.852 83.0967 190.132C82.4632 189.412 82.1465 188.43 82.1465 187.186C82.1465 185.941 82.4632 184.959 83.0967 184.239C83.7347 183.515 84.5938 183.152 85.6738 183.152C86.7448 183.152 87.5993 183.515 88.2373 184.239C88.8753 184.959 89.1943 185.941 89.1943 187.186ZM87.8682 187.186C87.8682 186.197 87.6745 185.463 87.2871 184.984C86.8997 184.501 86.362 184.26 85.6738 184.26C84.9766 184.26 84.4342 184.501 84.0469 184.984C83.6641 185.463 83.4727 186.197 83.4727 187.186C83.4727 188.143 83.6663 188.869 84.0537 189.366C84.4411 189.858 84.9811 190.104 85.6738 190.104C86.3574 190.104 86.8929 189.861 87.2803 189.373C87.6722 188.881 87.8682 188.152 87.8682 187.186ZM98.0811 191H96.3994L93.2275 187.5H92.5303V191H91.2451V183.364H92.5303V186.659C92.9541 186.659 93.2959 186.584 93.5557 186.434C93.8154 186.279 94.0365 186.033 94.2188 185.695C94.2826 185.572 94.3441 185.442 94.4033 185.306C94.4671 185.164 94.5286 185.03 94.5879 184.902C94.8249 184.387 95.1211 184.002 95.4766 183.747C95.832 183.492 96.3424 183.364 97.0078 183.364H97.5957V184.472H97.0283C96.6683 184.472 96.3857 184.549 96.1807 184.704C95.9801 184.854 95.7979 185.121 95.6338 185.504C95.4515 185.932 95.2578 186.254 95.0527 186.468C94.8522 186.677 94.638 186.837 94.4102 186.946L98.0811 191Z" fill="#333333"/>
</svg>
