<svg width="237" height="222" viewBox="0 0 237 222" fill="none" xmlns="http://www.w3.org/2000/svg">
<path d="M17.0996 20H13.3691V10.2637L10.6738 16.582H8.08594L5.39062 10.2637V20H1.85547V5.45898H6.21094L9.48242 12.7539L12.7441 5.45898H17.0996V20ZM31.8359 14.5215C31.8359 16.3249 31.3086 17.7474 30.2539 18.7891C29.2057 19.8242 27.7311 20.3418 25.8301 20.3418C23.929 20.3418 22.4512 19.8242 21.3965 18.7891C20.3483 17.7474 19.8242 16.3249 19.8242 14.5215C19.8242 12.7051 20.3516 11.2793 21.4062 10.2441C22.4674 9.20898 23.9421 8.69141 25.8301 8.69141C27.7441 8.69141 29.222 9.21224 30.2637 10.2539C31.3118 11.2956 31.8359 12.7181 31.8359 14.5215ZM27.5098 17.1875C27.7376 16.9076 27.9069 16.5723 28.0176 16.1816C28.1348 15.7845 28.1934 15.2376 28.1934 14.541C28.1934 13.8965 28.1348 13.3561 28.0176 12.9199C27.9004 12.4837 27.7376 12.1354 27.5293 11.875C27.321 11.6081 27.0703 11.4193 26.7773 11.3086C26.4844 11.1979 26.1686 11.1426 25.8301 11.1426C25.4915 11.1426 25.1888 11.1882 24.9219 11.2793C24.6615 11.3704 24.4108 11.5527 24.1699 11.8262C23.9551 12.0801 23.7826 12.4284 23.6523 12.8711C23.5286 13.3138 23.4668 13.8704 23.4668 14.541C23.4668 15.14 23.5221 15.6608 23.6328 16.1035C23.7435 16.5397 23.9062 16.8913 24.1211 17.1582C24.3294 17.4121 24.5768 17.5977 24.8633 17.7148C25.1562 17.832 25.4883 17.8906 25.8594 17.8906C26.1784 17.8906 26.4811 17.8385 26.7676 17.7344C27.0605 17.6237 27.3079 17.4414 27.5098 17.1875ZM37.8711 20H34.3555V4.80469H37.8711V20ZM44.707 20H41.1914V9.0332H44.707V20ZM44.8047 7.4707H41.0938V4.80469H44.8047V7.4707ZM52.9785 16.123L55.4785 9.0332H59.0918L52.998 24.0234H49.1895L50.9277 19.9219L46.6602 9.0332H50.3516L52.9785 16.123ZM67.6953 17.1387V14.8535C67.2201 14.8926 66.7057 14.9479 66.1523 15.0195C65.599 15.0846 65.179 15.1628 64.8926 15.2539C64.541 15.3646 64.2708 15.5273 64.082 15.7422C63.8997 15.9505 63.8086 16.2272 63.8086 16.5723C63.8086 16.8001 63.8281 16.9857 63.8672 17.1289C63.9062 17.2721 64.0039 17.4089 64.1602 17.5391C64.3099 17.6693 64.4889 17.7669 64.6973 17.832C64.9056 17.8906 65.2311 17.9199 65.6738 17.9199C66.0254 17.9199 66.3802 17.8483 66.7383 17.7051C67.1029 17.5618 67.4219 17.373 67.6953 17.1387ZM67.6953 18.8379C67.5065 18.9811 67.2721 19.1536 66.9922 19.3555C66.7122 19.5573 66.4486 19.7168 66.2012 19.834C65.8561 19.9902 65.498 20.1042 65.127 20.1758C64.7559 20.2539 64.349 20.293 63.9062 20.293C62.8646 20.293 61.9922 19.9707 61.2891 19.3262C60.5859 18.6816 60.2344 17.8581 60.2344 16.8555C60.2344 16.0547 60.4134 15.4004 60.7715 14.8926C61.1296 14.3848 61.6374 13.9844 62.2949 13.6914C62.946 13.3984 63.7533 13.1901 64.7168 13.0664C65.6803 12.9427 66.6797 12.8516 67.7148 12.793V12.7344C67.7148 12.1289 67.4674 11.7122 66.9727 11.4844C66.4779 11.25 65.7487 11.1328 64.7852 11.1328C64.2057 11.1328 63.5872 11.237 62.9297 11.4453C62.2721 11.6471 61.8001 11.8034 61.5137 11.9141H61.1914V9.26758C61.5625 9.16992 62.1647 9.05599 62.998 8.92578C63.8379 8.78906 64.6777 8.7207 65.5176 8.7207C67.5163 8.7207 68.9583 9.02995 69.8438 9.64844C70.7357 10.2604 71.1816 11.224 71.1816 12.5391V20H67.6953V18.8379ZM77.9297 20H74.4141V4.80469H77.9297V20ZM87.8906 17.1387V14.8535C87.4154 14.8926 86.901 14.9479 86.3477 15.0195C85.7943 15.0846 85.3743 15.1628 85.0879 15.2539C84.7363 15.3646 84.4661 15.5273 84.2773 15.7422C84.0951 15.9505 84.0039 16.2272 84.0039 16.5723C84.0039 16.8001 84.0234 16.9857 84.0625 17.1289C84.1016 17.2721 84.1992 17.4089 84.3555 17.5391C84.5052 17.6693 84.6842 17.7669 84.8926 17.832C85.1009 17.8906 85.4264 17.9199 85.8691 17.9199C86.2207 17.9199 86.5755 17.8483 86.9336 17.7051C87.2982 17.5618 87.6172 17.373 87.8906 17.1387ZM87.8906 18.8379C87.7018 18.9811 87.4674 19.1536 87.1875 19.3555C86.9076 19.5573 86.6439 19.7168 86.3965 19.834C86.0514 19.9902 85.6934 20.1042 85.3223 20.1758C84.9512 20.2539 84.5443 20.293 84.1016 20.293C83.0599 20.293 82.1875 19.9707 81.4844 19.3262C80.7812 18.6816 80.4297 17.8581 80.4297 16.8555C80.4297 16.0547 80.6087 15.4004 80.9668 14.8926C81.3249 14.3848 81.8327 13.9844 82.4902 13.6914C83.1413 13.3984 83.9486 13.1901 84.9121 13.0664C85.8757 12.9427 86.875 12.8516 87.9102 12.793V12.7344C87.9102 12.1289 87.6628 11.7122 87.168 11.4844C86.6732 11.25 85.944 11.1328 84.9805 11.1328C84.401 11.1328 83.7826 11.237 83.125 11.4453C82.4674 11.6471 81.9954 11.8034 81.709 11.9141H81.3867V9.26758C81.7578 9.16992 82.36 9.05599 83.1934 8.92578C84.0332 8.78906 84.873 8.7207 85.7129 8.7207C87.7116 8.7207 89.1536 9.02995 90.0391 9.64844C90.931 10.2604 91.377 11.224 91.377 12.5391V20H87.8906V18.8379ZM104.141 16.5234C104.141 17.6562 103.633 18.571 102.617 19.2676C101.602 19.9577 100.212 20.3027 98.4473 20.3027C97.4707 20.3027 96.5853 20.2116 95.791 20.0293C94.9967 19.847 94.3587 19.6452 93.877 19.4238V16.5332H94.1992C94.375 16.6569 94.5768 16.7936 94.8047 16.9434C95.0391 17.0866 95.3678 17.2428 95.791 17.4121C96.1556 17.5618 96.569 17.6921 97.0312 17.8027C97.4935 17.9069 97.9883 17.959 98.5156 17.959C99.2057 17.959 99.7168 17.8841 100.049 17.7344C100.381 17.5781 100.547 17.3503 100.547 17.0508C100.547 16.7839 100.449 16.5918 100.254 16.4746C100.059 16.3509 99.6875 16.2337 99.1406 16.123C98.8802 16.0645 98.5254 16.0026 98.0762 15.9375C97.6335 15.8659 97.2298 15.7812 96.8652 15.6836C95.8691 15.4232 95.1302 15.0195 94.6484 14.4727C94.1667 13.9193 93.9258 13.2324 93.9258 12.4121C93.9258 11.3574 94.4238 10.4818 95.4199 9.78516C96.4225 9.08203 97.7897 8.73047 99.5215 8.73047C100.342 8.73047 101.126 8.8151 101.875 8.98438C102.63 9.14714 103.219 9.32292 103.643 9.51172V12.2852H103.34C102.819 11.9271 102.223 11.6374 101.553 11.416C100.889 11.1882 100.215 11.0742 99.5312 11.0742C98.9648 11.0742 98.4863 11.1523 98.0957 11.3086C97.7116 11.4648 97.5195 11.6862 97.5195 11.9727C97.5195 12.2331 97.6074 12.4316 97.7832 12.5684C97.959 12.7051 98.3724 12.8418 99.0234 12.9785C99.3815 13.0501 99.7656 13.1217 100.176 13.1934C100.592 13.2585 101.009 13.3431 101.426 13.4473C102.35 13.6882 103.034 14.069 103.477 14.5898C103.919 15.1042 104.141 15.7487 104.141 16.5234ZM117.5 20H113.965V14.5605C113.965 14.1178 113.942 13.6784 113.896 13.2422C113.851 12.7995 113.773 12.474 113.662 12.2656C113.532 12.0247 113.34 11.849 113.086 11.7383C112.839 11.6276 112.49 11.5723 112.041 11.5723C111.722 11.5723 111.396 11.6243 111.064 11.7285C110.739 11.8327 110.384 11.9987 110 12.2266V20H106.484V4.80469H110V10.2441C110.625 9.75586 111.224 9.38151 111.797 9.12109C112.376 8.86068 113.018 8.73047 113.721 8.73047C114.906 8.73047 115.83 9.07552 116.494 9.76562C117.165 10.4557 117.5 11.4876 117.5 12.8613V20ZM127.754 19.9023C127.376 20 126.976 20.0749 126.553 20.127C126.13 20.1855 125.612 20.2148 125 20.2148C123.633 20.2148 122.614 19.9382 121.943 19.3848C121.279 18.8314 120.947 17.8841 120.947 16.543V11.416H119.502V9.0332H120.947V5.89844H124.463V9.0332H127.754V11.416H124.463V15.3027C124.463 15.6868 124.466 16.0221 124.473 16.3086C124.479 16.5951 124.531 16.8522 124.629 17.0801C124.72 17.3079 124.88 17.4902 125.107 17.627C125.342 17.7572 125.68 17.8223 126.123 17.8223C126.305 17.8223 126.543 17.7832 126.836 17.7051C127.135 17.627 127.344 17.5553 127.461 17.4902H127.754V19.9023ZM133.379 20H129.863V9.0332H133.379V20ZM133.477 7.4707H129.766V4.80469H133.477V7.4707ZM144.648 12.3828H144.336C144.186 12.3307 143.945 12.2917 143.613 12.2656C143.281 12.2396 143.005 12.2266 142.783 12.2266C142.282 12.2266 141.839 12.2591 141.455 12.3242C141.071 12.3893 140.658 12.5 140.215 12.6562V20H136.699V9.0332H140.215V10.6445C140.99 9.98047 141.663 9.54102 142.236 9.32617C142.809 9.10482 143.337 8.99414 143.818 8.99414C143.942 8.99414 144.082 8.9974 144.238 9.00391C144.395 9.01042 144.531 9.02018 144.648 9.0332V12.3828ZM150.156 20H146.641V9.0332H150.156V20ZM150.254 7.4707H146.543V4.80469H150.254V7.4707ZM163.008 16.5234C163.008 17.6562 162.5 18.571 161.484 19.2676C160.469 19.9577 159.079 20.3027 157.314 20.3027C156.338 20.3027 155.452 20.2116 154.658 20.0293C153.864 19.847 153.226 19.6452 152.744 19.4238V16.5332H153.066C153.242 16.6569 153.444 16.7936 153.672 16.9434C153.906 17.0866 154.235 17.2428 154.658 17.4121C155.023 17.5618 155.436 17.6921 155.898 17.8027C156.361 17.9069 156.855 17.959 157.383 17.959C158.073 17.959 158.584 17.8841 158.916 17.7344C159.248 17.5781 159.414 17.3503 159.414 17.0508C159.414 16.7839 159.316 16.5918 159.121 16.4746C158.926 16.3509 158.555 16.2337 158.008 16.123C157.747 16.0645 157.393 16.0026 156.943 15.9375C156.501 15.8659 156.097 15.7812 155.732 15.6836C154.736 15.4232 153.997 15.0195 153.516 14.4727C153.034 13.9193 152.793 13.2324 152.793 12.4121C152.793 11.3574 153.291 10.4818 154.287 9.78516C155.29 9.08203 156.657 8.73047 158.389 8.73047C159.209 8.73047 159.993 8.8151 160.742 8.98438C161.497 9.14714 162.087 9.32292 162.51 9.51172V12.2852H162.207C161.686 11.9271 161.09 11.6374 160.42 11.416C159.756 11.1882 159.082 11.0742 158.398 11.0742C157.832 11.0742 157.354 11.1523 156.963 11.3086C156.579 11.4648 156.387 11.6862 156.387 11.9727C156.387 12.2331 156.475 12.4316 156.65 12.5684C156.826 12.7051 157.24 12.8418 157.891 12.9785C158.249 13.0501 158.633 13.1217 159.043 13.1934C159.46 13.2585 159.876 13.3431 160.293 13.4473C161.217 13.6882 161.901 14.069 162.344 14.5898C162.786 15.1042 163.008 15.7487 163.008 16.5234ZM176.367 20H172.832V14.5605C172.832 14.1178 172.809 13.6784 172.764 13.2422C172.718 12.7995 172.64 12.474 172.529 12.2656C172.399 12.0247 172.207 11.849 171.953 11.7383C171.706 11.6276 171.357 11.5723 170.908 11.5723C170.589 11.5723 170.264 11.6243 169.932 11.7285C169.606 11.8327 169.251 11.9987 168.867 12.2266V20H165.352V4.80469H168.867V10.2441C169.492 9.75586 170.091 9.38151 170.664 9.12109C171.243 8.86068 171.885 8.73047 172.588 8.73047C173.773 8.73047 174.697 9.07552 175.361 9.76562C176.032 10.4557 176.367 11.4876 176.367 12.8613V20Z" fill="#333333"/>
<path d="M5 47L12.5 54.5L25 39.5" stroke="#61B857" stroke-width="2" stroke-linecap="round" stroke-linejoin="round"/>
<path d="M48.4316 52.5H47.0781V43.7295L44.248 49.6973H43.4414L40.6318 43.7295V52.5H39.3672V42.3213H41.2129L43.9268 47.9883L46.5518 42.3213H48.4316V52.5ZM56.9971 52.5H55.7188V51.6865C55.6048 51.764 55.4499 51.8734 55.2539 52.0146C55.0625 52.1514 54.8757 52.2607 54.6934 52.3428C54.4792 52.4476 54.2331 52.5342 53.9551 52.6025C53.6771 52.6755 53.3512 52.7119 52.9775 52.7119C52.2894 52.7119 51.7061 52.484 51.2275 52.0283C50.749 51.5726 50.5098 50.9915 50.5098 50.2852C50.5098 49.7064 50.6328 49.2393 50.8789 48.8838C51.1296 48.5238 51.485 48.2412 51.9453 48.0361C52.4102 47.8311 52.9684 47.6921 53.6201 47.6191C54.2718 47.5462 54.9714 47.4915 55.7188 47.4551V47.2568C55.7188 46.9652 55.6663 46.7236 55.5615 46.5322C55.4613 46.3408 55.3154 46.1904 55.124 46.0811C54.9417 45.9762 54.723 45.9056 54.4678 45.8691C54.2126 45.8327 53.946 45.8145 53.668 45.8145C53.3307 45.8145 52.9548 45.86 52.54 45.9512C52.1253 46.0378 51.6969 46.1654 51.2549 46.334H51.1865V45.0283C51.4372 44.96 51.7995 44.8848 52.2734 44.8027C52.7474 44.7207 53.2145 44.6797 53.6748 44.6797C54.2126 44.6797 54.6797 44.7253 55.0762 44.8164C55.4772 44.903 55.8236 45.0534 56.1152 45.2676C56.4023 45.4772 56.6211 45.7484 56.7715 46.0811C56.9219 46.4137 56.9971 46.8262 56.9971 47.3184V52.5ZM55.7188 50.6201V48.4941C55.3268 48.5169 54.8643 48.5511 54.3311 48.5967C53.8024 48.6423 53.3831 48.7083 53.0732 48.7949C52.7041 48.8997 52.4056 49.0638 52.1777 49.2871C51.9499 49.5059 51.8359 49.8089 51.8359 50.1963C51.8359 50.6338 51.9681 50.9642 52.2324 51.1875C52.4967 51.4062 52.9001 51.5156 53.4424 51.5156C53.8936 51.5156 54.306 51.429 54.6797 51.2559C55.0534 51.0781 55.3997 50.8662 55.7188 50.6201ZM60.7705 52.5H59.4854V41.8633H60.7705V52.5ZM69.6436 52.5H68.3584V51.6523C67.9255 51.9941 67.5107 52.2562 67.1143 52.4385C66.7178 52.6208 66.2803 52.7119 65.8018 52.7119C64.9997 52.7119 64.3753 52.4681 63.9287 51.9805C63.4821 51.4883 63.2588 50.7682 63.2588 49.8203V44.8643H64.5439V49.2119C64.5439 49.5993 64.5622 49.932 64.5986 50.21C64.6351 50.4834 64.7126 50.7181 64.8311 50.9141C64.9541 51.1146 65.1136 51.2604 65.3096 51.3516C65.5055 51.4427 65.7904 51.4883 66.1641 51.4883C66.4967 51.4883 66.859 51.4017 67.251 51.2285C67.6475 51.0553 68.0166 50.8343 68.3584 50.5654V44.8643H69.6436V52.5ZM83.3154 52.5H82.0303V48.1523C82.0303 47.8242 82.0143 47.5075 81.9824 47.2021C81.9551 46.8968 81.8936 46.653 81.7979 46.4707C81.693 46.2747 81.5426 46.1266 81.3467 46.0264C81.1507 45.9261 80.8682 45.876 80.499 45.876C80.139 45.876 79.779 45.9671 79.4189 46.1494C79.0589 46.3271 78.6989 46.555 78.3389 46.833C78.3525 46.9378 78.3639 47.0609 78.373 47.2021C78.3822 47.3389 78.3867 47.4756 78.3867 47.6123V52.5H77.1016V48.1523C77.1016 47.8151 77.0856 47.4961 77.0537 47.1953C77.0264 46.89 76.9648 46.6462 76.8691 46.4639C76.7643 46.2679 76.6139 46.1221 76.418 46.0264C76.222 45.9261 75.9395 45.876 75.5703 45.876C75.2194 45.876 74.8662 45.9626 74.5107 46.1357C74.1598 46.3089 73.8089 46.5299 73.458 46.7988V52.5H72.1729V44.8643H73.458V45.7119C73.859 45.3792 74.2578 45.1195 74.6543 44.9326C75.0553 44.7458 75.4814 44.6523 75.9326 44.6523C76.4521 44.6523 76.8919 44.7617 77.252 44.9805C77.6165 45.1992 77.8877 45.5023 78.0654 45.8896C78.585 45.4521 79.0589 45.1377 79.4873 44.9463C79.9157 44.7503 80.3737 44.6523 80.8613 44.6523C81.6999 44.6523 82.3174 44.9076 82.7139 45.418C83.1149 45.9238 83.3154 46.6325 83.3154 47.5439V52.5ZM92.2979 48.6855C92.2979 49.9297 91.9788 50.9118 91.3408 51.6318C90.7028 52.3519 89.8483 52.7119 88.7773 52.7119C87.6973 52.7119 86.8382 52.3519 86.2002 51.6318C85.5667 50.9118 85.25 49.9297 85.25 48.6855C85.25 47.4414 85.5667 46.4593 86.2002 45.7393C86.8382 45.0146 87.6973 44.6523 88.7773 44.6523C89.8483 44.6523 90.7028 45.0146 91.3408 45.7393C91.9788 46.4593 92.2979 47.4414 92.2979 48.6855ZM90.9717 48.6855C90.9717 47.6966 90.778 46.9629 90.3906 46.4844C90.0033 46.0013 89.4655 45.7598 88.7773 45.7598C88.0801 45.7598 87.5378 46.0013 87.1504 46.4844C86.7676 46.9629 86.5762 47.6966 86.5762 48.6855C86.5762 49.6426 86.7699 50.3695 87.1572 50.8662C87.5446 51.3584 88.0846 51.6045 88.7773 51.6045C89.4609 51.6045 89.9964 51.3607 90.3838 50.873C90.7757 50.3809 90.9717 49.6517 90.9717 48.6855ZM98.2588 52.4316C98.0173 52.4954 97.7529 52.5479 97.4658 52.5889C97.1833 52.6299 96.9303 52.6504 96.707 52.6504C95.9277 52.6504 95.3353 52.4408 94.9297 52.0215C94.5241 51.6022 94.3213 50.93 94.3213 50.0049V45.9443H93.4531V44.8643H94.3213V42.6699H95.6064V44.8643H98.2588V45.9443H95.6064V49.4238C95.6064 49.8249 95.6156 50.1393 95.6338 50.3672C95.652 50.5905 95.7158 50.8001 95.8252 50.9961C95.9255 51.1784 96.0622 51.3128 96.2354 51.3994C96.4131 51.4814 96.682 51.5225 97.042 51.5225C97.2516 51.5225 97.4704 51.4928 97.6982 51.4336C97.9261 51.3698 98.0902 51.3174 98.1904 51.2764H98.2588V52.4316ZM101.116 52.5H99.8311V41.8633H101.116V52.5ZM109.593 52.5H108.314V51.6865C108.201 51.764 108.046 51.8734 107.85 52.0146C107.658 52.1514 107.471 52.2607 107.289 52.3428C107.075 52.4476 106.829 52.5342 106.551 52.6025C106.273 52.6755 105.947 52.7119 105.573 52.7119C104.885 52.7119 104.302 52.484 103.823 52.0283C103.345 51.5726 103.105 50.9915 103.105 50.2852C103.105 49.7064 103.229 49.2393 103.475 48.8838C103.725 48.5238 104.081 48.2412 104.541 48.0361C105.006 47.8311 105.564 47.6921 106.216 47.6191C106.868 47.5462 107.567 47.4915 108.314 47.4551V47.2568C108.314 46.9652 108.262 46.7236 108.157 46.5322C108.057 46.3408 107.911 46.1904 107.72 46.0811C107.537 45.9762 107.319 45.9056 107.063 45.8691C106.808 45.8327 106.542 45.8145 106.264 45.8145C105.926 45.8145 105.55 45.86 105.136 45.9512C104.721 46.0378 104.293 46.1654 103.851 46.334H103.782V45.0283C104.033 44.96 104.395 44.8848 104.869 44.8027C105.343 44.7207 105.81 44.6797 106.271 44.6797C106.808 44.6797 107.275 44.7253 107.672 44.8164C108.073 44.903 108.419 45.0534 108.711 45.2676C108.998 45.4772 109.217 45.7484 109.367 46.0811C109.518 46.4137 109.593 46.8262 109.593 47.3184V52.5ZM108.314 50.6201V48.4941C107.923 48.5169 107.46 48.5511 106.927 48.5967C106.398 48.6423 105.979 48.7083 105.669 48.7949C105.3 48.8997 105.001 49.0638 104.773 49.2871C104.546 49.5059 104.432 49.8089 104.432 50.1963C104.432 50.6338 104.564 50.9642 104.828 51.1875C105.092 51.4062 105.496 51.5156 106.038 51.5156C106.489 51.5156 106.902 51.429 107.275 51.2559C107.649 51.0781 107.995 50.8662 108.314 50.6201ZM116.832 46.2656H116.764C116.572 46.2201 116.385 46.1882 116.203 46.1699C116.025 46.1471 115.813 46.1357 115.567 46.1357C115.171 46.1357 114.788 46.2246 114.419 46.4023C114.05 46.5755 113.694 46.8011 113.353 47.0791V52.5H112.067V44.8643H113.353V45.9922C113.863 45.582 114.312 45.2926 114.699 45.124C115.091 44.9508 115.49 44.8643 115.896 44.8643C116.119 44.8643 116.281 44.8711 116.381 44.8848C116.481 44.8939 116.632 44.9144 116.832 44.9463V46.2656ZM129.684 48.624C129.684 49.262 129.592 49.8363 129.41 50.3467C129.232 50.8571 128.991 51.2855 128.686 51.6318C128.362 51.9919 128.007 52.263 127.619 52.4453C127.232 52.623 126.806 52.7119 126.341 52.7119C125.908 52.7119 125.53 52.6595 125.206 52.5547C124.882 52.4544 124.563 52.3177 124.249 52.1445L124.167 52.5H122.964V41.8633H124.249V45.6641C124.609 45.3678 124.992 45.1263 125.397 44.9395C125.803 44.748 126.259 44.6523 126.765 44.6523C127.667 44.6523 128.378 44.9987 128.897 45.6914C129.422 46.3841 129.684 47.3617 129.684 48.624ZM128.357 48.6582C128.357 47.7467 128.207 47.0563 127.906 46.5869C127.605 46.113 127.12 45.876 126.45 45.876C126.076 45.876 125.698 45.958 125.315 46.1221C124.933 46.2816 124.577 46.4889 124.249 46.7441V51.1191C124.614 51.2832 124.926 51.3971 125.186 51.4609C125.45 51.5247 125.748 51.5566 126.081 51.5566C126.792 51.5566 127.348 51.3242 127.749 50.8594C128.155 50.39 128.357 49.6562 128.357 48.6582ZM137.62 52.5H136.342V51.6865C136.228 51.764 136.073 51.8734 135.877 52.0146C135.686 52.1514 135.499 52.2607 135.316 52.3428C135.102 52.4476 134.856 52.5342 134.578 52.6025C134.3 52.6755 133.974 52.7119 133.601 52.7119C132.912 52.7119 132.329 52.484 131.851 52.0283C131.372 51.5726 131.133 50.9915 131.133 50.2852C131.133 49.7064 131.256 49.2393 131.502 48.8838C131.753 48.5238 132.108 48.2412 132.568 48.0361C133.033 47.8311 133.591 47.6921 134.243 47.6191C134.895 47.5462 135.594 47.4915 136.342 47.4551V47.2568C136.342 46.9652 136.289 46.7236 136.185 46.5322C136.084 46.3408 135.938 46.1904 135.747 46.0811C135.565 45.9762 135.346 45.9056 135.091 45.8691C134.836 45.8327 134.569 45.8145 134.291 45.8145C133.954 45.8145 133.578 45.86 133.163 45.9512C132.748 46.0378 132.32 46.1654 131.878 46.334H131.81V45.0283C132.06 44.96 132.423 44.8848 132.896 44.8027C133.37 44.7207 133.838 44.6797 134.298 44.6797C134.836 44.6797 135.303 44.7253 135.699 44.8164C136.1 44.903 136.447 45.0534 136.738 45.2676C137.025 45.4772 137.244 45.7484 137.395 46.0811C137.545 46.4137 137.62 46.8262 137.62 47.3184V52.5ZM136.342 50.6201V48.4941C135.95 48.5169 135.487 48.5511 134.954 48.5967C134.425 48.6423 134.006 48.7083 133.696 48.7949C133.327 48.8997 133.029 49.0638 132.801 49.2871C132.573 49.5059 132.459 49.8089 132.459 50.1963C132.459 50.6338 132.591 50.9642 132.855 51.1875C133.12 51.4062 133.523 51.5156 134.065 51.5156C134.517 51.5156 134.929 51.429 135.303 51.2559C135.676 51.0781 136.023 50.8662 136.342 50.6201ZM145.632 52.5H139.466V51.5498L143.916 45.9375H139.562V44.8643H145.516V45.7803L141.045 51.4131H145.632V52.5ZM153.384 52.5H152.105V51.6865C151.992 51.764 151.837 51.8734 151.641 52.0146C151.449 52.1514 151.262 52.2607 151.08 52.3428C150.866 52.4476 150.62 52.5342 150.342 52.6025C150.064 52.6755 149.738 52.7119 149.364 52.7119C148.676 52.7119 148.093 52.484 147.614 52.0283C147.136 51.5726 146.896 50.9915 146.896 50.2852C146.896 49.7064 147.02 49.2393 147.266 48.8838C147.516 48.5238 147.872 48.2412 148.332 48.0361C148.797 47.8311 149.355 47.6921 150.007 47.6191C150.659 47.5462 151.358 47.4915 152.105 47.4551V47.2568C152.105 46.9652 152.053 46.7236 151.948 46.5322C151.848 46.3408 151.702 46.1904 151.511 46.0811C151.328 45.9762 151.11 45.9056 150.854 45.8691C150.599 45.8327 150.333 45.8145 150.055 45.8145C149.717 45.8145 149.341 45.86 148.927 45.9512C148.512 46.0378 148.084 46.1654 147.642 46.334H147.573V45.0283C147.824 44.96 148.186 44.8848 148.66 44.8027C149.134 44.7207 149.601 44.6797 150.062 44.6797C150.599 44.6797 151.066 44.7253 151.463 44.8164C151.864 44.903 152.21 45.0534 152.502 45.2676C152.789 45.4772 153.008 45.7484 153.158 46.0811C153.309 46.4137 153.384 46.8262 153.384 47.3184V52.5ZM152.105 50.6201V48.4941C151.714 48.5169 151.251 48.5511 150.718 48.5967C150.189 48.6423 149.77 48.7083 149.46 48.7949C149.091 48.8997 148.792 49.0638 148.564 49.2871C148.337 49.5059 148.223 49.8089 148.223 50.1963C148.223 50.6338 148.355 50.9642 148.619 51.1875C148.883 51.4062 149.287 51.5156 149.829 51.5156C150.28 51.5156 150.693 51.429 151.066 51.2559C151.44 51.0781 151.786 50.8662 152.105 50.6201ZM161.313 50.2988C161.313 50.9961 161.024 51.568 160.445 52.0146C159.871 52.4613 159.085 52.6846 158.087 52.6846C157.522 52.6846 157.002 52.6185 156.528 52.4863C156.059 52.3496 155.665 52.2015 155.346 52.042V50.5996H155.414C155.82 50.9049 156.271 51.1488 156.768 51.3311C157.264 51.5088 157.741 51.5977 158.196 51.5977C158.761 51.5977 159.203 51.5065 159.522 51.3242C159.841 51.1419 160.001 50.8548 160.001 50.4629C160.001 50.1621 159.914 49.9342 159.741 49.7793C159.568 49.6243 159.235 49.4922 158.743 49.3828C158.561 49.3418 158.322 49.2939 158.025 49.2393C157.734 49.1846 157.467 49.1253 157.226 49.0615C156.556 48.8838 156.079 48.624 155.797 48.2822C155.519 47.9359 155.38 47.512 155.38 47.0107C155.38 46.6963 155.444 46.4001 155.571 46.1221C155.703 45.8441 155.902 45.5957 156.166 45.377C156.421 45.1628 156.745 44.9941 157.137 44.8711C157.533 44.7435 157.975 44.6797 158.463 44.6797C158.919 44.6797 159.379 44.7367 159.844 44.8506C160.313 44.96 160.703 45.0944 161.013 45.2539V46.6279H160.944C160.616 46.3864 160.217 46.1836 159.748 46.0195C159.279 45.8509 158.818 45.7666 158.367 45.7666C157.898 45.7666 157.501 45.8577 157.178 46.04C156.854 46.2178 156.692 46.4844 156.692 46.8398C156.692 47.1543 156.79 47.3913 156.986 47.5508C157.178 47.7103 157.488 47.8402 157.916 47.9404C158.153 47.9951 158.417 48.0498 158.709 48.1045C159.005 48.1592 159.251 48.2093 159.447 48.2549C160.044 48.3916 160.505 48.6263 160.828 48.959C161.152 49.2962 161.313 49.7428 161.313 50.2988ZM164.54 43.5859H163.091V42.2529H164.54V43.5859ZM164.458 52.5H163.173V44.8643H164.458V52.5Z" fill="#333333"/>
<path d="M5 85L12.5 92.5L25 77.5" stroke="#61B857" stroke-width="2" stroke-linecap="round" stroke-linejoin="round"/>
<path d="M48.4316 90.5H47.0781V81.7295L44.248 87.6973H43.4414L40.6318 81.7295V90.5H39.3672V80.3213H41.2129L43.9268 85.9883L46.5518 80.3213H48.4316V90.5ZM57.5713 86.6855C57.5713 87.9297 57.2523 88.9118 56.6143 89.6318C55.9762 90.3519 55.1217 90.7119 54.0508 90.7119C52.9707 90.7119 52.1117 90.3519 51.4736 89.6318C50.8402 88.9118 50.5234 87.9297 50.5234 86.6855C50.5234 85.4414 50.8402 84.4593 51.4736 83.7393C52.1117 83.0146 52.9707 82.6523 54.0508 82.6523C55.1217 82.6523 55.9762 83.0146 56.6143 83.7393C57.2523 84.4593 57.5713 85.4414 57.5713 86.6855ZM56.2451 86.6855C56.2451 85.6966 56.0514 84.9629 55.6641 84.4844C55.2767 84.0013 54.7389 83.7598 54.0508 83.7598C53.3535 83.7598 52.8112 84.0013 52.4238 84.4844C52.041 84.9629 51.8496 85.6966 51.8496 86.6855C51.8496 87.6426 52.0433 88.3695 52.4307 88.8662C52.818 89.3584 53.3581 89.6045 54.0508 89.6045C54.7344 89.6045 55.2699 89.3607 55.6572 88.873C56.0492 88.3809 56.2451 87.6517 56.2451 86.6855ZM60.8662 90.5H59.5811V79.8633H60.8662V90.5ZM64.79 81.5859H63.3408V80.2529H64.79V81.5859ZM64.708 90.5H63.4229V82.8643H64.708V90.5ZM73.8545 82.8643L69.3975 93.3164H68.0234L69.4453 90.1309L66.4033 82.8643H67.7979L70.1426 88.5244L72.5078 82.8643H73.8545ZM81.1963 90.5H79.918V89.6865C79.804 89.764 79.6491 89.8734 79.4531 90.0146C79.2617 90.1514 79.0749 90.2607 78.8926 90.3428C78.6784 90.4476 78.4323 90.5342 78.1543 90.6025C77.8763 90.6755 77.5505 90.7119 77.1768 90.7119C76.4886 90.7119 75.9053 90.484 75.4268 90.0283C74.9482 89.5726 74.709 88.9915 74.709 88.2852C74.709 87.7064 74.832 87.2393 75.0781 86.8838C75.3288 86.5238 75.6842 86.2412 76.1445 86.0361C76.6094 85.8311 77.1676 85.6921 77.8193 85.6191C78.471 85.5462 79.1706 85.4915 79.918 85.4551V85.2568C79.918 84.9652 79.8656 84.7236 79.7607 84.5322C79.6605 84.3408 79.5146 84.1904 79.3232 84.0811C79.141 83.9762 78.9222 83.9056 78.667 83.8691C78.4118 83.8327 78.1452 83.8145 77.8672 83.8145C77.5299 83.8145 77.154 83.86 76.7393 83.9512C76.3245 84.0378 75.8962 84.1654 75.4541 84.334H75.3857V83.0283C75.6364 82.96 75.9987 82.8848 76.4727 82.8027C76.9466 82.7207 77.4137 82.6797 77.874 82.6797C78.4118 82.6797 78.8789 82.7253 79.2754 82.8164C79.6764 82.903 80.0228 83.0534 80.3145 83.2676C80.6016 83.4772 80.8203 83.7484 80.9707 84.0811C81.1211 84.4137 81.1963 84.8262 81.1963 85.3184V90.5ZM79.918 88.6201V86.4941C79.526 86.5169 79.0635 86.5511 78.5303 86.5967C78.0016 86.6423 77.5824 86.7083 77.2725 86.7949C76.9033 86.8997 76.6048 87.0638 76.377 87.2871C76.1491 87.5059 76.0352 87.8089 76.0352 88.1963C76.0352 88.6338 76.1673 88.9642 76.4316 89.1875C76.696 89.4062 77.0993 89.5156 77.6416 89.5156C78.0928 89.5156 78.5052 89.429 78.8789 89.2559C79.2526 89.0781 79.599 88.8662 79.918 88.6201ZM90.165 82.8643L87.0752 90.5H85.7832L82.7139 82.8643H84.1084L86.4736 88.9414L88.8184 82.8643H90.165ZM93.2275 81.5859H91.7783V80.2529H93.2275V81.5859ZM93.1455 90.5H91.8604V82.8643H93.1455V90.5ZM102.292 82.8643L97.835 93.3164H96.4609L97.8828 90.1309L94.8408 82.8643H96.2354L98.5801 88.5244L100.945 82.8643H102.292ZM120.038 90.5H118.753V86.1523C118.753 85.8242 118.737 85.5075 118.705 85.2021C118.678 84.8968 118.616 84.653 118.521 84.4707C118.416 84.2747 118.265 84.1266 118.069 84.0264C117.873 83.9261 117.591 83.876 117.222 83.876C116.862 83.876 116.502 83.9671 116.142 84.1494C115.782 84.3271 115.422 84.555 115.062 84.833C115.075 84.9378 115.087 85.0609 115.096 85.2021C115.105 85.3389 115.109 85.4756 115.109 85.6123V90.5H113.824V86.1523C113.824 85.8151 113.808 85.4961 113.776 85.1953C113.749 84.89 113.688 84.6462 113.592 84.4639C113.487 84.2679 113.337 84.1221 113.141 84.0264C112.945 83.9261 112.662 83.876 112.293 83.876C111.942 83.876 111.589 83.9626 111.233 84.1357C110.882 84.3089 110.532 84.5299 110.181 84.7988V90.5H108.896V82.8643H110.181V83.7119C110.582 83.3792 110.98 83.1195 111.377 82.9326C111.778 82.7458 112.204 82.6523 112.655 82.6523C113.175 82.6523 113.615 82.7617 113.975 82.9805C114.339 83.1992 114.61 83.5023 114.788 83.8896C115.308 83.4521 115.782 83.1377 116.21 82.9463C116.638 82.7503 117.096 82.6523 117.584 82.6523C118.423 82.6523 119.04 82.9076 119.437 83.418C119.838 83.9238 120.038 84.6325 120.038 85.5439V90.5ZM128.446 90.5H127.168V89.6865C127.054 89.764 126.899 89.8734 126.703 90.0146C126.512 90.1514 126.325 90.2607 126.143 90.3428C125.928 90.4476 125.682 90.5342 125.404 90.6025C125.126 90.6755 124.8 90.7119 124.427 90.7119C123.739 90.7119 123.155 90.484 122.677 90.0283C122.198 89.5726 121.959 88.9915 121.959 88.2852C121.959 87.7064 122.082 87.2393 122.328 86.8838C122.579 86.5238 122.934 86.2412 123.395 86.0361C123.859 85.8311 124.418 85.6921 125.069 85.6191C125.721 85.5462 126.421 85.4915 127.168 85.4551V85.2568C127.168 84.9652 127.116 84.7236 127.011 84.5322C126.91 84.3408 126.765 84.1904 126.573 84.0811C126.391 83.9762 126.172 83.9056 125.917 83.8691C125.662 83.8327 125.395 83.8145 125.117 83.8145C124.78 83.8145 124.404 83.86 123.989 83.9512C123.575 84.0378 123.146 84.1654 122.704 84.334H122.636V83.0283C122.886 82.96 123.249 82.8848 123.723 82.8027C124.197 82.7207 124.664 82.6797 125.124 82.6797C125.662 82.6797 126.129 82.7253 126.525 82.8164C126.926 82.903 127.273 83.0534 127.564 83.2676C127.852 83.4772 128.07 83.7484 128.221 84.0811C128.371 84.4137 128.446 84.8262 128.446 85.3184V90.5ZM127.168 88.6201V86.4941C126.776 86.5169 126.313 86.5511 125.78 86.5967C125.252 86.6423 124.832 86.7083 124.522 86.7949C124.153 86.8997 123.855 87.0638 123.627 87.2871C123.399 87.5059 123.285 87.8089 123.285 88.1963C123.285 88.6338 123.417 88.9642 123.682 89.1875C123.946 89.4062 124.349 89.5156 124.892 89.5156C125.343 89.5156 125.755 89.429 126.129 89.2559C126.503 89.0781 126.849 88.8662 127.168 88.6201ZM136.376 88.2988C136.376 88.9961 136.087 89.568 135.508 90.0146C134.934 90.4613 134.147 90.6846 133.149 90.6846C132.584 90.6846 132.065 90.6185 131.591 90.4863C131.121 90.3496 130.727 90.2015 130.408 90.042V88.5996H130.477C130.882 88.9049 131.333 89.1488 131.83 89.3311C132.327 89.5088 132.803 89.5977 133.259 89.5977C133.824 89.5977 134.266 89.5065 134.585 89.3242C134.904 89.1419 135.063 88.8548 135.063 88.4629C135.063 88.1621 134.977 87.9342 134.804 87.7793C134.631 87.6243 134.298 87.4922 133.806 87.3828C133.623 87.3418 133.384 87.2939 133.088 87.2393C132.796 87.1846 132.53 87.1253 132.288 87.0615C131.618 86.8838 131.142 86.624 130.859 86.2822C130.581 85.9359 130.442 85.512 130.442 85.0107C130.442 84.6963 130.506 84.4001 130.634 84.1221C130.766 83.8441 130.964 83.5957 131.229 83.377C131.484 83.1628 131.807 82.9941 132.199 82.8711C132.596 82.7435 133.038 82.6797 133.525 82.6797C133.981 82.6797 134.441 82.7367 134.906 82.8506C135.376 82.96 135.765 83.0944 136.075 83.2539V84.6279H136.007C135.679 84.3864 135.28 84.1836 134.811 84.0195C134.341 83.8509 133.881 83.7666 133.43 83.7666C132.96 83.7666 132.564 83.8577 132.24 84.04C131.917 84.2178 131.755 84.4844 131.755 84.8398C131.755 85.1543 131.853 85.3913 132.049 85.5508C132.24 85.7103 132.55 85.8402 132.979 85.9404C133.215 85.9951 133.48 86.0498 133.771 86.1045C134.068 86.1592 134.314 86.2093 134.51 86.2549C135.107 86.3916 135.567 86.6263 135.891 86.959C136.214 87.2962 136.376 87.7428 136.376 88.2988ZM139.521 90.5H138.235V79.8633H139.521V90.5ZM147.997 90.5H146.719V89.6865C146.605 89.764 146.45 89.8734 146.254 90.0146C146.062 90.1514 145.876 90.2607 145.693 90.3428C145.479 90.4476 145.233 90.5342 144.955 90.6025C144.677 90.6755 144.351 90.7119 143.978 90.7119C143.289 90.7119 142.706 90.484 142.228 90.0283C141.749 89.5726 141.51 88.9915 141.51 88.2852C141.51 87.7064 141.633 87.2393 141.879 86.8838C142.13 86.5238 142.485 86.2412 142.945 86.0361C143.41 85.8311 143.968 85.6921 144.62 85.6191C145.272 85.5462 145.971 85.4915 146.719 85.4551V85.2568C146.719 84.9652 146.666 84.7236 146.562 84.5322C146.461 84.3408 146.315 84.1904 146.124 84.0811C145.942 83.9762 145.723 83.9056 145.468 83.8691C145.213 83.8327 144.946 83.8145 144.668 83.8145C144.331 83.8145 143.955 83.86 143.54 83.9512C143.125 84.0378 142.697 84.1654 142.255 84.334H142.187V83.0283C142.437 82.96 142.799 82.8848 143.273 82.8027C143.747 82.7207 144.215 82.6797 144.675 82.6797C145.213 82.6797 145.68 82.7253 146.076 82.8164C146.477 82.903 146.824 83.0534 147.115 83.2676C147.402 83.4772 147.621 83.7484 147.771 84.0811C147.922 84.4137 147.997 84.8262 147.997 85.3184V90.5ZM146.719 88.6201V86.4941C146.327 86.5169 145.864 86.5511 145.331 86.5967C144.802 86.6423 144.383 86.7083 144.073 86.7949C143.704 86.8997 143.406 87.0638 143.178 87.2871C142.95 87.5059 142.836 87.8089 142.836 88.1963C142.836 88.6338 142.968 88.9642 143.232 89.1875C143.497 89.4062 143.9 89.5156 144.442 89.5156C144.894 89.5156 145.306 89.429 145.68 89.2559C146.053 89.0781 146.4 88.8662 146.719 88.6201ZM156.856 90.5H155.571V86.1523C155.571 85.8014 155.551 85.4733 155.51 85.168C155.469 84.8581 155.394 84.6165 155.284 84.4434C155.17 84.252 155.006 84.1107 154.792 84.0195C154.578 83.9238 154.3 83.876 153.958 83.876C153.607 83.876 153.24 83.9626 152.857 84.1357C152.475 84.3089 152.108 84.5299 151.757 84.7988V90.5H150.472V79.8633H151.757V83.7119C152.158 83.3792 152.573 83.1195 153.001 82.9326C153.429 82.7458 153.869 82.6523 154.32 82.6523C155.145 82.6523 155.774 82.9007 156.207 83.3975C156.64 83.8942 156.856 84.6097 156.856 85.5439V90.5ZM165.265 90.5H163.986V89.6865C163.872 89.764 163.717 89.8734 163.521 90.0146C163.33 90.1514 163.143 90.2607 162.961 90.3428C162.747 90.4476 162.501 90.5342 162.223 90.6025C161.945 90.6755 161.619 90.7119 161.245 90.7119C160.557 90.7119 159.974 90.484 159.495 90.0283C159.017 89.5726 158.777 88.9915 158.777 88.2852C158.777 87.7064 158.9 87.2393 159.146 86.8838C159.397 86.5238 159.753 86.2412 160.213 86.0361C160.678 85.8311 161.236 85.6921 161.888 85.6191C162.539 85.5462 163.239 85.4915 163.986 85.4551V85.2568C163.986 84.9652 163.934 84.7236 163.829 84.5322C163.729 84.3408 163.583 84.1904 163.392 84.0811C163.209 83.9762 162.991 83.9056 162.735 83.8691C162.48 83.8327 162.214 83.8145 161.936 83.8145C161.598 83.8145 161.222 83.86 160.808 83.9512C160.393 84.0378 159.965 84.1654 159.522 84.334H159.454V83.0283C159.705 82.96 160.067 82.8848 160.541 82.8027C161.015 82.7207 161.482 82.6797 161.942 82.6797C162.48 82.6797 162.947 82.7253 163.344 82.8164C163.745 82.903 164.091 83.0534 164.383 83.2676C164.67 83.4772 164.889 83.7484 165.039 84.0811C165.189 84.4137 165.265 84.8262 165.265 85.3184V90.5ZM163.986 88.6201V86.4941C163.594 86.5169 163.132 86.5511 162.599 86.5967C162.07 86.6423 161.651 86.7083 161.341 86.7949C160.972 86.8997 160.673 87.0638 160.445 87.2871C160.217 87.5059 160.104 87.8089 160.104 88.1963C160.104 88.6338 160.236 88.9642 160.5 89.1875C160.764 89.4062 161.168 89.5156 161.71 89.5156C162.161 89.5156 162.574 89.429 162.947 89.2559C163.321 89.0781 163.667 88.8662 163.986 88.6201ZM171.704 90.4316C171.463 90.4954 171.198 90.5479 170.911 90.5889C170.629 90.6299 170.376 90.6504 170.152 90.6504C169.373 90.6504 168.781 90.4408 168.375 90.0215C167.969 89.6022 167.767 88.93 167.767 88.0049V83.9443H166.898V82.8643H167.767V80.6699H169.052V82.8643H171.704V83.9443H169.052V87.4238C169.052 87.8249 169.061 88.1393 169.079 88.3672C169.097 88.5905 169.161 88.8001 169.271 88.9961C169.371 89.1784 169.507 89.3128 169.681 89.3994C169.858 89.4814 170.127 89.5225 170.487 89.5225C170.697 89.5225 170.916 89.4928 171.144 89.4336C171.371 89.3698 171.535 89.3174 171.636 89.2764H171.704V90.4316Z" fill="#333333"/>
<path d="M5 123L12.5 130.5L25 115.5" stroke="#61B857" stroke-width="2" stroke-linecap="round" stroke-linejoin="round"/>
<path d="M48.4316 122H47.0781V113.229L44.248 119.197H43.4414L40.6318 113.229V122H39.3672V111.821H41.2129L43.9268 117.488L46.5518 111.821H48.4316V122ZM57.5713 118.186C57.5713 119.43 57.2523 120.412 56.6143 121.132C55.9762 121.852 55.1217 122.212 54.0508 122.212C52.9707 122.212 52.1117 121.852 51.4736 121.132C50.8402 120.412 50.5234 119.43 50.5234 118.186C50.5234 116.941 50.8402 115.959 51.4736 115.239C52.1117 114.515 52.9707 114.152 54.0508 114.152C55.1217 114.152 55.9762 114.515 56.6143 115.239C57.2523 115.959 57.5713 116.941 57.5713 118.186ZM56.2451 118.186C56.2451 117.197 56.0514 116.463 55.6641 115.984C55.2767 115.501 54.7389 115.26 54.0508 115.26C53.3535 115.26 52.8112 115.501 52.4238 115.984C52.041 116.463 51.8496 117.197 51.8496 118.186C51.8496 119.143 52.0433 119.869 52.4307 120.366C52.818 120.858 53.3581 121.104 54.0508 121.104C54.7344 121.104 55.2699 120.861 55.6572 120.373C56.0492 119.881 56.2451 119.152 56.2451 118.186ZM60.8662 122H59.5811V111.363H60.8662V122ZM64.79 113.086H63.3408V111.753H64.79V113.086ZM64.708 122H63.4229V114.364H64.708V122ZM73.8545 114.364L69.3975 124.816H68.0234L69.4453 121.631L66.4033 114.364H67.7979L70.1426 120.024L72.5078 114.364H73.8545ZM81.1963 122H79.918V121.187C79.804 121.264 79.6491 121.373 79.4531 121.515C79.2617 121.651 79.0749 121.761 78.8926 121.843C78.6784 121.948 78.4323 122.034 78.1543 122.103C77.8763 122.175 77.5505 122.212 77.1768 122.212C76.4886 122.212 75.9053 121.984 75.4268 121.528C74.9482 121.073 74.709 120.492 74.709 119.785C74.709 119.206 74.832 118.739 75.0781 118.384C75.3288 118.024 75.6842 117.741 76.1445 117.536C76.6094 117.331 77.1676 117.192 77.8193 117.119C78.471 117.046 79.1706 116.992 79.918 116.955V116.757C79.918 116.465 79.8656 116.224 79.7607 116.032C79.6605 115.841 79.5146 115.69 79.3232 115.581C79.141 115.476 78.9222 115.406 78.667 115.369C78.4118 115.333 78.1452 115.314 77.8672 115.314C77.5299 115.314 77.154 115.36 76.7393 115.451C76.3245 115.538 75.8962 115.665 75.4541 115.834H75.3857V114.528C75.6364 114.46 75.9987 114.385 76.4727 114.303C76.9466 114.221 77.4137 114.18 77.874 114.18C78.4118 114.18 78.8789 114.225 79.2754 114.316C79.6764 114.403 80.0228 114.553 80.3145 114.768C80.6016 114.977 80.8203 115.248 80.9707 115.581C81.1211 115.914 81.1963 116.326 81.1963 116.818V122ZM79.918 120.12V117.994C79.526 118.017 79.0635 118.051 78.5303 118.097C78.0016 118.142 77.5824 118.208 77.2725 118.295C76.9033 118.4 76.6048 118.564 76.377 118.787C76.1491 119.006 76.0352 119.309 76.0352 119.696C76.0352 120.134 76.1673 120.464 76.4316 120.688C76.696 120.906 77.0993 121.016 77.6416 121.016C78.0928 121.016 78.5052 120.929 78.8789 120.756C79.2526 120.578 79.599 120.366 79.918 120.12ZM90.165 114.364L87.0752 122H85.7832L82.7139 114.364H84.1084L86.4736 120.441L88.8184 114.364H90.165ZM93.2275 113.086H91.7783V111.753H93.2275V113.086ZM93.1455 122H91.8604V114.364H93.1455V122ZM102.292 114.364L97.835 124.816H96.4609L97.8828 121.631L94.8408 114.364H96.2354L98.5801 120.024L100.945 114.364H102.292ZM116.395 119.095C116.395 119.491 116.301 119.883 116.114 120.271C115.932 120.658 115.674 120.986 115.342 121.255C114.977 121.547 114.551 121.774 114.063 121.938C113.58 122.103 112.997 122.185 112.313 122.185C111.58 122.185 110.919 122.116 110.331 121.979C109.748 121.843 109.153 121.64 108.547 121.371V119.676H108.643C109.158 120.104 109.752 120.435 110.427 120.667C111.101 120.899 111.735 121.016 112.327 121.016C113.166 121.016 113.817 120.858 114.282 120.544C114.752 120.229 114.986 119.81 114.986 119.286C114.986 118.835 114.875 118.502 114.651 118.288C114.433 118.074 114.098 117.908 113.646 117.789C113.305 117.698 112.933 117.623 112.532 117.563C112.136 117.504 111.714 117.429 111.268 117.338C110.365 117.146 109.695 116.821 109.258 116.36C108.825 115.896 108.608 115.292 108.608 114.549C108.608 113.697 108.968 112.999 109.688 112.457C110.409 111.91 111.322 111.637 112.43 111.637C113.145 111.637 113.801 111.705 114.398 111.842C114.995 111.979 115.524 112.147 115.984 112.348V113.947H115.889C115.501 113.619 114.991 113.348 114.357 113.134C113.729 112.915 113.084 112.806 112.423 112.806C111.698 112.806 111.115 112.956 110.673 113.257C110.235 113.558 110.017 113.945 110.017 114.419C110.017 114.843 110.126 115.175 110.345 115.417C110.563 115.659 110.949 115.843 111.5 115.971C111.792 116.035 112.206 116.112 112.744 116.203C113.282 116.294 113.738 116.388 114.111 116.483C114.868 116.684 115.438 116.987 115.82 117.393C116.203 117.798 116.395 118.366 116.395 119.095ZM124.399 122H123.121V121.187C123.007 121.264 122.852 121.373 122.656 121.515C122.465 121.651 122.278 121.761 122.096 121.843C121.882 121.948 121.635 122.034 121.357 122.103C121.079 122.175 120.754 122.212 120.38 122.212C119.692 122.212 119.108 121.984 118.63 121.528C118.151 121.073 117.912 120.492 117.912 119.785C117.912 119.206 118.035 118.739 118.281 118.384C118.532 118.024 118.887 117.741 119.348 117.536C119.812 117.331 120.371 117.192 121.022 117.119C121.674 117.046 122.374 116.992 123.121 116.955V116.757C123.121 116.465 123.069 116.224 122.964 116.032C122.864 115.841 122.718 115.69 122.526 115.581C122.344 115.476 122.125 115.406 121.87 115.369C121.615 115.333 121.348 115.314 121.07 115.314C120.733 115.314 120.357 115.36 119.942 115.451C119.528 115.538 119.099 115.665 118.657 115.834H118.589V114.528C118.84 114.46 119.202 114.385 119.676 114.303C120.15 114.221 120.617 114.18 121.077 114.18C121.615 114.18 122.082 114.225 122.479 114.316C122.88 114.403 123.226 114.553 123.518 114.768C123.805 114.977 124.023 115.248 124.174 115.581C124.324 115.914 124.399 116.326 124.399 116.818V122ZM123.121 120.12V117.994C122.729 118.017 122.267 118.051 121.733 118.097C121.205 118.142 120.785 118.208 120.476 118.295C120.106 118.4 119.808 118.564 119.58 118.787C119.352 119.006 119.238 119.309 119.238 119.696C119.238 120.134 119.37 120.464 119.635 120.688C119.899 120.906 120.302 121.016 120.845 121.016C121.296 121.016 121.708 120.929 122.082 120.756C122.456 120.578 122.802 120.366 123.121 120.12ZM133.368 114.364L130.278 122H128.986L125.917 114.364H127.312L129.677 120.441L132.021 114.364H133.368ZM141.435 118.186C141.435 119.43 141.116 120.412 140.478 121.132C139.84 121.852 138.985 122.212 137.914 122.212C136.834 122.212 135.975 121.852 135.337 121.132C134.703 120.412 134.387 119.43 134.387 118.186C134.387 116.941 134.703 115.959 135.337 115.239C135.975 114.515 136.834 114.152 137.914 114.152C138.985 114.152 139.84 114.515 140.478 115.239C141.116 115.959 141.435 116.941 141.435 118.186ZM140.108 118.186C140.108 117.197 139.915 116.463 139.527 115.984C139.14 115.501 138.602 115.26 137.914 115.26C137.217 115.26 136.674 115.501 136.287 115.984C135.904 116.463 135.713 117.197 135.713 118.186C135.713 119.143 135.907 119.869 136.294 120.366C136.681 120.858 137.221 121.104 137.914 121.104C138.598 121.104 139.133 120.861 139.521 120.373C139.912 119.881 140.108 119.152 140.108 118.186ZM149.624 122H148.339V121.2C147.97 121.519 147.585 121.768 147.184 121.945C146.783 122.123 146.347 122.212 145.878 122.212C144.966 122.212 144.242 121.861 143.704 121.159C143.171 120.457 142.904 119.484 142.904 118.24C142.904 117.593 142.995 117.017 143.178 116.511C143.365 116.005 143.615 115.574 143.93 115.219C144.24 114.872 144.6 114.608 145.01 114.426C145.424 114.243 145.853 114.152 146.295 114.152C146.696 114.152 147.051 114.196 147.361 114.282C147.671 114.364 147.997 114.494 148.339 114.672V111.363H149.624V122ZM148.339 120.12V115.738C147.993 115.583 147.683 115.476 147.409 115.417C147.136 115.358 146.837 115.328 146.514 115.328C145.794 115.328 145.233 115.579 144.832 116.08C144.431 116.581 144.23 117.292 144.23 118.213C144.23 119.12 144.385 119.81 144.695 120.284C145.005 120.754 145.502 120.988 146.186 120.988C146.55 120.988 146.919 120.909 147.293 120.749C147.667 120.585 148.015 120.375 148.339 120.12ZM158.764 122H157.144L154.977 119.067L152.796 122H151.299L154.279 118.192L151.326 114.364H152.946L155.1 117.249L157.26 114.364H158.764L155.763 118.124L158.764 122ZM166.782 118.186C166.782 119.43 166.463 120.412 165.825 121.132C165.187 121.852 164.333 122.212 163.262 122.212C162.182 122.212 161.323 121.852 160.685 121.132C160.051 120.412 159.734 119.43 159.734 118.186C159.734 116.941 160.051 115.959 160.685 115.239C161.323 114.515 162.182 114.152 163.262 114.152C164.333 114.152 165.187 114.515 165.825 115.239C166.463 115.959 166.782 116.941 166.782 118.186ZM165.456 118.186C165.456 117.197 165.262 116.463 164.875 115.984C164.488 115.501 163.95 115.26 163.262 115.26C162.564 115.26 162.022 115.501 161.635 115.984C161.252 116.463 161.061 117.197 161.061 118.186C161.061 119.143 161.254 119.869 161.642 120.366C162.029 120.858 162.569 121.104 163.262 121.104C163.945 121.104 164.481 120.861 164.868 120.373C165.26 119.881 165.456 119.152 165.456 118.186ZM175.163 122H173.878V117.652C173.878 117.301 173.857 116.973 173.816 116.668C173.775 116.358 173.7 116.117 173.591 115.943C173.477 115.752 173.313 115.611 173.099 115.52C172.884 115.424 172.606 115.376 172.265 115.376C171.914 115.376 171.547 115.463 171.164 115.636C170.781 115.809 170.414 116.03 170.063 116.299V122H168.778V114.364H170.063V115.212C170.465 114.879 170.879 114.619 171.308 114.433C171.736 114.246 172.176 114.152 172.627 114.152C173.452 114.152 174.081 114.401 174.514 114.897C174.947 115.394 175.163 116.11 175.163 117.044V122ZM178.937 122H177.651V111.363H178.937V122ZM182.86 113.086H181.411V111.753H182.86V113.086ZM182.778 122H181.493V114.364H182.778V122ZM192.253 122H190.558L187.495 118.657L186.661 119.45V122H185.376V111.363H186.661V118.186L190.373 114.364H191.993L188.445 117.892L192.253 122ZM47.5498 139H45.793L41.7666 134.468L40.7549 135.548V139H39.4014V128.821H40.7549V134.133L45.6973 128.821H47.3379L42.792 133.606L47.5498 139ZM54.96 139H53.6748V138.152C53.2419 138.494 52.8271 138.756 52.4307 138.938C52.0342 139.121 51.5967 139.212 51.1182 139.212C50.3161 139.212 49.6917 138.968 49.2451 138.48C48.7985 137.988 48.5752 137.268 48.5752 136.32V131.364H49.8604V135.712C49.8604 136.099 49.8786 136.432 49.915 136.71C49.9515 136.983 50.029 137.218 50.1475 137.414C50.2705 137.615 50.43 137.76 50.626 137.852C50.8219 137.943 51.1068 137.988 51.4805 137.988C51.8132 137.988 52.1755 137.902 52.5674 137.729C52.9639 137.555 53.333 137.334 53.6748 137.065V131.364H54.96V139ZM62.2539 132.766H62.1855C61.9941 132.72 61.8073 132.688 61.625 132.67C61.4473 132.647 61.2354 132.636 60.9893 132.636C60.5928 132.636 60.21 132.725 59.8408 132.902C59.4717 133.076 59.1162 133.301 58.7744 133.579V139H57.4893V131.364H58.7744V132.492C59.2848 132.082 59.7337 131.793 60.1211 131.624C60.513 131.451 60.9118 131.364 61.3174 131.364C61.5407 131.364 61.7025 131.371 61.8027 131.385C61.903 131.394 62.0534 131.414 62.2539 131.446V132.766ZM68.9189 136.799C68.9189 137.496 68.6296 138.068 68.0508 138.515C67.4766 138.961 66.6904 139.185 65.6924 139.185C65.1273 139.185 64.6077 139.118 64.1338 138.986C63.6644 138.85 63.2702 138.701 62.9512 138.542V137.1H63.0195C63.4251 137.405 63.8763 137.649 64.373 137.831C64.8698 138.009 65.346 138.098 65.8018 138.098C66.3669 138.098 66.8089 138.007 67.1279 137.824C67.4469 137.642 67.6064 137.355 67.6064 136.963C67.6064 136.662 67.5199 136.434 67.3467 136.279C67.1735 136.124 66.8408 135.992 66.3486 135.883C66.1663 135.842 65.9271 135.794 65.6309 135.739C65.3392 135.685 65.0726 135.625 64.8311 135.562C64.1611 135.384 63.6849 135.124 63.4023 134.782C63.1243 134.436 62.9854 134.012 62.9854 133.511C62.9854 133.196 63.0492 132.9 63.1768 132.622C63.3089 132.344 63.5072 132.096 63.7715 131.877C64.0267 131.663 64.3503 131.494 64.7422 131.371C65.1387 131.243 65.5807 131.18 66.0684 131.18C66.5241 131.18 66.9844 131.237 67.4492 131.351C67.9186 131.46 68.3083 131.594 68.6182 131.754V133.128H68.5498C68.2217 132.886 67.8229 132.684 67.3535 132.52C66.8841 132.351 66.4238 132.267 65.9727 132.267C65.5033 132.267 65.1068 132.358 64.7832 132.54C64.4596 132.718 64.2979 132.984 64.2979 133.34C64.2979 133.654 64.3958 133.891 64.5918 134.051C64.7832 134.21 65.0931 134.34 65.5215 134.44C65.7585 134.495 66.0228 134.55 66.3145 134.604C66.6107 134.659 66.8568 134.709 67.0527 134.755C67.6497 134.892 68.11 135.126 68.4336 135.459C68.7572 135.796 68.9189 136.243 68.9189 136.799ZM72.0635 139H70.7783V128.363H72.0635V139ZM80.54 139H79.2617V138.187C79.1478 138.264 78.9928 138.373 78.7969 138.515C78.6055 138.651 78.4186 138.761 78.2363 138.843C78.0221 138.948 77.776 139.034 77.498 139.103C77.2201 139.175 76.8942 139.212 76.5205 139.212C75.8324 139.212 75.249 138.984 74.7705 138.528C74.292 138.073 74.0527 137.492 74.0527 136.785C74.0527 136.206 74.1758 135.739 74.4219 135.384C74.6725 135.024 75.028 134.741 75.4883 134.536C75.9531 134.331 76.5114 134.192 77.1631 134.119C77.8148 134.046 78.5143 133.992 79.2617 133.955V133.757C79.2617 133.465 79.2093 133.224 79.1045 133.032C79.0042 132.841 78.8584 132.69 78.667 132.581C78.4847 132.476 78.266 132.406 78.0107 132.369C77.7555 132.333 77.4889 132.314 77.2109 132.314C76.8737 132.314 76.4977 132.36 76.083 132.451C75.6683 132.538 75.2399 132.665 74.7979 132.834H74.7295V131.528C74.9801 131.46 75.3424 131.385 75.8164 131.303C76.2904 131.221 76.7575 131.18 77.2178 131.18C77.7555 131.18 78.2227 131.225 78.6191 131.316C79.0202 131.403 79.3665 131.553 79.6582 131.768C79.9453 131.977 80.1641 132.248 80.3145 132.581C80.4648 132.914 80.54 133.326 80.54 133.818V139ZM79.2617 137.12V134.994C78.8698 135.017 78.4072 135.051 77.874 135.097C77.3454 135.142 76.9261 135.208 76.6162 135.295C76.2471 135.4 75.9486 135.564 75.7207 135.787C75.4928 136.006 75.3789 136.309 75.3789 136.696C75.3789 137.134 75.5111 137.464 75.7754 137.688C76.0397 137.906 76.443 138.016 76.9854 138.016C77.4365 138.016 77.849 137.929 78.2227 137.756C78.5964 137.578 78.9427 137.366 79.2617 137.12ZM87.7793 132.766H87.7109C87.5195 132.72 87.3327 132.688 87.1504 132.67C86.9727 132.647 86.7607 132.636 86.5146 132.636C86.1182 132.636 85.7354 132.725 85.3662 132.902C84.9971 133.076 84.6416 133.301 84.2998 133.579V139H83.0146V131.364H84.2998V132.492C84.8102 132.082 85.2591 131.793 85.6465 131.624C86.0384 131.451 86.4372 131.364 86.8428 131.364C87.0661 131.364 87.2279 131.371 87.3281 131.385C87.4284 131.394 87.5788 131.414 87.7793 131.446V132.766ZM90.3701 130.086H88.9209V128.753H90.3701V130.086ZM90.2881 139H89.0029V131.364H90.2881V139Z" fill="#333333"/>
<path d="M5 165L12.5 172.5L25 157.5" stroke="#61B857" stroke-width="2" stroke-linecap="round" stroke-linejoin="round"/>
<path d="M46.627 155.024H42.9902V164H41.6367V155.024H38V153.821H46.627V155.024ZM52.1846 164H50.9062V163.187C50.7923 163.264 50.6374 163.373 50.4414 163.515C50.25 163.651 50.0632 163.761 49.8809 163.843C49.6667 163.948 49.4206 164.034 49.1426 164.103C48.8646 164.175 48.5387 164.212 48.165 164.212C47.4769 164.212 46.8936 163.984 46.415 163.528C45.9365 163.073 45.6973 162.492 45.6973 161.785C45.6973 161.206 45.8203 160.739 46.0664 160.384C46.3171 160.024 46.6725 159.741 47.1328 159.536C47.5977 159.331 48.1559 159.192 48.8076 159.119C49.4593 159.046 50.1589 158.992 50.9062 158.955V158.757C50.9062 158.465 50.8538 158.224 50.749 158.032C50.6488 157.841 50.5029 157.69 50.3115 157.581C50.1292 157.476 49.9105 157.406 49.6553 157.369C49.4001 157.333 49.1335 157.314 48.8555 157.314C48.5182 157.314 48.1423 157.36 47.7275 157.451C47.3128 157.538 46.8844 157.665 46.4424 157.834H46.374V156.528C46.6247 156.46 46.987 156.385 47.4609 156.303C47.9349 156.221 48.402 156.18 48.8623 156.18C49.4001 156.18 49.8672 156.225 50.2637 156.316C50.6647 156.403 51.0111 156.553 51.3027 156.768C51.5898 156.977 51.8086 157.248 51.959 157.581C52.1094 157.914 52.1846 158.326 52.1846 158.818V164ZM50.9062 162.12V159.994C50.5143 160.017 50.0518 160.051 49.5186 160.097C48.9899 160.142 48.5706 160.208 48.2607 160.295C47.8916 160.4 47.5931 160.564 47.3652 160.787C47.1374 161.006 47.0234 161.309 47.0234 161.696C47.0234 162.134 47.1556 162.464 47.4199 162.688C47.6842 162.906 48.0876 163.016 48.6299 163.016C49.0811 163.016 49.4935 162.929 49.8672 162.756C50.2409 162.578 50.5872 162.366 50.9062 162.12ZM60.8525 164H59.5674V163.2C59.1982 163.519 58.8132 163.768 58.4121 163.945C58.0111 164.123 57.5758 164.212 57.1064 164.212C56.195 164.212 55.4704 163.861 54.9326 163.159C54.3994 162.457 54.1328 161.484 54.1328 160.24C54.1328 159.593 54.224 159.017 54.4062 158.511C54.5931 158.005 54.8438 157.574 55.1582 157.219C55.4681 156.872 55.8281 156.608 56.2383 156.426C56.653 156.243 57.0814 156.152 57.5234 156.152C57.9245 156.152 58.2799 156.196 58.5898 156.282C58.8997 156.364 59.2256 156.494 59.5674 156.672V153.363H60.8525V164ZM59.5674 162.12V157.738C59.221 157.583 58.9111 157.476 58.6377 157.417C58.3643 157.358 58.0658 157.328 57.7422 157.328C57.0221 157.328 56.4616 157.579 56.0605 158.08C55.6595 158.581 55.459 159.292 55.459 160.213C55.459 161.12 55.6139 161.81 55.9238 162.284C56.2337 162.754 56.7305 162.988 57.4141 162.988C57.7786 162.988 58.1478 162.909 58.5215 162.749C58.8952 162.585 59.2438 162.375 59.5674 162.12ZM70.1016 160.124C70.1016 160.762 70.0104 161.336 69.8281 161.847C69.6504 162.357 69.4089 162.785 69.1035 163.132C68.7799 163.492 68.4245 163.763 68.0371 163.945C67.6497 164.123 67.2236 164.212 66.7588 164.212C66.3258 164.212 65.9476 164.16 65.624 164.055C65.3005 163.954 64.9814 163.818 64.667 163.645L64.585 164H63.3818V153.363H64.667V157.164C65.027 156.868 65.4098 156.626 65.8154 156.439C66.221 156.248 66.6768 156.152 67.1826 156.152C68.085 156.152 68.7959 156.499 69.3154 157.191C69.8395 157.884 70.1016 158.862 70.1016 160.124ZM68.7754 160.158C68.7754 159.247 68.625 158.556 68.3242 158.087C68.0234 157.613 67.5381 157.376 66.8682 157.376C66.4945 157.376 66.1162 157.458 65.7334 157.622C65.3506 157.782 64.9951 157.989 64.667 158.244V162.619C65.0316 162.783 65.3438 162.897 65.6035 162.961C65.8678 163.025 66.1663 163.057 66.499 163.057C67.21 163.057 67.766 162.824 68.167 162.359C68.5726 161.89 68.7754 161.156 68.7754 160.158ZM73.4854 155.086H72.0361V153.753H73.4854V155.086ZM73.4033 164H72.1182V156.364H73.4033V164ZM80.7109 157.766H80.6426C80.4512 157.72 80.2643 157.688 80.082 157.67C79.9043 157.647 79.6924 157.636 79.4463 157.636C79.0498 157.636 78.667 157.725 78.2979 157.902C77.9287 158.076 77.5732 158.301 77.2314 158.579V164H75.9463V156.364H77.2314V157.492C77.7419 157.082 78.1908 156.793 78.5781 156.624C78.9701 156.451 79.3688 156.364 79.7744 156.364C79.9977 156.364 80.1595 156.371 80.2598 156.385C80.36 156.394 80.5104 156.414 80.7109 156.446V157.766ZM88.8525 164H87.1572L84.0947 160.657L83.2607 161.45V164H81.9756V153.363H83.2607V160.186L86.9727 156.364H88.5928L85.0449 159.892L88.8525 164ZM96.5771 160.186C96.5771 161.43 96.2581 162.412 95.6201 163.132C94.9821 163.852 94.1276 164.212 93.0566 164.212C91.9766 164.212 91.1175 163.852 90.4795 163.132C89.846 162.412 89.5293 161.43 89.5293 160.186C89.5293 158.941 89.846 157.959 90.4795 157.239C91.1175 156.515 91.9766 156.152 93.0566 156.152C94.1276 156.152 94.9821 156.515 95.6201 157.239C96.2581 157.959 96.5771 158.941 96.5771 160.186ZM95.251 160.186C95.251 159.197 95.0573 158.463 94.6699 157.984C94.2826 157.501 93.7448 157.26 93.0566 157.26C92.3594 157.26 91.8171 157.501 91.4297 157.984C91.0469 158.463 90.8555 159.197 90.8555 160.186C90.8555 161.143 91.0492 161.869 91.4365 162.366C91.8239 162.858 92.3639 163.104 93.0566 163.104C93.7402 163.104 94.2757 162.861 94.6631 162.373C95.055 161.881 95.251 161.152 95.251 160.186ZM103.338 157.766H103.27C103.078 157.72 102.891 157.688 102.709 157.67C102.531 157.647 102.319 157.636 102.073 157.636C101.677 157.636 101.294 157.725 100.925 157.902C100.556 158.076 100.2 158.301 99.8584 158.579V164H98.5732V156.364H99.8584V157.492C100.369 157.082 100.818 156.793 101.205 156.624C101.597 156.451 101.996 156.364 102.401 156.364C102.625 156.364 102.786 156.371 102.887 156.385C102.987 156.394 103.137 156.414 103.338 156.446V157.766ZM105.847 164H104.562V153.363H105.847V164ZM114.323 164H113.045V163.187C112.931 163.264 112.776 163.373 112.58 163.515C112.389 163.651 112.202 163.761 112.02 163.843C111.805 163.948 111.559 164.034 111.281 164.103C111.003 164.175 110.677 164.212 110.304 164.212C109.616 164.212 109.032 163.984 108.554 163.528C108.075 163.073 107.836 162.492 107.836 161.785C107.836 161.206 107.959 160.739 108.205 160.384C108.456 160.024 108.811 159.741 109.271 159.536C109.736 159.331 110.295 159.192 110.946 159.119C111.598 159.046 112.298 158.992 113.045 158.955V158.757C113.045 158.465 112.993 158.224 112.888 158.032C112.787 157.841 112.642 157.69 112.45 157.581C112.268 157.476 112.049 157.406 111.794 157.369C111.539 157.333 111.272 157.314 110.994 157.314C110.657 157.314 110.281 157.36 109.866 157.451C109.451 157.538 109.023 157.665 108.581 157.834H108.513V156.528C108.763 156.46 109.126 156.385 109.6 156.303C110.074 156.221 110.541 156.18 111.001 156.18C111.539 156.18 112.006 156.225 112.402 156.316C112.803 156.403 113.15 156.553 113.441 156.768C113.729 156.977 113.947 157.248 114.098 157.581C114.248 157.914 114.323 158.326 114.323 158.818V164ZM113.045 162.12V159.994C112.653 160.017 112.19 160.051 111.657 160.097C111.129 160.142 110.709 160.208 110.399 160.295C110.03 160.4 109.732 160.564 109.504 160.787C109.276 161.006 109.162 161.309 109.162 161.696C109.162 162.134 109.294 162.464 109.559 162.688C109.823 162.906 110.226 163.016 110.769 163.016C111.22 163.016 111.632 162.929 112.006 162.756C112.38 162.578 112.726 162.366 113.045 162.12ZM121.562 157.766H121.494C121.303 157.72 121.116 157.688 120.934 157.67C120.756 157.647 120.544 157.636 120.298 157.636C119.901 157.636 119.519 157.725 119.149 157.902C118.78 158.076 118.425 158.301 118.083 158.579V164H116.798V156.364H118.083V157.492C118.593 157.082 119.042 156.793 119.43 156.624C119.822 156.451 120.22 156.364 120.626 156.364C120.849 156.364 121.011 156.371 121.111 156.385C121.212 156.394 121.362 156.414 121.562 156.446V157.766ZM134.024 164H132.739V163.152C132.306 163.494 131.892 163.756 131.495 163.938C131.099 164.121 130.661 164.212 130.183 164.212C129.381 164.212 128.756 163.968 128.31 163.48C127.863 162.988 127.64 162.268 127.64 161.32V156.364H128.925V160.712C128.925 161.099 128.943 161.432 128.979 161.71C129.016 161.983 129.093 162.218 129.212 162.414C129.335 162.615 129.494 162.76 129.69 162.852C129.886 162.943 130.171 162.988 130.545 162.988C130.878 162.988 131.24 162.902 131.632 162.729C132.028 162.555 132.397 162.334 132.739 162.065V156.364H134.024V164ZM142.2 163.521C141.772 163.727 141.364 163.886 140.977 164C140.594 164.114 140.186 164.171 139.753 164.171C139.201 164.171 138.696 164.091 138.235 163.932C137.775 163.768 137.381 163.521 137.053 163.193C136.72 162.865 136.463 162.451 136.28 161.949C136.098 161.448 136.007 160.862 136.007 160.192C136.007 158.944 136.349 157.964 137.032 157.253C137.72 156.542 138.627 156.187 139.753 156.187C140.19 156.187 140.619 156.248 141.038 156.371C141.462 156.494 141.849 156.645 142.2 156.822V158.251H142.132C141.74 157.946 141.334 157.711 140.915 157.547C140.5 157.383 140.095 157.301 139.698 157.301C138.969 157.301 138.393 157.547 137.969 158.039C137.549 158.527 137.34 159.244 137.34 160.192C137.34 161.113 137.545 161.822 137.955 162.318C138.37 162.811 138.951 163.057 139.698 163.057C139.958 163.057 140.222 163.022 140.491 162.954C140.76 162.886 141.002 162.797 141.216 162.688C141.403 162.592 141.578 162.492 141.742 162.387C141.906 162.277 142.036 162.184 142.132 162.106H142.2V163.521ZM150.239 164H148.954V159.652C148.954 159.301 148.934 158.973 148.893 158.668C148.852 158.358 148.776 158.117 148.667 157.943C148.553 157.752 148.389 157.611 148.175 157.52C147.961 157.424 147.683 157.376 147.341 157.376C146.99 157.376 146.623 157.463 146.24 157.636C145.857 157.809 145.491 158.03 145.14 158.299V164H143.854V153.363H145.14V157.212C145.541 156.879 145.955 156.619 146.384 156.433C146.812 156.246 147.252 156.152 147.703 156.152C148.528 156.152 149.157 156.401 149.59 156.897C150.023 157.394 150.239 158.11 150.239 159.044V164ZM159.044 164H157.759V163.152C157.326 163.494 156.911 163.756 156.515 163.938C156.118 164.121 155.681 164.212 155.202 164.212C154.4 164.212 153.776 163.968 153.329 163.48C152.882 162.988 152.659 162.268 152.659 161.32V156.364H153.944V160.712C153.944 161.099 153.963 161.432 153.999 161.71C154.035 161.983 154.113 162.218 154.231 162.414C154.354 162.615 154.514 162.76 154.71 162.852C154.906 162.943 155.191 162.988 155.564 162.988C155.897 162.988 156.259 162.902 156.651 162.729C157.048 162.555 157.417 162.334 157.759 162.065V156.364H159.044V164ZM167.958 164H166.673V159.652C166.673 159.301 166.652 158.973 166.611 158.668C166.57 158.358 166.495 158.117 166.386 157.943C166.272 157.752 166.108 157.611 165.894 157.52C165.679 157.424 165.401 157.376 165.06 157.376C164.709 157.376 164.342 157.463 163.959 157.636C163.576 157.809 163.209 158.03 162.858 158.299V164H161.573V156.364H162.858V157.212C163.259 156.879 163.674 156.619 164.103 156.433C164.531 156.246 164.971 156.152 165.422 156.152C166.247 156.152 166.876 156.401 167.309 156.897C167.742 157.394 167.958 158.11 167.958 159.044V164ZM48.4316 181H47.0781V172.229L44.248 178.197H43.4414L40.6318 172.229V181H39.3672V170.821H41.2129L43.9268 176.488L46.5518 170.821H48.4316V181ZM57.5713 177.186C57.5713 178.43 57.2523 179.412 56.6143 180.132C55.9762 180.852 55.1217 181.212 54.0508 181.212C52.9707 181.212 52.1117 180.852 51.4736 180.132C50.8402 179.412 50.5234 178.43 50.5234 177.186C50.5234 175.941 50.8402 174.959 51.4736 174.239C52.1117 173.515 52.9707 173.152 54.0508 173.152C55.1217 173.152 55.9762 173.515 56.6143 174.239C57.2523 174.959 57.5713 175.941 57.5713 177.186ZM56.2451 177.186C56.2451 176.197 56.0514 175.463 55.6641 174.984C55.2767 174.501 54.7389 174.26 54.0508 174.26C53.3535 174.26 52.8112 174.501 52.4238 174.984C52.041 175.463 51.8496 176.197 51.8496 177.186C51.8496 178.143 52.0433 178.869 52.4307 179.366C52.818 179.858 53.3581 180.104 54.0508 180.104C54.7344 180.104 55.2699 179.861 55.6572 179.373C56.0492 178.881 56.2451 178.152 56.2451 177.186ZM60.8662 181H59.5811V170.363H60.8662V181ZM64.79 172.086H63.3408V170.753H64.79V172.086ZM64.708 181H63.4229V173.364H64.708V181ZM73.8545 173.364L69.3975 183.816H68.0234L69.4453 180.631L66.4033 173.364H67.7979L70.1426 179.024L72.5078 173.364H73.8545ZM81.1963 181H79.918V180.187C79.804 180.264 79.6491 180.373 79.4531 180.515C79.2617 180.651 79.0749 180.761 78.8926 180.843C78.6784 180.948 78.4323 181.034 78.1543 181.103C77.8763 181.175 77.5505 181.212 77.1768 181.212C76.4886 181.212 75.9053 180.984 75.4268 180.528C74.9482 180.073 74.709 179.492 74.709 178.785C74.709 178.206 74.832 177.739 75.0781 177.384C75.3288 177.024 75.6842 176.741 76.1445 176.536C76.6094 176.331 77.1676 176.192 77.8193 176.119C78.471 176.046 79.1706 175.992 79.918 175.955V175.757C79.918 175.465 79.8656 175.224 79.7607 175.032C79.6605 174.841 79.5146 174.69 79.3232 174.581C79.141 174.476 78.9222 174.406 78.667 174.369C78.4118 174.333 78.1452 174.314 77.8672 174.314C77.5299 174.314 77.154 174.36 76.7393 174.451C76.3245 174.538 75.8962 174.665 75.4541 174.834H75.3857V173.528C75.6364 173.46 75.9987 173.385 76.4727 173.303C76.9466 173.221 77.4137 173.18 77.874 173.18C78.4118 173.18 78.8789 173.225 79.2754 173.316C79.6764 173.403 80.0228 173.553 80.3145 173.768C80.6016 173.977 80.8203 174.248 80.9707 174.581C81.1211 174.914 81.1963 175.326 81.1963 175.818V181ZM79.918 179.12V176.994C79.526 177.017 79.0635 177.051 78.5303 177.097C78.0016 177.142 77.5824 177.208 77.2725 177.295C76.9033 177.4 76.6048 177.564 76.377 177.787C76.1491 178.006 76.0352 178.309 76.0352 178.696C76.0352 179.134 76.1673 179.464 76.4316 179.688C76.696 179.906 77.0993 180.016 77.6416 180.016C78.0928 180.016 78.5052 179.929 78.8789 179.756C79.2526 179.578 79.599 179.366 79.918 179.12ZM90.165 173.364L87.0752 181H85.7832L82.7139 173.364H84.1084L86.4736 179.441L88.8184 173.364H90.165ZM93.2275 172.086H91.7783V170.753H93.2275V172.086ZM93.1455 181H91.8604V173.364H93.1455V181ZM102.292 173.364L97.835 183.816H96.4609L97.8828 180.631L94.8408 173.364H96.2354L98.5801 179.024L100.945 173.364H102.292ZM118.062 181H116.709V172.229L113.879 178.197H113.072L110.263 172.229V181H108.998V170.821H110.844L113.558 176.488L116.183 170.821H118.062V181ZM127.086 177.315H121.46C121.46 177.785 121.531 178.195 121.672 178.546C121.813 178.892 122.007 179.177 122.253 179.4C122.49 179.619 122.77 179.783 123.094 179.893C123.422 180.002 123.782 180.057 124.174 180.057C124.693 180.057 125.215 179.954 125.739 179.749C126.268 179.539 126.644 179.334 126.867 179.134H126.936V180.535C126.503 180.717 126.061 180.87 125.609 180.993C125.158 181.116 124.684 181.178 124.188 181.178C122.921 181.178 121.932 180.836 121.221 180.152C120.51 179.464 120.154 178.489 120.154 177.227C120.154 175.978 120.494 174.987 121.173 174.253C121.856 173.519 122.754 173.152 123.866 173.152C124.896 173.152 125.689 173.453 126.245 174.055C126.806 174.656 127.086 175.511 127.086 176.618V177.315ZM125.835 176.331C125.83 175.657 125.66 175.135 125.322 174.766C124.99 174.396 124.481 174.212 123.798 174.212C123.11 174.212 122.561 174.415 122.15 174.82C121.745 175.226 121.515 175.729 121.46 176.331H125.835ZM135.419 181H134.134V176.652C134.134 176.301 134.113 175.973 134.072 175.668C134.031 175.358 133.956 175.117 133.847 174.943C133.733 174.752 133.569 174.611 133.354 174.52C133.14 174.424 132.862 174.376 132.521 174.376C132.17 174.376 131.803 174.463 131.42 174.636C131.037 174.809 130.67 175.03 130.319 175.299V181H129.034V173.364H130.319V174.212C130.72 173.879 131.135 173.619 131.563 173.433C131.992 173.246 132.432 173.152 132.883 173.152C133.708 173.152 134.337 173.401 134.77 173.897C135.202 174.394 135.419 175.11 135.419 176.044V181ZM144.285 177.315H138.659C138.659 177.785 138.73 178.195 138.871 178.546C139.012 178.892 139.206 179.177 139.452 179.4C139.689 179.619 139.969 179.783 140.293 179.893C140.621 180.002 140.981 180.057 141.373 180.057C141.893 180.057 142.414 179.954 142.938 179.749C143.467 179.539 143.843 179.334 144.066 179.134H144.135V180.535C143.702 180.717 143.26 180.87 142.809 180.993C142.357 181.116 141.883 181.178 141.387 181.178C140.12 181.178 139.131 180.836 138.42 180.152C137.709 179.464 137.354 178.489 137.354 177.227C137.354 175.978 137.693 174.987 138.372 174.253C139.056 173.519 139.953 173.152 141.065 173.152C142.095 173.152 142.888 173.453 143.444 174.055C144.005 174.656 144.285 175.511 144.285 176.618V177.315ZM143.034 176.331C143.03 175.657 142.859 175.135 142.521 174.766C142.189 174.396 141.681 174.212 140.997 174.212C140.309 174.212 139.76 174.415 139.35 174.82C138.944 175.226 138.714 175.729 138.659 176.331H143.034ZM148.612 172.086H147.163V170.753H148.612V172.086ZM148.53 181.185C148.53 182.078 148.302 182.752 147.847 183.208C147.391 183.664 146.78 183.892 146.015 183.892C145.832 183.892 145.591 183.873 145.29 183.837C144.994 183.8 144.745 183.755 144.545 183.7V182.477H144.613C144.741 182.527 144.912 182.584 145.126 182.647C145.345 182.711 145.557 182.743 145.762 182.743C146.09 182.743 146.354 182.698 146.555 182.606C146.755 182.515 146.906 182.379 147.006 182.196C147.106 182.014 147.17 181.793 147.197 181.533C147.229 181.278 147.245 180.966 147.245 180.597V174.444H145.652V173.364H148.53V181.185ZM162.202 181H160.917V176.652C160.917 176.324 160.901 176.007 160.869 175.702C160.842 175.397 160.78 175.153 160.685 174.971C160.58 174.775 160.429 174.627 160.233 174.526C160.037 174.426 159.755 174.376 159.386 174.376C159.026 174.376 158.666 174.467 158.306 174.649C157.946 174.827 157.586 175.055 157.226 175.333C157.239 175.438 157.251 175.561 157.26 175.702C157.269 175.839 157.273 175.976 157.273 176.112V181H155.988V176.652C155.988 176.315 155.972 175.996 155.94 175.695C155.913 175.39 155.852 175.146 155.756 174.964C155.651 174.768 155.501 174.622 155.305 174.526C155.109 174.426 154.826 174.376 154.457 174.376C154.106 174.376 153.753 174.463 153.397 174.636C153.047 174.809 152.696 175.03 152.345 175.299V181H151.06V173.364H152.345V174.212C152.746 173.879 153.145 173.619 153.541 173.433C153.942 173.246 154.368 173.152 154.819 173.152C155.339 173.152 155.779 173.262 156.139 173.48C156.503 173.699 156.774 174.002 156.952 174.39C157.472 173.952 157.946 173.638 158.374 173.446C158.802 173.25 159.26 173.152 159.748 173.152C160.587 173.152 161.204 173.408 161.601 173.918C162.002 174.424 162.202 175.132 162.202 176.044V181ZM171.068 177.315H165.442C165.442 177.785 165.513 178.195 165.654 178.546C165.796 178.892 165.989 179.177 166.235 179.4C166.472 179.619 166.753 179.783 167.076 179.893C167.404 180.002 167.764 180.057 168.156 180.057C168.676 180.057 169.198 179.954 169.722 179.749C170.25 179.539 170.626 179.334 170.85 179.134H170.918V180.535C170.485 180.717 170.043 180.87 169.592 180.993C169.141 181.116 168.667 181.178 168.17 181.178C166.903 181.178 165.914 180.836 165.203 180.152C164.492 179.464 164.137 178.489 164.137 177.227C164.137 175.978 164.476 174.987 165.155 174.253C165.839 173.519 166.737 173.152 167.849 173.152C168.879 173.152 169.672 173.453 170.228 174.055C170.788 174.656 171.068 175.511 171.068 176.618V177.315ZM169.817 176.331C169.813 175.657 169.642 175.135 169.305 174.766C168.972 174.396 168.464 174.212 167.78 174.212C167.092 174.212 166.543 174.415 166.133 174.82C165.727 175.226 165.497 175.729 165.442 176.331H169.817ZM179.401 181H178.116V176.652C178.116 176.301 178.096 175.973 178.055 175.668C178.014 175.358 177.938 175.117 177.829 174.943C177.715 174.752 177.551 174.611 177.337 174.52C177.123 174.424 176.845 174.376 176.503 174.376C176.152 174.376 175.785 174.463 175.402 174.636C175.02 174.809 174.653 175.03 174.302 175.299V181H173.017V173.364H174.302V174.212C174.703 173.879 175.118 173.619 175.546 173.433C175.974 173.246 176.414 173.152 176.865 173.152C177.69 173.152 178.319 173.401 178.752 173.897C179.185 174.394 179.401 175.11 179.401 176.044V181ZM185.841 180.932C185.599 180.995 185.335 181.048 185.048 181.089C184.765 181.13 184.512 181.15 184.289 181.15C183.51 181.15 182.917 180.941 182.512 180.521C182.106 180.102 181.903 179.43 181.903 178.505V174.444H181.035V173.364H181.903V171.17H183.188V173.364H185.841V174.444H183.188V177.924C183.188 178.325 183.198 178.639 183.216 178.867C183.234 179.09 183.298 179.3 183.407 179.496C183.507 179.678 183.644 179.813 183.817 179.899C183.995 179.981 184.264 180.022 184.624 180.022C184.834 180.022 185.052 179.993 185.28 179.934C185.508 179.87 185.672 179.817 185.772 179.776H185.841V180.932Z" fill="#333333"/>
<path d="M5 207L12.5 214.5L25 199.5" stroke="#61B857" stroke-width="2" stroke-linecap="round" stroke-linejoin="round"/>
<path d="M47.0439 209.369C47.0439 209.875 46.9482 210.322 46.7568 210.709C46.5654 211.096 46.3079 211.415 45.9844 211.666C45.6016 211.967 45.18 212.181 44.7197 212.309C44.264 212.436 43.6829 212.5 42.9766 212.5H39.3672V202.321H42.3818C43.1247 202.321 43.6807 202.349 44.0498 202.403C44.4189 202.458 44.7721 202.572 45.1094 202.745C45.4831 202.941 45.7542 203.194 45.9229 203.504C46.0915 203.809 46.1758 204.176 46.1758 204.604C46.1758 205.088 46.0527 205.5 45.8066 205.842C45.5605 206.179 45.2324 206.45 44.8223 206.655V206.71C45.5104 206.851 46.0527 207.154 46.4492 207.619C46.8457 208.079 47.0439 208.663 47.0439 209.369ZM44.7676 204.782C44.7676 204.536 44.7266 204.329 44.6445 204.16C44.5625 203.992 44.4303 203.855 44.248 203.75C44.0339 203.627 43.7741 203.552 43.4688 203.524C43.1634 203.493 42.7852 203.477 42.334 203.477H40.7207V206.416H42.4707C42.8945 206.416 43.2318 206.396 43.4824 206.354C43.7331 206.309 43.9655 206.218 44.1797 206.081C44.3939 205.944 44.5443 205.769 44.6309 205.555C44.722 205.336 44.7676 205.078 44.7676 204.782ZM45.6357 209.424C45.6357 209.014 45.5742 208.688 45.4512 208.446C45.3281 208.205 45.1048 208 44.7812 207.831C44.5625 207.717 44.2959 207.644 43.9814 207.612C43.6715 207.576 43.2933 207.558 42.8467 207.558H40.7207V211.345H42.5117C43.1042 211.345 43.5895 211.315 43.9678 211.256C44.346 211.192 44.6559 211.078 44.8975 210.914C45.1527 210.736 45.3395 210.534 45.458 210.306C45.5765 210.078 45.6357 209.784 45.6357 209.424ZM50.2432 203.586H48.7939V202.253H50.2432V203.586ZM50.1611 212.5H48.876V204.864H50.1611V212.5ZM58.2412 212.5H52.0752V211.55L56.5254 205.938H52.1709V204.864H58.125V205.78L53.6543 211.413H58.2412V212.5ZM66.4443 212.5H65.1592V208.152C65.1592 207.801 65.1387 207.473 65.0977 207.168C65.0566 206.858 64.9814 206.617 64.8721 206.443C64.7581 206.252 64.5941 206.111 64.3799 206.02C64.1657 205.924 63.8877 205.876 63.5459 205.876C63.195 205.876 62.8281 205.963 62.4453 206.136C62.0625 206.309 61.6956 206.53 61.3447 206.799V212.5H60.0596V204.864H61.3447V205.712C61.7458 205.379 62.1605 205.119 62.5889 204.933C63.0173 204.746 63.457 204.652 63.9082 204.652C64.7331 204.652 65.362 204.901 65.7949 205.397C66.2279 205.894 66.4443 206.61 66.4443 207.544V212.5ZM75.3105 208.815H69.6846C69.6846 209.285 69.7552 209.695 69.8965 210.046C70.0378 210.392 70.2314 210.677 70.4775 210.9C70.7145 211.119 70.9948 211.283 71.3184 211.393C71.6465 211.502 72.0065 211.557 72.3984 211.557C72.918 211.557 73.4398 211.454 73.9639 211.249C74.4925 211.039 74.8685 210.834 75.0918 210.634H75.1602V212.035C74.7272 212.217 74.2852 212.37 73.834 212.493C73.3828 212.616 72.9089 212.678 72.4121 212.678C71.1452 212.678 70.1562 212.336 69.4453 211.652C68.7344 210.964 68.3789 209.989 68.3789 208.727C68.3789 207.478 68.7184 206.487 69.3975 205.753C70.0811 205.019 70.9788 204.652 72.0908 204.652C73.1208 204.652 73.9137 204.953 74.4697 205.555C75.0303 206.156 75.3105 207.011 75.3105 208.118V208.815ZM74.0596 207.831C74.055 207.157 73.8841 206.635 73.5469 206.266C73.2142 205.896 72.7061 205.712 72.0225 205.712C71.3343 205.712 70.7852 205.915 70.375 206.32C69.9694 206.726 69.7393 207.229 69.6846 207.831H74.0596ZM82.7139 210.299C82.7139 210.996 82.4245 211.568 81.8457 212.015C81.2715 212.461 80.4854 212.685 79.4873 212.685C78.9222 212.685 78.4027 212.618 77.9287 212.486C77.4593 212.35 77.0651 212.201 76.7461 212.042V210.6H76.8145C77.2201 210.905 77.6712 211.149 78.168 211.331C78.6647 211.509 79.141 211.598 79.5967 211.598C80.1618 211.598 80.6038 211.507 80.9229 211.324C81.2419 211.142 81.4014 210.855 81.4014 210.463C81.4014 210.162 81.3148 209.934 81.1416 209.779C80.9684 209.624 80.6357 209.492 80.1436 209.383C79.9613 209.342 79.722 209.294 79.4258 209.239C79.1341 209.185 78.8675 209.125 78.626 209.062C77.9561 208.884 77.4798 208.624 77.1973 208.282C76.9193 207.936 76.7803 207.512 76.7803 207.011C76.7803 206.696 76.8441 206.4 76.9717 206.122C77.1038 205.844 77.3021 205.596 77.5664 205.377C77.8216 205.163 78.1452 204.994 78.5371 204.871C78.9336 204.743 79.3757 204.68 79.8633 204.68C80.319 204.68 80.7793 204.737 81.2441 204.851C81.7135 204.96 82.1032 205.094 82.4131 205.254V206.628H82.3447C82.0166 206.386 81.6178 206.184 81.1484 206.02C80.679 205.851 80.2188 205.767 79.7676 205.767C79.2982 205.767 78.9017 205.858 78.5781 206.04C78.2546 206.218 78.0928 206.484 78.0928 206.84C78.0928 207.154 78.1908 207.391 78.3867 207.551C78.5781 207.71 78.888 207.84 79.3164 207.94C79.5534 207.995 79.8177 208.05 80.1094 208.104C80.4056 208.159 80.6517 208.209 80.8477 208.255C81.4447 208.392 81.9049 208.626 82.2285 208.959C82.5521 209.296 82.7139 209.743 82.7139 210.299ZM90.7529 211.632C90.7529 212.926 90.459 213.876 89.8711 214.482C89.2832 215.089 88.3786 215.392 87.1572 215.392C86.7516 215.392 86.3551 215.362 85.9678 215.303C85.585 215.248 85.2067 215.168 84.833 215.063V213.751H84.9014C85.111 213.833 85.4437 213.933 85.8994 214.052C86.3551 214.175 86.8109 214.236 87.2666 214.236C87.7041 214.236 88.0664 214.184 88.3535 214.079C88.6406 213.974 88.8639 213.828 89.0234 213.642C89.1829 213.464 89.2969 213.25 89.3652 212.999C89.4336 212.748 89.4678 212.468 89.4678 212.158V211.461C89.0804 211.771 88.709 212.003 88.3535 212.158C88.0026 212.309 87.5537 212.384 87.0068 212.384C86.0954 212.384 85.3708 212.056 84.833 211.399C84.2998 210.739 84.0332 209.809 84.0332 208.61C84.0332 207.954 84.1243 207.389 84.3066 206.915C84.4935 206.437 84.7464 206.024 85.0654 205.678C85.3617 205.354 85.7217 205.104 86.1455 204.926C86.5693 204.743 86.9909 204.652 87.4102 204.652C87.8522 204.652 88.2214 204.698 88.5176 204.789C88.8184 204.876 89.1351 205.01 89.4678 205.192L89.5498 204.864H90.7529V211.632ZM89.4678 210.401V206.238C89.126 206.083 88.807 205.974 88.5107 205.91C88.2191 205.842 87.9274 205.808 87.6357 205.808C86.9294 205.808 86.3734 206.045 85.9678 206.519C85.5622 206.993 85.3594 207.681 85.3594 208.583C85.3594 209.44 85.5098 210.089 85.8105 210.531C86.1113 210.973 86.6104 211.194 87.3076 211.194C87.6813 211.194 88.055 211.124 88.4287 210.982C88.807 210.837 89.1533 210.643 89.4678 210.401ZM99.2158 212.5H97.9375V211.687C97.8236 211.764 97.6686 211.873 97.4727 212.015C97.2812 212.151 97.0944 212.261 96.9121 212.343C96.6979 212.448 96.4518 212.534 96.1738 212.603C95.8958 212.675 95.57 212.712 95.1963 212.712C94.5081 212.712 93.9248 212.484 93.4463 212.028C92.9678 211.573 92.7285 210.992 92.7285 210.285C92.7285 209.706 92.8516 209.239 93.0977 208.884C93.3483 208.524 93.7038 208.241 94.1641 208.036C94.6289 207.831 95.1872 207.692 95.8389 207.619C96.4906 207.546 97.1901 207.492 97.9375 207.455V207.257C97.9375 206.965 97.8851 206.724 97.7803 206.532C97.68 206.341 97.5342 206.19 97.3428 206.081C97.1605 205.976 96.9417 205.906 96.6865 205.869C96.4313 205.833 96.1647 205.814 95.8867 205.814C95.5495 205.814 95.1735 205.86 94.7588 205.951C94.3441 206.038 93.9157 206.165 93.4736 206.334H93.4053V205.028C93.6559 204.96 94.0182 204.885 94.4922 204.803C94.9661 204.721 95.4333 204.68 95.8936 204.68C96.4313 204.68 96.8984 204.725 97.2949 204.816C97.696 204.903 98.0423 205.053 98.334 205.268C98.6211 205.477 98.8398 205.748 98.9902 206.081C99.1406 206.414 99.2158 206.826 99.2158 207.318V212.5ZM97.9375 210.62V208.494C97.5456 208.517 97.083 208.551 96.5498 208.597C96.0212 208.642 95.6019 208.708 95.292 208.795C94.9229 208.9 94.6243 209.064 94.3965 209.287C94.1686 209.506 94.0547 209.809 94.0547 210.196C94.0547 210.634 94.1868 210.964 94.4512 211.188C94.7155 211.406 95.1188 211.516 95.6611 211.516C96.1123 211.516 96.5247 211.429 96.8984 211.256C97.2721 211.078 97.6185 210.866 97.9375 210.62ZM117.755 212.5H116.47V208.152C116.47 207.824 116.454 207.507 116.422 207.202C116.395 206.897 116.333 206.653 116.237 206.471C116.132 206.275 115.982 206.127 115.786 206.026C115.59 205.926 115.308 205.876 114.938 205.876C114.578 205.876 114.218 205.967 113.858 206.149C113.498 206.327 113.138 206.555 112.778 206.833C112.792 206.938 112.803 207.061 112.812 207.202C112.822 207.339 112.826 207.476 112.826 207.612V212.5H111.541V208.152C111.541 207.815 111.525 207.496 111.493 207.195C111.466 206.89 111.404 206.646 111.309 206.464C111.204 206.268 111.053 206.122 110.857 206.026C110.661 205.926 110.379 205.876 110.01 205.876C109.659 205.876 109.306 205.963 108.95 206.136C108.599 206.309 108.248 206.53 107.897 206.799V212.5H106.612V204.864H107.897V205.712C108.299 205.379 108.697 205.119 109.094 204.933C109.495 204.746 109.921 204.652 110.372 204.652C110.892 204.652 111.331 204.762 111.691 204.98C112.056 205.199 112.327 205.502 112.505 205.89C113.024 205.452 113.498 205.138 113.927 204.946C114.355 204.75 114.813 204.652 115.301 204.652C116.139 204.652 116.757 204.908 117.153 205.418C117.554 205.924 117.755 206.632 117.755 207.544V212.5ZM126.737 208.686C126.737 209.93 126.418 210.912 125.78 211.632C125.142 212.352 124.288 212.712 123.217 212.712C122.137 212.712 121.278 212.352 120.64 211.632C120.006 210.912 119.689 209.93 119.689 208.686C119.689 207.441 120.006 206.459 120.64 205.739C121.278 205.015 122.137 204.652 123.217 204.652C124.288 204.652 125.142 205.015 125.78 205.739C126.418 206.459 126.737 207.441 126.737 208.686ZM125.411 208.686C125.411 207.697 125.217 206.963 124.83 206.484C124.443 206.001 123.905 205.76 123.217 205.76C122.52 205.76 121.977 206.001 121.59 206.484C121.207 206.963 121.016 207.697 121.016 208.686C121.016 209.643 121.209 210.369 121.597 210.866C121.984 211.358 122.524 211.604 123.217 211.604C123.9 211.604 124.436 211.361 124.823 210.873C125.215 210.381 125.411 209.652 125.411 208.686ZM130.032 212.5H128.747V201.863H130.032V212.5ZM133.956 203.586H132.507V202.253H133.956V203.586ZM133.874 212.5H132.589V204.864H133.874V212.5ZM143.021 204.864L138.563 215.316H137.189L138.611 212.131L135.569 204.864H136.964L139.309 210.524L141.674 204.864H143.021ZM150.362 212.5H149.084V211.687C148.97 211.764 148.815 211.873 148.619 212.015C148.428 212.151 148.241 212.261 148.059 212.343C147.844 212.448 147.598 212.534 147.32 212.603C147.042 212.675 146.716 212.712 146.343 212.712C145.655 212.712 145.071 212.484 144.593 212.028C144.114 211.573 143.875 210.992 143.875 210.285C143.875 209.706 143.998 209.239 144.244 208.884C144.495 208.524 144.85 208.241 145.311 208.036C145.775 207.831 146.334 207.692 146.985 207.619C147.637 207.546 148.337 207.492 149.084 207.455V207.257C149.084 206.965 149.032 206.724 148.927 206.532C148.826 206.341 148.681 206.19 148.489 206.081C148.307 205.976 148.088 205.906 147.833 205.869C147.578 205.833 147.311 205.814 147.033 205.814C146.696 205.814 146.32 205.86 145.905 205.951C145.491 206.038 145.062 206.165 144.62 206.334H144.552V205.028C144.802 204.96 145.165 204.885 145.639 204.803C146.113 204.721 146.58 204.68 147.04 204.68C147.578 204.68 148.045 204.725 148.441 204.816C148.842 204.903 149.189 205.053 149.48 205.268C149.768 205.477 149.986 205.748 150.137 206.081C150.287 206.414 150.362 206.826 150.362 207.318V212.5ZM149.084 210.62V208.494C148.692 208.517 148.229 208.551 147.696 208.597C147.168 208.642 146.748 208.708 146.438 208.795C146.069 208.9 145.771 209.064 145.543 209.287C145.315 209.506 145.201 209.809 145.201 210.196C145.201 210.634 145.333 210.964 145.598 211.188C145.862 211.406 146.265 211.516 146.808 211.516C147.259 211.516 147.671 211.429 148.045 211.256C148.419 211.078 148.765 210.866 149.084 210.62ZM159.222 212.5H157.937V208.152C157.937 207.801 157.916 207.473 157.875 207.168C157.834 206.858 157.759 206.617 157.649 206.443C157.535 206.252 157.371 206.111 157.157 206.02C156.943 205.924 156.665 205.876 156.323 205.876C155.972 205.876 155.605 205.963 155.223 206.136C154.84 206.309 154.473 206.53 154.122 206.799V212.5H152.837V204.864H154.122V205.712C154.523 205.379 154.938 205.119 155.366 204.933C155.795 204.746 156.234 204.652 156.686 204.652C157.51 204.652 158.139 204.901 158.572 205.397C159.005 205.894 159.222 206.61 159.222 207.544V212.5ZM163.077 203.586H161.628V202.253H163.077V203.586ZM162.995 212.5H161.71V204.864H162.995V212.5ZM172.839 203.586H171.39V202.253H172.839V203.586ZM172.757 212.685C172.757 213.578 172.529 214.252 172.073 214.708C171.618 215.164 171.007 215.392 170.241 215.392C170.059 215.392 169.817 215.373 169.517 215.337C169.22 215.3 168.972 215.255 168.771 215.2V213.977H168.84C168.967 214.027 169.138 214.084 169.353 214.147C169.571 214.211 169.783 214.243 169.988 214.243C170.316 214.243 170.581 214.198 170.781 214.106C170.982 214.015 171.132 213.879 171.232 213.696C171.333 213.514 171.396 213.293 171.424 213.033C171.456 212.778 171.472 212.466 171.472 212.097V205.944H169.879V204.864H172.757V212.685ZM181.22 212.5H179.941V211.687C179.827 211.764 179.673 211.873 179.477 212.015C179.285 212.151 179.098 212.261 178.916 212.343C178.702 212.448 178.456 212.534 178.178 212.603C177.9 212.675 177.574 212.712 177.2 212.712C176.512 212.712 175.929 212.484 175.45 212.028C174.972 211.573 174.732 210.992 174.732 210.285C174.732 209.706 174.855 209.239 175.102 208.884C175.352 208.524 175.708 208.241 176.168 208.036C176.633 207.831 177.191 207.692 177.843 207.619C178.494 207.546 179.194 207.492 179.941 207.455V207.257C179.941 206.965 179.889 206.724 179.784 206.532C179.684 206.341 179.538 206.19 179.347 206.081C179.164 205.976 178.946 205.906 178.69 205.869C178.435 205.833 178.169 205.814 177.891 205.814C177.553 205.814 177.177 205.86 176.763 205.951C176.348 206.038 175.92 206.165 175.478 206.334H175.409V205.028C175.66 204.96 176.022 204.885 176.496 204.803C176.97 204.721 177.437 204.68 177.897 204.68C178.435 204.68 178.902 204.725 179.299 204.816C179.7 204.903 180.046 205.053 180.338 205.268C180.625 205.477 180.844 205.748 180.994 206.081C181.145 206.414 181.22 206.826 181.22 207.318V212.5ZM179.941 210.62V208.494C179.549 208.517 179.087 208.551 178.554 208.597C178.025 208.642 177.606 208.708 177.296 208.795C176.927 208.9 176.628 209.064 176.4 209.287C176.173 209.506 176.059 209.809 176.059 210.196C176.059 210.634 176.191 210.964 176.455 211.188C176.719 211.406 177.123 211.516 177.665 211.516C178.116 211.516 178.529 211.429 178.902 211.256C179.276 211.078 179.622 210.866 179.941 210.62ZM184.993 212.5H183.708V201.863H184.993V212.5ZM194.256 208.624C194.256 209.262 194.165 209.836 193.982 210.347C193.805 210.857 193.563 211.285 193.258 211.632C192.934 211.992 192.579 212.263 192.191 212.445C191.804 212.623 191.378 212.712 190.913 212.712C190.48 212.712 190.102 212.66 189.778 212.555C189.455 212.454 189.136 212.318 188.821 212.145L188.739 212.5H187.536V201.863H188.821V205.664C189.181 205.368 189.564 205.126 189.97 204.939C190.375 204.748 190.831 204.652 191.337 204.652C192.239 204.652 192.95 204.999 193.47 205.691C193.994 206.384 194.256 207.362 194.256 208.624ZM192.93 208.658C192.93 207.747 192.779 207.056 192.479 206.587C192.178 206.113 191.692 205.876 191.022 205.876C190.649 205.876 190.271 205.958 189.888 206.122C189.505 206.282 189.149 206.489 188.821 206.744V211.119C189.186 211.283 189.498 211.397 189.758 211.461C190.022 211.525 190.321 211.557 190.653 211.557C191.364 211.557 191.92 211.324 192.321 210.859C192.727 210.39 192.93 209.656 192.93 208.658ZM207.374 215.316H206.089V211.639C205.692 211.98 205.298 212.236 204.906 212.404C204.514 212.568 204.09 212.65 203.635 212.65C202.728 212.65 202.003 212.302 201.461 211.604C200.923 210.903 200.654 209.937 200.654 208.706C200.654 208.05 200.748 207.471 200.935 206.97C201.126 206.464 201.377 206.04 201.687 205.698C201.987 205.366 202.34 205.108 202.746 204.926C203.152 204.743 203.58 204.652 204.031 204.652C204.441 204.652 204.804 204.698 205.118 204.789C205.437 204.88 205.761 205.015 206.089 205.192L206.171 204.864H207.374V215.316ZM206.089 210.559V206.238C205.733 206.079 205.419 205.967 205.146 205.903C204.872 205.84 204.576 205.808 204.257 205.808C203.514 205.808 202.949 206.061 202.562 206.566C202.174 207.068 201.98 207.76 201.98 208.645C201.98 209.538 202.135 210.226 202.445 210.709C202.76 211.188 203.252 211.427 203.922 211.427C204.296 211.427 204.669 211.347 205.043 211.188C205.417 211.023 205.765 210.814 206.089 210.559ZM211.284 203.586H209.835V202.253H211.284V203.586ZM211.202 212.5H209.917V204.864H211.202V212.5ZM215.044 212.5H213.759V201.863H215.044V212.5ZM218.968 203.586H217.519V202.253H218.968V203.586ZM218.886 212.5H217.601V204.864H218.886V212.5ZM226.884 210.299C226.884 210.996 226.594 211.568 226.016 212.015C225.441 212.461 224.655 212.685 223.657 212.685C223.092 212.685 222.573 212.618 222.099 212.486C221.629 212.35 221.235 212.201 220.916 212.042V210.6H220.984C221.39 210.905 221.841 211.149 222.338 211.331C222.835 211.509 223.311 211.598 223.767 211.598C224.332 211.598 224.774 211.507 225.093 211.324C225.412 211.142 225.571 210.855 225.571 210.463C225.571 210.162 225.485 209.934 225.312 209.779C225.138 209.624 224.806 209.492 224.313 209.383C224.131 209.342 223.892 209.294 223.596 209.239C223.304 209.185 223.037 209.125 222.796 209.062C222.126 208.884 221.65 208.624 221.367 208.282C221.089 207.936 220.95 207.512 220.95 207.011C220.95 206.696 221.014 206.4 221.142 206.122C221.274 205.844 221.472 205.596 221.736 205.377C221.992 205.163 222.315 204.994 222.707 204.871C223.104 204.743 223.546 204.68 224.033 204.68C224.489 204.68 224.949 204.737 225.414 204.851C225.883 204.96 226.273 205.094 226.583 205.254V206.628H226.515C226.187 206.386 225.788 206.184 225.318 206.02C224.849 205.851 224.389 205.767 223.938 205.767C223.468 205.767 223.072 205.858 222.748 206.04C222.424 206.218 222.263 206.484 222.263 206.84C222.263 207.154 222.361 207.391 222.557 207.551C222.748 207.71 223.058 207.84 223.486 207.94C223.723 207.995 223.988 208.05 224.279 208.104C224.576 208.159 224.822 208.209 225.018 208.255C225.615 208.392 226.075 208.626 226.398 208.959C226.722 209.296 226.884 209.743 226.884 210.299ZM235.114 212.5H233.829V208.152C233.829 207.801 233.809 207.473 233.768 207.168C233.727 206.858 233.651 206.617 233.542 206.443C233.428 206.252 233.264 206.111 233.05 206.02C232.836 205.924 232.558 205.876 232.216 205.876C231.865 205.876 231.498 205.963 231.115 206.136C230.732 206.309 230.366 206.53 230.015 206.799V212.5H228.729V201.863H230.015V205.712C230.416 205.379 230.83 205.119 231.259 204.933C231.687 204.746 232.127 204.652 232.578 204.652C233.403 204.652 234.032 204.901 234.465 205.397C234.898 205.894 235.114 206.61 235.114 207.544V212.5Z" fill="#333333"/>
</svg>
