<svg width="275" height="218" viewBox="0 0 275 218" fill="none" xmlns="http://www.w3.org/2000/svg">
<path d="M14.2969 15.5469C14.2969 16.25 14.1536 16.8783 13.8672 17.4316C13.5872 17.985 13.1999 18.444 12.7051 18.8086C12.1322 19.2383 11.5007 19.5443 10.8105 19.7266C10.127 19.9089 9.25781 20 8.20312 20H1.85547V5.45898H7.5C8.67188 5.45898 9.52799 5.49805 10.0684 5.57617C10.6152 5.6543 11.1556 5.82682 11.6895 6.09375C12.2428 6.3737 12.653 6.7513 12.9199 7.22656C13.1934 7.69531 13.3301 8.23242 13.3301 8.83789C13.3301 9.54102 13.1445 10.1628 12.7734 10.7031C12.4023 11.237 11.8783 11.6536 11.2012 11.9531V12.0312C12.1517 12.2201 12.9036 12.6107 13.457 13.2031C14.0169 13.7956 14.2969 14.5768 14.2969 15.5469ZM9.49219 9.57031C9.49219 9.32943 9.43034 9.08854 9.30664 8.84766C9.18945 8.60677 8.97786 8.42773 8.67188 8.31055C8.39844 8.20638 8.05664 8.15104 7.64648 8.14453C7.24284 8.13151 6.67318 8.125 5.9375 8.125H5.58594V11.2012H6.17188C6.76432 11.2012 7.26888 11.1914 7.68555 11.1719C8.10221 11.1523 8.43099 11.0872 8.67188 10.9766C9.01042 10.8268 9.23177 10.6348 9.33594 10.4004C9.4401 10.1595 9.49219 9.88281 9.49219 9.57031ZM10.4102 15.4883C10.4102 15.026 10.319 14.6712 10.1367 14.4238C9.96094 14.1699 9.6582 13.9811 9.22852 13.8574C8.93555 13.7728 8.5319 13.7272 8.01758 13.7207C7.50326 13.7142 6.96615 13.7109 6.40625 13.7109H5.58594V17.334H5.85938C6.91406 17.334 7.66927 17.3307 8.125 17.3242C8.58073 17.3177 9.00065 17.2331 9.38477 17.0703C9.77539 16.9076 10.0423 16.6927 10.1855 16.4258C10.3353 16.1523 10.4102 15.8398 10.4102 15.4883ZM20.4102 20H16.8945V9.0332H20.4102V20ZM20.5078 7.4707H16.7969V4.80469H20.5078V7.4707ZM33.1934 20H22.8906V17.7441L28.6719 11.6016H23.125V9.0332H33.0859V11.25L27.3926 17.3828H33.1934V20ZM46.6797 20H43.1445V14.5605C43.1445 14.1178 43.1217 13.6784 43.0762 13.2422C43.0306 12.7995 42.9525 12.474 42.8418 12.2656C42.7116 12.0247 42.5195 11.849 42.2656 11.7383C42.0182 11.6276 41.6699 11.5723 41.2207 11.5723C40.9017 11.5723 40.5762 11.6243 40.2441 11.7285C39.9186 11.8327 39.5638 11.9987 39.1797 12.2266V20H35.6641V9.0332H39.1797V10.2441C39.8047 9.75586 40.4036 9.38151 40.9766 9.12109C41.556 8.86068 42.1973 8.73047 42.9004 8.73047C44.0853 8.73047 45.0098 9.07552 45.6738 9.76562C46.3444 10.4557 46.6797 11.4876 46.6797 12.8613V20ZM60.7227 15.166H52.6758C52.7279 16.0254 53.0534 16.6829 53.6523 17.1387C54.2578 17.5944 55.1465 17.8223 56.3184 17.8223C57.0605 17.8223 57.7799 17.6888 58.4766 17.4219C59.1732 17.1549 59.7233 16.8685 60.127 16.5625H60.5176V19.3848C59.7233 19.7038 58.9746 19.9349 58.2715 20.0781C57.5684 20.2214 56.7904 20.293 55.9375 20.293C53.737 20.293 52.0508 19.7982 50.8789 18.8086C49.707 17.819 49.1211 16.4095 49.1211 14.5801C49.1211 12.7702 49.6745 11.3379 50.7812 10.2832C51.8945 9.22201 53.418 8.69141 55.3516 8.69141C57.1354 8.69141 58.4766 9.14388 59.375 10.0488C60.2734 10.9473 60.7227 12.2428 60.7227 13.9355V15.166ZM57.2266 13.1055C57.207 12.3698 57.0247 11.8164 56.6797 11.4453C56.3346 11.0742 55.7975 10.8887 55.0684 10.8887C54.3913 10.8887 53.8346 11.0645 53.3984 11.416C52.9622 11.7676 52.7181 12.3307 52.666 13.1055H57.2266ZM72.7344 16.5234C72.7344 17.6562 72.2266 18.571 71.2109 19.2676C70.1953 19.9577 68.8053 20.3027 67.041 20.3027C66.0645 20.3027 65.179 20.2116 64.3848 20.0293C63.5905 19.847 62.9525 19.6452 62.4707 19.4238V16.5332H62.793C62.9688 16.6569 63.1706 16.7936 63.3984 16.9434C63.6328 17.0866 63.9616 17.2428 64.3848 17.4121C64.7493 17.5618 65.1628 17.6921 65.625 17.8027C66.0872 17.9069 66.582 17.959 67.1094 17.959C67.7995 17.959 68.3105 17.8841 68.6426 17.7344C68.9746 17.5781 69.1406 17.3503 69.1406 17.0508C69.1406 16.7839 69.043 16.5918 68.8477 16.4746C68.6523 16.3509 68.2812 16.2337 67.7344 16.123C67.474 16.0645 67.1191 16.0026 66.6699 15.9375C66.2272 15.8659 65.8236 15.7812 65.459 15.6836C64.4629 15.4232 63.724 15.0195 63.2422 14.4727C62.7604 13.9193 62.5195 13.2324 62.5195 12.4121C62.5195 11.3574 63.0176 10.4818 64.0137 9.78516C65.0163 9.08203 66.3835 8.73047 68.1152 8.73047C68.9355 8.73047 69.7201 8.8151 70.4688 8.98438C71.224 9.14714 71.8132 9.32292 72.2363 9.51172V12.2852H71.9336C71.4128 11.9271 70.8171 11.6374 70.1465 11.416C69.4824 11.1882 68.8086 11.0742 68.125 11.0742C67.5586 11.0742 67.0801 11.1523 66.6895 11.3086C66.3053 11.4648 66.1133 11.6862 66.1133 11.9727C66.1133 12.2331 66.2012 12.4316 66.377 12.5684C66.5527 12.7051 66.9661 12.8418 67.6172 12.9785C67.9753 13.0501 68.3594 13.1217 68.7695 13.1934C69.1862 13.2585 69.6029 13.3431 70.0195 13.4473C70.944 13.6882 71.6276 14.069 72.0703 14.5898C72.513 15.1042 72.7344 15.7487 72.7344 16.5234ZM94.5508 15.5469C94.5508 16.25 94.4076 16.8783 94.1211 17.4316C93.8411 17.985 93.4538 18.444 92.959 18.8086C92.3861 19.2383 91.7546 19.5443 91.0645 19.7266C90.3809 19.9089 89.5117 20 88.457 20H82.1094V5.45898H87.7539C88.9258 5.45898 89.7819 5.49805 90.3223 5.57617C90.8691 5.6543 91.4095 5.82682 91.9434 6.09375C92.4967 6.3737 92.9069 6.7513 93.1738 7.22656C93.4473 7.69531 93.584 8.23242 93.584 8.83789C93.584 9.54102 93.3984 10.1628 93.0273 10.7031C92.6562 11.237 92.1322 11.6536 91.4551 11.9531V12.0312C92.4056 12.2201 93.1576 12.6107 93.7109 13.2031C94.2708 13.7956 94.5508 14.5768 94.5508 15.5469ZM89.7461 9.57031C89.7461 9.32943 89.6842 9.08854 89.5605 8.84766C89.4434 8.60677 89.2318 8.42773 88.9258 8.31055C88.6523 8.20638 88.3105 8.15104 87.9004 8.14453C87.4967 8.13151 86.9271 8.125 86.1914 8.125H85.8398V11.2012H86.4258C87.0182 11.2012 87.5228 11.1914 87.9395 11.1719C88.3561 11.1523 88.6849 11.0872 88.9258 10.9766C89.2643 10.8268 89.4857 10.6348 89.5898 10.4004C89.694 10.1595 89.7461 9.88281 89.7461 9.57031ZM90.6641 15.4883C90.6641 15.026 90.5729 14.6712 90.3906 14.4238C90.2148 14.1699 89.9121 13.9811 89.4824 13.8574C89.1895 13.7728 88.7858 13.7272 88.2715 13.7207C87.7572 13.7142 87.2201 13.7109 86.6602 13.7109H85.8398V17.334H86.1133C87.168 17.334 87.9232 17.3307 88.3789 17.3242C88.8346 17.3177 89.2546 17.2331 89.6387 17.0703C90.0293 16.9076 90.2962 16.6927 90.4395 16.4258C90.5892 16.1523 90.6641 15.8398 90.6641 15.4883ZM108.359 14.5215C108.359 16.3249 107.832 17.7474 106.777 18.7891C105.729 19.8242 104.255 20.3418 102.354 20.3418C100.452 20.3418 98.9746 19.8242 97.9199 18.7891C96.8717 17.7474 96.3477 16.3249 96.3477 14.5215C96.3477 12.7051 96.875 11.2793 97.9297 10.2441C98.9909 9.20898 100.465 8.69141 102.354 8.69141C104.268 8.69141 105.745 9.21224 106.787 10.2539C107.835 11.2956 108.359 12.7181 108.359 14.5215ZM104.033 17.1875C104.261 16.9076 104.43 16.5723 104.541 16.1816C104.658 15.7845 104.717 15.2376 104.717 14.541C104.717 13.8965 104.658 13.3561 104.541 12.9199C104.424 12.4837 104.261 12.1354 104.053 11.875C103.844 11.6081 103.594 11.4193 103.301 11.3086C103.008 11.1979 102.692 11.1426 102.354 11.1426C102.015 11.1426 101.712 11.1882 101.445 11.2793C101.185 11.3704 100.934 11.5527 100.693 11.8262C100.479 12.0801 100.306 12.4284 100.176 12.8711C100.052 13.3138 99.9902 13.8704 99.9902 14.541C99.9902 15.14 100.046 15.6608 100.156 16.1035C100.267 16.5397 100.43 16.8913 100.645 17.1582C100.853 17.4121 101.1 17.5977 101.387 17.7148C101.68 17.832 102.012 17.8906 102.383 17.8906C102.702 17.8906 103.005 17.8385 103.291 17.7344C103.584 17.6237 103.831 17.4414 104.033 17.1875ZM120.41 16.5234C120.41 17.6562 119.902 18.571 118.887 19.2676C117.871 19.9577 116.481 20.3027 114.717 20.3027C113.74 20.3027 112.855 20.2116 112.061 20.0293C111.266 19.847 110.628 19.6452 110.146 19.4238V16.5332H110.469C110.645 16.6569 110.846 16.7936 111.074 16.9434C111.309 17.0866 111.637 17.2428 112.061 17.4121C112.425 17.5618 112.839 17.6921 113.301 17.8027C113.763 17.9069 114.258 17.959 114.785 17.959C115.475 17.959 115.986 17.8841 116.318 17.7344C116.65 17.5781 116.816 17.3503 116.816 17.0508C116.816 16.7839 116.719 16.5918 116.523 16.4746C116.328 16.3509 115.957 16.2337 115.41 16.123C115.15 16.0645 114.795 16.0026 114.346 15.9375C113.903 15.8659 113.499 15.7812 113.135 15.6836C112.139 15.4232 111.4 15.0195 110.918 14.4727C110.436 13.9193 110.195 13.2324 110.195 12.4121C110.195 11.3574 110.693 10.4818 111.689 9.78516C112.692 9.08203 114.059 8.73047 115.791 8.73047C116.611 8.73047 117.396 8.8151 118.145 8.98438C118.9 9.14714 119.489 9.32292 119.912 9.51172V12.2852H119.609C119.089 11.9271 118.493 11.6374 117.822 11.416C117.158 11.1882 116.484 11.0742 115.801 11.0742C115.234 11.0742 114.756 11.1523 114.365 11.3086C113.981 11.4648 113.789 11.6862 113.789 11.9727C113.789 12.2331 113.877 12.4316 114.053 12.5684C114.229 12.7051 114.642 12.8418 115.293 12.9785C115.651 13.0501 116.035 13.1217 116.445 13.1934C116.862 13.2585 117.279 13.3431 117.695 13.4473C118.62 13.6882 119.303 14.069 119.746 14.5898C120.189 15.1042 120.41 15.7487 120.41 16.5234ZM133.77 20H130.234V14.5605C130.234 14.1178 130.212 13.6784 130.166 13.2422C130.12 12.7995 130.042 12.474 129.932 12.2656C129.801 12.0247 129.609 11.849 129.355 11.7383C129.108 11.6276 128.76 11.5723 128.311 11.5723C127.992 11.5723 127.666 11.6243 127.334 11.7285C127.008 11.8327 126.654 11.9987 126.27 12.2266V20H122.754V4.80469H126.27V10.2441C126.895 9.75586 127.493 9.38151 128.066 9.12109C128.646 8.86068 129.287 8.73047 129.99 8.73047C131.175 8.73047 132.1 9.07552 132.764 9.76562C133.434 10.4557 133.77 11.4876 133.77 12.8613V20ZM147.676 24.0234H144.16V18.9258C143.587 19.388 143.027 19.7331 142.48 19.9609C141.934 20.1888 141.318 20.3027 140.635 20.3027C139.294 20.3027 138.223 19.7884 137.422 18.7598C136.628 17.7311 136.23 16.3444 136.23 14.5996C136.23 13.6686 136.364 12.8451 136.631 12.1289C136.904 11.4062 137.275 10.7878 137.744 10.2734C138.187 9.78516 138.724 9.40755 139.355 9.14062C139.987 8.86719 140.618 8.73047 141.25 8.73047C141.868 8.73047 142.386 8.80208 142.803 8.94531C143.226 9.08203 143.672 9.27409 144.141 9.52148L144.268 9.0332H147.676V24.0234ZM144.16 16.9727V11.5918C143.913 11.4876 143.652 11.4128 143.379 11.3672C143.105 11.3216 142.855 11.2988 142.627 11.2988C141.702 11.2988 141.009 11.5885 140.547 12.168C140.085 12.7409 139.854 13.5384 139.854 14.5605C139.854 15.6348 140.039 16.416 140.41 16.9043C140.781 17.3861 141.377 17.627 142.197 17.627C142.516 17.627 142.855 17.5684 143.213 17.4512C143.571 17.3275 143.887 17.168 144.16 16.9727ZM157.637 17.1387V14.8535C157.161 14.8926 156.647 14.9479 156.094 15.0195C155.54 15.0846 155.12 15.1628 154.834 15.2539C154.482 15.3646 154.212 15.5273 154.023 15.7422C153.841 15.9505 153.75 16.2272 153.75 16.5723C153.75 16.8001 153.77 16.9857 153.809 17.1289C153.848 17.2721 153.945 17.4089 154.102 17.5391C154.251 17.6693 154.43 17.7669 154.639 17.832C154.847 17.8906 155.173 17.9199 155.615 17.9199C155.967 17.9199 156.322 17.8483 156.68 17.7051C157.044 17.5618 157.363 17.373 157.637 17.1387ZM157.637 18.8379C157.448 18.9811 157.214 19.1536 156.934 19.3555C156.654 19.5573 156.39 19.7168 156.143 19.834C155.798 19.9902 155.439 20.1042 155.068 20.1758C154.697 20.2539 154.29 20.293 153.848 20.293C152.806 20.293 151.934 19.9707 151.23 19.3262C150.527 18.6816 150.176 17.8581 150.176 16.8555C150.176 16.0547 150.355 15.4004 150.713 14.8926C151.071 14.3848 151.579 13.9844 152.236 13.6914C152.887 13.3984 153.695 13.1901 154.658 13.0664C155.622 12.9427 156.621 12.8516 157.656 12.793V12.7344C157.656 12.1289 157.409 11.7122 156.914 11.4844C156.419 11.25 155.69 11.1328 154.727 11.1328C154.147 11.1328 153.529 11.237 152.871 11.4453C152.214 11.6471 151.742 11.8034 151.455 11.9141H151.133V9.26758C151.504 9.16992 152.106 9.05599 152.939 8.92578C153.779 8.78906 154.619 8.7207 155.459 8.7207C157.458 8.7207 158.9 9.02995 159.785 9.64844C160.677 10.2604 161.123 11.224 161.123 12.5391V20H157.637V18.8379ZM172.305 12.3828H171.992C171.842 12.3307 171.602 12.2917 171.27 12.2656C170.938 12.2396 170.661 12.2266 170.439 12.2266C169.938 12.2266 169.495 12.2591 169.111 12.3242C168.727 12.3893 168.314 12.5 167.871 12.6562V20H164.355V9.0332H167.871V10.6445C168.646 9.98047 169.32 9.54102 169.893 9.32617C170.465 9.10482 170.993 8.99414 171.475 8.99414C171.598 8.99414 171.738 8.9974 171.895 9.00391C172.051 9.01042 172.188 9.02018 172.305 9.0332V12.3828ZM185.225 20H181.709V18.7891C181.058 19.2839 180.462 19.6615 179.922 19.9219C179.382 20.1758 178.737 20.3027 177.988 20.3027C176.777 20.3027 175.843 19.9544 175.186 19.2578C174.535 18.5612 174.209 17.5326 174.209 16.1719V9.0332H177.744V14.4727C177.744 15.026 177.76 15.4883 177.793 15.8594C177.832 16.224 177.917 16.5267 178.047 16.7676C178.171 17.0085 178.356 17.1842 178.604 17.2949C178.857 17.4056 179.209 17.4609 179.658 17.4609C179.958 17.4609 180.29 17.4056 180.654 17.2949C181.019 17.1842 181.37 17.0215 181.709 16.8066V9.0332H185.225V20ZM199.6 9.0332L195.371 20H191.387L187.188 9.0332H190.908L193.447 16.5723L195.957 9.0332H199.6ZM205.078 20H201.562V9.0332H205.078V20ZM205.176 7.4707H201.465V4.80469H205.176V7.4707Z" fill="#333333"/>
<path d="M5 47L12.5 54.5L25 39.5" stroke="#61B857" stroke-width="2" stroke-linecap="round" stroke-linejoin="round"/>
<path d="M43.2773 41.8633L42.9834 45.8213H42.0811L41.7871 41.8633H43.2773ZM40.6387 41.8633L40.3447 45.8213H39.4424L39.1484 41.8633H40.6387ZM53.4697 49.3691C53.4697 49.875 53.374 50.3216 53.1826 50.709C52.9912 51.0964 52.7337 51.4154 52.4102 51.666C52.0273 51.9668 51.6058 52.181 51.1455 52.3086C50.6898 52.4362 50.1087 52.5 49.4023 52.5H45.793V42.3213H48.8076C49.5505 42.3213 50.1064 42.3486 50.4756 42.4033C50.8447 42.458 51.1979 42.5719 51.5352 42.7451C51.9089 42.9411 52.18 43.194 52.3486 43.5039C52.5173 43.8092 52.6016 44.1761 52.6016 44.6045C52.6016 45.0876 52.4785 45.5 52.2324 45.8418C51.9863 46.179 51.6582 46.4502 51.248 46.6553V46.71C51.9362 46.8512 52.4785 47.1543 52.875 47.6191C53.2715 48.0794 53.4697 48.6628 53.4697 49.3691ZM51.1934 44.7822C51.1934 44.5361 51.1523 44.3288 51.0703 44.1602C50.9883 43.9915 50.8561 43.8548 50.6738 43.75C50.4596 43.627 50.1999 43.5518 49.8945 43.5244C49.5892 43.4925 49.2109 43.4766 48.7598 43.4766H47.1465V46.416H48.8965C49.3203 46.416 49.6576 46.3955 49.9082 46.3545C50.1589 46.3089 50.3913 46.2178 50.6055 46.0811C50.8197 45.9443 50.9701 45.7689 51.0566 45.5547C51.1478 45.3359 51.1934 45.0785 51.1934 44.7822ZM52.0615 49.4238C52.0615 49.0137 52 48.6878 51.877 48.4463C51.7539 48.2048 51.5306 47.9997 51.207 47.8311C50.9883 47.7171 50.7217 47.6442 50.4072 47.6123C50.0973 47.5758 49.7191 47.5576 49.2725 47.5576H47.1465V51.3447H48.9375C49.5299 51.3447 50.0153 51.3151 50.3936 51.2559C50.7718 51.1921 51.0817 51.0781 51.3232 50.9141C51.5785 50.7363 51.7653 50.5335 51.8838 50.3057C52.0023 50.0778 52.0615 49.7839 52.0615 49.4238ZM56.6689 43.5859H55.2197V42.2529H56.6689V43.5859ZM56.5869 52.5H55.3018V44.8643H56.5869V52.5ZM64.667 52.5H58.501V51.5498L62.9512 45.9375H58.5967V44.8643H64.5508V45.7803L60.0801 51.4131H64.667V52.5ZM72.8701 52.5H71.585V48.1523C71.585 47.8014 71.5645 47.4733 71.5234 47.168C71.4824 46.8581 71.4072 46.6165 71.2979 46.4434C71.1839 46.252 71.0199 46.1107 70.8057 46.0195C70.5915 45.9238 70.3135 45.876 69.9717 45.876C69.6208 45.876 69.2539 45.9626 68.8711 46.1357C68.4883 46.3089 68.1214 46.5299 67.7705 46.7988V52.5H66.4854V44.8643H67.7705V45.7119C68.1715 45.3792 68.5863 45.1195 69.0146 44.9326C69.443 44.7458 69.8828 44.6523 70.334 44.6523C71.1589 44.6523 71.7878 44.9007 72.2207 45.3975C72.6536 45.8942 72.8701 46.6097 72.8701 47.5439V52.5ZM81.7363 48.8154H76.1104C76.1104 49.2848 76.181 49.695 76.3223 50.0459C76.4635 50.3923 76.6572 50.6771 76.9033 50.9004C77.1403 51.1191 77.4206 51.2832 77.7441 51.3926C78.0723 51.502 78.4323 51.5566 78.8242 51.5566C79.3438 51.5566 79.8656 51.4541 80.3896 51.249C80.9183 51.0394 81.2943 50.8343 81.5176 50.6338H81.5859V52.0352C81.153 52.2174 80.7109 52.3701 80.2598 52.4932C79.8086 52.6162 79.3346 52.6777 78.8379 52.6777C77.571 52.6777 76.582 52.3359 75.8711 51.6523C75.1602 50.9642 74.8047 49.9889 74.8047 48.7266C74.8047 47.4779 75.1442 46.4867 75.8232 45.7529C76.5068 45.0192 77.4046 44.6523 78.5166 44.6523C79.5465 44.6523 80.3395 44.9531 80.8955 45.5547C81.4561 46.1562 81.7363 47.0107 81.7363 48.1182V48.8154ZM80.4854 47.8311C80.4808 47.1566 80.3099 46.6348 79.9727 46.2656C79.64 45.8965 79.1318 45.7119 78.4482 45.7119C77.7601 45.7119 77.2109 45.9147 76.8008 46.3203C76.3952 46.7259 76.165 47.2295 76.1104 47.8311H80.4854ZM89.1396 50.2988C89.1396 50.9961 88.8503 51.568 88.2715 52.0146C87.6973 52.4613 86.9111 52.6846 85.9131 52.6846C85.348 52.6846 84.8285 52.6185 84.3545 52.4863C83.8851 52.3496 83.4909 52.2015 83.1719 52.042V50.5996H83.2402C83.6458 50.9049 84.097 51.1488 84.5938 51.3311C85.0905 51.5088 85.5667 51.5977 86.0225 51.5977C86.5876 51.5977 87.0296 51.5065 87.3486 51.3242C87.6676 51.1419 87.8271 50.8548 87.8271 50.4629C87.8271 50.1621 87.7406 49.9342 87.5674 49.7793C87.3942 49.6243 87.0615 49.4922 86.5693 49.3828C86.387 49.3418 86.1478 49.2939 85.8516 49.2393C85.5599 49.1846 85.2933 49.1253 85.0518 49.0615C84.3818 48.8838 83.9056 48.624 83.623 48.2822C83.3451 47.9359 83.2061 47.512 83.2061 47.0107C83.2061 46.6963 83.2699 46.4001 83.3975 46.1221C83.5296 45.8441 83.7279 45.5957 83.9922 45.377C84.2474 45.1628 84.571 44.9941 84.9629 44.8711C85.3594 44.7435 85.8014 44.6797 86.2891 44.6797C86.7448 44.6797 87.2051 44.7367 87.6699 44.8506C88.1393 44.96 88.529 45.0944 88.8389 45.2539V46.6279H88.7705C88.4424 46.3864 88.0436 46.1836 87.5742 46.0195C87.1048 45.8509 86.6445 45.7666 86.1934 45.7666C85.724 45.7666 85.3275 45.8577 85.0039 46.04C84.6803 46.2178 84.5186 46.4844 84.5186 46.8398C84.5186 47.1543 84.6165 47.3913 84.8125 47.5508C85.0039 47.7103 85.3138 47.8402 85.7422 47.9404C85.9792 47.9951 86.2435 48.0498 86.5352 48.1045C86.8314 48.1592 87.0775 48.2093 87.2734 48.2549C87.8704 48.3916 88.3307 48.6263 88.6543 48.959C88.9779 49.2962 89.1396 49.7428 89.1396 50.2988ZM102.62 47.4072C102.62 49.2347 102.333 50.5768 101.759 51.4336C101.189 52.2858 100.303 52.7119 99.0996 52.7119C97.8783 52.7119 96.985 52.279 96.4199 51.4131C95.8594 50.5472 95.5791 49.2165 95.5791 47.4209C95.5791 45.6117 95.8639 44.2764 96.4336 43.415C97.0033 42.5492 97.8919 42.1162 99.0996 42.1162C100.321 42.1162 101.212 42.556 101.772 43.4355C102.338 44.3105 102.62 45.6344 102.62 47.4072ZM100.822 50.5107C100.982 50.1416 101.089 49.7087 101.144 49.2119C101.203 48.7106 101.232 48.109 101.232 47.4072C101.232 46.7145 101.203 46.113 101.144 45.6025C101.089 45.0921 100.979 44.6592 100.815 44.3037C100.656 43.9528 100.437 43.6885 100.159 43.5107C99.8857 43.333 99.5326 43.2441 99.0996 43.2441C98.6712 43.2441 98.3158 43.333 98.0332 43.5107C97.7552 43.6885 97.5342 43.9574 97.3701 44.3174C97.2152 44.6546 97.1081 45.0944 97.0488 45.6367C96.9941 46.179 96.9668 46.7738 96.9668 47.4209C96.9668 48.1318 96.9919 48.7266 97.042 49.2051C97.0921 49.6836 97.1992 50.112 97.3633 50.4902C97.5137 50.8457 97.7256 51.1169 97.999 51.3037C98.277 51.4906 98.6439 51.584 99.0996 51.584C99.528 51.584 99.8835 51.4951 100.166 51.3174C100.449 51.1396 100.667 50.8708 100.822 50.5107ZM115.923 52.5H114.638V51.7002C114.269 52.0192 113.883 52.2676 113.482 52.4453C113.081 52.623 112.646 52.7119 112.177 52.7119C111.265 52.7119 110.541 52.361 110.003 51.6592C109.47 50.9574 109.203 49.9844 109.203 48.7402C109.203 48.0931 109.294 47.5166 109.477 47.0107C109.663 46.5049 109.914 46.0742 110.229 45.7188C110.538 45.3724 110.898 45.1081 111.309 44.9258C111.723 44.7435 112.152 44.6523 112.594 44.6523C112.995 44.6523 113.35 44.6956 113.66 44.7822C113.97 44.8643 114.296 44.9941 114.638 45.1719V41.8633H115.923V52.5ZM114.638 50.6201V46.2383C114.291 46.0833 113.981 45.9762 113.708 45.917C113.435 45.8577 113.136 45.8281 112.812 45.8281C112.092 45.8281 111.532 46.0788 111.131 46.5801C110.73 47.0814 110.529 47.7923 110.529 48.7129C110.529 49.6198 110.684 50.3102 110.994 50.7842C111.304 51.2536 111.801 51.4883 112.484 51.4883C112.849 51.4883 113.218 51.4085 113.592 51.249C113.965 51.085 114.314 50.8753 114.638 50.6201ZM124.386 52.5H123.107V51.6865C122.993 51.764 122.839 51.8734 122.643 52.0146C122.451 52.1514 122.264 52.2607 122.082 52.3428C121.868 52.4476 121.622 52.5342 121.344 52.6025C121.066 52.6755 120.74 52.7119 120.366 52.7119C119.678 52.7119 119.095 52.484 118.616 52.0283C118.138 51.5726 117.898 50.9915 117.898 50.2852C117.898 49.7064 118.021 49.2393 118.268 48.8838C118.518 48.5238 118.874 48.2412 119.334 48.0361C119.799 47.8311 120.357 47.6921 121.009 47.6191C121.66 47.5462 122.36 47.4915 123.107 47.4551V47.2568C123.107 46.9652 123.055 46.7236 122.95 46.5322C122.85 46.3408 122.704 46.1904 122.513 46.0811C122.33 45.9762 122.112 45.9056 121.856 45.8691C121.601 45.8327 121.335 45.8145 121.057 45.8145C120.719 45.8145 120.343 45.86 119.929 45.9512C119.514 46.0378 119.086 46.1654 118.644 46.334H118.575V45.0283C118.826 44.96 119.188 44.8848 119.662 44.8027C120.136 44.7207 120.603 44.6797 121.063 44.6797C121.601 44.6797 122.068 44.7253 122.465 44.8164C122.866 44.903 123.212 45.0534 123.504 45.2676C123.791 45.4772 124.01 45.7484 124.16 46.0811C124.311 46.4137 124.386 46.8262 124.386 47.3184V52.5ZM123.107 50.6201V48.4941C122.715 48.5169 122.253 48.5511 121.72 48.5967C121.191 48.6423 120.772 48.7083 120.462 48.7949C120.093 48.8997 119.794 49.0638 119.566 49.2871C119.339 49.5059 119.225 49.8089 119.225 50.1963C119.225 50.6338 119.357 50.9642 119.621 51.1875C119.885 51.4062 120.289 51.5156 120.831 51.5156C121.282 51.5156 121.695 51.429 122.068 51.2559C122.442 51.0781 122.788 50.8662 123.107 50.6201ZM133.245 52.5H131.96V48.1523C131.96 47.8014 131.939 47.4733 131.898 47.168C131.857 46.8581 131.782 46.6165 131.673 46.4434C131.559 46.252 131.395 46.1107 131.181 46.0195C130.966 45.9238 130.688 45.876 130.347 45.876C129.996 45.876 129.629 45.9626 129.246 46.1357C128.863 46.3089 128.496 46.5299 128.146 46.7988V52.5H126.86V44.8643H128.146V45.7119C128.547 45.3792 128.961 45.1195 129.39 44.9326C129.818 44.7458 130.258 44.6523 130.709 44.6523C131.534 44.6523 132.163 44.9007 132.596 45.3975C133.029 45.8942 133.245 46.6097 133.245 47.5439V52.5ZM139.732 41.8633L139.438 45.8213H138.536L138.242 41.8633H139.732ZM137.094 41.8633L136.8 45.8213H135.897L135.604 41.8633H137.094ZM153.999 52.5H152.304L149.241 49.1572L148.407 49.9502V52.5H147.122V41.8633H148.407V48.6855L152.119 44.8643H153.739L150.191 48.3916L153.999 52.5ZM161.683 52.5H160.397V51.6523C159.965 51.9941 159.55 52.2562 159.153 52.4385C158.757 52.6208 158.319 52.7119 157.841 52.7119C157.039 52.7119 156.414 52.4681 155.968 51.9805C155.521 51.4883 155.298 50.7682 155.298 49.8203V44.8643H156.583V49.2119C156.583 49.5993 156.601 49.932 156.638 50.21C156.674 50.4834 156.752 50.7181 156.87 50.9141C156.993 51.1146 157.153 51.2604 157.349 51.3516C157.545 51.4427 157.829 51.4883 158.203 51.4883C158.536 51.4883 158.898 51.4017 159.29 51.2285C159.687 51.0553 160.056 50.8343 160.397 50.5654V44.8643H161.683V52.5ZM168.977 46.2656H168.908C168.717 46.2201 168.53 46.1882 168.348 46.1699C168.17 46.1471 167.958 46.1357 167.712 46.1357C167.315 46.1357 166.933 46.2246 166.563 46.4023C166.194 46.5755 165.839 46.8011 165.497 47.0791V52.5H164.212V44.8643H165.497V45.9922C166.007 45.582 166.456 45.2926 166.844 45.124C167.236 44.9508 167.634 44.8643 168.04 44.8643C168.263 44.8643 168.425 44.8711 168.525 44.8848C168.626 44.8939 168.776 44.9144 168.977 44.9463V46.2656ZM175.642 50.2988C175.642 50.9961 175.352 51.568 174.773 52.0146C174.199 52.4613 173.413 52.6846 172.415 52.6846C171.85 52.6846 171.33 52.6185 170.856 52.4863C170.387 52.3496 169.993 52.2015 169.674 52.042V50.5996H169.742C170.148 50.9049 170.599 51.1488 171.096 51.3311C171.592 51.5088 172.069 51.5977 172.524 51.5977C173.09 51.5977 173.532 51.5065 173.851 51.3242C174.17 51.1419 174.329 50.8548 174.329 50.4629C174.329 50.1621 174.243 49.9342 174.069 49.7793C173.896 49.6243 173.563 49.4922 173.071 49.3828C172.889 49.3418 172.65 49.2939 172.354 49.2393C172.062 49.1846 171.795 49.1253 171.554 49.0615C170.884 48.8838 170.408 48.624 170.125 48.2822C169.847 47.9359 169.708 47.512 169.708 47.0107C169.708 46.6963 169.772 46.4001 169.899 46.1221C170.032 45.8441 170.23 45.5957 170.494 45.377C170.749 45.1628 171.073 44.9941 171.465 44.8711C171.861 44.7435 172.303 44.6797 172.791 44.6797C173.247 44.6797 173.707 44.7367 174.172 44.8506C174.641 44.96 175.031 45.0944 175.341 45.2539V46.6279H175.272C174.944 46.3864 174.546 46.1836 174.076 46.0195C173.607 45.8509 173.146 45.7666 172.695 45.7666C172.226 45.7666 171.829 45.8577 171.506 46.04C171.182 46.2178 171.021 46.4844 171.021 46.8398C171.021 47.1543 171.118 47.3913 171.314 47.5508C171.506 47.7103 171.816 47.8402 172.244 47.9404C172.481 47.9951 172.745 48.0498 173.037 48.1045C173.333 48.1592 173.579 48.2093 173.775 48.2549C174.372 48.3916 174.833 48.6263 175.156 48.959C175.48 49.2962 175.642 49.7428 175.642 50.2988ZM178.868 43.5859H177.419V42.2529H178.868V43.5859ZM178.786 52.5H177.501V44.8643H178.786V52.5Z" fill="#333333"/>
<path d="M5 85L12.5 92.5L25 77.5" stroke="#61B857" stroke-width="2" stroke-linecap="round" stroke-linejoin="round"/>
<path d="M47.0439 87.3691C47.0439 87.875 46.9482 88.3216 46.7568 88.709C46.5654 89.0964 46.3079 89.4154 45.9844 89.666C45.6016 89.9668 45.18 90.181 44.7197 90.3086C44.264 90.4362 43.6829 90.5 42.9766 90.5H39.3672V80.3213H42.3818C43.1247 80.3213 43.6807 80.3486 44.0498 80.4033C44.4189 80.458 44.7721 80.5719 45.1094 80.7451C45.4831 80.9411 45.7542 81.194 45.9229 81.5039C46.0915 81.8092 46.1758 82.1761 46.1758 82.6045C46.1758 83.0876 46.0527 83.5 45.8066 83.8418C45.5605 84.179 45.2324 84.4502 44.8223 84.6553V84.71C45.5104 84.8512 46.0527 85.1543 46.4492 85.6191C46.8457 86.0794 47.0439 86.6628 47.0439 87.3691ZM44.7676 82.7822C44.7676 82.5361 44.7266 82.3288 44.6445 82.1602C44.5625 81.9915 44.4303 81.8548 44.248 81.75C44.0339 81.627 43.7741 81.5518 43.4688 81.5244C43.1634 81.4925 42.7852 81.4766 42.334 81.4766H40.7207V84.416H42.4707C42.8945 84.416 43.2318 84.3955 43.4824 84.3545C43.7331 84.3089 43.9655 84.2178 44.1797 84.0811C44.3939 83.9443 44.5443 83.7689 44.6309 83.5547C44.722 83.3359 44.7676 83.0785 44.7676 82.7822ZM45.6357 87.4238C45.6357 87.0137 45.5742 86.6878 45.4512 86.4463C45.3281 86.2048 45.1048 85.9997 44.7812 85.8311C44.5625 85.7171 44.2959 85.6442 43.9814 85.6123C43.6715 85.5758 43.2933 85.5576 42.8467 85.5576H40.7207V89.3447H42.5117C43.1042 89.3447 43.5895 89.3151 43.9678 89.2559C44.346 89.1921 44.6559 89.0781 44.8975 88.9141C45.1527 88.7363 45.3395 88.5335 45.458 88.3057C45.5765 88.0778 45.6357 87.7839 45.6357 87.4238ZM50.2432 81.5859H48.7939V80.2529H50.2432V81.5859ZM50.1611 90.5H48.876V82.8643H50.1611V90.5ZM58.2412 90.5H52.0752V89.5498L56.5254 83.9375H52.1709V82.8643H58.125V83.7803L53.6543 89.4131H58.2412V90.5ZM66.4443 90.5H65.1592V86.1523C65.1592 85.8014 65.1387 85.4733 65.0977 85.168C65.0566 84.8581 64.9814 84.6165 64.8721 84.4434C64.7581 84.252 64.5941 84.1107 64.3799 84.0195C64.1657 83.9238 63.8877 83.876 63.5459 83.876C63.195 83.876 62.8281 83.9626 62.4453 84.1357C62.0625 84.3089 61.6956 84.5299 61.3447 84.7988V90.5H60.0596V82.8643H61.3447V83.7119C61.7458 83.3792 62.1605 83.1195 62.5889 82.9326C63.0173 82.7458 63.457 82.6523 63.9082 82.6523C64.7331 82.6523 65.362 82.9007 65.7949 83.3975C66.2279 83.8942 66.4443 84.6097 66.4443 85.5439V90.5ZM75.3105 86.8154H69.6846C69.6846 87.2848 69.7552 87.695 69.8965 88.0459C70.0378 88.3923 70.2314 88.6771 70.4775 88.9004C70.7145 89.1191 70.9948 89.2832 71.3184 89.3926C71.6465 89.502 72.0065 89.5566 72.3984 89.5566C72.918 89.5566 73.4398 89.4541 73.9639 89.249C74.4925 89.0394 74.8685 88.8343 75.0918 88.6338H75.1602V90.0352C74.7272 90.2174 74.2852 90.3701 73.834 90.4932C73.3828 90.6162 72.9089 90.6777 72.4121 90.6777C71.1452 90.6777 70.1562 90.3359 69.4453 89.6523C68.7344 88.9642 68.3789 87.9889 68.3789 86.7266C68.3789 85.4779 68.7184 84.4867 69.3975 83.7529C70.0811 83.0192 70.9788 82.6523 72.0908 82.6523C73.1208 82.6523 73.9137 82.9531 74.4697 83.5547C75.0303 84.1562 75.3105 85.0107 75.3105 86.1182V86.8154ZM74.0596 85.8311C74.055 85.1566 73.8841 84.6348 73.5469 84.2656C73.2142 83.8965 72.7061 83.7119 72.0225 83.7119C71.3343 83.7119 70.7852 83.9147 70.375 84.3203C69.9694 84.7259 69.7393 85.2295 69.6846 85.8311H74.0596ZM82.7139 88.2988C82.7139 88.9961 82.4245 89.568 81.8457 90.0146C81.2715 90.4613 80.4854 90.6846 79.4873 90.6846C78.9222 90.6846 78.4027 90.6185 77.9287 90.4863C77.4593 90.3496 77.0651 90.2015 76.7461 90.042V88.5996H76.8145C77.2201 88.9049 77.6712 89.1488 78.168 89.3311C78.6647 89.5088 79.141 89.5977 79.5967 89.5977C80.1618 89.5977 80.6038 89.5065 80.9229 89.3242C81.2419 89.1419 81.4014 88.8548 81.4014 88.4629C81.4014 88.1621 81.3148 87.9342 81.1416 87.7793C80.9684 87.6243 80.6357 87.4922 80.1436 87.3828C79.9613 87.3418 79.722 87.2939 79.4258 87.2393C79.1341 87.1846 78.8675 87.1253 78.626 87.0615C77.9561 86.8838 77.4798 86.624 77.1973 86.2822C76.9193 85.9359 76.7803 85.512 76.7803 85.0107C76.7803 84.6963 76.8441 84.4001 76.9717 84.1221C77.1038 83.8441 77.3021 83.5957 77.5664 83.377C77.8216 83.1628 78.1452 82.9941 78.5371 82.8711C78.9336 82.7435 79.3757 82.6797 79.8633 82.6797C80.319 82.6797 80.7793 82.7367 81.2441 82.8506C81.7135 82.96 82.1032 83.0944 82.4131 83.2539V84.6279H82.3447C82.0166 84.3864 81.6178 84.1836 81.1484 84.0195C80.679 83.8509 80.2188 83.7666 79.7676 83.7666C79.2982 83.7666 78.9017 83.8577 78.5781 84.04C78.2546 84.2178 78.0928 84.4844 78.0928 84.8398C78.0928 85.1543 78.1908 85.3913 78.3867 85.5508C78.5781 85.7103 78.888 85.8402 79.3164 85.9404C79.5534 85.9951 79.8177 86.0498 80.1094 86.1045C80.4056 86.1592 80.6517 86.2093 80.8477 86.2549C81.4447 86.3916 81.9049 86.6263 82.2285 86.959C82.5521 87.2962 82.7139 87.7428 82.7139 88.2988ZM96.4131 90.5H94.7178L91.6553 87.1572L90.8213 87.9502V90.5H89.5361V79.8633H90.8213V86.6855L94.5332 82.8643H96.1533L92.6055 86.3916L96.4131 90.5ZM104.138 86.6855C104.138 87.9297 103.819 88.9118 103.181 89.6318C102.543 90.3519 101.688 90.7119 100.617 90.7119C99.5371 90.7119 98.6781 90.3519 98.04 89.6318C97.4066 88.9118 97.0898 87.9297 97.0898 86.6855C97.0898 85.4414 97.4066 84.4593 98.04 83.7393C98.6781 83.0146 99.5371 82.6523 100.617 82.6523C101.688 82.6523 102.543 83.0146 103.181 83.7393C103.819 84.4593 104.138 85.4414 104.138 86.6855ZM102.812 86.6855C102.812 85.6966 102.618 84.9629 102.23 84.4844C101.843 84.0013 101.305 83.7598 100.617 83.7598C99.9199 83.7598 99.3776 84.0013 98.9902 84.4844C98.6074 84.9629 98.416 85.6966 98.416 86.6855C98.416 87.6426 98.6097 88.3695 98.9971 88.8662C99.3844 89.3584 99.9245 89.6045 100.617 89.6045C101.301 89.6045 101.836 89.3607 102.224 88.873C102.616 88.3809 102.812 87.6517 102.812 86.6855ZM112.519 90.5H111.233V86.1523C111.233 85.8014 111.213 85.4733 111.172 85.168C111.131 84.8581 111.056 84.6165 110.946 84.4434C110.832 84.252 110.668 84.1107 110.454 84.0195C110.24 83.9238 109.962 83.876 109.62 83.876C109.269 83.876 108.902 83.9626 108.52 84.1357C108.137 84.3089 107.77 84.5299 107.419 84.7988V90.5H106.134V82.8643H107.419V83.7119C107.82 83.3792 108.235 83.1195 108.663 82.9326C109.091 82.7458 109.531 82.6523 109.982 82.6523C110.807 82.6523 111.436 82.9007 111.869 83.3975C112.302 83.8942 112.519 84.6097 112.519 85.5439V90.5ZM120.448 88.2988C120.448 88.9961 120.159 89.568 119.58 90.0146C119.006 90.4613 118.22 90.6846 117.222 90.6846C116.657 90.6846 116.137 90.6185 115.663 90.4863C115.194 90.3496 114.799 90.2015 114.48 90.042V88.5996H114.549C114.954 88.9049 115.406 89.1488 115.902 89.3311C116.399 89.5088 116.875 89.5977 117.331 89.5977C117.896 89.5977 118.338 89.5065 118.657 89.3242C118.976 89.1419 119.136 88.8548 119.136 88.4629C119.136 88.1621 119.049 87.9342 118.876 87.7793C118.703 87.6243 118.37 87.4922 117.878 87.3828C117.696 87.3418 117.456 87.2939 117.16 87.2393C116.868 87.1846 116.602 87.1253 116.36 87.0615C115.69 86.8838 115.214 86.624 114.932 86.2822C114.654 85.9359 114.515 85.512 114.515 85.0107C114.515 84.6963 114.578 84.4001 114.706 84.1221C114.838 83.8441 115.036 83.5957 115.301 83.377C115.556 83.1628 115.88 82.9941 116.271 82.8711C116.668 82.7435 117.11 82.6797 117.598 82.6797C118.053 82.6797 118.514 82.7367 118.979 82.8506C119.448 82.96 119.838 83.0944 120.147 83.2539V84.6279H120.079C119.751 84.3864 119.352 84.1836 118.883 84.0195C118.413 83.8509 117.953 83.7666 117.502 83.7666C117.033 83.7666 116.636 83.8577 116.312 84.04C115.989 84.2178 115.827 84.4844 115.827 84.8398C115.827 85.1543 115.925 85.3913 116.121 85.5508C116.312 85.7103 116.622 85.8402 117.051 85.9404C117.288 85.9951 117.552 86.0498 117.844 86.1045C118.14 86.1592 118.386 86.2093 118.582 86.2549C119.179 86.3916 119.639 86.6263 119.963 86.959C120.286 87.2962 120.448 87.7428 120.448 88.2988ZM128.228 90.5H126.949V89.6865C126.835 89.764 126.68 89.8734 126.484 90.0146C126.293 90.1514 126.106 90.2607 125.924 90.3428C125.71 90.4476 125.464 90.5342 125.186 90.6025C124.908 90.6755 124.582 90.7119 124.208 90.7119C123.52 90.7119 122.937 90.484 122.458 90.0283C121.979 89.5726 121.74 88.9915 121.74 88.2852C121.74 87.7064 121.863 87.2393 122.109 86.8838C122.36 86.5238 122.715 86.2412 123.176 86.0361C123.641 85.8311 124.199 85.6921 124.851 85.6191C125.502 85.5462 126.202 85.4915 126.949 85.4551V85.2568C126.949 84.9652 126.897 84.7236 126.792 84.5322C126.692 84.3408 126.546 84.1904 126.354 84.0811C126.172 83.9762 125.953 83.9056 125.698 83.8691C125.443 83.8327 125.176 83.8145 124.898 83.8145C124.561 83.8145 124.185 83.86 123.771 83.9512C123.356 84.0378 122.927 84.1654 122.485 84.334H122.417V83.0283C122.668 82.96 123.03 82.8848 123.504 82.8027C123.978 82.7207 124.445 82.6797 124.905 82.6797C125.443 82.6797 125.91 82.7253 126.307 82.8164C126.708 82.903 127.054 83.0534 127.346 83.2676C127.633 83.4772 127.852 83.7484 128.002 84.0811C128.152 84.4137 128.228 84.8262 128.228 85.3184V90.5ZM126.949 88.6201V86.4941C126.557 86.5169 126.095 86.5511 125.562 86.5967C125.033 86.6423 124.614 86.7083 124.304 86.7949C123.935 86.8997 123.636 87.0638 123.408 87.2871C123.18 87.5059 123.066 87.8089 123.066 88.1963C123.066 88.6338 123.199 88.9642 123.463 89.1875C123.727 89.4062 124.131 89.5156 124.673 89.5156C125.124 89.5156 125.536 89.429 125.91 89.2559C126.284 89.0781 126.63 88.8662 126.949 88.6201ZM132.001 90.5H130.716V79.8633H132.001V90.5ZM138.509 90.4316C138.267 90.4954 138.003 90.5479 137.716 90.5889C137.433 90.6299 137.18 90.6504 136.957 90.6504C136.178 90.6504 135.585 90.4408 135.18 90.0215C134.774 89.6022 134.571 88.93 134.571 88.0049V83.9443H133.703V82.8643H134.571V80.6699H135.856V82.8643H138.509V83.9443H135.856V87.4238C135.856 87.8249 135.866 88.1393 135.884 88.3672C135.902 88.5905 135.966 88.8001 136.075 88.9961C136.175 89.1784 136.312 89.3128 136.485 89.3994C136.663 89.4814 136.932 89.5225 137.292 89.5225C137.502 89.5225 137.72 89.4928 137.948 89.4336C138.176 89.3698 138.34 89.3174 138.44 89.2764H138.509V90.4316ZM141.448 81.5859H139.999V80.2529H141.448V81.5859ZM141.366 90.5H140.081V82.8643H141.366V90.5ZM150.294 90.5H149.009V86.1523C149.009 85.8014 148.988 85.4733 148.947 85.168C148.906 84.8581 148.831 84.6165 148.722 84.4434C148.608 84.252 148.444 84.1107 148.229 84.0195C148.015 83.9238 147.737 83.876 147.396 83.876C147.045 83.876 146.678 83.9626 146.295 84.1357C145.912 84.3089 145.545 84.5299 145.194 84.7988V90.5H143.909V82.8643H145.194V83.7119C145.595 83.3792 146.01 83.1195 146.438 82.9326C146.867 82.7458 147.307 82.6523 147.758 82.6523C148.583 82.6523 149.212 82.9007 149.645 83.3975C150.077 83.8942 150.294 84.6097 150.294 85.5439V90.5ZM158.962 89.6318C158.962 90.9261 158.668 91.8763 158.08 92.4824C157.492 93.0885 156.588 93.3916 155.366 93.3916C154.961 93.3916 154.564 93.362 154.177 93.3027C153.794 93.248 153.416 93.1683 153.042 93.0635V91.751H153.11C153.32 91.833 153.653 91.9333 154.108 92.0518C154.564 92.1748 155.02 92.2363 155.476 92.2363C155.913 92.2363 156.275 92.1839 156.562 92.0791C156.85 91.9743 157.073 91.8285 157.232 91.6416C157.392 91.4639 157.506 91.2497 157.574 90.999C157.643 90.7484 157.677 90.4681 157.677 90.1582V89.4609C157.289 89.7708 156.918 90.0033 156.562 90.1582C156.212 90.3086 155.763 90.3838 155.216 90.3838C154.304 90.3838 153.58 90.0557 153.042 89.3994C152.509 88.7386 152.242 87.8089 152.242 86.6104C152.242 85.9541 152.333 85.389 152.516 84.915C152.702 84.4365 152.955 84.0241 153.274 83.6777C153.571 83.3542 153.931 83.1035 154.354 82.9258C154.778 82.7435 155.2 82.6523 155.619 82.6523C156.061 82.6523 156.43 82.6979 156.727 82.7891C157.027 82.8757 157.344 83.0101 157.677 83.1924L157.759 82.8643H158.962V89.6318ZM157.677 88.4014V84.2383C157.335 84.0833 157.016 83.974 156.72 83.9102C156.428 83.8418 156.136 83.8076 155.845 83.8076C155.138 83.8076 154.582 84.0446 154.177 84.5186C153.771 84.9925 153.568 85.6807 153.568 86.583C153.568 87.4398 153.719 88.0892 154.02 88.5312C154.32 88.9733 154.819 89.1943 155.517 89.1943C155.89 89.1943 156.264 89.1237 156.638 88.9824C157.016 88.8366 157.362 88.6429 157.677 88.4014Z" fill="#333333"/>
<path d="M5 123L12.5 130.5L25 115.5" stroke="#61B857" stroke-width="2" stroke-linecap="round" stroke-linejoin="round"/>
<path d="M47.0439 125.369C47.0439 125.875 46.9482 126.322 46.7568 126.709C46.5654 127.096 46.3079 127.415 45.9844 127.666C45.6016 127.967 45.18 128.181 44.7197 128.309C44.264 128.436 43.6829 128.5 42.9766 128.5H39.3672V118.321H42.3818C43.1247 118.321 43.6807 118.349 44.0498 118.403C44.4189 118.458 44.7721 118.572 45.1094 118.745C45.4831 118.941 45.7542 119.194 45.9229 119.504C46.0915 119.809 46.1758 120.176 46.1758 120.604C46.1758 121.088 46.0527 121.5 45.8066 121.842C45.5605 122.179 45.2324 122.45 44.8223 122.655V122.71C45.5104 122.851 46.0527 123.154 46.4492 123.619C46.8457 124.079 47.0439 124.663 47.0439 125.369ZM44.7676 120.782C44.7676 120.536 44.7266 120.329 44.6445 120.16C44.5625 119.992 44.4303 119.855 44.248 119.75C44.0339 119.627 43.7741 119.552 43.4688 119.524C43.1634 119.493 42.7852 119.477 42.334 119.477H40.7207V122.416H42.4707C42.8945 122.416 43.2318 122.396 43.4824 122.354C43.7331 122.309 43.9655 122.218 44.1797 122.081C44.3939 121.944 44.5443 121.769 44.6309 121.555C44.722 121.336 44.7676 121.078 44.7676 120.782ZM45.6357 125.424C45.6357 125.014 45.5742 124.688 45.4512 124.446C45.3281 124.205 45.1048 124 44.7812 123.831C44.5625 123.717 44.2959 123.644 43.9814 123.612C43.6715 123.576 43.2933 123.558 42.8467 123.558H40.7207V127.345H42.5117C43.1042 127.345 43.5895 127.315 43.9678 127.256C44.346 127.192 44.6559 127.078 44.8975 126.914C45.1527 126.736 45.3395 126.534 45.458 126.306C45.5765 126.078 45.6357 125.784 45.6357 125.424ZM50.2432 119.586H48.7939V118.253H50.2432V119.586ZM50.1611 128.5H48.876V120.864H50.1611V128.5ZM58.2412 128.5H52.0752V127.55L56.5254 121.938H52.1709V120.864H58.125V121.78L53.6543 127.413H58.2412V128.5ZM66.4443 128.5H65.1592V124.152C65.1592 123.801 65.1387 123.473 65.0977 123.168C65.0566 122.858 64.9814 122.617 64.8721 122.443C64.7581 122.252 64.5941 122.111 64.3799 122.02C64.1657 121.924 63.8877 121.876 63.5459 121.876C63.195 121.876 62.8281 121.963 62.4453 122.136C62.0625 122.309 61.6956 122.53 61.3447 122.799V128.5H60.0596V120.864H61.3447V121.712C61.7458 121.379 62.1605 121.119 62.5889 120.933C63.0173 120.746 63.457 120.652 63.9082 120.652C64.7331 120.652 65.362 120.901 65.7949 121.397C66.2279 121.894 66.4443 122.61 66.4443 123.544V128.5ZM75.3105 124.815H69.6846C69.6846 125.285 69.7552 125.695 69.8965 126.046C70.0378 126.392 70.2314 126.677 70.4775 126.9C70.7145 127.119 70.9948 127.283 71.3184 127.393C71.6465 127.502 72.0065 127.557 72.3984 127.557C72.918 127.557 73.4398 127.454 73.9639 127.249C74.4925 127.039 74.8685 126.834 75.0918 126.634H75.1602V128.035C74.7272 128.217 74.2852 128.37 73.834 128.493C73.3828 128.616 72.9089 128.678 72.4121 128.678C71.1452 128.678 70.1562 128.336 69.4453 127.652C68.7344 126.964 68.3789 125.989 68.3789 124.727C68.3789 123.478 68.7184 122.487 69.3975 121.753C70.0811 121.019 70.9788 120.652 72.0908 120.652C73.1208 120.652 73.9137 120.953 74.4697 121.555C75.0303 122.156 75.3105 123.011 75.3105 124.118V124.815ZM74.0596 123.831C74.055 123.157 73.8841 122.635 73.5469 122.266C73.2142 121.896 72.7061 121.712 72.0225 121.712C71.3343 121.712 70.7852 121.915 70.375 122.32C69.9694 122.726 69.7393 123.229 69.6846 123.831H74.0596ZM82.7139 126.299C82.7139 126.996 82.4245 127.568 81.8457 128.015C81.2715 128.461 80.4854 128.685 79.4873 128.685C78.9222 128.685 78.4027 128.618 77.9287 128.486C77.4593 128.35 77.0651 128.201 76.7461 128.042V126.6H76.8145C77.2201 126.905 77.6712 127.149 78.168 127.331C78.6647 127.509 79.141 127.598 79.5967 127.598C80.1618 127.598 80.6038 127.507 80.9229 127.324C81.2419 127.142 81.4014 126.855 81.4014 126.463C81.4014 126.162 81.3148 125.934 81.1416 125.779C80.9684 125.624 80.6357 125.492 80.1436 125.383C79.9613 125.342 79.722 125.294 79.4258 125.239C79.1341 125.185 78.8675 125.125 78.626 125.062C77.9561 124.884 77.4798 124.624 77.1973 124.282C76.9193 123.936 76.7803 123.512 76.7803 123.011C76.7803 122.696 76.8441 122.4 76.9717 122.122C77.1038 121.844 77.3021 121.596 77.5664 121.377C77.8216 121.163 78.1452 120.994 78.5371 120.871C78.9336 120.743 79.3757 120.68 79.8633 120.68C80.319 120.68 80.7793 120.737 81.2441 120.851C81.7135 120.96 82.1032 121.094 82.4131 121.254V122.628H82.3447C82.0166 122.386 81.6178 122.184 81.1484 122.02C80.679 121.851 80.2188 121.767 79.7676 121.767C79.2982 121.767 78.9017 121.858 78.5781 122.04C78.2546 122.218 78.0928 122.484 78.0928 122.84C78.0928 123.154 78.1908 123.391 78.3867 123.551C78.5781 123.71 78.888 123.84 79.3164 123.94C79.5534 123.995 79.8177 124.05 80.1094 124.104C80.4056 124.159 80.6517 124.209 80.8477 124.255C81.4447 124.392 81.9049 124.626 82.2285 124.959C82.5521 125.296 82.7139 125.743 82.7139 126.299ZM95.8662 128.5H94.5811V124.152C94.5811 123.801 94.5605 123.473 94.5195 123.168C94.4785 122.858 94.4033 122.617 94.2939 122.443C94.18 122.252 94.016 122.111 93.8018 122.02C93.5876 121.924 93.3096 121.876 92.9678 121.876C92.6169 121.876 92.25 121.963 91.8672 122.136C91.4844 122.309 91.1175 122.53 90.7666 122.799V128.5H89.4814V117.863H90.7666V121.712C91.1676 121.379 91.5824 121.119 92.0107 120.933C92.4391 120.746 92.8789 120.652 93.3301 120.652C94.1549 120.652 94.7839 120.901 95.2168 121.397C95.6497 121.894 95.8662 122.61 95.8662 123.544V128.5ZM104.274 128.5H102.996V127.687C102.882 127.764 102.727 127.873 102.531 128.015C102.34 128.151 102.153 128.261 101.971 128.343C101.757 128.448 101.51 128.534 101.232 128.603C100.954 128.675 100.629 128.712 100.255 128.712C99.5667 128.712 98.9834 128.484 98.5049 128.028C98.0264 127.573 97.7871 126.992 97.7871 126.285C97.7871 125.706 97.9102 125.239 98.1562 124.884C98.4069 124.524 98.7624 124.241 99.2227 124.036C99.6875 123.831 100.246 123.692 100.897 123.619C101.549 123.546 102.249 123.492 102.996 123.455V123.257C102.996 122.965 102.944 122.724 102.839 122.532C102.739 122.341 102.593 122.19 102.401 122.081C102.219 121.976 102 121.906 101.745 121.869C101.49 121.833 101.223 121.814 100.945 121.814C100.608 121.814 100.232 121.86 99.8174 121.951C99.4027 122.038 98.9743 122.165 98.5322 122.334H98.4639V121.028C98.7145 120.96 99.0768 120.885 99.5508 120.803C100.025 120.721 100.492 120.68 100.952 120.68C101.49 120.68 101.957 120.725 102.354 120.816C102.755 120.903 103.101 121.053 103.393 121.268C103.68 121.477 103.898 121.748 104.049 122.081C104.199 122.414 104.274 122.826 104.274 123.318V128.5ZM102.996 126.62V124.494C102.604 124.517 102.142 124.551 101.608 124.597C101.08 124.642 100.66 124.708 100.351 124.795C99.9814 124.9 99.6829 125.064 99.4551 125.287C99.2272 125.506 99.1133 125.809 99.1133 126.196C99.1133 126.634 99.2454 126.964 99.5098 127.188C99.7741 127.406 100.177 127.516 100.72 127.516C101.171 127.516 101.583 127.429 101.957 127.256C102.331 127.078 102.677 126.866 102.996 126.62ZM117.892 128.5H116.606V124.152C116.606 123.824 116.59 123.507 116.559 123.202C116.531 122.897 116.47 122.653 116.374 122.471C116.269 122.275 116.119 122.127 115.923 122.026C115.727 121.926 115.444 121.876 115.075 121.876C114.715 121.876 114.355 121.967 113.995 122.149C113.635 122.327 113.275 122.555 112.915 122.833C112.929 122.938 112.94 123.061 112.949 123.202C112.958 123.339 112.963 123.476 112.963 123.612V128.5H111.678V124.152C111.678 123.815 111.662 123.496 111.63 123.195C111.603 122.89 111.541 122.646 111.445 122.464C111.34 122.268 111.19 122.122 110.994 122.026C110.798 121.926 110.516 121.876 110.146 121.876C109.796 121.876 109.442 121.963 109.087 122.136C108.736 122.309 108.385 122.53 108.034 122.799V128.5H106.749V120.864H108.034V121.712C108.435 121.379 108.834 121.119 109.23 120.933C109.632 120.746 110.058 120.652 110.509 120.652C111.028 120.652 111.468 120.762 111.828 120.98C112.193 121.199 112.464 121.502 112.642 121.89C113.161 121.452 113.635 121.138 114.063 120.946C114.492 120.75 114.95 120.652 115.438 120.652C116.276 120.652 116.894 120.908 117.29 121.418C117.691 121.924 117.892 122.632 117.892 123.544V128.5ZM122.745 119.586H121.296V118.253H122.745V119.586ZM122.663 128.685C122.663 129.578 122.435 130.252 121.979 130.708C121.524 131.164 120.913 131.392 120.147 131.392C119.965 131.392 119.724 131.373 119.423 131.337C119.127 131.3 118.878 131.255 118.678 131.2V129.977H118.746C118.874 130.027 119.045 130.084 119.259 130.147C119.478 130.211 119.689 130.243 119.895 130.243C120.223 130.243 120.487 130.198 120.688 130.106C120.888 130.015 121.038 129.879 121.139 129.696C121.239 129.514 121.303 129.293 121.33 129.033C121.362 128.778 121.378 128.466 121.378 128.097V121.944H119.785V120.864H122.663V128.685ZM131.126 128.5H129.848V127.687C129.734 127.764 129.579 127.873 129.383 128.015C129.191 128.151 129.005 128.261 128.822 128.343C128.608 128.448 128.362 128.534 128.084 128.603C127.806 128.675 127.48 128.712 127.106 128.712C126.418 128.712 125.835 128.484 125.356 128.028C124.878 127.573 124.639 126.992 124.639 126.285C124.639 125.706 124.762 125.239 125.008 124.884C125.258 124.524 125.614 124.241 126.074 124.036C126.539 123.831 127.097 123.692 127.749 123.619C128.401 123.546 129.1 123.492 129.848 123.455V123.257C129.848 122.965 129.795 122.724 129.69 122.532C129.59 122.341 129.444 122.19 129.253 122.081C129.071 121.976 128.852 121.906 128.597 121.869C128.341 121.833 128.075 121.814 127.797 121.814C127.46 121.814 127.084 121.86 126.669 121.951C126.254 122.038 125.826 122.165 125.384 122.334H125.315V121.028C125.566 120.96 125.928 120.885 126.402 120.803C126.876 120.721 127.343 120.68 127.804 120.68C128.341 120.68 128.809 120.725 129.205 120.816C129.606 120.903 129.952 121.053 130.244 121.268C130.531 121.477 130.75 121.748 130.9 122.081C131.051 122.414 131.126 122.826 131.126 123.318V128.5ZM129.848 126.62V124.494C129.456 124.517 128.993 124.551 128.46 124.597C127.931 124.642 127.512 124.708 127.202 124.795C126.833 124.9 126.535 125.064 126.307 125.287C126.079 125.506 125.965 125.809 125.965 126.196C125.965 126.634 126.097 126.964 126.361 127.188C126.626 127.406 127.029 127.516 127.571 127.516C128.022 127.516 128.435 127.429 128.809 127.256C129.182 127.078 129.529 126.866 129.848 126.62ZM144.743 128.5H143.458V124.152C143.458 123.824 143.442 123.507 143.41 123.202C143.383 122.897 143.321 122.653 143.226 122.471C143.121 122.275 142.97 122.127 142.774 122.026C142.578 121.926 142.296 121.876 141.927 121.876C141.567 121.876 141.207 121.967 140.847 122.149C140.487 122.327 140.127 122.555 139.767 122.833C139.78 122.938 139.792 123.061 139.801 123.202C139.81 123.339 139.814 123.476 139.814 123.612V128.5H138.529V124.152C138.529 123.815 138.513 123.496 138.481 123.195C138.454 122.89 138.393 122.646 138.297 122.464C138.192 122.268 138.042 122.122 137.846 122.026C137.65 121.926 137.367 121.876 136.998 121.876C136.647 121.876 136.294 121.963 135.938 122.136C135.588 122.309 135.237 122.53 134.886 122.799V128.5H133.601V120.864H134.886V121.712C135.287 121.379 135.686 121.119 136.082 120.933C136.483 120.746 136.909 120.652 137.36 120.652C137.88 120.652 138.32 120.762 138.68 120.98C139.044 121.199 139.315 121.502 139.493 121.89C140.013 121.452 140.487 121.138 140.915 120.946C141.343 120.75 141.801 120.652 142.289 120.652C143.128 120.652 143.745 120.908 144.142 121.418C144.543 121.924 144.743 122.632 144.743 123.544V128.5ZM148.599 119.586H147.149V118.253H148.599V119.586ZM148.517 128.5H147.231V120.864H148.517V128.5ZM157.663 120.864L153.206 131.316H151.832L153.254 128.131L150.212 120.864H151.606L153.951 126.524L156.316 120.864H157.663ZM165.005 128.5H163.727V127.687C163.613 127.764 163.458 127.873 163.262 128.015C163.07 128.151 162.883 128.261 162.701 128.343C162.487 128.448 162.241 128.534 161.963 128.603C161.685 128.675 161.359 128.712 160.985 128.712C160.297 128.712 159.714 128.484 159.235 128.028C158.757 127.573 158.518 126.992 158.518 126.285C158.518 125.706 158.641 125.239 158.887 124.884C159.137 124.524 159.493 124.241 159.953 124.036C160.418 123.831 160.976 123.692 161.628 123.619C162.28 123.546 162.979 123.492 163.727 123.455V123.257C163.727 122.965 163.674 122.724 163.569 122.532C163.469 122.341 163.323 122.19 163.132 122.081C162.95 121.976 162.731 121.906 162.476 121.869C162.22 121.833 161.954 121.814 161.676 121.814C161.339 121.814 160.963 121.86 160.548 121.951C160.133 122.038 159.705 122.165 159.263 122.334H159.194V121.028C159.445 120.96 159.807 120.885 160.281 120.803C160.755 120.721 161.222 120.68 161.683 120.68C162.22 120.68 162.688 120.725 163.084 120.816C163.485 120.903 163.831 121.053 164.123 121.268C164.41 121.477 164.629 121.748 164.779 122.081C164.93 122.414 165.005 122.826 165.005 123.318V128.5ZM163.727 126.62V124.494C163.335 124.517 162.872 124.551 162.339 124.597C161.81 124.642 161.391 124.708 161.081 124.795C160.712 124.9 160.413 125.064 160.186 125.287C159.958 125.506 159.844 125.809 159.844 126.196C159.844 126.634 159.976 126.964 160.24 127.188C160.505 127.406 160.908 127.516 161.45 127.516C161.901 127.516 162.314 127.429 162.688 127.256C163.061 127.078 163.408 126.866 163.727 126.62ZM171.444 128.432C171.203 128.495 170.938 128.548 170.651 128.589C170.369 128.63 170.116 128.65 169.893 128.65C169.113 128.65 168.521 128.441 168.115 128.021C167.71 127.602 167.507 126.93 167.507 126.005V121.944H166.639V120.864H167.507V118.67H168.792V120.864H171.444V121.944H168.792V125.424C168.792 125.825 168.801 126.139 168.819 126.367C168.838 126.59 168.901 126.8 169.011 126.996C169.111 127.178 169.248 127.313 169.421 127.399C169.599 127.481 169.868 127.522 170.228 127.522C170.437 127.522 170.656 127.493 170.884 127.434C171.112 127.37 171.276 127.317 171.376 127.276H171.444V128.432Z" fill="#333333"/>
<path d="M5 161L12.5 168.5L25 153.5" stroke="#61B857" stroke-width="2" stroke-linecap="round" stroke-linejoin="round"/>
<path d="M47.0439 156.869C47.0439 157.375 46.9482 157.822 46.7568 158.209C46.5654 158.596 46.3079 158.915 45.9844 159.166C45.6016 159.467 45.18 159.681 44.7197 159.809C44.264 159.936 43.6829 160 42.9766 160H39.3672V149.821H42.3818C43.1247 149.821 43.6807 149.849 44.0498 149.903C44.4189 149.958 44.7721 150.072 45.1094 150.245C45.4831 150.441 45.7542 150.694 45.9229 151.004C46.0915 151.309 46.1758 151.676 46.1758 152.104C46.1758 152.588 46.0527 153 45.8066 153.342C45.5605 153.679 45.2324 153.95 44.8223 154.155V154.21C45.5104 154.351 46.0527 154.654 46.4492 155.119C46.8457 155.579 47.0439 156.163 47.0439 156.869ZM44.7676 152.282C44.7676 152.036 44.7266 151.829 44.6445 151.66C44.5625 151.492 44.4303 151.355 44.248 151.25C44.0339 151.127 43.7741 151.052 43.4688 151.024C43.1634 150.993 42.7852 150.977 42.334 150.977H40.7207V153.916H42.4707C42.8945 153.916 43.2318 153.896 43.4824 153.854C43.7331 153.809 43.9655 153.718 44.1797 153.581C44.3939 153.444 44.5443 153.269 44.6309 153.055C44.722 152.836 44.7676 152.578 44.7676 152.282ZM45.6357 156.924C45.6357 156.514 45.5742 156.188 45.4512 155.946C45.3281 155.705 45.1048 155.5 44.7812 155.331C44.5625 155.217 44.2959 155.144 43.9814 155.112C43.6715 155.076 43.2933 155.058 42.8467 155.058H40.7207V158.845H42.5117C43.1042 158.845 43.5895 158.815 43.9678 158.756C44.346 158.692 44.6559 158.578 44.8975 158.414C45.1527 158.236 45.3395 158.034 45.458 157.806C45.5765 157.578 45.6357 157.284 45.6357 156.924ZM50.2432 151.086H48.7939V149.753H50.2432V151.086ZM50.1611 160H48.876V152.364H50.1611V160ZM58.2412 160H52.0752V159.05L56.5254 153.438H52.1709V152.364H58.125V153.28L53.6543 158.913H58.2412V160ZM66.4443 160H65.1592V155.652C65.1592 155.301 65.1387 154.973 65.0977 154.668C65.0566 154.358 64.9814 154.117 64.8721 153.943C64.7581 153.752 64.5941 153.611 64.3799 153.52C64.1657 153.424 63.8877 153.376 63.5459 153.376C63.195 153.376 62.8281 153.463 62.4453 153.636C62.0625 153.809 61.6956 154.03 61.3447 154.299V160H60.0596V152.364H61.3447V153.212C61.7458 152.879 62.1605 152.619 62.5889 152.433C63.0173 152.246 63.457 152.152 63.9082 152.152C64.7331 152.152 65.362 152.401 65.7949 152.897C66.2279 153.394 66.4443 154.11 66.4443 155.044V160ZM75.3105 156.315H69.6846C69.6846 156.785 69.7552 157.195 69.8965 157.546C70.0378 157.892 70.2314 158.177 70.4775 158.4C70.7145 158.619 70.9948 158.783 71.3184 158.893C71.6465 159.002 72.0065 159.057 72.3984 159.057C72.918 159.057 73.4398 158.954 73.9639 158.749C74.4925 158.539 74.8685 158.334 75.0918 158.134H75.1602V159.535C74.7272 159.717 74.2852 159.87 73.834 159.993C73.3828 160.116 72.9089 160.178 72.4121 160.178C71.1452 160.178 70.1562 159.836 69.4453 159.152C68.7344 158.464 68.3789 157.489 68.3789 156.227C68.3789 154.978 68.7184 153.987 69.3975 153.253C70.0811 152.519 70.9788 152.152 72.0908 152.152C73.1208 152.152 73.9137 152.453 74.4697 153.055C75.0303 153.656 75.3105 154.511 75.3105 155.618V156.315ZM74.0596 155.331C74.055 154.657 73.8841 154.135 73.5469 153.766C73.2142 153.396 72.7061 153.212 72.0225 153.212C71.3343 153.212 70.7852 153.415 70.375 153.82C69.9694 154.226 69.7393 154.729 69.6846 155.331H74.0596ZM82.7139 157.799C82.7139 158.496 82.4245 159.068 81.8457 159.515C81.2715 159.961 80.4854 160.185 79.4873 160.185C78.9222 160.185 78.4027 160.118 77.9287 159.986C77.4593 159.85 77.0651 159.701 76.7461 159.542V158.1H76.8145C77.2201 158.405 77.6712 158.649 78.168 158.831C78.6647 159.009 79.141 159.098 79.5967 159.098C80.1618 159.098 80.6038 159.007 80.9229 158.824C81.2419 158.642 81.4014 158.355 81.4014 157.963C81.4014 157.662 81.3148 157.434 81.1416 157.279C80.9684 157.124 80.6357 156.992 80.1436 156.883C79.9613 156.842 79.722 156.794 79.4258 156.739C79.1341 156.685 78.8675 156.625 78.626 156.562C77.9561 156.384 77.4798 156.124 77.1973 155.782C76.9193 155.436 76.7803 155.012 76.7803 154.511C76.7803 154.196 76.8441 153.9 76.9717 153.622C77.1038 153.344 77.3021 153.096 77.5664 152.877C77.8216 152.663 78.1452 152.494 78.5371 152.371C78.9336 152.243 79.3757 152.18 79.8633 152.18C80.319 152.18 80.7793 152.237 81.2441 152.351C81.7135 152.46 82.1032 152.594 82.4131 152.754V154.128H82.3447C82.0166 153.886 81.6178 153.684 81.1484 153.52C80.679 153.351 80.2188 153.267 79.7676 153.267C79.2982 153.267 78.9017 153.358 78.5781 153.54C78.2546 153.718 78.0928 153.984 78.0928 154.34C78.0928 154.654 78.1908 154.891 78.3867 155.051C78.5781 155.21 78.888 155.34 79.3164 155.44C79.5534 155.495 79.8177 155.55 80.1094 155.604C80.4056 155.659 80.6517 155.709 80.8477 155.755C81.4447 155.892 81.9049 156.126 82.2285 156.459C82.5521 156.796 82.7139 157.243 82.7139 157.799ZM93.4463 159.932C93.2048 159.995 92.9404 160.048 92.6533 160.089C92.3708 160.13 92.1178 160.15 91.8945 160.15C91.1152 160.15 90.5228 159.941 90.1172 159.521C89.7116 159.102 89.5088 158.43 89.5088 157.505V153.444H88.6406V152.364H89.5088V150.17H90.7939V152.364H93.4463V153.444H90.7939V156.924C90.7939 157.325 90.8031 157.639 90.8213 157.867C90.8395 158.09 90.9033 158.3 91.0127 158.496C91.113 158.678 91.2497 158.813 91.4229 158.899C91.6006 158.981 91.8695 159.022 92.2295 159.022C92.4391 159.022 92.6579 158.993 92.8857 158.934C93.1136 158.87 93.2777 158.817 93.3779 158.776H93.4463V159.932ZM99.7695 153.766H99.7012C99.5098 153.72 99.3229 153.688 99.1406 153.67C98.9629 153.647 98.751 153.636 98.5049 153.636C98.1084 153.636 97.7256 153.725 97.3564 153.902C96.9873 154.076 96.6318 154.301 96.29 154.579V160H95.0049V152.364H96.29V153.492C96.8005 153.082 97.2493 152.793 97.6367 152.624C98.0286 152.451 98.4274 152.364 98.833 152.364C99.0563 152.364 99.2181 152.371 99.3184 152.385C99.4186 152.394 99.569 152.414 99.7695 152.446V153.766ZM107.371 156.315H101.745C101.745 156.785 101.816 157.195 101.957 157.546C102.098 157.892 102.292 158.177 102.538 158.4C102.775 158.619 103.055 158.783 103.379 158.893C103.707 159.002 104.067 159.057 104.459 159.057C104.979 159.057 105.5 158.954 106.024 158.749C106.553 158.539 106.929 158.334 107.152 158.134H107.221V159.535C106.788 159.717 106.346 159.87 105.895 159.993C105.443 160.116 104.969 160.178 104.473 160.178C103.206 160.178 102.217 159.836 101.506 159.152C100.795 158.464 100.439 157.489 100.439 156.227C100.439 154.978 100.779 153.987 101.458 153.253C102.142 152.519 103.039 152.152 104.151 152.152C105.181 152.152 105.974 152.453 106.53 153.055C107.091 153.656 107.371 154.511 107.371 155.618V156.315ZM106.12 155.331C106.116 154.657 105.945 154.135 105.607 153.766C105.275 153.396 104.767 153.212 104.083 153.212C103.395 153.212 102.846 153.415 102.436 153.82C102.03 154.226 101.8 154.729 101.745 155.331H106.12ZM115.704 160H114.419V155.652C114.419 155.301 114.398 154.973 114.357 154.668C114.316 154.358 114.241 154.117 114.132 153.943C114.018 153.752 113.854 153.611 113.64 153.52C113.425 153.424 113.147 153.376 112.806 153.376C112.455 153.376 112.088 153.463 111.705 153.636C111.322 153.809 110.955 154.03 110.604 154.299V160H109.319V152.364H110.604V153.212C111.006 152.879 111.42 152.619 111.849 152.433C112.277 152.246 112.717 152.152 113.168 152.152C113.993 152.152 114.622 152.401 115.055 152.897C115.488 153.394 115.704 154.11 115.704 155.044V160ZM119.56 151.086H118.11V149.753H119.56V151.086ZM119.478 160H118.192V152.364H119.478V160ZM128.405 160H127.12V155.652C127.12 155.301 127.1 154.973 127.059 154.668C127.018 154.358 126.942 154.117 126.833 153.943C126.719 153.752 126.555 153.611 126.341 153.52C126.127 153.424 125.849 153.376 125.507 153.376C125.156 153.376 124.789 153.463 124.406 153.636C124.023 153.809 123.657 154.03 123.306 154.299V160H122.021V152.364H123.306V153.212C123.707 152.879 124.121 152.619 124.55 152.433C124.978 152.246 125.418 152.152 125.869 152.152C126.694 152.152 127.323 152.401 127.756 152.897C128.189 153.394 128.405 154.11 128.405 155.044V160ZM137.073 159.132C137.073 160.426 136.779 161.376 136.191 161.982C135.604 162.589 134.699 162.892 133.478 162.892C133.072 162.892 132.675 162.862 132.288 162.803C131.905 162.748 131.527 162.668 131.153 162.563V161.251H131.222C131.431 161.333 131.764 161.433 132.22 161.552C132.675 161.675 133.131 161.736 133.587 161.736C134.024 161.736 134.387 161.684 134.674 161.579C134.961 161.474 135.184 161.328 135.344 161.142C135.503 160.964 135.617 160.75 135.686 160.499C135.754 160.248 135.788 159.968 135.788 159.658V158.961C135.401 159.271 135.029 159.503 134.674 159.658C134.323 159.809 133.874 159.884 133.327 159.884C132.416 159.884 131.691 159.556 131.153 158.899C130.62 158.239 130.354 157.309 130.354 156.11C130.354 155.454 130.445 154.889 130.627 154.415C130.814 153.937 131.067 153.524 131.386 153.178C131.682 152.854 132.042 152.604 132.466 152.426C132.89 152.243 133.311 152.152 133.73 152.152C134.173 152.152 134.542 152.198 134.838 152.289C135.139 152.376 135.455 152.51 135.788 152.692L135.87 152.364H137.073V159.132ZM135.788 157.901V153.738C135.446 153.583 135.127 153.474 134.831 153.41C134.539 153.342 134.248 153.308 133.956 153.308C133.25 153.308 132.694 153.545 132.288 154.019C131.882 154.493 131.68 155.181 131.68 156.083C131.68 156.94 131.83 157.589 132.131 158.031C132.432 158.473 132.931 158.694 133.628 158.694C134.002 158.694 134.375 158.624 134.749 158.482C135.127 158.337 135.474 158.143 135.788 157.901ZM140.901 160H139.616V149.363H140.901V160ZM149.378 160H148.1V159.187C147.986 159.264 147.831 159.373 147.635 159.515C147.443 159.651 147.257 159.761 147.074 159.843C146.86 159.948 146.614 160.034 146.336 160.103C146.058 160.175 145.732 160.212 145.358 160.212C144.67 160.212 144.087 159.984 143.608 159.528C143.13 159.073 142.891 158.492 142.891 157.785C142.891 157.206 143.014 156.739 143.26 156.384C143.51 156.024 143.866 155.741 144.326 155.536C144.791 155.331 145.349 155.192 146.001 155.119C146.653 155.046 147.352 154.992 148.1 154.955V154.757C148.1 154.465 148.047 154.224 147.942 154.032C147.842 153.841 147.696 153.69 147.505 153.581C147.323 153.476 147.104 153.406 146.849 153.369C146.593 153.333 146.327 153.314 146.049 153.314C145.712 153.314 145.336 153.36 144.921 153.451C144.506 153.538 144.078 153.665 143.636 153.834H143.567V152.528C143.818 152.46 144.18 152.385 144.654 152.303C145.128 152.221 145.595 152.18 146.056 152.18C146.593 152.18 147.061 152.225 147.457 152.316C147.858 152.403 148.204 152.553 148.496 152.768C148.783 152.977 149.002 153.248 149.152 153.581C149.303 153.914 149.378 154.326 149.378 154.818V160ZM148.1 158.12V155.994C147.708 156.017 147.245 156.051 146.712 156.097C146.183 156.142 145.764 156.208 145.454 156.295C145.085 156.4 144.786 156.564 144.559 156.787C144.331 157.006 144.217 157.309 144.217 157.696C144.217 158.134 144.349 158.464 144.613 158.688C144.878 158.906 145.281 159.016 145.823 159.016C146.274 159.016 146.687 158.929 147.061 158.756C147.434 158.578 147.781 158.366 148.1 158.12ZM156.617 153.766H156.549C156.357 153.72 156.171 153.688 155.988 153.67C155.811 153.647 155.599 153.636 155.353 153.636C154.956 153.636 154.573 153.725 154.204 153.902C153.835 154.076 153.479 154.301 153.138 154.579V160H151.853V152.364H153.138V153.492C153.648 153.082 154.097 152.793 154.484 152.624C154.876 152.451 155.275 152.364 155.681 152.364C155.904 152.364 156.066 152.371 156.166 152.385C156.266 152.394 156.417 152.414 156.617 152.446V153.766ZM158.511 158.052L156.583 162.529H155.585L156.774 158.052H158.511ZM175.033 160H173.68V151.229L170.85 157.197H170.043L167.233 151.229V160H165.969V149.821H167.814L170.528 155.488L173.153 149.821H175.033V160ZM183.599 160H182.32V159.187C182.206 159.264 182.051 159.373 181.855 159.515C181.664 159.651 181.477 159.761 181.295 159.843C181.081 159.948 180.835 160.034 180.557 160.103C180.279 160.175 179.953 160.212 179.579 160.212C178.891 160.212 178.308 159.984 177.829 159.528C177.351 159.073 177.111 158.492 177.111 157.785C177.111 157.206 177.234 156.739 177.48 156.384C177.731 156.024 178.087 155.741 178.547 155.536C179.012 155.331 179.57 155.192 180.222 155.119C180.873 155.046 181.573 154.992 182.32 154.955V154.757C182.32 154.465 182.268 154.224 182.163 154.032C182.063 153.841 181.917 153.69 181.726 153.581C181.543 153.476 181.325 153.406 181.069 153.369C180.814 153.333 180.548 153.314 180.27 153.314C179.932 153.314 179.556 153.36 179.142 153.451C178.727 153.538 178.299 153.665 177.856 153.834H177.788V152.528C178.039 152.46 178.401 152.385 178.875 152.303C179.349 152.221 179.816 152.18 180.276 152.18C180.814 152.18 181.281 152.225 181.678 152.316C182.079 152.403 182.425 152.553 182.717 152.768C183.004 152.977 183.223 153.248 183.373 153.581C183.523 153.914 183.599 154.326 183.599 154.818V160ZM182.32 158.12V155.994C181.928 156.017 181.466 156.051 180.933 156.097C180.404 156.142 179.985 156.208 179.675 156.295C179.306 156.4 179.007 156.564 178.779 156.787C178.551 157.006 178.438 157.309 178.438 157.696C178.438 158.134 178.57 158.464 178.834 158.688C179.098 158.906 179.502 159.016 180.044 159.016C180.495 159.016 180.908 158.929 181.281 158.756C181.655 158.578 182.001 158.366 182.32 158.12ZM191.528 157.799C191.528 158.496 191.239 159.068 190.66 159.515C190.086 159.961 189.3 160.185 188.302 160.185C187.737 160.185 187.217 160.118 186.743 159.986C186.274 159.85 185.88 159.701 185.561 159.542V158.1H185.629C186.035 158.405 186.486 158.649 186.982 158.831C187.479 159.009 187.955 159.098 188.411 159.098C188.976 159.098 189.418 159.007 189.737 158.824C190.056 158.642 190.216 158.355 190.216 157.963C190.216 157.662 190.129 157.434 189.956 157.279C189.783 157.124 189.45 156.992 188.958 156.883C188.776 156.842 188.536 156.794 188.24 156.739C187.949 156.685 187.682 156.625 187.44 156.562C186.771 156.384 186.294 156.124 186.012 155.782C185.734 155.436 185.595 155.012 185.595 154.511C185.595 154.196 185.659 153.9 185.786 153.622C185.918 153.344 186.117 153.096 186.381 152.877C186.636 152.663 186.96 152.494 187.352 152.371C187.748 152.243 188.19 152.18 188.678 152.18C189.133 152.18 189.594 152.237 190.059 152.351C190.528 152.46 190.918 152.594 191.228 152.754V154.128H191.159C190.831 153.886 190.432 153.684 189.963 153.52C189.493 153.351 189.033 153.267 188.582 153.267C188.113 153.267 187.716 153.358 187.393 153.54C187.069 153.718 186.907 153.984 186.907 154.34C186.907 154.654 187.005 154.891 187.201 155.051C187.393 155.21 187.702 155.34 188.131 155.44C188.368 155.495 188.632 155.55 188.924 155.604C189.22 155.659 189.466 155.709 189.662 155.755C190.259 155.892 190.719 156.126 191.043 156.459C191.367 156.796 191.528 157.243 191.528 157.799ZM197.339 159.932C197.097 159.995 196.833 160.048 196.546 160.089C196.263 160.13 196.01 160.15 195.787 160.15C195.008 160.15 194.415 159.941 194.01 159.521C193.604 159.102 193.401 158.43 193.401 157.505V153.444H192.533V152.364H193.401V150.17H194.687V152.364H197.339V153.444H194.687V156.924C194.687 157.325 194.696 157.639 194.714 157.867C194.732 158.09 194.796 158.3 194.905 158.496C195.006 158.678 195.142 158.813 195.315 158.899C195.493 158.981 195.762 159.022 196.122 159.022C196.332 159.022 196.55 158.993 196.778 158.934C197.006 158.87 197.17 158.817 197.271 158.776H197.339V159.932ZM205.289 156.315H199.663C199.663 156.785 199.734 157.195 199.875 157.546C200.016 157.892 200.21 158.177 200.456 158.4C200.693 158.619 200.973 158.783 201.297 158.893C201.625 159.002 201.985 159.057 202.377 159.057C202.896 159.057 203.418 158.954 203.942 158.749C204.471 158.539 204.847 158.334 205.07 158.134H205.139V159.535C204.706 159.717 204.264 159.87 203.812 159.993C203.361 160.116 202.887 160.178 202.391 160.178C201.124 160.178 200.135 159.836 199.424 159.152C198.713 158.464 198.357 157.489 198.357 156.227C198.357 154.978 198.697 153.987 199.376 153.253C200.06 152.519 200.957 152.152 202.069 152.152C203.099 152.152 203.892 152.453 204.448 153.055C205.009 153.656 205.289 154.511 205.289 155.618V156.315ZM204.038 155.331C204.034 154.657 203.863 154.135 203.525 153.766C203.193 153.396 202.685 153.212 202.001 153.212C201.313 153.212 200.764 153.415 200.354 153.82C199.948 154.226 199.718 154.729 199.663 155.331H204.038ZM212.002 153.766H211.934C211.742 153.72 211.555 153.688 211.373 153.67C211.195 153.647 210.983 153.636 210.737 153.636C210.341 153.636 209.958 153.725 209.589 153.902C209.22 154.076 208.864 154.301 208.522 154.579V160H207.237V152.364H208.522V153.492C209.033 153.082 209.482 152.793 209.869 152.624C210.261 152.451 210.66 152.364 211.065 152.364C211.289 152.364 211.451 152.371 211.551 152.385C211.651 152.394 211.801 152.414 212.002 152.446V153.766ZM217.122 156.165H212.856V154.928H217.122V156.165ZM226.364 160H224.669L221.606 156.657L220.772 157.45V160H219.487V149.363H220.772V156.186L224.484 152.364H226.104L222.557 155.892L226.364 160ZM229.017 160H227.731V149.363H229.017V160ZM237.493 160H236.215V159.187C236.101 159.264 235.946 159.373 235.75 159.515C235.559 159.651 235.372 159.761 235.189 159.843C234.975 159.948 234.729 160.034 234.451 160.103C234.173 160.175 233.847 160.212 233.474 160.212C232.785 160.212 232.202 159.984 231.724 159.528C231.245 159.073 231.006 158.492 231.006 157.785C231.006 157.206 231.129 156.739 231.375 156.384C231.626 156.024 231.981 155.741 232.441 155.536C232.906 155.331 233.465 155.192 234.116 155.119C234.768 155.046 235.467 154.992 236.215 154.955V154.757C236.215 154.465 236.162 154.224 236.058 154.032C235.957 153.841 235.812 153.69 235.62 153.581C235.438 153.476 235.219 153.406 234.964 153.369C234.709 153.333 234.442 153.314 234.164 153.314C233.827 153.314 233.451 153.36 233.036 153.451C232.621 153.538 232.193 153.665 231.751 153.834H231.683V152.528C231.933 152.46 232.296 152.385 232.77 152.303C233.243 152.221 233.711 152.18 234.171 152.18C234.709 152.18 235.176 152.225 235.572 152.316C235.973 152.403 236.32 152.553 236.611 152.768C236.898 152.977 237.117 153.248 237.268 153.581C237.418 153.914 237.493 154.326 237.493 154.818V160ZM236.215 158.12V155.994C235.823 156.017 235.36 156.051 234.827 156.097C234.299 156.142 233.879 156.208 233.569 156.295C233.2 156.4 232.902 156.564 232.674 156.787C232.446 157.006 232.332 157.309 232.332 157.696C232.332 158.134 232.464 158.464 232.729 158.688C232.993 158.906 233.396 159.016 233.938 159.016C234.39 159.016 234.802 158.929 235.176 158.756C235.549 158.578 235.896 158.366 236.215 158.12ZM245.423 157.799C245.423 158.496 245.133 159.068 244.555 159.515C243.98 159.961 243.194 160.185 242.196 160.185C241.631 160.185 241.112 160.118 240.638 159.986C240.168 159.85 239.774 159.701 239.455 159.542V158.1H239.523C239.929 158.405 240.38 158.649 240.877 158.831C241.374 159.009 241.85 159.098 242.306 159.098C242.871 159.098 243.313 159.007 243.632 158.824C243.951 158.642 244.11 158.355 244.11 157.963C244.11 157.662 244.024 157.434 243.851 157.279C243.677 157.124 243.345 156.992 242.853 156.883C242.67 156.842 242.431 156.794 242.135 156.739C241.843 156.685 241.576 156.625 241.335 156.562C240.665 156.384 240.189 156.124 239.906 155.782C239.628 155.436 239.489 155.012 239.489 154.511C239.489 154.196 239.553 153.9 239.681 153.622C239.813 153.344 240.011 153.096 240.275 152.877C240.531 152.663 240.854 152.494 241.246 152.371C241.643 152.243 242.085 152.18 242.572 152.18C243.028 152.18 243.488 152.237 243.953 152.351C244.423 152.46 244.812 152.594 245.122 152.754V154.128H245.054C244.726 153.886 244.327 153.684 243.857 153.52C243.388 153.351 242.928 153.267 242.477 153.267C242.007 153.267 241.611 153.358 241.287 153.54C240.964 153.718 240.802 153.984 240.802 154.34C240.802 154.654 240.9 154.891 241.096 155.051C241.287 155.21 241.597 155.34 242.025 155.44C242.262 155.495 242.527 155.55 242.818 155.604C243.115 155.659 243.361 155.709 243.557 155.755C244.154 155.892 244.614 156.126 244.938 156.459C245.261 156.796 245.423 157.243 245.423 157.799ZM252.724 157.799C252.724 158.496 252.434 159.068 251.855 159.515C251.281 159.961 250.495 160.185 249.497 160.185C248.932 160.185 248.412 160.118 247.938 159.986C247.469 159.85 247.075 159.701 246.756 159.542V158.1H246.824C247.23 158.405 247.681 158.649 248.178 158.831C248.674 159.009 249.151 159.098 249.606 159.098C250.172 159.098 250.614 159.007 250.933 158.824C251.252 158.642 251.411 158.355 251.411 157.963C251.411 157.662 251.325 157.434 251.151 157.279C250.978 157.124 250.646 156.992 250.153 156.883C249.971 156.842 249.732 156.794 249.436 156.739C249.144 156.685 248.877 156.625 248.636 156.562C247.966 156.384 247.49 156.124 247.207 155.782C246.929 155.436 246.79 155.012 246.79 154.511C246.79 154.196 246.854 153.9 246.981 153.622C247.114 153.344 247.312 153.096 247.576 152.877C247.831 152.663 248.155 152.494 248.547 152.371C248.943 152.243 249.385 152.18 249.873 152.18C250.329 152.18 250.789 152.237 251.254 152.351C251.723 152.46 252.113 152.594 252.423 152.754V154.128H252.354C252.026 153.886 251.628 153.684 251.158 153.52C250.689 153.351 250.229 153.267 249.777 153.267C249.308 153.267 248.911 153.358 248.588 153.54C248.264 153.718 248.103 153.984 248.103 154.34C248.103 154.654 248.201 154.891 248.396 155.051C248.588 155.21 248.898 155.34 249.326 155.44C249.563 155.495 249.827 155.55 250.119 155.604C250.415 155.659 250.661 155.709 250.857 155.755C251.454 155.892 251.915 156.126 252.238 156.459C252.562 156.796 252.724 157.243 252.724 157.799ZM255.868 160H254.583V149.363H255.868V160ZM264.345 160H263.066V159.187C262.952 159.264 262.798 159.373 262.602 159.515C262.41 159.651 262.223 159.761 262.041 159.843C261.827 159.948 261.581 160.034 261.303 160.103C261.025 160.175 260.699 160.212 260.325 160.212C259.637 160.212 259.054 159.984 258.575 159.528C258.097 159.073 257.857 158.492 257.857 157.785C257.857 157.206 257.98 156.739 258.227 156.384C258.477 156.024 258.833 155.741 259.293 155.536C259.758 155.331 260.316 155.192 260.968 155.119C261.619 155.046 262.319 154.992 263.066 154.955V154.757C263.066 154.465 263.014 154.224 262.909 154.032C262.809 153.841 262.663 153.69 262.472 153.581C262.289 153.476 262.071 153.406 261.815 153.369C261.56 153.333 261.294 153.314 261.016 153.314C260.678 153.314 260.302 153.36 259.888 153.451C259.473 153.538 259.045 153.665 258.603 153.834H258.534V152.528C258.785 152.46 259.147 152.385 259.621 152.303C260.095 152.221 260.562 152.18 261.022 152.18C261.56 152.18 262.027 152.225 262.424 152.316C262.825 152.403 263.171 152.553 263.463 152.768C263.75 152.977 263.969 153.248 264.119 153.581C264.27 153.914 264.345 154.326 264.345 154.818V160ZM263.066 158.12V155.994C262.674 156.017 262.212 156.051 261.679 156.097C261.15 156.142 260.731 156.208 260.421 156.295C260.052 156.4 259.753 156.564 259.525 156.787C259.298 157.006 259.184 157.309 259.184 157.696C259.184 158.134 259.316 158.464 259.58 158.688C259.844 158.906 260.248 159.016 260.79 159.016C261.241 159.016 261.654 158.929 262.027 158.756C262.401 158.578 262.747 158.366 263.066 158.12ZM271.584 153.766H271.516C271.324 153.72 271.137 153.688 270.955 153.67C270.777 153.647 270.565 153.636 270.319 153.636C269.923 153.636 269.54 153.725 269.171 153.902C268.802 154.076 268.446 154.301 268.104 154.579V160H266.819V152.364H268.104V153.492C268.615 153.082 269.064 152.793 269.451 152.624C269.843 152.451 270.242 152.364 270.647 152.364C270.871 152.364 271.033 152.371 271.133 152.385C271.233 152.394 271.383 152.414 271.584 152.446V153.766ZM273.478 158.052L271.55 162.529H270.552L271.741 158.052H273.478ZM46.7637 174.095C46.7637 174.491 46.6702 174.883 46.4834 175.271C46.3011 175.658 46.0436 175.986 45.7109 176.255C45.3464 176.547 44.9202 176.774 44.4326 176.938C43.9495 177.103 43.3662 177.185 42.6826 177.185C41.9489 177.185 41.2881 177.116 40.7002 176.979C40.1169 176.843 39.5221 176.64 38.916 176.371V174.676H39.0117C39.5267 175.104 40.1214 175.435 40.7959 175.667C41.4704 175.899 42.1038 176.016 42.6963 176.016C43.5348 176.016 44.1865 175.858 44.6514 175.544C45.1208 175.229 45.3555 174.81 45.3555 174.286C45.3555 173.835 45.2438 173.502 45.0205 173.288C44.8018 173.074 44.4668 172.908 44.0156 172.789C43.6738 172.698 43.3024 172.623 42.9014 172.563C42.5049 172.504 42.0833 172.429 41.6367 172.338C40.7344 172.146 40.0645 171.821 39.627 171.36C39.194 170.896 38.9775 170.292 38.9775 169.549C38.9775 168.697 39.3376 167.999 40.0576 167.457C40.7777 166.91 41.6914 166.637 42.7988 166.637C43.5143 166.637 44.1706 166.705 44.7676 166.842C45.3646 166.979 45.8932 167.147 46.3535 167.348V168.947H46.2578C45.8704 168.619 45.36 168.348 44.7266 168.134C44.0977 167.915 43.4528 167.806 42.792 167.806C42.0674 167.806 41.484 167.956 41.042 168.257C40.6045 168.558 40.3857 168.945 40.3857 169.419C40.3857 169.843 40.4951 170.175 40.7139 170.417C40.9326 170.659 41.3177 170.843 41.8691 170.971C42.1608 171.035 42.5755 171.112 43.1133 171.203C43.651 171.294 44.1068 171.388 44.4805 171.483C45.237 171.684 45.8066 171.987 46.1895 172.393C46.5723 172.798 46.7637 173.366 46.7637 174.095ZM55.2266 173.315H49.6006C49.6006 173.785 49.6712 174.195 49.8125 174.546C49.9538 174.892 50.1475 175.177 50.3936 175.4C50.6305 175.619 50.9108 175.783 51.2344 175.893C51.5625 176.002 51.9225 176.057 52.3145 176.057C52.834 176.057 53.3558 175.954 53.8799 175.749C54.4085 175.539 54.7845 175.334 55.0078 175.134H55.0762V176.535C54.6432 176.717 54.2012 176.87 53.75 176.993C53.2988 177.116 52.8249 177.178 52.3281 177.178C51.0612 177.178 50.0723 176.836 49.3613 176.152C48.6504 175.464 48.2949 174.489 48.2949 173.227C48.2949 171.978 48.6344 170.987 49.3135 170.253C49.9971 169.519 50.8949 169.152 52.0068 169.152C53.0368 169.152 53.8298 169.453 54.3857 170.055C54.9463 170.656 55.2266 171.511 55.2266 172.618V173.315ZM53.9756 172.331C53.971 171.657 53.8001 171.135 53.4629 170.766C53.1302 170.396 52.6221 170.212 51.9385 170.212C51.2503 170.212 50.7012 170.415 50.291 170.82C49.8854 171.226 49.6553 171.729 49.6006 172.331H53.9756ZM68.3174 177H67.0322V172.652C67.0322 172.324 67.0163 172.007 66.9844 171.702C66.957 171.397 66.8955 171.153 66.7998 170.971C66.695 170.775 66.5446 170.627 66.3486 170.526C66.1527 170.426 65.8701 170.376 65.501 170.376C65.141 170.376 64.7809 170.467 64.4209 170.649C64.0609 170.827 63.7008 171.055 63.3408 171.333C63.3545 171.438 63.3659 171.561 63.375 171.702C63.3841 171.839 63.3887 171.976 63.3887 172.112V177H62.1035V172.652C62.1035 172.315 62.0876 171.996 62.0557 171.695C62.0283 171.39 61.9668 171.146 61.8711 170.964C61.7663 170.768 61.6159 170.622 61.4199 170.526C61.224 170.426 60.9414 170.376 60.5723 170.376C60.2214 170.376 59.8682 170.463 59.5127 170.636C59.1618 170.809 58.8109 171.03 58.46 171.299V177H57.1748V169.364H58.46V170.212C58.861 169.879 59.2598 169.619 59.6562 169.433C60.0573 169.246 60.4834 169.152 60.9346 169.152C61.4541 169.152 61.8939 169.262 62.2539 169.48C62.6185 169.699 62.8896 170.002 63.0674 170.39C63.5869 169.952 64.0609 169.638 64.4893 169.446C64.9176 169.25 65.3757 169.152 65.8633 169.152C66.7018 169.152 67.3193 169.408 67.7158 169.918C68.1169 170.424 68.3174 171.132 68.3174 172.044V177ZM72.1729 168.086H70.7236V166.753H72.1729V168.086ZM72.0908 177H70.8057V169.364H72.0908V177ZM81.0186 177H79.7334V172.652C79.7334 172.301 79.7129 171.973 79.6719 171.668C79.6309 171.358 79.5557 171.117 79.4463 170.943C79.3324 170.752 79.1683 170.611 78.9541 170.52C78.7399 170.424 78.4619 170.376 78.1201 170.376C77.7692 170.376 77.4023 170.463 77.0195 170.636C76.6367 170.809 76.2699 171.03 75.9189 171.299V177H74.6338V169.364H75.9189V170.212C76.32 169.879 76.7347 169.619 77.1631 169.433C77.5915 169.246 78.0312 169.152 78.4824 169.152C79.3073 169.152 79.9362 169.401 80.3691 169.897C80.8021 170.394 81.0186 171.11 81.0186 172.044V177ZM89.4268 177H88.1484V176.187C88.0345 176.264 87.8796 176.373 87.6836 176.515C87.4922 176.651 87.3053 176.761 87.123 176.843C86.9089 176.948 86.6628 177.034 86.3848 177.103C86.1068 177.175 85.7809 177.212 85.4072 177.212C84.7191 177.212 84.1357 176.984 83.6572 176.528C83.1787 176.073 82.9395 175.492 82.9395 174.785C82.9395 174.206 83.0625 173.739 83.3086 173.384C83.5592 173.024 83.9147 172.741 84.375 172.536C84.8398 172.331 85.3981 172.192 86.0498 172.119C86.7015 172.046 87.401 171.992 88.1484 171.955V171.757C88.1484 171.465 88.096 171.224 87.9912 171.032C87.891 170.841 87.7451 170.69 87.5537 170.581C87.3714 170.476 87.1527 170.406 86.8975 170.369C86.6423 170.333 86.3757 170.314 86.0977 170.314C85.7604 170.314 85.3844 170.36 84.9697 170.451C84.555 170.538 84.1266 170.665 83.6846 170.834H83.6162V169.528C83.8669 169.46 84.2292 169.385 84.7031 169.303C85.1771 169.221 85.6442 169.18 86.1045 169.18C86.6423 169.18 87.1094 169.225 87.5059 169.316C87.9069 169.403 88.2533 169.553 88.5449 169.768C88.832 169.977 89.0508 170.248 89.2012 170.581C89.3516 170.914 89.4268 171.326 89.4268 171.818V177ZM88.1484 175.12V172.994C87.7565 173.017 87.2939 173.051 86.7607 173.097C86.2321 173.142 85.8128 173.208 85.5029 173.295C85.1338 173.4 84.8353 173.564 84.6074 173.787C84.3796 174.006 84.2656 174.309 84.2656 174.696C84.2656 175.134 84.3978 175.464 84.6621 175.688C84.9264 175.906 85.3298 176.016 85.8721 176.016C86.3232 176.016 86.7357 175.929 87.1094 175.756C87.4831 175.578 87.8294 175.366 88.1484 175.12ZM96.666 170.766H96.5977C96.4062 170.72 96.2194 170.688 96.0371 170.67C95.8594 170.647 95.6475 170.636 95.4014 170.636C95.0049 170.636 94.6221 170.725 94.2529 170.902C93.8838 171.076 93.5283 171.301 93.1865 171.579V177H91.9014V169.364H93.1865V170.492C93.6969 170.082 94.1458 169.793 94.5332 169.624C94.9251 169.451 95.3239 169.364 95.7295 169.364C95.9528 169.364 96.1146 169.371 96.2148 169.385C96.3151 169.394 96.4655 169.414 96.666 169.446V170.766ZM99.1748 177H97.8896V166.363H99.1748V177ZM107.651 177H106.373V176.187C106.259 176.264 106.104 176.373 105.908 176.515C105.717 176.651 105.53 176.761 105.348 176.843C105.133 176.948 104.887 177.034 104.609 177.103C104.331 177.175 104.006 177.212 103.632 177.212C102.944 177.212 102.36 176.984 101.882 176.528C101.403 176.073 101.164 175.492 101.164 174.785C101.164 174.206 101.287 173.739 101.533 173.384C101.784 173.024 102.139 172.741 102.6 172.536C103.064 172.331 103.623 172.192 104.274 172.119C104.926 172.046 105.626 171.992 106.373 171.955V171.757C106.373 171.465 106.321 171.224 106.216 171.032C106.116 170.841 105.97 170.69 105.778 170.581C105.596 170.476 105.377 170.406 105.122 170.369C104.867 170.333 104.6 170.314 104.322 170.314C103.985 170.314 103.609 170.36 103.194 170.451C102.78 170.538 102.351 170.665 101.909 170.834H101.841V169.528C102.091 169.46 102.454 169.385 102.928 169.303C103.402 169.221 103.869 169.18 104.329 169.18C104.867 169.18 105.334 169.225 105.73 169.316C106.132 169.403 106.478 169.553 106.77 169.768C107.057 169.977 107.275 170.248 107.426 170.581C107.576 170.914 107.651 171.326 107.651 171.818V177ZM106.373 175.12V172.994C105.981 173.017 105.519 173.051 104.985 173.097C104.457 173.142 104.037 173.208 103.728 173.295C103.358 173.4 103.06 173.564 102.832 173.787C102.604 174.006 102.49 174.309 102.49 174.696C102.49 175.134 102.622 175.464 102.887 175.688C103.151 175.906 103.554 176.016 104.097 176.016C104.548 176.016 104.96 175.929 105.334 175.756C105.708 175.578 106.054 175.366 106.373 175.12ZM114.891 170.766H114.822C114.631 170.72 114.444 170.688 114.262 170.67C114.084 170.647 113.872 170.636 113.626 170.636C113.229 170.636 112.847 170.725 112.478 170.902C112.108 171.076 111.753 171.301 111.411 171.579V177H110.126V169.364H111.411V170.492C111.922 170.082 112.37 169.793 112.758 169.624C113.15 169.451 113.549 169.364 113.954 169.364C114.177 169.364 114.339 169.371 114.439 169.385C114.54 169.394 114.69 169.414 114.891 169.446V170.766Z" fill="#333333"/>
<path d="M5 203L12.5 210.5L25 195.5" stroke="#61B857" stroke-width="2" stroke-linecap="round" stroke-linejoin="round"/>
<path d="M51.9658 205.369C51.9658 205.875 51.8701 206.322 51.6787 206.709C51.4873 207.096 51.2298 207.415 50.9062 207.666C50.5234 207.967 50.1019 208.181 49.6416 208.309C49.1859 208.436 48.6048 208.5 47.8984 208.5H44.2891V198.321H47.3037C48.0465 198.321 48.6025 198.349 48.9717 198.403C49.3408 198.458 49.694 198.572 50.0312 198.745C50.4049 198.941 50.6761 199.194 50.8447 199.504C51.0133 199.809 51.0977 200.176 51.0977 200.604C51.0977 201.088 50.9746 201.5 50.7285 201.842C50.4824 202.179 50.1543 202.45 49.7441 202.655V202.71C50.4323 202.851 50.9746 203.154 51.3711 203.619C51.7676 204.079 51.9658 204.663 51.9658 205.369ZM49.6895 200.782C49.6895 200.536 49.6484 200.329 49.5664 200.16C49.4844 199.992 49.3522 199.855 49.1699 199.75C48.9557 199.627 48.696 199.552 48.3906 199.524C48.0853 199.493 47.707 199.477 47.2559 199.477H45.6426V202.416H47.3926C47.8164 202.416 48.1536 202.396 48.4043 202.354C48.6549 202.309 48.8874 202.218 49.1016 202.081C49.3158 201.944 49.4661 201.769 49.5527 201.555C49.6439 201.336 49.6895 201.078 49.6895 200.782ZM50.5576 205.424C50.5576 205.014 50.4961 204.688 50.373 204.446C50.25 204.205 50.0267 204 49.7031 203.831C49.4844 203.717 49.2178 203.644 48.9033 203.612C48.5934 203.576 48.2152 203.558 47.7686 203.558H45.6426V207.345H47.4336C48.026 207.345 48.5114 207.315 48.8896 207.256C49.2679 207.192 49.5778 207.078 49.8193 206.914C50.0745 206.736 50.2614 206.534 50.3799 206.306C50.4984 206.078 50.5576 205.784 50.5576 205.424ZM55.165 199.586H53.7158V198.253H55.165V199.586ZM55.083 208.5H53.7979V200.864H55.083V208.5ZM63.1631 208.5H56.9971V207.55L61.4473 201.938H57.0928V200.864H63.0469V201.78L58.5762 207.413H63.1631V208.5ZM71.3662 208.5H70.0811V204.152C70.0811 203.801 70.0605 203.473 70.0195 203.168C69.9785 202.858 69.9033 202.617 69.7939 202.443C69.68 202.252 69.516 202.111 69.3018 202.02C69.0876 201.924 68.8096 201.876 68.4678 201.876C68.1169 201.876 67.75 201.963 67.3672 202.136C66.9844 202.309 66.6175 202.53 66.2666 202.799V208.5H64.9814V200.864H66.2666V201.712C66.6676 201.379 67.0824 201.119 67.5107 200.933C67.9391 200.746 68.3789 200.652 68.8301 200.652C69.6549 200.652 70.2839 200.901 70.7168 201.397C71.1497 201.894 71.3662 202.61 71.3662 203.544V208.5ZM80.2324 204.815H74.6064C74.6064 205.285 74.6771 205.695 74.8184 206.046C74.9596 206.392 75.1533 206.677 75.3994 206.9C75.6364 207.119 75.9167 207.283 76.2402 207.393C76.5684 207.502 76.9284 207.557 77.3203 207.557C77.8398 207.557 78.3617 207.454 78.8857 207.249C79.4144 207.039 79.7904 206.834 80.0137 206.634H80.082V208.035C79.6491 208.217 79.207 208.37 78.7559 208.493C78.3047 208.616 77.8307 208.678 77.334 208.678C76.0671 208.678 75.0781 208.336 74.3672 207.652C73.6562 206.964 73.3008 205.989 73.3008 204.727C73.3008 203.478 73.6403 202.487 74.3193 201.753C75.0029 201.019 75.9007 200.652 77.0127 200.652C78.0426 200.652 78.8356 200.953 79.3916 201.555C79.9521 202.156 80.2324 203.011 80.2324 204.118V204.815ZM78.9814 203.831C78.9769 203.157 78.806 202.635 78.4688 202.266C78.1361 201.896 77.6279 201.712 76.9443 201.712C76.2562 201.712 75.707 201.915 75.2969 202.32C74.8913 202.726 74.6611 203.229 74.6064 203.831H78.9814ZM87.6357 206.299C87.6357 206.996 87.3464 207.568 86.7676 208.015C86.1934 208.461 85.4072 208.685 84.4092 208.685C83.8441 208.685 83.3245 208.618 82.8506 208.486C82.3812 208.35 81.987 208.201 81.668 208.042V206.6H81.7363C82.1419 206.905 82.5931 207.149 83.0898 207.331C83.5866 207.509 84.0628 207.598 84.5186 207.598C85.0837 207.598 85.5257 207.507 85.8447 207.324C86.1637 207.142 86.3232 206.855 86.3232 206.463C86.3232 206.162 86.2367 205.934 86.0635 205.779C85.8903 205.624 85.5576 205.492 85.0654 205.383C84.8831 205.342 84.6439 205.294 84.3477 205.239C84.056 205.185 83.7894 205.125 83.5479 205.062C82.8779 204.884 82.4017 204.624 82.1191 204.282C81.8411 203.936 81.7021 203.512 81.7021 203.011C81.7021 202.696 81.766 202.4 81.8936 202.122C82.0257 201.844 82.224 201.596 82.4883 201.377C82.7435 201.163 83.0671 200.994 83.459 200.871C83.8555 200.743 84.2975 200.68 84.7852 200.68C85.2409 200.68 85.7012 200.737 86.166 200.851C86.6354 200.96 87.0251 201.094 87.335 201.254V202.628H87.2666C86.9385 202.386 86.5397 202.184 86.0703 202.02C85.6009 201.851 85.1406 201.767 84.6895 201.767C84.2201 201.767 83.8236 201.858 83.5 202.04C83.1764 202.218 83.0146 202.484 83.0146 202.84C83.0146 203.154 83.1126 203.391 83.3086 203.551C83.5 203.71 83.8099 203.84 84.2383 203.94C84.4753 203.995 84.7396 204.05 85.0312 204.104C85.3275 204.159 85.5736 204.209 85.7695 204.255C86.3665 204.392 86.8268 204.626 87.1504 204.959C87.474 205.296 87.6357 205.743 87.6357 206.299ZM95.7021 208.5H94.417V197.863H95.7021V208.5ZM104.179 208.5H102.9V207.687C102.786 207.764 102.632 207.873 102.436 208.015C102.244 208.151 102.057 208.261 101.875 208.343C101.661 208.448 101.415 208.534 101.137 208.603C100.859 208.675 100.533 208.712 100.159 208.712C99.471 208.712 98.8877 208.484 98.4092 208.028C97.9307 207.573 97.6914 206.992 97.6914 206.285C97.6914 205.706 97.8145 205.239 98.0605 204.884C98.3112 204.524 98.6667 204.241 99.127 204.036C99.5918 203.831 100.15 203.692 100.802 203.619C101.453 203.546 102.153 203.492 102.9 203.455V203.257C102.9 202.965 102.848 202.724 102.743 202.532C102.643 202.341 102.497 202.19 102.306 202.081C102.123 201.976 101.905 201.906 101.649 201.869C101.394 201.833 101.128 201.814 100.85 201.814C100.512 201.814 100.136 201.86 99.7217 201.951C99.307 202.038 98.8786 202.165 98.4365 202.334H98.3682V201.028C98.6188 200.96 98.9811 200.885 99.4551 200.803C99.929 200.721 100.396 200.68 100.856 200.68C101.394 200.68 101.861 200.725 102.258 200.816C102.659 200.903 103.005 201.053 103.297 201.268C103.584 201.477 103.803 201.748 103.953 202.081C104.104 202.414 104.179 202.826 104.179 203.318V208.5ZM102.9 206.62V204.494C102.508 204.517 102.046 204.551 101.513 204.597C100.984 204.642 100.565 204.708 100.255 204.795C99.8857 204.9 99.5872 205.064 99.3594 205.287C99.1315 205.506 99.0176 205.809 99.0176 206.196C99.0176 206.634 99.1497 206.964 99.4141 207.188C99.6784 207.406 100.082 207.516 100.624 207.516C101.075 207.516 101.488 207.429 101.861 207.256C102.235 207.078 102.581 206.866 102.9 206.62ZM112.847 207.632C112.847 208.926 112.553 209.876 111.965 210.482C111.377 211.089 110.472 211.392 109.251 211.392C108.845 211.392 108.449 211.362 108.062 211.303C107.679 211.248 107.3 211.168 106.927 211.063V209.751H106.995C107.205 209.833 107.537 209.933 107.993 210.052C108.449 210.175 108.905 210.236 109.36 210.236C109.798 210.236 110.16 210.184 110.447 210.079C110.734 209.974 110.958 209.828 111.117 209.642C111.277 209.464 111.391 209.25 111.459 208.999C111.527 208.748 111.562 208.468 111.562 208.158V207.461C111.174 207.771 110.803 208.003 110.447 208.158C110.096 208.309 109.647 208.384 109.101 208.384C108.189 208.384 107.465 208.056 106.927 207.399C106.394 206.739 106.127 205.809 106.127 204.61C106.127 203.954 106.218 203.389 106.4 202.915C106.587 202.437 106.84 202.024 107.159 201.678C107.455 201.354 107.815 201.104 108.239 200.926C108.663 200.743 109.085 200.652 109.504 200.652C109.946 200.652 110.315 200.698 110.611 200.789C110.912 200.876 111.229 201.01 111.562 201.192L111.644 200.864H112.847V207.632ZM111.562 206.401V202.238C111.22 202.083 110.901 201.974 110.604 201.91C110.313 201.842 110.021 201.808 109.729 201.808C109.023 201.808 108.467 202.045 108.062 202.519C107.656 202.993 107.453 203.681 107.453 204.583C107.453 205.44 107.604 206.089 107.904 206.531C108.205 206.973 108.704 207.194 109.401 207.194C109.775 207.194 110.149 207.124 110.522 206.982C110.901 206.837 111.247 206.643 111.562 206.401ZM121.768 204.815H116.142C116.142 205.285 116.212 205.695 116.354 206.046C116.495 206.392 116.688 206.677 116.935 206.9C117.172 207.119 117.452 207.283 117.775 207.393C118.104 207.502 118.464 207.557 118.855 207.557C119.375 207.557 119.897 207.454 120.421 207.249C120.95 207.039 121.326 206.834 121.549 206.634H121.617V208.035C121.184 208.217 120.742 208.37 120.291 208.493C119.84 208.616 119.366 208.678 118.869 208.678C117.602 208.678 116.613 208.336 115.902 207.652C115.191 206.964 114.836 205.989 114.836 204.727C114.836 203.478 115.175 202.487 115.854 201.753C116.538 201.019 117.436 200.652 118.548 200.652C119.578 200.652 120.371 200.953 120.927 201.555C121.487 202.156 121.768 203.011 121.768 204.118V204.815ZM120.517 203.831C120.512 203.157 120.341 202.635 120.004 202.266C119.671 201.896 119.163 201.712 118.479 201.712C117.791 201.712 117.242 201.915 116.832 202.32C116.426 202.726 116.196 203.229 116.142 203.831H120.517ZM128.48 202.266H128.412C128.221 202.22 128.034 202.188 127.852 202.17C127.674 202.147 127.462 202.136 127.216 202.136C126.819 202.136 126.437 202.225 126.067 202.402C125.698 202.576 125.343 202.801 125.001 203.079V208.5H123.716V200.864H125.001V201.992C125.511 201.582 125.96 201.293 126.348 201.124C126.74 200.951 127.138 200.864 127.544 200.864C127.767 200.864 127.929 200.871 128.029 200.885C128.13 200.894 128.28 200.914 128.48 200.946V202.266ZM130.989 208.5H129.704V197.863H130.989V208.5ZM139.466 208.5H138.188V207.687C138.074 207.764 137.919 207.873 137.723 208.015C137.531 208.151 137.344 208.261 137.162 208.343C136.948 208.448 136.702 208.534 136.424 208.603C136.146 208.675 135.82 208.712 135.446 208.712C134.758 208.712 134.175 208.484 133.696 208.028C133.218 207.573 132.979 206.992 132.979 206.285C132.979 205.706 133.102 205.239 133.348 204.884C133.598 204.524 133.954 204.241 134.414 204.036C134.879 203.831 135.437 203.692 136.089 203.619C136.741 203.546 137.44 203.492 138.188 203.455V203.257C138.188 202.965 138.135 202.724 138.03 202.532C137.93 202.341 137.784 202.19 137.593 202.081C137.41 201.976 137.192 201.906 136.937 201.869C136.681 201.833 136.415 201.814 136.137 201.814C135.799 201.814 135.424 201.86 135.009 201.951C134.594 202.038 134.166 202.165 133.724 202.334H133.655V201.028C133.906 200.96 134.268 200.885 134.742 200.803C135.216 200.721 135.683 200.68 136.144 200.68C136.681 200.68 137.148 200.725 137.545 200.816C137.946 200.903 138.292 201.053 138.584 201.268C138.871 201.477 139.09 201.748 139.24 202.081C139.391 202.414 139.466 202.826 139.466 203.318V208.5ZM138.188 206.62V204.494C137.796 204.517 137.333 204.551 136.8 204.597C136.271 204.642 135.852 204.708 135.542 204.795C135.173 204.9 134.874 205.064 134.646 205.287C134.419 205.506 134.305 205.809 134.305 206.196C134.305 206.634 134.437 206.964 134.701 207.188C134.965 207.406 135.369 207.516 135.911 207.516C136.362 207.516 136.775 207.429 137.148 207.256C137.522 207.078 137.868 206.866 138.188 206.62ZM146.705 202.266H146.637C146.445 202.22 146.258 202.188 146.076 202.17C145.898 202.147 145.687 202.136 145.44 202.136C145.044 202.136 144.661 202.225 144.292 202.402C143.923 202.576 143.567 202.801 143.226 203.079V208.5H141.94V200.864H143.226V201.992C143.736 201.582 144.185 201.293 144.572 201.124C144.964 200.951 145.363 200.864 145.769 200.864C145.992 200.864 146.154 200.871 146.254 200.885C146.354 200.894 146.505 200.914 146.705 200.946V202.266ZM149.296 199.586H147.847V198.253H149.296V199.586ZM149.214 208.5H147.929V200.864H149.214V208.5Z" fill="#333333"/>
</svg>
