<svg width="70" height="70" viewBox="0 0 70 70" fill="none" xmlns="http://www.w3.org/2000/svg">
<path d="M23.3325 16.7705C22.1367 16.7705 21.145 15.7788 21.145 14.583V5.83301C21.145 4.63717 22.1367 3.64551 23.3325 3.64551C24.5284 3.64551 25.52 4.63717 25.52 5.83301V14.583C25.52 15.7788 24.5284 16.7705 23.3325 16.7705Z" fill="#1959AB"/>
<path d="M46.6675 16.7705C45.4716 16.7705 44.48 15.7788 44.48 14.583V5.83301C44.48 4.63717 45.4716 3.64551 46.6675 3.64551C47.8633 3.64551 48.855 4.63717 48.855 5.83301V14.583C48.855 15.7788 47.8633 16.7705 46.6675 16.7705Z" fill="#1959AB"/>
<path d="M24.7917 42.292C24.0333 42.292 23.275 41.9711 22.7208 41.4461C22.1958 40.8919 21.875 40.1628 21.875 39.3753C21.875 38.9961 21.9625 38.617 22.1083 38.267C22.2542 37.917 22.4583 37.5962 22.7208 37.3045C23.8 36.2253 25.7542 36.2253 26.8625 37.3045C27.3875 37.8587 27.7083 38.617 27.7083 39.3753C27.7083 39.5503 27.6792 39.7545 27.65 39.9587C27.6208 40.1337 27.5625 40.3086 27.475 40.4836C27.4167 40.6586 27.3292 40.8336 27.2125 41.0086C27.0958 41.1545 26.9792 41.3003 26.8625 41.4461C26.3083 41.9711 25.55 42.292 24.7917 42.292Z" fill="#1959AB"/>
<path d="M34.9992 42.2918C34.62 42.2918 34.2409 42.2043 33.8909 42.0585C33.5117 41.9126 33.22 41.7084 32.9284 41.4459C32.4034 40.8917 32.0825 40.1626 32.0825 39.3751C32.0825 38.9959 32.17 38.6167 32.3159 38.2667C32.4617 37.9167 32.6659 37.596 32.9284 37.3043C33.22 37.0418 33.5117 36.8376 33.8909 36.6917C34.97 36.2542 36.2534 36.4876 37.07 37.3043C37.595 37.8585 37.9159 38.6168 37.9159 39.3751C37.9159 39.5501 37.8867 39.7543 37.8575 39.9585C37.8284 40.1335 37.77 40.3084 37.6825 40.4834C37.6242 40.6584 37.5367 40.8334 37.42 41.0084C37.3325 41.1543 37.1867 41.3001 37.07 41.4459C36.5159 41.9709 35.7575 42.2918 34.9992 42.2918Z" fill="#1959AB"/>
<path d="M24.7917 52.4998C24.4125 52.4998 24.0333 52.4123 23.6833 52.2665C23.3042 52.1207 22.9833 51.9164 22.7208 51.6539C22.4583 51.3914 22.2542 51.0706 22.1083 50.6915C21.9625 50.3415 21.875 49.9623 21.875 49.5831C21.875 49.2039 21.9625 48.8248 22.1083 48.4748C22.2542 48.0956 22.4583 47.7748 22.7208 47.5123C22.9833 47.2498 23.3042 47.0456 23.6833 46.8997C24.3833 46.6081 25.2 46.5789 25.9 46.8997C26.2792 47.0456 26.6 47.2498 26.8625 47.5123C27.125 47.7748 27.3292 48.0956 27.475 48.4748C27.6208 48.8248 27.7083 49.2039 27.7083 49.5831C27.7083 49.9623 27.6208 50.3415 27.475 50.6915C27.3292 51.0706 27.125 51.3914 26.8625 51.6539C26.6 51.9164 26.2792 52.1207 25.9 52.2665C25.55 52.4123 25.1708 52.4998 24.7917 52.4998Z" fill="#1959AB"/>
<path d="M59.7909 28.7002H10.2075C9.01169 28.7002 8.02002 27.7085 8.02002 26.5127C8.02002 25.3169 9.01169 24.3252 10.2075 24.3252H59.7909C60.9867 24.3252 61.9784 25.3169 61.9784 26.5127C61.9784 27.7085 60.9867 28.7002 59.7909 28.7002Z" fill="#1959AB"/>
<path d="M52.4992 69.2708C49.0867 69.2708 45.8492 68.0458 43.37 65.8C42.32 64.925 41.3867 63.8167 40.6284 62.5333C39.345 60.4333 38.645 57.9542 38.645 55.4167C38.645 47.775 44.8575 41.5625 52.4992 41.5625C56.4659 41.5625 60.2575 43.2833 62.8825 46.2583C65.1283 48.825 66.3534 52.0625 66.3534 55.4167C66.3534 57.9542 65.6533 60.4334 64.3408 62.5625C61.8908 66.7042 57.3409 69.2708 52.4992 69.2708ZM52.4992 45.9375C47.2784 45.9375 43.02 50.1958 43.02 55.4167C43.02 57.1375 43.4867 58.8292 44.3909 60.2875C44.8867 61.1625 45.5283 61.8916 46.2283 62.5041C47.9783 64.0791 50.1659 64.8958 52.4992 64.8958C55.8534 64.8958 58.8867 63.175 60.6075 60.3166C61.5117 58.8291 61.9784 57.1667 61.9784 55.4167C61.9784 53.1417 61.1325 50.925 59.6159 49.1459C57.8075 47.1042 55.2117 45.9375 52.4992 45.9375Z" fill="#1959AB"/>
<path d="M50.8372 60.4912C50.2831 60.4912 49.7289 60.287 49.2914 59.8495L46.4039 56.962C45.5581 56.1162 45.5581 54.7162 46.4039 53.8704C47.2497 53.0245 48.6497 53.0245 49.4956 53.8704L50.8956 55.2704L55.5622 50.9537C56.4372 50.137 57.8372 50.1954 58.6539 51.0704C59.4706 51.9454 59.4122 53.3454 58.5372 54.1621L52.3247 59.9079C51.8872 60.2871 51.3622 60.4912 50.8372 60.4912Z" fill="#1959AB"/>
<path d="M44.8292 66.3538H23.3333C12.6875 66.3538 6.5625 60.2288 6.5625 49.583V24.7913C6.5625 14.1455 12.6875 8.02051 23.3333 8.02051H46.6667C57.3125 8.02051 63.4375 14.1455 63.4375 24.7913V47.7163C63.4375 48.6205 62.8833 49.4372 62.0083 49.758C61.1625 50.0788 60.2 49.8455 59.5875 49.1455C57.7792 47.1039 55.1833 45.9372 52.4708 45.9372C47.25 45.9372 42.9917 50.1955 42.9917 55.4163C42.9917 57.1372 43.4583 58.8289 44.3625 60.2872C44.8583 61.1622 45.5 61.8913 46.2 62.5038C46.9 63.0872 47.1625 64.0497 46.8417 64.9247C46.5792 65.7705 45.7625 66.3538 44.8292 66.3538ZM23.3333 12.3955C14.9917 12.3955 10.9375 16.4497 10.9375 24.7913V49.583C10.9375 57.9247 14.9917 61.9788 23.3333 61.9788H40.3083C39.2292 59.9955 38.6458 57.7497 38.6458 55.4163C38.6458 47.7747 44.8583 41.5622 52.5 41.5622C54.8042 41.5622 57.0792 42.1455 59.0625 43.2247V24.7913C59.0625 16.4497 55.0083 12.3955 46.6667 12.3955H23.3333Z" fill="#1959AB"/>
</svg>
