<svg width="240" height="252" viewBox="0 0 240 252" fill="none" xmlns="http://www.w3.org/2000/svg">
<path d="M12.373 20H1.85547V5.45898H12.373V8.27148H5.58594V10.7812H11.8848V13.5938H5.58594V17.1875H12.373V20ZM26.9727 20H22.8809L19.8047 15.2246L18.8477 16.3867V20H15.332V4.80469H18.8477V13.877L22.6367 9.0332H26.6895L22.7441 13.7598L26.9727 20ZM38.2812 16.5234C38.2812 17.6562 37.7734 18.571 36.7578 19.2676C35.7422 19.9577 34.3522 20.3027 32.5879 20.3027C31.6113 20.3027 30.7259 20.2116 29.9316 20.0293C29.1374 19.847 28.4993 19.6452 28.0176 19.4238V16.5332H28.3398C28.5156 16.6569 28.7174 16.7936 28.9453 16.9434C29.1797 17.0866 29.5085 17.2428 29.9316 17.4121C30.2962 17.5618 30.7096 17.6921 31.1719 17.8027C31.6341 17.9069 32.1289 17.959 32.6562 17.959C33.3464 17.959 33.8574 17.8841 34.1895 17.7344C34.5215 17.5781 34.6875 17.3503 34.6875 17.0508C34.6875 16.7839 34.5898 16.5918 34.3945 16.4746C34.1992 16.3509 33.8281 16.2337 33.2812 16.123C33.0208 16.0645 32.666 16.0026 32.2168 15.9375C31.7741 15.8659 31.3704 15.7812 31.0059 15.6836C30.0098 15.4232 29.2708 15.0195 28.7891 14.4727C28.3073 13.9193 28.0664 13.2324 28.0664 12.4121C28.0664 11.3574 28.5645 10.4818 29.5605 9.78516C30.5632 9.08203 31.9303 8.73047 33.6621 8.73047C34.4824 8.73047 35.2669 8.8151 36.0156 8.98438C36.7708 9.14714 37.36 9.32292 37.7832 9.51172V12.2852H37.4805C36.9596 11.9271 36.3639 11.6374 35.6934 11.416C35.0293 11.1882 34.3555 11.0742 33.6719 11.0742C33.1055 11.0742 32.627 11.1523 32.2363 11.3086C31.8522 11.4648 31.6602 11.6862 31.6602 11.9727C31.6602 12.2331 31.748 12.4316 31.9238 12.5684C32.0996 12.7051 32.513 12.8418 33.1641 12.9785C33.5221 13.0501 33.9062 13.1217 34.3164 13.1934C34.7331 13.2585 35.1497 13.3431 35.5664 13.4473C36.4909 13.6882 37.1745 14.069 37.6172 14.5898C38.0599 15.1042 38.2812 15.7487 38.2812 16.5234ZM52.0703 14.3652C52.0703 15.2702 51.9303 16.0938 51.6504 16.8359C51.377 17.5781 51.0156 18.1901 50.5664 18.6719C50.0977 19.1797 49.5671 19.5638 48.9746 19.8242C48.3822 20.0846 47.7474 20.2148 47.0703 20.2148C46.4453 20.2148 45.9147 20.1465 45.4785 20.0098C45.0423 19.8796 44.5964 19.694 44.1406 19.4531V24.0234H40.625V9.0332H44.1406V10.1758C44.681 9.74609 45.2311 9.39779 45.791 9.13086C46.3574 8.86393 47.0085 8.73047 47.7441 8.73047C49.1113 8.73047 50.1725 9.23177 50.9277 10.2344C51.6895 11.237 52.0703 12.6139 52.0703 14.3652ZM48.4473 14.4336C48.4473 13.3659 48.265 12.5911 47.9004 12.1094C47.5358 11.6276 46.9596 11.3867 46.1719 11.3867C45.8398 11.3867 45.498 11.4388 45.1465 11.543C44.7949 11.6406 44.4596 11.7839 44.1406 11.9727V17.4902C44.375 17.5814 44.6257 17.64 44.8926 17.666C45.1595 17.6921 45.4232 17.7051 45.6836 17.7051C46.6146 17.7051 47.3079 17.4349 47.7637 16.8945C48.2194 16.3477 48.4473 15.5273 48.4473 14.4336ZM65.8203 14.5215C65.8203 16.3249 65.293 17.7474 64.2383 18.7891C63.1901 19.8242 61.7155 20.3418 59.8145 20.3418C57.9134 20.3418 56.4355 19.8242 55.3809 18.7891C54.3327 17.7474 53.8086 16.3249 53.8086 14.5215C53.8086 12.7051 54.3359 11.2793 55.3906 10.2441C56.4518 9.20898 57.9264 8.69141 59.8145 8.69141C61.7285 8.69141 63.2064 9.21224 64.248 10.2539C65.2962 11.2956 65.8203 12.7181 65.8203 14.5215ZM61.4941 17.1875C61.722 16.9076 61.8913 16.5723 62.002 16.1816C62.1191 15.7845 62.1777 15.2376 62.1777 14.541C62.1777 13.8965 62.1191 13.3561 62.002 12.9199C61.8848 12.4837 61.722 12.1354 61.5137 11.875C61.3053 11.6081 61.0547 11.4193 60.7617 11.3086C60.4688 11.1979 60.153 11.1426 59.8145 11.1426C59.4759 11.1426 59.1732 11.1882 58.9062 11.2793C58.6458 11.3704 58.3952 11.5527 58.1543 11.8262C57.9395 12.0801 57.7669 12.4284 57.6367 12.8711C57.513 13.3138 57.4512 13.8704 57.4512 14.541C57.4512 15.14 57.5065 15.6608 57.6172 16.1035C57.7279 16.5397 57.8906 16.8913 58.1055 17.1582C58.3138 17.4121 58.5612 17.5977 58.8477 17.7148C59.1406 17.832 59.4727 17.8906 59.8438 17.8906C60.1628 17.8906 60.4655 17.8385 60.752 17.7344C61.0449 17.6237 61.2923 17.4414 61.4941 17.1875ZM76.2891 12.3828H75.9766C75.8268 12.3307 75.5859 12.2917 75.2539 12.2656C74.9219 12.2396 74.6452 12.2266 74.4238 12.2266C73.9225 12.2266 73.4798 12.2591 73.0957 12.3242C72.7116 12.3893 72.2982 12.5 71.8555 12.6562V20H68.3398V9.0332H71.8555V10.6445C72.6302 9.98047 73.304 9.54102 73.877 9.32617C74.4499 9.10482 74.9772 8.99414 75.459 8.99414C75.5827 8.99414 75.7227 8.9974 75.8789 9.00391C76.0352 9.01042 76.1719 9.02018 76.2891 9.0332V12.3828ZM85.293 19.9023C84.9154 20 84.515 20.0749 84.0918 20.127C83.6686 20.1855 83.151 20.2148 82.5391 20.2148C81.1719 20.2148 80.153 19.9382 79.4824 19.3848C78.8184 18.8314 78.4863 17.8841 78.4863 16.543V11.416H77.041V9.0332H78.4863V5.89844H82.002V9.0332H85.293V11.416H82.002V15.3027C82.002 15.6868 82.0052 16.0221 82.0117 16.3086C82.0182 16.5951 82.0703 16.8522 82.168 17.0801C82.2591 17.3079 82.4186 17.4902 82.6465 17.627C82.8809 17.7572 83.2194 17.8223 83.6621 17.8223C83.8444 17.8223 84.082 17.7832 84.375 17.7051C84.6745 17.627 84.8828 17.5553 85 17.4902H85.293V19.9023Z" fill="#333333"/>
<path d="M5 47L12.5 54.5L25 39.5" stroke="#61B857" stroke-width="2" stroke-linecap="round" stroke-linejoin="round"/>
<path d="M46.0732 52.5H39.3672V42.3213H46.0732V43.5244H40.7207V46.3135H46.0732V47.5166H40.7207V51.2969H46.0732V52.5ZM55.0557 52.5H53.3604L50.2979 49.1572L49.4639 49.9502V52.5H48.1787V41.8633H49.4639V48.6855L53.1758 44.8643H54.7959L51.248 48.3916L55.0557 52.5ZM61.8643 50.2988C61.8643 50.9961 61.5749 51.568 60.9961 52.0146C60.4219 52.4613 59.6357 52.6846 58.6377 52.6846C58.0726 52.6846 57.5531 52.6185 57.0791 52.4863C56.6097 52.3496 56.2155 52.2015 55.8965 52.042V50.5996H55.9648C56.3704 50.9049 56.8216 51.1488 57.3184 51.3311C57.8151 51.5088 58.2913 51.5977 58.7471 51.5977C59.3122 51.5977 59.7542 51.5065 60.0732 51.3242C60.3923 51.1419 60.5518 50.8548 60.5518 50.4629C60.5518 50.1621 60.4652 49.9342 60.292 49.7793C60.1188 49.6243 59.7861 49.4922 59.2939 49.3828C59.1117 49.3418 58.8724 49.2939 58.5762 49.2393C58.2845 49.1846 58.0179 49.1253 57.7764 49.0615C57.1064 48.8838 56.6302 48.624 56.3477 48.2822C56.0697 47.9359 55.9307 47.512 55.9307 47.0107C55.9307 46.6963 55.9945 46.4001 56.1221 46.1221C56.2542 45.8441 56.4525 45.5957 56.7168 45.377C56.972 45.1628 57.2956 44.9941 57.6875 44.8711C58.084 44.7435 58.526 44.6797 59.0137 44.6797C59.4694 44.6797 59.9297 44.7367 60.3945 44.8506C60.8639 44.96 61.2536 45.0944 61.5635 45.2539V46.6279H61.4951C61.167 46.3864 60.7682 46.1836 60.2988 46.0195C59.8294 45.8509 59.3691 45.7666 58.918 45.7666C58.4486 45.7666 58.0521 45.8577 57.7285 46.04C57.4049 46.2178 57.2432 46.4844 57.2432 46.8398C57.2432 47.1543 57.3411 47.3913 57.5371 47.5508C57.7285 47.7103 58.0384 47.8402 58.4668 47.9404C58.7038 47.9951 58.9681 48.0498 59.2598 48.1045C59.556 48.1592 59.8021 48.2093 59.998 48.2549C60.5951 48.3916 61.0553 48.6263 61.3789 48.959C61.7025 49.2962 61.8643 49.7428 61.8643 50.2988ZM70.4297 48.5898C70.4297 49.2096 70.3408 49.777 70.1631 50.292C69.9854 50.8024 69.7347 51.2354 69.4111 51.5908C69.1104 51.9281 68.7549 52.1901 68.3447 52.377C67.9391 52.5592 67.5085 52.6504 67.0527 52.6504C66.6562 52.6504 66.2962 52.6071 65.9727 52.5205C65.6536 52.4339 65.3278 52.2995 64.9951 52.1172V55.3164H63.71V44.8643H64.9951V45.6641C65.3369 45.377 65.7197 45.1377 66.1436 44.9463C66.5719 44.7503 67.0277 44.6523 67.5107 44.6523C68.4313 44.6523 69.1468 45.001 69.6572 45.6982C70.1722 46.391 70.4297 47.3548 70.4297 48.5898ZM69.1035 48.624C69.1035 47.7035 68.9463 47.0153 68.6318 46.5596C68.3174 46.1038 67.8343 45.876 67.1826 45.876C66.8135 45.876 66.4421 45.9557 66.0684 46.1152C65.6947 46.2747 65.3369 46.4844 64.9951 46.7441V51.0713C65.3597 51.2354 65.6719 51.347 65.9316 51.4062C66.196 51.4655 66.4945 51.4951 66.8271 51.4951C67.5426 51.4951 68.1009 51.2536 68.502 50.7705C68.903 50.2874 69.1035 49.5719 69.1035 48.624ZM78.9404 48.6855C78.9404 49.9297 78.6214 50.9118 77.9834 51.6318C77.3454 52.3519 76.4909 52.7119 75.4199 52.7119C74.3398 52.7119 73.4808 52.3519 72.8428 51.6318C72.2093 50.9118 71.8926 49.9297 71.8926 48.6855C71.8926 47.4414 72.2093 46.4593 72.8428 45.7393C73.4808 45.0146 74.3398 44.6523 75.4199 44.6523C76.4909 44.6523 77.3454 45.0146 77.9834 45.7393C78.6214 46.4593 78.9404 47.4414 78.9404 48.6855ZM77.6143 48.6855C77.6143 47.6966 77.4206 46.9629 77.0332 46.4844C76.6458 46.0013 76.1081 45.7598 75.4199 45.7598C74.7227 45.7598 74.1803 46.0013 73.793 46.4844C73.4102 46.9629 73.2188 47.6966 73.2188 48.6855C73.2188 49.6426 73.4124 50.3695 73.7998 50.8662C74.1872 51.3584 74.7272 51.6045 75.4199 51.6045C76.1035 51.6045 76.639 51.3607 77.0264 50.873C77.4183 50.3809 77.6143 49.6517 77.6143 48.6855ZM85.7012 46.2656H85.6328C85.4414 46.2201 85.2546 46.1882 85.0723 46.1699C84.8945 46.1471 84.6826 46.1357 84.4365 46.1357C84.04 46.1357 83.6572 46.2246 83.2881 46.4023C82.9189 46.5755 82.5635 46.8011 82.2217 47.0791V52.5H80.9365V44.8643H82.2217V45.9922C82.7321 45.582 83.181 45.2926 83.5684 45.124C83.9603 44.9508 84.359 44.8643 84.7646 44.8643C84.988 44.8643 85.1497 44.8711 85.25 44.8848C85.3503 44.8939 85.5007 44.9144 85.7012 44.9463V46.2656ZM90.876 52.4316C90.6344 52.4954 90.3701 52.5479 90.083 52.5889C89.8005 52.6299 89.5475 52.6504 89.3242 52.6504C88.5449 52.6504 87.9525 52.4408 87.5469 52.0215C87.1413 51.6022 86.9385 50.93 86.9385 50.0049V45.9443H86.0703V44.8643H86.9385V42.6699H88.2236V44.8643H90.876V45.9443H88.2236V49.4238C88.2236 49.8249 88.2327 50.1393 88.251 50.3672C88.2692 50.5905 88.333 50.8001 88.4424 50.9961C88.5426 51.1784 88.6794 51.3128 88.8525 51.3994C89.0303 51.4814 89.2992 51.5225 89.6592 51.5225C89.8688 51.5225 90.0876 51.4928 90.3154 51.4336C90.5433 51.3698 90.7074 51.3174 90.8076 51.2764H90.876V52.4316ZM104.076 48.624C104.076 49.262 103.985 49.8363 103.803 50.3467C103.625 50.8571 103.383 51.2855 103.078 51.6318C102.755 51.9919 102.399 52.263 102.012 52.4453C101.624 52.623 101.198 52.7119 100.733 52.7119C100.3 52.7119 99.9222 52.6595 99.5986 52.5547C99.2751 52.4544 98.9561 52.3177 98.6416 52.1445L98.5596 52.5H97.3564V41.8633H98.6416V45.6641C99.0016 45.3678 99.3844 45.1263 99.79 44.9395C100.196 44.748 100.651 44.6523 101.157 44.6523C102.06 44.6523 102.771 44.9987 103.29 45.6914C103.814 46.3841 104.076 47.3617 104.076 48.624ZM102.75 48.6582C102.75 47.7467 102.6 47.0563 102.299 46.5869C101.998 46.113 101.513 45.876 100.843 45.876C100.469 45.876 100.091 45.958 99.708 46.1221C99.3252 46.2816 98.9697 46.4889 98.6416 46.7441V51.1191C99.0062 51.2832 99.3184 51.3971 99.5781 51.4609C99.8424 51.5247 100.141 51.5566 100.474 51.5566C101.185 51.5566 101.741 51.3242 102.142 50.8594C102.547 50.39 102.75 49.6562 102.75 48.6582ZM112.587 48.6855C112.587 49.9297 112.268 50.9118 111.63 51.6318C110.992 52.3519 110.137 52.7119 109.066 52.7119C107.986 52.7119 107.127 52.3519 106.489 51.6318C105.856 50.9118 105.539 49.9297 105.539 48.6855C105.539 47.4414 105.856 46.4593 106.489 45.7393C107.127 45.0146 107.986 44.6523 109.066 44.6523C110.137 44.6523 110.992 45.0146 111.63 45.7393C112.268 46.4593 112.587 47.4414 112.587 48.6855ZM111.261 48.6855C111.261 47.6966 111.067 46.9629 110.68 46.4844C110.292 46.0013 109.755 45.7598 109.066 45.7598C108.369 45.7598 107.827 46.0013 107.439 46.4844C107.057 46.9629 106.865 47.6966 106.865 48.6855C106.865 49.6426 107.059 50.3695 107.446 50.8662C107.834 51.3584 108.374 51.6045 109.066 51.6045C109.75 51.6045 110.285 51.3607 110.673 50.873C111.065 50.3809 111.261 49.6517 111.261 48.6855ZM115.957 41.8633L115.663 45.8213H114.733L114.439 41.8633H115.957ZM124.946 44.8643L120.489 55.3164H119.115L120.537 52.1309L117.495 44.8643H118.89L121.234 50.5244L123.6 44.8643H124.946ZM128.009 43.5859H126.56V42.2529H128.009V43.5859ZM127.927 52.5H126.642V44.8643H127.927V52.5ZM136.116 52.0215C135.688 52.2266 135.28 52.3861 134.893 52.5C134.51 52.6139 134.102 52.6709 133.669 52.6709C133.118 52.6709 132.612 52.5911 132.151 52.4316C131.691 52.2676 131.297 52.0215 130.969 51.6934C130.636 51.3652 130.379 50.9505 130.196 50.4492C130.014 49.9479 129.923 49.3623 129.923 48.6924C129.923 47.4437 130.265 46.4639 130.948 45.7529C131.636 45.042 132.543 44.6865 133.669 44.6865C134.106 44.6865 134.535 44.748 134.954 44.8711C135.378 44.9941 135.765 45.1445 136.116 45.3223V46.751H136.048C135.656 46.4456 135.25 46.2109 134.831 46.0469C134.416 45.8828 134.011 45.8008 133.614 45.8008C132.885 45.8008 132.309 46.0469 131.885 46.5391C131.465 47.0267 131.256 47.7445 131.256 48.6924C131.256 49.613 131.461 50.3216 131.871 50.8184C132.286 51.3105 132.867 51.5566 133.614 51.5566C133.874 51.5566 134.138 51.5225 134.407 51.4541C134.676 51.3857 134.918 51.2969 135.132 51.1875C135.319 51.0918 135.494 50.9915 135.658 50.8867C135.822 50.7773 135.952 50.6839 136.048 50.6064H136.116V52.0215ZM144.155 52.5H142.87V48.1523C142.87 47.8014 142.85 47.4733 142.809 47.168C142.768 46.8581 142.692 46.6165 142.583 46.4434C142.469 46.252 142.305 46.1107 142.091 46.0195C141.877 45.9238 141.599 45.876 141.257 45.876C140.906 45.876 140.539 45.9626 140.156 46.1357C139.773 46.3089 139.407 46.5299 139.056 46.7988V52.5H137.771V41.8633H139.056V45.7119C139.457 45.3792 139.871 45.1195 140.3 44.9326C140.728 44.7458 141.168 44.6523 141.619 44.6523C142.444 44.6523 143.073 44.9007 143.506 45.3975C143.939 45.8942 144.155 46.6097 144.155 47.5439V52.5ZM152.563 52.5H151.285V51.6865C151.171 51.764 151.016 51.8734 150.82 52.0146C150.629 52.1514 150.442 52.2607 150.26 52.3428C150.046 52.4476 149.799 52.5342 149.521 52.6025C149.243 52.6755 148.918 52.7119 148.544 52.7119C147.856 52.7119 147.272 52.484 146.794 52.0283C146.315 51.5726 146.076 50.9915 146.076 50.2852C146.076 49.7064 146.199 49.2393 146.445 48.8838C146.696 48.5238 147.051 48.2412 147.512 48.0361C147.977 47.8311 148.535 47.6921 149.187 47.6191C149.838 47.5462 150.538 47.4915 151.285 47.4551V47.2568C151.285 46.9652 151.233 46.7236 151.128 46.5322C151.028 46.3408 150.882 46.1904 150.69 46.0811C150.508 45.9762 150.289 45.9056 150.034 45.8691C149.779 45.8327 149.512 45.8145 149.234 45.8145C148.897 45.8145 148.521 45.86 148.106 45.9512C147.692 46.0378 147.263 46.1654 146.821 46.334H146.753V45.0283C147.004 44.96 147.366 44.8848 147.84 44.8027C148.314 44.7207 148.781 44.6797 149.241 44.6797C149.779 44.6797 150.246 44.7253 150.643 44.8164C151.044 44.903 151.39 45.0534 151.682 45.2676C151.969 45.4772 152.188 45.7484 152.338 46.0811C152.488 46.4137 152.563 46.8262 152.563 47.3184V52.5ZM151.285 50.6201V48.4941C150.893 48.5169 150.431 48.5511 149.897 48.5967C149.369 48.6423 148.95 48.7083 148.64 48.7949C148.271 48.8997 147.972 49.0638 147.744 49.2871C147.516 49.5059 147.402 49.8089 147.402 50.1963C147.402 50.6338 147.535 50.9642 147.799 51.1875C148.063 51.4062 148.466 51.5156 149.009 51.5156C149.46 51.5156 149.872 51.429 150.246 51.2559C150.62 51.0781 150.966 50.8662 151.285 50.6201ZM171.103 52.5H169.817V48.1523C169.817 47.8242 169.801 47.5075 169.77 47.2021C169.742 46.8968 169.681 46.653 169.585 46.4707C169.48 46.2747 169.33 46.1266 169.134 46.0264C168.938 45.9261 168.655 45.876 168.286 45.876C167.926 45.876 167.566 45.9671 167.206 46.1494C166.846 46.3271 166.486 46.555 166.126 46.833C166.14 46.9378 166.151 47.0609 166.16 47.2021C166.169 47.3389 166.174 47.4756 166.174 47.6123V52.5H164.889V48.1523C164.889 47.8151 164.873 47.4961 164.841 47.1953C164.813 46.89 164.752 46.6462 164.656 46.4639C164.551 46.2679 164.401 46.1221 164.205 46.0264C164.009 45.9261 163.727 45.876 163.357 45.876C163.007 45.876 162.653 45.9626 162.298 46.1357C161.947 46.3089 161.596 46.5299 161.245 46.7988V52.5H159.96V44.8643H161.245V45.7119C161.646 45.3792 162.045 45.1195 162.441 44.9326C162.842 44.7458 163.269 44.6523 163.72 44.6523C164.239 44.6523 164.679 44.7617 165.039 44.9805C165.404 45.1992 165.675 45.5023 165.853 45.8896C166.372 45.4521 166.846 45.1377 167.274 44.9463C167.703 44.7503 168.161 44.6523 168.648 44.6523C169.487 44.6523 170.104 44.9076 170.501 45.418C170.902 45.9238 171.103 46.6325 171.103 47.5439V52.5ZM179.511 52.5H178.232V51.6865C178.118 51.764 177.964 51.8734 177.768 52.0146C177.576 52.1514 177.389 52.2607 177.207 52.3428C176.993 52.4476 176.747 52.5342 176.469 52.6025C176.191 52.6755 175.865 52.7119 175.491 52.7119C174.803 52.7119 174.22 52.484 173.741 52.0283C173.263 51.5726 173.023 50.9915 173.023 50.2852C173.023 49.7064 173.146 49.2393 173.393 48.8838C173.643 48.5238 173.999 48.2412 174.459 48.0361C174.924 47.8311 175.482 47.6921 176.134 47.6191C176.785 47.5462 177.485 47.4915 178.232 47.4551V47.2568C178.232 46.9652 178.18 46.7236 178.075 46.5322C177.975 46.3408 177.829 46.1904 177.638 46.0811C177.455 45.9762 177.237 45.9056 176.981 45.8691C176.726 45.8327 176.46 45.8145 176.182 45.8145C175.844 45.8145 175.468 45.86 175.054 45.9512C174.639 46.0378 174.211 46.1654 173.769 46.334H173.7V45.0283C173.951 44.96 174.313 44.8848 174.787 44.8027C175.261 44.7207 175.728 44.6797 176.188 44.6797C176.726 44.6797 177.193 44.7253 177.59 44.8164C177.991 44.903 178.337 45.0534 178.629 45.2676C178.916 45.4772 179.135 45.7484 179.285 46.0811C179.436 46.4137 179.511 46.8262 179.511 47.3184V52.5ZM178.232 50.6201V48.4941C177.84 48.5169 177.378 48.5511 176.845 48.5967C176.316 48.6423 175.897 48.7083 175.587 48.7949C175.218 48.8997 174.919 49.0638 174.691 49.2871C174.464 49.5059 174.35 49.8089 174.35 50.1963C174.35 50.6338 174.482 50.9642 174.746 51.1875C175.01 51.4062 175.414 51.5156 175.956 51.5156C176.407 51.5156 176.82 51.429 177.193 51.2559C177.567 51.0781 177.913 50.8662 178.232 50.6201ZM187.44 50.2988C187.44 50.9961 187.151 51.568 186.572 52.0146C185.998 52.4613 185.212 52.6846 184.214 52.6846C183.649 52.6846 183.129 52.6185 182.655 52.4863C182.186 52.3496 181.792 52.2015 181.473 52.042V50.5996H181.541C181.947 50.9049 182.398 51.1488 182.895 51.3311C183.391 51.5088 183.868 51.5977 184.323 51.5977C184.888 51.5977 185.33 51.5065 185.649 51.3242C185.968 51.1419 186.128 50.8548 186.128 50.4629C186.128 50.1621 186.041 49.9342 185.868 49.7793C185.695 49.6243 185.362 49.4922 184.87 49.3828C184.688 49.3418 184.449 49.2939 184.152 49.2393C183.861 49.1846 183.594 49.1253 183.353 49.0615C182.683 48.8838 182.206 48.624 181.924 48.2822C181.646 47.9359 181.507 47.512 181.507 47.0107C181.507 46.6963 181.571 46.4001 181.698 46.1221C181.83 45.8441 182.029 45.5957 182.293 45.377C182.548 45.1628 182.872 44.9941 183.264 44.8711C183.66 44.7435 184.102 44.6797 184.59 44.6797C185.046 44.6797 185.506 44.7367 185.971 44.8506C186.44 44.96 186.83 45.0944 187.14 45.2539V46.6279H187.071C186.743 46.3864 186.344 46.1836 185.875 46.0195C185.406 45.8509 184.945 45.7666 184.494 45.7666C184.025 45.7666 183.628 45.8577 183.305 46.04C182.981 46.2178 182.819 46.4844 182.819 46.8398C182.819 47.1543 182.917 47.3913 183.113 47.5508C183.305 47.7103 183.615 47.8402 184.043 47.9404C184.28 47.9951 184.544 48.0498 184.836 48.1045C185.132 48.1592 185.378 48.2093 185.574 48.2549C186.171 48.3916 186.632 48.6263 186.955 48.959C187.279 49.2962 187.44 49.7428 187.44 50.2988ZM190.585 52.5H189.3V41.8633H190.585V52.5ZM199.062 52.5H197.783V51.6865C197.669 51.764 197.514 51.8734 197.318 52.0146C197.127 52.1514 196.94 52.2607 196.758 52.3428C196.544 52.4476 196.298 52.5342 196.02 52.6025C195.742 52.6755 195.416 52.7119 195.042 52.7119C194.354 52.7119 193.771 52.484 193.292 52.0283C192.813 51.5726 192.574 50.9915 192.574 50.2852C192.574 49.7064 192.697 49.2393 192.943 48.8838C193.194 48.5238 193.549 48.2412 194.01 48.0361C194.475 47.8311 195.033 47.6921 195.685 47.6191C196.336 47.5462 197.036 47.4915 197.783 47.4551V47.2568C197.783 46.9652 197.731 46.7236 197.626 46.5322C197.526 46.3408 197.38 46.1904 197.188 46.0811C197.006 45.9762 196.787 45.9056 196.532 45.8691C196.277 45.8327 196.01 45.8145 195.732 45.8145C195.395 45.8145 195.019 45.86 194.604 45.9512C194.19 46.0378 193.761 46.1654 193.319 46.334H193.251V45.0283C193.502 44.96 193.864 44.8848 194.338 44.8027C194.812 44.7207 195.279 44.6797 195.739 44.6797C196.277 44.6797 196.744 44.7253 197.141 44.8164C197.542 44.903 197.888 45.0534 198.18 45.2676C198.467 45.4772 198.686 45.7484 198.836 46.0811C198.986 46.4137 199.062 46.8262 199.062 47.3184V52.5ZM197.783 50.6201V48.4941C197.391 48.5169 196.929 48.5511 196.396 48.5967C195.867 48.6423 195.448 48.7083 195.138 48.7949C194.769 48.8997 194.47 49.0638 194.242 49.2871C194.014 49.5059 193.9 49.8089 193.9 50.1963C193.9 50.6338 194.033 50.9642 194.297 51.1875C194.561 51.4062 194.965 51.5156 195.507 51.5156C195.958 51.5156 196.37 51.429 196.744 51.2559C197.118 51.0781 197.464 50.8662 197.783 50.6201ZM207.921 52.5H206.636V48.1523C206.636 47.8014 206.615 47.4733 206.574 47.168C206.533 46.8581 206.458 46.6165 206.349 46.4434C206.235 46.252 206.071 46.1107 205.856 46.0195C205.642 45.9238 205.364 45.876 205.022 45.876C204.672 45.876 204.305 45.9626 203.922 46.1357C203.539 46.3089 203.172 46.5299 202.821 46.7988V52.5H201.536V41.8633H202.821V45.7119C203.222 45.3792 203.637 45.1195 204.065 44.9326C204.494 44.7458 204.934 44.6523 205.385 44.6523C206.21 44.6523 206.839 44.9007 207.271 45.3975C207.704 45.8942 207.921 46.6097 207.921 47.5439V52.5ZM216.329 52.5H215.051V51.6865C214.937 51.764 214.782 51.8734 214.586 52.0146C214.395 52.1514 214.208 52.2607 214.025 52.3428C213.811 52.4476 213.565 52.5342 213.287 52.6025C213.009 52.6755 212.683 52.7119 212.31 52.7119C211.621 52.7119 211.038 52.484 210.56 52.0283C210.081 51.5726 209.842 50.9915 209.842 50.2852C209.842 49.7064 209.965 49.2393 210.211 48.8838C210.462 48.5238 210.817 48.2412 211.277 48.0361C211.742 47.8311 212.3 47.6921 212.952 47.6191C213.604 47.5462 214.303 47.4915 215.051 47.4551V47.2568C215.051 46.9652 214.998 46.7236 214.894 46.5322C214.793 46.3408 214.647 46.1904 214.456 46.0811C214.274 45.9762 214.055 45.9056 213.8 45.8691C213.545 45.8327 213.278 45.8145 213 45.8145C212.663 45.8145 212.287 45.86 211.872 45.9512C211.457 46.0378 211.029 46.1654 210.587 46.334H210.519V45.0283C210.769 44.96 211.132 44.8848 211.605 44.8027C212.079 44.7207 212.547 44.6797 213.007 44.6797C213.545 44.6797 214.012 44.7253 214.408 44.8164C214.809 44.903 215.156 45.0534 215.447 45.2676C215.734 45.4772 215.953 45.7484 216.104 46.0811C216.254 46.4137 216.329 46.8262 216.329 47.3184V52.5ZM215.051 50.6201V48.4941C214.659 48.5169 214.196 48.5511 213.663 48.5967C213.134 48.6423 212.715 48.7083 212.405 48.7949C212.036 48.8997 211.738 49.0638 211.51 49.2871C211.282 49.5059 211.168 49.8089 211.168 50.1963C211.168 50.6338 211.3 50.9642 211.564 51.1875C211.829 51.4062 212.232 51.5156 212.774 51.5156C213.226 51.5156 213.638 51.429 214.012 51.2559C214.385 51.0781 214.732 50.8662 215.051 50.6201ZM222.769 52.4316C222.527 52.4954 222.263 52.5479 221.976 52.5889C221.693 52.6299 221.44 52.6504 221.217 52.6504C220.438 52.6504 219.845 52.4408 219.439 52.0215C219.034 51.6022 218.831 50.93 218.831 50.0049V45.9443H217.963V44.8643H218.831V42.6699H220.116V44.8643H222.769V45.9443H220.116V49.4238C220.116 49.8249 220.125 50.1393 220.144 50.3672C220.162 50.5905 220.226 50.8001 220.335 50.9961C220.435 51.1784 220.572 51.3128 220.745 51.3994C220.923 51.4814 221.192 51.5225 221.552 51.5225C221.761 51.5225 221.98 51.4928 222.208 51.4336C222.436 51.3698 222.6 51.3174 222.7 51.2764H222.769V52.4316Z" fill="#333333"/>
<path d="M5 85L12.5 92.5L25 77.5" stroke="#61B857" stroke-width="2" stroke-linecap="round" stroke-linejoin="round"/>
<path d="M46.0732 90.5H39.3672V80.3213H46.0732V81.5244H40.7207V84.3135H46.0732V85.5166H40.7207V89.2969H46.0732V90.5ZM55.0557 90.5H53.3604L50.2979 87.1572L49.4639 87.9502V90.5H48.1787V79.8633H49.4639V86.6855L53.1758 82.8643H54.7959L51.248 86.3916L55.0557 90.5ZM61.8643 88.2988C61.8643 88.9961 61.5749 89.568 60.9961 90.0146C60.4219 90.4613 59.6357 90.6846 58.6377 90.6846C58.0726 90.6846 57.5531 90.6185 57.0791 90.4863C56.6097 90.3496 56.2155 90.2015 55.8965 90.042V88.5996H55.9648C56.3704 88.9049 56.8216 89.1488 57.3184 89.3311C57.8151 89.5088 58.2913 89.5977 58.7471 89.5977C59.3122 89.5977 59.7542 89.5065 60.0732 89.3242C60.3923 89.1419 60.5518 88.8548 60.5518 88.4629C60.5518 88.1621 60.4652 87.9342 60.292 87.7793C60.1188 87.6243 59.7861 87.4922 59.2939 87.3828C59.1117 87.3418 58.8724 87.2939 58.5762 87.2393C58.2845 87.1846 58.0179 87.1253 57.7764 87.0615C57.1064 86.8838 56.6302 86.624 56.3477 86.2822C56.0697 85.9359 55.9307 85.512 55.9307 85.0107C55.9307 84.6963 55.9945 84.4001 56.1221 84.1221C56.2542 83.8441 56.4525 83.5957 56.7168 83.377C56.972 83.1628 57.2956 82.9941 57.6875 82.8711C58.084 82.7435 58.526 82.6797 59.0137 82.6797C59.4694 82.6797 59.9297 82.7367 60.3945 82.8506C60.8639 82.96 61.2536 83.0944 61.5635 83.2539V84.6279H61.4951C61.167 84.3864 60.7682 84.1836 60.2988 84.0195C59.8294 83.8509 59.3691 83.7666 58.918 83.7666C58.4486 83.7666 58.0521 83.8577 57.7285 84.04C57.4049 84.2178 57.2432 84.4844 57.2432 84.8398C57.2432 85.1543 57.3411 85.3913 57.5371 85.5508C57.7285 85.7103 58.0384 85.8402 58.4668 85.9404C58.7038 85.9951 58.9681 86.0498 59.2598 86.1045C59.556 86.1592 59.8021 86.2093 59.998 86.2549C60.5951 86.3916 61.0553 86.6263 61.3789 86.959C61.7025 87.2962 61.8643 87.7428 61.8643 88.2988ZM70.4297 86.5898C70.4297 87.2096 70.3408 87.777 70.1631 88.292C69.9854 88.8024 69.7347 89.2354 69.4111 89.5908C69.1104 89.9281 68.7549 90.1901 68.3447 90.377C67.9391 90.5592 67.5085 90.6504 67.0527 90.6504C66.6562 90.6504 66.2962 90.6071 65.9727 90.5205C65.6536 90.4339 65.3278 90.2995 64.9951 90.1172V93.3164H63.71V82.8643H64.9951V83.6641C65.3369 83.377 65.7197 83.1377 66.1436 82.9463C66.5719 82.7503 67.0277 82.6523 67.5107 82.6523C68.4313 82.6523 69.1468 83.001 69.6572 83.6982C70.1722 84.391 70.4297 85.3548 70.4297 86.5898ZM69.1035 86.624C69.1035 85.7035 68.9463 85.0153 68.6318 84.5596C68.3174 84.1038 67.8343 83.876 67.1826 83.876C66.8135 83.876 66.4421 83.9557 66.0684 84.1152C65.6947 84.2747 65.3369 84.4844 64.9951 84.7441V89.0713C65.3597 89.2354 65.6719 89.347 65.9316 89.4062C66.196 89.4655 66.4945 89.4951 66.8271 89.4951C67.5426 89.4951 68.1009 89.2536 68.502 88.7705C68.903 88.2874 69.1035 87.5719 69.1035 86.624ZM78.9404 86.6855C78.9404 87.9297 78.6214 88.9118 77.9834 89.6318C77.3454 90.3519 76.4909 90.7119 75.4199 90.7119C74.3398 90.7119 73.4808 90.3519 72.8428 89.6318C72.2093 88.9118 71.8926 87.9297 71.8926 86.6855C71.8926 85.4414 72.2093 84.4593 72.8428 83.7393C73.4808 83.0146 74.3398 82.6523 75.4199 82.6523C76.4909 82.6523 77.3454 83.0146 77.9834 83.7393C78.6214 84.4593 78.9404 85.4414 78.9404 86.6855ZM77.6143 86.6855C77.6143 85.6966 77.4206 84.9629 77.0332 84.4844C76.6458 84.0013 76.1081 83.7598 75.4199 83.7598C74.7227 83.7598 74.1803 84.0013 73.793 84.4844C73.4102 84.9629 73.2188 85.6966 73.2188 86.6855C73.2188 87.6426 73.4124 88.3695 73.7998 88.8662C74.1872 89.3584 74.7272 89.6045 75.4199 89.6045C76.1035 89.6045 76.639 89.3607 77.0264 88.873C77.4183 88.3809 77.6143 87.6517 77.6143 86.6855ZM85.7012 84.2656H85.6328C85.4414 84.2201 85.2546 84.1882 85.0723 84.1699C84.8945 84.1471 84.6826 84.1357 84.4365 84.1357C84.04 84.1357 83.6572 84.2246 83.2881 84.4023C82.9189 84.5755 82.5635 84.8011 82.2217 85.0791V90.5H80.9365V82.8643H82.2217V83.9922C82.7321 83.582 83.181 83.2926 83.5684 83.124C83.9603 82.9508 84.359 82.8643 84.7646 82.8643C84.988 82.8643 85.1497 82.8711 85.25 82.8848C85.3503 82.8939 85.5007 82.9144 85.7012 82.9463V84.2656ZM90.876 90.4316C90.6344 90.4954 90.3701 90.5479 90.083 90.5889C89.8005 90.6299 89.5475 90.6504 89.3242 90.6504C88.5449 90.6504 87.9525 90.4408 87.5469 90.0215C87.1413 89.6022 86.9385 88.93 86.9385 88.0049V83.9443H86.0703V82.8643H86.9385V80.6699H88.2236V82.8643H90.876V83.9443H88.2236V87.4238C88.2236 87.8249 88.2327 88.1393 88.251 88.3672C88.2692 88.5905 88.333 88.8001 88.4424 88.9961C88.5426 89.1784 88.6794 89.3128 88.8525 89.3994C89.0303 89.4814 89.2992 89.5225 89.6592 89.5225C89.8688 89.5225 90.0876 89.4928 90.3154 89.4336C90.5433 89.3698 90.7074 89.3174 90.8076 89.2764H90.876V90.4316ZM98.6279 89.6318C98.6279 90.9261 98.334 91.8763 97.7461 92.4824C97.1582 93.0885 96.2536 93.3916 95.0322 93.3916C94.6266 93.3916 94.2301 93.362 93.8428 93.3027C93.46 93.248 93.0817 93.1683 92.708 93.0635V91.751H92.7764C92.986 91.833 93.3187 91.9333 93.7744 92.0518C94.2301 92.1748 94.6859 92.2363 95.1416 92.2363C95.5791 92.2363 95.9414 92.1839 96.2285 92.0791C96.5156 91.9743 96.7389 91.8285 96.8984 91.6416C97.0579 91.4639 97.1719 91.2497 97.2402 90.999C97.3086 90.7484 97.3428 90.4681 97.3428 90.1582V89.4609C96.9554 89.7708 96.584 90.0033 96.2285 90.1582C95.8776 90.3086 95.4287 90.3838 94.8818 90.3838C93.9704 90.3838 93.2458 90.0557 92.708 89.3994C92.1748 88.7386 91.9082 87.8089 91.9082 86.6104C91.9082 85.9541 91.9993 85.389 92.1816 84.915C92.3685 84.4365 92.6214 84.0241 92.9404 83.6777C93.2367 83.3542 93.5967 83.1035 94.0205 82.9258C94.4443 82.7435 94.8659 82.6523 95.2852 82.6523C95.7272 82.6523 96.0964 82.6979 96.3926 82.7891C96.6934 82.8757 97.0101 83.0101 97.3428 83.1924L97.4248 82.8643H98.6279V89.6318ZM97.3428 88.4014V84.2383C97.001 84.0833 96.682 83.974 96.3857 83.9102C96.0941 83.8418 95.8024 83.8076 95.5107 83.8076C94.8044 83.8076 94.2484 84.0446 93.8428 84.5186C93.4372 84.9925 93.2344 85.6807 93.2344 86.583C93.2344 87.4398 93.3848 88.0892 93.6855 88.5312C93.9863 88.9733 94.4854 89.1943 95.1826 89.1943C95.5563 89.1943 95.93 89.1237 96.3037 88.9824C96.682 88.8366 97.0283 88.6429 97.3428 88.4014ZM107.091 90.5H105.812V89.6865C105.699 89.764 105.544 89.8734 105.348 90.0146C105.156 90.1514 104.969 90.2607 104.787 90.3428C104.573 90.4476 104.327 90.5342 104.049 90.6025C103.771 90.6755 103.445 90.7119 103.071 90.7119C102.383 90.7119 101.8 90.484 101.321 90.0283C100.843 89.5726 100.604 88.9915 100.604 88.2852C100.604 87.7064 100.727 87.2393 100.973 86.8838C101.223 86.5238 101.579 86.2412 102.039 86.0361C102.504 85.8311 103.062 85.6921 103.714 85.6191C104.366 85.5462 105.065 85.4915 105.812 85.4551V85.2568C105.812 84.9652 105.76 84.7236 105.655 84.5322C105.555 84.3408 105.409 84.1904 105.218 84.0811C105.035 83.9762 104.817 83.9056 104.562 83.8691C104.306 83.8327 104.04 83.8145 103.762 83.8145C103.424 83.8145 103.049 83.86 102.634 83.9512C102.219 84.0378 101.791 84.1654 101.349 84.334H101.28V83.0283C101.531 82.96 101.893 82.8848 102.367 82.8027C102.841 82.7207 103.308 82.6797 103.769 82.6797C104.306 82.6797 104.773 82.7253 105.17 82.8164C105.571 82.903 105.917 83.0534 106.209 83.2676C106.496 83.4772 106.715 83.7484 106.865 84.0811C107.016 84.4137 107.091 84.8262 107.091 85.3184V90.5ZM105.812 88.6201V86.4941C105.421 86.5169 104.958 86.5511 104.425 86.5967C103.896 86.6423 103.477 86.7083 103.167 86.7949C102.798 86.8997 102.499 87.0638 102.271 87.2871C102.044 87.5059 101.93 87.8089 101.93 88.1963C101.93 88.6338 102.062 88.9642 102.326 89.1875C102.59 89.4062 102.994 89.5156 103.536 89.5156C103.987 89.5156 104.4 89.429 104.773 89.2559C105.147 89.0781 105.493 88.8662 105.812 88.6201ZM118.452 90.4316C118.211 90.4954 117.946 90.5479 117.659 90.5889C117.377 90.6299 117.124 90.6504 116.9 90.6504C116.121 90.6504 115.529 90.4408 115.123 90.0215C114.717 89.6022 114.515 88.93 114.515 88.0049V83.9443H113.646V82.8643H114.515V80.6699H115.8V82.8643H118.452V83.9443H115.8V87.4238C115.8 87.8249 115.809 88.1393 115.827 88.3672C115.845 88.5905 115.909 88.8001 116.019 88.9961C116.119 89.1784 116.256 89.3128 116.429 89.3994C116.606 89.4814 116.875 89.5225 117.235 89.5225C117.445 89.5225 117.664 89.4928 117.892 89.4336C118.119 89.3698 118.284 89.3174 118.384 89.2764H118.452V90.4316ZM125.944 90.5H124.666V89.6865C124.552 89.764 124.397 89.8734 124.201 90.0146C124.01 90.1514 123.823 90.2607 123.641 90.3428C123.426 90.4476 123.18 90.5342 122.902 90.6025C122.624 90.6755 122.299 90.7119 121.925 90.7119C121.237 90.7119 120.653 90.484 120.175 90.0283C119.696 89.5726 119.457 88.9915 119.457 88.2852C119.457 87.7064 119.58 87.2393 119.826 86.8838C120.077 86.5238 120.432 86.2412 120.893 86.0361C121.357 85.8311 121.916 85.6921 122.567 85.6191C123.219 85.5462 123.919 85.4915 124.666 85.4551V85.2568C124.666 84.9652 124.614 84.7236 124.509 84.5322C124.409 84.3408 124.263 84.1904 124.071 84.0811C123.889 83.9762 123.67 83.9056 123.415 83.8691C123.16 83.8327 122.893 83.8145 122.615 83.8145C122.278 83.8145 121.902 83.86 121.487 83.9512C121.073 84.0378 120.644 84.1654 120.202 84.334H120.134V83.0283C120.384 82.96 120.747 82.8848 121.221 82.8027C121.695 82.7207 122.162 82.6797 122.622 82.6797C123.16 82.6797 123.627 82.7253 124.023 82.8164C124.424 82.903 124.771 83.0534 125.062 83.2676C125.35 83.4772 125.568 83.7484 125.719 84.0811C125.869 84.4137 125.944 84.8262 125.944 85.3184V90.5ZM124.666 88.6201V86.4941C124.274 86.5169 123.812 86.5511 123.278 86.5967C122.75 86.6423 122.33 86.7083 122.021 86.7949C121.651 86.8997 121.353 87.0638 121.125 87.2871C120.897 87.5059 120.783 87.8089 120.783 88.1963C120.783 88.6338 120.915 88.9642 121.18 89.1875C121.444 89.4062 121.847 89.5156 122.39 89.5156C122.841 89.5156 123.253 89.429 123.627 89.2559C124.001 89.0781 124.347 88.8662 124.666 88.6201ZM134.913 82.8643L130.456 93.3164H129.082L130.504 90.1309L127.462 82.8643H128.856L131.201 88.5244L133.566 82.8643H134.913ZM143.198 82.8643L138.741 93.3164H137.367L138.789 90.1309L135.747 82.8643H137.142L139.486 88.5244L141.852 82.8643H143.198ZM151.265 86.6855C151.265 87.9297 150.946 88.9118 150.308 89.6318C149.67 90.3519 148.815 90.7119 147.744 90.7119C146.664 90.7119 145.805 90.3519 145.167 89.6318C144.534 88.9118 144.217 87.9297 144.217 86.6855C144.217 85.4414 144.534 84.4593 145.167 83.7393C145.805 83.0146 146.664 82.6523 147.744 82.6523C148.815 82.6523 149.67 83.0146 150.308 83.7393C150.946 84.4593 151.265 85.4414 151.265 86.6855ZM149.938 86.6855C149.938 85.6966 149.745 84.9629 149.357 84.4844C148.97 84.0013 148.432 83.7598 147.744 83.7598C147.047 83.7598 146.505 84.0013 146.117 84.4844C145.734 84.9629 145.543 85.6966 145.543 86.6855C145.543 87.6426 145.737 88.3695 146.124 88.8662C146.511 89.3584 147.051 89.6045 147.744 89.6045C148.428 89.6045 148.963 89.3607 149.351 88.873C149.743 88.3809 149.938 87.6517 149.938 86.6855ZM158.025 84.2656H157.957C157.766 84.2201 157.579 84.1882 157.396 84.1699C157.219 84.1471 157.007 84.1357 156.761 84.1357C156.364 84.1357 155.981 84.2246 155.612 84.4023C155.243 84.5755 154.888 84.8011 154.546 85.0791V90.5H153.261V82.8643H154.546V83.9922C155.056 83.582 155.505 83.2926 155.893 83.124C156.285 82.9508 156.683 82.8643 157.089 82.8643C157.312 82.8643 157.474 82.8711 157.574 82.8848C157.674 82.8939 157.825 82.9144 158.025 82.9463V84.2656ZM165.429 89.6318C165.429 90.9261 165.135 91.8763 164.547 92.4824C163.959 93.0885 163.054 93.3916 161.833 93.3916C161.427 93.3916 161.031 93.362 160.644 93.3027C160.261 93.248 159.882 93.1683 159.509 93.0635V91.751H159.577C159.787 91.833 160.119 91.9333 160.575 92.0518C161.031 92.1748 161.487 92.2363 161.942 92.2363C162.38 92.2363 162.742 92.1839 163.029 92.0791C163.316 91.9743 163.54 91.8285 163.699 91.6416C163.859 91.4639 163.973 91.2497 164.041 90.999C164.109 90.7484 164.144 90.4681 164.144 90.1582V89.4609C163.756 89.7708 163.385 90.0033 163.029 90.1582C162.678 90.3086 162.229 90.3838 161.683 90.3838C160.771 90.3838 160.047 90.0557 159.509 89.3994C158.976 88.7386 158.709 87.8089 158.709 86.6104C158.709 85.9541 158.8 85.389 158.982 84.915C159.169 84.4365 159.422 84.0241 159.741 83.6777C160.037 83.3542 160.397 83.1035 160.821 82.9258C161.245 82.7435 161.667 82.6523 162.086 82.6523C162.528 82.6523 162.897 82.6979 163.193 82.7891C163.494 82.8757 163.811 83.0101 164.144 83.1924L164.226 82.8643H165.429V89.6318ZM164.144 88.4014V84.2383C163.802 84.0833 163.483 83.974 163.187 83.9102C162.895 83.8418 162.603 83.8076 162.312 83.8076C161.605 83.8076 161.049 84.0446 160.644 84.5186C160.238 84.9925 160.035 85.6807 160.035 86.583C160.035 87.4398 160.186 88.0892 160.486 88.5312C160.787 88.9733 161.286 89.1943 161.983 89.1943C162.357 89.1943 162.731 89.1237 163.104 88.9824C163.483 88.8366 163.829 88.6429 164.144 88.4014ZM173.892 90.5H172.613V89.6865C172.499 89.764 172.344 89.8734 172.148 90.0146C171.957 90.1514 171.77 90.2607 171.588 90.3428C171.374 90.4476 171.128 90.5342 170.85 90.6025C170.572 90.6755 170.246 90.7119 169.872 90.7119C169.184 90.7119 168.601 90.484 168.122 90.0283C167.644 89.5726 167.404 88.9915 167.404 88.2852C167.404 87.7064 167.527 87.2393 167.773 86.8838C168.024 86.5238 168.38 86.2412 168.84 86.0361C169.305 85.8311 169.863 85.6921 170.515 85.6191C171.166 85.5462 171.866 85.4915 172.613 85.4551V85.2568C172.613 84.9652 172.561 84.7236 172.456 84.5322C172.356 84.3408 172.21 84.1904 172.019 84.0811C171.836 83.9762 171.618 83.9056 171.362 83.8691C171.107 83.8327 170.84 83.8145 170.562 83.8145C170.225 83.8145 169.849 83.86 169.435 83.9512C169.02 84.0378 168.591 84.1654 168.149 84.334H168.081V83.0283C168.332 82.96 168.694 82.8848 169.168 82.8027C169.642 82.7207 170.109 82.6797 170.569 82.6797C171.107 82.6797 171.574 82.7253 171.971 82.8164C172.372 82.903 172.718 83.0534 173.01 83.2676C173.297 83.4772 173.516 83.7484 173.666 84.0811C173.816 84.4137 173.892 84.8262 173.892 85.3184V90.5ZM172.613 88.6201V86.4941C172.221 86.5169 171.759 86.5511 171.226 86.5967C170.697 86.6423 170.278 86.7083 169.968 86.7949C169.599 86.8997 169.3 87.0638 169.072 87.2871C168.844 87.5059 168.73 87.8089 168.73 88.1963C168.73 88.6338 168.863 88.9642 169.127 89.1875C169.391 89.4062 169.795 89.5156 170.337 89.5156C170.788 89.5156 171.201 89.429 171.574 89.2559C171.948 89.0781 172.294 88.8662 172.613 88.6201ZM181.131 84.2656H181.062C180.871 84.2201 180.684 84.1882 180.502 84.1699C180.324 84.1471 180.112 84.1357 179.866 84.1357C179.47 84.1357 179.087 84.2246 178.718 84.4023C178.349 84.5755 177.993 84.8011 177.651 85.0791V90.5H176.366V82.8643H177.651V83.9922C178.162 83.582 178.611 83.2926 178.998 83.124C179.39 82.9508 179.789 82.8643 180.194 82.8643C180.418 82.8643 180.579 82.8711 180.68 82.8848C180.78 82.8939 180.93 82.9144 181.131 82.9463V84.2656ZM183.64 90.5H182.354V79.8633H183.64V90.5ZM187.563 81.5859H186.114V80.2529H187.563V81.5859ZM187.481 90.5H186.196V82.8643H187.481V90.5ZM196.956 90.5H195.261L192.198 87.1572L191.364 87.9502V90.5H190.079V79.8633H191.364V86.6855L195.076 82.8643H196.696L193.148 86.3916L196.956 90.5Z" fill="#333333"/>
<path d="M5 123L12.5 130.5L25 115.5" stroke="#61B857" stroke-width="2" stroke-linecap="round" stroke-linejoin="round"/>
<path d="M46.7637 125.595C46.7637 125.991 46.6702 126.383 46.4834 126.771C46.3011 127.158 46.0436 127.486 45.7109 127.755C45.3464 128.047 44.9202 128.274 44.4326 128.438C43.9495 128.603 43.3662 128.685 42.6826 128.685C41.9489 128.685 41.2881 128.616 40.7002 128.479C40.1169 128.343 39.5221 128.14 38.916 127.871V126.176H39.0117C39.5267 126.604 40.1214 126.935 40.7959 127.167C41.4704 127.399 42.1038 127.516 42.6963 127.516C43.5348 127.516 44.1865 127.358 44.6514 127.044C45.1208 126.729 45.3555 126.31 45.3555 125.786C45.3555 125.335 45.2438 125.002 45.0205 124.788C44.8018 124.574 44.4668 124.408 44.0156 124.289C43.6738 124.198 43.3024 124.123 42.9014 124.063C42.5049 124.004 42.0833 123.929 41.6367 123.838C40.7344 123.646 40.0645 123.321 39.627 122.86C39.194 122.396 38.9775 121.792 38.9775 121.049C38.9775 120.197 39.3376 119.499 40.0576 118.957C40.7777 118.41 41.6914 118.137 42.7988 118.137C43.5143 118.137 44.1706 118.205 44.7676 118.342C45.3646 118.479 45.8932 118.647 46.3535 118.848V120.447H46.2578C45.8704 120.119 45.36 119.848 44.7266 119.634C44.0977 119.415 43.4528 119.306 42.792 119.306C42.0674 119.306 41.484 119.456 41.042 119.757C40.6045 120.058 40.3857 120.445 40.3857 120.919C40.3857 121.343 40.4951 121.675 40.7139 121.917C40.9326 122.159 41.3177 122.343 41.8691 122.471C42.1608 122.535 42.5755 122.612 43.1133 122.703C43.651 122.794 44.1068 122.888 44.4805 122.983C45.237 123.184 45.8066 123.487 46.1895 123.893C46.5723 124.298 46.7637 124.866 46.7637 125.595ZM55.2266 124.815H49.6006C49.6006 125.285 49.6712 125.695 49.8125 126.046C49.9538 126.392 50.1475 126.677 50.3936 126.9C50.6305 127.119 50.9108 127.283 51.2344 127.393C51.5625 127.502 51.9225 127.557 52.3145 127.557C52.834 127.557 53.3558 127.454 53.8799 127.249C54.4085 127.039 54.7845 126.834 55.0078 126.634H55.0762V128.035C54.6432 128.217 54.2012 128.37 53.75 128.493C53.2988 128.616 52.8249 128.678 52.3281 128.678C51.0612 128.678 50.0723 128.336 49.3613 127.652C48.6504 126.964 48.2949 125.989 48.2949 124.727C48.2949 123.478 48.6344 122.487 49.3135 121.753C49.9971 121.019 50.8949 120.652 52.0068 120.652C53.0368 120.652 53.8298 120.953 54.3857 121.555C54.9463 122.156 55.2266 123.011 55.2266 124.118V124.815ZM53.9756 123.831C53.971 123.157 53.8001 122.635 53.4629 122.266C53.1302 121.896 52.6221 121.712 51.9385 121.712C51.2503 121.712 50.7012 121.915 50.291 122.32C49.8854 122.726 49.6553 123.229 49.6006 123.831H53.9756ZM61.9395 122.266H61.8711C61.6797 122.22 61.4928 122.188 61.3105 122.17C61.1328 122.147 60.9209 122.136 60.6748 122.136C60.2783 122.136 59.8955 122.225 59.5264 122.402C59.1572 122.576 58.8018 122.801 58.46 123.079V128.5H57.1748V120.864H58.46V121.992C58.9704 121.582 59.4193 121.293 59.8066 121.124C60.1986 120.951 60.5973 120.864 61.0029 120.864C61.2262 120.864 61.388 120.871 61.4883 120.885C61.5885 120.894 61.7389 120.914 61.9395 120.946V122.266ZM67.1143 128.432C66.8727 128.495 66.6084 128.548 66.3213 128.589C66.0387 128.63 65.7858 128.65 65.5625 128.65C64.7832 128.65 64.1908 128.441 63.7852 128.021C63.3796 127.602 63.1768 126.93 63.1768 126.005V121.944H62.3086V120.864H63.1768V118.67H64.4619V120.864H67.1143V121.944H64.4619V125.424C64.4619 125.825 64.471 126.139 64.4893 126.367C64.5075 126.59 64.5713 126.8 64.6807 126.996C64.7809 127.178 64.9176 127.313 65.0908 127.399C65.2686 127.481 65.5374 127.522 65.8975 127.522C66.1071 127.522 66.3258 127.493 66.5537 127.434C66.7816 127.37 66.9456 127.317 67.0459 127.276H67.1143V128.432ZM70.0537 119.586H68.6045V118.253H70.0537V119.586ZM69.9717 128.5H68.6865V120.864H69.9717V128.5ZM76.623 119.107H76.5547C76.4134 119.066 76.2288 119.025 76.001 118.984C75.7731 118.939 75.5726 118.916 75.3994 118.916C74.848 118.916 74.4469 119.039 74.1963 119.285C73.9502 119.527 73.8271 119.966 73.8271 120.604V120.864H76.1445V121.944H73.8682V128.5H72.583V121.944H71.7148V120.864H72.583V120.611C72.583 119.704 72.8086 119.009 73.2598 118.526C73.7109 118.039 74.3626 117.795 75.2148 117.795C75.502 117.795 75.7594 117.809 75.9873 117.836C76.2197 117.863 76.4316 117.895 76.623 117.932V119.107ZM78.8174 119.586H77.3682V118.253H78.8174V119.586ZM78.7354 128.5H77.4502V120.864H78.7354V128.5ZM88.21 128.5H86.5146L83.4521 125.157L82.6182 125.95V128.5H81.333V117.863H82.6182V124.686L86.3301 120.864H87.9502L84.4023 124.392L88.21 128.5ZM95.4971 128.5H94.2188V127.687C94.1048 127.764 93.9499 127.873 93.7539 128.015C93.5625 128.151 93.3757 128.261 93.1934 128.343C92.9792 128.448 92.7331 128.534 92.4551 128.603C92.1771 128.675 91.8512 128.712 91.4775 128.712C90.7894 128.712 90.2061 128.484 89.7275 128.028C89.249 127.573 89.0098 126.992 89.0098 126.285C89.0098 125.706 89.1328 125.239 89.3789 124.884C89.6296 124.524 89.985 124.241 90.4453 124.036C90.9102 123.831 91.4684 123.692 92.1201 123.619C92.7718 123.546 93.4714 123.492 94.2188 123.455V123.257C94.2188 122.965 94.1663 122.724 94.0615 122.532C93.9613 122.341 93.8154 122.19 93.624 122.081C93.4417 121.976 93.223 121.906 92.9678 121.869C92.7126 121.833 92.446 121.814 92.168 121.814C91.8307 121.814 91.4548 121.86 91.04 121.951C90.6253 122.038 90.1969 122.165 89.7549 122.334H89.6865V121.028C89.9372 120.96 90.2995 120.885 90.7734 120.803C91.2474 120.721 91.7145 120.68 92.1748 120.68C92.7126 120.68 93.1797 120.725 93.5762 120.816C93.9772 120.903 94.3236 121.053 94.6152 121.268C94.9023 121.477 95.1211 121.748 95.2715 122.081C95.4219 122.414 95.4971 122.826 95.4971 123.318V128.5ZM94.2188 126.62V124.494C93.8268 124.517 93.3643 124.551 92.8311 124.597C92.3024 124.642 91.8831 124.708 91.5732 124.795C91.2041 124.9 90.9056 125.064 90.6777 125.287C90.4499 125.506 90.3359 125.809 90.3359 126.196C90.3359 126.634 90.4681 126.964 90.7324 127.188C90.9967 127.406 91.4001 127.516 91.9424 127.516C92.3936 127.516 92.806 127.429 93.1797 127.256C93.5534 127.078 93.8997 126.866 94.2188 126.62ZM101.937 128.432C101.695 128.495 101.431 128.548 101.144 128.589C100.861 128.63 100.608 128.65 100.385 128.65C99.6055 128.65 99.013 128.441 98.6074 128.021C98.2018 127.602 97.999 126.93 97.999 126.005V121.944H97.1309V120.864H97.999V118.67H99.2842V120.864H101.937V121.944H99.2842V125.424C99.2842 125.825 99.2933 126.139 99.3115 126.367C99.3298 126.59 99.3936 126.8 99.5029 126.996C99.6032 127.178 99.7399 127.313 99.9131 127.399C100.091 127.481 100.36 127.522 100.72 127.522C100.929 127.522 101.148 127.493 101.376 127.434C101.604 127.37 101.768 127.317 101.868 127.276H101.937V128.432ZM104.794 128.5H103.509V117.863H104.794V128.5ZM113.271 128.5H111.992V127.687C111.878 127.764 111.723 127.873 111.527 128.015C111.336 128.151 111.149 128.261 110.967 128.343C110.753 128.448 110.507 128.534 110.229 128.603C109.951 128.675 109.625 128.712 109.251 128.712C108.563 128.712 107.979 128.484 107.501 128.028C107.022 127.573 106.783 126.992 106.783 126.285C106.783 125.706 106.906 125.239 107.152 124.884C107.403 124.524 107.758 124.241 108.219 124.036C108.684 123.831 109.242 123.692 109.894 123.619C110.545 123.546 111.245 123.492 111.992 123.455V123.257C111.992 122.965 111.94 122.724 111.835 122.532C111.735 122.341 111.589 122.19 111.397 122.081C111.215 121.976 110.996 121.906 110.741 121.869C110.486 121.833 110.219 121.814 109.941 121.814C109.604 121.814 109.228 121.86 108.813 121.951C108.399 122.038 107.97 122.165 107.528 122.334H107.46V121.028C107.711 120.96 108.073 120.885 108.547 120.803C109.021 120.721 109.488 120.68 109.948 120.68C110.486 120.68 110.953 120.725 111.35 120.816C111.751 120.903 112.097 121.053 112.389 121.268C112.676 121.477 112.895 121.748 113.045 122.081C113.195 122.414 113.271 122.826 113.271 123.318V128.5ZM111.992 126.62V124.494C111.6 124.517 111.138 124.551 110.604 124.597C110.076 124.642 109.657 124.708 109.347 124.795C108.978 124.9 108.679 125.064 108.451 125.287C108.223 125.506 108.109 125.809 108.109 126.196C108.109 126.634 108.242 126.964 108.506 127.188C108.77 127.406 109.174 127.516 109.716 127.516C110.167 127.516 110.579 127.429 110.953 127.256C111.327 127.078 111.673 126.866 111.992 126.62ZM121.2 126.299C121.2 126.996 120.911 127.568 120.332 128.015C119.758 128.461 118.972 128.685 117.974 128.685C117.409 128.685 116.889 128.618 116.415 128.486C115.946 128.35 115.551 128.201 115.232 128.042V126.6H115.301C115.706 126.905 116.158 127.149 116.654 127.331C117.151 127.509 117.627 127.598 118.083 127.598C118.648 127.598 119.09 127.507 119.409 127.324C119.728 127.142 119.888 126.855 119.888 126.463C119.888 126.162 119.801 125.934 119.628 125.779C119.455 125.624 119.122 125.492 118.63 125.383C118.448 125.342 118.208 125.294 117.912 125.239C117.62 125.185 117.354 125.125 117.112 125.062C116.442 124.884 115.966 124.624 115.684 124.282C115.406 123.936 115.267 123.512 115.267 123.011C115.267 122.696 115.33 122.4 115.458 122.122C115.59 121.844 115.788 121.596 116.053 121.377C116.308 121.163 116.632 120.994 117.023 120.871C117.42 120.743 117.862 120.68 118.35 120.68C118.805 120.68 119.266 120.737 119.73 120.851C120.2 120.96 120.59 121.094 120.899 121.254V122.628H120.831C120.503 122.386 120.104 122.184 119.635 122.02C119.165 121.851 118.705 121.767 118.254 121.767C117.785 121.767 117.388 121.858 117.064 122.04C116.741 122.218 116.579 122.484 116.579 122.84C116.579 123.154 116.677 123.391 116.873 123.551C117.064 123.71 117.374 123.84 117.803 123.94C118.04 123.995 118.304 124.05 118.596 124.104C118.892 124.159 119.138 124.209 119.334 124.255C119.931 124.392 120.391 124.626 120.715 124.959C121.038 125.296 121.2 125.743 121.2 126.299ZM129.431 128.5H128.146V124.152C128.146 123.801 128.125 123.473 128.084 123.168C128.043 122.858 127.968 122.617 127.858 122.443C127.744 122.252 127.58 122.111 127.366 122.02C127.152 121.924 126.874 121.876 126.532 121.876C126.181 121.876 125.814 121.963 125.432 122.136C125.049 122.309 124.682 122.53 124.331 122.799V128.5H123.046V117.863H124.331V121.712C124.732 121.379 125.147 121.119 125.575 120.933C126.004 120.746 126.443 120.652 126.895 120.652C127.719 120.652 128.348 120.901 128.781 121.397C129.214 121.894 129.431 122.61 129.431 123.544V128.5Z" fill="#333333"/>
<path d="M5 161L12.5 168.5L25 153.5" stroke="#61B857" stroke-width="2" stroke-linecap="round" stroke-linejoin="round"/>
<path d="M46.7637 163.595C46.7637 163.991 46.6702 164.383 46.4834 164.771C46.3011 165.158 46.0436 165.486 45.7109 165.755C45.3464 166.047 44.9202 166.274 44.4326 166.438C43.9495 166.603 43.3662 166.685 42.6826 166.685C41.9489 166.685 41.2881 166.616 40.7002 166.479C40.1169 166.343 39.5221 166.14 38.916 165.871V164.176H39.0117C39.5267 164.604 40.1214 164.935 40.7959 165.167C41.4704 165.399 42.1038 165.516 42.6963 165.516C43.5348 165.516 44.1865 165.358 44.6514 165.044C45.1208 164.729 45.3555 164.31 45.3555 163.786C45.3555 163.335 45.2438 163.002 45.0205 162.788C44.8018 162.574 44.4668 162.408 44.0156 162.289C43.6738 162.198 43.3024 162.123 42.9014 162.063C42.5049 162.004 42.0833 161.929 41.6367 161.838C40.7344 161.646 40.0645 161.321 39.627 160.86C39.194 160.396 38.9775 159.792 38.9775 159.049C38.9775 158.197 39.3376 157.499 40.0576 156.957C40.7777 156.41 41.6914 156.137 42.7988 156.137C43.5143 156.137 44.1706 156.205 44.7676 156.342C45.3646 156.479 45.8932 156.647 46.3535 156.848V158.447H46.2578C45.8704 158.119 45.36 157.848 44.7266 157.634C44.0977 157.415 43.4528 157.306 42.792 157.306C42.0674 157.306 41.484 157.456 41.042 157.757C40.6045 158.058 40.3857 158.445 40.3857 158.919C40.3857 159.343 40.4951 159.675 40.7139 159.917C40.9326 160.159 41.3177 160.343 41.8691 160.471C42.1608 160.535 42.5755 160.612 43.1133 160.703C43.651 160.794 44.1068 160.888 44.4805 160.983C45.237 161.184 45.8066 161.487 46.1895 161.893C46.5723 162.298 46.7637 162.866 46.7637 163.595ZM54.7686 166.5H53.4902V165.687C53.3763 165.764 53.2214 165.873 53.0254 166.015C52.834 166.151 52.6471 166.261 52.4648 166.343C52.2507 166.448 52.0046 166.534 51.7266 166.603C51.4486 166.675 51.1227 166.712 50.749 166.712C50.0609 166.712 49.4775 166.484 48.999 166.028C48.5205 165.573 48.2812 164.992 48.2812 164.285C48.2812 163.706 48.4043 163.239 48.6504 162.884C48.901 162.524 49.2565 162.241 49.7168 162.036C50.1816 161.831 50.7399 161.692 51.3916 161.619C52.0433 161.546 52.7428 161.492 53.4902 161.455V161.257C53.4902 160.965 53.4378 160.724 53.333 160.532C53.2327 160.341 53.0869 160.19 52.8955 160.081C52.7132 159.976 52.4945 159.906 52.2393 159.869C51.984 159.833 51.7174 159.814 51.4395 159.814C51.1022 159.814 50.7262 159.86 50.3115 159.951C49.8968 160.038 49.4684 160.165 49.0264 160.334H48.958V159.028C49.2087 158.96 49.571 158.885 50.0449 158.803C50.5189 158.721 50.986 158.68 51.4463 158.68C51.984 158.68 52.4512 158.725 52.8477 158.816C53.2487 158.903 53.5951 159.053 53.8867 159.268C54.1738 159.477 54.3926 159.748 54.543 160.081C54.6934 160.414 54.7686 160.826 54.7686 161.318V166.5ZM53.4902 164.62V162.494C53.0983 162.517 52.6357 162.551 52.1025 162.597C51.5739 162.642 51.1546 162.708 50.8447 162.795C50.4756 162.9 50.1771 163.064 49.9492 163.287C49.7214 163.506 49.6074 163.809 49.6074 164.196C49.6074 164.634 49.7396 164.964 50.0039 165.188C50.2682 165.406 50.6715 165.516 51.2139 165.516C51.665 165.516 52.0775 165.429 52.4512 165.256C52.8249 165.078 53.1712 164.866 53.4902 164.62ZM63.7373 158.864L60.6475 166.5H59.3555L56.2861 158.864H57.6807L60.0459 164.941L62.3906 158.864H63.7373ZM71.6123 166.5H70.3271V165.7C69.958 166.019 69.5729 166.268 69.1719 166.445C68.7708 166.623 68.3356 166.712 67.8662 166.712C66.9548 166.712 66.2301 166.361 65.6924 165.659C65.1592 164.957 64.8926 163.984 64.8926 162.74C64.8926 162.093 64.9837 161.517 65.166 161.011C65.3529 160.505 65.6035 160.074 65.918 159.719C66.2279 159.372 66.5879 159.108 66.998 158.926C67.4128 158.743 67.8411 158.652 68.2832 158.652C68.6842 158.652 69.0397 158.696 69.3496 158.782C69.6595 158.864 69.9854 158.994 70.3271 159.172V155.863H71.6123V166.5ZM70.3271 164.62V160.238C69.9808 160.083 69.6709 159.976 69.3975 159.917C69.124 159.858 68.8255 159.828 68.502 159.828C67.7819 159.828 67.2214 160.079 66.8203 160.58C66.4193 161.081 66.2188 161.792 66.2188 162.713C66.2188 163.62 66.3737 164.31 66.6836 164.784C66.9935 165.254 67.4902 165.488 68.1738 165.488C68.5384 165.488 68.9076 165.409 69.2812 165.249C69.6549 165.085 70.0036 164.875 70.3271 164.62ZM80.6494 162.686C80.6494 163.93 80.3304 164.912 79.6924 165.632C79.0544 166.352 78.1999 166.712 77.1289 166.712C76.0488 166.712 75.1898 166.352 74.5518 165.632C73.9183 164.912 73.6016 163.93 73.6016 162.686C73.6016 161.441 73.9183 160.459 74.5518 159.739C75.1898 159.015 76.0488 158.652 77.1289 158.652C78.1999 158.652 79.0544 159.015 79.6924 159.739C80.3304 160.459 80.6494 161.441 80.6494 162.686ZM79.3232 162.686C79.3232 161.697 79.1296 160.963 78.7422 160.484C78.3548 160.001 77.8171 159.76 77.1289 159.76C76.4316 159.76 75.8893 160.001 75.502 160.484C75.1191 160.963 74.9277 161.697 74.9277 162.686C74.9277 163.643 75.1214 164.369 75.5088 164.866C75.8962 165.358 76.4362 165.604 77.1289 165.604C77.8125 165.604 78.348 165.361 78.7354 164.873C79.1273 164.381 79.3232 163.652 79.3232 162.686ZM94.2871 162.624C94.2871 163.262 94.196 163.836 94.0137 164.347C93.8359 164.857 93.5944 165.285 93.2891 165.632C92.9655 165.992 92.61 166.263 92.2227 166.445C91.8353 166.623 91.4092 166.712 90.9443 166.712C90.5114 166.712 90.1331 166.66 89.8096 166.555C89.486 166.454 89.167 166.318 88.8525 166.145L88.7705 166.5H87.5674V155.863H88.8525V159.664C89.2126 159.368 89.5954 159.126 90.001 158.939C90.4066 158.748 90.8623 158.652 91.3682 158.652C92.2705 158.652 92.9814 158.999 93.501 159.691C94.0251 160.384 94.2871 161.362 94.2871 162.624ZM92.9609 162.658C92.9609 161.747 92.8105 161.056 92.5098 160.587C92.209 160.113 91.7236 159.876 91.0537 159.876C90.68 159.876 90.3018 159.958 89.9189 160.122C89.5361 160.282 89.1807 160.489 88.8525 160.744V165.119C89.2171 165.283 89.5293 165.397 89.7891 165.461C90.0534 165.525 90.3519 165.557 90.6846 165.557C91.3955 165.557 91.9515 165.324 92.3525 164.859C92.7581 164.39 92.9609 163.656 92.9609 162.658ZM102.798 162.686C102.798 163.93 102.479 164.912 101.841 165.632C101.203 166.352 100.348 166.712 99.2773 166.712C98.1973 166.712 97.3382 166.352 96.7002 165.632C96.0667 164.912 95.75 163.93 95.75 162.686C95.75 161.441 96.0667 160.459 96.7002 159.739C97.3382 159.015 98.1973 158.652 99.2773 158.652C100.348 158.652 101.203 159.015 101.841 159.739C102.479 160.459 102.798 161.441 102.798 162.686ZM101.472 162.686C101.472 161.697 101.278 160.963 100.891 160.484C100.503 160.001 99.9655 159.76 99.2773 159.76C98.5801 159.76 98.0378 160.001 97.6504 160.484C97.2676 160.963 97.0762 161.697 97.0762 162.686C97.0762 163.643 97.2699 164.369 97.6572 164.866C98.0446 165.358 98.5846 165.604 99.2773 165.604C99.9609 165.604 100.496 165.361 100.884 164.873C101.276 164.381 101.472 163.652 101.472 162.686ZM106.168 155.863L105.874 159.821H104.944L104.65 155.863H106.168ZM109.853 166.5H108.567V155.863H109.853V166.5ZM113.776 157.586H112.327V156.253H113.776V157.586ZM113.694 166.5H112.409V158.864H113.694V166.5ZM127.38 166.5H126.095V162.152C126.095 161.824 126.079 161.507 126.047 161.202C126.02 160.897 125.958 160.653 125.862 160.471C125.757 160.275 125.607 160.127 125.411 160.026C125.215 159.926 124.933 159.876 124.563 159.876C124.203 159.876 123.843 159.967 123.483 160.149C123.123 160.327 122.763 160.555 122.403 160.833C122.417 160.938 122.428 161.061 122.438 161.202C122.447 161.339 122.451 161.476 122.451 161.612V166.5H121.166V162.152C121.166 161.815 121.15 161.496 121.118 161.195C121.091 160.89 121.029 160.646 120.934 160.464C120.829 160.268 120.678 160.122 120.482 160.026C120.286 159.926 120.004 159.876 119.635 159.876C119.284 159.876 118.931 159.963 118.575 160.136C118.224 160.309 117.873 160.53 117.522 160.799V166.5H116.237V158.864H117.522V159.712C117.924 159.379 118.322 159.119 118.719 158.933C119.12 158.746 119.546 158.652 119.997 158.652C120.517 158.652 120.956 158.762 121.316 158.98C121.681 159.199 121.952 159.502 122.13 159.89C122.649 159.452 123.123 159.138 123.552 158.946C123.98 158.75 124.438 158.652 124.926 158.652C125.764 158.652 126.382 158.908 126.778 159.418C127.179 159.924 127.38 160.632 127.38 161.544V166.5ZM131.235 157.586H129.786V156.253H131.235V157.586ZM131.153 166.5H129.868V158.864H131.153V166.5Z" fill="#333333"/>
<path d="M5 199L12.5 206.5L25 191.5" stroke="#61B857" stroke-width="2" stroke-linecap="round" stroke-linejoin="round"/>
<path d="M47.1533 204.5H45.7998V199.517H40.7207V204.5H39.3672V194.321H40.7207V198.313H45.7998V194.321H47.1533V204.5ZM56.1221 204.5H54.8369V203.652C54.404 203.994 53.9893 204.256 53.5928 204.438C53.1963 204.621 52.7588 204.712 52.2803 204.712C51.4782 204.712 50.8538 204.468 50.4072 203.98C49.9606 203.488 49.7373 202.768 49.7373 201.82V196.864H51.0225V201.212C51.0225 201.599 51.0407 201.932 51.0771 202.21C51.1136 202.483 51.1911 202.718 51.3096 202.914C51.4326 203.115 51.5921 203.26 51.7881 203.352C51.984 203.443 52.2689 203.488 52.6426 203.488C52.9753 203.488 53.3376 203.402 53.7295 203.229C54.126 203.055 54.4951 202.834 54.8369 202.565V196.864H56.1221V204.5ZM64.8447 207.316H63.5596V203.639C63.1631 203.98 62.7689 204.236 62.377 204.404C61.985 204.568 61.5612 204.65 61.1055 204.65C60.1986 204.65 59.474 204.302 58.9316 203.604C58.3939 202.903 58.125 201.937 58.125 200.706C58.125 200.05 58.2184 199.471 58.4053 198.97C58.5967 198.464 58.8473 198.04 59.1572 197.698C59.458 197.366 59.8112 197.108 60.2168 196.926C60.6224 196.743 61.0508 196.652 61.502 196.652C61.9121 196.652 62.2744 196.698 62.5889 196.789C62.9079 196.88 63.2314 197.015 63.5596 197.192L63.6416 196.864H64.8447V207.316ZM63.5596 202.559V198.238C63.2041 198.079 62.8896 197.967 62.6162 197.903C62.3428 197.84 62.0465 197.808 61.7275 197.808C60.9847 197.808 60.4196 198.061 60.0322 198.566C59.6449 199.068 59.4512 199.76 59.4512 200.645C59.4512 201.538 59.6061 202.226 59.916 202.709C60.2305 203.188 60.7227 203.427 61.3926 203.427C61.7663 203.427 62.14 203.347 62.5137 203.188C62.8874 203.023 63.236 202.814 63.5596 202.559ZM73.7041 204.5H72.4189V203.652C71.986 203.994 71.5713 204.256 71.1748 204.438C70.7783 204.621 70.3408 204.712 69.8623 204.712C69.0602 204.712 68.4359 204.468 67.9893 203.98C67.5426 203.488 67.3193 202.768 67.3193 201.82V196.864H68.6045V201.212C68.6045 201.599 68.6227 201.932 68.6592 202.21C68.6956 202.483 68.7731 202.718 68.8916 202.914C69.0146 203.115 69.1742 203.26 69.3701 203.352C69.5661 203.443 69.8509 203.488 70.2246 203.488C70.5573 203.488 70.9196 203.402 71.3115 203.229C71.708 203.055 72.0771 202.834 72.4189 202.565V196.864H73.7041V204.5ZM82.4268 207.316H81.1416V203.639C80.7451 203.98 80.3509 204.236 79.959 204.404C79.5671 204.568 79.1432 204.65 78.6875 204.65C77.7806 204.65 77.056 204.302 76.5137 203.604C75.9759 202.903 75.707 201.937 75.707 200.706C75.707 200.05 75.8005 199.471 75.9873 198.97C76.1787 198.464 76.4294 198.04 76.7393 197.698C77.04 197.366 77.3932 197.108 77.7988 196.926C78.2044 196.743 78.6328 196.652 79.084 196.652C79.4941 196.652 79.8564 196.698 80.1709 196.789C80.4899 196.88 80.8135 197.015 81.1416 197.192L81.2236 196.864H82.4268V207.316ZM81.1416 202.559V198.238C80.7861 198.079 80.4717 197.967 80.1982 197.903C79.9248 197.84 79.6286 197.808 79.3096 197.808C78.5667 197.808 78.0016 198.061 77.6143 198.566C77.2269 199.068 77.0332 199.76 77.0332 200.645C77.0332 201.538 77.1882 202.226 77.498 202.709C77.8125 203.188 78.3047 203.427 78.9746 203.427C79.3483 203.427 79.722 203.347 80.0957 203.188C80.4694 203.023 80.818 202.814 81.1416 202.559ZM86.3369 195.586H84.8877V194.253H86.3369V195.586ZM86.2549 204.5H84.9697V196.864H86.2549V204.5ZM95.4014 196.864L90.9443 207.316H89.5703L90.9922 204.131L87.9502 196.864H89.3447L91.6895 202.524L94.0547 196.864H95.4014ZM108.608 196.864L104.151 207.316H102.777L104.199 204.131L101.157 196.864H102.552L104.896 202.524L107.262 196.864H108.608ZM116.675 200.686C116.675 201.93 116.356 202.912 115.718 203.632C115.08 204.352 114.225 204.712 113.154 204.712C112.074 204.712 111.215 204.352 110.577 203.632C109.944 202.912 109.627 201.93 109.627 200.686C109.627 199.441 109.944 198.459 110.577 197.739C111.215 197.015 112.074 196.652 113.154 196.652C114.225 196.652 115.08 197.015 115.718 197.739C116.356 198.459 116.675 199.441 116.675 200.686ZM115.349 200.686C115.349 199.697 115.155 198.963 114.768 198.484C114.38 198.001 113.842 197.76 113.154 197.76C112.457 197.76 111.915 198.001 111.527 198.484C111.145 198.963 110.953 199.697 110.953 200.686C110.953 201.643 111.147 202.369 111.534 202.866C111.922 203.358 112.462 203.604 113.154 203.604C113.838 203.604 114.373 203.361 114.761 202.873C115.153 202.381 115.349 201.652 115.349 200.686ZM123.436 198.266H123.367C123.176 198.22 122.989 198.188 122.807 198.17C122.629 198.147 122.417 198.136 122.171 198.136C121.774 198.136 121.392 198.225 121.022 198.402C120.653 198.576 120.298 198.801 119.956 199.079V204.5H118.671V196.864H119.956V197.992C120.466 197.582 120.915 197.293 121.303 197.124C121.695 196.951 122.093 196.864 122.499 196.864C122.722 196.864 122.884 196.871 122.984 196.885C123.085 196.894 123.235 196.914 123.436 196.946V198.266ZM130.839 204.5H129.554V203.7C129.185 204.019 128.799 204.268 128.398 204.445C127.997 204.623 127.562 204.712 127.093 204.712C126.181 204.712 125.457 204.361 124.919 203.659C124.386 202.957 124.119 201.984 124.119 200.74C124.119 200.093 124.21 199.517 124.393 199.011C124.579 198.505 124.83 198.074 125.145 197.719C125.454 197.372 125.814 197.108 126.225 196.926C126.639 196.743 127.068 196.652 127.51 196.652C127.911 196.652 128.266 196.696 128.576 196.782C128.886 196.864 129.212 196.994 129.554 197.172V193.863H130.839V204.5ZM129.554 202.62V198.238C129.207 198.083 128.897 197.976 128.624 197.917C128.351 197.858 128.052 197.828 127.729 197.828C127.008 197.828 126.448 198.079 126.047 198.58C125.646 199.081 125.445 199.792 125.445 200.713C125.445 201.62 125.6 202.31 125.91 202.784C126.22 203.254 126.717 203.488 127.4 203.488C127.765 203.488 128.134 203.409 128.508 203.249C128.882 203.085 129.23 202.875 129.554 202.62ZM139.302 204.5H138.023V203.687C137.91 203.764 137.755 203.873 137.559 204.015C137.367 204.151 137.18 204.261 136.998 204.343C136.784 204.448 136.538 204.534 136.26 204.603C135.982 204.675 135.656 204.712 135.282 204.712C134.594 204.712 134.011 204.484 133.532 204.028C133.054 203.573 132.814 202.992 132.814 202.285C132.814 201.706 132.938 201.239 133.184 200.884C133.434 200.524 133.79 200.241 134.25 200.036C134.715 199.831 135.273 199.692 135.925 199.619C136.576 199.546 137.276 199.492 138.023 199.455V199.257C138.023 198.965 137.971 198.724 137.866 198.532C137.766 198.341 137.62 198.19 137.429 198.081C137.246 197.976 137.028 197.906 136.772 197.869C136.517 197.833 136.251 197.814 135.973 197.814C135.635 197.814 135.259 197.86 134.845 197.951C134.43 198.038 134.002 198.165 133.56 198.334H133.491V197.028C133.742 196.96 134.104 196.885 134.578 196.803C135.052 196.721 135.519 196.68 135.979 196.68C136.517 196.68 136.984 196.725 137.381 196.816C137.782 196.903 138.128 197.053 138.42 197.268C138.707 197.477 138.926 197.748 139.076 198.081C139.227 198.414 139.302 198.826 139.302 199.318V204.5ZM138.023 202.62V200.494C137.632 200.517 137.169 200.551 136.636 200.597C136.107 200.642 135.688 200.708 135.378 200.795C135.009 200.9 134.71 201.064 134.482 201.287C134.255 201.506 134.141 201.809 134.141 202.196C134.141 202.634 134.273 202.964 134.537 203.188C134.801 203.406 135.205 203.516 135.747 203.516C136.198 203.516 136.611 203.429 136.984 203.256C137.358 203.078 137.704 202.866 138.023 202.62ZM152.919 204.5H151.634V200.152C151.634 199.824 151.618 199.507 151.586 199.202C151.559 198.897 151.497 198.653 151.401 198.471C151.297 198.275 151.146 198.127 150.95 198.026C150.754 197.926 150.472 197.876 150.103 197.876C149.743 197.876 149.382 197.967 149.022 198.149C148.662 198.327 148.302 198.555 147.942 198.833C147.956 198.938 147.967 199.061 147.977 199.202C147.986 199.339 147.99 199.476 147.99 199.612V204.5H146.705V200.152C146.705 199.815 146.689 199.496 146.657 199.195C146.63 198.89 146.568 198.646 146.473 198.464C146.368 198.268 146.217 198.122 146.021 198.026C145.826 197.926 145.543 197.876 145.174 197.876C144.823 197.876 144.47 197.963 144.114 198.136C143.763 198.309 143.412 198.53 143.062 198.799V204.5H141.776V196.864H143.062V197.712C143.463 197.379 143.861 197.119 144.258 196.933C144.659 196.746 145.085 196.652 145.536 196.652C146.056 196.652 146.495 196.762 146.855 196.98C147.22 197.199 147.491 197.502 147.669 197.89C148.188 197.452 148.662 197.138 149.091 196.946C149.519 196.75 149.977 196.652 150.465 196.652C151.303 196.652 151.921 196.908 152.317 197.418C152.718 197.924 152.919 198.632 152.919 199.544V204.5Z" fill="#333333"/>
<path d="M5 237L12.5 244.5L25 229.5" stroke="#61B857" stroke-width="2" stroke-linecap="round" stroke-linejoin="round"/>
<path d="M47.0439 239.369C47.0439 239.875 46.9482 240.322 46.7568 240.709C46.5654 241.096 46.3079 241.415 45.9844 241.666C45.6016 241.967 45.18 242.181 44.7197 242.309C44.264 242.436 43.6829 242.5 42.9766 242.5H39.3672V232.321H42.3818C43.1247 232.321 43.6807 232.349 44.0498 232.403C44.4189 232.458 44.7721 232.572 45.1094 232.745C45.4831 232.941 45.7542 233.194 45.9229 233.504C46.0915 233.809 46.1758 234.176 46.1758 234.604C46.1758 235.088 46.0527 235.5 45.8066 235.842C45.5605 236.179 45.2324 236.45 44.8223 236.655V236.71C45.5104 236.851 46.0527 237.154 46.4492 237.619C46.8457 238.079 47.0439 238.663 47.0439 239.369ZM44.7676 234.782C44.7676 234.536 44.7266 234.329 44.6445 234.16C44.5625 233.992 44.4303 233.855 44.248 233.75C44.0339 233.627 43.7741 233.552 43.4688 233.524C43.1634 233.493 42.7852 233.477 42.334 233.477H40.7207V236.416H42.4707C42.8945 236.416 43.2318 236.396 43.4824 236.354C43.7331 236.309 43.9655 236.218 44.1797 236.081C44.3939 235.944 44.5443 235.769 44.6309 235.555C44.722 235.336 44.7676 235.078 44.7676 234.782ZM45.6357 239.424C45.6357 239.014 45.5742 238.688 45.4512 238.446C45.3281 238.205 45.1048 238 44.7812 237.831C44.5625 237.717 44.2959 237.644 43.9814 237.612C43.6715 237.576 43.2933 237.558 42.8467 237.558H40.7207V241.345H42.5117C43.1042 241.345 43.5895 241.315 43.9678 241.256C44.346 241.192 44.6559 241.078 44.8975 240.914C45.1527 240.736 45.3395 240.534 45.458 240.306C45.5765 240.078 45.6357 239.784 45.6357 239.424ZM55.3701 238.686C55.3701 239.93 55.0511 240.912 54.4131 241.632C53.7751 242.352 52.9206 242.712 51.8496 242.712C50.7695 242.712 49.9105 242.352 49.2725 241.632C48.639 240.912 48.3223 239.93 48.3223 238.686C48.3223 237.441 48.639 236.459 49.2725 235.739C49.9105 235.015 50.7695 234.652 51.8496 234.652C52.9206 234.652 53.7751 235.015 54.4131 235.739C55.0511 236.459 55.3701 237.441 55.3701 238.686ZM54.0439 238.686C54.0439 237.697 53.8503 236.963 53.4629 236.484C53.0755 236.001 52.5378 235.76 51.8496 235.76C51.1523 235.76 50.61 236.001 50.2227 236.484C49.8398 236.963 49.6484 237.697 49.6484 238.686C49.6484 239.643 49.8421 240.369 50.2295 240.866C50.6169 241.358 51.1569 241.604 51.8496 241.604C52.5332 241.604 53.0687 241.361 53.4561 240.873C53.848 240.381 54.0439 239.652 54.0439 238.686ZM59.7451 233.586H58.2959V232.253H59.7451V233.586ZM59.6631 242.685C59.6631 243.578 59.4352 244.252 58.9795 244.708C58.5238 245.164 57.9131 245.392 57.1475 245.392C56.9652 245.392 56.7236 245.373 56.4229 245.337C56.1266 245.3 55.8783 245.255 55.6777 245.2V243.977H55.7461C55.8737 244.027 56.0446 244.084 56.2588 244.147C56.4775 244.211 56.6895 244.243 56.8945 244.243C57.2227 244.243 57.487 244.198 57.6875 244.106C57.888 244.015 58.0384 243.879 58.1387 243.696C58.2389 243.514 58.3027 243.293 58.3301 243.033C58.362 242.778 58.3779 242.466 58.3779 242.097V235.944H56.7852V234.864H59.6631V242.685ZM68.8027 242.5H67.1826L65.0156 239.567L62.835 242.5H61.3379L64.3184 238.692L61.3652 234.864H62.9854L65.1387 237.749L67.2988 234.864H68.8027L65.8018 238.624L68.8027 242.5ZM76.8213 238.686C76.8213 239.93 76.5023 240.912 75.8643 241.632C75.2262 242.352 74.3717 242.712 73.3008 242.712C72.2207 242.712 71.3617 242.352 70.7236 241.632C70.0902 240.912 69.7734 239.93 69.7734 238.686C69.7734 237.441 70.0902 236.459 70.7236 235.739C71.3617 235.015 72.2207 234.652 73.3008 234.652C74.3717 234.652 75.2262 235.015 75.8643 235.739C76.5023 236.459 76.8213 237.441 76.8213 238.686ZM75.4951 238.686C75.4951 237.697 75.3014 236.963 74.9141 236.484C74.5267 236.001 73.9889 235.76 73.3008 235.76C72.6035 235.76 72.0612 236.001 71.6738 236.484C71.291 236.963 71.0996 237.697 71.0996 238.686C71.0996 239.643 71.2933 240.369 71.6807 240.866C72.068 241.358 72.6081 241.604 73.3008 241.604C73.9844 241.604 74.5199 241.361 74.9072 240.873C75.2992 240.381 75.4951 239.652 75.4951 238.686ZM85.2021 242.5H83.917V238.152C83.917 237.801 83.8965 237.473 83.8555 237.168C83.8145 236.858 83.7393 236.617 83.6299 236.443C83.516 236.252 83.3519 236.111 83.1377 236.02C82.9235 235.924 82.6455 235.876 82.3037 235.876C81.9528 235.876 81.5859 235.963 81.2031 236.136C80.8203 236.309 80.4535 236.53 80.1025 236.799V242.5H78.8174V234.864H80.1025V235.712C80.5036 235.379 80.9183 235.119 81.3467 234.933C81.7751 234.746 82.2148 234.652 82.666 234.652C83.4909 234.652 84.1198 234.901 84.5527 235.397C84.9857 235.894 85.2021 236.61 85.2021 237.544V242.5ZM93.6104 242.5H92.332V241.687C92.2181 241.764 92.0632 241.873 91.8672 242.015C91.6758 242.151 91.4889 242.261 91.3066 242.343C91.0924 242.448 90.8464 242.534 90.5684 242.603C90.2904 242.675 89.9645 242.712 89.5908 242.712C88.9027 242.712 88.3193 242.484 87.8408 242.028C87.3623 241.573 87.123 240.992 87.123 240.285C87.123 239.706 87.2461 239.239 87.4922 238.884C87.7428 238.524 88.0983 238.241 88.5586 238.036C89.0234 237.831 89.5817 237.692 90.2334 237.619C90.8851 237.546 91.5846 237.492 92.332 237.455V237.257C92.332 236.965 92.2796 236.724 92.1748 236.532C92.0745 236.341 91.9287 236.19 91.7373 236.081C91.555 235.976 91.3363 235.906 91.0811 235.869C90.8258 235.833 90.5592 235.814 90.2812 235.814C89.944 235.814 89.568 235.86 89.1533 235.951C88.7386 236.038 88.3102 236.165 87.8682 236.334H87.7998V235.028C88.0505 234.96 88.4128 234.885 88.8867 234.803C89.3607 234.721 89.8278 234.68 90.2881 234.68C90.8258 234.68 91.293 234.725 91.6895 234.816C92.0905 234.903 92.4368 235.053 92.7285 235.268C93.0156 235.477 93.2344 235.748 93.3848 236.081C93.5352 236.414 93.6104 236.826 93.6104 237.318V242.5ZM92.332 240.62V238.494C91.9401 238.517 91.4775 238.551 90.9443 238.597C90.4157 238.642 89.9964 238.708 89.6865 238.795C89.3174 238.9 89.0189 239.064 88.791 239.287C88.5632 239.506 88.4492 239.809 88.4492 240.196C88.4492 240.634 88.5814 240.964 88.8457 241.188C89.11 241.406 89.5133 241.516 90.0557 241.516C90.5068 241.516 90.9193 241.429 91.293 241.256C91.6667 241.078 92.013 240.866 92.332 240.62ZM112.149 242.5H110.864V238.152C110.864 237.824 110.848 237.507 110.816 237.202C110.789 236.897 110.728 236.653 110.632 236.471C110.527 236.275 110.377 236.127 110.181 236.026C109.985 235.926 109.702 235.876 109.333 235.876C108.973 235.876 108.613 235.967 108.253 236.149C107.893 236.327 107.533 236.555 107.173 236.833C107.187 236.938 107.198 237.061 107.207 237.202C107.216 237.339 107.221 237.476 107.221 237.612V242.5H105.936V238.152C105.936 237.815 105.92 237.496 105.888 237.195C105.86 236.89 105.799 236.646 105.703 236.464C105.598 236.268 105.448 236.122 105.252 236.026C105.056 235.926 104.773 235.876 104.404 235.876C104.053 235.876 103.7 235.963 103.345 236.136C102.994 236.309 102.643 236.53 102.292 236.799V242.5H101.007V234.864H102.292V235.712C102.693 235.379 103.092 235.119 103.488 234.933C103.889 234.746 104.315 234.652 104.767 234.652C105.286 234.652 105.726 234.762 106.086 234.98C106.451 235.199 106.722 235.502 106.899 235.89C107.419 235.452 107.893 235.138 108.321 234.946C108.75 234.75 109.208 234.652 109.695 234.652C110.534 234.652 111.151 234.908 111.548 235.418C111.949 235.924 112.149 236.632 112.149 237.544V242.5ZM120.954 242.5H119.669V241.652C119.236 241.994 118.821 242.256 118.425 242.438C118.028 242.621 117.591 242.712 117.112 242.712C116.31 242.712 115.686 242.468 115.239 241.98C114.793 241.488 114.569 240.768 114.569 239.82V234.864H115.854V239.212C115.854 239.599 115.873 239.932 115.909 240.21C115.946 240.483 116.023 240.718 116.142 240.914C116.265 241.115 116.424 241.26 116.62 241.352C116.816 241.443 117.101 241.488 117.475 241.488C117.807 241.488 118.17 241.402 118.562 241.229C118.958 241.055 119.327 240.834 119.669 240.565V234.864H120.954V242.5ZM127.448 242.432C127.207 242.495 126.942 242.548 126.655 242.589C126.373 242.63 126.12 242.65 125.896 242.65C125.117 242.65 124.525 242.441 124.119 242.021C123.714 241.602 123.511 240.93 123.511 240.005V235.944H122.643V234.864H123.511V232.67H124.796V234.864H127.448V235.944H124.796V239.424C124.796 239.825 124.805 240.139 124.823 240.367C124.841 240.59 124.905 240.8 125.015 240.996C125.115 241.178 125.252 241.313 125.425 241.399C125.603 241.481 125.871 241.522 126.231 241.522C126.441 241.522 126.66 241.493 126.888 241.434C127.116 241.37 127.28 241.317 127.38 241.276H127.448V242.432ZM134.94 242.5H133.662V241.687C133.548 241.764 133.393 241.873 133.197 242.015C133.006 242.151 132.819 242.261 132.637 242.343C132.423 242.448 132.176 242.534 131.898 242.603C131.62 242.675 131.295 242.712 130.921 242.712C130.233 242.712 129.649 242.484 129.171 242.028C128.692 241.573 128.453 240.992 128.453 240.285C128.453 239.706 128.576 239.239 128.822 238.884C129.073 238.524 129.428 238.241 129.889 238.036C130.354 237.831 130.912 237.692 131.563 237.619C132.215 237.546 132.915 237.492 133.662 237.455V237.257C133.662 236.965 133.61 236.724 133.505 236.532C133.405 236.341 133.259 236.19 133.067 236.081C132.885 235.976 132.666 235.906 132.411 235.869C132.156 235.833 131.889 235.814 131.611 235.814C131.274 235.814 130.898 235.86 130.483 235.951C130.069 236.038 129.64 236.165 129.198 236.334H129.13V235.028C129.381 234.96 129.743 234.885 130.217 234.803C130.691 234.721 131.158 234.68 131.618 234.68C132.156 234.68 132.623 234.725 133.02 234.816C133.421 234.903 133.767 235.053 134.059 235.268C134.346 235.477 134.564 235.748 134.715 236.081C134.865 236.414 134.94 236.826 134.94 237.318V242.5ZM133.662 240.62V238.494C133.27 238.517 132.808 238.551 132.274 238.597C131.746 238.642 131.326 238.708 131.017 238.795C130.647 238.9 130.349 239.064 130.121 239.287C129.893 239.506 129.779 239.809 129.779 240.196C129.779 240.634 129.911 240.964 130.176 241.188C130.44 241.406 130.843 241.516 131.386 241.516C131.837 241.516 132.249 241.429 132.623 241.256C132.997 241.078 133.343 240.866 133.662 240.62ZM144.025 242.5H142.405L140.238 239.567L138.058 242.5H136.561L139.541 238.692L136.588 234.864H138.208L140.361 237.749L142.521 234.864H144.025L141.024 238.624L144.025 242.5ZM151.634 242.5H150.355V241.687C150.242 241.764 150.087 241.873 149.891 242.015C149.699 242.151 149.512 242.261 149.33 242.343C149.116 242.448 148.87 242.534 148.592 242.603C148.314 242.675 147.988 242.712 147.614 242.712C146.926 242.712 146.343 242.484 145.864 242.028C145.386 241.573 145.146 240.992 145.146 240.285C145.146 239.706 145.27 239.239 145.516 238.884C145.766 238.524 146.122 238.241 146.582 238.036C147.047 237.831 147.605 237.692 148.257 237.619C148.909 237.546 149.608 237.492 150.355 237.455V237.257C150.355 236.965 150.303 236.724 150.198 236.532C150.098 236.341 149.952 236.19 149.761 236.081C149.578 235.976 149.36 235.906 149.104 235.869C148.849 235.833 148.583 235.814 148.305 235.814C147.967 235.814 147.591 235.86 147.177 235.951C146.762 236.038 146.334 236.165 145.892 236.334H145.823V235.028C146.074 234.96 146.436 234.885 146.91 234.803C147.384 234.721 147.851 234.68 148.312 234.68C148.849 234.68 149.316 234.725 149.713 234.816C150.114 234.903 150.46 235.053 150.752 235.268C151.039 235.477 151.258 235.748 151.408 236.081C151.559 236.414 151.634 236.826 151.634 237.318V242.5ZM150.355 240.62V238.494C149.964 238.517 149.501 238.551 148.968 238.597C148.439 238.642 148.02 238.708 147.71 238.795C147.341 238.9 147.042 239.064 146.814 239.287C146.587 239.506 146.473 239.809 146.473 240.196C146.473 240.634 146.605 240.964 146.869 241.188C147.133 241.406 147.537 241.516 148.079 241.516C148.53 241.516 148.943 241.429 149.316 241.256C149.69 241.078 150.036 240.866 150.355 240.62ZM159.563 240.299C159.563 240.996 159.274 241.568 158.695 242.015C158.121 242.461 157.335 242.685 156.337 242.685C155.772 242.685 155.252 242.618 154.778 242.486C154.309 242.35 153.915 242.201 153.596 242.042V240.6H153.664C154.07 240.905 154.521 241.149 155.018 241.331C155.514 241.509 155.991 241.598 156.446 241.598C157.011 241.598 157.453 241.507 157.772 241.324C158.091 241.142 158.251 240.855 158.251 240.463C158.251 240.162 158.164 239.934 157.991 239.779C157.818 239.624 157.485 239.492 156.993 239.383C156.811 239.342 156.572 239.294 156.275 239.239C155.984 239.185 155.717 239.125 155.476 239.062C154.806 238.884 154.329 238.624 154.047 238.282C153.769 237.936 153.63 237.512 153.63 237.011C153.63 236.696 153.694 236.4 153.821 236.122C153.953 235.844 154.152 235.596 154.416 235.377C154.671 235.163 154.995 234.994 155.387 234.871C155.783 234.743 156.225 234.68 156.713 234.68C157.169 234.68 157.629 234.737 158.094 234.851C158.563 234.96 158.953 235.094 159.263 235.254V236.628H159.194C158.866 236.386 158.467 236.184 157.998 236.02C157.529 235.851 157.068 235.767 156.617 235.767C156.148 235.767 155.751 235.858 155.428 236.04C155.104 236.218 154.942 236.484 154.942 236.84C154.942 237.154 155.04 237.391 155.236 237.551C155.428 237.71 155.738 237.84 156.166 237.94C156.403 237.995 156.667 238.05 156.959 238.104C157.255 238.159 157.501 238.209 157.697 238.255C158.294 238.392 158.755 238.626 159.078 238.959C159.402 239.296 159.563 239.743 159.563 240.299ZM166.864 240.299C166.864 240.996 166.575 241.568 165.996 242.015C165.422 242.461 164.636 242.685 163.638 242.685C163.073 242.685 162.553 242.618 162.079 242.486C161.61 242.35 161.215 242.201 160.896 242.042V240.6H160.965C161.37 240.905 161.822 241.149 162.318 241.331C162.815 241.509 163.291 241.598 163.747 241.598C164.312 241.598 164.754 241.507 165.073 241.324C165.392 241.142 165.552 240.855 165.552 240.463C165.552 240.162 165.465 239.934 165.292 239.779C165.119 239.624 164.786 239.492 164.294 239.383C164.112 239.342 163.872 239.294 163.576 239.239C163.285 239.185 163.018 239.125 162.776 239.062C162.106 238.884 161.63 238.624 161.348 238.282C161.07 237.936 160.931 237.512 160.931 237.011C160.931 236.696 160.994 236.4 161.122 236.122C161.254 235.844 161.452 235.596 161.717 235.377C161.972 235.163 162.296 234.994 162.688 234.871C163.084 234.743 163.526 234.68 164.014 234.68C164.469 234.68 164.93 234.737 165.395 234.851C165.864 234.96 166.254 235.094 166.563 235.254V236.628H166.495C166.167 236.386 165.768 236.184 165.299 236.02C164.829 235.851 164.369 235.767 163.918 235.767C163.449 235.767 163.052 235.858 162.729 236.04C162.405 236.218 162.243 236.484 162.243 236.84C162.243 237.154 162.341 237.391 162.537 237.551C162.729 237.71 163.038 237.84 163.467 237.94C163.704 237.995 163.968 238.05 164.26 238.104C164.556 238.159 164.802 238.209 164.998 238.255C165.595 238.392 166.055 238.626 166.379 238.959C166.702 239.296 166.864 239.743 166.864 240.299ZM170.091 233.586H168.642V232.253H170.091V233.586ZM170.009 242.5H168.724V234.864H170.009V242.5ZM178.007 240.299C178.007 240.996 177.717 241.568 177.139 242.015C176.564 242.461 175.778 242.685 174.78 242.685C174.215 242.685 173.696 242.618 173.222 242.486C172.752 242.35 172.358 242.201 172.039 242.042V240.6H172.107C172.513 240.905 172.964 241.149 173.461 241.331C173.958 241.509 174.434 241.598 174.89 241.598C175.455 241.598 175.897 241.507 176.216 241.324C176.535 241.142 176.694 240.855 176.694 240.463C176.694 240.162 176.608 239.934 176.435 239.779C176.261 239.624 175.929 239.492 175.437 239.383C175.254 239.342 175.015 239.294 174.719 239.239C174.427 239.185 174.16 239.125 173.919 239.062C173.249 238.884 172.773 238.624 172.49 238.282C172.212 237.936 172.073 237.512 172.073 237.011C172.073 236.696 172.137 236.4 172.265 236.122C172.397 235.844 172.595 235.596 172.859 235.377C173.115 235.163 173.438 234.994 173.83 234.871C174.227 234.743 174.669 234.68 175.156 234.68C175.612 234.68 176.072 234.737 176.537 234.851C177.007 234.96 177.396 235.094 177.706 235.254V236.628H177.638C177.31 236.386 176.911 236.184 176.441 236.02C175.972 235.851 175.512 235.767 175.061 235.767C174.591 235.767 174.195 235.858 173.871 236.04C173.548 236.218 173.386 236.484 173.386 236.84C173.386 237.154 173.484 237.391 173.68 237.551C173.871 237.71 174.181 237.84 174.609 237.94C174.846 237.995 175.111 238.05 175.402 238.104C175.699 238.159 175.945 238.209 176.141 238.255C176.738 238.392 177.198 238.626 177.521 238.959C177.845 239.296 178.007 239.743 178.007 240.299ZM181.151 242.5H179.866V231.863H181.151V242.5ZM189.628 242.5H188.35V241.687C188.236 241.764 188.081 241.873 187.885 242.015C187.693 242.151 187.507 242.261 187.324 242.343C187.11 242.448 186.864 242.534 186.586 242.603C186.308 242.675 185.982 242.712 185.608 242.712C184.92 242.712 184.337 242.484 183.858 242.028C183.38 241.573 183.141 240.992 183.141 240.285C183.141 239.706 183.264 239.239 183.51 238.884C183.76 238.524 184.116 238.241 184.576 238.036C185.041 237.831 185.599 237.692 186.251 237.619C186.903 237.546 187.602 237.492 188.35 237.455V237.257C188.35 236.965 188.297 236.724 188.192 236.532C188.092 236.341 187.946 236.19 187.755 236.081C187.573 235.976 187.354 235.906 187.099 235.869C186.843 235.833 186.577 235.814 186.299 235.814C185.962 235.814 185.586 235.86 185.171 235.951C184.756 236.038 184.328 236.165 183.886 236.334H183.817V235.028C184.068 234.96 184.43 234.885 184.904 234.803C185.378 234.721 185.845 234.68 186.306 234.68C186.843 234.68 187.311 234.725 187.707 234.816C188.108 234.903 188.454 235.053 188.746 235.268C189.033 235.477 189.252 235.748 189.402 236.081C189.553 236.414 189.628 236.826 189.628 237.318V242.5ZM188.35 240.62V238.494C187.958 238.517 187.495 238.551 186.962 238.597C186.433 238.642 186.014 238.708 185.704 238.795C185.335 238.9 185.036 239.064 184.809 239.287C184.581 239.506 184.467 239.809 184.467 240.196C184.467 240.634 184.599 240.964 184.863 241.188C185.128 241.406 185.531 241.516 186.073 241.516C186.524 241.516 186.937 241.429 187.311 241.256C187.684 241.078 188.031 240.866 188.35 240.62ZM196.867 236.266H196.799C196.607 236.22 196.421 236.188 196.238 236.17C196.061 236.147 195.849 236.136 195.603 236.136C195.206 236.136 194.823 236.225 194.454 236.402C194.085 236.576 193.729 236.801 193.388 237.079V242.5H192.103V234.864H193.388V235.992C193.898 235.582 194.347 235.293 194.734 235.124C195.126 234.951 195.525 234.864 195.931 234.864C196.154 234.864 196.316 234.871 196.416 234.885C196.516 234.894 196.667 234.914 196.867 234.946V236.266ZM199.458 233.586H198.009V232.253H199.458V233.586ZM199.376 242.5H198.091V234.864H199.376V242.5ZM213.772 242.5H212.077L209.015 239.157L208.181 239.95V242.5H206.896V231.863H208.181V238.686L211.893 234.864H213.513L209.965 238.392L213.772 242.5ZM221.456 242.5H220.171V241.652C219.738 241.994 219.323 242.256 218.927 242.438C218.53 242.621 218.093 242.712 217.614 242.712C216.812 242.712 216.188 242.468 215.741 241.98C215.295 241.488 215.071 240.768 215.071 239.82V234.864H216.356V239.212C216.356 239.599 216.375 239.932 216.411 240.21C216.448 240.483 216.525 240.718 216.644 240.914C216.767 241.115 216.926 241.26 217.122 241.352C217.318 241.443 217.603 241.488 217.977 241.488C218.309 241.488 218.672 241.402 219.063 241.229C219.46 241.055 219.829 240.834 220.171 240.565V234.864H221.456V242.5ZM228.75 236.266H228.682C228.49 236.22 228.303 236.188 228.121 236.17C227.943 236.147 227.731 236.136 227.485 236.136C227.089 236.136 226.706 236.225 226.337 236.402C225.968 236.576 225.612 236.801 225.271 237.079V242.5H223.985V234.864H225.271V235.992C225.781 235.582 226.23 235.293 226.617 235.124C227.009 234.951 227.408 234.864 227.813 234.864C228.037 234.864 228.199 234.871 228.299 234.885C228.399 234.894 228.549 234.914 228.75 234.946V236.266ZM235.415 240.299C235.415 240.996 235.126 241.568 234.547 242.015C233.973 242.461 233.187 242.685 232.188 242.685C231.623 242.685 231.104 242.618 230.63 242.486C230.16 242.35 229.766 242.201 229.447 242.042V240.6H229.516C229.921 240.905 230.372 241.149 230.869 241.331C231.366 241.509 231.842 241.598 232.298 241.598C232.863 241.598 233.305 241.507 233.624 241.324C233.943 241.142 234.103 240.855 234.103 240.463C234.103 240.162 234.016 239.934 233.843 239.779C233.67 239.624 233.337 239.492 232.845 239.383C232.662 239.342 232.423 239.294 232.127 239.239C231.835 239.185 231.569 239.125 231.327 239.062C230.657 238.884 230.181 238.624 229.898 238.282C229.62 237.936 229.481 237.512 229.481 237.011C229.481 236.696 229.545 236.4 229.673 236.122C229.805 235.844 230.003 235.596 230.268 235.377C230.523 235.163 230.846 234.994 231.238 234.871C231.635 234.743 232.077 234.68 232.564 234.68C233.02 234.68 233.48 234.737 233.945 234.851C234.415 234.96 234.804 235.094 235.114 235.254V236.628H235.046C234.718 236.386 234.319 236.184 233.85 236.02C233.38 235.851 232.92 235.767 232.469 235.767C231.999 235.767 231.603 235.858 231.279 236.04C230.956 236.218 230.794 236.484 230.794 236.84C230.794 237.154 230.892 237.391 231.088 237.551C231.279 237.71 231.589 237.84 232.018 237.94C232.255 237.995 232.519 238.05 232.811 238.104C233.107 238.159 233.353 238.209 233.549 238.255C234.146 238.392 234.606 238.626 234.93 238.959C235.253 239.296 235.415 239.743 235.415 240.299ZM238.642 233.586H237.192V232.253H238.642V233.586ZM238.56 242.5H237.274V234.864H238.56V242.5Z" fill="#333333"/>
</svg>
