<svg width="264" height="256" viewBox="0 0 264 256" fill="none" xmlns="http://www.w3.org/2000/svg">
<path d="M11.8066 7.13867C12.4577 7.77018 12.9557 8.53516 13.3008 9.43359C13.6523 10.332 13.8281 11.3607 13.8281 12.5195C13.8281 13.763 13.6361 14.8828 13.252 15.8789C12.8678 16.8685 12.3405 17.679 11.6699 18.3105C10.9993 18.9421 10.1921 19.4303 9.24805 19.7754C8.31055 20.1139 7.26237 20.2832 6.10352 20.2832C5.48503 20.2832 4.90885 20.2409 4.375 20.1562C3.84766 20.0781 3.3724 19.9805 2.94922 19.8633C2.5 19.7396 2.0931 19.6126 1.72852 19.4824C1.36393 19.3457 1.08724 19.2383 0.898438 19.1602V15.8691H1.25977C1.45508 16.0319 1.69271 16.2142 1.97266 16.416C2.2526 16.6113 2.55859 16.7904 2.89062 16.9531C3.28776 17.1419 3.71094 17.3014 4.16016 17.4316C4.60938 17.5553 5.14323 17.6172 5.76172 17.6172C6.19792 17.6172 6.66341 17.5586 7.1582 17.4414C7.65299 17.3177 8.0957 17.1126 8.48633 16.8262C8.89648 16.5332 9.24805 16.1426 9.54102 15.6543C9.84049 15.166 10.0293 14.5443 10.1074 13.7891H3.63281V11.0156H10.0195C9.91536 10.4297 9.72982 9.93815 9.46289 9.54102C9.19596 9.14388 8.87695 8.81836 8.50586 8.56445C8.13477 8.31055 7.72786 8.12826 7.28516 8.01758C6.84896 7.90039 6.41276 7.8418 5.97656 7.8418C5.4362 7.8418 4.9349 7.9069 4.47266 8.03711C4.01693 8.16081 3.58724 8.32031 3.18359 8.51562C2.81901 8.69792 2.49349 8.89323 2.20703 9.10156C1.92708 9.3099 1.69271 9.48568 1.50391 9.62891H1.09375V6.30859C1.45182 6.15234 1.78711 6.01888 2.09961 5.9082C2.41211 5.79102 2.81576 5.66732 3.31055 5.53711C3.70768 5.43294 4.17643 5.34831 4.7168 5.2832C5.25716 5.21159 5.81055 5.17578 6.37695 5.17578C7.49674 5.17578 8.51562 5.3418 9.43359 5.67383C10.3516 6.00586 11.1426 6.49414 11.8066 7.13867ZM28.1445 20H24.082L21.1426 15.6543H20.0195V20H16.5039V9.0332H20.0195V13.4375C20.6706 13.431 21.1198 13.3626 21.3672 13.2324C21.6146 13.0957 21.901 12.7409 22.2266 12.168C22.3242 11.9987 22.4414 11.7806 22.5781 11.5137C22.7148 11.2467 22.8223 11.0417 22.9004 10.8984C23.2585 10.2604 23.6751 9.78841 24.1504 9.48242C24.6322 9.16992 25.2995 9.01367 26.1523 9.01367C26.3997 9.01367 26.6602 9.01693 26.9336 9.02344C27.2135 9.02995 27.4023 9.0332 27.5 9.0332V11.9629H26.543C26.1523 11.9629 25.8398 12.0605 25.6055 12.2559C25.3776 12.4512 25.179 12.7409 25.0098 13.125C24.8665 13.444 24.7363 13.6979 24.6191 13.8867C24.502 14.069 24.3522 14.2253 24.1699 14.3555L28.1445 20ZM35.6348 20.293C34.6777 20.293 33.8021 20.179 33.0078 19.9512C32.2201 19.7233 31.5332 19.3717 30.9473 18.8965C30.3678 18.4212 29.9186 17.8223 29.5996 17.0996C29.2806 16.377 29.1211 15.5306 29.1211 14.5605C29.1211 13.5384 29.2904 12.6562 29.6289 11.9141C29.974 11.1719 30.4525 10.5566 31.0645 10.0684C31.6569 9.60612 32.3405 9.26758 33.1152 9.05273C33.89 8.83789 34.694 8.73047 35.5273 8.73047C36.276 8.73047 36.9661 8.81185 37.5977 8.97461C38.2292 9.13737 38.8184 9.34896 39.3652 9.60938V12.6074H38.8672C38.7305 12.4902 38.5645 12.3535 38.3691 12.1973C38.1803 12.041 37.946 11.888 37.666 11.7383C37.3991 11.5951 37.1061 11.4779 36.7871 11.3867C36.4681 11.2891 36.097 11.2402 35.6738 11.2402C34.7363 11.2402 34.0137 11.5397 33.5059 12.1387C33.0046 12.7311 32.7539 13.5384 32.7539 14.5605C32.7539 15.6152 33.0111 16.416 33.5254 16.9629C34.0462 17.5098 34.7819 17.7832 35.7324 17.7832C36.1751 17.7832 36.5723 17.7344 36.9238 17.6367C37.2819 17.5326 37.5781 17.4121 37.8125 17.2754C38.0339 17.1452 38.2292 17.0085 38.3984 16.8652C38.5677 16.722 38.724 16.582 38.8672 16.4453H39.3652V19.4434C38.8118 19.7038 38.2324 19.9089 37.627 20.0586C37.028 20.2148 36.3639 20.293 35.6348 20.293ZM52.9688 20H49.4531V11.416H45.4102V20H41.8945V9.0332H52.9688V20ZM67.5 14.5215C67.5 16.3249 66.9727 17.7474 65.918 18.7891C64.8698 19.8242 63.3952 20.3418 61.4941 20.3418C59.5931 20.3418 58.1152 19.8242 57.0605 18.7891C56.0124 17.7474 55.4883 16.3249 55.4883 14.5215C55.4883 12.7051 56.0156 11.2793 57.0703 10.2441C58.1315 9.20898 59.6061 8.69141 61.4941 8.69141C63.4082 8.69141 64.8861 9.21224 65.9277 10.2539C66.9759 11.2956 67.5 12.7181 67.5 14.5215ZM63.1738 17.1875C63.4017 16.9076 63.571 16.5723 63.6816 16.1816C63.7988 15.7845 63.8574 15.2376 63.8574 14.541C63.8574 13.8965 63.7988 13.3561 63.6816 12.9199C63.5645 12.4837 63.4017 12.1354 63.1934 11.875C62.985 11.6081 62.7344 11.4193 62.4414 11.3086C62.1484 11.1979 61.8327 11.1426 61.4941 11.1426C61.1556 11.1426 60.8529 11.1882 60.5859 11.2793C60.3255 11.3704 60.0749 11.5527 59.834 11.8262C59.6191 12.0801 59.4466 12.4284 59.3164 12.8711C59.1927 13.3138 59.1309 13.8704 59.1309 14.541C59.1309 15.14 59.1862 15.6608 59.2969 16.1035C59.4076 16.5397 59.5703 16.8913 59.7852 17.1582C59.9935 17.4121 60.2409 17.5977 60.5273 17.7148C60.8203 17.832 61.1523 17.8906 61.5234 17.8906C61.8424 17.8906 62.1452 17.8385 62.4316 17.7344C62.7246 17.6237 62.972 17.4414 63.1738 17.1875ZM81.4648 14.3652C81.4648 15.2702 81.3249 16.0938 81.0449 16.8359C80.7715 17.5781 80.4102 18.1901 79.9609 18.6719C79.4922 19.1797 78.9616 19.5638 78.3691 19.8242C77.7767 20.0846 77.1419 20.2148 76.4648 20.2148C75.8398 20.2148 75.3092 20.1465 74.873 20.0098C74.4368 19.8796 73.9909 19.694 73.5352 19.4531V24.0234H70.0195V9.0332H73.5352V10.1758C74.0755 9.74609 74.6257 9.39779 75.1855 9.13086C75.752 8.86393 76.403 8.73047 77.1387 8.73047C78.5059 8.73047 79.5671 9.23177 80.3223 10.2344C81.084 11.237 81.4648 12.6139 81.4648 14.3652ZM77.8418 14.4336C77.8418 13.3659 77.6595 12.5911 77.2949 12.1094C76.9303 11.6276 76.3542 11.3867 75.5664 11.3867C75.2344 11.3867 74.8926 11.4388 74.541 11.543C74.1895 11.6406 73.8542 11.7839 73.5352 11.9727V17.4902C73.7695 17.5814 74.0202 17.64 74.2871 17.666C74.554 17.6921 74.8177 17.7051 75.0781 17.7051C76.0091 17.7051 76.7025 17.4349 77.1582 16.8945C77.6139 16.3477 77.8418 15.5273 77.8418 14.4336ZM92.9492 11.416H89.4531V20H85.9375V11.416H82.4414V9.0332H92.9492V11.416Z" fill="#333333"/>
<path d="M5 47L12.5 54.5L25 39.5" stroke="#61B857" stroke-width="2" stroke-linecap="round" stroke-linejoin="round"/>
<path d="M45.6631 43.4492C46.1006 43.8867 46.4378 44.429 46.6748 45.0762C46.9118 45.7233 47.0303 46.4889 47.0303 47.373C47.0303 48.1569 46.9095 48.8792 46.668 49.54C46.431 50.1963 46.0869 50.7591 45.6357 51.2285C45.1709 51.7116 44.6263 52.0762 44.002 52.3223C43.3822 52.5638 42.7008 52.6846 41.958 52.6846C41.3154 52.6846 40.7048 52.623 40.126 52.5C39.5472 52.377 39.0596 52.2311 38.6631 52.0625V50.5654H38.7725C39.1416 50.8617 39.6064 51.0986 40.167 51.2764C40.7321 51.4495 41.3359 51.5361 41.9785 51.5361C42.5391 51.5361 43.0518 51.4382 43.5166 51.2422C43.9814 51.0417 44.3688 50.7705 44.6787 50.4287C45.0068 50.0641 45.2529 49.654 45.417 49.1982C45.5856 48.738 45.6699 48.2161 45.6699 47.6328H40.1123V46.4502H45.6016C45.5378 45.9079 45.401 45.4385 45.1914 45.042C44.9818 44.641 44.7152 44.3105 44.3916 44.0508C44.068 43.791 43.7012 43.5996 43.291 43.4766C42.8809 43.349 42.4434 43.2852 41.9785 43.2852C41.3542 43.2852 40.7686 43.374 40.2217 43.5518C39.6748 43.7249 39.2031 43.9642 38.8066 44.2695H38.6904V42.7656C39.1143 42.5879 39.6156 42.4398 40.1943 42.3213C40.7731 42.1982 41.3656 42.1367 41.9717 42.1367C42.7555 42.1367 43.4551 42.2461 44.0703 42.4648C44.6901 42.6836 45.221 43.0117 45.6631 43.4492ZM55.9717 52.5H54.29L51.1182 49H50.4209V52.5H49.1357V44.8643H50.4209V48.1592C50.8447 48.1592 51.1865 48.084 51.4463 47.9336C51.7061 47.7786 51.9271 47.5326 52.1094 47.1953C52.1732 47.0723 52.2347 46.9424 52.2939 46.8057C52.3577 46.6644 52.4193 46.5299 52.4785 46.4023C52.7155 45.8874 53.0117 45.5023 53.3672 45.2471C53.7227 44.9919 54.2331 44.8643 54.8984 44.8643H55.4863V45.9717H54.9189C54.5589 45.9717 54.2764 46.0492 54.0713 46.2041C53.8708 46.3545 53.6885 46.6211 53.5244 47.0039C53.3421 47.4323 53.1484 47.7536 52.9434 47.9678C52.7428 48.1774 52.5286 48.3369 52.3008 48.4463L55.9717 52.5ZM63.0811 52.0215C62.557 52.2676 62.1058 52.4362 61.7275 52.5273C61.3538 52.623 60.9801 52.6709 60.6064 52.6709C60.0505 52.6709 59.54 52.5911 59.0752 52.4316C58.6104 52.2676 58.2116 52.0215 57.8789 51.6934C57.5462 51.3652 57.2865 50.9505 57.0996 50.4492C56.9173 49.9479 56.8262 49.3623 56.8262 48.6924C56.8262 47.4756 57.1634 46.5049 57.8379 45.7803C58.5124 45.0511 59.4352 44.6865 60.6064 44.6865C61.0485 44.6865 61.4814 44.748 61.9053 44.8711C62.3337 44.9941 62.7256 45.1445 63.0811 45.3223V46.751H63.0059C62.582 46.4274 62.1628 46.1882 61.748 46.0332C61.3379 45.8783 60.9391 45.8008 60.5518 45.8008C59.7907 45.8008 59.2005 46.056 58.7812 46.5664C58.3665 47.0768 58.1592 47.7855 58.1592 48.6924C58.1592 49.5993 58.3665 50.3034 58.7812 50.8047C59.196 51.306 59.7861 51.5566 60.5518 51.5566C60.8206 51.5566 61.0872 51.5225 61.3516 51.4541C61.6204 51.3857 61.8643 51.2969 62.083 51.1875C62.2562 51.1009 62.4339 50.9984 62.6162 50.8799C62.8031 50.7568 62.9329 50.6657 63.0059 50.6064H63.0811V52.0215ZM71.2363 52.5H69.9512V45.9717H66.1299V52.5H64.8447V44.8643H71.2363V52.5ZM80.2803 48.6855C80.2803 49.9297 79.9613 50.9118 79.3232 51.6318C78.6852 52.3519 77.8307 52.7119 76.7598 52.7119C75.6797 52.7119 74.8206 52.3519 74.1826 51.6318C73.5492 50.9118 73.2324 49.9297 73.2324 48.6855C73.2324 47.4414 73.5492 46.4593 74.1826 45.7393C74.8206 45.0146 75.6797 44.6523 76.7598 44.6523C77.8307 44.6523 78.6852 45.0146 79.3232 45.7393C79.9613 46.4593 80.2803 47.4414 80.2803 48.6855ZM78.9541 48.6855C78.9541 47.6966 78.7604 46.9629 78.373 46.4844C77.9857 46.0013 77.4479 45.7598 76.7598 45.7598C76.0625 45.7598 75.5202 46.0013 75.1328 46.4844C74.75 46.9629 74.5586 47.6966 74.5586 48.6855C74.5586 49.6426 74.7523 50.3695 75.1396 50.8662C75.527 51.3584 76.0671 51.6045 76.7598 51.6045C77.4434 51.6045 77.9788 51.3607 78.3662 50.873C78.7581 50.3809 78.9541 49.6517 78.9541 48.6855ZM88.9961 48.5898C88.9961 49.2096 88.9072 49.777 88.7295 50.292C88.5518 50.8024 88.3011 51.2354 87.9775 51.5908C87.6768 51.9281 87.3213 52.1901 86.9111 52.377C86.5055 52.5592 86.0749 52.6504 85.6191 52.6504C85.2227 52.6504 84.8626 52.6071 84.5391 52.5205C84.2201 52.4339 83.8942 52.2995 83.5615 52.1172V55.3164H82.2764V44.8643H83.5615V45.6641C83.9033 45.377 84.2861 45.1377 84.71 44.9463C85.1383 44.7503 85.5941 44.6523 86.0771 44.6523C86.9977 44.6523 87.7132 45.001 88.2236 45.6982C88.7386 46.391 88.9961 47.3548 88.9961 48.5898ZM87.6699 48.624C87.6699 47.7035 87.5127 47.0153 87.1982 46.5596C86.8838 46.1038 86.4007 45.876 85.749 45.876C85.3799 45.876 85.0085 45.9557 84.6348 46.1152C84.2611 46.2747 83.9033 46.4844 83.5615 46.7441V51.0713C83.9261 51.2354 84.2383 51.347 84.498 51.4062C84.7624 51.4655 85.0609 51.4951 85.3936 51.4951C86.109 51.4951 86.6673 51.2536 87.0684 50.7705C87.4694 50.2874 87.6699 49.5719 87.6699 48.624ZM96.6113 45.9922H93.8496V52.5H92.5645V45.9922H89.8027V44.8643H96.6113V45.9922ZM110.652 49.3486C110.652 49.8408 110.554 50.2874 110.358 50.6885C110.167 51.0895 109.91 51.4154 109.586 51.666C109.203 51.9668 108.793 52.181 108.355 52.3086C107.918 52.4362 107.353 52.5 106.66 52.5H102.969V42.3213H109.784V43.5244H104.322V46.3135H106.701C107.394 46.3135 107.959 46.3545 108.396 46.4365C108.834 46.514 109.246 46.7031 109.634 47.0039C109.98 47.2728 110.235 47.6055 110.399 48.002C110.568 48.3984 110.652 48.8473 110.652 49.3486ZM109.237 49.376C109.237 49.0342 109.18 48.7334 109.066 48.4736C108.952 48.2139 108.775 48.0042 108.533 47.8447C108.283 47.6761 107.993 47.5736 107.665 47.5371C107.337 47.5007 106.874 47.4824 106.277 47.4824H104.322V51.3447H106.243C106.849 51.3447 107.314 51.3151 107.638 51.2559C107.966 51.1966 108.253 51.0827 108.499 50.9141C108.754 50.7363 108.941 50.529 109.06 50.292C109.178 50.0505 109.237 49.7451 109.237 49.376ZM118.972 48.6855C118.972 49.9297 118.653 50.9118 118.015 51.6318C117.377 52.3519 116.522 52.7119 115.451 52.7119C114.371 52.7119 113.512 52.3519 112.874 51.6318C112.241 50.9118 111.924 49.9297 111.924 48.6855C111.924 47.4414 112.241 46.4593 112.874 45.7393C113.512 45.0146 114.371 44.6523 115.451 44.6523C116.522 44.6523 117.377 45.0146 118.015 45.7393C118.653 46.4593 118.972 47.4414 118.972 48.6855ZM117.646 48.6855C117.646 47.6966 117.452 46.9629 117.064 46.4844C116.677 46.0013 116.139 45.7598 115.451 45.7598C114.754 45.7598 114.212 46.0013 113.824 46.4844C113.441 46.9629 113.25 47.6966 113.25 48.6855C113.25 49.6426 113.444 50.3695 113.831 50.8662C114.218 51.3584 114.758 51.6045 115.451 51.6045C116.135 51.6045 116.67 51.3607 117.058 50.873C117.45 50.3809 117.646 49.6517 117.646 48.6855ZM129.396 48.6855C129.396 47.7057 129.207 46.9743 128.829 46.4912C128.451 46.0036 127.927 45.7598 127.257 45.7598C126.56 45.7598 126.026 46.015 125.657 46.5254C125.293 47.0312 125.11 47.7513 125.11 48.6855C125.11 49.6517 125.302 50.3809 125.685 50.873C126.067 51.3607 126.591 51.6045 127.257 51.6045C127.922 51.6045 128.444 51.363 128.822 50.8799C129.205 50.3923 129.396 49.6608 129.396 48.6855ZM123.839 49.041H122.253V52.5H120.968V44.8643H122.253V47.9609H123.873C123.987 46.9082 124.354 46.0947 124.974 45.5205C125.598 44.9417 126.364 44.6523 127.271 44.6523C128.323 44.6523 129.162 45.0124 129.786 45.7324C130.41 46.4525 130.723 47.4368 130.723 48.6855C130.723 49.9206 130.415 50.9004 129.8 51.625C129.185 52.3496 128.341 52.7119 127.271 52.7119C126.259 52.7119 125.448 52.3838 124.837 51.7275C124.231 51.0713 123.898 50.1758 123.839 49.041ZM139.104 52.5H137.818V49.0615H133.997V52.5H132.712V44.8643H133.997V47.9541H137.818V44.8643H139.104V52.5ZM147.587 52.5H146.302V49.5674C145.887 49.695 145.491 49.7975 145.112 49.875C144.734 49.9525 144.322 49.9912 143.875 49.9912C143.055 49.9912 142.428 49.7907 141.995 49.3896C141.562 48.984 141.346 48.4007 141.346 47.6396V44.8643H142.631V46.9834C142.631 47.2751 142.649 47.5371 142.686 47.7695C142.722 47.9974 142.799 48.1956 142.918 48.3643C143.036 48.5283 143.203 48.6536 143.417 48.7402C143.631 48.8268 143.93 48.8701 144.312 48.8701C144.627 48.8701 144.969 48.8405 145.338 48.7812C145.707 48.7174 146.028 48.6445 146.302 48.5625V44.8643H147.587V52.5ZM156.05 52.5H154.771V51.6865C154.658 51.764 154.503 51.8734 154.307 52.0146C154.115 52.1514 153.928 52.2607 153.746 52.3428C153.532 52.4476 153.286 52.5342 153.008 52.6025C152.73 52.6755 152.404 52.7119 152.03 52.7119C151.342 52.7119 150.759 52.484 150.28 52.0283C149.802 51.5726 149.562 50.9915 149.562 50.2852C149.562 49.7064 149.686 49.2393 149.932 48.8838C150.182 48.5238 150.538 48.2412 150.998 48.0361C151.463 47.8311 152.021 47.6921 152.673 47.6191C153.325 47.5462 154.024 47.4915 154.771 47.4551V47.2568C154.771 46.9652 154.719 46.7236 154.614 46.5322C154.514 46.3408 154.368 46.1904 154.177 46.0811C153.994 45.9762 153.776 45.9056 153.521 45.8691C153.265 45.8327 152.999 45.8145 152.721 45.8145C152.383 45.8145 152.007 45.86 151.593 45.9512C151.178 46.0378 150.75 46.1654 150.308 46.334H150.239V45.0283C150.49 44.96 150.852 44.8848 151.326 44.8027C151.8 44.7207 152.267 44.6797 152.728 44.6797C153.265 44.6797 153.732 44.7253 154.129 44.8164C154.53 44.903 154.876 45.0534 155.168 45.2676C155.455 45.4772 155.674 45.7484 155.824 46.0811C155.975 46.4137 156.05 46.8262 156.05 47.3184V52.5ZM154.771 50.6201V48.4941C154.38 48.5169 153.917 48.5511 153.384 48.5967C152.855 48.6423 152.436 48.7083 152.126 48.7949C151.757 48.8997 151.458 49.0638 151.23 49.2871C151.003 49.5059 150.889 49.8089 150.889 50.1963C150.889 50.6338 151.021 50.9642 151.285 51.1875C151.549 51.4062 151.953 51.5156 152.495 51.5156C152.946 51.5156 153.359 51.429 153.732 51.2559C154.106 51.0781 154.452 50.8662 154.771 50.6201ZM171.731 52.5H169.995L165.859 47.8584H164.937V52.5H163.583V42.3213H164.937V46.8877C165.169 46.8831 165.388 46.8604 165.593 46.8193C165.798 46.7783 165.992 46.7008 166.174 46.5869C166.356 46.4821 166.536 46.334 166.714 46.1426C166.892 45.9466 167.049 45.7074 167.186 45.4248C167.245 45.3018 167.313 45.1468 167.391 44.96C167.473 44.7731 167.555 44.5771 167.637 44.3721C167.951 43.6156 168.318 43.0846 168.737 42.7793C169.161 42.474 169.783 42.3213 170.604 42.3213H171.144V43.5312H170.576C170.262 43.5312 170.016 43.5609 169.838 43.6201C169.66 43.6748 169.501 43.7682 169.359 43.9004C169.227 44.0189 169.111 44.1784 169.011 44.3789C168.915 44.5794 168.815 44.8141 168.71 45.083C168.473 45.6846 168.231 46.1266 167.985 46.4092C167.744 46.6917 167.418 46.9378 167.008 47.1475L171.731 52.5ZM179.661 48.6855C179.661 49.9297 179.342 50.9118 178.704 51.6318C178.066 52.3519 177.212 52.7119 176.141 52.7119C175.061 52.7119 174.201 52.3519 173.563 51.6318C172.93 50.9118 172.613 49.9297 172.613 48.6855C172.613 47.4414 172.93 46.4593 173.563 45.7393C174.201 45.0146 175.061 44.6523 176.141 44.6523C177.212 44.6523 178.066 45.0146 178.704 45.7393C179.342 46.4593 179.661 47.4414 179.661 48.6855ZM178.335 48.6855C178.335 47.6966 178.141 46.9629 177.754 46.4844C177.367 46.0013 176.829 45.7598 176.141 45.7598C175.443 45.7598 174.901 46.0013 174.514 46.4844C174.131 46.9629 173.939 47.6966 173.939 48.6855C173.939 49.6426 174.133 50.3695 174.521 50.8662C174.908 51.3584 175.448 51.6045 176.141 51.6045C176.824 51.6045 177.36 51.3607 177.747 50.873C178.139 50.3809 178.335 49.6517 178.335 48.6855ZM188.049 52.5H186.764V49.0615H182.942V52.5H181.657V44.8643H182.942V47.9541H186.764V44.8643H188.049V52.5ZM196.3 52.0215C195.776 52.2676 195.325 52.4362 194.946 52.5273C194.573 52.623 194.199 52.6709 193.825 52.6709C193.269 52.6709 192.759 52.5911 192.294 52.4316C191.829 52.2676 191.43 52.0215 191.098 51.6934C190.765 51.3652 190.505 50.9505 190.318 50.4492C190.136 49.9479 190.045 49.3623 190.045 48.6924C190.045 47.4756 190.382 46.5049 191.057 45.7803C191.731 45.0511 192.654 44.6865 193.825 44.6865C194.267 44.6865 194.7 44.748 195.124 44.8711C195.552 44.9941 195.944 45.1445 196.3 45.3223V46.751H196.225C195.801 46.4274 195.382 46.1882 194.967 46.0332C194.557 45.8783 194.158 45.8008 193.771 45.8008C193.009 45.8008 192.419 46.056 192 46.5664C191.585 47.0768 191.378 47.7855 191.378 48.6924C191.378 49.5993 191.585 50.3034 192 50.8047C192.415 51.306 193.005 51.5566 193.771 51.5566C194.039 51.5566 194.306 51.5225 194.57 51.4541C194.839 51.3857 195.083 51.2969 195.302 51.1875C195.475 51.1009 195.653 50.9984 195.835 50.8799C196.022 50.7568 196.152 50.6657 196.225 50.6064H196.3V52.0215ZM204.667 44.8643L200.21 55.3164H198.836L200.258 52.1309L197.216 44.8643H198.61L200.955 50.5244L203.32 44.8643H204.667ZM212.508 52.5H211.223V45.9443H208.372C208.358 46.3226 208.345 46.6872 208.331 47.0381C208.317 47.389 208.304 47.7057 208.29 47.9883C208.258 48.7493 208.206 49.3577 208.133 49.8135C208.06 50.2646 207.964 50.6406 207.846 50.9414C207.736 51.224 207.613 51.4541 207.477 51.6318C207.344 51.805 207.201 51.9622 207.046 52.1035C206.891 52.2402 206.718 52.3428 206.526 52.4111C206.34 52.4795 206.134 52.5137 205.911 52.5137C205.834 52.5137 205.72 52.5114 205.569 52.5068C205.424 52.5023 205.328 52.5 205.282 52.5V51.3789H205.351C205.387 51.3789 205.439 51.3812 205.508 51.3857C205.576 51.3903 205.633 51.3926 205.679 51.3926C205.788 51.3926 205.9 51.3766 206.014 51.3447C206.132 51.3128 206.232 51.2536 206.314 51.167C206.547 50.9391 206.734 50.554 206.875 50.0117C207.016 49.4694 207.11 48.6855 207.155 47.6602C207.174 47.2865 207.189 46.8444 207.203 46.334C207.221 45.819 207.237 45.3291 207.251 44.8643H212.508V52.5ZM219.815 50.1553C219.815 49.9229 219.774 49.7201 219.692 49.5469C219.615 49.3691 219.485 49.2256 219.303 49.1162C219.111 49.0023 218.893 48.9339 218.646 48.9111C218.405 48.8883 218.056 48.877 217.601 48.877H216.329V51.4746H217.573C218.029 51.4746 218.382 51.4564 218.633 51.4199C218.883 51.3789 219.1 51.3037 219.282 51.1943C219.469 51.0758 219.604 50.9368 219.686 50.7773C219.772 50.6133 219.815 50.4059 219.815 50.1553ZM221.142 50.1348C221.142 50.5039 221.066 50.8389 220.916 51.1396C220.77 51.4404 220.57 51.6842 220.314 51.8711C220.014 52.099 219.692 52.2607 219.351 52.3564C219.009 52.4521 218.569 52.5 218.031 52.5H215.044V44.8643H216.329V47.8379H218.065C218.64 47.8379 219.084 47.8675 219.398 47.9268C219.717 47.986 220.034 48.1318 220.349 48.3643C220.613 48.5602 220.811 48.8109 220.943 49.1162C221.076 49.4215 221.142 49.7611 221.142 50.1348ZM228.654 45.9922H225.893V52.5H224.607V45.9922H221.846V44.8643H228.654V45.9922ZM235.921 52.5H234.643V51.6865C234.529 51.764 234.374 51.8734 234.178 52.0146C233.986 52.1514 233.799 52.2607 233.617 52.3428C233.403 52.4476 233.157 52.5342 232.879 52.6025C232.601 52.6755 232.275 52.7119 231.901 52.7119C231.213 52.7119 230.63 52.484 230.151 52.0283C229.673 51.5726 229.434 50.9915 229.434 50.2852C229.434 49.7064 229.557 49.2393 229.803 48.8838C230.053 48.5238 230.409 48.2412 230.869 48.0361C231.334 47.8311 231.892 47.6921 232.544 47.6191C233.196 47.5462 233.895 47.4915 234.643 47.4551V47.2568C234.643 46.9652 234.59 46.7236 234.485 46.5322C234.385 46.3408 234.239 46.1904 234.048 46.0811C233.866 45.9762 233.647 45.9056 233.392 45.8691C233.136 45.8327 232.87 45.8145 232.592 45.8145C232.255 45.8145 231.879 45.86 231.464 45.9512C231.049 46.0378 230.621 46.1654 230.179 46.334H230.11V45.0283C230.361 44.96 230.723 44.8848 231.197 44.8027C231.671 44.7207 232.138 44.6797 232.599 44.6797C233.136 44.6797 233.604 44.7253 234 44.8164C234.401 44.903 234.747 45.0534 235.039 45.2676C235.326 45.4772 235.545 45.7484 235.695 46.0811C235.846 46.4137 235.921 46.8262 235.921 47.3184V52.5ZM234.643 50.6201V48.4941C234.251 48.5169 233.788 48.5511 233.255 48.5967C232.726 48.6423 232.307 48.7083 231.997 48.7949C231.628 48.8997 231.329 49.0638 231.102 49.2871C230.874 49.5059 230.76 49.8089 230.76 50.1963C230.76 50.6338 230.892 50.9642 231.156 51.1875C231.421 51.4062 231.824 51.5156 232.366 51.5156C232.817 51.5156 233.23 51.429 233.604 51.2559C233.977 51.0781 234.324 50.8662 234.643 50.6201ZM244.452 52.5H238.396V44.8643H239.681V51.3926H243.44V44.8643H244.726V51.3926H245.648V54.332H244.452V52.5ZM253.852 52.5H252.58V46.7646L248.581 52.5H247.419V44.8643H248.69V50.5176L252.648 44.8643H253.852V52.5ZM262.253 52.5H260.968V49.4717H259.457L257.092 52.5H255.581L258.151 49.3486C257.491 49.1663 257.007 48.8883 256.702 48.5146C256.397 48.1364 256.244 47.6419 256.244 47.0312C256.244 46.6257 256.335 46.2816 256.518 45.999C256.7 45.7165 256.93 45.4863 257.208 45.3086C257.481 45.1354 257.796 45.0192 258.151 44.96C258.507 44.8962 258.894 44.8643 259.313 44.8643H262.253V52.5ZM260.968 48.46V45.8896H259.348C258.997 45.8896 258.744 45.901 258.589 45.9238C258.434 45.9466 258.265 46.0081 258.083 46.1084C257.905 46.2087 257.773 46.3454 257.687 46.5186C257.604 46.6872 257.563 46.8717 257.563 47.0723C257.563 47.3229 257.589 47.5257 257.639 47.6807C257.693 47.8356 257.803 47.9814 257.967 48.1182C258.135 48.2503 258.34 48.3415 258.582 48.3916C258.824 48.4372 259.092 48.46 259.389 48.46H260.968Z" fill="#333333"/>
<path d="M5 85L12.5 92.5L25 77.5" stroke="#61B857" stroke-width="2" stroke-linecap="round" stroke-linejoin="round"/>
<path d="M45.6631 81.4492C46.1006 81.8867 46.4378 82.429 46.6748 83.0762C46.9118 83.7233 47.0303 84.4889 47.0303 85.373C47.0303 86.1569 46.9095 86.8792 46.668 87.54C46.431 88.1963 46.0869 88.7591 45.6357 89.2285C45.1709 89.7116 44.6263 90.0762 44.002 90.3223C43.3822 90.5638 42.7008 90.6846 41.958 90.6846C41.3154 90.6846 40.7048 90.623 40.126 90.5C39.5472 90.377 39.0596 90.2311 38.6631 90.0625V88.5654H38.7725C39.1416 88.8617 39.6064 89.0986 40.167 89.2764C40.7321 89.4495 41.3359 89.5361 41.9785 89.5361C42.5391 89.5361 43.0518 89.4382 43.5166 89.2422C43.9814 89.0417 44.3688 88.7705 44.6787 88.4287C45.0068 88.0641 45.2529 87.654 45.417 87.1982C45.5856 86.738 45.6699 86.2161 45.6699 85.6328H40.1123V84.4502H45.6016C45.5378 83.9079 45.401 83.4385 45.1914 83.042C44.9818 82.641 44.7152 82.3105 44.3916 82.0508C44.068 81.791 43.7012 81.5996 43.291 81.4766C42.8809 81.349 42.4434 81.2852 41.9785 81.2852C41.3542 81.2852 40.7686 81.374 40.2217 81.5518C39.6748 81.7249 39.2031 81.9642 38.8066 82.2695H38.6904V80.7656C39.1143 80.5879 39.6156 80.4398 40.1943 80.3213C40.7731 80.1982 41.3656 80.1367 41.9717 80.1367C42.7555 80.1367 43.4551 80.2461 44.0703 80.4648C44.6901 80.6836 45.221 81.0117 45.6631 81.4492ZM55.9717 90.5H54.29L51.1182 87H50.4209V90.5H49.1357V82.8643H50.4209V86.1592C50.8447 86.1592 51.1865 86.084 51.4463 85.9336C51.7061 85.7786 51.9271 85.5326 52.1094 85.1953C52.1732 85.0723 52.2347 84.9424 52.2939 84.8057C52.3577 84.6644 52.4193 84.5299 52.4785 84.4023C52.7155 83.8874 53.0117 83.5023 53.3672 83.2471C53.7227 82.9919 54.2331 82.8643 54.8984 82.8643H55.4863V83.9717H54.9189C54.5589 83.9717 54.2764 84.0492 54.0713 84.2041C53.8708 84.3545 53.6885 84.6211 53.5244 85.0039C53.3421 85.4323 53.1484 85.7536 52.9434 85.9678C52.7428 86.1774 52.5286 86.3369 52.3008 86.4463L55.9717 90.5ZM63.0811 90.0215C62.557 90.2676 62.1058 90.4362 61.7275 90.5273C61.3538 90.623 60.9801 90.6709 60.6064 90.6709C60.0505 90.6709 59.54 90.5911 59.0752 90.4316C58.6104 90.2676 58.2116 90.0215 57.8789 89.6934C57.5462 89.3652 57.2865 88.9505 57.0996 88.4492C56.9173 87.9479 56.8262 87.3623 56.8262 86.6924C56.8262 85.4756 57.1634 84.5049 57.8379 83.7803C58.5124 83.0511 59.4352 82.6865 60.6064 82.6865C61.0485 82.6865 61.4814 82.748 61.9053 82.8711C62.3337 82.9941 62.7256 83.1445 63.0811 83.3223V84.751H63.0059C62.582 84.4274 62.1628 84.1882 61.748 84.0332C61.3379 83.8783 60.9391 83.8008 60.5518 83.8008C59.7907 83.8008 59.2005 84.056 58.7812 84.5664C58.3665 85.0768 58.1592 85.7855 58.1592 86.6924C58.1592 87.5993 58.3665 88.3034 58.7812 88.8047C59.196 89.306 59.7861 89.5566 60.5518 89.5566C60.8206 89.5566 61.0872 89.5225 61.3516 89.4541C61.6204 89.3857 61.8643 89.2969 62.083 89.1875C62.2562 89.1009 62.4339 88.9984 62.6162 88.8799C62.8031 88.7568 62.9329 88.6657 63.0059 88.6064H63.0811V90.0215ZM71.2363 90.5H69.9512V83.9717H66.1299V90.5H64.8447V82.8643H71.2363V90.5ZM80.2803 86.6855C80.2803 87.9297 79.9613 88.9118 79.3232 89.6318C78.6852 90.3519 77.8307 90.7119 76.7598 90.7119C75.6797 90.7119 74.8206 90.3519 74.1826 89.6318C73.5492 88.9118 73.2324 87.9297 73.2324 86.6855C73.2324 85.4414 73.5492 84.4593 74.1826 83.7393C74.8206 83.0146 75.6797 82.6523 76.7598 82.6523C77.8307 82.6523 78.6852 83.0146 79.3232 83.7393C79.9613 84.4593 80.2803 85.4414 80.2803 86.6855ZM78.9541 86.6855C78.9541 85.6966 78.7604 84.9629 78.373 84.4844C77.9857 84.0013 77.4479 83.7598 76.7598 83.7598C76.0625 83.7598 75.5202 84.0013 75.1328 84.4844C74.75 84.9629 74.5586 85.6966 74.5586 86.6855C74.5586 87.6426 74.7523 88.3695 75.1396 88.8662C75.527 89.3584 76.0671 89.6045 76.7598 89.6045C77.4434 89.6045 77.9788 89.3607 78.3662 88.873C78.7581 88.3809 78.9541 87.6517 78.9541 86.6855ZM88.9961 86.5898C88.9961 87.2096 88.9072 87.777 88.7295 88.292C88.5518 88.8024 88.3011 89.2354 87.9775 89.5908C87.6768 89.9281 87.3213 90.1901 86.9111 90.377C86.5055 90.5592 86.0749 90.6504 85.6191 90.6504C85.2227 90.6504 84.8626 90.6071 84.5391 90.5205C84.2201 90.4339 83.8942 90.2995 83.5615 90.1172V93.3164H82.2764V82.8643H83.5615V83.6641C83.9033 83.377 84.2861 83.1377 84.71 82.9463C85.1383 82.7503 85.5941 82.6523 86.0771 82.6523C86.9977 82.6523 87.7132 83.001 88.2236 83.6982C88.7386 84.391 88.9961 85.3548 88.9961 86.5898ZM87.6699 86.624C87.6699 85.7035 87.5127 85.0153 87.1982 84.5596C86.8838 84.1038 86.4007 83.876 85.749 83.876C85.3799 83.876 85.0085 83.9557 84.6348 84.1152C84.2611 84.2747 83.9033 84.4844 83.5615 84.7441V89.0713C83.9261 89.2354 84.2383 89.347 84.498 89.4062C84.7624 89.4655 85.0609 89.4951 85.3936 89.4951C86.109 89.4951 86.6673 89.2536 87.0684 88.7705C87.4694 88.2874 87.6699 87.5719 87.6699 86.624ZM96.6113 83.9922H93.8496V90.5H92.5645V83.9922H89.8027V82.8643H96.6113V83.9922ZM104.835 90.5H103.153L99.9814 87H99.2842V90.5H97.999V82.8643H99.2842V86.1592C99.708 86.1592 100.05 86.084 100.31 85.9336C100.569 85.7786 100.79 85.5326 100.973 85.1953C101.036 85.0723 101.098 84.9424 101.157 84.8057C101.221 84.6644 101.283 84.5299 101.342 84.4023C101.579 83.8874 101.875 83.5023 102.23 83.2471C102.586 82.9919 103.096 82.8643 103.762 82.8643H104.35V83.9717H103.782C103.422 83.9717 103.14 84.0492 102.935 84.2041C102.734 84.3545 102.552 84.6211 102.388 85.0039C102.205 85.4323 102.012 85.7536 101.807 85.9678C101.606 86.1774 101.392 86.3369 101.164 86.4463L104.835 90.5ZM112.737 86.6855C112.737 87.9297 112.418 88.9118 111.78 89.6318C111.142 90.3519 110.288 90.7119 109.217 90.7119C108.137 90.7119 107.278 90.3519 106.64 89.6318C106.006 88.9118 105.689 87.9297 105.689 86.6855C105.689 85.4414 106.006 84.4593 106.64 83.7393C107.278 83.0146 108.137 82.6523 109.217 82.6523C110.288 82.6523 111.142 83.0146 111.78 83.7393C112.418 84.4593 112.737 85.4414 112.737 86.6855ZM111.411 86.6855C111.411 85.6966 111.217 84.9629 110.83 84.4844C110.443 84.0013 109.905 83.7598 109.217 83.7598C108.52 83.7598 107.977 84.0013 107.59 84.4844C107.207 84.9629 107.016 85.6966 107.016 86.6855C107.016 87.6426 107.209 88.3695 107.597 88.8662C107.984 89.3584 108.524 89.6045 109.217 89.6045C109.9 89.6045 110.436 89.3607 110.823 88.873C111.215 88.3809 111.411 87.6517 111.411 86.6855ZM126.587 92.332H125.391V90.4795H119.648V92.332H118.452V89.4062H119.279C119.812 88.5267 120.209 87.5127 120.469 86.3643C120.733 85.2113 120.865 84.0446 120.865 82.8643H125.664V89.4062H126.587V92.332ZM124.379 89.4062V83.9443H122.075C122.016 85.0882 121.84 86.1318 121.549 87.0752C121.257 88.0186 120.922 88.7956 120.544 89.4062H124.379ZM134.298 90.5H133.02V89.6865C132.906 89.764 132.751 89.8734 132.555 90.0146C132.363 90.1514 132.176 90.2607 131.994 90.3428C131.78 90.4476 131.534 90.5342 131.256 90.6025C130.978 90.6755 130.652 90.7119 130.278 90.7119C129.59 90.7119 129.007 90.484 128.528 90.0283C128.05 89.5726 127.811 88.9915 127.811 88.2852C127.811 87.7064 127.934 87.2393 128.18 86.8838C128.43 86.5238 128.786 86.2412 129.246 86.0361C129.711 85.8311 130.269 85.6921 130.921 85.6191C131.573 85.5462 132.272 85.4915 133.02 85.4551V85.2568C133.02 84.9652 132.967 84.7236 132.862 84.5322C132.762 84.3408 132.616 84.1904 132.425 84.0811C132.243 83.9762 132.024 83.9056 131.769 83.8691C131.513 83.8327 131.247 83.8145 130.969 83.8145C130.632 83.8145 130.256 83.86 129.841 83.9512C129.426 84.0378 128.998 84.1654 128.556 84.334H128.487V83.0283C128.738 82.96 129.1 82.8848 129.574 82.8027C130.048 82.7207 130.515 82.6797 130.976 82.6797C131.513 82.6797 131.98 82.7253 132.377 82.8164C132.778 82.903 133.124 83.0534 133.416 83.2676C133.703 83.4772 133.922 83.7484 134.072 84.0811C134.223 84.4137 134.298 84.8262 134.298 85.3184V90.5ZM133.02 88.6201V86.4941C132.628 86.5169 132.165 86.5511 131.632 86.5967C131.103 86.6423 130.684 86.7083 130.374 86.7949C130.005 86.8997 129.706 87.0638 129.479 87.2871C129.251 87.5059 129.137 87.8089 129.137 88.1963C129.137 88.6338 129.269 88.9642 129.533 89.1875C129.798 89.4062 130.201 89.5156 130.743 89.5156C131.194 89.5156 131.607 89.429 131.98 89.2559C132.354 89.0781 132.701 88.8662 133.02 88.6201ZM142.638 90.5H141.353V87.4717H139.842L137.477 90.5H135.966L138.536 87.3486C137.875 87.1663 137.392 86.8883 137.087 86.5146C136.782 86.1364 136.629 85.6419 136.629 85.0312C136.629 84.6257 136.72 84.2816 136.902 83.999C137.085 83.7165 137.315 83.4863 137.593 83.3086C137.866 83.1354 138.181 83.0192 138.536 82.96C138.892 82.8962 139.279 82.8643 139.698 82.8643H142.638V90.5ZM141.353 86.46V83.8896H139.732C139.382 83.8896 139.129 83.901 138.974 83.9238C138.819 83.9466 138.65 84.0081 138.468 84.1084C138.29 84.2087 138.158 84.3454 138.071 84.5186C137.989 84.6872 137.948 84.8717 137.948 85.0723C137.948 85.3229 137.973 85.5257 138.023 85.6807C138.078 85.8356 138.188 85.9814 138.352 86.1182C138.52 86.2503 138.725 86.3415 138.967 86.3916C139.208 86.4372 139.477 86.46 139.773 86.46H141.353ZM151.887 86.5898C151.887 87.2096 151.798 87.777 151.62 88.292C151.442 88.8024 151.192 89.2354 150.868 89.5908C150.567 89.9281 150.212 90.1901 149.802 90.377C149.396 90.5592 148.965 90.6504 148.51 90.6504C148.113 90.6504 147.753 90.6071 147.43 90.5205C147.111 90.4339 146.785 90.2995 146.452 90.1172V93.3164H145.167V82.8643H146.452V83.6641C146.794 83.377 147.177 83.1377 147.601 82.9463C148.029 82.7503 148.485 82.6523 148.968 82.6523C149.888 82.6523 150.604 83.001 151.114 83.6982C151.629 84.391 151.887 85.3548 151.887 86.5898ZM150.561 86.624C150.561 85.7035 150.403 85.0153 150.089 84.5596C149.774 84.1038 149.291 83.876 148.64 83.876C148.271 83.876 147.899 83.9557 147.525 84.1152C147.152 84.2747 146.794 84.4844 146.452 84.7441V89.0713C146.817 89.2354 147.129 89.347 147.389 89.4062C147.653 89.4655 147.951 89.4951 148.284 89.4951C149 89.4951 149.558 89.2536 149.959 88.7705C150.36 88.2874 150.561 87.5719 150.561 86.624ZM160.821 92.332H159.625V90.4795H153.883V92.332H152.687V89.4062H153.514C154.047 88.5267 154.443 87.5127 154.703 86.3643C154.967 85.2113 155.1 84.0446 155.1 82.8643H159.898V89.4062H160.821V92.332ZM158.613 89.4062V83.9443H156.31C156.25 85.0882 156.075 86.1318 155.783 87.0752C155.492 88.0186 155.157 88.7956 154.778 89.4062H158.613ZM167.302 88.1553C167.302 87.9229 167.261 87.7201 167.179 87.5469C167.101 87.3691 166.971 87.2256 166.789 87.1162C166.598 87.0023 166.379 86.9339 166.133 86.9111C165.891 86.8883 165.543 86.877 165.087 86.877H163.884V89.4746H165.06C165.515 89.4746 165.868 89.4564 166.119 89.4199C166.37 89.3789 166.586 89.3037 166.769 89.1943C166.955 89.0758 167.09 88.9368 167.172 88.7773C167.258 88.6133 167.302 88.4059 167.302 88.1553ZM168.628 88.1348C168.628 88.5039 168.553 88.8389 168.402 89.1396C168.257 89.4404 168.056 89.6842 167.801 89.8711C167.5 90.099 167.179 90.2607 166.837 90.3564C166.495 90.4521 166.055 90.5 165.518 90.5H162.599V82.8643H163.884V85.8379H165.552C166.126 85.8379 166.57 85.8675 166.885 85.9268C167.204 85.986 167.521 86.1318 167.835 86.3643C168.099 86.5602 168.298 86.8109 168.43 87.1162C168.562 87.4215 168.628 87.7611 168.628 88.1348ZM169.906 82.8643H171.191V90.5H169.906V82.8643ZM180.618 90.5H178.937L175.765 87H175.067V90.5H173.782V82.8643H175.067V86.1592C175.491 86.1592 175.833 86.084 176.093 85.9336C176.353 85.7786 176.574 85.5326 176.756 85.1953C176.82 85.0723 176.881 84.9424 176.94 84.8057C177.004 84.6644 177.066 84.5299 177.125 84.4023C177.362 83.8874 177.658 83.5023 178.014 83.2471C178.369 82.9919 178.88 82.8643 179.545 82.8643H180.133V83.9717H179.565C179.205 83.9717 178.923 84.0492 178.718 84.2041C178.517 84.3545 178.335 84.6211 178.171 85.0039C177.989 85.4323 177.795 85.7536 177.59 85.9678C177.389 86.1774 177.175 86.3369 176.947 86.4463L180.618 90.5ZM193.825 90.5H192.144L188.972 87H188.274V90.5H186.989V82.8643H188.274V86.1592C188.698 86.1592 189.04 86.084 189.3 85.9336C189.56 85.7786 189.781 85.5326 189.963 85.1953C190.027 85.0723 190.088 84.9424 190.147 84.8057C190.211 84.6644 190.273 84.5299 190.332 84.4023C190.569 83.8874 190.865 83.5023 191.221 83.2471C191.576 82.9919 192.087 82.8643 192.752 82.8643H193.34V83.9717H192.772C192.412 83.9717 192.13 84.0492 191.925 84.2041C191.724 84.3545 191.542 84.6211 191.378 85.0039C191.196 85.4323 191.002 85.7536 190.797 85.9678C190.596 86.1774 190.382 86.3369 190.154 86.4463L193.825 90.5ZM201.728 86.6855C201.728 87.8568 201.438 88.8047 200.859 89.5293C200.23 90.3177 199.346 90.7119 198.207 90.7119C197.063 90.7119 196.177 90.3177 195.548 89.5293C194.969 88.8092 194.68 87.8613 194.68 86.6855C194.68 85.5098 194.969 84.5596 195.548 83.835C196.177 83.0465 197.063 82.6523 198.207 82.6523C199.351 82.6523 200.237 83.0465 200.866 83.835C201.44 84.5596 201.728 85.5098 201.728 86.6855ZM200.381 86.1729C200.253 84.5641 199.529 83.7598 198.207 83.7598C196.876 83.7598 196.149 84.5641 196.026 86.1729H200.381ZM200.388 87.1572H196.02C196.074 87.8773 196.268 88.4492 196.601 88.873C196.979 89.3607 197.514 89.6045 198.207 89.6045C199.538 89.6045 200.265 88.7887 200.388 87.1572ZM210.443 86.5898C210.443 87.2096 210.354 87.777 210.177 88.292C209.999 88.8024 209.748 89.2354 209.425 89.5908C209.124 89.9281 208.769 90.1901 208.358 90.377C207.953 90.5592 207.522 90.6504 207.066 90.6504C206.67 90.6504 206.31 90.6071 205.986 90.5205C205.667 90.4339 205.341 90.2995 205.009 90.1172V93.3164H203.724V82.8643H205.009V83.6641C205.351 83.377 205.733 83.1377 206.157 82.9463C206.586 82.7503 207.041 82.6523 207.524 82.6523C208.445 82.6523 209.16 83.001 209.671 83.6982C210.186 84.391 210.443 85.3548 210.443 86.5898ZM209.117 86.624C209.117 85.7035 208.96 85.0153 208.646 84.5596C208.331 84.1038 207.848 83.876 207.196 83.876C206.827 83.876 206.456 83.9557 206.082 84.1152C205.708 84.2747 205.351 84.4844 205.009 84.7441V89.0713C205.373 89.2354 205.686 89.347 205.945 89.4062C206.21 89.4655 206.508 89.4951 206.841 89.4951C207.556 89.4951 208.115 89.2536 208.516 88.7705C208.917 88.2874 209.117 87.5719 209.117 86.624ZM219.05 82.8643L215.926 90.1172V93.3164H214.641V90.1172L211.599 82.8643H212.993L215.338 88.5244L217.703 82.8643H219.05ZM227.335 82.8643L224.211 90.1172V93.3164H222.926V90.1172L219.884 82.8643H221.278L223.623 88.5244L225.988 82.8643H227.335Z" fill="#333333"/>
<path d="M5 123L12.5 130.5L25 115.5" stroke="#61B857" stroke-width="2" stroke-linecap="round" stroke-linejoin="round"/>
<path d="M47.2285 127.762C46.9779 127.871 46.75 127.974 46.5449 128.069C46.3444 128.165 46.0801 128.265 45.752 128.37C45.474 128.457 45.1709 128.53 44.8428 128.589C44.5192 128.653 44.1615 128.685 43.7695 128.685C43.0312 128.685 42.359 128.582 41.7529 128.377C41.1514 128.167 40.6273 127.841 40.1807 127.399C39.7432 126.966 39.4014 126.417 39.1553 125.752C38.9092 125.082 38.7861 124.305 38.7861 123.421C38.7861 122.582 38.9046 121.833 39.1416 121.172C39.3786 120.511 39.7204 119.953 40.167 119.497C40.5999 119.055 41.1217 118.718 41.7324 118.485C42.3477 118.253 43.029 118.137 43.7764 118.137C44.3232 118.137 44.8678 118.203 45.4102 118.335C45.957 118.467 46.5632 118.7 47.2285 119.032V120.639H47.126C46.5654 120.169 46.0094 119.827 45.458 119.613C44.9066 119.399 44.3164 119.292 43.6875 119.292C43.1725 119.292 42.7077 119.376 42.293 119.545C41.8828 119.709 41.516 119.966 41.1924 120.317C40.8779 120.659 40.6318 121.092 40.4541 121.616C40.2809 122.136 40.1943 122.737 40.1943 123.421C40.1943 124.136 40.29 124.752 40.4814 125.267C40.6774 125.782 40.9281 126.201 41.2334 126.524C41.5524 126.862 41.9238 127.112 42.3477 127.276C42.776 127.436 43.2272 127.516 43.7012 127.516C44.3529 127.516 44.9635 127.404 45.5332 127.181C46.1029 126.957 46.6361 126.622 47.1328 126.176H47.2285V127.762ZM55.4316 124.815H49.8057C49.8057 125.285 49.8763 125.695 50.0176 126.046C50.1589 126.392 50.3525 126.677 50.5986 126.9C50.8356 127.119 51.1159 127.283 51.4395 127.393C51.7676 127.502 52.1276 127.557 52.5195 127.557C53.0391 127.557 53.5609 127.454 54.085 127.249C54.6136 127.039 54.9896 126.834 55.2129 126.634H55.2812V128.035C54.8483 128.217 54.4062 128.37 53.9551 128.493C53.5039 128.616 53.0299 128.678 52.5332 128.678C51.2663 128.678 50.2773 128.336 49.5664 127.652C48.8555 126.964 48.5 125.989 48.5 124.727C48.5 123.478 48.8395 122.487 49.5186 121.753C50.2021 121.019 51.0999 120.652 52.2119 120.652C53.2419 120.652 54.0348 120.953 54.5908 121.555C55.1514 122.156 55.4316 123.011 55.4316 124.118V124.815ZM54.1807 123.831C54.1761 123.157 54.0052 122.635 53.668 122.266C53.3353 121.896 52.8271 121.712 52.1436 121.712C51.4554 121.712 50.9062 121.915 50.4961 122.32C50.0905 122.726 49.8604 123.229 49.8057 123.831H54.1807ZM64.0996 124.59C64.0996 125.21 64.0107 125.777 63.833 126.292C63.6553 126.802 63.4046 127.235 63.0811 127.591C62.7803 127.928 62.4248 128.19 62.0146 128.377C61.609 128.559 61.1784 128.65 60.7227 128.65C60.3262 128.65 59.9661 128.607 59.6426 128.521C59.3236 128.434 58.9977 128.299 58.665 128.117V131.316H57.3799V120.864H58.665V121.664C59.0068 121.377 59.3896 121.138 59.8135 120.946C60.2419 120.75 60.6976 120.652 61.1807 120.652C62.1012 120.652 62.8167 121.001 63.3271 121.698C63.8421 122.391 64.0996 123.355 64.0996 124.59ZM62.7734 124.624C62.7734 123.703 62.6162 123.015 62.3018 122.56C61.9873 122.104 61.5042 121.876 60.8525 121.876C60.4834 121.876 60.112 121.956 59.7383 122.115C59.3646 122.275 59.0068 122.484 58.665 122.744V127.071C59.0296 127.235 59.3418 127.347 59.6016 127.406C59.8659 127.465 60.1644 127.495 60.4971 127.495C61.2126 127.495 61.7708 127.254 62.1719 126.771C62.5729 126.287 62.7734 125.572 62.7734 124.624ZM71.7148 121.992H68.9531V128.5H67.668V121.992H64.9062V120.864H71.7148V121.992ZM79.4805 128.5H78.209V122.765L74.21 128.5H73.0479V120.864H74.3193V126.518L78.2773 120.864H79.4805V128.5ZM91.7646 124.48C91.7646 125.16 91.6781 125.761 91.5049 126.285C91.3317 126.805 91.1016 127.233 90.8145 127.57C90.5319 127.908 90.2061 128.165 89.8369 128.343C89.4678 128.521 89.0804 128.609 88.6748 128.609C88.3695 128.609 88.1029 128.557 87.875 128.452C87.6517 128.347 87.4512 128.252 87.2734 128.165V131.316H86.002V128.165C85.724 128.302 85.4938 128.411 85.3115 128.493C85.1338 128.571 84.8535 128.609 84.4707 128.609C83.5911 128.609 82.8779 128.265 82.3311 127.577C81.7842 126.889 81.5107 125.932 81.5107 124.706C81.5107 124.063 81.5996 123.492 81.7773 122.99C81.9551 122.484 82.1875 122.061 82.4746 121.719C82.7526 121.386 83.0785 121.133 83.4521 120.96C83.8304 120.782 84.2064 120.693 84.5801 120.693C84.8535 120.693 85.1019 120.737 85.3252 120.823C85.5531 120.905 85.7786 121.015 86.002 121.151V117.863H87.2734V121.151C87.4831 121.028 87.7292 120.921 88.0117 120.83C88.2943 120.739 88.5791 120.693 88.8662 120.693C89.7686 120.693 90.4772 121.035 90.9922 121.719C91.5072 122.398 91.7646 123.318 91.7646 124.48ZM90.4453 124.624C90.4453 123.754 90.2904 123.065 89.9805 122.56C89.6706 122.054 89.2057 121.801 88.5859 121.801C88.3353 121.801 88.1257 121.821 87.957 121.862C87.7884 121.903 87.5605 121.981 87.2734 122.095V127.188C87.4876 127.288 87.6654 127.368 87.8066 127.427C87.9525 127.481 88.1576 127.509 88.4219 127.509C89.0645 127.509 89.5612 127.263 89.9121 126.771C90.2676 126.274 90.4453 125.558 90.4453 124.624ZM86.002 127.188V122.095C85.8242 122.013 85.6442 121.944 85.4619 121.89C85.2796 121.83 85.0768 121.801 84.8535 121.801C84.2383 121.801 83.7461 122.035 83.377 122.505C83.0124 122.974 82.8301 123.688 82.8301 124.645C82.8301 125.533 82.9919 126.233 83.3154 126.743C83.6436 127.254 84.1152 127.509 84.7305 127.509C84.972 127.509 85.1953 127.477 85.4004 127.413C85.61 127.345 85.8105 127.27 86.002 127.188ZM100.221 128.5H98.9492V122.765L94.9502 128.5H93.7881V120.864H95.0596V126.518L99.0176 120.864H100.221V128.5ZM109.647 128.5H107.966L104.794 125H104.097V128.5H102.812V120.864H104.097V124.159C104.521 124.159 104.862 124.084 105.122 123.934C105.382 123.779 105.603 123.533 105.785 123.195C105.849 123.072 105.91 122.942 105.97 122.806C106.034 122.664 106.095 122.53 106.154 122.402C106.391 121.887 106.688 121.502 107.043 121.247C107.398 120.992 107.909 120.864 108.574 120.864H109.162V121.972H108.595C108.235 121.972 107.952 122.049 107.747 122.204C107.547 122.354 107.364 122.621 107.2 123.004C107.018 123.432 106.824 123.754 106.619 123.968C106.419 124.177 106.204 124.337 105.977 124.446L109.647 128.5ZM116.976 128.5H115.697V127.687C115.583 127.764 115.428 127.873 115.232 128.015C115.041 128.151 114.854 128.261 114.672 128.343C114.458 128.448 114.212 128.534 113.934 128.603C113.656 128.675 113.33 128.712 112.956 128.712C112.268 128.712 111.685 128.484 111.206 128.028C110.728 127.573 110.488 126.992 110.488 126.285C110.488 125.706 110.611 125.239 110.857 124.884C111.108 124.524 111.464 124.241 111.924 124.036C112.389 123.831 112.947 123.692 113.599 123.619C114.25 123.546 114.95 123.492 115.697 123.455V123.257C115.697 122.965 115.645 122.724 115.54 122.532C115.44 122.341 115.294 122.19 115.103 122.081C114.92 121.976 114.701 121.906 114.446 121.869C114.191 121.833 113.924 121.814 113.646 121.814C113.309 121.814 112.933 121.86 112.519 121.951C112.104 122.038 111.675 122.165 111.233 122.334H111.165V121.028C111.416 120.96 111.778 120.885 112.252 120.803C112.726 120.721 113.193 120.68 113.653 120.68C114.191 120.68 114.658 120.725 115.055 120.816C115.456 120.903 115.802 121.053 116.094 121.268C116.381 121.477 116.6 121.748 116.75 122.081C116.9 122.414 116.976 122.826 116.976 123.318V128.5ZM115.697 126.62V124.494C115.305 124.517 114.843 124.551 114.31 124.597C113.781 124.642 113.362 124.708 113.052 124.795C112.683 124.9 112.384 125.064 112.156 125.287C111.928 125.506 111.814 125.809 111.814 126.196C111.814 126.634 111.947 126.964 112.211 127.188C112.475 127.406 112.879 127.516 113.421 127.516C113.872 127.516 114.285 127.429 114.658 127.256C115.032 127.078 115.378 126.866 115.697 126.62ZM125.507 128.5H119.45V120.864H120.735V127.393H124.495V120.864H125.78V127.393H126.703V130.332H125.507V128.5ZM134.906 128.5H133.635V122.765L129.636 128.5H128.474V120.864H129.745V126.518L133.703 120.864H134.906V128.5ZM143.308 128.5H142.022V125.472H140.512L138.146 128.5H136.636L139.206 125.349C138.545 125.166 138.062 124.888 137.757 124.515C137.451 124.136 137.299 123.642 137.299 123.031C137.299 122.626 137.39 122.282 137.572 121.999C137.755 121.716 137.985 121.486 138.263 121.309C138.536 121.135 138.851 121.019 139.206 120.96C139.562 120.896 139.949 120.864 140.368 120.864H143.308V128.5ZM142.022 124.46V121.89H140.402C140.051 121.89 139.799 121.901 139.644 121.924C139.489 121.947 139.32 122.008 139.138 122.108C138.96 122.209 138.828 122.345 138.741 122.519C138.659 122.687 138.618 122.872 138.618 123.072C138.618 123.323 138.643 123.526 138.693 123.681C138.748 123.836 138.857 123.981 139.021 124.118C139.19 124.25 139.395 124.341 139.637 124.392C139.878 124.437 140.147 124.46 140.443 124.46H142.022Z" fill="#333333"/>
<path d="M5 161L12.5 168.5L25 153.5" stroke="#61B857" stroke-width="2" stroke-linecap="round" stroke-linejoin="round"/>
<path d="M47.2285 165.762C46.9779 165.871 46.75 165.974 46.5449 166.069C46.3444 166.165 46.0801 166.265 45.752 166.37C45.474 166.457 45.1709 166.53 44.8428 166.589C44.5192 166.653 44.1615 166.685 43.7695 166.685C43.0312 166.685 42.359 166.582 41.7529 166.377C41.1514 166.167 40.6273 165.841 40.1807 165.399C39.7432 164.966 39.4014 164.417 39.1553 163.752C38.9092 163.082 38.7861 162.305 38.7861 161.421C38.7861 160.582 38.9046 159.833 39.1416 159.172C39.3786 158.511 39.7204 157.953 40.167 157.497C40.5999 157.055 41.1217 156.718 41.7324 156.485C42.3477 156.253 43.029 156.137 43.7764 156.137C44.3232 156.137 44.8678 156.203 45.4102 156.335C45.957 156.467 46.5632 156.7 47.2285 157.032V158.639H47.126C46.5654 158.169 46.0094 157.827 45.458 157.613C44.9066 157.399 44.3164 157.292 43.6875 157.292C43.1725 157.292 42.7077 157.376 42.293 157.545C41.8828 157.709 41.516 157.966 41.1924 158.317C40.8779 158.659 40.6318 159.092 40.4541 159.616C40.2809 160.136 40.1943 160.737 40.1943 161.421C40.1943 162.136 40.29 162.752 40.4814 163.267C40.6774 163.782 40.9281 164.201 41.2334 164.524C41.5524 164.862 41.9238 165.112 42.3477 165.276C42.776 165.436 43.2272 165.516 43.7012 165.516C44.3529 165.516 44.9635 165.404 45.5332 165.181C46.1029 164.957 46.6361 164.622 47.1328 164.176H47.2285V165.762ZM54.9736 166.5H53.6953V165.687C53.5814 165.764 53.4264 165.873 53.2305 166.015C53.0391 166.151 52.8522 166.261 52.6699 166.343C52.4557 166.448 52.2096 166.534 51.9316 166.603C51.6536 166.675 51.3278 166.712 50.9541 166.712C50.266 166.712 49.6826 166.484 49.2041 166.028C48.7256 165.573 48.4863 164.992 48.4863 164.285C48.4863 163.706 48.6094 163.239 48.8555 162.884C49.1061 162.524 49.4616 162.241 49.9219 162.036C50.3867 161.831 50.945 161.692 51.5967 161.619C52.2484 161.546 52.9479 161.492 53.6953 161.455V161.257C53.6953 160.965 53.6429 160.724 53.5381 160.532C53.4378 160.341 53.292 160.19 53.1006 160.081C52.9183 159.976 52.6995 159.906 52.4443 159.869C52.1891 159.833 51.9225 159.814 51.6445 159.814C51.3073 159.814 50.9313 159.86 50.5166 159.951C50.1019 160.038 49.6735 160.165 49.2314 160.334H49.1631V159.028C49.4137 158.96 49.776 158.885 50.25 158.803C50.724 158.721 51.1911 158.68 51.6514 158.68C52.1891 158.68 52.6562 158.725 53.0527 158.816C53.4538 158.903 53.8001 159.053 54.0918 159.268C54.3789 159.477 54.5977 159.748 54.748 160.081C54.8984 160.414 54.9736 160.826 54.9736 161.318V166.5ZM53.6953 164.62V162.494C53.3034 162.517 52.8408 162.551 52.3076 162.597C51.779 162.642 51.3597 162.708 51.0498 162.795C50.6807 162.9 50.3822 163.064 50.1543 163.287C49.9264 163.506 49.8125 163.809 49.8125 164.196C49.8125 164.634 49.9447 164.964 50.209 165.188C50.4733 165.406 50.8766 165.516 51.4189 165.516C51.8701 165.516 52.2826 165.429 52.6562 165.256C53.0299 165.078 53.3763 164.866 53.6953 164.62ZM63.0605 159.992H60.2988V166.5H59.0137V159.992H56.252V158.864H63.0605V159.992ZM70.9971 158.864L66.54 169.316H65.166L66.5879 166.131L63.5459 158.864H64.9404L67.2852 164.524L69.6504 158.864H70.9971ZM79.2822 158.864L74.8252 169.316H73.4512L74.873 166.131L71.8311 158.864H73.2256L75.5703 164.524L77.9355 158.864H79.2822ZM91.498 159.992C91.8171 160.311 92.0586 160.699 92.2227 161.154C92.3867 161.605 92.4688 162.136 92.4688 162.747C92.4688 163.886 92.127 164.832 91.4434 165.584C90.7598 166.336 89.9189 166.712 88.9209 166.712C88.4287 166.712 87.9753 166.63 87.5605 166.466C87.1458 166.297 86.7926 166.04 86.501 165.693C86.1364 165.26 85.863 164.716 85.6807 164.06C85.5029 163.399 85.4141 162.594 85.4141 161.646C85.4141 161.305 85.43 160.958 85.4619 160.607C85.4938 160.252 85.5667 159.828 85.6807 159.336C85.7718 158.912 85.904 158.504 86.0771 158.112C86.2549 157.72 86.4645 157.404 86.7061 157.162C87.0342 156.829 87.4648 156.563 87.998 156.362C88.5358 156.157 89.2467 156.016 90.1309 155.938C90.4909 155.907 90.8258 155.882 91.1357 155.863C91.4456 155.84 91.7236 155.82 91.9697 155.802V156.984C91.6689 157.003 91.3704 157.021 91.0742 157.039C90.7826 157.057 90.4909 157.08 90.1992 157.107C89.6159 157.158 89.0872 157.253 88.6133 157.395C88.1439 157.536 87.7998 157.718 87.5811 157.941C87.3395 158.183 87.1572 158.5 87.0342 158.892C86.9157 159.279 86.8382 159.648 86.8018 159.999C87.1436 159.753 87.5173 159.548 87.9229 159.384C88.333 159.215 88.7682 159.131 89.2285 159.131C89.6569 159.131 90.0693 159.201 90.4658 159.343C90.8623 159.484 91.2064 159.701 91.498 159.992ZM91.1631 162.822C91.1631 161.979 90.9603 161.35 90.5547 160.936C90.1491 160.516 89.6136 160.307 88.9482 160.307C88.5518 160.307 88.1712 160.37 87.8066 160.498C87.4421 160.621 87.0957 160.787 86.7676 160.997C86.7585 161.111 86.7493 161.245 86.7402 161.4C86.7357 161.551 86.7334 161.69 86.7334 161.817C86.7334 162.61 86.7995 163.253 86.9316 163.745C87.0638 164.237 87.2507 164.629 87.4922 164.921C87.7018 165.167 87.9297 165.342 88.1758 165.447C88.4219 165.548 88.6862 165.598 88.9688 165.598C89.6569 165.598 90.1947 165.349 90.582 164.853C90.9694 164.356 91.1631 163.679 91.1631 162.822ZM100.993 162.686C100.993 163.857 100.704 164.805 100.125 165.529C99.4961 166.318 98.612 166.712 97.4727 166.712C96.3288 166.712 95.4424 166.318 94.8135 165.529C94.2347 164.809 93.9453 163.861 93.9453 162.686C93.9453 161.51 94.2347 160.56 94.8135 159.835C95.4424 159.047 96.3288 158.652 97.4727 158.652C98.6165 158.652 99.5029 159.047 100.132 159.835C100.706 160.56 100.993 161.51 100.993 162.686ZM99.6465 162.173C99.5189 160.564 98.7943 159.76 97.4727 159.76C96.1419 159.76 95.415 160.564 95.292 162.173H99.6465ZM99.6533 163.157H95.2852C95.3398 163.877 95.5335 164.449 95.8662 164.873C96.2445 165.361 96.7799 165.604 97.4727 165.604C98.8034 165.604 99.5303 164.789 99.6533 163.157ZM109.148 166.5H107.863V159.944H105.013C104.999 160.323 104.985 160.687 104.972 161.038C104.958 161.389 104.944 161.706 104.931 161.988C104.899 162.749 104.846 163.358 104.773 163.813C104.701 164.265 104.605 164.641 104.486 164.941C104.377 165.224 104.254 165.454 104.117 165.632C103.985 165.805 103.841 165.962 103.687 166.104C103.532 166.24 103.358 166.343 103.167 166.411C102.98 166.479 102.775 166.514 102.552 166.514C102.474 166.514 102.36 166.511 102.21 166.507C102.064 166.502 101.968 166.5 101.923 166.5V165.379H101.991C102.028 165.379 102.08 165.381 102.148 165.386C102.217 165.39 102.274 165.393 102.319 165.393C102.429 165.393 102.54 165.377 102.654 165.345C102.773 165.313 102.873 165.254 102.955 165.167C103.188 164.939 103.374 164.554 103.516 164.012C103.657 163.469 103.75 162.686 103.796 161.66C103.814 161.286 103.83 160.844 103.844 160.334C103.862 159.819 103.878 159.329 103.892 158.864H109.148V166.5ZM118.288 158.864L115.164 166.117V169.316H113.879V166.117L110.837 158.864H112.231L114.576 164.524L116.941 158.864H118.288ZM127.188 166.5H125.917V160.471L124.017 164.395H123.06L121.173 160.471V166.5H119.97V158.864H121.521L123.6 163.137L125.609 158.864H127.188V166.5ZM136.321 158.864L133.197 166.117V169.316H131.912V166.117L128.87 158.864H130.265L132.609 164.524L134.975 158.864H136.321Z" fill="#333333"/>
<path d="M5 199L12.5 206.5L25 191.5" stroke="#61B857" stroke-width="2" stroke-linecap="round" stroke-linejoin="round"/>
<path d="M50.2842 199.414C50.2842 198.065 49.9902 197.04 49.4023 196.338C48.819 195.632 48.0283 195.278 47.0303 195.278C46.0231 195.278 45.2256 195.629 44.6377 196.331C44.0498 197.033 43.7559 198.061 43.7559 199.414C43.7559 200.749 44.0498 201.772 44.6377 202.483C45.2301 203.19 46.0277 203.543 47.0303 203.543C48.0283 203.543 48.819 203.19 49.4023 202.483C49.9902 201.777 50.2842 200.754 50.2842 199.414ZM42.3613 199.578H40.7207V204.5H39.3672V194.321H40.7207V198.396H42.4229C42.5869 197.024 43.0814 195.966 43.9062 195.224C44.7311 194.481 45.7702 194.109 47.0234 194.109C48.4772 194.109 49.6188 194.581 50.4482 195.524C51.2777 196.463 51.6924 197.76 51.6924 199.414C51.6924 201.077 51.2731 202.376 50.4346 203.311C49.596 204.245 48.459 204.712 47.0234 204.712C45.6198 204.712 44.4987 204.265 43.6602 203.372C42.8262 202.474 42.3932 201.21 42.3613 199.578ZM60.4629 200.59C60.4629 201.21 60.374 201.777 60.1963 202.292C60.0186 202.802 59.7679 203.235 59.4443 203.591C59.1436 203.928 58.7881 204.19 58.3779 204.377C57.9723 204.559 57.5417 204.65 57.0859 204.65C56.6895 204.65 56.3294 204.607 56.0059 204.521C55.6868 204.434 55.361 204.299 55.0283 204.117V207.316H53.7432V196.864H55.0283V197.664C55.3701 197.377 55.7529 197.138 56.1768 196.946C56.6051 196.75 57.0609 196.652 57.5439 196.652C58.4645 196.652 59.18 197.001 59.6904 197.698C60.2054 198.391 60.4629 199.355 60.4629 200.59ZM59.1367 200.624C59.1367 199.703 58.9795 199.015 58.665 198.56C58.3506 198.104 57.8675 197.876 57.2158 197.876C56.8467 197.876 56.4753 197.956 56.1016 198.115C55.7279 198.275 55.3701 198.484 55.0283 198.744V203.071C55.3929 203.235 55.7051 203.347 55.9648 203.406C56.2292 203.465 56.5277 203.495 56.8604 203.495C57.5758 203.495 58.1341 203.254 58.5352 202.771C58.9362 202.287 59.1367 201.572 59.1367 200.624ZM68.8984 204.5H67.627V198.765L63.6279 204.5H62.4658V196.864H63.7373V202.518L67.6953 196.864H68.8984V204.5ZM78.3662 206.332H77.1699V204.479H71.4277V206.332H70.2314V203.406H71.0586C71.5918 202.527 71.9883 201.513 72.248 200.364C72.5124 199.211 72.6445 198.045 72.6445 196.864H77.4434V203.406H78.3662V206.332ZM76.1582 203.406V197.944H73.8545C73.7952 199.088 73.6198 200.132 73.3281 201.075C73.0365 202.019 72.7015 202.796 72.3232 203.406H76.1582ZM86.5762 204.5H85.3047V198.765L81.3057 204.5H80.1436V196.864H81.415V202.518L85.373 196.864H86.5762V204.5ZM96.0029 204.5H94.3213L91.1494 201H90.4521V204.5H89.167V196.864H90.4521V200.159C90.876 200.159 91.2178 200.084 91.4775 199.934C91.7373 199.779 91.9583 199.533 92.1406 199.195C92.2044 199.072 92.266 198.942 92.3252 198.806C92.389 198.664 92.4505 198.53 92.5098 198.402C92.7467 197.887 93.043 197.502 93.3984 197.247C93.7539 196.992 94.2643 196.864 94.9297 196.864H95.5176V197.972H94.9502C94.5902 197.972 94.3076 198.049 94.1025 198.204C93.902 198.354 93.7197 198.621 93.5557 199.004C93.3734 199.432 93.1797 199.754 92.9746 199.968C92.7741 200.177 92.5599 200.337 92.332 200.446L96.0029 204.5ZM103.331 204.5H102.053V203.687C101.939 203.764 101.784 203.873 101.588 204.015C101.396 204.151 101.21 204.261 101.027 204.343C100.813 204.448 100.567 204.534 100.289 204.603C100.011 204.675 99.6852 204.712 99.3115 204.712C98.6234 204.712 98.04 204.484 97.5615 204.028C97.083 203.573 96.8438 202.992 96.8438 202.285C96.8438 201.706 96.9668 201.239 97.2129 200.884C97.4635 200.524 97.819 200.241 98.2793 200.036C98.7441 199.831 99.3024 199.692 99.9541 199.619C100.606 199.546 101.305 199.492 102.053 199.455V199.257C102.053 198.965 102 198.724 101.896 198.532C101.795 198.341 101.649 198.19 101.458 198.081C101.276 197.976 101.057 197.906 100.802 197.869C100.547 197.833 100.28 197.814 100.002 197.814C99.6647 197.814 99.2887 197.86 98.874 197.951C98.4593 198.038 98.0309 198.165 97.5889 198.334H97.5205V197.028C97.7712 196.96 98.1335 196.885 98.6074 196.803C99.0814 196.721 99.5485 196.68 100.009 196.68C100.547 196.68 101.014 196.725 101.41 196.816C101.811 196.903 102.158 197.053 102.449 197.268C102.736 197.477 102.955 197.748 103.105 198.081C103.256 198.414 103.331 198.826 103.331 199.318V204.5ZM102.053 202.62V200.494C101.661 200.517 101.198 200.551 100.665 200.597C100.136 200.642 99.7171 200.708 99.4072 200.795C99.0381 200.9 98.7396 201.064 98.5117 201.287C98.2839 201.506 98.1699 201.809 98.1699 202.196C98.1699 202.634 98.3021 202.964 98.5664 203.188C98.8307 203.406 99.234 203.516 99.7764 203.516C100.228 203.516 100.64 203.429 101.014 203.256C101.387 203.078 101.734 202.866 102.053 202.62ZM111.965 204.5H110.68V197.944H107.829C107.815 198.323 107.802 198.687 107.788 199.038C107.774 199.389 107.761 199.706 107.747 199.988C107.715 200.749 107.663 201.358 107.59 201.813C107.517 202.265 107.421 202.641 107.303 202.941C107.193 203.224 107.07 203.454 106.934 203.632C106.801 203.805 106.658 203.962 106.503 204.104C106.348 204.24 106.175 204.343 105.983 204.411C105.797 204.479 105.591 204.514 105.368 204.514C105.291 204.514 105.177 204.511 105.026 204.507C104.881 204.502 104.785 204.5 104.739 204.5V203.379H104.808C104.844 203.379 104.896 203.381 104.965 203.386C105.033 203.39 105.09 203.393 105.136 203.393C105.245 203.393 105.357 203.377 105.471 203.345C105.589 203.313 105.689 203.254 105.771 203.167C106.004 202.939 106.191 202.554 106.332 202.012C106.473 201.469 106.567 200.686 106.612 199.66C106.631 199.286 106.646 198.844 106.66 198.334C106.678 197.819 106.694 197.329 106.708 196.864H111.965V204.5ZM119.204 202.155C119.204 201.923 119.163 201.72 119.081 201.547C119.004 201.369 118.874 201.226 118.691 201.116C118.5 201.002 118.281 200.934 118.035 200.911C117.794 200.888 117.445 200.877 116.989 200.877H115.786V203.475H116.962C117.418 203.475 117.771 203.456 118.021 203.42C118.272 203.379 118.489 203.304 118.671 203.194C118.858 203.076 118.992 202.937 119.074 202.777C119.161 202.613 119.204 202.406 119.204 202.155ZM120.53 202.135C120.53 202.504 120.455 202.839 120.305 203.14C120.159 203.44 119.958 203.684 119.703 203.871C119.402 204.099 119.081 204.261 118.739 204.356C118.397 204.452 117.958 204.5 117.42 204.5H114.501V196.864H115.786V199.838H117.454C118.028 199.838 118.473 199.868 118.787 199.927C119.106 199.986 119.423 200.132 119.737 200.364C120.002 200.56 120.2 200.811 120.332 201.116C120.464 201.422 120.53 201.761 120.53 202.135ZM121.809 196.864H123.094V204.5H121.809V196.864ZM132.521 204.5H130.839L127.667 201H126.97V204.5H125.685V196.864H126.97V200.159C127.394 200.159 127.735 200.084 127.995 199.934C128.255 199.779 128.476 199.533 128.658 199.195C128.722 199.072 128.784 198.942 128.843 198.806C128.907 198.664 128.968 198.53 129.027 198.402C129.264 197.887 129.561 197.502 129.916 197.247C130.271 196.992 130.782 196.864 131.447 196.864H132.035V197.972H131.468C131.108 197.972 130.825 198.049 130.62 198.204C130.42 198.354 130.237 198.621 130.073 199.004C129.891 199.432 129.697 199.754 129.492 199.968C129.292 200.177 129.077 200.337 128.85 200.446L132.521 204.5ZM145.728 204.5H144.046L140.874 201H140.177V204.5H138.892V196.864H140.177V200.159C140.601 200.159 140.942 200.084 141.202 199.934C141.462 199.779 141.683 199.533 141.865 199.195C141.929 199.072 141.991 198.942 142.05 198.806C142.114 198.664 142.175 198.53 142.234 198.402C142.471 197.887 142.768 197.502 143.123 197.247C143.479 196.992 143.989 196.864 144.654 196.864H145.242V197.972H144.675C144.315 197.972 144.032 198.049 143.827 198.204C143.627 198.354 143.444 198.621 143.28 199.004C143.098 199.432 142.904 199.754 142.699 199.968C142.499 200.177 142.285 200.337 142.057 200.446L145.728 204.5ZM153.63 200.686C153.63 201.93 153.311 202.912 152.673 203.632C152.035 204.352 151.18 204.712 150.109 204.712C149.029 204.712 148.17 204.352 147.532 203.632C146.899 202.912 146.582 201.93 146.582 200.686C146.582 199.441 146.899 198.459 147.532 197.739C148.17 197.015 149.029 196.652 150.109 196.652C151.18 196.652 152.035 197.015 152.673 197.739C153.311 198.459 153.63 199.441 153.63 200.686ZM152.304 200.686C152.304 199.697 152.11 198.963 151.723 198.484C151.335 198.001 150.798 197.76 150.109 197.76C149.412 197.76 148.87 198.001 148.482 198.484C148.1 198.963 147.908 199.697 147.908 200.686C147.908 201.643 148.102 202.369 148.489 202.866C148.877 203.358 149.417 203.604 150.109 203.604C150.793 203.604 151.328 203.361 151.716 202.873C152.108 202.381 152.304 201.652 152.304 200.686ZM161.785 204.5H160.5V197.944H157.649C157.636 198.323 157.622 198.687 157.608 199.038C157.595 199.389 157.581 199.706 157.567 199.988C157.535 200.749 157.483 201.358 157.41 201.813C157.337 202.265 157.242 202.641 157.123 202.941C157.014 203.224 156.891 203.454 156.754 203.632C156.622 203.805 156.478 203.962 156.323 204.104C156.168 204.24 155.995 204.343 155.804 204.411C155.617 204.479 155.412 204.514 155.188 204.514C155.111 204.514 154.997 204.511 154.847 204.507C154.701 204.502 154.605 204.5 154.56 204.5V203.379H154.628C154.664 203.379 154.717 203.381 154.785 203.386C154.854 203.39 154.91 203.393 154.956 203.393C155.065 203.393 155.177 203.377 155.291 203.345C155.41 203.313 155.51 203.254 155.592 203.167C155.824 202.939 156.011 202.554 156.152 202.012C156.294 201.469 156.387 200.686 156.433 199.66C156.451 199.286 156.467 198.844 156.48 198.334C156.499 197.819 156.515 197.329 156.528 196.864H161.785V204.5ZM171.253 206.332H170.057V204.479H164.314V206.332H163.118V203.406H163.945C164.479 202.527 164.875 201.513 165.135 200.364C165.399 199.211 165.531 198.045 165.531 196.864H170.33V203.406H171.253V206.332ZM169.045 203.406V197.944H166.741C166.682 199.088 166.507 200.132 166.215 201.075C165.923 202.019 165.588 202.796 165.21 203.406H169.045ZM179.538 200.686C179.538 201.93 179.219 202.912 178.581 203.632C177.943 204.352 177.089 204.712 176.018 204.712C174.938 204.712 174.078 204.352 173.44 203.632C172.807 202.912 172.49 201.93 172.49 200.686C172.49 199.441 172.807 198.459 173.44 197.739C174.078 197.015 174.938 196.652 176.018 196.652C177.089 196.652 177.943 197.015 178.581 197.739C179.219 198.459 179.538 199.441 179.538 200.686ZM178.212 200.686C178.212 199.697 178.018 198.963 177.631 198.484C177.243 198.001 176.706 197.76 176.018 197.76C175.32 197.76 174.778 198.001 174.391 198.484C174.008 198.963 173.816 199.697 173.816 200.686C173.816 201.643 174.01 202.369 174.397 202.866C174.785 203.358 175.325 203.604 176.018 203.604C176.701 203.604 177.237 203.361 177.624 202.873C178.016 202.381 178.212 201.652 178.212 200.686ZM188.042 200.686C188.042 201.93 187.723 202.912 187.085 203.632C186.447 204.352 185.592 204.712 184.521 204.712C183.441 204.712 182.582 204.352 181.944 203.632C181.311 202.912 180.994 201.93 180.994 200.686C180.994 199.441 181.311 198.459 181.944 197.739C182.582 197.015 183.441 196.652 184.521 196.652C185.592 196.652 186.447 197.015 187.085 197.739C187.723 198.459 188.042 199.441 188.042 200.686ZM186.716 200.686C186.716 199.697 186.522 198.963 186.135 198.484C185.747 198.001 185.21 197.76 184.521 197.76C183.824 197.76 183.282 198.001 182.895 198.484C182.512 198.963 182.32 199.697 182.32 200.686C182.32 201.643 182.514 202.369 182.901 202.866C183.289 203.358 183.829 203.604 184.521 203.604C185.205 203.604 185.741 203.361 186.128 202.873C186.52 202.381 186.716 201.652 186.716 200.686Z" fill="#333333"/>
<path d="M5 237L12.5 244.5L25 229.5" stroke="#61B857" stroke-width="2" stroke-linecap="round" stroke-linejoin="round"/>
<path d="M47.0508 232.849C47.0508 233.341 46.9528 233.787 46.7568 234.188C46.5654 234.59 46.3079 234.915 45.9844 235.166C45.6016 235.467 45.1914 235.681 44.7539 235.809C44.3164 235.936 43.7513 236 43.0586 236H39.3672V225.821H46.1826V227.024H40.7207V229.813H43.0996C43.7923 229.813 44.3574 229.854 44.7949 229.937C45.2324 230.014 45.6449 230.203 46.0322 230.504C46.3786 230.773 46.6338 231.105 46.7979 231.502C46.9665 231.898 47.0508 232.347 47.0508 232.849ZM45.6357 232.876C45.6357 232.534 45.5788 232.233 45.4648 231.974C45.3509 231.714 45.1732 231.504 44.9316 231.345C44.681 231.176 44.3916 231.074 44.0635 231.037C43.7354 231.001 43.2728 230.982 42.6758 230.982H40.7207V234.845H42.6416C43.2477 234.845 43.7126 234.815 44.0361 234.756C44.3643 234.697 44.6514 234.583 44.8975 234.414C45.1527 234.236 45.3395 234.029 45.458 233.792C45.5765 233.55 45.6357 233.245 45.6357 232.876ZM54.7959 236H53.5176V235.187C53.4036 235.264 53.2487 235.373 53.0527 235.515C52.8613 235.651 52.6745 235.761 52.4922 235.843C52.278 235.948 52.0319 236.034 51.7539 236.103C51.4759 236.175 51.1501 236.212 50.7764 236.212C50.0882 236.212 49.5049 235.984 49.0264 235.528C48.5479 235.073 48.3086 234.492 48.3086 233.785C48.3086 233.206 48.4316 232.739 48.6777 232.384C48.9284 232.024 49.2839 231.741 49.7441 231.536C50.209 231.331 50.7673 231.192 51.4189 231.119C52.0706 231.046 52.7702 230.992 53.5176 230.955V230.757C53.5176 230.465 53.4652 230.224 53.3604 230.032C53.2601 229.841 53.1143 229.69 52.9229 229.581C52.7406 229.476 52.5218 229.406 52.2666 229.369C52.0114 229.333 51.7448 229.314 51.4668 229.314C51.1296 229.314 50.7536 229.36 50.3389 229.451C49.9242 229.538 49.4958 229.665 49.0537 229.834H48.9854V228.528C49.236 228.46 49.5983 228.385 50.0723 228.303C50.5462 228.221 51.0133 228.18 51.4736 228.18C52.0114 228.18 52.4785 228.225 52.875 228.316C53.276 228.403 53.6224 228.553 53.9141 228.768C54.2012 228.977 54.4199 229.248 54.5703 229.581C54.7207 229.914 54.7959 230.326 54.7959 230.818V236ZM53.5176 234.12V231.994C53.1257 232.017 52.6631 232.051 52.1299 232.097C51.6012 232.142 51.182 232.208 50.8721 232.295C50.5029 232.4 50.2044 232.564 49.9766 232.787C49.7487 233.006 49.6348 233.309 49.6348 233.696C49.6348 234.134 49.7669 234.464 50.0312 234.688C50.2956 234.906 50.6989 235.016 51.2412 235.016C51.6924 235.016 52.1048 234.929 52.4785 234.756C52.8522 234.578 53.1986 234.366 53.5176 234.12ZM66.8477 236H65.2959L62.8486 232.514H62.2266V236H60.9551V232.514H60.4014L57.8447 236H56.3613L59.3076 232.001C59.0843 231.882 58.8861 231.714 58.7129 231.495C58.5443 231.276 58.3893 230.946 58.248 230.504C58.125 230.117 57.9792 229.848 57.8105 229.697C57.6419 229.547 57.3662 229.472 56.9834 229.472H56.6211V228.364H57.0928C57.6579 228.364 58.1113 228.478 58.4531 228.706C58.7949 228.934 59.0684 229.333 59.2734 229.902C59.3145 230.021 59.3646 230.158 59.4238 230.312C59.4876 230.463 59.5423 230.59 59.5879 230.695C59.7383 231.042 59.9297 231.288 60.1621 231.434C60.3991 231.575 60.6634 231.655 60.9551 231.673V228.364H62.2266V231.673C62.5182 231.655 62.7826 231.573 63.0195 231.427C63.2611 231.281 63.457 231.037 63.6074 230.695C63.6576 230.581 63.7122 230.449 63.7715 230.299C63.8353 230.148 63.8854 230.016 63.9219 229.902C64.1224 229.342 64.3913 228.945 64.7285 228.713C65.0658 228.48 65.5192 228.364 66.0889 228.364H66.5605V229.472H66.1982C65.8109 229.472 65.5306 229.551 65.3574 229.711C65.1888 229.87 65.0475 230.135 64.9336 230.504C64.806 230.91 64.6533 231.226 64.4756 231.454C64.3024 231.677 64.1133 231.846 63.9082 231.96L66.8477 236ZM73.1436 233.655C73.1436 233.423 73.1025 233.22 73.0205 233.047C72.943 232.869 72.8132 232.726 72.6309 232.616C72.4395 232.502 72.2207 232.434 71.9746 232.411C71.7331 232.388 71.3844 232.377 70.9287 232.377H69.7256V234.975H70.9014C71.3571 234.975 71.7103 234.956 71.9609 234.92C72.2116 234.879 72.4281 234.804 72.6104 234.694C72.7972 234.576 72.9316 234.437 73.0137 234.277C73.1003 234.113 73.1436 233.906 73.1436 233.655ZM74.4697 233.635C74.4697 234.004 74.3945 234.339 74.2441 234.64C74.0983 234.94 73.8978 235.184 73.6426 235.371C73.3418 235.599 73.0205 235.761 72.6787 235.856C72.3369 235.952 71.8971 236 71.3594 236H68.4404V228.364H69.7256V231.338H71.3936C71.9678 231.338 72.4121 231.368 72.7266 231.427C73.0456 231.486 73.3623 231.632 73.6768 231.864C73.9411 232.06 74.1393 232.311 74.2715 232.616C74.4036 232.922 74.4697 233.261 74.4697 233.635ZM75.748 228.364H77.0332V236H75.748V228.364ZM90.8896 226.949C91.3271 227.387 91.6644 227.929 91.9014 228.576C92.1383 229.223 92.2568 229.989 92.2568 230.873C92.2568 231.657 92.1361 232.379 91.8945 233.04C91.6576 233.696 91.3135 234.259 90.8623 234.729C90.3975 235.212 89.8529 235.576 89.2285 235.822C88.6087 236.064 87.9274 236.185 87.1846 236.185C86.542 236.185 85.9313 236.123 85.3525 236C84.7738 235.877 84.2861 235.731 83.8896 235.562V234.065H83.999C84.3682 234.362 84.833 234.599 85.3936 234.776C85.9587 234.95 86.5625 235.036 87.2051 235.036C87.7656 235.036 88.2783 234.938 88.7432 234.742C89.208 234.542 89.5954 234.271 89.9053 233.929C90.2334 233.564 90.4795 233.154 90.6436 232.698C90.8122 232.238 90.8965 231.716 90.8965 231.133H85.3389V229.95H90.8281C90.7643 229.408 90.6276 228.938 90.418 228.542C90.2083 228.141 89.9417 227.811 89.6182 227.551C89.2946 227.291 88.9277 227.1 88.5176 226.977C88.1074 226.849 87.6699 226.785 87.2051 226.785C86.5807 226.785 85.9951 226.874 85.4482 227.052C84.9014 227.225 84.4297 227.464 84.0332 227.77H83.917V226.266C84.3408 226.088 84.8421 225.94 85.4209 225.821C85.9997 225.698 86.5921 225.637 87.1982 225.637C87.9821 225.637 88.6816 225.746 89.2969 225.965C89.9167 226.184 90.4476 226.512 90.8896 226.949ZM101.198 236H99.5166L96.3447 232.5H95.6475V236H94.3623V228.364H95.6475V231.659C96.0713 231.659 96.4131 231.584 96.6729 231.434C96.9326 231.279 97.1536 231.033 97.3359 230.695C97.3997 230.572 97.4613 230.442 97.5205 230.306C97.5843 230.164 97.6458 230.03 97.7051 229.902C97.9421 229.387 98.2383 229.002 98.5938 228.747C98.9492 228.492 99.4596 228.364 100.125 228.364H100.713V229.472H100.146C99.7855 229.472 99.5029 229.549 99.2979 229.704C99.0973 229.854 98.915 230.121 98.751 230.504C98.5687 230.932 98.375 231.254 98.1699 231.468C97.9694 231.677 97.7552 231.837 97.5273 231.946L101.198 236ZM108.308 235.521C107.784 235.768 107.332 235.936 106.954 236.027C106.58 236.123 106.207 236.171 105.833 236.171C105.277 236.171 104.767 236.091 104.302 235.932C103.837 235.768 103.438 235.521 103.105 235.193C102.773 234.865 102.513 234.451 102.326 233.949C102.144 233.448 102.053 232.862 102.053 232.192C102.053 230.976 102.39 230.005 103.064 229.28C103.739 228.551 104.662 228.187 105.833 228.187C106.275 228.187 106.708 228.248 107.132 228.371C107.56 228.494 107.952 228.645 108.308 228.822V230.251H108.232C107.809 229.927 107.389 229.688 106.975 229.533C106.564 229.378 106.166 229.301 105.778 229.301C105.017 229.301 104.427 229.556 104.008 230.066C103.593 230.577 103.386 231.285 103.386 232.192C103.386 233.099 103.593 233.803 104.008 234.305C104.423 234.806 105.013 235.057 105.778 235.057C106.047 235.057 106.314 235.022 106.578 234.954C106.847 234.886 107.091 234.797 107.31 234.688C107.483 234.601 107.66 234.498 107.843 234.38C108.03 234.257 108.16 234.166 108.232 234.106H108.308V235.521ZM116.463 236H115.178V229.472H111.356V236H110.071V228.364H116.463V236ZM125.391 232.315H119.765C119.765 232.785 119.835 233.195 119.977 233.546C120.118 233.892 120.312 234.177 120.558 234.4C120.795 234.619 121.075 234.783 121.398 234.893C121.727 235.002 122.087 235.057 122.479 235.057C122.998 235.057 123.52 234.954 124.044 234.749C124.573 234.539 124.949 234.334 125.172 234.134H125.24V235.535C124.807 235.717 124.365 235.87 123.914 235.993C123.463 236.116 122.989 236.178 122.492 236.178C121.225 236.178 120.236 235.836 119.525 235.152C118.814 234.464 118.459 233.489 118.459 232.227C118.459 230.978 118.799 229.987 119.478 229.253C120.161 228.519 121.059 228.152 122.171 228.152C123.201 228.152 123.994 228.453 124.55 229.055C125.11 229.656 125.391 230.511 125.391 231.618V232.315ZM124.14 231.331C124.135 230.657 123.964 230.135 123.627 229.766C123.294 229.396 122.786 229.212 122.103 229.212C121.414 229.212 120.865 229.415 120.455 229.82C120.049 230.226 119.819 230.729 119.765 231.331H124.14ZM134.059 232.09C134.059 232.71 133.97 233.277 133.792 233.792C133.614 234.302 133.364 234.735 133.04 235.091C132.739 235.428 132.384 235.69 131.974 235.877C131.568 236.059 131.137 236.15 130.682 236.15C130.285 236.15 129.925 236.107 129.602 236.021C129.283 235.934 128.957 235.799 128.624 235.617V238.816H127.339V228.364H128.624V229.164C128.966 228.877 129.349 228.638 129.772 228.446C130.201 228.25 130.657 228.152 131.14 228.152C132.06 228.152 132.776 228.501 133.286 229.198C133.801 229.891 134.059 230.855 134.059 232.09ZM132.732 232.124C132.732 231.203 132.575 230.515 132.261 230.06C131.946 229.604 131.463 229.376 130.812 229.376C130.442 229.376 130.071 229.456 129.697 229.615C129.324 229.775 128.966 229.984 128.624 230.244V234.571C128.989 234.735 129.301 234.847 129.561 234.906C129.825 234.965 130.123 234.995 130.456 234.995C131.172 234.995 131.73 234.754 132.131 234.271C132.532 233.787 132.732 233.072 132.732 232.124ZM141.674 229.492H138.912V236H137.627V229.492H134.865V228.364H141.674V229.492ZM148.619 229.492H145.857V236H144.572V229.492H141.811V228.364H148.619V229.492ZM156.344 232.315H150.718C150.718 232.785 150.788 233.195 150.93 233.546C151.071 233.892 151.265 234.177 151.511 234.4C151.748 234.619 152.028 234.783 152.352 234.893C152.68 235.002 153.04 235.057 153.432 235.057C153.951 235.057 154.473 234.954 154.997 234.749C155.526 234.539 155.902 234.334 156.125 234.134H156.193V235.535C155.76 235.717 155.318 235.87 154.867 235.993C154.416 236.116 153.942 236.178 153.445 236.178C152.178 236.178 151.189 235.836 150.479 235.152C149.768 234.464 149.412 233.489 149.412 232.227C149.412 230.978 149.752 229.987 150.431 229.253C151.114 228.519 152.012 228.152 153.124 228.152C154.154 228.152 154.947 228.453 155.503 229.055C156.063 229.656 156.344 230.511 156.344 231.618V232.315ZM155.093 231.331C155.088 230.657 154.917 230.135 154.58 229.766C154.247 229.396 153.739 229.212 153.056 229.212C152.368 229.212 151.818 229.415 151.408 229.82C151.003 230.226 150.772 230.729 150.718 231.331H155.093ZM165.012 232.09C165.012 232.71 164.923 233.277 164.745 233.792C164.567 234.302 164.317 234.735 163.993 235.091C163.692 235.428 163.337 235.69 162.927 235.877C162.521 236.059 162.09 236.15 161.635 236.15C161.238 236.15 160.878 236.107 160.555 236.021C160.236 235.934 159.91 235.799 159.577 235.617V238.816H158.292V228.364H159.577V229.164C159.919 228.877 160.302 228.638 160.726 228.446C161.154 228.25 161.61 228.152 162.093 228.152C163.013 228.152 163.729 228.501 164.239 229.198C164.754 229.891 165.012 230.855 165.012 232.09ZM163.686 232.124C163.686 231.203 163.528 230.515 163.214 230.06C162.899 229.604 162.416 229.376 161.765 229.376C161.396 229.376 161.024 229.456 160.65 229.615C160.277 229.775 159.919 229.984 159.577 230.244V234.571C159.942 234.735 160.254 234.847 160.514 234.906C160.778 234.965 161.076 234.995 161.409 234.995C162.125 234.995 162.683 234.754 163.084 234.271C163.485 233.787 163.686 233.072 163.686 232.124ZM173.447 236H172.176V230.265L168.177 236H167.015V228.364H168.286V234.018L172.244 228.364H173.447V236ZM182.375 236H181.09V232.562H177.269V236H175.983V228.364H177.269V231.454H181.09V228.364H182.375V236ZM191.344 236H190.072V230.265L186.073 236H184.911V228.364H186.183V234.018L190.141 228.364H191.344V236ZM200.271 236H198.986V232.562H195.165V236H193.88V228.364H195.165V231.454H198.986V228.364H200.271V236ZM47.5498 253H45.8135L41.6777 248.358H40.7549V253H39.4014V242.821H40.7549V247.388C40.9873 247.383 41.2061 247.36 41.4111 247.319C41.6162 247.278 41.8099 247.201 41.9922 247.087C42.1745 246.982 42.3545 246.834 42.5322 246.643C42.71 246.447 42.8672 246.207 43.0039 245.925C43.0632 245.802 43.1315 245.647 43.209 245.46C43.291 245.273 43.373 245.077 43.4551 244.872C43.7695 244.116 44.1364 243.585 44.5557 243.279C44.9795 242.974 45.6016 242.821 46.4219 242.821H46.9619V244.031H46.3945C46.0801 244.031 45.834 244.061 45.6562 244.12C45.4785 244.175 45.319 244.268 45.1777 244.4C45.0456 244.519 44.9294 244.678 44.8291 244.879C44.7334 245.079 44.6331 245.314 44.5283 245.583C44.2913 246.185 44.0498 246.627 43.8037 246.909C43.5622 247.192 43.2363 247.438 42.8262 247.647L47.5498 253ZM55.5752 245.364L51.1182 255.816H49.7441L51.166 252.631L48.124 245.364H49.5186L51.8633 251.024L54.2285 245.364H55.5752ZM63.9766 249.09C63.9766 249.71 63.8877 250.277 63.71 250.792C63.5322 251.302 63.2816 251.735 62.958 252.091C62.6572 252.428 62.3018 252.69 61.8916 252.877C61.486 253.059 61.0553 253.15 60.5996 253.15C60.2031 253.15 59.8431 253.107 59.5195 253.021C59.2005 252.934 58.8747 252.799 58.542 252.617V255.816H57.2568V245.364H58.542V246.164C58.8838 245.877 59.2666 245.638 59.6904 245.446C60.1188 245.25 60.5745 245.152 61.0576 245.152C61.9782 245.152 62.6937 245.501 63.2041 246.198C63.7191 246.891 63.9766 247.855 63.9766 249.09ZM62.6504 249.124C62.6504 248.203 62.4932 247.515 62.1787 247.06C61.8643 246.604 61.3812 246.376 60.7295 246.376C60.3604 246.376 59.9889 246.456 59.6152 246.615C59.2415 246.775 58.8838 246.984 58.542 247.244V251.571C58.9066 251.735 59.2188 251.847 59.4785 251.906C59.7428 251.965 60.0413 251.995 60.374 251.995C61.0895 251.995 61.6478 251.754 62.0488 251.271C62.4499 250.787 62.6504 250.072 62.6504 249.124ZM71.6943 252.521C71.1702 252.768 70.7191 252.936 70.3408 253.027C69.9671 253.123 69.5934 253.171 69.2197 253.171C68.6637 253.171 68.1533 253.091 67.6885 252.932C67.2236 252.768 66.8249 252.521 66.4922 252.193C66.1595 251.865 65.8997 251.451 65.7129 250.949C65.5306 250.448 65.4395 249.862 65.4395 249.192C65.4395 247.976 65.7767 247.005 66.4512 246.28C67.1257 245.551 68.0485 245.187 69.2197 245.187C69.6618 245.187 70.0947 245.248 70.5186 245.371C70.9469 245.494 71.3389 245.645 71.6943 245.822V247.251H71.6191C71.1953 246.927 70.776 246.688 70.3613 246.533C69.9512 246.378 69.5524 246.301 69.165 246.301C68.404 246.301 67.8138 246.556 67.3945 247.066C66.9798 247.577 66.7725 248.285 66.7725 249.192C66.7725 250.099 66.9798 250.803 67.3945 251.305C67.8092 251.806 68.3994 252.057 69.165 252.057C69.4339 252.057 69.7005 252.022 69.9648 251.954C70.2337 251.886 70.4775 251.797 70.6963 251.688C70.8695 251.601 71.0472 251.498 71.2295 251.38C71.4163 251.257 71.5462 251.166 71.6191 251.106H71.6943V252.521ZM80.0615 245.364L75.6045 255.816H74.2305L75.6523 252.631L72.6104 245.364H74.0049L76.3496 251.024L78.7148 245.364H80.0615Z" fill="#333333"/>
</svg>
