<svg width="237" height="222" viewBox="0 0 237 222" fill="none" xmlns="http://www.w3.org/2000/svg">
<path d="M15.4199 20H10.8203L6.52344 14.1309H5.60547V20H1.85547V5.45898H5.60547V11.3867C5.91146 11.3737 6.16536 11.3444 6.36719 11.2988C6.56901 11.2467 6.75456 11.1589 6.92383 11.0352C7.09961 10.9049 7.28841 10.7129 7.49023 10.459C7.69206 10.1986 7.90365 9.87956 8.125 9.50195C8.26172 9.26758 8.41471 8.99089 8.58398 8.67188C8.75977 8.34635 8.90625 8.07943 9.02344 7.87109C9.52474 6.99219 10.0521 6.36719 10.6055 5.99609C11.1589 5.61849 11.9954 5.42969 13.1152 5.42969C13.4473 5.42969 13.7435 5.4362 14.0039 5.44922C14.2643 5.45573 14.4564 5.45898 14.5801 5.45898V8.61328H13.4961C12.9622 8.61328 12.5456 8.75 12.2461 9.02344C11.9531 9.29688 11.6276 9.77865 11.2695 10.4688C10.9115 11.1523 10.6185 11.6341 10.3906 11.9141C10.1628 12.1875 9.94141 12.3828 9.72656 12.5L15.4199 20ZM23.7305 17.1387V14.8535C23.2552 14.8926 22.7409 14.9479 22.1875 15.0195C21.6341 15.0846 21.2142 15.1628 20.9277 15.2539C20.5762 15.3646 20.306 15.5273 20.1172 15.7422C19.9349 15.9505 19.8438 16.2272 19.8438 16.5723C19.8438 16.8001 19.8633 16.9857 19.9023 17.1289C19.9414 17.2721 20.0391 17.4089 20.1953 17.5391C20.3451 17.6693 20.5241 17.7669 20.7324 17.832C20.9408 17.8906 21.2663 17.9199 21.709 17.9199C22.0605 17.9199 22.4154 17.8483 22.7734 17.7051C23.138 17.5618 23.457 17.373 23.7305 17.1387ZM23.7305 18.8379C23.5417 18.9811 23.3073 19.1536 23.0273 19.3555C22.7474 19.5573 22.4837 19.7168 22.2363 19.834C21.8913 19.9902 21.5332 20.1042 21.1621 20.1758C20.791 20.2539 20.3841 20.293 19.9414 20.293C18.8997 20.293 18.0273 19.9707 17.3242 19.3262C16.6211 18.6816 16.2695 17.8581 16.2695 16.8555C16.2695 16.0547 16.4486 15.4004 16.8066 14.8926C17.1647 14.3848 17.6725 13.9844 18.3301 13.6914C18.9811 13.3984 19.7884 13.1901 20.752 13.0664C21.7155 12.9427 22.7148 12.8516 23.75 12.793V12.7344C23.75 12.1289 23.5026 11.7122 23.0078 11.4844C22.513 11.25 21.7839 11.1328 20.8203 11.1328C20.2409 11.1328 19.6224 11.237 18.9648 11.4453C18.3073 11.6471 17.8353 11.8034 17.5488 11.9141H17.2266V9.26758C17.5977 9.16992 18.1999 9.05599 19.0332 8.92578C19.873 8.78906 20.7129 8.7207 21.5527 8.7207C23.5514 8.7207 24.9935 9.02995 25.8789 9.64844C26.7708 10.2604 27.2168 11.224 27.2168 12.5391V20H23.7305V18.8379ZM41.8945 14.3652C41.8945 15.2702 41.7546 16.0938 41.4746 16.8359C41.2012 17.5781 40.8398 18.1901 40.3906 18.6719C39.9219 19.1797 39.3913 19.5638 38.7988 19.8242C38.2064 20.0846 37.5716 20.2148 36.8945 20.2148C36.2695 20.2148 35.7389 20.1465 35.3027 20.0098C34.8665 19.8796 34.4206 19.694 33.9648 19.4531V24.0234H30.4492V9.0332H33.9648V10.1758C34.5052 9.74609 35.0553 9.39779 35.6152 9.13086C36.1816 8.86393 36.8327 8.73047 37.5684 8.73047C38.9355 8.73047 39.9967 9.23177 40.752 10.2344C41.5137 11.237 41.8945 12.6139 41.8945 14.3652ZM38.2715 14.4336C38.2715 13.3659 38.0892 12.5911 37.7246 12.1094C37.36 11.6276 36.7839 11.3867 35.9961 11.3867C35.6641 11.3867 35.3223 11.4388 34.9707 11.543C34.6191 11.6406 34.2839 11.7839 33.9648 11.9727V17.4902C34.1992 17.5814 34.4499 17.64 34.7168 17.666C34.9837 17.6921 35.2474 17.7051 35.5078 17.7051C36.4388 17.7051 37.1322 17.4349 37.5879 16.8945C38.0436 16.3477 38.2715 15.5273 38.2715 14.4336ZM62.3145 20H58.2715L55.5078 15.6543H54.5117V20H51.0156V15.6543H50.0195L47.2559 20H43.2129L46.9922 14.3555C46.8099 14.2188 46.6634 14.069 46.5527 13.9062C46.4421 13.7435 46.3086 13.4831 46.1523 13.125C45.957 12.6888 45.7422 12.3861 45.5078 12.2168C45.2734 12.0475 44.9772 11.9629 44.6191 11.9629H43.6621V9.0332C43.7728 9.0332 43.9551 9.02995 44.209 9.02344C44.4694 9.01693 44.7363 9.01367 45.0098 9.01367C45.9147 9.01367 46.5951 9.17643 47.0508 9.50195C47.513 9.82747 47.9167 10.293 48.2617 10.8984C48.3398 11.0417 48.444 11.2435 48.5742 11.5039C48.7109 11.7643 48.8314 11.9857 48.9355 12.168C49.2806 12.7669 49.5671 13.1283 49.7949 13.252C50.0228 13.3757 50.4297 13.4375 51.0156 13.4375V9.0332H54.5117V13.4375C55.1562 13.431 55.5827 13.3594 55.791 13.2227C56.0059 13.0859 56.2728 12.7344 56.5918 12.168C56.6895 11.9987 56.8066 11.7806 56.9434 11.5137C57.0801 11.2467 57.1875 11.0417 57.2656 10.8984C57.5586 10.3451 57.946 9.89258 58.4277 9.54102C58.9095 9.18945 59.6061 9.01367 60.5176 9.01367C60.765 9.01367 61.0254 9.01693 61.2988 9.02344C61.5788 9.02995 61.7676 9.0332 61.8652 9.0332V11.9629H60.9082C60.5436 11.9629 60.2409 12.054 60 12.2363C59.7656 12.4121 59.5573 12.7083 59.375 13.125C59.2318 13.444 59.1016 13.6979 58.9844 13.8867C58.8672 14.069 58.7174 14.2253 58.5352 14.3555L62.3145 20ZM71.4648 16.3281C71.4648 15.8594 71.3249 15.5078 71.0449 15.2734C70.765 15.0391 70.3613 14.9219 69.834 14.9219H67.9199V17.7832H69.834C70.1855 17.7832 70.472 17.7344 70.6934 17.6367C70.9147 17.5326 71.0775 17.4056 71.1816 17.2559C71.2923 17.1126 71.3672 16.9629 71.4062 16.8066C71.4453 16.6504 71.4648 16.4909 71.4648 16.3281ZM75.0781 16.2988C75.0781 16.8587 74.9674 17.3763 74.7461 17.8516C74.5247 18.3268 74.235 18.7142 73.877 19.0137C73.4342 19.3717 72.9753 19.6257 72.5 19.7754C72.0312 19.9251 71.3965 20 70.5957 20H64.4141V9.0332H67.9199V12.6953H70.6055C71.3932 12.6953 72.028 12.7539 72.5098 12.8711C72.998 12.9818 73.4603 13.1999 73.8965 13.5254C74.2871 13.8184 74.5801 14.2122 74.7754 14.707C74.9772 15.1953 75.0781 15.7259 75.0781 16.2988ZM79.8242 20H76.3086V9.0332H79.8242V20ZM94.0332 20H90.5176V11.4844H87.6172C87.5977 11.9727 87.5814 12.3535 87.5684 12.627C87.5618 12.8939 87.5521 13.2064 87.5391 13.5645C87.4935 14.6126 87.4056 15.4655 87.2754 16.123C87.1452 16.7806 86.9792 17.3177 86.7773 17.7344C86.582 18.1576 86.3704 18.4928 86.1426 18.7402C85.9212 18.9876 85.6966 19.2025 85.4688 19.3848C85.2083 19.5931 84.8665 19.7591 84.4434 19.8828C84.0267 20.0065 83.623 20.0684 83.2324 20.0684C82.9264 20.0684 82.6172 20.0553 82.3047 20.0293C81.9922 20.0098 81.8066 20 81.748 20V17.1875H81.8555C81.8815 17.1875 81.9271 17.1908 81.9922 17.1973C82.0573 17.2038 82.1224 17.207 82.1875 17.207C82.3568 17.207 82.5293 17.1908 82.7051 17.1582C82.8874 17.1257 83.0371 17.054 83.1543 16.9434C83.5905 16.5267 83.8802 16.0059 84.0234 15.3809C84.1732 14.7493 84.2806 13.8184 84.3457 12.5879C84.3717 12.1322 84.3978 11.6113 84.4238 11.0254C84.4499 10.4395 84.4727 9.77539 84.4922 9.0332H94.0332V20ZM108.574 14.5215C108.574 16.3249 108.047 17.7474 106.992 18.7891C105.944 19.8242 104.469 20.3418 102.568 20.3418C100.667 20.3418 99.1895 19.8242 98.1348 18.7891C97.0866 17.7474 96.5625 16.3249 96.5625 14.5215C96.5625 12.7051 97.0898 11.2793 98.1445 10.2441C99.2057 9.20898 100.68 8.69141 102.568 8.69141C104.482 8.69141 105.96 9.21224 107.002 10.2539C108.05 11.2956 108.574 12.7181 108.574 14.5215ZM104.248 17.1875C104.476 16.9076 104.645 16.5723 104.756 16.1816C104.873 15.7845 104.932 15.2376 104.932 14.541C104.932 13.8965 104.873 13.3561 104.756 12.9199C104.639 12.4837 104.476 12.1354 104.268 11.875C104.059 11.6081 103.809 11.4193 103.516 11.3086C103.223 11.1979 102.907 11.1426 102.568 11.1426C102.23 11.1426 101.927 11.1882 101.66 11.2793C101.4 11.3704 101.149 11.5527 100.908 11.8262C100.693 12.0801 100.521 12.4284 100.391 12.8711C100.267 13.3138 100.205 13.8704 100.205 14.541C100.205 15.14 100.26 15.6608 100.371 16.1035C100.482 16.5397 100.645 16.8913 100.859 17.1582C101.068 17.4121 101.315 17.5977 101.602 17.7148C101.895 17.832 102.227 17.8906 102.598 17.8906C102.917 17.8906 103.219 17.8385 103.506 17.7344C103.799 17.6237 104.046 17.4414 104.248 17.1875ZM122.305 14.5215C122.305 16.3249 121.777 17.7474 120.723 18.7891C119.674 19.8242 118.2 20.3418 116.299 20.3418C114.398 20.3418 112.92 19.8242 111.865 18.7891C110.817 17.7474 110.293 16.3249 110.293 14.5215C110.293 12.7051 110.82 11.2793 111.875 10.2441C112.936 9.20898 114.411 8.69141 116.299 8.69141C118.213 8.69141 119.691 9.21224 120.732 10.2539C121.781 11.2956 122.305 12.7181 122.305 14.5215ZM117.979 17.1875C118.206 16.9076 118.376 16.5723 118.486 16.1816C118.604 15.7845 118.662 15.2376 118.662 14.541C118.662 13.8965 118.604 13.3561 118.486 12.9199C118.369 12.4837 118.206 12.1354 117.998 11.875C117.79 11.6081 117.539 11.4193 117.246 11.3086C116.953 11.1979 116.637 11.1426 116.299 11.1426C115.96 11.1426 115.658 11.1882 115.391 11.2793C115.13 11.3704 114.88 11.5527 114.639 11.8262C114.424 12.0801 114.251 12.4284 114.121 12.8711C113.997 13.3138 113.936 13.8704 113.936 14.541C113.936 15.14 113.991 15.6608 114.102 16.1035C114.212 16.5397 114.375 16.8913 114.59 17.1582C114.798 17.4121 115.046 17.5977 115.332 17.7148C115.625 17.832 115.957 17.8906 116.328 17.8906C116.647 17.8906 116.95 17.8385 117.236 17.7344C117.529 17.6237 117.777 17.4414 117.979 17.1875Z" fill="#333333"/>
<path d="M5 47L12.5 54.5L25 39.5" stroke="#61B857" stroke-width="2" stroke-linecap="round" stroke-linejoin="round"/>
<path d="M48.4316 52.5H47.0781V43.7295L44.248 49.6973H43.4414L40.6318 43.7295V52.5H39.3672V42.3213H41.2129L43.9268 47.9883L46.5518 42.3213H48.4316V52.5ZM56.9971 52.5H55.7188V51.6865C55.6048 51.764 55.4499 51.8734 55.2539 52.0146C55.0625 52.1514 54.8757 52.2607 54.6934 52.3428C54.4792 52.4476 54.2331 52.5342 53.9551 52.6025C53.6771 52.6755 53.3512 52.7119 52.9775 52.7119C52.2894 52.7119 51.7061 52.484 51.2275 52.0283C50.749 51.5726 50.5098 50.9915 50.5098 50.2852C50.5098 49.7064 50.6328 49.2393 50.8789 48.8838C51.1296 48.5238 51.485 48.2412 51.9453 48.0361C52.4102 47.8311 52.9684 47.6921 53.6201 47.6191C54.2718 47.5462 54.9714 47.4915 55.7188 47.4551V47.2568C55.7188 46.9652 55.6663 46.7236 55.5615 46.5322C55.4613 46.3408 55.3154 46.1904 55.124 46.0811C54.9417 45.9762 54.723 45.9056 54.4678 45.8691C54.2126 45.8327 53.946 45.8145 53.668 45.8145C53.3307 45.8145 52.9548 45.86 52.54 45.9512C52.1253 46.0378 51.6969 46.1654 51.2549 46.334H51.1865V45.0283C51.4372 44.96 51.7995 44.8848 52.2734 44.8027C52.7474 44.7207 53.2145 44.6797 53.6748 44.6797C54.2126 44.6797 54.6797 44.7253 55.0762 44.8164C55.4772 44.903 55.8236 45.0534 56.1152 45.2676C56.4023 45.4772 56.6211 45.7484 56.7715 46.0811C56.9219 46.4137 56.9971 46.8262 56.9971 47.3184V52.5ZM55.7188 50.6201V48.4941C55.3268 48.5169 54.8643 48.5511 54.3311 48.5967C53.8024 48.6423 53.3831 48.7083 53.0732 48.7949C52.7041 48.8997 52.4056 49.0638 52.1777 49.2871C51.9499 49.5059 51.8359 49.8089 51.8359 50.1963C51.8359 50.6338 51.9681 50.9642 52.2324 51.1875C52.4967 51.4062 52.9001 51.5156 53.4424 51.5156C53.8936 51.5156 54.306 51.429 54.6797 51.2559C55.0534 51.0781 55.3997 50.8662 55.7188 50.6201ZM65.4053 52.5H64.127V51.6865C64.013 51.764 63.8581 51.8734 63.6621 52.0146C63.4707 52.1514 63.2839 52.2607 63.1016 52.3428C62.8874 52.4476 62.6413 52.5342 62.3633 52.6025C62.0853 52.6755 61.7594 52.7119 61.3857 52.7119C60.6976 52.7119 60.1143 52.484 59.6357 52.0283C59.1572 51.5726 58.918 50.9915 58.918 50.2852C58.918 49.7064 59.041 49.2393 59.2871 48.8838C59.5378 48.5238 59.8932 48.2412 60.3535 48.0361C60.8184 47.8311 61.3766 47.6921 62.0283 47.6191C62.68 47.5462 63.3796 47.4915 64.127 47.4551V47.2568C64.127 46.9652 64.0745 46.7236 63.9697 46.5322C63.8695 46.3408 63.7236 46.1904 63.5322 46.0811C63.3499 45.9762 63.1312 45.9056 62.876 45.8691C62.6208 45.8327 62.3542 45.8145 62.0762 45.8145C61.7389 45.8145 61.363 45.86 60.9482 45.9512C60.5335 46.0378 60.1051 46.1654 59.6631 46.334H59.5947V45.0283C59.8454 44.96 60.2077 44.8848 60.6816 44.8027C61.1556 44.7207 61.6227 44.6797 62.083 44.6797C62.6208 44.6797 63.0879 44.7253 63.4844 44.8164C63.8854 44.903 64.2318 45.0534 64.5234 45.2676C64.8105 45.4772 65.0293 45.7484 65.1797 46.0811C65.3301 46.4137 65.4053 46.8262 65.4053 47.3184V52.5ZM64.127 50.6201V48.4941C63.735 48.5169 63.2725 48.5511 62.7393 48.5967C62.2106 48.6423 61.7913 48.7083 61.4814 48.7949C61.1123 48.8997 60.8138 49.0638 60.5859 49.2871C60.3581 49.5059 60.2441 49.8089 60.2441 50.1963C60.2441 50.6338 60.3763 50.9642 60.6406 51.1875C60.9049 51.4062 61.3083 51.5156 61.8506 51.5156C62.3018 51.5156 62.7142 51.429 63.0879 51.2559C63.4616 51.0781 63.8079 50.8662 64.127 50.6201ZM74.0391 52.5H72.7539V45.9443H69.9033C69.8896 46.3226 69.876 46.6872 69.8623 47.0381C69.8486 47.389 69.835 47.7057 69.8213 47.9883C69.7894 48.7493 69.737 49.3577 69.6641 49.8135C69.5911 50.2646 69.4954 50.6406 69.377 50.9414C69.2676 51.224 69.1445 51.4541 69.0078 51.6318C68.8757 51.805 68.7321 51.9622 68.5771 52.1035C68.4222 52.2402 68.249 52.3428 68.0576 52.4111C67.8708 52.4795 67.6657 52.5137 67.4424 52.5137C67.3649 52.5137 67.251 52.5114 67.1006 52.5068C66.9548 52.5023 66.859 52.5 66.8135 52.5V51.3789H66.8818C66.9183 51.3789 66.9707 51.3812 67.0391 51.3857C67.1074 51.3903 67.1644 51.3926 67.21 51.3926C67.3193 51.3926 67.431 51.3766 67.5449 51.3447C67.6634 51.3128 67.7637 51.2536 67.8457 51.167C68.0781 50.9391 68.265 50.554 68.4062 50.0117C68.5475 49.4694 68.641 48.6855 68.6865 47.6602C68.7048 47.2865 68.7207 46.8444 68.7344 46.334C68.7526 45.819 68.7686 45.3291 68.7822 44.8643H74.0391V52.5ZM81.2783 50.1553C81.2783 49.9229 81.2373 49.7201 81.1553 49.5469C81.0778 49.3691 80.9479 49.2256 80.7656 49.1162C80.5742 49.0023 80.3555 48.9339 80.1094 48.9111C79.8678 48.8883 79.5192 48.877 79.0635 48.877H77.8604V51.4746H79.0361C79.4919 51.4746 79.8451 51.4564 80.0957 51.4199C80.3464 51.3789 80.5628 51.3037 80.7451 51.1943C80.932 51.0758 81.0664 50.9368 81.1484 50.7773C81.235 50.6133 81.2783 50.4059 81.2783 50.1553ZM82.6045 50.1348C82.6045 50.5039 82.5293 50.8389 82.3789 51.1396C82.2331 51.4404 82.0326 51.6842 81.7773 51.8711C81.4766 52.099 81.1553 52.2607 80.8135 52.3564C80.4717 52.4521 80.0319 52.5 79.4941 52.5H76.5752V44.8643H77.8604V47.8379H79.5283C80.1025 47.8379 80.5469 47.8675 80.8613 47.9268C81.1803 47.986 81.4971 48.1318 81.8115 48.3643C82.0758 48.5602 82.2741 48.8109 82.4062 49.1162C82.5384 49.4215 82.6045 49.7611 82.6045 50.1348ZM83.8828 44.8643H85.168V52.5H83.8828V44.8643ZM94.9229 52.5H93.6514V46.4707L91.751 50.3945H90.7939L88.9072 46.4707V52.5H87.7041V44.8643H89.2559L91.334 49.1367L93.3438 44.8643H94.9229V52.5ZM103.386 52.5H102.107V51.6865C101.993 51.764 101.839 51.8734 101.643 52.0146C101.451 52.1514 101.264 52.2607 101.082 52.3428C100.868 52.4476 100.622 52.5342 100.344 52.6025C100.066 52.6755 99.7399 52.7119 99.3662 52.7119C98.6781 52.7119 98.0947 52.484 97.6162 52.0283C97.1377 51.5726 96.8984 50.9915 96.8984 50.2852C96.8984 49.7064 97.0215 49.2393 97.2676 48.8838C97.5182 48.5238 97.8737 48.2412 98.334 48.0361C98.7988 47.8311 99.3571 47.6921 100.009 47.6191C100.66 47.5462 101.36 47.4915 102.107 47.4551V47.2568C102.107 46.9652 102.055 46.7236 101.95 46.5322C101.85 46.3408 101.704 46.1904 101.513 46.0811C101.33 45.9762 101.112 45.9056 100.856 45.8691C100.601 45.8327 100.335 45.8145 100.057 45.8145C99.7194 45.8145 99.3434 45.86 98.9287 45.9512C98.514 46.0378 98.0856 46.1654 97.6436 46.334H97.5752V45.0283C97.8258 44.96 98.1882 44.8848 98.6621 44.8027C99.1361 44.7207 99.6032 44.6797 100.063 44.6797C100.601 44.6797 101.068 44.7253 101.465 44.8164C101.866 44.903 102.212 45.0534 102.504 45.2676C102.791 45.4772 103.01 45.7484 103.16 46.0811C103.311 46.4137 103.386 46.8262 103.386 47.3184V52.5ZM102.107 50.6201V48.4941C101.715 48.5169 101.253 48.5511 100.72 48.5967C100.191 48.6423 99.7718 48.7083 99.4619 48.7949C99.0928 48.8997 98.7943 49.0638 98.5664 49.2871C98.3385 49.5059 98.2246 49.8089 98.2246 50.1963C98.2246 50.6338 98.3568 50.9642 98.6211 51.1875C98.8854 51.4062 99.2887 51.5156 99.8311 51.5156C100.282 51.5156 100.695 51.429 101.068 51.2559C101.442 51.0781 101.788 50.8662 102.107 50.6201ZM111.473 45.9922H108.711V52.5H107.426V45.9922H104.664V44.8643H111.473V45.9922ZM125.514 49.3486C125.514 49.8408 125.416 50.2874 125.22 50.6885C125.028 51.0895 124.771 51.4154 124.447 51.666C124.064 51.9668 123.654 52.181 123.217 52.3086C122.779 52.4362 122.214 52.5 121.521 52.5H117.83V42.3213H124.646V43.5244H119.184V46.3135H121.562C122.255 46.3135 122.82 46.3545 123.258 46.4365C123.695 46.514 124.108 46.7031 124.495 47.0039C124.841 47.2728 125.097 47.6055 125.261 48.002C125.429 48.3984 125.514 48.8473 125.514 49.3486ZM124.099 49.376C124.099 49.0342 124.042 48.7334 123.928 48.4736C123.814 48.2139 123.636 48.0042 123.395 47.8447C123.144 47.6761 122.854 47.5736 122.526 47.5371C122.198 47.5007 121.736 47.4824 121.139 47.4824H119.184V51.3447H121.104C121.711 51.3447 122.175 51.3151 122.499 51.2559C122.827 51.1966 123.114 51.0827 123.36 50.9141C123.616 50.7363 123.802 50.529 123.921 50.292C124.039 50.0505 124.099 49.7451 124.099 49.376ZM133.259 52.5H131.98V51.6865C131.867 51.764 131.712 51.8734 131.516 52.0146C131.324 52.1514 131.137 52.2607 130.955 52.3428C130.741 52.4476 130.495 52.5342 130.217 52.6025C129.939 52.6755 129.613 52.7119 129.239 52.7119C128.551 52.7119 127.968 52.484 127.489 52.0283C127.011 51.5726 126.771 50.9915 126.771 50.2852C126.771 49.7064 126.895 49.2393 127.141 48.8838C127.391 48.5238 127.747 48.2412 128.207 48.0361C128.672 47.8311 129.23 47.6921 129.882 47.6191C130.534 47.5462 131.233 47.4915 131.98 47.4551V47.2568C131.98 46.9652 131.928 46.7236 131.823 46.5322C131.723 46.3408 131.577 46.1904 131.386 46.0811C131.203 45.9762 130.985 45.9056 130.729 45.8691C130.474 45.8327 130.208 45.8145 129.93 45.8145C129.592 45.8145 129.216 45.86 128.802 45.9512C128.387 46.0378 127.959 46.1654 127.517 46.334H127.448V45.0283C127.699 44.96 128.061 44.8848 128.535 44.8027C129.009 44.7207 129.476 44.6797 129.937 44.6797C130.474 44.6797 130.941 44.7253 131.338 44.8164C131.739 44.903 132.085 45.0534 132.377 45.2676C132.664 45.4772 132.883 45.7484 133.033 46.0811C133.184 46.4137 133.259 46.8262 133.259 47.3184V52.5ZM131.98 50.6201V48.4941C131.589 48.5169 131.126 48.5511 130.593 48.5967C130.064 48.6423 129.645 48.7083 129.335 48.7949C128.966 48.8997 128.667 49.0638 128.439 49.2871C128.212 49.5059 128.098 49.8089 128.098 50.1963C128.098 50.6338 128.23 50.9642 128.494 51.1875C128.758 51.4062 129.162 51.5156 129.704 51.5156C130.155 51.5156 130.568 51.429 130.941 51.2559C131.315 51.0781 131.661 50.8662 131.98 50.6201ZM141.045 50.3604C141.045 50.7887 140.945 51.151 140.744 51.4473C140.548 51.7435 140.295 51.9827 139.985 52.165C139.675 52.3428 139.334 52.4727 138.96 52.5547C138.586 52.6367 138.213 52.6777 137.839 52.6777C137.31 52.6777 136.807 52.6276 136.328 52.5273C135.85 52.4271 135.378 52.2721 134.913 52.0625V50.6543H135.002C135.335 50.946 135.758 51.1715 136.273 51.3311C136.788 51.4906 137.287 51.5703 137.771 51.5703C137.998 51.5703 138.233 51.5498 138.475 51.5088C138.716 51.4632 138.926 51.3926 139.104 51.2969C139.295 51.1875 139.448 51.0576 139.562 50.9072C139.675 50.7523 139.732 50.5426 139.732 50.2783C139.732 50.0049 139.675 49.7861 139.562 49.6221C139.452 49.458 139.302 49.335 139.11 49.2529C138.924 49.1709 138.698 49.1208 138.434 49.1025C138.169 49.0843 137.928 49.0752 137.709 49.0752H136.595V47.9678H137.367C137.549 47.9678 137.786 47.9609 138.078 47.9473C138.374 47.9336 138.614 47.8971 138.796 47.8379C139.033 47.7604 139.22 47.651 139.356 47.5098C139.498 47.3685 139.568 47.1429 139.568 46.833C139.568 46.6188 139.514 46.4434 139.404 46.3066C139.295 46.1654 139.158 46.056 138.994 45.9785C138.826 45.901 138.636 45.8486 138.427 45.8213C138.222 45.7939 138.039 45.7803 137.88 45.7803C137.415 45.7803 136.957 45.8441 136.506 45.9717C136.059 46.0947 135.683 46.2747 135.378 46.5117H135.289V45.0967C135.667 44.9736 136.073 44.8734 136.506 44.7959C136.939 44.7184 137.372 44.6797 137.805 44.6797C138.16 44.6797 138.513 44.7116 138.864 44.7754C139.22 44.8392 139.55 44.9486 139.855 45.1035C140.156 45.2585 140.402 45.4704 140.594 45.7393C140.785 46.0036 140.881 46.3317 140.881 46.7236C140.881 47.1247 140.756 47.4779 140.505 47.7832C140.259 48.084 139.926 48.3005 139.507 48.4326V48.4805C139.976 48.5944 140.35 48.8086 140.628 49.123C140.906 49.4329 141.045 49.8454 141.045 50.3604ZM149.009 52.5H147.73V51.6865C147.617 51.764 147.462 51.8734 147.266 52.0146C147.074 52.1514 146.887 52.2607 146.705 52.3428C146.491 52.4476 146.245 52.5342 145.967 52.6025C145.689 52.6755 145.363 52.7119 144.989 52.7119C144.301 52.7119 143.718 52.484 143.239 52.0283C142.761 51.5726 142.521 50.9915 142.521 50.2852C142.521 49.7064 142.645 49.2393 142.891 48.8838C143.141 48.5238 143.497 48.2412 143.957 48.0361C144.422 47.8311 144.98 47.6921 145.632 47.6191C146.284 47.5462 146.983 47.4915 147.73 47.4551V47.2568C147.73 46.9652 147.678 46.7236 147.573 46.5322C147.473 46.3408 147.327 46.1904 147.136 46.0811C146.953 45.9762 146.735 45.9056 146.479 45.8691C146.224 45.8327 145.958 45.8145 145.68 45.8145C145.342 45.8145 144.966 45.86 144.552 45.9512C144.137 46.0378 143.709 46.1654 143.267 46.334H143.198V45.0283C143.449 44.96 143.811 44.8848 144.285 44.8027C144.759 44.7207 145.226 44.6797 145.687 44.6797C146.224 44.6797 146.691 44.7253 147.088 44.8164C147.489 44.903 147.835 45.0534 148.127 45.2676C148.414 45.4772 148.633 45.7484 148.783 46.0811C148.934 46.4137 149.009 46.8262 149.009 47.3184V52.5ZM147.73 50.6201V48.4941C147.339 48.5169 146.876 48.5511 146.343 48.5967C145.814 48.6423 145.395 48.7083 145.085 48.7949C144.716 48.8997 144.417 49.0638 144.189 49.2871C143.962 49.5059 143.848 49.8089 143.848 50.1963C143.848 50.6338 143.98 50.9642 144.244 51.1875C144.508 51.4062 144.912 51.5156 145.454 51.5156C145.905 51.5156 146.318 51.429 146.691 51.2559C147.065 51.0781 147.411 50.8662 147.73 50.6201ZM157.198 52.0215C156.674 52.2676 156.223 52.4362 155.845 52.5273C155.471 52.623 155.097 52.6709 154.724 52.6709C154.168 52.6709 153.657 52.5911 153.192 52.4316C152.728 52.2676 152.329 52.0215 151.996 51.6934C151.663 51.3652 151.404 50.9505 151.217 50.4492C151.035 49.9479 150.943 49.3623 150.943 48.6924C150.943 47.4756 151.281 46.5049 151.955 45.7803C152.63 45.0511 153.552 44.6865 154.724 44.6865C155.166 44.6865 155.599 44.748 156.022 44.8711C156.451 44.9941 156.843 45.1445 157.198 45.3223V46.751H157.123C156.699 46.4274 156.28 46.1882 155.865 46.0332C155.455 45.8783 155.056 45.8008 154.669 45.8008C153.908 45.8008 153.318 46.056 152.898 46.5664C152.484 47.0768 152.276 47.7855 152.276 48.6924C152.276 49.5993 152.484 50.3034 152.898 50.8047C153.313 51.306 153.903 51.5566 154.669 51.5566C154.938 51.5566 155.204 51.5225 155.469 51.4541C155.738 51.3857 155.981 51.2969 156.2 51.1875C156.373 51.1009 156.551 50.9984 156.733 50.8799C156.92 50.7568 157.05 50.6657 157.123 50.6064H157.198V52.0215ZM163.665 50.1553C163.665 49.9229 163.624 49.7201 163.542 49.5469C163.465 49.3691 163.335 49.2256 163.152 49.1162C162.961 49.0023 162.742 48.9339 162.496 48.9111C162.255 48.8883 161.906 48.877 161.45 48.877H160.247V51.4746H161.423C161.879 51.4746 162.232 51.4564 162.482 51.4199C162.733 51.3789 162.95 51.3037 163.132 51.1943C163.319 51.0758 163.453 50.9368 163.535 50.7773C163.622 50.6133 163.665 50.4059 163.665 50.1553ZM164.991 50.1348C164.991 50.5039 164.916 50.8389 164.766 51.1396C164.62 51.4404 164.419 51.6842 164.164 51.8711C163.863 52.099 163.542 52.2607 163.2 52.3564C162.858 52.4521 162.419 52.5 161.881 52.5H158.962V44.8643H160.247V47.8379H161.915C162.489 47.8379 162.934 47.8675 163.248 47.9268C163.567 47.986 163.884 48.1318 164.198 48.3643C164.463 48.5602 164.661 48.8109 164.793 49.1162C164.925 49.4215 164.991 49.7611 164.991 50.1348ZM166.27 44.8643H167.555V52.5H166.27V44.8643Z" fill="#333333"/>
<path d="M5 85L12.5 92.5L25 77.5" stroke="#61B857" stroke-width="2" stroke-linecap="round" stroke-linejoin="round"/>
<path d="M48.7461 85.3389C48.7461 85.9769 48.6436 86.5443 48.4385 87.041C48.238 87.5332 47.9577 87.9456 47.5977 88.2783C47.2103 88.6383 46.7386 88.9255 46.1826 89.1396C45.6266 89.3493 45.0342 89.4609 44.4053 89.4746V90.6094H43.0586V89.4746C42.4479 89.4609 41.8623 89.3516 41.3018 89.1465C40.7412 88.9414 40.2627 88.652 39.8662 88.2783C39.5062 87.9411 39.2236 87.5264 39.0186 87.0342C38.818 86.542 38.7178 85.9769 38.7178 85.3389C38.7178 84.7191 38.8158 84.1768 39.0117 83.7119C39.2077 83.2471 39.4788 82.8415 39.8252 82.4951C40.1943 82.126 40.6546 81.8343 41.2061 81.6201C41.762 81.4059 42.3796 81.2897 43.0586 81.2715V80.2119H44.4053V81.2715C45.0798 81.2852 45.6973 81.4036 46.2578 81.627C46.8184 81.8503 47.2786 82.1396 47.6387 82.4951C47.9805 82.8278 48.2493 83.2311 48.4453 83.7051C48.6458 84.179 48.7461 84.7236 48.7461 85.3389ZM47.3379 85.2842C47.3379 84.833 47.265 84.4183 47.1191 84.04C46.9733 83.6618 46.766 83.3428 46.4971 83.083C46.2327 82.8278 45.9388 82.641 45.6152 82.5225C45.2917 82.404 44.8883 82.3402 44.4053 82.3311V88.415C44.8337 88.4059 45.2233 88.3376 45.5742 88.21C45.9251 88.0778 46.2145 87.9046 46.4424 87.6904C46.7386 87.417 46.9619 87.082 47.1123 86.6855C47.2627 86.2891 47.3379 85.8219 47.3379 85.2842ZM43.0586 88.415V82.3311C42.5755 82.3356 42.1722 82.3994 41.8486 82.5225C41.5251 82.6455 41.2311 82.8324 40.9668 83.083C40.7025 83.3337 40.4951 83.6527 40.3447 84.04C40.1989 84.4274 40.126 84.8421 40.126 85.2842C40.126 85.7946 40.2012 86.2572 40.3516 86.6719C40.5065 87.0866 40.7298 87.4261 41.0215 87.6904C41.2448 87.8955 41.5319 88.0664 41.8828 88.2031C42.2383 88.3398 42.6302 88.4105 43.0586 88.415ZM57.168 90.5H55.8965V84.7646L51.8975 90.5H50.7354V82.8643H52.0068V88.5176L55.9648 82.8643H57.168V90.5ZM66.0957 90.5H64.8105V87.0615H60.9893V90.5H59.7041V82.8643H60.9893V85.9541H64.8105V82.8643H66.0957V90.5ZM74.5654 90.5H73.2871V89.6865C73.1732 89.764 73.0182 89.8734 72.8223 90.0146C72.6309 90.1514 72.444 90.2607 72.2617 90.3428C72.0475 90.4476 71.8014 90.5342 71.5234 90.6025C71.2454 90.6755 70.9196 90.7119 70.5459 90.7119C69.8577 90.7119 69.2744 90.484 68.7959 90.0283C68.3174 89.5726 68.0781 88.9915 68.0781 88.2852C68.0781 87.7064 68.2012 87.2393 68.4473 86.8838C68.6979 86.5238 69.0534 86.2412 69.5137 86.0361C69.9785 85.8311 70.5368 85.6921 71.1885 85.6191C71.8402 85.5462 72.5397 85.4915 73.2871 85.4551V85.2568C73.2871 84.9652 73.2347 84.7236 73.1299 84.5322C73.0296 84.3408 72.8838 84.1904 72.6924 84.0811C72.5101 83.9762 72.2913 83.9056 72.0361 83.8691C71.7809 83.8327 71.5143 83.8145 71.2363 83.8145C70.8991 83.8145 70.5231 83.86 70.1084 83.9512C69.6937 84.0378 69.2653 84.1654 68.8232 84.334H68.7549V83.0283C69.0055 82.96 69.3678 82.8848 69.8418 82.8027C70.3158 82.7207 70.7829 82.6797 71.2432 82.6797C71.7809 82.6797 72.248 82.7253 72.6445 82.8164C73.0456 82.903 73.3919 83.0534 73.6836 83.2676C73.9707 83.4772 74.1895 83.7484 74.3398 84.0811C74.4902 84.4137 74.5654 84.8262 74.5654 85.3184V90.5ZM73.2871 88.6201V86.4941C72.8952 86.5169 72.4326 86.5511 71.8994 86.5967C71.3708 86.6423 70.9515 86.7083 70.6416 86.7949C70.2725 86.8997 69.974 87.0638 69.7461 87.2871C69.5182 87.5059 69.4043 87.8089 69.4043 88.1963C69.4043 88.6338 69.5365 88.9642 69.8008 89.1875C70.0651 89.4062 70.4684 89.5156 71.0107 89.5156C71.4619 89.5156 71.8743 89.429 72.248 89.2559C72.6217 89.0781 72.9681 88.8662 73.2871 88.6201ZM83.4316 90.5H82.1465V87.0615H78.3252V90.5H77.04V82.8643H78.3252V85.9541H82.1465V82.8643H83.4316V90.5ZM91.6826 90.0215C91.1585 90.2676 90.7074 90.4362 90.3291 90.5273C89.9554 90.623 89.5817 90.6709 89.208 90.6709C88.652 90.6709 88.1416 90.5911 87.6768 90.4316C87.2119 90.2676 86.8132 90.0215 86.4805 89.6934C86.1478 89.3652 85.888 88.9505 85.7012 88.4492C85.5189 87.9479 85.4277 87.3623 85.4277 86.6924C85.4277 85.4756 85.765 84.5049 86.4395 83.7803C87.1139 83.0511 88.0368 82.6865 89.208 82.6865C89.6501 82.6865 90.083 82.748 90.5068 82.8711C90.9352 82.9941 91.3271 83.1445 91.6826 83.3223V84.751H91.6074C91.1836 84.4274 90.7643 84.1882 90.3496 84.0332C89.9395 83.8783 89.5407 83.8008 89.1533 83.8008C88.3923 83.8008 87.8021 84.056 87.3828 84.5664C86.9681 85.0768 86.7607 85.7855 86.7607 86.6924C86.7607 87.5993 86.9681 88.3034 87.3828 88.8047C87.7975 89.306 88.3877 89.5566 89.1533 89.5566C89.4222 89.5566 89.6888 89.5225 89.9531 89.4541C90.222 89.3857 90.4658 89.2969 90.6846 89.1875C90.8577 89.1009 91.0355 88.9984 91.2178 88.8799C91.4046 88.7568 91.5345 88.6657 91.6074 88.6064H91.6826V90.0215ZM98.1494 88.1553C98.1494 87.9229 98.1084 87.7201 98.0264 87.5469C97.9489 87.3691 97.819 87.2256 97.6367 87.1162C97.4453 87.0023 97.2266 86.9339 96.9805 86.9111C96.7389 86.8883 96.3903 86.877 95.9346 86.877H94.7314V89.4746H95.9072C96.363 89.4746 96.7161 89.4564 96.9668 89.4199C97.2174 89.3789 97.4339 89.3037 97.6162 89.1943C97.8031 89.0758 97.9375 88.9368 98.0195 88.7773C98.1061 88.6133 98.1494 88.4059 98.1494 88.1553ZM99.4756 88.1348C99.4756 88.5039 99.4004 88.8389 99.25 89.1396C99.1042 89.4404 98.9036 89.6842 98.6484 89.8711C98.3477 90.099 98.0264 90.2607 97.6846 90.3564C97.3428 90.4521 96.903 90.5 96.3652 90.5H93.4463V82.8643H94.7314V85.8379H96.3994C96.9736 85.8379 97.418 85.8675 97.7324 85.9268C98.0514 85.986 98.3682 86.1318 98.6826 86.3643C98.9469 86.5602 99.1452 86.8109 99.2773 87.1162C99.4095 87.4215 99.4756 87.7611 99.4756 88.1348ZM100.754 82.8643H102.039V90.5H100.754V82.8643ZM110.734 90.5H109.449V83.9443H106.599C106.585 84.3226 106.571 84.6872 106.558 85.0381C106.544 85.389 106.53 85.7057 106.517 85.9883C106.485 86.7493 106.432 87.3577 106.359 87.8135C106.286 88.2646 106.191 88.6406 106.072 88.9414C105.963 89.224 105.84 89.4541 105.703 89.6318C105.571 89.805 105.427 89.9622 105.272 90.1035C105.118 90.2402 104.944 90.3428 104.753 90.4111C104.566 90.4795 104.361 90.5137 104.138 90.5137C104.06 90.5137 103.946 90.5114 103.796 90.5068C103.65 90.5023 103.554 90.5 103.509 90.5V89.3789H103.577C103.614 89.3789 103.666 89.3812 103.734 89.3857C103.803 89.3903 103.86 89.3926 103.905 89.3926C104.015 89.3926 104.126 89.3766 104.24 89.3447C104.359 89.3128 104.459 89.2536 104.541 89.167C104.773 88.9391 104.96 88.554 105.102 88.0117C105.243 87.4694 105.336 86.6855 105.382 85.6602C105.4 85.2865 105.416 84.8444 105.43 84.334C105.448 83.819 105.464 83.3291 105.478 82.8643H110.734V90.5ZM117.974 88.1553C117.974 87.9229 117.933 87.7201 117.851 87.5469C117.773 87.3691 117.643 87.2256 117.461 87.1162C117.27 87.0023 117.051 86.9339 116.805 86.9111C116.563 86.8883 116.215 86.877 115.759 86.877H114.556V89.4746H115.731C116.187 89.4746 116.54 89.4564 116.791 89.4199C117.042 89.3789 117.258 89.3037 117.44 89.1943C117.627 89.0758 117.762 88.9368 117.844 88.7773C117.93 88.6133 117.974 88.4059 117.974 88.1553ZM119.3 88.1348C119.3 88.5039 119.225 88.8389 119.074 89.1396C118.928 89.4404 118.728 89.6842 118.473 89.8711C118.172 90.099 117.851 90.2607 117.509 90.3564C117.167 90.4521 116.727 90.5 116.189 90.5H113.271V82.8643H114.556V85.8379H116.224C116.798 85.8379 117.242 85.8675 117.557 85.9268C117.876 85.986 118.192 86.1318 118.507 86.3643C118.771 86.5602 118.969 86.8109 119.102 87.1162C119.234 87.4215 119.3 87.7611 119.3 88.1348ZM120.578 82.8643H121.863V90.5H120.578V82.8643ZM131.29 90.5H129.608L126.437 87H125.739V90.5H124.454V82.8643H125.739V86.1592C126.163 86.1592 126.505 86.084 126.765 85.9336C127.024 85.7786 127.245 85.5326 127.428 85.1953C127.492 85.0723 127.553 84.9424 127.612 84.8057C127.676 84.6644 127.738 84.5299 127.797 84.4023C128.034 83.8874 128.33 83.5023 128.686 83.2471C129.041 82.9919 129.551 82.8643 130.217 82.8643H130.805V83.9717H130.237C129.877 83.9717 129.595 84.0492 129.39 84.2041C129.189 84.3545 129.007 84.6211 128.843 85.0039C128.66 85.4323 128.467 85.7536 128.262 85.9678C128.061 86.1774 127.847 86.3369 127.619 86.4463L131.29 90.5ZM145.892 90.5H144.155L140.02 85.8584H139.097V90.5H137.743V80.3213H139.097V84.8877C139.329 84.8831 139.548 84.8604 139.753 84.8193C139.958 84.7783 140.152 84.7008 140.334 84.5869C140.516 84.4821 140.696 84.334 140.874 84.1426C141.052 83.9466 141.209 83.7074 141.346 83.4248C141.405 83.3018 141.473 83.1468 141.551 82.96C141.633 82.7731 141.715 82.5771 141.797 82.3721C142.111 81.6156 142.478 81.0846 142.897 80.7793C143.321 80.474 143.943 80.3213 144.764 80.3213H145.304V81.5312H144.736C144.422 81.5312 144.176 81.5609 143.998 81.6201C143.82 81.6748 143.661 81.7682 143.52 81.9004C143.387 82.0189 143.271 82.1784 143.171 82.3789C143.075 82.5794 142.975 82.8141 142.87 83.083C142.633 83.6846 142.392 84.1266 142.146 84.4092C141.904 84.6917 141.578 84.9378 141.168 85.1475L145.892 90.5ZM153.705 86.8154H148.079C148.079 87.2848 148.15 87.695 148.291 88.0459C148.432 88.3923 148.626 88.6771 148.872 88.9004C149.109 89.1191 149.389 89.2832 149.713 89.3926C150.041 89.502 150.401 89.5566 150.793 89.5566C151.312 89.5566 151.834 89.4541 152.358 89.249C152.887 89.0394 153.263 88.8343 153.486 88.6338H153.555V90.0352C153.122 90.2174 152.68 90.3701 152.229 90.4932C151.777 90.6162 151.303 90.6777 150.807 90.6777C149.54 90.6777 148.551 90.3359 147.84 89.6523C147.129 88.9642 146.773 87.9889 146.773 86.7266C146.773 85.4779 147.113 84.4867 147.792 83.7529C148.476 83.0192 149.373 82.6523 150.485 82.6523C151.515 82.6523 152.308 82.9531 152.864 83.5547C153.425 84.1562 153.705 85.0107 153.705 86.1182V86.8154ZM152.454 85.8311C152.45 85.1566 152.279 84.6348 151.941 84.2656C151.609 83.8965 151.101 83.7119 150.417 83.7119C149.729 83.7119 149.18 83.9147 148.77 84.3203C148.364 84.7259 148.134 85.2295 148.079 85.8311H152.454ZM162.961 92.332H161.765V90.5H160.76V87.0615H156.938V90.5H155.653V82.8643H156.938V85.9541H160.76V82.8643H162.045V89.3926H162.961V92.332ZM170.973 86.8154H165.347C165.347 87.2848 165.417 87.695 165.559 88.0459C165.7 88.3923 165.894 88.6771 166.14 88.9004C166.377 89.1191 166.657 89.2832 166.98 89.3926C167.309 89.502 167.669 89.5566 168.061 89.5566C168.58 89.5566 169.102 89.4541 169.626 89.249C170.155 89.0394 170.531 88.8343 170.754 88.6338H170.822V90.0352C170.389 90.2174 169.947 90.3701 169.496 90.4932C169.045 90.6162 168.571 90.6777 168.074 90.6777C166.807 90.6777 165.818 90.3359 165.107 89.6523C164.396 88.9642 164.041 87.9889 164.041 86.7266C164.041 85.4779 164.381 84.4867 165.06 83.7529C165.743 83.0192 166.641 82.6523 167.753 82.6523C168.783 82.6523 169.576 82.9531 170.132 83.5547C170.692 84.1562 170.973 85.0107 170.973 86.1182V86.8154ZM169.722 85.8311C169.717 85.1566 169.546 84.6348 169.209 84.2656C168.876 83.8965 168.368 83.7119 167.685 83.7119C166.996 83.7119 166.447 83.9147 166.037 84.3203C165.632 84.7259 165.401 85.2295 165.347 85.8311H169.722ZM182.655 90.5H172.921V82.8643H174.206V89.3926H177.146V82.8643H178.431V89.3926H181.37V82.8643H182.655V90.5Z" fill="#333333"/>
<path d="M5 123L12.5 130.5L25 115.5" stroke="#61B857" stroke-width="2" stroke-linecap="round" stroke-linejoin="round"/>
<path d="M48.7461 116.839C48.7461 117.477 48.6436 118.044 48.4385 118.541C48.238 119.033 47.9577 119.446 47.5977 119.778C47.2103 120.138 46.7386 120.425 46.1826 120.64C45.6266 120.849 45.0342 120.961 44.4053 120.975V122.109H43.0586V120.975C42.4479 120.961 41.8623 120.852 41.3018 120.646C40.7412 120.441 40.2627 120.152 39.8662 119.778C39.5062 119.441 39.2236 119.026 39.0186 118.534C38.818 118.042 38.7178 117.477 38.7178 116.839C38.7178 116.219 38.8158 115.677 39.0117 115.212C39.2077 114.747 39.4788 114.341 39.8252 113.995C40.1943 113.626 40.6546 113.334 41.2061 113.12C41.762 112.906 42.3796 112.79 43.0586 112.771V111.712H44.4053V112.771C45.0798 112.785 45.6973 112.904 46.2578 113.127C46.8184 113.35 47.2786 113.64 47.6387 113.995C47.9805 114.328 48.2493 114.731 48.4453 115.205C48.6458 115.679 48.7461 116.224 48.7461 116.839ZM47.3379 116.784C47.3379 116.333 47.265 115.918 47.1191 115.54C46.9733 115.162 46.766 114.843 46.4971 114.583C46.2327 114.328 45.9388 114.141 45.6152 114.022C45.2917 113.904 44.8883 113.84 44.4053 113.831V119.915C44.8337 119.906 45.2233 119.838 45.5742 119.71C45.9251 119.578 46.2145 119.405 46.4424 119.19C46.7386 118.917 46.9619 118.582 47.1123 118.186C47.2627 117.789 47.3379 117.322 47.3379 116.784ZM43.0586 119.915V113.831C42.5755 113.836 42.1722 113.899 41.8486 114.022C41.5251 114.146 41.2311 114.332 40.9668 114.583C40.7025 114.834 40.4951 115.153 40.3447 115.54C40.1989 115.927 40.126 116.342 40.126 116.784C40.126 117.295 40.2012 117.757 40.3516 118.172C40.5065 118.587 40.7298 118.926 41.0215 119.19C41.2448 119.396 41.5319 119.566 41.8828 119.703C42.2383 119.84 42.6302 119.91 43.0586 119.915ZM57.168 122H55.8965V116.265L51.8975 122H50.7354V114.364H52.0068V120.018L55.9648 114.364H57.168V122ZM66.0957 122H64.8105V118.562H60.9893V122H59.7041V114.364H60.9893V117.454H64.8105V114.364H66.0957V122ZM74.5654 122H73.2871V121.187C73.1732 121.264 73.0182 121.373 72.8223 121.515C72.6309 121.651 72.444 121.761 72.2617 121.843C72.0475 121.948 71.8014 122.034 71.5234 122.103C71.2454 122.175 70.9196 122.212 70.5459 122.212C69.8577 122.212 69.2744 121.984 68.7959 121.528C68.3174 121.073 68.0781 120.492 68.0781 119.785C68.0781 119.206 68.2012 118.739 68.4473 118.384C68.6979 118.024 69.0534 117.741 69.5137 117.536C69.9785 117.331 70.5368 117.192 71.1885 117.119C71.8402 117.046 72.5397 116.992 73.2871 116.955V116.757C73.2871 116.465 73.2347 116.224 73.1299 116.032C73.0296 115.841 72.8838 115.69 72.6924 115.581C72.5101 115.476 72.2913 115.406 72.0361 115.369C71.7809 115.333 71.5143 115.314 71.2363 115.314C70.8991 115.314 70.5231 115.36 70.1084 115.451C69.6937 115.538 69.2653 115.665 68.8232 115.834H68.7549V114.528C69.0055 114.46 69.3678 114.385 69.8418 114.303C70.3158 114.221 70.7829 114.18 71.2432 114.18C71.7809 114.18 72.248 114.225 72.6445 114.316C73.0456 114.403 73.3919 114.553 73.6836 114.768C73.9707 114.977 74.1895 115.248 74.3398 115.581C74.4902 115.914 74.5654 116.326 74.5654 116.818V122ZM73.2871 120.12V117.994C72.8952 118.017 72.4326 118.051 71.8994 118.097C71.3708 118.142 70.9515 118.208 70.6416 118.295C70.2725 118.4 69.974 118.564 69.7461 118.787C69.5182 119.006 69.4043 119.309 69.4043 119.696C69.4043 120.134 69.5365 120.464 69.8008 120.688C70.0651 120.906 70.4684 121.016 71.0107 121.016C71.4619 121.016 71.8743 120.929 72.248 120.756C72.6217 120.578 72.9681 120.366 73.2871 120.12ZM83.4316 122H82.1465V118.562H78.3252V122H77.04V114.364H78.3252V117.454H82.1465V114.364H83.4316V122ZM91.6826 121.521C91.1585 121.768 90.7074 121.936 90.3291 122.027C89.9554 122.123 89.5817 122.171 89.208 122.171C88.652 122.171 88.1416 122.091 87.6768 121.932C87.2119 121.768 86.8132 121.521 86.4805 121.193C86.1478 120.865 85.888 120.451 85.7012 119.949C85.5189 119.448 85.4277 118.862 85.4277 118.192C85.4277 116.976 85.765 116.005 86.4395 115.28C87.1139 114.551 88.0368 114.187 89.208 114.187C89.6501 114.187 90.083 114.248 90.5068 114.371C90.9352 114.494 91.3271 114.645 91.6826 114.822V116.251H91.6074C91.1836 115.927 90.7643 115.688 90.3496 115.533C89.9395 115.378 89.5407 115.301 89.1533 115.301C88.3923 115.301 87.8021 115.556 87.3828 116.066C86.9681 116.577 86.7607 117.285 86.7607 118.192C86.7607 119.099 86.9681 119.803 87.3828 120.305C87.7975 120.806 88.3877 121.057 89.1533 121.057C89.4222 121.057 89.6888 121.022 89.9531 120.954C90.222 120.886 90.4658 120.797 90.6846 120.688C90.8577 120.601 91.0355 120.498 91.2178 120.38C91.4046 120.257 91.5345 120.166 91.6074 120.106H91.6826V121.521ZM98.1494 119.655C98.1494 119.423 98.1084 119.22 98.0264 119.047C97.9489 118.869 97.819 118.726 97.6367 118.616C97.4453 118.502 97.2266 118.434 96.9805 118.411C96.7389 118.388 96.3903 118.377 95.9346 118.377H94.7314V120.975H95.9072C96.363 120.975 96.7161 120.956 96.9668 120.92C97.2174 120.879 97.4339 120.804 97.6162 120.694C97.8031 120.576 97.9375 120.437 98.0195 120.277C98.1061 120.113 98.1494 119.906 98.1494 119.655ZM99.4756 119.635C99.4756 120.004 99.4004 120.339 99.25 120.64C99.1042 120.94 98.9036 121.184 98.6484 121.371C98.3477 121.599 98.0264 121.761 97.6846 121.856C97.3428 121.952 96.903 122 96.3652 122H93.4463V114.364H94.7314V117.338H96.3994C96.9736 117.338 97.418 117.368 97.7324 117.427C98.0514 117.486 98.3682 117.632 98.6826 117.864C98.9469 118.06 99.1452 118.311 99.2773 118.616C99.4095 118.922 99.4756 119.261 99.4756 119.635ZM100.754 114.364H102.039V122H100.754V114.364ZM110.734 122H109.449V115.444H106.599C106.585 115.823 106.571 116.187 106.558 116.538C106.544 116.889 106.53 117.206 106.517 117.488C106.485 118.249 106.432 118.858 106.359 119.313C106.286 119.765 106.191 120.141 106.072 120.441C105.963 120.724 105.84 120.954 105.703 121.132C105.571 121.305 105.427 121.462 105.272 121.604C105.118 121.74 104.944 121.843 104.753 121.911C104.566 121.979 104.361 122.014 104.138 122.014C104.06 122.014 103.946 122.011 103.796 122.007C103.65 122.002 103.554 122 103.509 122V120.879H103.577C103.614 120.879 103.666 120.881 103.734 120.886C103.803 120.89 103.86 120.893 103.905 120.893C104.015 120.893 104.126 120.877 104.24 120.845C104.359 120.813 104.459 120.754 104.541 120.667C104.773 120.439 104.96 120.054 105.102 119.512C105.243 118.969 105.336 118.186 105.382 117.16C105.4 116.786 105.416 116.344 105.43 115.834C105.448 115.319 105.464 114.829 105.478 114.364H110.734V122ZM117.974 119.655C117.974 119.423 117.933 119.22 117.851 119.047C117.773 118.869 117.643 118.726 117.461 118.616C117.27 118.502 117.051 118.434 116.805 118.411C116.563 118.388 116.215 118.377 115.759 118.377H114.556V120.975H115.731C116.187 120.975 116.54 120.956 116.791 120.92C117.042 120.879 117.258 120.804 117.44 120.694C117.627 120.576 117.762 120.437 117.844 120.277C117.93 120.113 117.974 119.906 117.974 119.655ZM119.3 119.635C119.3 120.004 119.225 120.339 119.074 120.64C118.928 120.94 118.728 121.184 118.473 121.371C118.172 121.599 117.851 121.761 117.509 121.856C117.167 121.952 116.727 122 116.189 122H113.271V114.364H114.556V117.338H116.224C116.798 117.338 117.242 117.368 117.557 117.427C117.876 117.486 118.192 117.632 118.507 117.864C118.771 118.06 118.969 118.311 119.102 118.616C119.234 118.922 119.3 119.261 119.3 119.635ZM120.578 114.364H121.863V122H120.578V114.364ZM131.29 122H129.608L126.437 118.5H125.739V122H124.454V114.364H125.739V117.659C126.163 117.659 126.505 117.584 126.765 117.434C127.024 117.279 127.245 117.033 127.428 116.695C127.492 116.572 127.553 116.442 127.612 116.306C127.676 116.164 127.738 116.03 127.797 115.902C128.034 115.387 128.33 115.002 128.686 114.747C129.041 114.492 129.551 114.364 130.217 114.364H130.805V115.472H130.237C129.877 115.472 129.595 115.549 129.39 115.704C129.189 115.854 129.007 116.121 128.843 116.504C128.66 116.932 128.467 117.254 128.262 117.468C128.061 117.677 127.847 117.837 127.619 117.946L131.29 122ZM145.57 121.262C145.32 121.371 145.092 121.474 144.887 121.569C144.686 121.665 144.422 121.765 144.094 121.87C143.816 121.957 143.513 122.03 143.185 122.089C142.861 122.153 142.503 122.185 142.111 122.185C141.373 122.185 140.701 122.082 140.095 121.877C139.493 121.667 138.969 121.341 138.522 120.899C138.085 120.466 137.743 119.917 137.497 119.252C137.251 118.582 137.128 117.805 137.128 116.921C137.128 116.082 137.246 115.333 137.483 114.672C137.72 114.011 138.062 113.453 138.509 112.997C138.942 112.555 139.464 112.218 140.074 111.985C140.689 111.753 141.371 111.637 142.118 111.637C142.665 111.637 143.21 111.703 143.752 111.835C144.299 111.967 144.905 112.2 145.57 112.532V114.139H145.468C144.907 113.669 144.351 113.327 143.8 113.113C143.248 112.899 142.658 112.792 142.029 112.792C141.514 112.792 141.049 112.876 140.635 113.045C140.225 113.209 139.858 113.466 139.534 113.817C139.22 114.159 138.974 114.592 138.796 115.116C138.623 115.636 138.536 116.237 138.536 116.921C138.536 117.636 138.632 118.252 138.823 118.767C139.019 119.282 139.27 119.701 139.575 120.024C139.894 120.362 140.266 120.612 140.689 120.776C141.118 120.936 141.569 121.016 142.043 121.016C142.695 121.016 143.305 120.904 143.875 120.681C144.445 120.457 144.978 120.122 145.475 119.676H145.57V121.262ZM153.315 122H152.037V121.187C151.923 121.264 151.768 121.373 151.572 121.515C151.381 121.651 151.194 121.761 151.012 121.843C150.798 121.948 150.551 122.034 150.273 122.103C149.995 122.175 149.67 122.212 149.296 122.212C148.608 122.212 148.024 121.984 147.546 121.528C147.067 121.073 146.828 120.492 146.828 119.785C146.828 119.206 146.951 118.739 147.197 118.384C147.448 118.024 147.803 117.741 148.264 117.536C148.729 117.331 149.287 117.192 149.938 117.119C150.59 117.046 151.29 116.992 152.037 116.955V116.757C152.037 116.465 151.985 116.224 151.88 116.032C151.78 115.841 151.634 115.69 151.442 115.581C151.26 115.476 151.041 115.406 150.786 115.369C150.531 115.333 150.264 115.314 149.986 115.314C149.649 115.314 149.273 115.36 148.858 115.451C148.444 115.538 148.015 115.665 147.573 115.834H147.505V114.528C147.756 114.46 148.118 114.385 148.592 114.303C149.066 114.221 149.533 114.18 149.993 114.18C150.531 114.18 150.998 114.225 151.395 114.316C151.796 114.403 152.142 114.553 152.434 114.768C152.721 114.977 152.939 115.248 153.09 115.581C153.24 115.914 153.315 116.326 153.315 116.818V122ZM152.037 120.12V117.994C151.645 118.017 151.183 118.051 150.649 118.097C150.121 118.142 149.701 118.208 149.392 118.295C149.022 118.4 148.724 118.564 148.496 118.787C148.268 119.006 148.154 119.309 148.154 119.696C148.154 120.134 148.286 120.464 148.551 120.688C148.815 120.906 149.218 121.016 149.761 121.016C150.212 121.016 150.624 120.929 150.998 120.756C151.372 120.578 151.718 120.366 152.037 120.12ZM161.402 115.492C161.721 115.811 161.963 116.199 162.127 116.654C162.291 117.105 162.373 117.636 162.373 118.247C162.373 119.386 162.031 120.332 161.348 121.084C160.664 121.836 159.823 122.212 158.825 122.212C158.333 122.212 157.88 122.13 157.465 121.966C157.05 121.797 156.697 121.54 156.405 121.193C156.041 120.76 155.767 120.216 155.585 119.56C155.407 118.899 155.318 118.094 155.318 117.146C155.318 116.805 155.334 116.458 155.366 116.107C155.398 115.752 155.471 115.328 155.585 114.836C155.676 114.412 155.808 114.004 155.981 113.612C156.159 113.22 156.369 112.904 156.61 112.662C156.938 112.329 157.369 112.063 157.902 111.862C158.44 111.657 159.151 111.516 160.035 111.438C160.395 111.407 160.73 111.382 161.04 111.363C161.35 111.34 161.628 111.32 161.874 111.302V112.484C161.573 112.503 161.275 112.521 160.979 112.539C160.687 112.557 160.395 112.58 160.104 112.607C159.52 112.658 158.992 112.753 158.518 112.895C158.048 113.036 157.704 113.218 157.485 113.441C157.244 113.683 157.062 114 156.938 114.392C156.82 114.779 156.743 115.148 156.706 115.499C157.048 115.253 157.422 115.048 157.827 114.884C158.237 114.715 158.673 114.631 159.133 114.631C159.561 114.631 159.974 114.701 160.37 114.843C160.767 114.984 161.111 115.201 161.402 115.492ZM161.067 118.322C161.067 117.479 160.865 116.85 160.459 116.436C160.053 116.016 159.518 115.807 158.853 115.807C158.456 115.807 158.076 115.87 157.711 115.998C157.346 116.121 157 116.287 156.672 116.497C156.663 116.611 156.654 116.745 156.645 116.9C156.64 117.051 156.638 117.19 156.638 117.317C156.638 118.11 156.704 118.753 156.836 119.245C156.968 119.737 157.155 120.129 157.396 120.421C157.606 120.667 157.834 120.842 158.08 120.947C158.326 121.048 158.59 121.098 158.873 121.098C159.561 121.098 160.099 120.849 160.486 120.353C160.874 119.856 161.067 119.179 161.067 118.322ZM170.323 122H169.045V121.187C168.931 121.264 168.776 121.373 168.58 121.515C168.389 121.651 168.202 121.761 168.02 121.843C167.805 121.948 167.559 122.034 167.281 122.103C167.003 122.175 166.677 122.212 166.304 122.212C165.616 122.212 165.032 121.984 164.554 121.528C164.075 121.073 163.836 120.492 163.836 119.785C163.836 119.206 163.959 118.739 164.205 118.384C164.456 118.024 164.811 117.741 165.271 117.536C165.736 117.331 166.295 117.192 166.946 117.119C167.598 117.046 168.298 116.992 169.045 116.955V116.757C169.045 116.465 168.993 116.224 168.888 116.032C168.787 115.841 168.642 115.69 168.45 115.581C168.268 115.476 168.049 115.406 167.794 115.369C167.539 115.333 167.272 115.314 166.994 115.314C166.657 115.314 166.281 115.36 165.866 115.451C165.451 115.538 165.023 115.665 164.581 115.834H164.513V114.528C164.763 114.46 165.126 114.385 165.6 114.303C166.074 114.221 166.541 114.18 167.001 114.18C167.539 114.18 168.006 114.225 168.402 114.316C168.803 114.403 169.15 114.553 169.441 114.768C169.729 114.977 169.947 115.248 170.098 115.581C170.248 115.914 170.323 116.326 170.323 116.818V122ZM169.045 120.12V117.994C168.653 118.017 168.19 118.051 167.657 118.097C167.129 118.142 166.709 118.208 166.399 118.295C166.03 118.4 165.732 118.564 165.504 118.787C165.276 119.006 165.162 119.309 165.162 119.696C165.162 120.134 165.294 120.464 165.559 120.688C165.823 120.906 166.226 121.016 166.769 121.016C167.22 121.016 167.632 120.929 168.006 120.756C168.38 120.578 168.726 120.366 169.045 120.12ZM178.41 115.492H175.648V122H174.363V115.492H171.602V114.364H178.41V115.492ZM185.355 115.492H182.594V122H181.309V115.492H178.547V114.364H185.355V115.492ZM193.292 114.364L188.835 124.816H187.461L188.883 121.631L185.841 114.364H187.235L189.58 120.024L191.945 114.364H193.292ZM201.577 114.364L197.12 124.816H195.746L197.168 121.631L194.126 114.364H195.521L197.865 120.024L200.23 114.364H201.577ZM209.418 122H208.133V115.444H205.282C205.269 115.823 205.255 116.187 205.241 116.538C205.228 116.889 205.214 117.206 205.2 117.488C205.168 118.249 205.116 118.858 205.043 119.313C204.97 119.765 204.874 120.141 204.756 120.441C204.646 120.724 204.523 120.954 204.387 121.132C204.255 121.305 204.111 121.462 203.956 121.604C203.801 121.74 203.628 121.843 203.437 121.911C203.25 121.979 203.045 122.014 202.821 122.014C202.744 122.014 202.63 122.011 202.479 122.007C202.334 122.002 202.238 122 202.192 122V120.879H202.261C202.297 120.879 202.35 120.881 202.418 120.886C202.486 120.89 202.543 120.893 202.589 120.893C202.698 120.893 202.81 120.877 202.924 120.845C203.042 120.813 203.143 120.754 203.225 120.667C203.457 120.439 203.644 120.054 203.785 119.512C203.926 118.969 204.02 118.186 204.065 117.16C204.084 116.786 204.1 116.344 204.113 115.834C204.132 115.319 204.147 114.829 204.161 114.364H209.418V122ZM218.558 114.364L214.101 124.816H212.727L214.148 121.631L211.106 114.364H212.501L214.846 120.024L217.211 114.364H218.558ZM227.13 122H225.448L222.276 118.5H221.579V122H220.294V114.364H221.579V117.659C222.003 117.659 222.345 117.584 222.604 117.434C222.864 117.279 223.085 117.033 223.268 116.695C223.331 116.572 223.393 116.442 223.452 116.306C223.516 116.164 223.577 116.03 223.637 115.902C223.874 115.387 224.17 115.002 224.525 114.747C224.881 114.492 225.391 114.364 226.057 114.364H226.645V115.472H226.077C225.717 115.472 225.435 115.549 225.229 115.704C225.029 115.854 224.847 116.121 224.683 116.504C224.5 116.932 224.307 117.254 224.102 117.468C223.901 117.677 223.687 117.837 223.459 117.946L227.13 122ZM47.5498 139H45.8135L41.6777 134.358H40.7549V139H39.4014V128.821H40.7549V133.388C40.9873 133.383 41.2061 133.36 41.4111 133.319C41.6162 133.278 41.8099 133.201 41.9922 133.087C42.1745 132.982 42.3545 132.834 42.5322 132.643C42.71 132.447 42.8672 132.207 43.0039 131.925C43.0632 131.802 43.1315 131.647 43.209 131.46C43.291 131.273 43.373 131.077 43.4551 130.872C43.7695 130.116 44.1364 129.585 44.5557 129.279C44.9795 128.974 45.6016 128.821 46.4219 128.821H46.9619V130.031H46.3945C46.0801 130.031 45.834 130.061 45.6562 130.12C45.4785 130.175 45.319 130.268 45.1777 130.4C45.0456 130.519 44.9294 130.678 44.8291 130.879C44.7334 131.079 44.6331 131.314 44.5283 131.583C44.2913 132.185 44.0498 132.627 43.8037 132.909C43.5622 133.192 43.2363 133.438 42.8262 133.647L47.5498 139ZM55.5752 131.364L51.1182 141.816H49.7441L51.166 138.631L48.124 131.364H49.5186L51.8633 137.024L54.2285 131.364H55.5752ZM63.9766 135.09C63.9766 135.71 63.8877 136.277 63.71 136.792C63.5322 137.302 63.2816 137.735 62.958 138.091C62.6572 138.428 62.3018 138.69 61.8916 138.877C61.486 139.059 61.0553 139.15 60.5996 139.15C60.2031 139.15 59.8431 139.107 59.5195 139.021C59.2005 138.934 58.8747 138.799 58.542 138.617V141.816H57.2568V131.364H58.542V132.164C58.8838 131.877 59.2666 131.638 59.6904 131.446C60.1188 131.25 60.5745 131.152 61.0576 131.152C61.9782 131.152 62.6937 131.501 63.2041 132.198C63.7191 132.891 63.9766 133.855 63.9766 135.09ZM62.6504 135.124C62.6504 134.203 62.4932 133.515 62.1787 133.06C61.8643 132.604 61.3812 132.376 60.7295 132.376C60.3604 132.376 59.9889 132.456 59.6152 132.615C59.2415 132.775 58.8838 132.984 58.542 133.244V137.571C58.9066 137.735 59.2188 137.847 59.4785 137.906C59.7428 137.965 60.0413 137.995 60.374 137.995C61.0895 137.995 61.6478 137.754 62.0488 137.271C62.4499 136.787 62.6504 136.072 62.6504 135.124ZM71.6943 138.521C71.1702 138.768 70.7191 138.936 70.3408 139.027C69.9671 139.123 69.5934 139.171 69.2197 139.171C68.6637 139.171 68.1533 139.091 67.6885 138.932C67.2236 138.768 66.8249 138.521 66.4922 138.193C66.1595 137.865 65.8997 137.451 65.7129 136.949C65.5306 136.448 65.4395 135.862 65.4395 135.192C65.4395 133.976 65.7767 133.005 66.4512 132.28C67.1257 131.551 68.0485 131.187 69.2197 131.187C69.6618 131.187 70.0947 131.248 70.5186 131.371C70.9469 131.494 71.3389 131.645 71.6943 131.822V133.251H71.6191C71.1953 132.927 70.776 132.688 70.3613 132.533C69.9512 132.378 69.5524 132.301 69.165 132.301C68.404 132.301 67.8138 132.556 67.3945 133.066C66.9798 133.577 66.7725 134.285 66.7725 135.192C66.7725 136.099 66.9798 136.803 67.3945 137.305C67.8092 137.806 68.3994 138.057 69.165 138.057C69.4339 138.057 69.7005 138.022 69.9648 137.954C70.2337 137.886 70.4775 137.797 70.6963 137.688C70.8695 137.601 71.0472 137.498 71.2295 137.38C71.4163 137.257 71.5462 137.166 71.6191 137.106H71.6943V138.521ZM79.0703 132.492H76.3086V139H75.0234V132.492H72.2617V131.364H79.0703V132.492ZM86.3369 139H85.0586V138.187C84.9447 138.264 84.7897 138.373 84.5938 138.515C84.4023 138.651 84.2155 138.761 84.0332 138.843C83.819 138.948 83.5729 139.034 83.2949 139.103C83.0169 139.175 82.6911 139.212 82.3174 139.212C81.6292 139.212 81.0459 138.984 80.5674 138.528C80.0889 138.073 79.8496 137.492 79.8496 136.785C79.8496 136.206 79.9727 135.739 80.2188 135.384C80.4694 135.024 80.8249 134.741 81.2852 134.536C81.75 134.331 82.3083 134.192 82.96 134.119C83.6117 134.046 84.3112 133.992 85.0586 133.955V133.757C85.0586 133.465 85.0062 133.224 84.9014 133.032C84.8011 132.841 84.6553 132.69 84.4639 132.581C84.2816 132.476 84.0628 132.406 83.8076 132.369C83.5524 132.333 83.2858 132.314 83.0078 132.314C82.6706 132.314 82.2946 132.36 81.8799 132.451C81.4652 132.538 81.0368 132.665 80.5947 132.834H80.5264V131.528C80.777 131.46 81.1393 131.385 81.6133 131.303C82.0872 131.221 82.5544 131.18 83.0146 131.18C83.5524 131.18 84.0195 131.225 84.416 131.316C84.8171 131.403 85.1634 131.553 85.4551 131.768C85.7422 131.977 85.9609 132.248 86.1113 132.581C86.2617 132.914 86.3369 133.326 86.3369 133.818V139ZM85.0586 137.12V134.994C84.6667 135.017 84.2041 135.051 83.6709 135.097C83.1423 135.142 82.723 135.208 82.4131 135.295C82.0439 135.4 81.7454 135.564 81.5176 135.787C81.2897 136.006 81.1758 136.309 81.1758 136.696C81.1758 137.134 81.3079 137.464 81.5723 137.688C81.8366 137.906 82.2399 138.016 82.7822 138.016C83.2334 138.016 83.6458 137.929 84.0195 137.756C84.3932 137.578 84.7396 137.366 85.0586 137.12ZM95.5312 135.09C95.5312 135.71 95.4424 136.277 95.2646 136.792C95.0869 137.302 94.8363 137.735 94.5127 138.091C94.2119 138.428 93.8564 138.69 93.4463 138.877C93.0407 139.059 92.61 139.15 92.1543 139.15C91.7578 139.15 91.3978 139.107 91.0742 139.021C90.7552 138.934 90.4294 138.799 90.0967 138.617V141.816H88.8115V131.364H90.0967V132.164C90.4385 131.877 90.8213 131.638 91.2451 131.446C91.6735 131.25 92.1292 131.152 92.6123 131.152C93.5329 131.152 94.2484 131.501 94.7588 132.198C95.2738 132.891 95.5312 133.855 95.5312 135.09ZM94.2051 135.124C94.2051 134.203 94.0479 133.515 93.7334 133.06C93.4189 132.604 92.9359 132.376 92.2842 132.376C91.915 132.376 91.5436 132.456 91.1699 132.615C90.7962 132.775 90.4385 132.984 90.0967 133.244V137.571C90.4613 137.735 90.7734 137.847 91.0332 137.906C91.2975 137.965 91.596 137.995 91.9287 137.995C92.6442 137.995 93.2025 137.754 93.6035 137.271C94.0046 136.787 94.2051 136.072 94.2051 135.124ZM102.237 136.655C102.237 136.423 102.196 136.22 102.114 136.047C102.037 135.869 101.907 135.726 101.725 135.616C101.533 135.502 101.314 135.434 101.068 135.411C100.827 135.388 100.478 135.377 100.022 135.377H98.8193V137.975H99.9951C100.451 137.975 100.804 137.956 101.055 137.92C101.305 137.879 101.522 137.804 101.704 137.694C101.891 137.576 102.025 137.437 102.107 137.277C102.194 137.113 102.237 136.906 102.237 136.655ZM103.563 136.635C103.563 137.004 103.488 137.339 103.338 137.64C103.192 137.94 102.992 138.184 102.736 138.371C102.436 138.599 102.114 138.761 101.772 138.856C101.431 138.952 100.991 139 100.453 139H97.5342V131.364H98.8193V134.338H100.487C101.062 134.338 101.506 134.368 101.82 134.427C102.139 134.486 102.456 134.632 102.771 134.864C103.035 135.06 103.233 135.311 103.365 135.616C103.497 135.922 103.563 136.261 103.563 136.635ZM104.842 131.364H106.127V139H104.842V131.364Z" fill="#333333"/>
<path d="M5 165L12.5 172.5L25 157.5" stroke="#61B857" stroke-width="2" stroke-linecap="round" stroke-linejoin="round"/>
<path d="M47.1396 164H45.793V155.845L40.7344 164H39.3672V153.821H40.7139V161.854L45.7109 153.821H47.1396V164ZM59.5127 164H49.7783V156.364H51.0635V162.893H54.0029V156.364H55.2881V162.893H58.2275V156.364H59.5127V164ZM68.9326 164H67.251L64.0791 160.5H63.3818V164H62.0967V156.364H63.3818V159.659C63.8057 159.659 64.1475 159.584 64.4072 159.434C64.667 159.279 64.888 159.033 65.0703 158.695C65.1341 158.572 65.1956 158.442 65.2549 158.306C65.3187 158.164 65.3802 158.03 65.4395 157.902C65.6764 157.387 65.9727 157.002 66.3281 156.747C66.6836 156.492 67.194 156.364 67.8594 156.364H68.4473V157.472H67.8799C67.5199 157.472 67.2373 157.549 67.0322 157.704C66.8317 157.854 66.6494 158.121 66.4854 158.504C66.3031 158.932 66.1094 159.254 65.9043 159.468C65.7038 159.677 65.4896 159.837 65.2617 159.946L68.9326 164ZM76.7188 160.315H71.0928C71.0928 160.785 71.1634 161.195 71.3047 161.546C71.446 161.892 71.6396 162.177 71.8857 162.4C72.1227 162.619 72.403 162.783 72.7266 162.893C73.0547 163.002 73.4147 163.057 73.8066 163.057C74.3262 163.057 74.848 162.954 75.3721 162.749C75.9007 162.539 76.2767 162.334 76.5 162.134H76.5684V163.535C76.1354 163.717 75.6934 163.87 75.2422 163.993C74.791 164.116 74.3171 164.178 73.8203 164.178C72.5534 164.178 71.5645 163.836 70.8535 163.152C70.1426 162.464 69.7871 161.489 69.7871 160.227C69.7871 158.978 70.1266 157.987 70.8057 157.253C71.4893 156.519 72.387 156.152 73.499 156.152C74.529 156.152 75.3219 156.453 75.8779 157.055C76.4385 157.656 76.7188 158.511 76.7188 159.618V160.315ZM75.4678 159.331C75.4632 158.657 75.2923 158.135 74.9551 157.766C74.6224 157.396 74.1143 157.212 73.4307 157.212C72.7425 157.212 72.1934 157.415 71.7832 157.82C71.3776 158.226 71.1475 158.729 71.0928 159.331H75.4678ZM85.3867 160.09C85.3867 160.71 85.2979 161.277 85.1201 161.792C84.9424 162.302 84.6917 162.735 84.3682 163.091C84.0674 163.428 83.7119 163.69 83.3018 163.877C82.8962 164.059 82.4655 164.15 82.0098 164.15C81.6133 164.15 81.2533 164.107 80.9297 164.021C80.6107 163.934 80.2848 163.799 79.9521 163.617V166.816H78.667V156.364H79.9521V157.164C80.2939 156.877 80.6768 156.638 81.1006 156.446C81.529 156.25 81.9847 156.152 82.4678 156.152C83.3883 156.152 84.1038 156.501 84.6143 157.198C85.1292 157.891 85.3867 158.855 85.3867 160.09ZM84.0605 160.124C84.0605 159.203 83.9033 158.515 83.5889 158.06C83.2744 157.604 82.7913 157.376 82.1396 157.376C81.7705 157.376 81.3991 157.456 81.0254 157.615C80.6517 157.775 80.2939 157.984 79.9521 158.244V162.571C80.3167 162.735 80.6289 162.847 80.8887 162.906C81.153 162.965 81.4515 162.995 81.7842 162.995C82.4997 162.995 83.0579 162.754 83.459 162.271C83.86 161.787 84.0605 161.072 84.0605 160.124ZM93.5488 164H92.2637V157.444H89.4131C89.3994 157.823 89.3857 158.187 89.3721 158.538C89.3584 158.889 89.3447 159.206 89.3311 159.488C89.2992 160.249 89.2467 160.858 89.1738 161.313C89.1009 161.765 89.0052 162.141 88.8867 162.441C88.7773 162.724 88.6543 162.954 88.5176 163.132C88.3854 163.305 88.2419 163.462 88.0869 163.604C87.932 163.74 87.7588 163.843 87.5674 163.911C87.3805 163.979 87.1755 164.014 86.9521 164.014C86.8747 164.014 86.7607 164.011 86.6104 164.007C86.4645 164.002 86.3688 164 86.3232 164V162.879H86.3916C86.4281 162.879 86.4805 162.881 86.5488 162.886C86.6172 162.89 86.6742 162.893 86.7197 162.893C86.8291 162.893 86.9408 162.877 87.0547 162.845C87.1732 162.813 87.2734 162.754 87.3555 162.667C87.5879 162.439 87.7747 162.054 87.916 161.512C88.0573 160.969 88.1507 160.186 88.1963 159.16C88.2145 158.786 88.2305 158.344 88.2441 157.834C88.2624 157.319 88.2783 156.829 88.292 156.364H93.5488V164ZM102.477 160.315H96.8506C96.8506 160.785 96.9212 161.195 97.0625 161.546C97.2038 161.892 97.3975 162.177 97.6436 162.4C97.8805 162.619 98.1608 162.783 98.4844 162.893C98.8125 163.002 99.1725 163.057 99.5645 163.057C100.084 163.057 100.606 162.954 101.13 162.749C101.659 162.539 102.035 162.334 102.258 162.134H102.326V163.535C101.893 163.717 101.451 163.87 101 163.993C100.549 164.116 100.075 164.178 99.5781 164.178C98.3112 164.178 97.3223 163.836 96.6113 163.152C95.9004 162.464 95.5449 161.489 95.5449 160.227C95.5449 158.978 95.8844 157.987 96.5635 157.253C97.2471 156.519 98.1449 156.152 99.2568 156.152C100.287 156.152 101.08 156.453 101.636 157.055C102.196 157.656 102.477 158.511 102.477 159.618V160.315ZM101.226 159.331C101.221 158.657 101.05 158.135 100.713 157.766C100.38 157.396 99.8721 157.212 99.1885 157.212C98.5003 157.212 97.9512 157.415 97.541 157.82C97.1354 158.226 96.9053 158.729 96.8506 159.331H101.226ZM111.145 160.09C111.145 160.71 111.056 161.277 110.878 161.792C110.7 162.302 110.45 162.735 110.126 163.091C109.825 163.428 109.47 163.69 109.06 163.877C108.654 164.059 108.223 164.15 107.768 164.15C107.371 164.15 107.011 164.107 106.688 164.021C106.368 163.934 106.043 163.799 105.71 163.617V166.816H104.425V156.364H105.71V157.164C106.052 156.877 106.435 156.638 106.858 156.446C107.287 156.25 107.743 156.152 108.226 156.152C109.146 156.152 109.862 156.501 110.372 157.198C110.887 157.891 111.145 158.855 111.145 160.09ZM109.818 160.124C109.818 159.203 109.661 158.515 109.347 158.06C109.032 157.604 108.549 157.376 107.897 157.376C107.528 157.376 107.157 157.456 106.783 157.615C106.41 157.775 106.052 157.984 105.71 158.244V162.571C106.075 162.735 106.387 162.847 106.646 162.906C106.911 162.965 107.209 162.995 107.542 162.995C108.257 162.995 108.816 162.754 109.217 162.271C109.618 161.787 109.818 161.072 109.818 160.124ZM120.079 165.832H118.883V163.979H113.141V165.832H111.944V162.906H112.771C113.305 162.027 113.701 161.013 113.961 159.864C114.225 158.711 114.357 157.545 114.357 156.364H119.156V162.906H120.079V165.832ZM117.871 162.906V157.444H115.567C115.508 158.588 115.333 159.632 115.041 160.575C114.749 161.519 114.414 162.296 114.036 162.906H117.871ZM128.289 164H127.018V158.265L123.019 164H121.856V156.364H123.128V162.018L127.086 156.364H128.289V164ZM137.217 164H135.932V160.562H132.11V164H130.825V156.364H132.11V159.454H135.932V156.364H137.217V164ZM154.156 158.839C154.156 159.477 154.054 160.044 153.849 160.541C153.648 161.033 153.368 161.446 153.008 161.778C152.62 162.138 152.149 162.425 151.593 162.64C151.037 162.849 150.444 162.961 149.815 162.975V164.109H148.469V162.975C147.858 162.961 147.272 162.852 146.712 162.646C146.151 162.441 145.673 162.152 145.276 161.778C144.916 161.441 144.634 161.026 144.429 160.534C144.228 160.042 144.128 159.477 144.128 158.839C144.128 158.219 144.226 157.677 144.422 157.212C144.618 156.747 144.889 156.341 145.235 155.995C145.604 155.626 146.065 155.334 146.616 155.12C147.172 154.906 147.79 154.79 148.469 154.771V153.712H149.815V154.771C150.49 154.785 151.107 154.904 151.668 155.127C152.229 155.35 152.689 155.64 153.049 155.995C153.391 156.328 153.66 156.731 153.855 157.205C154.056 157.679 154.156 158.224 154.156 158.839ZM152.748 158.784C152.748 158.333 152.675 157.918 152.529 157.54C152.383 157.162 152.176 156.843 151.907 156.583C151.643 156.328 151.349 156.141 151.025 156.022C150.702 155.904 150.299 155.84 149.815 155.831V161.915C150.244 161.906 150.633 161.838 150.984 161.71C151.335 161.578 151.625 161.405 151.853 161.19C152.149 160.917 152.372 160.582 152.522 160.186C152.673 159.789 152.748 159.322 152.748 158.784ZM148.469 161.915V155.831C147.986 155.836 147.582 155.899 147.259 156.022C146.935 156.146 146.641 156.332 146.377 156.583C146.113 156.834 145.905 157.153 145.755 157.54C145.609 157.927 145.536 158.342 145.536 158.784C145.536 159.295 145.611 159.757 145.762 160.172C145.917 160.587 146.14 160.926 146.432 161.19C146.655 161.396 146.942 161.566 147.293 161.703C147.648 161.84 148.04 161.91 148.469 161.915ZM162.578 164H161.307V158.265L157.308 164H156.146V156.364H157.417V162.018L161.375 156.364H162.578V164ZM171.506 164H170.221V160.562H166.399V164H165.114V156.364H166.399V159.454H170.221V156.364H171.506V164ZM179.976 164H178.697V163.187C178.583 163.264 178.428 163.373 178.232 163.515C178.041 163.651 177.854 163.761 177.672 163.843C177.458 163.948 177.212 164.034 176.934 164.103C176.656 164.175 176.33 164.212 175.956 164.212C175.268 164.212 174.685 163.984 174.206 163.528C173.728 163.073 173.488 162.492 173.488 161.785C173.488 161.206 173.611 160.739 173.857 160.384C174.108 160.024 174.464 159.741 174.924 159.536C175.389 159.331 175.947 159.192 176.599 159.119C177.25 159.046 177.95 158.992 178.697 158.955V158.757C178.697 158.465 178.645 158.224 178.54 158.032C178.44 157.841 178.294 157.69 178.103 157.581C177.92 157.476 177.701 157.406 177.446 157.369C177.191 157.333 176.924 157.314 176.646 157.314C176.309 157.314 175.933 157.36 175.519 157.451C175.104 157.538 174.675 157.665 174.233 157.834H174.165V156.528C174.416 156.46 174.778 156.385 175.252 156.303C175.726 156.221 176.193 156.18 176.653 156.18C177.191 156.18 177.658 156.225 178.055 156.316C178.456 156.403 178.802 156.553 179.094 156.768C179.381 156.977 179.6 157.248 179.75 157.581C179.9 157.914 179.976 158.326 179.976 158.818V164ZM178.697 162.12V159.994C178.305 160.017 177.843 160.051 177.31 160.097C176.781 160.142 176.362 160.208 176.052 160.295C175.683 160.4 175.384 160.564 175.156 160.787C174.928 161.006 174.814 161.309 174.814 161.696C174.814 162.134 174.947 162.464 175.211 162.688C175.475 162.906 175.879 163.016 176.421 163.016C176.872 163.016 177.285 162.929 177.658 162.756C178.032 162.578 178.378 162.366 178.697 162.12ZM188.842 164H187.557V160.562H183.735V164H182.45V156.364H183.735V159.454H187.557V156.364H188.842V164ZM197.093 163.521C196.569 163.768 196.118 163.936 195.739 164.027C195.366 164.123 194.992 164.171 194.618 164.171C194.062 164.171 193.552 164.091 193.087 163.932C192.622 163.768 192.223 163.521 191.891 163.193C191.558 162.865 191.298 162.451 191.111 161.949C190.929 161.448 190.838 160.862 190.838 160.192C190.838 158.976 191.175 158.005 191.85 157.28C192.524 156.551 193.447 156.187 194.618 156.187C195.06 156.187 195.493 156.248 195.917 156.371C196.345 156.494 196.737 156.645 197.093 156.822V158.251H197.018C196.594 157.927 196.174 157.688 195.76 157.533C195.35 157.378 194.951 157.301 194.563 157.301C193.802 157.301 193.212 157.556 192.793 158.066C192.378 158.577 192.171 159.285 192.171 160.192C192.171 161.099 192.378 161.803 192.793 162.305C193.208 162.806 193.798 163.057 194.563 163.057C194.832 163.057 195.099 163.022 195.363 162.954C195.632 162.886 195.876 162.797 196.095 162.688C196.268 162.601 196.446 162.498 196.628 162.38C196.815 162.257 196.945 162.166 197.018 162.106H197.093V163.521ZM203.56 161.655C203.56 161.423 203.519 161.22 203.437 161.047C203.359 160.869 203.229 160.726 203.047 160.616C202.855 160.502 202.637 160.434 202.391 160.411C202.149 160.388 201.8 160.377 201.345 160.377H200.142V162.975H201.317C201.773 162.975 202.126 162.956 202.377 162.92C202.628 162.879 202.844 162.804 203.026 162.694C203.213 162.576 203.348 162.437 203.43 162.277C203.516 162.113 203.56 161.906 203.56 161.655ZM204.886 161.635C204.886 162.004 204.811 162.339 204.66 162.64C204.514 162.94 204.314 163.184 204.059 163.371C203.758 163.599 203.437 163.761 203.095 163.856C202.753 163.952 202.313 164 201.775 164H198.856V156.364H200.142V159.338H201.81C202.384 159.338 202.828 159.368 203.143 159.427C203.462 159.486 203.778 159.632 204.093 159.864C204.357 160.06 204.555 160.311 204.688 160.616C204.82 160.922 204.886 161.261 204.886 161.635ZM206.164 156.364H207.449V164H206.164V156.364ZM216.145 164H214.859V157.444H212.009C211.995 157.823 211.981 158.187 211.968 158.538C211.954 158.889 211.94 159.206 211.927 159.488C211.895 160.249 211.842 160.858 211.77 161.313C211.697 161.765 211.601 162.141 211.482 162.441C211.373 162.724 211.25 162.954 211.113 163.132C210.981 163.305 210.838 163.462 210.683 163.604C210.528 163.74 210.354 163.843 210.163 163.911C209.976 163.979 209.771 164.014 209.548 164.014C209.47 164.014 209.356 164.011 209.206 164.007C209.06 164.002 208.965 164 208.919 164V162.879H208.987C209.024 162.879 209.076 162.881 209.145 162.886C209.213 162.89 209.27 162.893 209.315 162.893C209.425 162.893 209.536 162.877 209.65 162.845C209.769 162.813 209.869 162.754 209.951 162.667C210.184 162.439 210.37 162.054 210.512 161.512C210.653 160.969 210.746 160.186 210.792 159.16C210.81 158.786 210.826 158.344 210.84 157.834C210.858 157.319 210.874 156.829 210.888 156.364H216.145V164ZM223.384 161.655C223.384 161.423 223.343 161.22 223.261 161.047C223.183 160.869 223.053 160.726 222.871 160.616C222.68 160.502 222.461 160.434 222.215 160.411C221.973 160.388 221.625 160.377 221.169 160.377H219.966V162.975H221.142C221.597 162.975 221.951 162.956 222.201 162.92C222.452 162.879 222.668 162.804 222.851 162.694C223.037 162.576 223.172 162.437 223.254 162.277C223.34 162.113 223.384 161.906 223.384 161.655ZM224.71 161.635C224.71 162.004 224.635 162.339 224.484 162.64C224.339 162.94 224.138 163.184 223.883 163.371C223.582 163.599 223.261 163.761 222.919 163.856C222.577 163.952 222.137 164 221.6 164H218.681V156.364H219.966V159.338H221.634C222.208 159.338 222.652 159.368 222.967 159.427C223.286 159.486 223.603 159.632 223.917 159.864C224.181 160.06 224.38 160.311 224.512 160.616C224.644 160.922 224.71 161.261 224.71 161.635ZM225.988 156.364H227.273V164H225.988V156.364ZM236.7 164H235.019L231.847 160.5H231.149V164H229.864V156.364H231.149V159.659C231.573 159.659 231.915 159.584 232.175 159.434C232.435 159.279 232.656 159.033 232.838 158.695C232.902 158.572 232.963 158.442 233.022 158.306C233.086 158.164 233.148 158.03 233.207 157.902C233.444 157.387 233.74 157.002 234.096 156.747C234.451 156.492 234.962 156.364 235.627 156.364H236.215V157.472H235.647C235.287 157.472 235.005 157.549 234.8 157.704C234.599 157.854 234.417 158.121 234.253 158.504C234.071 158.932 233.877 159.254 233.672 159.468C233.471 159.677 233.257 159.837 233.029 159.946L236.7 164ZM48.4316 181H47.0781V172.229L44.248 178.197H43.4414L40.6318 172.229V181H39.3672V170.821H41.2129L43.9268 176.488L46.5518 170.821H48.4316V181ZM57.4551 177.315H51.8291C51.8291 177.785 51.8997 178.195 52.041 178.546C52.1823 178.892 52.376 179.177 52.6221 179.4C52.859 179.619 53.1393 179.783 53.4629 179.893C53.791 180.002 54.151 180.057 54.543 180.057C55.0625 180.057 55.5843 179.954 56.1084 179.749C56.637 179.539 57.013 179.334 57.2363 179.134H57.3047V180.535C56.8717 180.717 56.4297 180.87 55.9785 180.993C55.5273 181.116 55.0534 181.178 54.5566 181.178C53.2897 181.178 52.3008 180.836 51.5898 180.152C50.8789 179.464 50.5234 178.489 50.5234 177.227C50.5234 175.978 50.863 174.987 51.542 174.253C52.2256 173.519 53.1234 173.152 54.2354 173.152C55.2653 173.152 56.0583 173.453 56.6143 174.055C57.1748 174.656 57.4551 175.511 57.4551 176.618V177.315ZM56.2041 176.331C56.1995 175.657 56.0286 175.135 55.6914 174.766C55.3587 174.396 54.8506 174.212 54.167 174.212C53.4788 174.212 52.9297 174.415 52.5195 174.82C52.1139 175.226 51.8838 175.729 51.8291 176.331H56.2041ZM65.7949 181H64.5098V177.562H60.6885V181H59.4033V173.364H60.6885V176.454H64.5098V173.364H65.7949V181ZM74.7227 177.315H69.0967C69.0967 177.785 69.1673 178.195 69.3086 178.546C69.4499 178.892 69.6436 179.177 69.8896 179.4C70.1266 179.619 70.4069 179.783 70.7305 179.893C71.0586 180.002 71.4186 180.057 71.8105 180.057C72.3301 180.057 72.8519 179.954 73.376 179.749C73.9046 179.539 74.2806 179.334 74.5039 179.134H74.5723V180.535C74.1393 180.717 73.6973 180.87 73.2461 180.993C72.7949 181.116 72.321 181.178 71.8242 181.178C70.5573 181.178 69.5684 180.836 68.8574 180.152C68.1465 179.464 67.791 178.489 67.791 177.227C67.791 175.978 68.1305 174.987 68.8096 174.253C69.4932 173.519 70.391 173.152 71.5029 173.152C72.5329 173.152 73.3258 173.453 73.8818 174.055C74.4424 174.656 74.7227 175.511 74.7227 176.618V177.315ZM73.4717 176.331C73.4671 175.657 73.2962 175.135 72.959 174.766C72.6263 174.396 72.1182 174.212 71.4346 174.212C70.7464 174.212 70.1973 174.415 69.7871 174.82C69.3815 175.226 69.1514 175.729 69.0967 176.331H73.4717ZM83.6025 182.832H82.4062V180.979H76.6641V182.832H75.4678V179.906H76.2949C76.8281 179.027 77.2246 178.013 77.4844 176.864C77.7487 175.711 77.8809 174.545 77.8809 173.364H82.6797V179.906H83.6025V182.832ZM81.3945 179.906V174.444H79.0908C79.0316 175.588 78.8561 176.632 78.5645 177.575C78.2728 178.519 77.9378 179.296 77.5596 179.906H81.3945ZM94.957 181H93.4053L90.958 177.514H90.3359V181H89.0645V177.514H88.5107L85.9541 181H84.4707L87.417 177.001C87.1937 176.882 86.9954 176.714 86.8223 176.495C86.6536 176.276 86.4987 175.946 86.3574 175.504C86.2344 175.117 86.0885 174.848 85.9199 174.697C85.7513 174.547 85.4756 174.472 85.0928 174.472H84.7305V173.364H85.2021C85.7673 173.364 86.2207 173.478 86.5625 173.706C86.9043 173.934 87.1777 174.333 87.3828 174.902C87.4238 175.021 87.474 175.158 87.5332 175.312C87.597 175.463 87.6517 175.59 87.6973 175.695C87.8477 176.042 88.0391 176.288 88.2715 176.434C88.5085 176.575 88.7728 176.655 89.0645 176.673V173.364H90.3359V176.673C90.6276 176.655 90.8919 176.573 91.1289 176.427C91.3704 176.281 91.5664 176.037 91.7168 175.695C91.7669 175.581 91.8216 175.449 91.8809 175.299C91.9447 175.148 91.9948 175.016 92.0312 174.902C92.2318 174.342 92.5007 173.945 92.8379 173.713C93.1751 173.48 93.6286 173.364 94.1982 173.364H94.6699V174.472H94.3076C93.9202 174.472 93.64 174.551 93.4668 174.711C93.2982 174.87 93.1569 175.135 93.043 175.504C92.9154 175.91 92.7627 176.226 92.585 176.454C92.4118 176.677 92.2227 176.846 92.0176 176.96L94.957 181ZM103.769 181H102.497V174.971L100.597 178.895H99.6396L97.7529 174.971V181H96.5498V173.364H98.1016L100.18 177.637L102.189 173.364H103.769V181ZM112.689 177.315H107.063C107.063 177.785 107.134 178.195 107.275 178.546C107.417 178.892 107.61 179.177 107.856 179.4C108.093 179.619 108.374 179.783 108.697 179.893C109.025 180.002 109.385 180.057 109.777 180.057C110.297 180.057 110.819 179.954 111.343 179.749C111.871 179.539 112.247 179.334 112.471 179.134H112.539V180.535C112.106 180.717 111.664 180.87 111.213 180.993C110.762 181.116 110.288 181.178 109.791 181.178C108.524 181.178 107.535 180.836 106.824 180.152C106.113 179.464 105.758 178.489 105.758 177.227C105.758 175.978 106.097 174.987 106.776 174.253C107.46 173.519 108.358 173.152 109.47 173.152C110.5 173.152 111.293 173.453 111.849 174.055C112.409 174.656 112.689 175.511 112.689 176.618V177.315ZM111.438 176.331C111.434 175.657 111.263 175.135 110.926 174.766C110.593 174.396 110.085 174.212 109.401 174.212C108.713 174.212 108.164 174.415 107.754 174.82C107.348 175.226 107.118 175.729 107.063 176.331H111.438ZM121.029 181H119.744V177.562H115.923V181H114.638V173.364H115.923V176.454H119.744V173.364H121.029V181ZM129.178 174.492H126.416V181H125.131V174.492H122.369V173.364H129.178V174.492ZM136.943 181H135.672V175.265L131.673 181H130.511V173.364H131.782V179.018L135.74 173.364H136.943V181Z" fill="#333333"/>
<path d="M5 207L12.5 214.5L25 199.5" stroke="#61B857" stroke-width="2" stroke-linecap="round" stroke-linejoin="round"/>
<path d="M47.5498 212.5H45.8135L41.6777 207.858H40.7549V212.5H39.4014V202.321H40.7549V206.888C40.9873 206.883 41.2061 206.86 41.4111 206.819C41.6162 206.778 41.8099 206.701 41.9922 206.587C42.1745 206.482 42.3545 206.334 42.5322 206.143C42.71 205.947 42.8672 205.707 43.0039 205.425C43.0632 205.302 43.1315 205.147 43.209 204.96C43.291 204.773 43.373 204.577 43.4551 204.372C43.7695 203.616 44.1364 203.085 44.5557 202.779C44.9795 202.474 45.6016 202.321 46.4219 202.321H46.9619V203.531H46.3945C46.0801 203.531 45.834 203.561 45.6562 203.62C45.4785 203.675 45.319 203.768 45.1777 203.9C45.0456 204.019 44.9294 204.178 44.8291 204.379C44.7334 204.579 44.6331 204.814 44.5283 205.083C44.2913 205.685 44.0498 206.127 43.8037 206.409C43.5622 206.692 43.2363 206.938 42.8262 207.147L47.5498 212.5ZM54.9053 212.5H53.627V211.687C53.513 211.764 53.3581 211.873 53.1621 212.015C52.9707 212.151 52.7839 212.261 52.6016 212.343C52.3874 212.448 52.1413 212.534 51.8633 212.603C51.5853 212.675 51.2594 212.712 50.8857 212.712C50.1976 212.712 49.6143 212.484 49.1357 212.028C48.6572 211.573 48.418 210.992 48.418 210.285C48.418 209.706 48.541 209.239 48.7871 208.884C49.0378 208.524 49.3932 208.241 49.8535 208.036C50.3184 207.831 50.8766 207.692 51.5283 207.619C52.18 207.546 52.8796 207.492 53.627 207.455V207.257C53.627 206.965 53.5745 206.724 53.4697 206.532C53.3695 206.341 53.2236 206.19 53.0322 206.081C52.8499 205.976 52.6312 205.906 52.376 205.869C52.1208 205.833 51.8542 205.814 51.5762 205.814C51.2389 205.814 50.863 205.86 50.4482 205.951C50.0335 206.038 49.6051 206.165 49.1631 206.334H49.0947V205.028C49.3454 204.96 49.7077 204.885 50.1816 204.803C50.6556 204.721 51.1227 204.68 51.583 204.68C52.1208 204.68 52.5879 204.725 52.9844 204.816C53.3854 204.903 53.7318 205.053 54.0234 205.268C54.3105 205.477 54.5293 205.748 54.6797 206.081C54.8301 206.414 54.9053 206.826 54.9053 207.318V212.5ZM53.627 210.62V208.494C53.235 208.517 52.7725 208.551 52.2393 208.597C51.7106 208.642 51.2913 208.708 50.9814 208.795C50.6123 208.9 50.3138 209.064 50.0859 209.287C49.8581 209.506 49.7441 209.809 49.7441 210.196C49.7441 210.634 49.8763 210.964 50.1406 211.188C50.4049 211.406 50.8083 211.516 51.3506 211.516C51.8018 211.516 52.2142 211.429 52.5879 211.256C52.9616 211.078 53.3079 210.866 53.627 210.62ZM64.0996 208.59C64.0996 209.21 64.0107 209.777 63.833 210.292C63.6553 210.802 63.4046 211.235 63.0811 211.591C62.7803 211.928 62.4248 212.19 62.0146 212.377C61.609 212.559 61.1784 212.65 60.7227 212.65C60.3262 212.65 59.9661 212.607 59.6426 212.521C59.3236 212.434 58.9977 212.299 58.665 212.117V215.316H57.3799V204.864H58.665V205.664C59.0068 205.377 59.3896 205.138 59.8135 204.946C60.2419 204.75 60.6976 204.652 61.1807 204.652C62.1012 204.652 62.8167 205.001 63.3271 205.698C63.8421 206.391 64.0996 207.355 64.0996 208.59ZM62.7734 208.624C62.7734 207.703 62.6162 207.015 62.3018 206.56C61.9873 206.104 61.5042 205.876 60.8525 205.876C60.4834 205.876 60.112 205.956 59.7383 206.115C59.3646 206.275 59.0068 206.484 58.665 206.744V211.071C59.0296 211.235 59.3418 211.347 59.6016 211.406C59.8659 211.465 60.1644 211.495 60.4971 211.495C61.2126 211.495 61.7708 211.254 62.1719 210.771C62.5729 210.287 62.7734 209.572 62.7734 208.624ZM75.6797 212.5H74.1279L71.6807 209.014H71.0586V212.5H69.7871V209.014H69.2334L66.6768 212.5H65.1934L68.1396 208.501C67.9163 208.382 67.7181 208.214 67.5449 207.995C67.3763 207.776 67.2214 207.446 67.0801 207.004C66.957 206.617 66.8112 206.348 66.6426 206.197C66.474 206.047 66.1982 205.972 65.8154 205.972H65.4531V204.864H65.9248C66.4899 204.864 66.9434 204.978 67.2852 205.206C67.627 205.434 67.9004 205.833 68.1055 206.402C68.1465 206.521 68.1966 206.658 68.2559 206.812C68.3197 206.963 68.3743 207.09 68.4199 207.195C68.5703 207.542 68.7617 207.788 68.9941 207.934C69.2311 208.075 69.4954 208.155 69.7871 208.173V204.864H71.0586V208.173C71.3503 208.155 71.6146 208.073 71.8516 207.927C72.0931 207.781 72.2891 207.537 72.4395 207.195C72.4896 207.081 72.5443 206.949 72.6035 206.799C72.6673 206.648 72.7174 206.516 72.7539 206.402C72.9544 205.842 73.2233 205.445 73.5605 205.213C73.8978 204.98 74.3512 204.864 74.9209 204.864H75.3926V205.972H75.0303C74.6429 205.972 74.3626 206.051 74.1895 206.211C74.0208 206.37 73.8796 206.635 73.7656 207.004C73.638 207.41 73.4854 207.726 73.3076 207.954C73.1344 208.177 72.9453 208.346 72.7402 208.46L75.6797 212.5ZM81.9756 210.155C81.9756 209.923 81.9346 209.72 81.8525 209.547C81.7751 209.369 81.6452 209.226 81.4629 209.116C81.2715 209.002 81.0527 208.934 80.8066 208.911C80.5651 208.888 80.2165 208.877 79.7607 208.877H78.5576V211.475H79.7334C80.1891 211.475 80.5423 211.456 80.793 211.42C81.0436 211.379 81.2601 211.304 81.4424 211.194C81.6292 211.076 81.7637 210.937 81.8457 210.777C81.9323 210.613 81.9756 210.406 81.9756 210.155ZM83.3018 210.135C83.3018 210.504 83.2266 210.839 83.0762 211.14C82.9303 211.44 82.7298 211.684 82.4746 211.871C82.1738 212.099 81.8525 212.261 81.5107 212.356C81.1689 212.452 80.7292 212.5 80.1914 212.5H77.2725V204.864H78.5576V207.838H80.2256C80.7998 207.838 81.2441 207.868 81.5586 207.927C81.8776 207.986 82.1943 208.132 82.5088 208.364C82.7731 208.56 82.9714 208.811 83.1035 209.116C83.2357 209.422 83.3018 209.761 83.3018 210.135ZM84.5801 204.864H85.8652V212.5H84.5801V204.864ZM100.686 203.524H97.0488V212.5H95.6953V203.524H92.0586V202.321H100.686V203.524ZM107.884 212.5H106.605V211.687C106.492 211.764 106.337 211.873 106.141 212.015C105.949 212.151 105.762 212.261 105.58 212.343C105.366 212.448 105.12 212.534 104.842 212.603C104.564 212.675 104.238 212.712 103.864 212.712C103.176 212.712 102.593 212.484 102.114 212.028C101.636 211.573 101.396 210.992 101.396 210.285C101.396 209.706 101.52 209.239 101.766 208.884C102.016 208.524 102.372 208.241 102.832 208.036C103.297 207.831 103.855 207.692 104.507 207.619C105.159 207.546 105.858 207.492 106.605 207.455V207.257C106.605 206.965 106.553 206.724 106.448 206.532C106.348 206.341 106.202 206.19 106.011 206.081C105.828 205.976 105.61 205.906 105.354 205.869C105.099 205.833 104.833 205.814 104.555 205.814C104.217 205.814 103.841 205.86 103.427 205.951C103.012 206.038 102.584 206.165 102.142 206.334H102.073V205.028C102.324 204.96 102.686 204.885 103.16 204.803C103.634 204.721 104.101 204.68 104.562 204.68C105.099 204.68 105.566 204.725 105.963 204.816C106.364 204.903 106.71 205.053 107.002 205.268C107.289 205.477 107.508 205.748 107.658 206.081C107.809 206.414 107.884 206.826 107.884 207.318V212.5ZM106.605 210.62V208.494C106.214 208.517 105.751 208.551 105.218 208.597C104.689 208.642 104.27 208.708 103.96 208.795C103.591 208.9 103.292 209.064 103.064 209.287C102.837 209.506 102.723 209.809 102.723 210.196C102.723 210.634 102.855 210.964 103.119 211.188C103.383 211.406 103.787 211.516 104.329 211.516C104.78 211.516 105.193 211.429 105.566 211.256C105.94 211.078 106.286 210.866 106.605 210.62ZM117.078 208.59C117.078 209.21 116.989 209.777 116.812 210.292C116.634 210.802 116.383 211.235 116.06 211.591C115.759 211.928 115.403 212.19 114.993 212.377C114.588 212.559 114.157 212.65 113.701 212.65C113.305 212.65 112.945 212.607 112.621 212.521C112.302 212.434 111.976 212.299 111.644 212.117V215.316H110.358V204.864H111.644V205.664C111.985 205.377 112.368 205.138 112.792 204.946C113.22 204.75 113.676 204.652 114.159 204.652C115.08 204.652 115.795 205.001 116.306 205.698C116.821 206.391 117.078 207.355 117.078 208.59ZM115.752 208.624C115.752 207.703 115.595 207.015 115.28 206.56C114.966 206.104 114.483 205.876 113.831 205.876C113.462 205.876 113.09 205.956 112.717 206.115C112.343 206.275 111.985 206.484 111.644 206.744V211.071C112.008 211.235 112.32 211.347 112.58 211.406C112.844 211.465 113.143 211.495 113.476 211.495C114.191 211.495 114.749 211.254 115.15 210.771C115.551 210.287 115.752 209.572 115.752 208.624ZM124.693 205.992H121.932V212.5H120.646V205.992H117.885V204.864H124.693V205.992ZM132.63 204.864L128.173 215.316H126.799L128.221 212.131L125.179 204.864H126.573L128.918 210.524L131.283 204.864H132.63ZM140.915 204.864L136.458 215.316H135.084L136.506 212.131L133.464 204.864H134.858L137.203 210.524L139.568 204.864H140.915Z" fill="#333333"/>
</svg>
