<svg width="100" height="98" viewBox="0 0 100 98" fill="none" xmlns="http://www.w3.org/2000/svg">
<g filter="url(#filter0_d_1681_22)">
<path d="M2 14.5152C2 11.4611 3.2132 8.53222 5.37271 6.37271C7.53222 4.2132 10.4611 3 13.5152 3H82.6061C85.6601 3 88.589 4.2132 90.7485 6.37271C92.908 8.53222 94.1212 11.4611 94.1212 14.5152V32.6285C92.3859 31.0748 90.4493 29.7618 88.3636 28.7248V14.5152C88.3636 12.9881 87.757 11.5237 86.6773 10.4439C85.5975 9.36418 84.1331 8.75758 82.6061 8.75758H13.5152C11.9881 8.75758 10.5237 9.36418 9.44393 10.4439C8.36418 11.5237 7.75758 12.9881 7.75758 14.5152V60.5758C7.75758 62.1028 8.36418 63.5672 9.44393 64.647C10.5237 65.7267 11.9881 66.3333 13.5152 66.3333H55.3036C55.7412 66.9839 56.2076 67.6173 56.697 68.2276V72.0909H13.5152C10.4611 72.0909 7.53222 70.8777 5.37271 68.7182C3.2132 66.5587 2 63.6298 2 60.5758V14.5152ZM97 51.9394C97 57.4321 94.8064 62.4067 91.2424 66.0455V89.3636C91.2424 89.8983 91.0936 90.4223 90.8125 90.8771C90.5314 91.3319 90.1292 91.6994 89.6511 91.9385C89.1729 92.1776 88.6376 92.2788 88.1051 92.2308C87.5726 92.1828 87.0641 91.9874 86.6364 91.6667L78.5758 85.6212C78.0775 85.2475 77.4714 85.0455 76.8485 85.0455C76.2256 85.0455 75.6195 85.2475 75.1212 85.6212L67.0606 91.6667C66.6329 91.9874 66.1243 92.1828 65.5919 92.2308C65.0594 92.2788 64.5241 92.1776 64.0459 91.9385C63.5677 91.6994 63.1656 91.3319 62.8845 90.8771C62.6034 90.4223 62.4545 89.8983 62.4545 89.3636V66.0455C60.1414 63.6847 58.4445 60.7912 57.5133 57.6199C56.5821 54.4487 56.4452 51.0971 57.1147 47.8605C57.7842 44.6239 59.2394 41.6017 61.3523 39.0601C63.4652 36.5185 66.1707 34.5357 69.2306 33.2862C72.2904 32.0368 75.6106 31.5591 78.8986 31.8954C82.1866 32.2316 85.3413 33.3714 88.0849 35.2143C90.8286 37.0573 93.0768 39.5467 94.6314 42.4634C96.1861 45.38 96.9995 48.6343 97 51.9394ZM76.8485 72.0909C73.7567 72.0909 70.8318 71.4 68.2121 70.1506V82.1667L75.3688 77.8715C75.8159 77.6036 76.3273 77.4621 76.8485 77.4621C77.3697 77.4621 77.8811 77.6036 78.3282 77.8715L85.4848 82.1667V70.1506C82.7863 71.432 79.8358 72.0949 76.8485 72.0909ZM76.8485 66.3333C80.666 66.3333 84.3272 64.8168 87.0265 62.1174C89.7259 59.4181 91.2424 55.7569 91.2424 51.9394C91.2424 48.1219 89.7259 44.4607 87.0265 41.7613C84.3272 39.062 80.666 37.5455 76.8485 37.5455C73.031 37.5455 69.3698 39.062 66.6704 41.7613C63.971 44.4607 62.4545 48.1219 62.4545 51.9394C62.4545 55.7569 63.971 59.4181 66.6704 62.1174C69.3698 64.8168 73.031 66.3333 76.8485 66.3333ZM19.2727 23.1515C19.2727 22.388 19.576 21.6558 20.1159 21.1159C20.6558 20.576 21.388 20.2727 22.1515 20.2727H73.9697C74.7332 20.2727 75.4654 20.576 76.0053 21.1159C76.5452 21.6558 76.8485 22.388 76.8485 23.1515C76.8485 23.915 76.5452 24.6472 76.0053 25.1871C75.4654 25.727 74.7332 26.0303 73.9697 26.0303H22.1515C21.388 26.0303 20.6558 25.727 20.1159 25.1871C19.576 24.6472 19.2727 23.915 19.2727 23.1515ZM22.1515 49.0606C21.388 49.0606 20.6558 49.3639 20.1159 49.9038C19.576 50.4437 19.2727 51.1759 19.2727 51.9394C19.2727 52.7029 19.576 53.4351 20.1159 53.975C20.6558 54.5149 21.388 54.8182 22.1515 54.8182H45.1818C45.9453 54.8182 46.6776 54.5149 47.2174 53.975C47.7573 53.4351 48.0606 52.7029 48.0606 51.9394C48.0606 51.1759 47.7573 50.4437 47.2174 49.9038C46.6776 49.3639 45.9453 49.0606 45.1818 49.0606H22.1515Z" fill="#1959AB"/>
</g>
<defs>
<filter id="filter0_d_1681_22" x="-1" y="0" width="107" height="101.242" filterUnits="userSpaceOnUse" color-interpolation-filters="sRGB">
<feFlood flood-opacity="0" result="BackgroundImageFix"/>
<feColorMatrix in="SourceAlpha" type="matrix" values="0 0 0 0 0 0 0 0 0 0 0 0 0 0 0 0 0 0 127 0" result="hardAlpha"/>
<feOffset dx="3" dy="3"/>
<feGaussianBlur stdDeviation="3"/>
<feComposite in2="hardAlpha" operator="out"/>
<feColorMatrix type="matrix" values="0 0 0 0 0.2 0 0 0 0 0.2 0 0 0 0 0.2 0 0 0 0.25 0"/>
<feBlend mode="normal" in2="BackgroundImageFix" result="effect1_dropShadow_1681_22"/>
<feBlend mode="normal" in="SourceGraphic" in2="effect1_dropShadow_1681_22" result="shape"/>
</filter>
</defs>
</svg>
