<svg width="235" height="260" viewBox="0 0 235 260" fill="none" xmlns="http://www.w3.org/2000/svg">
<path d="M11.8066 7.13867C12.4577 7.77018 12.9557 8.53516 13.3008 9.43359C13.6523 10.332 13.8281 11.3607 13.8281 12.5195C13.8281 13.763 13.6361 14.8828 13.252 15.8789C12.8678 16.8685 12.3405 17.679 11.6699 18.3105C10.9993 18.9421 10.1921 19.4303 9.24805 19.7754C8.31055 20.1139 7.26237 20.2832 6.10352 20.2832C5.48503 20.2832 4.90885 20.2409 4.375 20.1562C3.84766 20.0781 3.3724 19.9805 2.94922 19.8633C2.5 19.7396 2.0931 19.6126 1.72852 19.4824C1.36393 19.3457 1.08724 19.2383 0.898438 19.1602V15.8691H1.25977C1.45508 16.0319 1.69271 16.2142 1.97266 16.416C2.2526 16.6113 2.55859 16.7904 2.89062 16.9531C3.28776 17.1419 3.71094 17.3014 4.16016 17.4316C4.60938 17.5553 5.14323 17.6172 5.76172 17.6172C6.19792 17.6172 6.66341 17.5586 7.1582 17.4414C7.65299 17.3177 8.0957 17.1126 8.48633 16.8262C8.89648 16.5332 9.24805 16.1426 9.54102 15.6543C9.84049 15.166 10.0293 14.5443 10.1074 13.7891H3.63281V11.0156H10.0195C9.91536 10.4297 9.72982 9.93815 9.46289 9.54102C9.19596 9.14388 8.87695 8.81836 8.50586 8.56445C8.13477 8.31055 7.72786 8.12826 7.28516 8.01758C6.84896 7.90039 6.41276 7.8418 5.97656 7.8418C5.4362 7.8418 4.9349 7.9069 4.47266 8.03711C4.01693 8.16081 3.58724 8.32031 3.18359 8.51562C2.81901 8.69792 2.49349 8.89323 2.20703 9.10156C1.92708 9.3099 1.69271 9.48568 1.50391 9.62891H1.09375V6.30859C1.45182 6.15234 1.78711 6.01888 2.09961 5.9082C2.41211 5.79102 2.81576 5.66732 3.31055 5.53711C3.70768 5.43294 4.17643 5.34831 4.7168 5.2832C5.25716 5.21159 5.81055 5.17578 6.37695 5.17578C7.49674 5.17578 8.51562 5.3418 9.43359 5.67383C10.3516 6.00586 11.1426 6.49414 11.8066 7.13867ZM28.1445 20H24.082L21.1426 15.6543H20.0195V20H16.5039V9.0332H20.0195V13.4375C20.6706 13.431 21.1198 13.3626 21.3672 13.2324C21.6146 13.0957 21.901 12.7409 22.2266 12.168C22.3242 11.9987 22.4414 11.7806 22.5781 11.5137C22.7148 11.2467 22.8223 11.0417 22.9004 10.8984C23.2585 10.2604 23.6751 9.78841 24.1504 9.48242C24.6322 9.16992 25.2995 9.01367 26.1523 9.01367C26.3997 9.01367 26.6602 9.01693 26.9336 9.02344C27.2135 9.02995 27.4023 9.0332 27.5 9.0332V11.9629H26.543C26.1523 11.9629 25.8398 12.0605 25.6055 12.2559C25.3776 12.4512 25.179 12.7409 25.0098 13.125C24.8665 13.444 24.7363 13.6979 24.6191 13.8867C24.502 14.069 24.3522 14.2253 24.1699 14.3555L28.1445 20ZM35.6348 20.293C34.6777 20.293 33.8021 20.179 33.0078 19.9512C32.2201 19.7233 31.5332 19.3717 30.9473 18.8965C30.3678 18.4212 29.9186 17.8223 29.5996 17.0996C29.2806 16.377 29.1211 15.5306 29.1211 14.5605C29.1211 13.5384 29.2904 12.6562 29.6289 11.9141C29.974 11.1719 30.4525 10.5566 31.0645 10.0684C31.6569 9.60612 32.3405 9.26758 33.1152 9.05273C33.89 8.83789 34.694 8.73047 35.5273 8.73047C36.276 8.73047 36.9661 8.81185 37.5977 8.97461C38.2292 9.13737 38.8184 9.34896 39.3652 9.60938V12.6074H38.8672C38.7305 12.4902 38.5645 12.3535 38.3691 12.1973C38.1803 12.041 37.946 11.888 37.666 11.7383C37.3991 11.5951 37.1061 11.4779 36.7871 11.3867C36.4681 11.2891 36.097 11.2402 35.6738 11.2402C34.7363 11.2402 34.0137 11.5397 33.5059 12.1387C33.0046 12.7311 32.7539 13.5384 32.7539 14.5605C32.7539 15.6152 33.0111 16.416 33.5254 16.9629C34.0462 17.5098 34.7819 17.7832 35.7324 17.7832C36.1751 17.7832 36.5723 17.7344 36.9238 17.6367C37.2819 17.5326 37.5781 17.4121 37.8125 17.2754C38.0339 17.1452 38.2292 17.0085 38.3984 16.8652C38.5677 16.722 38.724 16.582 38.8672 16.4453H39.3652V19.4434C38.8118 19.7038 38.2324 19.9089 37.627 20.0586C37.028 20.2148 36.3639 20.293 35.6348 20.293ZM52.9688 20H49.4531V11.416H45.4102V20H41.8945V9.0332H52.9688V20ZM67.5 14.5215C67.5 16.3249 66.9727 17.7474 65.918 18.7891C64.8698 19.8242 63.3952 20.3418 61.4941 20.3418C59.5931 20.3418 58.1152 19.8242 57.0605 18.7891C56.0124 17.7474 55.4883 16.3249 55.4883 14.5215C55.4883 12.7051 56.0156 11.2793 57.0703 10.2441C58.1315 9.20898 59.6061 8.69141 61.4941 8.69141C63.4082 8.69141 64.8861 9.21224 65.9277 10.2539C66.9759 11.2956 67.5 12.7181 67.5 14.5215ZM63.1738 17.1875C63.4017 16.9076 63.571 16.5723 63.6816 16.1816C63.7988 15.7845 63.8574 15.2376 63.8574 14.541C63.8574 13.8965 63.7988 13.3561 63.6816 12.9199C63.5645 12.4837 63.4017 12.1354 63.1934 11.875C62.985 11.6081 62.7344 11.4193 62.4414 11.3086C62.1484 11.1979 61.8327 11.1426 61.4941 11.1426C61.1556 11.1426 60.8529 11.1882 60.5859 11.2793C60.3255 11.3704 60.0749 11.5527 59.834 11.8262C59.6191 12.0801 59.4466 12.4284 59.3164 12.8711C59.1927 13.3138 59.1309 13.8704 59.1309 14.541C59.1309 15.14 59.1862 15.6608 59.2969 16.1035C59.4076 16.5397 59.5703 16.8913 59.7852 17.1582C59.9935 17.4121 60.2409 17.5977 60.5273 17.7148C60.8203 17.832 61.1523 17.8906 61.5234 17.8906C61.8424 17.8906 62.1452 17.8385 62.4316 17.7344C62.7246 17.6237 62.972 17.4414 63.1738 17.1875ZM81.4648 14.3652C81.4648 15.2702 81.3249 16.0938 81.0449 16.8359C80.7715 17.5781 80.4102 18.1901 79.9609 18.6719C79.4922 19.1797 78.9616 19.5638 78.3691 19.8242C77.7767 20.0846 77.1419 20.2148 76.4648 20.2148C75.8398 20.2148 75.3092 20.1465 74.873 20.0098C74.4368 19.8796 73.9909 19.694 73.5352 19.4531V24.0234H70.0195V9.0332H73.5352V10.1758C74.0755 9.74609 74.6257 9.39779 75.1855 9.13086C75.752 8.86393 76.403 8.73047 77.1387 8.73047C78.5059 8.73047 79.5671 9.23177 80.3223 10.2344C81.084 11.237 81.4648 12.6139 81.4648 14.3652ZM77.8418 14.4336C77.8418 13.3659 77.6595 12.5911 77.2949 12.1094C76.9303 11.6276 76.3542 11.3867 75.5664 11.3867C75.2344 11.3867 74.8926 11.4388 74.541 11.543C74.1895 11.6406 73.8542 11.7839 73.5352 11.9727V17.4902C73.7695 17.5814 74.0202 17.64 74.2871 17.666C74.554 17.6921 74.8177 17.7051 75.0781 17.7051C76.0091 17.7051 76.7025 17.4349 77.1582 16.8945C77.6139 16.3477 77.8418 15.5273 77.8418 14.4336ZM92.9492 11.416H89.4531V20H85.9375V11.416H82.4414V9.0332H92.9492V11.416Z" fill="#333333"/>
<path d="M5 47L12.5 54.5L25 39.5" stroke="#61B857" stroke-width="2" stroke-linecap="round" stroke-linejoin="round"/>
<path d="M47.5498 52.5H45.8135L41.6777 47.8584H40.7549V52.5H39.4014V42.3213H40.7549V46.8877C40.9873 46.8831 41.2061 46.8604 41.4111 46.8193C41.6162 46.7783 41.8099 46.7008 41.9922 46.5869C42.1745 46.4821 42.3545 46.334 42.5322 46.1426C42.71 45.9466 42.8672 45.7074 43.0039 45.4248C43.0632 45.3018 43.1315 45.1468 43.209 44.96C43.291 44.7731 43.373 44.5771 43.4551 44.3721C43.7695 43.6156 44.1364 43.0846 44.5557 42.7793C44.9795 42.474 45.6016 42.3213 46.4219 42.3213H46.9619V43.5312H46.3945C46.0801 43.5312 45.834 43.5609 45.6562 43.6201C45.4785 43.6748 45.319 43.7682 45.1777 43.9004C45.0456 44.0189 44.9294 44.1784 44.8291 44.3789C44.7334 44.5794 44.6331 44.8141 44.5283 45.083C44.2913 45.6846 44.0498 46.1266 43.8037 46.4092C43.5622 46.6917 43.2363 46.9378 42.8262 47.1475L47.5498 52.5ZM55.4795 48.6855C55.4795 49.9297 55.1605 50.9118 54.5225 51.6318C53.8844 52.3519 53.0299 52.7119 51.959 52.7119C50.8789 52.7119 50.0199 52.3519 49.3818 51.6318C48.7484 50.9118 48.4316 49.9297 48.4316 48.6855C48.4316 47.4414 48.7484 46.4593 49.3818 45.7393C50.0199 45.0146 50.8789 44.6523 51.959 44.6523C53.0299 44.6523 53.8844 45.0146 54.5225 45.7393C55.1605 46.4593 55.4795 47.4414 55.4795 48.6855ZM54.1533 48.6855C54.1533 47.6966 53.9596 46.9629 53.5723 46.4844C53.1849 46.0013 52.6471 45.7598 51.959 45.7598C51.2617 45.7598 50.7194 46.0013 50.332 46.4844C49.9492 46.9629 49.7578 47.6966 49.7578 48.6855C49.7578 49.6426 49.9515 50.3695 50.3389 50.8662C50.7262 51.3584 51.2663 51.6045 51.959 51.6045C52.6426 51.6045 53.1781 51.3607 53.5654 50.873C53.9574 50.3809 54.1533 49.6517 54.1533 48.6855ZM63.8672 52.5H62.582V49.0615H58.7607V52.5H57.4756V44.8643H58.7607V47.9541H62.582V44.8643H63.8672V52.5ZM72.1182 52.0215C71.5941 52.2676 71.1429 52.4362 70.7646 52.5273C70.391 52.623 70.0173 52.6709 69.6436 52.6709C69.0876 52.6709 68.5771 52.5911 68.1123 52.4316C67.6475 52.2676 67.2487 52.0215 66.916 51.6934C66.5833 51.3652 66.3236 50.9505 66.1367 50.4492C65.9544 49.9479 65.8633 49.3623 65.8633 48.6924C65.8633 47.4756 66.2005 46.5049 66.875 45.7803C67.5495 45.0511 68.4723 44.6865 69.6436 44.6865C70.0856 44.6865 70.5186 44.748 70.9424 44.8711C71.3708 44.9941 71.7627 45.1445 72.1182 45.3223V46.751H72.043C71.6191 46.4274 71.1999 46.1882 70.7852 46.0332C70.375 45.8783 69.9762 45.8008 69.5889 45.8008C68.8278 45.8008 68.2376 46.056 67.8184 46.5664C67.4036 47.0768 67.1963 47.7855 67.1963 48.6924C67.1963 49.5993 67.4036 50.3034 67.8184 50.8047C68.2331 51.306 68.8232 51.5566 69.5889 51.5566C69.8577 51.5566 70.1243 51.5225 70.3887 51.4541C70.6576 51.3857 70.9014 51.2969 71.1201 51.1875C71.2933 51.1009 71.471 50.9984 71.6533 50.8799C71.8402 50.7568 71.9701 50.6657 72.043 50.6064H72.1182V52.0215ZM80.4854 44.8643L76.0283 55.3164H74.6543L76.0762 52.1309L73.0342 44.8643H74.4287L76.7734 50.5244L79.1387 44.8643H80.4854ZM88.3262 52.5H87.041V45.9443H84.1904C84.1768 46.3226 84.1631 46.6872 84.1494 47.0381C84.1357 47.389 84.1221 47.7057 84.1084 47.9883C84.0765 48.7493 84.0241 49.3577 83.9512 49.8135C83.8783 50.2646 83.7826 50.6406 83.6641 50.9414C83.5547 51.224 83.4316 51.4541 83.2949 51.6318C83.1628 51.805 83.0192 51.9622 82.8643 52.1035C82.7093 52.2402 82.5361 52.3428 82.3447 52.4111C82.1579 52.4795 81.9528 52.5137 81.7295 52.5137C81.652 52.5137 81.5381 52.5114 81.3877 52.5068C81.2419 52.5023 81.1462 52.5 81.1006 52.5V51.3789H81.1689C81.2054 51.3789 81.2578 51.3812 81.3262 51.3857C81.3945 51.3903 81.4515 51.3926 81.4971 51.3926C81.6064 51.3926 81.7181 51.3766 81.832 51.3447C81.9505 51.3128 82.0508 51.2536 82.1328 51.167C82.3652 50.9391 82.5521 50.554 82.6934 50.0117C82.8346 49.4694 82.9281 48.6855 82.9736 47.6602C82.9919 47.2865 83.0078 46.8444 83.0215 46.334C83.0397 45.819 83.0557 45.3291 83.0693 44.8643H88.3262V52.5ZM95.6338 50.1553C95.6338 49.9229 95.5928 49.7201 95.5107 49.5469C95.4333 49.3691 95.3034 49.2256 95.1211 49.1162C94.9297 49.0023 94.7109 48.9339 94.4648 48.9111C94.2233 48.8883 93.8747 48.877 93.4189 48.877H92.1475V51.4746H93.3916C93.8473 51.4746 94.2005 51.4564 94.4512 51.4199C94.7018 51.3789 94.9183 51.3037 95.1006 51.1943C95.2874 51.0758 95.4219 50.9368 95.5039 50.7773C95.5905 50.6133 95.6338 50.4059 95.6338 50.1553ZM96.96 50.1348C96.96 50.5039 96.8848 50.8389 96.7344 51.1396C96.5885 51.4404 96.388 51.6842 96.1328 51.8711C95.832 52.099 95.5107 52.2607 95.1689 52.3564C94.8271 52.4521 94.3874 52.5 93.8496 52.5H90.8623V44.8643H92.1475V47.8379H93.8838C94.458 47.8379 94.9023 47.8675 95.2168 47.9268C95.5358 47.986 95.8525 48.1318 96.167 48.3643C96.4313 48.5602 96.6296 48.8109 96.7617 49.1162C96.8939 49.4215 96.96 49.7611 96.96 50.1348ZM104.473 45.9922H101.711V52.5H100.426V45.9922H97.6641V44.8643H104.473V45.9922ZM111.739 52.5H110.461V51.6865C110.347 51.764 110.192 51.8734 109.996 52.0146C109.805 52.1514 109.618 52.2607 109.436 52.3428C109.221 52.4476 108.975 52.5342 108.697 52.6025C108.419 52.6755 108.093 52.7119 107.72 52.7119C107.032 52.7119 106.448 52.484 105.97 52.0283C105.491 51.5726 105.252 50.9915 105.252 50.2852C105.252 49.7064 105.375 49.2393 105.621 48.8838C105.872 48.5238 106.227 48.2412 106.688 48.0361C107.152 47.8311 107.711 47.6921 108.362 47.6191C109.014 47.5462 109.714 47.4915 110.461 47.4551V47.2568C110.461 46.9652 110.409 46.7236 110.304 46.5322C110.203 46.3408 110.058 46.1904 109.866 46.0811C109.684 45.9762 109.465 45.9056 109.21 45.8691C108.955 45.8327 108.688 45.8145 108.41 45.8145C108.073 45.8145 107.697 45.86 107.282 45.9512C106.868 46.0378 106.439 46.1654 105.997 46.334H105.929V45.0283C106.179 44.96 106.542 44.8848 107.016 44.8027C107.49 44.7207 107.957 44.6797 108.417 44.6797C108.955 44.6797 109.422 44.7253 109.818 44.8164C110.219 44.903 110.566 45.0534 110.857 45.2676C111.145 45.4772 111.363 45.7484 111.514 46.0811C111.664 46.4137 111.739 46.8262 111.739 47.3184V52.5ZM110.461 50.6201V48.4941C110.069 48.5169 109.606 48.5511 109.073 48.5967C108.545 48.6423 108.125 48.7083 107.815 48.7949C107.446 48.8997 107.148 49.0638 106.92 49.2871C106.692 49.5059 106.578 49.8089 106.578 50.1963C106.578 50.6338 106.71 50.9642 106.975 51.1875C107.239 51.4062 107.642 51.5156 108.185 51.5156C108.636 51.5156 109.048 51.429 109.422 51.2559C109.796 51.0781 110.142 50.8662 110.461 50.6201ZM120.271 52.5H114.214V44.8643H115.499V51.3926H119.259V44.8643H120.544V51.3926H121.467V54.332H120.271V52.5ZM129.67 52.5H128.398V46.7646L124.399 52.5H123.237V44.8643H124.509V50.5176L128.467 44.8643H129.67V52.5ZM138.639 52.5H137.367V46.7646L133.368 52.5H132.206V44.8643H133.478V50.5176L137.436 44.8643H138.639V52.5ZM152.488 52.5H151.203V45.9717H147.382V52.5H146.097V44.8643H152.488V52.5ZM161.532 48.6855C161.532 49.9297 161.213 50.9118 160.575 51.6318C159.937 52.3519 159.083 52.7119 158.012 52.7119C156.932 52.7119 156.073 52.3519 155.435 51.6318C154.801 50.9118 154.484 49.9297 154.484 48.6855C154.484 47.4414 154.801 46.4593 155.435 45.7393C156.073 45.0146 156.932 44.6523 158.012 44.6523C159.083 44.6523 159.937 45.0146 160.575 45.7393C161.213 46.4593 161.532 47.4414 161.532 48.6855ZM160.206 48.6855C160.206 47.6966 160.012 46.9629 159.625 46.4844C159.238 46.0013 158.7 45.7598 158.012 45.7598C157.314 45.7598 156.772 46.0013 156.385 46.4844C156.002 46.9629 155.811 47.6966 155.811 48.6855C155.811 49.6426 156.004 50.3695 156.392 50.8662C156.779 51.3584 157.319 51.6045 158.012 51.6045C158.695 51.6045 159.231 51.3607 159.618 50.873C160.01 50.3809 160.206 49.6517 160.206 48.6855ZM174.849 43.4492C175.286 43.8867 175.623 44.429 175.86 45.0762C176.097 45.7233 176.216 46.4889 176.216 47.373C176.216 48.1569 176.095 48.8792 175.854 49.54C175.617 50.1963 175.272 50.7591 174.821 51.2285C174.356 51.7116 173.812 52.0762 173.188 52.3223C172.568 52.5638 171.886 52.6846 171.144 52.6846C170.501 52.6846 169.89 52.623 169.312 52.5C168.733 52.377 168.245 52.2311 167.849 52.0625V50.5654H167.958C168.327 50.8617 168.792 51.0986 169.353 51.2764C169.918 51.4495 170.521 51.5361 171.164 51.5361C171.725 51.5361 172.237 51.4382 172.702 51.2422C173.167 51.0417 173.554 50.7705 173.864 50.4287C174.192 50.0641 174.438 49.654 174.603 49.1982C174.771 48.738 174.855 48.2161 174.855 47.6328H169.298V46.4502H174.787C174.723 45.9079 174.587 45.4385 174.377 45.042C174.167 44.641 173.901 44.3105 173.577 44.0508C173.254 43.791 172.887 43.5996 172.477 43.4766C172.066 43.349 171.629 43.2852 171.164 43.2852C170.54 43.2852 169.954 43.374 169.407 43.5518C168.86 43.7249 168.389 43.9642 167.992 44.2695H167.876V42.7656C168.3 42.5879 168.801 42.4398 169.38 42.3213C169.959 42.1982 170.551 42.1367 171.157 42.1367C171.941 42.1367 172.641 42.2461 173.256 42.4648C173.876 42.6836 174.407 43.0117 174.849 43.4492ZM185.157 52.5H183.476L180.304 49H179.606V52.5H178.321V44.8643H179.606V48.1592C180.03 48.1592 180.372 48.084 180.632 47.9336C180.892 47.7786 181.113 47.5326 181.295 47.1953C181.359 47.0723 181.42 46.9424 181.479 46.8057C181.543 46.6644 181.605 46.5299 181.664 46.4023C181.901 45.8874 182.197 45.5023 182.553 45.2471C182.908 44.9919 183.419 44.8643 184.084 44.8643H184.672V45.9717H184.104C183.744 45.9717 183.462 46.0492 183.257 46.2041C183.056 46.3545 182.874 46.6211 182.71 47.0039C182.528 47.4323 182.334 47.7536 182.129 47.9678C181.928 48.1774 181.714 48.3369 181.486 48.4463L185.157 52.5ZM192.267 52.0215C191.743 52.2676 191.291 52.4362 190.913 52.5273C190.539 52.623 190.166 52.6709 189.792 52.6709C189.236 52.6709 188.726 52.5911 188.261 52.4316C187.796 52.2676 187.397 52.0215 187.064 51.6934C186.732 51.3652 186.472 50.9505 186.285 50.4492C186.103 49.9479 186.012 49.3623 186.012 48.6924C186.012 47.4756 186.349 46.5049 187.023 45.7803C187.698 45.0511 188.621 44.6865 189.792 44.6865C190.234 44.6865 190.667 44.748 191.091 44.8711C191.519 44.9941 191.911 45.1445 192.267 45.3223V46.751H192.191C191.768 46.4274 191.348 46.1882 190.934 46.0332C190.523 45.8783 190.125 45.8008 189.737 45.8008C188.976 45.8008 188.386 46.056 187.967 46.5664C187.552 47.0768 187.345 47.7855 187.345 48.6924C187.345 49.5993 187.552 50.3034 187.967 50.8047C188.382 51.306 188.972 51.5566 189.737 51.5566C190.006 51.5566 190.273 51.5225 190.537 51.4541C190.806 51.3857 191.05 51.2969 191.269 51.1875C191.442 51.1009 191.619 50.9984 191.802 50.8799C191.989 50.7568 192.118 50.6657 192.191 50.6064H192.267V52.0215ZM200.422 52.5H199.137V45.9717H195.315V52.5H194.03V44.8643H200.422V52.5ZM209.466 48.6855C209.466 49.9297 209.147 50.9118 208.509 51.6318C207.871 52.3519 207.016 52.7119 205.945 52.7119C204.865 52.7119 204.006 52.3519 203.368 51.6318C202.735 50.9118 202.418 49.9297 202.418 48.6855C202.418 47.4414 202.735 46.4593 203.368 45.7393C204.006 45.0146 204.865 44.6523 205.945 44.6523C207.016 44.6523 207.871 45.0146 208.509 45.7393C209.147 46.4593 209.466 47.4414 209.466 48.6855ZM208.14 48.6855C208.14 47.6966 207.946 46.9629 207.559 46.4844C207.171 46.0013 206.633 45.7598 205.945 45.7598C205.248 45.7598 204.706 46.0013 204.318 46.4844C203.936 46.9629 203.744 47.6966 203.744 48.6855C203.744 49.6426 203.938 50.3695 204.325 50.8662C204.713 51.3584 205.253 51.6045 205.945 51.6045C206.629 51.6045 207.164 51.3607 207.552 50.873C207.944 50.3809 208.14 49.6517 208.14 48.6855ZM218.182 48.5898C218.182 49.2096 218.093 49.777 217.915 50.292C217.737 50.8024 217.487 51.2354 217.163 51.5908C216.862 51.9281 216.507 52.1901 216.097 52.377C215.691 52.5592 215.26 52.6504 214.805 52.6504C214.408 52.6504 214.048 52.6071 213.725 52.5205C213.406 52.4339 213.08 52.2995 212.747 52.1172V55.3164H211.462V44.8643H212.747V45.6641C213.089 45.377 213.472 45.1377 213.896 44.9463C214.324 44.7503 214.78 44.6523 215.263 44.6523C216.183 44.6523 216.899 45.001 217.409 45.6982C217.924 46.391 218.182 47.3548 218.182 48.5898ZM216.855 48.624C216.855 47.7035 216.698 47.0153 216.384 46.5596C216.069 46.1038 215.586 45.876 214.935 45.876C214.565 45.876 214.194 45.9557 213.82 46.1152C213.447 46.2747 213.089 46.4844 212.747 46.7441V51.0713C213.112 51.2354 213.424 51.347 213.684 51.4062C213.948 51.4655 214.246 51.4951 214.579 51.4951C215.295 51.4951 215.853 51.2536 216.254 50.7705C216.655 50.2874 216.855 49.5719 216.855 48.624ZM225.797 45.9922H223.035V52.5H221.75V45.9922H218.988V44.8643H225.797V45.9922ZM233.733 44.8643L229.276 55.3164H227.902L229.324 52.1309L226.282 44.8643H227.677L230.021 50.5244L232.387 44.8643H233.733Z" fill="#333333"/>
<path d="M5 85L12.5 92.5L25 77.5" stroke="#61B857" stroke-width="2" stroke-linecap="round" stroke-linejoin="round"/>
<path d="M47.1533 90.5H45.7998V81.5244H40.7207V90.5H39.3672V80.3213H47.1533V90.5ZM56.2998 86.6855C56.2998 87.9297 55.9808 88.9118 55.3428 89.6318C54.7048 90.3519 53.8503 90.7119 52.7793 90.7119C51.6992 90.7119 50.8402 90.3519 50.2021 89.6318C49.5687 88.9118 49.252 87.9297 49.252 86.6855C49.252 85.4414 49.5687 84.4593 50.2021 83.7393C50.8402 83.0146 51.6992 82.6523 52.7793 82.6523C53.8503 82.6523 54.7048 83.0146 55.3428 83.7393C55.9808 84.4593 56.2998 85.4414 56.2998 86.6855ZM54.9736 86.6855C54.9736 85.6966 54.7799 84.9629 54.3926 84.4844C54.0052 84.0013 53.4674 83.7598 52.7793 83.7598C52.082 83.7598 51.5397 84.0013 51.1523 84.4844C50.7695 84.9629 50.5781 85.6966 50.5781 86.6855C50.5781 87.6426 50.7718 88.3695 51.1592 88.8662C51.5465 89.3584 52.0866 89.6045 52.7793 89.6045C53.4629 89.6045 53.9984 89.3607 54.3857 88.873C54.7777 88.3809 54.9736 87.6517 54.9736 86.6855ZM65.2275 92.332H64.0312V90.4795H58.2891V92.332H57.0928V89.4062H57.9199C58.4531 88.5267 58.8496 87.5127 59.1094 86.3643C59.3737 85.2113 59.5059 84.0446 59.5059 82.8643H64.3047V89.4062H65.2275V92.332ZM63.0195 89.4062V83.9443H60.7158C60.6566 85.0882 60.4811 86.1318 60.1895 87.0752C59.8978 88.0186 59.5628 88.7956 59.1846 89.4062H63.0195ZM72.2686 83.9922H68.29V90.5H67.0049V82.8643H72.2686V83.9922ZM80.1162 86.6855C80.1162 87.9297 79.7972 88.9118 79.1592 89.6318C78.5212 90.3519 77.6667 90.7119 76.5957 90.7119C75.5156 90.7119 74.6566 90.3519 74.0186 89.6318C73.3851 88.9118 73.0684 87.9297 73.0684 86.6855C73.0684 85.4414 73.3851 84.4593 74.0186 83.7393C74.6566 83.0146 75.5156 82.6523 76.5957 82.6523C77.6667 82.6523 78.5212 83.0146 79.1592 83.7393C79.7972 84.4593 80.1162 85.4414 80.1162 86.6855ZM78.79 86.6855C78.79 85.6966 78.5964 84.9629 78.209 84.4844C77.8216 84.0013 77.2839 83.7598 76.5957 83.7598C75.8984 83.7598 75.3561 84.0013 74.9688 84.4844C74.5859 84.9629 74.3945 85.6966 74.3945 86.6855C74.3945 87.6426 74.5882 88.3695 74.9756 88.8662C75.363 89.3584 75.903 89.6045 76.5957 89.6045C77.2793 89.6045 77.8148 89.3607 78.2021 88.873C78.5941 88.3809 78.79 87.6517 78.79 86.6855ZM87.7246 83.9922H84.9629V90.5H83.6777V83.9922H80.916V82.8643H87.7246V83.9922ZM95.5654 86.6855C95.5654 87.9297 95.2464 88.9118 94.6084 89.6318C93.9704 90.3519 93.1159 90.7119 92.0449 90.7119C90.9648 90.7119 90.1058 90.3519 89.4678 89.6318C88.8343 88.9118 88.5176 87.9297 88.5176 86.6855C88.5176 85.4414 88.8343 84.4593 89.4678 83.7393C90.1058 83.0146 90.9648 82.6523 92.0449 82.6523C93.1159 82.6523 93.9704 83.0146 94.6084 83.7393C95.2464 84.4593 95.5654 85.4414 95.5654 86.6855ZM94.2393 86.6855C94.2393 85.6966 94.0456 84.9629 93.6582 84.4844C93.2708 84.0013 92.7331 83.7598 92.0449 83.7598C91.3477 83.7598 90.8053 84.0013 90.418 84.4844C90.0352 84.9629 89.8438 85.6966 89.8438 86.6855C89.8438 87.6426 90.0374 88.3695 90.4248 88.8662C90.8122 89.3584 91.3522 89.6045 92.0449 89.6045C92.7285 89.6045 93.264 89.3607 93.6514 88.873C94.0433 88.3809 94.2393 87.6517 94.2393 86.6855ZM103.864 88.1895C103.864 88.5586 103.789 88.8867 103.639 89.1738C103.493 89.4609 103.29 89.7002 103.03 89.8916C102.739 90.1058 102.42 90.2607 102.073 90.3564C101.731 90.4521 101.28 90.5 100.72 90.5H97.5615V82.8643H100.515C101.084 82.8643 101.513 82.8848 101.8 82.9258C102.091 82.9622 102.365 83.0465 102.62 83.1787C102.907 83.3291 103.117 83.5251 103.249 83.7666C103.386 84.0081 103.454 84.293 103.454 84.6211C103.454 84.9993 103.347 85.3275 103.133 85.6055C102.919 85.8835 102.643 86.0999 102.306 86.2549V86.3232C102.757 86.4326 103.128 86.6445 103.42 86.959C103.716 87.2689 103.864 87.679 103.864 88.1895ZM102.135 84.8193C102.135 84.6553 102.098 84.5072 102.025 84.375C101.957 84.2428 101.85 84.1403 101.704 84.0674C101.513 83.9717 101.296 83.9193 101.055 83.9102C100.818 83.8965 100.524 83.8896 100.173 83.8896H98.833V85.9814H100.439C100.777 85.9814 101.025 85.9701 101.185 85.9473C101.349 85.9199 101.513 85.8561 101.677 85.7559C101.85 85.6465 101.968 85.5189 102.032 85.373C102.101 85.2227 102.135 85.0381 102.135 84.8193ZM102.538 88.1963C102.538 87.9456 102.497 87.7428 102.415 87.5879C102.333 87.4284 102.153 87.2826 101.875 87.1504C101.702 87.0684 101.515 87.0205 101.314 87.0068C101.114 86.9886 100.836 86.9795 100.48 86.9795H98.833V89.4746H100.05C100.56 89.4746 100.952 89.4587 101.226 89.4268C101.504 89.3903 101.743 89.3151 101.943 89.2012C102.144 89.0872 102.292 88.9482 102.388 88.7842C102.488 88.6201 102.538 88.4242 102.538 88.1963ZM112.778 90.5H111.097L107.925 87H107.228V90.5H105.942V82.8643H107.228V86.1592C107.651 86.1592 107.993 86.084 108.253 85.9336C108.513 85.7786 108.734 85.5326 108.916 85.1953C108.98 85.0723 109.041 84.9424 109.101 84.8057C109.164 84.6644 109.226 84.5299 109.285 84.4023C109.522 83.8874 109.818 83.5023 110.174 83.2471C110.529 82.9919 111.04 82.8643 111.705 82.8643H112.293V83.9717H111.726C111.366 83.9717 111.083 84.0492 110.878 84.2041C110.677 84.3545 110.495 84.6211 110.331 85.0039C110.149 85.4323 109.955 85.7536 109.75 85.9678C109.549 86.1774 109.335 86.3369 109.107 86.4463L112.778 90.5ZM120.106 90.5H118.828V89.6865C118.714 89.764 118.559 89.8734 118.363 90.0146C118.172 90.1514 117.985 90.2607 117.803 90.3428C117.589 90.4476 117.342 90.5342 117.064 90.6025C116.786 90.6755 116.461 90.7119 116.087 90.7119C115.399 90.7119 114.815 90.484 114.337 90.0283C113.858 89.5726 113.619 88.9915 113.619 88.2852C113.619 87.7064 113.742 87.2393 113.988 86.8838C114.239 86.5238 114.594 86.2412 115.055 86.0361C115.52 85.8311 116.078 85.6921 116.729 85.6191C117.381 85.5462 118.081 85.4915 118.828 85.4551V85.2568C118.828 84.9652 118.776 84.7236 118.671 84.5322C118.571 84.3408 118.425 84.1904 118.233 84.0811C118.051 83.9762 117.832 83.9056 117.577 83.8691C117.322 83.8327 117.055 83.8145 116.777 83.8145C116.44 83.8145 116.064 83.86 115.649 83.9512C115.235 84.0378 114.806 84.1654 114.364 84.334H114.296V83.0283C114.547 82.96 114.909 82.8848 115.383 82.8027C115.857 82.7207 116.324 82.6797 116.784 82.6797C117.322 82.6797 117.789 82.7253 118.186 82.8164C118.587 82.903 118.933 83.0534 119.225 83.2676C119.512 83.4772 119.73 83.7484 119.881 84.0811C120.031 84.4137 120.106 84.8262 120.106 85.3184V90.5ZM118.828 88.6201V86.4941C118.436 86.5169 117.974 86.5511 117.44 86.5967C116.912 86.6423 116.493 86.7083 116.183 86.7949C115.813 86.8997 115.515 87.0638 115.287 87.2871C115.059 87.5059 114.945 87.8089 114.945 88.1963C114.945 88.6338 115.077 88.9642 115.342 89.1875C115.606 89.4062 116.009 89.5156 116.552 89.5156C117.003 89.5156 117.415 89.429 117.789 89.2559C118.163 89.0781 118.509 88.8662 118.828 88.6201ZM134.394 90.5H132.712L129.54 87H128.843V90.5H127.558V82.8643H128.843V86.1592C129.267 86.1592 129.608 86.084 129.868 85.9336C130.128 85.7786 130.349 85.5326 130.531 85.1953C130.595 85.0723 130.657 84.9424 130.716 84.8057C130.78 84.6644 130.841 84.5299 130.9 84.4023C131.137 83.8874 131.434 83.5023 131.789 83.2471C132.145 82.9919 132.655 82.8643 133.32 82.8643H133.908V83.9717H133.341C132.981 83.9717 132.698 84.0492 132.493 84.2041C132.293 84.3545 132.11 84.6211 131.946 85.0039C131.764 85.4323 131.57 85.7536 131.365 85.9678C131.165 86.1774 130.951 86.3369 130.723 86.4463L134.394 90.5ZM147.108 81.4492C147.546 81.8867 147.883 82.429 148.12 83.0762C148.357 83.7233 148.476 84.4889 148.476 85.373C148.476 86.1569 148.355 86.8792 148.113 87.54C147.876 88.1963 147.532 88.7591 147.081 89.2285C146.616 89.7116 146.072 90.0762 145.447 90.3223C144.827 90.5638 144.146 90.6846 143.403 90.6846C142.761 90.6846 142.15 90.623 141.571 90.5C140.993 90.377 140.505 90.2311 140.108 90.0625V88.5654H140.218C140.587 88.8617 141.052 89.0986 141.612 89.2764C142.177 89.4495 142.781 89.5361 143.424 89.5361C143.984 89.5361 144.497 89.4382 144.962 89.2422C145.427 89.0417 145.814 88.7705 146.124 88.4287C146.452 88.0641 146.698 87.654 146.862 87.1982C147.031 86.738 147.115 86.2161 147.115 85.6328H141.558V84.4502H147.047C146.983 83.9079 146.846 83.4385 146.637 83.042C146.427 82.641 146.16 82.3105 145.837 82.0508C145.513 81.791 145.146 81.5996 144.736 81.4766C144.326 81.349 143.889 81.2852 143.424 81.2852C142.799 81.2852 142.214 81.374 141.667 81.5518C141.12 81.7249 140.648 81.9642 140.252 82.2695H140.136V80.7656C140.56 80.5879 141.061 80.4398 141.64 80.3213C142.218 80.1982 142.811 80.1367 143.417 80.1367C144.201 80.1367 144.9 80.2461 145.516 80.4648C146.135 80.6836 146.666 81.0117 147.108 81.4492ZM157.417 90.5H155.735L152.563 87H151.866V90.5H150.581V82.8643H151.866V86.1592C152.29 86.1592 152.632 86.084 152.892 85.9336C153.151 85.7786 153.372 85.5326 153.555 85.1953C153.618 85.0723 153.68 84.9424 153.739 84.8057C153.803 84.6644 153.865 84.5299 153.924 84.4023C154.161 83.8874 154.457 83.5023 154.812 83.2471C155.168 82.9919 155.678 82.8643 156.344 82.8643H156.932V83.9717H156.364C156.004 83.9717 155.722 84.0492 155.517 84.2041C155.316 84.3545 155.134 84.6211 154.97 85.0039C154.787 85.4323 154.594 85.7536 154.389 85.9678C154.188 86.1774 153.974 86.3369 153.746 86.4463L157.417 90.5ZM164.526 90.0215C164.002 90.2676 163.551 90.4362 163.173 90.5273C162.799 90.623 162.425 90.6709 162.052 90.6709C161.496 90.6709 160.985 90.5911 160.521 90.4316C160.056 90.2676 159.657 90.0215 159.324 89.6934C158.992 89.3652 158.732 88.9505 158.545 88.4492C158.363 87.9479 158.271 87.3623 158.271 86.6924C158.271 85.4756 158.609 84.5049 159.283 83.7803C159.958 83.0511 160.881 82.6865 162.052 82.6865C162.494 82.6865 162.927 82.748 163.351 82.8711C163.779 82.9941 164.171 83.1445 164.526 83.3223V84.751H164.451C164.027 84.4274 163.608 84.1882 163.193 84.0332C162.783 83.8783 162.384 83.8008 161.997 83.8008C161.236 83.8008 160.646 84.056 160.227 84.5664C159.812 85.0768 159.604 85.7855 159.604 86.6924C159.604 87.5993 159.812 88.3034 160.227 88.8047C160.641 89.306 161.231 89.5566 161.997 89.5566C162.266 89.5566 162.533 89.5225 162.797 89.4541C163.066 89.3857 163.31 89.2969 163.528 89.1875C163.701 89.1009 163.879 88.9984 164.062 88.8799C164.248 88.7568 164.378 88.6657 164.451 88.6064H164.526V90.0215ZM172.682 90.5H171.396V83.9717H167.575V90.5H166.29V82.8643H172.682V90.5ZM181.726 86.6855C181.726 87.9297 181.407 88.9118 180.769 89.6318C180.131 90.3519 179.276 90.7119 178.205 90.7119C177.125 90.7119 176.266 90.3519 175.628 89.6318C174.994 88.9118 174.678 87.9297 174.678 86.6855C174.678 85.4414 174.994 84.4593 175.628 83.7393C176.266 83.0146 177.125 82.6523 178.205 82.6523C179.276 82.6523 180.131 83.0146 180.769 83.7393C181.407 84.4593 181.726 85.4414 181.726 86.6855ZM180.399 86.6855C180.399 85.6966 180.206 84.9629 179.818 84.4844C179.431 84.0013 178.893 83.7598 178.205 83.7598C177.508 83.7598 176.965 84.0013 176.578 84.4844C176.195 84.9629 176.004 85.6966 176.004 86.6855C176.004 87.6426 176.198 88.3695 176.585 88.8662C176.972 89.3584 177.512 89.6045 178.205 89.6045C178.889 89.6045 179.424 89.3607 179.812 88.873C180.203 88.3809 180.399 87.6517 180.399 86.6855ZM190.441 86.5898C190.441 87.2096 190.353 87.777 190.175 88.292C189.997 88.8024 189.746 89.2354 189.423 89.5908C189.122 89.9281 188.767 90.1901 188.356 90.377C187.951 90.5592 187.52 90.6504 187.064 90.6504C186.668 90.6504 186.308 90.6071 185.984 90.5205C185.665 90.4339 185.34 90.2995 185.007 90.1172V93.3164H183.722V82.8643H185.007V83.6641C185.349 83.377 185.731 83.1377 186.155 82.9463C186.584 82.7503 187.039 82.6523 187.522 82.6523C188.443 82.6523 189.159 83.001 189.669 83.6982C190.184 84.391 190.441 85.3548 190.441 86.5898ZM189.115 86.624C189.115 85.7035 188.958 85.0153 188.644 84.5596C188.329 84.1038 187.846 83.876 187.194 83.876C186.825 83.876 186.454 83.9557 186.08 84.1152C185.706 84.2747 185.349 84.4844 185.007 84.7441V89.0713C185.371 89.2354 185.684 89.347 185.943 89.4062C186.208 89.4655 186.506 89.4951 186.839 89.4951C187.554 89.4951 188.113 89.2536 188.514 88.7705C188.915 88.2874 189.115 87.5719 189.115 86.624ZM198.057 83.9922H195.295V90.5H194.01V83.9922H191.248V82.8643H198.057V83.9922ZM205.993 82.8643L201.536 93.3164H200.162L201.584 90.1309L198.542 82.8643H199.937L202.281 88.5244L204.646 82.8643H205.993Z" fill="#333333"/>
<path d="M5 123L12.5 130.5L25 115.5" stroke="#61B857" stroke-width="2" stroke-linecap="round" stroke-linejoin="round"/>
<path d="M47.2285 127.762C46.9779 127.871 46.75 127.974 46.5449 128.069C46.3444 128.165 46.0801 128.265 45.752 128.37C45.474 128.457 45.1709 128.53 44.8428 128.589C44.5192 128.653 44.1615 128.685 43.7695 128.685C43.0312 128.685 42.359 128.582 41.7529 128.377C41.1514 128.167 40.6273 127.841 40.1807 127.399C39.7432 126.966 39.4014 126.417 39.1553 125.752C38.9092 125.082 38.7861 124.305 38.7861 123.421C38.7861 122.582 38.9046 121.833 39.1416 121.172C39.3786 120.511 39.7204 119.953 40.167 119.497C40.5999 119.055 41.1217 118.718 41.7324 118.485C42.3477 118.253 43.029 118.137 43.7764 118.137C44.3232 118.137 44.8678 118.203 45.4102 118.335C45.957 118.467 46.5632 118.7 47.2285 119.032V120.639H47.126C46.5654 120.169 46.0094 119.827 45.458 119.613C44.9066 119.399 44.3164 119.292 43.6875 119.292C43.1725 119.292 42.7077 119.376 42.293 119.545C41.8828 119.709 41.516 119.966 41.1924 120.317C40.8779 120.659 40.6318 121.092 40.4541 121.616C40.2809 122.136 40.1943 122.737 40.1943 123.421C40.1943 124.136 40.29 124.752 40.4814 125.267C40.6774 125.782 40.9281 126.201 41.2334 126.524C41.5524 126.862 41.9238 127.112 42.3477 127.276C42.776 127.436 43.2272 127.516 43.7012 127.516C44.3529 127.516 44.9635 127.404 45.5332 127.181C46.1029 126.957 46.6361 126.622 47.1328 126.176H47.2285V127.762ZM55.4316 124.815H49.8057C49.8057 125.285 49.8763 125.695 50.0176 126.046C50.1589 126.392 50.3525 126.677 50.5986 126.9C50.8356 127.119 51.1159 127.283 51.4395 127.393C51.7676 127.502 52.1276 127.557 52.5195 127.557C53.0391 127.557 53.5609 127.454 54.085 127.249C54.6136 127.039 54.9896 126.834 55.2129 126.634H55.2812V128.035C54.8483 128.217 54.4062 128.37 53.9551 128.493C53.5039 128.616 53.0299 128.678 52.5332 128.678C51.2663 128.678 50.2773 128.336 49.5664 127.652C48.8555 126.964 48.5 125.989 48.5 124.727C48.5 123.478 48.8395 122.487 49.5186 121.753C50.2021 121.019 51.0999 120.652 52.2119 120.652C53.2419 120.652 54.0348 120.953 54.5908 121.555C55.1514 122.156 55.4316 123.011 55.4316 124.118V124.815ZM54.1807 123.831C54.1761 123.157 54.0052 122.635 53.668 122.266C53.3353 121.896 52.8271 121.712 52.1436 121.712C51.4554 121.712 50.9062 121.915 50.4961 122.32C50.0905 122.726 49.8604 123.229 49.8057 123.831H54.1807ZM64.0996 124.59C64.0996 125.21 64.0107 125.777 63.833 126.292C63.6553 126.802 63.4046 127.235 63.0811 127.591C62.7803 127.928 62.4248 128.19 62.0146 128.377C61.609 128.559 61.1784 128.65 60.7227 128.65C60.3262 128.65 59.9661 128.607 59.6426 128.521C59.3236 128.434 58.9977 128.299 58.665 128.117V131.316H57.3799V120.864H58.665V121.664C59.0068 121.377 59.3896 121.138 59.8135 120.946C60.2419 120.75 60.6976 120.652 61.1807 120.652C62.1012 120.652 62.8167 121.001 63.3271 121.698C63.8421 122.391 64.0996 123.355 64.0996 124.59ZM62.7734 124.624C62.7734 123.703 62.6162 123.015 62.3018 122.56C61.9873 122.104 61.5042 121.876 60.8525 121.876C60.4834 121.876 60.112 121.956 59.7383 122.115C59.3646 122.275 59.0068 122.484 58.665 122.744V127.071C59.0296 127.235 59.3418 127.347 59.6016 127.406C59.8659 127.465 60.1644 127.495 60.4971 127.495C61.2126 127.495 61.7708 127.254 62.1719 126.771C62.5729 126.287 62.7734 125.572 62.7734 124.624ZM71.7148 121.992H68.9531V128.5H67.668V121.992H64.9062V120.864H71.7148V121.992ZM79.4805 128.5H78.209V122.765L74.21 128.5H73.0479V120.864H74.3193V126.518L78.2773 120.864H79.4805V128.5ZM91.7646 124.48C91.7646 125.16 91.6781 125.761 91.5049 126.285C91.3317 126.805 91.1016 127.233 90.8145 127.57C90.5319 127.908 90.2061 128.165 89.8369 128.343C89.4678 128.521 89.0804 128.609 88.6748 128.609C88.3695 128.609 88.1029 128.557 87.875 128.452C87.6517 128.347 87.4512 128.252 87.2734 128.165V131.316H86.002V128.165C85.724 128.302 85.4938 128.411 85.3115 128.493C85.1338 128.571 84.8535 128.609 84.4707 128.609C83.5911 128.609 82.8779 128.265 82.3311 127.577C81.7842 126.889 81.5107 125.932 81.5107 124.706C81.5107 124.063 81.5996 123.492 81.7773 122.99C81.9551 122.484 82.1875 122.061 82.4746 121.719C82.7526 121.386 83.0785 121.133 83.4521 120.96C83.8304 120.782 84.2064 120.693 84.5801 120.693C84.8535 120.693 85.1019 120.737 85.3252 120.823C85.5531 120.905 85.7786 121.015 86.002 121.151V117.863H87.2734V121.151C87.4831 121.028 87.7292 120.921 88.0117 120.83C88.2943 120.739 88.5791 120.693 88.8662 120.693C89.7686 120.693 90.4772 121.035 90.9922 121.719C91.5072 122.398 91.7646 123.318 91.7646 124.48ZM90.4453 124.624C90.4453 123.754 90.2904 123.065 89.9805 122.56C89.6706 122.054 89.2057 121.801 88.5859 121.801C88.3353 121.801 88.1257 121.821 87.957 121.862C87.7884 121.903 87.5605 121.981 87.2734 122.095V127.188C87.4876 127.288 87.6654 127.368 87.8066 127.427C87.9525 127.481 88.1576 127.509 88.4219 127.509C89.0645 127.509 89.5612 127.263 89.9121 126.771C90.2676 126.274 90.4453 125.558 90.4453 124.624ZM86.002 127.188V122.095C85.8242 122.013 85.6442 121.944 85.4619 121.89C85.2796 121.83 85.0768 121.801 84.8535 121.801C84.2383 121.801 83.7461 122.035 83.377 122.505C83.0124 122.974 82.8301 123.688 82.8301 124.645C82.8301 125.533 82.9919 126.233 83.3154 126.743C83.6436 127.254 84.1152 127.509 84.7305 127.509C84.972 127.509 85.1953 127.477 85.4004 127.413C85.61 127.345 85.8105 127.27 86.002 127.188ZM100.221 128.5H98.9492V122.765L94.9502 128.5H93.7881V120.864H95.0596V126.518L99.0176 120.864H100.221V128.5ZM109.647 128.5H107.966L104.794 125H104.097V128.5H102.812V120.864H104.097V124.159C104.521 124.159 104.862 124.084 105.122 123.934C105.382 123.779 105.603 123.533 105.785 123.195C105.849 123.072 105.91 122.942 105.97 122.806C106.034 122.664 106.095 122.53 106.154 122.402C106.391 121.887 106.688 121.502 107.043 121.247C107.398 120.992 107.909 120.864 108.574 120.864H109.162V121.972H108.595C108.235 121.972 107.952 122.049 107.747 122.204C107.547 122.354 107.364 122.621 107.2 123.004C107.018 123.432 106.824 123.754 106.619 123.968C106.419 124.177 106.204 124.337 105.977 124.446L109.647 128.5ZM116.976 128.5H115.697V127.687C115.583 127.764 115.428 127.873 115.232 128.015C115.041 128.151 114.854 128.261 114.672 128.343C114.458 128.448 114.212 128.534 113.934 128.603C113.656 128.675 113.33 128.712 112.956 128.712C112.268 128.712 111.685 128.484 111.206 128.028C110.728 127.573 110.488 126.992 110.488 126.285C110.488 125.706 110.611 125.239 110.857 124.884C111.108 124.524 111.464 124.241 111.924 124.036C112.389 123.831 112.947 123.692 113.599 123.619C114.25 123.546 114.95 123.492 115.697 123.455V123.257C115.697 122.965 115.645 122.724 115.54 122.532C115.44 122.341 115.294 122.19 115.103 122.081C114.92 121.976 114.701 121.906 114.446 121.869C114.191 121.833 113.924 121.814 113.646 121.814C113.309 121.814 112.933 121.86 112.519 121.951C112.104 122.038 111.675 122.165 111.233 122.334H111.165V121.028C111.416 120.96 111.778 120.885 112.252 120.803C112.726 120.721 113.193 120.68 113.653 120.68C114.191 120.68 114.658 120.725 115.055 120.816C115.456 120.903 115.802 121.053 116.094 121.268C116.381 121.477 116.6 121.748 116.75 122.081C116.9 122.414 116.976 122.826 116.976 123.318V128.5ZM115.697 126.62V124.494C115.305 124.517 114.843 124.551 114.31 124.597C113.781 124.642 113.362 124.708 113.052 124.795C112.683 124.9 112.384 125.064 112.156 125.287C111.928 125.506 111.814 125.809 111.814 126.196C111.814 126.634 111.947 126.964 112.211 127.188C112.475 127.406 112.879 127.516 113.421 127.516C113.872 127.516 114.285 127.429 114.658 127.256C115.032 127.078 115.378 126.866 115.697 126.62ZM125.507 128.5H119.45V120.864H120.735V127.393H124.495V120.864H125.78V127.393H126.703V130.332H125.507V128.5ZM134.906 128.5H133.635V122.765L129.636 128.5H128.474V120.864H129.745V126.518L133.703 120.864H134.906V128.5ZM143.308 128.5H142.022V125.472H140.512L138.146 128.5H136.636L139.206 125.349C138.545 125.166 138.062 124.888 137.757 124.515C137.451 124.136 137.299 123.642 137.299 123.031C137.299 122.626 137.39 122.282 137.572 121.999C137.755 121.716 137.985 121.486 138.263 121.309C138.536 121.135 138.851 121.019 139.206 120.96C139.562 120.896 139.949 120.864 140.368 120.864H143.308V128.5ZM142.022 124.46V121.89H140.402C140.051 121.89 139.799 121.901 139.644 121.924C139.489 121.947 139.32 122.008 139.138 122.108C138.96 122.209 138.828 122.345 138.741 122.519C138.659 122.687 138.618 122.872 138.618 123.072C138.618 123.323 138.643 123.526 138.693 123.681C138.748 123.836 138.857 123.981 139.021 124.118C139.19 124.25 139.395 124.341 139.637 124.392C139.878 124.437 140.147 124.46 140.443 124.46H142.022Z" fill="#333333"/>
<path d="M5 161L12.5 168.5L25 153.5" stroke="#61B857" stroke-width="2" stroke-linecap="round" stroke-linejoin="round"/>
<path d="M46.9551 157.49C47.3698 157.946 47.6865 158.504 47.9053 159.165C48.1286 159.826 48.2402 160.576 48.2402 161.414C48.2402 162.253 48.1263 163.005 47.8984 163.67C47.6751 164.331 47.3607 164.882 46.9551 165.324C46.5358 165.785 46.0391 166.131 45.4648 166.363C44.8952 166.596 44.2435 166.712 43.5098 166.712C42.7943 166.712 42.1426 166.593 41.5547 166.356C40.9714 166.119 40.4746 165.775 40.0645 165.324C39.6543 164.873 39.3376 164.319 39.1143 163.663C38.8955 163.007 38.7861 162.257 38.7861 161.414C38.7861 160.585 38.8955 159.842 39.1143 159.186C39.333 158.525 39.652 157.96 40.0713 157.49C40.4723 157.044 40.9691 156.702 41.5615 156.465C42.1585 156.228 42.8079 156.109 43.5098 156.109C44.2389 156.109 44.8929 156.23 45.4717 156.472C46.055 156.709 46.5495 157.048 46.9551 157.49ZM46.832 161.414C46.832 160.092 46.5358 159.074 45.9434 158.358C45.3509 157.638 44.542 157.278 43.5166 157.278C42.4821 157.278 41.6686 157.638 41.0762 158.358C40.4883 159.074 40.1943 160.092 40.1943 161.414C40.1943 162.749 40.4951 163.772 41.0967 164.483C41.6982 165.19 42.5049 165.543 43.5166 165.543C44.5283 165.543 45.3327 165.19 45.9297 164.483C46.5312 163.772 46.832 162.749 46.832 161.414ZM55.8965 159.992H53.1348V166.5H51.8496V159.992H49.0879V158.864H55.8965V159.992ZM64.1611 168.332H62.9648V166.479H57.2227V168.332H56.0264V165.406H56.8535C57.3867 164.527 57.7832 163.513 58.043 162.364C58.3073 161.211 58.4395 160.045 58.4395 158.864H63.2383V165.406H64.1611V168.332ZM61.9531 165.406V159.944H59.6494C59.5902 161.088 59.4147 162.132 59.123 163.075C58.8314 164.019 58.4964 164.796 58.1182 165.406H61.9531ZM72.3301 162.815H66.7041C66.7041 163.285 66.7747 163.695 66.916 164.046C67.0573 164.392 67.251 164.677 67.4971 164.9C67.734 165.119 68.0143 165.283 68.3379 165.393C68.666 165.502 69.026 165.557 69.418 165.557C69.9375 165.557 70.4593 165.454 70.9834 165.249C71.512 165.039 71.888 164.834 72.1113 164.634H72.1797V166.035C71.7467 166.217 71.3047 166.37 70.8535 166.493C70.4023 166.616 69.9284 166.678 69.4316 166.678C68.1647 166.678 67.1758 166.336 66.4648 165.652C65.7539 164.964 65.3984 163.989 65.3984 162.727C65.3984 161.478 65.738 160.487 66.417 159.753C67.1006 159.019 67.9984 158.652 69.1104 158.652C70.1403 158.652 70.9333 158.953 71.4893 159.555C72.0498 160.156 72.3301 161.011 72.3301 162.118V162.815ZM71.0791 161.831C71.0745 161.157 70.9036 160.635 70.5664 160.266C70.2337 159.896 69.7256 159.712 69.042 159.712C68.3538 159.712 67.8047 159.915 67.3945 160.32C66.9889 160.726 66.7588 161.229 66.7041 161.831H71.0791ZM80.4375 166.5H79.1523V159.944H76.3018C76.2881 160.323 76.2744 160.687 76.2607 161.038C76.2471 161.389 76.2334 161.706 76.2197 161.988C76.1878 162.749 76.1354 163.358 76.0625 163.813C75.9896 164.265 75.8939 164.641 75.7754 164.941C75.666 165.224 75.543 165.454 75.4062 165.632C75.2741 165.805 75.1305 165.962 74.9756 166.104C74.8206 166.24 74.6475 166.343 74.4561 166.411C74.2692 166.479 74.0641 166.514 73.8408 166.514C73.7633 166.514 73.6494 166.511 73.499 166.507C73.3532 166.502 73.2575 166.5 73.2119 166.5V165.379H73.2803C73.3167 165.379 73.3691 165.381 73.4375 165.386C73.5059 165.39 73.5628 165.393 73.6084 165.393C73.7178 165.393 73.8294 165.377 73.9434 165.345C74.0618 165.313 74.1621 165.254 74.2441 165.167C74.4766 164.939 74.6634 164.554 74.8047 164.012C74.946 163.469 75.0394 162.686 75.085 161.66C75.1032 161.286 75.1191 160.844 75.1328 160.334C75.151 159.819 75.167 159.329 75.1807 158.864H80.4375V166.5ZM95.7842 166.5H94.4307V157.524H89.3516V166.5H87.998V156.321H95.7842V166.5ZM105.143 162.59C105.143 163.21 105.054 163.777 104.876 164.292C104.698 164.802 104.448 165.235 104.124 165.591C103.823 165.928 103.468 166.19 103.058 166.377C102.652 166.559 102.221 166.65 101.766 166.65C101.369 166.65 101.009 166.607 100.686 166.521C100.367 166.434 100.041 166.299 99.708 166.117V169.316H98.4229V158.864H99.708V159.664C100.05 159.377 100.433 159.138 100.856 158.946C101.285 158.75 101.741 158.652 102.224 158.652C103.144 158.652 103.86 159.001 104.37 159.698C104.885 160.391 105.143 161.355 105.143 162.59ZM103.816 162.624C103.816 161.703 103.659 161.015 103.345 160.56C103.03 160.104 102.547 159.876 101.896 159.876C101.526 159.876 101.155 159.956 100.781 160.115C100.408 160.275 100.05 160.484 99.708 160.744V165.071C100.073 165.235 100.385 165.347 100.645 165.406C100.909 165.465 101.207 165.495 101.54 165.495C102.256 165.495 102.814 165.254 103.215 164.771C103.616 164.287 103.816 163.572 103.816 162.624ZM113.653 162.686C113.653 163.93 113.334 164.912 112.696 165.632C112.058 166.352 111.204 166.712 110.133 166.712C109.053 166.712 108.194 166.352 107.556 165.632C106.922 164.912 106.605 163.93 106.605 162.686C106.605 161.441 106.922 160.459 107.556 159.739C108.194 159.015 109.053 158.652 110.133 158.652C111.204 158.652 112.058 159.015 112.696 159.739C113.334 160.459 113.653 161.441 113.653 162.686ZM112.327 162.686C112.327 161.697 112.133 160.963 111.746 160.484C111.359 160.001 110.821 159.76 110.133 159.76C109.436 159.76 108.893 160.001 108.506 160.484C108.123 160.963 107.932 161.697 107.932 162.686C107.932 163.643 108.125 164.369 108.513 164.866C108.9 165.358 109.44 165.604 110.133 165.604C110.816 165.604 111.352 165.361 111.739 164.873C112.131 164.381 112.327 163.652 112.327 162.686ZM122.581 168.332H121.385V166.479H115.643V168.332H114.446V165.406H115.273C115.807 164.527 116.203 163.513 116.463 162.364C116.727 161.211 116.859 160.045 116.859 158.864H121.658V165.406H122.581V168.332ZM120.373 165.406V159.944H118.069C118.01 161.088 117.835 162.132 117.543 163.075C117.251 164.019 116.916 164.796 116.538 165.406H120.373ZM130.292 166.5H129.014V165.687C128.9 165.764 128.745 165.873 128.549 166.015C128.357 166.151 128.171 166.261 127.988 166.343C127.774 166.448 127.528 166.534 127.25 166.603C126.972 166.675 126.646 166.712 126.272 166.712C125.584 166.712 125.001 166.484 124.522 166.028C124.044 165.573 123.805 164.992 123.805 164.285C123.805 163.706 123.928 163.239 124.174 162.884C124.424 162.524 124.78 162.241 125.24 162.036C125.705 161.831 126.263 161.692 126.915 161.619C127.567 161.546 128.266 161.492 129.014 161.455V161.257C129.014 160.965 128.961 160.724 128.856 160.532C128.756 160.341 128.61 160.19 128.419 160.081C128.237 159.976 128.018 159.906 127.763 159.869C127.507 159.833 127.241 159.814 126.963 159.814C126.626 159.814 126.25 159.86 125.835 159.951C125.42 160.038 124.992 160.165 124.55 160.334H124.481V159.028C124.732 158.96 125.094 158.885 125.568 158.803C126.042 158.721 126.509 158.68 126.97 158.68C127.507 158.68 127.975 158.725 128.371 158.816C128.772 158.903 129.118 159.053 129.41 159.268C129.697 159.477 129.916 159.748 130.066 160.081C130.217 160.414 130.292 160.826 130.292 161.318V166.5ZM129.014 164.62V162.494C128.622 162.517 128.159 162.551 127.626 162.597C127.097 162.642 126.678 162.708 126.368 162.795C125.999 162.9 125.701 163.064 125.473 163.287C125.245 163.506 125.131 163.809 125.131 164.196C125.131 164.634 125.263 164.964 125.527 165.188C125.792 165.406 126.195 165.516 126.737 165.516C127.188 165.516 127.601 165.429 127.975 165.256C128.348 165.078 128.695 164.866 129.014 164.62ZM142.344 166.5H140.792L138.345 163.014H137.723V166.5H136.451V163.014H135.897L133.341 166.5H131.857L134.804 162.501C134.58 162.382 134.382 162.214 134.209 161.995C134.04 161.776 133.885 161.446 133.744 161.004C133.621 160.617 133.475 160.348 133.307 160.197C133.138 160.047 132.862 159.972 132.479 159.972H132.117V158.864H132.589C133.154 158.864 133.607 158.978 133.949 159.206C134.291 159.434 134.564 159.833 134.77 160.402C134.811 160.521 134.861 160.658 134.92 160.812C134.984 160.963 135.038 161.09 135.084 161.195C135.234 161.542 135.426 161.788 135.658 161.934C135.895 162.075 136.16 162.155 136.451 162.173V158.864H137.723V162.173C138.014 162.155 138.279 162.073 138.516 161.927C138.757 161.781 138.953 161.537 139.104 161.195C139.154 161.081 139.208 160.949 139.268 160.799C139.331 160.648 139.382 160.516 139.418 160.402C139.618 159.842 139.887 159.445 140.225 159.213C140.562 158.98 141.015 158.864 141.585 158.864H142.057V159.972H141.694C141.307 159.972 141.027 160.051 140.854 160.211C140.685 160.37 140.544 160.635 140.43 161.004C140.302 161.41 140.149 161.726 139.972 161.954C139.799 162.177 139.609 162.346 139.404 162.46L142.344 166.5Z" fill="#333333"/>
<path d="M5 199L12.5 206.5L25 191.5" stroke="#61B857" stroke-width="2" stroke-linecap="round" stroke-linejoin="round"/>
<path d="M50.2842 192.914C50.2842 191.565 49.9902 190.54 49.4023 189.838C48.819 189.132 48.0283 188.778 47.0303 188.778C46.0231 188.778 45.2256 189.129 44.6377 189.831C44.0498 190.533 43.7559 191.561 43.7559 192.914C43.7559 194.249 44.0498 195.272 44.6377 195.983C45.2301 196.69 46.0277 197.043 47.0303 197.043C48.0283 197.043 48.819 196.69 49.4023 195.983C49.9902 195.277 50.2842 194.254 50.2842 192.914ZM42.3613 193.078H40.7207V198H39.3672V187.821H40.7207V191.896H42.4229C42.5869 190.524 43.0814 189.466 43.9062 188.724C44.7311 187.981 45.7702 187.609 47.0234 187.609C48.4772 187.609 49.6188 188.081 50.4482 189.024C51.2777 189.963 51.6924 191.26 51.6924 192.914C51.6924 194.577 51.2731 195.876 50.4346 196.811C49.596 197.745 48.459 198.212 47.0234 198.212C45.6198 198.212 44.4987 197.765 43.6602 196.872C42.8262 195.974 42.3932 194.71 42.3613 193.078ZM60.4629 194.09C60.4629 194.71 60.374 195.277 60.1963 195.792C60.0186 196.302 59.7679 196.735 59.4443 197.091C59.1436 197.428 58.7881 197.69 58.3779 197.877C57.9723 198.059 57.5417 198.15 57.0859 198.15C56.6895 198.15 56.3294 198.107 56.0059 198.021C55.6868 197.934 55.361 197.799 55.0283 197.617V200.816H53.7432V190.364H55.0283V191.164C55.3701 190.877 55.7529 190.638 56.1768 190.446C56.6051 190.25 57.0609 190.152 57.5439 190.152C58.4645 190.152 59.18 190.501 59.6904 191.198C60.2054 191.891 60.4629 192.855 60.4629 194.09ZM59.1367 194.124C59.1367 193.203 58.9795 192.515 58.665 192.06C58.3506 191.604 57.8675 191.376 57.2158 191.376C56.8467 191.376 56.4753 191.456 56.1016 191.615C55.7279 191.775 55.3701 191.984 55.0283 192.244V196.571C55.3929 196.735 55.7051 196.847 55.9648 196.906C56.2292 196.965 56.5277 196.995 56.8604 196.995C57.5758 196.995 58.1341 196.754 58.5352 196.271C58.9362 195.787 59.1367 195.072 59.1367 194.124ZM68.8984 198H67.627V192.265L63.6279 198H62.4658V190.364H63.7373V196.018L67.6953 190.364H68.8984V198ZM78.3662 199.832H77.1699V197.979H71.4277V199.832H70.2314V196.906H71.0586C71.5918 196.027 71.9883 195.013 72.248 193.864C72.5124 192.711 72.6445 191.545 72.6445 190.364H77.4434V196.906H78.3662V199.832ZM76.1582 196.906V191.444H73.8545C73.7952 192.588 73.6198 193.632 73.3281 194.575C73.0365 195.519 72.7015 196.296 72.3232 196.906H76.1582ZM86.5762 198H85.3047V192.265L81.3057 198H80.1436V190.364H81.415V196.018L85.373 190.364H86.5762V198ZM95.0596 198H93.7744V195.067C93.3597 195.195 92.9632 195.298 92.585 195.375C92.2067 195.452 91.7943 195.491 91.3477 195.491C90.5273 195.491 89.9007 195.291 89.4678 194.89C89.0348 194.484 88.8184 193.901 88.8184 193.14V190.364H90.1035V192.483C90.1035 192.775 90.1217 193.037 90.1582 193.27C90.1947 193.497 90.2721 193.696 90.3906 193.864C90.5091 194.028 90.6755 194.154 90.8896 194.24C91.1038 194.327 91.4023 194.37 91.7852 194.37C92.0996 194.37 92.4414 194.34 92.8105 194.281C93.1797 194.217 93.501 194.145 93.7744 194.062V190.364H95.0596V198ZM103.98 194.315H98.3545C98.3545 194.785 98.4251 195.195 98.5664 195.546C98.7077 195.892 98.9014 196.177 99.1475 196.4C99.3844 196.619 99.6647 196.783 99.9883 196.893C100.316 197.002 100.676 197.057 101.068 197.057C101.588 197.057 102.11 196.954 102.634 196.749C103.162 196.539 103.538 196.334 103.762 196.134H103.83V197.535C103.397 197.717 102.955 197.87 102.504 197.993C102.053 198.116 101.579 198.178 101.082 198.178C99.8151 198.178 98.8262 197.836 98.1152 197.152C97.4043 196.464 97.0488 195.489 97.0488 194.227C97.0488 192.978 97.3883 191.987 98.0674 191.253C98.751 190.519 99.6488 190.152 100.761 190.152C101.791 190.152 102.584 190.453 103.14 191.055C103.7 191.656 103.98 192.511 103.98 193.618V194.315ZM102.729 193.331C102.725 192.657 102.554 192.135 102.217 191.766C101.884 191.396 101.376 191.212 100.692 191.212C100.004 191.212 99.4551 191.415 99.0449 191.82C98.6393 192.226 98.4092 192.729 98.3545 193.331H102.729ZM111.644 197.521C111.119 197.768 110.668 197.936 110.29 198.027C109.916 198.123 109.543 198.171 109.169 198.171C108.613 198.171 108.103 198.091 107.638 197.932C107.173 197.768 106.774 197.521 106.441 197.193C106.109 196.865 105.849 196.451 105.662 195.949C105.48 195.448 105.389 194.862 105.389 194.192C105.389 192.976 105.726 192.005 106.4 191.28C107.075 190.551 107.998 190.187 109.169 190.187C109.611 190.187 110.044 190.248 110.468 190.371C110.896 190.494 111.288 190.645 111.644 190.822V192.251H111.568C111.145 191.927 110.725 191.688 110.311 191.533C109.9 191.378 109.502 191.301 109.114 191.301C108.353 191.301 107.763 191.556 107.344 192.066C106.929 192.577 106.722 193.285 106.722 194.192C106.722 195.099 106.929 195.803 107.344 196.305C107.758 196.806 108.349 197.057 109.114 197.057C109.383 197.057 109.65 197.022 109.914 196.954C110.183 196.886 110.427 196.797 110.646 196.688C110.819 196.601 110.996 196.498 111.179 196.38C111.366 196.257 111.495 196.166 111.568 196.106H111.644V197.521ZM120.298 198H118.616L115.444 194.5H114.747V198H113.462V190.364H114.747V193.659C115.171 193.659 115.513 193.584 115.772 193.434C116.032 193.279 116.253 193.033 116.436 192.695C116.499 192.572 116.561 192.442 116.62 192.306C116.684 192.164 116.745 192.03 116.805 191.902C117.042 191.387 117.338 191.002 117.693 190.747C118.049 190.492 118.559 190.364 119.225 190.364H119.812V191.472H119.245C118.885 191.472 118.603 191.549 118.397 191.704C118.197 191.854 118.015 192.121 117.851 192.504C117.668 192.932 117.475 193.254 117.27 193.468C117.069 193.677 116.855 193.837 116.627 193.946L120.298 198ZM128.2 194.186C128.2 195.43 127.881 196.412 127.243 197.132C126.605 197.852 125.751 198.212 124.68 198.212C123.6 198.212 122.741 197.852 122.103 197.132C121.469 196.412 121.152 195.43 121.152 194.186C121.152 192.941 121.469 191.959 122.103 191.239C122.741 190.515 123.6 190.152 124.68 190.152C125.751 190.152 126.605 190.515 127.243 191.239C127.881 191.959 128.2 192.941 128.2 194.186ZM126.874 194.186C126.874 193.197 126.68 192.463 126.293 191.984C125.906 191.501 125.368 191.26 124.68 191.26C123.982 191.26 123.44 191.501 123.053 191.984C122.67 192.463 122.479 193.197 122.479 194.186C122.479 195.143 122.672 195.869 123.06 196.366C123.447 196.858 123.987 197.104 124.68 197.104C125.363 197.104 125.899 196.861 126.286 196.373C126.678 195.881 126.874 195.152 126.874 194.186ZM136.588 194.315H130.962C130.962 194.785 131.033 195.195 131.174 195.546C131.315 195.892 131.509 196.177 131.755 196.4C131.992 196.619 132.272 196.783 132.596 196.893C132.924 197.002 133.284 197.057 133.676 197.057C134.195 197.057 134.717 196.954 135.241 196.749C135.77 196.539 136.146 196.334 136.369 196.134H136.438V197.535C136.005 197.717 135.562 197.87 135.111 197.993C134.66 198.116 134.186 198.178 133.689 198.178C132.423 198.178 131.434 197.836 130.723 197.152C130.012 196.464 129.656 195.489 129.656 194.227C129.656 192.978 129.996 191.987 130.675 191.253C131.358 190.519 132.256 190.152 133.368 190.152C134.398 190.152 135.191 190.453 135.747 191.055C136.308 191.656 136.588 192.511 136.588 193.618V194.315ZM135.337 193.331C135.332 192.657 135.161 192.135 134.824 191.766C134.492 191.396 133.983 191.212 133.3 191.212C132.612 191.212 132.062 191.415 131.652 191.82C131.247 192.226 131.017 192.729 130.962 193.331H135.337ZM47.2285 214.262C46.9779 214.371 46.75 214.474 46.5449 214.569C46.3444 214.665 46.0801 214.765 45.752 214.87C45.474 214.957 45.1709 215.03 44.8428 215.089C44.5192 215.153 44.1615 215.185 43.7695 215.185C43.0312 215.185 42.359 215.082 41.7529 214.877C41.1514 214.667 40.6273 214.341 40.1807 213.899C39.7432 213.466 39.4014 212.917 39.1553 212.252C38.9092 211.582 38.7861 210.805 38.7861 209.921C38.7861 209.082 38.9046 208.333 39.1416 207.672C39.3786 207.011 39.7204 206.453 40.167 205.997C40.5999 205.555 41.1217 205.218 41.7324 204.985C42.3477 204.753 43.029 204.637 43.7764 204.637C44.3232 204.637 44.8678 204.703 45.4102 204.835C45.957 204.967 46.5632 205.2 47.2285 205.532V207.139H47.126C46.5654 206.669 46.0094 206.327 45.458 206.113C44.9066 205.899 44.3164 205.792 43.6875 205.792C43.1725 205.792 42.7077 205.876 42.293 206.045C41.8828 206.209 41.516 206.466 41.1924 206.817C40.8779 207.159 40.6318 207.592 40.4541 208.116C40.2809 208.636 40.1943 209.237 40.1943 209.921C40.1943 210.636 40.29 211.252 40.4814 211.767C40.6774 212.282 40.9281 212.701 41.2334 213.024C41.5524 213.362 41.9238 213.612 42.3477 213.776C42.776 213.936 43.2272 214.016 43.7012 214.016C44.3529 214.016 44.9635 213.904 45.5332 213.681C46.1029 213.457 46.6361 213.122 47.1328 212.676H47.2285V214.262ZM55.5479 211.186C55.5479 212.43 55.2288 213.412 54.5908 214.132C53.9528 214.852 53.0983 215.212 52.0273 215.212C50.9473 215.212 50.0882 214.852 49.4502 214.132C48.8167 213.412 48.5 212.43 48.5 211.186C48.5 209.941 48.8167 208.959 49.4502 208.239C50.0882 207.515 50.9473 207.152 52.0273 207.152C53.0983 207.152 53.9528 207.515 54.5908 208.239C55.2288 208.959 55.5479 209.941 55.5479 211.186ZM54.2217 211.186C54.2217 210.197 54.028 209.463 53.6406 208.984C53.2533 208.501 52.7155 208.26 52.0273 208.26C51.3301 208.26 50.7878 208.501 50.4004 208.984C50.0176 209.463 49.8262 210.197 49.8262 211.186C49.8262 212.143 50.0199 212.869 50.4072 213.366C50.7946 213.858 51.3346 214.104 52.0273 214.104C52.7109 214.104 53.2464 213.861 53.6338 213.373C54.0257 212.881 54.2217 212.152 54.2217 211.186ZM63.9355 215H62.6504V208.472H58.8291V215H57.5439V207.364H63.9355V215ZM73.1914 211.09C73.1914 211.71 73.1025 212.277 72.9248 212.792C72.7471 213.302 72.4964 213.735 72.1729 214.091C71.8721 214.428 71.5166 214.69 71.1064 214.877C70.7008 215.059 70.2702 215.15 69.8145 215.15C69.418 215.15 69.0579 215.107 68.7344 215.021C68.4154 214.934 68.0895 214.799 67.7568 214.617V217.816H66.4717V207.364H67.7568V208.164C68.0986 207.877 68.4814 207.638 68.9053 207.446C69.3337 207.25 69.7894 207.152 70.2725 207.152C71.193 207.152 71.9085 207.501 72.4189 208.198C72.9339 208.891 73.1914 209.855 73.1914 211.09ZM71.8652 211.124C71.8652 210.203 71.708 209.515 71.3936 209.06C71.0791 208.604 70.596 208.376 69.9443 208.376C69.5752 208.376 69.2038 208.456 68.8301 208.615C68.4564 208.775 68.0986 208.984 67.7568 209.244V213.571C68.1214 213.735 68.4336 213.847 68.6934 213.906C68.9577 213.965 69.2562 213.995 69.5889 213.995C70.3044 213.995 70.8626 213.754 71.2637 213.271C71.6647 212.787 71.8652 212.072 71.8652 211.124ZM81.7021 211.186C81.7021 212.43 81.3831 213.412 80.7451 214.132C80.1071 214.852 79.2526 215.212 78.1816 215.212C77.1016 215.212 76.2425 214.852 75.6045 214.132C74.971 213.412 74.6543 212.43 74.6543 211.186C74.6543 209.941 74.971 208.959 75.6045 208.239C76.2425 207.515 77.1016 207.152 78.1816 207.152C79.2526 207.152 80.1071 207.515 80.7451 208.239C81.3831 208.959 81.7021 209.941 81.7021 211.186ZM80.376 211.186C80.376 210.197 80.1823 209.463 79.7949 208.984C79.4076 208.501 78.8698 208.26 78.1816 208.26C77.4844 208.26 76.9421 208.501 76.5547 208.984C76.1719 209.463 75.9805 210.197 75.9805 211.186C75.9805 212.143 76.1742 212.869 76.5615 213.366C76.9489 213.858 77.4889 214.104 78.1816 214.104C78.8652 214.104 79.4007 213.861 79.7881 213.373C80.18 212.881 80.376 212.152 80.376 211.186ZM90.001 212.689C90.001 213.059 89.9258 213.387 89.7754 213.674C89.6296 213.961 89.4268 214.2 89.167 214.392C88.8753 214.606 88.5563 214.761 88.21 214.856C87.8682 214.952 87.417 215 86.8564 215H83.6982V207.364H86.6514C87.221 207.364 87.6494 207.385 87.9365 207.426C88.2282 207.462 88.5016 207.547 88.7568 207.679C89.0439 207.829 89.2536 208.025 89.3857 208.267C89.5225 208.508 89.5908 208.793 89.5908 209.121C89.5908 209.499 89.4837 209.827 89.2695 210.105C89.0553 210.383 88.7796 210.6 88.4424 210.755V210.823C88.8936 210.933 89.265 211.145 89.5566 211.459C89.8529 211.769 90.001 212.179 90.001 212.689ZM88.2715 209.319C88.2715 209.155 88.235 209.007 88.1621 208.875C88.0938 208.743 87.9867 208.64 87.8408 208.567C87.6494 208.472 87.4329 208.419 87.1914 208.41C86.9544 208.396 86.6605 208.39 86.3096 208.39H84.9697V210.481H86.5762C86.9134 210.481 87.1618 210.47 87.3213 210.447C87.4854 210.42 87.6494 210.356 87.8135 210.256C87.9867 210.146 88.1051 210.019 88.1689 209.873C88.2373 209.723 88.2715 209.538 88.2715 209.319ZM88.6748 212.696C88.6748 212.446 88.6338 212.243 88.5518 212.088C88.4697 211.928 88.2897 211.783 88.0117 211.65C87.8385 211.568 87.6517 211.521 87.4512 211.507C87.2507 211.489 86.9727 211.479 86.6172 211.479H84.9697V213.975H86.1865C86.6969 213.975 87.0889 213.959 87.3623 213.927C87.6403 213.89 87.8796 213.815 88.0801 213.701C88.2806 213.587 88.4287 213.448 88.5244 213.284C88.6247 213.12 88.6748 212.924 88.6748 212.696ZM98.5322 211.186C98.5322 212.43 98.2132 213.412 97.5752 214.132C96.9372 214.852 96.0827 215.212 95.0117 215.212C93.9316 215.212 93.0726 214.852 92.4346 214.132C91.8011 213.412 91.4844 212.43 91.4844 211.186C91.4844 209.941 91.8011 208.959 92.4346 208.239C93.0726 207.515 93.9316 207.152 95.0117 207.152C96.0827 207.152 96.9372 207.515 97.5752 208.239C98.2132 208.959 98.5322 209.941 98.5322 211.186ZM97.2061 211.186C97.2061 210.197 97.0124 209.463 96.625 208.984C96.2376 208.501 95.6999 208.26 95.0117 208.26C94.3145 208.26 93.7721 208.501 93.3848 208.984C93.002 209.463 92.8105 210.197 92.8105 211.186C92.8105 212.143 93.0042 212.869 93.3916 213.366C93.779 213.858 94.319 214.104 95.0117 214.104C95.6953 214.104 96.2308 213.861 96.6182 213.373C97.0101 212.881 97.2061 212.152 97.2061 211.186ZM110.105 215H108.554L106.106 211.514H105.484V215H104.213V211.514H103.659L101.103 215H99.6191L102.565 211.001C102.342 210.882 102.144 210.714 101.971 210.495C101.802 210.276 101.647 209.946 101.506 209.504C101.383 209.117 101.237 208.848 101.068 208.697C100.9 208.547 100.624 208.472 100.241 208.472H99.8789V207.364H100.351C100.916 207.364 101.369 207.478 101.711 207.706C102.053 207.934 102.326 208.333 102.531 208.902C102.572 209.021 102.622 209.158 102.682 209.312C102.745 209.463 102.8 209.59 102.846 209.695C102.996 210.042 103.188 210.288 103.42 210.434C103.657 210.575 103.921 210.655 104.213 210.673V207.364H105.484V210.673C105.776 210.655 106.04 210.573 106.277 210.427C106.519 210.281 106.715 210.037 106.865 209.695C106.915 209.581 106.97 209.449 107.029 209.299C107.093 209.148 107.143 209.016 107.18 208.902C107.38 208.342 107.649 207.945 107.986 207.713C108.324 207.48 108.777 207.364 109.347 207.364H109.818V208.472H109.456C109.069 208.472 108.788 208.551 108.615 208.711C108.447 208.87 108.305 209.135 108.191 209.504C108.064 209.91 107.911 210.226 107.733 210.454C107.56 210.677 107.371 210.846 107.166 210.96L110.105 215ZM118.63 216.832H117.434V214.979H111.691V216.832H110.495V213.906H111.322C111.855 213.027 112.252 212.013 112.512 210.864C112.776 209.711 112.908 208.545 112.908 207.364H117.707V213.906H118.63V216.832ZM116.422 213.906V208.444H114.118C114.059 209.588 113.883 210.632 113.592 211.575C113.3 212.519 112.965 213.296 112.587 213.906H116.422ZM126.799 211.315H121.173C121.173 211.785 121.243 212.195 121.385 212.546C121.526 212.892 121.72 213.177 121.966 213.4C122.203 213.619 122.483 213.783 122.807 213.893C123.135 214.002 123.495 214.057 123.887 214.057C124.406 214.057 124.928 213.954 125.452 213.749C125.981 213.539 126.357 213.334 126.58 213.134H126.648V214.535C126.215 214.717 125.773 214.87 125.322 214.993C124.871 215.116 124.397 215.178 123.9 215.178C122.633 215.178 121.645 214.836 120.934 214.152C120.223 213.464 119.867 212.489 119.867 211.227C119.867 209.978 120.207 208.987 120.886 208.253C121.569 207.519 122.467 207.152 123.579 207.152C124.609 207.152 125.402 207.453 125.958 208.055C126.519 208.656 126.799 209.511 126.799 210.618V211.315ZM125.548 210.331C125.543 209.657 125.372 209.135 125.035 208.766C124.702 208.396 124.194 208.212 123.511 208.212C122.823 208.212 122.273 208.415 121.863 208.82C121.458 209.226 121.228 209.729 121.173 210.331H125.548ZM135.139 215H133.854V211.562H130.032V215H128.747V207.364H130.032V210.454H133.854V207.364H135.139V215ZM144.107 215H142.836V209.265L138.837 215H137.675V207.364H138.946V213.018L142.904 207.364H144.107V215ZM153.035 211.315H147.409C147.409 211.785 147.48 212.195 147.621 212.546C147.762 212.892 147.956 213.177 148.202 213.4C148.439 213.619 148.719 213.783 149.043 213.893C149.371 214.002 149.731 214.057 150.123 214.057C150.643 214.057 151.164 213.954 151.688 213.749C152.217 213.539 152.593 213.334 152.816 213.134H152.885V214.535C152.452 214.717 152.01 214.87 151.559 214.993C151.107 215.116 150.633 215.178 150.137 215.178C148.87 215.178 147.881 214.836 147.17 214.152C146.459 213.464 146.104 212.489 146.104 211.227C146.104 209.978 146.443 208.987 147.122 208.253C147.806 207.519 148.703 207.152 149.815 207.152C150.845 207.152 151.638 207.453 152.194 208.055C152.755 208.656 153.035 209.511 153.035 210.618V211.315ZM151.784 210.331C151.78 209.657 151.609 209.135 151.271 208.766C150.939 208.396 150.431 208.212 149.747 208.212C149.059 208.212 148.51 208.415 148.1 208.82C147.694 209.226 147.464 209.729 147.409 210.331H151.784Z" fill="#333333"/>
<path d="M5 241L12.5 248.5L25 233.5" stroke="#61B857" stroke-width="2" stroke-linecap="round" stroke-linejoin="round"/>
<path d="M47.5498 240H45.8135L41.6777 235.358H40.7549V240H39.4014V229.821H40.7549V234.388C40.9873 234.383 41.2061 234.36 41.4111 234.319C41.6162 234.278 41.8099 234.201 41.9922 234.087C42.1745 233.982 42.3545 233.834 42.5322 233.643C42.71 233.447 42.8672 233.207 43.0039 232.925C43.0632 232.802 43.1315 232.647 43.209 232.46C43.291 232.273 43.373 232.077 43.4551 231.872C43.7695 231.116 44.1364 230.585 44.5557 230.279C44.9795 229.974 45.6016 229.821 46.4219 229.821H46.9619V231.031H46.3945C46.0801 231.031 45.834 231.061 45.6562 231.12C45.4785 231.175 45.319 231.268 45.1777 231.4C45.0456 231.519 44.9294 231.678 44.8291 231.879C44.7334 232.079 44.6331 232.314 44.5283 232.583C44.2913 233.185 44.0498 233.627 43.8037 233.909C43.5622 234.192 43.2363 234.438 42.8262 234.647L47.5498 240ZM55.5752 232.364L51.1182 242.816H49.7441L51.166 239.631L48.124 232.364H49.5186L51.8633 238.024L54.2285 232.364H55.5752ZM63.9766 236.09C63.9766 236.71 63.8877 237.277 63.71 237.792C63.5322 238.302 63.2816 238.735 62.958 239.091C62.6572 239.428 62.3018 239.69 61.8916 239.877C61.486 240.059 61.0553 240.15 60.5996 240.15C60.2031 240.15 59.8431 240.107 59.5195 240.021C59.2005 239.934 58.8747 239.799 58.542 239.617V242.816H57.2568V232.364H58.542V233.164C58.8838 232.877 59.2666 232.638 59.6904 232.446C60.1188 232.25 60.5745 232.152 61.0576 232.152C61.9782 232.152 62.6937 232.501 63.2041 233.198C63.7191 233.891 63.9766 234.855 63.9766 236.09ZM62.6504 236.124C62.6504 235.203 62.4932 234.515 62.1787 234.06C61.8643 233.604 61.3812 233.376 60.7295 233.376C60.3604 233.376 59.9889 233.456 59.6152 233.615C59.2415 233.775 58.8838 233.984 58.542 234.244V238.571C58.9066 238.735 59.2188 238.847 59.4785 238.906C59.7428 238.965 60.0413 238.995 60.374 238.995C61.0895 238.995 61.6478 238.754 62.0488 238.271C62.4499 237.787 62.6504 237.072 62.6504 236.124ZM71.6943 239.521C71.1702 239.768 70.7191 239.936 70.3408 240.027C69.9671 240.123 69.5934 240.171 69.2197 240.171C68.6637 240.171 68.1533 240.091 67.6885 239.932C67.2236 239.768 66.8249 239.521 66.4922 239.193C66.1595 238.865 65.8997 238.451 65.7129 237.949C65.5306 237.448 65.4395 236.862 65.4395 236.192C65.4395 234.976 65.7767 234.005 66.4512 233.28C67.1257 232.551 68.0485 232.187 69.2197 232.187C69.6618 232.187 70.0947 232.248 70.5186 232.371C70.9469 232.494 71.3389 232.645 71.6943 232.822V234.251H71.6191C71.1953 233.927 70.776 233.688 70.3613 233.533C69.9512 233.378 69.5524 233.301 69.165 233.301C68.404 233.301 67.8138 233.556 67.3945 234.066C66.9798 234.577 66.7725 235.285 66.7725 236.192C66.7725 237.099 66.9798 237.803 67.3945 238.305C67.8092 238.806 68.3994 239.057 69.165 239.057C69.4339 239.057 69.7005 239.022 69.9648 238.954C70.2337 238.886 70.4775 238.797 70.6963 238.688C70.8695 238.601 71.0472 238.498 71.2295 238.38C71.4163 238.257 71.5462 238.166 71.6191 238.106H71.6943V239.521ZM85.7422 231.024H82.1055V240H80.752V231.024H77.1152V229.821H85.7422V231.024ZM92.9404 240H91.6621V239.187C91.5482 239.264 91.3932 239.373 91.1973 239.515C91.0059 239.651 90.819 239.761 90.6367 239.843C90.4225 239.948 90.1764 240.034 89.8984 240.103C89.6204 240.175 89.2946 240.212 88.9209 240.212C88.2327 240.212 87.6494 239.984 87.1709 239.528C86.6924 239.073 86.4531 238.492 86.4531 237.785C86.4531 237.206 86.5762 236.739 86.8223 236.384C87.0729 236.024 87.4284 235.741 87.8887 235.536C88.3535 235.331 88.9118 235.192 89.5635 235.119C90.2152 235.046 90.9147 234.992 91.6621 234.955V234.757C91.6621 234.465 91.6097 234.224 91.5049 234.032C91.4046 233.841 91.2588 233.69 91.0674 233.581C90.8851 233.476 90.6663 233.406 90.4111 233.369C90.1559 233.333 89.8893 233.314 89.6113 233.314C89.2741 233.314 88.8981 233.36 88.4834 233.451C88.0687 233.538 87.6403 233.665 87.1982 233.834H87.1299V232.528C87.3805 232.46 87.7428 232.385 88.2168 232.303C88.6908 232.221 89.1579 232.18 89.6182 232.18C90.1559 232.18 90.623 232.225 91.0195 232.316C91.4206 232.403 91.7669 232.553 92.0586 232.768C92.3457 232.977 92.5645 233.248 92.7148 233.581C92.8652 233.914 92.9404 234.326 92.9404 234.818V240ZM91.6621 238.12V235.994C91.2702 236.017 90.8076 236.051 90.2744 236.097C89.7458 236.142 89.3265 236.208 89.0166 236.295C88.6475 236.4 88.349 236.564 88.1211 236.787C87.8932 237.006 87.7793 237.309 87.7793 237.696C87.7793 238.134 87.9115 238.464 88.1758 238.688C88.4401 238.906 88.8434 239.016 89.3857 239.016C89.8369 239.016 90.2493 238.929 90.623 238.756C90.9967 238.578 91.3431 238.366 91.6621 238.12ZM102.634 240H101.362V233.971L99.4619 237.895H98.5049L96.6182 233.971V240H95.415V232.364H96.9668L99.0449 236.637L101.055 232.364H102.634V240ZM111.671 236.186C111.671 237.43 111.352 238.412 110.714 239.132C110.076 239.852 109.221 240.212 108.15 240.212C107.07 240.212 106.211 239.852 105.573 239.132C104.94 238.412 104.623 237.43 104.623 236.186C104.623 234.941 104.94 233.959 105.573 233.239C106.211 232.515 107.07 232.152 108.15 232.152C109.221 232.152 110.076 232.515 110.714 233.239C111.352 233.959 111.671 234.941 111.671 236.186ZM110.345 236.186C110.345 235.197 110.151 234.463 109.764 233.984C109.376 233.501 108.839 233.26 108.15 233.26C107.453 233.26 106.911 233.501 106.523 233.984C106.141 234.463 105.949 235.197 105.949 236.186C105.949 237.143 106.143 237.869 106.53 238.366C106.918 238.858 107.458 239.104 108.15 239.104C108.834 239.104 109.369 238.861 109.757 238.373C110.149 237.881 110.345 237.152 110.345 236.186ZM123.244 240H121.692L119.245 236.514H118.623V240H117.352V236.514H116.798L114.241 240H112.758L115.704 236.001C115.481 235.882 115.283 235.714 115.109 235.495C114.941 235.276 114.786 234.946 114.645 234.504C114.521 234.117 114.376 233.848 114.207 233.697C114.038 233.547 113.763 233.472 113.38 233.472H113.018V232.364H113.489C114.054 232.364 114.508 232.478 114.85 232.706C115.191 232.934 115.465 233.333 115.67 233.902C115.711 234.021 115.761 234.158 115.82 234.312C115.884 234.463 115.939 234.59 115.984 234.695C116.135 235.042 116.326 235.288 116.559 235.434C116.796 235.575 117.06 235.655 117.352 235.673V232.364H118.623V235.673C118.915 235.655 119.179 235.573 119.416 235.427C119.658 235.281 119.854 235.037 120.004 234.695C120.054 234.581 120.109 234.449 120.168 234.299C120.232 234.148 120.282 234.016 120.318 233.902C120.519 233.342 120.788 232.945 121.125 232.713C121.462 232.48 121.916 232.364 122.485 232.364H122.957V233.472H122.595C122.207 233.472 121.927 233.551 121.754 233.711C121.585 233.87 121.444 234.135 121.33 234.504C121.202 234.91 121.05 235.226 120.872 235.454C120.699 235.677 120.51 235.846 120.305 235.96L123.244 240ZM131.229 236.315H125.603C125.603 236.785 125.673 237.195 125.814 237.546C125.956 237.892 126.149 238.177 126.396 238.4C126.632 238.619 126.913 238.783 127.236 238.893C127.564 239.002 127.924 239.057 128.316 239.057C128.836 239.057 129.358 238.954 129.882 238.749C130.41 238.539 130.786 238.334 131.01 238.134H131.078V239.535C130.645 239.717 130.203 239.87 129.752 239.993C129.301 240.116 128.827 240.178 128.33 240.178C127.063 240.178 126.074 239.836 125.363 239.152C124.652 238.464 124.297 237.489 124.297 236.227C124.297 234.978 124.636 233.987 125.315 233.253C125.999 232.519 126.897 232.152 128.009 232.152C129.039 232.152 129.832 232.453 130.388 233.055C130.948 233.656 131.229 234.511 131.229 235.618V236.315ZM129.978 235.331C129.973 234.657 129.802 234.135 129.465 233.766C129.132 233.396 128.624 233.212 127.94 233.212C127.252 233.212 126.703 233.415 126.293 233.82C125.887 234.226 125.657 234.729 125.603 235.331H129.978ZM139.568 240H138.283V236.562H134.462V240H133.177V232.364H134.462V235.454H138.283V232.364H139.568V240ZM148.496 240H147.211V236.562H143.39V240H142.104V232.364H143.39V235.454H147.211V232.364H148.496V240ZM155.735 237.655C155.735 237.423 155.694 237.22 155.612 237.047C155.535 236.869 155.405 236.726 155.223 236.616C155.031 236.502 154.812 236.434 154.566 236.411C154.325 236.388 153.976 236.377 153.521 236.377H152.317V238.975H153.493C153.949 238.975 154.302 238.956 154.553 238.92C154.803 238.879 155.02 238.804 155.202 238.694C155.389 238.576 155.523 238.437 155.605 238.277C155.692 238.113 155.735 237.906 155.735 237.655ZM157.062 237.635C157.062 238.004 156.986 238.339 156.836 238.64C156.69 238.94 156.49 239.184 156.234 239.371C155.934 239.599 155.612 239.761 155.271 239.856C154.929 239.952 154.489 240 153.951 240H151.032V232.364H152.317V235.338H153.985C154.56 235.338 155.004 235.368 155.318 235.427C155.637 235.486 155.954 235.632 156.269 235.864C156.533 236.06 156.731 236.311 156.863 236.616C156.995 236.922 157.062 237.261 157.062 237.635ZM158.34 232.364H159.625V240H158.34V232.364ZM168.771 240H167.151L164.984 237.067L162.804 240H161.307L164.287 236.192L161.334 232.364H162.954L165.107 235.249L167.268 232.364H168.771L165.771 236.124L168.771 240ZM45.6631 247.949C46.1006 248.387 46.4378 248.929 46.6748 249.576C46.9118 250.223 47.0303 250.989 47.0303 251.873C47.0303 252.657 46.9095 253.379 46.668 254.04C46.431 254.696 46.0869 255.259 45.6357 255.729C45.1709 256.212 44.6263 256.576 44.002 256.822C43.3822 257.064 42.7008 257.185 41.958 257.185C41.3154 257.185 40.7048 257.123 40.126 257C39.5472 256.877 39.0596 256.731 38.6631 256.562V255.065H38.7725C39.1416 255.362 39.6064 255.599 40.167 255.776C40.7321 255.95 41.3359 256.036 41.9785 256.036C42.5391 256.036 43.0518 255.938 43.5166 255.742C43.9814 255.542 44.3688 255.271 44.6787 254.929C45.0068 254.564 45.2529 254.154 45.417 253.698C45.5856 253.238 45.6699 252.716 45.6699 252.133H40.1123V250.95H45.6016C45.5378 250.408 45.401 249.938 45.1914 249.542C44.9818 249.141 44.7152 248.811 44.3916 248.551C44.068 248.291 43.7012 248.1 43.291 247.977C42.8809 247.849 42.4434 247.785 41.9785 247.785C41.3542 247.785 40.7686 247.874 40.2217 248.052C39.6748 248.225 39.2031 248.464 38.8066 248.77H38.6904V247.266C39.1143 247.088 39.6156 246.94 40.1943 246.821C40.7731 246.698 41.3656 246.637 41.9717 246.637C42.7555 246.637 43.4551 246.746 44.0703 246.965C44.6901 247.184 45.221 247.512 45.6631 247.949ZM55.9717 257H54.29L51.1182 253.5H50.4209V257H49.1357V249.364H50.4209V252.659C50.8447 252.659 51.1865 252.584 51.4463 252.434C51.7061 252.279 51.9271 252.033 52.1094 251.695C52.1732 251.572 52.2347 251.442 52.2939 251.306C52.3577 251.164 52.4193 251.03 52.4785 250.902C52.7155 250.387 53.0117 250.002 53.3672 249.747C53.7227 249.492 54.2331 249.364 54.8984 249.364H55.4863V250.472H54.9189C54.5589 250.472 54.2764 250.549 54.0713 250.704C53.8708 250.854 53.6885 251.121 53.5244 251.504C53.3421 251.932 53.1484 252.254 52.9434 252.468C52.7428 252.677 52.5286 252.837 52.3008 252.946L55.9717 257ZM63.0811 256.521C62.557 256.768 62.1058 256.936 61.7275 257.027C61.3538 257.123 60.9801 257.171 60.6064 257.171C60.0505 257.171 59.54 257.091 59.0752 256.932C58.6104 256.768 58.2116 256.521 57.8789 256.193C57.5462 255.865 57.2865 255.451 57.0996 254.949C56.9173 254.448 56.8262 253.862 56.8262 253.192C56.8262 251.976 57.1634 251.005 57.8379 250.28C58.5124 249.551 59.4352 249.187 60.6064 249.187C61.0485 249.187 61.4814 249.248 61.9053 249.371C62.3337 249.494 62.7256 249.645 63.0811 249.822V251.251H63.0059C62.582 250.927 62.1628 250.688 61.748 250.533C61.3379 250.378 60.9391 250.301 60.5518 250.301C59.7907 250.301 59.2005 250.556 58.7812 251.066C58.3665 251.577 58.1592 252.285 58.1592 253.192C58.1592 254.099 58.3665 254.803 58.7812 255.305C59.196 255.806 59.7861 256.057 60.5518 256.057C60.8206 256.057 61.0872 256.022 61.3516 255.954C61.6204 255.886 61.8643 255.797 62.083 255.688C62.2562 255.601 62.4339 255.498 62.6162 255.38C62.8031 255.257 62.9329 255.166 63.0059 255.106H63.0811V256.521ZM71.2363 257H69.9512V250.472H66.1299V257H64.8447V249.364H71.2363V257ZM80.1641 253.315H74.5381C74.5381 253.785 74.6087 254.195 74.75 254.546C74.8913 254.892 75.085 255.177 75.3311 255.4C75.568 255.619 75.8483 255.783 76.1719 255.893C76.5 256.002 76.86 256.057 77.252 256.057C77.7715 256.057 78.2933 255.954 78.8174 255.749C79.346 255.539 79.722 255.334 79.9453 255.134H80.0137V256.535C79.5807 256.717 79.1387 256.87 78.6875 256.993C78.2363 257.116 77.7624 257.178 77.2656 257.178C75.9987 257.178 75.0098 256.836 74.2988 256.152C73.5879 255.464 73.2324 254.489 73.2324 253.227C73.2324 251.978 73.5719 250.987 74.251 250.253C74.9346 249.519 75.8324 249.152 76.9443 249.152C77.9743 249.152 78.7673 249.453 79.3232 250.055C79.8838 250.656 80.1641 251.511 80.1641 252.618V253.315ZM78.9131 252.331C78.9085 251.657 78.7376 251.135 78.4004 250.766C78.0677 250.396 77.5596 250.212 76.876 250.212C76.1878 250.212 75.6387 250.415 75.2285 250.82C74.8229 251.226 74.5928 251.729 74.5381 252.331H78.9131ZM88.832 253.09C88.832 253.71 88.7432 254.277 88.5654 254.792C88.3877 255.302 88.137 255.735 87.8135 256.091C87.5127 256.428 87.1572 256.69 86.7471 256.877C86.3415 257.059 85.9108 257.15 85.4551 257.15C85.0586 257.15 84.6986 257.107 84.375 257.021C84.056 256.934 83.7301 256.799 83.3975 256.617V259.816H82.1123V249.364H83.3975V250.164C83.7393 249.877 84.1221 249.638 84.5459 249.446C84.9743 249.25 85.43 249.152 85.9131 249.152C86.8337 249.152 87.5492 249.501 88.0596 250.198C88.5745 250.891 88.832 251.855 88.832 253.09ZM87.5059 253.124C87.5059 252.203 87.3486 251.515 87.0342 251.06C86.7197 250.604 86.2367 250.376 85.585 250.376C85.2158 250.376 84.8444 250.456 84.4707 250.615C84.097 250.775 83.7393 250.984 83.3975 251.244V255.571C83.762 255.735 84.0742 255.847 84.334 255.906C84.5983 255.965 84.8968 255.995 85.2295 255.995C85.945 255.995 86.5033 255.754 86.9043 255.271C87.3053 254.787 87.5059 254.072 87.5059 253.124ZM96.4473 250.492H93.6855V257H92.4004V250.492H89.6387V249.364H96.4473V250.492ZM104.288 253.186C104.288 254.43 103.969 255.412 103.331 256.132C102.693 256.852 101.839 257.212 100.768 257.212C99.6875 257.212 98.8285 256.852 98.1904 256.132C97.557 255.412 97.2402 254.43 97.2402 253.186C97.2402 251.941 97.557 250.959 98.1904 250.239C98.8285 249.515 99.6875 249.152 100.768 249.152C101.839 249.152 102.693 249.515 103.331 250.239C103.969 250.959 104.288 251.941 104.288 253.186ZM102.962 253.186C102.962 252.197 102.768 251.463 102.381 250.984C101.993 250.501 101.456 250.26 100.768 250.26C100.07 250.26 99.528 250.501 99.1406 250.984C98.7578 251.463 98.5664 252.197 98.5664 253.186C98.5664 254.143 98.7601 254.869 99.1475 255.366C99.5348 255.858 100.075 256.104 100.768 256.104C101.451 256.104 101.987 255.861 102.374 255.373C102.766 254.881 102.962 254.152 102.962 253.186ZM112.587 254.689C112.587 255.059 112.512 255.387 112.361 255.674C112.215 255.961 112.013 256.2 111.753 256.392C111.461 256.606 111.142 256.761 110.796 256.856C110.454 256.952 110.003 257 109.442 257H106.284V249.364H109.237C109.807 249.364 110.235 249.385 110.522 249.426C110.814 249.462 111.088 249.547 111.343 249.679C111.63 249.829 111.84 250.025 111.972 250.267C112.108 250.508 112.177 250.793 112.177 251.121C112.177 251.499 112.07 251.827 111.855 252.105C111.641 252.383 111.366 252.6 111.028 252.755V252.823C111.479 252.933 111.851 253.145 112.143 253.459C112.439 253.769 112.587 254.179 112.587 254.689ZM110.857 251.319C110.857 251.155 110.821 251.007 110.748 250.875C110.68 250.743 110.573 250.64 110.427 250.567C110.235 250.472 110.019 250.419 109.777 250.41C109.54 250.396 109.246 250.39 108.896 250.39H107.556V252.481H109.162C109.499 252.481 109.748 252.47 109.907 252.447C110.071 252.42 110.235 252.356 110.399 252.256C110.573 252.146 110.691 252.019 110.755 251.873C110.823 251.723 110.857 251.538 110.857 251.319ZM111.261 254.696C111.261 254.446 111.22 254.243 111.138 254.088C111.056 253.928 110.876 253.783 110.598 253.65C110.424 253.568 110.238 253.521 110.037 253.507C109.837 253.489 109.559 253.479 109.203 253.479H107.556V255.975H108.772C109.283 255.975 109.675 255.959 109.948 255.927C110.226 255.89 110.465 255.815 110.666 255.701C110.867 255.587 111.015 255.448 111.11 255.284C111.211 255.12 111.261 254.924 111.261 254.696Z" fill="#333333"/>
</svg>
