<svg width="70" height="70" viewBox="0 0 70 70" fill="none" xmlns="http://www.w3.org/2000/svg">
<path d="M37.9158 34.2707C37.3616 34.2707 36.8075 34.0665 36.37 33.629C35.5241 32.7832 35.5241 31.3832 36.37 30.5374L60.2866 6.6207C61.1325 5.77487 62.5325 5.77487 63.3783 6.6207C64.2241 7.46654 64.2241 8.86654 63.3783 9.71237L39.4616 33.629C39.0241 34.0665 38.47 34.2707 37.9158 34.2707Z" fill="#1959AB"/>
<path d="M64.1676 22.0205C62.9718 22.0205 61.9801 21.0288 61.9801 19.833V8.02051H50.1676C48.9718 8.02051 47.9801 7.02884 47.9801 5.83301C47.9801 4.63717 48.9718 3.64551 50.1676 3.64551H64.1676C65.3634 3.64551 66.3551 4.63717 66.3551 5.83301V19.833C66.3551 21.0288 65.3634 22.0205 64.1676 22.0205Z" fill="#1959AB"/>
<path d="M43.7491 66.3538H26.2491C10.4116 66.3538 3.6449 59.5872 3.6449 43.7497V26.2497C3.6449 10.4122 10.4116 3.64551 26.2491 3.64551H32.0824C33.2782 3.64551 34.2699 4.63717 34.2699 5.83301C34.2699 7.02884 33.2782 8.02051 32.0824 8.02051H26.2491C12.8032 8.02051 8.0199 12.8038 8.0199 26.2497V43.7497C8.0199 57.1955 12.8032 61.9788 26.2491 61.9788H43.7491C57.1949 61.9788 61.9782 57.1955 61.9782 43.7497V37.9163C61.9782 36.7205 62.9699 35.7288 64.1657 35.7288C65.3616 35.7288 66.3532 36.7205 66.3532 37.9163V43.7497C66.3532 59.5872 59.5866 66.3538 43.7491 66.3538Z" fill="#1959AB"/>
</svg>
