<svg width="100" height="100" viewBox="0 0 100 100" fill="none" xmlns="http://www.w3.org/2000/svg">
<path d="M43.9181 91.4168C42.9597 91.4168 42.043 91.0002 41.418 90.1669L37.2097 84.5419C36.3347 83.3752 35.1681 82.7084 33.9181 82.6251C32.6681 82.5418 31.418 83.1252 30.418 84.1669C24.3763 90.6252 19.793 90.0835 17.5847 89.2502C15.3347 88.3752 11.543 85.5001 11.543 76.2501V29.3335C11.543 10.8335 16.8763 5.2085 34.3346 5.2085H65.7931C83.2514 5.2085 88.5847 10.8335 88.5847 29.3335V47.0834C88.5847 48.7918 87.1681 50.2084 85.4597 50.2084C83.7514 50.2084 82.3347 48.7918 82.3347 47.0834V29.3335C82.3347 14.2919 79.7097 11.4585 65.7931 11.4585H34.3346C20.418 11.4585 17.793 14.2919 17.793 29.3335V76.2501C17.793 80.6251 18.8763 83.0418 19.8763 83.4168C20.6263 83.7085 22.6681 83.2918 25.8347 79.9168C28.1264 77.5001 31.1264 76.2084 34.2514 76.3751C37.3347 76.5418 40.2514 78.1669 42.2097 80.7919L46.4597 86.4168C47.5013 87.7918 47.2097 89.7502 45.8347 90.7919C45.2097 91.2502 44.5431 91.4168 43.9181 91.4168Z" fill="#1959AB"/>
<path d="M75.8334 92.2916C66.7501 92.2916 59.375 84.9167 59.375 75.8334C59.375 66.7501 66.7501 59.375 75.8334 59.375C84.9167 59.375 92.2916 66.7501 92.2916 75.8334C92.2916 84.9167 84.9167 92.2916 75.8334 92.2916ZM75.8334 65.625C70.2084 65.625 65.625 70.2084 65.625 75.8334C65.625 81.4584 70.2084 86.0416 75.8334 86.0416C81.4584 86.0416 86.0416 81.4584 86.0416 75.8334C86.0416 70.2084 81.4584 65.625 75.8334 65.625Z" fill="#1959AB"/>
<path d="M91.666 94.7915C90.8743 94.7915 90.0827 94.4998 89.4577 93.8748L85.291 89.7082C84.0827 88.4998 84.0827 86.4998 85.291 85.2915C86.4993 84.0832 88.4993 84.0832 89.7077 85.2915L93.8743 89.4582C95.0827 90.6665 95.0827 92.6665 93.8743 93.8748C93.2493 94.4998 92.4577 94.7915 91.666 94.7915Z" fill="#1959AB"/>
<path d="M66.6654 32.2915H33.332C31.6237 32.2915 30.207 30.8748 30.207 29.1665C30.207 27.4582 31.6237 26.0415 33.332 26.0415H66.6654C68.3737 26.0415 69.7904 27.4582 69.7904 29.1665C69.7904 30.8748 68.3737 32.2915 66.6654 32.2915Z" fill="#1959AB"/>
<path d="M62.5 48.9585H37.5C35.7917 48.9585 34.375 47.5418 34.375 45.8335C34.375 44.1252 35.7917 42.7085 37.5 42.7085H62.5C64.2083 42.7085 65.625 44.1252 65.625 45.8335C65.625 47.5418 64.2083 48.9585 62.5 48.9585Z" fill="#1959AB"/>
</svg>
