<svg width="100" height="100" viewBox="0 0 100 100" fill="none" xmlns="http://www.w3.org/2000/svg">
<path d="M33.332 23.9585C31.6237 23.9585 30.207 22.5418 30.207 20.8335V8.3335C30.207 6.62516 31.6237 5.2085 33.332 5.2085C35.0404 5.2085 36.457 6.62516 36.457 8.3335V20.8335C36.457 22.5418 35.0404 23.9585 33.332 23.9585Z" fill="#1959AB"/>
<path d="M66.668 23.9585C64.9596 23.9585 63.543 22.5418 63.543 20.8335V8.3335C63.543 6.62516 64.9596 5.2085 66.668 5.2085C68.3763 5.2085 69.793 6.62516 69.793 8.3335V20.8335C69.793 22.5418 68.3763 23.9585 66.668 23.9585Z" fill="#1959AB"/>
<path d="M35.4167 60.4165C34.3333 60.4165 33.25 59.9581 32.4583 59.2081C31.7083 58.4164 31.25 57.3748 31.25 56.2498C31.25 55.7081 31.375 55.1664 31.5833 54.6664C31.7917 54.1664 32.0833 53.7082 32.4583 53.2915C34 51.7498 36.7917 51.7498 38.375 53.2915C39.125 54.0832 39.5833 55.1665 39.5833 56.2498C39.5833 56.4998 39.5417 56.7915 39.5 57.0832C39.4583 57.3332 39.375 57.5832 39.25 57.8332C39.1667 58.0832 39.0417 58.3331 38.875 58.5831C38.7083 58.7915 38.5417 58.9998 38.375 59.2081C37.5833 59.9581 36.5 60.4165 35.4167 60.4165Z" fill="#1959AB"/>
<path d="M49.9987 60.4167C49.457 60.4167 48.9154 60.2917 48.4154 60.0834C47.8737 59.8751 47.457 59.5833 47.0404 59.2083C46.2904 58.4166 45.832 57.375 45.832 56.25C45.832 55.7083 45.957 55.1666 46.1654 54.6666C46.3737 54.1666 46.6654 53.7084 47.0404 53.2917C47.457 52.9167 47.8737 52.6249 48.4154 52.4166C49.957 51.7916 51.7904 52.125 52.957 53.2917C53.707 54.0834 54.1654 55.1667 54.1654 56.25C54.1654 56.5 54.1237 56.7917 54.082 57.0834C54.0404 57.3334 53.957 57.5834 53.832 57.8334C53.7487 58.0834 53.6237 58.3333 53.457 58.5833C53.332 58.7917 53.1237 59 52.957 59.2083C52.1654 59.9583 51.082 60.4167 49.9987 60.4167Z" fill="#1959AB"/>
<path d="M35.4167 75.0002C34.875 75.0002 34.3333 74.8753 33.8333 74.667C33.2917 74.4586 32.8333 74.1669 32.4583 73.7919C32.0833 73.4169 31.7917 72.9586 31.5833 72.4169C31.375 71.9169 31.25 71.3752 31.25 70.8336C31.25 70.2919 31.375 69.7502 31.5833 69.2502C31.7917 68.7086 32.0833 68.2503 32.4583 67.8753C32.8333 67.5003 33.2917 67.2085 33.8333 67.0002C34.8333 66.5835 36 66.5419 37 67.0002C37.5417 67.2085 38 67.5003 38.375 67.8753C38.75 68.2503 39.0417 68.7086 39.25 69.2502C39.4583 69.7502 39.5833 70.2919 39.5833 70.8336C39.5833 71.3752 39.4583 71.9169 39.25 72.4169C39.0417 72.9586 38.75 73.4169 38.375 73.7919C38 74.1669 37.5417 74.4586 37 74.667C36.5 74.8753 35.9583 75.0002 35.4167 75.0002Z" fill="#1959AB"/>
<path d="M85.4154 41H14.582C12.8737 41 11.457 39.5833 11.457 37.875C11.457 36.1667 12.8737 34.75 14.582 34.75H85.4154C87.1237 34.75 88.5404 36.1667 88.5404 37.875C88.5404 39.5833 87.1237 41 85.4154 41Z" fill="#1959AB"/>
<path d="M74.9987 98.9583C70.1237 98.9583 65.4987 97.2083 61.957 94C60.457 92.75 59.1237 91.1667 58.0404 89.3333C56.207 86.3333 55.207 82.7917 55.207 79.1667C55.207 68.25 64.082 59.375 74.9987 59.375C80.6654 59.375 86.082 61.8333 89.832 66.0833C93.0404 69.7499 94.7904 74.375 94.7904 79.1667C94.7904 82.7917 93.7904 86.3334 91.9154 89.375C88.4154 95.2917 81.9154 98.9583 74.9987 98.9583ZM74.9987 65.625C67.5404 65.625 61.457 71.7083 61.457 79.1667C61.457 81.625 62.1237 84.0417 63.4154 86.1251C64.1237 87.3751 65.0404 88.4166 66.0404 89.2916C68.5404 91.5416 71.6654 92.7083 74.9987 92.7083C79.7904 92.7083 84.1237 90.25 86.582 86.1666C87.8737 84.0416 88.5404 81.6667 88.5404 79.1667C88.5404 75.9167 87.332 72.75 85.1654 70.2084C82.582 67.2917 78.8737 65.625 74.9987 65.625Z" fill="#1959AB"/>
<path d="M72.6243 86.4166C71.8327 86.4166 71.041 86.1249 70.416 85.4999L66.291 81.375C65.0827 80.1666 65.0827 78.1666 66.291 76.9583C67.4993 75.75 69.4993 75.75 70.7077 76.9583L72.7077 78.9583L79.3743 72.7916C80.6243 71.625 82.6243 71.7083 83.791 72.9583C84.9577 74.2083 84.8743 76.2083 83.6243 77.375L74.7493 85.5833C74.1243 86.125 73.3743 86.4166 72.6243 86.4166Z" fill="#1959AB"/>
<path d="M64.0417 94.7918H33.3333C18.125 94.7918 9.375 86.0418 9.375 70.8335V35.4168C9.375 20.2085 18.125 11.4585 33.3333 11.4585H66.6667C81.875 11.4585 90.625 20.2085 90.625 35.4168V68.1668C90.625 69.4584 89.8333 70.6252 88.5833 71.0835C87.375 71.5418 86 71.2085 85.125 70.2085C82.5417 67.2919 78.8333 65.6252 74.9583 65.6252C67.5 65.6252 61.4167 71.7085 61.4167 79.1668C61.4167 81.6252 62.0833 84.0419 63.375 86.1252C64.0833 87.3752 65 88.4168 66 89.2918C67 90.1251 67.375 91.5002 66.9167 92.7502C66.5417 93.9585 65.375 94.7918 64.0417 94.7918ZM33.3333 17.7085C21.4167 17.7085 15.625 23.5002 15.625 35.4168V70.8335C15.625 82.7502 21.4167 88.5418 33.3333 88.5418H57.5833C56.0417 85.7085 55.2083 82.5002 55.2083 79.1668C55.2083 68.2502 64.0833 59.3752 75 59.3752C78.2917 59.3752 81.5417 60.2085 84.375 61.7502V35.4168C84.375 23.5002 78.5833 17.7085 66.6667 17.7085H33.3333Z" fill="#1959AB"/>
</svg>
