<svg width="265" height="307" viewBox="0 0 265 307" fill="none" xmlns="http://www.w3.org/2000/svg">
<path d="M20.5195 40H16.043V28.3164L12.8086 35.8984H9.70312L6.46875 28.3164V40H2.22656V22.5508H7.45312L11.3789 31.3047L15.293 22.5508H20.5195V40ZM38.2031 33.4258C38.2031 35.5898 37.5703 37.2969 36.3047 38.5469C35.0469 39.7891 33.2773 40.4102 30.9961 40.4102C28.7148 40.4102 26.9414 39.7891 25.6758 38.5469C24.418 37.2969 23.7891 35.5898 23.7891 33.4258C23.7891 31.2461 24.4219 29.5352 25.6875 28.293C26.9609 27.0508 28.7305 26.4297 30.9961 26.4297C33.293 26.4297 35.0664 27.0547 36.3164 28.3047C37.5742 29.5547 38.2031 31.2617 38.2031 33.4258ZM33.0117 36.625C33.2852 36.2891 33.4883 35.8867 33.6211 35.418C33.7617 34.9414 33.832 34.2852 33.832 33.4492C33.832 32.6758 33.7617 32.0273 33.6211 31.5039C33.4805 30.9805 33.2852 30.5625 33.0352 30.25C32.7852 29.9297 32.4844 29.7031 32.1328 29.5703C31.7812 29.4375 31.4023 29.3711 30.9961 29.3711C30.5898 29.3711 30.2266 29.4258 29.9062 29.5352C29.5938 29.6445 29.293 29.8633 29.0039 30.1914C28.7461 30.4961 28.5391 30.9141 28.3828 31.4453C28.2344 31.9766 28.1602 32.6445 28.1602 33.4492C28.1602 34.168 28.2266 34.793 28.3594 35.3242C28.4922 35.8477 28.6875 36.2695 28.9453 36.5898C29.1953 36.8945 29.4922 37.1172 29.8359 37.2578C30.1875 37.3984 30.5859 37.4688 31.0312 37.4688C31.4141 37.4688 31.7773 37.4062 32.1211 37.2812C32.4727 37.1484 32.7695 36.9297 33.0117 36.625ZM45.4453 40H41.2266V21.7656H45.4453V40ZM53.6484 40H49.4297V26.8398H53.6484V40ZM53.7656 24.9648H49.3125V21.7656H53.7656V24.9648ZM63.5742 35.3477L66.5742 26.8398H70.9102L63.5977 44.8281H59.0273L61.1133 39.9062L55.9922 26.8398H60.4219L63.5742 35.3477ZM81.2344 36.5664V33.8242C80.6641 33.8711 80.0469 33.9375 79.3828 34.0234C78.7188 34.1016 78.2148 34.1953 77.8711 34.3047C77.4492 34.4375 77.125 34.6328 76.8984 34.8906C76.6797 35.1406 76.5703 35.4727 76.5703 35.8867C76.5703 36.1602 76.5938 36.3828 76.6406 36.5547C76.6875 36.7266 76.8047 36.8906 76.9922 37.0469C77.1719 37.2031 77.3867 37.3203 77.6367 37.3984C77.8867 37.4688 78.2773 37.5039 78.8086 37.5039C79.2305 37.5039 79.6562 37.418 80.0859 37.2461C80.5234 37.0742 80.9062 36.8477 81.2344 36.5664ZM81.2344 38.6055C81.0078 38.7773 80.7266 38.9844 80.3906 39.2266C80.0547 39.4688 79.7383 39.6602 79.4414 39.8008C79.0273 39.9883 78.5977 40.125 78.1523 40.2109C77.707 40.3047 77.2188 40.3516 76.6875 40.3516C75.4375 40.3516 74.3906 39.9648 73.5469 39.1914C72.7031 38.418 72.2812 37.4297 72.2812 36.2266C72.2812 35.2656 72.4961 34.4805 72.9258 33.8711C73.3555 33.2617 73.9648 32.7812 74.7539 32.4297C75.5352 32.0781 76.5039 31.8281 77.6602 31.6797C78.8164 31.5312 80.0156 31.4219 81.2578 31.3516V31.2812C81.2578 30.5547 80.9609 30.0547 80.3672 29.7812C79.7734 29.5 78.8984 29.3594 77.7422 29.3594C77.0469 29.3594 76.3047 29.4844 75.5156 29.7344C74.7266 29.9766 74.1602 30.1641 73.8164 30.2969H73.4297V27.1211C73.875 27.0039 74.5977 26.8672 75.5977 26.7109C76.6055 26.5469 77.6133 26.4648 78.6211 26.4648C81.0195 26.4648 82.75 26.8359 83.8125 27.5781C84.8828 28.3125 85.418 29.4688 85.418 31.0469V40H81.2344V38.6055ZM93.5156 40H89.2969V21.7656H93.5156V40ZM105.469 36.5664V33.8242C104.898 33.8711 104.281 33.9375 103.617 34.0234C102.953 34.1016 102.449 34.1953 102.105 34.3047C101.684 34.4375 101.359 34.6328 101.133 34.8906C100.914 35.1406 100.805 35.4727 100.805 35.8867C100.805 36.1602 100.828 36.3828 100.875 36.5547C100.922 36.7266 101.039 36.8906 101.227 37.0469C101.406 37.2031 101.621 37.3203 101.871 37.3984C102.121 37.4688 102.512 37.5039 103.043 37.5039C103.465 37.5039 103.891 37.418 104.32 37.2461C104.758 37.0742 105.141 36.8477 105.469 36.5664ZM105.469 38.6055C105.242 38.7773 104.961 38.9844 104.625 39.2266C104.289 39.4688 103.973 39.6602 103.676 39.8008C103.262 39.9883 102.832 40.125 102.387 40.2109C101.941 40.3047 101.453 40.3516 100.922 40.3516C99.6719 40.3516 98.625 39.9648 97.7812 39.1914C96.9375 38.418 96.5156 37.4297 96.5156 36.2266C96.5156 35.2656 96.7305 34.4805 97.1602 33.8711C97.5898 33.2617 98.1992 32.7812 98.9883 32.4297C99.7695 32.0781 100.738 31.8281 101.895 31.6797C103.051 31.5312 104.25 31.4219 105.492 31.3516V31.2812C105.492 30.5547 105.195 30.0547 104.602 29.7812C104.008 29.5 103.133 29.3594 101.977 29.3594C101.281 29.3594 100.539 29.4844 99.75 29.7344C98.9609 29.9766 98.3945 30.1641 98.0508 30.2969H97.6641V27.1211C98.1094 27.0039 98.832 26.8672 99.832 26.7109C100.84 26.5469 101.848 26.4648 102.855 26.4648C105.254 26.4648 106.984 26.8359 108.047 27.5781C109.117 28.3125 109.652 29.4688 109.652 31.0469V40H105.469V38.6055ZM124.969 35.8281C124.969 37.1875 124.359 38.2852 123.141 39.1211C121.922 39.9492 120.254 40.3633 118.137 40.3633C116.965 40.3633 115.902 40.2539 114.949 40.0352C113.996 39.8164 113.23 39.5742 112.652 39.3086V35.8398H113.039C113.25 35.9883 113.492 36.1523 113.766 36.332C114.047 36.5039 114.441 36.6914 114.949 36.8945C115.387 37.0742 115.883 37.2305 116.438 37.3633C116.992 37.4883 117.586 37.5508 118.219 37.5508C119.047 37.5508 119.66 37.4609 120.059 37.2812C120.457 37.0938 120.656 36.8203 120.656 36.4609C120.656 36.1406 120.539 35.9102 120.305 35.7695C120.07 35.6211 119.625 35.4805 118.969 35.3477C118.656 35.2773 118.23 35.2031 117.691 35.125C117.16 35.0391 116.676 34.9375 116.238 34.8203C115.043 34.5078 114.156 34.0234 113.578 33.3672C113 32.7031 112.711 31.8789 112.711 30.8945C112.711 29.6289 113.309 28.5781 114.504 27.7422C115.707 26.8984 117.348 26.4766 119.426 26.4766C120.41 26.4766 121.352 26.5781 122.25 26.7812C123.156 26.9766 123.863 27.1875 124.371 27.4141V30.7422H124.008C123.383 30.3125 122.668 29.9648 121.863 29.6992C121.066 29.4258 120.258 29.2891 119.438 29.2891C118.758 29.2891 118.184 29.3828 117.715 29.5703C117.254 29.7578 117.023 30.0234 117.023 30.3672C117.023 30.6797 117.129 30.918 117.34 31.082C117.551 31.2461 118.047 31.4102 118.828 31.5742C119.258 31.6602 119.719 31.7461 120.211 31.832C120.711 31.9102 121.211 32.0117 121.711 32.1367C122.82 32.4258 123.641 32.8828 124.172 33.5078C124.703 34.125 124.969 34.8984 124.969 35.8281ZM141 40H136.758V33.4727C136.758 32.9414 136.73 32.4141 136.676 31.8906C136.621 31.3594 136.527 30.9688 136.395 30.7188C136.238 30.4297 136.008 30.2188 135.703 30.0859C135.406 29.9531 134.988 29.8867 134.449 29.8867C134.066 29.8867 133.676 29.9492 133.277 30.0742C132.887 30.1992 132.461 30.3984 132 30.6719V40H127.781V21.7656H132V28.293C132.75 27.707 133.469 27.2578 134.156 26.9453C134.852 26.6328 135.621 26.4766 136.465 26.4766C137.887 26.4766 138.996 26.8906 139.793 27.7188C140.598 28.5469 141 29.7852 141 31.4336V40ZM153.305 39.8828C152.852 40 152.371 40.0898 151.863 40.1523C151.355 40.2227 150.734 40.2578 150 40.2578C148.359 40.2578 147.137 39.9258 146.332 39.2617C145.535 38.5977 145.137 37.4609 145.137 35.8516V29.6992H143.402V26.8398H145.137V23.0781H149.355V26.8398H153.305V29.6992H149.355V34.3633C149.355 34.8242 149.359 35.2266 149.367 35.5703C149.375 35.9141 149.438 36.2227 149.555 36.4961C149.664 36.7695 149.855 36.9883 150.129 37.1523C150.41 37.3086 150.816 37.3867 151.348 37.3867C151.566 37.3867 151.852 37.3398 152.203 37.2461C152.562 37.1523 152.812 37.0664 152.953 36.9883H153.305V39.8828ZM160.055 40H155.836V26.8398H160.055V40ZM160.172 24.9648H155.719V21.7656H160.172V24.9648ZM173.578 30.8594H173.203C173.023 30.7969 172.734 30.75 172.336 30.7188C171.938 30.6875 171.605 30.6719 171.34 30.6719C170.738 30.6719 170.207 30.7109 169.746 30.7891C169.285 30.8672 168.789 31 168.258 31.1875V40H164.039V26.8398H168.258V28.7734C169.188 27.9766 169.996 27.4492 170.684 27.1914C171.371 26.9258 172.004 26.793 172.582 26.793C172.73 26.793 172.898 26.7969 173.086 26.8047C173.273 26.8125 173.438 26.8242 173.578 26.8398V30.8594ZM180.188 40H175.969V26.8398H180.188V40ZM180.305 24.9648H175.852V21.7656H180.305V24.9648ZM195.609 35.8281C195.609 37.1875 195 38.2852 193.781 39.1211C192.562 39.9492 190.895 40.3633 188.777 40.3633C187.605 40.3633 186.543 40.2539 185.59 40.0352C184.637 39.8164 183.871 39.5742 183.293 39.3086V35.8398H183.68C183.891 35.9883 184.133 36.1523 184.406 36.332C184.688 36.5039 185.082 36.6914 185.59 36.8945C186.027 37.0742 186.523 37.2305 187.078 37.3633C187.633 37.4883 188.227 37.5508 188.859 37.5508C189.688 37.5508 190.301 37.4609 190.699 37.2812C191.098 37.0938 191.297 36.8203 191.297 36.4609C191.297 36.1406 191.18 35.9102 190.945 35.7695C190.711 35.6211 190.266 35.4805 189.609 35.3477C189.297 35.2773 188.871 35.2031 188.332 35.125C187.801 35.0391 187.316 34.9375 186.879 34.8203C185.684 34.5078 184.797 34.0234 184.219 33.3672C183.641 32.7031 183.352 31.8789 183.352 30.8945C183.352 29.6289 183.949 28.5781 185.145 27.7422C186.348 26.8984 187.988 26.4766 190.066 26.4766C191.051 26.4766 191.992 26.5781 192.891 26.7812C193.797 26.9766 194.504 27.1875 195.012 27.4141V30.7422H194.648C194.023 30.3125 193.309 29.9648 192.504 29.6992C191.707 29.4258 190.898 29.2891 190.078 29.2891C189.398 29.2891 188.824 29.3828 188.355 29.5703C187.895 29.7578 187.664 30.0234 187.664 30.3672C187.664 30.6797 187.77 30.918 187.98 31.082C188.191 31.2461 188.688 31.4102 189.469 31.5742C189.898 31.6602 190.359 31.7461 190.852 31.832C191.352 31.9102 191.852 32.0117 192.352 32.1367C193.461 32.4258 194.281 32.8828 194.812 33.5078C195.344 34.125 195.609 34.8984 195.609 35.8281ZM211.641 40H207.398V33.4727C207.398 32.9414 207.371 32.4141 207.316 31.8906C207.262 31.3594 207.168 30.9688 207.035 30.7188C206.879 30.4297 206.648 30.2188 206.344 30.0859C206.047 29.9531 205.629 29.8867 205.09 29.8867C204.707 29.8867 204.316 29.9492 203.918 30.0742C203.527 30.1992 203.102 30.3984 202.641 30.6719V40H198.422V21.7656H202.641V28.293C203.391 27.707 204.109 27.2578 204.797 26.9453C205.492 26.6328 206.262 26.4766 207.105 26.4766C208.527 26.4766 209.637 26.8906 210.434 27.7188C211.238 28.5469 211.641 29.7852 211.641 31.4336V40Z" fill="#333333"/>
<path d="M5 76L12.5 83.5L25 68.5" stroke="#61B857" stroke-width="2" stroke-linecap="round" stroke-linejoin="round"/>
<path d="M49.9219 82.5H48.375V72.4766L45.1406 79.2969H44.2188L41.0078 72.4766V82.5H39.5625V70.8672H41.6719L44.7734 77.3438L47.7734 70.8672H49.9219V82.5ZM59.7109 82.5H58.25V81.5703C58.1198 81.6589 57.9427 81.7839 57.7188 81.9453C57.5 82.1016 57.2865 82.2266 57.0781 82.3203C56.8333 82.4401 56.5521 82.5391 56.2344 82.6172C55.9167 82.7005 55.5443 82.7422 55.1172 82.7422C54.3307 82.7422 53.6641 82.4818 53.1172 81.9609C52.5703 81.4401 52.2969 80.776 52.2969 79.9688C52.2969 79.3073 52.4375 78.7734 52.7188 78.3672C53.0052 77.9557 53.4115 77.6328 53.9375 77.3984C54.4688 77.1641 55.1068 77.0052 55.8516 76.9219C56.5964 76.8385 57.3958 76.776 58.25 76.7344V76.5078C58.25 76.1745 58.1901 75.8984 58.0703 75.6797C57.9557 75.4609 57.7891 75.2891 57.5703 75.1641C57.362 75.0443 57.112 74.9635 56.8203 74.9219C56.5286 74.8802 56.224 74.8594 55.9062 74.8594C55.5208 74.8594 55.0911 74.9115 54.6172 75.0156C54.1432 75.1146 53.6536 75.2604 53.1484 75.4531H53.0703V73.9609C53.3568 73.8828 53.7708 73.7969 54.3125 73.7031C54.8542 73.6094 55.388 73.5625 55.9141 73.5625C56.5286 73.5625 57.0625 73.6146 57.5156 73.7188C57.974 73.8177 58.3698 73.9896 58.7031 74.2344C59.0312 74.474 59.2812 74.7839 59.4531 75.1641C59.625 75.5443 59.7109 76.0156 59.7109 76.5781V82.5ZM58.25 80.3516V77.9219C57.8021 77.9479 57.2734 77.987 56.6641 78.0391C56.0599 78.0911 55.5807 78.1667 55.2266 78.2656C54.8047 78.3854 54.4635 78.5729 54.2031 78.8281C53.9427 79.0781 53.8125 79.4245 53.8125 79.8672C53.8125 80.3672 53.9635 80.7448 54.2656 81C54.5677 81.25 55.0286 81.375 55.6484 81.375C56.1641 81.375 56.6354 81.276 57.0625 81.0781C57.4896 80.875 57.8854 80.6328 58.25 80.3516ZM64.0234 82.5H62.5547V70.3438H64.0234V82.5ZM74.1641 82.5H72.6953V81.5312C72.2005 81.9219 71.7266 82.2214 71.2734 82.4297C70.8203 82.638 70.3203 82.7422 69.7734 82.7422C68.8568 82.7422 68.1432 82.4635 67.6328 81.9062C67.1224 81.3438 66.8672 80.5208 66.8672 79.4375V73.7734H68.3359V78.7422C68.3359 79.1849 68.3568 79.5651 68.3984 79.8828C68.4401 80.1953 68.5286 80.4635 68.6641 80.6875C68.8047 80.9167 68.987 81.0833 69.2109 81.1875C69.4349 81.2917 69.7604 81.3438 70.1875 81.3438C70.5677 81.3438 70.9818 81.2448 71.4297 81.0469C71.8828 80.849 72.3047 80.5964 72.6953 80.2891V73.7734H74.1641V82.5ZM89.7891 82.5H88.3203V77.5312C88.3203 77.1562 88.3021 76.7943 88.2656 76.4453C88.2344 76.0964 88.1641 75.8177 88.0547 75.6094C87.9349 75.3854 87.763 75.2161 87.5391 75.1016C87.3151 74.987 86.9922 74.9297 86.5703 74.9297C86.1589 74.9297 85.7474 75.0339 85.3359 75.2422C84.9245 75.4453 84.513 75.7057 84.1016 76.0234C84.1172 76.1432 84.1302 76.2839 84.1406 76.4453C84.151 76.6016 84.1562 76.7578 84.1562 76.9141V82.5H82.6875V77.5312C82.6875 77.1458 82.6693 76.7812 82.6328 76.4375C82.6016 76.0885 82.5312 75.8099 82.4219 75.6016C82.3021 75.3776 82.1302 75.2109 81.9062 75.1016C81.6823 74.987 81.3594 74.9297 80.9375 74.9297C80.5365 74.9297 80.1328 75.0286 79.7266 75.2266C79.3255 75.4245 78.9245 75.6771 78.5234 75.9844V82.5H77.0547V73.7734H78.5234V74.7422C78.9818 74.362 79.4375 74.0651 79.8906 73.8516C80.349 73.638 80.8359 73.5312 81.3516 73.5312C81.9453 73.5312 82.4479 73.6562 82.8594 73.9062C83.276 74.1562 83.5859 74.5026 83.7891 74.9453C84.3828 74.4453 84.9245 74.0859 85.4141 73.8672C85.9036 73.6432 86.4271 73.5312 86.9844 73.5312C87.9427 73.5312 88.6484 73.8229 89.1016 74.4062C89.5599 74.9844 89.7891 75.7943 89.7891 76.8359V82.5ZM100.055 78.1406C100.055 79.5625 99.6901 80.6849 98.9609 81.5078C98.2318 82.3307 97.2552 82.7422 96.0312 82.7422C94.7969 82.7422 93.8151 82.3307 93.0859 81.5078C92.362 80.6849 92 79.5625 92 78.1406C92 76.7188 92.362 75.5964 93.0859 74.7734C93.8151 73.9453 94.7969 73.5312 96.0312 73.5312C97.2552 73.5312 98.2318 73.9453 98.9609 74.7734C99.6901 75.5964 100.055 76.7188 100.055 78.1406ZM98.5391 78.1406C98.5391 77.0104 98.3177 76.1719 97.875 75.625C97.4323 75.0729 96.8177 74.7969 96.0312 74.7969C95.2344 74.7969 94.6146 75.0729 94.1719 75.625C93.7344 76.1719 93.5156 77.0104 93.5156 78.1406C93.5156 79.2344 93.737 80.0651 94.1797 80.6328C94.6224 81.1953 95.2396 81.4766 96.0312 81.4766C96.8125 81.4766 97.4245 81.1979 97.8672 80.6406C98.3151 80.0781 98.5391 79.2448 98.5391 78.1406ZM106.867 82.4219C106.591 82.4948 106.289 82.5547 105.961 82.6016C105.638 82.6484 105.349 82.6719 105.094 82.6719C104.203 82.6719 103.526 82.4323 103.062 81.9531C102.599 81.474 102.367 80.7057 102.367 79.6484V75.0078H101.375V73.7734H102.367V71.2656H103.836V73.7734H106.867V75.0078H103.836V78.9844C103.836 79.4427 103.846 79.8021 103.867 80.0625C103.888 80.3177 103.961 80.5573 104.086 80.7812C104.201 80.9896 104.357 81.1432 104.555 81.2422C104.758 81.3359 105.065 81.3828 105.477 81.3828C105.716 81.3828 105.966 81.349 106.227 81.2812C106.487 81.2083 106.674 81.1484 106.789 81.1016H106.867V82.4219ZM110.133 82.5H108.664V70.3438H110.133V82.5ZM119.82 82.5H118.359V81.5703C118.229 81.6589 118.052 81.7839 117.828 81.9453C117.609 82.1016 117.396 82.2266 117.188 82.3203C116.943 82.4401 116.661 82.5391 116.344 82.6172C116.026 82.7005 115.654 82.7422 115.227 82.7422C114.44 82.7422 113.773 82.4818 113.227 81.9609C112.68 81.4401 112.406 80.776 112.406 79.9688C112.406 79.3073 112.547 78.7734 112.828 78.3672C113.115 77.9557 113.521 77.6328 114.047 77.3984C114.578 77.1641 115.216 77.0052 115.961 76.9219C116.706 76.8385 117.505 76.776 118.359 76.7344V76.5078C118.359 76.1745 118.299 75.8984 118.18 75.6797C118.065 75.4609 117.898 75.2891 117.68 75.1641C117.471 75.0443 117.221 74.9635 116.93 74.9219C116.638 74.8802 116.333 74.8594 116.016 74.8594C115.63 74.8594 115.201 74.9115 114.727 75.0156C114.253 75.1146 113.763 75.2604 113.258 75.4531H113.18V73.9609C113.466 73.8828 113.88 73.7969 114.422 73.7031C114.964 73.6094 115.497 73.5625 116.023 73.5625C116.638 73.5625 117.172 73.6146 117.625 73.7188C118.083 73.8177 118.479 73.9896 118.812 74.2344C119.141 74.474 119.391 74.7839 119.562 75.1641C119.734 75.5443 119.82 76.0156 119.82 76.5781V82.5ZM118.359 80.3516V77.9219C117.911 77.9479 117.383 77.987 116.773 78.0391C116.169 78.0911 115.69 78.1667 115.336 78.2656C114.914 78.3854 114.573 78.5729 114.312 78.8281C114.052 79.0781 113.922 79.4245 113.922 79.8672C113.922 80.3672 114.073 80.7448 114.375 81C114.677 81.25 115.138 81.375 115.758 81.375C116.273 81.375 116.745 81.276 117.172 81.0781C117.599 80.875 117.995 80.6328 118.359 80.3516ZM128.094 75.375H128.016C127.797 75.3229 127.583 75.2865 127.375 75.2656C127.172 75.2396 126.93 75.2266 126.648 75.2266C126.195 75.2266 125.758 75.3281 125.336 75.5312C124.914 75.7292 124.508 75.987 124.117 76.3047V82.5H122.648V73.7734H124.117V75.0625C124.701 74.5938 125.214 74.263 125.656 74.0703C126.104 73.8724 126.56 73.7734 127.023 73.7734C127.279 73.7734 127.464 73.7812 127.578 73.7969C127.693 73.8073 127.865 73.8307 128.094 73.8672V75.375ZM142.781 78.0703C142.781 78.7995 142.677 79.4557 142.469 80.0391C142.266 80.6224 141.99 81.112 141.641 81.5078C141.271 81.9193 140.865 82.2292 140.422 82.4375C139.979 82.6406 139.492 82.7422 138.961 82.7422C138.466 82.7422 138.034 82.6823 137.664 82.5625C137.294 82.4479 136.93 82.2917 136.57 82.0938L136.477 82.5H135.102V70.3438H136.57V74.6875C136.982 74.349 137.419 74.0729 137.883 73.8594C138.346 73.6406 138.867 73.5312 139.445 73.5312C140.477 73.5312 141.289 73.9271 141.883 74.7188C142.482 75.5104 142.781 76.6276 142.781 78.0703ZM141.266 78.1094C141.266 77.0677 141.094 76.2786 140.75 75.7422C140.406 75.2005 139.852 74.9297 139.086 74.9297C138.659 74.9297 138.227 75.0234 137.789 75.2109C137.352 75.3932 136.945 75.6302 136.57 75.9219V80.9219C136.987 81.1094 137.344 81.2396 137.641 81.3125C137.943 81.3854 138.284 81.4219 138.664 81.4219C139.477 81.4219 140.112 81.1562 140.57 80.625C141.034 80.0885 141.266 79.25 141.266 78.1094ZM151.852 82.5H150.391V81.5703C150.26 81.6589 150.083 81.7839 149.859 81.9453C149.641 82.1016 149.427 82.2266 149.219 82.3203C148.974 82.4401 148.693 82.5391 148.375 82.6172C148.057 82.7005 147.685 82.7422 147.258 82.7422C146.471 82.7422 145.805 82.4818 145.258 81.9609C144.711 81.4401 144.438 80.776 144.438 79.9688C144.438 79.3073 144.578 78.7734 144.859 78.3672C145.146 77.9557 145.552 77.6328 146.078 77.3984C146.609 77.1641 147.247 77.0052 147.992 76.9219C148.737 76.8385 149.536 76.776 150.391 76.7344V76.5078C150.391 76.1745 150.331 75.8984 150.211 75.6797C150.096 75.4609 149.93 75.2891 149.711 75.1641C149.503 75.0443 149.253 74.9635 148.961 74.9219C148.669 74.8802 148.365 74.8594 148.047 74.8594C147.661 74.8594 147.232 74.9115 146.758 75.0156C146.284 75.1146 145.794 75.2604 145.289 75.4531H145.211V73.9609C145.497 73.8828 145.911 73.7969 146.453 73.7031C146.995 73.6094 147.529 73.5625 148.055 73.5625C148.669 73.5625 149.203 73.6146 149.656 73.7188C150.115 73.8177 150.51 73.9896 150.844 74.2344C151.172 74.474 151.422 74.7839 151.594 75.1641C151.766 75.5443 151.852 76.0156 151.852 76.5781V82.5ZM150.391 80.3516V77.9219C149.943 77.9479 149.414 77.987 148.805 78.0391C148.201 78.0911 147.721 78.1667 147.367 78.2656C146.945 78.3854 146.604 78.5729 146.344 78.8281C146.083 79.0781 145.953 79.4245 145.953 79.8672C145.953 80.3672 146.104 80.7448 146.406 81C146.708 81.25 147.169 81.375 147.789 81.375C148.305 81.375 148.776 81.276 149.203 81.0781C149.63 80.875 150.026 80.6328 150.391 80.3516ZM161.008 82.5H153.961V81.4141L159.047 75H154.07V73.7734H160.875V74.8203L155.766 81.2578H161.008V82.5ZM169.867 82.5H168.406V81.5703C168.276 81.6589 168.099 81.7839 167.875 81.9453C167.656 82.1016 167.443 82.2266 167.234 82.3203C166.99 82.4401 166.708 82.5391 166.391 82.6172C166.073 82.7005 165.701 82.7422 165.273 82.7422C164.487 82.7422 163.82 82.4818 163.273 81.9609C162.727 81.4401 162.453 80.776 162.453 79.9688C162.453 79.3073 162.594 78.7734 162.875 78.3672C163.161 77.9557 163.568 77.6328 164.094 77.3984C164.625 77.1641 165.263 77.0052 166.008 76.9219C166.753 76.8385 167.552 76.776 168.406 76.7344V76.5078C168.406 76.1745 168.346 75.8984 168.227 75.6797C168.112 75.4609 167.945 75.2891 167.727 75.1641C167.518 75.0443 167.268 74.9635 166.977 74.9219C166.685 74.8802 166.38 74.8594 166.062 74.8594C165.677 74.8594 165.247 74.9115 164.773 75.0156C164.299 75.1146 163.81 75.2604 163.305 75.4531H163.227V73.9609C163.513 73.8828 163.927 73.7969 164.469 73.7031C165.01 73.6094 165.544 73.5625 166.07 73.5625C166.685 73.5625 167.219 73.6146 167.672 73.7188C168.13 73.8177 168.526 73.9896 168.859 74.2344C169.188 74.474 169.438 74.7839 169.609 75.1641C169.781 75.5443 169.867 76.0156 169.867 76.5781V82.5ZM168.406 80.3516V77.9219C167.958 77.9479 167.43 77.987 166.82 78.0391C166.216 78.0911 165.737 78.1667 165.383 78.2656C164.961 78.3854 164.62 78.5729 164.359 78.8281C164.099 79.0781 163.969 79.4245 163.969 79.8672C163.969 80.3672 164.12 80.7448 164.422 81C164.724 81.25 165.185 81.375 165.805 81.375C166.32 81.375 166.792 81.276 167.219 81.0781C167.646 80.875 168.042 80.6328 168.406 80.3516ZM178.93 79.9844C178.93 80.7812 178.599 81.4349 177.938 81.9453C177.281 82.4557 176.383 82.7109 175.242 82.7109C174.596 82.7109 174.003 82.6354 173.461 82.4844C172.924 82.3281 172.474 82.1589 172.109 81.9766V80.3281H172.188C172.651 80.6771 173.167 80.9557 173.734 81.1641C174.302 81.3672 174.846 81.4688 175.367 81.4688C176.013 81.4688 176.518 81.3646 176.883 81.1562C177.247 80.9479 177.43 80.6198 177.43 80.1719C177.43 79.8281 177.331 79.5677 177.133 79.3906C176.935 79.2135 176.555 79.0625 175.992 78.9375C175.784 78.8906 175.51 78.8359 175.172 78.7734C174.839 78.7109 174.534 78.6432 174.258 78.5703C173.492 78.3672 172.948 78.0703 172.625 77.6797C172.307 77.2839 172.148 76.7995 172.148 76.2266C172.148 75.8672 172.221 75.5286 172.367 75.2109C172.518 74.8932 172.745 74.6094 173.047 74.3594C173.339 74.1146 173.708 73.9219 174.156 73.7812C174.609 73.6354 175.115 73.5625 175.672 73.5625C176.193 73.5625 176.719 73.6276 177.25 73.7578C177.786 73.8828 178.232 74.0365 178.586 74.2188V75.7891H178.508C178.133 75.513 177.677 75.2812 177.141 75.0938C176.604 74.901 176.078 74.8047 175.562 74.8047C175.026 74.8047 174.573 74.9089 174.203 75.1172C173.833 75.3203 173.648 75.625 173.648 76.0312C173.648 76.3906 173.76 76.6615 173.984 76.8438C174.203 77.026 174.557 77.1745 175.047 77.2891C175.318 77.3516 175.62 77.4141 175.953 77.4766C176.292 77.5391 176.573 77.5964 176.797 77.6484C177.479 77.8047 178.005 78.0729 178.375 78.4531C178.745 78.8385 178.93 79.349 178.93 79.9844ZM182.617 72.3125H180.961V70.7891H182.617V72.3125ZM182.523 82.5H181.055V73.7734H182.523V82.5Z" fill="#333333"/>
<path d="M5 122L12.5 129.5L25 114.5" stroke="#61B857" stroke-width="2" stroke-linecap="round" stroke-linejoin="round"/>
<path d="M49.9219 128.5H48.375V118.477L45.1406 125.297H44.2188L41.0078 118.477V128.5H39.5625V116.867H41.6719L44.7734 123.344L47.7734 116.867H49.9219V128.5ZM60.3672 124.141C60.3672 125.562 60.0026 126.685 59.2734 127.508C58.5443 128.331 57.5677 128.742 56.3438 128.742C55.1094 128.742 54.1276 128.331 53.3984 127.508C52.6745 126.685 52.3125 125.562 52.3125 124.141C52.3125 122.719 52.6745 121.596 53.3984 120.773C54.1276 119.945 55.1094 119.531 56.3438 119.531C57.5677 119.531 58.5443 119.945 59.2734 120.773C60.0026 121.596 60.3672 122.719 60.3672 124.141ZM58.8516 124.141C58.8516 123.01 58.6302 122.172 58.1875 121.625C57.7448 121.073 57.1302 120.797 56.3438 120.797C55.5469 120.797 54.9271 121.073 54.4844 121.625C54.0469 122.172 53.8281 123.01 53.8281 124.141C53.8281 125.234 54.0495 126.065 54.4922 126.633C54.9349 127.195 55.5521 127.477 56.3438 127.477C57.125 127.477 57.737 127.198 58.1797 126.641C58.6276 126.078 58.8516 125.245 58.8516 124.141ZM64.1328 128.5H62.6641V116.344H64.1328V128.5ZM68.6172 118.312H66.9609V116.789H68.6172V118.312ZM68.5234 128.5H67.0547V119.773H68.5234V128.5ZM78.9766 119.773L73.8828 131.719H72.3125L73.9375 128.078L70.4609 119.773H72.0547L74.7344 126.242L77.4375 119.773H78.9766ZM87.3672 128.5H85.9062V127.57C85.776 127.659 85.599 127.784 85.375 127.945C85.1562 128.102 84.9427 128.227 84.7344 128.32C84.4896 128.44 84.2083 128.539 83.8906 128.617C83.5729 128.701 83.2005 128.742 82.7734 128.742C81.987 128.742 81.3203 128.482 80.7734 127.961C80.2266 127.44 79.9531 126.776 79.9531 125.969C79.9531 125.307 80.0938 124.773 80.375 124.367C80.6615 123.956 81.0677 123.633 81.5938 123.398C82.125 123.164 82.763 123.005 83.5078 122.922C84.2526 122.839 85.0521 122.776 85.9062 122.734V122.508C85.9062 122.174 85.8464 121.898 85.7266 121.68C85.612 121.461 85.4453 121.289 85.2266 121.164C85.0182 121.044 84.7682 120.964 84.4766 120.922C84.1849 120.88 83.8802 120.859 83.5625 120.859C83.1771 120.859 82.7474 120.911 82.2734 121.016C81.7995 121.115 81.3099 121.26 80.8047 121.453H80.7266V119.961C81.013 119.883 81.4271 119.797 81.9688 119.703C82.5104 119.609 83.0443 119.562 83.5703 119.562C84.1849 119.562 84.7188 119.615 85.1719 119.719C85.6302 119.818 86.026 119.99 86.3594 120.234C86.6875 120.474 86.9375 120.784 87.1094 121.164C87.2812 121.544 87.3672 122.016 87.3672 122.578V128.5ZM85.9062 126.352V123.922C85.4583 123.948 84.9297 123.987 84.3203 124.039C83.7161 124.091 83.237 124.167 82.8828 124.266C82.4609 124.385 82.1198 124.573 81.8594 124.828C81.599 125.078 81.4688 125.424 81.4688 125.867C81.4688 126.367 81.6198 126.745 81.9219 127C82.224 127.25 82.6849 127.375 83.3047 127.375C83.8203 127.375 84.2917 127.276 84.7188 127.078C85.1458 126.875 85.5417 126.633 85.9062 126.352ZM97.6172 119.773L94.0859 128.5H92.6094L89.1016 119.773H90.6953L93.3984 126.719L96.0781 119.773H97.6172ZM101.117 118.312H99.4609V116.789H101.117V118.312ZM101.023 128.5H99.5547V119.773H101.023V128.5ZM111.477 119.773L106.383 131.719H104.812L106.438 128.078L102.961 119.773H104.555L107.234 126.242L109.938 119.773H111.477ZM131.758 128.5H130.289V123.531C130.289 123.156 130.271 122.794 130.234 122.445C130.203 122.096 130.133 121.818 130.023 121.609C129.904 121.385 129.732 121.216 129.508 121.102C129.284 120.987 128.961 120.93 128.539 120.93C128.128 120.93 127.716 121.034 127.305 121.242C126.893 121.445 126.482 121.706 126.07 122.023C126.086 122.143 126.099 122.284 126.109 122.445C126.12 122.602 126.125 122.758 126.125 122.914V128.5H124.656V123.531C124.656 123.146 124.638 122.781 124.602 122.438C124.57 122.089 124.5 121.81 124.391 121.602C124.271 121.378 124.099 121.211 123.875 121.102C123.651 120.987 123.328 120.93 122.906 120.93C122.505 120.93 122.102 121.029 121.695 121.227C121.294 121.424 120.893 121.677 120.492 121.984V128.5H119.023V119.773H120.492V120.742C120.951 120.362 121.406 120.065 121.859 119.852C122.318 119.638 122.805 119.531 123.32 119.531C123.914 119.531 124.417 119.656 124.828 119.906C125.245 120.156 125.555 120.503 125.758 120.945C126.352 120.445 126.893 120.086 127.383 119.867C127.872 119.643 128.396 119.531 128.953 119.531C129.911 119.531 130.617 119.823 131.07 120.406C131.529 120.984 131.758 121.794 131.758 122.836V128.5ZM141.367 128.5H139.906V127.57C139.776 127.659 139.599 127.784 139.375 127.945C139.156 128.102 138.943 128.227 138.734 128.32C138.49 128.44 138.208 128.539 137.891 128.617C137.573 128.701 137.201 128.742 136.773 128.742C135.987 128.742 135.32 128.482 134.773 127.961C134.227 127.44 133.953 126.776 133.953 125.969C133.953 125.307 134.094 124.773 134.375 124.367C134.661 123.956 135.068 123.633 135.594 123.398C136.125 123.164 136.763 123.005 137.508 122.922C138.253 122.839 139.052 122.776 139.906 122.734V122.508C139.906 122.174 139.846 121.898 139.727 121.68C139.612 121.461 139.445 121.289 139.227 121.164C139.018 121.044 138.768 120.964 138.477 120.922C138.185 120.88 137.88 120.859 137.562 120.859C137.177 120.859 136.747 120.911 136.273 121.016C135.799 121.115 135.31 121.26 134.805 121.453H134.727V119.961C135.013 119.883 135.427 119.797 135.969 119.703C136.51 119.609 137.044 119.562 137.57 119.562C138.185 119.562 138.719 119.615 139.172 119.719C139.63 119.818 140.026 119.99 140.359 120.234C140.688 120.474 140.938 120.784 141.109 121.164C141.281 121.544 141.367 122.016 141.367 122.578V128.5ZM139.906 126.352V123.922C139.458 123.948 138.93 123.987 138.32 124.039C137.716 124.091 137.237 124.167 136.883 124.266C136.461 124.385 136.12 124.573 135.859 124.828C135.599 125.078 135.469 125.424 135.469 125.867C135.469 126.367 135.62 126.745 135.922 127C136.224 127.25 136.685 127.375 137.305 127.375C137.82 127.375 138.292 127.276 138.719 127.078C139.146 126.875 139.542 126.633 139.906 126.352ZM150.43 125.984C150.43 126.781 150.099 127.435 149.438 127.945C148.781 128.456 147.883 128.711 146.742 128.711C146.096 128.711 145.503 128.635 144.961 128.484C144.424 128.328 143.974 128.159 143.609 127.977V126.328H143.688C144.151 126.677 144.667 126.956 145.234 127.164C145.802 127.367 146.346 127.469 146.867 127.469C147.513 127.469 148.018 127.365 148.383 127.156C148.747 126.948 148.93 126.62 148.93 126.172C148.93 125.828 148.831 125.568 148.633 125.391C148.435 125.214 148.055 125.062 147.492 124.938C147.284 124.891 147.01 124.836 146.672 124.773C146.339 124.711 146.034 124.643 145.758 124.57C144.992 124.367 144.448 124.07 144.125 123.68C143.807 123.284 143.648 122.799 143.648 122.227C143.648 121.867 143.721 121.529 143.867 121.211C144.018 120.893 144.245 120.609 144.547 120.359C144.839 120.115 145.208 119.922 145.656 119.781C146.109 119.635 146.615 119.562 147.172 119.562C147.693 119.562 148.219 119.628 148.75 119.758C149.286 119.883 149.732 120.036 150.086 120.219V121.789H150.008C149.633 121.513 149.177 121.281 148.641 121.094C148.104 120.901 147.578 120.805 147.062 120.805C146.526 120.805 146.073 120.909 145.703 121.117C145.333 121.32 145.148 121.625 145.148 122.031C145.148 122.391 145.26 122.661 145.484 122.844C145.703 123.026 146.057 123.174 146.547 123.289C146.818 123.352 147.12 123.414 147.453 123.477C147.792 123.539 148.073 123.596 148.297 123.648C148.979 123.805 149.505 124.073 149.875 124.453C150.245 124.839 150.43 125.349 150.43 125.984ZM154.023 128.5H152.555V116.344H154.023V128.5ZM163.711 128.5H162.25V127.57C162.12 127.659 161.943 127.784 161.719 127.945C161.5 128.102 161.286 128.227 161.078 128.32C160.833 128.44 160.552 128.539 160.234 128.617C159.917 128.701 159.544 128.742 159.117 128.742C158.331 128.742 157.664 128.482 157.117 127.961C156.57 127.44 156.297 126.776 156.297 125.969C156.297 125.307 156.438 124.773 156.719 124.367C157.005 123.956 157.411 123.633 157.938 123.398C158.469 123.164 159.107 123.005 159.852 122.922C160.596 122.839 161.396 122.776 162.25 122.734V122.508C162.25 122.174 162.19 121.898 162.07 121.68C161.956 121.461 161.789 121.289 161.57 121.164C161.362 121.044 161.112 120.964 160.82 120.922C160.529 120.88 160.224 120.859 159.906 120.859C159.521 120.859 159.091 120.911 158.617 121.016C158.143 121.115 157.654 121.26 157.148 121.453H157.07V119.961C157.357 119.883 157.771 119.797 158.312 119.703C158.854 119.609 159.388 119.562 159.914 119.562C160.529 119.562 161.062 119.615 161.516 119.719C161.974 119.818 162.37 119.99 162.703 120.234C163.031 120.474 163.281 120.784 163.453 121.164C163.625 121.544 163.711 122.016 163.711 122.578V128.5ZM162.25 126.352V123.922C161.802 123.948 161.273 123.987 160.664 124.039C160.06 124.091 159.581 124.167 159.227 124.266C158.805 124.385 158.464 124.573 158.203 124.828C157.943 125.078 157.812 125.424 157.812 125.867C157.812 126.367 157.964 126.745 158.266 127C158.568 127.25 159.029 127.375 159.648 127.375C160.164 127.375 160.635 127.276 161.062 127.078C161.49 126.875 161.885 126.633 162.25 126.352ZM173.836 128.5H172.367V123.531C172.367 123.13 172.344 122.755 172.297 122.406C172.25 122.052 172.164 121.776 172.039 121.578C171.909 121.359 171.721 121.198 171.477 121.094C171.232 120.984 170.914 120.93 170.523 120.93C170.122 120.93 169.703 121.029 169.266 121.227C168.828 121.424 168.409 121.677 168.008 121.984V128.5H166.539V116.344H168.008V120.742C168.466 120.362 168.94 120.065 169.43 119.852C169.919 119.638 170.422 119.531 170.938 119.531C171.88 119.531 172.599 119.815 173.094 120.383C173.589 120.951 173.836 121.768 173.836 122.836V128.5ZM183.445 128.5H181.984V127.57C181.854 127.659 181.677 127.784 181.453 127.945C181.234 128.102 181.021 128.227 180.812 128.32C180.568 128.44 180.286 128.539 179.969 128.617C179.651 128.701 179.279 128.742 178.852 128.742C178.065 128.742 177.398 128.482 176.852 127.961C176.305 127.44 176.031 126.776 176.031 125.969C176.031 125.307 176.172 124.773 176.453 124.367C176.74 123.956 177.146 123.633 177.672 123.398C178.203 123.164 178.841 123.005 179.586 122.922C180.331 122.839 181.13 122.776 181.984 122.734V122.508C181.984 122.174 181.924 121.898 181.805 121.68C181.69 121.461 181.523 121.289 181.305 121.164C181.096 121.044 180.846 120.964 180.555 120.922C180.263 120.88 179.958 120.859 179.641 120.859C179.255 120.859 178.826 120.911 178.352 121.016C177.878 121.115 177.388 121.26 176.883 121.453H176.805V119.961C177.091 119.883 177.505 119.797 178.047 119.703C178.589 119.609 179.122 119.562 179.648 119.562C180.263 119.562 180.797 119.615 181.25 119.719C181.708 119.818 182.104 119.99 182.438 120.234C182.766 120.474 183.016 120.784 183.188 121.164C183.359 121.544 183.445 122.016 183.445 122.578V128.5ZM181.984 126.352V123.922C181.536 123.948 181.008 123.987 180.398 124.039C179.794 124.091 179.315 124.167 178.961 124.266C178.539 124.385 178.198 124.573 177.938 124.828C177.677 125.078 177.547 125.424 177.547 125.867C177.547 126.367 177.698 126.745 178 127C178.302 127.25 178.763 127.375 179.383 127.375C179.898 127.375 180.37 127.276 180.797 127.078C181.224 126.875 181.62 126.633 181.984 126.352ZM190.805 128.422C190.529 128.495 190.227 128.555 189.898 128.602C189.576 128.648 189.286 128.672 189.031 128.672C188.141 128.672 187.464 128.432 187 127.953C186.536 127.474 186.305 126.706 186.305 125.648V121.008H185.312V119.773H186.305V117.266H187.773V119.773H190.805V121.008H187.773V124.984C187.773 125.443 187.784 125.802 187.805 126.062C187.826 126.318 187.898 126.557 188.023 126.781C188.138 126.99 188.294 127.143 188.492 127.242C188.695 127.336 189.003 127.383 189.414 127.383C189.654 127.383 189.904 127.349 190.164 127.281C190.424 127.208 190.612 127.148 190.727 127.102H190.805V128.422Z" fill="#333333"/>
<path d="M5 168L12.5 175.5L25 160.5" stroke="#61B857" stroke-width="2" stroke-linecap="round" stroke-linejoin="round"/>
<path d="M49.9219 169H48.375V158.977L45.1406 165.797H44.2188L41.0078 158.977V169H39.5625V157.367H41.6719L44.7734 163.844L47.7734 157.367H49.9219V169ZM60.3672 164.641C60.3672 166.062 60.0026 167.185 59.2734 168.008C58.5443 168.831 57.5677 169.242 56.3438 169.242C55.1094 169.242 54.1276 168.831 53.3984 168.008C52.6745 167.185 52.3125 166.062 52.3125 164.641C52.3125 163.219 52.6745 162.096 53.3984 161.273C54.1276 160.445 55.1094 160.031 56.3438 160.031C57.5677 160.031 58.5443 160.445 59.2734 161.273C60.0026 162.096 60.3672 163.219 60.3672 164.641ZM58.8516 164.641C58.8516 163.51 58.6302 162.672 58.1875 162.125C57.7448 161.573 57.1302 161.297 56.3438 161.297C55.5469 161.297 54.9271 161.573 54.4844 162.125C54.0469 162.672 53.8281 163.51 53.8281 164.641C53.8281 165.734 54.0495 166.565 54.4922 167.133C54.9349 167.695 55.5521 167.977 56.3438 167.977C57.125 167.977 57.737 167.698 58.1797 167.141C58.6276 166.578 58.8516 165.745 58.8516 164.641ZM64.1328 169H62.6641V156.844H64.1328V169ZM68.6172 158.812H66.9609V157.289H68.6172V158.812ZM68.5234 169H67.0547V160.273H68.5234V169ZM78.9766 160.273L73.8828 172.219H72.3125L73.9375 168.578L70.4609 160.273H72.0547L74.7344 166.742L77.4375 160.273H78.9766ZM87.3672 169H85.9062V168.07C85.776 168.159 85.599 168.284 85.375 168.445C85.1562 168.602 84.9427 168.727 84.7344 168.82C84.4896 168.94 84.2083 169.039 83.8906 169.117C83.5729 169.201 83.2005 169.242 82.7734 169.242C81.987 169.242 81.3203 168.982 80.7734 168.461C80.2266 167.94 79.9531 167.276 79.9531 166.469C79.9531 165.807 80.0938 165.273 80.375 164.867C80.6615 164.456 81.0677 164.133 81.5938 163.898C82.125 163.664 82.763 163.505 83.5078 163.422C84.2526 163.339 85.0521 163.276 85.9062 163.234V163.008C85.9062 162.674 85.8464 162.398 85.7266 162.18C85.612 161.961 85.4453 161.789 85.2266 161.664C85.0182 161.544 84.7682 161.464 84.4766 161.422C84.1849 161.38 83.8802 161.359 83.5625 161.359C83.1771 161.359 82.7474 161.411 82.2734 161.516C81.7995 161.615 81.3099 161.76 80.8047 161.953H80.7266V160.461C81.013 160.383 81.4271 160.297 81.9688 160.203C82.5104 160.109 83.0443 160.062 83.5703 160.062C84.1849 160.062 84.7188 160.115 85.1719 160.219C85.6302 160.318 86.026 160.49 86.3594 160.734C86.6875 160.974 86.9375 161.284 87.1094 161.664C87.2812 162.044 87.3672 162.516 87.3672 163.078V169ZM85.9062 166.852V164.422C85.4583 164.448 84.9297 164.487 84.3203 164.539C83.7161 164.591 83.237 164.667 82.8828 164.766C82.4609 164.885 82.1198 165.073 81.8594 165.328C81.599 165.578 81.4688 165.924 81.4688 166.367C81.4688 166.867 81.6198 167.245 81.9219 167.5C82.224 167.75 82.6849 167.875 83.3047 167.875C83.8203 167.875 84.2917 167.776 84.7188 167.578C85.1458 167.375 85.5417 167.133 85.9062 166.852ZM97.6172 160.273L94.0859 169H92.6094L89.1016 160.273H90.6953L93.3984 167.219L96.0781 160.273H97.6172ZM101.117 158.812H99.4609V157.289H101.117V158.812ZM101.023 169H99.5547V160.273H101.023V169ZM111.477 160.273L106.383 172.219H104.812L106.438 168.578L102.961 160.273H104.555L107.234 166.742L109.938 160.273H111.477ZM127.594 165.68C127.594 166.133 127.487 166.581 127.273 167.023C127.065 167.466 126.771 167.841 126.391 168.148C125.974 168.482 125.487 168.742 124.93 168.93C124.378 169.117 123.711 169.211 122.93 169.211C122.091 169.211 121.336 169.133 120.664 168.977C119.997 168.82 119.318 168.589 118.625 168.281V166.344H118.734C119.323 166.833 120.003 167.211 120.773 167.477C121.544 167.742 122.268 167.875 122.945 167.875C123.904 167.875 124.648 167.695 125.18 167.336C125.716 166.977 125.984 166.497 125.984 165.898C125.984 165.383 125.857 165.003 125.602 164.758C125.352 164.513 124.969 164.323 124.453 164.188C124.062 164.083 123.638 163.997 123.18 163.93C122.727 163.862 122.245 163.776 121.734 163.672C120.703 163.453 119.938 163.081 119.438 162.555C118.943 162.023 118.695 161.333 118.695 160.484C118.695 159.51 119.107 158.714 119.93 158.094C120.753 157.469 121.797 157.156 123.062 157.156C123.88 157.156 124.63 157.234 125.312 157.391C125.995 157.547 126.599 157.74 127.125 157.969V159.797H127.016C126.573 159.422 125.99 159.112 125.266 158.867C124.547 158.617 123.81 158.492 123.055 158.492C122.227 158.492 121.56 158.664 121.055 159.008C120.555 159.352 120.305 159.794 120.305 160.336C120.305 160.82 120.43 161.201 120.68 161.477C120.93 161.753 121.37 161.964 122 162.109C122.333 162.182 122.807 162.271 123.422 162.375C124.036 162.479 124.557 162.586 124.984 162.695C125.849 162.924 126.5 163.271 126.938 163.734C127.375 164.198 127.594 164.846 127.594 165.68ZM136.742 169H135.281V168.07C135.151 168.159 134.974 168.284 134.75 168.445C134.531 168.602 134.318 168.727 134.109 168.82C133.865 168.94 133.583 169.039 133.266 169.117C132.948 169.201 132.576 169.242 132.148 169.242C131.362 169.242 130.695 168.982 130.148 168.461C129.602 167.94 129.328 167.276 129.328 166.469C129.328 165.807 129.469 165.273 129.75 164.867C130.036 164.456 130.443 164.133 130.969 163.898C131.5 163.664 132.138 163.505 132.883 163.422C133.628 163.339 134.427 163.276 135.281 163.234V163.008C135.281 162.674 135.221 162.398 135.102 162.18C134.987 161.961 134.82 161.789 134.602 161.664C134.393 161.544 134.143 161.464 133.852 161.422C133.56 161.38 133.255 161.359 132.938 161.359C132.552 161.359 132.122 161.411 131.648 161.516C131.174 161.615 130.685 161.76 130.18 161.953H130.102V160.461C130.388 160.383 130.802 160.297 131.344 160.203C131.885 160.109 132.419 160.062 132.945 160.062C133.56 160.062 134.094 160.115 134.547 160.219C135.005 160.318 135.401 160.49 135.734 160.734C136.062 160.974 136.312 161.284 136.484 161.664C136.656 162.044 136.742 162.516 136.742 163.078V169ZM135.281 166.852V164.422C134.833 164.448 134.305 164.487 133.695 164.539C133.091 164.591 132.612 164.667 132.258 164.766C131.836 164.885 131.495 165.073 131.234 165.328C130.974 165.578 130.844 165.924 130.844 166.367C130.844 166.867 130.995 167.245 131.297 167.5C131.599 167.75 132.06 167.875 132.68 167.875C133.195 167.875 133.667 167.776 134.094 167.578C134.521 167.375 134.917 167.133 135.281 166.852ZM146.992 160.273L143.461 169H141.984L138.477 160.273H140.07L142.773 167.219L145.453 160.273H146.992ZM156.211 164.641C156.211 166.062 155.846 167.185 155.117 168.008C154.388 168.831 153.411 169.242 152.188 169.242C150.953 169.242 149.971 168.831 149.242 168.008C148.518 167.185 148.156 166.062 148.156 164.641C148.156 163.219 148.518 162.096 149.242 161.273C149.971 160.445 150.953 160.031 152.188 160.031C153.411 160.031 154.388 160.445 155.117 161.273C155.846 162.096 156.211 163.219 156.211 164.641ZM154.695 164.641C154.695 163.51 154.474 162.672 154.031 162.125C153.589 161.573 152.974 161.297 152.188 161.297C151.391 161.297 150.771 161.573 150.328 162.125C149.891 162.672 149.672 163.51 149.672 164.641C149.672 165.734 149.893 166.565 150.336 167.133C150.779 167.695 151.396 167.977 152.188 167.977C152.969 167.977 153.581 167.698 154.023 167.141C154.471 166.578 154.695 165.745 154.695 164.641ZM165.57 169H164.102V168.086C163.68 168.451 163.24 168.734 162.781 168.938C162.323 169.141 161.826 169.242 161.289 169.242C160.247 169.242 159.419 168.841 158.805 168.039C158.195 167.237 157.891 166.125 157.891 164.703C157.891 163.964 157.995 163.305 158.203 162.727C158.417 162.148 158.703 161.656 159.062 161.25C159.417 160.854 159.828 160.552 160.297 160.344C160.771 160.135 161.26 160.031 161.766 160.031C162.224 160.031 162.63 160.081 162.984 160.18C163.339 160.273 163.711 160.422 164.102 160.625V156.844H165.57V169ZM164.102 166.852V161.844C163.706 161.667 163.352 161.544 163.039 161.477C162.727 161.409 162.385 161.375 162.016 161.375C161.193 161.375 160.552 161.661 160.094 162.234C159.635 162.807 159.406 163.62 159.406 164.672C159.406 165.708 159.583 166.497 159.938 167.039C160.292 167.576 160.859 167.844 161.641 167.844C162.057 167.844 162.479 167.753 162.906 167.57C163.333 167.383 163.732 167.143 164.102 166.852ZM176.016 169H174.164L171.688 165.648L169.195 169H167.484L170.891 164.648L167.516 160.273H169.367L171.828 163.57L174.297 160.273H176.016L172.586 164.57L176.016 169ZM185.18 164.641C185.18 166.062 184.815 167.185 184.086 168.008C183.357 168.831 182.38 169.242 181.156 169.242C179.922 169.242 178.94 168.831 178.211 168.008C177.487 167.185 177.125 166.062 177.125 164.641C177.125 163.219 177.487 162.096 178.211 161.273C178.94 160.445 179.922 160.031 181.156 160.031C182.38 160.031 183.357 160.445 184.086 161.273C184.815 162.096 185.18 163.219 185.18 164.641ZM183.664 164.641C183.664 163.51 183.443 162.672 183 162.125C182.557 161.573 181.943 161.297 181.156 161.297C180.359 161.297 179.74 161.573 179.297 162.125C178.859 162.672 178.641 163.51 178.641 164.641C178.641 165.734 178.862 166.565 179.305 167.133C179.747 167.695 180.365 167.977 181.156 167.977C181.938 167.977 182.549 167.698 182.992 167.141C183.44 166.578 183.664 165.745 183.664 164.641ZM194.758 169H193.289V164.031C193.289 163.63 193.266 163.255 193.219 162.906C193.172 162.552 193.086 162.276 192.961 162.078C192.831 161.859 192.643 161.698 192.398 161.594C192.154 161.484 191.836 161.43 191.445 161.43C191.044 161.43 190.625 161.529 190.188 161.727C189.75 161.924 189.331 162.177 188.93 162.484V169H187.461V160.273H188.93V161.242C189.388 160.862 189.862 160.565 190.352 160.352C190.841 160.138 191.344 160.031 191.859 160.031C192.802 160.031 193.521 160.315 194.016 160.883C194.51 161.451 194.758 162.268 194.758 163.336V169ZM199.07 169H197.602V156.844H199.07V169ZM203.555 158.812H201.898V157.289H203.555V158.812ZM203.461 169H201.992V160.273H203.461V169ZM214.289 169H212.352L208.852 165.18L207.898 166.086V169H206.43V156.844H207.898V164.641L212.141 160.273H213.992L209.938 164.305L214.289 169ZM48.9141 188H46.9062L42.3047 182.82L41.1484 184.055V188H39.6016V176.367H41.1484V182.438L46.7969 176.367H48.6719L43.4766 181.836L48.9141 188ZM57.3828 188H55.9141V187.031C55.4193 187.422 54.9453 187.721 54.4922 187.93C54.0391 188.138 53.5391 188.242 52.9922 188.242C52.0755 188.242 51.362 187.964 50.8516 187.406C50.3411 186.844 50.0859 186.021 50.0859 184.938V179.273H51.5547V184.242C51.5547 184.685 51.5755 185.065 51.6172 185.383C51.6589 185.695 51.7474 185.964 51.8828 186.188C52.0234 186.417 52.2057 186.583 52.4297 186.688C52.6536 186.792 52.9792 186.844 53.4062 186.844C53.7865 186.844 54.2005 186.745 54.6484 186.547C55.1016 186.349 55.5234 186.096 55.9141 185.789V179.273H57.3828V188ZM65.7188 180.875H65.6406C65.4219 180.823 65.2083 180.786 65 180.766C64.7969 180.74 64.5547 180.727 64.2734 180.727C63.8203 180.727 63.3828 180.828 62.9609 181.031C62.5391 181.229 62.1328 181.487 61.7422 181.805V188H60.2734V179.273H61.7422V180.562C62.3255 180.094 62.8385 179.763 63.2812 179.57C63.7292 179.372 64.1849 179.273 64.6484 179.273C64.9036 179.273 65.0885 179.281 65.2031 179.297C65.3177 179.307 65.4896 179.331 65.7188 179.367V180.875ZM73.3359 185.484C73.3359 186.281 73.0052 186.935 72.3438 187.445C71.6875 187.956 70.7891 188.211 69.6484 188.211C69.0026 188.211 68.4089 188.135 67.8672 187.984C67.3307 187.828 66.8802 187.659 66.5156 187.477V185.828H66.5938C67.0573 186.177 67.5729 186.456 68.1406 186.664C68.7083 186.867 69.2526 186.969 69.7734 186.969C70.4193 186.969 70.9245 186.865 71.2891 186.656C71.6536 186.448 71.8359 186.12 71.8359 185.672C71.8359 185.328 71.737 185.068 71.5391 184.891C71.3411 184.714 70.9609 184.562 70.3984 184.438C70.1901 184.391 69.9167 184.336 69.5781 184.273C69.2448 184.211 68.9401 184.143 68.6641 184.07C67.8984 183.867 67.3542 183.57 67.0312 183.18C66.7135 182.784 66.5547 182.299 66.5547 181.727C66.5547 181.367 66.6276 181.029 66.7734 180.711C66.9245 180.393 67.151 180.109 67.4531 179.859C67.7448 179.615 68.1146 179.422 68.5625 179.281C69.0156 179.135 69.5208 179.062 70.0781 179.062C70.599 179.062 71.125 179.128 71.6562 179.258C72.1927 179.383 72.638 179.536 72.9922 179.719V181.289H72.9141C72.5391 181.013 72.0833 180.781 71.5469 180.594C71.0104 180.401 70.4844 180.305 69.9688 180.305C69.4323 180.305 68.9792 180.409 68.6094 180.617C68.2396 180.82 68.0547 181.125 68.0547 181.531C68.0547 181.891 68.1667 182.161 68.3906 182.344C68.6094 182.526 68.9635 182.674 69.4531 182.789C69.724 182.852 70.026 182.914 70.3594 182.977C70.6979 183.039 70.9792 183.096 71.2031 183.148C71.8854 183.305 72.4115 183.573 72.7812 183.953C73.151 184.339 73.3359 184.849 73.3359 185.484ZM76.9297 188H75.4609V175.844H76.9297V188ZM86.6172 188H85.1562V187.07C85.026 187.159 84.849 187.284 84.625 187.445C84.4062 187.602 84.1927 187.727 83.9844 187.82C83.7396 187.94 83.4583 188.039 83.1406 188.117C82.8229 188.201 82.4505 188.242 82.0234 188.242C81.237 188.242 80.5703 187.982 80.0234 187.461C79.4766 186.94 79.2031 186.276 79.2031 185.469C79.2031 184.807 79.3438 184.273 79.625 183.867C79.9115 183.456 80.3177 183.133 80.8438 182.898C81.375 182.664 82.013 182.505 82.7578 182.422C83.5026 182.339 84.3021 182.276 85.1562 182.234V182.008C85.1562 181.674 85.0964 181.398 84.9766 181.18C84.862 180.961 84.6953 180.789 84.4766 180.664C84.2682 180.544 84.0182 180.464 83.7266 180.422C83.4349 180.38 83.1302 180.359 82.8125 180.359C82.4271 180.359 81.9974 180.411 81.5234 180.516C81.0495 180.615 80.5599 180.76 80.0547 180.953H79.9766V179.461C80.263 179.383 80.6771 179.297 81.2188 179.203C81.7604 179.109 82.2943 179.062 82.8203 179.062C83.4349 179.062 83.9688 179.115 84.4219 179.219C84.8802 179.318 85.276 179.49 85.6094 179.734C85.9375 179.974 86.1875 180.284 86.3594 180.664C86.5312 181.044 86.6172 181.516 86.6172 182.078V188ZM85.1562 185.852V183.422C84.7083 183.448 84.1797 183.487 83.5703 183.539C82.9661 183.591 82.487 183.667 82.1328 183.766C81.7109 183.885 81.3698 184.073 81.1094 184.328C80.849 184.578 80.7188 184.924 80.7188 185.367C80.7188 185.867 80.8698 186.245 81.1719 186.5C81.474 186.75 81.9349 186.875 82.5547 186.875C83.0703 186.875 83.5417 186.776 83.9688 186.578C84.3958 186.375 84.7917 186.133 85.1562 185.852ZM94.8906 180.875H94.8125C94.5938 180.823 94.3802 180.786 94.1719 180.766C93.9688 180.74 93.7266 180.727 93.4453 180.727C92.9922 180.727 92.5547 180.828 92.1328 181.031C91.7109 181.229 91.3047 181.487 90.9141 181.805V188H89.4453V179.273H90.9141V180.562C91.4974 180.094 92.0104 179.763 92.4531 179.57C92.901 179.372 93.3568 179.273 93.8203 179.273C94.0755 179.273 94.2604 179.281 94.375 179.297C94.4896 179.307 94.6615 179.331 94.8906 179.367V180.875ZM97.8516 177.812H96.1953V176.289H97.8516V177.812ZM97.7578 188H96.2891V179.273H97.7578V188Z" fill="#333333"/>
<path d="M5 222L12.5 229.5L25 214.5" stroke="#61B857" stroke-width="2" stroke-linecap="round" stroke-linejoin="round"/>
<path d="M47.8594 212.742H43.7031V223H42.1562V212.742H38V211.367H47.8594V212.742ZM54.2109 223H52.75V222.07C52.6198 222.159 52.4427 222.284 52.2188 222.445C52 222.602 51.7865 222.727 51.5781 222.82C51.3333 222.94 51.0521 223.039 50.7344 223.117C50.4167 223.201 50.0443 223.242 49.6172 223.242C48.8307 223.242 48.1641 222.982 47.6172 222.461C47.0703 221.94 46.7969 221.276 46.7969 220.469C46.7969 219.807 46.9375 219.273 47.2188 218.867C47.5052 218.456 47.9115 218.133 48.4375 217.898C48.9688 217.664 49.6068 217.505 50.3516 217.422C51.0964 217.339 51.8958 217.276 52.75 217.234V217.008C52.75 216.674 52.6901 216.398 52.5703 216.18C52.4557 215.961 52.2891 215.789 52.0703 215.664C51.862 215.544 51.612 215.464 51.3203 215.422C51.0286 215.38 50.724 215.359 50.4062 215.359C50.0208 215.359 49.5911 215.411 49.1172 215.516C48.6432 215.615 48.1536 215.76 47.6484 215.953H47.5703V214.461C47.8568 214.383 48.2708 214.297 48.8125 214.203C49.3542 214.109 49.888 214.062 50.4141 214.062C51.0286 214.062 51.5625 214.115 52.0156 214.219C52.474 214.318 52.8698 214.49 53.2031 214.734C53.5312 214.974 53.7812 215.284 53.9531 215.664C54.125 216.044 54.2109 216.516 54.2109 217.078V223ZM52.75 220.852V218.422C52.3021 218.448 51.7734 218.487 51.1641 218.539C50.5599 218.591 50.0807 218.667 49.7266 218.766C49.3047 218.885 48.9635 219.073 48.7031 219.328C48.4427 219.578 48.3125 219.924 48.3125 220.367C48.3125 220.867 48.4635 221.245 48.7656 221.5C49.0677 221.75 49.5286 221.875 50.1484 221.875C50.6641 221.875 51.1354 221.776 51.5625 221.578C51.9896 221.375 52.3854 221.133 52.75 220.852ZM64.1172 223H62.6484V222.086C62.2266 222.451 61.7865 222.734 61.3281 222.938C60.8698 223.141 60.3724 223.242 59.8359 223.242C58.7943 223.242 57.9661 222.841 57.3516 222.039C56.7422 221.237 56.4375 220.125 56.4375 218.703C56.4375 217.964 56.5417 217.305 56.75 216.727C56.9635 216.148 57.25 215.656 57.6094 215.25C57.9635 214.854 58.375 214.552 58.8438 214.344C59.3177 214.135 59.8073 214.031 60.3125 214.031C60.7708 214.031 61.1771 214.081 61.5312 214.18C61.8854 214.273 62.2578 214.422 62.6484 214.625V210.844H64.1172V223ZM62.6484 220.852V215.844C62.2526 215.667 61.8984 215.544 61.5859 215.477C61.2734 215.409 60.9323 215.375 60.5625 215.375C59.7396 215.375 59.099 215.661 58.6406 216.234C58.1823 216.807 57.9531 217.62 57.9531 218.672C57.9531 219.708 58.1302 220.497 58.4844 221.039C58.8385 221.576 59.4062 221.844 60.1875 221.844C60.6042 221.844 61.026 221.753 61.4531 221.57C61.8802 221.383 62.2786 221.143 62.6484 220.852ZM74.6875 218.57C74.6875 219.299 74.5833 219.956 74.375 220.539C74.1719 221.122 73.8958 221.612 73.5469 222.008C73.1771 222.419 72.7708 222.729 72.3281 222.938C71.8854 223.141 71.3984 223.242 70.8672 223.242C70.3724 223.242 69.9401 223.182 69.5703 223.062C69.2005 222.948 68.8359 222.792 68.4766 222.594L68.3828 223H67.0078V210.844H68.4766V215.188C68.888 214.849 69.3255 214.573 69.7891 214.359C70.2526 214.141 70.7734 214.031 71.3516 214.031C72.3828 214.031 73.1953 214.427 73.7891 215.219C74.388 216.01 74.6875 217.128 74.6875 218.57ZM73.1719 218.609C73.1719 217.568 73 216.779 72.6562 216.242C72.3125 215.701 71.7578 215.43 70.9922 215.43C70.5651 215.43 70.1328 215.523 69.6953 215.711C69.2578 215.893 68.8516 216.13 68.4766 216.422V221.422C68.8932 221.609 69.25 221.74 69.5469 221.812C69.849 221.885 70.1901 221.922 70.5703 221.922C71.3828 221.922 72.0182 221.656 72.4766 221.125C72.9401 220.589 73.1719 219.75 73.1719 218.609ZM78.5547 212.812H76.8984V211.289H78.5547V212.812ZM78.4609 223H76.9922V214.273H78.4609V223ZM86.8125 215.875H86.7344C86.5156 215.823 86.3021 215.786 86.0938 215.766C85.8906 215.74 85.6484 215.727 85.3672 215.727C84.9141 215.727 84.4766 215.828 84.0547 216.031C83.6328 216.229 83.2266 216.487 82.8359 216.805V223H81.3672V214.273H82.8359V215.562C83.4193 215.094 83.9323 214.763 84.375 214.57C84.8229 214.372 85.2786 214.273 85.7422 214.273C85.9974 214.273 86.1823 214.281 86.2969 214.297C86.4115 214.307 86.5833 214.331 86.8125 214.367V215.875ZM96.1172 223H94.1797L90.6797 219.18L89.7266 220.086V223H88.2578V210.844H89.7266V218.641L93.9688 214.273H95.8203L91.7656 218.305L96.1172 223ZM104.945 218.641C104.945 220.062 104.581 221.185 103.852 222.008C103.122 222.831 102.146 223.242 100.922 223.242C99.6875 223.242 98.7057 222.831 97.9766 222.008C97.2526 221.185 96.8906 220.062 96.8906 218.641C96.8906 217.219 97.2526 216.096 97.9766 215.273C98.7057 214.445 99.6875 214.031 100.922 214.031C102.146 214.031 103.122 214.445 103.852 215.273C104.581 216.096 104.945 217.219 104.945 218.641ZM103.43 218.641C103.43 217.51 103.208 216.672 102.766 216.125C102.323 215.573 101.708 215.297 100.922 215.297C100.125 215.297 99.5052 215.573 99.0625 216.125C98.625 216.672 98.4062 217.51 98.4062 218.641C98.4062 219.734 98.6276 220.565 99.0703 221.133C99.513 221.695 100.13 221.977 100.922 221.977C101.703 221.977 102.315 221.698 102.758 221.141C103.206 220.578 103.43 219.745 103.43 218.641ZM112.672 215.875H112.594C112.375 215.823 112.161 215.786 111.953 215.766C111.75 215.74 111.508 215.727 111.227 215.727C110.773 215.727 110.336 215.828 109.914 216.031C109.492 216.229 109.086 216.487 108.695 216.805V223H107.227V214.273H108.695V215.562C109.279 215.094 109.792 214.763 110.234 214.57C110.682 214.372 111.138 214.273 111.602 214.273C111.857 214.273 112.042 214.281 112.156 214.297C112.271 214.307 112.443 214.331 112.672 214.367V215.875ZM115.539 223H114.07V210.844H115.539V223ZM125.227 223H123.766V222.07C123.635 222.159 123.458 222.284 123.234 222.445C123.016 222.602 122.802 222.727 122.594 222.82C122.349 222.94 122.068 223.039 121.75 223.117C121.432 223.201 121.06 223.242 120.633 223.242C119.846 223.242 119.18 222.982 118.633 222.461C118.086 221.94 117.812 221.276 117.812 220.469C117.812 219.807 117.953 219.273 118.234 218.867C118.521 218.456 118.927 218.133 119.453 217.898C119.984 217.664 120.622 217.505 121.367 217.422C122.112 217.339 122.911 217.276 123.766 217.234V217.008C123.766 216.674 123.706 216.398 123.586 216.18C123.471 215.961 123.305 215.789 123.086 215.664C122.878 215.544 122.628 215.464 122.336 215.422C122.044 215.38 121.74 215.359 121.422 215.359C121.036 215.359 120.607 215.411 120.133 215.516C119.659 215.615 119.169 215.76 118.664 215.953H118.586V214.461C118.872 214.383 119.286 214.297 119.828 214.203C120.37 214.109 120.904 214.062 121.43 214.062C122.044 214.062 122.578 214.115 123.031 214.219C123.49 214.318 123.885 214.49 124.219 214.734C124.547 214.974 124.797 215.284 124.969 215.664C125.141 216.044 125.227 216.516 125.227 217.078V223ZM123.766 220.852V218.422C123.318 218.448 122.789 218.487 122.18 218.539C121.576 218.591 121.096 218.667 120.742 218.766C120.32 218.885 119.979 219.073 119.719 219.328C119.458 219.578 119.328 219.924 119.328 220.367C119.328 220.867 119.479 221.245 119.781 221.5C120.083 221.75 120.544 221.875 121.164 221.875C121.68 221.875 122.151 221.776 122.578 221.578C123.005 221.375 123.401 221.133 123.766 220.852ZM133.5 215.875H133.422C133.203 215.823 132.99 215.786 132.781 215.766C132.578 215.74 132.336 215.727 132.055 215.727C131.602 215.727 131.164 215.828 130.742 216.031C130.32 216.229 129.914 216.487 129.523 216.805V223H128.055V214.273H129.523V215.562C130.107 215.094 130.62 214.763 131.062 214.57C131.51 214.372 131.966 214.273 132.43 214.273C132.685 214.273 132.87 214.281 132.984 214.297C133.099 214.307 133.271 214.331 133.5 214.367V215.875ZM147.742 223H146.273V222.031C145.779 222.422 145.305 222.721 144.852 222.93C144.398 223.138 143.898 223.242 143.352 223.242C142.435 223.242 141.721 222.964 141.211 222.406C140.701 221.844 140.445 221.021 140.445 219.938V214.273H141.914V219.242C141.914 219.685 141.935 220.065 141.977 220.383C142.018 220.695 142.107 220.964 142.242 221.188C142.383 221.417 142.565 221.583 142.789 221.688C143.013 221.792 143.339 221.844 143.766 221.844C144.146 221.844 144.56 221.745 145.008 221.547C145.461 221.349 145.883 221.096 146.273 220.789V214.273H147.742V223ZM157.086 222.453C156.596 222.688 156.13 222.87 155.688 223C155.25 223.13 154.784 223.195 154.289 223.195C153.659 223.195 153.081 223.104 152.555 222.922C152.029 222.734 151.578 222.453 151.203 222.078C150.823 221.703 150.529 221.229 150.32 220.656C150.112 220.083 150.008 219.414 150.008 218.648C150.008 217.221 150.398 216.102 151.18 215.289C151.966 214.477 153.003 214.07 154.289 214.07C154.789 214.07 155.279 214.141 155.758 214.281C156.242 214.422 156.685 214.594 157.086 214.797V216.43H157.008C156.56 216.081 156.096 215.812 155.617 215.625C155.143 215.438 154.68 215.344 154.227 215.344C153.393 215.344 152.734 215.625 152.25 216.188C151.771 216.745 151.531 217.565 151.531 218.648C151.531 219.701 151.766 220.51 152.234 221.078C152.708 221.641 153.372 221.922 154.227 221.922C154.523 221.922 154.826 221.883 155.133 221.805C155.44 221.727 155.716 221.625 155.961 221.5C156.174 221.391 156.375 221.276 156.562 221.156C156.75 221.031 156.898 220.924 157.008 220.836H157.086V222.453ZM166.273 223H164.805V218.031C164.805 217.63 164.781 217.255 164.734 216.906C164.688 216.552 164.602 216.276 164.477 216.078C164.346 215.859 164.159 215.698 163.914 215.594C163.669 215.484 163.352 215.43 162.961 215.43C162.56 215.43 162.141 215.529 161.703 215.727C161.266 215.924 160.846 216.177 160.445 216.484V223H158.977V210.844H160.445V215.242C160.904 214.862 161.378 214.565 161.867 214.352C162.357 214.138 162.859 214.031 163.375 214.031C164.318 214.031 165.036 214.315 165.531 214.883C166.026 215.451 166.273 216.268 166.273 217.336V223ZM176.336 223H174.867V222.031C174.372 222.422 173.898 222.721 173.445 222.93C172.992 223.138 172.492 223.242 171.945 223.242C171.029 223.242 170.315 222.964 169.805 222.406C169.294 221.844 169.039 221.021 169.039 219.938V214.273H170.508V219.242C170.508 219.685 170.529 220.065 170.57 220.383C170.612 220.695 170.701 220.964 170.836 221.188C170.977 221.417 171.159 221.583 171.383 221.688C171.607 221.792 171.932 221.844 172.359 221.844C172.74 221.844 173.154 221.745 173.602 221.547C174.055 221.349 174.477 221.096 174.867 220.789V214.273H176.336V223ZM186.523 223H185.055V218.031C185.055 217.63 185.031 217.255 184.984 216.906C184.938 216.552 184.852 216.276 184.727 216.078C184.596 215.859 184.409 215.698 184.164 215.594C183.919 215.484 183.602 215.43 183.211 215.43C182.81 215.43 182.391 215.529 181.953 215.727C181.516 215.924 181.096 216.177 180.695 216.484V223H179.227V214.273H180.695V215.242C181.154 214.862 181.628 214.565 182.117 214.352C182.607 214.138 183.109 214.031 183.625 214.031C184.568 214.031 185.286 214.315 185.781 214.883C186.276 215.451 186.523 216.268 186.523 217.336V223ZM49.9219 242H48.375V231.977L45.1406 238.797H44.2188L41.0078 231.977V242H39.5625V230.367H41.6719L44.7734 236.844L47.7734 230.367H49.9219V242ZM60.3672 237.641C60.3672 239.062 60.0026 240.185 59.2734 241.008C58.5443 241.831 57.5677 242.242 56.3438 242.242C55.1094 242.242 54.1276 241.831 53.3984 241.008C52.6745 240.185 52.3125 239.062 52.3125 237.641C52.3125 236.219 52.6745 235.096 53.3984 234.273C54.1276 233.445 55.1094 233.031 56.3438 233.031C57.5677 233.031 58.5443 233.445 59.2734 234.273C60.0026 235.096 60.3672 236.219 60.3672 237.641ZM58.8516 237.641C58.8516 236.51 58.6302 235.672 58.1875 235.125C57.7448 234.573 57.1302 234.297 56.3438 234.297C55.5469 234.297 54.9271 234.573 54.4844 235.125C54.0469 235.672 53.8281 236.51 53.8281 237.641C53.8281 238.734 54.0495 239.565 54.4922 240.133C54.9349 240.695 55.5521 240.977 56.3438 240.977C57.125 240.977 57.737 240.698 58.1797 240.141C58.6276 239.578 58.8516 238.745 58.8516 237.641ZM64.1328 242H62.6641V229.844H64.1328V242ZM68.6172 231.812H66.9609V230.289H68.6172V231.812ZM68.5234 242H67.0547V233.273H68.5234V242ZM78.9766 233.273L73.8828 245.219H72.3125L73.9375 241.578L70.4609 233.273H72.0547L74.7344 239.742L77.4375 233.273H78.9766ZM87.3672 242H85.9062V241.07C85.776 241.159 85.599 241.284 85.375 241.445C85.1562 241.602 84.9427 241.727 84.7344 241.82C84.4896 241.94 84.2083 242.039 83.8906 242.117C83.5729 242.201 83.2005 242.242 82.7734 242.242C81.987 242.242 81.3203 241.982 80.7734 241.461C80.2266 240.94 79.9531 240.276 79.9531 239.469C79.9531 238.807 80.0938 238.273 80.375 237.867C80.6615 237.456 81.0677 237.133 81.5938 236.898C82.125 236.664 82.763 236.505 83.5078 236.422C84.2526 236.339 85.0521 236.276 85.9062 236.234V236.008C85.9062 235.674 85.8464 235.398 85.7266 235.18C85.612 234.961 85.4453 234.789 85.2266 234.664C85.0182 234.544 84.7682 234.464 84.4766 234.422C84.1849 234.38 83.8802 234.359 83.5625 234.359C83.1771 234.359 82.7474 234.411 82.2734 234.516C81.7995 234.615 81.3099 234.76 80.8047 234.953H80.7266V233.461C81.013 233.383 81.4271 233.297 81.9688 233.203C82.5104 233.109 83.0443 233.062 83.5703 233.062C84.1849 233.062 84.7188 233.115 85.1719 233.219C85.6302 233.318 86.026 233.49 86.3594 233.734C86.6875 233.974 86.9375 234.284 87.1094 234.664C87.2812 235.044 87.3672 235.516 87.3672 236.078V242ZM85.9062 239.852V237.422C85.4583 237.448 84.9297 237.487 84.3203 237.539C83.7161 237.591 83.237 237.667 82.8828 237.766C82.4609 237.885 82.1198 238.073 81.8594 238.328C81.599 238.578 81.4688 238.924 81.4688 239.367C81.4688 239.867 81.6198 240.245 81.9219 240.5C82.224 240.75 82.6849 240.875 83.3047 240.875C83.8203 240.875 84.2917 240.776 84.7188 240.578C85.1458 240.375 85.5417 240.133 85.9062 239.852ZM97.6172 233.273L94.0859 242H92.6094L89.1016 233.273H90.6953L93.3984 240.219L96.0781 233.273H97.6172ZM101.117 231.812H99.4609V230.289H101.117V231.812ZM101.023 242H99.5547V233.273H101.023V242ZM111.477 233.273L106.383 245.219H104.812L106.438 241.578L102.961 233.273H104.555L107.234 239.742L109.938 233.273H111.477ZM129.5 242H127.953V231.977L124.719 238.797H123.797L120.586 231.977V242H119.141V230.367H121.25L124.352 236.844L127.352 230.367H129.5V242ZM139.812 237.789H133.383C133.383 238.326 133.464 238.794 133.625 239.195C133.786 239.591 134.008 239.917 134.289 240.172C134.56 240.422 134.88 240.609 135.25 240.734C135.625 240.859 136.036 240.922 136.484 240.922C137.078 240.922 137.674 240.805 138.273 240.57C138.878 240.331 139.307 240.096 139.562 239.867H139.641V241.469C139.146 241.677 138.641 241.852 138.125 241.992C137.609 242.133 137.068 242.203 136.5 242.203C135.052 242.203 133.922 241.812 133.109 241.031C132.297 240.245 131.891 239.13 131.891 237.688C131.891 236.26 132.279 235.128 133.055 234.289C133.836 233.451 134.862 233.031 136.133 233.031C137.31 233.031 138.216 233.375 138.852 234.062C139.492 234.75 139.812 235.727 139.812 236.992V237.789ZM138.383 236.664C138.378 235.893 138.182 235.297 137.797 234.875C137.417 234.453 136.836 234.242 136.055 234.242C135.268 234.242 134.641 234.474 134.172 234.938C133.708 235.401 133.445 235.977 133.383 236.664H138.383ZM149.336 242H147.867V237.031C147.867 236.63 147.844 236.255 147.797 235.906C147.75 235.552 147.664 235.276 147.539 235.078C147.409 234.859 147.221 234.698 146.977 234.594C146.732 234.484 146.414 234.43 146.023 234.43C145.622 234.43 145.203 234.529 144.766 234.727C144.328 234.924 143.909 235.177 143.508 235.484V242H142.039V233.273H143.508V234.242C143.966 233.862 144.44 233.565 144.93 233.352C145.419 233.138 145.922 233.031 146.438 233.031C147.38 233.031 148.099 233.315 148.594 233.883C149.089 234.451 149.336 235.268 149.336 236.336V242ZM159.469 237.789H153.039C153.039 238.326 153.12 238.794 153.281 239.195C153.443 239.591 153.664 239.917 153.945 240.172C154.216 240.422 154.536 240.609 154.906 240.734C155.281 240.859 155.693 240.922 156.141 240.922C156.734 240.922 157.331 240.805 157.93 240.57C158.534 240.331 158.964 240.096 159.219 239.867H159.297V241.469C158.802 241.677 158.297 241.852 157.781 241.992C157.266 242.133 156.724 242.203 156.156 242.203C154.708 242.203 153.578 241.812 152.766 241.031C151.953 240.245 151.547 239.13 151.547 237.688C151.547 236.26 151.935 235.128 152.711 234.289C153.492 233.451 154.518 233.031 155.789 233.031C156.966 233.031 157.872 233.375 158.508 234.062C159.148 234.75 159.469 235.727 159.469 236.992V237.789ZM158.039 236.664C158.034 235.893 157.839 235.297 157.453 234.875C157.073 234.453 156.492 234.242 155.711 234.242C154.924 234.242 154.297 234.474 153.828 234.938C153.365 235.401 153.102 235.977 153.039 236.664H158.039ZM164.414 231.812H162.758V230.289H164.414V231.812ZM164.32 242.211C164.32 243.232 164.06 244.003 163.539 244.523C163.018 245.044 162.32 245.305 161.445 245.305C161.237 245.305 160.961 245.284 160.617 245.242C160.279 245.201 159.995 245.148 159.766 245.086V243.688H159.844C159.99 243.745 160.185 243.81 160.43 243.883C160.68 243.956 160.922 243.992 161.156 243.992C161.531 243.992 161.833 243.94 162.062 243.836C162.292 243.732 162.464 243.576 162.578 243.367C162.693 243.159 162.766 242.906 162.797 242.609C162.833 242.318 162.852 241.961 162.852 241.539V234.508H161.031V233.273H164.32V242.211ZM179.945 242H178.477V237.031C178.477 236.656 178.458 236.294 178.422 235.945C178.391 235.596 178.32 235.318 178.211 235.109C178.091 234.885 177.919 234.716 177.695 234.602C177.471 234.487 177.148 234.43 176.727 234.43C176.315 234.43 175.904 234.534 175.492 234.742C175.081 234.945 174.669 235.206 174.258 235.523C174.273 235.643 174.286 235.784 174.297 235.945C174.307 236.102 174.312 236.258 174.312 236.414V242H172.844V237.031C172.844 236.646 172.826 236.281 172.789 235.938C172.758 235.589 172.688 235.31 172.578 235.102C172.458 234.878 172.286 234.711 172.062 234.602C171.839 234.487 171.516 234.43 171.094 234.43C170.693 234.43 170.289 234.529 169.883 234.727C169.482 234.924 169.081 235.177 168.68 235.484V242H167.211V233.273H168.68V234.242C169.138 233.862 169.594 233.565 170.047 233.352C170.505 233.138 170.992 233.031 171.508 233.031C172.102 233.031 172.604 233.156 173.016 233.406C173.432 233.656 173.742 234.003 173.945 234.445C174.539 233.945 175.081 233.586 175.57 233.367C176.06 233.143 176.583 233.031 177.141 233.031C178.099 233.031 178.805 233.323 179.258 233.906C179.716 234.484 179.945 235.294 179.945 236.336V242ZM190.078 237.789H183.648C183.648 238.326 183.729 238.794 183.891 239.195C184.052 239.591 184.273 239.917 184.555 240.172C184.826 240.422 185.146 240.609 185.516 240.734C185.891 240.859 186.302 240.922 186.75 240.922C187.344 240.922 187.94 240.805 188.539 240.57C189.143 240.331 189.573 240.096 189.828 239.867H189.906V241.469C189.411 241.677 188.906 241.852 188.391 241.992C187.875 242.133 187.333 242.203 186.766 242.203C185.318 242.203 184.188 241.812 183.375 241.031C182.562 240.245 182.156 239.13 182.156 237.688C182.156 236.26 182.544 235.128 183.32 234.289C184.102 233.451 185.128 233.031 186.398 233.031C187.576 233.031 188.482 233.375 189.117 234.062C189.758 234.75 190.078 235.727 190.078 236.992V237.789ZM188.648 236.664C188.643 235.893 188.448 235.297 188.062 234.875C187.682 234.453 187.102 234.242 186.32 234.242C185.534 234.242 184.906 234.474 184.438 234.938C183.974 235.401 183.711 235.977 183.648 236.664H188.648ZM199.602 242H198.133V237.031C198.133 236.63 198.109 236.255 198.062 235.906C198.016 235.552 197.93 235.276 197.805 235.078C197.674 234.859 197.487 234.698 197.242 234.594C196.997 234.484 196.68 234.43 196.289 234.43C195.888 234.43 195.469 234.529 195.031 234.727C194.594 234.924 194.174 235.177 193.773 235.484V242H192.305V233.273H193.773V234.242C194.232 233.862 194.706 233.565 195.195 233.352C195.685 233.138 196.188 233.031 196.703 233.031C197.646 233.031 198.365 233.315 198.859 233.883C199.354 234.451 199.602 235.268 199.602 236.336V242ZM206.961 241.922C206.685 241.995 206.383 242.055 206.055 242.102C205.732 242.148 205.443 242.172 205.188 242.172C204.297 242.172 203.62 241.932 203.156 241.453C202.693 240.974 202.461 240.206 202.461 239.148V234.508H201.469V233.273H202.461V230.766H203.93V233.273H206.961V234.508H203.93V238.484C203.93 238.943 203.94 239.302 203.961 239.562C203.982 239.818 204.055 240.057 204.18 240.281C204.294 240.49 204.451 240.643 204.648 240.742C204.852 240.836 205.159 240.883 205.57 240.883C205.81 240.883 206.06 240.849 206.32 240.781C206.581 240.708 206.768 240.648 206.883 240.602H206.961V241.922Z" fill="#333333"/>
<path d="M5 276L12.5 283.5L25 268.5" stroke="#61B857" stroke-width="2" stroke-linecap="round" stroke-linejoin="round"/>
<path d="M48.3359 278.922C48.3359 279.5 48.2266 280.01 48.0078 280.453C47.7891 280.896 47.4948 281.26 47.125 281.547C46.6875 281.891 46.2057 282.135 45.6797 282.281C45.1589 282.427 44.4948 282.5 43.6875 282.5H39.5625V270.867H43.0078C43.8568 270.867 44.4922 270.898 44.9141 270.961C45.3359 271.023 45.7396 271.154 46.125 271.352C46.5521 271.576 46.862 271.865 47.0547 272.219C47.2474 272.568 47.3438 272.987 47.3438 273.477C47.3438 274.029 47.2031 274.5 46.9219 274.891C46.6406 275.276 46.2656 275.586 45.7969 275.82V275.883C46.5833 276.044 47.2031 276.391 47.6562 276.922C48.1094 277.448 48.3359 278.115 48.3359 278.922ZM45.7344 273.68C45.7344 273.398 45.6875 273.161 45.5938 272.969C45.5 272.776 45.349 272.62 45.1406 272.5C44.8958 272.359 44.599 272.273 44.25 272.242C43.901 272.206 43.4688 272.188 42.9531 272.188H41.1094V275.547H43.1094C43.5938 275.547 43.9792 275.523 44.2656 275.477C44.5521 275.424 44.8177 275.32 45.0625 275.164C45.3073 275.008 45.4792 274.807 45.5781 274.562C45.6823 274.312 45.7344 274.018 45.7344 273.68ZM46.7266 278.984C46.7266 278.516 46.6562 278.143 46.5156 277.867C46.375 277.591 46.1198 277.357 45.75 277.164C45.5 277.034 45.1953 276.951 44.8359 276.914C44.4818 276.872 44.0495 276.852 43.5391 276.852H41.1094V281.18H43.1562C43.8333 281.18 44.388 281.146 44.8203 281.078C45.2526 281.005 45.6068 280.875 45.8828 280.688C46.1745 280.484 46.388 280.253 46.5234 279.992C46.6589 279.732 46.7266 279.396 46.7266 278.984ZM51.9922 272.312H50.3359V270.789H51.9922V272.312ZM51.8984 282.5H50.4297V273.773H51.8984V282.5ZM61.1328 282.5H54.0859V281.414L59.1719 275H54.1953V273.773H61V274.82L55.8906 281.258H61.1328V282.5ZM70.5078 282.5H69.0391V277.531C69.0391 277.13 69.0156 276.755 68.9688 276.406C68.9219 276.052 68.8359 275.776 68.7109 275.578C68.5807 275.359 68.3932 275.198 68.1484 275.094C67.9036 274.984 67.5859 274.93 67.1953 274.93C66.7943 274.93 66.375 275.029 65.9375 275.227C65.5 275.424 65.0807 275.677 64.6797 275.984V282.5H63.2109V273.773H64.6797V274.742C65.138 274.362 65.612 274.065 66.1016 273.852C66.5911 273.638 67.0938 273.531 67.6094 273.531C68.5521 273.531 69.2708 273.815 69.7656 274.383C70.2604 274.951 70.5078 275.768 70.5078 276.836V282.5ZM80.6406 278.289H74.2109C74.2109 278.826 74.2917 279.294 74.4531 279.695C74.6146 280.091 74.8359 280.417 75.1172 280.672C75.388 280.922 75.7083 281.109 76.0781 281.234C76.4531 281.359 76.8646 281.422 77.3125 281.422C77.9062 281.422 78.5026 281.305 79.1016 281.07C79.7057 280.831 80.1354 280.596 80.3906 280.367H80.4688V281.969C79.974 282.177 79.4688 282.352 78.9531 282.492C78.4375 282.633 77.8958 282.703 77.3281 282.703C75.8802 282.703 74.75 282.312 73.9375 281.531C73.125 280.745 72.7188 279.63 72.7188 278.188C72.7188 276.76 73.1068 275.628 73.8828 274.789C74.6641 273.951 75.6901 273.531 76.9609 273.531C78.138 273.531 79.0443 273.875 79.6797 274.562C80.3203 275.25 80.6406 276.227 80.6406 277.492V278.289ZM79.2109 277.164C79.2057 276.393 79.0104 275.797 78.625 275.375C78.2448 274.953 77.6641 274.742 76.8828 274.742C76.0964 274.742 75.4688 274.974 75 275.438C74.5365 275.901 74.2734 276.477 74.2109 277.164H79.2109ZM89.1016 279.984C89.1016 280.781 88.7708 281.435 88.1094 281.945C87.4531 282.456 86.5547 282.711 85.4141 282.711C84.7682 282.711 84.1745 282.635 83.6328 282.484C83.0964 282.328 82.6458 282.159 82.2812 281.977V280.328H82.3594C82.8229 280.677 83.3385 280.956 83.9062 281.164C84.474 281.367 85.0182 281.469 85.5391 281.469C86.1849 281.469 86.6901 281.365 87.0547 281.156C87.4193 280.948 87.6016 280.62 87.6016 280.172C87.6016 279.828 87.5026 279.568 87.3047 279.391C87.1068 279.214 86.7266 279.062 86.1641 278.938C85.9557 278.891 85.6823 278.836 85.3438 278.773C85.0104 278.711 84.7057 278.643 84.4297 278.57C83.6641 278.367 83.1198 278.07 82.7969 277.68C82.4792 277.284 82.3203 276.799 82.3203 276.227C82.3203 275.867 82.3932 275.529 82.5391 275.211C82.6901 274.893 82.9167 274.609 83.2188 274.359C83.5104 274.115 83.8802 273.922 84.3281 273.781C84.7812 273.635 85.2865 273.562 85.8438 273.562C86.3646 273.562 86.8906 273.628 87.4219 273.758C87.9583 273.883 88.4036 274.036 88.7578 274.219V275.789H88.6797C88.3047 275.513 87.849 275.281 87.3125 275.094C86.776 274.901 86.25 274.805 85.7344 274.805C85.1979 274.805 84.7448 274.909 84.375 275.117C84.0052 275.32 83.8203 275.625 83.8203 276.031C83.8203 276.391 83.9323 276.661 84.1562 276.844C84.375 277.026 84.7292 277.174 85.2188 277.289C85.4896 277.352 85.7917 277.414 86.125 277.477C86.4635 277.539 86.7448 277.596 86.9688 277.648C87.651 277.805 88.1771 278.073 88.5469 278.453C88.9167 278.839 89.1016 279.349 89.1016 279.984ZM98.2891 281.508C98.2891 282.987 97.9531 284.073 97.2812 284.766C96.6094 285.458 95.5755 285.805 94.1797 285.805C93.7161 285.805 93.263 285.771 92.8203 285.703C92.3828 285.641 91.9505 285.549 91.5234 285.43V283.93H91.6016C91.8411 284.023 92.2214 284.138 92.7422 284.273C93.263 284.414 93.7839 284.484 94.3047 284.484C94.8047 284.484 95.2188 284.424 95.5469 284.305C95.875 284.185 96.1302 284.018 96.3125 283.805C96.4948 283.602 96.625 283.357 96.7031 283.07C96.7812 282.784 96.8203 282.464 96.8203 282.109V281.312C96.3776 281.667 95.9531 281.932 95.5469 282.109C95.1458 282.281 94.6328 282.367 94.0078 282.367C92.9661 282.367 92.138 281.992 91.5234 281.242C90.9141 280.487 90.6094 279.424 90.6094 278.055C90.6094 277.305 90.7135 276.659 90.9219 276.117C91.1354 275.57 91.4245 275.099 91.7891 274.703C92.1276 274.333 92.5391 274.047 93.0234 273.844C93.5078 273.635 93.9896 273.531 94.4688 273.531C94.974 273.531 95.3958 273.583 95.7344 273.688C96.0781 273.786 96.4401 273.94 96.8203 274.148L96.9141 273.773H98.2891V281.508ZM96.8203 280.102V275.344C96.4297 275.167 96.0651 275.042 95.7266 274.969C95.3932 274.891 95.0599 274.852 94.7266 274.852C93.9193 274.852 93.2839 275.122 92.8203 275.664C92.3568 276.206 92.125 276.992 92.125 278.023C92.125 279.003 92.2969 279.745 92.6406 280.25C92.9844 280.755 93.5547 281.008 94.3516 281.008C94.7786 281.008 95.2057 280.927 95.6328 280.766C96.0651 280.599 96.4609 280.378 96.8203 280.102ZM107.961 282.5H106.5V281.57C106.37 281.659 106.193 281.784 105.969 281.945C105.75 282.102 105.536 282.227 105.328 282.32C105.083 282.44 104.802 282.539 104.484 282.617C104.167 282.701 103.794 282.742 103.367 282.742C102.581 282.742 101.914 282.482 101.367 281.961C100.82 281.44 100.547 280.776 100.547 279.969C100.547 279.307 100.688 278.773 100.969 278.367C101.255 277.956 101.661 277.633 102.188 277.398C102.719 277.164 103.357 277.005 104.102 276.922C104.846 276.839 105.646 276.776 106.5 276.734V276.508C106.5 276.174 106.44 275.898 106.32 275.68C106.206 275.461 106.039 275.289 105.82 275.164C105.612 275.044 105.362 274.964 105.07 274.922C104.779 274.88 104.474 274.859 104.156 274.859C103.771 274.859 103.341 274.911 102.867 275.016C102.393 275.115 101.904 275.26 101.398 275.453H101.32V273.961C101.607 273.883 102.021 273.797 102.562 273.703C103.104 273.609 103.638 273.562 104.164 273.562C104.779 273.562 105.312 273.615 105.766 273.719C106.224 273.818 106.62 273.99 106.953 274.234C107.281 274.474 107.531 274.784 107.703 275.164C107.875 275.544 107.961 276.016 107.961 276.578V282.5ZM106.5 280.352V277.922C106.052 277.948 105.523 277.987 104.914 278.039C104.31 278.091 103.831 278.167 103.477 278.266C103.055 278.385 102.714 278.573 102.453 278.828C102.193 279.078 102.062 279.424 102.062 279.867C102.062 280.367 102.214 280.745 102.516 281C102.818 281.25 103.279 281.375 103.898 281.375C104.414 281.375 104.885 281.276 105.312 281.078C105.74 280.875 106.135 280.633 106.5 280.352ZM129.148 282.5H127.68V277.531C127.68 277.156 127.661 276.794 127.625 276.445C127.594 276.096 127.523 275.818 127.414 275.609C127.294 275.385 127.122 275.216 126.898 275.102C126.674 274.987 126.352 274.93 125.93 274.93C125.518 274.93 125.107 275.034 124.695 275.242C124.284 275.445 123.872 275.706 123.461 276.023C123.477 276.143 123.49 276.284 123.5 276.445C123.51 276.602 123.516 276.758 123.516 276.914V282.5H122.047V277.531C122.047 277.146 122.029 276.781 121.992 276.438C121.961 276.089 121.891 275.81 121.781 275.602C121.661 275.378 121.49 275.211 121.266 275.102C121.042 274.987 120.719 274.93 120.297 274.93C119.896 274.93 119.492 275.029 119.086 275.227C118.685 275.424 118.284 275.677 117.883 275.984V282.5H116.414V273.773H117.883V274.742C118.341 274.362 118.797 274.065 119.25 273.852C119.708 273.638 120.195 273.531 120.711 273.531C121.305 273.531 121.807 273.656 122.219 273.906C122.635 274.156 122.945 274.503 123.148 274.945C123.742 274.445 124.284 274.086 124.773 273.867C125.263 273.643 125.786 273.531 126.344 273.531C127.302 273.531 128.008 273.823 128.461 274.406C128.919 274.984 129.148 275.794 129.148 276.836V282.5ZM139.414 278.141C139.414 279.562 139.049 280.685 138.32 281.508C137.591 282.331 136.615 282.742 135.391 282.742C134.156 282.742 133.174 282.331 132.445 281.508C131.721 280.685 131.359 279.562 131.359 278.141C131.359 276.719 131.721 275.596 132.445 274.773C133.174 273.945 134.156 273.531 135.391 273.531C136.615 273.531 137.591 273.945 138.32 274.773C139.049 275.596 139.414 276.719 139.414 278.141ZM137.898 278.141C137.898 277.01 137.677 276.172 137.234 275.625C136.792 275.073 136.177 274.797 135.391 274.797C134.594 274.797 133.974 275.073 133.531 275.625C133.094 276.172 132.875 277.01 132.875 278.141C132.875 279.234 133.096 280.065 133.539 280.633C133.982 281.195 134.599 281.477 135.391 281.477C136.172 281.477 136.784 281.198 137.227 280.641C137.674 280.078 137.898 279.245 137.898 278.141ZM143.18 282.5H141.711V270.344H143.18V282.5ZM147.664 272.312H146.008V270.789H147.664V272.312ZM147.57 282.5H146.102V273.773H147.57V282.5ZM158.023 273.773L152.93 285.719H151.359L152.984 282.078L149.508 273.773H151.102L153.781 280.242L156.484 273.773H158.023ZM166.414 282.5H164.953V281.57C164.823 281.659 164.646 281.784 164.422 281.945C164.203 282.102 163.99 282.227 163.781 282.32C163.536 282.44 163.255 282.539 162.938 282.617C162.62 282.701 162.247 282.742 161.82 282.742C161.034 282.742 160.367 282.482 159.82 281.961C159.273 281.44 159 280.776 159 279.969C159 279.307 159.141 278.773 159.422 278.367C159.708 277.956 160.115 277.633 160.641 277.398C161.172 277.164 161.81 277.005 162.555 276.922C163.299 276.839 164.099 276.776 164.953 276.734V276.508C164.953 276.174 164.893 275.898 164.773 275.68C164.659 275.461 164.492 275.289 164.273 275.164C164.065 275.044 163.815 274.964 163.523 274.922C163.232 274.88 162.927 274.859 162.609 274.859C162.224 274.859 161.794 274.911 161.32 275.016C160.846 275.115 160.357 275.26 159.852 275.453H159.773V273.961C160.06 273.883 160.474 273.797 161.016 273.703C161.557 273.609 162.091 273.562 162.617 273.562C163.232 273.562 163.766 273.615 164.219 273.719C164.677 273.818 165.073 273.99 165.406 274.234C165.734 274.474 165.984 274.784 166.156 275.164C166.328 275.544 166.414 276.016 166.414 276.578V282.5ZM164.953 280.352V277.922C164.505 277.948 163.977 277.987 163.367 278.039C162.763 278.091 162.284 278.167 161.93 278.266C161.508 278.385 161.167 278.573 160.906 278.828C160.646 279.078 160.516 279.424 160.516 279.867C160.516 280.367 160.667 280.745 160.969 281C161.271 281.25 161.732 281.375 162.352 281.375C162.867 281.375 163.339 281.276 163.766 281.078C164.193 280.875 164.589 280.633 164.953 280.352ZM176.539 282.5H175.07V277.531C175.07 277.13 175.047 276.755 175 276.406C174.953 276.052 174.867 275.776 174.742 275.578C174.612 275.359 174.424 275.198 174.18 275.094C173.935 274.984 173.617 274.93 173.227 274.93C172.826 274.93 172.406 275.029 171.969 275.227C171.531 275.424 171.112 275.677 170.711 275.984V282.5H169.242V273.773H170.711V274.742C171.169 274.362 171.643 274.065 172.133 273.852C172.622 273.638 173.125 273.531 173.641 273.531C174.583 273.531 175.302 273.815 175.797 274.383C176.292 274.951 176.539 275.768 176.539 276.836V282.5ZM180.945 272.312H179.289V270.789H180.945V272.312ZM180.852 282.5H179.383V273.773H180.852V282.5ZM192.102 272.312H190.445V270.789H192.102V272.312ZM192.008 282.711C192.008 283.732 191.747 284.503 191.227 285.023C190.706 285.544 190.008 285.805 189.133 285.805C188.924 285.805 188.648 285.784 188.305 285.742C187.966 285.701 187.682 285.648 187.453 285.586V284.188H187.531C187.677 284.245 187.872 284.31 188.117 284.383C188.367 284.456 188.609 284.492 188.844 284.492C189.219 284.492 189.521 284.44 189.75 284.336C189.979 284.232 190.151 284.076 190.266 283.867C190.38 283.659 190.453 283.406 190.484 283.109C190.521 282.818 190.539 282.461 190.539 282.039V275.008H188.719V273.773H192.008V282.711ZM201.68 282.5H200.219V281.57C200.089 281.659 199.911 281.784 199.688 281.945C199.469 282.102 199.255 282.227 199.047 282.32C198.802 282.44 198.521 282.539 198.203 282.617C197.885 282.701 197.513 282.742 197.086 282.742C196.299 282.742 195.633 282.482 195.086 281.961C194.539 281.44 194.266 280.776 194.266 279.969C194.266 279.307 194.406 278.773 194.688 278.367C194.974 277.956 195.38 277.633 195.906 277.398C196.438 277.164 197.076 277.005 197.82 276.922C198.565 276.839 199.365 276.776 200.219 276.734V276.508C200.219 276.174 200.159 275.898 200.039 275.68C199.924 275.461 199.758 275.289 199.539 275.164C199.331 275.044 199.081 274.964 198.789 274.922C198.497 274.88 198.193 274.859 197.875 274.859C197.49 274.859 197.06 274.911 196.586 275.016C196.112 275.115 195.622 275.26 195.117 275.453H195.039V273.961C195.326 273.883 195.74 273.797 196.281 273.703C196.823 273.609 197.357 273.562 197.883 273.562C198.497 273.562 199.031 273.615 199.484 273.719C199.943 273.818 200.339 273.99 200.672 274.234C201 274.474 201.25 274.784 201.422 275.164C201.594 275.544 201.68 276.016 201.68 276.578V282.5ZM200.219 280.352V277.922C199.771 277.948 199.242 277.987 198.633 278.039C198.029 278.091 197.549 278.167 197.195 278.266C196.773 278.385 196.432 278.573 196.172 278.828C195.911 279.078 195.781 279.424 195.781 279.867C195.781 280.367 195.932 280.745 196.234 281C196.536 281.25 196.997 281.375 197.617 281.375C198.133 281.375 198.604 281.276 199.031 281.078C199.458 280.875 199.854 280.633 200.219 280.352ZM205.992 282.5H204.523V270.344H205.992V282.5ZM216.578 278.07C216.578 278.799 216.474 279.456 216.266 280.039C216.062 280.622 215.786 281.112 215.438 281.508C215.068 281.919 214.661 282.229 214.219 282.438C213.776 282.641 213.289 282.742 212.758 282.742C212.263 282.742 211.831 282.682 211.461 282.562C211.091 282.448 210.727 282.292 210.367 282.094L210.273 282.5H208.898V270.344H210.367V274.688C210.779 274.349 211.216 274.073 211.68 273.859C212.143 273.641 212.664 273.531 213.242 273.531C214.273 273.531 215.086 273.927 215.68 274.719C216.279 275.51 216.578 276.628 216.578 278.07ZM215.062 278.109C215.062 277.068 214.891 276.279 214.547 275.742C214.203 275.201 213.648 274.93 212.883 274.93C212.456 274.93 212.023 275.023 211.586 275.211C211.148 275.393 210.742 275.63 210.367 275.922V280.922C210.784 281.109 211.141 281.24 211.438 281.312C211.74 281.385 212.081 281.422 212.461 281.422C213.273 281.422 213.909 281.156 214.367 280.625C214.831 280.089 215.062 279.25 215.062 278.109ZM231.57 285.719H230.102V281.516C229.648 281.906 229.198 282.198 228.75 282.391C228.302 282.578 227.818 282.672 227.297 282.672C226.26 282.672 225.432 282.273 224.812 281.477C224.198 280.674 223.891 279.57 223.891 278.164C223.891 277.414 223.997 276.753 224.211 276.18C224.43 275.602 224.716 275.117 225.07 274.727C225.414 274.346 225.818 274.052 226.281 273.844C226.745 273.635 227.234 273.531 227.75 273.531C228.219 273.531 228.633 273.583 228.992 273.688C229.357 273.792 229.727 273.945 230.102 274.148L230.195 273.773H231.57V285.719ZM230.102 280.281V275.344C229.695 275.161 229.336 275.034 229.023 274.961C228.711 274.888 228.372 274.852 228.008 274.852C227.159 274.852 226.513 275.141 226.07 275.719C225.628 276.292 225.406 277.083 225.406 278.094C225.406 279.115 225.583 279.901 225.938 280.453C226.297 281 226.859 281.273 227.625 281.273C228.052 281.273 228.479 281.182 228.906 281C229.333 280.812 229.732 280.573 230.102 280.281ZM236.039 272.312H234.383V270.789H236.039V272.312ZM235.945 282.5H234.477V273.773H235.945V282.5ZM240.336 282.5H238.867V270.344H240.336V282.5ZM244.82 272.312H243.164V270.789H244.82V272.312ZM244.727 282.5H243.258V273.773H244.727V282.5ZM253.867 279.984C253.867 280.781 253.536 281.435 252.875 281.945C252.219 282.456 251.32 282.711 250.18 282.711C249.534 282.711 248.94 282.635 248.398 282.484C247.862 282.328 247.411 282.159 247.047 281.977V280.328H247.125C247.589 280.677 248.104 280.956 248.672 281.164C249.24 281.367 249.784 281.469 250.305 281.469C250.951 281.469 251.456 281.365 251.82 281.156C252.185 280.948 252.367 280.62 252.367 280.172C252.367 279.828 252.268 279.568 252.07 279.391C251.872 279.214 251.492 279.062 250.93 278.938C250.721 278.891 250.448 278.836 250.109 278.773C249.776 278.711 249.471 278.643 249.195 278.57C248.43 278.367 247.885 278.07 247.562 277.68C247.245 277.284 247.086 276.799 247.086 276.227C247.086 275.867 247.159 275.529 247.305 275.211C247.456 274.893 247.682 274.609 247.984 274.359C248.276 274.115 248.646 273.922 249.094 273.781C249.547 273.635 250.052 273.562 250.609 273.562C251.13 273.562 251.656 273.628 252.188 273.758C252.724 273.883 253.169 274.036 253.523 274.219V275.789H253.445C253.07 275.513 252.615 275.281 252.078 275.094C251.542 274.901 251.016 274.805 250.5 274.805C249.964 274.805 249.51 274.909 249.141 275.117C248.771 275.32 248.586 275.625 248.586 276.031C248.586 276.391 248.698 276.661 248.922 276.844C249.141 277.026 249.495 277.174 249.984 277.289C250.255 277.352 250.557 277.414 250.891 277.477C251.229 277.539 251.51 277.596 251.734 277.648C252.417 277.805 252.943 278.073 253.312 278.453C253.682 278.839 253.867 279.349 253.867 279.984ZM263.273 282.5H261.805V277.531C261.805 277.13 261.781 276.755 261.734 276.406C261.688 276.052 261.602 275.776 261.477 275.578C261.346 275.359 261.159 275.198 260.914 275.094C260.669 274.984 260.352 274.93 259.961 274.93C259.56 274.93 259.141 275.029 258.703 275.227C258.266 275.424 257.846 275.677 257.445 275.984V282.5H255.977V270.344H257.445V274.742C257.904 274.362 258.378 274.065 258.867 273.852C259.357 273.638 259.859 273.531 260.375 273.531C261.318 273.531 262.036 273.815 262.531 274.383C263.026 274.951 263.273 275.768 263.273 276.836V282.5Z" fill="#333333"/>
</svg>
