<svg width="269" height="260" viewBox="0 0 269 260" fill="none" xmlns="http://www.w3.org/2000/svg">
<path d="M5 15L12.5 22.5L25 7.5" stroke="#61B857" stroke-width="2" stroke-linecap="round" stroke-linejoin="round"/>
<path d="M47.2266 21.5H39.5625V9.86719H47.2266V11.2422H41.1094V14.4297H47.2266V15.8047H41.1094V20.125H47.2266V21.5ZM57.4922 21.5H55.5547L52.0547 17.6797L51.1016 18.5859V21.5H49.6328V9.34375H51.1016V17.1406L55.3438 12.7734H57.1953L53.1406 16.8047L57.4922 21.5ZM65.2734 18.9844C65.2734 19.7812 64.9427 20.4349 64.2812 20.9453C63.625 21.4557 62.7266 21.7109 61.5859 21.7109C60.9401 21.7109 60.3464 21.6354 59.8047 21.4844C59.2682 21.3281 58.8177 21.1589 58.4531 20.9766V19.3281H58.5312C58.9948 19.6771 59.5104 19.9557 60.0781 20.1641C60.6458 20.3672 61.1901 20.4688 61.7109 20.4688C62.3568 20.4688 62.862 20.3646 63.2266 20.1562C63.5911 19.9479 63.7734 19.6198 63.7734 19.1719C63.7734 18.8281 63.6745 18.5677 63.4766 18.3906C63.2786 18.2135 62.8984 18.0625 62.3359 17.9375C62.1276 17.8906 61.8542 17.8359 61.5156 17.7734C61.1823 17.7109 60.8776 17.6432 60.6016 17.5703C59.8359 17.3672 59.2917 17.0703 58.9688 16.6797C58.651 16.2839 58.4922 15.7995 58.4922 15.2266C58.4922 14.8672 58.5651 14.5286 58.7109 14.2109C58.862 13.8932 59.0885 13.6094 59.3906 13.3594C59.6823 13.1146 60.0521 12.9219 60.5 12.7812C60.9531 12.6354 61.4583 12.5625 62.0156 12.5625C62.5365 12.5625 63.0625 12.6276 63.5938 12.7578C64.1302 12.8828 64.5755 13.0365 64.9297 13.2188V14.7891H64.8516C64.4766 14.513 64.0208 14.2812 63.4844 14.0938C62.9479 13.901 62.4219 13.8047 61.9062 13.8047C61.3698 13.8047 60.9167 13.9089 60.5469 14.1172C60.1771 14.3203 59.9922 14.625 59.9922 15.0312C59.9922 15.3906 60.1042 15.6615 60.3281 15.8438C60.5469 16.026 60.901 16.1745 61.3906 16.2891C61.6615 16.3516 61.9635 16.4141 62.2969 16.4766C62.6354 16.5391 62.9167 16.5964 63.1406 16.6484C63.8229 16.8047 64.349 17.0729 64.7188 17.4531C65.0885 17.8385 65.2734 18.349 65.2734 18.9844ZM75.0625 17.0312C75.0625 17.7396 74.9609 18.388 74.7578 18.9766C74.5547 19.5599 74.2682 20.0547 73.8984 20.4609C73.5547 20.8464 73.1484 21.1458 72.6797 21.3594C72.2161 21.5677 71.724 21.6719 71.2031 21.6719C70.75 21.6719 70.3385 21.6224 69.9688 21.5234C69.6042 21.4245 69.2318 21.2708 68.8516 21.0625V24.7188H67.3828V12.7734H68.8516V13.6875C69.2422 13.3594 69.6797 13.0859 70.1641 12.8672C70.6536 12.6432 71.1745 12.5312 71.7266 12.5312C72.7786 12.5312 73.5964 12.9297 74.1797 13.7266C74.7682 14.5182 75.0625 15.6198 75.0625 17.0312ZM73.5469 17.0703C73.5469 16.0182 73.3672 15.2318 73.0078 14.7109C72.6484 14.1901 72.0964 13.9297 71.3516 13.9297C70.9297 13.9297 70.5052 14.0208 70.0781 14.2031C69.651 14.3854 69.2422 14.625 68.8516 14.9219V19.8672C69.2682 20.0547 69.625 20.1823 69.9219 20.25C70.224 20.3177 70.5651 20.3516 70.9453 20.3516C71.763 20.3516 72.401 20.0755 72.8594 19.5234C73.3177 18.9714 73.5469 18.1536 73.5469 17.0703ZM84.7891 17.1406C84.7891 18.5625 84.4245 19.6849 83.6953 20.5078C82.9661 21.3307 81.9896 21.7422 80.7656 21.7422C79.5312 21.7422 78.5495 21.3307 77.8203 20.5078C77.0964 19.6849 76.7344 18.5625 76.7344 17.1406C76.7344 15.7188 77.0964 14.5964 77.8203 13.7734C78.5495 12.9453 79.5312 12.5312 80.7656 12.5312C81.9896 12.5312 82.9661 12.9453 83.6953 13.7734C84.4245 14.5964 84.7891 15.7188 84.7891 17.1406ZM83.2734 17.1406C83.2734 16.0104 83.0521 15.1719 82.6094 14.625C82.1667 14.0729 81.5521 13.7969 80.7656 13.7969C79.9688 13.7969 79.349 14.0729 78.9062 14.625C78.4688 15.1719 78.25 16.0104 78.25 17.1406C78.25 18.2344 78.4714 19.0651 78.9141 19.6328C79.3568 20.1953 79.974 20.4766 80.7656 20.4766C81.5469 20.4766 82.1589 20.1979 82.6016 19.6406C83.0495 19.0781 83.2734 18.2448 83.2734 17.1406ZM92.5156 14.375H92.4375C92.2188 14.3229 92.0052 14.2865 91.7969 14.2656C91.5938 14.2396 91.3516 14.2266 91.0703 14.2266C90.6172 14.2266 90.1797 14.3281 89.7578 14.5312C89.3359 14.7292 88.9297 14.987 88.5391 15.3047V21.5H87.0703V12.7734H88.5391V14.0625C89.1224 13.5938 89.6354 13.263 90.0781 13.0703C90.526 12.8724 90.9818 12.7734 91.4453 12.7734C91.7005 12.7734 91.8854 12.7812 92 12.7969C92.1146 12.8073 92.2865 12.8307 92.5156 12.8672V14.375ZM98.4297 21.4219C98.1536 21.4948 97.8516 21.5547 97.5234 21.6016C97.2005 21.6484 96.9115 21.6719 96.6562 21.6719C95.7656 21.6719 95.0885 21.4323 94.625 20.9531C94.1615 20.474 93.9297 19.7057 93.9297 18.6484V14.0078H92.9375V12.7734H93.9297V10.2656H95.3984V12.7734H98.4297V14.0078H95.3984V17.9844C95.3984 18.4427 95.4089 18.8021 95.4297 19.0625C95.4505 19.3177 95.5234 19.5573 95.6484 19.7812C95.763 19.9896 95.9193 20.1432 96.1172 20.2422C96.3203 20.3359 96.6276 20.3828 97.0391 20.3828C97.2786 20.3828 97.5286 20.349 97.7891 20.2812C98.0495 20.2083 98.237 20.1484 98.3516 20.1016H98.4297V21.4219ZM113.516 17.0703C113.516 17.7995 113.411 18.4557 113.203 19.0391C113 19.6224 112.724 20.112 112.375 20.5078C112.005 20.9193 111.599 21.2292 111.156 21.4375C110.714 21.6406 110.227 21.7422 109.695 21.7422C109.201 21.7422 108.768 21.6823 108.398 21.5625C108.029 21.4479 107.664 21.2917 107.305 21.0938L107.211 21.5H105.836V9.34375H107.305V13.6875C107.716 13.349 108.154 13.0729 108.617 12.8594C109.081 12.6406 109.602 12.5312 110.18 12.5312C111.211 12.5312 112.023 12.9271 112.617 13.7188C113.216 14.5104 113.516 15.6276 113.516 17.0703ZM112 17.1094C112 16.0677 111.828 15.2786 111.484 14.7422C111.141 14.2005 110.586 13.9297 109.82 13.9297C109.393 13.9297 108.961 14.0234 108.523 14.2109C108.086 14.3932 107.68 14.6302 107.305 14.9219V19.9219C107.721 20.1094 108.078 20.2396 108.375 20.3125C108.677 20.3854 109.018 20.4219 109.398 20.4219C110.211 20.4219 110.846 20.1562 111.305 19.625C111.768 19.0885 112 18.25 112 17.1094ZM123.242 17.1406C123.242 18.5625 122.878 19.6849 122.148 20.5078C121.419 21.3307 120.443 21.7422 119.219 21.7422C117.984 21.7422 117.003 21.3307 116.273 20.5078C115.549 19.6849 115.188 18.5625 115.188 17.1406C115.188 15.7188 115.549 14.5964 116.273 13.7734C117.003 12.9453 117.984 12.5312 119.219 12.5312C120.443 12.5312 121.419 12.9453 122.148 13.7734C122.878 14.5964 123.242 15.7188 123.242 17.1406ZM121.727 17.1406C121.727 16.0104 121.505 15.1719 121.062 14.625C120.62 14.0729 120.005 13.7969 119.219 13.7969C118.422 13.7969 117.802 14.0729 117.359 14.625C116.922 15.1719 116.703 16.0104 116.703 17.1406C116.703 18.2344 116.924 19.0651 117.367 19.6328C117.81 20.1953 118.427 20.4766 119.219 20.4766C120 20.4766 120.612 20.1979 121.055 19.6406C121.503 19.0781 121.727 18.2448 121.727 17.1406ZM127.094 9.34375L126.758 13.8672H125.695L125.359 9.34375H127.094ZM137.367 12.7734L132.273 24.7188H130.703L132.328 21.0781L128.852 12.7734H130.445L133.125 19.2422L135.828 12.7734H137.367ZM140.867 11.3125H139.211V9.78906H140.867V11.3125ZM140.773 21.5H139.305V12.7734H140.773V21.5ZM150.133 20.9531C149.643 21.1875 149.177 21.3698 148.734 21.5C148.297 21.6302 147.831 21.6953 147.336 21.6953C146.706 21.6953 146.128 21.6042 145.602 21.4219C145.076 21.2344 144.625 20.9531 144.25 20.5781C143.87 20.2031 143.576 19.7292 143.367 19.1562C143.159 18.5833 143.055 17.9141 143.055 17.1484C143.055 15.7214 143.445 14.6016 144.227 13.7891C145.013 12.9766 146.049 12.5703 147.336 12.5703C147.836 12.5703 148.326 12.6406 148.805 12.7812C149.289 12.9219 149.732 13.0938 150.133 13.2969V14.9297H150.055C149.607 14.5807 149.143 14.3125 148.664 14.125C148.19 13.9375 147.727 13.8438 147.273 13.8438C146.44 13.8438 145.781 14.125 145.297 14.6875C144.818 15.2448 144.578 16.0651 144.578 17.1484C144.578 18.2005 144.812 19.0104 145.281 19.5781C145.755 20.1406 146.419 20.4219 147.273 20.4219C147.57 20.4219 147.872 20.3828 148.18 20.3047C148.487 20.2266 148.763 20.125 149.008 20C149.221 19.8906 149.422 19.776 149.609 19.6562C149.797 19.5312 149.945 19.4245 150.055 19.3359H150.133V20.9531ZM159.32 21.5H157.852V16.5312C157.852 16.1302 157.828 15.7552 157.781 15.4062C157.734 15.0521 157.648 14.776 157.523 14.5781C157.393 14.3594 157.206 14.1979 156.961 14.0938C156.716 13.9844 156.398 13.9297 156.008 13.9297C155.607 13.9297 155.188 14.0286 154.75 14.2266C154.312 14.4245 153.893 14.6771 153.492 14.9844V21.5H152.023V9.34375H153.492V13.7422C153.951 13.362 154.424 13.0651 154.914 12.8516C155.404 12.638 155.906 12.5312 156.422 12.5312C157.365 12.5312 158.083 12.8151 158.578 13.3828C159.073 13.9505 159.32 14.7682 159.32 15.8359V21.5ZM168.93 21.5H167.469V20.5703C167.339 20.6589 167.161 20.7839 166.938 20.9453C166.719 21.1016 166.505 21.2266 166.297 21.3203C166.052 21.4401 165.771 21.5391 165.453 21.6172C165.135 21.7005 164.763 21.7422 164.336 21.7422C163.549 21.7422 162.883 21.4818 162.336 20.9609C161.789 20.4401 161.516 19.776 161.516 18.9688C161.516 18.3073 161.656 17.7734 161.938 17.3672C162.224 16.9557 162.63 16.6328 163.156 16.3984C163.688 16.1641 164.326 16.0052 165.07 15.9219C165.815 15.8385 166.615 15.776 167.469 15.7344V15.5078C167.469 15.1745 167.409 14.8984 167.289 14.6797C167.174 14.4609 167.008 14.2891 166.789 14.1641C166.581 14.0443 166.331 13.9635 166.039 13.9219C165.747 13.8802 165.443 13.8594 165.125 13.8594C164.74 13.8594 164.31 13.9115 163.836 14.0156C163.362 14.1146 162.872 14.2604 162.367 14.4531H162.289V12.9609C162.576 12.8828 162.99 12.7969 163.531 12.7031C164.073 12.6094 164.607 12.5625 165.133 12.5625C165.747 12.5625 166.281 12.6146 166.734 12.7188C167.193 12.8177 167.589 12.9896 167.922 13.2344C168.25 13.474 168.5 13.7839 168.672 14.1641C168.844 14.5443 168.93 15.0156 168.93 15.5781V21.5ZM167.469 19.3516V16.9219C167.021 16.9479 166.492 16.987 165.883 17.0391C165.279 17.0911 164.799 17.1667 164.445 17.2656C164.023 17.3854 163.682 17.5729 163.422 17.8281C163.161 18.0781 163.031 18.4245 163.031 18.8672C163.031 19.3672 163.182 19.7448 163.484 20C163.786 20.25 164.247 20.375 164.867 20.375C165.383 20.375 165.854 20.276 166.281 20.0781C166.708 19.875 167.104 19.6328 167.469 19.3516ZM190.117 21.5H188.648V16.5312C188.648 16.1562 188.63 15.7943 188.594 15.4453C188.562 15.0964 188.492 14.8177 188.383 14.6094C188.263 14.3854 188.091 14.2161 187.867 14.1016C187.643 13.987 187.32 13.9297 186.898 13.9297C186.487 13.9297 186.076 14.0339 185.664 14.2422C185.253 14.4453 184.841 14.7057 184.43 15.0234C184.445 15.1432 184.458 15.2839 184.469 15.4453C184.479 15.6016 184.484 15.7578 184.484 15.9141V21.5H183.016V16.5312C183.016 16.1458 182.997 15.7812 182.961 15.4375C182.93 15.0885 182.859 14.8099 182.75 14.6016C182.63 14.3776 182.458 14.2109 182.234 14.1016C182.01 13.987 181.688 13.9297 181.266 13.9297C180.865 13.9297 180.461 14.0286 180.055 14.2266C179.654 14.4245 179.253 14.6771 178.852 14.9844V21.5H177.383V12.7734H178.852V13.7422C179.31 13.362 179.766 13.0651 180.219 12.8516C180.677 12.638 181.164 12.5312 181.68 12.5312C182.273 12.5312 182.776 12.6562 183.188 12.9062C183.604 13.1562 183.914 13.5026 184.117 13.9453C184.711 13.4453 185.253 13.0859 185.742 12.8672C186.232 12.6432 186.755 12.5312 187.312 12.5312C188.271 12.5312 188.977 12.8229 189.43 13.4062C189.888 13.9844 190.117 14.7943 190.117 15.8359V21.5ZM199.727 21.5H198.266V20.5703C198.135 20.6589 197.958 20.7839 197.734 20.9453C197.516 21.1016 197.302 21.2266 197.094 21.3203C196.849 21.4401 196.568 21.5391 196.25 21.6172C195.932 21.7005 195.56 21.7422 195.133 21.7422C194.346 21.7422 193.68 21.4818 193.133 20.9609C192.586 20.4401 192.312 19.776 192.312 18.9688C192.312 18.3073 192.453 17.7734 192.734 17.3672C193.021 16.9557 193.427 16.6328 193.953 16.3984C194.484 16.1641 195.122 16.0052 195.867 15.9219C196.612 15.8385 197.411 15.776 198.266 15.7344V15.5078C198.266 15.1745 198.206 14.8984 198.086 14.6797C197.971 14.4609 197.805 14.2891 197.586 14.1641C197.378 14.0443 197.128 13.9635 196.836 13.9219C196.544 13.8802 196.24 13.8594 195.922 13.8594C195.536 13.8594 195.107 13.9115 194.633 14.0156C194.159 14.1146 193.669 14.2604 193.164 14.4531H193.086V12.9609C193.372 12.8828 193.786 12.7969 194.328 12.7031C194.87 12.6094 195.404 12.5625 195.93 12.5625C196.544 12.5625 197.078 12.6146 197.531 12.7188C197.99 12.8177 198.385 12.9896 198.719 13.2344C199.047 13.474 199.297 13.7839 199.469 14.1641C199.641 14.5443 199.727 15.0156 199.727 15.5781V21.5ZM198.266 19.3516V16.9219C197.818 16.9479 197.289 16.987 196.68 17.0391C196.076 17.0911 195.596 17.1667 195.242 17.2656C194.82 17.3854 194.479 17.5729 194.219 17.8281C193.958 18.0781 193.828 18.4245 193.828 18.8672C193.828 19.3672 193.979 19.7448 194.281 20C194.583 20.25 195.044 20.375 195.664 20.375C196.18 20.375 196.651 20.276 197.078 20.0781C197.505 19.875 197.901 19.6328 198.266 19.3516ZM208.789 18.9844C208.789 19.7812 208.458 20.4349 207.797 20.9453C207.141 21.4557 206.242 21.7109 205.102 21.7109C204.456 21.7109 203.862 21.6354 203.32 21.4844C202.784 21.3281 202.333 21.1589 201.969 20.9766V19.3281H202.047C202.51 19.6771 203.026 19.9557 203.594 20.1641C204.161 20.3672 204.706 20.4688 205.227 20.4688C205.872 20.4688 206.378 20.3646 206.742 20.1562C207.107 19.9479 207.289 19.6198 207.289 19.1719C207.289 18.8281 207.19 18.5677 206.992 18.3906C206.794 18.2135 206.414 18.0625 205.852 17.9375C205.643 17.8906 205.37 17.8359 205.031 17.7734C204.698 17.7109 204.393 17.6432 204.117 17.5703C203.352 17.3672 202.807 17.0703 202.484 16.6797C202.167 16.2839 202.008 15.7995 202.008 15.2266C202.008 14.8672 202.081 14.5286 202.227 14.2109C202.378 13.8932 202.604 13.6094 202.906 13.3594C203.198 13.1146 203.568 12.9219 204.016 12.7812C204.469 12.6354 204.974 12.5625 205.531 12.5625C206.052 12.5625 206.578 12.6276 207.109 12.7578C207.646 12.8828 208.091 13.0365 208.445 13.2188V14.7891H208.367C207.992 14.513 207.536 14.2812 207 14.0938C206.464 13.901 205.938 13.8047 205.422 13.8047C204.885 13.8047 204.432 13.9089 204.062 14.1172C203.693 14.3203 203.508 14.625 203.508 15.0312C203.508 15.3906 203.62 15.6615 203.844 15.8438C204.062 16.026 204.417 16.1745 204.906 16.2891C205.177 16.3516 205.479 16.4141 205.812 16.4766C206.151 16.5391 206.432 16.5964 206.656 16.6484C207.339 16.8047 207.865 17.0729 208.234 17.4531C208.604 17.8385 208.789 18.349 208.789 18.9844ZM212.383 21.5H210.914V9.34375H212.383V21.5ZM222.07 21.5H220.609V20.5703C220.479 20.6589 220.302 20.7839 220.078 20.9453C219.859 21.1016 219.646 21.2266 219.438 21.3203C219.193 21.4401 218.911 21.5391 218.594 21.6172C218.276 21.7005 217.904 21.7422 217.477 21.7422C216.69 21.7422 216.023 21.4818 215.477 20.9609C214.93 20.4401 214.656 19.776 214.656 18.9688C214.656 18.3073 214.797 17.7734 215.078 17.3672C215.365 16.9557 215.771 16.6328 216.297 16.3984C216.828 16.1641 217.466 16.0052 218.211 15.9219C218.956 15.8385 219.755 15.776 220.609 15.7344V15.5078C220.609 15.1745 220.549 14.8984 220.43 14.6797C220.315 14.4609 220.148 14.2891 219.93 14.1641C219.721 14.0443 219.471 13.9635 219.18 13.9219C218.888 13.8802 218.583 13.8594 218.266 13.8594C217.88 13.8594 217.451 13.9115 216.977 14.0156C216.503 14.1146 216.013 14.2604 215.508 14.4531H215.43V12.9609C215.716 12.8828 216.13 12.7969 216.672 12.7031C217.214 12.6094 217.747 12.5625 218.273 12.5625C218.888 12.5625 219.422 12.6146 219.875 12.7188C220.333 12.8177 220.729 12.9896 221.062 13.2344C221.391 13.474 221.641 13.7839 221.812 14.1641C221.984 14.5443 222.07 15.0156 222.07 15.5781V21.5ZM220.609 19.3516V16.9219C220.161 16.9479 219.633 16.987 219.023 17.0391C218.419 17.0911 217.94 17.1667 217.586 17.2656C217.164 17.3854 216.823 17.5729 216.562 17.8281C216.302 18.0781 216.172 18.4245 216.172 18.8672C216.172 19.3672 216.323 19.7448 216.625 20C216.927 20.25 217.388 20.375 218.008 20.375C218.523 20.375 218.995 20.276 219.422 20.0781C219.849 19.875 220.245 19.6328 220.609 19.3516ZM232.195 21.5H230.727V16.5312C230.727 16.1302 230.703 15.7552 230.656 15.4062C230.609 15.0521 230.523 14.776 230.398 14.5781C230.268 14.3594 230.081 14.1979 229.836 14.0938C229.591 13.9844 229.273 13.9297 228.883 13.9297C228.482 13.9297 228.062 14.0286 227.625 14.2266C227.188 14.4245 226.768 14.6771 226.367 14.9844V21.5H224.898V9.34375H226.367V13.7422C226.826 13.362 227.299 13.0651 227.789 12.8516C228.279 12.638 228.781 12.5312 229.297 12.5312C230.24 12.5312 230.958 12.8151 231.453 13.3828C231.948 13.9505 232.195 14.7682 232.195 15.8359V21.5ZM241.805 21.5H240.344V20.5703C240.214 20.6589 240.036 20.7839 239.812 20.9453C239.594 21.1016 239.38 21.2266 239.172 21.3203C238.927 21.4401 238.646 21.5391 238.328 21.6172C238.01 21.7005 237.638 21.7422 237.211 21.7422C236.424 21.7422 235.758 21.4818 235.211 20.9609C234.664 20.4401 234.391 19.776 234.391 18.9688C234.391 18.3073 234.531 17.7734 234.812 17.3672C235.099 16.9557 235.505 16.6328 236.031 16.3984C236.562 16.1641 237.201 16.0052 237.945 15.9219C238.69 15.8385 239.49 15.776 240.344 15.7344V15.5078C240.344 15.1745 240.284 14.8984 240.164 14.6797C240.049 14.4609 239.883 14.2891 239.664 14.1641C239.456 14.0443 239.206 13.9635 238.914 13.9219C238.622 13.8802 238.318 13.8594 238 13.8594C237.615 13.8594 237.185 13.9115 236.711 14.0156C236.237 14.1146 235.747 14.2604 235.242 14.4531H235.164V12.9609C235.451 12.8828 235.865 12.7969 236.406 12.7031C236.948 12.6094 237.482 12.5625 238.008 12.5625C238.622 12.5625 239.156 12.6146 239.609 12.7188C240.068 12.8177 240.464 12.9896 240.797 13.2344C241.125 13.474 241.375 13.7839 241.547 14.1641C241.719 14.5443 241.805 15.0156 241.805 15.5781V21.5ZM240.344 19.3516V16.9219C239.896 16.9479 239.367 16.987 238.758 17.0391C238.154 17.0911 237.674 17.1667 237.32 17.2656C236.898 17.3854 236.557 17.5729 236.297 17.8281C236.036 18.0781 235.906 18.4245 235.906 18.8672C235.906 19.3672 236.057 19.7448 236.359 20C236.661 20.25 237.122 20.375 237.742 20.375C238.258 20.375 238.729 20.276 239.156 20.0781C239.583 19.875 239.979 19.6328 240.344 19.3516ZM249.164 21.4219C248.888 21.4948 248.586 21.5547 248.258 21.6016C247.935 21.6484 247.646 21.6719 247.391 21.6719C246.5 21.6719 245.823 21.4323 245.359 20.9531C244.896 20.474 244.664 19.7057 244.664 18.6484V14.0078H243.672V12.7734H244.664V10.2656H246.133V12.7734H249.164V14.0078H246.133V17.9844C246.133 18.4427 246.143 18.8021 246.164 19.0625C246.185 19.3177 246.258 19.5573 246.383 19.7812C246.497 19.9896 246.654 20.1432 246.852 20.2422C247.055 20.3359 247.362 20.3828 247.773 20.3828C248.013 20.3828 248.263 20.349 248.523 20.2812C248.784 20.2083 248.971 20.1484 249.086 20.1016H249.164V21.4219Z" fill="#333333"/>
<path d="M5 61L12.5 68.5L25 53.5" stroke="#61B857" stroke-width="2" stroke-linecap="round" stroke-linejoin="round"/>
<path d="M47.2266 67.5H39.5625V55.8672H47.2266V57.2422H41.1094V60.4297H47.2266V61.8047H41.1094V66.125H47.2266V67.5ZM57.4922 67.5H55.5547L52.0547 63.6797L51.1016 64.5859V67.5H49.6328V55.3438H51.1016V63.1406L55.3438 58.7734H57.1953L53.1406 62.8047L57.4922 67.5ZM65.2734 64.9844C65.2734 65.7812 64.9427 66.4349 64.2812 66.9453C63.625 67.4557 62.7266 67.7109 61.5859 67.7109C60.9401 67.7109 60.3464 67.6354 59.8047 67.4844C59.2682 67.3281 58.8177 67.1589 58.4531 66.9766V65.3281H58.5312C58.9948 65.6771 59.5104 65.9557 60.0781 66.1641C60.6458 66.3672 61.1901 66.4688 61.7109 66.4688C62.3568 66.4688 62.862 66.3646 63.2266 66.1562C63.5911 65.9479 63.7734 65.6198 63.7734 65.1719C63.7734 64.8281 63.6745 64.5677 63.4766 64.3906C63.2786 64.2135 62.8984 64.0625 62.3359 63.9375C62.1276 63.8906 61.8542 63.8359 61.5156 63.7734C61.1823 63.7109 60.8776 63.6432 60.6016 63.5703C59.8359 63.3672 59.2917 63.0703 58.9688 62.6797C58.651 62.2839 58.4922 61.7995 58.4922 61.2266C58.4922 60.8672 58.5651 60.5286 58.7109 60.2109C58.862 59.8932 59.0885 59.6094 59.3906 59.3594C59.6823 59.1146 60.0521 58.9219 60.5 58.7812C60.9531 58.6354 61.4583 58.5625 62.0156 58.5625C62.5365 58.5625 63.0625 58.6276 63.5938 58.7578C64.1302 58.8828 64.5755 59.0365 64.9297 59.2188V60.7891H64.8516C64.4766 60.513 64.0208 60.2812 63.4844 60.0938C62.9479 59.901 62.4219 59.8047 61.9062 59.8047C61.3698 59.8047 60.9167 59.9089 60.5469 60.1172C60.1771 60.3203 59.9922 60.625 59.9922 61.0312C59.9922 61.3906 60.1042 61.6615 60.3281 61.8438C60.5469 62.026 60.901 62.1745 61.3906 62.2891C61.6615 62.3516 61.9635 62.4141 62.2969 62.4766C62.6354 62.5391 62.9167 62.5964 63.1406 62.6484C63.8229 62.8047 64.349 63.0729 64.7188 63.4531C65.0885 63.8385 65.2734 64.349 65.2734 64.9844ZM75.0625 63.0312C75.0625 63.7396 74.9609 64.388 74.7578 64.9766C74.5547 65.5599 74.2682 66.0547 73.8984 66.4609C73.5547 66.8464 73.1484 67.1458 72.6797 67.3594C72.2161 67.5677 71.724 67.6719 71.2031 67.6719C70.75 67.6719 70.3385 67.6224 69.9688 67.5234C69.6042 67.4245 69.2318 67.2708 68.8516 67.0625V70.7188H67.3828V58.7734H68.8516V59.6875C69.2422 59.3594 69.6797 59.0859 70.1641 58.8672C70.6536 58.6432 71.1745 58.5312 71.7266 58.5312C72.7786 58.5312 73.5964 58.9297 74.1797 59.7266C74.7682 60.5182 75.0625 61.6198 75.0625 63.0312ZM73.5469 63.0703C73.5469 62.0182 73.3672 61.2318 73.0078 60.7109C72.6484 60.1901 72.0964 59.9297 71.3516 59.9297C70.9297 59.9297 70.5052 60.0208 70.0781 60.2031C69.651 60.3854 69.2422 60.625 68.8516 60.9219V65.8672C69.2682 66.0547 69.625 66.1823 69.9219 66.25C70.224 66.3177 70.5651 66.3516 70.9453 66.3516C71.763 66.3516 72.401 66.0755 72.8594 65.5234C73.3177 64.9714 73.5469 64.1536 73.5469 63.0703ZM84.7891 63.1406C84.7891 64.5625 84.4245 65.6849 83.6953 66.5078C82.9661 67.3307 81.9896 67.7422 80.7656 67.7422C79.5312 67.7422 78.5495 67.3307 77.8203 66.5078C77.0964 65.6849 76.7344 64.5625 76.7344 63.1406C76.7344 61.7188 77.0964 60.5964 77.8203 59.7734C78.5495 58.9453 79.5312 58.5312 80.7656 58.5312C81.9896 58.5312 82.9661 58.9453 83.6953 59.7734C84.4245 60.5964 84.7891 61.7188 84.7891 63.1406ZM83.2734 63.1406C83.2734 62.0104 83.0521 61.1719 82.6094 60.625C82.1667 60.0729 81.5521 59.7969 80.7656 59.7969C79.9688 59.7969 79.349 60.0729 78.9062 60.625C78.4688 61.1719 78.25 62.0104 78.25 63.1406C78.25 64.2344 78.4714 65.0651 78.9141 65.6328C79.3568 66.1953 79.974 66.4766 80.7656 66.4766C81.5469 66.4766 82.1589 66.1979 82.6016 65.6406C83.0495 65.0781 83.2734 64.2448 83.2734 63.1406ZM92.5156 60.375H92.4375C92.2188 60.3229 92.0052 60.2865 91.7969 60.2656C91.5938 60.2396 91.3516 60.2266 91.0703 60.2266C90.6172 60.2266 90.1797 60.3281 89.7578 60.5312C89.3359 60.7292 88.9297 60.987 88.5391 61.3047V67.5H87.0703V58.7734H88.5391V60.0625C89.1224 59.5938 89.6354 59.263 90.0781 59.0703C90.526 58.8724 90.9818 58.7734 91.4453 58.7734C91.7005 58.7734 91.8854 58.7812 92 58.7969C92.1146 58.8073 92.2865 58.8307 92.5156 58.8672V60.375ZM98.4297 67.4219C98.1536 67.4948 97.8516 67.5547 97.5234 67.6016C97.2005 67.6484 96.9115 67.6719 96.6562 67.6719C95.7656 67.6719 95.0885 67.4323 94.625 66.9531C94.1615 66.474 93.9297 65.7057 93.9297 64.6484V60.0078H92.9375V58.7734H93.9297V56.2656H95.3984V58.7734H98.4297V60.0078H95.3984V63.9844C95.3984 64.4427 95.4089 64.8021 95.4297 65.0625C95.4505 65.3177 95.5234 65.5573 95.6484 65.7812C95.763 65.9896 95.9193 66.1432 96.1172 66.2422C96.3203 66.3359 96.6276 66.3828 97.0391 66.3828C97.2786 66.3828 97.5286 66.349 97.7891 66.2812C98.0495 66.2083 98.237 66.1484 98.3516 66.1016H98.4297V67.4219ZM107.289 66.5078C107.289 67.987 106.953 69.0729 106.281 69.7656C105.609 70.4583 104.576 70.8047 103.18 70.8047C102.716 70.8047 102.263 70.7708 101.82 70.7031C101.383 70.6406 100.951 70.5495 100.523 70.4297V68.9297H100.602C100.841 69.0234 101.221 69.138 101.742 69.2734C102.263 69.4141 102.784 69.4844 103.305 69.4844C103.805 69.4844 104.219 69.4245 104.547 69.3047C104.875 69.1849 105.13 69.0182 105.312 68.8047C105.495 68.6016 105.625 68.3568 105.703 68.0703C105.781 67.7839 105.82 67.4635 105.82 67.1094V66.3125C105.378 66.6667 104.953 66.9323 104.547 67.1094C104.146 67.2812 103.633 67.3672 103.008 67.3672C101.966 67.3672 101.138 66.9922 100.523 66.2422C99.9141 65.487 99.6094 64.4245 99.6094 63.0547C99.6094 62.3047 99.7135 61.6589 99.9219 61.1172C100.135 60.5703 100.424 60.099 100.789 59.7031C101.128 59.3333 101.539 59.0469 102.023 58.8438C102.508 58.6354 102.99 58.5312 103.469 58.5312C103.974 58.5312 104.396 58.5833 104.734 58.6875C105.078 58.7865 105.44 58.9401 105.82 59.1484L105.914 58.7734H107.289V66.5078ZM105.82 65.1016V60.3438C105.43 60.1667 105.065 60.0417 104.727 59.9688C104.393 59.8906 104.06 59.8516 103.727 59.8516C102.919 59.8516 102.284 60.1224 101.82 60.6641C101.357 61.2057 101.125 61.9922 101.125 63.0234C101.125 64.0026 101.297 64.7448 101.641 65.25C101.984 65.7552 102.555 66.0078 103.352 66.0078C103.779 66.0078 104.206 65.9271 104.633 65.7656C105.065 65.599 105.461 65.3776 105.82 65.1016ZM116.961 67.5H115.5V66.5703C115.37 66.6589 115.193 66.7839 114.969 66.9453C114.75 67.1016 114.536 67.2266 114.328 67.3203C114.083 67.4401 113.802 67.5391 113.484 67.6172C113.167 67.7005 112.794 67.7422 112.367 67.7422C111.581 67.7422 110.914 67.4818 110.367 66.9609C109.82 66.4401 109.547 65.776 109.547 64.9688C109.547 64.3073 109.688 63.7734 109.969 63.3672C110.255 62.9557 110.661 62.6328 111.188 62.3984C111.719 62.1641 112.357 62.0052 113.102 61.9219C113.846 61.8385 114.646 61.776 115.5 61.7344V61.5078C115.5 61.1745 115.44 60.8984 115.32 60.6797C115.206 60.4609 115.039 60.2891 114.82 60.1641C114.612 60.0443 114.362 59.9635 114.07 59.9219C113.779 59.8802 113.474 59.8594 113.156 59.8594C112.771 59.8594 112.341 59.9115 111.867 60.0156C111.393 60.1146 110.904 60.2604 110.398 60.4531H110.32V58.9609C110.607 58.8828 111.021 58.7969 111.562 58.7031C112.104 58.6094 112.638 58.5625 113.164 58.5625C113.779 58.5625 114.312 58.6146 114.766 58.7188C115.224 58.8177 115.62 58.9896 115.953 59.2344C116.281 59.474 116.531 59.7839 116.703 60.1641C116.875 60.5443 116.961 61.0156 116.961 61.5781V67.5ZM115.5 65.3516V62.9219C115.052 62.9479 114.523 62.987 113.914 63.0391C113.31 63.0911 112.831 63.1667 112.477 63.2656C112.055 63.3854 111.714 63.5729 111.453 63.8281C111.193 64.0781 111.062 64.4245 111.062 64.8672C111.062 65.3672 111.214 65.7448 111.516 66C111.818 66.25 112.279 66.375 112.898 66.375C113.414 66.375 113.885 66.276 114.312 66.0781C114.74 65.875 115.135 65.6328 115.5 65.3516ZM129.945 67.4219C129.669 67.4948 129.367 67.5547 129.039 67.6016C128.716 67.6484 128.427 67.6719 128.172 67.6719C127.281 67.6719 126.604 67.4323 126.141 66.9531C125.677 66.474 125.445 65.7057 125.445 64.6484V60.0078H124.453V58.7734H125.445V56.2656H126.914V58.7734H129.945V60.0078H126.914V63.9844C126.914 64.4427 126.924 64.8021 126.945 65.0625C126.966 65.3177 127.039 65.5573 127.164 65.7812C127.279 65.9896 127.435 66.1432 127.633 66.2422C127.836 66.3359 128.143 66.3828 128.555 66.3828C128.794 66.3828 129.044 66.349 129.305 66.2812C129.565 66.2083 129.753 66.1484 129.867 66.1016H129.945V67.4219ZM138.508 67.5H137.047V66.5703C136.917 66.6589 136.74 66.7839 136.516 66.9453C136.297 67.1016 136.083 67.2266 135.875 67.3203C135.63 67.4401 135.349 67.5391 135.031 67.6172C134.714 67.7005 134.341 67.7422 133.914 67.7422C133.128 67.7422 132.461 67.4818 131.914 66.9609C131.367 66.4401 131.094 65.776 131.094 64.9688C131.094 64.3073 131.234 63.7734 131.516 63.3672C131.802 62.9557 132.208 62.6328 132.734 62.3984C133.266 62.1641 133.904 62.0052 134.648 61.9219C135.393 61.8385 136.193 61.776 137.047 61.7344V61.5078C137.047 61.1745 136.987 60.8984 136.867 60.6797C136.753 60.4609 136.586 60.2891 136.367 60.1641C136.159 60.0443 135.909 59.9635 135.617 59.9219C135.326 59.8802 135.021 59.8594 134.703 59.8594C134.318 59.8594 133.888 59.9115 133.414 60.0156C132.94 60.1146 132.451 60.2604 131.945 60.4531H131.867V58.9609C132.154 58.8828 132.568 58.7969 133.109 58.7031C133.651 58.6094 134.185 58.5625 134.711 58.5625C135.326 58.5625 135.859 58.6146 136.312 58.7188C136.771 58.8177 137.167 58.9896 137.5 59.2344C137.828 59.474 138.078 59.7839 138.25 60.1641C138.422 60.5443 138.508 61.0156 138.508 61.5781V67.5ZM137.047 65.3516V62.9219C136.599 62.9479 136.07 62.987 135.461 63.0391C134.857 63.0911 134.378 63.1667 134.023 63.2656C133.602 63.3854 133.26 63.5729 133 63.8281C132.74 64.0781 132.609 64.4245 132.609 64.8672C132.609 65.3672 132.76 65.7448 133.062 66C133.365 66.25 133.826 66.375 134.445 66.375C134.961 66.375 135.432 66.276 135.859 66.0781C136.286 65.875 136.682 65.6328 137.047 65.3516ZM148.758 58.7734L143.664 70.7188H142.094L143.719 67.0781L140.242 58.7734H141.836L144.516 65.2422L147.219 58.7734H148.758ZM158.227 58.7734L153.133 70.7188H151.562L153.188 67.0781L149.711 58.7734H151.305L153.984 65.2422L156.688 58.7734H158.227ZM167.445 63.1406C167.445 64.5625 167.081 65.6849 166.352 66.5078C165.622 67.3307 164.646 67.7422 163.422 67.7422C162.188 67.7422 161.206 67.3307 160.477 66.5078C159.753 65.6849 159.391 64.5625 159.391 63.1406C159.391 61.7188 159.753 60.5964 160.477 59.7734C161.206 58.9453 162.188 58.5312 163.422 58.5312C164.646 58.5312 165.622 58.9453 166.352 59.7734C167.081 60.5964 167.445 61.7188 167.445 63.1406ZM165.93 63.1406C165.93 62.0104 165.708 61.1719 165.266 60.625C164.823 60.0729 164.208 59.7969 163.422 59.7969C162.625 59.7969 162.005 60.0729 161.562 60.625C161.125 61.1719 160.906 62.0104 160.906 63.1406C160.906 64.2344 161.128 65.0651 161.57 65.6328C162.013 66.1953 162.63 66.4766 163.422 66.4766C164.203 66.4766 164.815 66.1979 165.258 65.6406C165.706 65.0781 165.93 64.2448 165.93 63.1406ZM175.172 60.375H175.094C174.875 60.3229 174.661 60.2865 174.453 60.2656C174.25 60.2396 174.008 60.2266 173.727 60.2266C173.273 60.2266 172.836 60.3281 172.414 60.5312C171.992 60.7292 171.586 60.987 171.195 61.3047V67.5H169.727V58.7734H171.195V60.0625C171.779 59.5938 172.292 59.263 172.734 59.0703C173.182 58.8724 173.638 58.7734 174.102 58.7734C174.357 58.7734 174.542 58.7812 174.656 58.7969C174.771 58.8073 174.943 58.8307 175.172 58.8672V60.375ZM183.633 66.5078C183.633 67.987 183.297 69.0729 182.625 69.7656C181.953 70.4583 180.919 70.8047 179.523 70.8047C179.06 70.8047 178.607 70.7708 178.164 70.7031C177.727 70.6406 177.294 70.5495 176.867 70.4297V68.9297H176.945C177.185 69.0234 177.565 69.138 178.086 69.2734C178.607 69.4141 179.128 69.4844 179.648 69.4844C180.148 69.4844 180.562 69.4245 180.891 69.3047C181.219 69.1849 181.474 69.0182 181.656 68.8047C181.839 68.6016 181.969 68.3568 182.047 68.0703C182.125 67.7839 182.164 67.4635 182.164 67.1094V66.3125C181.721 66.6667 181.297 66.9323 180.891 67.1094C180.49 67.2812 179.977 67.3672 179.352 67.3672C178.31 67.3672 177.482 66.9922 176.867 66.2422C176.258 65.487 175.953 64.4245 175.953 63.0547C175.953 62.3047 176.057 61.6589 176.266 61.1172C176.479 60.5703 176.768 60.099 177.133 59.7031C177.471 59.3333 177.883 59.0469 178.367 58.8438C178.852 58.6354 179.333 58.5312 179.812 58.5312C180.318 58.5312 180.74 58.5833 181.078 58.6875C181.422 58.7865 181.784 58.9401 182.164 59.1484L182.258 58.7734H183.633V66.5078ZM182.164 65.1016V60.3438C181.773 60.1667 181.409 60.0417 181.07 59.9688C180.737 59.8906 180.404 59.8516 180.07 59.8516C179.263 59.8516 178.628 60.1224 178.164 60.6641C177.701 61.2057 177.469 61.9922 177.469 63.0234C177.469 64.0026 177.641 64.7448 177.984 65.25C178.328 65.7552 178.898 66.0078 179.695 66.0078C180.122 66.0078 180.549 65.9271 180.977 65.7656C181.409 65.599 181.805 65.3776 182.164 65.1016ZM193.305 67.5H191.844V66.5703C191.714 66.6589 191.536 66.7839 191.312 66.9453C191.094 67.1016 190.88 67.2266 190.672 67.3203C190.427 67.4401 190.146 67.5391 189.828 67.6172C189.51 67.7005 189.138 67.7422 188.711 67.7422C187.924 67.7422 187.258 67.4818 186.711 66.9609C186.164 66.4401 185.891 65.776 185.891 64.9688C185.891 64.3073 186.031 63.7734 186.312 63.3672C186.599 62.9557 187.005 62.6328 187.531 62.3984C188.062 62.1641 188.701 62.0052 189.445 61.9219C190.19 61.8385 190.99 61.776 191.844 61.7344V61.5078C191.844 61.1745 191.784 60.8984 191.664 60.6797C191.549 60.4609 191.383 60.2891 191.164 60.1641C190.956 60.0443 190.706 59.9635 190.414 59.9219C190.122 59.8802 189.818 59.8594 189.5 59.8594C189.115 59.8594 188.685 59.9115 188.211 60.0156C187.737 60.1146 187.247 60.2604 186.742 60.4531H186.664V58.9609C186.951 58.8828 187.365 58.7969 187.906 58.7031C188.448 58.6094 188.982 58.5625 189.508 58.5625C190.122 58.5625 190.656 58.6146 191.109 58.7188C191.568 58.8177 191.964 58.9896 192.297 59.2344C192.625 59.474 192.875 59.7839 193.047 60.1641C193.219 60.5443 193.305 61.0156 193.305 61.5781V67.5ZM191.844 65.3516V62.9219C191.396 62.9479 190.867 62.987 190.258 63.0391C189.654 63.0911 189.174 63.1667 188.82 63.2656C188.398 63.3854 188.057 63.5729 187.797 63.8281C187.536 64.0781 187.406 64.4245 187.406 64.8672C187.406 65.3672 187.557 65.7448 187.859 66C188.161 66.25 188.622 66.375 189.242 66.375C189.758 66.375 190.229 66.276 190.656 66.0781C191.083 65.875 191.479 65.6328 191.844 65.3516ZM201.578 60.375H201.5C201.281 60.3229 201.068 60.2865 200.859 60.2656C200.656 60.2396 200.414 60.2266 200.133 60.2266C199.68 60.2266 199.242 60.3281 198.82 60.5312C198.398 60.7292 197.992 60.987 197.602 61.3047V67.5H196.133V58.7734H197.602V60.0625C198.185 59.5938 198.698 59.263 199.141 59.0703C199.589 58.8724 200.044 58.7734 200.508 58.7734C200.763 58.7734 200.948 58.7812 201.062 58.7969C201.177 58.8073 201.349 58.8307 201.578 58.8672V60.375ZM204.445 67.5H202.977V55.3438H204.445V67.5ZM208.93 57.3125H207.273V55.7891H208.93V57.3125ZM208.836 67.5H207.367V58.7734H208.836V67.5ZM219.664 67.5H217.727L214.227 63.6797L213.273 64.5859V67.5H211.805V55.3438H213.273V63.1406L217.516 58.7734H219.367L215.312 62.8047L219.664 67.5Z" fill="#333333"/>
<path d="M5 107L12.5 114.5L25 99.5" stroke="#61B857" stroke-width="2" stroke-linecap="round" stroke-linejoin="round"/>
<path d="M48.0156 110.18C48.0156 110.633 47.9089 111.081 47.6953 111.523C47.487 111.966 47.1927 112.341 46.8125 112.648C46.3958 112.982 45.9089 113.242 45.3516 113.43C44.7995 113.617 44.1328 113.711 43.3516 113.711C42.513 113.711 41.7578 113.633 41.0859 113.477C40.4193 113.32 39.7396 113.089 39.0469 112.781V110.844H39.1562C39.7448 111.333 40.4245 111.711 41.1953 111.977C41.9661 112.242 42.6901 112.375 43.3672 112.375C44.3255 112.375 45.0703 112.195 45.6016 111.836C46.138 111.477 46.4062 110.997 46.4062 110.398C46.4062 109.883 46.2786 109.503 46.0234 109.258C45.7734 109.013 45.3906 108.823 44.875 108.688C44.4844 108.583 44.0599 108.497 43.6016 108.43C43.1484 108.362 42.6667 108.276 42.1562 108.172C41.125 107.953 40.3594 107.581 39.8594 107.055C39.3646 106.523 39.1172 105.833 39.1172 104.984C39.1172 104.01 39.5286 103.214 40.3516 102.594C41.1745 101.969 42.2188 101.656 43.4844 101.656C44.3021 101.656 45.0521 101.734 45.7344 101.891C46.4167 102.047 47.0208 102.24 47.5469 102.469V104.297H47.4375C46.9948 103.922 46.4115 103.612 45.6875 103.367C44.9688 103.117 44.2318 102.992 43.4766 102.992C42.6484 102.992 41.9818 103.164 41.4766 103.508C40.9766 103.852 40.7266 104.294 40.7266 104.836C40.7266 105.32 40.8516 105.701 41.1016 105.977C41.3516 106.253 41.7917 106.464 42.4219 106.609C42.7552 106.682 43.2292 106.771 43.8438 106.875C44.4583 106.979 44.9792 107.086 45.4062 107.195C46.2708 107.424 46.9219 107.771 47.3594 108.234C47.7969 108.698 48.0156 109.346 48.0156 110.18ZM57.6875 109.289H51.2578C51.2578 109.826 51.3385 110.294 51.5 110.695C51.6615 111.091 51.8828 111.417 52.1641 111.672C52.4349 111.922 52.7552 112.109 53.125 112.234C53.5 112.359 53.9115 112.422 54.3594 112.422C54.9531 112.422 55.5495 112.305 56.1484 112.07C56.7526 111.831 57.1823 111.596 57.4375 111.367H57.5156V112.969C57.0208 113.177 56.5156 113.352 56 113.492C55.4844 113.633 54.9427 113.703 54.375 113.703C52.9271 113.703 51.7969 113.312 50.9844 112.531C50.1719 111.745 49.7656 110.63 49.7656 109.188C49.7656 107.76 50.1536 106.628 50.9297 105.789C51.7109 104.951 52.737 104.531 54.0078 104.531C55.1849 104.531 56.0911 104.875 56.7266 105.562C57.3672 106.25 57.6875 107.227 57.6875 108.492V109.289ZM56.2578 108.164C56.2526 107.393 56.0573 106.797 55.6719 106.375C55.2917 105.953 54.7109 105.742 53.9297 105.742C53.1432 105.742 52.5156 105.974 52.0469 106.438C51.5833 106.901 51.3203 107.477 51.2578 108.164H56.2578ZM65.3594 106.375H65.2812C65.0625 106.323 64.849 106.286 64.6406 106.266C64.4375 106.24 64.1953 106.227 63.9141 106.227C63.4609 106.227 63.0234 106.328 62.6016 106.531C62.1797 106.729 61.7734 106.987 61.3828 107.305V113.5H59.9141V104.773H61.3828V106.062C61.9661 105.594 62.4792 105.263 62.9219 105.07C63.3698 104.872 63.8255 104.773 64.2891 104.773C64.5443 104.773 64.7292 104.781 64.8438 104.797C64.9583 104.807 65.1302 104.831 65.3594 104.867V106.375ZM71.2734 113.422C70.9974 113.495 70.6953 113.555 70.3672 113.602C70.0443 113.648 69.7552 113.672 69.5 113.672C68.6094 113.672 67.9323 113.432 67.4688 112.953C67.0052 112.474 66.7734 111.706 66.7734 110.648V106.008H65.7812V104.773H66.7734V102.266H68.2422V104.773H71.2734V106.008H68.2422V109.984C68.2422 110.443 68.2526 110.802 68.2734 111.062C68.2943 111.318 68.3672 111.557 68.4922 111.781C68.6068 111.99 68.763 112.143 68.9609 112.242C69.1641 112.336 69.4714 112.383 69.8828 112.383C70.1224 112.383 70.3724 112.349 70.6328 112.281C70.8932 112.208 71.0807 112.148 71.1953 112.102H71.2734V113.422ZM74.6328 103.312H72.9766V101.789H74.6328V103.312ZM74.5391 113.5H73.0703V104.773H74.5391V113.5ZM82.1406 102.766H82.0625C81.901 102.719 81.6901 102.672 81.4297 102.625C81.1693 102.573 80.9401 102.547 80.7422 102.547C80.112 102.547 79.6536 102.688 79.3672 102.969C79.0859 103.245 78.9453 103.747 78.9453 104.477V104.773H81.5938V106.008H78.9922V113.5H77.5234V106.008H76.5312V104.773H77.5234V104.484C77.5234 103.448 77.7812 102.654 78.2969 102.102C78.8125 101.544 79.5573 101.266 80.5312 101.266C80.8594 101.266 81.1536 101.281 81.4141 101.312C81.6797 101.344 81.9219 101.38 82.1406 101.422V102.766ZM84.6484 103.312H82.9922V101.789H84.6484V103.312ZM84.5547 113.5H83.0859V104.773H84.5547V113.5ZM95.3828 113.5H93.4453L89.9453 109.68L88.9922 110.586V113.5H87.5234V101.344H88.9922V109.141L93.2344 104.773H95.0859L91.0312 108.805L95.3828 113.5ZM103.711 113.5H102.25V112.57C102.12 112.659 101.943 112.784 101.719 112.945C101.5 113.102 101.286 113.227 101.078 113.32C100.833 113.44 100.552 113.539 100.234 113.617C99.9167 113.701 99.5443 113.742 99.1172 113.742C98.3307 113.742 97.6641 113.482 97.1172 112.961C96.5703 112.44 96.2969 111.776 96.2969 110.969C96.2969 110.307 96.4375 109.773 96.7188 109.367C97.0052 108.956 97.4115 108.633 97.9375 108.398C98.4688 108.164 99.1068 108.005 99.8516 107.922C100.596 107.839 101.396 107.776 102.25 107.734V107.508C102.25 107.174 102.19 106.898 102.07 106.68C101.956 106.461 101.789 106.289 101.57 106.164C101.362 106.044 101.112 105.964 100.82 105.922C100.529 105.88 100.224 105.859 99.9062 105.859C99.5208 105.859 99.0911 105.911 98.6172 106.016C98.1432 106.115 97.6536 106.26 97.1484 106.453H97.0703V104.961C97.3568 104.883 97.7708 104.797 98.3125 104.703C98.8542 104.609 99.388 104.562 99.9141 104.562C100.529 104.562 101.062 104.615 101.516 104.719C101.974 104.818 102.37 104.99 102.703 105.234C103.031 105.474 103.281 105.784 103.453 106.164C103.625 106.544 103.711 107.016 103.711 107.578V113.5ZM102.25 111.352V108.922C101.802 108.948 101.273 108.987 100.664 109.039C100.06 109.091 99.5807 109.167 99.2266 109.266C98.8047 109.385 98.4635 109.573 98.2031 109.828C97.9427 110.078 97.8125 110.424 97.8125 110.867C97.8125 111.367 97.9635 111.745 98.2656 112C98.5677 112.25 99.0286 112.375 99.6484 112.375C100.164 112.375 100.635 112.276 101.062 112.078C101.49 111.875 101.885 111.633 102.25 111.352ZM111.07 113.422C110.794 113.495 110.492 113.555 110.164 113.602C109.841 113.648 109.552 113.672 109.297 113.672C108.406 113.672 107.729 113.432 107.266 112.953C106.802 112.474 106.57 111.706 106.57 110.648V106.008H105.578V104.773H106.57V102.266H108.039V104.773H111.07V106.008H108.039V109.984C108.039 110.443 108.049 110.802 108.07 111.062C108.091 111.318 108.164 111.557 108.289 111.781C108.404 111.99 108.56 112.143 108.758 112.242C108.961 112.336 109.268 112.383 109.68 112.383C109.919 112.383 110.169 112.349 110.43 112.281C110.69 112.208 110.878 112.148 110.992 112.102H111.07V113.422ZM114.336 113.5H112.867V101.344H114.336V113.5ZM124.023 113.5H122.562V112.57C122.432 112.659 122.255 112.784 122.031 112.945C121.812 113.102 121.599 113.227 121.391 113.32C121.146 113.44 120.865 113.539 120.547 113.617C120.229 113.701 119.857 113.742 119.43 113.742C118.643 113.742 117.977 113.482 117.43 112.961C116.883 112.44 116.609 111.776 116.609 110.969C116.609 110.307 116.75 109.773 117.031 109.367C117.318 108.956 117.724 108.633 118.25 108.398C118.781 108.164 119.419 108.005 120.164 107.922C120.909 107.839 121.708 107.776 122.562 107.734V107.508C122.562 107.174 122.503 106.898 122.383 106.68C122.268 106.461 122.102 106.289 121.883 106.164C121.674 106.044 121.424 105.964 121.133 105.922C120.841 105.88 120.536 105.859 120.219 105.859C119.833 105.859 119.404 105.911 118.93 106.016C118.456 106.115 117.966 106.26 117.461 106.453H117.383V104.961C117.669 104.883 118.083 104.797 118.625 104.703C119.167 104.609 119.701 104.562 120.227 104.562C120.841 104.562 121.375 104.615 121.828 104.719C122.286 104.818 122.682 104.99 123.016 105.234C123.344 105.474 123.594 105.784 123.766 106.164C123.938 106.544 124.023 107.016 124.023 107.578V113.5ZM122.562 111.352V108.922C122.115 108.948 121.586 108.987 120.977 109.039C120.372 109.091 119.893 109.167 119.539 109.266C119.117 109.385 118.776 109.573 118.516 109.828C118.255 110.078 118.125 110.424 118.125 110.867C118.125 111.367 118.276 111.745 118.578 112C118.88 112.25 119.341 112.375 119.961 112.375C120.477 112.375 120.948 112.276 121.375 112.078C121.802 111.875 122.198 111.633 122.562 111.352ZM133.086 110.984C133.086 111.781 132.755 112.435 132.094 112.945C131.438 113.456 130.539 113.711 129.398 113.711C128.753 113.711 128.159 113.635 127.617 113.484C127.081 113.328 126.63 113.159 126.266 112.977V111.328H126.344C126.807 111.677 127.323 111.956 127.891 112.164C128.458 112.367 129.003 112.469 129.523 112.469C130.169 112.469 130.674 112.365 131.039 112.156C131.404 111.948 131.586 111.62 131.586 111.172C131.586 110.828 131.487 110.568 131.289 110.391C131.091 110.214 130.711 110.062 130.148 109.938C129.94 109.891 129.667 109.836 129.328 109.773C128.995 109.711 128.69 109.643 128.414 109.57C127.648 109.367 127.104 109.07 126.781 108.68C126.464 108.284 126.305 107.799 126.305 107.227C126.305 106.867 126.378 106.529 126.523 106.211C126.674 105.893 126.901 105.609 127.203 105.359C127.495 105.115 127.865 104.922 128.312 104.781C128.766 104.635 129.271 104.562 129.828 104.562C130.349 104.562 130.875 104.628 131.406 104.758C131.943 104.883 132.388 105.036 132.742 105.219V106.789H132.664C132.289 106.513 131.833 106.281 131.297 106.094C130.76 105.901 130.234 105.805 129.719 105.805C129.182 105.805 128.729 105.909 128.359 106.117C127.99 106.32 127.805 106.625 127.805 107.031C127.805 107.391 127.917 107.661 128.141 107.844C128.359 108.026 128.714 108.174 129.203 108.289C129.474 108.352 129.776 108.414 130.109 108.477C130.448 108.539 130.729 108.596 130.953 108.648C131.635 108.805 132.161 109.073 132.531 109.453C132.901 109.839 133.086 110.349 133.086 110.984ZM142.492 113.5H141.023V108.531C141.023 108.13 141 107.755 140.953 107.406C140.906 107.052 140.82 106.776 140.695 106.578C140.565 106.359 140.378 106.198 140.133 106.094C139.888 105.984 139.57 105.93 139.18 105.93C138.779 105.93 138.359 106.029 137.922 106.227C137.484 106.424 137.065 106.677 136.664 106.984V113.5H135.195V101.344H136.664V105.742C137.122 105.362 137.596 105.065 138.086 104.852C138.576 104.638 139.078 104.531 139.594 104.531C140.536 104.531 141.255 104.815 141.75 105.383C142.245 105.951 142.492 106.768 142.492 107.836V113.5Z" fill="#333333"/>
<path d="M5 153L12.5 160.5L25 145.5" stroke="#61B857" stroke-width="2" stroke-linecap="round" stroke-linejoin="round"/>
<path d="M48.0156 156.18C48.0156 156.633 47.9089 157.081 47.6953 157.523C47.487 157.966 47.1927 158.341 46.8125 158.648C46.3958 158.982 45.9089 159.242 45.3516 159.43C44.7995 159.617 44.1328 159.711 43.3516 159.711C42.513 159.711 41.7578 159.633 41.0859 159.477C40.4193 159.32 39.7396 159.089 39.0469 158.781V156.844H39.1562C39.7448 157.333 40.4245 157.711 41.1953 157.977C41.9661 158.242 42.6901 158.375 43.3672 158.375C44.3255 158.375 45.0703 158.195 45.6016 157.836C46.138 157.477 46.4062 156.997 46.4062 156.398C46.4062 155.883 46.2786 155.503 46.0234 155.258C45.7734 155.013 45.3906 154.823 44.875 154.688C44.4844 154.583 44.0599 154.497 43.6016 154.43C43.1484 154.362 42.6667 154.276 42.1562 154.172C41.125 153.953 40.3594 153.581 39.8594 153.055C39.3646 152.523 39.1172 151.833 39.1172 150.984C39.1172 150.01 39.5286 149.214 40.3516 148.594C41.1745 147.969 42.2188 147.656 43.4844 147.656C44.3021 147.656 45.0521 147.734 45.7344 147.891C46.4167 148.047 47.0208 148.24 47.5469 148.469V150.297H47.4375C46.9948 149.922 46.4115 149.612 45.6875 149.367C44.9688 149.117 44.2318 148.992 43.4766 148.992C42.6484 148.992 41.9818 149.164 41.4766 149.508C40.9766 149.852 40.7266 150.294 40.7266 150.836C40.7266 151.32 40.8516 151.701 41.1016 151.977C41.3516 152.253 41.7917 152.464 42.4219 152.609C42.7552 152.682 43.2292 152.771 43.8438 152.875C44.4583 152.979 44.9792 153.086 45.4062 153.195C46.2708 153.424 46.9219 153.771 47.3594 154.234C47.7969 154.698 48.0156 155.346 48.0156 156.18ZM57.1641 159.5H55.7031V158.57C55.5729 158.659 55.3958 158.784 55.1719 158.945C54.9531 159.102 54.7396 159.227 54.5312 159.32C54.2865 159.44 54.0052 159.539 53.6875 159.617C53.3698 159.701 52.9974 159.742 52.5703 159.742C51.7839 159.742 51.1172 159.482 50.5703 158.961C50.0234 158.44 49.75 157.776 49.75 156.969C49.75 156.307 49.8906 155.773 50.1719 155.367C50.4583 154.956 50.8646 154.633 51.3906 154.398C51.9219 154.164 52.5599 154.005 53.3047 153.922C54.0495 153.839 54.849 153.776 55.7031 153.734V153.508C55.7031 153.174 55.6432 152.898 55.5234 152.68C55.4089 152.461 55.2422 152.289 55.0234 152.164C54.8151 152.044 54.5651 151.964 54.2734 151.922C53.9818 151.88 53.6771 151.859 53.3594 151.859C52.974 151.859 52.5443 151.911 52.0703 152.016C51.5964 152.115 51.1068 152.26 50.6016 152.453H50.5234V150.961C50.8099 150.883 51.224 150.797 51.7656 150.703C52.3073 150.609 52.8411 150.562 53.3672 150.562C53.9818 150.562 54.5156 150.615 54.9688 150.719C55.4271 150.818 55.8229 150.99 56.1562 151.234C56.4844 151.474 56.7344 151.784 56.9062 152.164C57.0781 152.544 57.1641 153.016 57.1641 153.578V159.5ZM55.7031 157.352V154.922C55.2552 154.948 54.7266 154.987 54.1172 155.039C53.513 155.091 53.0339 155.167 52.6797 155.266C52.2578 155.385 51.9167 155.573 51.6562 155.828C51.3958 156.078 51.2656 156.424 51.2656 156.867C51.2656 157.367 51.4167 157.745 51.7188 158C52.0208 158.25 52.4818 158.375 53.1016 158.375C53.6172 158.375 54.0885 158.276 54.5156 158.078C54.9427 157.875 55.3385 157.633 55.7031 157.352ZM67.4141 150.773L63.8828 159.5H62.4062L58.8984 150.773H60.4922L63.1953 157.719L65.875 150.773H67.4141ZM76.4141 159.5H74.9453V158.586C74.5234 158.951 74.0833 159.234 73.625 159.438C73.1667 159.641 72.6693 159.742 72.1328 159.742C71.0911 159.742 70.263 159.341 69.6484 158.539C69.0391 157.737 68.7344 156.625 68.7344 155.203C68.7344 154.464 68.8385 153.805 69.0469 153.227C69.2604 152.648 69.5469 152.156 69.9062 151.75C70.2604 151.354 70.6719 151.052 71.1406 150.844C71.6146 150.635 72.1042 150.531 72.6094 150.531C73.0677 150.531 73.474 150.581 73.8281 150.68C74.1823 150.773 74.5547 150.922 74.9453 151.125V147.344H76.4141V159.5ZM74.9453 157.352V152.344C74.5495 152.167 74.1953 152.044 73.8828 151.977C73.5703 151.909 73.2292 151.875 72.8594 151.875C72.0365 151.875 71.3958 152.161 70.9375 152.734C70.4792 153.307 70.25 154.12 70.25 155.172C70.25 156.208 70.4271 156.997 70.7812 157.539C71.1354 158.076 71.7031 158.344 72.4844 158.344C72.901 158.344 73.3229 158.253 73.75 158.07C74.1771 157.883 74.5755 157.643 74.9453 157.352ZM86.7422 155.141C86.7422 156.562 86.3776 157.685 85.6484 158.508C84.9193 159.331 83.9427 159.742 82.7188 159.742C81.4844 159.742 80.5026 159.331 79.7734 158.508C79.0495 157.685 78.6875 156.562 78.6875 155.141C78.6875 153.719 79.0495 152.596 79.7734 151.773C80.5026 150.945 81.4844 150.531 82.7188 150.531C83.9427 150.531 84.9193 150.945 85.6484 151.773C86.3776 152.596 86.7422 153.719 86.7422 155.141ZM85.2266 155.141C85.2266 154.01 85.0052 153.172 84.5625 152.625C84.1198 152.073 83.5052 151.797 82.7188 151.797C81.9219 151.797 81.3021 152.073 80.8594 152.625C80.4219 153.172 80.2031 154.01 80.2031 155.141C80.2031 156.234 80.4245 157.065 80.8672 157.633C81.3099 158.195 81.9271 158.477 82.7188 158.477C83.5 158.477 84.112 158.198 84.5547 157.641C85.0026 157.078 85.2266 156.245 85.2266 155.141ZM102.328 155.07C102.328 155.799 102.224 156.456 102.016 157.039C101.812 157.622 101.536 158.112 101.188 158.508C100.818 158.919 100.411 159.229 99.9688 159.438C99.526 159.641 99.0391 159.742 98.5078 159.742C98.013 159.742 97.5807 159.682 97.2109 159.562C96.8411 159.448 96.4766 159.292 96.1172 159.094L96.0234 159.5H94.6484V147.344H96.1172V151.688C96.5286 151.349 96.9661 151.073 97.4297 150.859C97.8932 150.641 98.4141 150.531 98.9922 150.531C100.023 150.531 100.836 150.927 101.43 151.719C102.029 152.51 102.328 153.628 102.328 155.07ZM100.812 155.109C100.812 154.068 100.641 153.279 100.297 152.742C99.9531 152.201 99.3984 151.93 98.6328 151.93C98.2057 151.93 97.7734 152.023 97.3359 152.211C96.8984 152.393 96.4922 152.63 96.1172 152.922V157.922C96.5339 158.109 96.8906 158.24 97.1875 158.312C97.4896 158.385 97.8307 158.422 98.2109 158.422C99.0234 158.422 99.6589 158.156 100.117 157.625C100.581 157.089 100.812 156.25 100.812 155.109ZM112.055 155.141C112.055 156.562 111.69 157.685 110.961 158.508C110.232 159.331 109.255 159.742 108.031 159.742C106.797 159.742 105.815 159.331 105.086 158.508C104.362 157.685 104 156.562 104 155.141C104 153.719 104.362 152.596 105.086 151.773C105.815 150.945 106.797 150.531 108.031 150.531C109.255 150.531 110.232 150.945 110.961 151.773C111.69 152.596 112.055 153.719 112.055 155.141ZM110.539 155.141C110.539 154.01 110.318 153.172 109.875 152.625C109.432 152.073 108.818 151.797 108.031 151.797C107.234 151.797 106.615 152.073 106.172 152.625C105.734 153.172 105.516 154.01 105.516 155.141C105.516 156.234 105.737 157.065 106.18 157.633C106.622 158.195 107.24 158.477 108.031 158.477C108.812 158.477 109.424 158.198 109.867 157.641C110.315 157.078 110.539 156.245 110.539 155.141ZM115.906 147.344L115.57 151.867H114.508L114.172 147.344H115.906ZM120.117 159.5H118.648V147.344H120.117V159.5ZM124.602 149.312H122.945V147.789H124.602V149.312ZM124.508 159.5H123.039V150.773H124.508V159.5ZM140.148 159.5H138.68V154.531C138.68 154.156 138.661 153.794 138.625 153.445C138.594 153.096 138.523 152.818 138.414 152.609C138.294 152.385 138.122 152.216 137.898 152.102C137.674 151.987 137.352 151.93 136.93 151.93C136.518 151.93 136.107 152.034 135.695 152.242C135.284 152.445 134.872 152.706 134.461 153.023C134.477 153.143 134.49 153.284 134.5 153.445C134.51 153.602 134.516 153.758 134.516 153.914V159.5H133.047V154.531C133.047 154.146 133.029 153.781 132.992 153.438C132.961 153.089 132.891 152.81 132.781 152.602C132.661 152.378 132.49 152.211 132.266 152.102C132.042 151.987 131.719 151.93 131.297 151.93C130.896 151.93 130.492 152.029 130.086 152.227C129.685 152.424 129.284 152.677 128.883 152.984V159.5H127.414V150.773H128.883V151.742C129.341 151.362 129.797 151.065 130.25 150.852C130.708 150.638 131.195 150.531 131.711 150.531C132.305 150.531 132.807 150.656 133.219 150.906C133.635 151.156 133.945 151.503 134.148 151.945C134.742 151.445 135.284 151.086 135.773 150.867C136.263 150.643 136.786 150.531 137.344 150.531C138.302 150.531 139.008 150.823 139.461 151.406C139.919 151.984 140.148 152.794 140.148 153.836V159.5ZM144.555 149.312H142.898V147.789H144.555V149.312ZM144.461 159.5H142.992V150.773H144.461V159.5Z" fill="#333333"/>
<path d="M5 199L12.5 206.5L25 191.5" stroke="#61B857" stroke-width="2" stroke-linecap="round" stroke-linejoin="round"/>
<path d="M48.4609 205.5H46.9141V199.805H41.1094V205.5H39.5625V193.867H41.1094V198.43H46.9141V193.867H48.4609V205.5ZM58.7109 205.5H57.2422V204.531C56.7474 204.922 56.2734 205.221 55.8203 205.43C55.3672 205.638 54.8672 205.742 54.3203 205.742C53.4036 205.742 52.6901 205.464 52.1797 204.906C51.6693 204.344 51.4141 203.521 51.4141 202.438V196.773H52.8828V201.742C52.8828 202.185 52.9036 202.565 52.9453 202.883C52.987 203.195 53.0755 203.464 53.2109 203.688C53.3516 203.917 53.5339 204.083 53.7578 204.188C53.9818 204.292 54.3073 204.344 54.7344 204.344C55.1146 204.344 55.5286 204.245 55.9766 204.047C56.4297 203.849 56.8516 203.596 57.2422 203.289V196.773H58.7109V205.5ZM68.6797 208.719H67.2109V204.516C66.7578 204.906 66.3073 205.198 65.8594 205.391C65.4115 205.578 64.9271 205.672 64.4062 205.672C63.3698 205.672 62.5417 205.273 61.9219 204.477C61.3073 203.674 61 202.57 61 201.164C61 200.414 61.1068 199.753 61.3203 199.18C61.5391 198.602 61.8255 198.117 62.1797 197.727C62.5234 197.346 62.9271 197.052 63.3906 196.844C63.8542 196.635 64.3438 196.531 64.8594 196.531C65.3281 196.531 65.7422 196.583 66.1016 196.688C66.4661 196.792 66.8359 196.945 67.2109 197.148L67.3047 196.773H68.6797V208.719ZM67.2109 203.281V198.344C66.8047 198.161 66.4453 198.034 66.1328 197.961C65.8203 197.888 65.4818 197.852 65.1172 197.852C64.2682 197.852 63.6224 198.141 63.1797 198.719C62.737 199.292 62.5156 200.083 62.5156 201.094C62.5156 202.115 62.6927 202.901 63.0469 203.453C63.4062 204 63.9688 204.273 64.7344 204.273C65.1615 204.273 65.5885 204.182 66.0156 204C66.4427 203.812 66.8411 203.573 67.2109 203.281ZM78.8047 205.5H77.3359V204.531C76.8411 204.922 76.3672 205.221 75.9141 205.43C75.4609 205.638 74.9609 205.742 74.4141 205.742C73.4974 205.742 72.7839 205.464 72.2734 204.906C71.763 204.344 71.5078 203.521 71.5078 202.438V196.773H72.9766V201.742C72.9766 202.185 72.9974 202.565 73.0391 202.883C73.0807 203.195 73.1693 203.464 73.3047 203.688C73.4453 203.917 73.6276 204.083 73.8516 204.188C74.0755 204.292 74.401 204.344 74.8281 204.344C75.2083 204.344 75.6224 204.245 76.0703 204.047C76.5234 203.849 76.9453 203.596 77.3359 203.289V196.773H78.8047V205.5ZM88.7734 208.719H87.3047V204.516C86.8516 204.906 86.401 205.198 85.9531 205.391C85.5052 205.578 85.0208 205.672 84.5 205.672C83.4635 205.672 82.6354 205.273 82.0156 204.477C81.401 203.674 81.0938 202.57 81.0938 201.164C81.0938 200.414 81.2005 199.753 81.4141 199.18C81.6328 198.602 81.9193 198.117 82.2734 197.727C82.6172 197.346 83.0208 197.052 83.4844 196.844C83.9479 196.635 84.4375 196.531 84.9531 196.531C85.4219 196.531 85.8359 196.583 86.1953 196.688C86.5599 196.792 86.9297 196.945 87.3047 197.148L87.3984 196.773H88.7734V208.719ZM87.3047 203.281V198.344C86.8984 198.161 86.5391 198.034 86.2266 197.961C85.9141 197.888 85.5755 197.852 85.2109 197.852C84.362 197.852 83.7161 198.141 83.2734 198.719C82.8307 199.292 82.6094 200.083 82.6094 201.094C82.6094 202.115 82.7865 202.901 83.1406 203.453C83.5 204 84.0625 204.273 84.8281 204.273C85.2552 204.273 85.6823 204.182 86.1094 204C86.5365 203.812 86.9349 203.573 87.3047 203.281ZM93.2422 195.312H91.5859V193.789H93.2422V195.312ZM93.1484 205.5H91.6797V196.773H93.1484V205.5ZM103.602 196.773L98.5078 208.719H96.9375L98.5625 205.078L95.0859 196.773H96.6797L99.3594 203.242L102.062 196.773H103.602ZM118.695 196.773L113.602 208.719H112.031L113.656 205.078L110.18 196.773H111.773L114.453 203.242L117.156 196.773H118.695ZM127.914 201.141C127.914 202.562 127.549 203.685 126.82 204.508C126.091 205.331 125.115 205.742 123.891 205.742C122.656 205.742 121.674 205.331 120.945 204.508C120.221 203.685 119.859 202.562 119.859 201.141C119.859 199.719 120.221 198.596 120.945 197.773C121.674 196.945 122.656 196.531 123.891 196.531C125.115 196.531 126.091 196.945 126.82 197.773C127.549 198.596 127.914 199.719 127.914 201.141ZM126.398 201.141C126.398 200.01 126.177 199.172 125.734 198.625C125.292 198.073 124.677 197.797 123.891 197.797C123.094 197.797 122.474 198.073 122.031 198.625C121.594 199.172 121.375 200.01 121.375 201.141C121.375 202.234 121.596 203.065 122.039 203.633C122.482 204.195 123.099 204.477 123.891 204.477C124.672 204.477 125.284 204.198 125.727 203.641C126.174 203.078 126.398 202.245 126.398 201.141ZM135.641 198.375H135.562C135.344 198.323 135.13 198.286 134.922 198.266C134.719 198.24 134.477 198.227 134.195 198.227C133.742 198.227 133.305 198.328 132.883 198.531C132.461 198.729 132.055 198.987 131.664 199.305V205.5H130.195V196.773H131.664V198.062C132.247 197.594 132.76 197.263 133.203 197.07C133.651 196.872 134.107 196.773 134.57 196.773C134.826 196.773 135.01 196.781 135.125 196.797C135.24 196.807 135.411 196.831 135.641 196.867V198.375ZM144.102 205.5H142.633V204.586C142.211 204.951 141.771 205.234 141.312 205.438C140.854 205.641 140.357 205.742 139.82 205.742C138.779 205.742 137.951 205.341 137.336 204.539C136.727 203.737 136.422 202.625 136.422 201.203C136.422 200.464 136.526 199.805 136.734 199.227C136.948 198.648 137.234 198.156 137.594 197.75C137.948 197.354 138.359 197.052 138.828 196.844C139.302 196.635 139.792 196.531 140.297 196.531C140.755 196.531 141.161 196.581 141.516 196.68C141.87 196.773 142.242 196.922 142.633 197.125V193.344H144.102V205.5ZM142.633 203.352V198.344C142.237 198.167 141.883 198.044 141.57 197.977C141.258 197.909 140.917 197.875 140.547 197.875C139.724 197.875 139.083 198.161 138.625 198.734C138.167 199.307 137.938 200.12 137.938 201.172C137.938 202.208 138.115 202.997 138.469 203.539C138.823 204.076 139.391 204.344 140.172 204.344C140.589 204.344 141.01 204.253 141.438 204.07C141.865 203.883 142.263 203.643 142.633 203.352ZM153.773 205.5H152.312V204.57C152.182 204.659 152.005 204.784 151.781 204.945C151.562 205.102 151.349 205.227 151.141 205.32C150.896 205.44 150.615 205.539 150.297 205.617C149.979 205.701 149.607 205.742 149.18 205.742C148.393 205.742 147.727 205.482 147.18 204.961C146.633 204.44 146.359 203.776 146.359 202.969C146.359 202.307 146.5 201.773 146.781 201.367C147.068 200.956 147.474 200.633 148 200.398C148.531 200.164 149.169 200.005 149.914 199.922C150.659 199.839 151.458 199.776 152.312 199.734V199.508C152.312 199.174 152.253 198.898 152.133 198.68C152.018 198.461 151.852 198.289 151.633 198.164C151.424 198.044 151.174 197.964 150.883 197.922C150.591 197.88 150.286 197.859 149.969 197.859C149.583 197.859 149.154 197.911 148.68 198.016C148.206 198.115 147.716 198.26 147.211 198.453H147.133V196.961C147.419 196.883 147.833 196.797 148.375 196.703C148.917 196.609 149.451 196.562 149.977 196.562C150.591 196.562 151.125 196.615 151.578 196.719C152.036 196.818 152.432 196.99 152.766 197.234C153.094 197.474 153.344 197.784 153.516 198.164C153.688 198.544 153.773 199.016 153.773 199.578V205.5ZM152.312 203.352V200.922C151.865 200.948 151.336 200.987 150.727 201.039C150.122 201.091 149.643 201.167 149.289 201.266C148.867 201.385 148.526 201.573 148.266 201.828C148.005 202.078 147.875 202.424 147.875 202.867C147.875 203.367 148.026 203.745 148.328 204C148.63 204.25 149.091 204.375 149.711 204.375C150.227 204.375 150.698 204.276 151.125 204.078C151.552 203.875 151.948 203.633 152.312 203.352ZM169.336 205.5H167.867V200.531C167.867 200.156 167.849 199.794 167.812 199.445C167.781 199.096 167.711 198.818 167.602 198.609C167.482 198.385 167.31 198.216 167.086 198.102C166.862 197.987 166.539 197.93 166.117 197.93C165.706 197.93 165.294 198.034 164.883 198.242C164.471 198.445 164.06 198.706 163.648 199.023C163.664 199.143 163.677 199.284 163.688 199.445C163.698 199.602 163.703 199.758 163.703 199.914V205.5H162.234V200.531C162.234 200.146 162.216 199.781 162.18 199.438C162.148 199.089 162.078 198.81 161.969 198.602C161.849 198.378 161.677 198.211 161.453 198.102C161.229 197.987 160.906 197.93 160.484 197.93C160.083 197.93 159.68 198.029 159.273 198.227C158.872 198.424 158.471 198.677 158.07 198.984V205.5H156.602V196.773H158.07V197.742C158.529 197.362 158.984 197.065 159.438 196.852C159.896 196.638 160.383 196.531 160.898 196.531C161.492 196.531 161.995 196.656 162.406 196.906C162.823 197.156 163.133 197.503 163.336 197.945C163.93 197.445 164.471 197.086 164.961 196.867C165.451 196.643 165.974 196.531 166.531 196.531C167.49 196.531 168.195 196.823 168.648 197.406C169.107 197.984 169.336 198.794 169.336 199.836V205.5Z" fill="#333333"/>
<path d="M5 245L12.5 252.5L25 237.5" stroke="#61B857" stroke-width="2" stroke-linecap="round" stroke-linejoin="round"/>
<path d="M48.3359 247.922C48.3359 248.5 48.2266 249.01 48.0078 249.453C47.7891 249.896 47.4948 250.26 47.125 250.547C46.6875 250.891 46.2057 251.135 45.6797 251.281C45.1589 251.427 44.4948 251.5 43.6875 251.5H39.5625V239.867H43.0078C43.8568 239.867 44.4922 239.898 44.9141 239.961C45.3359 240.023 45.7396 240.154 46.125 240.352C46.5521 240.576 46.862 240.865 47.0547 241.219C47.2474 241.568 47.3438 241.987 47.3438 242.477C47.3438 243.029 47.2031 243.5 46.9219 243.891C46.6406 244.276 46.2656 244.586 45.7969 244.82V244.883C46.5833 245.044 47.2031 245.391 47.6562 245.922C48.1094 246.448 48.3359 247.115 48.3359 247.922ZM45.7344 242.68C45.7344 242.398 45.6875 242.161 45.5938 241.969C45.5 241.776 45.349 241.62 45.1406 241.5C44.8958 241.359 44.599 241.273 44.25 241.242C43.901 241.206 43.4688 241.188 42.9531 241.188H41.1094V244.547H43.1094C43.5938 244.547 43.9792 244.523 44.2656 244.477C44.5521 244.424 44.8177 244.32 45.0625 244.164C45.3073 244.008 45.4792 243.807 45.5781 243.562C45.6823 243.312 45.7344 243.018 45.7344 242.68ZM46.7266 247.984C46.7266 247.516 46.6562 247.143 46.5156 246.867C46.375 246.591 46.1198 246.357 45.75 246.164C45.5 246.034 45.1953 245.951 44.8359 245.914C44.4818 245.872 44.0495 245.852 43.5391 245.852H41.1094V250.18H43.1562C43.8333 250.18 44.388 250.146 44.8203 250.078C45.2526 250.005 45.6068 249.875 45.8828 249.688C46.1745 249.484 46.388 249.253 46.5234 248.992C46.6589 248.732 46.7266 248.396 46.7266 247.984ZM57.8516 247.141C57.8516 248.562 57.487 249.685 56.7578 250.508C56.0286 251.331 55.0521 251.742 53.8281 251.742C52.5938 251.742 51.612 251.331 50.8828 250.508C50.1589 249.685 49.7969 248.562 49.7969 247.141C49.7969 245.719 50.1589 244.596 50.8828 243.773C51.612 242.945 52.5938 242.531 53.8281 242.531C55.0521 242.531 56.0286 242.945 56.7578 243.773C57.487 244.596 57.8516 245.719 57.8516 247.141ZM56.3359 247.141C56.3359 246.01 56.1146 245.172 55.6719 244.625C55.2292 244.073 54.6146 243.797 53.8281 243.797C53.0312 243.797 52.4115 244.073 51.9688 244.625C51.5312 245.172 51.3125 246.01 51.3125 247.141C51.3125 248.234 51.5339 249.065 51.9766 249.633C52.4193 250.195 53.0365 250.477 53.8281 250.477C54.6094 250.477 55.2214 250.198 55.6641 249.641C56.112 249.078 56.3359 248.245 56.3359 247.141ZM62.8516 241.312H61.1953V239.789H62.8516V241.312ZM62.7578 251.711C62.7578 252.732 62.4974 253.503 61.9766 254.023C61.4557 254.544 60.7578 254.805 59.8828 254.805C59.6745 254.805 59.3984 254.784 59.0547 254.742C58.7161 254.701 58.4323 254.648 58.2031 254.586V253.188H58.2812C58.4271 253.245 58.6224 253.31 58.8672 253.383C59.1172 253.456 59.3594 253.492 59.5938 253.492C59.9688 253.492 60.2708 253.44 60.5 253.336C60.7292 253.232 60.901 253.076 61.0156 252.867C61.1302 252.659 61.2031 252.406 61.2344 252.109C61.2708 251.818 61.2891 251.461 61.2891 251.039V244.008H59.4688V242.773H62.7578V251.711ZM73.2031 251.5H71.3516L68.875 248.148L66.3828 251.5H64.6719L68.0781 247.148L64.7031 242.773H66.5547L69.0156 246.07L71.4844 242.773H73.2031L69.7734 247.07L73.2031 251.5ZM82.3672 247.141C82.3672 248.562 82.0026 249.685 81.2734 250.508C80.5443 251.331 79.5677 251.742 78.3438 251.742C77.1094 251.742 76.1276 251.331 75.3984 250.508C74.6745 249.685 74.3125 248.562 74.3125 247.141C74.3125 245.719 74.6745 244.596 75.3984 243.773C76.1276 242.945 77.1094 242.531 78.3438 242.531C79.5677 242.531 80.5443 242.945 81.2734 243.773C82.0026 244.596 82.3672 245.719 82.3672 247.141ZM80.8516 247.141C80.8516 246.01 80.6302 245.172 80.1875 244.625C79.7448 244.073 79.1302 243.797 78.3438 243.797C77.5469 243.797 76.9271 244.073 76.4844 244.625C76.0469 245.172 75.8281 246.01 75.8281 247.141C75.8281 248.234 76.0495 249.065 76.4922 249.633C76.9349 250.195 77.5521 250.477 78.3438 250.477C79.125 250.477 79.737 250.198 80.1797 249.641C80.6276 249.078 80.8516 248.245 80.8516 247.141ZM91.9453 251.5H90.4766V246.531C90.4766 246.13 90.4531 245.755 90.4062 245.406C90.3594 245.052 90.2734 244.776 90.1484 244.578C90.0182 244.359 89.8307 244.198 89.5859 244.094C89.3411 243.984 89.0234 243.93 88.6328 243.93C88.2318 243.93 87.8125 244.029 87.375 244.227C86.9375 244.424 86.5182 244.677 86.1172 244.984V251.5H84.6484V242.773H86.1172V243.742C86.5755 243.362 87.0495 243.065 87.5391 242.852C88.0286 242.638 88.5312 242.531 89.0469 242.531C89.9896 242.531 90.7083 242.815 91.2031 243.383C91.6979 243.951 91.9453 244.768 91.9453 245.836V251.5ZM101.555 251.5H100.094V250.57C99.9635 250.659 99.7865 250.784 99.5625 250.945C99.3438 251.102 99.1302 251.227 98.9219 251.32C98.6771 251.44 98.3958 251.539 98.0781 251.617C97.7604 251.701 97.388 251.742 96.9609 251.742C96.1745 251.742 95.5078 251.482 94.9609 250.961C94.4141 250.44 94.1406 249.776 94.1406 248.969C94.1406 248.307 94.2812 247.773 94.5625 247.367C94.849 246.956 95.2552 246.633 95.7812 246.398C96.3125 246.164 96.9505 246.005 97.6953 245.922C98.4401 245.839 99.2396 245.776 100.094 245.734V245.508C100.094 245.174 100.034 244.898 99.9141 244.68C99.7995 244.461 99.6328 244.289 99.4141 244.164C99.2057 244.044 98.9557 243.964 98.6641 243.922C98.3724 243.88 98.0677 243.859 97.75 243.859C97.3646 243.859 96.9349 243.911 96.4609 244.016C95.987 244.115 95.4974 244.26 94.9922 244.453H94.9141V242.961C95.2005 242.883 95.6146 242.797 96.1562 242.703C96.6979 242.609 97.2318 242.562 97.7578 242.562C98.3724 242.562 98.9062 242.615 99.3594 242.719C99.8177 242.818 100.214 242.99 100.547 243.234C100.875 243.474 101.125 243.784 101.297 244.164C101.469 244.544 101.555 245.016 101.555 245.578V251.5ZM100.094 249.352V246.922C99.6458 246.948 99.1172 246.987 98.5078 247.039C97.9036 247.091 97.4245 247.167 97.0703 247.266C96.6484 247.385 96.3073 247.573 96.0469 247.828C95.7865 248.078 95.6562 248.424 95.6562 248.867C95.6562 249.367 95.8073 249.745 96.1094 250C96.4115 250.25 96.8724 250.375 97.4922 250.375C98.0078 250.375 98.4792 250.276 98.9062 250.078C99.3333 249.875 99.7292 249.633 100.094 249.352ZM122.742 251.5H121.273V246.531C121.273 246.156 121.255 245.794 121.219 245.445C121.188 245.096 121.117 244.818 121.008 244.609C120.888 244.385 120.716 244.216 120.492 244.102C120.268 243.987 119.945 243.93 119.523 243.93C119.112 243.93 118.701 244.034 118.289 244.242C117.878 244.445 117.466 244.706 117.055 245.023C117.07 245.143 117.083 245.284 117.094 245.445C117.104 245.602 117.109 245.758 117.109 245.914V251.5H115.641V246.531C115.641 246.146 115.622 245.781 115.586 245.438C115.555 245.089 115.484 244.81 115.375 244.602C115.255 244.378 115.083 244.211 114.859 244.102C114.635 243.987 114.312 243.93 113.891 243.93C113.49 243.93 113.086 244.029 112.68 244.227C112.279 244.424 111.878 244.677 111.477 244.984V251.5H110.008V242.773H111.477V243.742C111.935 243.362 112.391 243.065 112.844 242.852C113.302 242.638 113.789 242.531 114.305 242.531C114.898 242.531 115.401 242.656 115.812 242.906C116.229 243.156 116.539 243.503 116.742 243.945C117.336 243.445 117.878 243.086 118.367 242.867C118.857 242.643 119.38 242.531 119.938 242.531C120.896 242.531 121.602 242.823 122.055 243.406C122.513 243.984 122.742 244.794 122.742 245.836V251.5ZM132.805 251.5H131.336V250.531C130.841 250.922 130.367 251.221 129.914 251.43C129.461 251.638 128.961 251.742 128.414 251.742C127.497 251.742 126.784 251.464 126.273 250.906C125.763 250.344 125.508 249.521 125.508 248.438V242.773H126.977V247.742C126.977 248.185 126.997 248.565 127.039 248.883C127.081 249.195 127.169 249.464 127.305 249.688C127.445 249.917 127.628 250.083 127.852 250.188C128.076 250.292 128.401 250.344 128.828 250.344C129.208 250.344 129.622 250.245 130.07 250.047C130.523 249.849 130.945 249.596 131.336 249.289V242.773H132.805V251.5ZM140.227 251.422C139.951 251.495 139.648 251.555 139.32 251.602C138.997 251.648 138.708 251.672 138.453 251.672C137.562 251.672 136.885 251.432 136.422 250.953C135.958 250.474 135.727 249.706 135.727 248.648V244.008H134.734V242.773H135.727V240.266H137.195V242.773H140.227V244.008H137.195V247.984C137.195 248.443 137.206 248.802 137.227 249.062C137.247 249.318 137.32 249.557 137.445 249.781C137.56 249.99 137.716 250.143 137.914 250.242C138.117 250.336 138.424 250.383 138.836 250.383C139.076 250.383 139.326 250.349 139.586 250.281C139.846 250.208 140.034 250.148 140.148 250.102H140.227V251.422ZM148.789 251.5H147.328V250.57C147.198 250.659 147.021 250.784 146.797 250.945C146.578 251.102 146.365 251.227 146.156 251.32C145.911 251.44 145.63 251.539 145.312 251.617C144.995 251.701 144.622 251.742 144.195 251.742C143.409 251.742 142.742 251.482 142.195 250.961C141.648 250.44 141.375 249.776 141.375 248.969C141.375 248.307 141.516 247.773 141.797 247.367C142.083 246.956 142.49 246.633 143.016 246.398C143.547 246.164 144.185 246.005 144.93 245.922C145.674 245.839 146.474 245.776 147.328 245.734V245.508C147.328 245.174 147.268 244.898 147.148 244.68C147.034 244.461 146.867 244.289 146.648 244.164C146.44 244.044 146.19 243.964 145.898 243.922C145.607 243.88 145.302 243.859 144.984 243.859C144.599 243.859 144.169 243.911 143.695 244.016C143.221 244.115 142.732 244.26 142.227 244.453H142.148V242.961C142.435 242.883 142.849 242.797 143.391 242.703C143.932 242.609 144.466 242.562 144.992 242.562C145.607 242.562 146.141 242.615 146.594 242.719C147.052 242.818 147.448 242.99 147.781 243.234C148.109 243.474 148.359 243.784 148.531 244.164C148.703 244.544 148.789 245.016 148.789 245.578V251.5ZM147.328 249.352V246.922C146.88 246.948 146.352 246.987 145.742 247.039C145.138 247.091 144.659 247.167 144.305 247.266C143.883 247.385 143.542 247.573 143.281 247.828C143.021 248.078 142.891 248.424 142.891 248.867C142.891 249.367 143.042 249.745 143.344 250C143.646 250.25 144.107 250.375 144.727 250.375C145.242 250.375 145.714 250.276 146.141 250.078C146.568 249.875 146.964 249.633 147.328 249.352ZM159.172 251.5H157.32L154.844 248.148L152.352 251.5H150.641L154.047 247.148L150.672 242.773H152.523L154.984 246.07L157.453 242.773H159.172L155.742 247.07L159.172 251.5ZM167.867 251.5H166.406V250.57C166.276 250.659 166.099 250.784 165.875 250.945C165.656 251.102 165.443 251.227 165.234 251.32C164.99 251.44 164.708 251.539 164.391 251.617C164.073 251.701 163.701 251.742 163.273 251.742C162.487 251.742 161.82 251.482 161.273 250.961C160.727 250.44 160.453 249.776 160.453 248.969C160.453 248.307 160.594 247.773 160.875 247.367C161.161 246.956 161.568 246.633 162.094 246.398C162.625 246.164 163.263 246.005 164.008 245.922C164.753 245.839 165.552 245.776 166.406 245.734V245.508C166.406 245.174 166.346 244.898 166.227 244.68C166.112 244.461 165.945 244.289 165.727 244.164C165.518 244.044 165.268 243.964 164.977 243.922C164.685 243.88 164.38 243.859 164.062 243.859C163.677 243.859 163.247 243.911 162.773 244.016C162.299 244.115 161.81 244.26 161.305 244.453H161.227V242.961C161.513 242.883 161.927 242.797 162.469 242.703C163.01 242.609 163.544 242.562 164.07 242.562C164.685 242.562 165.219 242.615 165.672 242.719C166.13 242.818 166.526 242.99 166.859 243.234C167.188 243.474 167.438 243.784 167.609 244.164C167.781 244.544 167.867 245.016 167.867 245.578V251.5ZM166.406 249.352V246.922C165.958 246.948 165.43 246.987 164.82 247.039C164.216 247.091 163.737 247.167 163.383 247.266C162.961 247.385 162.62 247.573 162.359 247.828C162.099 248.078 161.969 248.424 161.969 248.867C161.969 249.367 162.12 249.745 162.422 250C162.724 250.25 163.185 250.375 163.805 250.375C164.32 250.375 164.792 250.276 165.219 250.078C165.646 249.875 166.042 249.633 166.406 249.352ZM176.93 248.984C176.93 249.781 176.599 250.435 175.938 250.945C175.281 251.456 174.383 251.711 173.242 251.711C172.596 251.711 172.003 251.635 171.461 251.484C170.924 251.328 170.474 251.159 170.109 250.977V249.328H170.188C170.651 249.677 171.167 249.956 171.734 250.164C172.302 250.367 172.846 250.469 173.367 250.469C174.013 250.469 174.518 250.365 174.883 250.156C175.247 249.948 175.43 249.62 175.43 249.172C175.43 248.828 175.331 248.568 175.133 248.391C174.935 248.214 174.555 248.062 173.992 247.938C173.784 247.891 173.51 247.836 173.172 247.773C172.839 247.711 172.534 247.643 172.258 247.57C171.492 247.367 170.948 247.07 170.625 246.68C170.307 246.284 170.148 245.799 170.148 245.227C170.148 244.867 170.221 244.529 170.367 244.211C170.518 243.893 170.745 243.609 171.047 243.359C171.339 243.115 171.708 242.922 172.156 242.781C172.609 242.635 173.115 242.562 173.672 242.562C174.193 242.562 174.719 242.628 175.25 242.758C175.786 242.883 176.232 243.036 176.586 243.219V244.789H176.508C176.133 244.513 175.677 244.281 175.141 244.094C174.604 243.901 174.078 243.805 173.562 243.805C173.026 243.805 172.573 243.909 172.203 244.117C171.833 244.32 171.648 244.625 171.648 245.031C171.648 245.391 171.76 245.661 171.984 245.844C172.203 246.026 172.557 246.174 173.047 246.289C173.318 246.352 173.62 246.414 173.953 246.477C174.292 246.539 174.573 246.596 174.797 246.648C175.479 246.805 176.005 247.073 176.375 247.453C176.745 247.839 176.93 248.349 176.93 248.984ZM185.273 248.984C185.273 249.781 184.943 250.435 184.281 250.945C183.625 251.456 182.727 251.711 181.586 251.711C180.94 251.711 180.346 251.635 179.805 251.484C179.268 251.328 178.818 251.159 178.453 250.977V249.328H178.531C178.995 249.677 179.51 249.956 180.078 250.164C180.646 250.367 181.19 250.469 181.711 250.469C182.357 250.469 182.862 250.365 183.227 250.156C183.591 249.948 183.773 249.62 183.773 249.172C183.773 248.828 183.674 248.568 183.477 248.391C183.279 248.214 182.898 248.062 182.336 247.938C182.128 247.891 181.854 247.836 181.516 247.773C181.182 247.711 180.878 247.643 180.602 247.57C179.836 247.367 179.292 247.07 178.969 246.68C178.651 246.284 178.492 245.799 178.492 245.227C178.492 244.867 178.565 244.529 178.711 244.211C178.862 243.893 179.089 243.609 179.391 243.359C179.682 243.115 180.052 242.922 180.5 242.781C180.953 242.635 181.458 242.562 182.016 242.562C182.536 242.562 183.062 242.628 183.594 242.758C184.13 242.883 184.576 243.036 184.93 243.219V244.789H184.852C184.477 244.513 184.021 244.281 183.484 244.094C182.948 243.901 182.422 243.805 181.906 243.805C181.37 243.805 180.917 243.909 180.547 244.117C180.177 244.32 179.992 244.625 179.992 245.031C179.992 245.391 180.104 245.661 180.328 245.844C180.547 246.026 180.901 246.174 181.391 246.289C181.661 246.352 181.964 246.414 182.297 246.477C182.635 246.539 182.917 246.596 183.141 246.648C183.823 246.805 184.349 247.073 184.719 247.453C185.089 247.839 185.273 248.349 185.273 248.984ZM188.961 241.312H187.305V239.789H188.961V241.312ZM188.867 251.5H187.398V242.773H188.867V251.5ZM198.008 248.984C198.008 249.781 197.677 250.435 197.016 250.945C196.359 251.456 195.461 251.711 194.32 251.711C193.674 251.711 193.081 251.635 192.539 251.484C192.003 251.328 191.552 251.159 191.188 250.977V249.328H191.266C191.729 249.677 192.245 249.956 192.812 250.164C193.38 250.367 193.924 250.469 194.445 250.469C195.091 250.469 195.596 250.365 195.961 250.156C196.326 249.948 196.508 249.62 196.508 249.172C196.508 248.828 196.409 248.568 196.211 248.391C196.013 248.214 195.633 248.062 195.07 247.938C194.862 247.891 194.589 247.836 194.25 247.773C193.917 247.711 193.612 247.643 193.336 247.57C192.57 247.367 192.026 247.07 191.703 246.68C191.385 246.284 191.227 245.799 191.227 245.227C191.227 244.867 191.299 244.529 191.445 244.211C191.596 243.893 191.823 243.609 192.125 243.359C192.417 243.115 192.786 242.922 193.234 242.781C193.688 242.635 194.193 242.562 194.75 242.562C195.271 242.562 195.797 242.628 196.328 242.758C196.865 242.883 197.31 243.036 197.664 243.219V244.789H197.586C197.211 244.513 196.755 244.281 196.219 244.094C195.682 243.901 195.156 243.805 194.641 243.805C194.104 243.805 193.651 243.909 193.281 244.117C192.911 244.32 192.727 244.625 192.727 245.031C192.727 245.391 192.839 245.661 193.062 245.844C193.281 246.026 193.635 246.174 194.125 246.289C194.396 246.352 194.698 246.414 195.031 246.477C195.37 246.539 195.651 246.596 195.875 246.648C196.557 246.805 197.083 247.073 197.453 247.453C197.823 247.839 198.008 248.349 198.008 248.984ZM201.602 251.5H200.133V239.344H201.602V251.5ZM211.289 251.5H209.828V250.57C209.698 250.659 209.521 250.784 209.297 250.945C209.078 251.102 208.865 251.227 208.656 251.32C208.411 251.44 208.13 251.539 207.812 251.617C207.495 251.701 207.122 251.742 206.695 251.742C205.909 251.742 205.242 251.482 204.695 250.961C204.148 250.44 203.875 249.776 203.875 248.969C203.875 248.307 204.016 247.773 204.297 247.367C204.583 246.956 204.99 246.633 205.516 246.398C206.047 246.164 206.685 246.005 207.43 245.922C208.174 245.839 208.974 245.776 209.828 245.734V245.508C209.828 245.174 209.768 244.898 209.648 244.68C209.534 244.461 209.367 244.289 209.148 244.164C208.94 244.044 208.69 243.964 208.398 243.922C208.107 243.88 207.802 243.859 207.484 243.859C207.099 243.859 206.669 243.911 206.195 244.016C205.721 244.115 205.232 244.26 204.727 244.453H204.648V242.961C204.935 242.883 205.349 242.797 205.891 242.703C206.432 242.609 206.966 242.562 207.492 242.562C208.107 242.562 208.641 242.615 209.094 242.719C209.552 242.818 209.948 242.99 210.281 243.234C210.609 243.474 210.859 243.784 211.031 244.164C211.203 244.544 211.289 245.016 211.289 245.578V251.5ZM209.828 249.352V246.922C209.38 246.948 208.852 246.987 208.242 247.039C207.638 247.091 207.159 247.167 206.805 247.266C206.383 247.385 206.042 247.573 205.781 247.828C205.521 248.078 205.391 248.424 205.391 248.867C205.391 249.367 205.542 249.745 205.844 250C206.146 250.25 206.607 250.375 207.227 250.375C207.742 250.375 208.214 250.276 208.641 250.078C209.068 249.875 209.464 249.633 209.828 249.352ZM219.562 244.375H219.484C219.266 244.323 219.052 244.286 218.844 244.266C218.641 244.24 218.398 244.227 218.117 244.227C217.664 244.227 217.227 244.328 216.805 244.531C216.383 244.729 215.977 244.987 215.586 245.305V251.5H214.117V242.773H215.586V244.062C216.169 243.594 216.682 243.263 217.125 243.07C217.573 242.872 218.029 242.773 218.492 242.773C218.747 242.773 218.932 242.781 219.047 242.797C219.161 242.807 219.333 242.831 219.562 242.867V244.375ZM222.523 241.312H220.867V239.789H222.523V241.312ZM222.43 251.5H220.961V242.773H222.43V251.5ZM238.883 251.5H236.945L233.445 247.68L232.492 248.586V251.5H231.023V239.344H232.492V247.141L236.734 242.773H238.586L234.531 246.805L238.883 251.5ZM247.664 251.5H246.195V250.531C245.701 250.922 245.227 251.221 244.773 251.43C244.32 251.638 243.82 251.742 243.273 251.742C242.357 251.742 241.643 251.464 241.133 250.906C240.622 250.344 240.367 249.521 240.367 248.438V242.773H241.836V247.742C241.836 248.185 241.857 248.565 241.898 248.883C241.94 249.195 242.029 249.464 242.164 249.688C242.305 249.917 242.487 250.083 242.711 250.188C242.935 250.292 243.26 250.344 243.688 250.344C244.068 250.344 244.482 250.245 244.93 250.047C245.383 249.849 245.805 249.596 246.195 249.289V242.773H247.664V251.5ZM256 244.375H255.922C255.703 244.323 255.49 244.286 255.281 244.266C255.078 244.24 254.836 244.227 254.555 244.227C254.102 244.227 253.664 244.328 253.242 244.531C252.82 244.729 252.414 244.987 252.023 245.305V251.5H250.555V242.773H252.023V244.062C252.607 243.594 253.12 243.263 253.562 243.07C254.01 242.872 254.466 242.773 254.93 242.773C255.185 242.773 255.37 242.781 255.484 242.797C255.599 242.807 255.771 242.831 256 242.867V244.375ZM263.617 248.984C263.617 249.781 263.286 250.435 262.625 250.945C261.969 251.456 261.07 251.711 259.93 251.711C259.284 251.711 258.69 251.635 258.148 251.484C257.612 251.328 257.161 251.159 256.797 250.977V249.328H256.875C257.339 249.677 257.854 249.956 258.422 250.164C258.99 250.367 259.534 250.469 260.055 250.469C260.701 250.469 261.206 250.365 261.57 250.156C261.935 249.948 262.117 249.62 262.117 249.172C262.117 248.828 262.018 248.568 261.82 248.391C261.622 248.214 261.242 248.062 260.68 247.938C260.471 247.891 260.198 247.836 259.859 247.773C259.526 247.711 259.221 247.643 258.945 247.57C258.18 247.367 257.635 247.07 257.312 246.68C256.995 246.284 256.836 245.799 256.836 245.227C256.836 244.867 256.909 244.529 257.055 244.211C257.206 243.893 257.432 243.609 257.734 243.359C258.026 243.115 258.396 242.922 258.844 242.781C259.297 242.635 259.802 242.562 260.359 242.562C260.88 242.562 261.406 242.628 261.938 242.758C262.474 242.883 262.919 243.036 263.273 243.219V244.789H263.195C262.82 244.513 262.365 244.281 261.828 244.094C261.292 243.901 260.766 243.805 260.25 243.805C259.714 243.805 259.26 243.909 258.891 244.117C258.521 244.32 258.336 244.625 258.336 245.031C258.336 245.391 258.448 245.661 258.672 245.844C258.891 246.026 259.245 246.174 259.734 246.289C260.005 246.352 260.307 246.414 260.641 246.477C260.979 246.539 261.26 246.596 261.484 246.648C262.167 246.805 262.693 247.073 263.062 247.453C263.432 247.839 263.617 248.349 263.617 248.984ZM267.305 241.312H265.648V239.789H267.305V241.312ZM267.211 251.5H265.742V242.773H267.211V251.5Z" fill="#333333"/>
</svg>
