<svg width="267" height="211" viewBox="0 0 267 211" fill="none" xmlns="http://www.w3.org/2000/svg">
<path d="M5 15L12.5 22.5L25 7.5" stroke="#61B857" stroke-width="2" stroke-linecap="round" stroke-linejoin="round"/>
<path d="M43.6641 16H39.0703V14.8125H40.5938V5.55469H39.0703V4.36719H43.6641V5.55469H42.1406V14.8125H43.6641V16ZM52.4141 13.4844C52.4141 14.2812 52.0833 14.9349 51.4219 15.4453C50.7656 15.9557 49.8672 16.2109 48.7266 16.2109C48.0807 16.2109 47.487 16.1354 46.9453 15.9844C46.4089 15.8281 45.9583 15.6589 45.5938 15.4766V13.8281H45.6719C46.1354 14.1771 46.651 14.4557 47.2188 14.6641C47.7865 14.8672 48.3307 14.9688 48.8516 14.9688C49.4974 14.9688 50.0026 14.8646 50.3672 14.6562C50.7318 14.4479 50.9141 14.1198 50.9141 13.6719C50.9141 13.3281 50.8151 13.0677 50.6172 12.8906C50.4193 12.7135 50.0391 12.5625 49.4766 12.4375C49.2682 12.3906 48.9948 12.3359 48.6562 12.2734C48.3229 12.2109 48.0182 12.1432 47.7422 12.0703C46.9766 11.8672 46.4323 11.5703 46.1094 11.1797C45.7917 10.7839 45.6328 10.2995 45.6328 9.72656C45.6328 9.36719 45.7057 9.02865 45.8516 8.71094C46.0026 8.39323 46.2292 8.10938 46.5312 7.85938C46.8229 7.61458 47.1927 7.42188 47.6406 7.28125C48.0938 7.13542 48.599 7.0625 49.1562 7.0625C49.6771 7.0625 50.2031 7.1276 50.7344 7.25781C51.2708 7.38281 51.7161 7.53646 52.0703 7.71875V9.28906H51.9922C51.6172 9.01302 51.1615 8.78125 50.625 8.59375C50.0885 8.40104 49.5625 8.30469 49.0469 8.30469C48.5104 8.30469 48.0573 8.40885 47.6875 8.61719C47.3177 8.82031 47.1328 9.125 47.1328 9.53125C47.1328 9.89062 47.2448 10.1615 47.4688 10.3438C47.6875 10.526 48.0417 10.6745 48.5312 10.7891C48.8021 10.8516 49.1042 10.9141 49.4375 10.9766C49.776 11.0391 50.0573 11.0964 50.2812 11.1484C50.9635 11.3047 51.4896 11.5729 51.8594 11.9531C52.2292 12.3385 52.4141 12.849 52.4141 13.4844ZM61.8203 16H60.3516V11.0312C60.3516 10.6302 60.3281 10.2552 60.2812 9.90625C60.2344 9.55208 60.1484 9.27604 60.0234 9.07812C59.8932 8.85938 59.7057 8.69792 59.4609 8.59375C59.2161 8.48438 58.8984 8.42969 58.5078 8.42969C58.1068 8.42969 57.6875 8.52865 57.25 8.72656C56.8125 8.92448 56.3932 9.17708 55.9922 9.48438V16H54.5234V3.84375H55.9922V8.24219C56.4505 7.86198 56.9245 7.5651 57.4141 7.35156C57.9036 7.13802 58.4062 7.03125 58.9219 7.03125C59.8646 7.03125 60.5833 7.3151 61.0781 7.88281C61.5729 8.45052 61.8203 9.26823 61.8203 10.3359V16ZM72.3281 11.5703C72.3281 12.2995 72.224 12.9557 72.0156 13.5391C71.8125 14.1224 71.5365 14.612 71.1875 15.0078C70.8177 15.4193 70.4115 15.7292 69.9688 15.9375C69.526 16.1406 69.0391 16.2422 68.5078 16.2422C68.013 16.2422 67.5807 16.1823 67.2109 16.0625C66.8411 15.9479 66.4766 15.7917 66.1172 15.5938L66.0234 16H64.6484V3.84375H66.1172V8.1875C66.5286 7.84896 66.9661 7.57292 67.4297 7.35938C67.8932 7.14062 68.4141 7.03125 68.9922 7.03125C70.0234 7.03125 70.8359 7.42708 71.4297 8.21875C72.0286 9.01042 72.3281 10.1276 72.3281 11.5703ZM70.8125 11.6094C70.8125 10.5677 70.6406 9.77865 70.2969 9.24219C69.9531 8.70052 69.3984 8.42969 68.6328 8.42969C68.2057 8.42969 67.7734 8.52344 67.3359 8.71094C66.8984 8.89323 66.4922 9.13021 66.1172 9.42188V14.4219C66.5339 14.6094 66.8906 14.7396 67.1875 14.8125C67.4896 14.8854 67.8307 14.9219 68.2109 14.9219C69.0234 14.9219 69.6589 14.6562 70.1172 14.125C70.5807 13.5885 70.8125 12.75 70.8125 11.6094ZM76.1953 5.8125H74.5391V4.28906H76.1953V5.8125ZM76.1016 16H74.6328V7.27344H76.1016V16ZM80.4922 16H79.0234V3.84375H80.4922V16ZM90.1797 16H88.7188V15.0703C88.5885 15.1589 88.4115 15.2839 88.1875 15.4453C87.9688 15.6016 87.7552 15.7266 87.5469 15.8203C87.3021 15.9401 87.0208 16.0391 86.7031 16.1172C86.3854 16.2005 86.013 16.2422 85.5859 16.2422C84.7995 16.2422 84.1328 15.9818 83.5859 15.4609C83.0391 14.9401 82.7656 14.276 82.7656 13.4688C82.7656 12.8073 82.9062 12.2734 83.1875 11.8672C83.474 11.4557 83.8802 11.1328 84.4062 10.8984C84.9375 10.6641 85.5755 10.5052 86.3203 10.4219C87.0651 10.3385 87.8646 10.276 88.7188 10.2344V10.0078C88.7188 9.67448 88.6589 9.39844 88.5391 9.17969C88.4245 8.96094 88.2578 8.78906 88.0391 8.66406C87.8307 8.54427 87.5807 8.46354 87.2891 8.42188C86.9974 8.38021 86.6927 8.35938 86.375 8.35938C85.9896 8.35938 85.5599 8.41146 85.0859 8.51562C84.612 8.61458 84.1224 8.76042 83.6172 8.95312H83.5391V7.46094C83.8255 7.38281 84.2396 7.29688 84.7812 7.20312C85.3229 7.10938 85.8568 7.0625 86.3828 7.0625C86.9974 7.0625 87.5312 7.11458 87.9844 7.21875C88.4427 7.31771 88.8385 7.48958 89.1719 7.73438C89.5 7.97396 89.75 8.28385 89.9219 8.66406C90.0938 9.04427 90.1797 9.51562 90.1797 10.0781V16ZM88.7188 13.8516V11.4219C88.2708 11.4479 87.7422 11.487 87.1328 11.5391C86.5286 11.5911 86.0495 11.6667 85.6953 11.7656C85.2734 11.8854 84.9323 12.0729 84.6719 12.3281C84.4115 12.5781 84.2812 12.9245 84.2812 13.3672C84.2812 13.8672 84.4323 14.2448 84.7344 14.5C85.0365 14.75 85.4974 14.875 86.1172 14.875C86.6328 14.875 87.1042 14.776 87.5312 14.5781C87.9583 14.375 88.3542 14.1328 88.7188 13.8516ZM98.4531 8.875H98.375C98.1562 8.82292 97.9427 8.78646 97.7344 8.76562C97.5312 8.73958 97.2891 8.72656 97.0078 8.72656C96.5547 8.72656 96.1172 8.82812 95.6953 9.03125C95.2734 9.22917 94.8672 9.48698 94.4766 9.80469V16H93.0078V7.27344H94.4766V8.5625C95.0599 8.09375 95.5729 7.76302 96.0156 7.57031C96.4635 7.3724 96.9193 7.27344 97.3828 7.27344C97.638 7.27344 97.8229 7.28125 97.9375 7.29688C98.0521 7.30729 98.224 7.33073 98.4531 7.36719V8.875ZM112.57 16H111.102V11.0312C111.102 10.6562 111.083 10.2943 111.047 9.94531C111.016 9.59635 110.945 9.31771 110.836 9.10938C110.716 8.88542 110.544 8.71615 110.32 8.60156C110.096 8.48698 109.773 8.42969 109.352 8.42969C108.94 8.42969 108.529 8.53385 108.117 8.74219C107.706 8.94531 107.294 9.20573 106.883 9.52344C106.898 9.64323 106.911 9.78385 106.922 9.94531C106.932 10.1016 106.938 10.2578 106.938 10.4141V16H105.469V11.0312C105.469 10.6458 105.451 10.2812 105.414 9.9375C105.383 9.58854 105.312 9.3099 105.203 9.10156C105.083 8.8776 104.911 8.71094 104.688 8.60156C104.464 8.48698 104.141 8.42969 103.719 8.42969C103.318 8.42969 102.914 8.52865 102.508 8.72656C102.107 8.92448 101.706 9.17708 101.305 9.48438V16H99.8359V7.27344H101.305V8.24219C101.763 7.86198 102.219 7.5651 102.672 7.35156C103.13 7.13802 103.617 7.03125 104.133 7.03125C104.727 7.03125 105.229 7.15625 105.641 7.40625C106.057 7.65625 106.367 8.0026 106.57 8.44531C107.164 7.94531 107.706 7.58594 108.195 7.36719C108.685 7.14323 109.208 7.03125 109.766 7.03125C110.724 7.03125 111.43 7.32292 111.883 7.90625C112.341 8.48438 112.57 9.29427 112.57 10.3359V16ZM122.836 11.6406C122.836 13.0625 122.471 14.1849 121.742 15.0078C121.013 15.8307 120.036 16.2422 118.812 16.2422C117.578 16.2422 116.596 15.8307 115.867 15.0078C115.143 14.1849 114.781 13.0625 114.781 11.6406C114.781 10.2188 115.143 9.09635 115.867 8.27344C116.596 7.44531 117.578 7.03125 118.812 7.03125C120.036 7.03125 121.013 7.44531 121.742 8.27344C122.471 9.09635 122.836 10.2188 122.836 11.6406ZM121.32 11.6406C121.32 10.5104 121.099 9.67188 120.656 9.125C120.214 8.57292 119.599 8.29688 118.812 8.29688C118.016 8.29688 117.396 8.57292 116.953 9.125C116.516 9.67188 116.297 10.5104 116.297 11.6406C116.297 12.7344 116.518 13.5651 116.961 14.1328C117.404 14.6953 118.021 14.9766 118.812 14.9766C119.594 14.9766 120.206 14.6979 120.648 14.1406C121.096 13.5781 121.32 12.7448 121.32 11.6406ZM132.414 16H130.945V11.0312C130.945 10.6302 130.922 10.2552 130.875 9.90625C130.828 9.55208 130.742 9.27604 130.617 9.07812C130.487 8.85938 130.299 8.69792 130.055 8.59375C129.81 8.48438 129.492 8.42969 129.102 8.42969C128.701 8.42969 128.281 8.52865 127.844 8.72656C127.406 8.92448 126.987 9.17708 126.586 9.48438V16H125.117V7.27344H126.586V8.24219C127.044 7.86198 127.518 7.5651 128.008 7.35156C128.497 7.13802 129 7.03125 129.516 7.03125C130.458 7.03125 131.177 7.3151 131.672 7.88281C132.167 8.45052 132.414 9.26823 132.414 10.3359V16ZM136.727 16H135.258V3.84375H136.727V16ZM141.211 5.8125H139.555V4.28906H141.211V5.8125ZM141.117 16H139.648V7.27344H141.117V16ZM151.945 16H150.008L146.508 12.1797L145.555 13.0859V16H144.086V3.84375H145.555V11.6406L149.797 7.27344H151.648L147.594 11.3047L151.945 16ZM48.3203 30.3281C48.3203 31.1719 48.2266 31.9089 48.0391 32.5391C47.8568 33.1641 47.5547 33.6849 47.1328 34.1016C46.7318 34.4974 46.263 34.7865 45.7266 34.9688C45.1901 35.151 44.5651 35.2422 43.8516 35.2422C43.1224 35.2422 42.487 35.1458 41.9453 34.9531C41.4036 34.7604 40.9479 34.4766 40.5781 34.1016C40.1562 33.6745 39.8516 33.1589 39.6641 32.5547C39.4818 31.9505 39.3906 31.2083 39.3906 30.3281V23.3672H40.9375V30.4062C40.9375 31.0365 40.9792 31.5339 41.0625 31.8984C41.151 32.263 41.2969 32.5938 41.5 32.8906C41.7292 33.2292 42.0391 33.4844 42.4297 33.6562C42.8255 33.8281 43.2995 33.9141 43.8516 33.9141C44.4089 33.9141 44.8828 33.8307 45.2734 33.6641C45.6641 33.4922 45.9766 33.2344 46.2109 32.8906C46.4141 32.5938 46.5573 32.2552 46.6406 31.875C46.7292 31.4896 46.7734 31.013 46.7734 30.4453V23.3672H48.3203V30.3281ZM57.6172 34.4531C57.1276 34.6875 56.6615 34.8698 56.2188 35C55.7812 35.1302 55.3151 35.1953 54.8203 35.1953C54.1901 35.1953 53.612 35.1042 53.0859 34.9219C52.5599 34.7344 52.1094 34.4531 51.7344 34.0781C51.3542 33.7031 51.0599 33.2292 50.8516 32.6562C50.6432 32.0833 50.5391 31.4141 50.5391 30.6484C50.5391 29.2214 50.9297 28.1016 51.7109 27.2891C52.4974 26.4766 53.5339 26.0703 54.8203 26.0703C55.3203 26.0703 55.8099 26.1406 56.2891 26.2812C56.7734 26.4219 57.2161 26.5938 57.6172 26.7969V28.4297H57.5391C57.0911 28.0807 56.6276 27.8125 56.1484 27.625C55.6745 27.4375 55.2109 27.3438 54.7578 27.3438C53.9245 27.3438 53.2656 27.625 52.7812 28.1875C52.3021 28.7448 52.0625 29.5651 52.0625 30.6484C52.0625 31.7005 52.2969 32.5104 52.7656 33.0781C53.2396 33.6406 53.9036 33.9219 54.7578 33.9219C55.0547 33.9219 55.3568 33.8828 55.6641 33.8047C55.9714 33.7266 56.2474 33.625 56.4922 33.5C56.7057 33.3906 56.9062 33.276 57.0938 33.1562C57.2812 33.0312 57.4297 32.9245 57.5391 32.8359H57.6172V34.4531ZM66.8047 35H65.3359V30.0312C65.3359 29.6302 65.3125 29.2552 65.2656 28.9062C65.2188 28.5521 65.1328 28.276 65.0078 28.0781C64.8776 27.8594 64.6901 27.6979 64.4453 27.5938C64.2005 27.4844 63.8828 27.4297 63.4922 27.4297C63.0911 27.4297 62.6719 27.5286 62.2344 27.7266C61.7969 27.9245 61.3776 28.1771 60.9766 28.4844V35H59.5078V22.8438H60.9766V27.2422C61.4349 26.862 61.9089 26.5651 62.3984 26.3516C62.888 26.138 63.3906 26.0312 63.9062 26.0312C64.849 26.0312 65.5677 26.3151 66.0625 26.8828C66.5573 27.4505 66.8047 28.2682 66.8047 29.3359V35ZM75.0781 27.875H75C74.7812 27.8229 74.5677 27.7865 74.3594 27.7656C74.1562 27.7396 73.9141 27.7266 73.6328 27.7266C73.1797 27.7266 72.7422 27.8281 72.3203 28.0312C71.8984 28.2292 71.4922 28.487 71.1016 28.8047V35H69.6328V26.2734H71.1016V27.5625C71.6849 27.0938 72.1979 26.763 72.6406 26.5703C73.0885 26.3724 73.5443 26.2734 74.0078 26.2734C74.263 26.2734 74.4479 26.2812 74.5625 26.2969C74.6771 26.3073 74.849 26.3307 75.0781 26.3672V27.875ZM82.9609 35H81.5V34.0703C81.3698 34.1589 81.1927 34.2839 80.9688 34.4453C80.75 34.6016 80.5365 34.7266 80.3281 34.8203C80.0833 34.9401 79.8021 35.0391 79.4844 35.1172C79.1667 35.2005 78.7943 35.2422 78.3672 35.2422C77.5807 35.2422 76.9141 34.9818 76.3672 34.4609C75.8203 33.9401 75.5469 33.276 75.5469 32.4688C75.5469 31.8073 75.6875 31.2734 75.9688 30.8672C76.2552 30.4557 76.6615 30.1328 77.1875 29.8984C77.7188 29.6641 78.3568 29.5052 79.1016 29.4219C79.8464 29.3385 80.6458 29.276 81.5 29.2344V29.0078C81.5 28.6745 81.4401 28.3984 81.3203 28.1797C81.2057 27.9609 81.0391 27.7891 80.8203 27.6641C80.612 27.5443 80.362 27.4635 80.0703 27.4219C79.7786 27.3802 79.474 27.3594 79.1562 27.3594C78.7708 27.3594 78.3411 27.4115 77.8672 27.5156C77.3932 27.6146 76.9036 27.7604 76.3984 27.9531H76.3203V26.4609C76.6068 26.3828 77.0208 26.2969 77.5625 26.2031C78.1042 26.1094 78.638 26.0625 79.1641 26.0625C79.7786 26.0625 80.3125 26.1146 80.7656 26.2188C81.224 26.3177 81.6198 26.4896 81.9531 26.7344C82.2812 26.974 82.5312 27.2839 82.7031 27.6641C82.875 28.0443 82.9609 28.5156 82.9609 29.0781V35ZM81.5 32.8516V30.4219C81.0521 30.4479 80.5234 30.487 79.9141 30.5391C79.3099 30.5911 78.8307 30.6667 78.4766 30.7656C78.0547 30.8854 77.7135 31.0729 77.4531 31.3281C77.1927 31.5781 77.0625 31.9245 77.0625 32.3672C77.0625 32.8672 77.2135 33.2448 77.5156 33.5C77.8177 33.75 78.2786 33.875 78.8984 33.875C79.4141 33.875 79.8854 33.776 80.3125 33.5781C80.7396 33.375 81.1354 33.1328 81.5 32.8516ZM92.0234 32.4844C92.0234 33.2812 91.6927 33.9349 91.0312 34.4453C90.375 34.9557 89.4766 35.2109 88.3359 35.2109C87.6901 35.2109 87.0964 35.1354 86.5547 34.9844C86.0182 34.8281 85.5677 34.6589 85.2031 34.4766V32.8281H85.2812C85.7448 33.1771 86.2604 33.4557 86.8281 33.6641C87.3958 33.8672 87.9401 33.9688 88.4609 33.9688C89.1068 33.9688 89.612 33.8646 89.9766 33.6562C90.3411 33.4479 90.5234 33.1198 90.5234 32.6719C90.5234 32.3281 90.4245 32.0677 90.2266 31.8906C90.0286 31.7135 89.6484 31.5625 89.0859 31.4375C88.8776 31.3906 88.6042 31.3359 88.2656 31.2734C87.9323 31.2109 87.6276 31.1432 87.3516 31.0703C86.5859 30.8672 86.0417 30.5703 85.7188 30.1797C85.401 29.7839 85.2422 29.2995 85.2422 28.7266C85.2422 28.3672 85.3151 28.0286 85.4609 27.7109C85.612 27.3932 85.8385 27.1094 86.1406 26.8594C86.4323 26.6146 86.8021 26.4219 87.25 26.2812C87.7031 26.1354 88.2083 26.0625 88.7656 26.0625C89.2865 26.0625 89.8125 26.1276 90.3438 26.2578C90.8802 26.3828 91.3255 26.5365 91.6797 26.7188V28.2891H91.6016C91.2266 28.013 90.7708 27.7812 90.2344 27.5938C89.6979 27.401 89.1719 27.3047 88.6562 27.3047C88.1198 27.3047 87.6667 27.4089 87.2969 27.6172C86.9271 27.8203 86.7422 28.125 86.7422 28.5312C86.7422 28.8906 86.8542 29.1615 87.0781 29.3438C87.2969 29.526 87.651 29.6745 88.1406 29.7891C88.4115 29.8516 88.7135 29.9141 89.0469 29.9766C89.3854 30.0391 89.6667 30.0964 89.8906 30.1484C90.5729 30.3047 91.099 30.5729 91.4688 30.9531C91.8385 31.3385 92.0234 31.849 92.0234 32.4844ZM101.43 35H99.9609V30.0312C99.9609 29.6302 99.9375 29.2552 99.8906 28.9062C99.8438 28.5521 99.7578 28.276 99.6328 28.0781C99.5026 27.8594 99.3151 27.6979 99.0703 27.5938C98.8255 27.4844 98.5078 27.4297 98.1172 27.4297C97.7161 27.4297 97.2969 27.5286 96.8594 27.7266C96.4219 27.9245 96.0026 28.1771 95.6016 28.4844V35H94.1328V22.8438H95.6016V27.2422C96.0599 26.862 96.5339 26.5651 97.0234 26.3516C97.513 26.138 98.0156 26.0312 98.5312 26.0312C99.474 26.0312 100.193 26.3151 100.688 26.8828C101.182 27.4505 101.43 28.2682 101.43 29.3359V35ZM111.492 35H110.023V34.0312C109.529 34.4219 109.055 34.7214 108.602 34.9297C108.148 35.138 107.648 35.2422 107.102 35.2422C106.185 35.2422 105.471 34.9635 104.961 34.4062C104.451 33.8438 104.195 33.0208 104.195 31.9375V26.2734H105.664V31.2422C105.664 31.6849 105.685 32.0651 105.727 32.3828C105.768 32.6953 105.857 32.9635 105.992 33.1875C106.133 33.4167 106.315 33.5833 106.539 33.6875C106.763 33.7917 107.089 33.8438 107.516 33.8438C107.896 33.8438 108.31 33.7448 108.758 33.5469C109.211 33.349 109.633 33.0964 110.023 32.7891V26.2734H111.492V35ZM121.93 26.2734L118.398 35H116.922L113.414 26.2734H115.008L117.711 33.2188L120.391 26.2734H121.93ZM125.336 35H123.867V22.8438H125.336V35ZM135.023 35H133.562V34.0703C133.432 34.1589 133.255 34.2839 133.031 34.4453C132.812 34.6016 132.599 34.7266 132.391 34.8203C132.146 34.9401 131.865 35.0391 131.547 35.1172C131.229 35.2005 130.857 35.2422 130.43 35.2422C129.643 35.2422 128.977 34.9818 128.43 34.4609C127.883 33.9401 127.609 33.276 127.609 32.4688C127.609 31.8073 127.75 31.2734 128.031 30.8672C128.318 30.4557 128.724 30.1328 129.25 29.8984C129.781 29.6641 130.419 29.5052 131.164 29.4219C131.909 29.3385 132.708 29.276 133.562 29.2344V29.0078C133.562 28.6745 133.503 28.3984 133.383 28.1797C133.268 27.9609 133.102 27.7891 132.883 27.6641C132.674 27.5443 132.424 27.4635 132.133 27.4219C131.841 27.3802 131.536 27.3594 131.219 27.3594C130.833 27.3594 130.404 27.4115 129.93 27.5156C129.456 27.6146 128.966 27.7604 128.461 27.9531H128.383V26.4609C128.669 26.3828 129.083 26.2969 129.625 26.2031C130.167 26.1094 130.701 26.0625 131.227 26.0625C131.841 26.0625 132.375 26.1146 132.828 26.2188C133.286 26.3177 133.682 26.4896 134.016 26.7344C134.344 26.974 134.594 27.2839 134.766 27.6641C134.938 28.0443 135.023 28.5156 135.023 29.0781V35ZM133.562 32.8516V30.4219C133.115 30.4479 132.586 30.487 131.977 30.5391C131.372 30.5911 130.893 30.6667 130.539 30.7656C130.117 30.8854 129.776 31.0729 129.516 31.3281C129.255 31.5781 129.125 31.9245 129.125 32.3672C129.125 32.8672 129.276 33.2448 129.578 33.5C129.88 33.75 130.341 33.875 130.961 33.875C131.477 33.875 131.948 33.776 132.375 33.5781C132.802 33.375 133.198 33.1328 133.562 32.8516ZM143.297 27.875H143.219C143 27.8229 142.786 27.7865 142.578 27.7656C142.375 27.7396 142.133 27.7266 141.852 27.7266C141.398 27.7266 140.961 27.8281 140.539 28.0312C140.117 28.2292 139.711 28.487 139.32 28.8047V35H137.852V26.2734H139.32V27.5625C139.904 27.0938 140.417 26.763 140.859 26.5703C141.307 26.3724 141.763 26.2734 142.227 26.2734C142.482 26.2734 142.667 26.2812 142.781 26.2969C142.896 26.3073 143.068 26.3307 143.297 26.3672V27.875ZM146.258 24.8125H144.602V23.2891H146.258V24.8125ZM146.164 35H144.695V26.2734H146.164V35ZM156.367 35H154.898V30.0312C154.898 29.6302 154.875 29.2552 154.828 28.9062C154.781 28.5521 154.695 28.276 154.57 28.0781C154.44 27.8594 154.253 27.6979 154.008 27.5938C153.763 27.4844 153.445 27.4297 153.055 27.4297C152.654 27.4297 152.234 27.5286 151.797 27.7266C151.359 27.9245 150.94 28.1771 150.539 28.4844V35H149.07V26.2734H150.539V27.2422C150.997 26.862 151.471 26.5651 151.961 26.3516C152.451 26.138 152.953 26.0312 153.469 26.0312C154.411 26.0312 155.13 26.3151 155.625 26.8828C156.12 27.4505 156.367 28.2682 156.367 29.3359V35ZM160.773 24.8125H159.117V23.2891H160.773V24.8125ZM160.68 35H159.211V26.2734H160.68V35ZM177.625 24.7422H173.469V35H171.922V24.7422H167.766V23.3672H177.625V24.7422ZM183.977 35H182.516V34.0703C182.385 34.1589 182.208 34.2839 181.984 34.4453C181.766 34.6016 181.552 34.7266 181.344 34.8203C181.099 34.9401 180.818 35.0391 180.5 35.1172C180.182 35.2005 179.81 35.2422 179.383 35.2422C178.596 35.2422 177.93 34.9818 177.383 34.4609C176.836 33.9401 176.562 33.276 176.562 32.4688C176.562 31.8073 176.703 31.2734 176.984 30.8672C177.271 30.4557 177.677 30.1328 178.203 29.8984C178.734 29.6641 179.372 29.5052 180.117 29.4219C180.862 29.3385 181.661 29.276 182.516 29.2344V29.0078C182.516 28.6745 182.456 28.3984 182.336 28.1797C182.221 27.9609 182.055 27.7891 181.836 27.6641C181.628 27.5443 181.378 27.4635 181.086 27.4219C180.794 27.3802 180.49 27.3594 180.172 27.3594C179.786 27.3594 179.357 27.4115 178.883 27.5156C178.409 27.6146 177.919 27.7604 177.414 27.9531H177.336V26.4609C177.622 26.3828 178.036 26.2969 178.578 26.2031C179.12 26.1094 179.654 26.0625 180.18 26.0625C180.794 26.0625 181.328 26.1146 181.781 26.2188C182.24 26.3177 182.635 26.4896 182.969 26.7344C183.297 26.974 183.547 27.2839 183.719 27.6641C183.891 28.0443 183.977 28.5156 183.977 29.0781V35ZM182.516 32.8516V30.4219C182.068 30.4479 181.539 30.487 180.93 30.5391C180.326 30.5911 179.846 30.6667 179.492 30.7656C179.07 30.8854 178.729 31.0729 178.469 31.3281C178.208 31.5781 178.078 31.9245 178.078 32.3672C178.078 32.8672 178.229 33.2448 178.531 33.5C178.833 33.75 179.294 33.875 179.914 33.875C180.43 33.875 180.901 33.776 181.328 33.5781C181.755 33.375 182.151 33.1328 182.516 32.8516ZM193.039 32.4844C193.039 33.2812 192.708 33.9349 192.047 34.4453C191.391 34.9557 190.492 35.2109 189.352 35.2109C188.706 35.2109 188.112 35.1354 187.57 34.9844C187.034 34.8281 186.583 34.6589 186.219 34.4766V32.8281H186.297C186.76 33.1771 187.276 33.4557 187.844 33.6641C188.411 33.8672 188.956 33.9688 189.477 33.9688C190.122 33.9688 190.628 33.8646 190.992 33.6562C191.357 33.4479 191.539 33.1198 191.539 32.6719C191.539 32.3281 191.44 32.0677 191.242 31.8906C191.044 31.7135 190.664 31.5625 190.102 31.4375C189.893 31.3906 189.62 31.3359 189.281 31.2734C188.948 31.2109 188.643 31.1432 188.367 31.0703C187.602 30.8672 187.057 30.5703 186.734 30.1797C186.417 29.7839 186.258 29.2995 186.258 28.7266C186.258 28.3672 186.331 28.0286 186.477 27.7109C186.628 27.3932 186.854 27.1094 187.156 26.8594C187.448 26.6146 187.818 26.4219 188.266 26.2812C188.719 26.1354 189.224 26.0625 189.781 26.0625C190.302 26.0625 190.828 26.1276 191.359 26.2578C191.896 26.3828 192.341 26.5365 192.695 26.7188V28.2891H192.617C192.242 28.013 191.786 27.7812 191.25 27.5938C190.714 27.401 190.188 27.3047 189.672 27.3047C189.135 27.3047 188.682 27.4089 188.312 27.6172C187.943 27.8203 187.758 28.125 187.758 28.5312C187.758 28.8906 187.87 29.1615 188.094 29.3438C188.312 29.526 188.667 29.6745 189.156 29.7891C189.427 29.8516 189.729 29.9141 190.062 29.9766C190.401 30.0391 190.682 30.0964 190.906 30.1484C191.589 30.3047 192.115 30.5729 192.484 30.9531C192.854 31.3385 193.039 31.849 193.039 32.4844ZM202.445 35H200.977V30.0312C200.977 29.6302 200.953 29.2552 200.906 28.9062C200.859 28.5521 200.773 28.276 200.648 28.0781C200.518 27.8594 200.331 27.6979 200.086 27.5938C199.841 27.4844 199.523 27.4297 199.133 27.4297C198.732 27.4297 198.312 27.5286 197.875 27.7266C197.438 27.9245 197.018 28.1771 196.617 28.4844V35H195.148V22.8438H196.617V27.2422C197.076 26.862 197.549 26.5651 198.039 26.3516C198.529 26.138 199.031 26.0312 199.547 26.0312C200.49 26.0312 201.208 26.3151 201.703 26.8828C202.198 27.4505 202.445 28.2682 202.445 29.3359V35ZM213.195 35H211.258L207.758 31.1797L206.805 32.0859V35H205.336V22.8438H206.805V30.6406L211.047 26.2734H212.898L208.844 30.3047L213.195 35ZM216.32 24.8125H214.664V23.2891H216.32V24.8125ZM216.227 35H214.758V26.2734H216.227V35ZM220.617 35H219.148V22.8438H220.617V35ZM236.453 30.7891H230.023C230.023 31.3255 230.104 31.7943 230.266 32.1953C230.427 32.5911 230.648 32.9167 230.93 33.1719C231.201 33.4219 231.521 33.6094 231.891 33.7344C232.266 33.8594 232.677 33.9219 233.125 33.9219C233.719 33.9219 234.315 33.8047 234.914 33.5703C235.518 33.3307 235.948 33.0964 236.203 32.8672H236.281V34.4688C235.786 34.6771 235.281 34.8516 234.766 34.9922C234.25 35.1328 233.708 35.2031 233.141 35.2031C231.693 35.2031 230.562 34.8125 229.75 34.0312C228.938 33.2448 228.531 32.1302 228.531 30.6875C228.531 29.2604 228.919 28.1276 229.695 27.2891C230.477 26.4505 231.503 26.0312 232.773 26.0312C233.951 26.0312 234.857 26.375 235.492 27.0625C236.133 27.75 236.453 28.7266 236.453 29.9922V30.7891ZM235.023 29.6641C235.018 28.8932 234.823 28.2969 234.438 27.875C234.057 27.4531 233.477 27.2422 232.695 27.2422C231.909 27.2422 231.281 27.474 230.812 27.9375C230.349 28.401 230.086 28.9766 230.023 29.6641H235.023ZM243.211 34.9219C242.935 34.9948 242.633 35.0547 242.305 35.1016C241.982 35.1484 241.693 35.1719 241.438 35.1719C240.547 35.1719 239.87 34.9323 239.406 34.4531C238.943 33.974 238.711 33.2057 238.711 32.1484V27.5078H237.719V26.2734H238.711V23.7656H240.18V26.2734H243.211V27.5078H240.18V31.4844C240.18 31.9427 240.19 32.3021 240.211 32.5625C240.232 32.8177 240.305 33.0573 240.43 33.2812C240.544 33.4896 240.701 33.6432 240.898 33.7422C241.102 33.8359 241.409 33.8828 241.82 33.8828C242.06 33.8828 242.31 33.849 242.57 33.7812C242.831 33.7083 243.018 33.6484 243.133 33.6016H243.211V34.9219ZM246.57 24.8125H244.914V23.2891H246.57V24.8125ZM246.477 35H245.008V26.2734H246.477V35ZM255.617 32.4844C255.617 33.2812 255.286 33.9349 254.625 34.4453C253.969 34.9557 253.07 35.2109 251.93 35.2109C251.284 35.2109 250.69 35.1354 250.148 34.9844C249.612 34.8281 249.161 34.6589 248.797 34.4766V32.8281H248.875C249.339 33.1771 249.854 33.4557 250.422 33.6641C250.99 33.8672 251.534 33.9688 252.055 33.9688C252.701 33.9688 253.206 33.8646 253.57 33.6562C253.935 33.4479 254.117 33.1198 254.117 32.6719C254.117 32.3281 254.018 32.0677 253.82 31.8906C253.622 31.7135 253.242 31.5625 252.68 31.4375C252.471 31.3906 252.198 31.3359 251.859 31.2734C251.526 31.2109 251.221 31.1432 250.945 31.0703C250.18 30.8672 249.635 30.5703 249.312 30.1797C248.995 29.7839 248.836 29.2995 248.836 28.7266C248.836 28.3672 248.909 28.0286 249.055 27.7109C249.206 27.3932 249.432 27.1094 249.734 26.8594C250.026 26.6146 250.396 26.4219 250.844 26.2812C251.297 26.1354 251.802 26.0625 252.359 26.0625C252.88 26.0625 253.406 26.1276 253.938 26.2578C254.474 26.3828 254.919 26.5365 255.273 26.7188V28.2891H255.195C254.82 28.013 254.365 27.7812 253.828 27.5938C253.292 27.401 252.766 27.3047 252.25 27.3047C251.714 27.3047 251.26 27.4089 250.891 27.6172C250.521 27.8203 250.336 28.125 250.336 28.5312C250.336 28.8906 250.448 29.1615 250.672 29.3438C250.891 29.526 251.245 29.6745 251.734 29.7891C252.005 29.8516 252.307 29.9141 252.641 29.9766C252.979 30.0391 253.26 30.0964 253.484 30.1484C254.167 30.3047 254.693 30.5729 255.062 30.9531C255.432 31.3385 255.617 31.849 255.617 32.4844ZM265.023 35H263.555V30.0312C263.555 29.6302 263.531 29.2552 263.484 28.9062C263.438 28.5521 263.352 28.276 263.227 28.0781C263.096 27.8594 262.909 27.6979 262.664 27.5938C262.419 27.4844 262.102 27.4297 261.711 27.4297C261.31 27.4297 260.891 27.5286 260.453 27.7266C260.016 27.9245 259.596 28.1771 259.195 28.4844V35H257.727V22.8438H259.195V27.2422C259.654 26.862 260.128 26.5651 260.617 26.3516C261.107 26.138 261.609 26.0312 262.125 26.0312C263.068 26.0312 263.786 26.3151 264.281 26.8828C264.776 27.4505 265.023 28.2682 265.023 29.3359V35Z" fill="#333333"/>
<path d="M5 69L12.5 76.5L25 61.5" stroke="#61B857" stroke-width="2" stroke-linecap="round" stroke-linejoin="round"/>
<path d="M43.6641 70H39.0703V68.8125H40.5938V59.5547H39.0703V58.3672H43.6641V59.5547H42.1406V68.8125H43.6641V70ZM52.4141 67.4844C52.4141 68.2812 52.0833 68.9349 51.4219 69.4453C50.7656 69.9557 49.8672 70.2109 48.7266 70.2109C48.0807 70.2109 47.487 70.1354 46.9453 69.9844C46.4089 69.8281 45.9583 69.6589 45.5938 69.4766V67.8281H45.6719C46.1354 68.1771 46.651 68.4557 47.2188 68.6641C47.7865 68.8672 48.3307 68.9688 48.8516 68.9688C49.4974 68.9688 50.0026 68.8646 50.3672 68.6562C50.7318 68.4479 50.9141 68.1198 50.9141 67.6719C50.9141 67.3281 50.8151 67.0677 50.6172 66.8906C50.4193 66.7135 50.0391 66.5625 49.4766 66.4375C49.2682 66.3906 48.9948 66.3359 48.6562 66.2734C48.3229 66.2109 48.0182 66.1432 47.7422 66.0703C46.9766 65.8672 46.4323 65.5703 46.1094 65.1797C45.7917 64.7839 45.6328 64.2995 45.6328 63.7266C45.6328 63.3672 45.7057 63.0286 45.8516 62.7109C46.0026 62.3932 46.2292 62.1094 46.5312 61.8594C46.8229 61.6146 47.1927 61.4219 47.6406 61.2812C48.0938 61.1354 48.599 61.0625 49.1562 61.0625C49.6771 61.0625 50.2031 61.1276 50.7344 61.2578C51.2708 61.3828 51.7161 61.5365 52.0703 61.7188V63.2891H51.9922C51.6172 63.013 51.1615 62.7812 50.625 62.5938C50.0885 62.401 49.5625 62.3047 49.0469 62.3047C48.5104 62.3047 48.0573 62.4089 47.6875 62.6172C47.3177 62.8203 47.1328 63.125 47.1328 63.5312C47.1328 63.8906 47.2448 64.1615 47.4688 64.3438C47.6875 64.526 48.0417 64.6745 48.5312 64.7891C48.8021 64.8516 49.1042 64.9141 49.4375 64.9766C49.776 65.0391 50.0573 65.0964 50.2812 65.1484C50.9635 65.3047 51.4896 65.5729 51.8594 65.9531C52.2292 66.3385 52.4141 66.849 52.4141 67.4844ZM61.8203 70H60.3516V65.0312C60.3516 64.6302 60.3281 64.2552 60.2812 63.9062C60.2344 63.5521 60.1484 63.276 60.0234 63.0781C59.8932 62.8594 59.7057 62.6979 59.4609 62.5938C59.2161 62.4844 58.8984 62.4297 58.5078 62.4297C58.1068 62.4297 57.6875 62.5286 57.25 62.7266C56.8125 62.9245 56.3932 63.1771 55.9922 63.4844V70H54.5234V57.8438H55.9922V62.2422C56.4505 61.862 56.9245 61.5651 57.4141 61.3516C57.9036 61.138 58.4062 61.0312 58.9219 61.0312C59.8646 61.0312 60.5833 61.3151 61.0781 61.8828C61.5729 62.4505 61.8203 63.2682 61.8203 64.3359V70ZM72.3281 65.5703C72.3281 66.2995 72.224 66.9557 72.0156 67.5391C71.8125 68.1224 71.5365 68.612 71.1875 69.0078C70.8177 69.4193 70.4115 69.7292 69.9688 69.9375C69.526 70.1406 69.0391 70.2422 68.5078 70.2422C68.013 70.2422 67.5807 70.1823 67.2109 70.0625C66.8411 69.9479 66.4766 69.7917 66.1172 69.5938L66.0234 70H64.6484V57.8438H66.1172V62.1875C66.5286 61.849 66.9661 61.5729 67.4297 61.3594C67.8932 61.1406 68.4141 61.0312 68.9922 61.0312C70.0234 61.0312 70.8359 61.4271 71.4297 62.2188C72.0286 63.0104 72.3281 64.1276 72.3281 65.5703ZM70.8125 65.6094C70.8125 64.5677 70.6406 63.7786 70.2969 63.2422C69.9531 62.7005 69.3984 62.4297 68.6328 62.4297C68.2057 62.4297 67.7734 62.5234 67.3359 62.7109C66.8984 62.8932 66.4922 63.1302 66.1172 63.4219V68.4219C66.5339 68.6094 66.8906 68.7396 67.1875 68.8125C67.4896 68.8854 67.8307 68.9219 68.2109 68.9219C69.0234 68.9219 69.6589 68.6562 70.1172 68.125C70.5807 67.5885 70.8125 66.75 70.8125 65.6094ZM76.1953 59.8125H74.5391V58.2891H76.1953V59.8125ZM76.1016 70H74.6328V61.2734H76.1016V70ZM80.4922 70H79.0234V57.8438H80.4922V70ZM90.1797 70H88.7188V69.0703C88.5885 69.1589 88.4115 69.2839 88.1875 69.4453C87.9688 69.6016 87.7552 69.7266 87.5469 69.8203C87.3021 69.9401 87.0208 70.0391 86.7031 70.1172C86.3854 70.2005 86.013 70.2422 85.5859 70.2422C84.7995 70.2422 84.1328 69.9818 83.5859 69.4609C83.0391 68.9401 82.7656 68.276 82.7656 67.4688C82.7656 66.8073 82.9062 66.2734 83.1875 65.8672C83.474 65.4557 83.8802 65.1328 84.4062 64.8984C84.9375 64.6641 85.5755 64.5052 86.3203 64.4219C87.0651 64.3385 87.8646 64.276 88.7188 64.2344V64.0078C88.7188 63.6745 88.6589 63.3984 88.5391 63.1797C88.4245 62.9609 88.2578 62.7891 88.0391 62.6641C87.8307 62.5443 87.5807 62.4635 87.2891 62.4219C86.9974 62.3802 86.6927 62.3594 86.375 62.3594C85.9896 62.3594 85.5599 62.4115 85.0859 62.5156C84.612 62.6146 84.1224 62.7604 83.6172 62.9531H83.5391V61.4609C83.8255 61.3828 84.2396 61.2969 84.7812 61.2031C85.3229 61.1094 85.8568 61.0625 86.3828 61.0625C86.9974 61.0625 87.5312 61.1146 87.9844 61.2188C88.4427 61.3177 88.8385 61.4896 89.1719 61.7344C89.5 61.974 89.75 62.2839 89.9219 62.6641C90.0938 63.0443 90.1797 63.5156 90.1797 64.0781V70ZM88.7188 67.8516V65.4219C88.2708 65.4479 87.7422 65.487 87.1328 65.5391C86.5286 65.5911 86.0495 65.6667 85.6953 65.7656C85.2734 65.8854 84.9323 66.0729 84.6719 66.3281C84.4115 66.5781 84.2812 66.9245 84.2812 67.3672C84.2812 67.8672 84.4323 68.2448 84.7344 68.5C85.0365 68.75 85.4974 68.875 86.1172 68.875C86.6328 68.875 87.1042 68.776 87.5312 68.5781C87.9583 68.375 88.3542 68.1328 88.7188 67.8516ZM98.4531 62.875H98.375C98.1562 62.8229 97.9427 62.7865 97.7344 62.7656C97.5312 62.7396 97.2891 62.7266 97.0078 62.7266C96.5547 62.7266 96.1172 62.8281 95.6953 63.0312C95.2734 63.2292 94.8672 63.487 94.4766 63.8047V70H93.0078V61.2734H94.4766V62.5625C95.0599 62.0938 95.5729 61.763 96.0156 61.5703C96.4635 61.3724 96.9193 61.2734 97.3828 61.2734C97.638 61.2734 97.8229 61.2812 97.9375 61.2969C98.0521 61.3073 98.224 61.3307 98.4531 61.3672V62.875ZM112.57 70H111.102V65.0312C111.102 64.6562 111.083 64.2943 111.047 63.9453C111.016 63.5964 110.945 63.3177 110.836 63.1094C110.716 62.8854 110.544 62.7161 110.32 62.6016C110.096 62.487 109.773 62.4297 109.352 62.4297C108.94 62.4297 108.529 62.5339 108.117 62.7422C107.706 62.9453 107.294 63.2057 106.883 63.5234C106.898 63.6432 106.911 63.7839 106.922 63.9453C106.932 64.1016 106.938 64.2578 106.938 64.4141V70H105.469V65.0312C105.469 64.6458 105.451 64.2812 105.414 63.9375C105.383 63.5885 105.312 63.3099 105.203 63.1016C105.083 62.8776 104.911 62.7109 104.688 62.6016C104.464 62.487 104.141 62.4297 103.719 62.4297C103.318 62.4297 102.914 62.5286 102.508 62.7266C102.107 62.9245 101.706 63.1771 101.305 63.4844V70H99.8359V61.2734H101.305V62.2422C101.763 61.862 102.219 61.5651 102.672 61.3516C103.13 61.138 103.617 61.0312 104.133 61.0312C104.727 61.0312 105.229 61.1562 105.641 61.4062C106.057 61.6562 106.367 62.0026 106.57 62.4453C107.164 61.9453 107.706 61.5859 108.195 61.3672C108.685 61.1432 109.208 61.0312 109.766 61.0312C110.724 61.0312 111.43 61.3229 111.883 61.9062C112.341 62.4844 112.57 63.2943 112.57 64.3359V70ZM122.836 65.6406C122.836 67.0625 122.471 68.1849 121.742 69.0078C121.013 69.8307 120.036 70.2422 118.812 70.2422C117.578 70.2422 116.596 69.8307 115.867 69.0078C115.143 68.1849 114.781 67.0625 114.781 65.6406C114.781 64.2188 115.143 63.0964 115.867 62.2734C116.596 61.4453 117.578 61.0312 118.812 61.0312C120.036 61.0312 121.013 61.4453 121.742 62.2734C122.471 63.0964 122.836 64.2188 122.836 65.6406ZM121.32 65.6406C121.32 64.5104 121.099 63.6719 120.656 63.125C120.214 62.5729 119.599 62.2969 118.812 62.2969C118.016 62.2969 117.396 62.5729 116.953 63.125C116.516 63.6719 116.297 64.5104 116.297 65.6406C116.297 66.7344 116.518 67.5651 116.961 68.1328C117.404 68.6953 118.021 68.9766 118.812 68.9766C119.594 68.9766 120.206 68.6979 120.648 68.1406C121.096 67.5781 121.32 66.7448 121.32 65.6406ZM132.414 70H130.945V65.0312C130.945 64.6302 130.922 64.2552 130.875 63.9062C130.828 63.5521 130.742 63.276 130.617 63.0781C130.487 62.8594 130.299 62.6979 130.055 62.5938C129.81 62.4844 129.492 62.4297 129.102 62.4297C128.701 62.4297 128.281 62.5286 127.844 62.7266C127.406 62.9245 126.987 63.1771 126.586 63.4844V70H125.117V61.2734H126.586V62.2422C127.044 61.862 127.518 61.5651 128.008 61.3516C128.497 61.138 129 61.0312 129.516 61.0312C130.458 61.0312 131.177 61.3151 131.672 61.8828C132.167 62.4505 132.414 63.2682 132.414 64.3359V70ZM136.727 70H135.258V57.8438H136.727V70ZM141.211 59.8125H139.555V58.2891H141.211V59.8125ZM141.117 70H139.648V61.2734H141.117V70ZM151.945 70H150.008L146.508 66.1797L145.555 67.0859V70H144.086V57.8438H145.555V65.6406L149.797 61.2734H151.648L147.594 65.3047L151.945 70ZM47.3672 89H45.4297L41.9297 85.1797L40.9766 86.0859V89H39.5078V76.8438H40.9766V84.6406L45.2188 80.2734H47.0703L43.0156 84.3047L47.3672 89ZM56.1953 84.6406C56.1953 86.0625 55.8307 87.1849 55.1016 88.0078C54.3724 88.8307 53.3958 89.2422 52.1719 89.2422C50.9375 89.2422 49.9557 88.8307 49.2266 88.0078C48.5026 87.1849 48.1406 86.0625 48.1406 84.6406C48.1406 83.2188 48.5026 82.0964 49.2266 81.2734C49.9557 80.4453 50.9375 80.0312 52.1719 80.0312C53.3958 80.0312 54.3724 80.4453 55.1016 81.2734C55.8307 82.0964 56.1953 83.2188 56.1953 84.6406ZM54.6797 84.6406C54.6797 83.5104 54.4583 82.6719 54.0156 82.125C53.5729 81.5729 52.9583 81.2969 52.1719 81.2969C51.375 81.2969 50.7552 81.5729 50.3125 82.125C49.875 82.6719 49.6562 83.5104 49.6562 84.6406C49.6562 85.7344 49.8776 86.5651 50.3203 87.1328C50.763 87.6953 51.3802 87.9766 52.1719 87.9766C52.9531 87.9766 53.5651 87.6979 54.0078 87.1406C54.4557 86.5781 54.6797 85.7448 54.6797 84.6406ZM65.7734 89H64.3047V84.0312C64.3047 83.6302 64.2812 83.2552 64.2344 82.9062C64.1875 82.5521 64.1016 82.276 63.9766 82.0781C63.8464 81.8594 63.6589 81.6979 63.4141 81.5938C63.1693 81.4844 62.8516 81.4297 62.4609 81.4297C62.0599 81.4297 61.6406 81.5286 61.2031 81.7266C60.7656 81.9245 60.3464 82.1771 59.9453 82.4844V89H58.4766V80.2734H59.9453V81.2422C60.4036 80.862 60.8776 80.5651 61.3672 80.3516C61.8568 80.138 62.3594 80.0312 62.875 80.0312C63.8177 80.0312 64.5365 80.3151 65.0312 80.8828C65.526 81.4505 65.7734 82.2682 65.7734 83.3359V89ZM73.2969 78.2656H73.2188C73.0573 78.2188 72.8464 78.1719 72.5859 78.125C72.3255 78.0729 72.0964 78.0469 71.8984 78.0469C71.2682 78.0469 70.8099 78.1875 70.5234 78.4688C70.2422 78.7448 70.1016 79.2474 70.1016 79.9766V80.2734H72.75V81.5078H70.1484V89H68.6797V81.5078H67.6875V80.2734H68.6797V79.9844C68.6797 78.9479 68.9375 78.1536 69.4531 77.6016C69.9688 77.0443 70.7135 76.7656 71.6875 76.7656C72.0156 76.7656 72.3099 76.7812 72.5703 76.8125C72.8359 76.8438 73.0781 76.8802 73.2969 76.9219V78.2656ZM81.5312 84.7891H75.1016C75.1016 85.3255 75.1823 85.7943 75.3438 86.1953C75.5052 86.5911 75.7266 86.9167 76.0078 87.1719C76.2786 87.4219 76.599 87.6094 76.9688 87.7344C77.3438 87.8594 77.7552 87.9219 78.2031 87.9219C78.7969 87.9219 79.3932 87.8047 79.9922 87.5703C80.5964 87.3307 81.026 87.0964 81.2812 86.8672H81.3594V88.4688C80.8646 88.6771 80.3594 88.8516 79.8438 88.9922C79.3281 89.1328 78.7865 89.2031 78.2188 89.2031C76.7708 89.2031 75.6406 88.8125 74.8281 88.0312C74.0156 87.2448 73.6094 86.1302 73.6094 84.6875C73.6094 83.2604 73.9974 82.1276 74.7734 81.2891C75.5547 80.4505 76.5807 80.0312 77.8516 80.0312C79.0286 80.0312 79.9349 80.375 80.5703 81.0625C81.2109 81.75 81.5312 82.7266 81.5312 83.9922V84.7891ZM80.1016 83.6641C80.0964 82.8932 79.901 82.2969 79.5156 81.875C79.1354 81.4531 78.5547 81.2422 77.7734 81.2422C76.987 81.2422 76.3594 81.474 75.8906 81.9375C75.4271 82.401 75.1641 82.9766 75.1016 83.6641H80.1016ZM89.2031 81.875H89.125C88.9062 81.8229 88.6927 81.7865 88.4844 81.7656C88.2812 81.7396 88.0391 81.7266 87.7578 81.7266C87.3047 81.7266 86.8672 81.8281 86.4453 82.0312C86.0234 82.2292 85.6172 82.487 85.2266 82.8047V89H83.7578V80.2734H85.2266V81.5625C85.8099 81.0938 86.3229 80.763 86.7656 80.5703C87.2135 80.3724 87.6693 80.2734 88.1328 80.2734C88.388 80.2734 88.5729 80.2812 88.6875 80.2969C88.8021 80.3073 88.974 80.3307 89.2031 80.3672V81.875ZM97.8906 84.7891H91.4609C91.4609 85.3255 91.5417 85.7943 91.7031 86.1953C91.8646 86.5911 92.0859 86.9167 92.3672 87.1719C92.638 87.4219 92.9583 87.6094 93.3281 87.7344C93.7031 87.8594 94.1146 87.9219 94.5625 87.9219C95.1562 87.9219 95.7526 87.8047 96.3516 87.5703C96.9557 87.3307 97.3854 87.0964 97.6406 86.8672H97.7188V88.4688C97.224 88.6771 96.7188 88.8516 96.2031 88.9922C95.6875 89.1328 95.1458 89.2031 94.5781 89.2031C93.1302 89.2031 92 88.8125 91.1875 88.0312C90.375 87.2448 89.9688 86.1302 89.9688 84.6875C89.9688 83.2604 90.3568 82.1276 91.1328 81.2891C91.9141 80.4505 92.9401 80.0312 94.2109 80.0312C95.388 80.0312 96.2943 80.375 96.9297 81.0625C97.5703 81.75 97.8906 82.7266 97.8906 83.9922V84.7891ZM96.4609 83.6641C96.4557 82.8932 96.2604 82.2969 95.875 81.875C95.4948 81.4531 94.9141 81.2422 94.1328 81.2422C93.3464 81.2422 92.7188 81.474 92.25 81.9375C91.7865 82.401 91.5234 82.9766 91.4609 83.6641H96.4609ZM107.414 89H105.945V84.0312C105.945 83.6302 105.922 83.2552 105.875 82.9062C105.828 82.5521 105.742 82.276 105.617 82.0781C105.487 81.8594 105.299 81.6979 105.055 81.5938C104.81 81.4844 104.492 81.4297 104.102 81.4297C103.701 81.4297 103.281 81.5286 102.844 81.7266C102.406 81.9245 101.987 82.1771 101.586 82.4844V89H100.117V80.2734H101.586V81.2422C102.044 80.862 102.518 80.5651 103.008 80.3516C103.497 80.138 104 80.0312 104.516 80.0312C105.458 80.0312 106.177 80.3151 106.672 80.8828C107.167 81.4505 107.414 82.2682 107.414 83.3359V89ZM114.773 88.9219C114.497 88.9948 114.195 89.0547 113.867 89.1016C113.544 89.1484 113.255 89.1719 113 89.1719C112.109 89.1719 111.432 88.9323 110.969 88.4531C110.505 87.974 110.273 87.2057 110.273 86.1484V81.5078H109.281V80.2734H110.273V77.7656H111.742V80.2734H114.773V81.5078H111.742V85.4844C111.742 85.9427 111.753 86.3021 111.773 86.5625C111.794 86.8177 111.867 87.0573 111.992 87.2812C112.107 87.4896 112.263 87.6432 112.461 87.7422C112.664 87.8359 112.971 87.8828 113.383 87.8828C113.622 87.8828 113.872 87.849 114.133 87.7812C114.393 87.7083 114.581 87.6484 114.695 87.6016H114.773V88.9219ZM122.789 86.4844C122.789 87.2812 122.458 87.9349 121.797 88.4453C121.141 88.9557 120.242 89.2109 119.102 89.2109C118.456 89.2109 117.862 89.1354 117.32 88.9844C116.784 88.8281 116.333 88.6589 115.969 88.4766V86.8281H116.047C116.51 87.1771 117.026 87.4557 117.594 87.6641C118.161 87.8672 118.706 87.9688 119.227 87.9688C119.872 87.9688 120.378 87.8646 120.742 87.6562C121.107 87.4479 121.289 87.1198 121.289 86.6719C121.289 86.3281 121.19 86.0677 120.992 85.8906C120.794 85.7135 120.414 85.5625 119.852 85.4375C119.643 85.3906 119.37 85.3359 119.031 85.2734C118.698 85.2109 118.393 85.1432 118.117 85.0703C117.352 84.8672 116.807 84.5703 116.484 84.1797C116.167 83.7839 116.008 83.2995 116.008 82.7266C116.008 82.3672 116.081 82.0286 116.227 81.7109C116.378 81.3932 116.604 81.1094 116.906 80.8594C117.198 80.6146 117.568 80.4219 118.016 80.2812C118.469 80.1354 118.974 80.0625 119.531 80.0625C120.052 80.0625 120.578 80.1276 121.109 80.2578C121.646 80.3828 122.091 80.5365 122.445 80.7188V82.2891H122.367C121.992 82.013 121.536 81.7812 121 81.5938C120.464 81.401 119.938 81.3047 119.422 81.3047C118.885 81.3047 118.432 81.4089 118.062 81.6172C117.693 81.8203 117.508 82.125 117.508 82.5312C117.508 82.8906 117.62 83.1615 117.844 83.3438C118.062 83.526 118.417 83.6745 118.906 83.7891C119.177 83.8516 119.479 83.9141 119.812 83.9766C120.151 84.0391 120.432 84.0964 120.656 84.1484C121.339 84.3047 121.865 84.5729 122.234 84.9531C122.604 85.3385 122.789 85.849 122.789 86.4844ZM126.477 78.8125H124.82V77.2891H126.477V78.8125ZM126.383 89H124.914V80.2734H126.383V89ZM136.836 80.2734L131.742 92.2188H130.172L131.797 88.5781L128.32 80.2734H129.914L132.594 86.7422L135.297 80.2734H136.836ZM145.227 89H143.766V88.0703C143.635 88.1589 143.458 88.2839 143.234 88.4453C143.016 88.6016 142.802 88.7266 142.594 88.8203C142.349 88.9401 142.068 89.0391 141.75 89.1172C141.432 89.2005 141.06 89.2422 140.633 89.2422C139.846 89.2422 139.18 88.9818 138.633 88.4609C138.086 87.9401 137.812 87.276 137.812 86.4688C137.812 85.8073 137.953 85.2734 138.234 84.8672C138.521 84.4557 138.927 84.1328 139.453 83.8984C139.984 83.6641 140.622 83.5052 141.367 83.4219C142.112 83.3385 142.911 83.276 143.766 83.2344V83.0078C143.766 82.6745 143.706 82.3984 143.586 82.1797C143.471 81.9609 143.305 81.7891 143.086 81.6641C142.878 81.5443 142.628 81.4635 142.336 81.4219C142.044 81.3802 141.74 81.3594 141.422 81.3594C141.036 81.3594 140.607 81.4115 140.133 81.5156C139.659 81.6146 139.169 81.7604 138.664 81.9531H138.586V80.4609C138.872 80.3828 139.286 80.2969 139.828 80.2031C140.37 80.1094 140.904 80.0625 141.43 80.0625C142.044 80.0625 142.578 80.1146 143.031 80.2188C143.49 80.3177 143.885 80.4896 144.219 80.7344C144.547 80.974 144.797 81.2839 144.969 81.6641C145.141 82.0443 145.227 82.5156 145.227 83.0781V89ZM143.766 86.8516V84.4219C143.318 84.4479 142.789 84.487 142.18 84.5391C141.576 84.5911 141.096 84.6667 140.742 84.7656C140.32 84.8854 139.979 85.0729 139.719 85.3281C139.458 85.5781 139.328 85.9245 139.328 86.3672C139.328 86.8672 139.479 87.2448 139.781 87.5C140.083 87.75 140.544 87.875 141.164 87.875C141.68 87.875 142.151 87.776 142.578 87.5781C143.005 87.375 143.401 87.1328 143.766 86.8516ZM149.539 89H148.07V76.8438H149.539V89ZM159.227 89H157.766V88.0703C157.635 88.1589 157.458 88.2839 157.234 88.4453C157.016 88.6016 156.802 88.7266 156.594 88.8203C156.349 88.9401 156.068 89.0391 155.75 89.1172C155.432 89.2005 155.06 89.2422 154.633 89.2422C153.846 89.2422 153.18 88.9818 152.633 88.4609C152.086 87.9401 151.812 87.276 151.812 86.4688C151.812 85.8073 151.953 85.2734 152.234 84.8672C152.521 84.4557 152.927 84.1328 153.453 83.8984C153.984 83.6641 154.622 83.5052 155.367 83.4219C156.112 83.3385 156.911 83.276 157.766 83.2344V83.0078C157.766 82.6745 157.706 82.3984 157.586 82.1797C157.471 81.9609 157.305 81.7891 157.086 81.6641C156.878 81.5443 156.628 81.4635 156.336 81.4219C156.044 81.3802 155.74 81.3594 155.422 81.3594C155.036 81.3594 154.607 81.4115 154.133 81.5156C153.659 81.6146 153.169 81.7604 152.664 81.9531H152.586V80.4609C152.872 80.3828 153.286 80.2969 153.828 80.2031C154.37 80.1094 154.904 80.0625 155.43 80.0625C156.044 80.0625 156.578 80.1146 157.031 80.2188C157.49 80.3177 157.885 80.4896 158.219 80.7344C158.547 80.974 158.797 81.2839 158.969 81.6641C159.141 82.0443 159.227 82.5156 159.227 83.0781V89ZM157.766 86.8516V84.4219C157.318 84.4479 156.789 84.487 156.18 84.5391C155.576 84.5911 155.096 84.6667 154.742 84.7656C154.32 84.8854 153.979 85.0729 153.719 85.3281C153.458 85.5781 153.328 85.9245 153.328 86.3672C153.328 86.8672 153.479 87.2448 153.781 87.5C154.083 87.75 154.544 87.875 155.164 87.875C155.68 87.875 156.151 87.776 156.578 87.5781C157.005 87.375 157.401 87.1328 157.766 86.8516ZM167.5 81.875H167.422C167.203 81.8229 166.99 81.7865 166.781 81.7656C166.578 81.7396 166.336 81.7266 166.055 81.7266C165.602 81.7266 165.164 81.8281 164.742 82.0312C164.32 82.2292 163.914 82.487 163.523 82.8047V89H162.055V80.2734H163.523V81.5625C164.107 81.0938 164.62 80.763 165.062 80.5703C165.51 80.3724 165.966 80.2734 166.43 80.2734C166.685 80.2734 166.87 80.2812 166.984 80.2969C167.099 80.3073 167.271 80.3307 167.5 80.3672V81.875ZM170.461 78.8125H168.805V77.2891H170.461V78.8125ZM170.367 89H168.898V80.2734H170.367V89ZM180.57 89H179.102V84.0312C179.102 83.6302 179.078 83.2552 179.031 82.9062C178.984 82.5521 178.898 82.276 178.773 82.0781C178.643 81.8594 178.456 81.6979 178.211 81.5938C177.966 81.4844 177.648 81.4297 177.258 81.4297C176.857 81.4297 176.438 81.5286 176 81.7266C175.562 81.9245 175.143 82.1771 174.742 82.4844V89H173.273V80.2734H174.742V81.2422C175.201 80.862 175.674 80.5651 176.164 80.3516C176.654 80.138 177.156 80.0312 177.672 80.0312C178.615 80.0312 179.333 80.3151 179.828 80.8828C180.323 81.4505 180.57 82.2682 180.57 83.3359V89ZM184.977 78.8125H183.32V77.2891H184.977V78.8125ZM184.883 89H183.414V80.2734H184.883V89ZM197.945 88.9219C197.669 88.9948 197.367 89.0547 197.039 89.1016C196.716 89.1484 196.427 89.1719 196.172 89.1719C195.281 89.1719 194.604 88.9323 194.141 88.4531C193.677 87.974 193.445 87.2057 193.445 86.1484V81.5078H192.453V80.2734H193.445V77.7656H194.914V80.2734H197.945V81.5078H194.914V85.4844C194.914 85.9427 194.924 86.3021 194.945 86.5625C194.966 86.8177 195.039 87.0573 195.164 87.2812C195.279 87.4896 195.435 87.6432 195.633 87.7422C195.836 87.8359 196.143 87.8828 196.555 87.8828C196.794 87.8828 197.044 87.849 197.305 87.7812C197.565 87.7083 197.753 87.6484 197.867 87.6016H197.945V88.9219ZM206.508 89H205.047V88.0703C204.917 88.1589 204.74 88.2839 204.516 88.4453C204.297 88.6016 204.083 88.7266 203.875 88.8203C203.63 88.9401 203.349 89.0391 203.031 89.1172C202.714 89.2005 202.341 89.2422 201.914 89.2422C201.128 89.2422 200.461 88.9818 199.914 88.4609C199.367 87.9401 199.094 87.276 199.094 86.4688C199.094 85.8073 199.234 85.2734 199.516 84.8672C199.802 84.4557 200.208 84.1328 200.734 83.8984C201.266 83.6641 201.904 83.5052 202.648 83.4219C203.393 83.3385 204.193 83.276 205.047 83.2344V83.0078C205.047 82.6745 204.987 82.3984 204.867 82.1797C204.753 81.9609 204.586 81.7891 204.367 81.6641C204.159 81.5443 203.909 81.4635 203.617 81.4219C203.326 81.3802 203.021 81.3594 202.703 81.3594C202.318 81.3594 201.888 81.4115 201.414 81.5156C200.94 81.6146 200.451 81.7604 199.945 81.9531H199.867V80.4609C200.154 80.3828 200.568 80.2969 201.109 80.2031C201.651 80.1094 202.185 80.0625 202.711 80.0625C203.326 80.0625 203.859 80.1146 204.312 80.2188C204.771 80.3177 205.167 80.4896 205.5 80.7344C205.828 80.974 206.078 81.2839 206.25 81.6641C206.422 82.0443 206.508 82.5156 206.508 83.0781V89ZM205.047 86.8516V84.4219C204.599 84.4479 204.07 84.487 203.461 84.5391C202.857 84.5911 202.378 84.6667 202.023 84.7656C201.602 84.8854 201.26 85.0729 201 85.3281C200.74 85.5781 200.609 85.9245 200.609 86.3672C200.609 86.8672 200.76 87.2448 201.062 87.5C201.365 87.75 201.826 87.875 202.445 87.875C202.961 87.875 203.432 87.776 203.859 87.5781C204.286 87.375 204.682 87.1328 205.047 86.8516ZM215.57 86.4844C215.57 87.2812 215.24 87.9349 214.578 88.4453C213.922 88.9557 213.023 89.2109 211.883 89.2109C211.237 89.2109 210.643 89.1354 210.102 88.9844C209.565 88.8281 209.115 88.6589 208.75 88.4766V86.8281H208.828C209.292 87.1771 209.807 87.4557 210.375 87.6641C210.943 87.8672 211.487 87.9688 212.008 87.9688C212.654 87.9688 213.159 87.8646 213.523 87.6562C213.888 87.4479 214.07 87.1198 214.07 86.6719C214.07 86.3281 213.971 86.0677 213.773 85.8906C213.576 85.7135 213.195 85.5625 212.633 85.4375C212.424 85.3906 212.151 85.3359 211.812 85.2734C211.479 85.2109 211.174 85.1432 210.898 85.0703C210.133 84.8672 209.589 84.5703 209.266 84.1797C208.948 83.7839 208.789 83.2995 208.789 82.7266C208.789 82.3672 208.862 82.0286 209.008 81.7109C209.159 81.3932 209.385 81.1094 209.688 80.8594C209.979 80.6146 210.349 80.4219 210.797 80.2812C211.25 80.1354 211.755 80.0625 212.312 80.0625C212.833 80.0625 213.359 80.1276 213.891 80.2578C214.427 80.3828 214.872 80.5365 215.227 80.7188V82.2891H215.148C214.773 82.013 214.318 81.7812 213.781 81.5938C213.245 81.401 212.719 81.3047 212.203 81.3047C211.667 81.3047 211.214 81.4089 210.844 81.6172C210.474 81.8203 210.289 82.125 210.289 82.5312C210.289 82.8906 210.401 83.1615 210.625 83.3438C210.844 83.526 211.198 83.6745 211.688 83.7891C211.958 83.8516 212.26 83.9141 212.594 83.9766C212.932 84.0391 213.214 84.0964 213.438 84.1484C214.12 84.3047 214.646 84.5729 215.016 84.9531C215.385 85.3385 215.57 85.849 215.57 86.4844ZM224.977 89H223.508V84.0312C223.508 83.6302 223.484 83.2552 223.438 82.9062C223.391 82.5521 223.305 82.276 223.18 82.0781C223.049 81.8594 222.862 81.6979 222.617 81.5938C222.372 81.4844 222.055 81.4297 221.664 81.4297C221.263 81.4297 220.844 81.5286 220.406 81.7266C219.969 81.9245 219.549 82.1771 219.148 82.4844V89H217.68V76.8438H219.148V81.2422C219.607 80.862 220.081 80.5651 220.57 80.3516C221.06 80.138 221.562 80.0312 222.078 80.0312C223.021 80.0312 223.74 80.3151 224.234 80.8828C224.729 81.4505 224.977 82.2682 224.977 83.3359V89ZM235.727 89H233.789L230.289 85.1797L229.336 86.0859V89H227.867V76.8438H229.336V84.6406L233.578 80.2734H235.43L231.375 84.3047L235.727 89ZM238.852 78.8125H237.195V77.2891H238.852V78.8125ZM238.758 89H237.289V80.2734H238.758V89ZM243.148 89H241.68V76.8438H243.148V89ZM46.75 103.789H40.3203C40.3203 104.326 40.401 104.794 40.5625 105.195C40.724 105.591 40.9453 105.917 41.2266 106.172C41.4974 106.422 41.8177 106.609 42.1875 106.734C42.5625 106.859 42.974 106.922 43.4219 106.922C44.0156 106.922 44.612 106.805 45.2109 106.57C45.8151 106.331 46.2448 106.096 46.5 105.867H46.5781V107.469C46.0833 107.677 45.5781 107.852 45.0625 107.992C44.5469 108.133 44.0052 108.203 43.4375 108.203C41.9896 108.203 40.8594 107.812 40.0469 107.031C39.2344 106.245 38.8281 105.13 38.8281 103.688C38.8281 102.26 39.2161 101.128 39.9922 100.289C40.7734 99.4505 41.7995 99.0312 43.0703 99.0312C44.2474 99.0312 45.1536 99.375 45.7891 100.062C46.4297 100.75 46.75 101.727 46.75 102.992V103.789ZM45.3203 102.664C45.3151 101.893 45.1198 101.297 44.7344 100.875C44.3542 100.453 43.7734 100.242 42.9922 100.242C42.2057 100.242 41.5781 100.474 41.1094 100.938C40.6458 101.401 40.3828 101.977 40.3203 102.664H45.3203ZM53.5078 107.922C53.2318 107.995 52.9297 108.055 52.6016 108.102C52.2786 108.148 51.9896 108.172 51.7344 108.172C50.8438 108.172 50.1667 107.932 49.7031 107.453C49.2396 106.974 49.0078 106.206 49.0078 105.148V100.508H48.0156V99.2734H49.0078V96.7656H50.4766V99.2734H53.5078V100.508H50.4766V104.484C50.4766 104.943 50.487 105.302 50.5078 105.562C50.5286 105.818 50.6016 106.057 50.7266 106.281C50.8411 106.49 50.9974 106.643 51.1953 106.742C51.3984 106.836 51.7057 106.883 52.1172 106.883C52.3568 106.883 52.6068 106.849 52.8672 106.781C53.1276 106.708 53.3151 106.648 53.4297 106.602H53.5078V107.922ZM56.8672 97.8125H55.2109V96.2891H56.8672V97.8125ZM56.7734 108H55.3047V99.2734H56.7734V108ZM65.9141 105.484C65.9141 106.281 65.5833 106.935 64.9219 107.445C64.2656 107.956 63.3672 108.211 62.2266 108.211C61.5807 108.211 60.987 108.135 60.4453 107.984C59.9089 107.828 59.4583 107.659 59.0938 107.477V105.828H59.1719C59.6354 106.177 60.151 106.456 60.7188 106.664C61.2865 106.867 61.8307 106.969 62.3516 106.969C62.9974 106.969 63.5026 106.865 63.8672 106.656C64.2318 106.448 64.4141 106.12 64.4141 105.672C64.4141 105.328 64.3151 105.068 64.1172 104.891C63.9193 104.714 63.5391 104.562 62.9766 104.438C62.7682 104.391 62.4948 104.336 62.1562 104.273C61.8229 104.211 61.5182 104.143 61.2422 104.07C60.4766 103.867 59.9323 103.57 59.6094 103.18C59.2917 102.784 59.1328 102.299 59.1328 101.727C59.1328 101.367 59.2057 101.029 59.3516 100.711C59.5026 100.393 59.7292 100.109 60.0312 99.8594C60.3229 99.6146 60.6927 99.4219 61.1406 99.2812C61.5938 99.1354 62.099 99.0625 62.6562 99.0625C63.1771 99.0625 63.7031 99.1276 64.2344 99.2578C64.7708 99.3828 65.2161 99.5365 65.5703 99.7188V101.289H65.4922C65.1172 101.013 64.6615 100.781 64.125 100.594C63.5885 100.401 63.0625 100.305 62.5469 100.305C62.0104 100.305 61.5573 100.409 61.1875 100.617C60.8177 100.82 60.6328 101.125 60.6328 101.531C60.6328 101.891 60.7448 102.161 60.9688 102.344C61.1875 102.526 61.5417 102.674 62.0312 102.789C62.3021 102.852 62.6042 102.914 62.9375 102.977C63.276 103.039 63.5573 103.096 63.7812 103.148C64.4635 103.305 64.9896 103.573 65.3594 103.953C65.7292 104.339 65.9141 104.849 65.9141 105.484ZM75.3203 108H73.8516V103.031C73.8516 102.63 73.8281 102.255 73.7812 101.906C73.7344 101.552 73.6484 101.276 73.5234 101.078C73.3932 100.859 73.2057 100.698 72.9609 100.594C72.7161 100.484 72.3984 100.43 72.0078 100.43C71.6068 100.43 71.1875 100.529 70.75 100.727C70.3125 100.924 69.8932 101.177 69.4922 101.484V108H68.0234V95.8438H69.4922V100.242C69.9505 99.862 70.4245 99.5651 70.9141 99.3516C71.4036 99.138 71.9062 99.0312 72.4219 99.0312C73.3646 99.0312 74.0833 99.3151 74.5781 99.8828C75.0729 100.451 75.3203 101.268 75.3203 102.336V108Z" fill="#333333"/>
<path d="M5 142L12.5 149.5L25 134.5" stroke="#61B857" stroke-width="2" stroke-linecap="round" stroke-linejoin="round"/>
<path d="M48.3359 139.422C48.3359 140 48.2266 140.51 48.0078 140.953C47.7891 141.396 47.4948 141.76 47.125 142.047C46.6875 142.391 46.2057 142.635 45.6797 142.781C45.1589 142.927 44.4948 143 43.6875 143H39.5625V131.367H43.0078C43.8568 131.367 44.4922 131.398 44.9141 131.461C45.3359 131.523 45.7396 131.654 46.125 131.852C46.5521 132.076 46.862 132.365 47.0547 132.719C47.2474 133.068 47.3438 133.487 47.3438 133.977C47.3438 134.529 47.2031 135 46.9219 135.391C46.6406 135.776 46.2656 136.086 45.7969 136.32V136.383C46.5833 136.544 47.2031 136.891 47.6562 137.422C48.1094 137.948 48.3359 138.615 48.3359 139.422ZM45.7344 134.18C45.7344 133.898 45.6875 133.661 45.5938 133.469C45.5 133.276 45.349 133.12 45.1406 133C44.8958 132.859 44.599 132.773 44.25 132.742C43.901 132.706 43.4688 132.688 42.9531 132.688H41.1094V136.047H43.1094C43.5938 136.047 43.9792 136.023 44.2656 135.977C44.5521 135.924 44.8177 135.82 45.0625 135.664C45.3073 135.508 45.4792 135.307 45.5781 135.062C45.6823 134.812 45.7344 134.518 45.7344 134.18ZM46.7266 139.484C46.7266 139.016 46.6562 138.643 46.5156 138.367C46.375 138.091 46.1198 137.857 45.75 137.664C45.5 137.534 45.1953 137.451 44.8359 137.414C44.4818 137.372 44.0495 137.352 43.5391 137.352H41.1094V141.68H43.1562C43.8333 141.68 44.388 141.646 44.8203 141.578C45.2526 141.505 45.6068 141.375 45.8828 141.188C46.1745 140.984 46.388 140.753 46.5234 140.492C46.6589 140.232 46.7266 139.896 46.7266 139.484ZM51.9922 132.812H50.3359V131.289H51.9922V132.812ZM51.8984 143H50.4297V134.273H51.8984V143ZM61.1328 143H54.0859V141.914L59.1719 135.5H54.1953V134.273H61V135.32L55.8906 141.758H61.1328V143ZM70.5078 143H69.0391V138.031C69.0391 137.63 69.0156 137.255 68.9688 136.906C68.9219 136.552 68.8359 136.276 68.7109 136.078C68.5807 135.859 68.3932 135.698 68.1484 135.594C67.9036 135.484 67.5859 135.43 67.1953 135.43C66.7943 135.43 66.375 135.529 65.9375 135.727C65.5 135.924 65.0807 136.177 64.6797 136.484V143H63.2109V134.273H64.6797V135.242C65.138 134.862 65.612 134.565 66.1016 134.352C66.5911 134.138 67.0938 134.031 67.6094 134.031C68.5521 134.031 69.2708 134.315 69.7656 134.883C70.2604 135.451 70.5078 136.268 70.5078 137.336V143ZM80.6406 138.789H74.2109C74.2109 139.326 74.2917 139.794 74.4531 140.195C74.6146 140.591 74.8359 140.917 75.1172 141.172C75.388 141.422 75.7083 141.609 76.0781 141.734C76.4531 141.859 76.8646 141.922 77.3125 141.922C77.9062 141.922 78.5026 141.805 79.1016 141.57C79.7057 141.331 80.1354 141.096 80.3906 140.867H80.4688V142.469C79.974 142.677 79.4688 142.852 78.9531 142.992C78.4375 143.133 77.8958 143.203 77.3281 143.203C75.8802 143.203 74.75 142.812 73.9375 142.031C73.125 141.245 72.7188 140.13 72.7188 138.688C72.7188 137.26 73.1068 136.128 73.8828 135.289C74.6641 134.451 75.6901 134.031 76.9609 134.031C78.138 134.031 79.0443 134.375 79.6797 135.062C80.3203 135.75 80.6406 136.727 80.6406 137.992V138.789ZM79.2109 137.664C79.2057 136.893 79.0104 136.297 78.625 135.875C78.2448 135.453 77.6641 135.242 76.8828 135.242C76.0964 135.242 75.4688 135.474 75 135.938C74.5365 136.401 74.2734 136.977 74.2109 137.664H79.2109ZM89.1016 140.484C89.1016 141.281 88.7708 141.935 88.1094 142.445C87.4531 142.956 86.5547 143.211 85.4141 143.211C84.7682 143.211 84.1745 143.135 83.6328 142.984C83.0964 142.828 82.6458 142.659 82.2812 142.477V140.828H82.3594C82.8229 141.177 83.3385 141.456 83.9062 141.664C84.474 141.867 85.0182 141.969 85.5391 141.969C86.1849 141.969 86.6901 141.865 87.0547 141.656C87.4193 141.448 87.6016 141.12 87.6016 140.672C87.6016 140.328 87.5026 140.068 87.3047 139.891C87.1068 139.714 86.7266 139.562 86.1641 139.438C85.9557 139.391 85.6823 139.336 85.3438 139.273C85.0104 139.211 84.7057 139.143 84.4297 139.07C83.6641 138.867 83.1198 138.57 82.7969 138.18C82.4792 137.784 82.3203 137.299 82.3203 136.727C82.3203 136.367 82.3932 136.029 82.5391 135.711C82.6901 135.393 82.9167 135.109 83.2188 134.859C83.5104 134.615 83.8802 134.422 84.3281 134.281C84.7812 134.135 85.2865 134.062 85.8438 134.062C86.3646 134.062 86.8906 134.128 87.4219 134.258C87.9583 134.383 88.4036 134.536 88.7578 134.719V136.289H88.6797C88.3047 136.013 87.849 135.781 87.3125 135.594C86.776 135.401 86.25 135.305 85.7344 135.305C85.1979 135.305 84.7448 135.409 84.375 135.617C84.0052 135.82 83.8203 136.125 83.8203 136.531C83.8203 136.891 83.9323 137.161 84.1562 137.344C84.375 137.526 84.7292 137.674 85.2188 137.789C85.4896 137.852 85.7917 137.914 86.125 137.977C86.4635 138.039 86.7448 138.096 86.9688 138.148C87.651 138.305 88.1771 138.573 88.5469 138.953C88.9167 139.339 89.1016 139.849 89.1016 140.484ZM109.57 143H108.102V138.031C108.102 137.656 108.083 137.294 108.047 136.945C108.016 136.596 107.945 136.318 107.836 136.109C107.716 135.885 107.544 135.716 107.32 135.602C107.096 135.487 106.773 135.43 106.352 135.43C105.94 135.43 105.529 135.534 105.117 135.742C104.706 135.945 104.294 136.206 103.883 136.523C103.898 136.643 103.911 136.784 103.922 136.945C103.932 137.102 103.938 137.258 103.938 137.414V143H102.469V138.031C102.469 137.646 102.451 137.281 102.414 136.938C102.383 136.589 102.312 136.31 102.203 136.102C102.083 135.878 101.911 135.711 101.688 135.602C101.464 135.487 101.141 135.43 100.719 135.43C100.318 135.43 99.9141 135.529 99.5078 135.727C99.1068 135.924 98.7057 136.177 98.3047 136.484V143H96.8359V134.273H98.3047V135.242C98.763 134.862 99.2188 134.565 99.6719 134.352C100.13 134.138 100.617 134.031 101.133 134.031C101.727 134.031 102.229 134.156 102.641 134.406C103.057 134.656 103.367 135.003 103.57 135.445C104.164 134.945 104.706 134.586 105.195 134.367C105.685 134.143 106.208 134.031 106.766 134.031C107.724 134.031 108.43 134.323 108.883 134.906C109.341 135.484 109.57 136.294 109.57 137.336V143ZM119.18 143H117.719V142.07C117.589 142.159 117.411 142.284 117.188 142.445C116.969 142.602 116.755 142.727 116.547 142.82C116.302 142.94 116.021 143.039 115.703 143.117C115.385 143.201 115.013 143.242 114.586 143.242C113.799 143.242 113.133 142.982 112.586 142.461C112.039 141.94 111.766 141.276 111.766 140.469C111.766 139.807 111.906 139.273 112.188 138.867C112.474 138.456 112.88 138.133 113.406 137.898C113.938 137.664 114.576 137.505 115.32 137.422C116.065 137.339 116.865 137.276 117.719 137.234V137.008C117.719 136.674 117.659 136.398 117.539 136.18C117.424 135.961 117.258 135.789 117.039 135.664C116.831 135.544 116.581 135.464 116.289 135.422C115.997 135.38 115.693 135.359 115.375 135.359C114.99 135.359 114.56 135.411 114.086 135.516C113.612 135.615 113.122 135.76 112.617 135.953H112.539V134.461C112.826 134.383 113.24 134.297 113.781 134.203C114.323 134.109 114.857 134.062 115.383 134.062C115.997 134.062 116.531 134.115 116.984 134.219C117.443 134.318 117.839 134.49 118.172 134.734C118.5 134.974 118.75 135.284 118.922 135.664C119.094 136.044 119.18 136.516 119.18 137.078V143ZM117.719 140.852V138.422C117.271 138.448 116.742 138.487 116.133 138.539C115.529 138.591 115.049 138.667 114.695 138.766C114.273 138.885 113.932 139.073 113.672 139.328C113.411 139.578 113.281 139.924 113.281 140.367C113.281 140.867 113.432 141.245 113.734 141.5C114.036 141.75 114.497 141.875 115.117 141.875C115.633 141.875 116.104 141.776 116.531 141.578C116.958 141.375 117.354 141.133 117.719 140.852ZM128.242 140.484C128.242 141.281 127.911 141.935 127.25 142.445C126.594 142.956 125.695 143.211 124.555 143.211C123.909 143.211 123.315 143.135 122.773 142.984C122.237 142.828 121.786 142.659 121.422 142.477V140.828H121.5C121.964 141.177 122.479 141.456 123.047 141.664C123.615 141.867 124.159 141.969 124.68 141.969C125.326 141.969 125.831 141.865 126.195 141.656C126.56 141.448 126.742 141.12 126.742 140.672C126.742 140.328 126.643 140.068 126.445 139.891C126.247 139.714 125.867 139.562 125.305 139.438C125.096 139.391 124.823 139.336 124.484 139.273C124.151 139.211 123.846 139.143 123.57 139.07C122.805 138.867 122.26 138.57 121.938 138.18C121.62 137.784 121.461 137.299 121.461 136.727C121.461 136.367 121.534 136.029 121.68 135.711C121.831 135.393 122.057 135.109 122.359 134.859C122.651 134.615 123.021 134.422 123.469 134.281C123.922 134.135 124.427 134.062 124.984 134.062C125.505 134.062 126.031 134.128 126.562 134.258C127.099 134.383 127.544 134.536 127.898 134.719V136.289H127.82C127.445 136.013 126.99 135.781 126.453 135.594C125.917 135.401 125.391 135.305 124.875 135.305C124.339 135.305 123.885 135.409 123.516 135.617C123.146 135.82 122.961 136.125 122.961 136.531C122.961 136.891 123.073 137.161 123.297 137.344C123.516 137.526 123.87 137.674 124.359 137.789C124.63 137.852 124.932 137.914 125.266 137.977C125.604 138.039 125.885 138.096 126.109 138.148C126.792 138.305 127.318 138.573 127.688 138.953C128.057 139.339 128.242 139.849 128.242 140.484ZM131.836 143H130.367V130.844H131.836V143ZM141.523 143H140.062V142.07C139.932 142.159 139.755 142.284 139.531 142.445C139.312 142.602 139.099 142.727 138.891 142.82C138.646 142.94 138.365 143.039 138.047 143.117C137.729 143.201 137.357 143.242 136.93 143.242C136.143 143.242 135.477 142.982 134.93 142.461C134.383 141.94 134.109 141.276 134.109 140.469C134.109 139.807 134.25 139.273 134.531 138.867C134.818 138.456 135.224 138.133 135.75 137.898C136.281 137.664 136.919 137.505 137.664 137.422C138.409 137.339 139.208 137.276 140.062 137.234V137.008C140.062 136.674 140.003 136.398 139.883 136.18C139.768 135.961 139.602 135.789 139.383 135.664C139.174 135.544 138.924 135.464 138.633 135.422C138.341 135.38 138.036 135.359 137.719 135.359C137.333 135.359 136.904 135.411 136.43 135.516C135.956 135.615 135.466 135.76 134.961 135.953H134.883V134.461C135.169 134.383 135.583 134.297 136.125 134.203C136.667 134.109 137.201 134.062 137.727 134.062C138.341 134.062 138.875 134.115 139.328 134.219C139.786 134.318 140.182 134.49 140.516 134.734C140.844 134.974 141.094 135.284 141.266 135.664C141.438 136.044 141.523 136.516 141.523 137.078V143ZM140.062 140.852V138.422C139.615 138.448 139.086 138.487 138.477 138.539C137.872 138.591 137.393 138.667 137.039 138.766C136.617 138.885 136.276 139.073 136.016 139.328C135.755 139.578 135.625 139.924 135.625 140.367C135.625 140.867 135.776 141.245 136.078 141.5C136.38 141.75 136.841 141.875 137.461 141.875C137.977 141.875 138.448 141.776 138.875 141.578C139.302 141.375 139.698 141.133 140.062 140.852ZM151.648 143H150.18V138.031C150.18 137.63 150.156 137.255 150.109 136.906C150.062 136.552 149.977 136.276 149.852 136.078C149.721 135.859 149.534 135.698 149.289 135.594C149.044 135.484 148.727 135.43 148.336 135.43C147.935 135.43 147.516 135.529 147.078 135.727C146.641 135.924 146.221 136.177 145.82 136.484V143H144.352V130.844H145.82V135.242C146.279 134.862 146.753 134.565 147.242 134.352C147.732 134.138 148.234 134.031 148.75 134.031C149.693 134.031 150.411 134.315 150.906 134.883C151.401 135.451 151.648 136.268 151.648 137.336V143ZM161.258 143H159.797V142.07C159.667 142.159 159.49 142.284 159.266 142.445C159.047 142.602 158.833 142.727 158.625 142.82C158.38 142.94 158.099 143.039 157.781 143.117C157.464 143.201 157.091 143.242 156.664 143.242C155.878 143.242 155.211 142.982 154.664 142.461C154.117 141.94 153.844 141.276 153.844 140.469C153.844 139.807 153.984 139.273 154.266 138.867C154.552 138.456 154.958 138.133 155.484 137.898C156.016 137.664 156.654 137.505 157.398 137.422C158.143 137.339 158.943 137.276 159.797 137.234V137.008C159.797 136.674 159.737 136.398 159.617 136.18C159.503 135.961 159.336 135.789 159.117 135.664C158.909 135.544 158.659 135.464 158.367 135.422C158.076 135.38 157.771 135.359 157.453 135.359C157.068 135.359 156.638 135.411 156.164 135.516C155.69 135.615 155.201 135.76 154.695 135.953H154.617V134.461C154.904 134.383 155.318 134.297 155.859 134.203C156.401 134.109 156.935 134.062 157.461 134.062C158.076 134.062 158.609 134.115 159.062 134.219C159.521 134.318 159.917 134.49 160.25 134.734C160.578 134.974 160.828 135.284 161 135.664C161.172 136.044 161.258 136.516 161.258 137.078V143ZM159.797 140.852V138.422C159.349 138.448 158.82 138.487 158.211 138.539C157.607 138.591 157.128 138.667 156.773 138.766C156.352 138.885 156.01 139.073 155.75 139.328C155.49 139.578 155.359 139.924 155.359 140.367C155.359 140.867 155.51 141.245 155.812 141.5C156.115 141.75 156.576 141.875 157.195 141.875C157.711 141.875 158.182 141.776 158.609 141.578C159.036 141.375 159.432 141.133 159.797 140.852ZM168.617 142.922C168.341 142.995 168.039 143.055 167.711 143.102C167.388 143.148 167.099 143.172 166.844 143.172C165.953 143.172 165.276 142.932 164.812 142.453C164.349 141.974 164.117 141.206 164.117 140.148V135.508H163.125V134.273H164.117V131.766H165.586V134.273H168.617V135.508H165.586V139.484C165.586 139.943 165.596 140.302 165.617 140.562C165.638 140.818 165.711 141.057 165.836 141.281C165.951 141.49 166.107 141.643 166.305 141.742C166.508 141.836 166.815 141.883 167.227 141.883C167.466 141.883 167.716 141.849 167.977 141.781C168.237 141.708 168.424 141.648 168.539 141.602H168.617V142.922ZM171.883 143H170.414V130.844H171.883V143ZM181.57 143H180.109V142.07C179.979 142.159 179.802 142.284 179.578 142.445C179.359 142.602 179.146 142.727 178.938 142.82C178.693 142.94 178.411 143.039 178.094 143.117C177.776 143.201 177.404 143.242 176.977 143.242C176.19 143.242 175.523 142.982 174.977 142.461C174.43 141.94 174.156 141.276 174.156 140.469C174.156 139.807 174.297 139.273 174.578 138.867C174.865 138.456 175.271 138.133 175.797 137.898C176.328 137.664 176.966 137.505 177.711 137.422C178.456 137.339 179.255 137.276 180.109 137.234V137.008C180.109 136.674 180.049 136.398 179.93 136.18C179.815 135.961 179.648 135.789 179.43 135.664C179.221 135.544 178.971 135.464 178.68 135.422C178.388 135.38 178.083 135.359 177.766 135.359C177.38 135.359 176.951 135.411 176.477 135.516C176.003 135.615 175.513 135.76 175.008 135.953H174.93V134.461C175.216 134.383 175.63 134.297 176.172 134.203C176.714 134.109 177.247 134.062 177.773 134.062C178.388 134.062 178.922 134.115 179.375 134.219C179.833 134.318 180.229 134.49 180.562 134.734C180.891 134.974 181.141 135.284 181.312 135.664C181.484 136.044 181.57 136.516 181.57 137.078V143ZM180.109 140.852V138.422C179.661 138.448 179.133 138.487 178.523 138.539C177.919 138.591 177.44 138.667 177.086 138.766C176.664 138.885 176.323 139.073 176.062 139.328C175.802 139.578 175.672 139.924 175.672 140.367C175.672 140.867 175.823 141.245 176.125 141.5C176.427 141.75 176.888 141.875 177.508 141.875C178.023 141.875 178.495 141.776 178.922 141.578C179.349 141.375 179.745 141.133 180.109 140.852ZM189.844 135.875H189.766C189.547 135.823 189.333 135.786 189.125 135.766C188.922 135.74 188.68 135.727 188.398 135.727C187.945 135.727 187.508 135.828 187.086 136.031C186.664 136.229 186.258 136.487 185.867 136.805V143H184.398V134.273H185.867V135.562C186.451 135.094 186.964 134.763 187.406 134.57C187.854 134.372 188.31 134.273 188.773 134.273C189.029 134.273 189.214 134.281 189.328 134.297C189.443 134.307 189.615 134.331 189.844 134.367V135.875ZM192.805 132.812H191.148V131.289H192.805V132.812ZM192.711 143H191.242V134.273H192.711V143ZM202.914 143H201.445V138.031C201.445 137.63 201.422 137.255 201.375 136.906C201.328 136.552 201.242 136.276 201.117 136.078C200.987 135.859 200.799 135.698 200.555 135.594C200.31 135.484 199.992 135.43 199.602 135.43C199.201 135.43 198.781 135.529 198.344 135.727C197.906 135.924 197.487 136.177 197.086 136.484V143H195.617V134.273H197.086V135.242C197.544 134.862 198.018 134.565 198.508 134.352C198.997 134.138 199.5 134.031 200.016 134.031C200.958 134.031 201.677 134.315 202.172 134.883C202.667 135.451 202.914 136.268 202.914 137.336V143ZM207.32 132.812H205.664V131.289H207.32V132.812ZM207.227 143H205.758V134.273H207.227V143ZM43.9766 161.922C43.7005 161.995 43.3984 162.055 43.0703 162.102C42.7474 162.148 42.4583 162.172 42.2031 162.172C41.3125 162.172 40.6354 161.932 40.1719 161.453C39.7083 160.974 39.4766 160.206 39.4766 159.148V154.508H38.4844V153.273H39.4766V150.766H40.9453V153.273H43.9766V154.508H40.9453V158.484C40.9453 158.943 40.9557 159.302 40.9766 159.562C40.9974 159.818 41.0703 160.057 41.1953 160.281C41.3099 160.49 41.4661 160.643 41.6641 160.742C41.8672 160.836 42.1745 160.883 42.5859 160.883C42.8255 160.883 43.0755 160.849 43.3359 160.781C43.5964 160.708 43.7839 160.648 43.8984 160.602H43.9766V161.922ZM52.5391 162H51.0781V161.07C50.9479 161.159 50.7708 161.284 50.5469 161.445C50.3281 161.602 50.1146 161.727 49.9062 161.82C49.6615 161.94 49.3802 162.039 49.0625 162.117C48.7448 162.201 48.3724 162.242 47.9453 162.242C47.1589 162.242 46.4922 161.982 45.9453 161.461C45.3984 160.94 45.125 160.276 45.125 159.469C45.125 158.807 45.2656 158.273 45.5469 157.867C45.8333 157.456 46.2396 157.133 46.7656 156.898C47.2969 156.664 47.9349 156.505 48.6797 156.422C49.4245 156.339 50.224 156.276 51.0781 156.234V156.008C51.0781 155.674 51.0182 155.398 50.8984 155.18C50.7839 154.961 50.6172 154.789 50.3984 154.664C50.1901 154.544 49.9401 154.464 49.6484 154.422C49.3568 154.38 49.0521 154.359 48.7344 154.359C48.349 154.359 47.9193 154.411 47.4453 154.516C46.9714 154.615 46.4818 154.76 45.9766 154.953H45.8984V153.461C46.1849 153.383 46.599 153.297 47.1406 153.203C47.6823 153.109 48.2161 153.062 48.7422 153.062C49.3568 153.062 49.8906 153.115 50.3438 153.219C50.8021 153.318 51.1979 153.49 51.5312 153.734C51.8594 153.974 52.1094 154.284 52.2812 154.664C52.4531 155.044 52.5391 155.516 52.5391 156.078V162ZM51.0781 159.852V157.422C50.6302 157.448 50.1016 157.487 49.4922 157.539C48.888 157.591 48.4089 157.667 48.0547 157.766C47.6328 157.885 47.2917 158.073 47.0312 158.328C46.7708 158.578 46.6406 158.924 46.6406 159.367C46.6406 159.867 46.7917 160.245 47.0938 160.5C47.3958 160.75 47.8568 160.875 48.4766 160.875C48.9922 160.875 49.4635 160.776 49.8906 160.578C50.3177 160.375 50.7135 160.133 51.0781 159.852ZM61.6016 159.484C61.6016 160.281 61.2708 160.935 60.6094 161.445C59.9531 161.956 59.0547 162.211 57.9141 162.211C57.2682 162.211 56.6745 162.135 56.1328 161.984C55.5964 161.828 55.1458 161.659 54.7812 161.477V159.828H54.8594C55.3229 160.177 55.8385 160.456 56.4062 160.664C56.974 160.867 57.5182 160.969 58.0391 160.969C58.6849 160.969 59.1901 160.865 59.5547 160.656C59.9193 160.448 60.1016 160.12 60.1016 159.672C60.1016 159.328 60.0026 159.068 59.8047 158.891C59.6068 158.714 59.2266 158.562 58.6641 158.438C58.4557 158.391 58.1823 158.336 57.8438 158.273C57.5104 158.211 57.2057 158.143 56.9297 158.07C56.1641 157.867 55.6198 157.57 55.2969 157.18C54.9792 156.784 54.8203 156.299 54.8203 155.727C54.8203 155.367 54.8932 155.029 55.0391 154.711C55.1901 154.393 55.4167 154.109 55.7188 153.859C56.0104 153.615 56.3802 153.422 56.8281 153.281C57.2812 153.135 57.7865 153.062 58.3438 153.062C58.8646 153.062 59.3906 153.128 59.9219 153.258C60.4583 153.383 60.9036 153.536 61.2578 153.719V155.289H61.1797C60.8047 155.013 60.349 154.781 59.8125 154.594C59.276 154.401 58.75 154.305 58.2344 154.305C57.6979 154.305 57.2448 154.409 56.875 154.617C56.5052 154.82 56.3203 155.125 56.3203 155.531C56.3203 155.891 56.4323 156.161 56.6562 156.344C56.875 156.526 57.2292 156.674 57.7188 156.789C57.9896 156.852 58.2917 156.914 58.625 156.977C58.9635 157.039 59.2448 157.096 59.4688 157.148C60.151 157.305 60.6771 157.573 61.0469 157.953C61.4167 158.339 61.6016 158.849 61.6016 159.484ZM71.0078 162H69.5391V157.031C69.5391 156.63 69.5156 156.255 69.4688 155.906C69.4219 155.552 69.3359 155.276 69.2109 155.078C69.0807 154.859 68.8932 154.698 68.6484 154.594C68.4036 154.484 68.0859 154.43 67.6953 154.43C67.2943 154.43 66.875 154.529 66.4375 154.727C66 154.924 65.5807 155.177 65.1797 155.484V162H63.7109V149.844H65.1797V154.242C65.638 153.862 66.112 153.565 66.6016 153.352C67.0911 153.138 67.5938 153.031 68.1094 153.031C69.0521 153.031 69.7708 153.315 70.2656 153.883C70.7604 154.451 71.0078 155.268 71.0078 156.336V162ZM81.7578 162H79.8203L76.3203 158.18L75.3672 159.086V162H73.8984V149.844H75.3672V157.641L79.6094 153.273H81.4609L77.4062 157.305L81.7578 162ZM84.8828 151.812H83.2266V150.289H84.8828V151.812ZM84.7891 162H83.3203V153.273H84.7891V162ZM89.1797 162H87.7109V149.844H89.1797V162ZM105.016 157.789H98.5859C98.5859 158.326 98.6667 158.794 98.8281 159.195C98.9896 159.591 99.2109 159.917 99.4922 160.172C99.763 160.422 100.083 160.609 100.453 160.734C100.828 160.859 101.24 160.922 101.688 160.922C102.281 160.922 102.878 160.805 103.477 160.57C104.081 160.331 104.51 160.096 104.766 159.867H104.844V161.469C104.349 161.677 103.844 161.852 103.328 161.992C102.812 162.133 102.271 162.203 101.703 162.203C100.255 162.203 99.125 161.812 98.3125 161.031C97.5 160.245 97.0938 159.13 97.0938 157.688C97.0938 156.26 97.4818 155.128 98.2578 154.289C99.0391 153.451 100.065 153.031 101.336 153.031C102.513 153.031 103.419 153.375 104.055 154.062C104.695 154.75 105.016 155.727 105.016 156.992V157.789ZM103.586 156.664C103.581 155.893 103.385 155.297 103 154.875C102.62 154.453 102.039 154.242 101.258 154.242C100.471 154.242 99.8438 154.474 99.375 154.938C98.9115 155.401 98.6484 155.977 98.5859 156.664H103.586ZM111.773 161.922C111.497 161.995 111.195 162.055 110.867 162.102C110.544 162.148 110.255 162.172 110 162.172C109.109 162.172 108.432 161.932 107.969 161.453C107.505 160.974 107.273 160.206 107.273 159.148V154.508H106.281V153.273H107.273V150.766H108.742V153.273H111.773V154.508H108.742V158.484C108.742 158.943 108.753 159.302 108.773 159.562C108.794 159.818 108.867 160.057 108.992 160.281C109.107 160.49 109.263 160.643 109.461 160.742C109.664 160.836 109.971 160.883 110.383 160.883C110.622 160.883 110.872 160.849 111.133 160.781C111.393 160.708 111.581 160.648 111.695 160.602H111.773V161.922ZM115.133 151.812H113.477V150.289H115.133V151.812ZM115.039 162H113.57V153.273H115.039V162ZM124.18 159.484C124.18 160.281 123.849 160.935 123.188 161.445C122.531 161.956 121.633 162.211 120.492 162.211C119.846 162.211 119.253 162.135 118.711 161.984C118.174 161.828 117.724 161.659 117.359 161.477V159.828H117.438C117.901 160.177 118.417 160.456 118.984 160.664C119.552 160.867 120.096 160.969 120.617 160.969C121.263 160.969 121.768 160.865 122.133 160.656C122.497 160.448 122.68 160.12 122.68 159.672C122.68 159.328 122.581 159.068 122.383 158.891C122.185 158.714 121.805 158.562 121.242 158.438C121.034 158.391 120.76 158.336 120.422 158.273C120.089 158.211 119.784 158.143 119.508 158.07C118.742 157.867 118.198 157.57 117.875 157.18C117.557 156.784 117.398 156.299 117.398 155.727C117.398 155.367 117.471 155.029 117.617 154.711C117.768 154.393 117.995 154.109 118.297 153.859C118.589 153.615 118.958 153.422 119.406 153.281C119.859 153.135 120.365 153.062 120.922 153.062C121.443 153.062 121.969 153.128 122.5 153.258C123.036 153.383 123.482 153.536 123.836 153.719V155.289H123.758C123.383 155.013 122.927 154.781 122.391 154.594C121.854 154.401 121.328 154.305 120.812 154.305C120.276 154.305 119.823 154.409 119.453 154.617C119.083 154.82 118.898 155.125 118.898 155.531C118.898 155.891 119.01 156.161 119.234 156.344C119.453 156.526 119.807 156.674 120.297 156.789C120.568 156.852 120.87 156.914 121.203 156.977C121.542 157.039 121.823 157.096 122.047 157.148C122.729 157.305 123.255 157.573 123.625 157.953C123.995 158.339 124.18 158.849 124.18 159.484ZM133.586 162H132.117V157.031C132.117 156.63 132.094 156.255 132.047 155.906C132 155.552 131.914 155.276 131.789 155.078C131.659 154.859 131.471 154.698 131.227 154.594C130.982 154.484 130.664 154.43 130.273 154.43C129.872 154.43 129.453 154.529 129.016 154.727C128.578 154.924 128.159 155.177 127.758 155.484V162H126.289V149.844H127.758V154.242C128.216 153.862 128.69 153.565 129.18 153.352C129.669 153.138 130.172 153.031 130.688 153.031C131.63 153.031 132.349 153.315 132.844 153.883C133.339 154.451 133.586 155.268 133.586 156.336V162Z" fill="#333333"/>
<path d="M5 196L12.5 203.5L25 188.5" stroke="#61B857" stroke-width="2" stroke-linecap="round" stroke-linejoin="round"/>
<path d="M43.6641 202.5H39.0703V201.312H40.5938V192.055H39.0703V190.867H43.6641V192.055H42.1406V201.312H43.6641V202.5ZM52.4141 199.984C52.4141 200.781 52.0833 201.435 51.4219 201.945C50.7656 202.456 49.8672 202.711 48.7266 202.711C48.0807 202.711 47.487 202.635 46.9453 202.484C46.4089 202.328 45.9583 202.159 45.5938 201.977V200.328H45.6719C46.1354 200.677 46.651 200.956 47.2188 201.164C47.7865 201.367 48.3307 201.469 48.8516 201.469C49.4974 201.469 50.0026 201.365 50.3672 201.156C50.7318 200.948 50.9141 200.62 50.9141 200.172C50.9141 199.828 50.8151 199.568 50.6172 199.391C50.4193 199.214 50.0391 199.062 49.4766 198.938C49.2682 198.891 48.9948 198.836 48.6562 198.773C48.3229 198.711 48.0182 198.643 47.7422 198.57C46.9766 198.367 46.4323 198.07 46.1094 197.68C45.7917 197.284 45.6328 196.799 45.6328 196.227C45.6328 195.867 45.7057 195.529 45.8516 195.211C46.0026 194.893 46.2292 194.609 46.5312 194.359C46.8229 194.115 47.1927 193.922 47.6406 193.781C48.0938 193.635 48.599 193.562 49.1562 193.562C49.6771 193.562 50.2031 193.628 50.7344 193.758C51.2708 193.883 51.7161 194.036 52.0703 194.219V195.789H51.9922C51.6172 195.513 51.1615 195.281 50.625 195.094C50.0885 194.901 49.5625 194.805 49.0469 194.805C48.5104 194.805 48.0573 194.909 47.6875 195.117C47.3177 195.32 47.1328 195.625 47.1328 196.031C47.1328 196.391 47.2448 196.661 47.4688 196.844C47.6875 197.026 48.0417 197.174 48.5312 197.289C48.8021 197.352 49.1042 197.414 49.4375 197.477C49.776 197.539 50.0573 197.596 50.2812 197.648C50.9635 197.805 51.4896 198.073 51.8594 198.453C52.2292 198.839 52.4141 199.349 52.4141 199.984ZM61.8203 202.5H60.3516V197.531C60.3516 197.13 60.3281 196.755 60.2812 196.406C60.2344 196.052 60.1484 195.776 60.0234 195.578C59.8932 195.359 59.7057 195.198 59.4609 195.094C59.2161 194.984 58.8984 194.93 58.5078 194.93C58.1068 194.93 57.6875 195.029 57.25 195.227C56.8125 195.424 56.3932 195.677 55.9922 195.984V202.5H54.5234V190.344H55.9922V194.742C56.4505 194.362 56.9245 194.065 57.4141 193.852C57.9036 193.638 58.4062 193.531 58.9219 193.531C59.8646 193.531 60.5833 193.815 61.0781 194.383C61.5729 194.951 61.8203 195.768 61.8203 196.836V202.5ZM76.5078 199.984C76.5078 200.781 76.1771 201.435 75.5156 201.945C74.8594 202.456 73.9609 202.711 72.8203 202.711C72.1745 202.711 71.5807 202.635 71.0391 202.484C70.5026 202.328 70.0521 202.159 69.6875 201.977V200.328H69.7656C70.2292 200.677 70.7448 200.956 71.3125 201.164C71.8802 201.367 72.4245 201.469 72.9453 201.469C73.5911 201.469 74.0964 201.365 74.4609 201.156C74.8255 200.948 75.0078 200.62 75.0078 200.172C75.0078 199.828 74.9089 199.568 74.7109 199.391C74.513 199.214 74.1328 199.062 73.5703 198.938C73.362 198.891 73.0885 198.836 72.75 198.773C72.4167 198.711 72.112 198.643 71.8359 198.57C71.0703 198.367 70.526 198.07 70.2031 197.68C69.8854 197.284 69.7266 196.799 69.7266 196.227C69.7266 195.867 69.7995 195.529 69.9453 195.211C70.0964 194.893 70.3229 194.609 70.625 194.359C70.9167 194.115 71.2865 193.922 71.7344 193.781C72.1875 193.635 72.6927 193.562 73.25 193.562C73.7708 193.562 74.2969 193.628 74.8281 193.758C75.3646 193.883 75.8099 194.036 76.1641 194.219V195.789H76.0859C75.7109 195.513 75.2552 195.281 74.7188 195.094C74.1823 194.901 73.6562 194.805 73.1406 194.805C72.6042 194.805 72.151 194.909 71.7812 195.117C71.4115 195.32 71.2266 195.625 71.2266 196.031C71.2266 196.391 71.3385 196.661 71.5625 196.844C71.7812 197.026 72.1354 197.174 72.625 197.289C72.8958 197.352 73.1979 197.414 73.5312 197.477C73.8698 197.539 74.151 197.596 74.375 197.648C75.0573 197.805 75.5833 198.073 75.9531 198.453C76.3229 198.839 76.5078 199.349 76.5078 199.984ZM85.3984 202.5H83.9375V201.57C83.8073 201.659 83.6302 201.784 83.4062 201.945C83.1875 202.102 82.974 202.227 82.7656 202.32C82.5208 202.44 82.2396 202.539 81.9219 202.617C81.6042 202.701 81.2318 202.742 80.8047 202.742C80.0182 202.742 79.3516 202.482 78.8047 201.961C78.2578 201.44 77.9844 200.776 77.9844 199.969C77.9844 199.307 78.125 198.773 78.4062 198.367C78.6927 197.956 79.099 197.633 79.625 197.398C80.1562 197.164 80.7943 197.005 81.5391 196.922C82.2839 196.839 83.0833 196.776 83.9375 196.734V196.508C83.9375 196.174 83.8776 195.898 83.7578 195.68C83.6432 195.461 83.4766 195.289 83.2578 195.164C83.0495 195.044 82.7995 194.964 82.5078 194.922C82.2161 194.88 81.9115 194.859 81.5938 194.859C81.2083 194.859 80.7786 194.911 80.3047 195.016C79.8307 195.115 79.3411 195.26 78.8359 195.453H78.7578V193.961C79.0443 193.883 79.4583 193.797 80 193.703C80.5417 193.609 81.0755 193.562 81.6016 193.562C82.2161 193.562 82.75 193.615 83.2031 193.719C83.6615 193.818 84.0573 193.99 84.3906 194.234C84.7188 194.474 84.9688 194.784 85.1406 195.164C85.3125 195.544 85.3984 196.016 85.3984 196.578V202.5ZM83.9375 200.352V197.922C83.4896 197.948 82.9609 197.987 82.3516 198.039C81.7474 198.091 81.2682 198.167 80.9141 198.266C80.4922 198.385 80.151 198.573 79.8906 198.828C79.6302 199.078 79.5 199.424 79.5 199.867C79.5 200.367 79.651 200.745 79.9531 201C80.2552 201.25 80.7161 201.375 81.3359 201.375C81.8516 201.375 82.3229 201.276 82.75 201.078C83.1771 200.875 83.5729 200.633 83.9375 200.352ZM92.9219 191.766H92.8438C92.6823 191.719 92.4714 191.672 92.2109 191.625C91.9505 191.573 91.7214 191.547 91.5234 191.547C90.8932 191.547 90.4349 191.688 90.1484 191.969C89.8672 192.245 89.7266 192.747 89.7266 193.477V193.773H92.375V195.008H89.7734V202.5H88.3047V195.008H87.3125V193.773H88.3047V193.484C88.3047 192.448 88.5625 191.654 89.0781 191.102C89.5938 190.544 90.3385 190.266 91.3125 190.266C91.6406 190.266 91.9349 190.281 92.1953 190.312C92.4609 190.344 92.7031 190.38 92.9219 190.422V191.766ZM100.633 202.5H99.1719V201.57C99.0417 201.659 98.8646 201.784 98.6406 201.945C98.4219 202.102 98.2083 202.227 98 202.32C97.7552 202.44 97.474 202.539 97.1562 202.617C96.8385 202.701 96.4661 202.742 96.0391 202.742C95.2526 202.742 94.5859 202.482 94.0391 201.961C93.4922 201.44 93.2188 200.776 93.2188 199.969C93.2188 199.307 93.3594 198.773 93.6406 198.367C93.9271 197.956 94.3333 197.633 94.8594 197.398C95.3906 197.164 96.0286 197.005 96.7734 196.922C97.5182 196.839 98.3177 196.776 99.1719 196.734V196.508C99.1719 196.174 99.112 195.898 98.9922 195.68C98.8776 195.461 98.7109 195.289 98.4922 195.164C98.2839 195.044 98.0339 194.964 97.7422 194.922C97.4505 194.88 97.1458 194.859 96.8281 194.859C96.4427 194.859 96.013 194.911 95.5391 195.016C95.0651 195.115 94.5755 195.26 94.0703 195.453H93.9922V193.961C94.2786 193.883 94.6927 193.797 95.2344 193.703C95.776 193.609 96.3099 193.562 96.8359 193.562C97.4505 193.562 97.9844 193.615 98.4375 193.719C98.8958 193.818 99.2917 193.99 99.625 194.234C99.9531 194.474 100.203 194.784 100.375 195.164C100.547 195.544 100.633 196.016 100.633 196.578V202.5ZM99.1719 200.352V197.922C98.724 197.948 98.1953 197.987 97.5859 198.039C96.9818 198.091 96.5026 198.167 96.1484 198.266C95.7266 198.385 95.3854 198.573 95.125 198.828C94.8646 199.078 94.7344 199.424 94.7344 199.867C94.7344 200.367 94.8854 200.745 95.1875 201C95.4896 201.25 95.9505 201.375 96.5703 201.375C97.0859 201.375 97.5573 201.276 97.9844 201.078C98.4115 200.875 98.8073 200.633 99.1719 200.352ZM108.906 195.375H108.828C108.609 195.323 108.396 195.286 108.188 195.266C107.984 195.24 107.742 195.227 107.461 195.227C107.008 195.227 106.57 195.328 106.148 195.531C105.727 195.729 105.32 195.987 104.93 196.305V202.5H103.461V193.773H104.93V195.062C105.513 194.594 106.026 194.263 106.469 194.07C106.917 193.872 107.372 193.773 107.836 193.773C108.091 193.773 108.276 193.781 108.391 193.797C108.505 193.807 108.677 193.831 108.906 193.867V195.375ZM111.773 202.5H110.305V190.344H111.773V202.5ZM121.461 202.5H120V201.57C119.87 201.659 119.693 201.784 119.469 201.945C119.25 202.102 119.036 202.227 118.828 202.32C118.583 202.44 118.302 202.539 117.984 202.617C117.667 202.701 117.294 202.742 116.867 202.742C116.081 202.742 115.414 202.482 114.867 201.961C114.32 201.44 114.047 200.776 114.047 199.969C114.047 199.307 114.188 198.773 114.469 198.367C114.755 197.956 115.161 197.633 115.688 197.398C116.219 197.164 116.857 197.005 117.602 196.922C118.346 196.839 119.146 196.776 120 196.734V196.508C120 196.174 119.94 195.898 119.82 195.68C119.706 195.461 119.539 195.289 119.32 195.164C119.112 195.044 118.862 194.964 118.57 194.922C118.279 194.88 117.974 194.859 117.656 194.859C117.271 194.859 116.841 194.911 116.367 195.016C115.893 195.115 115.404 195.26 114.898 195.453H114.82V193.961C115.107 193.883 115.521 193.797 116.062 193.703C116.604 193.609 117.138 193.562 117.664 193.562C118.279 193.562 118.812 193.615 119.266 193.719C119.724 193.818 120.12 193.99 120.453 194.234C120.781 194.474 121.031 194.784 121.203 195.164C121.375 195.544 121.461 196.016 121.461 196.578V202.5ZM120 200.352V197.922C119.552 197.948 119.023 197.987 118.414 198.039C117.81 198.091 117.331 198.167 116.977 198.266C116.555 198.385 116.214 198.573 115.953 198.828C115.693 199.078 115.562 199.424 115.562 199.867C115.562 200.367 115.714 200.745 116.016 201C116.318 201.25 116.779 201.375 117.398 201.375C117.914 201.375 118.385 201.276 118.812 201.078C119.24 200.875 119.635 200.633 120 200.352ZM129.734 195.375H129.656C129.438 195.323 129.224 195.286 129.016 195.266C128.812 195.24 128.57 195.227 128.289 195.227C127.836 195.227 127.398 195.328 126.977 195.531C126.555 195.729 126.148 195.987 125.758 196.305V202.5H124.289V193.773H125.758V195.062C126.341 194.594 126.854 194.263 127.297 194.07C127.745 193.872 128.201 193.773 128.664 193.773C128.919 193.773 129.104 193.781 129.219 193.797C129.333 193.807 129.505 193.831 129.734 193.867V195.375ZM132.695 192.312H131.039V190.789H132.695V192.312ZM132.602 202.5H131.133V193.773H132.602V202.5ZM142.805 202.5H141.336V197.531C141.336 197.13 141.312 196.755 141.266 196.406C141.219 196.052 141.133 195.776 141.008 195.578C140.878 195.359 140.69 195.198 140.445 195.094C140.201 194.984 139.883 194.93 139.492 194.93C139.091 194.93 138.672 195.029 138.234 195.227C137.797 195.424 137.378 195.677 136.977 195.984V202.5H135.508V193.773H136.977V194.742C137.435 194.362 137.909 194.065 138.398 193.852C138.888 193.638 139.391 193.531 139.906 193.531C140.849 193.531 141.568 193.815 142.062 194.383C142.557 194.951 142.805 195.768 142.805 196.836V202.5ZM147.211 192.312H145.555V190.789H147.211V192.312ZM147.117 202.5H145.648V193.773H147.117V202.5ZM160.18 202.422C159.904 202.495 159.602 202.555 159.273 202.602C158.951 202.648 158.661 202.672 158.406 202.672C157.516 202.672 156.839 202.432 156.375 201.953C155.911 201.474 155.68 200.706 155.68 199.648V195.008H154.688V193.773H155.68V191.266H157.148V193.773H160.18V195.008H157.148V198.984C157.148 199.443 157.159 199.802 157.18 200.062C157.201 200.318 157.273 200.557 157.398 200.781C157.513 200.99 157.669 201.143 157.867 201.242C158.07 201.336 158.378 201.383 158.789 201.383C159.029 201.383 159.279 201.349 159.539 201.281C159.799 201.208 159.987 201.148 160.102 201.102H160.18V202.422ZM168.742 202.5H167.281V201.57C167.151 201.659 166.974 201.784 166.75 201.945C166.531 202.102 166.318 202.227 166.109 202.32C165.865 202.44 165.583 202.539 165.266 202.617C164.948 202.701 164.576 202.742 164.148 202.742C163.362 202.742 162.695 202.482 162.148 201.961C161.602 201.44 161.328 200.776 161.328 199.969C161.328 199.307 161.469 198.773 161.75 198.367C162.036 197.956 162.443 197.633 162.969 197.398C163.5 197.164 164.138 197.005 164.883 196.922C165.628 196.839 166.427 196.776 167.281 196.734V196.508C167.281 196.174 167.221 195.898 167.102 195.68C166.987 195.461 166.82 195.289 166.602 195.164C166.393 195.044 166.143 194.964 165.852 194.922C165.56 194.88 165.255 194.859 164.938 194.859C164.552 194.859 164.122 194.911 163.648 195.016C163.174 195.115 162.685 195.26 162.18 195.453H162.102V193.961C162.388 193.883 162.802 193.797 163.344 193.703C163.885 193.609 164.419 193.562 164.945 193.562C165.56 193.562 166.094 193.615 166.547 193.719C167.005 193.818 167.401 193.99 167.734 194.234C168.062 194.474 168.312 194.784 168.484 195.164C168.656 195.544 168.742 196.016 168.742 196.578V202.5ZM167.281 200.352V197.922C166.833 197.948 166.305 197.987 165.695 198.039C165.091 198.091 164.612 198.167 164.258 198.266C163.836 198.385 163.495 198.573 163.234 198.828C162.974 199.078 162.844 199.424 162.844 199.867C162.844 200.367 162.995 200.745 163.297 201C163.599 201.25 164.06 201.375 164.68 201.375C165.195 201.375 165.667 201.276 166.094 201.078C166.521 200.875 166.917 200.633 167.281 200.352ZM177.805 199.984C177.805 200.781 177.474 201.435 176.812 201.945C176.156 202.456 175.258 202.711 174.117 202.711C173.471 202.711 172.878 202.635 172.336 202.484C171.799 202.328 171.349 202.159 170.984 201.977V200.328H171.062C171.526 200.677 172.042 200.956 172.609 201.164C173.177 201.367 173.721 201.469 174.242 201.469C174.888 201.469 175.393 201.365 175.758 201.156C176.122 200.948 176.305 200.62 176.305 200.172C176.305 199.828 176.206 199.568 176.008 199.391C175.81 199.214 175.43 199.062 174.867 198.938C174.659 198.891 174.385 198.836 174.047 198.773C173.714 198.711 173.409 198.643 173.133 198.57C172.367 198.367 171.823 198.07 171.5 197.68C171.182 197.284 171.023 196.799 171.023 196.227C171.023 195.867 171.096 195.529 171.242 195.211C171.393 194.893 171.62 194.609 171.922 194.359C172.214 194.115 172.583 193.922 173.031 193.781C173.484 193.635 173.99 193.562 174.547 193.562C175.068 193.562 175.594 193.628 176.125 193.758C176.661 193.883 177.107 194.036 177.461 194.219V195.789H177.383C177.008 195.513 176.552 195.281 176.016 195.094C175.479 194.901 174.953 194.805 174.438 194.805C173.901 194.805 173.448 194.909 173.078 195.117C172.708 195.32 172.523 195.625 172.523 196.031C172.523 196.391 172.635 196.661 172.859 196.844C173.078 197.026 173.432 197.174 173.922 197.289C174.193 197.352 174.495 197.414 174.828 197.477C175.167 197.539 175.448 197.596 175.672 197.648C176.354 197.805 176.88 198.073 177.25 198.453C177.62 198.839 177.805 199.349 177.805 199.984ZM187.211 202.5H185.742V197.531C185.742 197.13 185.719 196.755 185.672 196.406C185.625 196.052 185.539 195.776 185.414 195.578C185.284 195.359 185.096 195.198 184.852 195.094C184.607 194.984 184.289 194.93 183.898 194.93C183.497 194.93 183.078 195.029 182.641 195.227C182.203 195.424 181.784 195.677 181.383 195.984V202.5H179.914V190.344H181.383V194.742C181.841 194.362 182.315 194.065 182.805 193.852C183.294 193.638 183.797 193.531 184.312 193.531C185.255 193.531 185.974 193.815 186.469 194.383C186.964 194.951 187.211 195.768 187.211 196.836V202.5ZM197.961 202.5H196.023L192.523 198.68L191.57 199.586V202.5H190.102V190.344H191.57V198.141L195.812 193.773H197.664L193.609 197.805L197.961 202.5ZM201.086 192.312H199.43V190.789H201.086V192.312ZM200.992 202.5H199.523V193.773H200.992V202.5ZM205.383 202.5H203.914V190.344H205.383V202.5ZM221.219 198.289H214.789C214.789 198.826 214.87 199.294 215.031 199.695C215.193 200.091 215.414 200.417 215.695 200.672C215.966 200.922 216.286 201.109 216.656 201.234C217.031 201.359 217.443 201.422 217.891 201.422C218.484 201.422 219.081 201.305 219.68 201.07C220.284 200.831 220.714 200.596 220.969 200.367H221.047V201.969C220.552 202.177 220.047 202.352 219.531 202.492C219.016 202.633 218.474 202.703 217.906 202.703C216.458 202.703 215.328 202.312 214.516 201.531C213.703 200.745 213.297 199.63 213.297 198.188C213.297 196.76 213.685 195.628 214.461 194.789C215.242 193.951 216.268 193.531 217.539 193.531C218.716 193.531 219.622 193.875 220.258 194.562C220.898 195.25 221.219 196.227 221.219 197.492V198.289ZM219.789 197.164C219.784 196.393 219.589 195.797 219.203 195.375C218.823 194.953 218.242 194.742 217.461 194.742C216.674 194.742 216.047 194.974 215.578 195.438C215.115 195.901 214.852 196.477 214.789 197.164H219.789ZM227.977 202.422C227.701 202.495 227.398 202.555 227.07 202.602C226.747 202.648 226.458 202.672 226.203 202.672C225.312 202.672 224.635 202.432 224.172 201.953C223.708 201.474 223.477 200.706 223.477 199.648V195.008H222.484V193.773H223.477V191.266H224.945V193.773H227.977V195.008H224.945V198.984C224.945 199.443 224.956 199.802 224.977 200.062C224.997 200.318 225.07 200.557 225.195 200.781C225.31 200.99 225.466 201.143 225.664 201.242C225.867 201.336 226.174 201.383 226.586 201.383C226.826 201.383 227.076 201.349 227.336 201.281C227.596 201.208 227.784 201.148 227.898 201.102H227.977V202.422ZM231.336 192.312H229.68V190.789H231.336V192.312ZM231.242 202.5H229.773V193.773H231.242V202.5ZM240.383 199.984C240.383 200.781 240.052 201.435 239.391 201.945C238.734 202.456 237.836 202.711 236.695 202.711C236.049 202.711 235.456 202.635 234.914 202.484C234.378 202.328 233.927 202.159 233.562 201.977V200.328H233.641C234.104 200.677 234.62 200.956 235.188 201.164C235.755 201.367 236.299 201.469 236.82 201.469C237.466 201.469 237.971 201.365 238.336 201.156C238.701 200.948 238.883 200.62 238.883 200.172C238.883 199.828 238.784 199.568 238.586 199.391C238.388 199.214 238.008 199.062 237.445 198.938C237.237 198.891 236.964 198.836 236.625 198.773C236.292 198.711 235.987 198.643 235.711 198.57C234.945 198.367 234.401 198.07 234.078 197.68C233.76 197.284 233.602 196.799 233.602 196.227C233.602 195.867 233.674 195.529 233.82 195.211C233.971 194.893 234.198 194.609 234.5 194.359C234.792 194.115 235.161 193.922 235.609 193.781C236.062 193.635 236.568 193.562 237.125 193.562C237.646 193.562 238.172 193.628 238.703 193.758C239.24 193.883 239.685 194.036 240.039 194.219V195.789H239.961C239.586 195.513 239.13 195.281 238.594 195.094C238.057 194.901 237.531 194.805 237.016 194.805C236.479 194.805 236.026 194.909 235.656 195.117C235.286 195.32 235.102 195.625 235.102 196.031C235.102 196.391 235.214 196.661 235.438 196.844C235.656 197.026 236.01 197.174 236.5 197.289C236.771 197.352 237.073 197.414 237.406 197.477C237.745 197.539 238.026 197.596 238.25 197.648C238.932 197.805 239.458 198.073 239.828 198.453C240.198 198.839 240.383 199.349 240.383 199.984ZM249.789 202.5H248.32V197.531C248.32 197.13 248.297 196.755 248.25 196.406C248.203 196.052 248.117 195.776 247.992 195.578C247.862 195.359 247.674 195.198 247.43 195.094C247.185 194.984 246.867 194.93 246.477 194.93C246.076 194.93 245.656 195.029 245.219 195.227C244.781 195.424 244.362 195.677 243.961 195.984V202.5H242.492V190.344H243.961V194.742C244.419 194.362 244.893 194.065 245.383 193.852C245.872 193.638 246.375 193.531 246.891 193.531C247.833 193.531 248.552 193.815 249.047 194.383C249.542 194.951 249.789 195.768 249.789 196.836V202.5Z" fill="#333333"/>
</svg>
