<svg width="70" height="70" viewBox="0 0 70 70" fill="none" xmlns="http://www.w3.org/2000/svg">
<path d="M61.25 66.3545H8.75C7.55417 66.3545 6.5625 65.3628 6.5625 64.167C6.5625 62.9712 7.55417 61.9795 8.75 61.9795H61.25C62.4458 61.9795 63.4375 62.9712 63.4375 64.167C63.4375 65.3628 62.4458 66.3545 61.25 66.3545Z" fill="#1959AB"/>
<path d="M16.3333 57.6039H11.6667C8.86667 57.6039 6.5625 55.2997 6.5625 52.4997V27.3581C6.5625 24.5581 8.86667 22.2539 11.6667 22.2539H16.3333C19.1333 22.2539 21.4374 24.5581 21.4374 27.3581V52.4997C21.4374 55.2997 19.1333 57.6039 16.3333 57.6039ZM11.6667 26.5997C11.2583 26.5997 10.9375 26.9205 10.9375 27.3289V52.4997C10.9375 52.9081 11.2583 53.2289 11.6667 53.2289H16.3333C16.7416 53.2289 17.0624 52.9081 17.0624 52.4997V27.3581C17.0624 26.9497 16.7416 26.6289 16.3333 26.6289H11.6667V26.5997Z" fill="#1959AB"/>
<path d="M37.3333 57.6044H32.6667C29.8667 57.6044 27.5625 55.3002 27.5625 52.5002V18.0544C27.5625 15.2544 29.8667 12.9502 32.6667 12.9502H37.3333C40.1333 12.9502 42.4374 15.2544 42.4374 18.0544V52.5002C42.4374 55.3002 40.1333 57.6044 37.3333 57.6044ZM32.6667 17.3252C32.2583 17.3252 31.9375 17.646 31.9375 18.0544V52.5002C31.9375 52.9085 32.2583 53.2294 32.6667 53.2294H37.3333C37.7416 53.2294 38.0624 52.9085 38.0624 52.5002V18.0544C38.0624 17.646 37.7416 17.3252 37.3333 17.3252H32.6667Z" fill="#1959AB"/>
<path d="M58.3333 57.6038H53.6667C50.8667 57.6038 48.5625 55.2997 48.5625 52.4997V8.74967C48.5625 5.94967 50.8667 3.64551 53.6667 3.64551H58.3333C61.1333 3.64551 63.4374 5.94967 63.4374 8.74967V52.4997C63.4374 55.2997 61.1333 57.6038 58.3333 57.6038ZM53.6667 8.02051C53.2583 8.02051 52.9375 8.34134 52.9375 8.74967V52.4997C52.9375 52.908 53.2583 53.2288 53.6667 53.2288H58.3333C58.7416 53.2288 59.0624 52.908 59.0624 52.4997V8.74967C59.0624 8.34134 58.7416 8.02051 58.3333 8.02051H53.6667Z" fill="#1959AB"/>
</svg>
