<svg width="70" height="70" viewBox="0 0 70 70" fill="none" xmlns="http://www.w3.org/2000/svg">
<path d="M30.7426 63.9913C30.0718 63.9913 29.4301 63.6997 28.9926 63.1164L26.0468 59.1789C25.4343 58.3622 24.6177 57.8955 23.7427 57.8371C22.8677 57.7788 21.9926 58.1872 21.2926 58.9164C17.0634 63.4372 13.8551 63.058 12.3093 62.4747C10.7343 61.8622 8.08008 59.8496 8.08008 53.3746V20.533C8.08008 7.58303 11.8134 3.64551 24.0342 3.64551H46.0551C58.276 3.64551 62.0093 7.58303 62.0093 20.533V32.958C62.0093 34.1538 61.0176 35.1455 59.8218 35.1455C58.626 35.1455 57.6343 34.1538 57.6343 32.958V20.533C57.6343 10.0039 55.7968 8.02051 46.0551 8.02051H24.0342C14.2926 8.02051 12.4551 10.0039 12.4551 20.533V53.3746C12.4551 56.4371 13.2134 58.1288 13.9134 58.3913C14.4384 58.5955 15.8676 58.3038 18.0843 55.9413C19.6885 54.2497 21.7884 53.3455 23.9759 53.4621C26.1343 53.5788 28.176 54.7164 29.5468 56.5539L32.5218 60.4913C33.2509 61.4538 33.0468 62.8247 32.0843 63.5539C31.6468 63.8747 31.1801 63.9913 30.7426 63.9913Z" fill="#1959AB"/>
<path d="M53.0834 64.6041C46.725 64.6041 41.5625 59.4417 41.5625 53.0834C41.5625 46.725 46.725 41.5625 53.0834 41.5625C59.4417 41.5625 64.6041 46.725 64.6041 53.0834C64.6041 59.4417 59.4417 64.6041 53.0834 64.6041ZM53.0834 45.9375C49.1459 45.9375 45.9375 49.1459 45.9375 53.0834C45.9375 57.0209 49.1459 60.2291 53.0834 60.2291C57.0209 60.2291 60.2291 57.0209 60.2291 53.0834C60.2291 49.1459 57.0209 45.9375 53.0834 45.9375Z" fill="#1959AB"/>
<path d="M64.1662 66.3537C63.612 66.3537 63.0579 66.1495 62.6204 65.712L59.7037 62.7954C58.8579 61.9495 58.8579 60.5495 59.7037 59.7037C60.5495 58.8579 61.9495 58.8579 62.7954 59.7037L65.712 62.6204C66.5579 63.4662 66.5579 64.8662 65.712 65.712C65.2745 66.1495 64.7204 66.3537 64.1662 66.3537Z" fill="#1959AB"/>
<path d="M46.6657 22.6045H23.3324C22.1366 22.6045 21.1449 21.6128 21.1449 20.417C21.1449 19.2212 22.1366 18.2295 23.3324 18.2295H46.6657C47.8616 18.2295 48.8532 19.2212 48.8532 20.417C48.8532 21.6128 47.8616 22.6045 46.6657 22.6045Z" fill="#1959AB"/>
<path d="M43.75 34.2705H26.25C25.0542 34.2705 24.0625 33.2788 24.0625 32.083C24.0625 30.8872 25.0542 29.8955 26.25 29.8955H43.75C44.9458 29.8955 45.9375 30.8872 45.9375 32.083C45.9375 33.2788 44.9458 34.2705 43.75 34.2705Z" fill="#1959AB"/>
</svg>
