<svg width="233" height="226" viewBox="0 0 233 226" fill="none" xmlns="http://www.w3.org/2000/svg">
<path d="M16.3477 8.4082C16.9206 8.88997 17.36 9.48568 17.666 10.1953C17.9785 10.8984 18.1348 11.7057 18.1348 12.6172C18.1348 13.5156 17.9753 14.3197 17.6562 15.0293C17.3372 15.7389 16.8783 16.3444 16.2793 16.8457C15.6673 17.347 14.9609 17.7376 14.1602 18.0176C13.3659 18.2975 12.4414 18.4733 11.3867 18.5449V20.1367H7.65625V18.5449C6.63411 18.4733 5.70964 18.2975 4.88281 18.0176C4.05599 17.7311 3.34635 17.3372 2.75391 16.8359C2.16146 16.3346 1.70573 15.7324 1.38672 15.0293C1.06771 14.3262 0.908203 13.5221 0.908203 12.6172C0.908203 11.7057 1.0612 10.9082 1.36719 10.2246C1.67318 9.54102 2.11589 8.95182 2.69531 8.45703C3.26172 7.98177 3.97135 7.60417 4.82422 7.32422C5.67708 7.03776 6.62109 6.85547 7.65625 6.77734V5.29297H11.3867V6.77734C12.4609 6.83594 13.4082 7.00195 14.2285 7.27539C15.0553 7.54232 15.7617 7.91992 16.3477 8.4082ZM14.2578 12.5586C14.2578 11.6211 14.0104 10.8594 13.5156 10.2734C13.0208 9.6875 12.3112 9.33268 11.3867 9.20898V16.123C12.4609 15.9342 13.2064 15.5534 13.623 14.9805C14.0462 14.401 14.2578 13.5938 14.2578 12.5586ZM7.65625 16.123V9.20898C6.70573 9.35221 5.98958 9.70378 5.50781 10.2637C5.02604 10.8171 4.78516 11.582 4.78516 12.5586C4.78516 13.5807 5 14.3848 5.42969 14.9707C5.86589 15.5501 6.60807 15.9342 7.65625 16.123ZM31.7871 20H28.3789V13.291L23.6133 20H20.7031V9.0332H24.1113V15.0391L28.5254 9.0332H31.7871V20ZM46.1914 20H42.6758V15.3223H38.6328V20H35.1172V9.0332H38.6328V12.8125H42.6758V9.0332H46.1914V20ZM56.1523 17.1387V14.8535C55.6771 14.8926 55.1628 14.9479 54.6094 15.0195C54.056 15.0846 53.6361 15.1628 53.3496 15.2539C52.998 15.3646 52.7279 15.5273 52.5391 15.7422C52.3568 15.9505 52.2656 16.2272 52.2656 16.5723C52.2656 16.8001 52.2852 16.9857 52.3242 17.1289C52.3633 17.2721 52.4609 17.4089 52.6172 17.5391C52.7669 17.6693 52.946 17.7669 53.1543 17.832C53.3626 17.8906 53.6882 17.9199 54.1309 17.9199C54.4824 17.9199 54.8372 17.8483 55.1953 17.7051C55.5599 17.5618 55.8789 17.373 56.1523 17.1387ZM56.1523 18.8379C55.9635 18.9811 55.7292 19.1536 55.4492 19.3555C55.1693 19.5573 54.9056 19.7168 54.6582 19.834C54.3132 19.9902 53.9551 20.1042 53.584 20.1758C53.2129 20.2539 52.806 20.293 52.3633 20.293C51.3216 20.293 50.4492 19.9707 49.7461 19.3262C49.043 18.6816 48.6914 17.8581 48.6914 16.8555C48.6914 16.0547 48.8704 15.4004 49.2285 14.8926C49.5866 14.3848 50.0944 13.9844 50.752 13.6914C51.403 13.3984 52.2103 13.1901 53.1738 13.0664C54.1374 12.9427 55.1367 12.8516 56.1719 12.793V12.7344C56.1719 12.1289 55.9245 11.7122 55.4297 11.4844C54.9349 11.25 54.2057 11.1328 53.2422 11.1328C52.6628 11.1328 52.0443 11.237 51.3867 11.4453C50.7292 11.6471 50.2572 11.8034 49.9707 11.9141H49.6484V9.26758C50.0195 9.16992 50.6217 9.05599 51.4551 8.92578C52.2949 8.78906 53.1348 8.7207 53.9746 8.7207C55.9733 8.7207 57.4154 9.02995 58.3008 9.64844C59.1927 10.2604 59.6387 11.224 59.6387 12.5391V20H56.1523V18.8379ZM73.9453 20H70.4297V15.3223H66.3867V20H62.8711V9.0332H66.3867V12.8125H70.4297V9.0332H73.9453V20ZM82.9785 20.293C82.0215 20.293 81.1458 20.179 80.3516 19.9512C79.5638 19.7233 78.877 19.3717 78.291 18.8965C77.7116 18.4212 77.2624 17.8223 76.9434 17.0996C76.6243 16.377 76.4648 15.5306 76.4648 14.5605C76.4648 13.5384 76.6341 12.6562 76.9727 11.9141C77.3177 11.1719 77.7962 10.5566 78.4082 10.0684C79.0007 9.60612 79.6842 9.26758 80.459 9.05273C81.2337 8.83789 82.0378 8.73047 82.8711 8.73047C83.6198 8.73047 84.3099 8.81185 84.9414 8.97461C85.5729 9.13737 86.1621 9.34896 86.709 9.60938V12.6074H86.2109C86.0742 12.4902 85.9082 12.3535 85.7129 12.1973C85.5241 12.041 85.2897 11.888 85.0098 11.7383C84.7428 11.5951 84.4499 11.4779 84.1309 11.3867C83.8118 11.2891 83.4408 11.2402 83.0176 11.2402C82.0801 11.2402 81.3574 11.5397 80.8496 12.1387C80.3483 12.7311 80.0977 13.5384 80.0977 14.5605C80.0977 15.6152 80.3548 16.416 80.8691 16.9629C81.39 17.5098 82.1257 17.7832 83.0762 17.7832C83.5189 17.7832 83.916 17.7344 84.2676 17.6367C84.6257 17.5326 84.9219 17.4121 85.1562 17.2754C85.3776 17.1452 85.5729 17.0085 85.7422 16.8652C85.9115 16.722 86.0677 16.582 86.2109 16.4453H86.709V19.4434C86.1556 19.7038 85.5762 19.9089 84.9707 20.0586C84.3717 20.2148 83.7077 20.293 82.9785 20.293ZM100.322 20H96.9141V13.291L92.1484 20H89.2383V9.0332H92.6465V15.0391L97.0605 9.0332H100.322V20ZM115.098 14.3652C115.098 15.2702 114.958 16.0938 114.678 16.8359C114.404 17.5781 114.043 18.1901 113.594 18.6719C113.125 19.1797 112.594 19.5638 112.002 19.8242C111.41 20.0846 110.775 20.2148 110.098 20.2148C109.473 20.2148 108.942 20.1465 108.506 20.0098C108.07 19.8796 107.624 19.694 107.168 19.4531V24.0234H103.652V9.0332H107.168V10.1758C107.708 9.74609 108.258 9.39779 108.818 9.13086C109.385 8.86393 110.036 8.73047 110.771 8.73047C112.139 8.73047 113.2 9.23177 113.955 10.2344C114.717 11.237 115.098 12.6139 115.098 14.3652ZM111.475 14.4336C111.475 13.3659 111.292 12.5911 110.928 12.1094C110.563 11.6276 109.987 11.3867 109.199 11.3867C108.867 11.3867 108.525 11.4388 108.174 11.543C107.822 11.6406 107.487 11.7839 107.168 11.9727V17.4902C107.402 17.5814 107.653 17.64 107.92 17.666C108.187 17.6921 108.451 17.7051 108.711 17.7051C109.642 17.7051 110.335 17.4349 110.791 16.8945C111.247 16.3477 111.475 15.5273 111.475 14.4336ZM128.848 14.5215C128.848 16.3249 128.32 17.7474 127.266 18.7891C126.217 19.8242 124.743 20.3418 122.842 20.3418C120.941 20.3418 119.463 19.8242 118.408 18.7891C117.36 17.7474 116.836 16.3249 116.836 14.5215C116.836 12.7051 117.363 11.2793 118.418 10.2441C119.479 9.20898 120.954 8.69141 122.842 8.69141C124.756 8.69141 126.234 9.21224 127.275 10.2539C128.324 11.2956 128.848 12.7181 128.848 14.5215ZM124.521 17.1875C124.749 16.9076 124.919 16.5723 125.029 16.1816C125.146 15.7845 125.205 15.2376 125.205 14.541C125.205 13.8965 125.146 13.3561 125.029 12.9199C124.912 12.4837 124.749 12.1354 124.541 11.875C124.333 11.6081 124.082 11.4193 123.789 11.3086C123.496 11.1979 123.18 11.1426 122.842 11.1426C122.503 11.1426 122.201 11.1882 121.934 11.2793C121.673 11.3704 121.423 11.5527 121.182 11.8262C120.967 12.0801 120.794 12.4284 120.664 12.8711C120.54 13.3138 120.479 13.8704 120.479 14.541C120.479 15.14 120.534 15.6608 120.645 16.1035C120.755 16.5397 120.918 16.8913 121.133 17.1582C121.341 17.4121 121.589 17.5977 121.875 17.7148C122.168 17.832 122.5 17.8906 122.871 17.8906C123.19 17.8906 123.493 17.8385 123.779 17.7344C124.072 17.6237 124.32 17.4414 124.521 17.1875ZM142.363 16.6895C142.363 17.2168 142.256 17.6855 142.041 18.0957C141.833 18.5059 141.553 18.8477 141.201 19.1211C140.758 19.4661 140.29 19.7005 139.795 19.8242C139.307 19.9414 138.724 20 138.047 20H131.367V9.0332H137.764C138.564 9.0332 139.154 9.05924 139.531 9.11133C139.909 9.16341 140.28 9.29036 140.645 9.49219C141.029 9.70052 141.315 9.97721 141.504 10.3223C141.699 10.6673 141.797 11.0775 141.797 11.5527C141.797 12.0931 141.641 12.5684 141.328 12.9785C141.022 13.3822 140.651 13.6914 140.215 13.9062V14.0137C140.82 14.1634 141.328 14.4661 141.738 14.9219C142.155 15.3711 142.363 15.9603 142.363 16.6895ZM138.252 12.334C138.252 11.9303 138.128 11.6439 137.881 11.4746C137.64 11.3053 137.249 11.2207 136.709 11.2207H134.854V13.4082H136.768C137.243 13.4082 137.607 13.3138 137.861 13.125C138.122 12.9297 138.252 12.666 138.252 12.334ZM138.74 16.582C138.74 16.1068 138.604 15.7747 138.33 15.5859C138.063 15.3906 137.666 15.293 137.139 15.293H134.854V17.8027H137.197C137.679 17.8027 138.057 17.6953 138.33 17.4805C138.604 17.2591 138.74 16.9596 138.74 16.582ZM151.562 17.1387V14.8535C151.087 14.8926 150.573 14.9479 150.02 15.0195C149.466 15.0846 149.046 15.1628 148.76 15.2539C148.408 15.3646 148.138 15.5273 147.949 15.7422C147.767 15.9505 147.676 16.2272 147.676 16.5723C147.676 16.8001 147.695 16.9857 147.734 17.1289C147.773 17.2721 147.871 17.4089 148.027 17.5391C148.177 17.6693 148.356 17.7669 148.564 17.832C148.773 17.8906 149.098 17.9199 149.541 17.9199C149.893 17.9199 150.247 17.8483 150.605 17.7051C150.97 17.5618 151.289 17.373 151.562 17.1387ZM151.562 18.8379C151.374 18.9811 151.139 19.1536 150.859 19.3555C150.579 19.5573 150.316 19.7168 150.068 19.834C149.723 19.9902 149.365 20.1042 148.994 20.1758C148.623 20.2539 148.216 20.293 147.773 20.293C146.732 20.293 145.859 19.9707 145.156 19.3262C144.453 18.6816 144.102 17.8581 144.102 16.8555C144.102 16.0547 144.281 15.4004 144.639 14.8926C144.997 14.3848 145.505 13.9844 146.162 13.6914C146.813 13.3984 147.62 13.1901 148.584 13.0664C149.548 12.9427 150.547 12.8516 151.582 12.793V12.7344C151.582 12.1289 151.335 11.7122 150.84 11.4844C150.345 11.25 149.616 11.1328 148.652 11.1328C148.073 11.1328 147.454 11.237 146.797 11.4453C146.139 11.6471 145.667 11.8034 145.381 11.9141H145.059V9.26758C145.43 9.16992 146.032 9.05599 146.865 8.92578C147.705 8.78906 148.545 8.7207 149.385 8.7207C151.383 8.7207 152.826 9.02995 153.711 9.64844C154.603 10.2604 155.049 11.224 155.049 12.5391V20H151.562V18.8379ZM169.355 20H165.84V15.3223H161.797V20H158.281V9.0332H161.797V12.8125H165.84V9.0332H169.355V20ZM183.76 20H180.352V13.291L175.586 20H172.676V9.0332H176.084V15.0391L180.498 9.0332H183.76V20ZM197.891 15.166H189.844C189.896 16.0254 190.221 16.6829 190.82 17.1387C191.426 17.5944 192.314 17.8223 193.486 17.8223C194.229 17.8223 194.948 17.6888 195.645 17.4219C196.341 17.1549 196.891 16.8685 197.295 16.5625H197.686V19.3848C196.891 19.7038 196.143 19.9349 195.439 20.0781C194.736 20.2214 193.958 20.293 193.105 20.293C190.905 20.293 189.219 19.7982 188.047 18.8086C186.875 17.819 186.289 16.4095 186.289 14.5801C186.289 12.7702 186.842 11.3379 187.949 10.2832C189.062 9.22201 190.586 8.69141 192.52 8.69141C194.303 8.69141 195.645 9.14388 196.543 10.0488C197.441 10.9473 197.891 12.2428 197.891 13.9355V15.166ZM194.395 13.1055C194.375 12.3698 194.193 11.8164 193.848 11.4453C193.503 11.0742 192.965 10.8887 192.236 10.8887C191.559 10.8887 191.003 11.0645 190.566 11.416C190.13 11.7676 189.886 12.3307 189.834 13.1055H194.395Z" fill="#333333"/>
<path d="M5 47L12.5 54.5L25 39.5" stroke="#61B857" stroke-width="2" stroke-linecap="round" stroke-linejoin="round"/>
<path d="M47.0508 49.3486C47.0508 49.8408 46.9528 50.2874 46.7568 50.6885C46.5654 51.0895 46.3079 51.4154 45.9844 51.666C45.6016 51.9668 45.1914 52.181 44.7539 52.3086C44.3164 52.4362 43.7513 52.5 43.0586 52.5H39.3672V42.3213H46.1826V43.5244H40.7207V46.3135H43.0996C43.7923 46.3135 44.3574 46.3545 44.7949 46.4365C45.2324 46.514 45.6449 46.7031 46.0322 47.0039C46.3786 47.2728 46.6338 47.6055 46.7979 48.002C46.9665 48.3984 47.0508 48.8473 47.0508 49.3486ZM45.6357 49.376C45.6357 49.0342 45.5788 48.7334 45.4648 48.4736C45.3509 48.2139 45.1732 48.0042 44.9316 47.8447C44.681 47.6761 44.3916 47.5736 44.0635 47.5371C43.7354 47.5007 43.2728 47.4824 42.6758 47.4824H40.7207V51.3447H42.6416C43.2477 51.3447 43.7126 51.3151 44.0361 51.2559C44.3643 51.1966 44.6514 51.0827 44.8975 50.9141C45.1527 50.7363 45.3395 50.529 45.458 50.292C45.5765 50.0505 45.6357 49.7451 45.6357 49.376ZM54.7959 52.5H53.5176V51.6865C53.4036 51.764 53.2487 51.8734 53.0527 52.0146C52.8613 52.1514 52.6745 52.2607 52.4922 52.3428C52.278 52.4476 52.0319 52.5342 51.7539 52.6025C51.4759 52.6755 51.1501 52.7119 50.7764 52.7119C50.0882 52.7119 49.5049 52.484 49.0264 52.0283C48.5479 51.5726 48.3086 50.9915 48.3086 50.2852C48.3086 49.7064 48.4316 49.2393 48.6777 48.8838C48.9284 48.5238 49.2839 48.2412 49.7441 48.0361C50.209 47.8311 50.7673 47.6921 51.4189 47.6191C52.0706 47.5462 52.7702 47.4915 53.5176 47.4551V47.2568C53.5176 46.9652 53.4652 46.7236 53.3604 46.5322C53.2601 46.3408 53.1143 46.1904 52.9229 46.0811C52.7406 45.9762 52.5218 45.9056 52.2666 45.8691C52.0114 45.8327 51.7448 45.8145 51.4668 45.8145C51.1296 45.8145 50.7536 45.86 50.3389 45.9512C49.9242 46.0378 49.4958 46.1654 49.0537 46.334H48.9854V45.0283C49.236 44.96 49.5983 44.8848 50.0723 44.8027C50.5462 44.7207 51.0133 44.6797 51.4736 44.6797C52.0114 44.6797 52.4785 44.7253 52.875 44.8164C53.276 44.903 53.6224 45.0534 53.9141 45.2676C54.2012 45.4772 54.4199 45.7484 54.5703 46.0811C54.7207 46.4137 54.7959 46.8262 54.7959 47.3184V52.5ZM53.5176 50.6201V48.4941C53.1257 48.5169 52.6631 48.5511 52.1299 48.5967C51.6012 48.6423 51.182 48.7083 50.8721 48.7949C50.5029 48.8997 50.2044 49.0638 49.9766 49.2871C49.7487 49.5059 49.6348 49.8089 49.6348 50.1963C49.6348 50.6338 49.7669 50.9642 50.0312 51.1875C50.2956 51.4062 50.6989 51.5156 51.2412 51.5156C51.6924 51.5156 52.1048 51.429 52.4785 51.2559C52.8522 51.0781 53.1986 50.8662 53.5176 50.6201ZM62.582 50.3604C62.582 50.7887 62.4818 51.151 62.2812 51.4473C62.0853 51.7435 61.8324 51.9827 61.5225 52.165C61.2126 52.3428 60.8708 52.4727 60.4971 52.5547C60.1234 52.6367 59.7497 52.6777 59.376 52.6777C58.8473 52.6777 58.3438 52.6276 57.8652 52.5273C57.3867 52.4271 56.915 52.2721 56.4502 52.0625V50.6543H56.5391C56.8717 50.946 57.2956 51.1715 57.8105 51.3311C58.3255 51.4906 58.8245 51.5703 59.3076 51.5703C59.5355 51.5703 59.7702 51.5498 60.0117 51.5088C60.2533 51.4632 60.4629 51.3926 60.6406 51.2969C60.832 51.1875 60.9847 51.0576 61.0986 50.9072C61.2126 50.7523 61.2695 50.5426 61.2695 50.2783C61.2695 50.0049 61.2126 49.7861 61.0986 49.6221C60.9893 49.458 60.8389 49.335 60.6475 49.2529C60.4606 49.1709 60.235 49.1208 59.9707 49.1025C59.7064 49.0843 59.4648 49.0752 59.2461 49.0752H58.1318V47.9678H58.9043C59.0866 47.9678 59.3236 47.9609 59.6152 47.9473C59.9115 47.9336 60.1507 47.8971 60.333 47.8379C60.57 47.7604 60.7568 47.651 60.8936 47.5098C61.0348 47.3685 61.1055 47.1429 61.1055 46.833C61.1055 46.6188 61.0508 46.4434 60.9414 46.3066C60.832 46.1654 60.6953 46.056 60.5312 45.9785C60.3626 45.901 60.1735 45.8486 59.9639 45.8213C59.7588 45.7939 59.5765 45.7803 59.417 45.7803C58.9521 45.7803 58.4941 45.8441 58.043 45.9717C57.5964 46.0947 57.2204 46.2747 56.915 46.5117H56.8262V45.0967C57.2044 44.9736 57.61 44.8734 58.043 44.7959C58.4759 44.7184 58.9089 44.6797 59.3418 44.6797C59.6973 44.6797 60.0505 44.7116 60.4014 44.7754C60.7568 44.8392 61.0872 44.9486 61.3926 45.1035C61.6934 45.2585 61.9395 45.4704 62.1309 45.7393C62.3223 46.0036 62.418 46.3317 62.418 46.7236C62.418 47.1247 62.2926 47.4779 62.042 47.7832C61.7959 48.084 61.4632 48.3005 61.0439 48.4326V48.4805C61.5133 48.5944 61.887 48.8086 62.165 49.123C62.443 49.4329 62.582 49.8454 62.582 50.3604ZM70.5459 52.5H69.2676V51.6865C69.1536 51.764 68.9987 51.8734 68.8027 52.0146C68.6113 52.1514 68.4245 52.2607 68.2422 52.3428C68.028 52.4476 67.7819 52.5342 67.5039 52.6025C67.2259 52.6755 66.9001 52.7119 66.5264 52.7119C65.8382 52.7119 65.2549 52.484 64.7764 52.0283C64.2979 51.5726 64.0586 50.9915 64.0586 50.2852C64.0586 49.7064 64.1816 49.2393 64.4277 48.8838C64.6784 48.5238 65.0339 48.2412 65.4941 48.0361C65.959 47.8311 66.5173 47.6921 67.1689 47.6191C67.8206 47.5462 68.5202 47.4915 69.2676 47.4551V47.2568C69.2676 46.9652 69.2152 46.7236 69.1104 46.5322C69.0101 46.3408 68.8643 46.1904 68.6729 46.0811C68.4906 45.9762 68.2718 45.9056 68.0166 45.8691C67.7614 45.8327 67.4948 45.8145 67.2168 45.8145C66.8796 45.8145 66.5036 45.86 66.0889 45.9512C65.6742 46.0378 65.2458 46.1654 64.8037 46.334H64.7354V45.0283C64.986 44.96 65.3483 44.8848 65.8223 44.8027C66.2962 44.7207 66.7633 44.6797 67.2236 44.6797C67.7614 44.6797 68.2285 44.7253 68.625 44.8164C69.026 44.903 69.3724 45.0534 69.6641 45.2676C69.9512 45.4772 70.1699 45.7484 70.3203 46.0811C70.4707 46.4137 70.5459 46.8262 70.5459 47.3184V52.5ZM69.2676 50.6201V48.4941C68.8757 48.5169 68.4131 48.5511 67.8799 48.5967C67.3512 48.6423 66.932 48.7083 66.6221 48.7949C66.2529 48.8997 65.9544 49.0638 65.7266 49.2871C65.4987 49.5059 65.3848 49.8089 65.3848 50.1963C65.3848 50.6338 65.5169 50.9642 65.7812 51.1875C66.0456 51.4062 66.4489 51.5156 66.9912 51.5156C67.4424 51.5156 67.8548 51.429 68.2285 51.2559C68.6022 51.0781 68.9486 50.8662 69.2676 50.6201ZM86.5078 54.8037H85.2227V52.4727H78.0312V54.8037H76.7461V51.2969H77.5664C78.1589 50.3216 78.6305 49.0501 78.9814 47.4824C79.3369 45.9102 79.5146 44.1898 79.5146 42.3213H85.5439V51.2969H86.5078V54.8037ZM84.1904 51.2969V43.4971H80.7861C80.7223 45.124 80.5218 46.6143 80.1846 47.9678C79.8473 49.3167 79.4098 50.4264 78.8721 51.2969H84.1904ZM94.3213 52.5H93.043V51.6865C92.929 51.764 92.7741 51.8734 92.5781 52.0146C92.3867 52.1514 92.1999 52.2607 92.0176 52.3428C91.8034 52.4476 91.5573 52.5342 91.2793 52.6025C91.0013 52.6755 90.6755 52.7119 90.3018 52.7119C89.6136 52.7119 89.0303 52.484 88.5518 52.0283C88.0732 51.5726 87.834 50.9915 87.834 50.2852C87.834 49.7064 87.957 49.2393 88.2031 48.8838C88.4538 48.5238 88.8092 48.2412 89.2695 48.0361C89.7344 47.8311 90.2926 47.6921 90.9443 47.6191C91.596 47.5462 92.2956 47.4915 93.043 47.4551V47.2568C93.043 46.9652 92.9906 46.7236 92.8857 46.5322C92.7855 46.3408 92.6396 46.1904 92.4482 46.0811C92.266 45.9762 92.0472 45.9056 91.792 45.8691C91.5368 45.8327 91.2702 45.8145 90.9922 45.8145C90.6549 45.8145 90.279 45.86 89.8643 45.9512C89.4495 46.0378 89.0212 46.1654 88.5791 46.334H88.5107V45.0283C88.7614 44.96 89.1237 44.8848 89.5977 44.8027C90.0716 44.7207 90.5387 44.6797 90.999 44.6797C91.5368 44.6797 92.0039 44.7253 92.4004 44.8164C92.8014 44.903 93.1478 45.0534 93.4395 45.2676C93.7266 45.4772 93.9453 45.7484 94.0957 46.0811C94.2461 46.4137 94.3213 46.8262 94.3213 47.3184V52.5ZM93.043 50.6201V48.4941C92.651 48.5169 92.1885 48.5511 91.6553 48.5967C91.1266 48.6423 90.7074 48.7083 90.3975 48.7949C90.0283 48.8997 89.7298 49.0638 89.502 49.2871C89.2741 49.5059 89.1602 49.8089 89.1602 50.1963C89.1602 50.6338 89.2923 50.9642 89.5566 51.1875C89.821 51.4062 90.2243 51.5156 90.7666 51.5156C91.2178 51.5156 91.6302 51.429 92.0039 51.2559C92.3776 51.0781 92.724 50.8662 93.043 50.6201ZM103.188 52.5H101.902V49.0615H98.0811V52.5H96.7959V44.8643H98.0811V47.9541H101.902V44.8643H103.188V52.5ZM112.115 52.5H110.83V49.0615H107.009V52.5H105.724V44.8643H107.009V47.9541H110.83V44.8643H112.115V52.5ZM119.354 50.1553C119.354 49.9229 119.313 49.7201 119.231 49.5469C119.154 49.3691 119.024 49.2256 118.842 49.1162C118.65 49.0023 118.432 48.9339 118.186 48.9111C117.944 48.8883 117.595 48.877 117.14 48.877H115.937V51.4746H117.112C117.568 51.4746 117.921 51.4564 118.172 51.4199C118.423 51.3789 118.639 51.3037 118.821 51.1943C119.008 51.0758 119.143 50.9368 119.225 50.7773C119.311 50.6133 119.354 50.4059 119.354 50.1553ZM120.681 50.1348C120.681 50.5039 120.605 50.8389 120.455 51.1396C120.309 51.4404 120.109 51.6842 119.854 51.8711C119.553 52.099 119.231 52.2607 118.89 52.3564C118.548 52.4521 118.108 52.5 117.57 52.5H114.651V44.8643H115.937V47.8379H117.604C118.179 47.8379 118.623 47.8675 118.938 47.9268C119.257 47.986 119.573 48.1318 119.888 48.3643C120.152 48.5602 120.35 48.8109 120.482 49.1162C120.615 49.4215 120.681 49.7611 120.681 50.1348ZM121.959 44.8643H123.244V52.5H121.959V44.8643ZM132.391 52.5H130.771L128.604 49.5674L126.423 52.5H124.926L127.906 48.6924L124.953 44.8643H126.573L128.727 47.749L130.887 44.8643H132.391L129.39 48.624L132.391 52.5Z" fill="#333333"/>
<path d="M5 85L12.5 92.5L25 77.5" stroke="#61B857" stroke-width="2" stroke-linecap="round" stroke-linejoin="round"/>
<path d="M48.7461 85.3389C48.7461 85.9769 48.6436 86.5443 48.4385 87.041C48.238 87.5332 47.9577 87.9456 47.5977 88.2783C47.2103 88.6383 46.7386 88.9255 46.1826 89.1396C45.6266 89.3493 45.0342 89.4609 44.4053 89.4746V90.6094H43.0586V89.4746C42.4479 89.4609 41.8623 89.3516 41.3018 89.1465C40.7412 88.9414 40.2627 88.652 39.8662 88.2783C39.5062 87.9411 39.2236 87.5264 39.0186 87.0342C38.818 86.542 38.7178 85.9769 38.7178 85.3389C38.7178 84.7191 38.8158 84.1768 39.0117 83.7119C39.2077 83.2471 39.4788 82.8415 39.8252 82.4951C40.1943 82.126 40.6546 81.8343 41.2061 81.6201C41.762 81.4059 42.3796 81.2897 43.0586 81.2715V80.2119H44.4053V81.2715C45.0798 81.2852 45.6973 81.4036 46.2578 81.627C46.8184 81.8503 47.2786 82.1396 47.6387 82.4951C47.9805 82.8278 48.2493 83.2311 48.4453 83.7051C48.6458 84.179 48.7461 84.7236 48.7461 85.3389ZM47.3379 85.2842C47.3379 84.833 47.265 84.4183 47.1191 84.04C46.9733 83.6618 46.766 83.3428 46.4971 83.083C46.2327 82.8278 45.9388 82.641 45.6152 82.5225C45.2917 82.404 44.8883 82.3402 44.4053 82.3311V88.415C44.8337 88.4059 45.2233 88.3376 45.5742 88.21C45.9251 88.0778 46.2145 87.9046 46.4424 87.6904C46.7386 87.417 46.9619 87.082 47.1123 86.6855C47.2627 86.2891 47.3379 85.8219 47.3379 85.2842ZM43.0586 88.415V82.3311C42.5755 82.3356 42.1722 82.3994 41.8486 82.5225C41.5251 82.6455 41.2311 82.8324 40.9668 83.083C40.7025 83.3337 40.4951 83.6527 40.3447 84.04C40.1989 84.4274 40.126 84.8421 40.126 85.2842C40.126 85.7946 40.2012 86.2572 40.3516 86.6719C40.5065 87.0866 40.7298 87.4261 41.0215 87.6904C41.2448 87.8955 41.5319 88.0664 41.8828 88.2031C42.2383 88.3398 42.6302 88.4105 43.0586 88.415ZM57.168 90.5H55.8965V84.7646L51.8975 90.5H50.7354V82.8643H52.0068V88.5176L55.9648 82.8643H57.168V90.5ZM66.0957 90.5H64.8105V87.0615H60.9893V90.5H59.7041V82.8643H60.9893V85.9541H64.8105V82.8643H66.0957V90.5ZM74.5654 90.5H73.2871V89.6865C73.1732 89.764 73.0182 89.8734 72.8223 90.0146C72.6309 90.1514 72.444 90.2607 72.2617 90.3428C72.0475 90.4476 71.8014 90.5342 71.5234 90.6025C71.2454 90.6755 70.9196 90.7119 70.5459 90.7119C69.8577 90.7119 69.2744 90.484 68.7959 90.0283C68.3174 89.5726 68.0781 88.9915 68.0781 88.2852C68.0781 87.7064 68.2012 87.2393 68.4473 86.8838C68.6979 86.5238 69.0534 86.2412 69.5137 86.0361C69.9785 85.8311 70.5368 85.6921 71.1885 85.6191C71.8402 85.5462 72.5397 85.4915 73.2871 85.4551V85.2568C73.2871 84.9652 73.2347 84.7236 73.1299 84.5322C73.0296 84.3408 72.8838 84.1904 72.6924 84.0811C72.5101 83.9762 72.2913 83.9056 72.0361 83.8691C71.7809 83.8327 71.5143 83.8145 71.2363 83.8145C70.8991 83.8145 70.5231 83.86 70.1084 83.9512C69.6937 84.0378 69.2653 84.1654 68.8232 84.334H68.7549V83.0283C69.0055 82.96 69.3678 82.8848 69.8418 82.8027C70.3158 82.7207 70.7829 82.6797 71.2432 82.6797C71.7809 82.6797 72.248 82.7253 72.6445 82.8164C73.0456 82.903 73.3919 83.0534 73.6836 83.2676C73.9707 83.4772 74.1895 83.7484 74.3398 84.0811C74.4902 84.4137 74.5654 84.8262 74.5654 85.3184V90.5ZM73.2871 88.6201V86.4941C72.8952 86.5169 72.4326 86.5511 71.8994 86.5967C71.3708 86.6423 70.9515 86.7083 70.6416 86.7949C70.2725 86.8997 69.974 87.0638 69.7461 87.2871C69.5182 87.5059 69.4043 87.8089 69.4043 88.1963C69.4043 88.6338 69.5365 88.9642 69.8008 89.1875C70.0651 89.4062 70.4684 89.5156 71.0107 89.5156C71.4619 89.5156 71.8743 89.429 72.248 89.2559C72.6217 89.0781 72.9681 88.8662 73.2871 88.6201ZM83.4316 90.5H82.1465V87.0615H78.3252V90.5H77.04V82.8643H78.3252V85.9541H82.1465V82.8643H83.4316V90.5ZM91.6826 90.0215C91.1585 90.2676 90.7074 90.4362 90.3291 90.5273C89.9554 90.623 89.5817 90.6709 89.208 90.6709C88.652 90.6709 88.1416 90.5911 87.6768 90.4316C87.2119 90.2676 86.8132 90.0215 86.4805 89.6934C86.1478 89.3652 85.888 88.9505 85.7012 88.4492C85.5189 87.9479 85.4277 87.3623 85.4277 86.6924C85.4277 85.4756 85.765 84.5049 86.4395 83.7803C87.1139 83.0511 88.0368 82.6865 89.208 82.6865C89.6501 82.6865 90.083 82.748 90.5068 82.8711C90.9352 82.9941 91.3271 83.1445 91.6826 83.3223V84.751H91.6074C91.1836 84.4274 90.7643 84.1882 90.3496 84.0332C89.9395 83.8783 89.5407 83.8008 89.1533 83.8008C88.3923 83.8008 87.8021 84.056 87.3828 84.5664C86.9681 85.0768 86.7607 85.7855 86.7607 86.6924C86.7607 87.5993 86.9681 88.3034 87.3828 88.8047C87.7975 89.306 88.3877 89.5566 89.1533 89.5566C89.4222 89.5566 89.6888 89.5225 89.9531 89.4541C90.222 89.3857 90.4658 89.2969 90.6846 89.1875C90.8577 89.1009 91.0355 88.9984 91.2178 88.8799C91.4046 88.7568 91.5345 88.6657 91.6074 88.6064H91.6826V90.0215ZM99.9541 86.6855C99.9541 87.9297 99.6351 88.9118 98.9971 89.6318C98.359 90.3519 97.5046 90.7119 96.4336 90.7119C95.3535 90.7119 94.4945 90.3519 93.8564 89.6318C93.223 88.9118 92.9062 87.9297 92.9062 86.6855C92.9062 85.4414 93.223 84.4593 93.8564 83.7393C94.4945 83.0146 95.3535 82.6523 96.4336 82.6523C97.5046 82.6523 98.359 83.0146 98.9971 83.7393C99.6351 84.4593 99.9541 85.4414 99.9541 86.6855ZM98.6279 86.6855C98.6279 85.6966 98.4342 84.9629 98.0469 84.4844C97.6595 84.0013 97.1217 83.7598 96.4336 83.7598C95.7363 83.7598 95.194 84.0013 94.8066 84.4844C94.4238 84.9629 94.2324 85.6966 94.2324 86.6855C94.2324 87.6426 94.4261 88.3695 94.8135 88.8662C95.2008 89.3584 95.7409 89.6045 96.4336 89.6045C97.1172 89.6045 97.6527 89.3607 98.04 88.873C98.432 88.3809 98.6279 87.6517 98.6279 86.6855ZM108.253 88.1895C108.253 88.5586 108.178 88.8867 108.027 89.1738C107.882 89.4609 107.679 89.7002 107.419 89.8916C107.127 90.1058 106.808 90.2607 106.462 90.3564C106.12 90.4521 105.669 90.5 105.108 90.5H101.95V82.8643H104.903C105.473 82.8643 105.901 82.8848 106.188 82.9258C106.48 82.9622 106.754 83.0465 107.009 83.1787C107.296 83.3291 107.506 83.5251 107.638 83.7666C107.774 84.0081 107.843 84.293 107.843 84.6211C107.843 84.9993 107.736 85.3275 107.521 85.6055C107.307 85.8835 107.032 86.0999 106.694 86.2549V86.3232C107.146 86.4326 107.517 86.6445 107.809 86.959C108.105 87.2689 108.253 87.679 108.253 88.1895ZM106.523 84.8193C106.523 84.6553 106.487 84.5072 106.414 84.375C106.346 84.2428 106.239 84.1403 106.093 84.0674C105.901 83.9717 105.685 83.9193 105.443 83.9102C105.206 83.8965 104.912 83.8896 104.562 83.8896H103.222V85.9814H104.828C105.165 85.9814 105.414 85.9701 105.573 85.9473C105.737 85.9199 105.901 85.8561 106.065 85.7559C106.239 85.6465 106.357 85.5189 106.421 85.373C106.489 85.2227 106.523 85.0381 106.523 84.8193ZM106.927 88.1963C106.927 87.9456 106.886 87.7428 106.804 87.5879C106.722 87.4284 106.542 87.2826 106.264 87.1504C106.09 87.0684 105.904 87.0205 105.703 87.0068C105.503 86.9886 105.225 86.9795 104.869 86.9795H103.222V89.4746H104.438C104.949 89.4746 105.341 89.4587 105.614 89.4268C105.892 89.3903 106.132 89.3151 106.332 89.2012C106.533 89.0872 106.681 88.9482 106.776 88.7842C106.877 88.6201 106.927 88.4242 106.927 88.1963ZM116.21 90.5H114.932V89.6865C114.818 89.764 114.663 89.8734 114.467 90.0146C114.275 90.1514 114.089 90.2607 113.906 90.3428C113.692 90.4476 113.446 90.5342 113.168 90.6025C112.89 90.6755 112.564 90.7119 112.19 90.7119C111.502 90.7119 110.919 90.484 110.44 90.0283C109.962 89.5726 109.723 88.9915 109.723 88.2852C109.723 87.7064 109.846 87.2393 110.092 86.8838C110.342 86.5238 110.698 86.2412 111.158 86.0361C111.623 85.8311 112.181 85.6921 112.833 85.6191C113.485 85.5462 114.184 85.4915 114.932 85.4551V85.2568C114.932 84.9652 114.879 84.7236 114.774 84.5322C114.674 84.3408 114.528 84.1904 114.337 84.0811C114.155 83.9762 113.936 83.9056 113.681 83.8691C113.425 83.8327 113.159 83.8145 112.881 83.8145C112.544 83.8145 112.168 83.86 111.753 83.9512C111.338 84.0378 110.91 84.1654 110.468 84.334H110.399V83.0283C110.65 82.96 111.012 82.8848 111.486 82.8027C111.96 82.7207 112.427 82.6797 112.888 82.6797C113.425 82.6797 113.893 82.7253 114.289 82.8164C114.69 82.903 115.036 83.0534 115.328 83.2676C115.615 83.4772 115.834 83.7484 115.984 84.0811C116.135 84.4137 116.21 84.8262 116.21 85.3184V90.5ZM114.932 88.6201V86.4941C114.54 86.5169 114.077 86.5511 113.544 86.5967C113.015 86.6423 112.596 86.7083 112.286 86.7949C111.917 86.8997 111.618 87.0638 111.391 87.2871C111.163 87.5059 111.049 87.8089 111.049 88.1963C111.049 88.6338 111.181 88.9642 111.445 89.1875C111.71 89.4062 112.113 89.5156 112.655 89.5156C113.106 89.5156 113.519 89.429 113.893 89.2559C114.266 89.0781 114.613 88.8662 114.932 88.6201ZM124.55 90.5H123.265V87.4717H121.754L119.389 90.5H117.878L120.448 87.3486C119.787 87.1663 119.304 86.8883 118.999 86.5146C118.694 86.1364 118.541 85.6419 118.541 85.0312C118.541 84.6257 118.632 84.2816 118.814 83.999C118.997 83.7165 119.227 83.4863 119.505 83.3086C119.778 83.1354 120.093 83.0192 120.448 82.96C120.804 82.8962 121.191 82.8643 121.61 82.8643H124.55V90.5ZM123.265 86.46V83.8896H121.645C121.294 83.8896 121.041 83.901 120.886 83.9238C120.731 83.9466 120.562 84.0081 120.38 84.1084C120.202 84.2087 120.07 84.3454 119.983 84.5186C119.901 84.6872 119.86 84.8717 119.86 85.0723C119.86 85.3229 119.885 85.5257 119.936 85.6807C119.99 85.8356 120.1 85.9814 120.264 86.1182C120.432 86.2503 120.637 86.3415 120.879 86.3916C121.12 86.4372 121.389 86.46 121.686 86.46H123.265ZM140.286 90.5H138.55L134.414 85.8584H133.491V90.5H132.138V80.3213H133.491V84.8877C133.724 84.8831 133.942 84.8604 134.147 84.8193C134.353 84.7783 134.546 84.7008 134.729 84.5869C134.911 84.4821 135.091 84.334 135.269 84.1426C135.446 83.9466 135.604 83.7074 135.74 83.4248C135.799 83.3018 135.868 83.1468 135.945 82.96C136.027 82.7731 136.109 82.5771 136.191 82.3721C136.506 81.6156 136.873 81.0846 137.292 80.7793C137.716 80.474 138.338 80.3213 139.158 80.3213H139.698V81.5312H139.131C138.816 81.5312 138.57 81.5609 138.393 81.6201C138.215 81.6748 138.055 81.7682 137.914 81.9004C137.782 82.0189 137.666 82.1784 137.565 82.3789C137.47 82.5794 137.369 82.8141 137.265 83.083C137.028 83.6846 136.786 84.1266 136.54 84.4092C136.299 84.6917 135.973 84.9378 135.562 85.1475L140.286 90.5ZM148.216 86.6855C148.216 87.9297 147.897 88.9118 147.259 89.6318C146.621 90.3519 145.766 90.7119 144.695 90.7119C143.615 90.7119 142.756 90.3519 142.118 89.6318C141.485 88.9118 141.168 87.9297 141.168 86.6855C141.168 85.4414 141.485 84.4593 142.118 83.7393C142.756 83.0146 143.615 82.6523 144.695 82.6523C145.766 82.6523 146.621 83.0146 147.259 83.7393C147.897 84.4593 148.216 85.4414 148.216 86.6855ZM146.89 86.6855C146.89 85.6966 146.696 84.9629 146.309 84.4844C145.921 84.0013 145.383 83.7598 144.695 83.7598C143.998 83.7598 143.456 84.0013 143.068 84.4844C142.686 84.9629 142.494 85.6966 142.494 86.6855C142.494 87.6426 142.688 88.3695 143.075 88.8662C143.463 89.3584 144.003 89.6045 144.695 89.6045C145.379 89.6045 145.914 89.3607 146.302 88.873C146.694 88.3809 146.89 87.6517 146.89 86.6855ZM156.604 90.5H155.318V87.0615H151.497V90.5H150.212V82.8643H151.497V85.9541H155.318V82.8643H156.604V90.5ZM164.854 90.0215C164.33 90.2676 163.879 90.4362 163.501 90.5273C163.127 90.623 162.754 90.6709 162.38 90.6709C161.824 90.6709 161.313 90.5911 160.849 90.4316C160.384 90.2676 159.985 90.0215 159.652 89.6934C159.32 89.3652 159.06 88.9505 158.873 88.4492C158.691 87.9479 158.6 87.3623 158.6 86.6924C158.6 85.4756 158.937 84.5049 159.611 83.7803C160.286 83.0511 161.209 82.6865 162.38 82.6865C162.822 82.6865 163.255 82.748 163.679 82.8711C164.107 82.9941 164.499 83.1445 164.854 83.3223V84.751H164.779C164.355 84.4274 163.936 84.1882 163.521 84.0332C163.111 83.8783 162.713 83.8008 162.325 83.8008C161.564 83.8008 160.974 84.056 160.555 84.5664C160.14 85.0768 159.933 85.7855 159.933 86.6924C159.933 87.5993 160.14 88.3034 160.555 88.8047C160.969 89.306 161.56 89.5566 162.325 89.5566C162.594 89.5566 162.861 89.5225 163.125 89.4541C163.394 89.3857 163.638 89.2969 163.856 89.1875C164.03 89.1009 164.207 88.9984 164.39 88.8799C164.576 88.7568 164.706 88.6657 164.779 88.6064H164.854V90.0215ZM173.222 82.8643L168.765 93.3164H167.391L168.812 90.1309L165.771 82.8643H167.165L169.51 88.5244L171.875 82.8643H173.222ZM181.062 90.5H179.777V83.9443H176.927C176.913 84.3226 176.899 84.6872 176.886 85.0381C176.872 85.389 176.858 85.7057 176.845 85.9883C176.813 86.7493 176.76 87.3577 176.688 87.8135C176.615 88.2646 176.519 88.6406 176.4 88.9414C176.291 89.224 176.168 89.4541 176.031 89.6318C175.899 89.805 175.756 89.9622 175.601 90.1035C175.446 90.2402 175.272 90.3428 175.081 90.4111C174.894 90.4795 174.689 90.5137 174.466 90.5137C174.388 90.5137 174.274 90.5114 174.124 90.5068C173.978 90.5023 173.882 90.5 173.837 90.5V89.3789H173.905C173.942 89.3789 173.994 89.3812 174.062 89.3857C174.131 89.3903 174.188 89.3926 174.233 89.3926C174.343 89.3926 174.454 89.3766 174.568 89.3447C174.687 89.3128 174.787 89.2536 174.869 89.167C175.102 88.9391 175.288 88.554 175.43 88.0117C175.571 87.4694 175.664 86.6855 175.71 85.6602C175.728 85.2865 175.744 84.8444 175.758 84.334C175.776 83.819 175.792 83.3291 175.806 82.8643H181.062V90.5ZM188.37 88.1553C188.37 87.9229 188.329 87.7201 188.247 87.5469C188.17 87.3691 188.04 87.2256 187.857 87.1162C187.666 87.0023 187.447 86.9339 187.201 86.9111C186.96 86.8883 186.611 86.877 186.155 86.877H184.884V89.4746H186.128C186.584 89.4746 186.937 89.4564 187.188 89.4199C187.438 89.3789 187.655 89.3037 187.837 89.1943C188.024 89.0758 188.158 88.9368 188.24 88.7773C188.327 88.6133 188.37 88.4059 188.37 88.1553ZM189.696 88.1348C189.696 88.5039 189.621 88.8389 189.471 89.1396C189.325 89.4404 189.124 89.6842 188.869 89.8711C188.568 90.099 188.247 90.2607 187.905 90.3564C187.563 90.4521 187.124 90.5 186.586 90.5H183.599V82.8643H184.884V85.8379H186.62C187.194 85.8379 187.639 85.8675 187.953 85.9268C188.272 85.986 188.589 86.1318 188.903 86.3643C189.168 86.5602 189.366 86.8109 189.498 87.1162C189.63 87.4215 189.696 87.7611 189.696 88.1348ZM197.209 83.9922H194.447V90.5H193.162V83.9922H190.4V82.8643H197.209V83.9922ZM204.476 90.5H203.197V89.6865C203.083 89.764 202.928 89.8734 202.732 90.0146C202.541 90.1514 202.354 90.2607 202.172 90.3428C201.958 90.4476 201.712 90.5342 201.434 90.6025C201.156 90.6755 200.83 90.7119 200.456 90.7119C199.768 90.7119 199.185 90.484 198.706 90.0283C198.228 89.5726 197.988 88.9915 197.988 88.2852C197.988 87.7064 198.111 87.2393 198.357 86.8838C198.608 86.5238 198.964 86.2412 199.424 86.0361C199.889 85.8311 200.447 85.6921 201.099 85.6191C201.75 85.5462 202.45 85.4915 203.197 85.4551V85.2568C203.197 84.9652 203.145 84.7236 203.04 84.5322C202.94 84.3408 202.794 84.1904 202.603 84.0811C202.42 83.9762 202.201 83.9056 201.946 83.8691C201.691 83.8327 201.424 83.8145 201.146 83.8145C200.809 83.8145 200.433 83.86 200.019 83.9512C199.604 84.0378 199.175 84.1654 198.733 84.334H198.665V83.0283C198.916 82.96 199.278 82.8848 199.752 82.8027C200.226 82.7207 200.693 82.6797 201.153 82.6797C201.691 82.6797 202.158 82.7253 202.555 82.8164C202.956 82.903 203.302 83.0534 203.594 83.2676C203.881 83.4772 204.1 83.7484 204.25 84.0811C204.4 84.4137 204.476 84.8262 204.476 85.3184V90.5ZM203.197 88.6201V86.4941C202.805 86.5169 202.343 86.5511 201.81 86.5967C201.281 86.6423 200.862 86.7083 200.552 86.7949C200.183 86.8997 199.884 87.0638 199.656 87.2871C199.428 87.5059 199.314 87.8089 199.314 88.1963C199.314 88.6338 199.447 88.9642 199.711 89.1875C199.975 89.4062 200.379 89.5156 200.921 89.5156C201.372 89.5156 201.785 89.429 202.158 89.2559C202.532 89.0781 202.878 88.8662 203.197 88.6201ZM213.007 90.5H206.95V82.8643H208.235V89.3926H211.995V82.8643H213.28V89.3926H214.203V92.332H213.007V90.5ZM222.406 90.5H221.135V84.7646L217.136 90.5H215.974V82.8643H217.245V88.5176L221.203 82.8643H222.406V90.5ZM230.808 90.5H229.522V87.4717H228.012L225.646 90.5H224.136L226.706 87.3486C226.045 87.1663 225.562 86.8883 225.257 86.5146C224.951 86.1364 224.799 85.6419 224.799 85.0312C224.799 84.6257 224.89 84.2816 225.072 83.999C225.255 83.7165 225.485 83.4863 225.763 83.3086C226.036 83.1354 226.351 83.0192 226.706 82.96C227.062 82.8962 227.449 82.8643 227.868 82.8643H230.808V90.5ZM229.522 86.46V83.8896H227.902C227.551 83.8896 227.299 83.901 227.144 83.9238C226.989 83.9466 226.82 84.0081 226.638 84.1084C226.46 84.2087 226.328 84.3454 226.241 84.5186C226.159 84.6872 226.118 84.8717 226.118 85.0723C226.118 85.3229 226.143 85.5257 226.193 85.6807C226.248 85.8356 226.357 85.9814 226.521 86.1182C226.69 86.2503 226.895 86.3415 227.137 86.3916C227.378 86.4372 227.647 86.46 227.943 86.46H229.522Z" fill="#333333"/>
<path d="M5 123L12.5 130.5L25 115.5" stroke="#61B857" stroke-width="2" stroke-linecap="round" stroke-linejoin="round"/>
<path d="M47.5498 122H45.8135L41.6777 117.358H40.7549V122H39.4014V111.821H40.7549V116.388C40.9873 116.383 41.2061 116.36 41.4111 116.319C41.6162 116.278 41.8099 116.201 41.9922 116.087C42.1745 115.982 42.3545 115.834 42.5322 115.643C42.71 115.447 42.8672 115.207 43.0039 114.925C43.0632 114.802 43.1315 114.647 43.209 114.46C43.291 114.273 43.373 114.077 43.4551 113.872C43.7695 113.116 44.1364 112.585 44.5557 112.279C44.9795 111.974 45.6016 111.821 46.4219 111.821H46.9619V113.031H46.3945C46.0801 113.031 45.834 113.061 45.6562 113.12C45.4785 113.175 45.319 113.268 45.1777 113.4C45.0456 113.519 44.9294 113.678 44.8291 113.879C44.7334 114.079 44.6331 114.314 44.5283 114.583C44.2913 115.185 44.0498 115.627 43.8037 115.909C43.5622 116.192 43.2363 116.438 42.8262 116.647L47.5498 122ZM55.5752 114.364L51.1182 124.816H49.7441L51.166 121.631L48.124 114.364H49.5186L51.8633 120.024L54.2285 114.364H55.5752ZM63.9766 118.09C63.9766 118.71 63.8877 119.277 63.71 119.792C63.5322 120.302 63.2816 120.735 62.958 121.091C62.6572 121.428 62.3018 121.69 61.8916 121.877C61.486 122.059 61.0553 122.15 60.5996 122.15C60.2031 122.15 59.8431 122.107 59.5195 122.021C59.2005 121.934 58.8747 121.799 58.542 121.617V124.816H57.2568V114.364H58.542V115.164C58.8838 114.877 59.2666 114.638 59.6904 114.446C60.1188 114.25 60.5745 114.152 61.0576 114.152C61.9782 114.152 62.6937 114.501 63.2041 115.198C63.7191 115.891 63.9766 116.855 63.9766 118.09ZM62.6504 118.124C62.6504 117.203 62.4932 116.515 62.1787 116.06C61.8643 115.604 61.3812 115.376 60.7295 115.376C60.3604 115.376 59.9889 115.456 59.6152 115.615C59.2415 115.775 58.8838 115.984 58.542 116.244V120.571C58.9066 120.735 59.2188 120.847 59.4785 120.906C59.7428 120.965 60.0413 120.995 60.374 120.995C61.0895 120.995 61.6478 120.754 62.0488 120.271C62.4499 119.787 62.6504 119.072 62.6504 118.124ZM71.6943 121.521C71.1702 121.768 70.7191 121.936 70.3408 122.027C69.9671 122.123 69.5934 122.171 69.2197 122.171C68.6637 122.171 68.1533 122.091 67.6885 121.932C67.2236 121.768 66.8249 121.521 66.4922 121.193C66.1595 120.865 65.8997 120.451 65.7129 119.949C65.5306 119.448 65.4395 118.862 65.4395 118.192C65.4395 116.976 65.7767 116.005 66.4512 115.28C67.1257 114.551 68.0485 114.187 69.2197 114.187C69.6618 114.187 70.0947 114.248 70.5186 114.371C70.9469 114.494 71.3389 114.645 71.6943 114.822V116.251H71.6191C71.1953 115.927 70.776 115.688 70.3613 115.533C69.9512 115.378 69.5524 115.301 69.165 115.301C68.404 115.301 67.8138 115.556 67.3945 116.066C66.9798 116.577 66.7725 117.285 66.7725 118.192C66.7725 119.099 66.9798 119.803 67.3945 120.305C67.8092 120.806 68.3994 121.057 69.165 121.057C69.4339 121.057 69.7005 121.022 69.9648 120.954C70.2337 120.886 70.4775 120.797 70.6963 120.688C70.8695 120.601 71.0472 120.498 71.2295 120.38C71.4163 120.257 71.5462 120.166 71.6191 120.106H71.6943V121.521ZM78.1611 119.655C78.1611 119.423 78.1201 119.22 78.0381 119.047C77.9606 118.869 77.8307 118.726 77.6484 118.616C77.457 118.502 77.2383 118.434 76.9922 118.411C76.7507 118.388 76.402 118.377 75.9463 118.377H74.7432V120.975H75.9189C76.3747 120.975 76.7279 120.956 76.9785 120.92C77.2292 120.879 77.4456 120.804 77.6279 120.694C77.8148 120.576 77.9492 120.437 78.0312 120.277C78.1178 120.113 78.1611 119.906 78.1611 119.655ZM79.4873 119.635C79.4873 120.004 79.4121 120.339 79.2617 120.64C79.1159 120.94 78.9154 121.184 78.6602 121.371C78.3594 121.599 78.0381 121.761 77.6963 121.856C77.3545 121.952 76.9147 122 76.377 122H73.458V114.364H74.7432V117.338H76.4111C76.9854 117.338 77.4297 117.368 77.7441 117.427C78.0632 117.486 78.3799 117.632 78.6943 117.864C78.9587 118.06 79.1569 118.311 79.2891 118.616C79.4212 118.922 79.4873 119.261 79.4873 119.635ZM80.7656 114.364H82.0508V122H80.7656V114.364ZM98.9902 116.839C98.9902 117.477 98.8877 118.044 98.6826 118.541C98.4821 119.033 98.2018 119.446 97.8418 119.778C97.4544 120.138 96.9827 120.425 96.4268 120.64C95.8708 120.849 95.2783 120.961 94.6494 120.975V122.109H93.3027V120.975C92.6921 120.961 92.1064 120.852 91.5459 120.646C90.9854 120.441 90.5068 120.152 90.1104 119.778C89.7503 119.441 89.4678 119.026 89.2627 118.534C89.0622 118.042 88.9619 117.477 88.9619 116.839C88.9619 116.219 89.0599 115.677 89.2559 115.212C89.4518 114.747 89.723 114.341 90.0693 113.995C90.4385 113.626 90.8988 113.334 91.4502 113.12C92.0062 112.906 92.6237 112.79 93.3027 112.771V111.712H94.6494V112.771C95.3239 112.785 95.9414 112.904 96.502 113.127C97.0625 113.35 97.5228 113.64 97.8828 113.995C98.2246 114.328 98.4935 114.731 98.6895 115.205C98.89 115.679 98.9902 116.224 98.9902 116.839ZM97.582 116.784C97.582 116.333 97.5091 115.918 97.3633 115.54C97.2174 115.162 97.0101 114.843 96.7412 114.583C96.4769 114.328 96.1829 114.141 95.8594 114.022C95.5358 113.904 95.1325 113.84 94.6494 113.831V119.915C95.0778 119.906 95.4674 119.838 95.8184 119.71C96.1693 119.578 96.4587 119.405 96.6865 119.19C96.9827 118.917 97.2061 118.582 97.3564 118.186C97.5068 117.789 97.582 117.322 97.582 116.784ZM93.3027 119.915V113.831C92.8197 113.836 92.4163 113.899 92.0928 114.022C91.7692 114.146 91.4753 114.332 91.2109 114.583C90.9466 114.834 90.7393 115.153 90.5889 115.54C90.443 115.927 90.3701 116.342 90.3701 116.784C90.3701 117.295 90.4453 117.757 90.5957 118.172C90.7507 118.587 90.974 118.926 91.2656 119.19C91.4889 119.396 91.776 119.566 92.127 119.703C92.4824 119.84 92.8743 119.91 93.3027 119.915ZM107.412 122H106.141V116.265L102.142 122H100.979V114.364H102.251V120.018L106.209 114.364H107.412V122ZM116.34 122H115.055V118.562H111.233V122H109.948V114.364H111.233V117.454H115.055V114.364H116.34V122ZM124.81 122H123.531V121.187C123.417 121.264 123.262 121.373 123.066 121.515C122.875 121.651 122.688 121.761 122.506 121.843C122.292 121.948 122.046 122.034 121.768 122.103C121.49 122.175 121.164 122.212 120.79 122.212C120.102 122.212 119.519 121.984 119.04 121.528C118.562 121.073 118.322 120.492 118.322 119.785C118.322 119.206 118.445 118.739 118.691 118.384C118.942 118.024 119.298 117.741 119.758 117.536C120.223 117.331 120.781 117.192 121.433 117.119C122.084 117.046 122.784 116.992 123.531 116.955V116.757C123.531 116.465 123.479 116.224 123.374 116.032C123.274 115.841 123.128 115.69 122.937 115.581C122.754 115.476 122.535 115.406 122.28 115.369C122.025 115.333 121.758 115.314 121.48 115.314C121.143 115.314 120.767 115.36 120.353 115.451C119.938 115.538 119.509 115.665 119.067 115.834H118.999V114.528C119.25 114.46 119.612 114.385 120.086 114.303C120.56 114.221 121.027 114.18 121.487 114.18C122.025 114.18 122.492 114.225 122.889 114.316C123.29 114.403 123.636 114.553 123.928 114.768C124.215 114.977 124.434 115.248 124.584 115.581C124.734 115.914 124.81 116.326 124.81 116.818V122ZM123.531 120.12V117.994C123.139 118.017 122.677 118.051 122.144 118.097C121.615 118.142 121.196 118.208 120.886 118.295C120.517 118.4 120.218 118.564 119.99 118.787C119.762 119.006 119.648 119.309 119.648 119.696C119.648 120.134 119.781 120.464 120.045 120.688C120.309 120.906 120.713 121.016 121.255 121.016C121.706 121.016 122.118 120.929 122.492 120.756C122.866 120.578 123.212 120.366 123.531 120.12ZM133.676 122H132.391V118.562H128.569V122H127.284V114.364H128.569V117.454H132.391V114.364H133.676V122ZM141.927 121.521C141.403 121.768 140.951 121.936 140.573 122.027C140.2 122.123 139.826 122.171 139.452 122.171C138.896 122.171 138.386 122.091 137.921 121.932C137.456 121.768 137.057 121.521 136.725 121.193C136.392 120.865 136.132 120.451 135.945 119.949C135.763 119.448 135.672 118.862 135.672 118.192C135.672 116.976 136.009 116.005 136.684 115.28C137.358 114.551 138.281 114.187 139.452 114.187C139.894 114.187 140.327 114.248 140.751 114.371C141.179 114.494 141.571 114.645 141.927 114.822V116.251H141.852C141.428 115.927 141.008 115.688 140.594 115.533C140.184 115.378 139.785 115.301 139.397 115.301C138.636 115.301 138.046 115.556 137.627 116.066C137.212 116.577 137.005 117.285 137.005 118.192C137.005 119.099 137.212 119.803 137.627 120.305C138.042 120.806 138.632 121.057 139.397 121.057C139.666 121.057 139.933 121.022 140.197 120.954C140.466 120.886 140.71 120.797 140.929 120.688C141.102 120.601 141.28 120.498 141.462 120.38C141.649 120.257 141.779 120.166 141.852 120.106H141.927V121.521ZM150.198 118.186C150.198 119.43 149.879 120.412 149.241 121.132C148.603 121.852 147.749 122.212 146.678 122.212C145.598 122.212 144.739 121.852 144.101 121.132C143.467 120.412 143.15 119.43 143.15 118.186C143.15 116.941 143.467 115.959 144.101 115.239C144.739 114.515 145.598 114.152 146.678 114.152C147.749 114.152 148.603 114.515 149.241 115.239C149.879 115.959 150.198 116.941 150.198 118.186ZM148.872 118.186C148.872 117.197 148.678 116.463 148.291 115.984C147.904 115.501 147.366 115.26 146.678 115.26C145.98 115.26 145.438 115.501 145.051 115.984C144.668 116.463 144.477 117.197 144.477 118.186C144.477 119.143 144.67 119.869 145.058 120.366C145.445 120.858 145.985 121.104 146.678 121.104C147.361 121.104 147.897 120.861 148.284 120.373C148.676 119.881 148.872 119.152 148.872 118.186ZM158.497 119.689C158.497 120.059 158.422 120.387 158.271 120.674C158.126 120.961 157.923 121.2 157.663 121.392C157.371 121.606 157.052 121.761 156.706 121.856C156.364 121.952 155.913 122 155.353 122H152.194V114.364H155.147C155.717 114.364 156.146 114.385 156.433 114.426C156.724 114.462 156.998 114.547 157.253 114.679C157.54 114.829 157.75 115.025 157.882 115.267C158.019 115.508 158.087 115.793 158.087 116.121C158.087 116.499 157.98 116.827 157.766 117.105C157.551 117.383 157.276 117.6 156.938 117.755V117.823C157.39 117.933 157.761 118.145 158.053 118.459C158.349 118.769 158.497 119.179 158.497 119.689ZM156.768 116.319C156.768 116.155 156.731 116.007 156.658 115.875C156.59 115.743 156.483 115.64 156.337 115.567C156.146 115.472 155.929 115.419 155.688 115.41C155.451 115.396 155.157 115.39 154.806 115.39H153.466V117.481H155.072C155.41 117.481 155.658 117.47 155.817 117.447C155.981 117.42 156.146 117.356 156.31 117.256C156.483 117.146 156.601 117.019 156.665 116.873C156.733 116.723 156.768 116.538 156.768 116.319ZM157.171 119.696C157.171 119.446 157.13 119.243 157.048 119.088C156.966 118.928 156.786 118.783 156.508 118.65C156.335 118.568 156.148 118.521 155.947 118.507C155.747 118.489 155.469 118.479 155.113 118.479H153.466V120.975H154.683C155.193 120.975 155.585 120.959 155.858 120.927C156.136 120.89 156.376 120.815 156.576 120.701C156.777 120.587 156.925 120.448 157.021 120.284C157.121 120.12 157.171 119.924 157.171 119.696ZM167.028 118.186C167.028 119.43 166.709 120.412 166.071 121.132C165.433 121.852 164.579 122.212 163.508 122.212C162.428 122.212 161.569 121.852 160.931 121.132C160.297 120.412 159.98 119.43 159.98 118.186C159.98 116.941 160.297 115.959 160.931 115.239C161.569 114.515 162.428 114.152 163.508 114.152C164.579 114.152 165.433 114.515 166.071 115.239C166.709 115.959 167.028 116.941 167.028 118.186ZM165.702 118.186C165.702 117.197 165.508 116.463 165.121 115.984C164.734 115.501 164.196 115.26 163.508 115.26C162.811 115.26 162.268 115.501 161.881 115.984C161.498 116.463 161.307 117.197 161.307 118.186C161.307 119.143 161.5 119.869 161.888 120.366C162.275 120.858 162.815 121.104 163.508 121.104C164.191 121.104 164.727 120.861 165.114 120.373C165.506 119.881 165.702 119.152 165.702 118.186ZM175.457 122H174.186V116.265L170.187 122H169.024V114.364H170.296V120.018L174.254 114.364H175.457V122ZM174.726 111.356C174.703 112.031 174.489 112.557 174.083 112.936C173.682 113.314 173.096 113.503 172.326 113.503C171.556 113.503 170.968 113.314 170.562 112.936C170.161 112.557 169.95 112.031 169.927 111.356H171.096C171.1 111.835 171.205 112.181 171.41 112.396C171.62 112.61 171.925 112.717 172.326 112.717C172.732 112.717 173.037 112.612 173.242 112.402C173.447 112.193 173.552 111.844 173.557 111.356H174.726ZM45.9434 130.024H40.7207V139H39.3672V128.821H45.9434V130.024ZM53.9141 135.09C53.9141 135.71 53.8252 136.277 53.6475 136.792C53.4697 137.302 53.2191 137.735 52.8955 138.091C52.5947 138.428 52.2393 138.69 51.8291 138.877C51.4235 139.059 50.9928 139.15 50.5371 139.15C50.1406 139.15 49.7806 139.107 49.457 139.021C49.138 138.934 48.8122 138.799 48.4795 138.617V141.816H47.1943V131.364H48.4795V132.164C48.8213 131.877 49.2041 131.638 49.6279 131.446C50.0563 131.25 50.512 131.152 50.9951 131.152C51.9157 131.152 52.6312 131.501 53.1416 132.198C53.6566 132.891 53.9141 133.855 53.9141 135.09ZM52.5879 135.124C52.5879 134.203 52.4307 133.515 52.1162 133.06C51.8018 132.604 51.3187 132.376 50.667 132.376C50.2979 132.376 49.9264 132.456 49.5527 132.615C49.179 132.775 48.8213 132.984 48.4795 133.244V137.571C48.8441 137.735 49.1562 137.847 49.416 137.906C49.6803 137.965 49.9788 137.995 50.3115 137.995C51.027 137.995 51.5853 137.754 51.9863 137.271C52.3874 136.787 52.5879 136.072 52.5879 135.124ZM61.8506 139H60.5723V138.187C60.4583 138.264 60.3034 138.373 60.1074 138.515C59.916 138.651 59.7292 138.761 59.5469 138.843C59.3327 138.948 59.0866 139.034 58.8086 139.103C58.5306 139.175 58.2048 139.212 57.8311 139.212C57.1429 139.212 56.5596 138.984 56.0811 138.528C55.6025 138.073 55.3633 137.492 55.3633 136.785C55.3633 136.206 55.4863 135.739 55.7324 135.384C55.9831 135.024 56.3385 134.741 56.7988 134.536C57.2637 134.331 57.8219 134.192 58.4736 134.119C59.1253 134.046 59.8249 133.992 60.5723 133.955V133.757C60.5723 133.465 60.5199 133.224 60.415 133.032C60.3148 132.841 60.1689 132.69 59.9775 132.581C59.7952 132.476 59.5765 132.406 59.3213 132.369C59.0661 132.333 58.7995 132.314 58.5215 132.314C58.1842 132.314 57.8083 132.36 57.3936 132.451C56.9788 132.538 56.5505 132.665 56.1084 132.834H56.04V131.528C56.2907 131.46 56.653 131.385 57.127 131.303C57.6009 131.221 58.068 131.18 58.5283 131.18C59.0661 131.18 59.5332 131.225 59.9297 131.316C60.3307 131.403 60.6771 131.553 60.9688 131.768C61.2559 131.977 61.4746 132.248 61.625 132.581C61.7754 132.914 61.8506 133.326 61.8506 133.818V139ZM60.5723 137.12V134.994C60.1803 135.017 59.7178 135.051 59.1846 135.097C58.6559 135.142 58.2367 135.208 57.9268 135.295C57.5576 135.4 57.2591 135.564 57.0312 135.787C56.8034 136.006 56.6895 136.309 56.6895 136.696C56.6895 137.134 56.8216 137.464 57.0859 137.688C57.3503 137.906 57.7536 138.016 58.2959 138.016C58.7471 138.016 59.1595 137.929 59.5332 137.756C59.9069 137.578 60.2533 137.366 60.5723 137.12ZM71.5439 139H70.2725V132.971L68.3721 136.895H67.415L65.5283 132.971V139H64.3252V131.364H65.877L67.9551 135.637L69.9648 131.364H71.5439V139ZM80.5811 135.186C80.5811 136.43 80.262 137.412 79.624 138.132C78.986 138.852 78.1315 139.212 77.0605 139.212C75.9805 139.212 75.1214 138.852 74.4834 138.132C73.8499 137.412 73.5332 136.43 73.5332 135.186C73.5332 133.941 73.8499 132.959 74.4834 132.239C75.1214 131.515 75.9805 131.152 77.0605 131.152C78.1315 131.152 78.986 131.515 79.624 132.239C80.262 132.959 80.5811 133.941 80.5811 135.186ZM79.2549 135.186C79.2549 134.197 79.0612 133.463 78.6738 132.984C78.2865 132.501 77.7487 132.26 77.0605 132.26C76.3633 132.26 75.821 132.501 75.4336 132.984C75.0508 133.463 74.8594 134.197 74.8594 135.186C74.8594 136.143 75.0531 136.869 75.4404 137.366C75.8278 137.858 76.3678 138.104 77.0605 138.104C77.7441 138.104 78.2796 137.861 78.667 137.373C79.0589 136.881 79.2549 136.152 79.2549 135.186ZM88.1895 132.492H85.4277V139H84.1426V132.492H81.3809V131.364H88.1895V132.492ZM95.9141 139H94.6289V135.562H90.8076V139H89.5225V131.364H90.8076V134.454H94.6289V131.364H95.9141V139ZM104.958 135.186C104.958 136.43 104.639 137.412 104.001 138.132C103.363 138.852 102.508 139.212 101.438 139.212C100.357 139.212 99.4984 138.852 98.8604 138.132C98.2269 137.412 97.9102 136.43 97.9102 135.186C97.9102 133.941 98.2269 132.959 98.8604 132.239C99.4984 131.515 100.357 131.152 101.438 131.152C102.508 131.152 103.363 131.515 104.001 132.239C104.639 132.959 104.958 133.941 104.958 135.186ZM103.632 135.186C103.632 134.197 103.438 133.463 103.051 132.984C102.663 132.501 102.126 132.26 101.438 132.26C100.74 132.26 100.198 132.501 99.8105 132.984C99.4277 133.463 99.2363 134.197 99.2363 135.186C99.2363 136.143 99.43 136.869 99.8174 137.366C100.205 137.858 100.745 138.104 101.438 138.104C102.121 138.104 102.657 137.861 103.044 137.373C103.436 136.881 103.632 136.152 103.632 135.186ZM112.669 138.521C112.145 138.768 111.694 138.936 111.315 139.027C110.942 139.123 110.568 139.171 110.194 139.171C109.638 139.171 109.128 139.091 108.663 138.932C108.198 138.768 107.799 138.521 107.467 138.193C107.134 137.865 106.874 137.451 106.688 136.949C106.505 136.448 106.414 135.862 106.414 135.192C106.414 133.976 106.751 133.005 107.426 132.28C108.1 131.551 109.023 131.187 110.194 131.187C110.636 131.187 111.069 131.248 111.493 131.371C111.922 131.494 112.313 131.645 112.669 131.822V133.251H112.594C112.17 132.927 111.751 132.688 111.336 132.533C110.926 132.378 110.527 132.301 110.14 132.301C109.379 132.301 108.788 132.556 108.369 133.066C107.954 133.577 107.747 134.285 107.747 135.192C107.747 136.099 107.954 136.803 108.369 137.305C108.784 137.806 109.374 138.057 110.14 138.057C110.409 138.057 110.675 138.022 110.939 137.954C111.208 137.886 111.452 137.797 111.671 137.688C111.844 137.601 112.022 137.498 112.204 137.38C112.391 137.257 112.521 137.166 112.594 137.106H112.669V138.521ZM120.045 132.492H117.283V139H115.998V132.492H113.236V131.364H120.045V132.492ZM127.811 139H126.539V133.265L122.54 139H121.378V131.364H122.649V137.018L126.607 131.364H127.811V139Z" fill="#333333"/>
<path d="M5 165L12.5 172.5L25 157.5" stroke="#61B857" stroke-width="2" stroke-linecap="round" stroke-linejoin="round"/>
<path d="M48.7461 158.839C48.7461 159.477 48.6436 160.044 48.4385 160.541C48.238 161.033 47.9577 161.446 47.5977 161.778C47.2103 162.138 46.7386 162.425 46.1826 162.64C45.6266 162.849 45.0342 162.961 44.4053 162.975V164.109H43.0586V162.975C42.4479 162.961 41.8623 162.852 41.3018 162.646C40.7412 162.441 40.2627 162.152 39.8662 161.778C39.5062 161.441 39.2236 161.026 39.0186 160.534C38.818 160.042 38.7178 159.477 38.7178 158.839C38.7178 158.219 38.8158 157.677 39.0117 157.212C39.2077 156.747 39.4788 156.341 39.8252 155.995C40.1943 155.626 40.6546 155.334 41.2061 155.12C41.762 154.906 42.3796 154.79 43.0586 154.771V153.712H44.4053V154.771C45.0798 154.785 45.6973 154.904 46.2578 155.127C46.8184 155.35 47.2786 155.64 47.6387 155.995C47.9805 156.328 48.2493 156.731 48.4453 157.205C48.6458 157.679 48.7461 158.224 48.7461 158.839ZM47.3379 158.784C47.3379 158.333 47.265 157.918 47.1191 157.54C46.9733 157.162 46.766 156.843 46.4971 156.583C46.2327 156.328 45.9388 156.141 45.6152 156.022C45.2917 155.904 44.8883 155.84 44.4053 155.831V161.915C44.8337 161.906 45.2233 161.838 45.5742 161.71C45.9251 161.578 46.2145 161.405 46.4424 161.19C46.7386 160.917 46.9619 160.582 47.1123 160.186C47.2627 159.789 47.3379 159.322 47.3379 158.784ZM43.0586 161.915V155.831C42.5755 155.836 42.1722 155.899 41.8486 156.022C41.5251 156.146 41.2311 156.332 40.9668 156.583C40.7025 156.834 40.4951 157.153 40.3447 157.54C40.1989 157.927 40.126 158.342 40.126 158.784C40.126 159.295 40.2012 159.757 40.3516 160.172C40.5065 160.587 40.7298 160.926 41.0215 161.19C41.2448 161.396 41.5319 161.566 41.8828 161.703C42.2383 161.84 42.6302 161.91 43.0586 161.915ZM57.168 164H55.8965V158.265L51.8975 164H50.7354V156.364H52.0068V162.018L55.9648 156.364H57.168V164ZM66.0957 164H64.8105V160.562H60.9893V164H59.7041V156.364H60.9893V159.454H64.8105V156.364H66.0957V164ZM74.5654 164H73.2871V163.187C73.1732 163.264 73.0182 163.373 72.8223 163.515C72.6309 163.651 72.444 163.761 72.2617 163.843C72.0475 163.948 71.8014 164.034 71.5234 164.103C71.2454 164.175 70.9196 164.212 70.5459 164.212C69.8577 164.212 69.2744 163.984 68.7959 163.528C68.3174 163.073 68.0781 162.492 68.0781 161.785C68.0781 161.206 68.2012 160.739 68.4473 160.384C68.6979 160.024 69.0534 159.741 69.5137 159.536C69.9785 159.331 70.5368 159.192 71.1885 159.119C71.8402 159.046 72.5397 158.992 73.2871 158.955V158.757C73.2871 158.465 73.2347 158.224 73.1299 158.032C73.0296 157.841 72.8838 157.69 72.6924 157.581C72.5101 157.476 72.2913 157.406 72.0361 157.369C71.7809 157.333 71.5143 157.314 71.2363 157.314C70.8991 157.314 70.5231 157.36 70.1084 157.451C69.6937 157.538 69.2653 157.665 68.8232 157.834H68.7549V156.528C69.0055 156.46 69.3678 156.385 69.8418 156.303C70.3158 156.221 70.7829 156.18 71.2432 156.18C71.7809 156.18 72.248 156.225 72.6445 156.316C73.0456 156.403 73.3919 156.553 73.6836 156.768C73.9707 156.977 74.1895 157.248 74.3398 157.581C74.4902 157.914 74.5654 158.326 74.5654 158.818V164ZM73.2871 162.12V159.994C72.8952 160.017 72.4326 160.051 71.8994 160.097C71.3708 160.142 70.9515 160.208 70.6416 160.295C70.2725 160.4 69.974 160.564 69.7461 160.787C69.5182 161.006 69.4043 161.309 69.4043 161.696C69.4043 162.134 69.5365 162.464 69.8008 162.688C70.0651 162.906 70.4684 163.016 71.0107 163.016C71.4619 163.016 71.8743 162.929 72.248 162.756C72.6217 162.578 72.9681 162.366 73.2871 162.12ZM83.4316 164H82.1465V160.562H78.3252V164H77.04V156.364H78.3252V159.454H82.1465V156.364H83.4316V164ZM91.6826 163.521C91.1585 163.768 90.7074 163.936 90.3291 164.027C89.9554 164.123 89.5817 164.171 89.208 164.171C88.652 164.171 88.1416 164.091 87.6768 163.932C87.2119 163.768 86.8132 163.521 86.4805 163.193C86.1478 162.865 85.888 162.451 85.7012 161.949C85.5189 161.448 85.4277 160.862 85.4277 160.192C85.4277 158.976 85.765 158.005 86.4395 157.28C87.1139 156.551 88.0368 156.187 89.208 156.187C89.6501 156.187 90.083 156.248 90.5068 156.371C90.9352 156.494 91.3271 156.645 91.6826 156.822V158.251H91.6074C91.1836 157.927 90.7643 157.688 90.3496 157.533C89.9395 157.378 89.5407 157.301 89.1533 157.301C88.3923 157.301 87.8021 157.556 87.3828 158.066C86.9681 158.577 86.7607 159.285 86.7607 160.192C86.7607 161.099 86.9681 161.803 87.3828 162.305C87.7975 162.806 88.3877 163.057 89.1533 163.057C89.4222 163.057 89.6888 163.022 89.9531 162.954C90.222 162.886 90.4658 162.797 90.6846 162.688C90.8577 162.601 91.0355 162.498 91.2178 162.38C91.4046 162.257 91.5345 162.166 91.6074 162.106H91.6826V163.521ZM99.9541 160.186C99.9541 161.43 99.6351 162.412 98.9971 163.132C98.359 163.852 97.5046 164.212 96.4336 164.212C95.3535 164.212 94.4945 163.852 93.8564 163.132C93.223 162.412 92.9062 161.43 92.9062 160.186C92.9062 158.941 93.223 157.959 93.8564 157.239C94.4945 156.515 95.3535 156.152 96.4336 156.152C97.5046 156.152 98.359 156.515 98.9971 157.239C99.6351 157.959 99.9541 158.941 99.9541 160.186ZM98.6279 160.186C98.6279 159.197 98.4342 158.463 98.0469 157.984C97.6595 157.501 97.1217 157.26 96.4336 157.26C95.7363 157.26 95.194 157.501 94.8066 157.984C94.4238 158.463 94.2324 159.197 94.2324 160.186C94.2324 161.143 94.4261 161.869 94.8135 162.366C95.2008 162.858 95.7409 163.104 96.4336 163.104C97.1172 163.104 97.6527 162.861 98.04 162.373C98.432 161.881 98.6279 161.152 98.6279 160.186ZM108.253 161.689C108.253 162.059 108.178 162.387 108.027 162.674C107.882 162.961 107.679 163.2 107.419 163.392C107.127 163.606 106.808 163.761 106.462 163.856C106.12 163.952 105.669 164 105.108 164H101.95V156.364H104.903C105.473 156.364 105.901 156.385 106.188 156.426C106.48 156.462 106.754 156.547 107.009 156.679C107.296 156.829 107.506 157.025 107.638 157.267C107.774 157.508 107.843 157.793 107.843 158.121C107.843 158.499 107.736 158.827 107.521 159.105C107.307 159.383 107.032 159.6 106.694 159.755V159.823C107.146 159.933 107.517 160.145 107.809 160.459C108.105 160.769 108.253 161.179 108.253 161.689ZM106.523 158.319C106.523 158.155 106.487 158.007 106.414 157.875C106.346 157.743 106.239 157.64 106.093 157.567C105.901 157.472 105.685 157.419 105.443 157.41C105.206 157.396 104.912 157.39 104.562 157.39H103.222V159.481H104.828C105.165 159.481 105.414 159.47 105.573 159.447C105.737 159.42 105.901 159.356 106.065 159.256C106.239 159.146 106.357 159.019 106.421 158.873C106.489 158.723 106.523 158.538 106.523 158.319ZM106.927 161.696C106.927 161.446 106.886 161.243 106.804 161.088C106.722 160.928 106.542 160.783 106.264 160.65C106.09 160.568 105.904 160.521 105.703 160.507C105.503 160.489 105.225 160.479 104.869 160.479H103.222V162.975H104.438C104.949 162.975 105.341 162.959 105.614 162.927C105.892 162.89 106.132 162.815 106.332 162.701C106.533 162.587 106.681 162.448 106.776 162.284C106.877 162.12 106.927 161.924 106.927 161.696ZM114.979 161.655C114.979 161.423 114.938 161.22 114.856 161.047C114.779 160.869 114.649 160.726 114.467 160.616C114.275 160.502 114.057 160.434 113.811 160.411C113.569 160.388 113.22 160.377 112.765 160.377H111.562V162.975H112.737C113.193 162.975 113.546 162.956 113.797 162.92C114.048 162.879 114.264 162.804 114.446 162.694C114.633 162.576 114.768 162.437 114.85 162.277C114.936 162.113 114.979 161.906 114.979 161.655ZM116.306 161.635C116.306 162.004 116.23 162.339 116.08 162.64C115.934 162.94 115.734 163.184 115.479 163.371C115.178 163.599 114.856 163.761 114.515 163.856C114.173 163.952 113.733 164 113.195 164H110.276V156.364H111.562V159.338H113.229C113.804 159.338 114.248 159.368 114.562 159.427C114.882 159.486 115.198 159.632 115.513 159.864C115.777 160.06 115.975 160.311 116.107 160.616C116.24 160.922 116.306 161.261 116.306 161.635ZM117.584 156.364H118.869V164H117.584V156.364ZM127.838 164H126.566V158.265L122.567 164H121.405V156.364H122.677V162.018L126.635 156.364H127.838V164ZM127.106 153.356C127.084 154.031 126.869 154.557 126.464 154.936C126.063 155.314 125.477 155.503 124.707 155.503C123.937 155.503 123.349 155.314 122.943 154.936C122.542 154.557 122.33 154.031 122.308 153.356H123.477C123.481 153.835 123.586 154.181 123.791 154.396C124.001 154.61 124.306 154.717 124.707 154.717C125.113 154.717 125.418 154.612 125.623 154.402C125.828 154.193 125.933 153.844 125.938 153.356H127.106ZM144.463 164H143.109V155.229L140.279 161.197H139.473L136.663 155.229V164H135.398V153.821H137.244L139.958 159.488L142.583 153.821H144.463V164ZM153.486 160.315H147.86C147.86 160.785 147.931 161.195 148.072 161.546C148.214 161.892 148.407 162.177 148.653 162.4C148.89 162.619 149.171 162.783 149.494 162.893C149.822 163.002 150.182 163.057 150.574 163.057C151.094 163.057 151.616 162.954 152.14 162.749C152.668 162.539 153.044 162.334 153.268 162.134H153.336V163.535C152.903 163.717 152.461 163.87 152.01 163.993C151.559 164.116 151.085 164.178 150.588 164.178C149.321 164.178 148.332 163.836 147.621 163.152C146.91 162.464 146.555 161.489 146.555 160.227C146.555 158.978 146.894 157.987 147.573 157.253C148.257 156.519 149.155 156.152 150.267 156.152C151.297 156.152 152.09 156.453 152.646 157.055C153.206 157.656 153.486 158.511 153.486 159.618V160.315ZM152.235 159.331C152.231 158.657 152.06 158.135 151.723 157.766C151.39 157.396 150.882 157.212 150.198 157.212C149.51 157.212 148.961 157.415 148.551 157.82C148.145 158.226 147.915 158.729 147.86 159.331H152.235ZM161.826 164H160.541V160.562H156.72V164H155.435V156.364H156.72V159.454H160.541V156.364H161.826V164ZM170.754 160.315H165.128C165.128 160.785 165.199 161.195 165.34 161.546C165.481 161.892 165.675 162.177 165.921 162.4C166.158 162.619 166.438 162.783 166.762 162.893C167.09 163.002 167.45 163.057 167.842 163.057C168.361 163.057 168.883 162.954 169.407 162.749C169.936 162.539 170.312 162.334 170.535 162.134H170.604V163.535C170.171 163.717 169.729 163.87 169.277 163.993C168.826 164.116 168.352 164.178 167.855 164.178C166.589 164.178 165.6 163.836 164.889 163.152C164.178 162.464 163.822 161.489 163.822 160.227C163.822 158.978 164.162 157.987 164.841 157.253C165.524 156.519 166.422 156.152 167.534 156.152C168.564 156.152 169.357 156.453 169.913 157.055C170.474 157.656 170.754 158.511 170.754 159.618V160.315ZM169.503 159.331C169.498 158.657 169.327 158.135 168.99 157.766C168.658 157.396 168.149 157.212 167.466 157.212C166.778 157.212 166.229 157.415 165.818 157.82C165.413 158.226 165.183 158.729 165.128 159.331H169.503ZM179.634 165.832H178.438V163.979H172.695V165.832H171.499V162.906H172.326C172.859 162.027 173.256 161.013 173.516 159.864C173.78 158.711 173.912 157.545 173.912 156.364H178.711V162.906H179.634V165.832ZM177.426 162.906V157.444H175.122C175.063 158.588 174.887 159.632 174.596 160.575C174.304 161.519 173.969 162.296 173.591 162.906H177.426ZM190.988 164H189.437L186.989 160.514H186.367V164H185.096V160.514H184.542L181.985 164H180.502L183.448 160.001C183.225 159.882 183.027 159.714 182.854 159.495C182.685 159.276 182.53 158.946 182.389 158.504C182.266 158.117 182.12 157.848 181.951 157.697C181.783 157.547 181.507 157.472 181.124 157.472H180.762V156.364H181.233C181.799 156.364 182.252 156.478 182.594 156.706C182.936 156.934 183.209 157.333 183.414 157.902C183.455 158.021 183.505 158.158 183.564 158.312C183.628 158.463 183.683 158.59 183.729 158.695C183.879 159.042 184.07 159.288 184.303 159.434C184.54 159.575 184.804 159.655 185.096 159.673V156.364H186.367V159.673C186.659 159.655 186.923 159.573 187.16 159.427C187.402 159.281 187.598 159.037 187.748 158.695C187.798 158.581 187.853 158.449 187.912 158.299C187.976 158.148 188.026 158.016 188.062 157.902C188.263 157.342 188.532 156.945 188.869 156.713C189.206 156.48 189.66 156.364 190.229 156.364H190.701V157.472H190.339C189.951 157.472 189.671 157.551 189.498 157.711C189.329 157.87 189.188 158.135 189.074 158.504C188.947 158.91 188.794 159.226 188.616 159.454C188.443 159.677 188.254 159.846 188.049 159.96L190.988 164ZM199.8 164H198.528V157.971L196.628 161.895H195.671L193.784 157.971V164H192.581V156.364H194.133L196.211 160.637L198.221 156.364H199.8V164ZM208.721 160.315H203.095C203.095 160.785 203.165 161.195 203.307 161.546C203.448 161.892 203.642 162.177 203.888 162.4C204.125 162.619 204.405 162.783 204.729 162.893C205.057 163.002 205.417 163.057 205.809 163.057C206.328 163.057 206.85 162.954 207.374 162.749C207.903 162.539 208.279 162.334 208.502 162.134H208.57V163.535C208.137 163.717 207.695 163.87 207.244 163.993C206.793 164.116 206.319 164.178 205.822 164.178C204.555 164.178 203.566 163.836 202.855 163.152C202.145 162.464 201.789 161.489 201.789 160.227C201.789 158.978 202.129 157.987 202.808 157.253C203.491 156.519 204.389 156.152 205.501 156.152C206.531 156.152 207.324 156.453 207.88 157.055C208.44 157.656 208.721 158.511 208.721 159.618V160.315ZM207.47 159.331C207.465 158.657 207.294 158.135 206.957 157.766C206.624 157.396 206.116 157.212 205.433 157.212C204.744 157.212 204.195 157.415 203.785 157.82C203.38 158.226 203.149 158.729 203.095 159.331H207.47ZM217.061 164H215.775V160.562H211.954V164H210.669V156.364H211.954V159.454H215.775V156.364H217.061V164ZM225.209 157.492H222.447V164H221.162V157.492H218.4V156.364H225.209V157.492ZM47.8301 183.304H46.5449V180.973H39.3535V183.304H38.0684V179.797H38.8887C39.4811 178.822 39.9528 177.55 40.3037 175.982C40.6592 174.41 40.8369 172.69 40.8369 170.821H46.8662V179.797H47.8301V183.304ZM45.5127 179.797V171.997H42.1084C42.0446 173.624 41.8441 175.114 41.5068 176.468C41.1696 177.817 40.7321 178.926 40.1943 179.797H45.5127ZM55.8691 181H54.584V174.444H51.7334C51.7197 174.823 51.7061 175.187 51.6924 175.538C51.6787 175.889 51.665 176.206 51.6514 176.488C51.6195 177.249 51.5671 177.858 51.4941 178.313C51.4212 178.765 51.3255 179.141 51.207 179.441C51.0977 179.724 50.9746 179.954 50.8379 180.132C50.7057 180.305 50.5622 180.462 50.4072 180.604C50.2523 180.74 50.0791 180.843 49.8877 180.911C49.7008 180.979 49.4958 181.014 49.2725 181.014C49.195 181.014 49.0811 181.011 48.9307 181.007C48.7848 181.002 48.6891 181 48.6436 181V179.879H48.7119C48.7484 179.879 48.8008 179.881 48.8691 179.886C48.9375 179.89 48.9945 179.893 49.04 179.893C49.1494 179.893 49.2611 179.877 49.375 179.845C49.4935 179.813 49.5938 179.754 49.6758 179.667C49.9082 179.439 50.0951 179.054 50.2363 178.512C50.3776 177.969 50.471 177.186 50.5166 176.16C50.5348 175.786 50.5508 175.344 50.5645 174.834C50.5827 174.319 50.5986 173.829 50.6123 173.364H55.8691V181ZM64.2705 181H62.9854V177.972H61.4746L59.1094 181H57.5986L60.1689 177.849C59.5081 177.666 59.0251 177.388 58.7197 177.015C58.4144 176.636 58.2617 176.142 58.2617 175.531C58.2617 175.126 58.3529 174.782 58.5352 174.499C58.7174 174.216 58.9476 173.986 59.2256 173.809C59.499 173.635 59.8135 173.519 60.1689 173.46C60.5244 173.396 60.9118 173.364 61.3311 173.364H64.2705V181ZM62.9854 176.96V174.39H61.3652C61.0143 174.39 60.7614 174.401 60.6064 174.424C60.4515 174.447 60.2829 174.508 60.1006 174.608C59.9229 174.709 59.7907 174.845 59.7041 175.019C59.6221 175.187 59.5811 175.372 59.5811 175.572C59.5811 175.823 59.6061 176.026 59.6562 176.181C59.7109 176.336 59.8203 176.481 59.9844 176.618C60.153 176.75 60.3581 176.841 60.5996 176.892C60.8411 176.937 61.11 176.96 61.4062 176.96H62.9854ZM79.6104 181H78.2568V172.024H73.1777V181H71.8242V170.821H79.6104V181ZM88.9688 177.09C88.9688 177.71 88.8799 178.277 88.7021 178.792C88.5244 179.302 88.2738 179.735 87.9502 180.091C87.6494 180.428 87.2939 180.69 86.8838 180.877C86.4782 181.059 86.0475 181.15 85.5918 181.15C85.1953 181.15 84.8353 181.107 84.5117 181.021C84.1927 180.934 83.8669 180.799 83.5342 180.617V183.816H82.249V173.364H83.5342V174.164C83.876 173.877 84.2588 173.638 84.6826 173.446C85.111 173.25 85.5667 173.152 86.0498 173.152C86.9704 173.152 87.6859 173.501 88.1963 174.198C88.7113 174.891 88.9688 175.855 88.9688 177.09ZM87.6426 177.124C87.6426 176.203 87.4854 175.515 87.1709 175.06C86.8564 174.604 86.3734 174.376 85.7217 174.376C85.3525 174.376 84.9811 174.456 84.6074 174.615C84.2337 174.775 83.876 174.984 83.5342 175.244V179.571C83.8988 179.735 84.2109 179.847 84.4707 179.906C84.735 179.965 85.0335 179.995 85.3662 179.995C86.0817 179.995 86.64 179.754 87.041 179.271C87.4421 178.787 87.6426 178.072 87.6426 177.124ZM97.3633 177.315H91.7373C91.7373 177.785 91.8079 178.195 91.9492 178.546C92.0905 178.892 92.2842 179.177 92.5303 179.4C92.7673 179.619 93.0475 179.783 93.3711 179.893C93.6992 180.002 94.0592 180.057 94.4512 180.057C94.9707 180.057 95.4925 179.954 96.0166 179.749C96.5452 179.539 96.9212 179.334 97.1445 179.134H97.2129V180.535C96.7799 180.717 96.3379 180.87 95.8867 180.993C95.4355 181.116 94.9616 181.178 94.4648 181.178C93.1979 181.178 92.209 180.836 91.498 180.152C90.7871 179.464 90.4316 178.489 90.4316 177.227C90.4316 175.978 90.7712 174.987 91.4502 174.253C92.1338 173.519 93.0316 173.152 94.1436 173.152C95.1735 173.152 95.9665 173.453 96.5225 174.055C97.083 174.656 97.3633 175.511 97.3633 176.618V177.315ZM96.1123 176.331C96.1077 175.657 95.9368 175.135 95.5996 174.766C95.2669 174.396 94.7588 174.212 94.0752 174.212C93.387 174.212 92.8379 174.415 92.4277 174.82C92.0221 175.226 91.792 175.729 91.7373 176.331H96.1123ZM106.243 182.832H105.047V180.979H99.3047V182.832H98.1084V179.906H98.9355C99.4688 179.027 99.8652 178.013 100.125 176.864C100.389 175.711 100.521 174.545 100.521 173.364H105.32V179.906H106.243V182.832ZM104.035 179.906V174.444H101.731C101.672 175.588 101.497 176.632 101.205 177.575C100.913 178.519 100.578 179.296 100.2 179.906H104.035ZM114.412 181H113.127V174.472H109.306V181H108.021V173.364H114.412V181ZM123.668 177.09C123.668 177.71 123.579 178.277 123.401 178.792C123.224 179.302 122.973 179.735 122.649 180.091C122.349 180.428 121.993 180.69 121.583 180.877C121.177 181.059 120.747 181.15 120.291 181.15C119.895 181.15 119.535 181.107 119.211 181.021C118.892 180.934 118.566 180.799 118.233 180.617V183.816H116.948V173.364H118.233V174.164C118.575 173.877 118.958 173.638 119.382 173.446C119.81 173.25 120.266 173.152 120.749 173.152C121.67 173.152 122.385 173.501 122.896 174.198C123.41 174.891 123.668 175.855 123.668 177.09ZM122.342 177.124C122.342 176.203 122.185 175.515 121.87 175.06C121.556 174.604 121.073 174.376 120.421 174.376C120.052 174.376 119.68 174.456 119.307 174.615C118.933 174.775 118.575 174.984 118.233 175.244V179.571C118.598 179.735 118.91 179.847 119.17 179.906C119.434 179.965 119.733 179.995 120.065 179.995C120.781 179.995 121.339 179.754 121.74 179.271C122.141 178.787 122.342 178.072 122.342 177.124ZM132.104 181H130.832V175.265L126.833 181H125.671V173.364H126.942V179.018L130.9 173.364H132.104V181ZM141.031 181H139.746V177.562H135.925V181H134.64V173.364H135.925V176.454H139.746V173.364H141.031V181ZM150 181H148.729V175.265L144.729 181H143.567V173.364H144.839V179.018L148.797 173.364H150V181ZM159.755 181H158.483V174.971L156.583 178.895H155.626L153.739 174.971V181H152.536V173.364H154.088L156.166 177.637L158.176 173.364H159.755V181ZM168.218 181H166.939V180.187C166.826 180.264 166.671 180.373 166.475 180.515C166.283 180.651 166.096 180.761 165.914 180.843C165.7 180.948 165.454 181.034 165.176 181.103C164.898 181.175 164.572 181.212 164.198 181.212C163.51 181.212 162.927 180.984 162.448 180.528C161.97 180.073 161.73 179.492 161.73 178.785C161.73 178.206 161.854 177.739 162.1 177.384C162.35 177.024 162.706 176.741 163.166 176.536C163.631 176.331 164.189 176.192 164.841 176.119C165.493 176.046 166.192 175.992 166.939 175.955V175.757C166.939 175.465 166.887 175.224 166.782 175.032C166.682 174.841 166.536 174.69 166.345 174.581C166.162 174.476 165.944 174.406 165.688 174.369C165.433 174.333 165.167 174.314 164.889 174.314C164.551 174.314 164.175 174.36 163.761 174.451C163.346 174.538 162.918 174.665 162.476 174.834H162.407V173.528C162.658 173.46 163.02 173.385 163.494 173.303C163.968 173.221 164.435 173.18 164.896 173.18C165.433 173.18 165.9 173.225 166.297 173.316C166.698 173.403 167.044 173.553 167.336 173.768C167.623 173.977 167.842 174.248 167.992 174.581C168.143 174.914 168.218 175.326 168.218 175.818V181ZM166.939 179.12V176.994C166.548 177.017 166.085 177.051 165.552 177.097C165.023 177.142 164.604 177.208 164.294 177.295C163.925 177.4 163.626 177.564 163.398 177.787C163.171 178.006 163.057 178.309 163.057 178.696C163.057 179.134 163.189 179.464 163.453 179.688C163.717 179.906 164.121 180.016 164.663 180.016C165.114 180.016 165.527 179.929 165.9 179.756C166.274 179.578 166.62 179.366 166.939 179.12ZM176.305 174.492H173.543V181H172.258V174.492H169.496V173.364H176.305V174.492ZM184.029 177.315H178.403C178.403 177.785 178.474 178.195 178.615 178.546C178.757 178.892 178.95 179.177 179.196 179.4C179.433 179.619 179.714 179.783 180.037 179.893C180.365 180.002 180.725 180.057 181.117 180.057C181.637 180.057 182.159 179.954 182.683 179.749C183.211 179.539 183.587 179.334 183.811 179.134H183.879V180.535C183.446 180.717 183.004 180.87 182.553 180.993C182.102 181.116 181.628 181.178 181.131 181.178C179.864 181.178 178.875 180.836 178.164 180.152C177.453 179.464 177.098 178.489 177.098 177.227C177.098 175.978 177.437 174.987 178.116 174.253C178.8 173.519 179.698 173.152 180.81 173.152C181.84 173.152 182.632 173.453 183.188 174.055C183.749 174.656 184.029 175.511 184.029 176.618V177.315ZM182.778 176.331C182.774 175.657 182.603 175.135 182.266 174.766C181.933 174.396 181.425 174.212 180.741 174.212C180.053 174.212 179.504 174.415 179.094 174.82C178.688 175.226 178.458 175.729 178.403 176.331H182.778ZM192.137 181H190.852V174.444H188.001C187.987 174.823 187.974 175.187 187.96 175.538C187.946 175.889 187.933 176.206 187.919 176.488C187.887 177.249 187.835 177.858 187.762 178.313C187.689 178.765 187.593 179.141 187.475 179.441C187.365 179.724 187.242 179.954 187.105 180.132C186.973 180.305 186.83 180.462 186.675 180.604C186.52 180.74 186.347 180.843 186.155 180.911C185.968 180.979 185.763 181.014 185.54 181.014C185.463 181.014 185.349 181.011 185.198 181.007C185.052 181.002 184.957 181 184.911 181V179.879H184.979C185.016 179.879 185.068 179.881 185.137 179.886C185.205 179.89 185.262 179.893 185.308 179.893C185.417 179.893 185.529 179.877 185.643 179.845C185.761 179.813 185.861 179.754 185.943 179.667C186.176 179.439 186.363 179.054 186.504 178.512C186.645 177.969 186.739 177.186 186.784 176.16C186.802 175.786 186.818 175.344 186.832 174.834C186.85 174.319 186.866 173.829 186.88 173.364H192.137V181ZM201.064 177.315H195.438C195.438 177.785 195.509 178.195 195.65 178.546C195.792 178.892 195.985 179.177 196.231 179.4C196.468 179.619 196.749 179.783 197.072 179.893C197.4 180.002 197.76 180.057 198.152 180.057C198.672 180.057 199.194 179.954 199.718 179.749C200.246 179.539 200.622 179.334 200.846 179.134H200.914V180.535C200.481 180.717 200.039 180.87 199.588 180.993C199.137 181.116 198.663 181.178 198.166 181.178C196.899 181.178 195.91 180.836 195.199 180.152C194.488 179.464 194.133 178.489 194.133 177.227C194.133 175.978 194.472 174.987 195.151 174.253C195.835 173.519 196.733 173.152 197.845 173.152C198.875 173.152 199.668 173.453 200.224 174.055C200.784 174.656 201.064 175.511 201.064 176.618V177.315ZM199.813 176.331C199.809 175.657 199.638 175.135 199.301 174.766C198.968 174.396 198.46 174.212 197.776 174.212C197.088 174.212 196.539 174.415 196.129 174.82C195.723 175.226 195.493 175.729 195.438 176.331H199.813ZM209.445 181H208.174V175.265L204.175 181H203.013V173.364H204.284V179.018L208.242 173.364H209.445V181ZM208.714 170.356C208.691 171.031 208.477 171.557 208.071 171.936C207.67 172.314 207.085 172.503 206.314 172.503C205.544 172.503 204.956 172.314 204.551 171.936C204.15 171.557 203.938 171.031 203.915 170.356H205.084C205.089 170.835 205.193 171.181 205.398 171.396C205.608 171.61 205.913 171.717 206.314 171.717C206.72 171.717 207.025 171.612 207.23 171.402C207.436 171.193 207.54 170.844 207.545 170.356H208.714Z" fill="#333333"/>
<path d="M5 207L12.5 214.5L25 199.5" stroke="#61B857" stroke-width="2" stroke-linecap="round" stroke-linejoin="round"/>
<path d="M47.1533 206H45.7998V197.024H40.7207V206H39.3672V195.821H47.1533V206ZM56.5117 202.09C56.5117 202.71 56.4229 203.277 56.2451 203.792C56.0674 204.302 55.8167 204.735 55.4932 205.091C55.1924 205.428 54.8369 205.69 54.4268 205.877C54.0212 206.059 53.5905 206.15 53.1348 206.15C52.7383 206.15 52.3783 206.107 52.0547 206.021C51.7357 205.934 51.4098 205.799 51.0771 205.617V208.816H49.792V198.364H51.0771V199.164C51.4189 198.877 51.8018 198.638 52.2256 198.446C52.654 198.25 53.1097 198.152 53.5928 198.152C54.5133 198.152 55.2288 198.501 55.7393 199.198C56.2542 199.891 56.5117 200.855 56.5117 202.09ZM55.1855 202.124C55.1855 201.203 55.0283 200.515 54.7139 200.06C54.3994 199.604 53.9163 199.376 53.2646 199.376C52.8955 199.376 52.5241 199.456 52.1504 199.615C51.7767 199.775 51.4189 199.984 51.0771 200.244V204.571C51.4417 204.735 51.7539 204.847 52.0137 204.906C52.278 204.965 52.5765 204.995 52.9092 204.995C53.6247 204.995 54.1829 204.754 54.584 204.271C54.985 203.787 55.1855 203.072 55.1855 202.124ZM64.9473 206H63.6758V200.265L59.6768 206H58.5146V198.364H59.7861V204.018L63.7441 198.364H64.9473V206ZM73.7861 203.689C73.7861 204.059 73.7109 204.387 73.5605 204.674C73.4147 204.961 73.2119 205.2 72.9521 205.392C72.6605 205.606 72.3415 205.761 71.9951 205.856C71.6533 205.952 71.2021 206 70.6416 206H67.4834V198.364H70.4365C71.0062 198.364 71.4346 198.385 71.7217 198.426C72.0133 198.462 72.2868 198.547 72.542 198.679C72.8291 198.829 73.0387 199.025 73.1709 199.267C73.3076 199.508 73.376 199.793 73.376 200.121C73.376 200.499 73.2689 200.827 73.0547 201.105C72.8405 201.383 72.5648 201.6 72.2275 201.755V201.823C72.6787 201.933 73.0501 202.145 73.3418 202.459C73.638 202.769 73.7861 203.179 73.7861 203.689ZM72.0566 200.319C72.0566 200.155 72.0202 200.007 71.9473 199.875C71.8789 199.743 71.7718 199.64 71.626 199.567C71.4346 199.472 71.2181 199.419 70.9766 199.41C70.7396 199.396 70.4456 199.39 70.0947 199.39H68.7549V201.481H70.3613C70.6986 201.481 70.9469 201.47 71.1064 201.447C71.2705 201.42 71.4346 201.356 71.5986 201.256C71.7718 201.146 71.8903 201.019 71.9541 200.873C72.0225 200.723 72.0566 200.538 72.0566 200.319ZM72.46 203.696C72.46 203.446 72.4189 203.243 72.3369 203.088C72.2549 202.928 72.0749 202.783 71.7969 202.65C71.6237 202.568 71.4368 202.521 71.2363 202.507C71.0358 202.489 70.7578 202.479 70.4023 202.479H68.7549V204.975H69.9717C70.4821 204.975 70.874 204.959 71.1475 204.927C71.4255 204.89 71.6647 204.815 71.8652 204.701C72.0658 204.587 72.2139 204.448 72.3096 204.284C72.4098 204.12 72.46 203.924 72.46 203.696ZM81.9688 206H80.6836V199.444H77.833C77.8193 199.823 77.8057 200.187 77.792 200.538C77.7783 200.889 77.7646 201.206 77.751 201.488C77.7191 202.249 77.6667 202.858 77.5938 203.313C77.5208 203.765 77.4251 204.141 77.3066 204.441C77.1973 204.724 77.0742 204.954 76.9375 205.132C76.8053 205.305 76.6618 205.462 76.5068 205.604C76.3519 205.74 76.1787 205.843 75.9873 205.911C75.8005 205.979 75.5954 206.014 75.3721 206.014C75.2946 206.014 75.1807 206.011 75.0303 206.007C74.8844 206.002 74.7887 206 74.7432 206V204.879H74.8115C74.848 204.879 74.9004 204.881 74.9688 204.886C75.0371 204.89 75.0941 204.893 75.1396 204.893C75.249 204.893 75.3607 204.877 75.4746 204.845C75.5931 204.813 75.6934 204.754 75.7754 204.667C76.0078 204.439 76.1947 204.054 76.3359 203.512C76.4772 202.969 76.5706 202.186 76.6162 201.16C76.6344 200.786 76.6504 200.344 76.6641 199.834C76.6823 199.319 76.6982 198.829 76.7119 198.364H81.9688V206ZM90.8965 202.315H85.2705C85.2705 202.785 85.3411 203.195 85.4824 203.546C85.6237 203.892 85.8174 204.177 86.0635 204.4C86.3005 204.619 86.5807 204.783 86.9043 204.893C87.2324 205.002 87.5924 205.057 87.9844 205.057C88.5039 205.057 89.0257 204.954 89.5498 204.749C90.0785 204.539 90.4544 204.334 90.6777 204.134H90.7461V205.535C90.3132 205.717 89.8711 205.87 89.4199 205.993C88.9688 206.116 88.4948 206.178 87.998 206.178C86.7311 206.178 85.7422 205.836 85.0312 205.152C84.3203 204.464 83.9648 203.489 83.9648 202.227C83.9648 200.978 84.3044 199.987 84.9834 199.253C85.667 198.519 86.5648 198.152 87.6768 198.152C88.7067 198.152 89.4997 198.453 90.0557 199.055C90.6162 199.656 90.8965 200.511 90.8965 201.618V202.315ZM89.6455 201.331C89.641 200.657 89.4701 200.135 89.1328 199.766C88.8001 199.396 88.292 199.212 87.6084 199.212C86.9202 199.212 86.3711 199.415 85.9609 199.82C85.5553 200.226 85.3252 200.729 85.2705 201.331H89.6455ZM98.792 206H97.5068V203.067C97.0921 203.195 96.6956 203.298 96.3174 203.375C95.9391 203.452 95.5267 203.491 95.0801 203.491C94.2598 203.491 93.6331 203.291 93.2002 202.89C92.7673 202.484 92.5508 201.901 92.5508 201.14V198.364H93.8359V200.483C93.8359 200.775 93.8542 201.037 93.8906 201.27C93.9271 201.497 94.0046 201.696 94.123 201.864C94.2415 202.028 94.4079 202.154 94.6221 202.24C94.8363 202.327 95.1348 202.37 95.5176 202.37C95.832 202.37 96.1738 202.34 96.543 202.281C96.9121 202.217 97.2334 202.145 97.5068 202.062V198.364H98.792V206ZM107.713 202.315H102.087C102.087 202.785 102.158 203.195 102.299 203.546C102.44 203.892 102.634 204.177 102.88 204.4C103.117 204.619 103.397 204.783 103.721 204.893C104.049 205.002 104.409 205.057 104.801 205.057C105.32 205.057 105.842 204.954 106.366 204.749C106.895 204.539 107.271 204.334 107.494 204.134H107.562V205.535C107.13 205.717 106.688 205.87 106.236 205.993C105.785 206.116 105.311 206.178 104.814 206.178C103.548 206.178 102.559 205.836 101.848 205.152C101.137 204.464 100.781 203.489 100.781 202.227C100.781 200.978 101.121 199.987 101.8 199.253C102.483 198.519 103.381 198.152 104.493 198.152C105.523 198.152 106.316 198.453 106.872 199.055C107.433 199.656 107.713 200.511 107.713 201.618V202.315ZM106.462 201.331C106.457 200.657 106.286 200.135 105.949 199.766C105.617 199.396 105.108 199.212 104.425 199.212C103.737 199.212 103.188 199.415 102.777 199.82C102.372 200.226 102.142 200.729 102.087 201.331H106.462ZM116.053 206H114.768V202.562H110.946V206H109.661V198.364H110.946V201.454H114.768V198.364H116.053V206ZM125.021 206H123.75V200.265L119.751 206H118.589V198.364H119.86V204.018L123.818 198.364H125.021V206ZM133.949 202.315H128.323C128.323 202.785 128.394 203.195 128.535 203.546C128.676 203.892 128.87 204.177 129.116 204.4C129.353 204.619 129.633 204.783 129.957 204.893C130.285 205.002 130.645 205.057 131.037 205.057C131.557 205.057 132.078 204.954 132.603 204.749C133.131 204.539 133.507 204.334 133.73 204.134H133.799V205.535C133.366 205.717 132.924 205.87 132.473 205.993C132.021 206.116 131.548 206.178 131.051 206.178C129.784 206.178 128.795 205.836 128.084 205.152C127.373 204.464 127.018 203.489 127.018 202.227C127.018 200.978 127.357 199.987 128.036 199.253C128.72 198.519 129.618 198.152 130.729 198.152C131.759 198.152 132.552 198.453 133.108 199.055C133.669 199.656 133.949 200.511 133.949 201.618V202.315ZM132.698 201.331C132.694 200.657 132.523 200.135 132.186 199.766C131.853 199.396 131.345 199.212 130.661 199.212C129.973 199.212 129.424 199.415 129.014 199.82C128.608 200.226 128.378 200.729 128.323 201.331H132.698ZM150.301 200.839C150.301 201.477 150.198 202.044 149.993 202.541C149.793 203.033 149.512 203.446 149.152 203.778C148.765 204.138 148.293 204.425 147.737 204.64C147.181 204.849 146.589 204.961 145.96 204.975V206.109H144.613V204.975C144.003 204.961 143.417 204.852 142.856 204.646C142.296 204.441 141.817 204.152 141.421 203.778C141.061 203.441 140.778 203.026 140.573 202.534C140.373 202.042 140.272 201.477 140.272 200.839C140.272 200.219 140.37 199.677 140.566 199.212C140.762 198.747 141.034 198.341 141.38 197.995C141.749 197.626 142.209 197.334 142.761 197.12C143.317 196.906 143.934 196.79 144.613 196.771V195.712H145.96V196.771C146.634 196.785 147.252 196.904 147.812 197.127C148.373 197.35 148.833 197.64 149.193 197.995C149.535 198.328 149.804 198.731 150 199.205C150.201 199.679 150.301 200.224 150.301 200.839ZM148.893 200.784C148.893 200.333 148.82 199.918 148.674 199.54C148.528 199.162 148.321 198.843 148.052 198.583C147.787 198.328 147.493 198.141 147.17 198.022C146.846 197.904 146.443 197.84 145.96 197.831V203.915C146.388 203.906 146.778 203.838 147.129 203.71C147.48 203.578 147.769 203.405 147.997 203.19C148.293 202.917 148.517 202.582 148.667 202.186C148.817 201.789 148.893 201.322 148.893 200.784ZM144.613 203.915V197.831C144.13 197.836 143.727 197.899 143.403 198.022C143.08 198.146 142.786 198.332 142.521 198.583C142.257 198.834 142.05 199.153 141.899 199.54C141.754 199.927 141.681 200.342 141.681 200.784C141.681 201.295 141.756 201.757 141.906 202.172C142.061 202.587 142.285 202.926 142.576 203.19C142.799 203.396 143.087 203.566 143.438 203.703C143.793 203.84 144.185 203.91 144.613 203.915ZM158.723 206H157.451V200.265L153.452 206H152.29V198.364H153.562V204.018L157.52 198.364H158.723V206ZM167.65 206H166.365V202.562H162.544V206H161.259V198.364H162.544V201.454H166.365V198.364H167.65V206ZM176.12 206H174.842V205.187C174.728 205.264 174.573 205.373 174.377 205.515C174.186 205.651 173.999 205.761 173.816 205.843C173.602 205.948 173.356 206.034 173.078 206.103C172.8 206.175 172.474 206.212 172.101 206.212C171.412 206.212 170.829 205.984 170.351 205.528C169.872 205.073 169.633 204.492 169.633 203.785C169.633 203.206 169.756 202.739 170.002 202.384C170.253 202.024 170.608 201.741 171.068 201.536C171.533 201.331 172.091 201.192 172.743 201.119C173.395 201.046 174.094 200.992 174.842 200.955V200.757C174.842 200.465 174.789 200.224 174.685 200.032C174.584 199.841 174.438 199.69 174.247 199.581C174.065 199.476 173.846 199.406 173.591 199.369C173.336 199.333 173.069 199.314 172.791 199.314C172.454 199.314 172.078 199.36 171.663 199.451C171.248 199.538 170.82 199.665 170.378 199.834H170.31V198.528C170.56 198.46 170.923 198.385 171.396 198.303C171.87 198.221 172.338 198.18 172.798 198.18C173.336 198.18 173.803 198.225 174.199 198.316C174.6 198.403 174.947 198.553 175.238 198.768C175.525 198.977 175.744 199.248 175.895 199.581C176.045 199.914 176.12 200.326 176.12 200.818V206ZM174.842 204.12V201.994C174.45 202.017 173.987 202.051 173.454 202.097C172.925 202.142 172.506 202.208 172.196 202.295C171.827 202.4 171.529 202.564 171.301 202.787C171.073 203.006 170.959 203.309 170.959 203.696C170.959 204.134 171.091 204.464 171.355 204.688C171.62 204.906 172.023 205.016 172.565 205.016C173.017 205.016 173.429 204.929 173.803 204.756C174.176 204.578 174.523 204.366 174.842 204.12ZM184.986 206H183.701V202.562H179.88V206H178.595V198.364H179.88V201.454H183.701V198.364H184.986V206ZM193.237 205.521C192.713 205.768 192.262 205.936 191.884 206.027C191.51 206.123 191.136 206.171 190.763 206.171C190.207 206.171 189.696 206.091 189.231 205.932C188.767 205.768 188.368 205.521 188.035 205.193C187.702 204.865 187.443 204.451 187.256 203.949C187.074 203.448 186.982 202.862 186.982 202.192C186.982 200.976 187.32 200.005 187.994 199.28C188.669 198.551 189.591 198.187 190.763 198.187C191.205 198.187 191.638 198.248 192.062 198.371C192.49 198.494 192.882 198.645 193.237 198.822V200.251H193.162C192.738 199.927 192.319 199.688 191.904 199.533C191.494 199.378 191.095 199.301 190.708 199.301C189.947 199.301 189.357 199.556 188.938 200.066C188.523 200.577 188.315 201.285 188.315 202.192C188.315 203.099 188.523 203.803 188.938 204.305C189.352 204.806 189.942 205.057 190.708 205.057C190.977 205.057 191.243 205.022 191.508 204.954C191.777 204.886 192.021 204.797 192.239 204.688C192.412 204.601 192.59 204.498 192.772 204.38C192.959 204.257 193.089 204.166 193.162 204.106H193.237V205.521ZM201.509 202.186C201.509 203.43 201.19 204.412 200.552 205.132C199.914 205.852 199.059 206.212 197.988 206.212C196.908 206.212 196.049 205.852 195.411 205.132C194.778 204.412 194.461 203.43 194.461 202.186C194.461 200.941 194.778 199.959 195.411 199.239C196.049 198.515 196.908 198.152 197.988 198.152C199.059 198.152 199.914 198.515 200.552 199.239C201.19 199.959 201.509 200.941 201.509 202.186ZM200.183 202.186C200.183 201.197 199.989 200.463 199.602 199.984C199.214 199.501 198.676 199.26 197.988 199.26C197.291 199.26 196.749 199.501 196.361 199.984C195.979 200.463 195.787 201.197 195.787 202.186C195.787 203.143 195.981 203.869 196.368 204.366C196.756 204.858 197.296 205.104 197.988 205.104C198.672 205.104 199.207 204.861 199.595 204.373C199.987 203.881 200.183 203.152 200.183 202.186ZM209.808 203.689C209.808 204.059 209.732 204.387 209.582 204.674C209.436 204.961 209.233 205.2 208.974 205.392C208.682 205.606 208.363 205.761 208.017 205.856C207.675 205.952 207.224 206 206.663 206H203.505V198.364H206.458C207.028 198.364 207.456 198.385 207.743 198.426C208.035 198.462 208.308 198.547 208.563 198.679C208.851 198.829 209.06 199.025 209.192 199.267C209.329 199.508 209.397 199.793 209.397 200.121C209.397 200.499 209.29 200.827 209.076 201.105C208.862 201.383 208.586 201.6 208.249 201.755V201.823C208.7 201.933 209.072 202.145 209.363 202.459C209.66 202.769 209.808 203.179 209.808 203.689ZM208.078 200.319C208.078 200.155 208.042 200.007 207.969 199.875C207.9 199.743 207.793 199.64 207.647 199.567C207.456 199.472 207.24 199.419 206.998 199.41C206.761 199.396 206.467 199.39 206.116 199.39H204.776V201.481H206.383C206.72 201.481 206.968 201.47 207.128 201.447C207.292 201.42 207.456 201.356 207.62 201.256C207.793 201.146 207.912 201.019 207.976 200.873C208.044 200.723 208.078 200.538 208.078 200.319ZM208.481 203.696C208.481 203.446 208.44 203.243 208.358 203.088C208.276 202.928 208.096 202.783 207.818 202.65C207.645 202.568 207.458 202.521 207.258 202.507C207.057 202.489 206.779 202.479 206.424 202.479H204.776V204.975H205.993C206.504 204.975 206.896 204.959 207.169 204.927C207.447 204.89 207.686 204.815 207.887 204.701C208.087 204.587 208.235 204.448 208.331 204.284C208.431 204.12 208.481 203.924 208.481 203.696ZM45.5674 220.689C45.5674 221.059 45.4922 221.387 45.3418 221.674C45.196 221.961 44.9932 222.2 44.7334 222.392C44.4417 222.606 44.1227 222.761 43.7764 222.856C43.4346 222.952 42.9834 223 42.4229 223H39.2646V215.364H42.2178C42.7874 215.364 43.2158 215.385 43.5029 215.426C43.7946 215.462 44.068 215.547 44.3232 215.679C44.6104 215.829 44.82 216.025 44.9521 216.267C45.0889 216.508 45.1572 216.793 45.1572 217.121C45.1572 217.499 45.0501 217.827 44.8359 218.105C44.6217 218.383 44.346 218.6 44.0088 218.755V218.823C44.46 218.933 44.8314 219.145 45.123 219.459C45.4193 219.769 45.5674 220.179 45.5674 220.689ZM43.8379 217.319C43.8379 217.155 43.8014 217.007 43.7285 216.875C43.6602 216.743 43.5531 216.64 43.4072 216.567C43.2158 216.472 42.9993 216.419 42.7578 216.41C42.5208 216.396 42.2269 216.39 41.876 216.39H40.5361V218.481H42.1426C42.4798 218.481 42.7282 218.47 42.8877 218.447C43.0518 218.42 43.2158 218.356 43.3799 218.256C43.5531 218.146 43.6715 218.019 43.7354 217.873C43.8037 217.723 43.8379 217.538 43.8379 217.319ZM44.2412 220.696C44.2412 220.446 44.2002 220.243 44.1182 220.088C44.0361 219.928 43.8561 219.783 43.5781 219.65C43.4049 219.568 43.2181 219.521 43.0176 219.507C42.8171 219.489 42.5391 219.479 42.1836 219.479H40.5361V221.975H41.7529C42.2633 221.975 42.6553 221.959 42.9287 221.927C43.2067 221.89 43.446 221.815 43.6465 221.701C43.847 221.587 43.9951 221.448 44.0908 221.284C44.1911 221.12 44.2412 220.924 44.2412 220.696ZM60.2988 219.849C60.2988 220.341 60.2008 220.787 60.0049 221.188C59.8135 221.59 59.556 221.915 59.2324 222.166C58.8496 222.467 58.4395 222.681 58.002 222.809C57.5645 222.936 56.9993 223 56.3066 223H52.6152V212.821H59.4307V214.024H53.9688V216.813H56.3477C57.0404 216.813 57.6055 216.854 58.043 216.937C58.4805 217.014 58.8929 217.203 59.2803 217.504C59.6266 217.773 59.8818 218.105 60.0459 218.502C60.2145 218.898 60.2988 219.347 60.2988 219.849ZM58.8838 219.876C58.8838 219.534 58.8268 219.233 58.7129 218.974C58.599 218.714 58.4212 218.504 58.1797 218.345C57.929 218.176 57.6396 218.074 57.3115 218.037C56.9834 218.001 56.5208 217.982 55.9238 217.982H53.9688V221.845H55.8896C56.4958 221.845 56.9606 221.815 57.2842 221.756C57.6123 221.697 57.8994 221.583 58.1455 221.414C58.4007 221.236 58.5876 221.029 58.7061 220.792C58.8245 220.55 58.8838 220.245 58.8838 219.876ZM68.543 223H67.2715V217.265L63.2725 223H62.1104V215.364H63.3818V221.018L67.3398 215.364H68.543V223ZM76.3906 220.86C76.3906 221.289 76.2904 221.651 76.0898 221.947C75.8939 222.243 75.641 222.483 75.3311 222.665C75.0212 222.843 74.6794 222.973 74.3057 223.055C73.932 223.137 73.5583 223.178 73.1846 223.178C72.6559 223.178 72.1523 223.128 71.6738 223.027C71.1953 222.927 70.7236 222.772 70.2588 222.562V221.154H70.3477C70.6803 221.446 71.1042 221.672 71.6191 221.831C72.1341 221.991 72.6331 222.07 73.1162 222.07C73.3441 222.07 73.5788 222.05 73.8203 222.009C74.0618 221.963 74.2715 221.893 74.4492 221.797C74.6406 221.688 74.7933 221.558 74.9072 221.407C75.0212 221.252 75.0781 221.043 75.0781 220.778C75.0781 220.505 75.0212 220.286 74.9072 220.122C74.7979 219.958 74.6475 219.835 74.4561 219.753C74.2692 219.671 74.0436 219.621 73.7793 219.603C73.515 219.584 73.2734 219.575 73.0547 219.575H71.9404V218.468H72.7129C72.8952 218.468 73.1322 218.461 73.4238 218.447C73.7201 218.434 73.9593 218.397 74.1416 218.338C74.3786 218.26 74.5654 218.151 74.7021 218.01C74.8434 217.868 74.9141 217.643 74.9141 217.333C74.9141 217.119 74.8594 216.943 74.75 216.807C74.6406 216.665 74.5039 216.556 74.3398 216.479C74.1712 216.401 73.9821 216.349 73.7725 216.321C73.5674 216.294 73.3851 216.28 73.2256 216.28C72.7607 216.28 72.3027 216.344 71.8516 216.472C71.4049 216.595 71.029 216.775 70.7236 217.012H70.6348V215.597C71.013 215.474 71.4186 215.373 71.8516 215.296C72.2845 215.218 72.7174 215.18 73.1504 215.18C73.5059 215.18 73.859 215.212 74.21 215.275C74.5654 215.339 74.8958 215.449 75.2012 215.604C75.502 215.758 75.748 215.97 75.9395 216.239C76.1309 216.504 76.2266 216.832 76.2266 217.224C76.2266 217.625 76.1012 217.978 75.8506 218.283C75.6045 218.584 75.2718 218.8 74.8525 218.933V218.98C75.3219 219.094 75.6956 219.309 75.9736 219.623C76.2516 219.933 76.3906 220.345 76.3906 220.86ZM84.8125 223H83.5273V219.562H79.7061V223H78.4209V215.364H79.7061V218.454H83.5273V215.364H84.8125V223ZM93.7402 219.315H88.1143C88.1143 219.785 88.1849 220.195 88.3262 220.546C88.4674 220.892 88.6611 221.177 88.9072 221.4C89.1442 221.619 89.4245 221.783 89.748 221.893C90.0762 222.002 90.4362 222.057 90.8281 222.057C91.3477 222.057 91.8695 221.954 92.3936 221.749C92.9222 221.539 93.2982 221.334 93.5215 221.134H93.5898V222.535C93.1569 222.717 92.7148 222.87 92.2637 222.993C91.8125 223.116 91.3385 223.178 90.8418 223.178C89.5749 223.178 88.5859 222.836 87.875 222.152C87.1641 221.464 86.8086 220.489 86.8086 219.227C86.8086 217.978 87.1481 216.987 87.8271 216.253C88.5107 215.519 89.4085 215.152 90.5205 215.152C91.5505 215.152 92.3434 215.453 92.8994 216.055C93.46 216.656 93.7402 217.511 93.7402 218.618V219.315ZM92.4893 218.331C92.4847 217.657 92.3138 217.135 91.9766 216.766C91.6439 216.396 91.1357 216.212 90.4521 216.212C89.764 216.212 89.2148 216.415 88.8047 216.82C88.3991 217.226 88.1689 217.729 88.1143 218.331H92.4893ZM101.403 222.521C100.879 222.768 100.428 222.936 100.05 223.027C99.6761 223.123 99.3024 223.171 98.9287 223.171C98.3727 223.171 97.8623 223.091 97.3975 222.932C96.9326 222.768 96.5339 222.521 96.2012 222.193C95.8685 221.865 95.6087 221.451 95.4219 220.949C95.2396 220.448 95.1484 219.862 95.1484 219.192C95.1484 217.976 95.4857 217.005 96.1602 216.28C96.8346 215.551 97.7575 215.187 98.9287 215.187C99.3708 215.187 99.8037 215.248 100.228 215.371C100.656 215.494 101.048 215.645 101.403 215.822V217.251H101.328C100.904 216.927 100.485 216.688 100.07 216.533C99.6602 216.378 99.2614 216.301 98.874 216.301C98.113 216.301 97.5228 216.556 97.1035 217.066C96.6888 217.577 96.4814 218.285 96.4814 219.192C96.4814 220.099 96.6888 220.803 97.1035 221.305C97.5182 221.806 98.1084 222.057 98.874 222.057C99.1429 222.057 99.4095 222.022 99.6738 221.954C99.9427 221.886 100.187 221.797 100.405 221.688C100.578 221.601 100.756 221.498 100.938 221.38C101.125 221.257 101.255 221.166 101.328 221.106H101.403V222.521Z" fill="#333333"/>
</svg>
