<svg width="228" height="239" viewBox="0 0 228 239" fill="none" xmlns="http://www.w3.org/2000/svg">
<path d="M14.2578 15.332C14.2578 16.0417 14.1211 16.696 13.8477 17.2949C13.5807 17.8874 13.2129 18.3724 12.7441 18.75C12.1517 19.2253 11.5332 19.554 10.8887 19.7363C10.2507 19.9121 9.47591 20 8.56445 20H1.85547V5.45898H13.1543V8.27148H5.58594V10.8789H8.62305C9.63867 10.8789 10.4688 10.9538 11.1133 11.1035C11.7578 11.2467 12.3275 11.5137 12.8223 11.9043C13.3236 12.2949 13.6882 12.7897 13.916 13.3887C14.1439 13.9811 14.2578 14.6289 14.2578 15.332ZM10.3809 15.4395C10.3809 15.1986 10.3548 14.9707 10.3027 14.7559C10.2507 14.541 10.1367 14.3424 9.96094 14.1602C9.78516 13.9844 9.54427 13.8444 9.23828 13.7402C8.93229 13.6361 8.50911 13.584 7.96875 13.584H5.58594V17.2852H7.96875C8.37891 17.2852 8.74674 17.2331 9.07227 17.1289C9.4043 17.0247 9.6582 16.8913 9.83398 16.7285C10.0098 16.5723 10.1432 16.3867 10.2344 16.1719C10.332 15.9505 10.3809 15.7064 10.3809 15.4395ZM27.9004 20H24.4922V13.291L19.7266 20H16.8164V9.0332H20.2246V15.0391L24.6387 9.0332H27.9004V20ZM40.4297 16.8945C40.4297 17.5195 40.2767 18.0566 39.9707 18.5059C39.6647 18.9486 39.2513 19.3034 38.7305 19.5703C38.2031 19.8372 37.6172 20.026 36.9727 20.1367C36.3281 20.2474 35.6413 20.3027 34.9121 20.3027C33.9551 20.3027 33.1055 20.2214 32.3633 20.0586C31.6276 19.8958 30.9082 19.694 30.2051 19.4531V16.7871H30.5957C31.11 17.0736 31.6862 17.3242 32.3242 17.5391C32.9622 17.7474 33.6133 17.8516 34.2773 17.8516C34.5247 17.8516 34.8177 17.8353 35.1562 17.8027C35.5013 17.7702 35.7747 17.7148 35.9766 17.6367C36.25 17.5326 36.4551 17.4121 36.5918 17.2754C36.735 17.1387 36.8066 16.9206 36.8066 16.6211C36.8066 16.3411 36.7415 16.123 36.6113 15.9668C36.4876 15.8105 36.3151 15.6966 36.0938 15.625C35.9049 15.5599 35.6641 15.5176 35.3711 15.498C35.0846 15.4785 34.7201 15.4688 34.2773 15.4688H32.5977V13.2422H33.9453C34.2057 13.2422 34.515 13.2389 34.873 13.2324C35.2376 13.2259 35.5241 13.1966 35.7324 13.1445C36.0384 13.0729 36.2565 12.959 36.3867 12.8027C36.5234 12.6465 36.5918 12.4447 36.5918 12.1973C36.5918 11.9954 36.5234 11.8262 36.3867 11.6895C36.25 11.5527 36.071 11.4453 35.8496 11.3672C35.6608 11.3021 35.4395 11.2533 35.1855 11.2207C34.9316 11.1882 34.6647 11.1719 34.3848 11.1719C33.9225 11.1719 33.3822 11.2533 32.7637 11.416C32.1517 11.5788 31.6081 11.7806 31.1328 12.0215H30.752V9.39453C31.1556 9.27083 31.7546 9.1276 32.5488 8.96484C33.3496 8.80208 34.1667 8.7207 35 8.7207C35.7292 8.7207 36.3932 8.77604 36.9922 8.88672C37.5911 8.9974 38.1217 9.16341 38.584 9.38477C39.0723 9.62565 39.4661 9.93815 39.7656 10.3223C40.0651 10.7064 40.2148 11.1849 40.2148 11.7578C40.2148 12.3438 40.013 12.8678 39.6094 13.3301C39.2122 13.7923 38.7337 14.1016 38.1738 14.2578V14.3457C38.8184 14.515 39.3555 14.8112 39.7852 15.2344C40.2148 15.651 40.4297 16.2044 40.4297 16.8945ZM54.0625 20H50.5469V15.3223H46.5039V20H42.9883V9.0332H46.5039V12.8125H50.5469V9.0332H54.0625V20ZM68.1836 15.166H60.1367C60.1888 16.0254 60.5143 16.6829 61.1133 17.1387C61.7188 17.5944 62.6074 17.8223 63.7793 17.8223C64.5215 17.8223 65.2409 17.6888 65.9375 17.4219C66.6341 17.1549 67.1842 16.8685 67.5879 16.5625H67.9785V19.3848C67.1842 19.7038 66.4355 19.9349 65.7324 20.0781C65.0293 20.2214 64.2513 20.293 63.3984 20.293C61.1979 20.293 59.5117 19.7982 58.3398 18.8086C57.168 17.819 56.582 16.4095 56.582 14.5801C56.582 12.7702 57.1354 11.3379 58.2422 10.2832C59.3555 9.22201 60.8789 8.69141 62.8125 8.69141C64.5964 8.69141 65.9375 9.14388 66.8359 10.0488C67.7344 10.9473 68.1836 12.2428 68.1836 13.9355V15.166ZM64.6875 13.1055C64.668 12.3698 64.4857 11.8164 64.1406 11.4453C63.7956 11.0742 63.2585 10.8887 62.5293 10.8887C61.8522 10.8887 61.2956 11.0645 60.8594 11.416C60.4232 11.7676 60.179 12.3307 60.127 13.1055H64.6875ZM76.377 20.293C75.4199 20.293 74.5443 20.179 73.75 19.9512C72.9622 19.7233 72.2754 19.3717 71.6895 18.8965C71.11 18.4212 70.6608 17.8223 70.3418 17.0996C70.0228 16.377 69.8633 15.5306 69.8633 14.5605C69.8633 13.5384 70.0326 12.6562 70.3711 11.9141C70.7161 11.1719 71.1947 10.5566 71.8066 10.0684C72.3991 9.60612 73.0827 9.26758 73.8574 9.05273C74.6322 8.83789 75.4362 8.73047 76.2695 8.73047C77.0182 8.73047 77.7083 8.81185 78.3398 8.97461C78.9714 9.13737 79.5605 9.34896 80.1074 9.60938V12.6074H79.6094C79.4727 12.4902 79.3066 12.3535 79.1113 12.1973C78.9225 12.041 78.6882 11.888 78.4082 11.7383C78.1413 11.5951 77.8483 11.4779 77.5293 11.3867C77.2103 11.2891 76.8392 11.2402 76.416 11.2402C75.4785 11.2402 74.7559 11.5397 74.248 12.1387C73.7467 12.7311 73.4961 13.5384 73.4961 14.5605C73.4961 15.6152 73.7533 16.416 74.2676 16.9629C74.7884 17.5098 75.5241 17.7832 76.4746 17.7832C76.9173 17.7832 77.3145 17.7344 77.666 17.6367C78.0241 17.5326 78.3203 17.4121 78.5547 17.2754C78.776 17.1452 78.9714 17.0085 79.1406 16.8652C79.3099 16.722 79.4661 16.582 79.6094 16.4453H80.1074V19.4434C79.554 19.7038 78.9746 19.9089 78.3691 20.0586C77.7702 20.2148 77.1061 20.293 76.377 20.293ZM102.471 5.45898L97.1777 17.0898C96.8717 17.7604 96.5202 18.3008 96.123 18.7109C95.7259 19.1211 95.3158 19.4238 94.8926 19.6191C94.4694 19.821 94.0495 19.9512 93.6328 20.0098C93.2227 20.0684 92.8125 20.0977 92.4023 20.0977C91.9466 20.0977 91.4062 20.0846 90.7812 20.0586C90.1562 20.0391 89.7428 20.0195 89.541 20V16.8262H89.7656C89.9023 16.8652 90.1432 16.9076 90.4883 16.9531C90.8333 16.9922 91.1751 17.0117 91.5137 17.0117C92.1582 17.0117 92.679 16.9499 93.0762 16.8262C93.4798 16.7025 93.7272 16.5397 93.8184 16.3379L87.9102 5.45898H91.9824L95.5957 12.3535L98.5742 5.45898H102.471ZM115.293 20H111.777V11.416H107.734V20H104.219V9.0332H115.293V20ZM130.059 14.3652C130.059 15.2702 129.919 16.0938 129.639 16.8359C129.365 17.5781 129.004 18.1901 128.555 18.6719C128.086 19.1797 127.555 19.5638 126.963 19.8242C126.37 20.0846 125.736 20.2148 125.059 20.2148C124.434 20.2148 123.903 20.1465 123.467 20.0098C123.031 19.8796 122.585 19.694 122.129 19.4531V24.0234H118.613V9.0332H122.129V10.1758C122.669 9.74609 123.219 9.39779 123.779 9.13086C124.346 8.86393 124.997 8.73047 125.732 8.73047C127.1 8.73047 128.161 9.23177 128.916 10.2344C129.678 11.237 130.059 12.6139 130.059 14.3652ZM126.436 14.4336C126.436 13.3659 126.253 12.5911 125.889 12.1094C125.524 11.6276 124.948 11.3867 124.16 11.3867C123.828 11.3867 123.486 11.4388 123.135 11.543C122.783 11.6406 122.448 11.7839 122.129 11.9727V17.4902C122.363 17.5814 122.614 17.64 122.881 17.666C123.148 17.6921 123.411 17.7051 123.672 17.7051C124.603 17.7051 125.296 17.4349 125.752 16.8945C126.208 16.3477 126.436 15.5273 126.436 14.4336ZM139.238 17.1387V14.8535C138.763 14.8926 138.249 14.9479 137.695 15.0195C137.142 15.0846 136.722 15.1628 136.436 15.2539C136.084 15.3646 135.814 15.5273 135.625 15.7422C135.443 15.9505 135.352 16.2272 135.352 16.5723C135.352 16.8001 135.371 16.9857 135.41 17.1289C135.449 17.2721 135.547 17.4089 135.703 17.5391C135.853 17.6693 136.032 17.7669 136.24 17.832C136.449 17.8906 136.774 17.9199 137.217 17.9199C137.568 17.9199 137.923 17.8483 138.281 17.7051C138.646 17.5618 138.965 17.373 139.238 17.1387ZM139.238 18.8379C139.049 18.9811 138.815 19.1536 138.535 19.3555C138.255 19.5573 137.992 19.7168 137.744 19.834C137.399 19.9902 137.041 20.1042 136.67 20.1758C136.299 20.2539 135.892 20.293 135.449 20.293C134.408 20.293 133.535 19.9707 132.832 19.3262C132.129 18.6816 131.777 17.8581 131.777 16.8555C131.777 16.0547 131.956 15.4004 132.314 14.8926C132.673 14.3848 133.18 13.9844 133.838 13.6914C134.489 13.3984 135.296 13.1901 136.26 13.0664C137.223 12.9427 138.223 12.8516 139.258 12.793V12.7344C139.258 12.1289 139.01 11.7122 138.516 11.4844C138.021 11.25 137.292 11.1328 136.328 11.1328C135.749 11.1328 135.13 11.237 134.473 11.4453C133.815 11.6471 133.343 11.8034 133.057 11.9141H132.734V9.26758C133.105 9.16992 133.708 9.05599 134.541 8.92578C135.381 8.78906 136.221 8.7207 137.061 8.7207C139.059 8.7207 140.501 9.02995 141.387 9.64844C142.279 10.2604 142.725 11.224 142.725 12.5391V20H139.238V18.8379ZM156.953 16.6895C156.953 17.2168 156.846 17.6855 156.631 18.0957C156.423 18.5059 156.143 18.8477 155.791 19.1211C155.348 19.4661 154.88 19.7005 154.385 19.8242C153.896 19.9414 153.314 20 152.637 20H145.957V9.0332H152.354C153.154 9.0332 153.743 9.05924 154.121 9.11133C154.499 9.16341 154.87 9.29036 155.234 9.49219C155.618 9.70052 155.905 9.97721 156.094 10.3223C156.289 10.6673 156.387 11.0775 156.387 11.5527C156.387 12.0931 156.23 12.5684 155.918 12.9785C155.612 13.3822 155.241 13.6914 154.805 13.9062V14.0137C155.41 14.1634 155.918 14.4661 156.328 14.9219C156.745 15.3711 156.953 15.9603 156.953 16.6895ZM152.842 12.334C152.842 11.9303 152.718 11.6439 152.471 11.4746C152.23 11.3053 151.839 11.2207 151.299 11.2207H149.443V13.4082H151.357C151.833 13.4082 152.197 13.3138 152.451 13.125C152.712 12.9297 152.842 12.666 152.842 12.334ZM153.33 16.582C153.33 16.1068 153.193 15.7747 152.92 15.5859C152.653 15.3906 152.256 15.293 151.729 15.293H149.443V17.8027H151.787C152.269 17.8027 152.646 17.6953 152.92 17.4805C153.193 17.2591 153.33 16.9596 153.33 16.582ZM170.381 20H166.865V11.4844H163.965C163.945 11.9727 163.929 12.3535 163.916 12.627C163.91 12.8939 163.9 13.2064 163.887 13.5645C163.841 14.6126 163.753 15.4655 163.623 16.123C163.493 16.7806 163.327 17.3177 163.125 17.7344C162.93 18.1576 162.718 18.4928 162.49 18.7402C162.269 18.9876 162.044 19.2025 161.816 19.3848C161.556 19.5931 161.214 19.7591 160.791 19.8828C160.374 20.0065 159.971 20.0684 159.58 20.0684C159.274 20.0684 158.965 20.0553 158.652 20.0293C158.34 20.0098 158.154 20 158.096 20V17.1875H158.203C158.229 17.1875 158.275 17.1908 158.34 17.1973C158.405 17.2038 158.47 17.207 158.535 17.207C158.704 17.207 158.877 17.1908 159.053 17.1582C159.235 17.1257 159.385 17.054 159.502 16.9434C159.938 16.5267 160.228 16.0059 160.371 15.3809C160.521 14.7493 160.628 13.8184 160.693 12.5879C160.719 12.1322 160.745 11.6113 160.771 11.0254C160.798 10.4395 160.82 9.77539 160.84 9.0332H170.381V20ZM184.512 15.166H176.465C176.517 16.0254 176.842 16.6829 177.441 17.1387C178.047 17.5944 178.936 17.8223 180.107 17.8223C180.85 17.8223 181.569 17.6888 182.266 17.4219C182.962 17.1549 183.512 16.8685 183.916 16.5625H184.307V19.3848C183.512 19.7038 182.764 19.9349 182.061 20.0781C181.357 20.2214 180.579 20.293 179.727 20.293C177.526 20.293 175.84 19.7982 174.668 18.8086C173.496 17.819 172.91 16.4095 172.91 14.5801C172.91 12.7702 173.464 11.3379 174.57 10.2832C175.684 9.22201 177.207 8.69141 179.141 8.69141C180.924 8.69141 182.266 9.14388 183.164 10.0488C184.062 10.9473 184.512 12.2428 184.512 13.9355V15.166ZM181.016 13.1055C180.996 12.3698 180.814 11.8164 180.469 11.4453C180.124 11.0742 179.587 10.8887 178.857 10.8887C178.18 10.8887 177.624 11.0645 177.188 11.416C176.751 11.7676 176.507 12.3307 176.455 13.1055H181.016ZM198.066 20H194.551V15.3223H190.508V20H186.992V9.0332H190.508V12.8125H194.551V9.0332H198.066V20ZM212.471 20H209.062V13.291L204.297 20H201.387V9.0332H204.795V15.0391L209.209 9.0332H212.471V20ZM226.602 15.166H218.555C218.607 16.0254 218.932 16.6829 219.531 17.1387C220.137 17.5944 221.025 17.8223 222.197 17.8223C222.939 17.8223 223.659 17.6888 224.355 17.4219C225.052 17.1549 225.602 16.8685 226.006 16.5625H226.396V19.3848C225.602 19.7038 224.854 19.9349 224.15 20.0781C223.447 20.2214 222.669 20.293 221.816 20.293C219.616 20.293 217.93 19.7982 216.758 18.8086C215.586 17.819 215 16.4095 215 14.5801C215 12.7702 215.553 11.3379 216.66 10.2832C217.773 9.22201 219.297 8.69141 221.23 8.69141C223.014 8.69141 224.355 9.14388 225.254 10.0488C226.152 10.9473 226.602 12.2428 226.602 13.9355V15.166ZM223.105 13.1055C223.086 12.3698 222.904 11.8164 222.559 11.4453C222.214 11.0742 221.676 10.8887 220.947 10.8887C220.27 10.8887 219.714 11.0645 219.277 11.416C218.841 11.7676 218.597 12.3307 218.545 13.1055H223.105Z" fill="#333333"/>
<path d="M5 47L12.5 54.5L25 39.5" stroke="#61B857" stroke-width="2" stroke-linecap="round" stroke-linejoin="round"/>
<path d="M47.5498 52.5H45.8135L41.6777 47.8584H40.7549V52.5H39.4014V42.3213H40.7549V46.8877C40.9873 46.8831 41.2061 46.8604 41.4111 46.8193C41.6162 46.7783 41.8099 46.7008 41.9922 46.5869C42.1745 46.4821 42.3545 46.334 42.5322 46.1426C42.71 45.9466 42.8672 45.7074 43.0039 45.4248C43.0632 45.3018 43.1315 45.1468 43.209 44.96C43.291 44.7731 43.373 44.5771 43.4551 44.3721C43.7695 43.6156 44.1364 43.0846 44.5557 42.7793C44.9795 42.474 45.6016 42.3213 46.4219 42.3213H46.9619V43.5312H46.3945C46.0801 43.5312 45.834 43.5609 45.6562 43.6201C45.4785 43.6748 45.319 43.7682 45.1777 43.9004C45.0456 44.0189 44.9294 44.1784 44.8291 44.3789C44.7334 44.5794 44.6331 44.8141 44.5283 45.083C44.2913 45.6846 44.0498 46.1266 43.8037 46.4092C43.5622 46.6917 43.2363 46.9378 42.8262 47.1475L47.5498 52.5ZM55.5752 44.8643L51.1182 55.3164H49.7441L51.166 52.1309L48.124 44.8643H49.5186L51.8633 50.5244L54.2285 44.8643H55.5752ZM63.9766 48.5898C63.9766 49.2096 63.8877 49.777 63.71 50.292C63.5322 50.8024 63.2816 51.2354 62.958 51.5908C62.6572 51.9281 62.3018 52.1901 61.8916 52.377C61.486 52.5592 61.0553 52.6504 60.5996 52.6504C60.2031 52.6504 59.8431 52.6071 59.5195 52.5205C59.2005 52.4339 58.8747 52.2995 58.542 52.1172V55.3164H57.2568V44.8643H58.542V45.6641C58.8838 45.377 59.2666 45.1377 59.6904 44.9463C60.1188 44.7503 60.5745 44.6523 61.0576 44.6523C61.9782 44.6523 62.6937 45.001 63.2041 45.6982C63.7191 46.391 63.9766 47.3548 63.9766 48.5898ZM62.6504 48.624C62.6504 47.7035 62.4932 47.0153 62.1787 46.5596C61.8643 46.1038 61.3812 45.876 60.7295 45.876C60.3604 45.876 59.9889 45.9557 59.6152 46.1152C59.2415 46.2747 58.8838 46.4844 58.542 46.7441V51.0713C58.9066 51.2354 59.2188 51.347 59.4785 51.4062C59.7428 51.4655 60.0413 51.4951 60.374 51.4951C61.0895 51.4951 61.6478 51.2536 62.0488 50.7705C62.4499 50.2874 62.6504 49.5719 62.6504 48.624ZM71.6943 52.0215C71.1702 52.2676 70.7191 52.4362 70.3408 52.5273C69.9671 52.623 69.5934 52.6709 69.2197 52.6709C68.6637 52.6709 68.1533 52.5911 67.6885 52.4316C67.2236 52.2676 66.8249 52.0215 66.4922 51.6934C66.1595 51.3652 65.8997 50.9505 65.7129 50.4492C65.5306 49.9479 65.4395 49.3623 65.4395 48.6924C65.4395 47.4756 65.7767 46.5049 66.4512 45.7803C67.1257 45.0511 68.0485 44.6865 69.2197 44.6865C69.6618 44.6865 70.0947 44.748 70.5186 44.8711C70.9469 44.9941 71.3389 45.1445 71.6943 45.3223V46.751H71.6191C71.1953 46.4274 70.776 46.1882 70.3613 46.0332C69.9512 45.8783 69.5524 45.8008 69.165 45.8008C68.404 45.8008 67.8138 46.056 67.3945 46.5664C66.9798 47.0768 66.7725 47.7855 66.7725 48.6924C66.7725 49.5993 66.9798 50.3034 67.3945 50.8047C67.8092 51.306 68.3994 51.5566 69.165 51.5566C69.4339 51.5566 69.7005 51.5225 69.9648 51.4541C70.2337 51.3857 70.4775 51.2969 70.6963 51.1875C70.8695 51.1009 71.0472 50.9984 71.2295 50.8799C71.4163 50.7568 71.5462 50.6657 71.6191 50.6064H71.6943V52.0215ZM82.5156 45.6846H81.5996L79.7471 41.8633H81.3877L82.5156 45.6846ZM79.7539 45.6846H78.8379L76.9854 41.8633H78.626L79.7539 45.6846ZM92.5918 49.3486C92.5918 49.8408 92.4938 50.2874 92.2979 50.6885C92.1064 51.0895 91.849 51.4154 91.5254 51.666C91.1426 51.9668 90.7324 52.181 90.2949 52.3086C89.8574 52.4362 89.2923 52.5 88.5996 52.5H84.9082V42.3213H91.7236V43.5244H86.2617V46.3135H88.6406C89.3333 46.3135 89.8984 46.3545 90.3359 46.4365C90.7734 46.514 91.1859 46.7031 91.5732 47.0039C91.9196 47.2728 92.1748 47.6055 92.3389 48.002C92.5075 48.3984 92.5918 48.8473 92.5918 49.3486ZM91.1768 49.376C91.1768 49.0342 91.1198 48.7334 91.0059 48.4736C90.8919 48.2139 90.7142 48.0042 90.4727 47.8447C90.222 47.6761 89.9326 47.5736 89.6045 47.5371C89.2764 47.5007 88.8138 47.4824 88.2168 47.4824H86.2617V51.3447H88.1826C88.7887 51.3447 89.2536 51.3151 89.5771 51.2559C89.9053 51.1966 90.1924 51.0827 90.4385 50.9141C90.6937 50.7363 90.8805 50.529 90.999 50.292C91.1175 50.0505 91.1768 49.7451 91.1768 49.376ZM100.836 52.5H99.5645V46.7646L95.5654 52.5H94.4033V44.8643H95.6748V50.5176L99.6328 44.8643H100.836V52.5ZM108.684 50.3604C108.684 50.7887 108.583 51.151 108.383 51.4473C108.187 51.7435 107.934 51.9827 107.624 52.165C107.314 52.3428 106.972 52.4727 106.599 52.5547C106.225 52.6367 105.851 52.6777 105.478 52.6777C104.949 52.6777 104.445 52.6276 103.967 52.5273C103.488 52.4271 103.017 52.2721 102.552 52.0625V50.6543H102.641C102.973 50.946 103.397 51.1715 103.912 51.3311C104.427 51.4906 104.926 51.5703 105.409 51.5703C105.637 51.5703 105.872 51.5498 106.113 51.5088C106.355 51.4632 106.564 51.3926 106.742 51.2969C106.934 51.1875 107.086 51.0576 107.2 50.9072C107.314 50.7523 107.371 50.5426 107.371 50.2783C107.371 50.0049 107.314 49.7861 107.2 49.6221C107.091 49.458 106.94 49.335 106.749 49.2529C106.562 49.1709 106.337 49.1208 106.072 49.1025C105.808 49.0843 105.566 49.0752 105.348 49.0752H104.233V47.9678H105.006C105.188 47.9678 105.425 47.9609 105.717 47.9473C106.013 47.9336 106.252 47.8971 106.435 47.8379C106.672 47.7604 106.858 47.651 106.995 47.5098C107.136 47.3685 107.207 47.1429 107.207 46.833C107.207 46.6188 107.152 46.4434 107.043 46.3066C106.934 46.1654 106.797 46.056 106.633 45.9785C106.464 45.901 106.275 45.8486 106.065 45.8213C105.86 45.7939 105.678 45.7803 105.519 45.7803C105.054 45.7803 104.596 45.8441 104.145 45.9717C103.698 46.0947 103.322 46.2747 103.017 46.5117H102.928V45.0967C103.306 44.9736 103.712 44.8734 104.145 44.7959C104.577 44.7184 105.01 44.6797 105.443 44.6797C105.799 44.6797 106.152 44.7116 106.503 44.7754C106.858 44.8392 107.189 44.9486 107.494 45.1035C107.795 45.2585 108.041 45.4704 108.232 45.7393C108.424 46.0036 108.52 46.3317 108.52 46.7236C108.52 47.1247 108.394 47.4779 108.144 47.7832C107.897 48.084 107.565 48.3005 107.146 48.4326V48.4805C107.615 48.5944 107.989 48.8086 108.267 49.123C108.545 49.4329 108.684 49.8454 108.684 50.3604ZM117.105 52.5H115.82V49.0615H111.999V52.5H110.714V44.8643H111.999V47.9541H115.82V44.8643H117.105V52.5ZM126.033 48.8154H120.407C120.407 49.2848 120.478 49.695 120.619 50.0459C120.76 50.3923 120.954 50.6771 121.2 50.9004C121.437 51.1191 121.717 51.2832 122.041 51.3926C122.369 51.502 122.729 51.5566 123.121 51.5566C123.641 51.5566 124.162 51.4541 124.687 51.249C125.215 51.0394 125.591 50.8343 125.814 50.6338H125.883V52.0352C125.45 52.2174 125.008 52.3701 124.557 52.4932C124.105 52.6162 123.632 52.6777 123.135 52.6777C121.868 52.6777 120.879 52.3359 120.168 51.6523C119.457 50.9642 119.102 49.9889 119.102 48.7266C119.102 47.4779 119.441 46.4867 120.12 45.7529C120.804 45.0192 121.701 44.6523 122.813 44.6523C123.843 44.6523 124.636 44.9531 125.192 45.5547C125.753 46.1562 126.033 47.0107 126.033 48.1182V48.8154ZM124.782 47.8311C124.778 47.1566 124.607 46.6348 124.27 46.2656C123.937 45.8965 123.429 45.7119 122.745 45.7119C122.057 45.7119 121.508 45.9147 121.098 46.3203C120.692 46.7259 120.462 47.2295 120.407 47.8311H124.782ZM133.696 52.0215C133.172 52.2676 132.721 52.4362 132.343 52.5273C131.969 52.623 131.595 52.6709 131.222 52.6709C130.666 52.6709 130.155 52.5911 129.69 52.4316C129.226 52.2676 128.827 52.0215 128.494 51.6934C128.161 51.3652 127.902 50.9505 127.715 50.4492C127.533 49.9479 127.441 49.3623 127.441 48.6924C127.441 47.4756 127.779 46.5049 128.453 45.7803C129.128 45.0511 130.05 44.6865 131.222 44.6865C131.664 44.6865 132.097 44.748 132.521 44.8711C132.949 44.9941 133.341 45.1445 133.696 45.3223V46.751H133.621C133.197 46.4274 132.778 46.1882 132.363 46.0332C131.953 45.8783 131.554 45.8008 131.167 45.8008C130.406 45.8008 129.816 46.056 129.396 46.5664C128.982 47.0768 128.774 47.7855 128.774 48.6924C128.774 49.5993 128.982 50.3034 129.396 50.8047C129.811 51.306 130.401 51.5566 131.167 51.5566C131.436 51.5566 131.702 51.5225 131.967 51.4541C132.236 51.3857 132.479 51.2969 132.698 51.1875C132.871 51.1009 133.049 50.9984 133.231 50.8799C133.418 50.7568 133.548 50.6657 133.621 50.6064H133.696V52.0215ZM146.097 52.0215C145.573 52.2676 145.121 52.4362 144.743 52.5273C144.369 52.623 143.996 52.6709 143.622 52.6709C143.066 52.6709 142.556 52.5911 142.091 52.4316C141.626 52.2676 141.227 52.0215 140.895 51.6934C140.562 51.3652 140.302 50.9505 140.115 50.4492C139.933 49.9479 139.842 49.3623 139.842 48.6924C139.842 47.4756 140.179 46.5049 140.854 45.7803C141.528 45.0511 142.451 44.6865 143.622 44.6865C144.064 44.6865 144.497 44.748 144.921 44.8711C145.349 44.9941 145.741 45.1445 146.097 45.3223V46.751H146.021C145.598 46.4274 145.178 46.1882 144.764 46.0332C144.354 45.8783 143.955 45.8008 143.567 45.8008C142.806 45.8008 142.216 46.056 141.797 46.5664C141.382 47.0768 141.175 47.7855 141.175 48.6924C141.175 49.5993 141.382 50.3034 141.797 50.8047C142.212 51.306 142.802 51.5566 143.567 51.5566C143.836 51.5566 144.103 51.5225 144.367 51.4541C144.636 51.3857 144.88 51.2969 145.099 51.1875C145.272 51.1009 145.45 50.9984 145.632 50.8799C145.819 50.7568 145.949 50.6657 146.021 50.6064H146.097V52.0215ZM159.495 47.4072C159.495 49.2347 159.208 50.5768 158.634 51.4336C158.064 52.2858 157.178 52.7119 155.975 52.7119C154.753 52.7119 153.86 52.279 153.295 51.4131C152.734 50.5472 152.454 49.2165 152.454 47.4209C152.454 45.6117 152.739 44.2764 153.309 43.415C153.878 42.5492 154.767 42.1162 155.975 42.1162C157.196 42.1162 158.087 42.556 158.647 43.4355C159.213 44.3105 159.495 45.6344 159.495 47.4072ZM157.697 50.5107C157.857 50.1416 157.964 49.7087 158.019 49.2119C158.078 48.7106 158.107 48.109 158.107 47.4072C158.107 46.7145 158.078 46.113 158.019 45.6025C157.964 45.0921 157.854 44.6592 157.69 44.3037C157.531 43.9528 157.312 43.6885 157.034 43.5107C156.761 43.333 156.408 43.2441 155.975 43.2441C155.546 43.2441 155.191 43.333 154.908 43.5107C154.63 43.6885 154.409 43.9574 154.245 44.3174C154.09 44.6546 153.983 45.0944 153.924 45.6367C153.869 46.179 153.842 46.7738 153.842 47.4209C153.842 48.1318 153.867 48.7266 153.917 49.2051C153.967 49.6836 154.074 50.112 154.238 50.4902C154.389 50.8457 154.601 51.1169 154.874 51.3037C155.152 51.4906 155.519 51.584 155.975 51.584C156.403 51.584 156.758 51.4951 157.041 51.3174C157.324 51.1396 157.542 50.8708 157.697 50.5107ZM166.974 41.8633L165.121 45.6846H164.205L165.333 41.8633H166.974ZM164.212 41.8633L162.359 45.6846H161.443L162.571 41.8633H164.212Z" fill="#333333"/>
<path d="M5 85L12.5 92.5L25 77.5" stroke="#61B857" stroke-width="2" stroke-linecap="round" stroke-linejoin="round"/>
<path d="M47.0508 87.3486C47.0508 87.8408 46.9528 88.2874 46.7568 88.6885C46.5654 89.0895 46.3079 89.4154 45.9844 89.666C45.6016 89.9668 45.1914 90.181 44.7539 90.3086C44.3164 90.4362 43.7513 90.5 43.0586 90.5H39.3672V80.3213H46.1826V81.5244H40.7207V84.3135H43.0996C43.7923 84.3135 44.3574 84.3545 44.7949 84.4365C45.2324 84.514 45.6449 84.7031 46.0322 85.0039C46.3786 85.2728 46.6338 85.6055 46.7979 86.002C46.9665 86.3984 47.0508 86.8473 47.0508 87.3486ZM45.6357 87.376C45.6357 87.0342 45.5788 86.7334 45.4648 86.4736C45.3509 86.2139 45.1732 86.0042 44.9316 85.8447C44.681 85.6761 44.3916 85.5736 44.0635 85.5371C43.7354 85.5007 43.2728 85.4824 42.6758 85.4824H40.7207V89.3447H42.6416C43.2477 89.3447 43.7126 89.3151 44.0361 89.2559C44.3643 89.1966 44.6514 89.0827 44.8975 88.9141C45.1527 88.7363 45.3395 88.529 45.458 88.292C45.5765 88.0505 45.6357 87.7451 45.6357 87.376ZM55.2949 90.5H54.0234V84.7646L50.0244 90.5H48.8623V82.8643H50.1338V88.5176L54.0918 82.8643H55.2949V90.5ZM63.1426 88.3604C63.1426 88.7887 63.0423 89.151 62.8418 89.4473C62.6458 89.7435 62.3929 89.9827 62.083 90.165C61.7731 90.3428 61.4313 90.4727 61.0576 90.5547C60.6839 90.6367 60.3102 90.6777 59.9365 90.6777C59.4079 90.6777 58.9043 90.6276 58.4258 90.5273C57.9473 90.4271 57.4756 90.2721 57.0107 90.0625V88.6543H57.0996C57.4323 88.946 57.8561 89.1715 58.3711 89.3311C58.8861 89.4906 59.3851 89.5703 59.8682 89.5703C60.096 89.5703 60.3307 89.5498 60.5723 89.5088C60.8138 89.4632 61.0234 89.3926 61.2012 89.2969C61.3926 89.1875 61.5452 89.0576 61.6592 88.9072C61.7731 88.7523 61.8301 88.5426 61.8301 88.2783C61.8301 88.0049 61.7731 87.7861 61.6592 87.6221C61.5498 87.458 61.3994 87.335 61.208 87.2529C61.0212 87.1709 60.7956 87.1208 60.5312 87.1025C60.2669 87.0843 60.0254 87.0752 59.8066 87.0752H58.6924V85.9678H59.4648C59.6471 85.9678 59.8841 85.9609 60.1758 85.9473C60.472 85.9336 60.7113 85.8971 60.8936 85.8379C61.1305 85.7604 61.3174 85.651 61.4541 85.5098C61.5954 85.3685 61.666 85.1429 61.666 84.833C61.666 84.6188 61.6113 84.4434 61.502 84.3066C61.3926 84.1654 61.2559 84.056 61.0918 83.9785C60.9232 83.901 60.734 83.8486 60.5244 83.8213C60.3193 83.7939 60.137 83.7803 59.9775 83.7803C59.5127 83.7803 59.0547 83.8441 58.6035 83.9717C58.1569 84.0947 57.7809 84.2747 57.4756 84.5117H57.3867V83.0967C57.765 82.9736 58.1706 82.8734 58.6035 82.7959C59.0365 82.7184 59.4694 82.6797 59.9023 82.6797C60.2578 82.6797 60.611 82.7116 60.9619 82.7754C61.3174 82.8392 61.6478 82.9486 61.9531 83.1035C62.2539 83.2585 62.5 83.4704 62.6914 83.7393C62.8828 84.0036 62.9785 84.3317 62.9785 84.7236C62.9785 85.1247 62.8532 85.4779 62.6025 85.7832C62.3564 86.084 62.0238 86.3005 61.6045 86.4326V86.4805C62.0739 86.5944 62.4476 86.8086 62.7256 87.123C63.0036 87.4329 63.1426 87.8454 63.1426 88.3604ZM71.5645 90.5H70.2793V87.0615H66.458V90.5H65.1729V82.8643H66.458V85.9541H70.2793V82.8643H71.5645V90.5ZM80.4922 86.8154H74.8662C74.8662 87.2848 74.9368 87.695 75.0781 88.0459C75.2194 88.3923 75.4131 88.6771 75.6592 88.9004C75.8962 89.1191 76.1764 89.2832 76.5 89.3926C76.8281 89.502 77.1882 89.5566 77.5801 89.5566C78.0996 89.5566 78.6214 89.4541 79.1455 89.249C79.6742 89.0394 80.0501 88.8343 80.2734 88.6338H80.3418V90.0352C79.9089 90.2174 79.4668 90.3701 79.0156 90.4932C78.5645 90.6162 78.0905 90.6777 77.5938 90.6777C76.3268 90.6777 75.3379 90.3359 74.627 89.6523C73.916 88.9642 73.5605 87.9889 73.5605 86.7266C73.5605 85.4779 73.9001 84.4867 74.5791 83.7529C75.2627 83.0192 76.1605 82.6523 77.2725 82.6523C78.3024 82.6523 79.0954 82.9531 79.6514 83.5547C80.2119 84.1562 80.4922 85.0107 80.4922 86.1182V86.8154ZM79.2412 85.8311C79.2367 85.1566 79.0658 84.6348 78.7285 84.2656C78.3958 83.8965 77.8877 83.7119 77.2041 83.7119C76.516 83.7119 75.9668 83.9147 75.5566 84.3203C75.151 84.7259 74.9209 85.2295 74.8662 85.8311H79.2412ZM88.1553 90.0215C87.6312 90.2676 87.18 90.4362 86.8018 90.5273C86.4281 90.623 86.0544 90.6709 85.6807 90.6709C85.1247 90.6709 84.6143 90.5911 84.1494 90.4316C83.6846 90.2676 83.2858 90.0215 82.9531 89.6934C82.6204 89.3652 82.3607 88.9505 82.1738 88.4492C81.9915 87.9479 81.9004 87.3623 81.9004 86.6924C81.9004 85.4756 82.2376 84.5049 82.9121 83.7803C83.5866 83.0511 84.5094 82.6865 85.6807 82.6865C86.1227 82.6865 86.5557 82.748 86.9795 82.8711C87.4079 82.9941 87.7998 83.1445 88.1553 83.3223V84.751H88.0801C87.6562 84.4274 87.237 84.1882 86.8223 84.0332C86.4121 83.8783 86.0133 83.8008 85.626 83.8008C84.8649 83.8008 84.2747 84.056 83.8555 84.5664C83.4408 85.0768 83.2334 85.7855 83.2334 86.6924C83.2334 87.5993 83.4408 88.3034 83.8555 88.8047C84.2702 89.306 84.8604 89.5566 85.626 89.5566C85.8949 89.5566 86.1615 89.5225 86.4258 89.4541C86.6947 89.3857 86.9385 89.2969 87.1572 89.1875C87.3304 89.1009 87.5081 88.9984 87.6904 88.8799C87.8773 88.7568 88.0072 88.6657 88.0801 88.6064H88.1553V90.0215ZM103.126 90.5H101.39L97.2539 85.8584H96.3311V90.5H94.9775V80.3213H96.3311V84.8877C96.5635 84.8831 96.7822 84.8604 96.9873 84.8193C97.1924 84.7783 97.3861 84.7008 97.5684 84.5869C97.7507 84.4821 97.9307 84.334 98.1084 84.1426C98.2861 83.9466 98.4434 83.7074 98.5801 83.4248C98.6393 83.3018 98.7077 83.1468 98.7852 82.96C98.8672 82.7731 98.9492 82.5771 99.0312 82.3721C99.3457 81.6156 99.7126 81.0846 100.132 80.7793C100.556 80.474 101.178 80.3213 101.998 80.3213H102.538V81.5312H101.971C101.656 81.5312 101.41 81.5609 101.232 81.6201C101.055 81.6748 100.895 81.7682 100.754 81.9004C100.622 82.0189 100.506 82.1784 100.405 82.3789C100.31 82.5794 100.209 82.8141 100.104 83.083C99.8675 83.6846 99.626 84.1266 99.3799 84.4092C99.1383 84.6917 98.8125 84.9378 98.4023 85.1475L103.126 90.5ZM111.056 86.6855C111.056 87.9297 110.737 88.9118 110.099 89.6318C109.461 90.3519 108.606 90.7119 107.535 90.7119C106.455 90.7119 105.596 90.3519 104.958 89.6318C104.325 88.9118 104.008 87.9297 104.008 86.6855C104.008 85.4414 104.325 84.4593 104.958 83.7393C105.596 83.0146 106.455 82.6523 107.535 82.6523C108.606 82.6523 109.461 83.0146 110.099 83.7393C110.737 84.4593 111.056 85.4414 111.056 86.6855ZM109.729 86.6855C109.729 85.6966 109.536 84.9629 109.148 84.4844C108.761 84.0013 108.223 83.7598 107.535 83.7598C106.838 83.7598 106.296 84.0013 105.908 84.4844C105.525 84.9629 105.334 85.6966 105.334 86.6855C105.334 87.6426 105.528 88.3695 105.915 88.8662C106.302 89.3584 106.842 89.6045 107.535 89.6045C108.219 89.6045 108.754 89.3607 109.142 88.873C109.534 88.3809 109.729 87.6517 109.729 86.6855ZM119.443 90.5H118.158V87.0615H114.337V90.5H113.052V82.8643H114.337V85.9541H118.158V82.8643H119.443V90.5ZM127.694 90.0215C127.17 90.2676 126.719 90.4362 126.341 90.5273C125.967 90.623 125.593 90.6709 125.22 90.6709C124.664 90.6709 124.153 90.5911 123.688 90.4316C123.224 90.2676 122.825 90.0215 122.492 89.6934C122.16 89.3652 121.9 88.9505 121.713 88.4492C121.531 87.9479 121.439 87.3623 121.439 86.6924C121.439 85.4756 121.777 84.5049 122.451 83.7803C123.126 83.0511 124.049 82.6865 125.22 82.6865C125.662 82.6865 126.095 82.748 126.519 82.8711C126.947 82.9941 127.339 83.1445 127.694 83.3223V84.751H127.619C127.195 84.4274 126.776 84.1882 126.361 84.0332C125.951 83.8783 125.552 83.8008 125.165 83.8008C124.404 83.8008 123.814 84.056 123.395 84.5664C122.98 85.0768 122.772 85.7855 122.772 86.6924C122.772 87.5993 122.98 88.3034 123.395 88.8047C123.809 89.306 124.399 89.5566 125.165 89.5566C125.434 89.5566 125.701 89.5225 125.965 89.4541C126.234 89.3857 126.478 89.2969 126.696 89.1875C126.869 89.1009 127.047 88.9984 127.229 88.8799C127.416 88.7568 127.546 88.6657 127.619 88.6064H127.694V90.0215ZM136.062 82.8643L131.604 93.3164H130.23L131.652 90.1309L128.61 82.8643H130.005L132.35 88.5244L134.715 82.8643H136.062ZM143.902 90.5H142.617V83.9443H139.767C139.753 84.3226 139.739 84.6872 139.726 85.0381C139.712 85.389 139.698 85.7057 139.685 85.9883C139.653 86.7493 139.6 87.3577 139.527 87.8135C139.454 88.2646 139.359 88.6406 139.24 88.9414C139.131 89.224 139.008 89.4541 138.871 89.6318C138.739 89.805 138.595 89.9622 138.44 90.1035C138.285 90.2402 138.112 90.3428 137.921 90.4111C137.734 90.4795 137.529 90.5137 137.306 90.5137C137.228 90.5137 137.114 90.5114 136.964 90.5068C136.818 90.5023 136.722 90.5 136.677 90.5V89.3789H136.745C136.782 89.3789 136.834 89.3812 136.902 89.3857C136.971 89.3903 137.028 89.3926 137.073 89.3926C137.183 89.3926 137.294 89.3766 137.408 89.3447C137.527 89.3128 137.627 89.2536 137.709 89.167C137.941 88.9391 138.128 88.554 138.27 88.0117C138.411 87.4694 138.504 86.6855 138.55 85.6602C138.568 85.2865 138.584 84.8444 138.598 84.334C138.616 83.819 138.632 83.3291 138.646 82.8643H143.902V90.5ZM151.21 88.1553C151.21 87.9229 151.169 87.7201 151.087 87.5469C151.009 87.3691 150.88 87.2256 150.697 87.1162C150.506 87.0023 150.287 86.9339 150.041 86.9111C149.799 86.8883 149.451 86.877 148.995 86.877H147.724V89.4746H148.968C149.424 89.4746 149.777 89.4564 150.027 89.4199C150.278 89.3789 150.494 89.3037 150.677 89.1943C150.864 89.0758 150.998 88.9368 151.08 88.7773C151.167 88.6133 151.21 88.4059 151.21 88.1553ZM152.536 88.1348C152.536 88.5039 152.461 88.8389 152.311 89.1396C152.165 89.4404 151.964 89.6842 151.709 89.8711C151.408 90.099 151.087 90.2607 150.745 90.3564C150.403 90.4521 149.964 90.5 149.426 90.5H146.438V82.8643H147.724V85.8379H149.46C150.034 85.8379 150.479 85.8675 150.793 85.9268C151.112 85.986 151.429 86.1318 151.743 86.3643C152.007 86.5602 152.206 86.8109 152.338 87.1162C152.47 87.4215 152.536 87.7611 152.536 88.1348ZM160.049 83.9922H157.287V90.5H156.002V83.9922H153.24V82.8643H160.049V83.9922ZM167.315 90.5H166.037V89.6865C165.923 89.764 165.768 89.8734 165.572 90.0146C165.381 90.1514 165.194 90.2607 165.012 90.3428C164.798 90.4476 164.551 90.5342 164.273 90.6025C163.995 90.6755 163.67 90.7119 163.296 90.7119C162.608 90.7119 162.024 90.484 161.546 90.0283C161.067 89.5726 160.828 88.9915 160.828 88.2852C160.828 87.7064 160.951 87.2393 161.197 86.8838C161.448 86.5238 161.803 86.2412 162.264 86.0361C162.729 85.8311 163.287 85.6921 163.938 85.6191C164.59 85.5462 165.29 85.4915 166.037 85.4551V85.2568C166.037 84.9652 165.985 84.7236 165.88 84.5322C165.78 84.3408 165.634 84.1904 165.442 84.0811C165.26 83.9762 165.041 83.9056 164.786 83.8691C164.531 83.8327 164.264 83.8145 163.986 83.8145C163.649 83.8145 163.273 83.86 162.858 83.9512C162.444 84.0378 162.015 84.1654 161.573 84.334H161.505V83.0283C161.756 82.96 162.118 82.8848 162.592 82.8027C163.066 82.7207 163.533 82.6797 163.993 82.6797C164.531 82.6797 164.998 82.7253 165.395 82.8164C165.796 82.903 166.142 83.0534 166.434 83.2676C166.721 83.4772 166.939 83.7484 167.09 84.0811C167.24 84.4137 167.315 84.8262 167.315 85.3184V90.5ZM166.037 88.6201V86.4941C165.645 86.5169 165.183 86.5511 164.649 86.5967C164.121 86.6423 163.701 86.7083 163.392 86.7949C163.022 86.8997 162.724 87.0638 162.496 87.2871C162.268 87.5059 162.154 87.8089 162.154 88.1963C162.154 88.6338 162.286 88.9642 162.551 89.1875C162.815 89.4062 163.218 89.5156 163.761 89.5156C164.212 89.5156 164.624 89.429 164.998 89.2559C165.372 89.0781 165.718 88.8662 166.037 88.6201ZM175.847 90.5H169.79V82.8643H171.075V89.3926H174.835V82.8643H176.12V89.3926H177.043V92.332H175.847V90.5ZM185.246 90.5H183.975V84.7646L179.976 90.5H178.813V82.8643H180.085V88.5176L184.043 82.8643H185.246V90.5ZM193.647 90.5H192.362V87.4717H190.852L188.486 90.5H186.976L189.546 87.3486C188.885 87.1663 188.402 86.8883 188.097 86.5146C187.791 86.1364 187.639 85.6419 187.639 85.0312C187.639 84.6257 187.73 84.2816 187.912 83.999C188.094 83.7165 188.325 83.4863 188.603 83.3086C188.876 83.1354 189.19 83.0192 189.546 82.96C189.901 82.8962 190.289 82.8643 190.708 82.8643H193.647V90.5ZM192.362 86.46V83.8896H190.742C190.391 83.8896 190.138 83.901 189.983 83.9238C189.828 83.9466 189.66 84.0081 189.478 84.1084C189.3 84.2087 189.168 84.3454 189.081 84.5186C188.999 84.6872 188.958 84.8717 188.958 85.0723C188.958 85.3229 188.983 85.5257 189.033 85.6807C189.088 85.8356 189.197 85.9814 189.361 86.1182C189.53 86.2503 189.735 86.3415 189.977 86.3916C190.218 86.4372 190.487 86.46 190.783 86.46H192.362Z" fill="#333333"/>
<path d="M5 123L12.5 130.5L25 115.5" stroke="#61B857" stroke-width="2" stroke-linecap="round" stroke-linejoin="round"/>
<path d="M47.2285 121.262C46.9779 121.371 46.75 121.474 46.5449 121.569C46.3444 121.665 46.0801 121.765 45.752 121.87C45.474 121.957 45.1709 122.03 44.8428 122.089C44.5192 122.153 44.1615 122.185 43.7695 122.185C43.0312 122.185 42.359 122.082 41.7529 121.877C41.1514 121.667 40.6273 121.341 40.1807 120.899C39.7432 120.466 39.4014 119.917 39.1553 119.252C38.9092 118.582 38.7861 117.805 38.7861 116.921C38.7861 116.082 38.9046 115.333 39.1416 114.672C39.3786 114.011 39.7204 113.453 40.167 112.997C40.5999 112.555 41.1217 112.218 41.7324 111.985C42.3477 111.753 43.029 111.637 43.7764 111.637C44.3232 111.637 44.8678 111.703 45.4102 111.835C45.957 111.967 46.5632 112.2 47.2285 112.532V114.139H47.126C46.5654 113.669 46.0094 113.327 45.458 113.113C44.9066 112.899 44.3164 112.792 43.6875 112.792C43.1725 112.792 42.7077 112.876 42.293 113.045C41.8828 113.209 41.516 113.466 41.1924 113.817C40.8779 114.159 40.6318 114.592 40.4541 115.116C40.2809 115.636 40.1943 116.237 40.1943 116.921C40.1943 117.636 40.29 118.252 40.4814 118.767C40.6774 119.282 40.9281 119.701 41.2334 120.024C41.5524 120.362 41.9238 120.612 42.3477 120.776C42.776 120.936 43.2272 121.016 43.7012 121.016C44.3529 121.016 44.9635 120.904 45.5332 120.681C46.1029 120.457 46.6361 120.122 47.1328 119.676H47.2285V121.262ZM55.5479 118.186C55.5479 119.43 55.2288 120.412 54.5908 121.132C53.9528 121.852 53.0983 122.212 52.0273 122.212C50.9473 122.212 50.0882 121.852 49.4502 121.132C48.8167 120.412 48.5 119.43 48.5 118.186C48.5 116.941 48.8167 115.959 49.4502 115.239C50.0882 114.515 50.9473 114.152 52.0273 114.152C53.0983 114.152 53.9528 114.515 54.5908 115.239C55.2288 115.959 55.5479 116.941 55.5479 118.186ZM54.2217 118.186C54.2217 117.197 54.028 116.463 53.6406 115.984C53.2533 115.501 52.7155 115.26 52.0273 115.26C51.3301 115.26 50.7878 115.501 50.4004 115.984C50.0176 116.463 49.8262 117.197 49.8262 118.186C49.8262 119.143 50.0199 119.869 50.4072 120.366C50.7946 120.858 51.3346 121.104 52.0273 121.104C52.7109 121.104 53.2464 120.861 53.6338 120.373C54.0257 119.881 54.2217 119.152 54.2217 118.186ZM64.0518 118.186C64.0518 119.43 63.7327 120.412 63.0947 121.132C62.4567 121.852 61.6022 122.212 60.5312 122.212C59.4512 122.212 58.5921 121.852 57.9541 121.132C57.3206 120.412 57.0039 119.43 57.0039 118.186C57.0039 116.941 57.3206 115.959 57.9541 115.239C58.5921 114.515 59.4512 114.152 60.5312 114.152C61.6022 114.152 62.4567 114.515 63.0947 115.239C63.7327 115.959 64.0518 116.941 64.0518 118.186ZM62.7256 118.186C62.7256 117.197 62.5319 116.463 62.1445 115.984C61.7572 115.501 61.2194 115.26 60.5312 115.26C59.834 115.26 59.2917 115.501 58.9043 115.984C58.5215 116.463 58.3301 117.197 58.3301 118.186C58.3301 119.143 58.5238 119.869 58.9111 120.366C59.2985 120.858 59.8385 121.104 60.5312 121.104C61.2148 121.104 61.7503 120.861 62.1377 120.373C62.5296 119.881 62.7256 119.152 62.7256 118.186ZM71.6602 115.492C71.9792 115.811 72.2207 116.199 72.3848 116.654C72.5488 117.105 72.6309 117.636 72.6309 118.247C72.6309 119.386 72.2891 120.332 71.6055 121.084C70.9219 121.836 70.0811 122.212 69.083 122.212C68.5908 122.212 68.1374 122.13 67.7227 121.966C67.3079 121.797 66.9548 121.54 66.6631 121.193C66.2985 120.76 66.0251 120.216 65.8428 119.56C65.665 118.899 65.5762 118.094 65.5762 117.146C65.5762 116.805 65.5921 116.458 65.624 116.107C65.6559 115.752 65.7288 115.328 65.8428 114.836C65.9339 114.412 66.0661 114.004 66.2393 113.612C66.417 113.22 66.6266 112.904 66.8682 112.662C67.1963 112.329 67.627 112.063 68.1602 111.862C68.6979 111.657 69.4089 111.516 70.293 111.438C70.653 111.407 70.988 111.382 71.2979 111.363C71.6077 111.34 71.8857 111.32 72.1318 111.302V112.484C71.8311 112.503 71.5326 112.521 71.2363 112.539C70.9447 112.557 70.653 112.58 70.3613 112.607C69.778 112.658 69.2493 112.753 68.7754 112.895C68.306 113.036 67.9619 113.218 67.7432 113.441C67.5016 113.683 67.3193 114 67.1963 114.392C67.0778 114.779 67.0003 115.148 66.9639 115.499C67.3057 115.253 67.6794 115.048 68.085 114.884C68.4951 114.715 68.9303 114.631 69.3906 114.631C69.819 114.631 70.2314 114.701 70.6279 114.843C71.0244 114.984 71.3685 115.201 71.6602 115.492ZM71.3252 118.322C71.3252 117.479 71.1224 116.85 70.7168 116.436C70.3112 116.016 69.7757 115.807 69.1104 115.807C68.7139 115.807 68.3333 115.87 67.9688 115.998C67.6042 116.121 67.2578 116.287 66.9297 116.497C66.9206 116.611 66.9115 116.745 66.9023 116.9C66.8978 117.051 66.8955 117.19 66.8955 117.317C66.8955 118.11 66.9616 118.753 67.0938 119.245C67.2259 119.737 67.4128 120.129 67.6543 120.421C67.8639 120.667 68.0918 120.842 68.3379 120.947C68.584 121.048 68.8483 121.098 69.1309 121.098C69.819 121.098 70.3568 120.849 70.7441 120.353C71.1315 119.856 71.3252 119.179 71.3252 118.322ZM84.1084 122H74.6475V114.364H75.9326V120.893H78.8721V114.364H80.1572V120.893H83.0967V114.364H84.3818V120.893H85.3047V123.832H84.1084V122ZM93.4668 118.315H87.8408C87.8408 118.785 87.9115 119.195 88.0527 119.546C88.194 119.892 88.3877 120.177 88.6338 120.4C88.8708 120.619 89.151 120.783 89.4746 120.893C89.8027 121.002 90.1628 121.057 90.5547 121.057C91.0742 121.057 91.596 120.954 92.1201 120.749C92.6488 120.539 93.0247 120.334 93.248 120.134H93.3164V121.535C92.8835 121.717 92.4414 121.87 91.9902 121.993C91.5391 122.116 91.0651 122.178 90.5684 122.178C89.3014 122.178 88.3125 121.836 87.6016 121.152C86.8906 120.464 86.5352 119.489 86.5352 118.227C86.5352 116.978 86.8747 115.987 87.5537 115.253C88.2373 114.519 89.1351 114.152 90.2471 114.152C91.277 114.152 92.07 114.453 92.626 115.055C93.1865 115.656 93.4668 116.511 93.4668 117.618V118.315ZM92.2158 117.331C92.2113 116.657 92.0404 116.135 91.7031 115.766C91.3704 115.396 90.8623 115.212 90.1787 115.212C89.4906 115.212 88.9414 115.415 88.5312 115.82C88.1257 116.226 87.8955 116.729 87.8408 117.331H92.2158ZM101.13 121.521C100.606 121.768 100.155 121.936 99.7764 122.027C99.4027 122.123 99.029 122.171 98.6553 122.171C98.0993 122.171 97.5889 122.091 97.124 121.932C96.6592 121.768 96.2604 121.521 95.9277 121.193C95.5951 120.865 95.3353 120.451 95.1484 119.949C94.9661 119.448 94.875 118.862 94.875 118.192C94.875 116.976 95.2122 116.005 95.8867 115.28C96.5612 114.551 97.484 114.187 98.6553 114.187C99.0973 114.187 99.5303 114.248 99.9541 114.371C100.382 114.494 100.774 114.645 101.13 114.822V116.251H101.055C100.631 115.927 100.212 115.688 99.7969 115.533C99.3867 115.378 98.988 115.301 98.6006 115.301C97.8395 115.301 97.2493 115.556 96.8301 116.066C96.4154 116.577 96.208 117.285 96.208 118.192C96.208 119.099 96.4154 119.803 96.8301 120.305C97.2448 120.806 97.835 121.057 98.6006 121.057C98.8695 121.057 99.1361 121.022 99.4004 120.954C99.6693 120.886 99.9131 120.797 100.132 120.688C100.305 120.601 100.483 120.498 100.665 120.38C100.852 120.257 100.982 120.166 101.055 120.106H101.13V121.521ZM108.506 115.492H105.744V122H104.459V115.492H101.697V114.364H108.506V115.492ZM116.142 119.689C116.142 120.059 116.066 120.387 115.916 120.674C115.77 120.961 115.567 121.2 115.308 121.392C115.016 121.606 114.697 121.761 114.351 121.856C114.009 121.952 113.558 122 112.997 122H109.839V114.364H112.792C113.362 114.364 113.79 114.385 114.077 114.426C114.369 114.462 114.642 114.547 114.897 114.679C115.185 114.829 115.394 115.025 115.526 115.267C115.663 115.508 115.731 115.793 115.731 116.121C115.731 116.499 115.624 116.827 115.41 117.105C115.196 117.383 114.92 117.6 114.583 117.755V117.823C115.034 117.933 115.406 118.145 115.697 118.459C115.993 118.769 116.142 119.179 116.142 119.689ZM114.412 116.319C114.412 116.155 114.376 116.007 114.303 115.875C114.234 115.743 114.127 115.64 113.981 115.567C113.79 115.472 113.574 115.419 113.332 115.41C113.095 115.396 112.801 115.39 112.45 115.39H111.11V117.481H112.717C113.054 117.481 113.302 117.47 113.462 117.447C113.626 117.42 113.79 117.356 113.954 117.256C114.127 117.146 114.246 117.019 114.31 116.873C114.378 116.723 114.412 116.538 114.412 116.319ZM114.815 119.696C114.815 119.446 114.774 119.243 114.692 119.088C114.61 118.928 114.43 118.783 114.152 118.65C113.979 118.568 113.792 118.521 113.592 118.507C113.391 118.489 113.113 118.479 112.758 118.479H111.11V120.975H112.327C112.838 120.975 113.229 120.959 113.503 120.927C113.781 120.89 114.02 120.815 114.221 120.701C114.421 120.587 114.569 120.448 114.665 120.284C114.765 120.12 114.815 119.924 114.815 119.696ZM124.673 118.186C124.673 119.43 124.354 120.412 123.716 121.132C123.078 121.852 122.223 122.212 121.152 122.212C120.072 122.212 119.213 121.852 118.575 121.132C117.942 120.412 117.625 119.43 117.625 118.186C117.625 116.941 117.942 115.959 118.575 115.239C119.213 114.515 120.072 114.152 121.152 114.152C122.223 114.152 123.078 114.515 123.716 115.239C124.354 115.959 124.673 116.941 124.673 118.186ZM123.347 118.186C123.347 117.197 123.153 116.463 122.766 115.984C122.378 115.501 121.84 115.26 121.152 115.26C120.455 115.26 119.913 115.501 119.525 115.984C119.143 116.463 118.951 117.197 118.951 118.186C118.951 119.143 119.145 119.869 119.532 120.366C119.92 120.858 120.46 121.104 121.152 121.104C121.836 121.104 122.371 120.861 122.759 120.373C123.151 119.881 123.347 119.152 123.347 118.186ZM47.1533 139H45.7998V130.024H40.7207V139H39.3672V128.821H47.1533V139ZM56.5117 135.09C56.5117 135.71 56.4229 136.277 56.2451 136.792C56.0674 137.302 55.8167 137.735 55.4932 138.091C55.1924 138.428 54.8369 138.69 54.4268 138.877C54.0212 139.059 53.5905 139.15 53.1348 139.15C52.7383 139.15 52.3783 139.107 52.0547 139.021C51.7357 138.934 51.4098 138.799 51.0771 138.617V141.816H49.792V131.364H51.0771V132.164C51.4189 131.877 51.8018 131.638 52.2256 131.446C52.654 131.25 53.1097 131.152 53.5928 131.152C54.5133 131.152 55.2288 131.501 55.7393 132.198C56.2542 132.891 56.5117 133.855 56.5117 135.09ZM55.1855 135.124C55.1855 134.203 55.0283 133.515 54.7139 133.06C54.3994 132.604 53.9163 132.376 53.2646 132.376C52.8955 132.376 52.5241 132.456 52.1504 132.615C51.7767 132.775 51.4189 132.984 51.0771 133.244V137.571C51.4417 137.735 51.7539 137.847 52.0137 137.906C52.278 137.965 52.5765 137.995 52.9092 137.995C53.6247 137.995 54.1829 137.754 54.584 137.271C54.985 136.787 55.1855 136.072 55.1855 135.124ZM64.9062 135.315H59.2803C59.2803 135.785 59.3509 136.195 59.4922 136.546C59.6335 136.892 59.8271 137.177 60.0732 137.4C60.3102 137.619 60.5905 137.783 60.9141 137.893C61.2422 138.002 61.6022 138.057 61.9941 138.057C62.5137 138.057 63.0355 137.954 63.5596 137.749C64.0882 137.539 64.4642 137.334 64.6875 137.134H64.7559V138.535C64.3229 138.717 63.8809 138.87 63.4297 138.993C62.9785 139.116 62.5046 139.178 62.0078 139.178C60.7409 139.178 59.752 138.836 59.041 138.152C58.3301 137.464 57.9746 136.489 57.9746 135.227C57.9746 133.978 58.3141 132.987 58.9932 132.253C59.6768 131.519 60.5745 131.152 61.6865 131.152C62.7165 131.152 63.5094 131.453 64.0654 132.055C64.626 132.656 64.9062 133.511 64.9062 134.618V135.315ZM63.6553 134.331C63.6507 133.657 63.4798 133.135 63.1426 132.766C62.8099 132.396 62.3018 132.212 61.6182 132.212C60.93 132.212 60.3809 132.415 59.9707 132.82C59.5651 133.226 59.335 133.729 59.2803 134.331H63.6553ZM73.7861 140.832H72.5898V138.979H66.8477V140.832H65.6514V137.906H66.4785C67.0117 137.027 67.4082 136.013 67.668 134.864C67.9323 133.711 68.0645 132.545 68.0645 131.364H72.8633V137.906H73.7861V140.832ZM71.5781 137.906V132.444H69.2744C69.2152 133.588 69.0397 134.632 68.748 135.575C68.4564 136.519 68.1214 137.296 67.7432 137.906H71.5781ZM81.9551 139H80.6699V132.472H76.8486V139H75.5635V131.364H81.9551V139ZM91.2109 135.09C91.2109 135.71 91.1221 136.277 90.9443 136.792C90.7666 137.302 90.516 137.735 90.1924 138.091C89.8916 138.428 89.5361 138.69 89.126 138.877C88.7204 139.059 88.2897 139.15 87.834 139.15C87.4375 139.15 87.0775 139.107 86.7539 139.021C86.4349 138.934 86.109 138.799 85.7764 138.617V141.816H84.4912V131.364H85.7764V132.164C86.1182 131.877 86.501 131.638 86.9248 131.446C87.3532 131.25 87.8089 131.152 88.292 131.152C89.2126 131.152 89.9281 131.501 90.4385 132.198C90.9535 132.891 91.2109 133.855 91.2109 135.09ZM89.8848 135.124C89.8848 134.203 89.7275 133.515 89.4131 133.06C89.0986 132.604 88.6156 132.376 87.9639 132.376C87.5947 132.376 87.2233 132.456 86.8496 132.615C86.4759 132.775 86.1182 132.984 85.7764 133.244V137.571C86.141 137.735 86.4531 137.847 86.7129 137.906C86.9772 137.965 87.2757 137.995 87.6084 137.995C88.3239 137.995 88.8822 137.754 89.2832 137.271C89.6842 136.787 89.8848 136.072 89.8848 135.124ZM99.6465 139H98.375V133.265L94.376 139H93.2139V131.364H94.4854V137.018L98.4434 131.364H99.6465V139ZM108.574 139H107.289V135.562H103.468V139H102.183V131.364H103.468V134.454H107.289V131.364H108.574V139ZM117.543 139H116.271V133.265L112.272 139H111.11V131.364H112.382V137.018L116.34 131.364H117.543V139ZM127.298 139H126.026V132.971L124.126 136.895H123.169L121.282 132.971V139H120.079V131.364H121.631L123.709 135.637L125.719 131.364H127.298V139ZM135.761 139H134.482V138.187C134.368 138.264 134.214 138.373 134.018 138.515C133.826 138.651 133.639 138.761 133.457 138.843C133.243 138.948 132.997 139.034 132.719 139.103C132.441 139.175 132.115 139.212 131.741 139.212C131.053 139.212 130.47 138.984 129.991 138.528C129.513 138.073 129.273 137.492 129.273 136.785C129.273 136.206 129.396 135.739 129.643 135.384C129.893 135.024 130.249 134.741 130.709 134.536C131.174 134.331 131.732 134.192 132.384 134.119C133.035 134.046 133.735 133.992 134.482 133.955V133.757C134.482 133.465 134.43 133.224 134.325 133.032C134.225 132.841 134.079 132.69 133.888 132.581C133.705 132.476 133.487 132.406 133.231 132.369C132.976 132.333 132.71 132.314 132.432 132.314C132.094 132.314 131.718 132.36 131.304 132.451C130.889 132.538 130.461 132.665 130.019 132.834H129.95V131.528C130.201 131.46 130.563 131.385 131.037 131.303C131.511 131.221 131.978 131.18 132.438 131.18C132.976 131.18 133.443 131.225 133.84 131.316C134.241 131.403 134.587 131.553 134.879 131.768C135.166 131.977 135.385 132.248 135.535 132.581C135.686 132.914 135.761 133.326 135.761 133.818V139ZM134.482 137.12V134.994C134.09 135.017 133.628 135.051 133.095 135.097C132.566 135.142 132.147 135.208 131.837 135.295C131.468 135.4 131.169 135.564 130.941 135.787C130.714 136.006 130.6 136.309 130.6 136.696C130.6 137.134 130.732 137.464 130.996 137.688C131.26 137.906 131.664 138.016 132.206 138.016C132.657 138.016 133.07 137.929 133.443 137.756C133.817 137.578 134.163 137.366 134.482 137.12ZM143.848 132.492H141.086V139H139.801V132.492H137.039V131.364H143.848V132.492ZM151.572 135.315H145.946C145.946 135.785 146.017 136.195 146.158 136.546C146.299 136.892 146.493 137.177 146.739 137.4C146.976 137.619 147.257 137.783 147.58 137.893C147.908 138.002 148.268 138.057 148.66 138.057C149.18 138.057 149.701 137.954 150.226 137.749C150.754 137.539 151.13 137.334 151.354 137.134H151.422V138.535C150.989 138.717 150.547 138.87 150.096 138.993C149.645 139.116 149.171 139.178 148.674 139.178C147.407 139.178 146.418 138.836 145.707 138.152C144.996 137.464 144.641 136.489 144.641 135.227C144.641 133.978 144.98 132.987 145.659 132.253C146.343 131.519 147.241 131.152 148.353 131.152C149.382 131.152 150.175 131.453 150.731 132.055C151.292 132.656 151.572 133.511 151.572 134.618V135.315ZM150.321 134.331C150.317 133.657 150.146 133.135 149.809 132.766C149.476 132.396 148.968 132.212 148.284 132.212C147.596 132.212 147.047 132.415 146.637 132.82C146.231 133.226 146.001 133.729 145.946 134.331H150.321ZM159.68 139H158.395V132.444H155.544C155.53 132.823 155.517 133.187 155.503 133.538C155.489 133.889 155.476 134.206 155.462 134.488C155.43 135.249 155.378 135.858 155.305 136.313C155.232 136.765 155.136 137.141 155.018 137.441C154.908 137.724 154.785 137.954 154.648 138.132C154.516 138.305 154.373 138.462 154.218 138.604C154.063 138.74 153.89 138.843 153.698 138.911C153.511 138.979 153.306 139.014 153.083 139.014C153.006 139.014 152.892 139.011 152.741 139.007C152.595 139.002 152.5 139 152.454 139V137.879H152.522C152.559 137.879 152.611 137.881 152.68 137.886C152.748 137.89 152.805 137.893 152.851 137.893C152.96 137.893 153.072 137.877 153.186 137.845C153.304 137.813 153.404 137.754 153.486 137.667C153.719 137.439 153.906 137.054 154.047 136.512C154.188 135.969 154.282 135.186 154.327 134.16C154.345 133.786 154.361 133.344 154.375 132.834C154.393 132.319 154.409 131.829 154.423 131.364H159.68V139ZM168.607 135.315H162.981C162.981 135.785 163.052 136.195 163.193 136.546C163.335 136.892 163.528 137.177 163.774 137.4C164.011 137.619 164.292 137.783 164.615 137.893C164.943 138.002 165.303 138.057 165.695 138.057C166.215 138.057 166.737 137.954 167.261 137.749C167.789 137.539 168.165 137.334 168.389 137.134H168.457V138.535C168.024 138.717 167.582 138.87 167.131 138.993C166.68 139.116 166.206 139.178 165.709 139.178C164.442 139.178 163.453 138.836 162.742 138.152C162.031 137.464 161.676 136.489 161.676 135.227C161.676 133.978 162.015 132.987 162.694 132.253C163.378 131.519 164.276 131.152 165.388 131.152C166.418 131.152 167.211 131.453 167.767 132.055C168.327 132.656 168.607 133.511 168.607 134.618V135.315ZM167.356 134.331C167.352 133.657 167.181 133.135 166.844 132.766C166.511 132.396 166.003 132.212 165.319 132.212C164.631 132.212 164.082 132.415 163.672 132.82C163.266 133.226 163.036 133.729 162.981 134.331H167.356ZM176.988 139H175.717V133.265L171.718 139H170.556V131.364H171.827V137.018L175.785 131.364H176.988V139ZM176.257 128.356C176.234 129.031 176.02 129.557 175.614 129.936C175.213 130.314 174.628 130.503 173.857 130.503C173.087 130.503 172.499 130.314 172.094 129.936C171.693 129.557 171.481 129.031 171.458 128.356H172.627C172.632 128.835 172.736 129.181 172.941 129.396C173.151 129.61 173.456 129.717 173.857 129.717C174.263 129.717 174.568 129.612 174.773 129.402C174.979 129.193 175.083 128.844 175.088 128.356H176.257Z" fill="#333333"/>
<path d="M5 165L12.5 172.5L25 157.5" stroke="#61B857" stroke-width="2" stroke-linecap="round" stroke-linejoin="round"/>
<path d="M47.0508 160.849C47.0508 161.341 46.9528 161.787 46.7568 162.188C46.5654 162.59 46.3079 162.915 45.9844 163.166C45.6016 163.467 45.1914 163.681 44.7539 163.809C44.3164 163.936 43.7513 164 43.0586 164H39.3672V153.821H46.1826V155.024H40.7207V157.813H43.0996C43.7923 157.813 44.3574 157.854 44.7949 157.937C45.2324 158.014 45.6449 158.203 46.0322 158.504C46.3786 158.773 46.6338 159.105 46.7979 159.502C46.9665 159.898 47.0508 160.347 47.0508 160.849ZM45.6357 160.876C45.6357 160.534 45.5788 160.233 45.4648 159.974C45.3509 159.714 45.1732 159.504 44.9316 159.345C44.681 159.176 44.3916 159.074 44.0635 159.037C43.7354 159.001 43.2728 158.982 42.6758 158.982H40.7207V162.845H42.6416C43.2477 162.845 43.7126 162.815 44.0361 162.756C44.3643 162.697 44.6514 162.583 44.8975 162.414C45.1527 162.236 45.3395 162.029 45.458 161.792C45.5765 161.55 45.6357 161.245 45.6357 160.876ZM55.2949 164H54.0234V158.265L50.0244 164H48.8623V156.364H50.1338V162.018L54.0918 156.364H55.2949V164ZM63.1426 161.86C63.1426 162.289 63.0423 162.651 62.8418 162.947C62.6458 163.243 62.3929 163.483 62.083 163.665C61.7731 163.843 61.4313 163.973 61.0576 164.055C60.6839 164.137 60.3102 164.178 59.9365 164.178C59.4079 164.178 58.9043 164.128 58.4258 164.027C57.9473 163.927 57.4756 163.772 57.0107 163.562V162.154H57.0996C57.4323 162.446 57.8561 162.672 58.3711 162.831C58.8861 162.991 59.3851 163.07 59.8682 163.07C60.096 163.07 60.3307 163.05 60.5723 163.009C60.8138 162.963 61.0234 162.893 61.2012 162.797C61.3926 162.688 61.5452 162.558 61.6592 162.407C61.7731 162.252 61.8301 162.043 61.8301 161.778C61.8301 161.505 61.7731 161.286 61.6592 161.122C61.5498 160.958 61.3994 160.835 61.208 160.753C61.0212 160.671 60.7956 160.621 60.5312 160.603C60.2669 160.584 60.0254 160.575 59.8066 160.575H58.6924V159.468H59.4648C59.6471 159.468 59.8841 159.461 60.1758 159.447C60.472 159.434 60.7113 159.397 60.8936 159.338C61.1305 159.26 61.3174 159.151 61.4541 159.01C61.5954 158.868 61.666 158.643 61.666 158.333C61.666 158.119 61.6113 157.943 61.502 157.807C61.3926 157.665 61.2559 157.556 61.0918 157.479C60.9232 157.401 60.734 157.349 60.5244 157.321C60.3193 157.294 60.137 157.28 59.9775 157.28C59.5127 157.28 59.0547 157.344 58.6035 157.472C58.1569 157.595 57.7809 157.775 57.4756 158.012H57.3867V156.597C57.765 156.474 58.1706 156.373 58.6035 156.296C59.0365 156.218 59.4694 156.18 59.9023 156.18C60.2578 156.18 60.611 156.212 60.9619 156.275C61.3174 156.339 61.6478 156.449 61.9531 156.604C62.2539 156.758 62.5 156.97 62.6914 157.239C62.8828 157.504 62.9785 157.832 62.9785 158.224C62.9785 158.625 62.8532 158.978 62.6025 159.283C62.3564 159.584 62.0238 159.8 61.6045 159.933V159.98C62.0739 160.094 62.4476 160.309 62.7256 160.623C63.0036 160.933 63.1426 161.345 63.1426 161.86ZM71.5645 164H70.2793V160.562H66.458V164H65.1729V156.364H66.458V159.454H70.2793V156.364H71.5645V164ZM80.4922 160.315H74.8662C74.8662 160.785 74.9368 161.195 75.0781 161.546C75.2194 161.892 75.4131 162.177 75.6592 162.4C75.8962 162.619 76.1764 162.783 76.5 162.893C76.8281 163.002 77.1882 163.057 77.5801 163.057C78.0996 163.057 78.6214 162.954 79.1455 162.749C79.6742 162.539 80.0501 162.334 80.2734 162.134H80.3418V163.535C79.9089 163.717 79.4668 163.87 79.0156 163.993C78.5645 164.116 78.0905 164.178 77.5938 164.178C76.3268 164.178 75.3379 163.836 74.627 163.152C73.916 162.464 73.5605 161.489 73.5605 160.227C73.5605 158.978 73.9001 157.987 74.5791 157.253C75.2627 156.519 76.1605 156.152 77.2725 156.152C78.3024 156.152 79.0954 156.453 79.6514 157.055C80.2119 157.656 80.4922 158.511 80.4922 159.618V160.315ZM79.2412 159.331C79.2367 158.657 79.0658 158.135 78.7285 157.766C78.3958 157.396 77.8877 157.212 77.2041 157.212C76.516 157.212 75.9668 157.415 75.5566 157.82C75.151 158.226 74.9209 158.729 74.8662 159.331H79.2412ZM88.1553 163.521C87.6312 163.768 87.18 163.936 86.8018 164.027C86.4281 164.123 86.0544 164.171 85.6807 164.171C85.1247 164.171 84.6143 164.091 84.1494 163.932C83.6846 163.768 83.2858 163.521 82.9531 163.193C82.6204 162.865 82.3607 162.451 82.1738 161.949C81.9915 161.448 81.9004 160.862 81.9004 160.192C81.9004 158.976 82.2376 158.005 82.9121 157.28C83.5866 156.551 84.5094 156.187 85.6807 156.187C86.1227 156.187 86.5557 156.248 86.9795 156.371C87.4079 156.494 87.7998 156.645 88.1553 156.822V158.251H88.0801C87.6562 157.927 87.237 157.688 86.8223 157.533C86.4121 157.378 86.0133 157.301 85.626 157.301C84.8649 157.301 84.2747 157.556 83.8555 158.066C83.4408 158.577 83.2334 159.285 83.2334 160.192C83.2334 161.099 83.4408 161.803 83.8555 162.305C84.2702 162.806 84.8604 163.057 85.626 163.057C85.8949 163.057 86.1615 163.022 86.4258 162.954C86.6947 162.886 86.9385 162.797 87.1572 162.688C87.3304 162.601 87.5081 162.498 87.6904 162.38C87.8773 162.257 88.0072 162.166 88.0801 162.106H88.1553V163.521ZM102.203 155.024H98.5664V164H97.2129V155.024H93.5762V153.821H102.203V155.024ZM110.188 160.09C110.188 160.71 110.099 161.277 109.921 161.792C109.743 162.302 109.493 162.735 109.169 163.091C108.868 163.428 108.513 163.69 108.103 163.877C107.697 164.059 107.266 164.15 106.811 164.15C106.414 164.15 106.054 164.107 105.73 164.021C105.411 163.934 105.086 163.799 104.753 163.617V166.816H103.468V156.364H104.753V157.164C105.095 156.877 105.478 156.638 105.901 156.446C106.33 156.25 106.785 156.152 107.269 156.152C108.189 156.152 108.905 156.501 109.415 157.198C109.93 157.891 110.188 158.855 110.188 160.09ZM108.861 160.124C108.861 159.203 108.704 158.515 108.39 158.06C108.075 157.604 107.592 157.376 106.94 157.376C106.571 157.376 106.2 157.456 105.826 157.615C105.452 157.775 105.095 157.984 104.753 158.244V162.571C105.118 162.735 105.43 162.847 105.689 162.906C105.954 162.965 106.252 162.995 106.585 162.995C107.3 162.995 107.859 162.754 108.26 162.271C108.661 161.787 108.861 161.072 108.861 160.124ZM118.582 160.315H112.956C112.956 160.785 113.027 161.195 113.168 161.546C113.309 161.892 113.503 162.177 113.749 162.4C113.986 162.619 114.266 162.783 114.59 162.893C114.918 163.002 115.278 163.057 115.67 163.057C116.189 163.057 116.711 162.954 117.235 162.749C117.764 162.539 118.14 162.334 118.363 162.134H118.432V163.535C117.999 163.717 117.557 163.87 117.105 163.993C116.654 164.116 116.18 164.178 115.684 164.178C114.417 164.178 113.428 163.836 112.717 163.152C112.006 162.464 111.65 161.489 111.65 160.227C111.65 158.978 111.99 157.987 112.669 157.253C113.353 156.519 114.25 156.152 115.362 156.152C116.392 156.152 117.185 156.453 117.741 157.055C118.302 157.656 118.582 158.511 118.582 159.618V160.315ZM117.331 159.331C117.326 158.657 117.156 158.135 116.818 157.766C116.486 157.396 115.978 157.212 115.294 157.212C114.606 157.212 114.057 157.415 113.646 157.82C113.241 158.226 113.011 158.729 112.956 159.331H117.331ZM126.922 164H125.637V160.562H121.815V164H120.53V156.364H121.815V159.454H125.637V156.364H126.922V164ZM135.891 164H134.619V158.265L130.62 164H129.458V156.364H130.729V162.018L134.688 156.364H135.891V164ZM144.818 164H143.533V160.562H139.712V164H138.427V156.364H139.712V159.454H143.533V156.364H144.818V164ZM152.618 157.492H148.64V164H147.354V156.364H152.618V157.492ZM160.391 164H159.119V158.265L155.12 164H153.958V156.364H155.229V162.018L159.188 156.364H160.391V164ZM165.593 162.052L163.665 166.529H162.667L163.856 162.052H165.593ZM48.4316 181H47.0781V172.229L44.248 178.197H43.4414L40.6318 172.229V181H39.3672V170.821H41.2129L43.9268 176.488L46.5518 170.821H48.4316V181ZM56.9971 181H55.7188V180.187C55.6048 180.264 55.4499 180.373 55.2539 180.515C55.0625 180.651 54.8757 180.761 54.6934 180.843C54.4792 180.948 54.2331 181.034 53.9551 181.103C53.6771 181.175 53.3512 181.212 52.9775 181.212C52.2894 181.212 51.7061 180.984 51.2275 180.528C50.749 180.073 50.5098 179.492 50.5098 178.785C50.5098 178.206 50.6328 177.739 50.8789 177.384C51.1296 177.024 51.485 176.741 51.9453 176.536C52.4102 176.331 52.9684 176.192 53.6201 176.119C54.2718 176.046 54.9714 175.992 55.7188 175.955V175.757C55.7188 175.465 55.6663 175.224 55.5615 175.032C55.4613 174.841 55.3154 174.69 55.124 174.581C54.9417 174.476 54.723 174.406 54.4678 174.369C54.2126 174.333 53.946 174.314 53.668 174.314C53.3307 174.314 52.9548 174.36 52.54 174.451C52.1253 174.538 51.6969 174.665 51.2549 174.834H51.1865V173.528C51.4372 173.46 51.7995 173.385 52.2734 173.303C52.7474 173.221 53.2145 173.18 53.6748 173.18C54.2126 173.18 54.6797 173.225 55.0762 173.316C55.4772 173.403 55.8236 173.553 56.1152 173.768C56.4023 173.977 56.6211 174.248 56.7715 174.581C56.9219 174.914 56.9971 175.326 56.9971 175.818V181ZM55.7188 179.12V176.994C55.3268 177.017 54.8643 177.051 54.3311 177.097C53.8024 177.142 53.3831 177.208 53.0732 177.295C52.7041 177.4 52.4056 177.564 52.1777 177.787C51.9499 178.006 51.8359 178.309 51.8359 178.696C51.8359 179.134 51.9681 179.464 52.2324 179.688C52.4967 179.906 52.9001 180.016 53.4424 180.016C53.8936 180.016 54.306 179.929 54.6797 179.756C55.0534 179.578 55.3997 179.366 55.7188 179.12ZM65.1865 180.521C64.6624 180.768 64.2113 180.936 63.833 181.027C63.4593 181.123 63.0856 181.171 62.7119 181.171C62.1559 181.171 61.6455 181.091 61.1807 180.932C60.7158 180.768 60.3171 180.521 59.9844 180.193C59.6517 179.865 59.3919 179.451 59.2051 178.949C59.0228 178.448 58.9316 177.862 58.9316 177.192C58.9316 175.976 59.2689 175.005 59.9434 174.28C60.6178 173.551 61.5407 173.187 62.7119 173.187C63.154 173.187 63.5869 173.248 64.0107 173.371C64.4391 173.494 64.8311 173.645 65.1865 173.822V175.251H65.1113C64.6875 174.927 64.2682 174.688 63.8535 174.533C63.4434 174.378 63.0446 174.301 62.6572 174.301C61.8962 174.301 61.306 174.556 60.8867 175.066C60.472 175.577 60.2646 176.285 60.2646 177.192C60.2646 178.099 60.472 178.803 60.8867 179.305C61.3014 179.806 61.8916 180.057 62.6572 180.057C62.9261 180.057 63.1927 180.022 63.457 179.954C63.7259 179.886 63.9697 179.797 64.1885 179.688C64.3617 179.601 64.5394 179.498 64.7217 179.38C64.9085 179.257 65.0384 179.166 65.1113 179.106H65.1865V180.521ZM72.5625 174.492H69.8008V181H68.5156V174.492H65.7539V173.364H72.5625V174.492ZM80.2871 177.315H74.6611C74.6611 177.785 74.7318 178.195 74.873 178.546C75.0143 178.892 75.208 179.177 75.4541 179.4C75.6911 179.619 75.9714 179.783 76.2949 179.893C76.623 180.002 76.9831 180.057 77.375 180.057C77.8945 180.057 78.4163 179.954 78.9404 179.749C79.4691 179.539 79.8451 179.334 80.0684 179.134H80.1367V180.535C79.7038 180.717 79.2617 180.87 78.8105 180.993C78.3594 181.116 77.8854 181.178 77.3887 181.178C76.1217 181.178 75.1328 180.836 74.4219 180.152C73.7109 179.464 73.3555 178.489 73.3555 177.227C73.3555 175.978 73.695 174.987 74.374 174.253C75.0576 173.519 75.9554 173.152 77.0674 173.152C78.0973 173.152 78.8903 173.453 79.4463 174.055C80.0068 174.656 80.2871 175.511 80.2871 176.618V177.315ZM79.0361 176.331C79.0316 175.657 78.8607 175.135 78.5234 174.766C78.1908 174.396 77.6826 174.212 76.999 174.212C76.3109 174.212 75.7617 174.415 75.3516 174.82C74.946 175.226 74.7158 175.729 74.6611 176.331H79.0361ZM88.9551 177.09C88.9551 177.71 88.8662 178.277 88.6885 178.792C88.5107 179.302 88.2601 179.735 87.9365 180.091C87.6357 180.428 87.2803 180.69 86.8701 180.877C86.4645 181.059 86.0339 181.15 85.5781 181.15C85.1816 181.15 84.8216 181.107 84.498 181.021C84.179 180.934 83.8532 180.799 83.5205 180.617V183.816H82.2354V173.364H83.5205V174.164C83.8623 173.877 84.2451 173.638 84.6689 173.446C85.0973 173.25 85.5531 173.152 86.0361 173.152C86.9567 173.152 87.6722 173.501 88.1826 174.198C88.6976 174.891 88.9551 175.855 88.9551 177.09ZM87.6289 177.124C87.6289 176.203 87.4717 175.515 87.1572 175.06C86.8428 174.604 86.3597 174.376 85.708 174.376C85.3389 174.376 84.9674 174.456 84.5938 174.615C84.2201 174.775 83.8623 174.984 83.5205 175.244V179.571C83.8851 179.735 84.1973 179.847 84.457 179.906C84.7214 179.965 85.0199 179.995 85.3525 179.995C86.068 179.995 86.6263 179.754 87.0273 179.271C87.4284 178.787 87.6289 178.072 87.6289 177.124ZM104.165 181H102.429L98.293 176.358H97.3701V181H96.0166V170.821H97.3701V175.388C97.6025 175.383 97.8213 175.36 98.0264 175.319C98.2314 175.278 98.4251 175.201 98.6074 175.087C98.7897 174.982 98.9697 174.834 99.1475 174.643C99.3252 174.447 99.4824 174.207 99.6191 173.925C99.6784 173.802 99.7467 173.647 99.8242 173.46C99.9062 173.273 99.9883 173.077 100.07 172.872C100.385 172.116 100.752 171.585 101.171 171.279C101.595 170.974 102.217 170.821 103.037 170.821H103.577V172.031H103.01C102.695 172.031 102.449 172.061 102.271 172.12C102.094 172.175 101.934 172.268 101.793 172.4C101.661 172.519 101.545 172.678 101.444 172.879C101.349 173.079 101.248 173.314 101.144 173.583C100.907 174.185 100.665 174.627 100.419 174.909C100.177 175.192 99.8516 175.438 99.4414 175.647L104.165 181ZM111.746 181H110.461V174.444H107.61C107.597 174.823 107.583 175.187 107.569 175.538C107.556 175.889 107.542 176.206 107.528 176.488C107.496 177.249 107.444 177.858 107.371 178.313C107.298 178.765 107.202 179.141 107.084 179.441C106.975 179.724 106.852 179.954 106.715 180.132C106.583 180.305 106.439 180.462 106.284 180.604C106.129 180.74 105.956 180.843 105.765 180.911C105.578 180.979 105.373 181.014 105.149 181.014C105.072 181.014 104.958 181.011 104.808 181.007C104.662 181.002 104.566 181 104.521 181V179.879H104.589C104.625 179.879 104.678 179.881 104.746 179.886C104.814 179.89 104.871 179.893 104.917 179.893C105.026 179.893 105.138 179.877 105.252 179.845C105.37 179.813 105.471 179.754 105.553 179.667C105.785 179.439 105.972 179.054 106.113 178.512C106.255 177.969 106.348 177.186 106.394 176.16C106.412 175.786 106.428 175.344 106.441 174.834C106.46 174.319 106.476 173.829 106.489 173.364H111.746V181ZM120.216 181H118.938V180.187C118.824 180.264 118.669 180.373 118.473 180.515C118.281 180.651 118.094 180.761 117.912 180.843C117.698 180.948 117.452 181.034 117.174 181.103C116.896 181.175 116.57 181.212 116.196 181.212C115.508 181.212 114.925 180.984 114.446 180.528C113.968 180.073 113.729 179.492 113.729 178.785C113.729 178.206 113.852 177.739 114.098 177.384C114.348 177.024 114.704 176.741 115.164 176.536C115.629 176.331 116.187 176.192 116.839 176.119C117.491 176.046 118.19 175.992 118.938 175.955V175.757C118.938 175.465 118.885 175.224 118.78 175.032C118.68 174.841 118.534 174.69 118.343 174.581C118.16 174.476 117.942 174.406 117.687 174.369C117.431 174.333 117.165 174.314 116.887 174.314C116.549 174.314 116.174 174.36 115.759 174.451C115.344 174.538 114.916 174.665 114.474 174.834H114.405V173.528C114.656 173.46 115.018 173.385 115.492 173.303C115.966 173.221 116.433 173.18 116.894 173.18C117.431 173.18 117.898 173.225 118.295 173.316C118.696 173.403 119.042 173.553 119.334 173.768C119.621 173.977 119.84 174.248 119.99 174.581C120.141 174.914 120.216 175.326 120.216 175.818V181ZM118.938 179.12V176.994C118.546 177.017 118.083 177.051 117.55 177.097C117.021 177.142 116.602 177.208 116.292 177.295C115.923 177.4 115.624 177.564 115.396 177.787C115.169 178.006 115.055 178.309 115.055 178.696C115.055 179.134 115.187 179.464 115.451 179.688C115.715 179.906 116.119 180.016 116.661 180.016C117.112 180.016 117.525 179.929 117.898 179.756C118.272 179.578 118.618 179.366 118.938 179.12ZM128.405 180.521C127.881 180.768 127.43 180.936 127.052 181.027C126.678 181.123 126.304 181.171 125.931 181.171C125.375 181.171 124.864 181.091 124.399 180.932C123.935 180.768 123.536 180.521 123.203 180.193C122.87 179.865 122.611 179.451 122.424 178.949C122.242 178.448 122.15 177.862 122.15 177.192C122.15 175.976 122.488 175.005 123.162 174.28C123.837 173.551 124.759 173.187 125.931 173.187C126.373 173.187 126.806 173.248 127.229 173.371C127.658 173.494 128.05 173.645 128.405 173.822V175.251H128.33C127.906 174.927 127.487 174.688 127.072 174.533C126.662 174.378 126.263 174.301 125.876 174.301C125.115 174.301 124.525 174.556 124.105 175.066C123.691 175.577 123.483 176.285 123.483 177.192C123.483 178.099 123.691 178.803 124.105 179.305C124.52 179.806 125.11 180.057 125.876 180.057C126.145 180.057 126.411 180.022 126.676 179.954C126.945 179.886 127.188 179.797 127.407 179.688C127.58 179.601 127.758 179.498 127.94 179.38C128.127 179.257 128.257 179.166 128.33 179.106H128.405V180.521ZM135.884 180.521C135.36 180.768 134.909 180.936 134.53 181.027C134.157 181.123 133.783 181.171 133.409 181.171C132.853 181.171 132.343 181.091 131.878 180.932C131.413 180.768 131.014 180.521 130.682 180.193C130.349 179.865 130.089 179.451 129.902 178.949C129.72 178.448 129.629 177.862 129.629 177.192C129.629 175.976 129.966 175.005 130.641 174.28C131.315 173.551 132.238 173.187 133.409 173.187C133.851 173.187 134.284 173.248 134.708 173.371C135.136 173.494 135.528 173.645 135.884 173.822V175.251H135.809C135.385 174.927 134.965 174.688 134.551 174.533C134.141 174.378 133.742 174.301 133.354 174.301C132.593 174.301 132.003 174.556 131.584 175.066C131.169 175.577 130.962 176.285 130.962 177.192C130.962 178.099 131.169 178.803 131.584 179.305C131.999 179.806 132.589 180.057 133.354 180.057C133.623 180.057 133.89 180.022 134.154 179.954C134.423 179.886 134.667 179.797 134.886 179.688C135.059 179.601 135.237 179.498 135.419 179.38C135.606 179.257 135.736 179.166 135.809 179.106H135.884V180.521ZM142.351 178.655C142.351 178.423 142.31 178.22 142.228 178.047C142.15 177.869 142.02 177.726 141.838 177.616C141.646 177.502 141.428 177.434 141.182 177.411C140.94 177.388 140.591 177.377 140.136 177.377H138.933V179.975H140.108C140.564 179.975 140.917 179.956 141.168 179.92C141.419 179.879 141.635 179.804 141.817 179.694C142.004 179.576 142.139 179.437 142.221 179.277C142.307 179.113 142.351 178.906 142.351 178.655ZM143.677 178.635C143.677 179.004 143.602 179.339 143.451 179.64C143.305 179.94 143.105 180.184 142.85 180.371C142.549 180.599 142.228 180.761 141.886 180.856C141.544 180.952 141.104 181 140.566 181H137.647V173.364H138.933V176.338H140.601C141.175 176.338 141.619 176.368 141.934 176.427C142.253 176.486 142.569 176.632 142.884 176.864C143.148 177.06 143.346 177.311 143.479 177.616C143.611 177.922 143.677 178.261 143.677 178.635ZM144.955 173.364H146.24V181H144.955V173.364ZM151.442 179.052L149.515 183.529H148.517L149.706 179.052H151.442ZM47.2285 197.262C46.9779 197.371 46.75 197.474 46.5449 197.569C46.3444 197.665 46.0801 197.765 45.752 197.87C45.474 197.957 45.1709 198.03 44.8428 198.089C44.5192 198.153 44.1615 198.185 43.7695 198.185C43.0312 198.185 42.359 198.082 41.7529 197.877C41.1514 197.667 40.6273 197.341 40.1807 196.899C39.7432 196.466 39.4014 195.917 39.1553 195.252C38.9092 194.582 38.7861 193.805 38.7861 192.921C38.7861 192.082 38.9046 191.333 39.1416 190.672C39.3786 190.011 39.7204 189.453 40.167 188.997C40.5999 188.555 41.1217 188.218 41.7324 187.985C42.3477 187.753 43.029 187.637 43.7764 187.637C44.3232 187.637 44.8678 187.703 45.4102 187.835C45.957 187.967 46.5632 188.2 47.2285 188.532V190.139H47.126C46.5654 189.669 46.0094 189.327 45.458 189.113C44.9066 188.899 44.3164 188.792 43.6875 188.792C43.1725 188.792 42.7077 188.876 42.293 189.045C41.8828 189.209 41.516 189.466 41.1924 189.817C40.8779 190.159 40.6318 190.592 40.4541 191.116C40.2809 191.636 40.1943 192.237 40.1943 192.921C40.1943 193.636 40.29 194.252 40.4814 194.767C40.6774 195.282 40.9281 195.701 41.2334 196.024C41.5524 196.362 41.9238 196.612 42.3477 196.776C42.776 196.936 43.2272 197.016 43.7012 197.016C44.3529 197.016 44.9635 196.904 45.5332 196.681C46.1029 196.457 46.6361 196.122 47.1328 195.676H47.2285V197.262ZM55.4316 194.315H49.8057C49.8057 194.785 49.8763 195.195 50.0176 195.546C50.1589 195.892 50.3525 196.177 50.5986 196.4C50.8356 196.619 51.1159 196.783 51.4395 196.893C51.7676 197.002 52.1276 197.057 52.5195 197.057C53.0391 197.057 53.5609 196.954 54.085 196.749C54.6136 196.539 54.9896 196.334 55.2129 196.134H55.2812V197.535C54.8483 197.717 54.4062 197.87 53.9551 197.993C53.5039 198.116 53.0299 198.178 52.5332 198.178C51.2663 198.178 50.2773 197.836 49.5664 197.152C48.8555 196.464 48.5 195.489 48.5 194.227C48.5 192.978 48.8395 191.987 49.5186 191.253C50.2021 190.519 51.0999 190.152 52.2119 190.152C53.2419 190.152 54.0348 190.453 54.5908 191.055C55.1514 191.656 55.4316 192.511 55.4316 193.618V194.315ZM54.1807 193.331C54.1761 192.657 54.0052 192.135 53.668 191.766C53.3353 191.396 52.8271 191.212 52.1436 191.212C51.4554 191.212 50.9062 191.415 50.4961 191.82C50.0905 192.226 49.8604 192.729 49.8057 193.331H54.1807ZM64.5986 198H63.3271V191.971L61.4268 195.895H60.4697L58.583 191.971V198H57.3799V190.364H58.9316L61.0098 194.637L63.0195 190.364H64.5986V198ZM73.5605 198H72.2891V192.265L68.29 198H67.1279V190.364H68.3994V196.018L72.3574 190.364H73.5605V198ZM82.4883 198H81.2031V194.562H77.3818V198H76.0967V190.364H77.3818V193.454H81.2031V190.364H82.4883V198ZM90.958 198H89.6797V197.187C89.5658 197.264 89.4108 197.373 89.2148 197.515C89.0234 197.651 88.8366 197.761 88.6543 197.843C88.4401 197.948 88.194 198.034 87.916 198.103C87.638 198.175 87.3122 198.212 86.9385 198.212C86.2503 198.212 85.667 197.984 85.1885 197.528C84.71 197.073 84.4707 196.492 84.4707 195.785C84.4707 195.206 84.5938 194.739 84.8398 194.384C85.0905 194.024 85.446 193.741 85.9062 193.536C86.3711 193.331 86.9294 193.192 87.5811 193.119C88.2327 193.046 88.9323 192.992 89.6797 192.955V192.757C89.6797 192.465 89.6273 192.224 89.5225 192.032C89.4222 191.841 89.2764 191.69 89.085 191.581C88.9027 191.476 88.6839 191.406 88.4287 191.369C88.1735 191.333 87.9069 191.314 87.6289 191.314C87.2917 191.314 86.9157 191.36 86.501 191.451C86.0863 191.538 85.6579 191.665 85.2158 191.834H85.1475V190.528C85.3981 190.46 85.7604 190.385 86.2344 190.303C86.7083 190.221 87.1755 190.18 87.6357 190.18C88.1735 190.18 88.6406 190.225 89.0371 190.316C89.4382 190.403 89.7845 190.553 90.0762 190.768C90.3633 190.977 90.582 191.248 90.7324 191.581C90.8828 191.914 90.958 192.326 90.958 192.818V198ZM89.6797 196.12V193.994C89.2878 194.017 88.8252 194.051 88.292 194.097C87.7633 194.142 87.3441 194.208 87.0342 194.295C86.665 194.4 86.3665 194.564 86.1387 194.787C85.9108 195.006 85.7969 195.309 85.7969 195.696C85.7969 196.134 85.929 196.464 86.1934 196.688C86.4577 196.906 86.861 197.016 87.4033 197.016C87.8545 197.016 88.2669 196.929 88.6406 196.756C89.0143 196.578 89.3607 196.366 89.6797 196.12ZM100.152 194.09C100.152 194.71 100.063 195.277 99.8857 195.792C99.708 196.302 99.4574 196.735 99.1338 197.091C98.833 197.428 98.4775 197.69 98.0674 197.877C97.6618 198.059 97.2311 198.15 96.7754 198.15C96.3789 198.15 96.0189 198.107 95.6953 198.021C95.3763 197.934 95.0505 197.799 94.7178 197.617V200.816H93.4326V190.364H94.7178V191.164C95.0596 190.877 95.4424 190.638 95.8662 190.446C96.2946 190.25 96.7503 190.152 97.2334 190.152C98.154 190.152 98.8695 190.501 99.3799 191.198C99.8949 191.891 100.152 192.855 100.152 194.09ZM98.8262 194.124C98.8262 193.203 98.6689 192.515 98.3545 192.06C98.04 191.604 97.557 191.376 96.9053 191.376C96.5361 191.376 96.1647 191.456 95.791 191.615C95.4173 191.775 95.0596 191.984 94.7178 192.244V196.571C95.0824 196.735 95.3945 196.847 95.6543 196.906C95.9186 196.965 96.2171 196.995 96.5498 196.995C97.2653 196.995 97.8236 196.754 98.2246 196.271C98.6257 195.787 98.8262 195.072 98.8262 194.124ZM106.858 195.655C106.858 195.423 106.817 195.22 106.735 195.047C106.658 194.869 106.528 194.726 106.346 194.616C106.154 194.502 105.936 194.434 105.689 194.411C105.448 194.388 105.099 194.377 104.644 194.377H103.44V196.975H104.616C105.072 196.975 105.425 196.956 105.676 196.92C105.926 196.879 106.143 196.804 106.325 196.694C106.512 196.576 106.646 196.437 106.729 196.277C106.815 196.113 106.858 195.906 106.858 195.655ZM108.185 195.635C108.185 196.004 108.109 196.339 107.959 196.64C107.813 196.94 107.613 197.184 107.357 197.371C107.057 197.599 106.735 197.761 106.394 197.856C106.052 197.952 105.612 198 105.074 198H102.155V190.364H103.44V193.338H105.108C105.683 193.338 106.127 193.368 106.441 193.427C106.76 193.486 107.077 193.632 107.392 193.864C107.656 194.06 107.854 194.311 107.986 194.616C108.118 194.922 108.185 195.261 108.185 195.635ZM109.463 190.364H110.748V198H109.463V190.364Z" fill="#333333"/>
<path d="M5 224L12.5 231.5L25 216.5" stroke="#61B857" stroke-width="2" stroke-linecap="round" stroke-linejoin="round"/>
<path d="M47.0508 226.349C47.0508 226.841 46.9528 227.287 46.7568 227.688C46.5654 228.09 46.3079 228.415 45.9844 228.666C45.6016 228.967 45.1914 229.181 44.7539 229.309C44.3164 229.436 43.7513 229.5 43.0586 229.5H39.3672V219.321H46.1826V220.524H40.7207V223.313H43.0996C43.7923 223.313 44.3574 223.354 44.7949 223.437C45.2324 223.514 45.6449 223.703 46.0322 224.004C46.3786 224.273 46.6338 224.605 46.7979 225.002C46.9665 225.398 47.0508 225.847 47.0508 226.349ZM45.6357 226.376C45.6357 226.034 45.5788 225.733 45.4648 225.474C45.3509 225.214 45.1732 225.004 44.9316 224.845C44.681 224.676 44.3916 224.574 44.0635 224.537C43.7354 224.501 43.2728 224.482 42.6758 224.482H40.7207V228.345H42.6416C43.2477 228.345 43.7126 228.315 44.0361 228.256C44.3643 228.197 44.6514 228.083 44.8975 227.914C45.1527 227.736 45.3395 227.529 45.458 227.292C45.5765 227.05 45.6357 226.745 45.6357 226.376ZM55.2949 229.5H54.0234V223.765L50.0244 229.5H48.8623V221.864H50.1338V227.518L54.0918 221.864H55.2949V229.5ZM63.1426 227.36C63.1426 227.789 63.0423 228.151 62.8418 228.447C62.6458 228.743 62.3929 228.983 62.083 229.165C61.7731 229.343 61.4313 229.473 61.0576 229.555C60.6839 229.637 60.3102 229.678 59.9365 229.678C59.4079 229.678 58.9043 229.628 58.4258 229.527C57.9473 229.427 57.4756 229.272 57.0107 229.062V227.654H57.0996C57.4323 227.946 57.8561 228.172 58.3711 228.331C58.8861 228.491 59.3851 228.57 59.8682 228.57C60.096 228.57 60.3307 228.55 60.5723 228.509C60.8138 228.463 61.0234 228.393 61.2012 228.297C61.3926 228.188 61.5452 228.058 61.6592 227.907C61.7731 227.752 61.8301 227.543 61.8301 227.278C61.8301 227.005 61.7731 226.786 61.6592 226.622C61.5498 226.458 61.3994 226.335 61.208 226.253C61.0212 226.171 60.7956 226.121 60.5312 226.103C60.2669 226.084 60.0254 226.075 59.8066 226.075H58.6924V224.968H59.4648C59.6471 224.968 59.8841 224.961 60.1758 224.947C60.472 224.934 60.7113 224.897 60.8936 224.838C61.1305 224.76 61.3174 224.651 61.4541 224.51C61.5954 224.368 61.666 224.143 61.666 223.833C61.666 223.619 61.6113 223.443 61.502 223.307C61.3926 223.165 61.2559 223.056 61.0918 222.979C60.9232 222.901 60.734 222.849 60.5244 222.821C60.3193 222.794 60.137 222.78 59.9775 222.78C59.5127 222.78 59.0547 222.844 58.6035 222.972C58.1569 223.095 57.7809 223.275 57.4756 223.512H57.3867V222.097C57.765 221.974 58.1706 221.873 58.6035 221.796C59.0365 221.718 59.4694 221.68 59.9023 221.68C60.2578 221.68 60.611 221.712 60.9619 221.775C61.3174 221.839 61.6478 221.949 61.9531 222.104C62.2539 222.258 62.5 222.47 62.6914 222.739C62.8828 223.004 62.9785 223.332 62.9785 223.724C62.9785 224.125 62.8532 224.478 62.6025 224.783C62.3564 225.084 62.0238 225.3 61.6045 225.433V225.48C62.0739 225.594 62.4476 225.809 62.7256 226.123C63.0036 226.433 63.1426 226.845 63.1426 227.36ZM71.5645 229.5H70.2793V226.062H66.458V229.5H65.1729V221.864H66.458V224.954H70.2793V221.864H71.5645V229.5ZM80.4922 225.815H74.8662C74.8662 226.285 74.9368 226.695 75.0781 227.046C75.2194 227.392 75.4131 227.677 75.6592 227.9C75.8962 228.119 76.1764 228.283 76.5 228.393C76.8281 228.502 77.1882 228.557 77.5801 228.557C78.0996 228.557 78.6214 228.454 79.1455 228.249C79.6742 228.039 80.0501 227.834 80.2734 227.634H80.3418V229.035C79.9089 229.217 79.4668 229.37 79.0156 229.493C78.5645 229.616 78.0905 229.678 77.5938 229.678C76.3268 229.678 75.3379 229.336 74.627 228.652C73.916 227.964 73.5605 226.989 73.5605 225.727C73.5605 224.478 73.9001 223.487 74.5791 222.753C75.2627 222.019 76.1605 221.652 77.2725 221.652C78.3024 221.652 79.0954 221.953 79.6514 222.555C80.2119 223.156 80.4922 224.011 80.4922 225.118V225.815ZM79.2412 224.831C79.2367 224.157 79.0658 223.635 78.7285 223.266C78.3958 222.896 77.8877 222.712 77.2041 222.712C76.516 222.712 75.9668 222.915 75.5566 223.32C75.151 223.726 74.9209 224.229 74.8662 224.831H79.2412ZM88.1553 229.021C87.6312 229.268 87.18 229.436 86.8018 229.527C86.4281 229.623 86.0544 229.671 85.6807 229.671C85.1247 229.671 84.6143 229.591 84.1494 229.432C83.6846 229.268 83.2858 229.021 82.9531 228.693C82.6204 228.365 82.3607 227.951 82.1738 227.449C81.9915 226.948 81.9004 226.362 81.9004 225.692C81.9004 224.476 82.2376 223.505 82.9121 222.78C83.5866 222.051 84.5094 221.687 85.6807 221.687C86.1227 221.687 86.5557 221.748 86.9795 221.871C87.4079 221.994 87.7998 222.145 88.1553 222.322V223.751H88.0801C87.6562 223.427 87.237 223.188 86.8223 223.033C86.4121 222.878 86.0133 222.801 85.626 222.801C84.8649 222.801 84.2747 223.056 83.8555 223.566C83.4408 224.077 83.2334 224.785 83.2334 225.692C83.2334 226.599 83.4408 227.303 83.8555 227.805C84.2702 228.306 84.8604 228.557 85.626 228.557C85.8949 228.557 86.1615 228.522 86.4258 228.454C86.6947 228.386 86.9385 228.297 87.1572 228.188C87.3304 228.101 87.5081 227.998 87.6904 227.88C87.8773 227.757 88.0072 227.666 88.0801 227.606H88.1553V229.021ZM102.49 229.5H101.137V220.524H97.459C97.4453 221.039 97.4248 221.545 97.3975 222.042C97.3747 222.534 97.3564 222.974 97.3428 223.361C97.3063 224.337 97.2448 225.139 97.1582 225.768C97.0762 226.396 96.9691 226.914 96.8369 227.319C96.7048 227.729 96.5544 228.058 96.3857 228.304C96.2217 228.545 96.0326 228.764 95.8184 228.96C95.5996 229.16 95.374 229.304 95.1416 229.391C94.9137 229.477 94.6449 229.521 94.335 229.521C94.2393 229.521 94.123 229.516 93.9863 229.507C93.8496 229.502 93.7539 229.5 93.6992 229.5V228.188H93.7949C93.8405 228.192 93.8975 228.197 93.9658 228.201C94.0342 228.206 94.1025 228.208 94.1709 228.208C94.335 228.208 94.4899 228.183 94.6357 228.133C94.7816 228.083 94.9046 228.005 95.0049 227.9C95.3285 227.577 95.5654 227.044 95.7158 226.301C95.8708 225.558 95.9801 224.501 96.0439 223.129C96.0667 222.682 96.0895 222.09 96.1123 221.352C96.1396 220.613 96.1624 219.937 96.1807 219.321H102.49V229.5ZM111.056 229.5H109.777V228.687C109.663 228.764 109.508 228.873 109.312 229.015C109.121 229.151 108.934 229.261 108.752 229.343C108.538 229.448 108.292 229.534 108.014 229.603C107.736 229.675 107.41 229.712 107.036 229.712C106.348 229.712 105.765 229.484 105.286 229.028C104.808 228.573 104.568 227.992 104.568 227.285C104.568 226.706 104.691 226.239 104.938 225.884C105.188 225.524 105.544 225.241 106.004 225.036C106.469 224.831 107.027 224.692 107.679 224.619C108.33 224.546 109.03 224.492 109.777 224.455V224.257C109.777 223.965 109.725 223.724 109.62 223.532C109.52 223.341 109.374 223.19 109.183 223.081C109 222.976 108.782 222.906 108.526 222.869C108.271 222.833 108.005 222.814 107.727 222.814C107.389 222.814 107.013 222.86 106.599 222.951C106.184 223.038 105.756 223.165 105.313 223.334H105.245V222.028C105.496 221.96 105.858 221.885 106.332 221.803C106.806 221.721 107.273 221.68 107.733 221.68C108.271 221.68 108.738 221.725 109.135 221.816C109.536 221.903 109.882 222.053 110.174 222.268C110.461 222.477 110.68 222.748 110.83 223.081C110.98 223.414 111.056 223.826 111.056 224.318V229.5ZM109.777 227.62V225.494C109.385 225.517 108.923 225.551 108.39 225.597C107.861 225.642 107.442 225.708 107.132 225.795C106.763 225.9 106.464 226.064 106.236 226.287C106.008 226.506 105.895 226.809 105.895 227.196C105.895 227.634 106.027 227.964 106.291 228.188C106.555 228.406 106.959 228.516 107.501 228.516C107.952 228.516 108.365 228.429 108.738 228.256C109.112 228.078 109.458 227.866 109.777 227.62ZM118.794 222.992H114.815V229.5H113.53V221.864H118.794V222.992ZM126.525 225.815H120.899C120.899 226.285 120.97 226.695 121.111 227.046C121.253 227.392 121.446 227.677 121.692 227.9C121.929 228.119 122.21 228.283 122.533 228.393C122.861 228.502 123.221 228.557 123.613 228.557C124.133 228.557 124.655 228.454 125.179 228.249C125.707 228.039 126.083 227.834 126.307 227.634H126.375V229.035C125.942 229.217 125.5 229.37 125.049 229.493C124.598 229.616 124.124 229.678 123.627 229.678C122.36 229.678 121.371 229.336 120.66 228.652C119.949 227.964 119.594 226.989 119.594 225.727C119.594 224.478 119.933 223.487 120.612 222.753C121.296 222.019 122.194 221.652 123.306 221.652C124.336 221.652 125.129 221.953 125.685 222.555C126.245 223.156 126.525 224.011 126.525 225.118V225.815ZM125.274 224.831C125.27 224.157 125.099 223.635 124.762 223.266C124.429 222.896 123.921 222.712 123.237 222.712C122.549 222.712 122 222.915 121.59 223.32C121.184 223.726 120.954 224.229 120.899 224.831H125.274ZM135.193 225.59C135.193 226.21 135.104 226.777 134.927 227.292C134.749 227.802 134.498 228.235 134.175 228.591C133.874 228.928 133.519 229.19 133.108 229.377C132.703 229.559 132.272 229.65 131.816 229.65C131.42 229.65 131.06 229.607 130.736 229.521C130.417 229.434 130.091 229.299 129.759 229.117V232.316H128.474V221.864H129.759V222.664C130.101 222.377 130.483 222.138 130.907 221.946C131.336 221.75 131.791 221.652 132.274 221.652C133.195 221.652 133.91 222.001 134.421 222.698C134.936 223.391 135.193 224.355 135.193 225.59ZM133.867 225.624C133.867 224.703 133.71 224.015 133.396 223.56C133.081 223.104 132.598 222.876 131.946 222.876C131.577 222.876 131.206 222.956 130.832 223.115C130.458 223.275 130.101 223.484 129.759 223.744V228.071C130.123 228.235 130.436 228.347 130.695 228.406C130.96 228.465 131.258 228.495 131.591 228.495C132.306 228.495 132.865 228.254 133.266 227.771C133.667 227.287 133.867 226.572 133.867 225.624ZM143.062 229.5H141.776V226.472H140.266L137.9 229.5H136.39L138.96 226.349C138.299 226.166 137.816 225.888 137.511 225.515C137.205 225.136 137.053 224.642 137.053 224.031C137.053 223.626 137.144 223.282 137.326 222.999C137.508 222.716 137.739 222.486 138.017 222.309C138.29 222.135 138.604 222.019 138.96 221.96C139.315 221.896 139.703 221.864 140.122 221.864H143.062V229.5ZM141.776 225.46V222.89H140.156C139.805 222.89 139.552 222.901 139.397 222.924C139.243 222.947 139.074 223.008 138.892 223.108C138.714 223.209 138.582 223.345 138.495 223.519C138.413 223.687 138.372 223.872 138.372 224.072C138.372 224.323 138.397 224.526 138.447 224.681C138.502 224.836 138.611 224.981 138.775 225.118C138.944 225.25 139.149 225.341 139.391 225.392C139.632 225.437 139.901 225.46 140.197 225.46H141.776Z" fill="#333333"/>
</svg>
