<svg width="326" height="540" viewBox="0 0 326 540" fill="none" xmlns="http://www.w3.org/2000/svg">
<g filter="url(#filter0_d_1763_10996)">
<rect x="17" y="15" width="286" height="500" rx="5" fill="white" shape-rendering="crispEdges"/>
<g filter="url(#filter1_d_1763_10996)">
<path d="M112.5 125.792H37.5C35.7917 125.792 34.375 124.375 34.375 122.667C34.375 120.958 35.7917 119.542 37.5 119.542H112.5C114.208 119.542 115.625 120.958 115.625 122.667C115.625 124.375 114.208 125.792 112.5 125.792Z" fill="#1959AB"/>
<path d="M48.3332 113.291H41.6667C37.6667 113.291 34.375 110 34.375 106V70.0832C34.375 66.0832 37.6667 62.7915 41.6667 62.7915H48.3332C52.3332 62.7915 55.6249 66.0832 55.6249 70.0832V106C55.6249 110 52.3332 113.291 48.3332 113.291ZM41.6667 68.9998C41.0833 68.9998 40.625 69.4581 40.625 70.0415V106C40.625 106.583 41.0833 107.041 41.6667 107.041H48.3332C48.9166 107.041 49.3749 106.583 49.3749 106V70.0832C49.3749 69.4998 48.9166 69.0415 48.3332 69.0415H41.6667V68.9998Z" fill="#1959AB"/>
<path d="M78.3332 113.292H71.6667C67.6667 113.292 64.375 110 64.375 106V56.7917C64.375 52.7917 67.6667 49.5 71.6667 49.5H78.3332C82.3332 49.5 85.6249 52.7917 85.6249 56.7917V106C85.6249 110 82.3332 113.292 78.3332 113.292ZM71.6667 55.75C71.0833 55.75 70.625 56.2083 70.625 56.7917V106C70.625 106.583 71.0833 107.042 71.6667 107.042H78.3332C78.9166 107.042 79.3749 106.583 79.3749 106V56.7917C79.3749 56.2083 78.9166 55.75 78.3332 55.75H71.6667Z" fill="#1959AB"/>
<path d="M108.333 113.292H101.667C97.6667 113.292 94.375 110 94.375 106V43.5002C94.375 39.5002 97.6667 36.2085 101.667 36.2085H108.333C112.333 36.2085 115.625 39.5002 115.625 43.5002V106C115.625 110 112.333 113.292 108.333 113.292ZM101.667 42.4585C101.083 42.4585 100.625 42.9168 100.625 43.5002V106C100.625 106.584 101.083 107.042 101.667 107.042H108.333C108.917 107.042 109.375 106.584 109.375 106V43.5002C109.375 42.9168 108.917 42.4585 108.333 42.4585H101.667Z" fill="#1959AB"/>
</g>
<path d="M42.1094 181.398C42.1094 182.25 41.9453 183.035 41.6172 183.754C41.2969 184.465 40.8555 185.047 40.293 185.5C39.582 186.07 38.8398 186.465 38.0664 186.684C37.3008 186.895 36.3711 187 35.2773 187H27.2266V169.551H40.7852V172.926H31.7031V176.055H35.3477C36.5664 176.055 37.5625 176.145 38.3359 176.324C39.1094 176.496 39.793 176.816 40.3867 177.285C40.9883 177.754 41.4258 178.348 41.6992 179.066C41.9727 179.777 42.1094 180.555 42.1094 181.398ZM37.457 181.527C37.457 181.238 37.4258 180.965 37.3633 180.707C37.3008 180.449 37.1641 180.211 36.9531 179.992C36.7422 179.781 36.4531 179.613 36.0859 179.488C35.7188 179.363 35.2109 179.301 34.5625 179.301H31.7031V183.742H34.5625C35.0547 183.742 35.4961 183.68 35.8867 183.555C36.2852 183.43 36.5898 183.27 36.8008 183.074C37.0117 182.887 37.1719 182.664 37.2812 182.406C37.3984 182.141 37.457 181.848 37.457 181.527ZM58.4805 187H54.3906V178.949L48.6719 187H45.1797V173.84H49.2695V181.047L54.5664 173.84H58.4805V187ZM73.5156 183.273C73.5156 184.023 73.332 184.668 72.9648 185.207C72.5977 185.738 72.1016 186.164 71.4766 186.484C70.8438 186.805 70.1406 187.031 69.3672 187.164C68.5938 187.297 67.7695 187.363 66.8945 187.363C65.7461 187.363 64.7266 187.266 63.8359 187.07C62.9531 186.875 62.0898 186.633 61.2461 186.344V183.145H61.7148C62.332 183.488 63.0234 183.789 63.7891 184.047C64.5547 184.297 65.3359 184.422 66.1328 184.422C66.4297 184.422 66.7812 184.402 67.1875 184.363C67.6016 184.324 67.9297 184.258 68.1719 184.164C68.5 184.039 68.7461 183.895 68.9102 183.73C69.082 183.566 69.168 183.305 69.168 182.945C69.168 182.609 69.0898 182.348 68.9336 182.16C68.7852 181.973 68.5781 181.836 68.3125 181.75C68.0859 181.672 67.7969 181.621 67.4453 181.598C67.1016 181.574 66.6641 181.562 66.1328 181.562H64.1172V178.891H65.7344C66.0469 178.891 66.418 178.887 66.8477 178.879C67.2852 178.871 67.6289 178.836 67.8789 178.773C68.2461 178.688 68.5078 178.551 68.6641 178.363C68.8281 178.176 68.9102 177.934 68.9102 177.637C68.9102 177.395 68.8281 177.191 68.6641 177.027C68.5 176.863 68.2852 176.734 68.0195 176.641C67.793 176.562 67.5273 176.504 67.2227 176.465C66.918 176.426 66.5977 176.406 66.2617 176.406C65.707 176.406 65.0586 176.504 64.3164 176.699C63.582 176.895 62.9297 177.137 62.3594 177.426H61.9023V174.273C62.3867 174.125 63.1055 173.953 64.0586 173.758C65.0195 173.562 66 173.465 67 173.465C67.875 173.465 68.6719 173.531 69.3906 173.664C70.1094 173.797 70.7461 173.996 71.3008 174.262C71.8867 174.551 72.3594 174.926 72.7188 175.387C73.0781 175.848 73.2578 176.422 73.2578 177.109C73.2578 177.812 73.0156 178.441 72.5312 178.996C72.0547 179.551 71.4805 179.922 70.8086 180.109V180.215C71.582 180.418 72.2266 180.773 72.7422 181.281C73.2578 181.781 73.5156 182.445 73.5156 183.273ZM89.875 187H85.6562V181.387H80.8047V187H76.5859V173.84H80.8047V178.375H85.6562V173.84H89.875V187ZM106.82 181.199H97.1641C97.2266 182.23 97.6172 183.02 98.3359 183.566C99.0625 184.113 100.129 184.387 101.535 184.387C102.426 184.387 103.289 184.227 104.125 183.906C104.961 183.586 105.621 183.242 106.105 182.875H106.574V186.262C105.621 186.645 104.723 186.922 103.879 187.094C103.035 187.266 102.102 187.352 101.078 187.352C98.4375 187.352 96.4141 186.758 95.0078 185.57C93.6016 184.383 92.8984 182.691 92.8984 180.496C92.8984 178.324 93.5625 176.605 94.8906 175.34C96.2266 174.066 98.0547 173.43 100.375 173.43C102.516 173.43 104.125 173.973 105.203 175.059C106.281 176.137 106.82 177.691 106.82 179.723V181.199ZM102.625 178.727C102.602 177.844 102.383 177.18 101.969 176.734C101.555 176.289 100.91 176.066 100.035 176.066C99.2227 176.066 98.5547 176.277 98.0312 176.699C97.5078 177.121 97.2148 177.797 97.1523 178.727H102.625ZM116.652 187.352C115.504 187.352 114.453 187.215 113.5 186.941C112.555 186.668 111.73 186.246 111.027 185.676C110.332 185.105 109.793 184.387 109.41 183.52C109.027 182.652 108.836 181.637 108.836 180.473C108.836 179.246 109.039 178.188 109.445 177.297C109.859 176.406 110.434 175.668 111.168 175.082C111.879 174.527 112.699 174.121 113.629 173.863C114.559 173.605 115.523 173.477 116.523 173.477C117.422 173.477 118.25 173.574 119.008 173.77C119.766 173.965 120.473 174.219 121.129 174.531V178.129H120.531C120.367 177.988 120.168 177.824 119.934 177.637C119.707 177.449 119.426 177.266 119.09 177.086C118.77 176.914 118.418 176.773 118.035 176.664C117.652 176.547 117.207 176.488 116.699 176.488C115.574 176.488 114.707 176.848 114.098 177.566C113.496 178.277 113.195 179.246 113.195 180.473C113.195 181.738 113.504 182.699 114.121 183.355C114.746 184.012 115.629 184.34 116.77 184.34C117.301 184.34 117.777 184.281 118.199 184.164C118.629 184.039 118.984 183.895 119.266 183.73C119.531 183.574 119.766 183.41 119.969 183.238C120.172 183.066 120.359 182.898 120.531 182.734H121.129V186.332C120.465 186.645 119.77 186.891 119.043 187.07C118.324 187.258 117.527 187.352 116.652 187.352ZM134.898 176.699H130.703V187H126.484V176.699H122.289V173.84H134.898V176.699ZM150.309 187H146.219V178.949L140.5 187H137.008V173.84H141.098V181.047L146.395 173.84H150.309V187ZM42.1094 210.398C42.1094 211.25 41.9453 212.035 41.6172 212.754C41.2969 213.465 40.8555 214.047 40.293 214.5C39.582 215.07 38.8398 215.465 38.0664 215.684C37.3008 215.895 36.3711 216 35.2773 216H27.2266V198.551H40.7852V201.926H31.7031V205.055H35.3477C36.5664 205.055 37.5625 205.145 38.3359 205.324C39.1094 205.496 39.793 205.816 40.3867 206.285C40.9883 206.754 41.4258 207.348 41.6992 208.066C41.9727 208.777 42.1094 209.555 42.1094 210.398ZM37.457 210.527C37.457 210.238 37.4258 209.965 37.3633 209.707C37.3008 209.449 37.1641 209.211 36.9531 208.992C36.7422 208.781 36.4531 208.613 36.0859 208.488C35.7188 208.363 35.2109 208.301 34.5625 208.301H31.7031V212.742H34.5625C35.0547 212.742 35.4961 212.68 35.8867 212.555C36.2852 212.43 36.5898 212.27 36.8008 212.074C37.0117 211.887 37.1719 211.664 37.2812 211.406C37.3984 211.141 37.457 210.848 37.457 210.527ZM53.1484 212.566V209.824C52.5781 209.871 51.9609 209.938 51.2969 210.023C50.6328 210.102 50.1289 210.195 49.7852 210.305C49.3633 210.438 49.0391 210.633 48.8125 210.891C48.5938 211.141 48.4844 211.473 48.4844 211.887C48.4844 212.16 48.5078 212.383 48.5547 212.555C48.6016 212.727 48.7188 212.891 48.9062 213.047C49.0859 213.203 49.3008 213.32 49.5508 213.398C49.8008 213.469 50.1914 213.504 50.7227 213.504C51.1445 213.504 51.5703 213.418 52 213.246C52.4375 213.074 52.8203 212.848 53.1484 212.566ZM53.1484 214.605C52.9219 214.777 52.6406 214.984 52.3047 215.227C51.9688 215.469 51.6523 215.66 51.3555 215.801C50.9414 215.988 50.5117 216.125 50.0664 216.211C49.6211 216.305 49.1328 216.352 48.6016 216.352C47.3516 216.352 46.3047 215.965 45.4609 215.191C44.6172 214.418 44.1953 213.43 44.1953 212.227C44.1953 211.266 44.4102 210.48 44.8398 209.871C45.2695 209.262 45.8789 208.781 46.668 208.43C47.4492 208.078 48.418 207.828 49.5742 207.68C50.7305 207.531 51.9297 207.422 53.1719 207.352V207.281C53.1719 206.555 52.875 206.055 52.2812 205.781C51.6875 205.5 50.8125 205.359 49.6562 205.359C48.9609 205.359 48.2188 205.484 47.4297 205.734C46.6406 205.977 46.0742 206.164 45.7305 206.297H45.3438V203.121C45.7891 203.004 46.5117 202.867 47.5117 202.711C48.5195 202.547 49.5273 202.465 50.5352 202.465C52.9336 202.465 54.6641 202.836 55.7266 203.578C56.7969 204.312 57.332 205.469 57.332 207.047V216H53.1484V214.605ZM81.2852 216H61.2109V202.84H65.418V213.105H69.1445V202.84H73.3516V213.105H77.0781V202.84H81.2852V216ZM99.25 216H94.375L90.8477 210.785H89.5V216H85.2812V202.84H89.5V208.125C90.2812 208.117 90.8203 208.035 91.1172 207.879C91.4141 207.715 91.7578 207.289 92.1484 206.602C92.2656 206.398 92.4062 206.137 92.5703 205.816C92.7344 205.496 92.8633 205.25 92.957 205.078C93.3867 204.312 93.8867 203.746 94.457 203.379C95.0352 203.004 95.8359 202.816 96.8594 202.816C97.1562 202.816 97.4688 202.82 97.7969 202.828C98.1328 202.836 98.3594 202.84 98.4766 202.84V206.355H97.3281C96.8594 206.355 96.4844 206.473 96.2031 206.707C95.9297 206.941 95.6914 207.289 95.4883 207.75C95.3164 208.133 95.1602 208.438 95.0195 208.664C94.8789 208.883 94.6992 209.07 94.4805 209.227L99.25 216ZM109.352 212.566V209.824C108.781 209.871 108.164 209.938 107.5 210.023C106.836 210.102 106.332 210.195 105.988 210.305C105.566 210.438 105.242 210.633 105.016 210.891C104.797 211.141 104.688 211.473 104.688 211.887C104.688 212.16 104.711 212.383 104.758 212.555C104.805 212.727 104.922 212.891 105.109 213.047C105.289 213.203 105.504 213.32 105.754 213.398C106.004 213.469 106.395 213.504 106.926 213.504C107.348 213.504 107.773 213.418 108.203 213.246C108.641 213.074 109.023 212.848 109.352 212.566ZM109.352 214.605C109.125 214.777 108.844 214.984 108.508 215.227C108.172 215.469 107.855 215.66 107.559 215.801C107.145 215.988 106.715 216.125 106.27 216.211C105.824 216.305 105.336 216.352 104.805 216.352C103.555 216.352 102.508 215.965 101.664 215.191C100.82 214.418 100.398 213.43 100.398 212.227C100.398 211.266 100.613 210.48 101.043 209.871C101.473 209.262 102.082 208.781 102.871 208.43C103.652 208.078 104.621 207.828 105.777 207.68C106.934 207.531 108.133 207.422 109.375 207.352V207.281C109.375 206.555 109.078 206.055 108.484 205.781C107.891 205.5 107.016 205.359 105.859 205.359C105.164 205.359 104.422 205.484 103.633 205.734C102.844 205.977 102.277 206.164 101.934 206.297H101.547V203.121C101.992 203.004 102.715 202.867 103.715 202.711C104.723 202.547 105.73 202.465 106.738 202.465C109.137 202.465 110.867 202.836 111.93 203.578C113 204.312 113.535 205.469 113.535 207.047V216H109.352V214.605ZM131.148 209.238C131.148 210.324 130.98 211.312 130.645 212.203C130.316 213.094 129.883 213.828 129.344 214.406C128.781 215.016 128.145 215.477 127.434 215.789C126.723 216.102 125.961 216.258 125.148 216.258C124.398 216.258 123.762 216.176 123.238 216.012C122.715 215.855 122.18 215.633 121.633 215.344V220.828H117.414V202.84H121.633V204.211C122.281 203.695 122.941 203.277 123.613 202.957C124.293 202.637 125.074 202.477 125.957 202.477C127.598 202.477 128.871 203.078 129.777 204.281C130.691 205.484 131.148 207.137 131.148 209.238ZM126.801 209.32C126.801 208.039 126.582 207.109 126.145 206.531C125.707 205.953 125.016 205.664 124.07 205.664C123.672 205.664 123.262 205.727 122.84 205.852C122.418 205.969 122.016 206.141 121.633 206.367V212.988C121.914 213.098 122.215 213.168 122.535 213.199C122.855 213.23 123.172 213.246 123.484 213.246C124.602 213.246 125.434 212.922 125.98 212.273C126.527 211.617 126.801 210.633 126.801 209.32ZM140.137 211.348L143.137 202.84H147.473L140.16 220.828H135.59L137.676 215.906L132.555 202.84H136.984L140.137 211.348ZM155.77 211.348L158.77 202.84H163.105L155.793 220.828H151.223L153.309 215.906L148.188 202.84H152.617L155.77 211.348Z" fill="#333333"/>
<path d="M30 252L37.5 259.5L50 244.5" stroke="#61B857" stroke-width="2" stroke-linecap="round" stroke-linejoin="round"/>
<path d="M69.0312 246.344L68.6953 250.867H67.6641L67.3281 246.344H69.0312ZM66.0156 246.344L65.6797 250.867H64.6484L64.3125 246.344H66.0156ZM80.6875 254.898C80.6875 255.461 80.5755 255.971 80.3516 256.43C80.1328 256.888 79.8385 257.26 79.4688 257.547C79.0312 257.891 78.5625 258.135 78.0625 258.281C77.5625 258.427 76.9167 258.5 76.125 258.5H71.9062V246.867H79.6953V248.242H73.4531V251.43H76.1719C76.9635 251.43 77.6094 251.477 78.1094 251.57C78.6094 251.659 79.0807 251.875 79.5234 252.219C79.9193 252.526 80.2109 252.906 80.3984 253.359C80.5911 253.812 80.6875 254.326 80.6875 254.898ZM79.0703 254.93C79.0703 254.539 79.0052 254.195 78.875 253.898C78.7448 253.602 78.5417 253.362 78.2656 253.18C77.9792 252.987 77.6484 252.87 77.2734 252.828C76.8984 252.786 76.3698 252.766 75.6875 252.766H73.4531V257.18H75.6484C76.3411 257.18 76.8724 257.146 77.2422 257.078C77.6172 257.01 77.9453 256.88 78.2266 256.688C78.5182 256.484 78.7318 256.247 78.8672 255.977C79.0026 255.701 79.0703 255.352 79.0703 254.93ZM90.1094 258.5H88.6562V251.945L84.0859 258.5H82.7578V249.773H84.2109V256.234L88.7344 249.773H90.1094V258.5ZM99.0781 256.055C99.0781 256.544 98.9635 256.958 98.7344 257.297C98.5104 257.635 98.2214 257.909 97.8672 258.117C97.513 258.32 97.1224 258.469 96.6953 258.562C96.2682 258.656 95.8411 258.703 95.4141 258.703C94.8099 258.703 94.2344 258.646 93.6875 258.531C93.1406 258.417 92.6016 258.24 92.0703 258V256.391H92.1719C92.5521 256.724 93.0365 256.982 93.625 257.164C94.2135 257.346 94.7839 257.438 95.3359 257.438C95.5964 257.438 95.8646 257.414 96.1406 257.367C96.4167 257.315 96.6562 257.234 96.8594 257.125C97.0781 257 97.2526 256.852 97.3828 256.68C97.513 256.503 97.5781 256.263 97.5781 255.961C97.5781 255.648 97.513 255.398 97.3828 255.211C97.2578 255.023 97.0859 254.883 96.8672 254.789C96.6536 254.695 96.3958 254.638 96.0938 254.617C95.7917 254.596 95.5156 254.586 95.2656 254.586H93.9922V253.32H94.875C95.0833 253.32 95.3542 253.312 95.6875 253.297C96.026 253.281 96.2995 253.24 96.5078 253.172C96.7786 253.083 96.9922 252.958 97.1484 252.797C97.3099 252.635 97.3906 252.378 97.3906 252.023C97.3906 251.779 97.3281 251.578 97.2031 251.422C97.0781 251.26 96.9219 251.135 96.7344 251.047C96.5417 250.958 96.3255 250.898 96.0859 250.867C95.8516 250.836 95.6432 250.82 95.4609 250.82C94.9297 250.82 94.4062 250.893 93.8906 251.039C93.3802 251.18 92.9505 251.385 92.6016 251.656H92.5V250.039C92.9323 249.898 93.3958 249.784 93.8906 249.695C94.3854 249.607 94.8802 249.562 95.375 249.562C95.7812 249.562 96.1849 249.599 96.5859 249.672C96.9922 249.745 97.3698 249.87 97.7188 250.047C98.0625 250.224 98.3438 250.466 98.5625 250.773C98.7812 251.076 98.8906 251.451 98.8906 251.898C98.8906 252.357 98.7474 252.76 98.4609 253.109C98.1797 253.453 97.7995 253.701 97.3203 253.852V253.906C97.8568 254.036 98.2839 254.281 98.6016 254.641C98.9193 254.995 99.0781 255.466 99.0781 256.055ZM108.703 258.5H107.234V254.57H102.867V258.5H101.398V249.773H102.867V253.305H107.234V249.773H108.703V258.5ZM118.906 254.289H112.477C112.477 254.826 112.557 255.294 112.719 255.695C112.88 256.091 113.102 256.417 113.383 256.672C113.654 256.922 113.974 257.109 114.344 257.234C114.719 257.359 115.13 257.422 115.578 257.422C116.172 257.422 116.768 257.305 117.367 257.07C117.971 256.831 118.401 256.596 118.656 256.367H118.734V257.969C118.24 258.177 117.734 258.352 117.219 258.492C116.703 258.633 116.161 258.703 115.594 258.703C114.146 258.703 113.016 258.312 112.203 257.531C111.391 256.745 110.984 255.63 110.984 254.188C110.984 252.76 111.372 251.628 112.148 250.789C112.93 249.951 113.956 249.531 115.227 249.531C116.404 249.531 117.31 249.875 117.945 250.562C118.586 251.25 118.906 252.227 118.906 253.492V254.289ZM117.477 253.164C117.471 252.393 117.276 251.797 116.891 251.375C116.51 250.953 115.93 250.742 115.148 250.742C114.362 250.742 113.734 250.974 113.266 251.438C112.802 251.901 112.539 252.477 112.477 253.164H117.477ZM127.664 257.953C127.065 258.234 126.549 258.427 126.117 258.531C125.69 258.641 125.263 258.695 124.836 258.695C124.201 258.695 123.617 258.604 123.086 258.422C122.555 258.234 122.099 257.953 121.719 257.578C121.339 257.203 121.042 256.729 120.828 256.156C120.62 255.583 120.516 254.914 120.516 254.148C120.516 252.758 120.901 251.648 121.672 250.82C122.443 249.987 123.497 249.57 124.836 249.57C125.341 249.57 125.836 249.641 126.32 249.781C126.81 249.922 127.258 250.094 127.664 250.297V251.93H127.578C127.094 251.56 126.615 251.286 126.141 251.109C125.672 250.932 125.216 250.844 124.773 250.844C123.904 250.844 123.229 251.135 122.75 251.719C122.276 252.302 122.039 253.112 122.039 254.148C122.039 255.185 122.276 255.99 122.75 256.562C123.224 257.135 123.898 257.422 124.773 257.422C125.081 257.422 125.385 257.383 125.688 257.305C125.995 257.227 126.273 257.125 126.523 257C126.721 256.901 126.924 256.784 127.133 256.648C127.346 256.508 127.495 256.404 127.578 256.336H127.664V257.953ZM142.977 252.68C142.977 254.768 142.648 256.302 141.992 257.281C141.341 258.255 140.328 258.742 138.953 258.742C137.557 258.742 136.536 258.247 135.891 257.258C135.25 256.268 134.93 254.747 134.93 252.695C134.93 250.628 135.255 249.102 135.906 248.117C136.557 247.128 137.573 246.633 138.953 246.633C140.349 246.633 141.367 247.135 142.008 248.141C142.654 249.141 142.977 250.654 142.977 252.68ZM140.922 256.227C141.104 255.805 141.227 255.31 141.289 254.742C141.357 254.169 141.391 253.482 141.391 252.68C141.391 251.888 141.357 251.201 141.289 250.617C141.227 250.034 141.102 249.539 140.914 249.133C140.732 248.732 140.482 248.43 140.164 248.227C139.852 248.023 139.448 247.922 138.953 247.922C138.464 247.922 138.057 248.023 137.734 248.227C137.417 248.43 137.164 248.737 136.977 249.148C136.799 249.534 136.677 250.036 136.609 250.656C136.547 251.276 136.516 251.956 136.516 252.695C136.516 253.508 136.544 254.188 136.602 254.734C136.659 255.281 136.781 255.771 136.969 256.203C137.141 256.609 137.383 256.919 137.695 257.133C138.013 257.346 138.432 257.453 138.953 257.453C139.443 257.453 139.849 257.352 140.172 257.148C140.495 256.945 140.745 256.638 140.922 256.227ZM153.398 260.594H152.031V258.477H145.469V260.594H144.102V257.25H145.047C145.656 256.245 146.109 255.086 146.406 253.773C146.708 252.456 146.859 251.122 146.859 249.773H152.344V257.25H153.398V260.594ZM150.875 257.25V251.008H148.242C148.174 252.315 147.974 253.508 147.641 254.586C147.307 255.664 146.924 256.552 146.492 257.25H150.875ZM162.867 254.141C162.867 255.479 162.536 256.562 161.875 257.391C161.156 258.292 160.146 258.742 158.844 258.742C157.536 258.742 156.523 258.292 155.805 257.391C155.143 256.568 154.812 255.484 154.812 254.141C154.812 252.797 155.143 251.711 155.805 250.883C156.523 249.982 157.536 249.531 158.844 249.531C160.151 249.531 161.164 249.982 161.883 250.883C162.539 251.711 162.867 252.797 162.867 254.141ZM161.328 253.555C161.182 251.716 160.354 250.797 158.844 250.797C157.323 250.797 156.492 251.716 156.352 253.555H161.328ZM161.336 254.68H156.344C156.406 255.503 156.628 256.156 157.008 256.641C157.44 257.198 158.052 257.477 158.844 257.477C160.365 257.477 161.195 256.544 161.336 254.68ZM172.453 258.5H170.984V254.57H166.617V258.5H165.148V249.773H166.617V253.305H170.984V249.773H172.453V258.5ZM179.938 246.344L179.602 250.867H178.57L178.234 246.344H179.938ZM176.922 246.344L176.586 250.867H175.555L175.219 246.344H176.922ZM196.195 258.5H194.273L190.648 254.5H189.852V258.5H188.383V249.773H189.852V253.539C190.336 253.539 190.727 253.453 191.023 253.281C191.32 253.104 191.573 252.823 191.781 252.438C191.854 252.297 191.924 252.148 191.992 251.992C192.065 251.831 192.135 251.677 192.203 251.531C192.474 250.943 192.812 250.503 193.219 250.211C193.625 249.919 194.208 249.773 194.969 249.773H195.641V251.039H194.992C194.581 251.039 194.258 251.128 194.023 251.305C193.794 251.477 193.586 251.781 193.398 252.219C193.19 252.708 192.969 253.076 192.734 253.32C192.505 253.56 192.26 253.742 192 253.867L196.195 258.5ZM205.336 249.773L200.242 261.719H198.672L200.297 258.078L196.82 249.773H198.414L201.094 256.242L203.797 249.773H205.336ZM214.938 254.031C214.938 254.74 214.836 255.388 214.633 255.977C214.43 256.56 214.143 257.055 213.773 257.461C213.43 257.846 213.023 258.146 212.555 258.359C212.091 258.568 211.599 258.672 211.078 258.672C210.625 258.672 210.214 258.622 209.844 258.523C209.479 258.424 209.107 258.271 208.727 258.062V261.719H207.258V249.773H208.727V250.688C209.117 250.359 209.555 250.086 210.039 249.867C210.529 249.643 211.049 249.531 211.602 249.531C212.654 249.531 213.471 249.93 214.055 250.727C214.643 251.518 214.938 252.62 214.938 254.031ZM213.422 254.07C213.422 253.018 213.242 252.232 212.883 251.711C212.523 251.19 211.971 250.93 211.227 250.93C210.805 250.93 210.38 251.021 209.953 251.203C209.526 251.385 209.117 251.625 208.727 251.922V256.867C209.143 257.055 209.5 257.182 209.797 257.25C210.099 257.318 210.44 257.352 210.82 257.352C211.638 257.352 212.276 257.076 212.734 256.523C213.193 255.971 213.422 255.154 213.422 254.07ZM223.758 257.953C223.159 258.234 222.643 258.427 222.211 258.531C221.784 258.641 221.357 258.695 220.93 258.695C220.294 258.695 219.711 258.604 219.18 258.422C218.648 258.234 218.193 257.953 217.812 257.578C217.432 257.203 217.135 256.729 216.922 256.156C216.714 255.583 216.609 254.914 216.609 254.148C216.609 252.758 216.995 251.648 217.766 250.82C218.536 249.987 219.591 249.57 220.93 249.57C221.435 249.57 221.93 249.641 222.414 249.781C222.904 249.922 223.352 250.094 223.758 250.297V251.93H223.672C223.188 251.56 222.708 251.286 222.234 251.109C221.766 250.932 221.31 250.844 220.867 250.844C219.997 250.844 219.323 251.135 218.844 251.719C218.37 252.302 218.133 253.112 218.133 254.148C218.133 255.185 218.37 255.99 218.844 256.562C219.318 257.135 219.992 257.422 220.867 257.422C221.174 257.422 221.479 257.383 221.781 257.305C222.089 257.227 222.367 257.125 222.617 257C222.815 256.901 223.018 256.784 223.227 256.648C223.44 256.508 223.589 256.404 223.672 256.336H223.758V257.953ZM233.32 249.773L228.227 261.719H226.656L228.281 258.078L224.805 249.773H226.398L229.078 256.242L231.781 249.773H233.32Z" fill="#333333"/>
<path d="M30 298L37.5 305.5L50 290.5" stroke="#61B857" stroke-width="2" stroke-linecap="round" stroke-linejoin="round"/>
<path d="M73.3438 300.898C73.3438 301.461 73.2318 301.971 73.0078 302.43C72.7891 302.888 72.4948 303.26 72.125 303.547C71.6875 303.891 71.2188 304.135 70.7188 304.281C70.2188 304.427 69.5729 304.5 68.7812 304.5H64.5625V292.867H72.3516V294.242H66.1094V297.43H68.8281C69.6198 297.43 70.2656 297.477 70.7656 297.57C71.2656 297.659 71.737 297.875 72.1797 298.219C72.5755 298.526 72.8672 298.906 73.0547 299.359C73.2474 299.812 73.3438 300.326 73.3438 300.898ZM71.7266 300.93C71.7266 300.539 71.6615 300.195 71.5312 299.898C71.401 299.602 71.1979 299.362 70.9219 299.18C70.6354 298.987 70.3047 298.87 69.9297 298.828C69.5547 298.786 69.026 298.766 68.3438 298.766H66.1094V303.18H68.3047C68.9974 303.18 69.5286 303.146 69.8984 303.078C70.2734 303.01 70.6016 302.88 70.8828 302.688C71.1745 302.484 71.388 302.247 71.5234 301.977C71.6589 301.701 71.7266 301.352 71.7266 300.93ZM82.7656 304.5H81.3125V297.945L76.7422 304.5H75.4141V295.773H76.8672V302.234L81.3906 295.773H82.7656V304.5ZM91.7344 302.055C91.7344 302.544 91.6198 302.958 91.3906 303.297C91.1667 303.635 90.8776 303.909 90.5234 304.117C90.1693 304.32 89.7786 304.469 89.3516 304.562C88.9245 304.656 88.4974 304.703 88.0703 304.703C87.4661 304.703 86.8906 304.646 86.3438 304.531C85.7969 304.417 85.2578 304.24 84.7266 304V302.391H84.8281C85.2083 302.724 85.6927 302.982 86.2812 303.164C86.8698 303.346 87.4401 303.438 87.9922 303.438C88.2526 303.438 88.5208 303.414 88.7969 303.367C89.0729 303.315 89.3125 303.234 89.5156 303.125C89.7344 303 89.9089 302.852 90.0391 302.68C90.1693 302.503 90.2344 302.263 90.2344 301.961C90.2344 301.648 90.1693 301.398 90.0391 301.211C89.9141 301.023 89.7422 300.883 89.5234 300.789C89.3099 300.695 89.0521 300.638 88.75 300.617C88.4479 300.596 88.1719 300.586 87.9219 300.586H86.6484V299.32H87.5312C87.7396 299.32 88.0104 299.312 88.3438 299.297C88.6823 299.281 88.9557 299.24 89.1641 299.172C89.4349 299.083 89.6484 298.958 89.8047 298.797C89.9661 298.635 90.0469 298.378 90.0469 298.023C90.0469 297.779 89.9844 297.578 89.8594 297.422C89.7344 297.26 89.5781 297.135 89.3906 297.047C89.1979 296.958 88.9818 296.898 88.7422 296.867C88.5078 296.836 88.2995 296.82 88.1172 296.82C87.5859 296.82 87.0625 296.893 86.5469 297.039C86.0365 297.18 85.6068 297.385 85.2578 297.656H85.1562V296.039C85.5885 295.898 86.0521 295.784 86.5469 295.695C87.0417 295.607 87.5365 295.562 88.0312 295.562C88.4375 295.562 88.8411 295.599 89.2422 295.672C89.6484 295.745 90.026 295.87 90.375 296.047C90.7188 296.224 91 296.466 91.2188 296.773C91.4375 297.076 91.5469 297.451 91.5469 297.898C91.5469 298.357 91.4036 298.76 91.1172 299.109C90.8359 299.453 90.4557 299.701 89.9766 299.852V299.906C90.513 300.036 90.9401 300.281 91.2578 300.641C91.5755 300.995 91.7344 301.466 91.7344 302.055ZM101.359 304.5H99.8906V300.57H95.5234V304.5H94.0547V295.773H95.5234V299.305H99.8906V295.773H101.359V304.5ZM111.562 300.289H105.133C105.133 300.826 105.214 301.294 105.375 301.695C105.536 302.091 105.758 302.417 106.039 302.672C106.31 302.922 106.63 303.109 107 303.234C107.375 303.359 107.786 303.422 108.234 303.422C108.828 303.422 109.424 303.305 110.023 303.07C110.628 302.831 111.057 302.596 111.312 302.367H111.391V303.969C110.896 304.177 110.391 304.352 109.875 304.492C109.359 304.633 108.818 304.703 108.25 304.703C106.802 304.703 105.672 304.312 104.859 303.531C104.047 302.745 103.641 301.63 103.641 300.188C103.641 298.76 104.029 297.628 104.805 296.789C105.586 295.951 106.612 295.531 107.883 295.531C109.06 295.531 109.966 295.875 110.602 296.562C111.242 297.25 111.562 298.227 111.562 299.492V300.289ZM110.133 299.164C110.128 298.393 109.932 297.797 109.547 297.375C109.167 296.953 108.586 296.742 107.805 296.742C107.018 296.742 106.391 296.974 105.922 297.438C105.458 297.901 105.195 298.477 105.133 299.164H110.133ZM120.32 303.953C119.721 304.234 119.206 304.427 118.773 304.531C118.346 304.641 117.919 304.695 117.492 304.695C116.857 304.695 116.273 304.604 115.742 304.422C115.211 304.234 114.755 303.953 114.375 303.578C113.995 303.203 113.698 302.729 113.484 302.156C113.276 301.583 113.172 300.914 113.172 300.148C113.172 298.758 113.557 297.648 114.328 296.82C115.099 295.987 116.154 295.57 117.492 295.57C117.997 295.57 118.492 295.641 118.977 295.781C119.466 295.922 119.914 296.094 120.32 296.297V297.93H120.234C119.75 297.56 119.271 297.286 118.797 297.109C118.328 296.932 117.872 296.844 117.43 296.844C116.56 296.844 115.885 297.135 115.406 297.719C114.932 298.302 114.695 299.112 114.695 300.148C114.695 301.185 114.932 301.99 115.406 302.562C115.88 303.135 116.555 303.422 117.43 303.422C117.737 303.422 118.042 303.383 118.344 303.305C118.651 303.227 118.93 303.125 119.18 303C119.378 302.901 119.581 302.784 119.789 302.648C120.003 302.508 120.151 302.404 120.234 302.336H120.32V303.953ZM137.43 304.5H135.445L130.719 299.195H129.664V304.5H128.117V292.867H129.664V298.086C129.93 298.081 130.18 298.055 130.414 298.008C130.648 297.961 130.87 297.872 131.078 297.742C131.286 297.622 131.492 297.453 131.695 297.234C131.898 297.01 132.078 296.737 132.234 296.414C132.302 296.273 132.38 296.096 132.469 295.883C132.562 295.669 132.656 295.445 132.75 295.211C133.109 294.346 133.529 293.74 134.008 293.391C134.492 293.042 135.203 292.867 136.141 292.867H136.758V294.25H136.109C135.75 294.25 135.469 294.284 135.266 294.352C135.062 294.414 134.88 294.521 134.719 294.672C134.568 294.807 134.435 294.99 134.32 295.219C134.211 295.448 134.096 295.716 133.977 296.023C133.706 296.711 133.43 297.216 133.148 297.539C132.872 297.862 132.5 298.143 132.031 298.383L137.43 304.5ZM146.492 300.141C146.492 301.562 146.128 302.685 145.398 303.508C144.669 304.331 143.693 304.742 142.469 304.742C141.234 304.742 140.253 304.331 139.523 303.508C138.799 302.685 138.438 301.562 138.438 300.141C138.438 298.719 138.799 297.596 139.523 296.773C140.253 295.945 141.234 295.531 142.469 295.531C143.693 295.531 144.669 295.945 145.398 296.773C146.128 297.596 146.492 298.719 146.492 300.141ZM144.977 300.141C144.977 299.01 144.755 298.172 144.312 297.625C143.87 297.073 143.255 296.797 142.469 296.797C141.672 296.797 141.052 297.073 140.609 297.625C140.172 298.172 139.953 299.01 139.953 300.141C139.953 301.234 140.174 302.065 140.617 302.633C141.06 303.195 141.677 303.477 142.469 303.477C143.25 303.477 143.862 303.198 144.305 302.641C144.753 302.078 144.977 301.245 144.977 300.141ZM156.078 304.5H154.609V300.57H150.242V304.5H148.773V295.773H150.242V299.305H154.609V295.773H156.078V304.5ZM165.508 303.953C164.909 304.234 164.393 304.427 163.961 304.531C163.534 304.641 163.107 304.695 162.68 304.695C162.044 304.695 161.461 304.604 160.93 304.422C160.398 304.234 159.943 303.953 159.562 303.578C159.182 303.203 158.885 302.729 158.672 302.156C158.464 301.583 158.359 300.914 158.359 300.148C158.359 298.758 158.745 297.648 159.516 296.82C160.286 295.987 161.341 295.57 162.68 295.57C163.185 295.57 163.68 295.641 164.164 295.781C164.654 295.922 165.102 296.094 165.508 296.297V297.93H165.422C164.938 297.56 164.458 297.286 163.984 297.109C163.516 296.932 163.06 296.844 162.617 296.844C161.747 296.844 161.073 297.135 160.594 297.719C160.12 298.302 159.883 299.112 159.883 300.148C159.883 301.185 160.12 301.99 160.594 302.562C161.068 303.135 161.742 303.422 162.617 303.422C162.924 303.422 163.229 303.383 163.531 303.305C163.839 303.227 164.117 303.125 164.367 303C164.565 302.901 164.768 302.784 164.977 302.648C165.19 302.508 165.339 302.404 165.422 302.336H165.508V303.953ZM175.07 295.773L169.977 307.719H168.406L170.031 304.078L166.555 295.773H168.148L170.828 302.242L173.531 295.773H175.07ZM184.031 304.5H182.562V297.008H179.305C179.289 297.44 179.273 297.857 179.258 298.258C179.242 298.659 179.227 299.021 179.211 299.344C179.174 300.214 179.115 300.909 179.031 301.43C178.948 301.945 178.839 302.375 178.703 302.719C178.578 303.042 178.438 303.305 178.281 303.508C178.13 303.706 177.966 303.885 177.789 304.047C177.612 304.203 177.414 304.32 177.195 304.398C176.982 304.477 176.747 304.516 176.492 304.516C176.404 304.516 176.273 304.513 176.102 304.508C175.935 304.503 175.826 304.5 175.773 304.5V303.219H175.852C175.893 303.219 175.953 303.221 176.031 303.227C176.109 303.232 176.174 303.234 176.227 303.234C176.352 303.234 176.479 303.216 176.609 303.18C176.745 303.143 176.859 303.076 176.953 302.977C177.219 302.716 177.432 302.276 177.594 301.656C177.755 301.036 177.862 300.141 177.914 298.969C177.935 298.542 177.953 298.036 177.969 297.453C177.99 296.865 178.008 296.305 178.023 295.773H184.031V304.5ZM192.383 301.82C192.383 301.555 192.336 301.323 192.242 301.125C192.154 300.922 192.005 300.758 191.797 300.633C191.578 300.503 191.328 300.424 191.047 300.398C190.771 300.372 190.372 300.359 189.852 300.359H188.398V303.328H189.82C190.341 303.328 190.745 303.307 191.031 303.266C191.318 303.219 191.565 303.133 191.773 303.008C191.987 302.872 192.141 302.714 192.234 302.531C192.333 302.344 192.383 302.107 192.383 301.82ZM193.898 301.797C193.898 302.219 193.812 302.602 193.641 302.945C193.474 303.289 193.245 303.568 192.953 303.781C192.609 304.042 192.242 304.227 191.852 304.336C191.461 304.445 190.958 304.5 190.344 304.5H186.93V295.773H188.398V299.172H190.383C191.039 299.172 191.547 299.206 191.906 299.273C192.271 299.341 192.633 299.508 192.992 299.773C193.294 299.997 193.521 300.284 193.672 300.633C193.823 300.982 193.898 301.37 193.898 301.797ZM202.484 297.062H199.328V304.5H197.859V297.062H194.703V295.773H202.484V297.062ZM210.789 304.5H209.328V303.57C209.198 303.659 209.021 303.784 208.797 303.945C208.578 304.102 208.365 304.227 208.156 304.32C207.911 304.44 207.63 304.539 207.312 304.617C206.995 304.701 206.622 304.742 206.195 304.742C205.409 304.742 204.742 304.482 204.195 303.961C203.648 303.44 203.375 302.776 203.375 301.969C203.375 301.307 203.516 300.773 203.797 300.367C204.083 299.956 204.49 299.633 205.016 299.398C205.547 299.164 206.185 299.005 206.93 298.922C207.674 298.839 208.474 298.776 209.328 298.734V298.508C209.328 298.174 209.268 297.898 209.148 297.68C209.034 297.461 208.867 297.289 208.648 297.164C208.44 297.044 208.19 296.964 207.898 296.922C207.607 296.88 207.302 296.859 206.984 296.859C206.599 296.859 206.169 296.911 205.695 297.016C205.221 297.115 204.732 297.26 204.227 297.453H204.148V295.961C204.435 295.883 204.849 295.797 205.391 295.703C205.932 295.609 206.466 295.562 206.992 295.562C207.607 295.562 208.141 295.615 208.594 295.719C209.052 295.818 209.448 295.99 209.781 296.234C210.109 296.474 210.359 296.784 210.531 297.164C210.703 297.544 210.789 298.016 210.789 298.578V304.5ZM209.328 302.352V299.922C208.88 299.948 208.352 299.987 207.742 300.039C207.138 300.091 206.659 300.167 206.305 300.266C205.883 300.385 205.542 300.573 205.281 300.828C205.021 301.078 204.891 301.424 204.891 301.867C204.891 302.367 205.042 302.745 205.344 303C205.646 303.25 206.107 303.375 206.727 303.375C207.242 303.375 207.714 303.276 208.141 303.078C208.568 302.875 208.964 302.633 209.328 302.352ZM220.539 304.5H213.617V295.773H215.086V303.234H219.383V295.773H220.852V303.234H221.906V306.594H220.539V304.5ZM231.281 304.5H229.828V297.945L225.258 304.5H223.93V295.773H225.383V302.234L229.906 295.773H231.281V304.5ZM240.883 304.5H239.414V301.039H237.688L234.984 304.5H233.258L236.195 300.898C235.44 300.69 234.888 300.372 234.539 299.945C234.19 299.513 234.016 298.948 234.016 298.25C234.016 297.786 234.12 297.393 234.328 297.07C234.536 296.747 234.799 296.484 235.117 296.281C235.43 296.083 235.789 295.951 236.195 295.883C236.602 295.81 237.044 295.773 237.523 295.773H240.883V304.5ZM239.414 299.883V296.945H237.562C237.161 296.945 236.872 296.958 236.695 296.984C236.518 297.01 236.326 297.081 236.117 297.195C235.914 297.31 235.763 297.466 235.664 297.664C235.57 297.857 235.523 298.068 235.523 298.297C235.523 298.583 235.552 298.815 235.609 298.992C235.672 299.169 235.797 299.336 235.984 299.492C236.177 299.643 236.411 299.747 236.688 299.805C236.964 299.857 237.271 299.883 237.609 299.883H239.414Z" fill="#333333"/>
<path d="M30 344L37.5 351.5L50 336.5" stroke="#61B857" stroke-width="2" stroke-linecap="round" stroke-linejoin="round"/>
<path d="M73.4453 350.5H71.9062V341.18L66.125 350.5H64.5625V338.867H66.1016V348.047L71.8125 338.867H73.4453V350.5ZM87.5859 350.5H76.4609V341.773H77.9297V349.234H81.2891V341.773H82.7578V349.234H86.1172V341.773H87.5859V350.5ZM98.3516 350.5H96.4297L92.8047 346.5H92.0078V350.5H90.5391V341.773H92.0078V345.539C92.4922 345.539 92.8828 345.453 93.1797 345.281C93.4766 345.104 93.7292 344.823 93.9375 344.438C94.0104 344.297 94.0807 344.148 94.1484 343.992C94.2214 343.831 94.2917 343.677 94.3594 343.531C94.6302 342.943 94.9688 342.503 95.375 342.211C95.7812 341.919 96.3646 341.773 97.125 341.773H97.7969V343.039H97.1484C96.737 343.039 96.4141 343.128 96.1797 343.305C95.9505 343.477 95.7422 343.781 95.5547 344.219C95.3464 344.708 95.125 345.076 94.8906 345.32C94.6615 345.56 94.4167 345.742 94.1562 345.867L98.3516 350.5ZM107.25 346.289H100.82C100.82 346.826 100.901 347.294 101.062 347.695C101.224 348.091 101.445 348.417 101.727 348.672C101.997 348.922 102.318 349.109 102.688 349.234C103.062 349.359 103.474 349.422 103.922 349.422C104.516 349.422 105.112 349.305 105.711 349.07C106.315 348.831 106.745 348.596 107 348.367H107.078V349.969C106.583 350.177 106.078 350.352 105.562 350.492C105.047 350.633 104.505 350.703 103.938 350.703C102.49 350.703 101.359 350.312 100.547 349.531C99.7344 348.745 99.3281 347.63 99.3281 346.188C99.3281 344.76 99.7161 343.628 100.492 342.789C101.273 341.951 102.299 341.531 103.57 341.531C104.747 341.531 105.654 341.875 106.289 342.562C106.93 343.25 107.25 344.227 107.25 345.492V346.289ZM105.82 345.164C105.815 344.393 105.62 343.797 105.234 343.375C104.854 342.953 104.273 342.742 103.492 342.742C102.706 342.742 102.078 342.974 101.609 343.438C101.146 343.901 100.883 344.477 100.82 345.164H105.82ZM117.156 346.031C117.156 346.74 117.055 347.388 116.852 347.977C116.648 348.56 116.362 349.055 115.992 349.461C115.648 349.846 115.242 350.146 114.773 350.359C114.31 350.568 113.818 350.672 113.297 350.672C112.844 350.672 112.432 350.622 112.062 350.523C111.698 350.424 111.326 350.271 110.945 350.062V353.719H109.477V341.773H110.945V342.688C111.336 342.359 111.773 342.086 112.258 341.867C112.747 341.643 113.268 341.531 113.82 341.531C114.872 341.531 115.69 341.93 116.273 342.727C116.862 343.518 117.156 344.62 117.156 346.031ZM115.641 346.07C115.641 345.018 115.461 344.232 115.102 343.711C114.742 343.19 114.19 342.93 113.445 342.93C113.023 342.93 112.599 343.021 112.172 343.203C111.745 343.385 111.336 343.625 110.945 343.922V348.867C111.362 349.055 111.719 349.182 112.016 349.25C112.318 349.318 112.659 349.352 113.039 349.352C113.857 349.352 114.495 349.076 114.953 348.523C115.411 347.971 115.641 347.154 115.641 346.07ZM126.484 350.5H125.016V343.008H121.758C121.742 343.44 121.727 343.857 121.711 344.258C121.695 344.659 121.68 345.021 121.664 345.344C121.628 346.214 121.568 346.909 121.484 347.43C121.401 347.945 121.292 348.375 121.156 348.719C121.031 349.042 120.891 349.305 120.734 349.508C120.583 349.706 120.419 349.885 120.242 350.047C120.065 350.203 119.867 350.32 119.648 350.398C119.435 350.477 119.201 350.516 118.945 350.516C118.857 350.516 118.727 350.513 118.555 350.508C118.388 350.503 118.279 350.5 118.227 350.5V349.219H118.305C118.346 349.219 118.406 349.221 118.484 349.227C118.562 349.232 118.628 349.234 118.68 349.234C118.805 349.234 118.932 349.216 119.062 349.18C119.198 349.143 119.312 349.076 119.406 348.977C119.672 348.716 119.885 348.276 120.047 347.656C120.208 347.036 120.315 346.141 120.367 344.969C120.388 344.542 120.406 344.036 120.422 343.453C120.443 342.865 120.461 342.305 120.477 341.773H126.484V350.5ZM136.688 346.289H130.258C130.258 346.826 130.339 347.294 130.5 347.695C130.661 348.091 130.883 348.417 131.164 348.672C131.435 348.922 131.755 349.109 132.125 349.234C132.5 349.359 132.911 349.422 133.359 349.422C133.953 349.422 134.549 349.305 135.148 349.07C135.753 348.831 136.182 348.596 136.438 348.367H136.516V349.969C136.021 350.177 135.516 350.352 135 350.492C134.484 350.633 133.943 350.703 133.375 350.703C131.927 350.703 130.797 350.312 129.984 349.531C129.172 348.745 128.766 347.63 128.766 346.188C128.766 344.76 129.154 343.628 129.93 342.789C130.711 341.951 131.737 341.531 133.008 341.531C134.185 341.531 135.091 341.875 135.727 342.562C136.367 343.25 136.688 344.227 136.688 345.492V346.289ZM135.258 345.164C135.253 344.393 135.057 343.797 134.672 343.375C134.292 342.953 133.711 342.742 132.93 342.742C132.143 342.742 131.516 342.974 131.047 343.438C130.583 343.901 130.32 344.477 130.258 345.164H135.258ZM146.594 346.031C146.594 346.74 146.492 347.388 146.289 347.977C146.086 348.56 145.799 349.055 145.43 349.461C145.086 349.846 144.68 350.146 144.211 350.359C143.747 350.568 143.255 350.672 142.734 350.672C142.281 350.672 141.87 350.622 141.5 350.523C141.135 350.424 140.763 350.271 140.383 350.062V353.719H138.914V341.773H140.383V342.688C140.773 342.359 141.211 342.086 141.695 341.867C142.185 341.643 142.706 341.531 143.258 341.531C144.31 341.531 145.128 341.93 145.711 342.727C146.299 343.518 146.594 344.62 146.594 346.031ZM145.078 346.07C145.078 345.018 144.898 344.232 144.539 343.711C144.18 343.19 143.628 342.93 142.883 342.93C142.461 342.93 142.036 343.021 141.609 343.203C141.182 343.385 140.773 343.625 140.383 343.922V348.867C140.799 349.055 141.156 349.182 141.453 349.25C141.755 349.318 142.096 349.352 142.477 349.352C143.294 349.352 143.932 349.076 144.391 348.523C144.849 347.971 145.078 347.154 145.078 346.07ZM162.383 350.5H160.461L156.836 346.5H156.039V350.5H154.57V341.773H156.039V345.539C156.523 345.539 156.914 345.453 157.211 345.281C157.508 345.104 157.76 344.823 157.969 344.438C158.042 344.297 158.112 344.148 158.18 343.992C158.253 343.831 158.323 343.677 158.391 343.531C158.661 342.943 159 342.503 159.406 342.211C159.812 341.919 160.396 341.773 161.156 341.773H161.828V343.039H161.18C160.768 343.039 160.445 343.128 160.211 343.305C159.982 343.477 159.773 343.781 159.586 344.219C159.378 344.708 159.156 345.076 158.922 345.32C158.693 345.56 158.448 345.742 158.188 345.867L162.383 350.5ZM171.414 346.141C171.414 347.562 171.049 348.685 170.32 349.508C169.591 350.331 168.615 350.742 167.391 350.742C166.156 350.742 165.174 350.331 164.445 349.508C163.721 348.685 163.359 347.562 163.359 346.141C163.359 344.719 163.721 343.596 164.445 342.773C165.174 341.945 166.156 341.531 167.391 341.531C168.615 341.531 169.591 341.945 170.32 342.773C171.049 343.596 171.414 344.719 171.414 346.141ZM169.898 346.141C169.898 345.01 169.677 344.172 169.234 343.625C168.792 343.073 168.177 342.797 167.391 342.797C166.594 342.797 165.974 343.073 165.531 343.625C165.094 344.172 164.875 345.01 164.875 346.141C164.875 347.234 165.096 348.065 165.539 348.633C165.982 349.195 166.599 349.477 167.391 349.477C168.172 349.477 168.784 349.198 169.227 348.641C169.674 348.078 169.898 347.245 169.898 346.141ZM181.133 346.141C181.133 347.562 180.768 348.685 180.039 349.508C179.31 350.331 178.333 350.742 177.109 350.742C175.875 350.742 174.893 350.331 174.164 349.508C173.44 348.685 173.078 347.562 173.078 346.141C173.078 344.719 173.44 343.596 174.164 342.773C174.893 341.945 175.875 341.531 177.109 341.531C178.333 341.531 179.31 341.945 180.039 342.773C180.768 343.596 181.133 344.719 181.133 346.141ZM179.617 346.141C179.617 345.01 179.396 344.172 178.953 343.625C178.51 343.073 177.896 342.797 177.109 342.797C176.312 342.797 175.693 343.073 175.25 343.625C174.812 344.172 174.594 345.01 174.594 346.141C174.594 347.234 174.815 348.065 175.258 348.633C175.701 349.195 176.318 349.477 177.109 349.477C177.891 349.477 178.503 349.198 178.945 348.641C179.393 348.078 179.617 347.245 179.617 346.141ZM191.664 350.5H190.211V343.609L188.039 348.094H186.945L184.789 343.609V350.5H183.414V341.773H185.188L187.562 346.656L189.859 341.773H191.664V350.5ZM201.352 350.5H199.883V347.148C199.409 347.294 198.956 347.411 198.523 347.5C198.091 347.589 197.62 347.633 197.109 347.633C196.172 347.633 195.456 347.404 194.961 346.945C194.466 346.482 194.219 345.815 194.219 344.945V341.773H195.688V344.195C195.688 344.529 195.708 344.828 195.75 345.094C195.792 345.354 195.88 345.581 196.016 345.773C196.151 345.961 196.341 346.104 196.586 346.203C196.831 346.302 197.172 346.352 197.609 346.352C197.969 346.352 198.359 346.318 198.781 346.25C199.203 346.177 199.57 346.094 199.883 346V341.773H201.352V350.5ZM211.789 341.773L206.695 353.719H205.125L206.75 350.078L203.273 341.773H204.867L207.547 348.242L210.25 341.773H211.789ZM220.75 350.5H219.281V343.008H216.023C216.008 343.44 215.992 343.857 215.977 344.258C215.961 344.659 215.945 345.021 215.93 345.344C215.893 346.214 215.833 346.909 215.75 347.43C215.667 347.945 215.557 348.375 215.422 348.719C215.297 349.042 215.156 349.305 215 349.508C214.849 349.706 214.685 349.885 214.508 350.047C214.331 350.203 214.133 350.32 213.914 350.398C213.701 350.477 213.466 350.516 213.211 350.516C213.122 350.516 212.992 350.513 212.82 350.508C212.654 350.503 212.544 350.5 212.492 350.5V349.219H212.57C212.612 349.219 212.672 349.221 212.75 349.227C212.828 349.232 212.893 349.234 212.945 349.234C213.07 349.234 213.198 349.216 213.328 349.18C213.464 349.143 213.578 349.076 213.672 348.977C213.938 348.716 214.151 348.276 214.312 347.656C214.474 347.036 214.581 346.141 214.633 344.969C214.654 344.542 214.672 344.036 214.688 343.453C214.708 342.865 214.727 342.305 214.742 341.773H220.75V350.5ZM231.195 341.773L226.102 353.719H224.531L226.156 350.078L222.68 341.773H224.273L226.953 348.242L229.656 341.773H231.195ZM239.133 343.062H234.586V350.5H233.117V341.773H239.133V343.062ZM248.211 341.773L243.117 353.719H241.547L243.172 350.078L239.695 341.773H241.289L243.969 348.242L246.672 341.773H248.211Z" fill="#333333"/>
<path d="M30 390L37.5 397.5L50 382.5" stroke="#61B857" stroke-width="2" stroke-linecap="round" stroke-linejoin="round"/>
<path d="M73.3438 387.398C73.3438 387.961 73.2318 388.471 73.0078 388.93C72.7891 389.388 72.4948 389.76 72.125 390.047C71.6875 390.391 71.2188 390.635 70.7188 390.781C70.2188 390.927 69.5729 391 68.7812 391H64.5625V379.367H72.3516V380.742H66.1094V383.93H68.8281C69.6198 383.93 70.2656 383.977 70.7656 384.07C71.2656 384.159 71.737 384.375 72.1797 384.719C72.5755 385.026 72.8672 385.406 73.0547 385.859C73.2474 386.312 73.3438 386.826 73.3438 387.398ZM71.7266 387.43C71.7266 387.039 71.6615 386.695 71.5312 386.398C71.401 386.102 71.1979 385.862 70.9219 385.68C70.6354 385.487 70.3047 385.37 69.9297 385.328C69.5547 385.286 69.026 385.266 68.3438 385.266H66.1094V389.68H68.3047C68.9974 389.68 69.5286 389.646 69.8984 389.578C70.2734 389.51 70.6016 389.38 70.8828 389.188C71.1745 388.984 71.388 388.747 71.5234 388.477C71.6589 388.201 71.7266 387.852 71.7266 387.43ZM82.7656 391H81.3125V384.445L76.7422 391H75.4141V382.273H76.8672V388.734L81.3906 382.273H82.7656V391ZM91.7344 388.555C91.7344 389.044 91.6198 389.458 91.3906 389.797C91.1667 390.135 90.8776 390.409 90.5234 390.617C90.1693 390.82 89.7786 390.969 89.3516 391.062C88.9245 391.156 88.4974 391.203 88.0703 391.203C87.4661 391.203 86.8906 391.146 86.3438 391.031C85.7969 390.917 85.2578 390.74 84.7266 390.5V388.891H84.8281C85.2083 389.224 85.6927 389.482 86.2812 389.664C86.8698 389.846 87.4401 389.938 87.9922 389.938C88.2526 389.938 88.5208 389.914 88.7969 389.867C89.0729 389.815 89.3125 389.734 89.5156 389.625C89.7344 389.5 89.9089 389.352 90.0391 389.18C90.1693 389.003 90.2344 388.763 90.2344 388.461C90.2344 388.148 90.1693 387.898 90.0391 387.711C89.9141 387.523 89.7422 387.383 89.5234 387.289C89.3099 387.195 89.0521 387.138 88.75 387.117C88.4479 387.096 88.1719 387.086 87.9219 387.086H86.6484V385.82H87.5312C87.7396 385.82 88.0104 385.812 88.3438 385.797C88.6823 385.781 88.9557 385.74 89.1641 385.672C89.4349 385.583 89.6484 385.458 89.8047 385.297C89.9661 385.135 90.0469 384.878 90.0469 384.523C90.0469 384.279 89.9844 384.078 89.8594 383.922C89.7344 383.76 89.5781 383.635 89.3906 383.547C89.1979 383.458 88.9818 383.398 88.7422 383.367C88.5078 383.336 88.2995 383.32 88.1172 383.32C87.5859 383.32 87.0625 383.393 86.5469 383.539C86.0365 383.68 85.6068 383.885 85.2578 384.156H85.1562V382.539C85.5885 382.398 86.0521 382.284 86.5469 382.195C87.0417 382.107 87.5365 382.062 88.0312 382.062C88.4375 382.062 88.8411 382.099 89.2422 382.172C89.6484 382.245 90.026 382.37 90.375 382.547C90.7188 382.724 91 382.966 91.2188 383.273C91.4375 383.576 91.5469 383.951 91.5469 384.398C91.5469 384.857 91.4036 385.26 91.1172 385.609C90.8359 385.953 90.4557 386.201 89.9766 386.352V386.406C90.513 386.536 90.9401 386.781 91.2578 387.141C91.5755 387.495 91.7344 387.966 91.7344 388.555ZM101.359 391H99.8906V387.07H95.5234V391H94.0547V382.273H95.5234V385.805H99.8906V382.273H101.359V391ZM111.562 386.789H105.133C105.133 387.326 105.214 387.794 105.375 388.195C105.536 388.591 105.758 388.917 106.039 389.172C106.31 389.422 106.63 389.609 107 389.734C107.375 389.859 107.786 389.922 108.234 389.922C108.828 389.922 109.424 389.805 110.023 389.57C110.628 389.331 111.057 389.096 111.312 388.867H111.391V390.469C110.896 390.677 110.391 390.852 109.875 390.992C109.359 391.133 108.818 391.203 108.25 391.203C106.802 391.203 105.672 390.812 104.859 390.031C104.047 389.245 103.641 388.13 103.641 386.688C103.641 385.26 104.029 384.128 104.805 383.289C105.586 382.451 106.612 382.031 107.883 382.031C109.06 382.031 109.966 382.375 110.602 383.062C111.242 383.75 111.562 384.727 111.562 385.992V386.789ZM110.133 385.664C110.128 384.893 109.932 384.297 109.547 383.875C109.167 383.453 108.586 383.242 107.805 383.242C107.018 383.242 106.391 383.474 105.922 383.938C105.458 384.401 105.195 384.977 105.133 385.664H110.133ZM120.32 390.453C119.721 390.734 119.206 390.927 118.773 391.031C118.346 391.141 117.919 391.195 117.492 391.195C116.857 391.195 116.273 391.104 115.742 390.922C115.211 390.734 114.755 390.453 114.375 390.078C113.995 389.703 113.698 389.229 113.484 388.656C113.276 388.083 113.172 387.414 113.172 386.648C113.172 385.258 113.557 384.148 114.328 383.32C115.099 382.487 116.154 382.07 117.492 382.07C117.997 382.07 118.492 382.141 118.977 382.281C119.466 382.422 119.914 382.594 120.32 382.797V384.43H120.234C119.75 384.06 119.271 383.786 118.797 383.609C118.328 383.432 117.872 383.344 117.43 383.344C116.56 383.344 115.885 383.635 115.406 384.219C114.932 384.802 114.695 385.612 114.695 386.648C114.695 387.685 114.932 388.49 115.406 389.062C115.88 389.635 116.555 389.922 117.43 389.922C117.737 389.922 118.042 389.883 118.344 389.805C118.651 389.727 118.93 389.625 119.18 389.5C119.378 389.401 119.581 389.284 119.789 389.148C120.003 389.008 120.151 388.904 120.234 388.836H120.32V390.453ZM126.961 386.617H122.086V385.203H126.961V386.617ZM138.016 380.742H133.859V391H132.312V380.742H128.156V379.367H138.016V380.742ZM147.141 386.531C147.141 387.24 147.039 387.888 146.836 388.477C146.633 389.06 146.346 389.555 145.977 389.961C145.633 390.346 145.227 390.646 144.758 390.859C144.294 391.068 143.802 391.172 143.281 391.172C142.828 391.172 142.417 391.122 142.047 391.023C141.682 390.924 141.31 390.771 140.93 390.562V394.219H139.461V382.273H140.93V383.188C141.32 382.859 141.758 382.586 142.242 382.367C142.732 382.143 143.253 382.031 143.805 382.031C144.857 382.031 145.674 382.43 146.258 383.227C146.846 384.018 147.141 385.12 147.141 386.531ZM145.625 386.57C145.625 385.518 145.445 384.732 145.086 384.211C144.727 383.69 144.174 383.43 143.43 383.43C143.008 383.43 142.583 383.521 142.156 383.703C141.729 383.885 141.32 384.125 140.93 384.422V389.367C141.346 389.555 141.703 389.682 142 389.75C142.302 389.818 142.643 389.852 143.023 389.852C143.841 389.852 144.479 389.576 144.938 389.023C145.396 388.471 145.625 387.654 145.625 386.57ZM156.734 386.789H150.305C150.305 387.326 150.385 387.794 150.547 388.195C150.708 388.591 150.93 388.917 151.211 389.172C151.482 389.422 151.802 389.609 152.172 389.734C152.547 389.859 152.958 389.922 153.406 389.922C154 389.922 154.596 389.805 155.195 389.57C155.799 389.331 156.229 389.096 156.484 388.867H156.562V390.469C156.068 390.677 155.562 390.852 155.047 390.992C154.531 391.133 153.99 391.203 153.422 391.203C151.974 391.203 150.844 390.812 150.031 390.031C149.219 389.245 148.812 388.13 148.812 386.688C148.812 385.26 149.201 384.128 149.977 383.289C150.758 382.451 151.784 382.031 153.055 382.031C154.232 382.031 155.138 382.375 155.773 383.062C156.414 383.75 156.734 384.727 156.734 385.992V386.789ZM155.305 385.664C155.299 384.893 155.104 384.297 154.719 383.875C154.339 383.453 153.758 383.242 152.977 383.242C152.19 383.242 151.562 383.474 151.094 383.938C150.63 384.401 150.367 384.977 150.305 385.664H155.305ZM166.266 391H164.797V387.07H160.43V391H158.961V382.273H160.43V385.805H164.797V382.273H166.266V391ZM176.516 391H175.062V384.445L170.492 391H169.164V382.273H170.617V388.734L175.141 382.273H176.516V391ZM186.719 391H185.25V387.07H180.883V391H179.414V382.273H180.883V385.805H185.25V382.273H186.719V391ZM195.633 383.562H191.086V391H189.617V382.273H195.633V383.562ZM205.086 393.094H203.719V390.977H197.156V393.094H195.789V389.75H196.734C197.344 388.745 197.797 387.586 198.094 386.273C198.396 384.956 198.547 383.622 198.547 382.273H204.031V389.75H205.086V393.094ZM202.562 389.75V383.508H199.93C199.862 384.815 199.661 386.008 199.328 387.086C198.995 388.164 198.612 389.052 198.18 389.75H202.562ZM214.422 386.789H207.992C207.992 387.326 208.073 387.794 208.234 388.195C208.396 388.591 208.617 388.917 208.898 389.172C209.169 389.422 209.49 389.609 209.859 389.734C210.234 389.859 210.646 389.922 211.094 389.922C211.688 389.922 212.284 389.805 212.883 389.57C213.487 389.331 213.917 389.096 214.172 388.867H214.25V390.469C213.755 390.677 213.25 390.852 212.734 390.992C212.219 391.133 211.677 391.203 211.109 391.203C209.661 391.203 208.531 390.812 207.719 390.031C206.906 389.245 206.5 388.13 206.5 386.688C206.5 385.26 206.888 384.128 207.664 383.289C208.445 382.451 209.471 382.031 210.742 382.031C211.919 382.031 212.826 382.375 213.461 383.062C214.102 383.75 214.422 384.727 214.422 385.992V386.789ZM212.992 385.664C212.987 384.893 212.792 384.297 212.406 383.875C212.026 383.453 211.445 383.242 210.664 383.242C209.878 383.242 209.25 383.474 208.781 383.938C208.318 384.401 208.055 384.977 207.992 385.664H212.992ZM224.328 386.531C224.328 387.24 224.227 387.888 224.023 388.477C223.82 389.06 223.534 389.555 223.164 389.961C222.82 390.346 222.414 390.646 221.945 390.859C221.482 391.068 220.99 391.172 220.469 391.172C220.016 391.172 219.604 391.122 219.234 391.023C218.87 390.924 218.497 390.771 218.117 390.562V394.219H216.648V382.273H218.117V383.188C218.508 382.859 218.945 382.586 219.43 382.367C219.919 382.143 220.44 382.031 220.992 382.031C222.044 382.031 222.862 382.43 223.445 383.227C224.034 384.018 224.328 385.12 224.328 386.531ZM222.812 386.57C222.812 385.518 222.633 384.732 222.273 384.211C221.914 383.69 221.362 383.43 220.617 383.43C220.195 383.43 219.771 383.521 219.344 383.703C218.917 383.885 218.508 384.125 218.117 384.422V389.367C218.534 389.555 218.891 389.682 219.188 389.75C219.49 389.818 219.831 389.852 220.211 389.852C221.029 389.852 221.667 389.576 222.125 389.023C222.583 388.471 222.812 387.654 222.812 386.57ZM229.664 388.773L227.461 393.891H226.32L227.68 388.773H229.664ZM74.9219 410H73.375V399.977L70.1406 406.797H69.2188L66.0078 399.977V410H64.5625V398.367H66.6719L69.7734 404.844L72.7734 398.367H74.9219V410ZM84.7109 410H83.25V409.07C83.1198 409.159 82.9427 409.284 82.7188 409.445C82.5 409.602 82.2865 409.727 82.0781 409.82C81.8333 409.94 81.5521 410.039 81.2344 410.117C80.9167 410.201 80.5443 410.242 80.1172 410.242C79.3307 410.242 78.6641 409.982 78.1172 409.461C77.5703 408.94 77.2969 408.276 77.2969 407.469C77.2969 406.807 77.4375 406.273 77.7188 405.867C78.0052 405.456 78.4115 405.133 78.9375 404.898C79.4688 404.664 80.1068 404.505 80.8516 404.422C81.5964 404.339 82.3958 404.276 83.25 404.234V404.008C83.25 403.674 83.1901 403.398 83.0703 403.18C82.9557 402.961 82.7891 402.789 82.5703 402.664C82.362 402.544 82.112 402.464 81.8203 402.422C81.5286 402.38 81.224 402.359 80.9062 402.359C80.5208 402.359 80.0911 402.411 79.6172 402.516C79.1432 402.615 78.6536 402.76 78.1484 402.953H78.0703V401.461C78.3568 401.383 78.7708 401.297 79.3125 401.203C79.8542 401.109 80.388 401.062 80.9141 401.062C81.5286 401.062 82.0625 401.115 82.5156 401.219C82.974 401.318 83.3698 401.49 83.7031 401.734C84.0312 401.974 84.2812 402.284 84.4531 402.664C84.625 403.044 84.7109 403.516 84.7109 404.078V410ZM83.25 407.852V405.422C82.8021 405.448 82.2734 405.487 81.6641 405.539C81.0599 405.591 80.5807 405.667 80.2266 405.766C79.8047 405.885 79.4635 406.073 79.2031 406.328C78.9427 406.578 78.8125 406.924 78.8125 407.367C78.8125 407.867 78.9635 408.245 79.2656 408.5C79.5677 408.75 80.0286 408.875 80.6484 408.875C81.1641 408.875 81.6354 408.776 82.0625 408.578C82.4896 408.375 82.8854 408.133 83.25 407.852ZM94.0703 409.453C93.4714 409.734 92.9557 409.927 92.5234 410.031C92.0964 410.141 91.6693 410.195 91.2422 410.195C90.6068 410.195 90.0234 410.104 89.4922 409.922C88.9609 409.734 88.5052 409.453 88.125 409.078C87.7448 408.703 87.4479 408.229 87.2344 407.656C87.026 407.083 86.9219 406.414 86.9219 405.648C86.9219 404.258 87.3073 403.148 88.0781 402.32C88.849 401.487 89.9036 401.07 91.2422 401.07C91.7474 401.07 92.2422 401.141 92.7266 401.281C93.2161 401.422 93.6641 401.594 94.0703 401.797V403.43H93.9844C93.5 403.06 93.0208 402.786 92.5469 402.609C92.0781 402.432 91.6224 402.344 91.1797 402.344C90.3099 402.344 89.6354 402.635 89.1562 403.219C88.6823 403.802 88.4453 404.612 88.4453 405.648C88.4453 406.685 88.6823 407.49 89.1562 408.062C89.6302 408.635 90.3047 408.922 91.1797 408.922C91.487 408.922 91.7917 408.883 92.0938 408.805C92.401 408.727 92.6797 408.625 92.9297 408.5C93.1276 408.401 93.3307 408.284 93.5391 408.148C93.7526 408.008 93.901 407.904 93.9844 407.836H94.0703V409.453ZM102.5 402.562H99.3438V410H97.875V402.562H94.7188V401.273H102.5V402.562ZM111.328 405.789H104.898C104.898 406.326 104.979 406.794 105.141 407.195C105.302 407.591 105.523 407.917 105.805 408.172C106.076 408.422 106.396 408.609 106.766 408.734C107.141 408.859 107.552 408.922 108 408.922C108.594 408.922 109.19 408.805 109.789 408.57C110.393 408.331 110.823 408.096 111.078 407.867H111.156V409.469C110.661 409.677 110.156 409.852 109.641 409.992C109.125 410.133 108.583 410.203 108.016 410.203C106.568 410.203 105.438 409.812 104.625 409.031C103.812 408.245 103.406 407.13 103.406 405.688C103.406 404.26 103.794 403.128 104.57 402.289C105.352 401.451 106.378 401.031 107.648 401.031C108.826 401.031 109.732 401.375 110.367 402.062C111.008 402.75 111.328 403.727 111.328 404.992V405.789ZM109.898 404.664C109.893 403.893 109.698 403.297 109.312 402.875C108.932 402.453 108.352 402.242 107.57 402.242C106.784 402.242 106.156 402.474 105.688 402.938C105.224 403.401 104.961 403.977 104.898 404.664H109.898ZM121.234 405.531C121.234 406.24 121.133 406.888 120.93 407.477C120.727 408.06 120.44 408.555 120.07 408.961C119.727 409.346 119.32 409.646 118.852 409.859C118.388 410.068 117.896 410.172 117.375 410.172C116.922 410.172 116.51 410.122 116.141 410.023C115.776 409.924 115.404 409.771 115.023 409.562V413.219H113.555V401.273H115.023V402.188C115.414 401.859 115.852 401.586 116.336 401.367C116.826 401.143 117.346 401.031 117.898 401.031C118.951 401.031 119.768 401.43 120.352 402.227C120.94 403.018 121.234 404.12 121.234 405.531ZM119.719 405.57C119.719 404.518 119.539 403.732 119.18 403.211C118.82 402.69 118.268 402.43 117.523 402.43C117.102 402.43 116.677 402.521 116.25 402.703C115.823 402.885 115.414 403.125 115.023 403.422V408.367C115.44 408.555 115.797 408.682 116.094 408.75C116.396 408.818 116.737 408.852 117.117 408.852C117.935 408.852 118.573 408.576 119.031 408.023C119.49 407.471 119.719 406.654 119.719 405.57ZM128.148 405.617H123.273V404.203H128.148V405.617ZM140.258 410H138.273L133.547 404.695H132.492V410H130.945V398.367H132.492V403.586C132.758 403.581 133.008 403.555 133.242 403.508C133.477 403.461 133.698 403.372 133.906 403.242C134.115 403.122 134.32 402.953 134.523 402.734C134.727 402.51 134.906 402.237 135.062 401.914C135.13 401.773 135.208 401.596 135.297 401.383C135.391 401.169 135.484 400.945 135.578 400.711C135.938 399.846 136.357 399.24 136.836 398.891C137.32 398.542 138.031 398.367 138.969 398.367H139.586V399.75H138.938C138.578 399.75 138.297 399.784 138.094 399.852C137.891 399.914 137.708 400.021 137.547 400.172C137.396 400.307 137.263 400.49 137.148 400.719C137.039 400.948 136.924 401.216 136.805 401.523C136.534 402.211 136.258 402.716 135.977 403.039C135.701 403.362 135.328 403.643 134.859 403.883L140.258 410ZM148.922 410H147.453V402.508H144.195C144.18 402.94 144.164 403.357 144.148 403.758C144.133 404.159 144.117 404.521 144.102 404.844C144.065 405.714 144.005 406.409 143.922 406.93C143.839 407.445 143.729 407.875 143.594 408.219C143.469 408.542 143.328 408.805 143.172 409.008C143.021 409.206 142.857 409.385 142.68 409.547C142.503 409.703 142.305 409.82 142.086 409.898C141.872 409.977 141.638 410.016 141.383 410.016C141.294 410.016 141.164 410.013 140.992 410.008C140.826 410.003 140.716 410 140.664 410V408.719H140.742C140.784 408.719 140.844 408.721 140.922 408.727C141 408.732 141.065 408.734 141.117 408.734C141.242 408.734 141.37 408.716 141.5 408.68C141.635 408.643 141.75 408.576 141.844 408.477C142.109 408.216 142.323 407.776 142.484 407.156C142.646 406.536 142.753 405.641 142.805 404.469C142.826 404.042 142.844 403.536 142.859 402.953C142.88 402.365 142.898 401.805 142.914 401.273H148.922V410ZM158.602 410H157.141V409.07C157.01 409.159 156.833 409.284 156.609 409.445C156.391 409.602 156.177 409.727 155.969 409.82C155.724 409.94 155.443 410.039 155.125 410.117C154.807 410.201 154.435 410.242 154.008 410.242C153.221 410.242 152.555 409.982 152.008 409.461C151.461 408.94 151.188 408.276 151.188 407.469C151.188 406.807 151.328 406.273 151.609 405.867C151.896 405.456 152.302 405.133 152.828 404.898C153.359 404.664 153.997 404.505 154.742 404.422C155.487 404.339 156.286 404.276 157.141 404.234V404.008C157.141 403.674 157.081 403.398 156.961 403.18C156.846 402.961 156.68 402.789 156.461 402.664C156.253 402.544 156.003 402.464 155.711 402.422C155.419 402.38 155.115 402.359 154.797 402.359C154.411 402.359 153.982 402.411 153.508 402.516C153.034 402.615 152.544 402.76 152.039 402.953H151.961V401.461C152.247 401.383 152.661 401.297 153.203 401.203C153.745 401.109 154.279 401.062 154.805 401.062C155.419 401.062 155.953 401.115 156.406 401.219C156.865 401.318 157.26 401.49 157.594 401.734C157.922 401.974 158.172 402.284 158.344 402.664C158.516 403.044 158.602 403.516 158.602 404.078V410ZM157.141 407.852V405.422C156.693 405.448 156.164 405.487 155.555 405.539C154.951 405.591 154.471 405.667 154.117 405.766C153.695 405.885 153.354 406.073 153.094 406.328C152.833 406.578 152.703 406.924 152.703 407.367C152.703 407.867 152.854 408.245 153.156 408.5C153.458 408.75 153.919 408.875 154.539 408.875C155.055 408.875 155.526 408.776 155.953 408.578C156.38 408.375 156.776 408.133 157.141 407.852ZM167.961 409.453C167.362 409.734 166.846 409.927 166.414 410.031C165.987 410.141 165.56 410.195 165.133 410.195C164.497 410.195 163.914 410.104 163.383 409.922C162.852 409.734 162.396 409.453 162.016 409.078C161.635 408.703 161.339 408.229 161.125 407.656C160.917 407.083 160.812 406.414 160.812 405.648C160.812 404.258 161.198 403.148 161.969 402.32C162.74 401.487 163.794 401.07 165.133 401.07C165.638 401.07 166.133 401.141 166.617 401.281C167.107 401.422 167.555 401.594 167.961 401.797V403.43H167.875C167.391 403.06 166.911 402.786 166.438 402.609C165.969 402.432 165.513 402.344 165.07 402.344C164.201 402.344 163.526 402.635 163.047 403.219C162.573 403.802 162.336 404.612 162.336 405.648C162.336 406.685 162.573 407.49 163.047 408.062C163.521 408.635 164.195 408.922 165.07 408.922C165.378 408.922 165.682 408.883 165.984 408.805C166.292 408.727 166.57 408.625 166.82 408.5C167.018 408.401 167.221 408.284 167.43 408.148C167.643 408.008 167.792 407.904 167.875 407.836H167.961V409.453ZM176.508 409.453C175.909 409.734 175.393 409.927 174.961 410.031C174.534 410.141 174.107 410.195 173.68 410.195C173.044 410.195 172.461 410.104 171.93 409.922C171.398 409.734 170.943 409.453 170.562 409.078C170.182 408.703 169.885 408.229 169.672 407.656C169.464 407.083 169.359 406.414 169.359 405.648C169.359 404.258 169.745 403.148 170.516 402.32C171.286 401.487 172.341 401.07 173.68 401.07C174.185 401.07 174.68 401.141 175.164 401.281C175.654 401.422 176.102 401.594 176.508 401.797V403.43H176.422C175.938 403.06 175.458 402.786 174.984 402.609C174.516 402.432 174.06 402.344 173.617 402.344C172.747 402.344 172.073 402.635 171.594 403.219C171.12 403.802 170.883 404.612 170.883 405.648C170.883 406.685 171.12 407.49 171.594 408.062C172.068 408.635 172.742 408.922 173.617 408.922C173.924 408.922 174.229 408.883 174.531 408.805C174.839 408.727 175.117 408.625 175.367 408.5C175.565 408.401 175.768 408.284 175.977 408.148C176.19 408.008 176.339 407.904 176.422 407.836H176.508V409.453ZM184.938 402.562H181.781V410H180.312V402.562H177.156V401.273H184.938V402.562ZM193.242 410H191.781V409.07C191.651 409.159 191.474 409.284 191.25 409.445C191.031 409.602 190.818 409.727 190.609 409.82C190.365 409.94 190.083 410.039 189.766 410.117C189.448 410.201 189.076 410.242 188.648 410.242C187.862 410.242 187.195 409.982 186.648 409.461C186.102 408.94 185.828 408.276 185.828 407.469C185.828 406.807 185.969 406.273 186.25 405.867C186.536 405.456 186.943 405.133 187.469 404.898C188 404.664 188.638 404.505 189.383 404.422C190.128 404.339 190.927 404.276 191.781 404.234V404.008C191.781 403.674 191.721 403.398 191.602 403.18C191.487 402.961 191.32 402.789 191.102 402.664C190.893 402.544 190.643 402.464 190.352 402.422C190.06 402.38 189.755 402.359 189.438 402.359C189.052 402.359 188.622 402.411 188.148 402.516C187.674 402.615 187.185 402.76 186.68 402.953H186.602V401.461C186.888 401.383 187.302 401.297 187.844 401.203C188.385 401.109 188.919 401.062 189.445 401.062C190.06 401.062 190.594 401.115 191.047 401.219C191.505 401.318 191.901 401.49 192.234 401.734C192.562 401.974 192.812 402.284 192.984 402.664C193.156 403.044 193.242 403.516 193.242 404.078V410ZM191.781 407.852V405.422C191.333 405.448 190.805 405.487 190.195 405.539C189.591 405.591 189.112 405.667 188.758 405.766C188.336 405.885 187.995 406.073 187.734 406.328C187.474 406.578 187.344 406.924 187.344 407.367C187.344 407.867 187.495 408.245 187.797 408.5C188.099 408.75 188.56 408.875 189.18 408.875C189.695 408.875 190.167 408.776 190.594 408.578C191.021 408.375 191.417 408.133 191.781 407.852ZM203.75 405.531C203.75 406.24 203.648 406.888 203.445 407.477C203.242 408.06 202.956 408.555 202.586 408.961C202.242 409.346 201.836 409.646 201.367 409.859C200.904 410.068 200.411 410.172 199.891 410.172C199.438 410.172 199.026 410.122 198.656 410.023C198.292 409.924 197.919 409.771 197.539 409.562V413.219H196.07V401.273H197.539V402.188C197.93 401.859 198.367 401.586 198.852 401.367C199.341 401.143 199.862 401.031 200.414 401.031C201.466 401.031 202.284 401.43 202.867 402.227C203.456 403.018 203.75 404.12 203.75 405.531ZM202.234 405.57C202.234 404.518 202.055 403.732 201.695 403.211C201.336 402.69 200.784 402.43 200.039 402.43C199.617 402.43 199.193 402.521 198.766 402.703C198.339 402.885 197.93 403.125 197.539 403.422V408.367C197.956 408.555 198.312 408.682 198.609 408.75C198.911 408.818 199.253 408.852 199.633 408.852C200.451 408.852 201.089 408.576 201.547 408.023C202.005 407.471 202.234 406.654 202.234 405.57ZM209.086 407.773L206.883 412.891H205.742L207.102 407.773H209.086ZM73.5469 428.156C73.2604 428.281 73 428.398 72.7656 428.508C72.5365 428.617 72.2344 428.732 71.8594 428.852C71.5417 428.951 71.1953 429.034 70.8203 429.102C70.4505 429.174 70.0417 429.211 69.5938 429.211C68.75 429.211 67.9818 429.094 67.2891 428.859C66.6016 428.62 66.0026 428.247 65.4922 427.742C64.9922 427.247 64.6016 426.62 64.3203 425.859C64.0391 425.094 63.8984 424.206 63.8984 423.195C63.8984 422.237 64.0339 421.38 64.3047 420.625C64.5755 419.87 64.9661 419.232 65.4766 418.711C65.9714 418.206 66.5677 417.82 67.2656 417.555C67.9688 417.289 68.7474 417.156 69.6016 417.156C70.2266 417.156 70.849 417.232 71.4688 417.383C72.0938 417.534 72.7865 417.799 73.5469 418.18V420.016H73.4297C72.7891 419.479 72.1536 419.089 71.5234 418.844C70.8932 418.599 70.2188 418.477 69.5 418.477C68.9115 418.477 68.3802 418.573 67.9062 418.766C67.4375 418.953 67.0182 419.247 66.6484 419.648C66.2891 420.039 66.0078 420.534 65.8047 421.133C65.6068 421.727 65.5078 422.414 65.5078 423.195C65.5078 424.013 65.6172 424.716 65.8359 425.305C66.0599 425.893 66.3464 426.372 66.6953 426.742C67.0599 427.128 67.4844 427.414 67.9688 427.602C68.4583 427.784 68.974 427.875 69.5156 427.875C70.2604 427.875 70.9583 427.747 71.6094 427.492C72.2604 427.237 72.8698 426.854 73.4375 426.344H73.5469V428.156ZM82.9219 424.789H76.4922C76.4922 425.326 76.5729 425.794 76.7344 426.195C76.8958 426.591 77.1172 426.917 77.3984 427.172C77.6693 427.422 77.9896 427.609 78.3594 427.734C78.7344 427.859 79.1458 427.922 79.5938 427.922C80.1875 427.922 80.7839 427.805 81.3828 427.57C81.987 427.331 82.4167 427.096 82.6719 426.867H82.75V428.469C82.2552 428.677 81.75 428.852 81.2344 428.992C80.7188 429.133 80.1771 429.203 79.6094 429.203C78.1615 429.203 77.0312 428.812 76.2188 428.031C75.4062 427.245 75 426.13 75 424.688C75 423.26 75.388 422.128 76.1641 421.289C76.9453 420.451 77.9714 420.031 79.2422 420.031C80.4193 420.031 81.3255 420.375 81.9609 421.062C82.6016 421.75 82.9219 422.727 82.9219 423.992V424.789ZM81.4922 423.664C81.487 422.893 81.2917 422.297 80.9062 421.875C80.526 421.453 79.9453 421.242 79.1641 421.242C78.3776 421.242 77.75 421.474 77.2812 421.938C76.8177 422.401 76.5547 422.977 76.4922 423.664H81.4922ZM93.3984 429H91.9453V422.109L89.7734 426.594H88.6797L86.5234 422.109V429H85.1484V420.273H86.9219L89.2969 425.156L91.5938 420.273H93.3984V429ZM103.641 429H102.188V422.445L97.6172 429H96.2891V420.273H97.7422V426.734L102.266 420.273H103.641V429ZM113.844 429H112.375V425.07H108.008V429H106.539V420.273H108.008V423.805H112.375V420.273H113.844V429ZM123.523 429H122.062V428.07C121.932 428.159 121.755 428.284 121.531 428.445C121.312 428.602 121.099 428.727 120.891 428.82C120.646 428.94 120.365 429.039 120.047 429.117C119.729 429.201 119.357 429.242 118.93 429.242C118.143 429.242 117.477 428.982 116.93 428.461C116.383 427.94 116.109 427.276 116.109 426.469C116.109 425.807 116.25 425.273 116.531 424.867C116.818 424.456 117.224 424.133 117.75 423.898C118.281 423.664 118.919 423.505 119.664 423.422C120.409 423.339 121.208 423.276 122.062 423.234V423.008C122.062 422.674 122.003 422.398 121.883 422.18C121.768 421.961 121.602 421.789 121.383 421.664C121.174 421.544 120.924 421.464 120.633 421.422C120.341 421.38 120.036 421.359 119.719 421.359C119.333 421.359 118.904 421.411 118.43 421.516C117.956 421.615 117.466 421.76 116.961 421.953H116.883V420.461C117.169 420.383 117.583 420.297 118.125 420.203C118.667 420.109 119.201 420.062 119.727 420.062C120.341 420.062 120.875 420.115 121.328 420.219C121.786 420.318 122.182 420.49 122.516 420.734C122.844 420.974 123.094 421.284 123.266 421.664C123.438 422.044 123.523 422.516 123.523 423.078V429ZM122.062 426.852V424.422C121.615 424.448 121.086 424.487 120.477 424.539C119.872 424.591 119.393 424.667 119.039 424.766C118.617 424.885 118.276 425.073 118.016 425.328C117.755 425.578 117.625 425.924 117.625 426.367C117.625 426.867 117.776 427.245 118.078 427.5C118.38 427.75 118.841 427.875 119.461 427.875C119.977 427.875 120.448 427.776 120.875 427.578C121.302 427.375 121.698 427.133 122.062 426.852ZM134.031 424.531C134.031 425.24 133.93 425.888 133.727 426.477C133.523 427.06 133.237 427.555 132.867 427.961C132.523 428.346 132.117 428.646 131.648 428.859C131.185 429.068 130.693 429.172 130.172 429.172C129.719 429.172 129.307 429.122 128.938 429.023C128.573 428.924 128.201 428.771 127.82 428.562V432.219H126.352V420.273H127.82V421.188C128.211 420.859 128.648 420.586 129.133 420.367C129.622 420.143 130.143 420.031 130.695 420.031C131.747 420.031 132.565 420.43 133.148 421.227C133.737 422.018 134.031 423.12 134.031 424.531ZM132.516 424.57C132.516 423.518 132.336 422.732 131.977 422.211C131.617 421.69 131.065 421.43 130.32 421.43C129.898 421.43 129.474 421.521 129.047 421.703C128.62 421.885 128.211 422.125 127.82 422.422V427.367C128.237 427.555 128.594 427.682 128.891 427.75C129.193 427.818 129.534 427.852 129.914 427.852C130.732 427.852 131.37 427.576 131.828 427.023C132.286 426.471 132.516 425.654 132.516 424.57ZM143.359 429H141.891V421.508H138.633C138.617 421.94 138.602 422.357 138.586 422.758C138.57 423.159 138.555 423.521 138.539 423.844C138.503 424.714 138.443 425.409 138.359 425.93C138.276 426.445 138.167 426.875 138.031 427.219C137.906 427.542 137.766 427.805 137.609 428.008C137.458 428.206 137.294 428.385 137.117 428.547C136.94 428.703 136.742 428.82 136.523 428.898C136.31 428.977 136.076 429.016 135.82 429.016C135.732 429.016 135.602 429.013 135.43 429.008C135.263 429.003 135.154 429 135.102 429V427.719H135.18C135.221 427.719 135.281 427.721 135.359 427.727C135.438 427.732 135.503 427.734 135.555 427.734C135.68 427.734 135.807 427.716 135.938 427.68C136.073 427.643 136.188 427.576 136.281 427.477C136.547 427.216 136.76 426.776 136.922 426.156C137.083 425.536 137.19 424.641 137.242 423.469C137.263 423.042 137.281 422.536 137.297 421.953C137.318 421.365 137.336 420.805 137.352 420.273H143.359V429ZM153.039 429H151.578V428.07C151.448 428.159 151.271 428.284 151.047 428.445C150.828 428.602 150.615 428.727 150.406 428.82C150.161 428.94 149.88 429.039 149.562 429.117C149.245 429.201 148.872 429.242 148.445 429.242C147.659 429.242 146.992 428.982 146.445 428.461C145.898 427.94 145.625 427.276 145.625 426.469C145.625 425.807 145.766 425.273 146.047 424.867C146.333 424.456 146.74 424.133 147.266 423.898C147.797 423.664 148.435 423.505 149.18 423.422C149.924 423.339 150.724 423.276 151.578 423.234V423.008C151.578 422.674 151.518 422.398 151.398 422.18C151.284 421.961 151.117 421.789 150.898 421.664C150.69 421.544 150.44 421.464 150.148 421.422C149.857 421.38 149.552 421.359 149.234 421.359C148.849 421.359 148.419 421.411 147.945 421.516C147.471 421.615 146.982 421.76 146.477 421.953H146.398V420.461C146.685 420.383 147.099 420.297 147.641 420.203C148.182 420.109 148.716 420.062 149.242 420.062C149.857 420.062 150.391 420.115 150.844 420.219C151.302 420.318 151.698 420.49 152.031 420.734C152.359 420.974 152.609 421.284 152.781 421.664C152.953 422.044 153.039 422.516 153.039 423.078V429ZM151.578 426.852V424.422C151.13 424.448 150.602 424.487 149.992 424.539C149.388 424.591 148.909 424.667 148.555 424.766C148.133 424.885 147.792 425.073 147.531 425.328C147.271 425.578 147.141 425.924 147.141 426.367C147.141 426.867 147.292 427.245 147.594 427.5C147.896 427.75 148.357 427.875 148.977 427.875C149.492 427.875 149.964 427.776 150.391 427.578C150.818 427.375 151.214 427.133 151.578 426.852ZM163.547 424.531C163.547 425.24 163.445 425.888 163.242 426.477C163.039 427.06 162.753 427.555 162.383 427.961C162.039 428.346 161.633 428.646 161.164 428.859C160.701 429.068 160.208 429.172 159.688 429.172C159.234 429.172 158.823 429.122 158.453 429.023C158.089 428.924 157.716 428.771 157.336 428.562V432.219H155.867V420.273H157.336V421.188C157.727 420.859 158.164 420.586 158.648 420.367C159.138 420.143 159.659 420.031 160.211 420.031C161.263 420.031 162.081 420.43 162.664 421.227C163.253 422.018 163.547 423.12 163.547 424.531ZM162.031 424.57C162.031 423.518 161.852 422.732 161.492 422.211C161.133 421.69 160.581 421.43 159.836 421.43C159.414 421.43 158.99 421.521 158.562 421.703C158.135 421.885 157.727 422.125 157.336 422.422V427.367C157.753 427.555 158.109 427.682 158.406 427.75C158.708 427.818 159.049 427.852 159.43 427.852C160.247 427.852 160.885 427.576 161.344 427.023C161.802 426.471 162.031 425.654 162.031 424.57Z" fill="#333333"/>
<path d="M30 463L37.5 470.5L50 455.5" stroke="#61B857" stroke-width="2" stroke-linecap="round" stroke-linejoin="round"/>
<path d="M73.3438 465.898C73.3438 466.461 73.2318 466.971 73.0078 467.43C72.7891 467.888 72.4948 468.26 72.125 468.547C71.6875 468.891 71.2188 469.135 70.7188 469.281C70.2188 469.427 69.5729 469.5 68.7812 469.5H64.5625V457.867H72.3516V459.242H66.1094V462.43H68.8281C69.6198 462.43 70.2656 462.477 70.7656 462.57C71.2656 462.659 71.737 462.875 72.1797 463.219C72.5755 463.526 72.8672 463.906 73.0547 464.359C73.2474 464.812 73.3438 465.326 73.3438 465.898ZM71.7266 465.93C71.7266 465.539 71.6615 465.195 71.5312 464.898C71.401 464.602 71.1979 464.362 70.9219 464.18C70.6354 463.987 70.3047 463.87 69.9297 463.828C69.5547 463.786 69.026 463.766 68.3438 463.766H66.1094V468.18H68.3047C68.9974 468.18 69.5286 468.146 69.8984 468.078C70.2734 468.01 70.6016 467.88 70.8828 467.688C71.1745 467.484 71.388 467.247 71.5234 466.977C71.6589 466.701 71.7266 466.352 71.7266 465.93ZM82.7656 469.5H81.3125V462.945L76.7422 469.5H75.4141V460.773H76.8672V467.234L81.3906 460.773H82.7656V469.5ZM91.7344 467.055C91.7344 467.544 91.6198 467.958 91.3906 468.297C91.1667 468.635 90.8776 468.909 90.5234 469.117C90.1693 469.32 89.7786 469.469 89.3516 469.562C88.9245 469.656 88.4974 469.703 88.0703 469.703C87.4661 469.703 86.8906 469.646 86.3438 469.531C85.7969 469.417 85.2578 469.24 84.7266 469V467.391H84.8281C85.2083 467.724 85.6927 467.982 86.2812 468.164C86.8698 468.346 87.4401 468.438 87.9922 468.438C88.2526 468.438 88.5208 468.414 88.7969 468.367C89.0729 468.315 89.3125 468.234 89.5156 468.125C89.7344 468 89.9089 467.852 90.0391 467.68C90.1693 467.503 90.2344 467.263 90.2344 466.961C90.2344 466.648 90.1693 466.398 90.0391 466.211C89.9141 466.023 89.7422 465.883 89.5234 465.789C89.3099 465.695 89.0521 465.638 88.75 465.617C88.4479 465.596 88.1719 465.586 87.9219 465.586H86.6484V464.32H87.5312C87.7396 464.32 88.0104 464.312 88.3438 464.297C88.6823 464.281 88.9557 464.24 89.1641 464.172C89.4349 464.083 89.6484 463.958 89.8047 463.797C89.9661 463.635 90.0469 463.378 90.0469 463.023C90.0469 462.779 89.9844 462.578 89.8594 462.422C89.7344 462.26 89.5781 462.135 89.3906 462.047C89.1979 461.958 88.9818 461.898 88.7422 461.867C88.5078 461.836 88.2995 461.82 88.1172 461.82C87.5859 461.82 87.0625 461.893 86.5469 462.039C86.0365 462.18 85.6068 462.385 85.2578 462.656H85.1562V461.039C85.5885 460.898 86.0521 460.784 86.5469 460.695C87.0417 460.607 87.5365 460.562 88.0312 460.562C88.4375 460.562 88.8411 460.599 89.2422 460.672C89.6484 460.745 90.026 460.87 90.375 461.047C90.7188 461.224 91 461.466 91.2188 461.773C91.4375 462.076 91.5469 462.451 91.5469 462.898C91.5469 463.357 91.4036 463.76 91.1172 464.109C90.8359 464.453 90.4557 464.701 89.9766 464.852V464.906C90.513 465.036 90.9401 465.281 91.2578 465.641C91.5755 465.995 91.7344 466.466 91.7344 467.055ZM101.359 469.5H99.8906V465.57H95.5234V469.5H94.0547V460.773H95.5234V464.305H99.8906V460.773H101.359V469.5ZM111.562 465.289H105.133C105.133 465.826 105.214 466.294 105.375 466.695C105.536 467.091 105.758 467.417 106.039 467.672C106.31 467.922 106.63 468.109 107 468.234C107.375 468.359 107.786 468.422 108.234 468.422C108.828 468.422 109.424 468.305 110.023 468.07C110.628 467.831 111.057 467.596 111.312 467.367H111.391V468.969C110.896 469.177 110.391 469.352 109.875 469.492C109.359 469.633 108.818 469.703 108.25 469.703C106.802 469.703 105.672 469.312 104.859 468.531C104.047 467.745 103.641 466.63 103.641 465.188C103.641 463.76 104.029 462.628 104.805 461.789C105.586 460.951 106.612 460.531 107.883 460.531C109.06 460.531 109.966 460.875 110.602 461.562C111.242 462.25 111.562 463.227 111.562 464.492V465.289ZM110.133 464.164C110.128 463.393 109.932 462.797 109.547 462.375C109.167 461.953 108.586 461.742 107.805 461.742C107.018 461.742 106.391 461.974 105.922 462.438C105.458 462.901 105.195 463.477 105.133 464.164H110.133ZM120.32 468.953C119.721 469.234 119.206 469.427 118.773 469.531C118.346 469.641 117.919 469.695 117.492 469.695C116.857 469.695 116.273 469.604 115.742 469.422C115.211 469.234 114.755 468.953 114.375 468.578C113.995 468.203 113.698 467.729 113.484 467.156C113.276 466.583 113.172 465.914 113.172 465.148C113.172 463.758 113.557 462.648 114.328 461.82C115.099 460.987 116.154 460.57 117.492 460.57C117.997 460.57 118.492 460.641 118.977 460.781C119.466 460.922 119.914 461.094 120.32 461.297V462.93H120.234C119.75 462.56 119.271 462.286 118.797 462.109C118.328 461.932 117.872 461.844 117.43 461.844C116.56 461.844 115.885 462.135 115.406 462.719C114.932 463.302 114.695 464.112 114.695 465.148C114.695 466.185 114.932 466.99 115.406 467.562C115.88 468.135 116.555 468.422 117.43 468.422C117.737 468.422 118.042 468.383 118.344 468.305C118.651 468.227 118.93 468.125 119.18 468C119.378 467.901 119.581 467.784 119.789 467.648C120.003 467.508 120.151 467.404 120.234 467.336H120.32V468.953ZM136.703 469.5H135.156V459.242H130.953C130.938 459.831 130.914 460.409 130.883 460.977C130.857 461.539 130.836 462.042 130.82 462.484C130.779 463.599 130.708 464.516 130.609 465.234C130.516 465.953 130.393 466.544 130.242 467.008C130.091 467.477 129.919 467.852 129.727 468.133C129.539 468.409 129.323 468.659 129.078 468.883C128.828 469.112 128.57 469.276 128.305 469.375C128.044 469.474 127.737 469.523 127.383 469.523C127.273 469.523 127.141 469.518 126.984 469.508C126.828 469.503 126.719 469.5 126.656 469.5V468H126.766C126.818 468.005 126.883 468.01 126.961 468.016C127.039 468.021 127.117 468.023 127.195 468.023C127.383 468.023 127.56 467.995 127.727 467.938C127.893 467.88 128.034 467.792 128.148 467.672C128.518 467.302 128.789 466.693 128.961 465.844C129.138 464.995 129.263 463.786 129.336 462.219C129.362 461.708 129.388 461.031 129.414 460.188C129.445 459.344 129.471 458.57 129.492 457.867H136.703V469.5ZM146.492 469.5H145.031V468.57C144.901 468.659 144.724 468.784 144.5 468.945C144.281 469.102 144.068 469.227 143.859 469.32C143.615 469.44 143.333 469.539 143.016 469.617C142.698 469.701 142.326 469.742 141.898 469.742C141.112 469.742 140.445 469.482 139.898 468.961C139.352 468.44 139.078 467.776 139.078 466.969C139.078 466.307 139.219 465.773 139.5 465.367C139.786 464.956 140.193 464.633 140.719 464.398C141.25 464.164 141.888 464.005 142.633 463.922C143.378 463.839 144.177 463.776 145.031 463.734V463.508C145.031 463.174 144.971 462.898 144.852 462.68C144.737 462.461 144.57 462.289 144.352 462.164C144.143 462.044 143.893 461.964 143.602 461.922C143.31 461.88 143.005 461.859 142.688 461.859C142.302 461.859 141.872 461.911 141.398 462.016C140.924 462.115 140.435 462.26 139.93 462.453H139.852V460.961C140.138 460.883 140.552 460.797 141.094 460.703C141.635 460.609 142.169 460.562 142.695 460.562C143.31 460.562 143.844 460.615 144.297 460.719C144.755 460.818 145.151 460.99 145.484 461.234C145.812 461.474 146.062 461.784 146.234 462.164C146.406 462.544 146.492 463.016 146.492 463.578V469.5ZM145.031 467.352V464.922C144.583 464.948 144.055 464.987 143.445 465.039C142.841 465.091 142.362 465.167 142.008 465.266C141.586 465.385 141.245 465.573 140.984 465.828C140.724 466.078 140.594 466.424 140.594 466.867C140.594 467.367 140.745 467.745 141.047 468C141.349 468.25 141.81 468.375 142.43 468.375C142.945 468.375 143.417 468.276 143.844 468.078C144.271 467.875 144.667 467.633 145.031 467.352ZM155.336 462.062H150.789V469.5H149.32V460.773H155.336V462.062ZM164.172 465.289H157.742C157.742 465.826 157.823 466.294 157.984 466.695C158.146 467.091 158.367 467.417 158.648 467.672C158.919 467.922 159.24 468.109 159.609 468.234C159.984 468.359 160.396 468.422 160.844 468.422C161.438 468.422 162.034 468.305 162.633 468.07C163.237 467.831 163.667 467.596 163.922 467.367H164V468.969C163.505 469.177 163 469.352 162.484 469.492C161.969 469.633 161.427 469.703 160.859 469.703C159.411 469.703 158.281 469.312 157.469 468.531C156.656 467.745 156.25 466.63 156.25 465.188C156.25 463.76 156.638 462.628 157.414 461.789C158.195 460.951 159.221 460.531 160.492 460.531C161.669 460.531 162.576 460.875 163.211 461.562C163.852 462.25 164.172 463.227 164.172 464.492V465.289ZM162.742 464.164C162.737 463.393 162.542 462.797 162.156 462.375C161.776 461.953 161.195 461.742 160.414 461.742C159.628 461.742 159 461.974 158.531 462.438C158.068 462.901 157.805 463.477 157.742 464.164H162.742ZM174.078 465.031C174.078 465.74 173.977 466.388 173.773 466.977C173.57 467.56 173.284 468.055 172.914 468.461C172.57 468.846 172.164 469.146 171.695 469.359C171.232 469.568 170.74 469.672 170.219 469.672C169.766 469.672 169.354 469.622 168.984 469.523C168.62 469.424 168.247 469.271 167.867 469.062V472.719H166.398V460.773H167.867V461.688C168.258 461.359 168.695 461.086 169.18 460.867C169.669 460.643 170.19 460.531 170.742 460.531C171.794 460.531 172.612 460.93 173.195 461.727C173.784 462.518 174.078 463.62 174.078 465.031ZM172.562 465.07C172.562 464.018 172.383 463.232 172.023 462.711C171.664 462.19 171.112 461.93 170.367 461.93C169.945 461.93 169.521 462.021 169.094 462.203C168.667 462.385 168.258 462.625 167.867 462.922V467.867C168.284 468.055 168.641 468.182 168.938 468.25C169.24 468.318 169.581 468.352 169.961 468.352C170.779 468.352 171.417 468.076 171.875 467.523C172.333 466.971 172.562 466.154 172.562 465.07ZM183.406 469.5H181.938V462.008H178.68C178.664 462.44 178.648 462.857 178.633 463.258C178.617 463.659 178.602 464.021 178.586 464.344C178.549 465.214 178.49 465.909 178.406 466.43C178.323 466.945 178.214 467.375 178.078 467.719C177.953 468.042 177.812 468.305 177.656 468.508C177.505 468.706 177.341 468.885 177.164 469.047C176.987 469.203 176.789 469.32 176.57 469.398C176.357 469.477 176.122 469.516 175.867 469.516C175.779 469.516 175.648 469.513 175.477 469.508C175.31 469.503 175.201 469.5 175.148 469.5V468.219H175.227C175.268 468.219 175.328 468.221 175.406 468.227C175.484 468.232 175.549 468.234 175.602 468.234C175.727 468.234 175.854 468.216 175.984 468.18C176.12 468.143 176.234 468.076 176.328 467.977C176.594 467.716 176.807 467.276 176.969 466.656C177.13 466.036 177.237 465.141 177.289 463.969C177.31 463.542 177.328 463.036 177.344 462.453C177.365 461.865 177.383 461.305 177.398 460.773H183.406V469.5ZM193.609 465.289H187.18C187.18 465.826 187.26 466.294 187.422 466.695C187.583 467.091 187.805 467.417 188.086 467.672C188.357 467.922 188.677 468.109 189.047 468.234C189.422 468.359 189.833 468.422 190.281 468.422C190.875 468.422 191.471 468.305 192.07 468.07C192.674 467.831 193.104 467.596 193.359 467.367H193.438V468.969C192.943 469.177 192.438 469.352 191.922 469.492C191.406 469.633 190.865 469.703 190.297 469.703C188.849 469.703 187.719 469.312 186.906 468.531C186.094 467.745 185.688 466.63 185.688 465.188C185.688 463.76 186.076 462.628 186.852 461.789C187.633 460.951 188.659 460.531 189.93 460.531C191.107 460.531 192.013 460.875 192.648 461.562C193.289 462.25 193.609 463.227 193.609 464.492V465.289ZM192.18 464.164C192.174 463.393 191.979 462.797 191.594 462.375C191.214 461.953 190.633 461.742 189.852 461.742C189.065 461.742 188.438 461.974 187.969 462.438C187.505 462.901 187.242 463.477 187.18 464.164H192.18ZM203.516 465.031C203.516 465.74 203.414 466.388 203.211 466.977C203.008 467.56 202.721 468.055 202.352 468.461C202.008 468.846 201.602 469.146 201.133 469.359C200.669 469.568 200.177 469.672 199.656 469.672C199.203 469.672 198.792 469.622 198.422 469.523C198.057 469.424 197.685 469.271 197.305 469.062V472.719H195.836V460.773H197.305V461.688C197.695 461.359 198.133 461.086 198.617 460.867C199.107 460.643 199.628 460.531 200.18 460.531C201.232 460.531 202.049 460.93 202.633 461.727C203.221 462.518 203.516 463.62 203.516 465.031ZM202 465.07C202 464.018 201.82 463.232 201.461 462.711C201.102 462.19 200.549 461.93 199.805 461.93C199.383 461.93 198.958 462.021 198.531 462.203C198.104 462.385 197.695 462.625 197.305 462.922V467.867C197.721 468.055 198.078 468.182 198.375 468.25C198.677 468.318 199.018 468.352 199.398 468.352C200.216 468.352 200.854 468.076 201.312 467.523C201.771 466.971 202 466.154 202 465.07Z" fill="#333333"/>
</g>
<defs>
<filter id="filter0_d_1763_10996" x="0" y="0" width="326" height="540" filterUnits="userSpaceOnUse" color-interpolation-filters="sRGB">
<feFlood flood-opacity="0" result="BackgroundImageFix"/>
<feColorMatrix in="SourceAlpha" type="matrix" values="0 0 0 0 0 0 0 0 0 0 0 0 0 0 0 0 0 0 127 0" result="hardAlpha"/>
<feOffset dx="3" dy="5"/>
<feGaussianBlur stdDeviation="10"/>
<feComposite in2="hardAlpha" operator="out"/>
<feColorMatrix type="matrix" values="0 0 0 0 0.2 0 0 0 0 0.2 0 0 0 0 0.2 0 0 0 0.1 0"/>
<feBlend mode="normal" in2="BackgroundImageFix" result="effect1_dropShadow_1763_10996"/>
<feBlend mode="normal" in="SourceGraphic" in2="effect1_dropShadow_1763_10996" result="shape"/>
</filter>
<filter id="filter1_d_1763_10996" x="22" y="28" width="112" height="112" filterUnits="userSpaceOnUse" color-interpolation-filters="sRGB">
<feFlood flood-opacity="0" result="BackgroundImageFix"/>
<feColorMatrix in="SourceAlpha" type="matrix" values="0 0 0 0 0 0 0 0 0 0 0 0 0 0 0 0 0 0 127 0" result="hardAlpha"/>
<feOffset dx="3" dy="3"/>
<feGaussianBlur stdDeviation="3"/>
<feComposite in2="hardAlpha" operator="out"/>
<feColorMatrix type="matrix" values="0 0 0 0 0.2 0 0 0 0 0.2 0 0 0 0 0.2 0 0 0 0.25 0"/>
<feBlend mode="normal" in2="BackgroundImageFix" result="effect1_dropShadow_1763_10996"/>
<feBlend mode="normal" in="SourceGraphic" in2="effect1_dropShadow_1763_10996" result="shape"/>
</filter>
</defs>
</svg>
