<svg width="326" height="540" viewBox="0 0 326 540" fill="none" xmlns="http://www.w3.org/2000/svg">
<g filter="url(#filter0_d_1763_11136)">
<rect x="17" y="15" width="286" height="500" rx="5" fill="white" shape-rendering="crispEdges"/>
<g filter="url(#filter1_d_1763_11136)">
<path d="M112.5 125.792H37.5C35.7917 125.792 34.375 124.375 34.375 122.667C34.375 120.958 35.7917 119.542 37.5 119.542H112.5C114.208 119.542 115.625 120.958 115.625 122.667C115.625 124.375 114.208 125.792 112.5 125.792Z" fill="#1959AB"/>
<path d="M48.3332 113.291H41.6667C37.6667 113.291 34.375 110 34.375 106V70.0832C34.375 66.0832 37.6667 62.7915 41.6667 62.7915H48.3332C52.3332 62.7915 55.6249 66.0832 55.6249 70.0832V106C55.6249 110 52.3332 113.291 48.3332 113.291ZM41.6667 68.9998C41.0833 68.9998 40.625 69.4581 40.625 70.0415V106C40.625 106.583 41.0833 107.041 41.6667 107.041H48.3332C48.9166 107.041 49.3749 106.583 49.3749 106V70.0832C49.3749 69.4998 48.9166 69.0415 48.3332 69.0415H41.6667V68.9998Z" fill="#1959AB"/>
<path d="M78.3332 113.292H71.6667C67.6667 113.292 64.375 110 64.375 106V56.7917C64.375 52.7917 67.6667 49.5 71.6667 49.5H78.3332C82.3332 49.5 85.6249 52.7917 85.6249 56.7917V106C85.6249 110 82.3332 113.292 78.3332 113.292ZM71.6667 55.75C71.0833 55.75 70.625 56.2083 70.625 56.7917V106C70.625 106.583 71.0833 107.042 71.6667 107.042H78.3332C78.9166 107.042 79.3749 106.583 79.3749 106V56.7917C79.3749 56.2083 78.9166 55.75 78.3332 55.75H71.6667Z" fill="#1959AB"/>
<path d="M108.333 113.292H101.667C97.6667 113.292 94.375 110 94.375 106V43.5002C94.375 39.5002 97.6667 36.2085 101.667 36.2085H108.333C112.333 36.2085 115.625 39.5002 115.625 43.5002V106C115.625 110 112.333 113.292 108.333 113.292ZM101.667 42.4585C101.083 42.4585 100.625 42.9168 100.625 43.5002V106C100.625 106.584 101.083 107.042 101.667 107.042H108.333C108.917 107.042 109.375 106.584 109.375 106V43.5002C109.375 42.9168 108.917 42.4585 108.333 42.4585H101.667Z" fill="#1959AB"/>
</g>
<path d="M42.1562 197.656C42.1562 198.5 41.9844 199.254 41.6406 199.918C41.3047 200.582 40.8398 201.133 40.2461 201.57C39.5586 202.086 38.8008 202.453 37.9727 202.672C37.1523 202.891 36.1094 203 34.8438 203H27.2266V185.551H34C35.4062 185.551 36.4336 185.598 37.082 185.691C37.7383 185.785 38.3867 185.992 39.0273 186.312C39.6914 186.648 40.1836 187.102 40.5039 187.672C40.832 188.234 40.9961 188.879 40.9961 189.605C40.9961 190.449 40.7734 191.195 40.3281 191.844C39.8828 192.484 39.2539 192.984 38.4414 193.344V193.438C39.582 193.664 40.4844 194.133 41.1484 194.844C41.8203 195.555 42.1562 196.492 42.1562 197.656ZM36.3906 190.484C36.3906 190.195 36.3164 189.906 36.168 189.617C36.0273 189.328 35.7734 189.113 35.4062 188.973C35.0781 188.848 34.668 188.781 34.1758 188.773C33.6914 188.758 33.0078 188.75 32.125 188.75H31.7031V192.441H32.4062C33.1172 192.441 33.7227 192.43 34.2227 192.406C34.7227 192.383 35.1172 192.305 35.4062 192.172C35.8125 191.992 36.0781 191.762 36.2031 191.48C36.3281 191.191 36.3906 190.859 36.3906 190.484ZM37.4922 197.586C37.4922 197.031 37.3828 196.605 37.1641 196.309C36.9531 196.004 36.5898 195.777 36.0742 195.629C35.7227 195.527 35.2383 195.473 34.6211 195.465C34.0039 195.457 33.3594 195.453 32.6875 195.453H31.7031V199.801H32.0312C33.2969 199.801 34.2031 199.797 34.75 199.789C35.2969 199.781 35.8008 199.68 36.2617 199.484C36.7305 199.289 37.0508 199.031 37.2227 198.711C37.4023 198.383 37.4922 198.008 37.4922 197.586ZM49.4922 203H45.2734V189.84H49.4922V203ZM49.6094 187.965H45.1562V184.766H49.6094V187.965ZM64.832 203H52.4688V200.293L59.4062 192.922H52.75V189.84H64.7031V192.5L57.8711 199.859H64.832V203ZM81.0156 203H76.7734V196.473C76.7734 195.941 76.7461 195.414 76.6914 194.891C76.6367 194.359 76.543 193.969 76.4102 193.719C76.2539 193.43 76.0234 193.219 75.7188 193.086C75.4219 192.953 75.0039 192.887 74.4648 192.887C74.082 192.887 73.6914 192.949 73.293 193.074C72.9023 193.199 72.4766 193.398 72.0156 193.672V203H67.7969V189.84H72.0156V191.293C72.7656 190.707 73.4844 190.258 74.1719 189.945C74.8672 189.633 75.6367 189.477 76.4805 189.477C77.9023 189.477 79.0117 189.891 79.8086 190.719C80.6133 191.547 81.0156 192.785 81.0156 194.434V203ZM97.8672 197.199H88.2109C88.2734 198.23 88.6641 199.02 89.3828 199.566C90.1094 200.113 91.1758 200.387 92.582 200.387C93.4727 200.387 94.3359 200.227 95.1719 199.906C96.0078 199.586 96.668 199.242 97.1523 198.875H97.6211V202.262C96.668 202.645 95.7695 202.922 94.9258 203.094C94.082 203.266 93.1484 203.352 92.125 203.352C89.4844 203.352 87.4609 202.758 86.0547 201.57C84.6484 200.383 83.9453 198.691 83.9453 196.496C83.9453 194.324 84.6094 192.605 85.9375 191.34C87.2734 190.066 89.1016 189.43 91.4219 189.43C93.5625 189.43 95.1719 189.973 96.25 191.059C97.3281 192.137 97.8672 193.691 97.8672 195.723V197.199ZM93.6719 194.727C93.6484 193.844 93.4297 193.18 93.0156 192.734C92.6016 192.289 91.957 192.066 91.082 192.066C90.2695 192.066 89.6016 192.277 89.0781 192.699C88.5547 193.121 88.2617 193.797 88.1992 194.727H93.6719ZM112.281 198.828C112.281 200.188 111.672 201.285 110.453 202.121C109.234 202.949 107.566 203.363 105.449 203.363C104.277 203.363 103.215 203.254 102.262 203.035C101.309 202.816 100.543 202.574 99.9648 202.309V198.84H100.352C100.562 198.988 100.805 199.152 101.078 199.332C101.359 199.504 101.754 199.691 102.262 199.895C102.699 200.074 103.195 200.23 103.75 200.363C104.305 200.488 104.898 200.551 105.531 200.551C106.359 200.551 106.973 200.461 107.371 200.281C107.77 200.094 107.969 199.82 107.969 199.461C107.969 199.141 107.852 198.91 107.617 198.77C107.383 198.621 106.938 198.48 106.281 198.348C105.969 198.277 105.543 198.203 105.004 198.125C104.473 198.039 103.988 197.938 103.551 197.82C102.355 197.508 101.469 197.023 100.891 196.367C100.312 195.703 100.023 194.879 100.023 193.895C100.023 192.629 100.621 191.578 101.816 190.742C103.02 189.898 104.66 189.477 106.738 189.477C107.723 189.477 108.664 189.578 109.562 189.781C110.469 189.977 111.176 190.188 111.684 190.414V193.742H111.32C110.695 193.312 109.98 192.965 109.176 192.699C108.379 192.426 107.57 192.289 106.75 192.289C106.07 192.289 105.496 192.383 105.027 192.57C104.566 192.758 104.336 193.023 104.336 193.367C104.336 193.68 104.441 193.918 104.652 194.082C104.863 194.246 105.359 194.41 106.141 194.574C106.57 194.66 107.031 194.746 107.523 194.832C108.023 194.91 108.523 195.012 109.023 195.137C110.133 195.426 110.953 195.883 111.484 196.508C112.016 197.125 112.281 197.898 112.281 198.828ZM138.461 197.656C138.461 198.5 138.289 199.254 137.945 199.918C137.609 200.582 137.145 201.133 136.551 201.57C135.863 202.086 135.105 202.453 134.277 202.672C133.457 202.891 132.414 203 131.148 203H123.531V185.551H130.305C131.711 185.551 132.738 185.598 133.387 185.691C134.043 185.785 134.691 185.992 135.332 186.312C135.996 186.648 136.488 187.102 136.809 187.672C137.137 188.234 137.301 188.879 137.301 189.605C137.301 190.449 137.078 191.195 136.633 191.844C136.188 192.484 135.559 192.984 134.746 193.344V193.438C135.887 193.664 136.789 194.133 137.453 194.844C138.125 195.555 138.461 196.492 138.461 197.656ZM132.695 190.484C132.695 190.195 132.621 189.906 132.473 189.617C132.332 189.328 132.078 189.113 131.711 188.973C131.383 188.848 130.973 188.781 130.48 188.773C129.996 188.758 129.312 188.75 128.43 188.75H128.008V192.441H128.711C129.422 192.441 130.027 192.43 130.527 192.406C131.027 192.383 131.422 192.305 131.711 192.172C132.117 191.992 132.383 191.762 132.508 191.48C132.633 191.191 132.695 190.859 132.695 190.484ZM133.797 197.586C133.797 197.031 133.688 196.605 133.469 196.309C133.258 196.004 132.895 195.777 132.379 195.629C132.027 195.527 131.543 195.473 130.926 195.465C130.309 195.457 129.664 195.453 128.992 195.453H128.008V199.801H128.336C129.602 199.801 130.508 199.797 131.055 199.789C131.602 199.781 132.105 199.68 132.566 199.484C133.035 199.289 133.355 199.031 133.527 198.711C133.707 198.383 133.797 198.008 133.797 197.586ZM155.031 196.426C155.031 198.59 154.398 200.297 153.133 201.547C151.875 202.789 150.105 203.41 147.824 203.41C145.543 203.41 143.77 202.789 142.504 201.547C141.246 200.297 140.617 198.59 140.617 196.426C140.617 194.246 141.25 192.535 142.516 191.293C143.789 190.051 145.559 189.43 147.824 189.43C150.121 189.43 151.895 190.055 153.145 191.305C154.402 192.555 155.031 194.262 155.031 196.426ZM149.84 199.625C150.113 199.289 150.316 198.887 150.449 198.418C150.59 197.941 150.66 197.285 150.66 196.449C150.66 195.676 150.59 195.027 150.449 194.504C150.309 193.98 150.113 193.562 149.863 193.25C149.613 192.93 149.312 192.703 148.961 192.57C148.609 192.438 148.23 192.371 147.824 192.371C147.418 192.371 147.055 192.426 146.734 192.535C146.422 192.645 146.121 192.863 145.832 193.191C145.574 193.496 145.367 193.914 145.211 194.445C145.062 194.977 144.988 195.645 144.988 196.449C144.988 197.168 145.055 197.793 145.188 198.324C145.32 198.848 145.516 199.27 145.773 199.59C146.023 199.895 146.32 200.117 146.664 200.258C147.016 200.398 147.414 200.469 147.859 200.469C148.242 200.469 148.605 200.406 148.949 200.281C149.301 200.148 149.598 199.93 149.84 199.625ZM169.492 198.828C169.492 200.188 168.883 201.285 167.664 202.121C166.445 202.949 164.777 203.363 162.66 203.363C161.488 203.363 160.426 203.254 159.473 203.035C158.52 202.816 157.754 202.574 157.176 202.309V198.84H157.562C157.773 198.988 158.016 199.152 158.289 199.332C158.57 199.504 158.965 199.691 159.473 199.895C159.91 200.074 160.406 200.23 160.961 200.363C161.516 200.488 162.109 200.551 162.742 200.551C163.57 200.551 164.184 200.461 164.582 200.281C164.98 200.094 165.18 199.82 165.18 199.461C165.18 199.141 165.062 198.91 164.828 198.77C164.594 198.621 164.148 198.48 163.492 198.348C163.18 198.277 162.754 198.203 162.215 198.125C161.684 198.039 161.199 197.938 160.762 197.82C159.566 197.508 158.68 197.023 158.102 196.367C157.523 195.703 157.234 194.879 157.234 193.895C157.234 192.629 157.832 191.578 159.027 190.742C160.23 189.898 161.871 189.477 163.949 189.477C164.934 189.477 165.875 189.578 166.773 189.781C167.68 189.977 168.387 190.188 168.895 190.414V193.742H168.531C167.906 193.312 167.191 192.965 166.387 192.699C165.59 192.426 164.781 192.289 163.961 192.289C163.281 192.289 162.707 192.383 162.238 192.57C161.777 192.758 161.547 193.023 161.547 193.367C161.547 193.68 161.652 193.918 161.863 194.082C162.074 194.246 162.57 194.41 163.352 194.574C163.781 194.66 164.242 194.746 164.734 194.832C165.234 194.91 165.734 195.012 166.234 195.137C167.344 195.426 168.164 195.883 168.695 196.508C169.227 197.125 169.492 197.898 169.492 198.828ZM185.523 203H181.281V196.473C181.281 195.941 181.254 195.414 181.199 194.891C181.145 194.359 181.051 193.969 180.918 193.719C180.762 193.43 180.531 193.219 180.227 193.086C179.93 192.953 179.512 192.887 178.973 192.887C178.59 192.887 178.199 192.949 177.801 193.074C177.41 193.199 176.984 193.398 176.523 193.672V203H172.305V184.766H176.523V191.293C177.273 190.707 177.992 190.258 178.68 189.945C179.375 189.633 180.145 189.477 180.988 189.477C182.41 189.477 183.52 189.891 184.316 190.719C185.121 191.547 185.523 192.785 185.523 194.434V203ZM202.211 207.828H197.992V201.711C197.305 202.266 196.633 202.68 195.977 202.953C195.32 203.227 194.582 203.363 193.762 203.363C192.152 203.363 190.867 202.746 189.906 201.512C188.953 200.277 188.477 198.613 188.477 196.52C188.477 195.402 188.637 194.414 188.957 193.555C189.285 192.688 189.73 191.945 190.293 191.328C190.824 190.742 191.469 190.289 192.227 189.969C192.984 189.641 193.742 189.477 194.5 189.477C195.242 189.477 195.863 189.562 196.363 189.734C196.871 189.898 197.406 190.129 197.969 190.426L198.121 189.84H202.211V207.828ZM197.992 199.367V192.91C197.695 192.785 197.383 192.695 197.055 192.641C196.727 192.586 196.426 192.559 196.152 192.559C195.043 192.559 194.211 192.906 193.656 193.602C193.102 194.289 192.824 195.246 192.824 196.473C192.824 197.762 193.047 198.699 193.492 199.285C193.938 199.863 194.652 200.152 195.637 200.152C196.02 200.152 196.426 200.082 196.855 199.941C197.285 199.793 197.664 199.602 197.992 199.367ZM214.164 199.566V196.824C213.594 196.871 212.977 196.938 212.312 197.023C211.648 197.102 211.145 197.195 210.801 197.305C210.379 197.438 210.055 197.633 209.828 197.891C209.609 198.141 209.5 198.473 209.5 198.887C209.5 199.16 209.523 199.383 209.57 199.555C209.617 199.727 209.734 199.891 209.922 200.047C210.102 200.203 210.316 200.32 210.566 200.398C210.816 200.469 211.207 200.504 211.738 200.504C212.16 200.504 212.586 200.418 213.016 200.246C213.453 200.074 213.836 199.848 214.164 199.566ZM214.164 201.605C213.938 201.777 213.656 201.984 213.32 202.227C212.984 202.469 212.668 202.66 212.371 202.801C211.957 202.988 211.527 203.125 211.082 203.211C210.637 203.305 210.148 203.352 209.617 203.352C208.367 203.352 207.32 202.965 206.477 202.191C205.633 201.418 205.211 200.43 205.211 199.227C205.211 198.266 205.426 197.48 205.855 196.871C206.285 196.262 206.895 195.781 207.684 195.43C208.465 195.078 209.434 194.828 210.59 194.68C211.746 194.531 212.945 194.422 214.188 194.352V194.281C214.188 193.555 213.891 193.055 213.297 192.781C212.703 192.5 211.828 192.359 210.672 192.359C209.977 192.359 209.234 192.484 208.445 192.734C207.656 192.977 207.09 193.164 206.746 193.297H206.359V190.121C206.805 190.004 207.527 189.867 208.527 189.711C209.535 189.547 210.543 189.465 211.551 189.465C213.949 189.465 215.68 189.836 216.742 190.578C217.812 191.312 218.348 192.469 218.348 194.047V203H214.164V201.605ZM231.766 193.859H231.391C231.211 193.797 230.922 193.75 230.523 193.719C230.125 193.688 229.793 193.672 229.527 193.672C228.926 193.672 228.395 193.711 227.934 193.789C227.473 193.867 226.977 194 226.445 194.188V203H222.227V189.84H226.445V191.773C227.375 190.977 228.184 190.449 228.871 190.191C229.559 189.926 230.191 189.793 230.77 189.793C230.918 189.793 231.086 189.797 231.273 189.805C231.461 189.812 231.625 189.824 231.766 189.84V193.859ZM247.27 203H243.051V201.547C242.27 202.141 241.555 202.594 240.906 202.906C240.258 203.211 239.484 203.363 238.586 203.363C237.133 203.363 236.012 202.945 235.223 202.109C234.441 201.273 234.051 200.039 234.051 198.406V189.84H238.293V196.367C238.293 197.031 238.312 197.586 238.352 198.031C238.398 198.469 238.5 198.832 238.656 199.121C238.805 199.41 239.027 199.621 239.324 199.754C239.629 199.887 240.051 199.953 240.59 199.953C240.949 199.953 241.348 199.887 241.785 199.754C242.223 199.621 242.645 199.426 243.051 199.168V189.84H247.27V203ZM264.52 189.84L259.445 203H254.664L249.625 189.84H254.09L257.137 198.887L260.148 189.84H264.52ZM271.094 203H266.875V189.84H271.094V203ZM271.211 187.965H266.758V184.766H271.211V187.965Z" fill="#333333"/>
<path d="M30 239L37.5 246.5L50 231.5" stroke="#61B857" stroke-width="2" stroke-linecap="round" stroke-linejoin="round"/>
<path d="M69.0312 233.344L68.6953 237.867H67.6641L67.3281 233.344H69.0312ZM66.0156 233.344L65.6797 237.867H64.6484L64.3125 233.344H66.0156ZM80.6797 241.922C80.6797 242.5 80.5703 243.01 80.3516 243.453C80.1328 243.896 79.8385 244.26 79.4688 244.547C79.0312 244.891 78.5495 245.135 78.0234 245.281C77.5026 245.427 76.8385 245.5 76.0312 245.5H71.9062V233.867H75.3516C76.2005 233.867 76.8359 233.898 77.2578 233.961C77.6797 234.023 78.0833 234.154 78.4688 234.352C78.8958 234.576 79.2057 234.865 79.3984 235.219C79.5911 235.568 79.6875 235.987 79.6875 236.477C79.6875 237.029 79.5469 237.5 79.2656 237.891C78.9844 238.276 78.6094 238.586 78.1406 238.82V238.883C78.9271 239.044 79.5469 239.391 80 239.922C80.4531 240.448 80.6797 241.115 80.6797 241.922ZM78.0781 236.68C78.0781 236.398 78.0312 236.161 77.9375 235.969C77.8438 235.776 77.6927 235.62 77.4844 235.5C77.2396 235.359 76.9427 235.273 76.5938 235.242C76.2448 235.206 75.8125 235.188 75.2969 235.188H73.4531V238.547H75.4531C75.9375 238.547 76.3229 238.523 76.6094 238.477C76.8958 238.424 77.1615 238.32 77.4062 238.164C77.651 238.008 77.8229 237.807 77.9219 237.562C78.026 237.312 78.0781 237.018 78.0781 236.68ZM79.0703 241.984C79.0703 241.516 79 241.143 78.8594 240.867C78.7188 240.591 78.4635 240.357 78.0938 240.164C77.8438 240.034 77.5391 239.951 77.1797 239.914C76.8255 239.872 76.3932 239.852 75.8828 239.852H73.4531V244.18H75.5C76.1771 244.18 76.7318 244.146 77.1641 244.078C77.5964 244.005 77.9505 243.875 78.2266 243.688C78.5182 243.484 78.7318 243.253 78.8672 242.992C79.0026 242.732 79.0703 242.396 79.0703 241.984ZM84.3359 235.312H82.6797V233.789H84.3359V235.312ZM84.2422 245.5H82.7734V236.773H84.2422V245.5ZM93.4766 245.5H86.4297V244.414L91.5156 238H86.5391V236.773H93.3438V237.82L88.2344 244.258H93.4766V245.5ZM102.852 245.5H101.383V240.531C101.383 240.13 101.359 239.755 101.312 239.406C101.266 239.052 101.18 238.776 101.055 238.578C100.924 238.359 100.737 238.198 100.492 238.094C100.247 237.984 99.9297 237.93 99.5391 237.93C99.138 237.93 98.7188 238.029 98.2812 238.227C97.8438 238.424 97.4245 238.677 97.0234 238.984V245.5H95.5547V236.773H97.0234V237.742C97.4818 237.362 97.9557 237.065 98.4453 236.852C98.9349 236.638 99.4375 236.531 99.9531 236.531C100.896 236.531 101.615 236.815 102.109 237.383C102.604 237.951 102.852 238.768 102.852 239.836V245.5ZM112.984 241.289H106.555C106.555 241.826 106.635 242.294 106.797 242.695C106.958 243.091 107.18 243.417 107.461 243.672C107.732 243.922 108.052 244.109 108.422 244.234C108.797 244.359 109.208 244.422 109.656 244.422C110.25 244.422 110.846 244.305 111.445 244.07C112.049 243.831 112.479 243.596 112.734 243.367H112.812V244.969C112.318 245.177 111.812 245.352 111.297 245.492C110.781 245.633 110.24 245.703 109.672 245.703C108.224 245.703 107.094 245.312 106.281 244.531C105.469 243.745 105.062 242.63 105.062 241.188C105.062 239.76 105.451 238.628 106.227 237.789C107.008 236.951 108.034 236.531 109.305 236.531C110.482 236.531 111.388 236.875 112.023 237.562C112.664 238.25 112.984 239.227 112.984 240.492V241.289ZM111.555 240.164C111.549 239.393 111.354 238.797 110.969 238.375C110.589 237.953 110.008 237.742 109.227 237.742C108.44 237.742 107.812 237.974 107.344 238.438C106.88 238.901 106.617 239.477 106.555 240.164H111.555ZM121.445 242.984C121.445 243.781 121.115 244.435 120.453 244.945C119.797 245.456 118.898 245.711 117.758 245.711C117.112 245.711 116.518 245.635 115.977 245.484C115.44 245.328 114.99 245.159 114.625 244.977V243.328H114.703C115.167 243.677 115.682 243.956 116.25 244.164C116.818 244.367 117.362 244.469 117.883 244.469C118.529 244.469 119.034 244.365 119.398 244.156C119.763 243.948 119.945 243.62 119.945 243.172C119.945 242.828 119.846 242.568 119.648 242.391C119.451 242.214 119.07 242.062 118.508 241.938C118.299 241.891 118.026 241.836 117.688 241.773C117.354 241.711 117.049 241.643 116.773 241.57C116.008 241.367 115.464 241.07 115.141 240.68C114.823 240.284 114.664 239.799 114.664 239.227C114.664 238.867 114.737 238.529 114.883 238.211C115.034 237.893 115.26 237.609 115.562 237.359C115.854 237.115 116.224 236.922 116.672 236.781C117.125 236.635 117.63 236.562 118.188 236.562C118.708 236.562 119.234 236.628 119.766 236.758C120.302 236.883 120.747 237.036 121.102 237.219V238.789H121.023C120.648 238.513 120.193 238.281 119.656 238.094C119.12 237.901 118.594 237.805 118.078 237.805C117.542 237.805 117.089 237.909 116.719 238.117C116.349 238.32 116.164 238.625 116.164 239.031C116.164 239.391 116.276 239.661 116.5 239.844C116.719 240.026 117.073 240.174 117.562 240.289C117.833 240.352 118.135 240.414 118.469 240.477C118.807 240.539 119.089 240.596 119.312 240.648C119.995 240.805 120.521 241.073 120.891 241.453C121.26 241.839 121.445 242.349 121.445 242.984ZM136.852 239.68C136.852 241.768 136.523 243.302 135.867 244.281C135.216 245.255 134.203 245.742 132.828 245.742C131.432 245.742 130.411 245.247 129.766 244.258C129.125 243.268 128.805 241.747 128.805 239.695C128.805 237.628 129.13 236.102 129.781 235.117C130.432 234.128 131.448 233.633 132.828 233.633C134.224 233.633 135.242 234.135 135.883 235.141C136.529 236.141 136.852 237.654 136.852 239.68ZM134.797 243.227C134.979 242.805 135.102 242.31 135.164 241.742C135.232 241.169 135.266 240.482 135.266 239.68C135.266 238.888 135.232 238.201 135.164 237.617C135.102 237.034 134.977 236.539 134.789 236.133C134.607 235.732 134.357 235.43 134.039 235.227C133.727 235.023 133.323 234.922 132.828 234.922C132.339 234.922 131.932 235.023 131.609 235.227C131.292 235.43 131.039 235.737 130.852 236.148C130.674 236.534 130.552 237.036 130.484 237.656C130.422 238.276 130.391 238.956 130.391 239.695C130.391 240.508 130.419 241.188 130.477 241.734C130.534 242.281 130.656 242.771 130.844 243.203C131.016 243.609 131.258 243.919 131.57 244.133C131.888 244.346 132.307 244.453 132.828 244.453C133.318 244.453 133.724 244.352 134.047 244.148C134.37 243.945 134.62 243.638 134.797 243.227ZM152.055 245.5H150.586V244.586C150.164 244.951 149.724 245.234 149.266 245.438C148.807 245.641 148.31 245.742 147.773 245.742C146.732 245.742 145.904 245.341 145.289 244.539C144.68 243.737 144.375 242.625 144.375 241.203C144.375 240.464 144.479 239.805 144.688 239.227C144.901 238.648 145.188 238.156 145.547 237.75C145.901 237.354 146.312 237.052 146.781 236.844C147.255 236.635 147.745 236.531 148.25 236.531C148.708 236.531 149.115 236.581 149.469 236.68C149.823 236.773 150.195 236.922 150.586 237.125V233.344H152.055V245.5ZM150.586 243.352V238.344C150.19 238.167 149.836 238.044 149.523 237.977C149.211 237.909 148.87 237.875 148.5 237.875C147.677 237.875 147.036 238.161 146.578 238.734C146.12 239.307 145.891 240.12 145.891 241.172C145.891 242.208 146.068 242.997 146.422 243.539C146.776 244.076 147.344 244.344 148.125 244.344C148.542 244.344 148.964 244.253 149.391 244.07C149.818 243.883 150.216 243.643 150.586 243.352ZM161.727 245.5H160.266V244.57C160.135 244.659 159.958 244.784 159.734 244.945C159.516 245.102 159.302 245.227 159.094 245.32C158.849 245.44 158.568 245.539 158.25 245.617C157.932 245.701 157.56 245.742 157.133 245.742C156.346 245.742 155.68 245.482 155.133 244.961C154.586 244.44 154.312 243.776 154.312 242.969C154.312 242.307 154.453 241.773 154.734 241.367C155.021 240.956 155.427 240.633 155.953 240.398C156.484 240.164 157.122 240.005 157.867 239.922C158.612 239.839 159.411 239.776 160.266 239.734V239.508C160.266 239.174 160.206 238.898 160.086 238.68C159.971 238.461 159.805 238.289 159.586 238.164C159.378 238.044 159.128 237.964 158.836 237.922C158.544 237.88 158.24 237.859 157.922 237.859C157.536 237.859 157.107 237.911 156.633 238.016C156.159 238.115 155.669 238.26 155.164 238.453H155.086V236.961C155.372 236.883 155.786 236.797 156.328 236.703C156.87 236.609 157.404 236.562 157.93 236.562C158.544 236.562 159.078 236.615 159.531 236.719C159.99 236.818 160.385 236.99 160.719 237.234C161.047 237.474 161.297 237.784 161.469 238.164C161.641 238.544 161.727 239.016 161.727 239.578V245.5ZM160.266 243.352V240.922C159.818 240.948 159.289 240.987 158.68 241.039C158.076 241.091 157.596 241.167 157.242 241.266C156.82 241.385 156.479 241.573 156.219 241.828C155.958 242.078 155.828 242.424 155.828 242.867C155.828 243.367 155.979 243.745 156.281 244C156.583 244.25 157.044 244.375 157.664 244.375C158.18 244.375 158.651 244.276 159.078 244.078C159.505 243.875 159.901 243.633 160.266 243.352ZM171.852 245.5H170.383V240.531C170.383 240.13 170.359 239.755 170.312 239.406C170.266 239.052 170.18 238.776 170.055 238.578C169.924 238.359 169.737 238.198 169.492 238.094C169.247 237.984 168.93 237.93 168.539 237.93C168.138 237.93 167.719 238.029 167.281 238.227C166.844 238.424 166.424 238.677 166.023 238.984V245.5H164.555V236.773H166.023V237.742C166.482 237.362 166.956 237.065 167.445 236.852C167.935 236.638 168.438 236.531 168.953 236.531C169.896 236.531 170.615 236.815 171.109 237.383C171.604 237.951 171.852 238.768 171.852 239.836V245.5ZM179.266 233.344L178.93 237.867H177.898L177.562 233.344H179.266ZM176.25 233.344L175.914 237.867H174.883L174.547 233.344H176.25ZM195.57 245.5H193.633L190.133 241.68L189.18 242.586V245.5H187.711V233.344H189.18V241.141L193.422 236.773H195.273L191.219 240.805L195.57 245.5ZM204.352 245.5H202.883V244.531C202.388 244.922 201.914 245.221 201.461 245.43C201.008 245.638 200.508 245.742 199.961 245.742C199.044 245.742 198.331 245.464 197.82 244.906C197.31 244.344 197.055 243.521 197.055 242.438V236.773H198.523V241.742C198.523 242.185 198.544 242.565 198.586 242.883C198.628 243.195 198.716 243.464 198.852 243.688C198.992 243.917 199.174 244.083 199.398 244.188C199.622 244.292 199.948 244.344 200.375 244.344C200.755 244.344 201.169 244.245 201.617 244.047C202.07 243.849 202.492 243.596 202.883 243.289V236.773H204.352V245.5ZM212.688 238.375H212.609C212.391 238.323 212.177 238.286 211.969 238.266C211.766 238.24 211.523 238.227 211.242 238.227C210.789 238.227 210.352 238.328 209.93 238.531C209.508 238.729 209.102 238.987 208.711 239.305V245.5H207.242V236.773H208.711V238.062C209.294 237.594 209.807 237.263 210.25 237.07C210.698 236.872 211.154 236.773 211.617 236.773C211.872 236.773 212.057 236.781 212.172 236.797C212.286 236.807 212.458 236.831 212.688 236.867V238.375ZM220.305 242.984C220.305 243.781 219.974 244.435 219.312 244.945C218.656 245.456 217.758 245.711 216.617 245.711C215.971 245.711 215.378 245.635 214.836 245.484C214.299 245.328 213.849 245.159 213.484 244.977V243.328H213.562C214.026 243.677 214.542 243.956 215.109 244.164C215.677 244.367 216.221 244.469 216.742 244.469C217.388 244.469 217.893 244.365 218.258 244.156C218.622 243.948 218.805 243.62 218.805 243.172C218.805 242.828 218.706 242.568 218.508 242.391C218.31 242.214 217.93 242.062 217.367 241.938C217.159 241.891 216.885 241.836 216.547 241.773C216.214 241.711 215.909 241.643 215.633 241.57C214.867 241.367 214.323 241.07 214 240.68C213.682 240.284 213.523 239.799 213.523 239.227C213.523 238.867 213.596 238.529 213.742 238.211C213.893 237.893 214.12 237.609 214.422 237.359C214.714 237.115 215.083 236.922 215.531 236.781C215.984 236.635 216.49 236.562 217.047 236.562C217.568 236.562 218.094 236.628 218.625 236.758C219.161 236.883 219.607 237.036 219.961 237.219V238.789H219.883C219.508 238.513 219.052 238.281 218.516 238.094C217.979 237.901 217.453 237.805 216.938 237.805C216.401 237.805 215.948 237.909 215.578 238.117C215.208 238.32 215.023 238.625 215.023 239.031C215.023 239.391 215.135 239.661 215.359 239.844C215.578 240.026 215.932 240.174 216.422 240.289C216.693 240.352 216.995 240.414 217.328 240.477C217.667 240.539 217.948 240.596 218.172 240.648C218.854 240.805 219.38 241.073 219.75 241.453C220.12 241.839 220.305 242.349 220.305 242.984ZM223.992 235.312H222.336V233.789H223.992V235.312ZM223.898 245.5H222.43V236.773H223.898V245.5Z" fill="#333333"/>
<path d="M30 285L37.5 292.5L50 277.5" stroke="#61B857" stroke-width="2" stroke-linecap="round" stroke-linejoin="round"/>
<path d="M73.3359 287.922C73.3359 288.5 73.2266 289.01 73.0078 289.453C72.7891 289.896 72.4948 290.26 72.125 290.547C71.6875 290.891 71.2057 291.135 70.6797 291.281C70.1589 291.427 69.4948 291.5 68.6875 291.5H64.5625V279.867H68.0078C68.8568 279.867 69.4922 279.898 69.9141 279.961C70.3359 280.023 70.7396 280.154 71.125 280.352C71.5521 280.576 71.862 280.865 72.0547 281.219C72.2474 281.568 72.3438 281.987 72.3438 282.477C72.3438 283.029 72.2031 283.5 71.9219 283.891C71.6406 284.276 71.2656 284.586 70.7969 284.82V284.883C71.5833 285.044 72.2031 285.391 72.6562 285.922C73.1094 286.448 73.3359 287.115 73.3359 287.922ZM70.7344 282.68C70.7344 282.398 70.6875 282.161 70.5938 281.969C70.5 281.776 70.349 281.62 70.1406 281.5C69.8958 281.359 69.599 281.273 69.25 281.242C68.901 281.206 68.4688 281.188 67.9531 281.188H66.1094V284.547H68.1094C68.5938 284.547 68.9792 284.523 69.2656 284.477C69.5521 284.424 69.8177 284.32 70.0625 284.164C70.3073 284.008 70.4792 283.807 70.5781 283.562C70.6823 283.312 70.7344 283.018 70.7344 282.68ZM71.7266 287.984C71.7266 287.516 71.6562 287.143 71.5156 286.867C71.375 286.591 71.1198 286.357 70.75 286.164C70.5 286.034 70.1953 285.951 69.8359 285.914C69.4818 285.872 69.0495 285.852 68.5391 285.852H66.1094V290.18H68.1562C68.8333 290.18 69.388 290.146 69.8203 290.078C70.2526 290.005 70.6068 289.875 70.8828 289.688C71.1745 289.484 71.388 289.253 71.5234 288.992C71.6589 288.732 71.7266 288.396 71.7266 287.984ZM76.9922 281.312H75.3359V279.789H76.9922V281.312ZM76.8984 291.5H75.4297V282.773H76.8984V291.5ZM86.1328 291.5H79.0859V290.414L84.1719 284H79.1953V282.773H86V283.82L80.8906 290.258H86.1328V291.5ZM95.5078 291.5H94.0391V286.531C94.0391 286.13 94.0156 285.755 93.9688 285.406C93.9219 285.052 93.8359 284.776 93.7109 284.578C93.5807 284.359 93.3932 284.198 93.1484 284.094C92.9036 283.984 92.5859 283.93 92.1953 283.93C91.7943 283.93 91.375 284.029 90.9375 284.227C90.5 284.424 90.0807 284.677 89.6797 284.984V291.5H88.2109V282.773H89.6797V283.742C90.138 283.362 90.612 283.065 91.1016 282.852C91.5911 282.638 92.0938 282.531 92.6094 282.531C93.5521 282.531 94.2708 282.815 94.7656 283.383C95.2604 283.951 95.5078 284.768 95.5078 285.836V291.5ZM105.641 287.289H99.2109C99.2109 287.826 99.2917 288.294 99.4531 288.695C99.6146 289.091 99.8359 289.417 100.117 289.672C100.388 289.922 100.708 290.109 101.078 290.234C101.453 290.359 101.865 290.422 102.312 290.422C102.906 290.422 103.503 290.305 104.102 290.07C104.706 289.831 105.135 289.596 105.391 289.367H105.469V290.969C104.974 291.177 104.469 291.352 103.953 291.492C103.438 291.633 102.896 291.703 102.328 291.703C100.88 291.703 99.75 291.312 98.9375 290.531C98.125 289.745 97.7188 288.63 97.7188 287.188C97.7188 285.76 98.1068 284.628 98.8828 283.789C99.6641 282.951 100.69 282.531 101.961 282.531C103.138 282.531 104.044 282.875 104.68 283.562C105.32 284.25 105.641 285.227 105.641 286.492V287.289ZM104.211 286.164C104.206 285.393 104.01 284.797 103.625 284.375C103.245 283.953 102.664 283.742 101.883 283.742C101.096 283.742 100.469 283.974 100 284.438C99.5365 284.901 99.2734 285.477 99.2109 286.164H104.211ZM114.102 288.984C114.102 289.781 113.771 290.435 113.109 290.945C112.453 291.456 111.555 291.711 110.414 291.711C109.768 291.711 109.174 291.635 108.633 291.484C108.096 291.328 107.646 291.159 107.281 290.977V289.328H107.359C107.823 289.677 108.339 289.956 108.906 290.164C109.474 290.367 110.018 290.469 110.539 290.469C111.185 290.469 111.69 290.365 112.055 290.156C112.419 289.948 112.602 289.62 112.602 289.172C112.602 288.828 112.503 288.568 112.305 288.391C112.107 288.214 111.727 288.062 111.164 287.938C110.956 287.891 110.682 287.836 110.344 287.773C110.01 287.711 109.706 287.643 109.43 287.57C108.664 287.367 108.12 287.07 107.797 286.68C107.479 286.284 107.32 285.799 107.32 285.227C107.32 284.867 107.393 284.529 107.539 284.211C107.69 283.893 107.917 283.609 108.219 283.359C108.51 283.115 108.88 282.922 109.328 282.781C109.781 282.635 110.286 282.562 110.844 282.562C111.365 282.562 111.891 282.628 112.422 282.758C112.958 282.883 113.404 283.036 113.758 283.219V284.789H113.68C113.305 284.513 112.849 284.281 112.312 284.094C111.776 283.901 111.25 283.805 110.734 283.805C110.198 283.805 109.745 283.909 109.375 284.117C109.005 284.32 108.82 284.625 108.82 285.031C108.82 285.391 108.932 285.661 109.156 285.844C109.375 286.026 109.729 286.174 110.219 286.289C110.49 286.352 110.792 286.414 111.125 286.477C111.464 286.539 111.745 286.596 111.969 286.648C112.651 286.805 113.177 287.073 113.547 287.453C113.917 287.839 114.102 288.349 114.102 288.984ZM129.758 291.5H127.82L124.32 287.68L123.367 288.586V291.5H121.898V279.344H123.367V287.141L127.609 282.773H129.461L125.406 286.805L129.758 291.5ZM138.586 287.141C138.586 288.562 138.221 289.685 137.492 290.508C136.763 291.331 135.786 291.742 134.562 291.742C133.328 291.742 132.346 291.331 131.617 290.508C130.893 289.685 130.531 288.562 130.531 287.141C130.531 285.719 130.893 284.596 131.617 283.773C132.346 282.945 133.328 282.531 134.562 282.531C135.786 282.531 136.763 282.945 137.492 283.773C138.221 284.596 138.586 285.719 138.586 287.141ZM137.07 287.141C137.07 286.01 136.849 285.172 136.406 284.625C135.964 284.073 135.349 283.797 134.562 283.797C133.766 283.797 133.146 284.073 132.703 284.625C132.266 285.172 132.047 286.01 132.047 287.141C132.047 288.234 132.268 289.065 132.711 289.633C133.154 290.195 133.771 290.477 134.562 290.477C135.344 290.477 135.956 290.198 136.398 289.641C136.846 289.078 137.07 288.245 137.07 287.141ZM148.164 291.5H146.695V286.531C146.695 286.13 146.672 285.755 146.625 285.406C146.578 285.052 146.492 284.776 146.367 284.578C146.237 284.359 146.049 284.198 145.805 284.094C145.56 283.984 145.242 283.93 144.852 283.93C144.451 283.93 144.031 284.029 143.594 284.227C143.156 284.424 142.737 284.677 142.336 284.984V291.5H140.867V282.773H142.336V283.742C142.794 283.362 143.268 283.065 143.758 282.852C144.247 282.638 144.75 282.531 145.266 282.531C146.208 282.531 146.927 282.815 147.422 283.383C147.917 283.951 148.164 284.768 148.164 285.836V291.5ZM157.227 288.984C157.227 289.781 156.896 290.435 156.234 290.945C155.578 291.456 154.68 291.711 153.539 291.711C152.893 291.711 152.299 291.635 151.758 291.484C151.221 291.328 150.771 291.159 150.406 290.977V289.328H150.484C150.948 289.677 151.464 289.956 152.031 290.164C152.599 290.367 153.143 290.469 153.664 290.469C154.31 290.469 154.815 290.365 155.18 290.156C155.544 289.948 155.727 289.62 155.727 289.172C155.727 288.828 155.628 288.568 155.43 288.391C155.232 288.214 154.852 288.062 154.289 287.938C154.081 287.891 153.807 287.836 153.469 287.773C153.135 287.711 152.831 287.643 152.555 287.57C151.789 287.367 151.245 287.07 150.922 286.68C150.604 286.284 150.445 285.799 150.445 285.227C150.445 284.867 150.518 284.529 150.664 284.211C150.815 283.893 151.042 283.609 151.344 283.359C151.635 283.115 152.005 282.922 152.453 282.781C152.906 282.635 153.411 282.562 153.969 282.562C154.49 282.562 155.016 282.628 155.547 282.758C156.083 282.883 156.529 283.036 156.883 283.219V284.789H156.805C156.43 284.513 155.974 284.281 155.438 284.094C154.901 283.901 154.375 283.805 153.859 283.805C153.323 283.805 152.87 283.909 152.5 284.117C152.13 284.32 151.945 284.625 151.945 285.031C151.945 285.391 152.057 285.661 152.281 285.844C152.5 286.026 152.854 286.174 153.344 286.289C153.615 286.352 153.917 286.414 154.25 286.477C154.589 286.539 154.87 286.596 155.094 286.648C155.776 286.805 156.302 287.073 156.672 287.453C157.042 287.839 157.227 288.349 157.227 288.984ZM166.117 291.5H164.656V290.57C164.526 290.659 164.349 290.784 164.125 290.945C163.906 291.102 163.693 291.227 163.484 291.32C163.24 291.44 162.958 291.539 162.641 291.617C162.323 291.701 161.951 291.742 161.523 291.742C160.737 291.742 160.07 291.482 159.523 290.961C158.977 290.44 158.703 289.776 158.703 288.969C158.703 288.307 158.844 287.773 159.125 287.367C159.411 286.956 159.818 286.633 160.344 286.398C160.875 286.164 161.513 286.005 162.258 285.922C163.003 285.839 163.802 285.776 164.656 285.734V285.508C164.656 285.174 164.596 284.898 164.477 284.68C164.362 284.461 164.195 284.289 163.977 284.164C163.768 284.044 163.518 283.964 163.227 283.922C162.935 283.88 162.63 283.859 162.312 283.859C161.927 283.859 161.497 283.911 161.023 284.016C160.549 284.115 160.06 284.26 159.555 284.453H159.477V282.961C159.763 282.883 160.177 282.797 160.719 282.703C161.26 282.609 161.794 282.562 162.32 282.562C162.935 282.562 163.469 282.615 163.922 282.719C164.38 282.818 164.776 282.99 165.109 283.234C165.438 283.474 165.688 283.784 165.859 284.164C166.031 284.544 166.117 285.016 166.117 285.578V291.5ZM164.656 289.352V286.922C164.208 286.948 163.68 286.987 163.07 287.039C162.466 287.091 161.987 287.167 161.633 287.266C161.211 287.385 160.87 287.573 160.609 287.828C160.349 288.078 160.219 288.424 160.219 288.867C160.219 289.367 160.37 289.745 160.672 290C160.974 290.25 161.435 290.375 162.055 290.375C162.57 290.375 163.042 290.276 163.469 290.078C163.896 289.875 164.292 289.633 164.656 289.352ZM170.43 291.5H168.961V279.344H170.43V291.5ZM177.867 291.422C177.591 291.495 177.289 291.555 176.961 291.602C176.638 291.648 176.349 291.672 176.094 291.672C175.203 291.672 174.526 291.432 174.062 290.953C173.599 290.474 173.367 289.706 173.367 288.648V284.008H172.375V282.773H173.367V280.266H174.836V282.773H177.867V284.008H174.836V287.984C174.836 288.443 174.846 288.802 174.867 289.062C174.888 289.318 174.961 289.557 175.086 289.781C175.201 289.99 175.357 290.143 175.555 290.242C175.758 290.336 176.065 290.383 176.477 290.383C176.716 290.383 176.966 290.349 177.227 290.281C177.487 290.208 177.674 290.148 177.789 290.102H177.867V291.422ZM181.227 281.312H179.57V279.789H181.227V281.312ZM181.133 291.5H179.664V282.773H181.133V291.5ZM191.336 291.5H189.867V286.531C189.867 286.13 189.844 285.755 189.797 285.406C189.75 285.052 189.664 284.776 189.539 284.578C189.409 284.359 189.221 284.198 188.977 284.094C188.732 283.984 188.414 283.93 188.023 283.93C187.622 283.93 187.203 284.029 186.766 284.227C186.328 284.424 185.909 284.677 185.508 284.984V291.5H184.039V282.773H185.508V283.742C185.966 283.362 186.44 283.065 186.93 282.852C187.419 282.638 187.922 282.531 188.438 282.531C189.38 282.531 190.099 282.815 190.594 283.383C191.089 283.951 191.336 284.768 191.336 285.836V291.5ZM201.242 290.508C201.242 291.987 200.906 293.073 200.234 293.766C199.562 294.458 198.529 294.805 197.133 294.805C196.669 294.805 196.216 294.771 195.773 294.703C195.336 294.641 194.904 294.549 194.477 294.43V292.93H194.555C194.794 293.023 195.174 293.138 195.695 293.273C196.216 293.414 196.737 293.484 197.258 293.484C197.758 293.484 198.172 293.424 198.5 293.305C198.828 293.185 199.083 293.018 199.266 292.805C199.448 292.602 199.578 292.357 199.656 292.07C199.734 291.784 199.773 291.464 199.773 291.109V290.312C199.331 290.667 198.906 290.932 198.5 291.109C198.099 291.281 197.586 291.367 196.961 291.367C195.919 291.367 195.091 290.992 194.477 290.242C193.867 289.487 193.562 288.424 193.562 287.055C193.562 286.305 193.667 285.659 193.875 285.117C194.089 284.57 194.378 284.099 194.742 283.703C195.081 283.333 195.492 283.047 195.977 282.844C196.461 282.635 196.943 282.531 197.422 282.531C197.927 282.531 198.349 282.583 198.688 282.688C199.031 282.786 199.393 282.94 199.773 283.148L199.867 282.773H201.242V290.508ZM199.773 289.102V284.344C199.383 284.167 199.018 284.042 198.68 283.969C198.346 283.891 198.013 283.852 197.68 283.852C196.872 283.852 196.237 284.122 195.773 284.664C195.31 285.206 195.078 285.992 195.078 287.023C195.078 288.003 195.25 288.745 195.594 289.25C195.938 289.755 196.508 290.008 197.305 290.008C197.732 290.008 198.159 289.927 198.586 289.766C199.018 289.599 199.414 289.378 199.773 289.102Z" fill="#333333"/>
<path d="M30 331L37.5 338.5L50 323.5" stroke="#61B857" stroke-width="2" stroke-linecap="round" stroke-linejoin="round"/>
<path d="M73.3359 333.922C73.3359 334.5 73.2266 335.01 73.0078 335.453C72.7891 335.896 72.4948 336.26 72.125 336.547C71.6875 336.891 71.2057 337.135 70.6797 337.281C70.1589 337.427 69.4948 337.5 68.6875 337.5H64.5625V325.867H68.0078C68.8568 325.867 69.4922 325.898 69.9141 325.961C70.3359 326.023 70.7396 326.154 71.125 326.352C71.5521 326.576 71.862 326.865 72.0547 327.219C72.2474 327.568 72.3438 327.987 72.3438 328.477C72.3438 329.029 72.2031 329.5 71.9219 329.891C71.6406 330.276 71.2656 330.586 70.7969 330.82V330.883C71.5833 331.044 72.2031 331.391 72.6562 331.922C73.1094 332.448 73.3359 333.115 73.3359 333.922ZM70.7344 328.68C70.7344 328.398 70.6875 328.161 70.5938 327.969C70.5 327.776 70.349 327.62 70.1406 327.5C69.8958 327.359 69.599 327.273 69.25 327.242C68.901 327.206 68.4688 327.188 67.9531 327.188H66.1094V330.547H68.1094C68.5938 330.547 68.9792 330.523 69.2656 330.477C69.5521 330.424 69.8177 330.32 70.0625 330.164C70.3073 330.008 70.4792 329.807 70.5781 329.562C70.6823 329.312 70.7344 329.018 70.7344 328.68ZM71.7266 333.984C71.7266 333.516 71.6562 333.143 71.5156 332.867C71.375 332.591 71.1198 332.357 70.75 332.164C70.5 332.034 70.1953 331.951 69.8359 331.914C69.4818 331.872 69.0495 331.852 68.5391 331.852H66.1094V336.18H68.1562C68.8333 336.18 69.388 336.146 69.8203 336.078C70.2526 336.005 70.6068 335.875 70.8828 335.688C71.1745 335.484 71.388 335.253 71.5234 334.992C71.6589 334.732 71.7266 334.396 71.7266 333.984ZM76.9922 327.312H75.3359V325.789H76.9922V327.312ZM76.8984 337.5H75.4297V328.773H76.8984V337.5ZM86.1328 337.5H79.0859V336.414L84.1719 330H79.1953V328.773H86V329.82L80.8906 336.258H86.1328V337.5ZM95.5078 337.5H94.0391V332.531C94.0391 332.13 94.0156 331.755 93.9688 331.406C93.9219 331.052 93.8359 330.776 93.7109 330.578C93.5807 330.359 93.3932 330.198 93.1484 330.094C92.9036 329.984 92.5859 329.93 92.1953 329.93C91.7943 329.93 91.375 330.029 90.9375 330.227C90.5 330.424 90.0807 330.677 89.6797 330.984V337.5H88.2109V328.773H89.6797V329.742C90.138 329.362 90.612 329.065 91.1016 328.852C91.5911 328.638 92.0938 328.531 92.6094 328.531C93.5521 328.531 94.2708 328.815 94.7656 329.383C95.2604 329.951 95.5078 330.768 95.5078 331.836V337.5ZM105.641 333.289H99.2109C99.2109 333.826 99.2917 334.294 99.4531 334.695C99.6146 335.091 99.8359 335.417 100.117 335.672C100.388 335.922 100.708 336.109 101.078 336.234C101.453 336.359 101.865 336.422 102.312 336.422C102.906 336.422 103.503 336.305 104.102 336.07C104.706 335.831 105.135 335.596 105.391 335.367H105.469V336.969C104.974 337.177 104.469 337.352 103.953 337.492C103.438 337.633 102.896 337.703 102.328 337.703C100.88 337.703 99.75 337.312 98.9375 336.531C98.125 335.745 97.7188 334.63 97.7188 333.188C97.7188 331.76 98.1068 330.628 98.8828 329.789C99.6641 328.951 100.69 328.531 101.961 328.531C103.138 328.531 104.044 328.875 104.68 329.562C105.32 330.25 105.641 331.227 105.641 332.492V333.289ZM104.211 332.164C104.206 331.393 104.01 330.797 103.625 330.375C103.245 329.953 102.664 329.742 101.883 329.742C101.096 329.742 100.469 329.974 100 330.438C99.5365 330.901 99.2734 331.477 99.2109 332.164H104.211ZM114.102 334.984C114.102 335.781 113.771 336.435 113.109 336.945C112.453 337.456 111.555 337.711 110.414 337.711C109.768 337.711 109.174 337.635 108.633 337.484C108.096 337.328 107.646 337.159 107.281 336.977V335.328H107.359C107.823 335.677 108.339 335.956 108.906 336.164C109.474 336.367 110.018 336.469 110.539 336.469C111.185 336.469 111.69 336.365 112.055 336.156C112.419 335.948 112.602 335.62 112.602 335.172C112.602 334.828 112.503 334.568 112.305 334.391C112.107 334.214 111.727 334.062 111.164 333.938C110.956 333.891 110.682 333.836 110.344 333.773C110.01 333.711 109.706 333.643 109.43 333.57C108.664 333.367 108.12 333.07 107.797 332.68C107.479 332.284 107.32 331.799 107.32 331.227C107.32 330.867 107.393 330.529 107.539 330.211C107.69 329.893 107.917 329.609 108.219 329.359C108.51 329.115 108.88 328.922 109.328 328.781C109.781 328.635 110.286 328.562 110.844 328.562C111.365 328.562 111.891 328.628 112.422 328.758C112.958 328.883 113.404 329.036 113.758 329.219V330.789H113.68C113.305 330.513 112.849 330.281 112.312 330.094C111.776 329.901 111.25 329.805 110.734 329.805C110.198 329.805 109.745 329.909 109.375 330.117C109.005 330.32 108.82 330.625 108.82 331.031C108.82 331.391 108.932 331.661 109.156 331.844C109.375 332.026 109.729 332.174 110.219 332.289C110.49 332.352 110.792 332.414 111.125 332.477C111.464 332.539 111.745 332.596 111.969 332.648C112.651 332.805 113.177 333.073 113.547 333.453C113.917 333.839 114.102 334.349 114.102 334.984ZM129.133 337.5H127.664V332.531C127.664 332.13 127.641 331.755 127.594 331.406C127.547 331.052 127.461 330.776 127.336 330.578C127.206 330.359 127.018 330.198 126.773 330.094C126.529 329.984 126.211 329.93 125.82 329.93C125.419 329.93 125 330.029 124.562 330.227C124.125 330.424 123.706 330.677 123.305 330.984V337.5H121.836V325.344H123.305V329.742C123.763 329.362 124.237 329.065 124.727 328.852C125.216 328.638 125.719 328.531 126.234 328.531C127.177 328.531 127.896 328.815 128.391 329.383C128.885 329.951 129.133 330.768 129.133 331.836V337.5ZM138.742 337.5H137.281V336.57C137.151 336.659 136.974 336.784 136.75 336.945C136.531 337.102 136.318 337.227 136.109 337.32C135.865 337.44 135.583 337.539 135.266 337.617C134.948 337.701 134.576 337.742 134.148 337.742C133.362 337.742 132.695 337.482 132.148 336.961C131.602 336.44 131.328 335.776 131.328 334.969C131.328 334.307 131.469 333.773 131.75 333.367C132.036 332.956 132.443 332.633 132.969 332.398C133.5 332.164 134.138 332.005 134.883 331.922C135.628 331.839 136.427 331.776 137.281 331.734V331.508C137.281 331.174 137.221 330.898 137.102 330.68C136.987 330.461 136.82 330.289 136.602 330.164C136.393 330.044 136.143 329.964 135.852 329.922C135.56 329.88 135.255 329.859 134.938 329.859C134.552 329.859 134.122 329.911 133.648 330.016C133.174 330.115 132.685 330.26 132.18 330.453H132.102V328.961C132.388 328.883 132.802 328.797 133.344 328.703C133.885 328.609 134.419 328.562 134.945 328.562C135.56 328.562 136.094 328.615 136.547 328.719C137.005 328.818 137.401 328.99 137.734 329.234C138.062 329.474 138.312 329.784 138.484 330.164C138.656 330.544 138.742 331.016 138.742 331.578V337.5ZM137.281 335.352V332.922C136.833 332.948 136.305 332.987 135.695 333.039C135.091 333.091 134.612 333.167 134.258 333.266C133.836 333.385 133.495 333.573 133.234 333.828C132.974 334.078 132.844 334.424 132.844 334.867C132.844 335.367 132.995 335.745 133.297 336C133.599 336.25 134.06 336.375 134.68 336.375C135.195 336.375 135.667 336.276 136.094 336.078C136.521 335.875 136.917 335.633 137.281 335.352ZM154.305 337.5H152.836V332.531C152.836 332.156 152.818 331.794 152.781 331.445C152.75 331.096 152.68 330.818 152.57 330.609C152.451 330.385 152.279 330.216 152.055 330.102C151.831 329.987 151.508 329.93 151.086 329.93C150.674 329.93 150.263 330.034 149.852 330.242C149.44 330.445 149.029 330.706 148.617 331.023C148.633 331.143 148.646 331.284 148.656 331.445C148.667 331.602 148.672 331.758 148.672 331.914V337.5H147.203V332.531C147.203 332.146 147.185 331.781 147.148 331.438C147.117 331.089 147.047 330.81 146.938 330.602C146.818 330.378 146.646 330.211 146.422 330.102C146.198 329.987 145.875 329.93 145.453 329.93C145.052 329.93 144.648 330.029 144.242 330.227C143.841 330.424 143.44 330.677 143.039 330.984V337.5H141.57V328.773H143.039V329.742C143.497 329.362 143.953 329.065 144.406 328.852C144.865 328.638 145.352 328.531 145.867 328.531C146.461 328.531 146.964 328.656 147.375 328.906C147.792 329.156 148.102 329.503 148.305 329.945C148.898 329.445 149.44 329.086 149.93 328.867C150.419 328.643 150.943 328.531 151.5 328.531C152.458 328.531 153.164 328.823 153.617 329.406C154.076 329.984 154.305 330.794 154.305 331.836V337.5ZM159.852 327.312H158.195V325.789H159.852V327.312ZM159.758 337.711C159.758 338.732 159.497 339.503 158.977 340.023C158.456 340.544 157.758 340.805 156.883 340.805C156.674 340.805 156.398 340.784 156.055 340.742C155.716 340.701 155.432 340.648 155.203 340.586V339.188H155.281C155.427 339.245 155.622 339.31 155.867 339.383C156.117 339.456 156.359 339.492 156.594 339.492C156.969 339.492 157.271 339.44 157.5 339.336C157.729 339.232 157.901 339.076 158.016 338.867C158.13 338.659 158.203 338.406 158.234 338.109C158.271 337.818 158.289 337.461 158.289 337.039V330.008H156.469V328.773H159.758V337.711ZM169.43 337.5H167.969V336.57C167.839 336.659 167.661 336.784 167.438 336.945C167.219 337.102 167.005 337.227 166.797 337.32C166.552 337.44 166.271 337.539 165.953 337.617C165.635 337.701 165.263 337.742 164.836 337.742C164.049 337.742 163.383 337.482 162.836 336.961C162.289 336.44 162.016 335.776 162.016 334.969C162.016 334.307 162.156 333.773 162.438 333.367C162.724 332.956 163.13 332.633 163.656 332.398C164.188 332.164 164.826 332.005 165.57 331.922C166.315 331.839 167.115 331.776 167.969 331.734V331.508C167.969 331.174 167.909 330.898 167.789 330.68C167.674 330.461 167.508 330.289 167.289 330.164C167.081 330.044 166.831 329.964 166.539 329.922C166.247 329.88 165.943 329.859 165.625 329.859C165.24 329.859 164.81 329.911 164.336 330.016C163.862 330.115 163.372 330.26 162.867 330.453H162.789V328.961C163.076 328.883 163.49 328.797 164.031 328.703C164.573 328.609 165.107 328.562 165.633 328.562C166.247 328.562 166.781 328.615 167.234 328.719C167.693 328.818 168.089 328.99 168.422 329.234C168.75 329.474 169 329.784 169.172 330.164C169.344 330.544 169.43 331.016 169.43 331.578V337.5ZM167.969 335.352V332.922C167.521 332.948 166.992 332.987 166.383 333.039C165.779 333.091 165.299 333.167 164.945 333.266C164.523 333.385 164.182 333.573 163.922 333.828C163.661 334.078 163.531 334.424 163.531 334.867C163.531 335.367 163.682 335.745 163.984 336C164.286 336.25 164.747 336.375 165.367 336.375C165.883 336.375 166.354 336.276 166.781 336.078C167.208 335.875 167.604 335.633 167.969 335.352ZM184.992 337.5H183.523V332.531C183.523 332.156 183.505 331.794 183.469 331.445C183.438 331.096 183.367 330.818 183.258 330.609C183.138 330.385 182.966 330.216 182.742 330.102C182.518 329.987 182.195 329.93 181.773 329.93C181.362 329.93 180.951 330.034 180.539 330.242C180.128 330.445 179.716 330.706 179.305 331.023C179.32 331.143 179.333 331.284 179.344 331.445C179.354 331.602 179.359 331.758 179.359 331.914V337.5H177.891V332.531C177.891 332.146 177.872 331.781 177.836 331.438C177.805 331.089 177.734 330.81 177.625 330.602C177.505 330.378 177.333 330.211 177.109 330.102C176.885 329.987 176.562 329.93 176.141 329.93C175.74 329.93 175.336 330.029 174.93 330.227C174.529 330.424 174.128 330.677 173.727 330.984V337.5H172.258V328.773H173.727V329.742C174.185 329.362 174.641 329.065 175.094 328.852C175.552 328.638 176.039 328.531 176.555 328.531C177.148 328.531 177.651 328.656 178.062 328.906C178.479 329.156 178.789 329.503 178.992 329.945C179.586 329.445 180.128 329.086 180.617 328.867C181.107 328.643 181.63 328.531 182.188 328.531C183.146 328.531 183.852 328.823 184.305 329.406C184.763 329.984 184.992 330.794 184.992 331.836V337.5ZM189.398 327.312H187.742V325.789H189.398V327.312ZM189.305 337.5H187.836V328.773H189.305V337.5ZM199.758 328.773L194.664 340.719H193.094L194.719 337.078L191.242 328.773H192.836L195.516 335.242L198.219 328.773H199.758ZM208.148 337.5H206.688V336.57C206.557 336.659 206.38 336.784 206.156 336.945C205.938 337.102 205.724 337.227 205.516 337.32C205.271 337.44 204.99 337.539 204.672 337.617C204.354 337.701 203.982 337.742 203.555 337.742C202.768 337.742 202.102 337.482 201.555 336.961C201.008 336.44 200.734 335.776 200.734 334.969C200.734 334.307 200.875 333.773 201.156 333.367C201.443 332.956 201.849 332.633 202.375 332.398C202.906 332.164 203.544 332.005 204.289 331.922C205.034 331.839 205.833 331.776 206.688 331.734V331.508C206.688 331.174 206.628 330.898 206.508 330.68C206.393 330.461 206.227 330.289 206.008 330.164C205.799 330.044 205.549 329.964 205.258 329.922C204.966 329.88 204.661 329.859 204.344 329.859C203.958 329.859 203.529 329.911 203.055 330.016C202.581 330.115 202.091 330.26 201.586 330.453H201.508V328.961C201.794 328.883 202.208 328.797 202.75 328.703C203.292 328.609 203.826 328.562 204.352 328.562C204.966 328.562 205.5 328.615 205.953 328.719C206.411 328.818 206.807 328.99 207.141 329.234C207.469 329.474 207.719 329.784 207.891 330.164C208.062 330.544 208.148 331.016 208.148 331.578V337.5ZM206.688 335.352V332.922C206.24 332.948 205.711 332.987 205.102 333.039C204.497 333.091 204.018 333.167 203.664 333.266C203.242 333.385 202.901 333.573 202.641 333.828C202.38 334.078 202.25 334.424 202.25 334.867C202.25 335.367 202.401 335.745 202.703 336C203.005 336.25 203.466 336.375 204.086 336.375C204.602 336.375 205.073 336.276 205.5 336.078C205.927 335.875 206.323 335.633 206.688 335.352ZM215.508 337.422C215.232 337.495 214.93 337.555 214.602 337.602C214.279 337.648 213.99 337.672 213.734 337.672C212.844 337.672 212.167 337.432 211.703 336.953C211.24 336.474 211.008 335.706 211.008 334.648V330.008H210.016V328.773H211.008V326.266H212.477V328.773H215.508V330.008H212.477V333.984C212.477 334.443 212.487 334.802 212.508 335.062C212.529 335.318 212.602 335.557 212.727 335.781C212.841 335.99 212.997 336.143 213.195 336.242C213.398 336.336 213.706 336.383 214.117 336.383C214.357 336.383 214.607 336.349 214.867 336.281C215.128 336.208 215.315 336.148 215.43 336.102H215.508V337.422Z" fill="#333333"/>
<path d="M30 377L37.5 384.5L50 369.5" stroke="#61B857" stroke-width="2" stroke-linecap="round" stroke-linejoin="round"/>
<path d="M73.3359 374.422C73.3359 375 73.2266 375.51 73.0078 375.953C72.7891 376.396 72.4948 376.76 72.125 377.047C71.6875 377.391 71.2057 377.635 70.6797 377.781C70.1589 377.927 69.4948 378 68.6875 378H64.5625V366.367H68.0078C68.8568 366.367 69.4922 366.398 69.9141 366.461C70.3359 366.523 70.7396 366.654 71.125 366.852C71.5521 367.076 71.862 367.365 72.0547 367.719C72.2474 368.068 72.3438 368.487 72.3438 368.977C72.3438 369.529 72.2031 370 71.9219 370.391C71.6406 370.776 71.2656 371.086 70.7969 371.32V371.383C71.5833 371.544 72.2031 371.891 72.6562 372.422C73.1094 372.948 73.3359 373.615 73.3359 374.422ZM70.7344 369.18C70.7344 368.898 70.6875 368.661 70.5938 368.469C70.5 368.276 70.349 368.12 70.1406 368C69.8958 367.859 69.599 367.773 69.25 367.742C68.901 367.706 68.4688 367.688 67.9531 367.688H66.1094V371.047H68.1094C68.5938 371.047 68.9792 371.023 69.2656 370.977C69.5521 370.924 69.8177 370.82 70.0625 370.664C70.3073 370.508 70.4792 370.307 70.5781 370.062C70.6823 369.812 70.7344 369.518 70.7344 369.18ZM71.7266 374.484C71.7266 374.016 71.6562 373.643 71.5156 373.367C71.375 373.091 71.1198 372.857 70.75 372.664C70.5 372.534 70.1953 372.451 69.8359 372.414C69.4818 372.372 69.0495 372.352 68.5391 372.352H66.1094V376.68H68.1562C68.8333 376.68 69.388 376.646 69.8203 376.578C70.2526 376.505 70.6068 376.375 70.8828 376.188C71.1745 375.984 71.388 375.753 71.5234 375.492C71.6589 375.232 71.7266 374.896 71.7266 374.484ZM76.9922 367.812H75.3359V366.289H76.9922V367.812ZM76.8984 378H75.4297V369.273H76.8984V378ZM86.1328 378H79.0859V376.914L84.1719 370.5H79.1953V369.273H86V370.32L80.8906 376.758H86.1328V378ZM95.5078 378H94.0391V373.031C94.0391 372.63 94.0156 372.255 93.9688 371.906C93.9219 371.552 93.8359 371.276 93.7109 371.078C93.5807 370.859 93.3932 370.698 93.1484 370.594C92.9036 370.484 92.5859 370.43 92.1953 370.43C91.7943 370.43 91.375 370.529 90.9375 370.727C90.5 370.924 90.0807 371.177 89.6797 371.484V378H88.2109V369.273H89.6797V370.242C90.138 369.862 90.612 369.565 91.1016 369.352C91.5911 369.138 92.0938 369.031 92.6094 369.031C93.5521 369.031 94.2708 369.315 94.7656 369.883C95.2604 370.451 95.5078 371.268 95.5078 372.336V378ZM105.641 373.789H99.2109C99.2109 374.326 99.2917 374.794 99.4531 375.195C99.6146 375.591 99.8359 375.917 100.117 376.172C100.388 376.422 100.708 376.609 101.078 376.734C101.453 376.859 101.865 376.922 102.312 376.922C102.906 376.922 103.503 376.805 104.102 376.57C104.706 376.331 105.135 376.096 105.391 375.867H105.469V377.469C104.974 377.677 104.469 377.852 103.953 377.992C103.438 378.133 102.896 378.203 102.328 378.203C100.88 378.203 99.75 377.812 98.9375 377.031C98.125 376.245 97.7188 375.13 97.7188 373.688C97.7188 372.26 98.1068 371.128 98.8828 370.289C99.6641 369.451 100.69 369.031 101.961 369.031C103.138 369.031 104.044 369.375 104.68 370.062C105.32 370.75 105.641 371.727 105.641 372.992V373.789ZM104.211 372.664C104.206 371.893 104.01 371.297 103.625 370.875C103.245 370.453 102.664 370.242 101.883 370.242C101.096 370.242 100.469 370.474 100 370.938C99.5365 371.401 99.2734 371.977 99.2109 372.664H104.211ZM114.102 375.484C114.102 376.281 113.771 376.935 113.109 377.445C112.453 377.956 111.555 378.211 110.414 378.211C109.768 378.211 109.174 378.135 108.633 377.984C108.096 377.828 107.646 377.659 107.281 377.477V375.828H107.359C107.823 376.177 108.339 376.456 108.906 376.664C109.474 376.867 110.018 376.969 110.539 376.969C111.185 376.969 111.69 376.865 112.055 376.656C112.419 376.448 112.602 376.12 112.602 375.672C112.602 375.328 112.503 375.068 112.305 374.891C112.107 374.714 111.727 374.562 111.164 374.438C110.956 374.391 110.682 374.336 110.344 374.273C110.01 374.211 109.706 374.143 109.43 374.07C108.664 373.867 108.12 373.57 107.797 373.18C107.479 372.784 107.32 372.299 107.32 371.727C107.32 371.367 107.393 371.029 107.539 370.711C107.69 370.393 107.917 370.109 108.219 369.859C108.51 369.615 108.88 369.422 109.328 369.281C109.781 369.135 110.286 369.062 110.844 369.062C111.365 369.062 111.891 369.128 112.422 369.258C112.958 369.383 113.404 369.536 113.758 369.719V371.289H113.68C113.305 371.013 112.849 370.781 112.312 370.594C111.776 370.401 111.25 370.305 110.734 370.305C110.198 370.305 109.745 370.409 109.375 370.617C109.005 370.82 108.82 371.125 108.82 371.531C108.82 371.891 108.932 372.161 109.156 372.344C109.375 372.526 109.729 372.674 110.219 372.789C110.49 372.852 110.792 372.914 111.125 372.977C111.464 373.039 111.745 373.096 111.969 373.148C112.651 373.305 113.177 373.573 113.547 373.953C113.917 374.339 114.102 374.849 114.102 375.484ZM126.367 377.922C126.091 377.995 125.789 378.055 125.461 378.102C125.138 378.148 124.849 378.172 124.594 378.172C123.703 378.172 123.026 377.932 122.562 377.453C122.099 376.974 121.867 376.206 121.867 375.148V370.508H120.875V369.273H121.867V366.766H123.336V369.273H126.367V370.508H123.336V374.484C123.336 374.943 123.346 375.302 123.367 375.562C123.388 375.818 123.461 376.057 123.586 376.281C123.701 376.49 123.857 376.643 124.055 376.742C124.258 376.836 124.565 376.883 124.977 376.883C125.216 376.883 125.466 376.849 125.727 376.781C125.987 376.708 126.174 376.648 126.289 376.602H126.367V377.922ZM133.594 370.875H133.516C133.297 370.823 133.083 370.786 132.875 370.766C132.672 370.74 132.43 370.727 132.148 370.727C131.695 370.727 131.258 370.828 130.836 371.031C130.414 371.229 130.008 371.487 129.617 371.805V378H128.148V369.273H129.617V370.562C130.201 370.094 130.714 369.763 131.156 369.57C131.604 369.372 132.06 369.273 132.523 369.273C132.779 369.273 132.964 369.281 133.078 369.297C133.193 369.307 133.365 369.331 133.594 369.367V370.875ZM142.281 373.789H135.852C135.852 374.326 135.932 374.794 136.094 375.195C136.255 375.591 136.477 375.917 136.758 376.172C137.029 376.422 137.349 376.609 137.719 376.734C138.094 376.859 138.505 376.922 138.953 376.922C139.547 376.922 140.143 376.805 140.742 376.57C141.346 376.331 141.776 376.096 142.031 375.867H142.109V377.469C141.615 377.677 141.109 377.852 140.594 377.992C140.078 378.133 139.536 378.203 138.969 378.203C137.521 378.203 136.391 377.812 135.578 377.031C134.766 376.245 134.359 375.13 134.359 373.688C134.359 372.26 134.747 371.128 135.523 370.289C136.305 369.451 137.331 369.031 138.602 369.031C139.779 369.031 140.685 369.375 141.32 370.062C141.961 370.75 142.281 371.727 142.281 372.992V373.789ZM140.852 372.664C140.846 371.893 140.651 371.297 140.266 370.875C139.885 370.453 139.305 370.242 138.523 370.242C137.737 370.242 137.109 370.474 136.641 370.938C136.177 371.401 135.914 371.977 135.852 372.664H140.852ZM151.805 378H150.336V373.031C150.336 372.63 150.312 372.255 150.266 371.906C150.219 371.552 150.133 371.276 150.008 371.078C149.878 370.859 149.69 370.698 149.445 370.594C149.201 370.484 148.883 370.43 148.492 370.43C148.091 370.43 147.672 370.529 147.234 370.727C146.797 370.924 146.378 371.177 145.977 371.484V378H144.508V369.273H145.977V370.242C146.435 369.862 146.909 369.565 147.398 369.352C147.888 369.138 148.391 369.031 148.906 369.031C149.849 369.031 150.568 369.315 151.062 369.883C151.557 370.451 151.805 371.268 151.805 372.336V378ZM156.211 367.812H154.555V366.289H156.211V367.812ZM156.117 378H154.648V369.273H156.117V378ZM166.32 378H164.852V373.031C164.852 372.63 164.828 372.255 164.781 371.906C164.734 371.552 164.648 371.276 164.523 371.078C164.393 370.859 164.206 370.698 163.961 370.594C163.716 370.484 163.398 370.43 163.008 370.43C162.607 370.43 162.188 370.529 161.75 370.727C161.312 370.924 160.893 371.177 160.492 371.484V378H159.023V369.273H160.492V370.242C160.951 369.862 161.424 369.565 161.914 369.352C162.404 369.138 162.906 369.031 163.422 369.031C164.365 369.031 165.083 369.315 165.578 369.883C166.073 370.451 166.32 371.268 166.32 372.336V378ZM176.227 377.008C176.227 378.487 175.891 379.573 175.219 380.266C174.547 380.958 173.513 381.305 172.117 381.305C171.654 381.305 171.201 381.271 170.758 381.203C170.32 381.141 169.888 381.049 169.461 380.93V379.43H169.539C169.779 379.523 170.159 379.638 170.68 379.773C171.201 379.914 171.721 379.984 172.242 379.984C172.742 379.984 173.156 379.924 173.484 379.805C173.812 379.685 174.068 379.518 174.25 379.305C174.432 379.102 174.562 378.857 174.641 378.57C174.719 378.284 174.758 377.964 174.758 377.609V376.812C174.315 377.167 173.891 377.432 173.484 377.609C173.083 377.781 172.57 377.867 171.945 377.867C170.904 377.867 170.076 377.492 169.461 376.742C168.852 375.987 168.547 374.924 168.547 373.555C168.547 372.805 168.651 372.159 168.859 371.617C169.073 371.07 169.362 370.599 169.727 370.203C170.065 369.833 170.477 369.547 170.961 369.344C171.445 369.135 171.927 369.031 172.406 369.031C172.911 369.031 173.333 369.083 173.672 369.188C174.016 369.286 174.378 369.44 174.758 369.648L174.852 369.273H176.227V377.008ZM174.758 375.602V370.844C174.367 370.667 174.003 370.542 173.664 370.469C173.331 370.391 172.997 370.352 172.664 370.352C171.857 370.352 171.221 370.622 170.758 371.164C170.294 371.706 170.062 372.492 170.062 373.523C170.062 374.503 170.234 375.245 170.578 375.75C170.922 376.255 171.492 376.508 172.289 376.508C172.716 376.508 173.143 376.427 173.57 376.266C174.003 376.099 174.398 375.878 174.758 375.602ZM180.602 378H179.133V365.844H180.602V378ZM190.289 378H188.828V377.07C188.698 377.159 188.521 377.284 188.297 377.445C188.078 377.602 187.865 377.727 187.656 377.82C187.411 377.94 187.13 378.039 186.812 378.117C186.495 378.201 186.122 378.242 185.695 378.242C184.909 378.242 184.242 377.982 183.695 377.461C183.148 376.94 182.875 376.276 182.875 375.469C182.875 374.807 183.016 374.273 183.297 373.867C183.583 373.456 183.99 373.133 184.516 372.898C185.047 372.664 185.685 372.505 186.43 372.422C187.174 372.339 187.974 372.276 188.828 372.234V372.008C188.828 371.674 188.768 371.398 188.648 371.18C188.534 370.961 188.367 370.789 188.148 370.664C187.94 370.544 187.69 370.464 187.398 370.422C187.107 370.38 186.802 370.359 186.484 370.359C186.099 370.359 185.669 370.411 185.195 370.516C184.721 370.615 184.232 370.76 183.727 370.953H183.648V369.461C183.935 369.383 184.349 369.297 184.891 369.203C185.432 369.109 185.966 369.062 186.492 369.062C187.107 369.062 187.641 369.115 188.094 369.219C188.552 369.318 188.948 369.49 189.281 369.734C189.609 369.974 189.859 370.284 190.031 370.664C190.203 371.044 190.289 371.516 190.289 372.078V378ZM188.828 375.852V373.422C188.38 373.448 187.852 373.487 187.242 373.539C186.638 373.591 186.159 373.667 185.805 373.766C185.383 373.885 185.042 374.073 184.781 374.328C184.521 374.578 184.391 374.924 184.391 375.367C184.391 375.867 184.542 376.245 184.844 376.5C185.146 376.75 185.607 376.875 186.227 376.875C186.742 376.875 187.214 376.776 187.641 376.578C188.068 376.375 188.464 376.133 188.828 375.852ZM198.562 370.875H198.484C198.266 370.823 198.052 370.786 197.844 370.766C197.641 370.74 197.398 370.727 197.117 370.727C196.664 370.727 196.227 370.828 195.805 371.031C195.383 371.229 194.977 371.487 194.586 371.805V378H193.117V369.273H194.586V370.562C195.169 370.094 195.682 369.763 196.125 369.57C196.573 369.372 197.029 369.273 197.492 369.273C197.747 369.273 197.932 369.281 198.047 369.297C198.161 369.307 198.333 369.331 198.562 369.367V370.875ZM200.727 375.773L198.523 380.891H197.383L198.742 375.773H200.727ZM74.9219 397H73.375V386.977L70.1406 393.797H69.2188L66.0078 386.977V397H64.5625V385.367H66.6719L69.7734 391.844L72.7734 385.367H74.9219V397ZM84.7109 397H83.25V396.07C83.1198 396.159 82.9427 396.284 82.7188 396.445C82.5 396.602 82.2865 396.727 82.0781 396.82C81.8333 396.94 81.5521 397.039 81.2344 397.117C80.9167 397.201 80.5443 397.242 80.1172 397.242C79.3307 397.242 78.6641 396.982 78.1172 396.461C77.5703 395.94 77.2969 395.276 77.2969 394.469C77.2969 393.807 77.4375 393.273 77.7188 392.867C78.0052 392.456 78.4115 392.133 78.9375 391.898C79.4688 391.664 80.1068 391.505 80.8516 391.422C81.5964 391.339 82.3958 391.276 83.25 391.234V391.008C83.25 390.674 83.1901 390.398 83.0703 390.18C82.9557 389.961 82.7891 389.789 82.5703 389.664C82.362 389.544 82.112 389.464 81.8203 389.422C81.5286 389.38 81.224 389.359 80.9062 389.359C80.5208 389.359 80.0911 389.411 79.6172 389.516C79.1432 389.615 78.6536 389.76 78.1484 389.953H78.0703V388.461C78.3568 388.383 78.7708 388.297 79.3125 388.203C79.8542 388.109 80.388 388.062 80.9141 388.062C81.5286 388.062 82.0625 388.115 82.5156 388.219C82.974 388.318 83.3698 388.49 83.7031 388.734C84.0312 388.974 84.2812 389.284 84.4531 389.664C84.625 390.044 84.7109 390.516 84.7109 391.078V397ZM83.25 394.852V392.422C82.8021 392.448 82.2734 392.487 81.6641 392.539C81.0599 392.591 80.5807 392.667 80.2266 392.766C79.8047 392.885 79.4635 393.073 79.2031 393.328C78.9427 393.578 78.8125 393.924 78.8125 394.367C78.8125 394.867 78.9635 395.245 79.2656 395.5C79.5677 395.75 80.0286 395.875 80.6484 395.875C81.1641 395.875 81.6354 395.776 82.0625 395.578C82.4896 395.375 82.8854 395.133 83.25 394.852ZM93.7734 394.484C93.7734 395.281 93.4427 395.935 92.7812 396.445C92.125 396.956 91.2266 397.211 90.0859 397.211C89.4401 397.211 88.8464 397.135 88.3047 396.984C87.7682 396.828 87.3177 396.659 86.9531 396.477V394.828H87.0312C87.4948 395.177 88.0104 395.456 88.5781 395.664C89.1458 395.867 89.6901 395.969 90.2109 395.969C90.8568 395.969 91.362 395.865 91.7266 395.656C92.0911 395.448 92.2734 395.12 92.2734 394.672C92.2734 394.328 92.1745 394.068 91.9766 393.891C91.7786 393.714 91.3984 393.562 90.8359 393.438C90.6276 393.391 90.3542 393.336 90.0156 393.273C89.6823 393.211 89.3776 393.143 89.1016 393.07C88.3359 392.867 87.7917 392.57 87.4688 392.18C87.151 391.784 86.9922 391.299 86.9922 390.727C86.9922 390.367 87.0651 390.029 87.2109 389.711C87.362 389.393 87.5885 389.109 87.8906 388.859C88.1823 388.615 88.5521 388.422 89 388.281C89.4531 388.135 89.9583 388.062 90.5156 388.062C91.0365 388.062 91.5625 388.128 92.0938 388.258C92.6302 388.383 93.0755 388.536 93.4297 388.719V390.289H93.3516C92.9766 390.013 92.5208 389.781 91.9844 389.594C91.4479 389.401 90.9219 389.305 90.4062 389.305C89.8698 389.305 89.4167 389.409 89.0469 389.617C88.6771 389.82 88.4922 390.125 88.4922 390.531C88.4922 390.891 88.6042 391.161 88.8281 391.344C89.0469 391.526 89.401 391.674 89.8906 391.789C90.1615 391.852 90.4635 391.914 90.7969 391.977C91.1354 392.039 91.4167 392.096 91.6406 392.148C92.3229 392.305 92.849 392.573 93.2188 392.953C93.5885 393.339 93.7734 393.849 93.7734 394.484ZM100.414 396.922C100.138 396.995 99.8359 397.055 99.5078 397.102C99.1849 397.148 98.8958 397.172 98.6406 397.172C97.75 397.172 97.0729 396.932 96.6094 396.453C96.1458 395.974 95.9141 395.206 95.9141 394.148V389.508H94.9219V388.273H95.9141V385.766H97.3828V388.273H100.414V389.508H97.3828V393.484C97.3828 393.943 97.3932 394.302 97.4141 394.562C97.4349 394.818 97.5078 395.057 97.6328 395.281C97.7474 395.49 97.9036 395.643 98.1016 395.742C98.3047 395.836 98.612 395.883 99.0234 395.883C99.263 395.883 99.513 395.849 99.7734 395.781C100.034 395.708 100.221 395.648 100.336 395.602H100.414V396.922ZM109.5 392.789H103.07C103.07 393.326 103.151 393.794 103.312 394.195C103.474 394.591 103.695 394.917 103.977 395.172C104.247 395.422 104.568 395.609 104.938 395.734C105.312 395.859 105.724 395.922 106.172 395.922C106.766 395.922 107.362 395.805 107.961 395.57C108.565 395.331 108.995 395.096 109.25 394.867H109.328V396.469C108.833 396.677 108.328 396.852 107.812 396.992C107.297 397.133 106.755 397.203 106.188 397.203C104.74 397.203 103.609 396.812 102.797 396.031C101.984 395.245 101.578 394.13 101.578 392.688C101.578 391.26 101.966 390.128 102.742 389.289C103.523 388.451 104.549 388.031 105.82 388.031C106.997 388.031 107.904 388.375 108.539 389.062C109.18 389.75 109.5 390.727 109.5 391.992V392.789ZM108.07 391.664C108.065 390.893 107.87 390.297 107.484 389.875C107.104 389.453 106.523 389.242 105.742 389.242C104.956 389.242 104.328 389.474 103.859 389.938C103.396 390.401 103.133 390.977 103.07 391.664H108.07ZM117.172 389.875H117.094C116.875 389.823 116.661 389.786 116.453 389.766C116.25 389.74 116.008 389.727 115.727 389.727C115.273 389.727 114.836 389.828 114.414 390.031C113.992 390.229 113.586 390.487 113.195 390.805V397H111.727V388.273H113.195V389.562C113.779 389.094 114.292 388.763 114.734 388.57C115.182 388.372 115.638 388.273 116.102 388.273C116.357 388.273 116.542 388.281 116.656 388.297C116.771 388.307 116.943 388.331 117.172 388.367V389.875ZM123.023 392.617H118.148V391.203H123.023V392.617ZM133.586 397H131.648L128.148 393.18L127.195 394.086V397H125.727V384.844H127.195V392.641L131.438 388.273H133.289L129.234 392.305L133.586 397ZM136.617 397H135.148V384.844H136.617V397ZM146.305 397H144.844V396.07C144.714 396.159 144.536 396.284 144.312 396.445C144.094 396.602 143.88 396.727 143.672 396.82C143.427 396.94 143.146 397.039 142.828 397.117C142.51 397.201 142.138 397.242 141.711 397.242C140.924 397.242 140.258 396.982 139.711 396.461C139.164 395.94 138.891 395.276 138.891 394.469C138.891 393.807 139.031 393.273 139.312 392.867C139.599 392.456 140.005 392.133 140.531 391.898C141.062 391.664 141.701 391.505 142.445 391.422C143.19 391.339 143.99 391.276 144.844 391.234V391.008C144.844 390.674 144.784 390.398 144.664 390.18C144.549 389.961 144.383 389.789 144.164 389.664C143.956 389.544 143.706 389.464 143.414 389.422C143.122 389.38 142.818 389.359 142.5 389.359C142.115 389.359 141.685 389.411 141.211 389.516C140.737 389.615 140.247 389.76 139.742 389.953H139.664V388.461C139.951 388.383 140.365 388.297 140.906 388.203C141.448 388.109 141.982 388.062 142.508 388.062C143.122 388.062 143.656 388.115 144.109 388.219C144.568 388.318 144.964 388.49 145.297 388.734C145.625 388.974 145.875 389.284 146.047 389.664C146.219 390.044 146.305 390.516 146.305 391.078V397ZM144.844 394.852V392.422C144.396 392.448 143.867 392.487 143.258 392.539C142.654 392.591 142.174 392.667 141.82 392.766C141.398 392.885 141.057 393.073 140.797 393.328C140.536 393.578 140.406 393.924 140.406 394.367C140.406 394.867 140.557 395.245 140.859 395.5C141.161 395.75 141.622 395.875 142.242 395.875C142.758 395.875 143.229 395.776 143.656 395.578C144.083 395.375 144.479 395.133 144.844 394.852ZM155.367 394.484C155.367 395.281 155.036 395.935 154.375 396.445C153.719 396.956 152.82 397.211 151.68 397.211C151.034 397.211 150.44 397.135 149.898 396.984C149.362 396.828 148.911 396.659 148.547 396.477V394.828H148.625C149.089 395.177 149.604 395.456 150.172 395.664C150.74 395.867 151.284 395.969 151.805 395.969C152.451 395.969 152.956 395.865 153.32 395.656C153.685 395.448 153.867 395.12 153.867 394.672C153.867 394.328 153.768 394.068 153.57 393.891C153.372 393.714 152.992 393.562 152.43 393.438C152.221 393.391 151.948 393.336 151.609 393.273C151.276 393.211 150.971 393.143 150.695 393.07C149.93 392.867 149.385 392.57 149.062 392.18C148.745 391.784 148.586 391.299 148.586 390.727C148.586 390.367 148.659 390.029 148.805 389.711C148.956 389.393 149.182 389.109 149.484 388.859C149.776 388.615 150.146 388.422 150.594 388.281C151.047 388.135 151.552 388.062 152.109 388.062C152.63 388.062 153.156 388.128 153.688 388.258C154.224 388.383 154.669 388.536 155.023 388.719V390.289H154.945C154.57 390.013 154.115 389.781 153.578 389.594C153.042 389.401 152.516 389.305 152 389.305C151.464 389.305 151.01 389.409 150.641 389.617C150.271 389.82 150.086 390.125 150.086 390.531C150.086 390.891 150.198 391.161 150.422 391.344C150.641 391.526 150.995 391.674 151.484 391.789C151.755 391.852 152.057 391.914 152.391 391.977C152.729 392.039 153.01 392.096 153.234 392.148C153.917 392.305 154.443 392.573 154.812 392.953C155.182 393.339 155.367 393.849 155.367 394.484ZM163.711 394.484C163.711 395.281 163.38 395.935 162.719 396.445C162.062 396.956 161.164 397.211 160.023 397.211C159.378 397.211 158.784 397.135 158.242 396.984C157.706 396.828 157.255 396.659 156.891 396.477V394.828H156.969C157.432 395.177 157.948 395.456 158.516 395.664C159.083 395.867 159.628 395.969 160.148 395.969C160.794 395.969 161.299 395.865 161.664 395.656C162.029 395.448 162.211 395.12 162.211 394.672C162.211 394.328 162.112 394.068 161.914 393.891C161.716 393.714 161.336 393.562 160.773 393.438C160.565 393.391 160.292 393.336 159.953 393.273C159.62 393.211 159.315 393.143 159.039 393.07C158.273 392.867 157.729 392.57 157.406 392.18C157.089 391.784 156.93 391.299 156.93 390.727C156.93 390.367 157.003 390.029 157.148 389.711C157.299 389.393 157.526 389.109 157.828 388.859C158.12 388.615 158.49 388.422 158.938 388.281C159.391 388.135 159.896 388.062 160.453 388.062C160.974 388.062 161.5 388.128 162.031 388.258C162.568 388.383 163.013 388.536 163.367 388.719V390.289H163.289C162.914 390.013 162.458 389.781 161.922 389.594C161.385 389.401 160.859 389.305 160.344 389.305C159.807 389.305 159.354 389.409 158.984 389.617C158.615 389.82 158.43 390.125 158.43 390.531C158.43 390.891 158.542 391.161 158.766 391.344C158.984 391.526 159.339 391.674 159.828 391.789C160.099 391.852 160.401 391.914 160.734 391.977C161.073 392.039 161.354 392.096 161.578 392.148C162.26 392.305 162.786 392.573 163.156 392.953C163.526 393.339 163.711 393.849 163.711 394.484ZM167.305 397H165.836V384.844H167.305V397ZM176.992 397H175.531V396.07C175.401 396.159 175.224 396.284 175 396.445C174.781 396.602 174.568 396.727 174.359 396.82C174.115 396.94 173.833 397.039 173.516 397.117C173.198 397.201 172.826 397.242 172.398 397.242C171.612 397.242 170.945 396.982 170.398 396.461C169.852 395.94 169.578 395.276 169.578 394.469C169.578 393.807 169.719 393.273 170 392.867C170.286 392.456 170.693 392.133 171.219 391.898C171.75 391.664 172.388 391.505 173.133 391.422C173.878 391.339 174.677 391.276 175.531 391.234V391.008C175.531 390.674 175.471 390.398 175.352 390.18C175.237 389.961 175.07 389.789 174.852 389.664C174.643 389.544 174.393 389.464 174.102 389.422C173.81 389.38 173.505 389.359 173.188 389.359C172.802 389.359 172.372 389.411 171.898 389.516C171.424 389.615 170.935 389.76 170.43 389.953H170.352V388.461C170.638 388.383 171.052 388.297 171.594 388.203C172.135 388.109 172.669 388.062 173.195 388.062C173.81 388.062 174.344 388.115 174.797 388.219C175.255 388.318 175.651 388.49 175.984 388.734C176.312 388.974 176.562 389.284 176.734 389.664C176.906 390.044 176.992 390.516 176.992 391.078V397ZM175.531 394.852V392.422C175.083 392.448 174.555 392.487 173.945 392.539C173.341 392.591 172.862 392.667 172.508 392.766C172.086 392.885 171.745 393.073 171.484 393.328C171.224 393.578 171.094 393.924 171.094 394.367C171.094 394.867 171.245 395.245 171.547 395.5C171.849 395.75 172.31 395.875 172.93 395.875C173.445 395.875 173.917 395.776 174.344 395.578C174.771 395.375 175.167 395.133 175.531 394.852ZM185.266 389.875H185.188C184.969 389.823 184.755 389.786 184.547 389.766C184.344 389.74 184.102 389.727 183.82 389.727C183.367 389.727 182.93 389.828 182.508 390.031C182.086 390.229 181.68 390.487 181.289 390.805V397H179.82V388.273H181.289V389.562C181.872 389.094 182.385 388.763 182.828 388.57C183.276 388.372 183.732 388.273 184.195 388.273C184.451 388.273 184.635 388.281 184.75 388.297C184.865 388.307 185.036 388.331 185.266 388.367V389.875ZM187.43 394.773L185.227 399.891H184.086L185.445 394.773H187.43ZM73.0156 412.68C73.0156 413.133 72.9089 413.581 72.6953 414.023C72.487 414.466 72.1927 414.841 71.8125 415.148C71.3958 415.482 70.9089 415.742 70.3516 415.93C69.7995 416.117 69.1328 416.211 68.3516 416.211C67.513 416.211 66.7578 416.133 66.0859 415.977C65.4193 415.82 64.7396 415.589 64.0469 415.281V413.344H64.1562C64.7448 413.833 65.4245 414.211 66.1953 414.477C66.9661 414.742 67.6901 414.875 68.3672 414.875C69.3255 414.875 70.0703 414.695 70.6016 414.336C71.138 413.977 71.4062 413.497 71.4062 412.898C71.4062 412.383 71.2786 412.003 71.0234 411.758C70.7734 411.513 70.3906 411.323 69.875 411.188C69.4844 411.083 69.0599 410.997 68.6016 410.93C68.1484 410.862 67.6667 410.776 67.1562 410.672C66.125 410.453 65.3594 410.081 64.8594 409.555C64.3646 409.023 64.1172 408.333 64.1172 407.484C64.1172 406.51 64.5286 405.714 65.3516 405.094C66.1745 404.469 67.2188 404.156 68.4844 404.156C69.3021 404.156 70.0521 404.234 70.7344 404.391C71.4167 404.547 72.0208 404.74 72.5469 404.969V406.797H72.4375C71.9948 406.422 71.4115 406.112 70.6875 405.867C69.9688 405.617 69.2318 405.492 68.4766 405.492C67.6484 405.492 66.9818 405.664 66.4766 406.008C65.9766 406.352 65.7266 406.794 65.7266 407.336C65.7266 407.82 65.8516 408.201 66.1016 408.477C66.3516 408.753 66.7917 408.964 67.4219 409.109C67.7552 409.182 68.2292 409.271 68.8438 409.375C69.4583 409.479 69.9792 409.586 70.4062 409.695C71.2708 409.924 71.9219 410.271 72.3594 410.734C72.7969 411.198 73.0156 411.846 73.0156 412.68ZM82.6875 411.789H76.2578C76.2578 412.326 76.3385 412.794 76.5 413.195C76.6615 413.591 76.8828 413.917 77.1641 414.172C77.4349 414.422 77.7552 414.609 78.125 414.734C78.5 414.859 78.9115 414.922 79.3594 414.922C79.9531 414.922 80.5495 414.805 81.1484 414.57C81.7526 414.331 82.1823 414.096 82.4375 413.867H82.5156V415.469C82.0208 415.677 81.5156 415.852 81 415.992C80.4844 416.133 79.9427 416.203 79.375 416.203C77.9271 416.203 76.7969 415.812 75.9844 415.031C75.1719 414.245 74.7656 413.13 74.7656 411.688C74.7656 410.26 75.1536 409.128 75.9297 408.289C76.7109 407.451 77.737 407.031 79.0078 407.031C80.1849 407.031 81.0911 407.375 81.7266 408.062C82.3672 408.75 82.6875 409.727 82.6875 410.992V411.789ZM81.2578 410.664C81.2526 409.893 81.0573 409.297 80.6719 408.875C80.2917 408.453 79.7109 408.242 78.9297 408.242C78.1432 408.242 77.5156 408.474 77.0469 408.938C76.5833 409.401 76.3203 409.977 76.2578 410.664H81.2578ZM97.6484 416H96.1797V411.031C96.1797 410.656 96.1615 410.294 96.125 409.945C96.0938 409.596 96.0234 409.318 95.9141 409.109C95.7943 408.885 95.6224 408.716 95.3984 408.602C95.1745 408.487 94.8516 408.43 94.4297 408.43C94.0182 408.43 93.6068 408.534 93.1953 408.742C92.7839 408.945 92.3724 409.206 91.9609 409.523C91.9766 409.643 91.9896 409.784 92 409.945C92.0104 410.102 92.0156 410.258 92.0156 410.414V416H90.5469V411.031C90.5469 410.646 90.5286 410.281 90.4922 409.938C90.4609 409.589 90.3906 409.31 90.2812 409.102C90.1615 408.878 89.9896 408.711 89.7656 408.602C89.5417 408.487 89.2188 408.43 88.7969 408.43C88.3958 408.43 87.9922 408.529 87.5859 408.727C87.1849 408.924 86.7839 409.177 86.3828 409.484V416H84.9141V407.273H86.3828V408.242C86.8411 407.862 87.2969 407.565 87.75 407.352C88.2083 407.138 88.6953 407.031 89.2109 407.031C89.8047 407.031 90.3073 407.156 90.7188 407.406C91.1354 407.656 91.4453 408.003 91.6484 408.445C92.2422 407.945 92.7839 407.586 93.2734 407.367C93.763 407.143 94.2865 407.031 94.8438 407.031C95.8021 407.031 96.5078 407.323 96.9609 407.906C97.4193 408.484 97.6484 409.294 97.6484 410.336V416ZM102.055 405.812H100.398V404.289H102.055V405.812ZM101.961 416H100.492V407.273H101.961V416ZM112.164 416H110.695V411.031C110.695 410.63 110.672 410.255 110.625 409.906C110.578 409.552 110.492 409.276 110.367 409.078C110.237 408.859 110.049 408.698 109.805 408.594C109.56 408.484 109.242 408.43 108.852 408.43C108.451 408.43 108.031 408.529 107.594 408.727C107.156 408.924 106.737 409.177 106.336 409.484V416H104.867V407.273H106.336V408.242C106.794 407.862 107.268 407.565 107.758 407.352C108.247 407.138 108.75 407.031 109.266 407.031C110.208 407.031 110.927 407.315 111.422 407.883C111.917 408.451 112.164 409.268 112.164 410.336V416ZM121.773 416H120.312V415.07C120.182 415.159 120.005 415.284 119.781 415.445C119.562 415.602 119.349 415.727 119.141 415.82C118.896 415.94 118.615 416.039 118.297 416.117C117.979 416.201 117.607 416.242 117.18 416.242C116.393 416.242 115.727 415.982 115.18 415.461C114.633 414.94 114.359 414.276 114.359 413.469C114.359 412.807 114.5 412.273 114.781 411.867C115.068 411.456 115.474 411.133 116 410.898C116.531 410.664 117.169 410.505 117.914 410.422C118.659 410.339 119.458 410.276 120.312 410.234V410.008C120.312 409.674 120.253 409.398 120.133 409.18C120.018 408.961 119.852 408.789 119.633 408.664C119.424 408.544 119.174 408.464 118.883 408.422C118.591 408.38 118.286 408.359 117.969 408.359C117.583 408.359 117.154 408.411 116.68 408.516C116.206 408.615 115.716 408.76 115.211 408.953H115.133V407.461C115.419 407.383 115.833 407.297 116.375 407.203C116.917 407.109 117.451 407.062 117.977 407.062C118.591 407.062 119.125 407.115 119.578 407.219C120.036 407.318 120.432 407.49 120.766 407.734C121.094 407.974 121.344 408.284 121.516 408.664C121.688 409.044 121.773 409.516 121.773 410.078V416ZM120.312 413.852V411.422C119.865 411.448 119.336 411.487 118.727 411.539C118.122 411.591 117.643 411.667 117.289 411.766C116.867 411.885 116.526 412.073 116.266 412.328C116.005 412.578 115.875 412.924 115.875 413.367C115.875 413.867 116.026 414.245 116.328 414.5C116.63 414.75 117.091 414.875 117.711 414.875C118.227 414.875 118.698 414.776 119.125 414.578C119.552 414.375 119.948 414.133 120.312 413.852ZM130.047 408.875H129.969C129.75 408.823 129.536 408.786 129.328 408.766C129.125 408.74 128.883 408.727 128.602 408.727C128.148 408.727 127.711 408.828 127.289 409.031C126.867 409.229 126.461 409.487 126.07 409.805V416H124.602V407.273H126.07V408.562C126.654 408.094 127.167 407.763 127.609 407.57C128.057 407.372 128.513 407.273 128.977 407.273C129.232 407.273 129.417 407.281 129.531 407.297C129.646 407.307 129.818 407.331 130.047 407.367V408.875ZM132.914 416H131.445V403.844H132.914V416ZM142.602 416H141.141V415.07C141.01 415.159 140.833 415.284 140.609 415.445C140.391 415.602 140.177 415.727 139.969 415.82C139.724 415.94 139.443 416.039 139.125 416.117C138.807 416.201 138.435 416.242 138.008 416.242C137.221 416.242 136.555 415.982 136.008 415.461C135.461 414.94 135.188 414.276 135.188 413.469C135.188 412.807 135.328 412.273 135.609 411.867C135.896 411.456 136.302 411.133 136.828 410.898C137.359 410.664 137.997 410.505 138.742 410.422C139.487 410.339 140.286 410.276 141.141 410.234V410.008C141.141 409.674 141.081 409.398 140.961 409.18C140.846 408.961 140.68 408.789 140.461 408.664C140.253 408.544 140.003 408.464 139.711 408.422C139.419 408.38 139.115 408.359 138.797 408.359C138.411 408.359 137.982 408.411 137.508 408.516C137.034 408.615 136.544 408.76 136.039 408.953H135.961V407.461C136.247 407.383 136.661 407.297 137.203 407.203C137.745 407.109 138.279 407.062 138.805 407.062C139.419 407.062 139.953 407.115 140.406 407.219C140.865 407.318 141.26 407.49 141.594 407.734C141.922 407.974 142.172 408.284 142.344 408.664C142.516 409.044 142.602 409.516 142.602 410.078V416ZM141.141 413.852V411.422C140.693 411.448 140.164 411.487 139.555 411.539C138.951 411.591 138.471 411.667 138.117 411.766C137.695 411.885 137.354 412.073 137.094 412.328C136.833 412.578 136.703 412.924 136.703 413.367C136.703 413.867 136.854 414.245 137.156 414.5C137.458 414.75 137.919 414.875 138.539 414.875C139.055 414.875 139.526 414.776 139.953 414.578C140.38 414.375 140.776 414.133 141.141 413.852ZM150.875 408.875H150.797C150.578 408.823 150.365 408.786 150.156 408.766C149.953 408.74 149.711 408.727 149.43 408.727C148.977 408.727 148.539 408.828 148.117 409.031C147.695 409.229 147.289 409.487 146.898 409.805V416H145.43V407.273H146.898V408.562C147.482 408.094 147.995 407.763 148.438 407.57C148.885 407.372 149.341 407.273 149.805 407.273C150.06 407.273 150.245 407.281 150.359 407.297C150.474 407.307 150.646 407.331 150.875 407.367V408.875Z" fill="#333333"/>
<path d="M30 450L37.5 457.5L50 442.5" stroke="#61B857" stroke-width="2" stroke-linecap="round" stroke-linejoin="round"/>
<path d="M78.9609 452.922C78.9609 453.5 78.8516 454.01 78.6328 454.453C78.4141 454.896 78.1198 455.26 77.75 455.547C77.3125 455.891 76.8307 456.135 76.3047 456.281C75.7839 456.427 75.1198 456.5 74.3125 456.5H70.1875V444.867H73.6328C74.4818 444.867 75.1172 444.898 75.5391 444.961C75.9609 445.023 76.3646 445.154 76.75 445.352C77.1771 445.576 77.487 445.865 77.6797 446.219C77.8724 446.568 77.9688 446.987 77.9688 447.477C77.9688 448.029 77.8281 448.5 77.5469 448.891C77.2656 449.276 76.8906 449.586 76.4219 449.82V449.883C77.2083 450.044 77.8281 450.391 78.2812 450.922C78.7344 451.448 78.9609 452.115 78.9609 452.922ZM76.3594 447.68C76.3594 447.398 76.3125 447.161 76.2188 446.969C76.125 446.776 75.974 446.62 75.7656 446.5C75.5208 446.359 75.224 446.273 74.875 446.242C74.526 446.206 74.0938 446.188 73.5781 446.188H71.7344V449.547H73.7344C74.2188 449.547 74.6042 449.523 74.8906 449.477C75.1771 449.424 75.4427 449.32 75.6875 449.164C75.9323 449.008 76.1042 448.807 76.2031 448.562C76.3073 448.312 76.3594 448.018 76.3594 447.68ZM77.3516 452.984C77.3516 452.516 77.2812 452.143 77.1406 451.867C77 451.591 76.7448 451.357 76.375 451.164C76.125 451.034 75.8203 450.951 75.4609 450.914C75.1068 450.872 74.6745 450.852 74.1641 450.852H71.7344V455.18H73.7812C74.4583 455.18 75.013 455.146 75.4453 455.078C75.8776 455.005 76.2318 454.875 76.5078 454.688C76.7995 454.484 77.013 454.253 77.1484 453.992C77.2839 453.732 77.3516 453.396 77.3516 452.984ZM82.6172 446.312H80.9609V444.789H82.6172V446.312ZM82.5234 456.5H81.0547V447.773H82.5234V456.5ZM91.7578 456.5H84.7109V455.414L89.7969 449H84.8203V447.773H91.625V448.82L86.5156 455.258H91.7578V456.5ZM101.133 456.5H99.6641V451.531C99.6641 451.13 99.6406 450.755 99.5938 450.406C99.5469 450.052 99.4609 449.776 99.3359 449.578C99.2057 449.359 99.0182 449.198 98.7734 449.094C98.5286 448.984 98.2109 448.93 97.8203 448.93C97.4193 448.93 97 449.029 96.5625 449.227C96.125 449.424 95.7057 449.677 95.3047 449.984V456.5H93.8359V447.773H95.3047V448.742C95.763 448.362 96.237 448.065 96.7266 447.852C97.2161 447.638 97.7188 447.531 98.2344 447.531C99.1771 447.531 99.8958 447.815 100.391 448.383C100.885 448.951 101.133 449.768 101.133 450.836V456.5ZM111.266 452.289H104.836C104.836 452.826 104.917 453.294 105.078 453.695C105.24 454.091 105.461 454.417 105.742 454.672C106.013 454.922 106.333 455.109 106.703 455.234C107.078 455.359 107.49 455.422 107.938 455.422C108.531 455.422 109.128 455.305 109.727 455.07C110.331 454.831 110.76 454.596 111.016 454.367H111.094V455.969C110.599 456.177 110.094 456.352 109.578 456.492C109.062 456.633 108.521 456.703 107.953 456.703C106.505 456.703 105.375 456.312 104.562 455.531C103.75 454.745 103.344 453.63 103.344 452.188C103.344 450.76 103.732 449.628 104.508 448.789C105.289 447.951 106.315 447.531 107.586 447.531C108.763 447.531 109.669 447.875 110.305 448.562C110.945 449.25 111.266 450.227 111.266 451.492V452.289ZM109.836 451.164C109.831 450.393 109.635 449.797 109.25 449.375C108.87 448.953 108.289 448.742 107.508 448.742C106.721 448.742 106.094 448.974 105.625 449.438C105.161 449.901 104.898 450.477 104.836 451.164H109.836ZM119.727 453.984C119.727 454.781 119.396 455.435 118.734 455.945C118.078 456.456 117.18 456.711 116.039 456.711C115.393 456.711 114.799 456.635 114.258 456.484C113.721 456.328 113.271 456.159 112.906 455.977V454.328H112.984C113.448 454.677 113.964 454.956 114.531 455.164C115.099 455.367 115.643 455.469 116.164 455.469C116.81 455.469 117.315 455.365 117.68 455.156C118.044 454.948 118.227 454.62 118.227 454.172C118.227 453.828 118.128 453.568 117.93 453.391C117.732 453.214 117.352 453.062 116.789 452.938C116.581 452.891 116.307 452.836 115.969 452.773C115.635 452.711 115.331 452.643 115.055 452.57C114.289 452.367 113.745 452.07 113.422 451.68C113.104 451.284 112.945 450.799 112.945 450.227C112.945 449.867 113.018 449.529 113.164 449.211C113.315 448.893 113.542 448.609 113.844 448.359C114.135 448.115 114.505 447.922 114.953 447.781C115.406 447.635 115.911 447.562 116.469 447.562C116.99 447.562 117.516 447.628 118.047 447.758C118.583 447.883 119.029 448.036 119.383 448.219V449.789H119.305C118.93 449.513 118.474 449.281 117.938 449.094C117.401 448.901 116.875 448.805 116.359 448.805C115.823 448.805 115.37 448.909 115 449.117C114.63 449.32 114.445 449.625 114.445 450.031C114.445 450.391 114.557 450.661 114.781 450.844C115 451.026 115.354 451.174 115.844 451.289C116.115 451.352 116.417 451.414 116.75 451.477C117.089 451.539 117.37 451.596 117.594 451.648C118.276 451.805 118.802 452.073 119.172 452.453C119.542 452.839 119.727 453.349 119.727 453.984ZM128.945 456.5H127.477V444.344H128.945V456.5ZM138.633 456.5H137.172V455.57C137.042 455.659 136.865 455.784 136.641 455.945C136.422 456.102 136.208 456.227 136 456.32C135.755 456.44 135.474 456.539 135.156 456.617C134.839 456.701 134.466 456.742 134.039 456.742C133.253 456.742 132.586 456.482 132.039 455.961C131.492 455.44 131.219 454.776 131.219 453.969C131.219 453.307 131.359 452.773 131.641 452.367C131.927 451.956 132.333 451.633 132.859 451.398C133.391 451.164 134.029 451.005 134.773 450.922C135.518 450.839 136.318 450.776 137.172 450.734V450.508C137.172 450.174 137.112 449.898 136.992 449.68C136.878 449.461 136.711 449.289 136.492 449.164C136.284 449.044 136.034 448.964 135.742 448.922C135.451 448.88 135.146 448.859 134.828 448.859C134.443 448.859 134.013 448.911 133.539 449.016C133.065 449.115 132.576 449.26 132.07 449.453H131.992V447.961C132.279 447.883 132.693 447.797 133.234 447.703C133.776 447.609 134.31 447.562 134.836 447.562C135.451 447.562 135.984 447.615 136.438 447.719C136.896 447.818 137.292 447.99 137.625 448.234C137.953 448.474 138.203 448.784 138.375 449.164C138.547 449.544 138.633 450.016 138.633 450.578V456.5ZM137.172 454.352V451.922C136.724 451.948 136.195 451.987 135.586 452.039C134.982 452.091 134.503 452.167 134.148 452.266C133.727 452.385 133.385 452.573 133.125 452.828C132.865 453.078 132.734 453.424 132.734 453.867C132.734 454.367 132.885 454.745 133.188 455C133.49 455.25 133.951 455.375 134.57 455.375C135.086 455.375 135.557 455.276 135.984 455.078C136.411 454.875 136.807 454.633 137.172 454.352ZM148.539 455.508C148.539 456.987 148.203 458.073 147.531 458.766C146.859 459.458 145.826 459.805 144.43 459.805C143.966 459.805 143.513 459.771 143.07 459.703C142.633 459.641 142.201 459.549 141.773 459.43V457.93H141.852C142.091 458.023 142.471 458.138 142.992 458.273C143.513 458.414 144.034 458.484 144.555 458.484C145.055 458.484 145.469 458.424 145.797 458.305C146.125 458.185 146.38 458.018 146.562 457.805C146.745 457.602 146.875 457.357 146.953 457.07C147.031 456.784 147.07 456.464 147.07 456.109V455.312C146.628 455.667 146.203 455.932 145.797 456.109C145.396 456.281 144.883 456.367 144.258 456.367C143.216 456.367 142.388 455.992 141.773 455.242C141.164 454.487 140.859 453.424 140.859 452.055C140.859 451.305 140.964 450.659 141.172 450.117C141.385 449.57 141.674 449.099 142.039 448.703C142.378 448.333 142.789 448.047 143.273 447.844C143.758 447.635 144.24 447.531 144.719 447.531C145.224 447.531 145.646 447.583 145.984 447.688C146.328 447.786 146.69 447.94 147.07 448.148L147.164 447.773H148.539V455.508ZM147.07 454.102V449.344C146.68 449.167 146.315 449.042 145.977 448.969C145.643 448.891 145.31 448.852 144.977 448.852C144.169 448.852 143.534 449.122 143.07 449.664C142.607 450.206 142.375 450.992 142.375 452.023C142.375 453.003 142.547 453.745 142.891 454.25C143.234 454.755 143.805 455.008 144.602 455.008C145.029 455.008 145.456 454.927 145.883 454.766C146.315 454.599 146.711 454.378 147.07 454.102ZM158.734 452.289H152.305C152.305 452.826 152.385 453.294 152.547 453.695C152.708 454.091 152.93 454.417 153.211 454.672C153.482 454.922 153.802 455.109 154.172 455.234C154.547 455.359 154.958 455.422 155.406 455.422C156 455.422 156.596 455.305 157.195 455.07C157.799 454.831 158.229 454.596 158.484 454.367H158.562V455.969C158.068 456.177 157.562 456.352 157.047 456.492C156.531 456.633 155.99 456.703 155.422 456.703C153.974 456.703 152.844 456.312 152.031 455.531C151.219 454.745 150.812 453.63 150.812 452.188C150.812 450.76 151.201 449.628 151.977 448.789C152.758 447.951 153.784 447.531 155.055 447.531C156.232 447.531 157.138 447.875 157.773 448.562C158.414 449.25 158.734 450.227 158.734 451.492V452.289ZM157.305 451.164C157.299 450.393 157.104 449.797 156.719 449.375C156.339 448.953 155.758 448.742 154.977 448.742C154.19 448.742 153.562 448.974 153.094 449.438C152.63 449.901 152.367 450.477 152.305 451.164H157.305ZM166.406 449.375H166.328C166.109 449.323 165.896 449.286 165.688 449.266C165.484 449.24 165.242 449.227 164.961 449.227C164.508 449.227 164.07 449.328 163.648 449.531C163.227 449.729 162.82 449.987 162.43 450.305V456.5H160.961V447.773H162.43V449.062C163.013 448.594 163.526 448.263 163.969 448.07C164.417 447.872 164.872 447.773 165.336 447.773C165.591 447.773 165.776 447.781 165.891 447.797C166.005 447.807 166.177 447.831 166.406 447.867V449.375ZM169.273 456.5H167.805V444.344H169.273V456.5ZM178.961 456.5H177.5V455.57C177.37 455.659 177.193 455.784 176.969 455.945C176.75 456.102 176.536 456.227 176.328 456.32C176.083 456.44 175.802 456.539 175.484 456.617C175.167 456.701 174.794 456.742 174.367 456.742C173.581 456.742 172.914 456.482 172.367 455.961C171.82 455.44 171.547 454.776 171.547 453.969C171.547 453.307 171.688 452.773 171.969 452.367C172.255 451.956 172.661 451.633 173.188 451.398C173.719 451.164 174.357 451.005 175.102 450.922C175.846 450.839 176.646 450.776 177.5 450.734V450.508C177.5 450.174 177.44 449.898 177.32 449.68C177.206 449.461 177.039 449.289 176.82 449.164C176.612 449.044 176.362 448.964 176.07 448.922C175.779 448.88 175.474 448.859 175.156 448.859C174.771 448.859 174.341 448.911 173.867 449.016C173.393 449.115 172.904 449.26 172.398 449.453H172.32V447.961C172.607 447.883 173.021 447.797 173.562 447.703C174.104 447.609 174.638 447.562 175.164 447.562C175.779 447.562 176.312 447.615 176.766 447.719C177.224 447.818 177.62 447.99 177.953 448.234C178.281 448.474 178.531 448.784 178.703 449.164C178.875 449.544 178.961 450.016 178.961 450.578V456.5ZM177.5 454.352V451.922C177.052 451.948 176.523 451.987 175.914 452.039C175.31 452.091 174.831 452.167 174.477 452.266C174.055 452.385 173.714 452.573 173.453 452.828C173.193 453.078 173.062 453.424 173.062 453.867C173.062 454.367 173.214 454.745 173.516 455C173.818 455.25 174.279 455.375 174.898 455.375C175.414 455.375 175.885 455.276 176.312 455.078C176.74 454.875 177.135 454.633 177.5 454.352ZM187.234 449.375H187.156C186.938 449.323 186.724 449.286 186.516 449.266C186.312 449.24 186.07 449.227 185.789 449.227C185.336 449.227 184.898 449.328 184.477 449.531C184.055 449.729 183.648 449.987 183.258 450.305V456.5H181.789V447.773H183.258V449.062C183.841 448.594 184.354 448.263 184.797 448.07C185.245 447.872 185.701 447.773 186.164 447.773C186.419 447.773 186.604 447.781 186.719 447.797C186.833 447.807 187.005 447.831 187.234 447.867V449.375ZM190.195 446.312H188.539V444.789H190.195V446.312ZM190.102 456.5H188.633V447.773H190.102V456.5Z" fill="#333333"/>
</g>
<defs>
<filter id="filter0_d_1763_11136" x="0" y="0" width="326" height="540" filterUnits="userSpaceOnUse" color-interpolation-filters="sRGB">
<feFlood flood-opacity="0" result="BackgroundImageFix"/>
<feColorMatrix in="SourceAlpha" type="matrix" values="0 0 0 0 0 0 0 0 0 0 0 0 0 0 0 0 0 0 127 0" result="hardAlpha"/>
<feOffset dx="3" dy="5"/>
<feGaussianBlur stdDeviation="10"/>
<feComposite in2="hardAlpha" operator="out"/>
<feColorMatrix type="matrix" values="0 0 0 0 0.2 0 0 0 0 0.2 0 0 0 0 0.2 0 0 0 0.1 0"/>
<feBlend mode="normal" in2="BackgroundImageFix" result="effect1_dropShadow_1763_11136"/>
<feBlend mode="normal" in="SourceGraphic" in2="effect1_dropShadow_1763_11136" result="shape"/>
</filter>
<filter id="filter1_d_1763_11136" x="22" y="28" width="112" height="112" filterUnits="userSpaceOnUse" color-interpolation-filters="sRGB">
<feFlood flood-opacity="0" result="BackgroundImageFix"/>
<feColorMatrix in="SourceAlpha" type="matrix" values="0 0 0 0 0 0 0 0 0 0 0 0 0 0 0 0 0 0 127 0" result="hardAlpha"/>
<feOffset dx="3" dy="3"/>
<feGaussianBlur stdDeviation="3"/>
<feComposite in2="hardAlpha" operator="out"/>
<feColorMatrix type="matrix" values="0 0 0 0 0.2 0 0 0 0 0.2 0 0 0 0 0.2 0 0 0 0.25 0"/>
<feBlend mode="normal" in2="BackgroundImageFix" result="effect1_dropShadow_1763_11136"/>
<feBlend mode="normal" in="SourceGraphic" in2="effect1_dropShadow_1763_11136" result="shape"/>
</filter>
</defs>
</svg>
