<svg width="326" height="540" viewBox="0 0 326 540" fill="none" xmlns="http://www.w3.org/2000/svg">
<g filter="url(#filter0_d_1763_11059)">
<rect x="17" y="15" width="286" height="500" rx="5" fill="white" shape-rendering="crispEdges"/>
<g filter="url(#filter1_d_1763_11059)">
<path d="M58.332 54.9585C56.6237 54.9585 55.207 53.5418 55.207 51.8335V39.3335C55.207 37.6252 56.6237 36.2085 58.332 36.2085C60.0404 36.2085 61.457 37.6252 61.457 39.3335V51.8335C61.457 53.5418 60.0404 54.9585 58.332 54.9585Z" fill="#1959AB"/>
<path d="M91.668 54.9585C89.9596 54.9585 88.543 53.5418 88.543 51.8335V39.3335C88.543 37.6252 89.9596 36.2085 91.668 36.2085C93.3763 36.2085 94.793 37.6252 94.793 39.3335V51.8335C94.793 53.5418 93.3763 54.9585 91.668 54.9585Z" fill="#1959AB"/>
<path d="M60.4167 91.4165C59.3333 91.4165 58.25 90.9581 57.4583 90.2081C56.7083 89.4164 56.25 88.3748 56.25 87.2498C56.25 86.7081 56.375 86.1664 56.5833 85.6664C56.7917 85.1664 57.0833 84.7082 57.4583 84.2915C59 82.7498 61.7917 82.7498 63.375 84.2915C64.125 85.0832 64.5833 86.1665 64.5833 87.2498C64.5833 87.4998 64.5417 87.7915 64.5 88.0832C64.4583 88.3332 64.375 88.5832 64.25 88.8332C64.1667 89.0832 64.0417 89.3331 63.875 89.5831C63.7083 89.7915 63.5417 89.9998 63.375 90.2081C62.5833 90.9581 61.5 91.4165 60.4167 91.4165Z" fill="#1959AB"/>
<path d="M74.9987 91.4167C74.457 91.4167 73.9154 91.2917 73.4154 91.0834C72.8737 90.8751 72.457 90.5833 72.0404 90.2083C71.2904 89.4166 70.832 88.375 70.832 87.25C70.832 86.7083 70.957 86.1666 71.1654 85.6666C71.3737 85.1666 71.6654 84.7084 72.0404 84.2917C72.457 83.9167 72.8737 83.6249 73.4154 83.4166C74.957 82.7916 76.7904 83.125 77.957 84.2917C78.707 85.0834 79.1654 86.1667 79.1654 87.25C79.1654 87.5 79.1237 87.7917 79.082 88.0834C79.0404 88.3334 78.957 88.5834 78.832 88.8334C78.7487 89.0834 78.6237 89.3333 78.457 89.5833C78.332 89.7917 78.1237 90 77.957 90.2083C77.1654 90.9583 76.082 91.4167 74.9987 91.4167Z" fill="#1959AB"/>
<path d="M60.4167 106C59.875 106 59.3333 105.875 58.8333 105.667C58.2917 105.459 57.8333 105.167 57.4583 104.792C57.0833 104.417 56.7917 103.959 56.5833 103.417C56.375 102.917 56.25 102.375 56.25 101.834C56.25 101.292 56.375 100.75 56.5833 100.25C56.7917 99.7086 57.0833 99.2503 57.4583 98.8753C57.8333 98.5003 58.2917 98.2085 58.8333 98.0002C59.8333 97.5835 61 97.5419 62 98.0002C62.5417 98.2085 63 98.5003 63.375 98.8753C63.75 99.2503 64.0417 99.7086 64.25 100.25C64.4583 100.75 64.5833 101.292 64.5833 101.834C64.5833 102.375 64.4583 102.917 64.25 103.417C64.0417 103.959 63.75 104.417 63.375 104.792C63 105.167 62.5417 105.459 62 105.667C61.5 105.875 60.9583 106 60.4167 106Z" fill="#1959AB"/>
<path d="M110.415 72H39.582C37.8737 72 36.457 70.5833 36.457 68.875C36.457 67.1667 37.8737 65.75 39.582 65.75H110.415C112.124 65.75 113.54 67.1667 113.54 68.875C113.54 70.5833 112.124 72 110.415 72Z" fill="#1959AB"/>
<path d="M99.9987 129.958C95.1237 129.958 90.4987 128.208 86.957 125C85.457 123.75 84.1237 122.167 83.0404 120.333C81.207 117.333 80.207 113.792 80.207 110.167C80.207 99.25 89.082 90.375 99.9987 90.375C105.665 90.375 111.082 92.8333 114.832 97.0833C118.04 100.75 119.79 105.375 119.79 110.167C119.79 113.792 118.79 117.333 116.915 120.375C113.415 126.292 106.915 129.958 99.9987 129.958ZM99.9987 96.625C92.5404 96.625 86.457 102.708 86.457 110.167C86.457 112.625 87.1237 115.042 88.4154 117.125C89.1237 118.375 90.0404 119.417 91.0404 120.292C93.5404 122.542 96.6654 123.708 99.9987 123.708C104.79 123.708 109.124 121.25 111.582 117.167C112.874 115.042 113.54 112.667 113.54 110.167C113.54 106.917 112.332 103.75 110.165 101.208C107.582 98.2917 103.874 96.625 99.9987 96.625Z" fill="#1959AB"/>
<path d="M97.6243 117.417C96.8327 117.417 96.041 117.125 95.416 116.5L91.291 112.375C90.0827 111.167 90.0827 109.167 91.291 107.958C92.4993 106.75 94.4993 106.75 95.7077 107.958L97.7077 109.958L104.374 103.792C105.624 102.625 107.624 102.708 108.791 103.958C109.958 105.208 109.874 107.208 108.624 108.375L99.7493 116.583C99.1243 117.125 98.3743 117.417 97.6243 117.417Z" fill="#1959AB"/>
<path d="M89.0417 125.792H58.3333C43.125 125.792 34.375 117.042 34.375 101.833V66.4168C34.375 51.2085 43.125 42.4585 58.3333 42.4585H91.6667C106.875 42.4585 115.625 51.2085 115.625 66.4168V99.1668C115.625 100.458 114.833 101.625 113.583 102.083C112.375 102.542 111 102.209 110.125 101.209C107.542 98.2919 103.833 96.6252 99.9583 96.6252C92.5 96.6252 86.4167 102.708 86.4167 110.167C86.4167 112.625 87.0833 115.042 88.375 117.125C89.0833 118.375 90 119.417 91 120.292C92 121.125 92.375 122.5 91.9167 123.75C91.5417 124.959 90.375 125.792 89.0417 125.792ZM58.3333 48.7085C46.4167 48.7085 40.625 54.5002 40.625 66.4168V101.833C40.625 113.75 46.4167 119.542 58.3333 119.542H82.5833C81.0417 116.709 80.2083 113.5 80.2083 110.167C80.2083 99.2502 89.0833 90.3752 100 90.3752C103.292 90.3752 106.542 91.2085 109.375 92.7502V66.4168C109.375 54.5002 103.583 48.7085 91.6667 48.7085H58.3333Z" fill="#1959AB"/>
</g>
<path d="M44.1953 194.281C44.1953 197.062 43.3984 199.273 41.8047 200.914C40.2109 202.547 38.0078 203.363 35.1953 203.363C32.3906 203.363 30.1914 202.547 28.5977 200.914C27.0039 199.273 26.207 197.062 26.207 194.281C26.207 191.477 27.0039 189.262 28.5977 187.637C30.1914 186.004 32.3906 185.188 35.1953 185.188C37.9922 185.188 40.1914 186.004 41.793 187.637C43.3945 189.262 44.1953 191.477 44.1953 194.281ZM38.2305 198.699C38.668 198.168 38.9922 197.543 39.2031 196.824C39.4141 196.098 39.5195 195.246 39.5195 194.27C39.5195 193.223 39.3984 192.332 39.1562 191.598C38.9141 190.863 38.5977 190.27 38.207 189.816C37.8086 189.348 37.3477 189.008 36.8242 188.797C36.3086 188.586 35.7695 188.48 35.207 188.48C34.6367 188.48 34.0977 188.582 33.5898 188.785C33.0898 188.988 32.6289 189.324 32.207 189.793C31.8164 190.23 31.4961 190.836 31.2461 191.609C31.0039 192.375 30.8828 193.266 30.8828 194.281C30.8828 195.32 31 196.207 31.2344 196.941C31.4766 197.668 31.793 198.262 32.1836 198.723C32.5742 199.184 33.0312 199.523 33.5547 199.742C34.0781 199.961 34.6289 200.07 35.207 200.07C35.7852 200.07 36.3359 199.961 36.8594 199.742C37.3828 199.516 37.8398 199.168 38.2305 198.699ZM61.375 203H56.5L52.9727 197.785H51.625V203H47.4062V189.84H51.625V195.125C52.4062 195.117 52.9453 195.035 53.2422 194.879C53.5391 194.715 53.8828 194.289 54.2734 193.602C54.3906 193.398 54.5312 193.137 54.6953 192.816C54.8594 192.496 54.9883 192.25 55.082 192.078C55.5117 191.312 56.0117 190.746 56.582 190.379C57.1602 190.004 57.9609 189.816 58.9844 189.816C59.2812 189.816 59.5938 189.82 59.9219 189.828C60.2578 189.836 60.4844 189.84 60.6016 189.84V193.355H59.4531C58.9844 193.355 58.6094 193.473 58.3281 193.707C58.0547 193.941 57.8164 194.289 57.6133 194.75C57.4414 195.133 57.2852 195.438 57.1445 195.664C57.0039 195.883 56.8242 196.07 56.6055 196.227L61.375 203ZM69.4492 198.348L72.4492 189.84H76.7852L69.4727 207.828H64.9023L66.9883 202.906L61.8672 189.84H66.2969L69.4492 198.348ZM91.5156 203H87.3086V198.43H85.4219L82.2695 203H77.5469L81.3203 197.844C80.4375 197.445 79.7656 196.945 79.3047 196.344C78.8516 195.734 78.625 194.895 78.625 193.824C78.625 193.098 78.7656 192.488 79.0469 191.996C79.3359 191.504 79.7227 191.082 80.207 190.73C80.6367 190.434 81.1406 190.211 81.7188 190.062C82.3047 189.914 82.957 189.84 83.6758 189.84H91.5156V203ZM87.3086 195.852V192.57H84.8125C84.2344 192.57 83.7812 192.703 83.4531 192.969C83.1328 193.227 82.9727 193.605 82.9727 194.105C82.9727 194.723 83.1328 195.168 83.4531 195.441C83.7734 195.715 84.25 195.852 84.8828 195.852H87.3086ZM108.543 203H104.324V192.781H100.844C100.82 193.367 100.801 193.824 100.785 194.152C100.777 194.473 100.766 194.848 100.75 195.277C100.695 196.535 100.59 197.559 100.434 198.348C100.277 199.137 100.078 199.781 99.8359 200.281C99.6016 200.789 99.3477 201.191 99.0742 201.488C98.8086 201.785 98.5391 202.043 98.2656 202.262C97.9531 202.512 97.543 202.711 97.0352 202.859C96.5352 203.008 96.0508 203.082 95.582 203.082C95.2148 203.082 94.8438 203.066 94.4688 203.035C94.0938 203.012 93.8711 203 93.8008 203V199.625H93.9297C93.9609 199.625 94.0156 199.629 94.0938 199.637C94.1719 199.645 94.25 199.648 94.3281 199.648C94.5312 199.648 94.7383 199.629 94.9492 199.59C95.168 199.551 95.3477 199.465 95.4883 199.332C96.0117 198.832 96.3594 198.207 96.5312 197.457C96.7109 196.699 96.8398 195.582 96.918 194.105C96.9492 193.559 96.9805 192.934 97.0117 192.23C97.043 191.527 97.0703 190.73 97.0938 189.84H108.543V203ZM120.508 199.566V196.824C119.938 196.871 119.32 196.938 118.656 197.023C117.992 197.102 117.488 197.195 117.145 197.305C116.723 197.438 116.398 197.633 116.172 197.891C115.953 198.141 115.844 198.473 115.844 198.887C115.844 199.16 115.867 199.383 115.914 199.555C115.961 199.727 116.078 199.891 116.266 200.047C116.445 200.203 116.66 200.32 116.91 200.398C117.16 200.469 117.551 200.504 118.082 200.504C118.504 200.504 118.93 200.418 119.359 200.246C119.797 200.074 120.18 199.848 120.508 199.566ZM120.508 201.605C120.281 201.777 120 201.984 119.664 202.227C119.328 202.469 119.012 202.66 118.715 202.801C118.301 202.988 117.871 203.125 117.426 203.211C116.98 203.305 116.492 203.352 115.961 203.352C114.711 203.352 113.664 202.965 112.82 202.191C111.977 201.418 111.555 200.43 111.555 199.227C111.555 198.266 111.77 197.48 112.199 196.871C112.629 196.262 113.238 195.781 114.027 195.43C114.809 195.078 115.777 194.828 116.934 194.68C118.09 194.531 119.289 194.422 120.531 194.352V194.281C120.531 193.555 120.234 193.055 119.641 192.781C119.047 192.5 118.172 192.359 117.016 192.359C116.32 192.359 115.578 192.484 114.789 192.734C114 192.977 113.434 193.164 113.09 193.297H112.703V190.121C113.148 190.004 113.871 189.867 114.871 189.711C115.879 189.547 116.887 189.465 117.895 189.465C120.293 189.465 122.023 189.836 123.086 190.578C124.156 191.312 124.691 192.469 124.691 194.047V203H120.508V201.605ZM142.305 196.238C142.305 197.324 142.137 198.312 141.801 199.203C141.473 200.094 141.039 200.828 140.5 201.406C139.938 202.016 139.301 202.477 138.59 202.789C137.879 203.102 137.117 203.258 136.305 203.258C135.555 203.258 134.918 203.176 134.395 203.012C133.871 202.855 133.336 202.633 132.789 202.344V207.828H128.57V189.84H132.789V191.211C133.438 190.695 134.098 190.277 134.77 189.957C135.449 189.637 136.23 189.477 137.113 189.477C138.754 189.477 140.027 190.078 140.934 191.281C141.848 192.484 142.305 194.137 142.305 196.238ZM137.957 196.32C137.957 195.039 137.738 194.109 137.301 193.531C136.863 192.953 136.172 192.664 135.227 192.664C134.828 192.664 134.418 192.727 133.996 192.852C133.574 192.969 133.172 193.141 132.789 193.367V199.988C133.07 200.098 133.371 200.168 133.691 200.199C134.012 200.23 134.328 200.246 134.641 200.246C135.758 200.246 136.59 199.922 137.137 199.273C137.684 198.617 137.957 197.633 137.957 196.32Z" fill="#333333"/>
<path d="M30 239L37.5 246.5L50 231.5" stroke="#61B857" stroke-width="2" stroke-linecap="round" stroke-linejoin="round"/>
<path d="M73.4453 240H71.9062V230.68L66.125 240H64.5625V228.367H66.1016V237.547L71.8125 228.367H73.4453V240ZM87.5859 240H76.4609V231.273H77.9297V238.734H81.2891V231.273H82.7578V238.734H86.1172V231.273H87.5859V240ZM98.3516 240H96.4297L92.8047 236H92.0078V240H90.5391V231.273H92.0078V235.039C92.4922 235.039 92.8828 234.953 93.1797 234.781C93.4766 234.604 93.7292 234.323 93.9375 233.938C94.0104 233.797 94.0807 233.648 94.1484 233.492C94.2214 233.331 94.2917 233.177 94.3594 233.031C94.6302 232.443 94.9688 232.003 95.375 231.711C95.7812 231.419 96.3646 231.273 97.125 231.273H97.7969V232.539H97.1484C96.737 232.539 96.4141 232.628 96.1797 232.805C95.9505 232.977 95.7422 233.281 95.5547 233.719C95.3464 234.208 95.125 234.576 94.8906 234.82C94.6615 235.06 94.4167 235.242 94.1562 235.367L98.3516 240ZM107.25 235.789H100.82C100.82 236.326 100.901 236.794 101.062 237.195C101.224 237.591 101.445 237.917 101.727 238.172C101.997 238.422 102.318 238.609 102.688 238.734C103.062 238.859 103.474 238.922 103.922 238.922C104.516 238.922 105.112 238.805 105.711 238.57C106.315 238.331 106.745 238.096 107 237.867H107.078V239.469C106.583 239.677 106.078 239.852 105.562 239.992C105.047 240.133 104.505 240.203 103.938 240.203C102.49 240.203 101.359 239.812 100.547 239.031C99.7344 238.245 99.3281 237.13 99.3281 235.688C99.3281 234.26 99.7161 233.128 100.492 232.289C101.273 231.451 102.299 231.031 103.57 231.031C104.747 231.031 105.654 231.375 106.289 232.062C106.93 232.75 107.25 233.727 107.25 234.992V235.789ZM105.82 234.664C105.815 233.893 105.62 233.297 105.234 232.875C104.854 232.453 104.273 232.242 103.492 232.242C102.706 232.242 102.078 232.474 101.609 232.938C101.146 233.401 100.883 233.977 100.82 234.664H105.82ZM117.156 235.531C117.156 236.24 117.055 236.888 116.852 237.477C116.648 238.06 116.362 238.555 115.992 238.961C115.648 239.346 115.242 239.646 114.773 239.859C114.31 240.068 113.818 240.172 113.297 240.172C112.844 240.172 112.432 240.122 112.062 240.023C111.698 239.924 111.326 239.771 110.945 239.562V243.219H109.477V231.273H110.945V232.188C111.336 231.859 111.773 231.586 112.258 231.367C112.747 231.143 113.268 231.031 113.82 231.031C114.872 231.031 115.69 231.43 116.273 232.227C116.862 233.018 117.156 234.12 117.156 235.531ZM115.641 235.57C115.641 234.518 115.461 233.732 115.102 233.211C114.742 232.69 114.19 232.43 113.445 232.43C113.023 232.43 112.599 232.521 112.172 232.703C111.745 232.885 111.336 233.125 110.945 233.422V238.367C111.362 238.555 111.719 238.682 112.016 238.75C112.318 238.818 112.659 238.852 113.039 238.852C113.857 238.852 114.495 238.576 114.953 238.023C115.411 237.471 115.641 236.654 115.641 235.57ZM127.367 242.094H126V239.977H119.438V242.094H118.07V238.75H119.016C119.625 237.745 120.078 236.586 120.375 235.273C120.677 233.956 120.828 232.622 120.828 231.273H126.312V238.75H127.367V242.094ZM124.844 238.75V232.508H122.211C122.143 233.815 121.943 235.008 121.609 236.086C121.276 237.164 120.893 238.052 120.461 238.75H124.844ZM136.75 240H135.297V233.445L130.727 240H129.398V231.273H130.852V237.734L135.375 231.273H136.75V240ZM147.523 240H145.602L141.977 236H141.18V240H139.711V231.273H141.18V235.039C141.664 235.039 142.055 234.953 142.352 234.781C142.648 234.604 142.901 234.323 143.109 233.938C143.182 233.797 143.253 233.648 143.32 233.492C143.393 233.331 143.464 233.177 143.531 233.031C143.802 232.443 144.141 232.003 144.547 231.711C144.953 231.419 145.536 231.273 146.297 231.273H146.969V232.539H146.32C145.909 232.539 145.586 232.628 145.352 232.805C145.122 232.977 144.914 233.281 144.727 233.719C144.518 234.208 144.297 234.576 144.062 234.82C143.833 235.06 143.589 235.242 143.328 235.367L147.523 240ZM78.3125 259H76.4219L72.3281 253.68H71.5078V259H69.9766V253.68H69.1406L65.0469 259H63.25L67.8828 253.016C67.4245 252.714 67.0599 252.359 66.7891 251.953C66.5182 251.547 66.2995 251.07 66.1328 250.523C66.0339 250.206 65.9349 249.935 65.8359 249.711C65.7422 249.482 65.6224 249.294 65.4766 249.148C65.3359 249.008 65.1562 248.906 64.9375 248.844C64.724 248.781 64.4609 248.75 64.1484 248.75H63.6797V247.367H64.2344C65.1042 247.367 65.7708 247.534 66.2344 247.867C66.6979 248.195 67.0885 248.81 67.4062 249.711C67.4635 249.867 67.5312 250.06 67.6094 250.289C67.6875 250.518 67.7656 250.727 67.8438 250.914C68.0729 251.461 68.3724 251.867 68.7422 252.133C69.1172 252.398 69.5286 252.552 69.9766 252.594V247.367H71.5078V252.609C71.987 252.578 72.4141 252.435 72.7891 252.18C73.1693 251.919 73.4792 251.497 73.7188 250.914C73.8125 250.685 73.8958 250.461 73.9688 250.242C74.0469 250.018 74.1094 249.841 74.1562 249.711C74.4688 248.815 74.8594 248.201 75.3281 247.867C75.8021 247.534 76.4688 247.367 77.3281 247.367H77.8828V248.75H77.4141C77.0703 248.75 76.7995 248.781 76.6016 248.844C76.4089 248.901 76.2344 249.003 76.0781 249.148C75.9271 249.289 75.8021 249.479 75.7031 249.719C75.6094 249.953 75.513 250.221 75.4141 250.523C75.1953 251.216 74.9219 251.74 74.5938 252.094C74.2708 252.443 73.9479 252.719 73.625 252.922L78.3125 259ZM87.4609 254.641C87.4609 256.062 87.0964 257.185 86.3672 258.008C85.638 258.831 84.6615 259.242 83.4375 259.242C82.2031 259.242 81.2214 258.831 80.4922 258.008C79.7682 257.185 79.4062 256.062 79.4062 254.641C79.4062 253.219 79.7682 252.096 80.4922 251.273C81.2214 250.445 82.2031 250.031 83.4375 250.031C84.6615 250.031 85.638 250.445 86.3672 251.273C87.0964 252.096 87.4609 253.219 87.4609 254.641ZM85.9453 254.641C85.9453 253.51 85.724 252.672 85.2812 252.125C84.8385 251.573 84.224 251.297 83.4375 251.297C82.6406 251.297 82.0208 251.573 81.5781 252.125C81.1406 252.672 80.9219 253.51 80.9219 254.641C80.9219 255.734 81.1432 256.565 81.5859 257.133C82.0286 257.695 82.6458 257.977 83.4375 257.977C84.2188 257.977 84.8307 257.698 85.2734 257.141C85.7214 256.578 85.9453 255.745 85.9453 254.641ZM96.7812 259H95.3125V251.508H92.0547C92.0391 251.94 92.0234 252.357 92.0078 252.758C91.9922 253.159 91.9766 253.521 91.9609 253.844C91.9245 254.714 91.8646 255.409 91.7812 255.93C91.6979 256.445 91.5885 256.875 91.4531 257.219C91.3281 257.542 91.1875 257.805 91.0312 258.008C90.8802 258.206 90.7161 258.385 90.5391 258.547C90.362 258.703 90.1641 258.82 89.9453 258.898C89.7318 258.977 89.4974 259.016 89.2422 259.016C89.1536 259.016 89.0234 259.013 88.8516 259.008C88.6849 259.003 88.5755 259 88.5234 259V257.719H88.6016C88.6432 257.719 88.7031 257.721 88.7812 257.727C88.8594 257.732 88.9245 257.734 88.9766 257.734C89.1016 257.734 89.2292 257.716 89.3594 257.68C89.4948 257.643 89.6094 257.576 89.7031 257.477C89.9688 257.216 90.1823 256.776 90.3438 256.156C90.5052 255.536 90.612 254.641 90.6641 253.469C90.6849 253.042 90.7031 252.536 90.7188 251.953C90.7396 251.365 90.7578 250.805 90.7734 250.273H96.7812V259ZM107.227 250.273L102.133 262.219H100.562L102.188 258.578L98.7109 250.273H100.305L102.984 256.742L105.688 250.273H107.227ZM115.164 251.562H110.617V259H109.148V250.273H115.164V251.562ZM124.242 250.273L119.148 262.219H117.578L119.203 258.578L115.727 250.273H117.32L120 256.742L122.703 250.273H124.242ZM137.289 259H126.164V250.273H127.633V257.734H130.992V250.273H132.461V257.734H135.82V250.273H137.289V259ZM147.727 250.273L142.633 262.219H141.062L142.688 258.578L139.211 250.273H140.805L143.484 256.742L146.188 250.273H147.727ZM157.195 250.273L152.102 262.219H150.531L152.156 258.578L148.68 250.273H150.273L152.953 256.742L155.656 250.273H157.195ZM166.156 259H164.688V251.508H161.43C161.414 251.94 161.398 252.357 161.383 252.758C161.367 253.159 161.352 253.521 161.336 253.844C161.299 254.714 161.24 255.409 161.156 255.93C161.073 256.445 160.964 256.875 160.828 257.219C160.703 257.542 160.562 257.805 160.406 258.008C160.255 258.206 160.091 258.385 159.914 258.547C159.737 258.703 159.539 258.82 159.32 258.898C159.107 258.977 158.872 259.016 158.617 259.016C158.529 259.016 158.398 259.013 158.227 259.008C158.06 259.003 157.951 259 157.898 259V257.719H157.977C158.018 257.719 158.078 257.721 158.156 257.727C158.234 257.732 158.299 257.734 158.352 257.734C158.477 257.734 158.604 257.716 158.734 257.68C158.87 257.643 158.984 257.576 159.078 257.477C159.344 257.216 159.557 256.776 159.719 256.156C159.88 255.536 159.987 254.641 160.039 253.469C160.06 253.042 160.078 252.536 160.094 251.953C160.115 251.365 160.133 250.805 160.148 250.273H166.156V259ZM175.836 259H174.375V258.07C174.245 258.159 174.068 258.284 173.844 258.445C173.625 258.602 173.411 258.727 173.203 258.82C172.958 258.94 172.677 259.039 172.359 259.117C172.042 259.201 171.669 259.242 171.242 259.242C170.456 259.242 169.789 258.982 169.242 258.461C168.695 257.94 168.422 257.276 168.422 256.469C168.422 255.807 168.562 255.273 168.844 254.867C169.13 254.456 169.536 254.133 170.062 253.898C170.594 253.664 171.232 253.505 171.977 253.422C172.721 253.339 173.521 253.276 174.375 253.234V253.008C174.375 252.674 174.315 252.398 174.195 252.18C174.081 251.961 173.914 251.789 173.695 251.664C173.487 251.544 173.237 251.464 172.945 251.422C172.654 251.38 172.349 251.359 172.031 251.359C171.646 251.359 171.216 251.411 170.742 251.516C170.268 251.615 169.779 251.76 169.273 251.953H169.195V250.461C169.482 250.383 169.896 250.297 170.438 250.203C170.979 250.109 171.513 250.062 172.039 250.062C172.654 250.062 173.188 250.115 173.641 250.219C174.099 250.318 174.495 250.49 174.828 250.734C175.156 250.974 175.406 251.284 175.578 251.664C175.75 252.044 175.836 252.516 175.836 253.078V259ZM174.375 256.852V254.422C173.927 254.448 173.398 254.487 172.789 254.539C172.185 254.591 171.706 254.667 171.352 254.766C170.93 254.885 170.589 255.073 170.328 255.328C170.068 255.578 169.938 255.924 169.938 256.367C169.938 256.867 170.089 257.245 170.391 257.5C170.693 257.75 171.154 257.875 171.773 257.875C172.289 257.875 172.76 257.776 173.188 257.578C173.615 257.375 174.01 257.133 174.375 256.852ZM186.344 254.531C186.344 255.24 186.242 255.888 186.039 256.477C185.836 257.06 185.549 257.555 185.18 257.961C184.836 258.346 184.43 258.646 183.961 258.859C183.497 259.068 183.005 259.172 182.484 259.172C182.031 259.172 181.62 259.122 181.25 259.023C180.885 258.924 180.513 258.771 180.133 258.562V262.219H178.664V250.273H180.133V251.188C180.523 250.859 180.961 250.586 181.445 250.367C181.935 250.143 182.456 250.031 183.008 250.031C184.06 250.031 184.878 250.43 185.461 251.227C186.049 252.018 186.344 253.12 186.344 254.531ZM184.828 254.57C184.828 253.518 184.648 252.732 184.289 252.211C183.93 251.69 183.378 251.43 182.633 251.43C182.211 251.43 181.786 251.521 181.359 251.703C180.932 251.885 180.523 252.125 180.133 252.422V257.367C180.549 257.555 180.906 257.682 181.203 257.75C181.505 257.818 181.846 257.852 182.227 257.852C183.044 257.852 183.682 257.576 184.141 257.023C184.599 256.471 184.828 255.654 184.828 254.57ZM196.555 261.094H195.188V258.977H188.625V261.094H187.258V257.75H188.203C188.812 256.745 189.266 255.586 189.562 254.273C189.865 252.956 190.016 251.622 190.016 250.273H195.5V257.75H196.555V261.094ZM194.031 257.75V251.508H191.398C191.331 252.815 191.13 254.008 190.797 255.086C190.464 256.164 190.081 257.052 189.648 257.75H194.031ZM203.961 256.32C203.961 256.055 203.914 255.823 203.82 255.625C203.732 255.422 203.583 255.258 203.375 255.133C203.156 255.003 202.906 254.924 202.625 254.898C202.349 254.872 201.951 254.859 201.43 254.859H200.055V257.828H201.398C201.919 257.828 202.323 257.807 202.609 257.766C202.896 257.719 203.143 257.633 203.352 257.508C203.565 257.372 203.719 257.214 203.812 257.031C203.911 256.844 203.961 256.607 203.961 256.32ZM205.477 256.297C205.477 256.719 205.391 257.102 205.219 257.445C205.052 257.789 204.823 258.068 204.531 258.281C204.188 258.542 203.82 258.727 203.43 258.836C203.039 258.945 202.536 259 201.922 259H198.586V250.273H200.055V253.672H201.961C202.617 253.672 203.125 253.706 203.484 253.773C203.849 253.841 204.211 254.008 204.57 254.273C204.872 254.497 205.099 254.784 205.25 255.133C205.401 255.482 205.477 255.87 205.477 256.297ZM206.938 250.273H208.406V259H206.938V250.273ZM72.7969 266.367L68.375 276.156C68.1979 276.552 67.987 276.878 67.7422 277.133C67.5026 277.388 67.2422 277.586 66.9609 277.727C66.6901 277.857 66.4271 277.945 66.1719 277.992C65.9219 278.034 65.6797 278.055 65.4453 278.055C65.237 278.055 64.9844 278.044 64.6875 278.023C64.3906 278.003 64.2005 277.99 64.1172 277.984V276.539H64.2266C64.3047 276.549 64.4349 276.568 64.6172 276.594C64.7995 276.615 65.0078 276.625 65.2422 276.625C65.3464 276.625 65.4922 276.617 65.6797 276.602C65.8672 276.586 66.0339 276.549 66.1797 276.492C66.3464 276.43 66.5104 276.331 66.6719 276.195C66.8385 276.06 66.9792 275.862 67.0938 275.602L67.375 274.984L63.0469 266.367H64.7578L68.1562 273.227L71.2031 266.367H72.7969ZM83.9219 273.641C83.9219 272.521 83.7057 271.685 83.2734 271.133C82.8411 270.576 82.2422 270.297 81.4766 270.297C80.6797 270.297 80.0703 270.589 79.6484 271.172C79.2318 271.75 79.0234 272.573 79.0234 273.641C79.0234 274.745 79.2422 275.578 79.6797 276.141C80.1172 276.698 80.7161 276.977 81.4766 276.977C82.237 276.977 82.8333 276.701 83.2656 276.148C83.7031 275.591 83.9219 274.755 83.9219 273.641ZM77.5703 274.047H75.7578V278H74.2891V269.273H75.7578V272.812H77.6094C77.7396 271.609 78.1589 270.68 78.8672 270.023C79.5807 269.362 80.4557 269.031 81.4922 269.031C82.6953 269.031 83.6536 269.443 84.3672 270.266C85.0807 271.089 85.4375 272.214 85.4375 273.641C85.4375 275.052 85.0859 276.172 84.3828 277C83.6797 277.828 82.7161 278.242 81.4922 278.242C80.3359 278.242 79.4089 277.867 78.7109 277.117C78.0182 276.367 77.638 275.344 77.5703 274.047ZM98.8359 278H87.7109V269.273H89.1797V276.734H92.5391V269.273H94.0078V276.734H97.3672V269.273H98.8359V278ZM108.141 270.562H104.984V278H103.516V270.562H100.359V269.273H108.141V270.562ZM117.211 269.273L112.117 281.219H110.547L112.172 277.578L108.695 269.273H110.289L112.969 275.742L115.672 269.273H117.211ZM126.812 273.531C126.812 274.24 126.711 274.888 126.508 275.477C126.305 276.06 126.018 276.555 125.648 276.961C125.305 277.346 124.898 277.646 124.43 277.859C123.966 278.068 123.474 278.172 122.953 278.172C122.5 278.172 122.089 278.122 121.719 278.023C121.354 277.924 120.982 277.771 120.602 277.562V281.219H119.133V269.273H120.602V270.188C120.992 269.859 121.43 269.586 121.914 269.367C122.404 269.143 122.924 269.031 123.477 269.031C124.529 269.031 125.346 269.43 125.93 270.227C126.518 271.018 126.812 272.12 126.812 273.531ZM125.297 273.57C125.297 272.518 125.117 271.732 124.758 271.211C124.398 270.69 123.846 270.43 123.102 270.43C122.68 270.43 122.255 270.521 121.828 270.703C121.401 270.885 120.992 271.125 120.602 271.422V276.367C121.018 276.555 121.375 276.682 121.672 276.75C121.974 276.818 122.315 276.852 122.695 276.852C123.513 276.852 124.151 276.576 124.609 276.023C125.068 275.471 125.297 274.654 125.297 273.57ZM136.648 269.273L131.555 281.219H129.984L131.609 277.578L128.133 269.273H129.727L132.406 275.742L135.109 269.273H136.648ZM146.117 269.273L141.023 281.219H139.453L141.078 277.578L137.602 269.273H139.195L141.875 275.742L144.578 269.273H146.117Z" fill="#333333"/>
<path d="M30 312L37.5 319.5L50 304.5" stroke="#61B857" stroke-width="2" stroke-linecap="round" stroke-linejoin="round"/>
<path d="M73.3438 309.398C73.3438 309.961 73.2318 310.471 73.0078 310.93C72.7891 311.388 72.4948 311.76 72.125 312.047C71.6875 312.391 71.2188 312.635 70.7188 312.781C70.2188 312.927 69.5729 313 68.7812 313H64.5625V301.367H72.3516V302.742H66.1094V305.93H68.8281C69.6198 305.93 70.2656 305.977 70.7656 306.07C71.2656 306.159 71.737 306.375 72.1797 306.719C72.5755 307.026 72.8672 307.406 73.0547 307.859C73.2474 308.312 73.3438 308.826 73.3438 309.398ZM71.7266 309.43C71.7266 309.039 71.6615 308.695 71.5312 308.398C71.401 308.102 71.1979 307.862 70.9219 307.68C70.6354 307.487 70.3047 307.37 69.9297 307.328C69.5547 307.286 69.026 307.266 68.3438 307.266H66.1094V311.68H68.3047C68.9974 311.68 69.5286 311.646 69.8984 311.578C70.2734 311.51 70.6016 311.38 70.8828 311.188C71.1745 310.984 71.388 310.747 71.5234 310.477C71.6589 310.201 71.7266 309.852 71.7266 309.43ZM82.7656 313H81.3125V306.445L76.7422 313H75.4141V304.273H76.8672V310.734L81.3906 304.273H82.7656V313ZM91.7344 310.555C91.7344 311.044 91.6198 311.458 91.3906 311.797C91.1667 312.135 90.8776 312.409 90.5234 312.617C90.1693 312.82 89.7786 312.969 89.3516 313.062C88.9245 313.156 88.4974 313.203 88.0703 313.203C87.4661 313.203 86.8906 313.146 86.3438 313.031C85.7969 312.917 85.2578 312.74 84.7266 312.5V310.891H84.8281C85.2083 311.224 85.6927 311.482 86.2812 311.664C86.8698 311.846 87.4401 311.938 87.9922 311.938C88.2526 311.938 88.5208 311.914 88.7969 311.867C89.0729 311.815 89.3125 311.734 89.5156 311.625C89.7344 311.5 89.9089 311.352 90.0391 311.18C90.1693 311.003 90.2344 310.763 90.2344 310.461C90.2344 310.148 90.1693 309.898 90.0391 309.711C89.9141 309.523 89.7422 309.383 89.5234 309.289C89.3099 309.195 89.0521 309.138 88.75 309.117C88.4479 309.096 88.1719 309.086 87.9219 309.086H86.6484V307.82H87.5312C87.7396 307.82 88.0104 307.812 88.3438 307.797C88.6823 307.781 88.9557 307.74 89.1641 307.672C89.4349 307.583 89.6484 307.458 89.8047 307.297C89.9661 307.135 90.0469 306.878 90.0469 306.523C90.0469 306.279 89.9844 306.078 89.8594 305.922C89.7344 305.76 89.5781 305.635 89.3906 305.547C89.1979 305.458 88.9818 305.398 88.7422 305.367C88.5078 305.336 88.2995 305.32 88.1172 305.32C87.5859 305.32 87.0625 305.393 86.5469 305.539C86.0365 305.68 85.6068 305.885 85.2578 306.156H85.1562V304.539C85.5885 304.398 86.0521 304.284 86.5469 304.195C87.0417 304.107 87.5365 304.062 88.0312 304.062C88.4375 304.062 88.8411 304.099 89.2422 304.172C89.6484 304.245 90.026 304.37 90.375 304.547C90.7188 304.724 91 304.966 91.2188 305.273C91.4375 305.576 91.5469 305.951 91.5469 306.398C91.5469 306.857 91.4036 307.26 91.1172 307.609C90.8359 307.953 90.4557 308.201 89.9766 308.352V308.406C90.513 308.536 90.9401 308.781 91.2578 309.141C91.5755 309.495 91.7344 309.966 91.7344 310.555ZM101.359 313H99.8906V309.07H95.5234V313H94.0547V304.273H95.5234V307.805H99.8906V304.273H101.359V313ZM111.562 308.789H105.133C105.133 309.326 105.214 309.794 105.375 310.195C105.536 310.591 105.758 310.917 106.039 311.172C106.31 311.422 106.63 311.609 107 311.734C107.375 311.859 107.786 311.922 108.234 311.922C108.828 311.922 109.424 311.805 110.023 311.57C110.628 311.331 111.057 311.096 111.312 310.867H111.391V312.469C110.896 312.677 110.391 312.852 109.875 312.992C109.359 313.133 108.818 313.203 108.25 313.203C106.802 313.203 105.672 312.812 104.859 312.031C104.047 311.245 103.641 310.13 103.641 308.688C103.641 307.26 104.029 306.128 104.805 305.289C105.586 304.451 106.612 304.031 107.883 304.031C109.06 304.031 109.966 304.375 110.602 305.062C111.242 305.75 111.562 306.727 111.562 307.992V308.789ZM110.133 307.664C110.128 306.893 109.932 306.297 109.547 305.875C109.167 305.453 108.586 305.242 107.805 305.242C107.018 305.242 106.391 305.474 105.922 305.938C105.458 306.401 105.195 306.977 105.133 307.664H110.133ZM120.32 312.453C119.721 312.734 119.206 312.927 118.773 313.031C118.346 313.141 117.919 313.195 117.492 313.195C116.857 313.195 116.273 313.104 115.742 312.922C115.211 312.734 114.755 312.453 114.375 312.078C113.995 311.703 113.698 311.229 113.484 310.656C113.276 310.083 113.172 309.414 113.172 308.648C113.172 307.258 113.557 306.148 114.328 305.32C115.099 304.487 116.154 304.07 117.492 304.07C117.997 304.07 118.492 304.141 118.977 304.281C119.466 304.422 119.914 304.594 120.32 304.797V306.43H120.234C119.75 306.06 119.271 305.786 118.797 305.609C118.328 305.432 117.872 305.344 117.43 305.344C116.56 305.344 115.885 305.635 115.406 306.219C114.932 306.802 114.695 307.612 114.695 308.648C114.695 309.685 114.932 310.49 115.406 311.062C115.88 311.635 116.555 311.922 117.43 311.922C117.737 311.922 118.042 311.883 118.344 311.805C118.651 311.727 118.93 311.625 119.18 311.5C119.378 311.401 119.581 311.284 119.789 311.148C120.003 311.008 120.151 310.904 120.234 310.836H120.32V312.453ZM137.43 313H135.445L130.719 307.695H129.664V313H128.117V301.367H129.664V306.586C129.93 306.581 130.18 306.555 130.414 306.508C130.648 306.461 130.87 306.372 131.078 306.242C131.286 306.122 131.492 305.953 131.695 305.734C131.898 305.51 132.078 305.237 132.234 304.914C132.302 304.773 132.38 304.596 132.469 304.383C132.562 304.169 132.656 303.945 132.75 303.711C133.109 302.846 133.529 302.24 134.008 301.891C134.492 301.542 135.203 301.367 136.141 301.367H136.758V302.75H136.109C135.75 302.75 135.469 302.784 135.266 302.852C135.062 302.914 134.88 303.021 134.719 303.172C134.568 303.307 134.435 303.49 134.32 303.719C134.211 303.948 134.096 304.216 133.977 304.523C133.706 305.211 133.43 305.716 133.148 306.039C132.872 306.362 132.5 306.643 132.031 306.883L137.43 313ZM146.492 308.641C146.492 310.062 146.128 311.185 145.398 312.008C144.669 312.831 143.693 313.242 142.469 313.242C141.234 313.242 140.253 312.831 139.523 312.008C138.799 311.185 138.438 310.062 138.438 308.641C138.438 307.219 138.799 306.096 139.523 305.273C140.253 304.445 141.234 304.031 142.469 304.031C143.693 304.031 144.669 304.445 145.398 305.273C146.128 306.096 146.492 307.219 146.492 308.641ZM144.977 308.641C144.977 307.51 144.755 306.672 144.312 306.125C143.87 305.573 143.255 305.297 142.469 305.297C141.672 305.297 141.052 305.573 140.609 306.125C140.172 306.672 139.953 307.51 139.953 308.641C139.953 309.734 140.174 310.565 140.617 311.133C141.06 311.695 141.677 311.977 142.469 311.977C143.25 311.977 143.862 311.698 144.305 311.141C144.753 310.578 144.977 309.745 144.977 308.641ZM156.078 313H154.609V309.07H150.242V313H148.773V304.273H150.242V307.805H154.609V304.273H156.078V313ZM170.117 308.406C170.117 309.182 170.018 309.87 169.82 310.469C169.622 311.062 169.359 311.552 169.031 311.938C168.708 312.323 168.336 312.617 167.914 312.82C167.492 313.023 167.049 313.125 166.586 313.125C166.237 313.125 165.932 313.065 165.672 312.945C165.417 312.826 165.188 312.716 164.984 312.617V316.219H163.531V312.617C163.214 312.773 162.951 312.898 162.742 312.992C162.539 313.081 162.219 313.125 161.781 313.125C160.776 313.125 159.961 312.732 159.336 311.945C158.711 311.159 158.398 310.065 158.398 308.664C158.398 307.93 158.5 307.276 158.703 306.703C158.906 306.125 159.172 305.641 159.5 305.25C159.818 304.87 160.19 304.581 160.617 304.383C161.049 304.18 161.479 304.078 161.906 304.078C162.219 304.078 162.503 304.128 162.758 304.227C163.018 304.32 163.276 304.445 163.531 304.602V300.844H164.984V304.602C165.224 304.461 165.505 304.339 165.828 304.234C166.151 304.13 166.477 304.078 166.805 304.078C167.836 304.078 168.646 304.469 169.234 305.25C169.823 306.026 170.117 307.078 170.117 308.406ZM168.609 308.57C168.609 307.576 168.432 306.789 168.078 306.211C167.724 305.633 167.193 305.344 166.484 305.344C166.198 305.344 165.958 305.367 165.766 305.414C165.573 305.461 165.312 305.549 164.984 305.68V311.5C165.229 311.615 165.432 311.706 165.594 311.773C165.76 311.836 165.995 311.867 166.297 311.867C167.031 311.867 167.599 311.586 168 311.023C168.406 310.456 168.609 309.638 168.609 308.57ZM163.531 311.5V305.68C163.328 305.586 163.122 305.508 162.914 305.445C162.706 305.378 162.474 305.344 162.219 305.344C161.516 305.344 160.953 305.612 160.531 306.148C160.115 306.685 159.906 307.5 159.906 308.594C159.906 309.609 160.091 310.409 160.461 310.992C160.836 311.576 161.375 311.867 162.078 311.867C162.354 311.867 162.609 311.831 162.844 311.758C163.083 311.68 163.312 311.594 163.531 311.5ZM179.734 308.789H173.305C173.305 309.326 173.385 309.794 173.547 310.195C173.708 310.591 173.93 310.917 174.211 311.172C174.482 311.422 174.802 311.609 175.172 311.734C175.547 311.859 175.958 311.922 176.406 311.922C177 311.922 177.596 311.805 178.195 311.57C178.799 311.331 179.229 311.096 179.484 310.867H179.562V312.469C179.068 312.677 178.562 312.852 178.047 312.992C177.531 313.133 176.99 313.203 176.422 313.203C174.974 313.203 173.844 312.812 173.031 312.031C172.219 311.245 171.812 310.13 171.812 308.688C171.812 307.26 172.201 306.128 172.977 305.289C173.758 304.451 174.784 304.031 176.055 304.031C177.232 304.031 178.138 304.375 178.773 305.062C179.414 305.75 179.734 306.727 179.734 307.992V308.789ZM178.305 307.664C178.299 306.893 178.104 306.297 177.719 305.875C177.339 305.453 176.758 305.242 175.977 305.242C175.19 305.242 174.562 305.474 174.094 305.938C173.63 306.401 173.367 306.977 173.305 307.664H178.305ZM189.641 308.531C189.641 309.24 189.539 309.888 189.336 310.477C189.133 311.06 188.846 311.555 188.477 311.961C188.133 312.346 187.727 312.646 187.258 312.859C186.794 313.068 186.302 313.172 185.781 313.172C185.328 313.172 184.917 313.122 184.547 313.023C184.182 312.924 183.81 312.771 183.43 312.562V316.219H181.961V304.273H183.43V305.188C183.82 304.859 184.258 304.586 184.742 304.367C185.232 304.143 185.753 304.031 186.305 304.031C187.357 304.031 188.174 304.43 188.758 305.227C189.346 306.018 189.641 307.12 189.641 308.531ZM188.125 308.57C188.125 307.518 187.945 306.732 187.586 306.211C187.227 305.69 186.674 305.43 185.93 305.43C185.508 305.43 185.083 305.521 184.656 305.703C184.229 305.885 183.82 306.125 183.43 306.422V311.367C183.846 311.555 184.203 311.682 184.5 311.75C184.802 311.818 185.143 311.852 185.523 311.852C186.341 311.852 186.979 311.576 187.438 311.023C187.896 310.471 188.125 309.654 188.125 308.57ZM199.234 308.789H192.805C192.805 309.326 192.885 309.794 193.047 310.195C193.208 310.591 193.43 310.917 193.711 311.172C193.982 311.422 194.302 311.609 194.672 311.734C195.047 311.859 195.458 311.922 195.906 311.922C196.5 311.922 197.096 311.805 197.695 311.57C198.299 311.331 198.729 311.096 198.984 310.867H199.062V312.469C198.568 312.677 198.062 312.852 197.547 312.992C197.031 313.133 196.49 313.203 195.922 313.203C194.474 313.203 193.344 312.812 192.531 312.031C191.719 311.245 191.312 310.13 191.312 308.688C191.312 307.26 191.701 306.128 192.477 305.289C193.258 304.451 194.284 304.031 195.555 304.031C196.732 304.031 197.638 304.375 198.273 305.062C198.914 305.75 199.234 306.727 199.234 307.992V308.789ZM197.805 307.664C197.799 306.893 197.604 306.297 197.219 305.875C196.839 305.453 196.258 305.242 195.477 305.242C194.69 305.242 194.062 305.474 193.594 305.938C193.13 306.401 192.867 306.977 192.805 307.664H197.805ZM208.766 313H207.297V309.07H202.93V313H201.461V304.273H202.93V307.805H207.297V304.273H208.766V313ZM218.586 313H211.664V304.273H213.133V311.734H217.43V304.273H218.898V311.734H219.953V315.094H218.586V313ZM229.328 313H227.875V306.445L223.305 313H221.977V304.273H223.43V310.734L227.953 304.273H229.328V313ZM238.93 313H237.461V309.539H235.734L233.031 313H231.305L234.242 309.398C233.487 309.19 232.935 308.872 232.586 308.445C232.237 308.013 232.062 307.448 232.062 306.75C232.062 306.286 232.167 305.893 232.375 305.57C232.583 305.247 232.846 304.984 233.164 304.781C233.477 304.583 233.836 304.451 234.242 304.383C234.648 304.31 235.091 304.273 235.57 304.273H238.93V313ZM237.461 308.383V305.445H235.609C235.208 305.445 234.919 305.458 234.742 305.484C234.565 305.51 234.372 305.581 234.164 305.695C233.961 305.81 233.81 305.966 233.711 306.164C233.617 306.357 233.57 306.568 233.57 306.797C233.57 307.083 233.599 307.315 233.656 307.492C233.719 307.669 233.844 307.836 234.031 307.992C234.224 308.143 234.458 308.247 234.734 308.305C235.01 308.357 235.318 308.383 235.656 308.383H237.461ZM248.859 313H247.391V305.508H244.133C244.117 305.94 244.102 306.357 244.086 306.758C244.07 307.159 244.055 307.521 244.039 307.844C244.003 308.714 243.943 309.409 243.859 309.93C243.776 310.445 243.667 310.875 243.531 311.219C243.406 311.542 243.266 311.805 243.109 312.008C242.958 312.206 242.794 312.385 242.617 312.547C242.44 312.703 242.242 312.82 242.023 312.898C241.81 312.977 241.576 313.016 241.32 313.016C241.232 313.016 241.102 313.013 240.93 313.008C240.763 313.003 240.654 313 240.602 313V311.719H240.68C240.721 311.719 240.781 311.721 240.859 311.727C240.938 311.732 241.003 311.734 241.055 311.734C241.18 311.734 241.307 311.716 241.438 311.68C241.573 311.643 241.688 311.576 241.781 311.477C242.047 311.216 242.26 310.776 242.422 310.156C242.583 309.536 242.69 308.641 242.742 307.469C242.763 307.042 242.781 306.536 242.797 305.953C242.818 305.365 242.836 304.805 242.852 304.273H248.859V313ZM258.539 313H257.078V312.07C256.948 312.159 256.771 312.284 256.547 312.445C256.328 312.602 256.115 312.727 255.906 312.82C255.661 312.94 255.38 313.039 255.062 313.117C254.745 313.201 254.372 313.242 253.945 313.242C253.159 313.242 252.492 312.982 251.945 312.461C251.398 311.94 251.125 311.276 251.125 310.469C251.125 309.807 251.266 309.273 251.547 308.867C251.833 308.456 252.24 308.133 252.766 307.898C253.297 307.664 253.935 307.505 254.68 307.422C255.424 307.339 256.224 307.276 257.078 307.234V307.008C257.078 306.674 257.018 306.398 256.898 306.18C256.784 305.961 256.617 305.789 256.398 305.664C256.19 305.544 255.94 305.464 255.648 305.422C255.357 305.38 255.052 305.359 254.734 305.359C254.349 305.359 253.919 305.411 253.445 305.516C252.971 305.615 252.482 305.76 251.977 305.953H251.898V304.461C252.185 304.383 252.599 304.297 253.141 304.203C253.682 304.109 254.216 304.062 254.742 304.062C255.357 304.062 255.891 304.115 256.344 304.219C256.802 304.318 257.198 304.49 257.531 304.734C257.859 304.974 258.109 305.284 258.281 305.664C258.453 306.044 258.539 306.516 258.539 307.078V313ZM257.078 310.852V308.422C256.63 308.448 256.102 308.487 255.492 308.539C254.888 308.591 254.409 308.667 254.055 308.766C253.633 308.885 253.292 309.073 253.031 309.328C252.771 309.578 252.641 309.924 252.641 310.367C252.641 310.867 252.792 311.245 253.094 311.5C253.396 311.75 253.857 311.875 254.477 311.875C254.992 311.875 255.464 311.776 255.891 311.578C256.318 311.375 256.714 311.133 257.078 310.852ZM269.047 308.531C269.047 309.24 268.945 309.888 268.742 310.477C268.539 311.06 268.253 311.555 267.883 311.961C267.539 312.346 267.133 312.646 266.664 312.859C266.201 313.068 265.708 313.172 265.188 313.172C264.734 313.172 264.323 313.122 263.953 313.023C263.589 312.924 263.216 312.771 262.836 312.562V316.219H261.367V304.273H262.836V305.188C263.227 304.859 263.664 304.586 264.148 304.367C264.638 304.143 265.159 304.031 265.711 304.031C266.763 304.031 267.581 304.43 268.164 305.227C268.753 306.018 269.047 307.12 269.047 308.531ZM267.531 308.57C267.531 307.518 267.352 306.732 266.992 306.211C266.633 305.69 266.081 305.43 265.336 305.43C264.914 305.43 264.49 305.521 264.062 305.703C263.635 305.885 263.227 306.125 262.836 306.422V311.367C263.253 311.555 263.609 311.682 263.906 311.75C264.208 311.818 264.549 311.852 264.93 311.852C265.747 311.852 266.385 311.576 266.844 311.023C267.302 310.471 267.531 309.654 267.531 308.57ZM279.258 315.094H277.891V312.977H271.328V315.094H269.961V311.75H270.906C271.516 310.745 271.969 309.586 272.266 308.273C272.568 306.956 272.719 305.622 272.719 304.273H278.203V311.75H279.258V315.094ZM276.734 311.75V305.508H274.102C274.034 306.815 273.833 308.008 273.5 309.086C273.167 310.164 272.784 311.052 272.352 311.75H276.734ZM286.664 310.32C286.664 310.055 286.617 309.823 286.523 309.625C286.435 309.422 286.286 309.258 286.078 309.133C285.859 309.003 285.609 308.924 285.328 308.898C285.052 308.872 284.654 308.859 284.133 308.859H282.758V311.828H284.102C284.622 311.828 285.026 311.807 285.312 311.766C285.599 311.719 285.846 311.633 286.055 311.508C286.268 311.372 286.422 311.214 286.516 311.031C286.615 310.844 286.664 310.607 286.664 310.32ZM288.18 310.297C288.18 310.719 288.094 311.102 287.922 311.445C287.755 311.789 287.526 312.068 287.234 312.281C286.891 312.542 286.523 312.727 286.133 312.836C285.742 312.945 285.24 313 284.625 313H281.289V304.273H282.758V307.672H284.664C285.32 307.672 285.828 307.706 286.188 307.773C286.552 307.841 286.914 308.008 287.273 308.273C287.576 308.497 287.802 308.784 287.953 309.133C288.104 309.482 288.18 309.87 288.18 310.297ZM289.641 304.273H291.109V313H289.641V304.273ZM72.7969 320.367L68.375 330.156C68.1979 330.552 67.987 330.878 67.7422 331.133C67.5026 331.388 67.2422 331.586 66.9609 331.727C66.6901 331.857 66.4271 331.945 66.1719 331.992C65.9219 332.034 65.6797 332.055 65.4453 332.055C65.237 332.055 64.9844 332.044 64.6875 332.023C64.3906 332.003 64.2005 331.99 64.1172 331.984V330.539H64.2266C64.3047 330.549 64.4349 330.568 64.6172 330.594C64.7995 330.615 65.0078 330.625 65.2422 330.625C65.3464 330.625 65.4922 330.617 65.6797 330.602C65.8672 330.586 66.0339 330.549 66.1797 330.492C66.3464 330.43 66.5104 330.331 66.6719 330.195C66.8385 330.06 66.9792 329.862 67.0938 329.602L67.375 328.984L63.0469 320.367H64.7578L68.1562 327.227L71.2031 320.367H72.7969ZM83.9219 327.641C83.9219 326.521 83.7057 325.685 83.2734 325.133C82.8411 324.576 82.2422 324.297 81.4766 324.297C80.6797 324.297 80.0703 324.589 79.6484 325.172C79.2318 325.75 79.0234 326.573 79.0234 327.641C79.0234 328.745 79.2422 329.578 79.6797 330.141C80.1172 330.698 80.7161 330.977 81.4766 330.977C82.237 330.977 82.8333 330.701 83.2656 330.148C83.7031 329.591 83.9219 328.755 83.9219 327.641ZM77.5703 328.047H75.7578V332H74.2891V323.273H75.7578V326.812H77.6094C77.7396 325.609 78.1589 324.68 78.8672 324.023C79.5807 323.362 80.4557 323.031 81.4922 323.031C82.6953 323.031 83.6536 323.443 84.3672 324.266C85.0807 325.089 85.4375 326.214 85.4375 327.641C85.4375 329.052 85.0859 330.172 84.3828 331C83.6797 331.828 82.7161 332.242 81.4922 332.242C80.3359 332.242 79.4089 331.867 78.7109 331.117C78.0182 330.367 77.638 329.344 77.5703 328.047ZM98.8359 332H87.7109V323.273H89.1797V330.734H92.5391V323.273H94.0078V330.734H97.3672V323.273H98.8359V332ZM108.141 324.562H104.984V332H103.516V324.562H100.359V323.273H108.141V324.562ZM117.211 323.273L112.117 335.219H110.547L112.172 331.578L108.695 323.273H110.289L112.969 329.742L115.672 323.273H117.211ZM126.812 327.531C126.812 328.24 126.711 328.888 126.508 329.477C126.305 330.06 126.018 330.555 125.648 330.961C125.305 331.346 124.898 331.646 124.43 331.859C123.966 332.068 123.474 332.172 122.953 332.172C122.5 332.172 122.089 332.122 121.719 332.023C121.354 331.924 120.982 331.771 120.602 331.562V335.219H119.133V323.273H120.602V324.188C120.992 323.859 121.43 323.586 121.914 323.367C122.404 323.143 122.924 323.031 123.477 323.031C124.529 323.031 125.346 323.43 125.93 324.227C126.518 325.018 126.812 326.12 126.812 327.531ZM125.297 327.57C125.297 326.518 125.117 325.732 124.758 325.211C124.398 324.69 123.846 324.43 123.102 324.43C122.68 324.43 122.255 324.521 121.828 324.703C121.401 324.885 120.992 325.125 120.602 325.422V330.367C121.018 330.555 121.375 330.682 121.672 330.75C121.974 330.818 122.315 330.852 122.695 330.852C123.513 330.852 124.151 330.576 124.609 330.023C125.068 329.471 125.297 328.654 125.297 327.57ZM136.648 323.273L131.555 335.219H129.984L131.609 331.578L128.133 323.273H129.727L132.406 329.742L135.109 323.273H136.648ZM146.117 323.273L141.023 335.219H139.453L141.078 331.578L137.602 323.273H139.195L141.875 329.742L144.578 323.273H146.117Z" fill="#333333"/>
<path d="M30 366L37.5 373.5L50 358.5" stroke="#61B857" stroke-width="2" stroke-linecap="round" stroke-linejoin="round"/>
<path d="M73.4453 367H71.9062V357.68L66.125 367H64.5625V355.367H66.1016V364.547L71.8125 355.367H73.4453V367ZM87.5859 367H76.4609V358.273H77.9297V365.734H81.2891V358.273H82.7578V365.734H86.1172V358.273H87.5859V367ZM98.3516 367H96.4297L92.8047 363H92.0078V367H90.5391V358.273H92.0078V362.039C92.4922 362.039 92.8828 361.953 93.1797 361.781C93.4766 361.604 93.7292 361.323 93.9375 360.938C94.0104 360.797 94.0807 360.648 94.1484 360.492C94.2214 360.331 94.2917 360.177 94.3594 360.031C94.6302 359.443 94.9688 359.003 95.375 358.711C95.7812 358.419 96.3646 358.273 97.125 358.273H97.7969V359.539H97.1484C96.737 359.539 96.4141 359.628 96.1797 359.805C95.9505 359.977 95.7422 360.281 95.5547 360.719C95.3464 361.208 95.125 361.576 94.8906 361.82C94.6615 362.06 94.4167 362.242 94.1562 362.367L98.3516 367ZM107.25 362.789H100.82C100.82 363.326 100.901 363.794 101.062 364.195C101.224 364.591 101.445 364.917 101.727 365.172C101.997 365.422 102.318 365.609 102.688 365.734C103.062 365.859 103.474 365.922 103.922 365.922C104.516 365.922 105.112 365.805 105.711 365.57C106.315 365.331 106.745 365.096 107 364.867H107.078V366.469C106.583 366.677 106.078 366.852 105.562 366.992C105.047 367.133 104.505 367.203 103.938 367.203C102.49 367.203 101.359 366.812 100.547 366.031C99.7344 365.245 99.3281 364.13 99.3281 362.688C99.3281 361.26 99.7161 360.128 100.492 359.289C101.273 358.451 102.299 358.031 103.57 358.031C104.747 358.031 105.654 358.375 106.289 359.062C106.93 359.75 107.25 360.727 107.25 361.992V362.789ZM105.82 361.664C105.815 360.893 105.62 360.297 105.234 359.875C104.854 359.453 104.273 359.242 103.492 359.242C102.706 359.242 102.078 359.474 101.609 359.938C101.146 360.401 100.883 360.977 100.82 361.664H105.82ZM117.156 362.531C117.156 363.24 117.055 363.888 116.852 364.477C116.648 365.06 116.362 365.555 115.992 365.961C115.648 366.346 115.242 366.646 114.773 366.859C114.31 367.068 113.818 367.172 113.297 367.172C112.844 367.172 112.432 367.122 112.062 367.023C111.698 366.924 111.326 366.771 110.945 366.562V370.219H109.477V358.273H110.945V359.188C111.336 358.859 111.773 358.586 112.258 358.367C112.747 358.143 113.268 358.031 113.82 358.031C114.872 358.031 115.69 358.43 116.273 359.227C116.862 360.018 117.156 361.12 117.156 362.531ZM115.641 362.57C115.641 361.518 115.461 360.732 115.102 360.211C114.742 359.69 114.19 359.43 113.445 359.43C113.023 359.43 112.599 359.521 112.172 359.703C111.745 359.885 111.336 360.125 110.945 360.422V365.367C111.362 365.555 111.719 365.682 112.016 365.75C112.318 365.818 112.659 365.852 113.039 365.852C113.857 365.852 114.495 365.576 114.953 365.023C115.411 364.471 115.641 363.654 115.641 362.57ZM127.367 369.094H126V366.977H119.438V369.094H118.07V365.75H119.016C119.625 364.745 120.078 363.586 120.375 362.273C120.677 360.956 120.828 359.622 120.828 358.273H126.312V365.75H127.367V369.094ZM124.844 365.75V359.508H122.211C122.143 360.815 121.943 362.008 121.609 363.086C121.276 364.164 120.893 365.052 120.461 365.75H124.844ZM136.75 367H135.297V360.445L130.727 367H129.398V358.273H130.852V364.734L135.375 358.273H136.75V367ZM147.523 367H145.602L141.977 363H141.18V367H139.711V358.273H141.18V362.039C141.664 362.039 142.055 361.953 142.352 361.781C142.648 361.604 142.901 361.323 143.109 360.938C143.182 360.797 143.253 360.648 143.32 360.492C143.393 360.331 143.464 360.177 143.531 360.031C143.802 359.443 144.141 359.003 144.547 358.711C144.953 358.419 145.536 358.273 146.297 358.273H146.969V359.539H146.32C145.909 359.539 145.586 359.628 145.352 359.805C145.122 359.977 144.914 360.281 144.727 360.719C144.518 361.208 144.297 361.576 144.062 361.82C143.833 362.06 143.589 362.242 143.328 362.367L147.523 367ZM73.9141 386H71.9297L67.2031 380.695H66.1484V386H64.6016V374.367H66.1484V379.586C66.4141 379.581 66.6641 379.555 66.8984 379.508C67.1328 379.461 67.3542 379.372 67.5625 379.242C67.7708 379.122 67.9766 378.953 68.1797 378.734C68.3828 378.51 68.5625 378.237 68.7188 377.914C68.7865 377.773 68.8646 377.596 68.9531 377.383C69.0469 377.169 69.1406 376.945 69.2344 376.711C69.5938 375.846 70.013 375.24 70.4922 374.891C70.9766 374.542 71.6875 374.367 72.625 374.367H73.2422V375.75H72.5938C72.2344 375.75 71.9531 375.784 71.75 375.852C71.5469 375.914 71.3646 376.021 71.2031 376.172C71.0521 376.307 70.9193 376.49 70.8047 376.719C70.6953 376.948 70.5807 377.216 70.4609 377.523C70.1901 378.211 69.9141 378.716 69.6328 379.039C69.3568 379.362 68.9844 379.643 68.5156 379.883L73.9141 386ZM82.9766 381.641C82.9766 383.062 82.612 384.185 81.8828 385.008C81.1536 385.831 80.1771 386.242 78.9531 386.242C77.7188 386.242 76.737 385.831 76.0078 385.008C75.2839 384.185 74.9219 383.062 74.9219 381.641C74.9219 380.219 75.2839 379.096 76.0078 378.273C76.737 377.445 77.7188 377.031 78.9531 377.031C80.1771 377.031 81.1536 377.445 81.8828 378.273C82.612 379.096 82.9766 380.219 82.9766 381.641ZM81.4609 381.641C81.4609 380.51 81.2396 379.672 80.7969 379.125C80.3542 378.573 79.7396 378.297 78.9531 378.297C78.1562 378.297 77.5365 378.573 77.0938 379.125C76.6562 379.672 76.4375 380.51 76.4375 381.641C76.4375 382.734 76.6589 383.565 77.1016 384.133C77.5443 384.695 78.1615 384.977 78.9531 384.977C79.7344 384.977 80.3464 384.698 80.7891 384.141C81.237 383.578 81.4609 382.745 81.4609 381.641ZM92.5625 386H91.0938V382.07H86.7266V386H85.2578V377.273H86.7266V380.805H91.0938V377.273H92.5625V386ZM101.992 385.453C101.393 385.734 100.878 385.927 100.445 386.031C100.018 386.141 99.5911 386.195 99.1641 386.195C98.5286 386.195 97.9453 386.104 97.4141 385.922C96.8828 385.734 96.4271 385.453 96.0469 385.078C95.6667 384.703 95.3698 384.229 95.1562 383.656C94.9479 383.083 94.8438 382.414 94.8438 381.648C94.8438 380.258 95.2292 379.148 96 378.32C96.7708 377.487 97.8255 377.07 99.1641 377.07C99.6693 377.07 100.164 377.141 100.648 377.281C101.138 377.422 101.586 377.594 101.992 377.797V379.43H101.906C101.422 379.06 100.943 378.786 100.469 378.609C100 378.432 99.5443 378.344 99.1016 378.344C98.2318 378.344 97.5573 378.635 97.0781 379.219C96.6042 379.802 96.3672 380.612 96.3672 381.648C96.3672 382.685 96.6042 383.49 97.0781 384.062C97.5521 384.635 98.2266 384.922 99.1016 384.922C99.4089 384.922 99.7135 384.883 100.016 384.805C100.323 384.727 100.602 384.625 100.852 384.5C101.049 384.401 101.253 384.284 101.461 384.148C101.674 384.008 101.823 383.904 101.906 383.836H101.992V385.453ZM111.555 377.273L106.461 389.219H104.891L106.516 385.578L103.039 377.273H104.633L107.312 383.742L110.016 377.273H111.555ZM120.516 386H119.047V378.508H115.789C115.773 378.94 115.758 379.357 115.742 379.758C115.727 380.159 115.711 380.521 115.695 380.844C115.659 381.714 115.599 382.409 115.516 382.93C115.432 383.445 115.323 383.875 115.188 384.219C115.062 384.542 114.922 384.805 114.766 385.008C114.615 385.206 114.451 385.385 114.273 385.547C114.096 385.703 113.898 385.82 113.68 385.898C113.466 385.977 113.232 386.016 112.977 386.016C112.888 386.016 112.758 386.013 112.586 386.008C112.419 386.003 112.31 386 112.258 386V384.719H112.336C112.378 384.719 112.438 384.721 112.516 384.727C112.594 384.732 112.659 384.734 112.711 384.734C112.836 384.734 112.964 384.716 113.094 384.68C113.229 384.643 113.344 384.576 113.438 384.477C113.703 384.216 113.917 383.776 114.078 383.156C114.24 382.536 114.346 381.641 114.398 380.469C114.419 380.042 114.438 379.536 114.453 378.953C114.474 378.365 114.492 377.805 114.508 377.273H120.516V386ZM128.867 383.32C128.867 383.055 128.82 382.823 128.727 382.625C128.638 382.422 128.49 382.258 128.281 382.133C128.062 382.003 127.812 381.924 127.531 381.898C127.255 381.872 126.857 381.859 126.336 381.859H124.883V384.828H126.305C126.826 384.828 127.229 384.807 127.516 384.766C127.802 384.719 128.049 384.633 128.258 384.508C128.471 384.372 128.625 384.214 128.719 384.031C128.818 383.844 128.867 383.607 128.867 383.32ZM130.383 383.297C130.383 383.719 130.297 384.102 130.125 384.445C129.958 384.789 129.729 385.068 129.438 385.281C129.094 385.542 128.727 385.727 128.336 385.836C127.945 385.945 127.443 386 126.828 386H123.414V377.273H124.883V380.672H126.867C127.523 380.672 128.031 380.706 128.391 380.773C128.755 380.841 129.117 381.008 129.477 381.273C129.779 381.497 130.005 381.784 130.156 382.133C130.307 382.482 130.383 382.87 130.383 383.297ZM138.969 378.562H135.812V386H134.344V378.562H131.188V377.273H138.969V378.562ZM147.273 386H145.812V385.07C145.682 385.159 145.505 385.284 145.281 385.445C145.062 385.602 144.849 385.727 144.641 385.82C144.396 385.94 144.115 386.039 143.797 386.117C143.479 386.201 143.107 386.242 142.68 386.242C141.893 386.242 141.227 385.982 140.68 385.461C140.133 384.94 139.859 384.276 139.859 383.469C139.859 382.807 140 382.273 140.281 381.867C140.568 381.456 140.974 381.133 141.5 380.898C142.031 380.664 142.669 380.505 143.414 380.422C144.159 380.339 144.958 380.276 145.812 380.234V380.008C145.812 379.674 145.753 379.398 145.633 379.18C145.518 378.961 145.352 378.789 145.133 378.664C144.924 378.544 144.674 378.464 144.383 378.422C144.091 378.38 143.786 378.359 143.469 378.359C143.083 378.359 142.654 378.411 142.18 378.516C141.706 378.615 141.216 378.76 140.711 378.953H140.633V377.461C140.919 377.383 141.333 377.297 141.875 377.203C142.417 377.109 142.951 377.062 143.477 377.062C144.091 377.062 144.625 377.115 145.078 377.219C145.536 377.318 145.932 377.49 146.266 377.734C146.594 377.974 146.844 378.284 147.016 378.664C147.188 379.044 147.273 379.516 147.273 380.078V386ZM145.812 383.852V381.422C145.365 381.448 144.836 381.487 144.227 381.539C143.622 381.591 143.143 381.667 142.789 381.766C142.367 381.885 142.026 382.073 141.766 382.328C141.505 382.578 141.375 382.924 141.375 383.367C141.375 383.867 141.526 384.245 141.828 384.5C142.13 384.75 142.591 384.875 143.211 384.875C143.727 384.875 144.198 384.776 144.625 384.578C145.052 384.375 145.448 384.133 145.812 383.852ZM157.023 386H150.102V377.273H151.57V384.734H155.867V377.273H157.336V384.734H158.391V388.094H157.023V386ZM167.766 386H166.312V379.445L161.742 386H160.414V377.273H161.867V383.734L166.391 377.273H167.766V386ZM177.367 386H175.898V382.539H174.172L171.469 386H169.742L172.68 382.398C171.924 382.19 171.372 381.872 171.023 381.445C170.674 381.013 170.5 380.448 170.5 379.75C170.5 379.286 170.604 378.893 170.812 378.57C171.021 378.247 171.284 377.984 171.602 377.781C171.914 377.583 172.273 377.451 172.68 377.383C173.086 377.31 173.529 377.273 174.008 377.273H177.367V386ZM175.898 381.383V378.445H174.047C173.646 378.445 173.357 378.458 173.18 378.484C173.003 378.51 172.81 378.581 172.602 378.695C172.398 378.81 172.247 378.966 172.148 379.164C172.055 379.357 172.008 379.568 172.008 379.797C172.008 380.083 172.036 380.315 172.094 380.492C172.156 380.669 172.281 380.836 172.469 380.992C172.661 381.143 172.896 381.247 173.172 381.305C173.448 381.357 173.755 381.383 174.094 381.383H175.898ZM187.297 386H185.828V378.508H182.57C182.555 378.94 182.539 379.357 182.523 379.758C182.508 380.159 182.492 380.521 182.477 380.844C182.44 381.714 182.38 382.409 182.297 382.93C182.214 383.445 182.104 383.875 181.969 384.219C181.844 384.542 181.703 384.805 181.547 385.008C181.396 385.206 181.232 385.385 181.055 385.547C180.878 385.703 180.68 385.82 180.461 385.898C180.247 385.977 180.013 386.016 179.758 386.016C179.669 386.016 179.539 386.013 179.367 386.008C179.201 386.003 179.091 386 179.039 386V384.719H179.117C179.159 384.719 179.219 384.721 179.297 384.727C179.375 384.732 179.44 384.734 179.492 384.734C179.617 384.734 179.745 384.716 179.875 384.68C180.01 384.643 180.125 384.576 180.219 384.477C180.484 384.216 180.698 383.776 180.859 383.156C181.021 382.536 181.128 381.641 181.18 380.469C181.201 380.042 181.219 379.536 181.234 378.953C181.255 378.365 181.273 377.805 181.289 377.273H187.297V386ZM196.977 386H195.516V385.07C195.385 385.159 195.208 385.284 194.984 385.445C194.766 385.602 194.552 385.727 194.344 385.82C194.099 385.94 193.818 386.039 193.5 386.117C193.182 386.201 192.81 386.242 192.383 386.242C191.596 386.242 190.93 385.982 190.383 385.461C189.836 384.94 189.562 384.276 189.562 383.469C189.562 382.807 189.703 382.273 189.984 381.867C190.271 381.456 190.677 381.133 191.203 380.898C191.734 380.664 192.372 380.505 193.117 380.422C193.862 380.339 194.661 380.276 195.516 380.234V380.008C195.516 379.674 195.456 379.398 195.336 379.18C195.221 378.961 195.055 378.789 194.836 378.664C194.628 378.544 194.378 378.464 194.086 378.422C193.794 378.38 193.49 378.359 193.172 378.359C192.786 378.359 192.357 378.411 191.883 378.516C191.409 378.615 190.919 378.76 190.414 378.953H190.336V377.461C190.622 377.383 191.036 377.297 191.578 377.203C192.12 377.109 192.654 377.062 193.18 377.062C193.794 377.062 194.328 377.115 194.781 377.219C195.24 377.318 195.635 377.49 195.969 377.734C196.297 377.974 196.547 378.284 196.719 378.664C196.891 379.044 196.977 379.516 196.977 380.078V386ZM195.516 383.852V381.422C195.068 381.448 194.539 381.487 193.93 381.539C193.326 381.591 192.846 381.667 192.492 381.766C192.07 381.885 191.729 382.073 191.469 382.328C191.208 382.578 191.078 382.924 191.078 383.367C191.078 383.867 191.229 384.245 191.531 384.5C191.833 384.75 192.294 384.875 192.914 384.875C193.43 384.875 193.901 384.776 194.328 384.578C194.755 384.375 195.151 384.133 195.516 383.852ZM207.484 381.531C207.484 382.24 207.383 382.888 207.18 383.477C206.977 384.06 206.69 384.555 206.32 384.961C205.977 385.346 205.57 385.646 205.102 385.859C204.638 386.068 204.146 386.172 203.625 386.172C203.172 386.172 202.76 386.122 202.391 386.023C202.026 385.924 201.654 385.771 201.273 385.562V389.219H199.805V377.273H201.273V378.188C201.664 377.859 202.102 377.586 202.586 377.367C203.076 377.143 203.596 377.031 204.148 377.031C205.201 377.031 206.018 377.43 206.602 378.227C207.19 379.018 207.484 380.12 207.484 381.531ZM205.969 381.57C205.969 380.518 205.789 379.732 205.43 379.211C205.07 378.69 204.518 378.43 203.773 378.43C203.352 378.43 202.927 378.521 202.5 378.703C202.073 378.885 201.664 379.125 201.273 379.422V384.367C201.69 384.555 202.047 384.682 202.344 384.75C202.646 384.818 202.987 384.852 203.367 384.852C204.185 384.852 204.823 384.576 205.281 384.023C205.74 383.471 205.969 382.654 205.969 381.57ZM217.695 388.094H216.328V385.977H209.766V388.094H208.398V384.75H209.344C209.953 383.745 210.406 382.586 210.703 381.273C211.005 379.956 211.156 378.622 211.156 377.273H216.641V384.75H217.695V388.094ZM215.172 384.75V378.508H212.539C212.471 379.815 212.271 381.008 211.938 382.086C211.604 383.164 211.221 384.052 210.789 384.75H215.172ZM225.102 383.32C225.102 383.055 225.055 382.823 224.961 382.625C224.872 382.422 224.724 382.258 224.516 382.133C224.297 382.003 224.047 381.924 223.766 381.898C223.49 381.872 223.091 381.859 222.57 381.859H221.195V384.828H222.539C223.06 384.828 223.464 384.807 223.75 384.766C224.036 384.719 224.284 384.633 224.492 384.508C224.706 384.372 224.859 384.214 224.953 384.031C225.052 383.844 225.102 383.607 225.102 383.32ZM226.617 383.297C226.617 383.719 226.531 384.102 226.359 384.445C226.193 384.789 225.964 385.068 225.672 385.281C225.328 385.542 224.961 385.727 224.57 385.836C224.18 385.945 223.677 386 223.062 386H219.727V377.273H221.195V380.672H223.102C223.758 380.672 224.266 380.706 224.625 380.773C224.99 380.841 225.352 381.008 225.711 381.273C226.013 381.497 226.24 381.784 226.391 382.133C226.542 382.482 226.617 382.87 226.617 383.297ZM228.078 377.273H229.547V386H228.078V377.273ZM71.9922 396.273L66.8984 408.219H65.3281L66.9531 404.578L63.4766 396.273H65.0703L67.75 402.742L70.4531 396.273H71.9922ZM83.5469 400.641C83.5469 399.521 83.3307 398.685 82.8984 398.133C82.4661 397.576 81.8672 397.297 81.1016 397.297C80.3047 397.297 79.6953 397.589 79.2734 398.172C78.8568 398.75 78.6484 399.573 78.6484 400.641C78.6484 401.745 78.8672 402.578 79.3047 403.141C79.7422 403.698 80.3411 403.977 81.1016 403.977C81.862 403.977 82.4583 403.701 82.8906 403.148C83.3281 402.591 83.5469 401.755 83.5469 400.641ZM77.1953 401.047H75.3828V405H73.9141V396.273H75.3828V399.812H77.2344C77.3646 398.609 77.7839 397.68 78.4922 397.023C79.2057 396.362 80.0807 396.031 81.1172 396.031C82.3203 396.031 83.2786 396.443 83.9922 397.266C84.7057 398.089 85.0625 399.214 85.0625 400.641C85.0625 402.052 84.7109 403.172 84.0078 404C83.3047 404.828 82.3411 405.242 81.1172 405.242C79.9609 405.242 79.0339 404.867 78.3359 404.117C77.6432 403.367 77.263 402.344 77.1953 401.047ZM98.4609 405H87.3359V396.273H88.8047V403.734H92.1641V396.273H93.6328V403.734H96.9922V396.273H98.4609V405ZM107.766 397.562H104.609V405H103.141V397.562H99.9844V396.273H107.766V397.562ZM116.836 396.273L111.742 408.219H110.172L111.797 404.578L108.32 396.273H109.914L112.594 402.742L115.297 396.273H116.836ZM126.438 400.531C126.438 401.24 126.336 401.888 126.133 402.477C125.93 403.06 125.643 403.555 125.273 403.961C124.93 404.346 124.523 404.646 124.055 404.859C123.591 405.068 123.099 405.172 122.578 405.172C122.125 405.172 121.714 405.122 121.344 405.023C120.979 404.924 120.607 404.771 120.227 404.562V408.219H118.758V396.273H120.227V397.188C120.617 396.859 121.055 396.586 121.539 396.367C122.029 396.143 122.549 396.031 123.102 396.031C124.154 396.031 124.971 396.43 125.555 397.227C126.143 398.018 126.438 399.12 126.438 400.531ZM124.922 400.57C124.922 399.518 124.742 398.732 124.383 398.211C124.023 397.69 123.471 397.43 122.727 397.43C122.305 397.43 121.88 397.521 121.453 397.703C121.026 397.885 120.617 398.125 120.227 398.422V403.367C120.643 403.555 121 403.682 121.297 403.75C121.599 403.818 121.94 403.852 122.32 403.852C123.138 403.852 123.776 403.576 124.234 403.023C124.693 402.471 124.922 401.654 124.922 400.57ZM136.273 396.273L131.18 408.219H129.609L131.234 404.578L127.758 396.273H129.352L132.031 402.742L134.734 396.273H136.273ZM145.742 396.273L140.648 408.219H139.078L140.703 404.578L137.227 396.273H138.82L141.5 402.742L144.203 396.273H145.742Z" fill="#333333"/>
<path d="M30 439L37.5 446.5L50 431.5" stroke="#61B857" stroke-width="2" stroke-linecap="round" stroke-linejoin="round"/>
<path d="M73.4453 445.5H71.9062V436.18L66.125 445.5H64.5625V433.867H66.1016V443.047L71.8125 433.867H73.4453V445.5ZM87.5859 445.5H76.4609V436.773H77.9297V444.234H81.2891V436.773H82.7578V444.234H86.1172V436.773H87.5859V445.5ZM105.203 444.656C104.917 444.781 104.656 444.898 104.422 445.008C104.193 445.117 103.891 445.232 103.516 445.352C103.198 445.451 102.852 445.534 102.477 445.602C102.107 445.674 101.698 445.711 101.25 445.711C100.406 445.711 99.638 445.594 98.9453 445.359C98.2578 445.12 97.6589 444.747 97.1484 444.242C96.6484 443.747 96.2578 443.12 95.9766 442.359C95.6953 441.594 95.5547 440.706 95.5547 439.695C95.5547 438.737 95.6901 437.88 95.9609 437.125C96.2318 436.37 96.6224 435.732 97.1328 435.211C97.6276 434.706 98.224 434.32 98.9219 434.055C99.625 433.789 100.404 433.656 101.258 433.656C101.883 433.656 102.505 433.732 103.125 433.883C103.75 434.034 104.443 434.299 105.203 434.68V436.516H105.086C104.445 435.979 103.81 435.589 103.18 435.344C102.549 435.099 101.875 434.977 101.156 434.977C100.568 434.977 100.036 435.073 99.5625 435.266C99.0938 435.453 98.6745 435.747 98.3047 436.148C97.9453 436.539 97.6641 437.034 97.4609 437.633C97.263 438.227 97.1641 438.914 97.1641 439.695C97.1641 440.513 97.2734 441.216 97.4922 441.805C97.7161 442.393 98.0026 442.872 98.3516 443.242C98.7161 443.628 99.1406 443.914 99.625 444.102C100.115 444.284 100.63 444.375 101.172 444.375C101.917 444.375 102.615 444.247 103.266 443.992C103.917 443.737 104.526 443.354 105.094 442.844H105.203V444.656ZM114.055 445.5H112.594V444.57C112.464 444.659 112.286 444.784 112.062 444.945C111.844 445.102 111.63 445.227 111.422 445.32C111.177 445.44 110.896 445.539 110.578 445.617C110.26 445.701 109.888 445.742 109.461 445.742C108.674 445.742 108.008 445.482 107.461 444.961C106.914 444.44 106.641 443.776 106.641 442.969C106.641 442.307 106.781 441.773 107.062 441.367C107.349 440.956 107.755 440.633 108.281 440.398C108.812 440.164 109.451 440.005 110.195 439.922C110.94 439.839 111.74 439.776 112.594 439.734V439.508C112.594 439.174 112.534 438.898 112.414 438.68C112.299 438.461 112.133 438.289 111.914 438.164C111.706 438.044 111.456 437.964 111.164 437.922C110.872 437.88 110.568 437.859 110.25 437.859C109.865 437.859 109.435 437.911 108.961 438.016C108.487 438.115 107.997 438.26 107.492 438.453H107.414V436.961C107.701 436.883 108.115 436.797 108.656 436.703C109.198 436.609 109.732 436.562 110.258 436.562C110.872 436.562 111.406 436.615 111.859 436.719C112.318 436.818 112.714 436.99 113.047 437.234C113.375 437.474 113.625 437.784 113.797 438.164C113.969 438.544 114.055 439.016 114.055 439.578V445.5ZM112.594 443.352V440.922C112.146 440.948 111.617 440.987 111.008 441.039C110.404 441.091 109.924 441.167 109.57 441.266C109.148 441.385 108.807 441.573 108.547 441.828C108.286 442.078 108.156 442.424 108.156 442.867C108.156 443.367 108.307 443.745 108.609 444C108.911 444.25 109.372 444.375 109.992 444.375C110.508 444.375 110.979 444.276 111.406 444.078C111.833 443.875 112.229 443.633 112.594 443.352ZM124.188 445.5H122.719V438.039H118.352V445.5H116.883V436.773H124.188V445.5ZM133.867 445.5H132.406V444.57C132.276 444.659 132.099 444.784 131.875 444.945C131.656 445.102 131.443 445.227 131.234 445.32C130.99 445.44 130.708 445.539 130.391 445.617C130.073 445.701 129.701 445.742 129.273 445.742C128.487 445.742 127.82 445.482 127.273 444.961C126.727 444.44 126.453 443.776 126.453 442.969C126.453 442.307 126.594 441.773 126.875 441.367C127.161 440.956 127.568 440.633 128.094 440.398C128.625 440.164 129.263 440.005 130.008 439.922C130.753 439.839 131.552 439.776 132.406 439.734V439.508C132.406 439.174 132.346 438.898 132.227 438.68C132.112 438.461 131.945 438.289 131.727 438.164C131.518 438.044 131.268 437.964 130.977 437.922C130.685 437.88 130.38 437.859 130.062 437.859C129.677 437.859 129.247 437.911 128.773 438.016C128.299 438.115 127.81 438.26 127.305 438.453H127.227V436.961C127.513 436.883 127.927 436.797 128.469 436.703C129.01 436.609 129.544 436.562 130.07 436.562C130.685 436.562 131.219 436.615 131.672 436.719C132.13 436.818 132.526 436.99 132.859 437.234C133.188 437.474 133.438 437.784 133.609 438.164C133.781 438.544 133.867 439.016 133.867 439.578V445.5ZM132.406 443.352V440.922C131.958 440.948 131.43 440.987 130.82 441.039C130.216 441.091 129.737 441.167 129.383 441.266C128.961 441.385 128.62 441.573 128.359 441.828C128.099 442.078 127.969 442.424 127.969 442.867C127.969 443.367 128.12 443.745 128.422 444C128.724 444.25 129.185 444.375 129.805 444.375C130.32 444.375 130.792 444.276 131.219 444.078C131.646 443.875 132.042 443.633 132.406 443.352ZM144.375 441.031C144.375 441.74 144.273 442.388 144.07 442.977C143.867 443.56 143.581 444.055 143.211 444.461C142.867 444.846 142.461 445.146 141.992 445.359C141.529 445.568 141.036 445.672 140.516 445.672C140.062 445.672 139.651 445.622 139.281 445.523C138.917 445.424 138.544 445.271 138.164 445.062V448.719H136.695V436.773H138.164V437.688C138.555 437.359 138.992 437.086 139.477 436.867C139.966 436.643 140.487 436.531 141.039 436.531C142.091 436.531 142.909 436.93 143.492 437.727C144.081 438.518 144.375 439.62 144.375 441.031ZM142.859 441.07C142.859 440.018 142.68 439.232 142.32 438.711C141.961 438.19 141.409 437.93 140.664 437.93C140.242 437.93 139.818 438.021 139.391 438.203C138.964 438.385 138.555 438.625 138.164 438.922V443.867C138.581 444.055 138.938 444.182 139.234 444.25C139.536 444.318 139.878 444.352 140.258 444.352C141.076 444.352 141.714 444.076 142.172 443.523C142.63 442.971 142.859 442.154 142.859 441.07ZM153.703 445.5H152.234V438.008H148.977C148.961 438.44 148.945 438.857 148.93 439.258C148.914 439.659 148.898 440.021 148.883 440.344C148.846 441.214 148.786 441.909 148.703 442.43C148.62 442.945 148.51 443.375 148.375 443.719C148.25 444.042 148.109 444.305 147.953 444.508C147.802 444.706 147.638 444.885 147.461 445.047C147.284 445.203 147.086 445.32 146.867 445.398C146.654 445.477 146.419 445.516 146.164 445.516C146.076 445.516 145.945 445.513 145.773 445.508C145.607 445.503 145.497 445.5 145.445 445.5V444.219H145.523C145.565 444.219 145.625 444.221 145.703 444.227C145.781 444.232 145.846 444.234 145.898 444.234C146.023 444.234 146.151 444.216 146.281 444.18C146.417 444.143 146.531 444.076 146.625 443.977C146.891 443.716 147.104 443.276 147.266 442.656C147.427 442.036 147.534 441.141 147.586 439.969C147.607 439.542 147.625 439.036 147.641 438.453C147.661 437.865 147.68 437.305 147.695 436.773H153.703V445.5ZM163.383 445.5H161.922V444.57C161.792 444.659 161.615 444.784 161.391 444.945C161.172 445.102 160.958 445.227 160.75 445.32C160.505 445.44 160.224 445.539 159.906 445.617C159.589 445.701 159.216 445.742 158.789 445.742C158.003 445.742 157.336 445.482 156.789 444.961C156.242 444.44 155.969 443.776 155.969 442.969C155.969 442.307 156.109 441.773 156.391 441.367C156.677 440.956 157.083 440.633 157.609 440.398C158.141 440.164 158.779 440.005 159.523 439.922C160.268 439.839 161.068 439.776 161.922 439.734V439.508C161.922 439.174 161.862 438.898 161.742 438.68C161.628 438.461 161.461 438.289 161.242 438.164C161.034 438.044 160.784 437.964 160.492 437.922C160.201 437.88 159.896 437.859 159.578 437.859C159.193 437.859 158.763 437.911 158.289 438.016C157.815 438.115 157.326 438.26 156.82 438.453H156.742V436.961C157.029 436.883 157.443 436.797 157.984 436.703C158.526 436.609 159.06 436.562 159.586 436.562C160.201 436.562 160.734 436.615 161.188 436.719C161.646 436.818 162.042 436.99 162.375 437.234C162.703 437.474 162.953 437.784 163.125 438.164C163.297 438.544 163.383 439.016 163.383 439.578V445.5ZM161.922 443.352V440.922C161.474 440.948 160.945 440.987 160.336 441.039C159.732 441.091 159.253 441.167 158.898 441.266C158.477 441.385 158.135 441.573 157.875 441.828C157.615 442.078 157.484 442.424 157.484 442.867C157.484 443.367 157.635 443.745 157.938 444C158.24 444.25 158.701 444.375 159.32 444.375C159.836 444.375 160.307 444.276 160.734 444.078C161.161 443.875 161.557 443.633 161.922 443.352ZM173.891 441.031C173.891 441.74 173.789 442.388 173.586 442.977C173.383 443.56 173.096 444.055 172.727 444.461C172.383 444.846 171.977 445.146 171.508 445.359C171.044 445.568 170.552 445.672 170.031 445.672C169.578 445.672 169.167 445.622 168.797 445.523C168.432 445.424 168.06 445.271 167.68 445.062V448.719H166.211V436.773H167.68V437.688C168.07 437.359 168.508 437.086 168.992 436.867C169.482 436.643 170.003 436.531 170.555 436.531C171.607 436.531 172.424 436.93 173.008 437.727C173.596 438.518 173.891 439.62 173.891 441.031ZM172.375 441.07C172.375 440.018 172.195 439.232 171.836 438.711C171.477 438.19 170.924 437.93 170.18 437.93C169.758 437.93 169.333 438.021 168.906 438.203C168.479 438.385 168.07 438.625 167.68 438.922V443.867C168.096 444.055 168.453 444.182 168.75 444.25C169.052 444.318 169.393 444.352 169.773 444.352C170.591 444.352 171.229 444.076 171.688 443.523C172.146 442.971 172.375 442.154 172.375 441.07ZM184.102 447.594H182.734V445.477H176.172V447.594H174.805V444.25H175.75C176.359 443.245 176.812 442.086 177.109 440.773C177.411 439.456 177.562 438.122 177.562 436.773H183.047V444.25H184.102V447.594ZM181.578 444.25V438.008H178.945C178.878 439.315 178.677 440.508 178.344 441.586C178.01 442.664 177.628 443.552 177.195 444.25H181.578ZM191.508 442.82C191.508 442.555 191.461 442.323 191.367 442.125C191.279 441.922 191.13 441.758 190.922 441.633C190.703 441.503 190.453 441.424 190.172 441.398C189.896 441.372 189.497 441.359 188.977 441.359H187.602V444.328H188.945C189.466 444.328 189.87 444.307 190.156 444.266C190.443 444.219 190.69 444.133 190.898 444.008C191.112 443.872 191.266 443.714 191.359 443.531C191.458 443.344 191.508 443.107 191.508 442.82ZM193.023 442.797C193.023 443.219 192.938 443.602 192.766 443.945C192.599 444.289 192.37 444.568 192.078 444.781C191.734 445.042 191.367 445.227 190.977 445.336C190.586 445.445 190.083 445.5 189.469 445.5H186.133V436.773H187.602V440.172H189.508C190.164 440.172 190.672 440.206 191.031 440.273C191.396 440.341 191.758 440.508 192.117 440.773C192.419 440.997 192.646 441.284 192.797 441.633C192.948 441.982 193.023 442.37 193.023 442.797ZM194.484 436.773H195.953V445.5H194.484V436.773ZM212.828 433.867L208.406 443.656C208.229 444.052 208.018 444.378 207.773 444.633C207.534 444.888 207.273 445.086 206.992 445.227C206.721 445.357 206.458 445.445 206.203 445.492C205.953 445.534 205.711 445.555 205.477 445.555C205.268 445.555 205.016 445.544 204.719 445.523C204.422 445.503 204.232 445.49 204.148 445.484V444.039H204.258C204.336 444.049 204.466 444.068 204.648 444.094C204.831 444.115 205.039 444.125 205.273 444.125C205.378 444.125 205.523 444.117 205.711 444.102C205.898 444.086 206.065 444.049 206.211 443.992C206.378 443.93 206.542 443.831 206.703 443.695C206.87 443.56 207.01 443.362 207.125 443.102L207.406 442.484L203.078 433.867H204.789L208.188 440.727L211.234 433.867H212.828ZM223.953 441.141C223.953 440.021 223.737 439.185 223.305 438.633C222.872 438.076 222.273 437.797 221.508 437.797C220.711 437.797 220.102 438.089 219.68 438.672C219.263 439.25 219.055 440.073 219.055 441.141C219.055 442.245 219.273 443.078 219.711 443.641C220.148 444.198 220.747 444.477 221.508 444.477C222.268 444.477 222.865 444.201 223.297 443.648C223.734 443.091 223.953 442.255 223.953 441.141ZM217.602 441.547H215.789V445.5H214.32V436.773H215.789V440.312H217.641C217.771 439.109 218.19 438.18 218.898 437.523C219.612 436.862 220.487 436.531 221.523 436.531C222.727 436.531 223.685 436.943 224.398 437.766C225.112 438.589 225.469 439.714 225.469 441.141C225.469 442.552 225.117 443.672 224.414 444.5C223.711 445.328 222.747 445.742 221.523 445.742C220.367 445.742 219.44 445.367 218.742 444.617C218.049 443.867 217.669 442.844 217.602 441.547ZM238.867 445.5H227.742V436.773H229.211V444.234H232.57V436.773H234.039V444.234H237.398V436.773H238.867V445.5ZM248.172 438.062H245.016V445.5H243.547V438.062H240.391V436.773H248.172V438.062ZM257.242 436.773L252.148 448.719H250.578L252.203 445.078L248.727 436.773H250.32L253 443.242L255.703 436.773H257.242ZM266.844 441.031C266.844 441.74 266.742 442.388 266.539 442.977C266.336 443.56 266.049 444.055 265.68 444.461C265.336 444.846 264.93 445.146 264.461 445.359C263.997 445.568 263.505 445.672 262.984 445.672C262.531 445.672 262.12 445.622 261.75 445.523C261.385 445.424 261.013 445.271 260.633 445.062V448.719H259.164V436.773H260.633V437.688C261.023 437.359 261.461 437.086 261.945 436.867C262.435 436.643 262.956 436.531 263.508 436.531C264.56 436.531 265.378 436.93 265.961 437.727C266.549 438.518 266.844 439.62 266.844 441.031ZM265.328 441.07C265.328 440.018 265.148 439.232 264.789 438.711C264.43 438.19 263.878 437.93 263.133 437.93C262.711 437.93 262.286 438.021 261.859 438.203C261.432 438.385 261.023 438.625 260.633 438.922V443.867C261.049 444.055 261.406 444.182 261.703 444.25C262.005 444.318 262.346 444.352 262.727 444.352C263.544 444.352 264.182 444.076 264.641 443.523C265.099 442.971 265.328 442.154 265.328 441.07ZM276.68 436.773L271.586 448.719H270.016L271.641 445.078L268.164 436.773H269.758L272.438 443.242L275.141 436.773H276.68Z" fill="#333333"/>
</g>
<defs>
<filter id="filter0_d_1763_11059" x="0" y="0" width="326" height="540" filterUnits="userSpaceOnUse" color-interpolation-filters="sRGB">
<feFlood flood-opacity="0" result="BackgroundImageFix"/>
<feColorMatrix in="SourceAlpha" type="matrix" values="0 0 0 0 0 0 0 0 0 0 0 0 0 0 0 0 0 0 127 0" result="hardAlpha"/>
<feOffset dx="3" dy="5"/>
<feGaussianBlur stdDeviation="10"/>
<feComposite in2="hardAlpha" operator="out"/>
<feColorMatrix type="matrix" values="0 0 0 0 0.2 0 0 0 0 0.2 0 0 0 0 0.2 0 0 0 0.1 0"/>
<feBlend mode="normal" in2="BackgroundImageFix" result="effect1_dropShadow_1763_11059"/>
<feBlend mode="normal" in="SourceGraphic" in2="effect1_dropShadow_1763_11059" result="shape"/>
</filter>
<filter id="filter1_d_1763_11059" x="22" y="28" width="112" height="112" filterUnits="userSpaceOnUse" color-interpolation-filters="sRGB">
<feFlood flood-opacity="0" result="BackgroundImageFix"/>
<feColorMatrix in="SourceAlpha" type="matrix" values="0 0 0 0 0 0 0 0 0 0 0 0 0 0 0 0 0 0 127 0" result="hardAlpha"/>
<feOffset dx="3" dy="3"/>
<feGaussianBlur stdDeviation="3"/>
<feComposite in2="hardAlpha" operator="out"/>
<feColorMatrix type="matrix" values="0 0 0 0 0.2 0 0 0 0 0.2 0 0 0 0 0.2 0 0 0 0.25 0"/>
<feBlend mode="normal" in2="BackgroundImageFix" result="effect1_dropShadow_1763_11059"/>
<feBlend mode="normal" in="SourceGraphic" in2="effect1_dropShadow_1763_11059" result="shape"/>
</filter>
</defs>
</svg>
