<svg width="360" height="400" viewBox="0 0 360 400" fill="none" xmlns="http://www.w3.org/2000/svg">
<g filter="url(#filter0_d_1763_10039)">
<rect x="17" width="343" height="400" rx="5" fill="white" shape-rendering="crispEdges"/>
<g filter="url(#filter1_d_1763_10039)">
<path d="M56.3325 32.7705C55.1367 32.7705 54.145 31.7788 54.145 30.583V21.833C54.145 20.6372 55.1367 19.6455 56.3325 19.6455C57.5284 19.6455 58.52 20.6372 58.52 21.833V30.583C58.52 31.7788 57.5284 32.7705 56.3325 32.7705Z" fill="#1959AB"/>
<path d="M79.6675 32.7705C78.4716 32.7705 77.48 31.7788 77.48 30.583V21.833C77.48 20.6372 78.4716 19.6455 79.6675 19.6455C80.8633 19.6455 81.855 20.6372 81.855 21.833V30.583C81.855 31.7788 80.8633 32.7705 79.6675 32.7705Z" fill="#1959AB"/>
<path d="M57.7917 58.292C57.0333 58.292 56.275 57.9711 55.7208 57.4461C55.1958 56.8919 54.875 56.1628 54.875 55.3753C54.875 54.9961 54.9625 54.617 55.1083 54.267C55.2542 53.917 55.4583 53.5962 55.7208 53.3045C56.8 52.2253 58.7542 52.2253 59.8625 53.3045C60.3875 53.8587 60.7083 54.617 60.7083 55.3753C60.7083 55.5503 60.6792 55.7545 60.65 55.9587C60.6208 56.1337 60.5625 56.3086 60.475 56.4836C60.4167 56.6586 60.3292 56.8336 60.2125 57.0086C60.0958 57.1545 59.9792 57.3003 59.8625 57.4461C59.3083 57.9711 58.55 58.292 57.7917 58.292Z" fill="#1959AB"/>
<path d="M67.9992 58.2918C67.62 58.2918 67.2409 58.2043 66.8909 58.0585C66.5117 57.9126 66.22 57.7084 65.9284 57.4459C65.4034 56.8917 65.0825 56.1626 65.0825 55.3751C65.0825 54.9959 65.17 54.6167 65.3159 54.2667C65.4617 53.9167 65.6659 53.596 65.9284 53.3043C66.22 53.0418 66.5117 52.8376 66.8909 52.6917C67.97 52.2542 69.2534 52.4876 70.07 53.3043C70.595 53.8585 70.9159 54.6168 70.9159 55.3751C70.9159 55.5501 70.8867 55.7543 70.8575 55.9585C70.8284 56.1335 70.77 56.3084 70.6825 56.4834C70.6242 56.6584 70.5367 56.8334 70.42 57.0084C70.3325 57.1543 70.1867 57.3001 70.07 57.4459C69.5159 57.9709 68.7575 58.2918 67.9992 58.2918Z" fill="#1959AB"/>
<path d="M57.7917 68.4998C57.4125 68.4998 57.0333 68.4123 56.6833 68.2665C56.3042 68.1207 55.9833 67.9164 55.7208 67.6539C55.4583 67.3914 55.2542 67.0706 55.1083 66.6915C54.9625 66.3415 54.875 65.9623 54.875 65.5831C54.875 65.2039 54.9625 64.8248 55.1083 64.4748C55.2542 64.0956 55.4583 63.7748 55.7208 63.5123C55.9833 63.2498 56.3042 63.0456 56.6833 62.8997C57.3833 62.6081 58.2 62.5789 58.9 62.8997C59.2792 63.0456 59.6 63.2498 59.8625 63.5123C60.125 63.7748 60.3292 64.0956 60.475 64.4748C60.6208 64.8248 60.7083 65.2039 60.7083 65.5831C60.7083 65.9623 60.6208 66.3415 60.475 66.6915C60.3292 67.0706 60.125 67.3914 59.8625 67.6539C59.6 67.9164 59.2792 68.1207 58.9 68.2665C58.55 68.4123 58.1708 68.4998 57.7917 68.4998Z" fill="#1959AB"/>
<path d="M92.7909 44.7002H43.2075C42.0117 44.7002 41.02 43.7085 41.02 42.5127C41.02 41.3169 42.0117 40.3252 43.2075 40.3252H92.7909C93.9867 40.3252 94.9784 41.3169 94.9784 42.5127C94.9784 43.7085 93.9867 44.7002 92.7909 44.7002Z" fill="#1959AB"/>
<path d="M85.4992 85.2708C82.0867 85.2708 78.8492 84.0458 76.37 81.8C75.32 80.925 74.3867 79.8167 73.6284 78.5333C72.345 76.4333 71.645 73.9542 71.645 71.4167C71.645 63.775 77.8575 57.5625 85.4992 57.5625C89.4659 57.5625 93.2575 59.2833 95.8825 62.2583C98.1283 64.825 99.3534 68.0625 99.3534 71.4167C99.3534 73.9542 98.6533 76.4334 97.3408 78.5625C94.8908 82.7042 90.3409 85.2708 85.4992 85.2708ZM85.4992 61.9375C80.2784 61.9375 76.02 66.1958 76.02 71.4167C76.02 73.1375 76.4867 74.8292 77.3909 76.2875C77.8867 77.1625 78.5283 77.8916 79.2283 78.5041C80.9783 80.0791 83.1659 80.8958 85.4992 80.8958C88.8534 80.8958 91.8867 79.175 93.6075 76.3166C94.5117 74.8291 94.9784 73.1667 94.9784 71.4167C94.9784 69.1417 94.1325 66.925 92.6159 65.1459C90.8075 63.1042 88.2117 61.9375 85.4992 61.9375Z" fill="#1959AB"/>
<path d="M83.8372 76.4912C83.2831 76.4912 82.7289 76.287 82.2914 75.8495L79.4039 72.962C78.5581 72.1162 78.5581 70.7162 79.4039 69.8704C80.2497 69.0245 81.6497 69.0245 82.4956 69.8704L83.8956 71.2704L88.5622 66.9537C89.4372 66.137 90.8372 66.1954 91.6539 67.0704C92.4706 67.9454 92.4122 69.3454 91.5372 70.1621L85.3247 75.9079C84.8872 76.2871 84.3622 76.4912 83.8372 76.4912Z" fill="#1959AB"/>
<path d="M77.8292 82.3538H56.3333C45.6875 82.3538 39.5625 76.2288 39.5625 65.583V40.7913C39.5625 30.1455 45.6875 24.0205 56.3333 24.0205H79.6667C90.3125 24.0205 96.4375 30.1455 96.4375 40.7913V63.7163C96.4375 64.6205 95.8833 65.4372 95.0083 65.758C94.1625 66.0788 93.2 65.8455 92.5875 65.1455C90.7792 63.1039 88.1833 61.9372 85.4708 61.9372C80.25 61.9372 75.9917 66.1955 75.9917 71.4163C75.9917 73.1372 76.4583 74.8289 77.3625 76.2872C77.8583 77.1622 78.5 77.8913 79.2 78.5038C79.9 79.0872 80.1625 80.0497 79.8417 80.9247C79.5792 81.7705 78.7625 82.3538 77.8292 82.3538ZM56.3333 28.3955C47.9917 28.3955 43.9375 32.4497 43.9375 40.7913V65.583C43.9375 73.9247 47.9917 77.9788 56.3333 77.9788H73.3083C72.2292 75.9955 71.6458 73.7497 71.6458 71.4163C71.6458 63.7747 77.8583 57.5622 85.5 57.5622C87.8042 57.5622 90.0792 58.1455 92.0625 59.2247V40.7913C92.0625 32.4497 88.0083 28.3955 79.6667 28.3955H56.3333Z" fill="#1959AB"/>
</g>
<path d="M50.9546 123H47.0376V112.777L44.2075 119.411H41.4902L38.6602 112.777V123H34.9482V107.732H39.5215L42.9565 115.392L46.3813 107.732H50.9546V123ZM65.9971 117.924H57.5479C57.6025 118.827 57.9443 119.517 58.5732 119.996C59.209 120.474 60.1421 120.713 61.3726 120.713C62.1519 120.713 62.9072 120.573 63.6387 120.293C64.3701 120.013 64.9478 119.712 65.3716 119.391H65.7817V122.354C64.9478 122.689 64.1616 122.932 63.4233 123.082C62.6851 123.232 61.8682 123.308 60.9727 123.308C58.6621 123.308 56.8916 122.788 55.6611 121.749C54.4307 120.71 53.8154 119.23 53.8154 117.309C53.8154 115.409 54.3965 113.905 55.5586 112.797C56.7275 111.683 58.3271 111.126 60.3574 111.126C62.2305 111.126 63.6387 111.601 64.582 112.551C65.5254 113.495 65.9971 114.855 65.9971 116.632V117.924ZM62.3262 115.761C62.3057 114.988 62.1143 114.407 61.752 114.018C61.3896 113.628 60.8257 113.433 60.0601 113.433C59.3491 113.433 58.7646 113.618 58.3066 113.987C57.8486 114.356 57.5923 114.947 57.5376 115.761H62.3262ZM80.6191 117.083C80.6191 118.034 80.4722 118.898 80.1782 119.678C79.8911 120.457 79.5117 121.1 79.04 121.605C78.5479 122.139 77.9907 122.542 77.3687 122.815C76.7466 123.089 76.0801 123.226 75.3691 123.226C74.7129 123.226 74.1558 123.154 73.6978 123.01C73.2397 122.874 72.7715 122.679 72.293 122.426V127.225H68.6016V111.485H72.293V112.685C72.8604 112.233 73.438 111.868 74.0259 111.587C74.6206 111.307 75.3042 111.167 76.0767 111.167C77.5122 111.167 78.6265 111.693 79.4194 112.746C80.2192 113.799 80.6191 115.245 80.6191 117.083ZM76.8149 117.155C76.8149 116.034 76.6235 115.221 76.2407 114.715C75.8579 114.209 75.2529 113.956 74.4258 113.956C74.0771 113.956 73.7183 114.011 73.3491 114.12C72.98 114.223 72.6279 114.373 72.293 114.571V120.365C72.5391 120.46 72.8022 120.522 73.0825 120.549C73.3628 120.577 73.6396 120.59 73.9131 120.59C74.8906 120.59 75.6187 120.307 76.0972 119.739C76.5757 119.165 76.8149 118.304 76.8149 117.155ZM95.0566 117.248C95.0566 119.141 94.5029 120.635 93.3955 121.729C92.2949 122.815 90.7466 123.359 88.7505 123.359C86.7544 123.359 85.2026 122.815 84.0952 121.729C82.9946 120.635 82.4443 119.141 82.4443 117.248C82.4443 115.34 82.998 113.843 84.1055 112.756C85.2197 111.669 86.7681 111.126 88.7505 111.126C90.7603 111.126 92.312 111.673 93.4058 112.767C94.5063 113.86 95.0566 115.354 95.0566 117.248ZM90.5142 120.047C90.7534 119.753 90.9312 119.401 91.0474 118.991C91.1704 118.574 91.2319 118 91.2319 117.268C91.2319 116.591 91.1704 116.024 91.0474 115.566C90.9243 115.108 90.7534 114.742 90.5347 114.469C90.3159 114.188 90.0527 113.99 89.7451 113.874C89.4375 113.758 89.106 113.7 88.7505 113.7C88.395 113.7 88.0771 113.748 87.7969 113.843C87.5234 113.939 87.2603 114.13 87.0073 114.417C86.7817 114.684 86.6006 115.05 86.4639 115.515C86.334 115.979 86.269 116.564 86.269 117.268C86.269 117.897 86.3271 118.444 86.4434 118.909C86.5596 119.367 86.7305 119.736 86.9561 120.016C87.1748 120.283 87.4346 120.478 87.7354 120.601C88.043 120.724 88.3916 120.785 88.7812 120.785C89.1162 120.785 89.4341 120.73 89.7349 120.621C90.0425 120.505 90.3022 120.313 90.5142 120.047ZM109.33 123H105.639V113.987H101.394V123H97.7021V111.485H109.33V123ZM124.834 117.083C124.834 118.034 124.687 118.898 124.393 119.678C124.106 120.457 123.727 121.1 123.255 121.605C122.763 122.139 122.206 122.542 121.583 122.815C120.961 123.089 120.295 123.226 119.584 123.226C118.928 123.226 118.371 123.154 117.913 123.01C117.455 122.874 116.986 122.679 116.508 122.426V127.225H112.816V111.485H116.508V112.685C117.075 112.233 117.653 111.868 118.241 111.587C118.835 111.307 119.519 111.167 120.292 111.167C121.727 111.167 122.841 111.693 123.634 112.746C124.434 113.799 124.834 115.245 124.834 117.083ZM121.03 117.155C121.03 116.034 120.838 115.221 120.456 114.715C120.073 114.209 119.468 113.956 118.641 113.956C118.292 113.956 117.933 114.011 117.564 114.12C117.195 114.223 116.843 114.373 116.508 114.571V120.365C116.754 120.46 117.017 120.522 117.297 120.549C117.578 120.577 117.854 120.59 118.128 120.59C119.105 120.59 119.833 120.307 120.312 119.739C120.791 119.165 121.03 118.304 121.03 117.155ZM139.138 123H135.56V115.956L130.556 123H127.5V111.485H131.079V117.791L135.713 111.485H139.138V123ZM153.463 123H149.782V119.001H148.131L145.373 123H141.24L144.542 118.488C143.77 118.14 143.182 117.702 142.778 117.176C142.382 116.643 142.184 115.908 142.184 114.971C142.184 114.335 142.307 113.802 142.553 113.372C142.806 112.941 143.144 112.572 143.568 112.264C143.944 112.004 144.385 111.81 144.891 111.68C145.403 111.55 145.974 111.485 146.603 111.485H153.463V123ZM149.782 116.745V113.874H147.598C147.092 113.874 146.695 113.99 146.408 114.223C146.128 114.448 145.988 114.78 145.988 115.217C145.988 115.757 146.128 116.147 146.408 116.386C146.688 116.625 147.105 116.745 147.659 116.745H149.782ZM166.342 113.987H162.671V123H158.979V113.987H155.309V111.485H166.342V113.987ZM179.826 123H176.247V115.956L171.243 123H168.188V111.485H171.766V117.791L176.401 111.485H179.826V123ZM194.15 123H190.469V119.001H188.818L186.06 123H181.928L185.229 118.488C184.457 118.14 183.869 117.702 183.466 117.176C183.069 116.643 182.871 115.908 182.871 114.971C182.871 114.335 182.994 113.802 183.24 113.372C183.493 112.941 183.832 112.572 184.255 112.264C184.631 112.004 185.072 111.81 185.578 111.68C186.091 111.55 186.662 111.485 187.291 111.485H194.15V123ZM190.469 116.745V113.874H188.285C187.779 113.874 187.383 113.99 187.096 114.223C186.815 114.448 186.675 114.78 186.675 115.217C186.675 115.757 186.815 116.147 187.096 116.386C187.376 116.625 187.793 116.745 188.347 116.745H190.469Z" fill="#333333"/>
<path d="M38 151L45.5 158.5L58 143.5" stroke="#61B857" stroke-width="2" stroke-linecap="round" stroke-linejoin="round"/>
<path d="M79.9551 140.99C80.3698 141.446 80.6865 142.004 80.9053 142.665C81.1286 143.326 81.2402 144.076 81.2402 144.914C81.2402 145.753 81.1263 146.505 80.8984 147.17C80.6751 147.831 80.3607 148.382 79.9551 148.824C79.5358 149.285 79.0391 149.631 78.4648 149.863C77.8952 150.096 77.2435 150.212 76.5098 150.212C75.7943 150.212 75.1426 150.093 74.5547 149.856C73.9714 149.619 73.4746 149.275 73.0645 148.824C72.6543 148.373 72.3376 147.819 72.1143 147.163C71.8955 146.507 71.7861 145.757 71.7861 144.914C71.7861 144.085 71.8955 143.342 72.1143 142.686C72.333 142.025 72.652 141.46 73.0713 140.99C73.4723 140.544 73.9691 140.202 74.5615 139.965C75.1585 139.728 75.8079 139.609 76.5098 139.609C77.2389 139.609 77.8929 139.73 78.4717 139.972C79.055 140.209 79.5495 140.548 79.9551 140.99ZM79.832 144.914C79.832 143.592 79.5358 142.574 78.9434 141.858C78.3509 141.138 77.542 140.778 76.5166 140.778C75.4821 140.778 74.6686 141.138 74.0762 141.858C73.4883 142.574 73.1943 143.592 73.1943 144.914C73.1943 146.249 73.4951 147.272 74.0967 147.983C74.6982 148.69 75.5049 149.043 76.5166 149.043C77.5283 149.043 78.3327 148.69 78.9297 147.983C79.5312 147.272 79.832 146.249 79.832 144.914ZM90.0039 146.09C90.0039 146.71 89.915 147.277 89.7373 147.792C89.5596 148.302 89.3089 148.735 88.9854 149.091C88.6846 149.428 88.3291 149.69 87.9189 149.877C87.5133 150.059 87.0827 150.15 86.627 150.15C86.2305 150.15 85.8704 150.107 85.5469 150.021C85.2279 149.934 84.902 149.799 84.5693 149.617V152.816H83.2842V142.364H84.5693V143.164C84.9111 142.877 85.2939 142.638 85.7178 142.446C86.1462 142.25 86.6019 142.152 87.085 142.152C88.0055 142.152 88.721 142.501 89.2314 143.198C89.7464 143.891 90.0039 144.855 90.0039 146.09ZM88.6777 146.124C88.6777 145.203 88.5205 144.515 88.2061 144.06C87.8916 143.604 87.4085 143.376 86.7568 143.376C86.3877 143.376 86.0163 143.456 85.6426 143.615C85.2689 143.775 84.9111 143.984 84.5693 144.244V148.571C84.9339 148.735 85.2461 148.847 85.5059 148.906C85.7702 148.965 86.0687 148.995 86.4014 148.995C87.1169 148.995 87.6751 148.754 88.0762 148.271C88.4772 147.787 88.6777 147.072 88.6777 146.124ZM97.2705 143.492H93.292V150H92.0068V142.364H97.2705V143.492ZM104.544 150H103.266V149.187C103.152 149.264 102.997 149.373 102.801 149.515C102.609 149.651 102.423 149.761 102.24 149.843C102.026 149.948 101.78 150.034 101.502 150.103C101.224 150.175 100.898 150.212 100.524 150.212C99.8363 150.212 99.2529 149.984 98.7744 149.528C98.2959 149.073 98.0566 148.492 98.0566 147.785C98.0566 147.206 98.1797 146.739 98.4258 146.384C98.6764 146.024 99.0319 145.741 99.4922 145.536C99.957 145.331 100.515 145.192 101.167 145.119C101.819 145.046 102.518 144.992 103.266 144.955V144.757C103.266 144.465 103.213 144.224 103.108 144.032C103.008 143.841 102.862 143.69 102.671 143.581C102.489 143.476 102.27 143.406 102.015 143.369C101.759 143.333 101.493 143.314 101.215 143.314C100.878 143.314 100.502 143.36 100.087 143.451C99.6722 143.538 99.2438 143.665 98.8018 143.834H98.7334V142.528C98.984 142.46 99.3464 142.385 99.8203 142.303C100.294 142.221 100.761 142.18 101.222 142.18C101.759 142.18 102.227 142.225 102.623 142.316C103.024 142.403 103.37 142.553 103.662 142.768C103.949 142.977 104.168 143.248 104.318 143.581C104.469 143.914 104.544 144.326 104.544 144.818V150ZM103.266 148.12V145.994C102.874 146.017 102.411 146.051 101.878 146.097C101.349 146.142 100.93 146.208 100.62 146.295C100.251 146.4 99.9525 146.564 99.7246 146.787C99.4967 147.006 99.3828 147.309 99.3828 147.696C99.3828 148.134 99.515 148.464 99.7793 148.688C100.044 148.906 100.447 149.016 100.989 149.016C101.44 149.016 101.853 148.929 102.227 148.756C102.6 148.578 102.947 148.366 103.266 148.12ZM113.41 150H112.125V146.562H108.304V150H107.019V142.364H108.304V145.454H112.125V142.364H113.41V150ZM122.379 150H121.107V144.265L117.108 150H115.946V142.364H117.218V148.018L121.176 142.364H122.379V150ZM130.227 147.86C130.227 148.289 130.126 148.651 129.926 148.947C129.73 149.243 129.477 149.483 129.167 149.665C128.857 149.843 128.515 149.973 128.142 150.055C127.768 150.137 127.394 150.178 127.021 150.178C126.492 150.178 125.988 150.128 125.51 150.027C125.031 149.927 124.56 149.772 124.095 149.562V148.154H124.184C124.516 148.446 124.94 148.672 125.455 148.831C125.97 148.991 126.469 149.07 126.952 149.07C127.18 149.07 127.415 149.05 127.656 149.009C127.898 148.963 128.107 148.893 128.285 148.797C128.477 148.688 128.629 148.558 128.743 148.407C128.857 148.252 128.914 148.043 128.914 147.778C128.914 147.505 128.857 147.286 128.743 147.122C128.634 146.958 128.483 146.835 128.292 146.753C128.105 146.671 127.88 146.621 127.615 146.603C127.351 146.584 127.109 146.575 126.891 146.575H125.776V145.468H126.549C126.731 145.468 126.968 145.461 127.26 145.447C127.556 145.434 127.795 145.397 127.978 145.338C128.215 145.26 128.401 145.151 128.538 145.01C128.679 144.868 128.75 144.643 128.75 144.333C128.75 144.119 128.695 143.943 128.586 143.807C128.477 143.665 128.34 143.556 128.176 143.479C128.007 143.401 127.818 143.349 127.608 143.321C127.403 143.294 127.221 143.28 127.062 143.28C126.597 143.28 126.139 143.344 125.688 143.472C125.241 143.595 124.865 143.775 124.56 144.012H124.471V142.597C124.849 142.474 125.255 142.373 125.688 142.296C126.12 142.218 126.553 142.18 126.986 142.18C127.342 142.18 127.695 142.212 128.046 142.275C128.401 142.339 128.732 142.449 129.037 142.604C129.338 142.758 129.584 142.97 129.775 143.239C129.967 143.504 130.062 143.832 130.062 144.224C130.062 144.625 129.937 144.978 129.687 145.283C129.44 145.584 129.108 145.8 128.688 145.933V145.98C129.158 146.094 129.532 146.309 129.81 146.623C130.088 146.933 130.227 147.345 130.227 147.86ZM138.19 150H136.912V149.187C136.798 149.264 136.643 149.373 136.447 149.515C136.256 149.651 136.069 149.761 135.887 149.843C135.673 149.948 135.426 150.034 135.148 150.103C134.87 150.175 134.545 150.212 134.171 150.212C133.483 150.212 132.899 149.984 132.421 149.528C131.942 149.073 131.703 148.492 131.703 147.785C131.703 147.206 131.826 146.739 132.072 146.384C132.323 146.024 132.678 145.741 133.139 145.536C133.604 145.331 134.162 145.192 134.813 145.119C135.465 145.046 136.165 144.992 136.912 144.955V144.757C136.912 144.465 136.86 144.224 136.755 144.032C136.655 143.841 136.509 143.69 136.317 143.581C136.135 143.476 135.916 143.406 135.661 143.369C135.406 143.333 135.139 143.314 134.861 143.314C134.524 143.314 134.148 143.36 133.733 143.451C133.319 143.538 132.89 143.665 132.448 143.834H132.38V142.528C132.631 142.46 132.993 142.385 133.467 142.303C133.941 142.221 134.408 142.18 134.868 142.18C135.406 142.18 135.873 142.225 136.27 142.316C136.671 142.403 137.017 142.553 137.309 142.768C137.596 142.977 137.814 143.248 137.965 143.581C138.115 143.914 138.19 144.326 138.19 144.818V150ZM136.912 148.12V145.994C136.52 146.017 136.058 146.051 135.524 146.097C134.996 146.142 134.576 146.208 134.267 146.295C133.897 146.4 133.599 146.564 133.371 146.787C133.143 147.006 133.029 147.309 133.029 147.696C133.029 148.134 133.161 148.464 133.426 148.688C133.69 148.906 134.093 149.016 134.636 149.016C135.087 149.016 135.499 148.929 135.873 148.756C136.247 148.578 136.593 148.366 136.912 148.12ZM146.722 150H140.665V142.364H141.95V148.893H145.71V142.364H146.995V148.893H147.918V151.832H146.722V150ZM156.121 150H154.85V144.265L150.851 150H149.688V142.364H150.96V148.018L154.918 142.364H156.121V150ZM164.522 150H163.237V146.972H161.727L159.361 150H157.851L160.421 146.849C159.76 146.666 159.277 146.388 158.972 146.015C158.666 145.636 158.514 145.142 158.514 144.531C158.514 144.126 158.605 143.782 158.787 143.499C158.969 143.216 159.2 142.986 159.478 142.809C159.751 142.635 160.065 142.519 160.421 142.46C160.776 142.396 161.164 142.364 161.583 142.364H164.522V150ZM163.237 145.96V143.39H161.617C161.266 143.39 161.013 143.401 160.858 143.424C160.703 143.447 160.535 143.508 160.353 143.608C160.175 143.709 160.043 143.845 159.956 144.019C159.874 144.187 159.833 144.372 159.833 144.572C159.833 144.823 159.858 145.026 159.908 145.181C159.963 145.336 160.072 145.481 160.236 145.618C160.405 145.75 160.61 145.841 160.852 145.892C161.093 145.937 161.362 145.96 161.658 145.96H163.237ZM179.76 146.849C179.76 147.341 179.662 147.787 179.466 148.188C179.274 148.59 179.017 148.915 178.693 149.166C178.311 149.467 177.9 149.681 177.463 149.809C177.025 149.936 176.46 150 175.768 150H172.076V139.821H178.892V141.024H173.43V143.813H175.809C176.501 143.813 177.066 143.854 177.504 143.937C177.941 144.014 178.354 144.203 178.741 144.504C179.088 144.773 179.343 145.105 179.507 145.502C179.675 145.898 179.76 146.347 179.76 146.849ZM178.345 146.876C178.345 146.534 178.288 146.233 178.174 145.974C178.06 145.714 177.882 145.504 177.641 145.345C177.39 145.176 177.101 145.074 176.772 145.037C176.444 145.001 175.982 144.982 175.385 144.982H173.43V148.845H175.351C175.957 148.845 176.422 148.815 176.745 148.756C177.073 148.697 177.36 148.583 177.606 148.414C177.862 148.236 178.049 148.029 178.167 147.792C178.285 147.55 178.345 147.245 178.345 146.876ZM188.004 150H186.732V144.265L182.733 150H181.571V142.364H182.843V148.018L186.801 142.364H188.004V150ZM195.852 147.86C195.852 148.289 195.751 148.651 195.551 148.947C195.355 149.243 195.102 149.483 194.792 149.665C194.482 149.843 194.14 149.973 193.767 150.055C193.393 150.137 193.019 150.178 192.646 150.178C192.117 150.178 191.613 150.128 191.135 150.027C190.656 149.927 190.185 149.772 189.72 149.562V148.154H189.809C190.141 148.446 190.565 148.672 191.08 148.831C191.595 148.991 192.094 149.07 192.577 149.07C192.805 149.07 193.04 149.05 193.281 149.009C193.523 148.963 193.732 148.893 193.91 148.797C194.102 148.688 194.254 148.558 194.368 148.407C194.482 148.252 194.539 148.043 194.539 147.778C194.539 147.505 194.482 147.286 194.368 147.122C194.259 146.958 194.108 146.835 193.917 146.753C193.73 146.671 193.505 146.621 193.24 146.603C192.976 146.584 192.734 146.575 192.516 146.575H191.401V145.468H192.174C192.356 145.468 192.593 145.461 192.885 145.447C193.181 145.434 193.42 145.397 193.603 145.338C193.84 145.26 194.026 145.151 194.163 145.01C194.304 144.868 194.375 144.643 194.375 144.333C194.375 144.119 194.32 143.943 194.211 143.807C194.102 143.665 193.965 143.556 193.801 143.479C193.632 143.401 193.443 143.349 193.233 143.321C193.028 143.294 192.846 143.28 192.687 143.28C192.222 143.28 191.764 143.344 191.312 143.472C190.866 143.595 190.49 143.775 190.185 144.012H190.096V142.597C190.474 142.474 190.88 142.373 191.312 142.296C191.745 142.218 192.178 142.18 192.611 142.18C192.967 142.18 193.32 142.212 193.671 142.275C194.026 142.339 194.357 142.449 194.662 142.604C194.963 142.758 195.209 142.97 195.4 143.239C195.592 143.504 195.688 143.832 195.688 144.224C195.688 144.625 195.562 144.978 195.312 145.283C195.065 145.584 194.733 145.8 194.313 145.933V145.98C194.783 146.094 195.157 146.309 195.435 146.623C195.713 146.933 195.852 147.345 195.852 147.86ZM204.273 150H202.988V146.562H199.167V150H197.882V142.364H199.167V145.454H202.988V142.364H204.273V150ZM213.201 146.315H207.575C207.575 146.785 207.646 147.195 207.787 147.546C207.928 147.892 208.122 148.177 208.368 148.4C208.605 148.619 208.885 148.783 209.209 148.893C209.537 149.002 209.897 149.057 210.289 149.057C210.809 149.057 211.33 148.954 211.854 148.749C212.383 148.539 212.759 148.334 212.982 148.134H213.051V149.535C212.618 149.717 212.176 149.87 211.725 149.993C211.273 150.116 210.799 150.178 210.303 150.178C209.036 150.178 208.047 149.836 207.336 149.152C206.625 148.464 206.27 147.489 206.27 146.227C206.27 144.978 206.609 143.987 207.288 143.253C207.972 142.519 208.869 142.152 209.981 142.152C211.011 142.152 211.804 142.453 212.36 143.055C212.921 143.656 213.201 144.511 213.201 145.618V146.315ZM211.95 145.331C211.946 144.657 211.775 144.135 211.438 143.766C211.105 143.396 210.597 143.212 209.913 143.212C209.225 143.212 208.676 143.415 208.266 143.82C207.86 144.226 207.63 144.729 207.575 145.331H211.95ZM220.864 149.521C220.34 149.768 219.889 149.936 219.511 150.027C219.137 150.123 218.763 150.171 218.39 150.171C217.834 150.171 217.323 150.091 216.858 149.932C216.394 149.768 215.995 149.521 215.662 149.193C215.329 148.865 215.07 148.451 214.883 147.949C214.701 147.448 214.609 146.862 214.609 146.192C214.609 144.976 214.947 144.005 215.621 143.28C216.296 142.551 217.218 142.187 218.39 142.187C218.832 142.187 219.265 142.248 219.688 142.371C220.117 142.494 220.509 142.645 220.864 142.822V144.251H220.789C220.365 143.927 219.946 143.688 219.531 143.533C219.121 143.378 218.722 143.301 218.335 143.301C217.574 143.301 216.984 143.556 216.564 144.066C216.15 144.577 215.942 145.285 215.942 146.192C215.942 147.099 216.15 147.803 216.564 148.305C216.979 148.806 217.569 149.057 218.335 149.057C218.604 149.057 218.87 149.022 219.135 148.954C219.404 148.886 219.647 148.797 219.866 148.688C220.039 148.601 220.217 148.498 220.399 148.38C220.586 148.257 220.716 148.166 220.789 148.106H220.864V149.521ZM80.0439 163.869C80.0439 164.375 79.9482 164.822 79.7568 165.209C79.5654 165.596 79.3079 165.915 78.9844 166.166C78.6016 166.467 78.18 166.681 77.7197 166.809C77.264 166.936 76.6829 167 75.9766 167H72.3672V156.821H75.3818C76.1247 156.821 76.6807 156.849 77.0498 156.903C77.4189 156.958 77.7721 157.072 78.1094 157.245C78.4831 157.441 78.7542 157.694 78.9229 158.004C79.0915 158.309 79.1758 158.676 79.1758 159.104C79.1758 159.588 79.0527 160 78.8066 160.342C78.5605 160.679 78.2324 160.95 77.8223 161.155V161.21C78.5104 161.351 79.0527 161.654 79.4492 162.119C79.8457 162.579 80.0439 163.163 80.0439 163.869ZM77.7676 159.282C77.7676 159.036 77.7266 158.829 77.6445 158.66C77.5625 158.492 77.4303 158.355 77.248 158.25C77.0339 158.127 76.7741 158.052 76.4688 158.024C76.1634 157.993 75.7852 157.977 75.334 157.977H73.7207V160.916H75.4707C75.8945 160.916 76.2318 160.896 76.4824 160.854C76.7331 160.809 76.9655 160.718 77.1797 160.581C77.3939 160.444 77.5443 160.269 77.6309 160.055C77.722 159.836 77.7676 159.578 77.7676 159.282ZM78.6357 163.924C78.6357 163.514 78.5742 163.188 78.4512 162.946C78.3281 162.705 78.1048 162.5 77.7812 162.331C77.5625 162.217 77.2959 162.144 76.9814 162.112C76.6715 162.076 76.2933 162.058 75.8467 162.058H73.7207V165.845H75.5117C76.1042 165.845 76.5895 165.815 76.9678 165.756C77.346 165.692 77.6559 165.578 77.8975 165.414C78.1527 165.236 78.3395 165.034 78.458 164.806C78.5765 164.578 78.6357 164.284 78.6357 163.924ZM87.5771 166.521C87.0531 166.768 86.6019 166.936 86.2236 167.027C85.8499 167.123 85.4762 167.171 85.1025 167.171C84.5465 167.171 84.0361 167.091 83.5713 166.932C83.1064 166.768 82.7077 166.521 82.375 166.193C82.0423 165.865 81.7826 165.451 81.5957 164.949C81.4134 164.448 81.3223 163.862 81.3223 163.192C81.3223 161.976 81.6595 161.005 82.334 160.28C83.0085 159.551 83.9313 159.187 85.1025 159.187C85.5446 159.187 85.9775 159.248 86.4014 159.371C86.8298 159.494 87.2217 159.645 87.5771 159.822V161.251H87.502C87.0781 160.927 86.6589 160.688 86.2441 160.533C85.834 160.378 85.4352 160.301 85.0479 160.301C84.2868 160.301 83.6966 160.556 83.2773 161.066C82.8626 161.577 82.6553 162.285 82.6553 163.192C82.6553 164.099 82.8626 164.803 83.2773 165.305C83.6921 165.806 84.2822 166.057 85.0479 166.057C85.3167 166.057 85.5833 166.022 85.8477 165.954C86.1165 165.886 86.3604 165.797 86.5791 165.688C86.7523 165.601 86.93 165.498 87.1123 165.38C87.2992 165.257 87.429 165.166 87.502 165.106H87.5771V166.521ZM94.9531 160.492H92.1914V167H90.9062V160.492H88.1445V159.364H94.9531V160.492ZM103.006 163.09C103.006 163.71 102.917 164.277 102.739 164.792C102.562 165.302 102.311 165.735 101.987 166.091C101.687 166.428 101.331 166.69 100.921 166.877C100.515 167.059 100.085 167.15 99.6289 167.15C99.2324 167.15 98.8724 167.107 98.5488 167.021C98.2298 166.934 97.904 166.799 97.5713 166.617V169.816H96.2861V159.364H97.5713V160.164C97.9131 159.877 98.2959 159.638 98.7197 159.446C99.1481 159.25 99.6038 159.152 100.087 159.152C101.007 159.152 101.723 159.501 102.233 160.198C102.748 160.891 103.006 161.855 103.006 163.09ZM101.68 163.124C101.68 162.203 101.522 161.515 101.208 161.06C100.894 160.604 100.41 160.376 99.7588 160.376C99.3896 160.376 99.0182 160.456 98.6445 160.615C98.2708 160.775 97.9131 160.984 97.5713 161.244V165.571C97.9359 165.735 98.248 165.847 98.5078 165.906C98.7721 165.965 99.0706 165.995 99.4033 165.995C100.119 165.995 100.677 165.754 101.078 165.271C101.479 164.787 101.68 164.072 101.68 163.124ZM111.4 163.315H105.774C105.774 163.785 105.845 164.195 105.986 164.546C106.128 164.892 106.321 165.177 106.567 165.4C106.804 165.619 107.085 165.783 107.408 165.893C107.736 166.002 108.096 166.057 108.488 166.057C109.008 166.057 109.53 165.954 110.054 165.749C110.582 165.539 110.958 165.334 111.182 165.134H111.25V166.535C110.817 166.717 110.375 166.87 109.924 166.993C109.473 167.116 108.999 167.178 108.502 167.178C107.235 167.178 106.246 166.836 105.535 166.152C104.824 165.464 104.469 164.489 104.469 163.227C104.469 161.978 104.808 160.987 105.487 160.253C106.171 159.519 107.069 159.152 108.181 159.152C109.211 159.152 110.004 159.453 110.56 160.055C111.12 160.656 111.4 161.511 111.4 162.618V163.315ZM110.149 162.331C110.145 161.657 109.974 161.135 109.637 160.766C109.304 160.396 108.796 160.212 108.112 160.212C107.424 160.212 106.875 160.415 106.465 160.82C106.059 161.226 105.829 161.729 105.774 162.331H110.149ZM119.296 167H118.011V164.067C117.596 164.195 117.2 164.298 116.821 164.375C116.443 164.452 116.031 164.491 115.584 164.491C114.764 164.491 114.137 164.291 113.704 163.89C113.271 163.484 113.055 162.901 113.055 162.14V159.364H114.34V161.483C114.34 161.775 114.358 162.037 114.395 162.27C114.431 162.497 114.508 162.696 114.627 162.864C114.745 163.028 114.912 163.154 115.126 163.24C115.34 163.327 115.639 163.37 116.021 163.37C116.336 163.37 116.678 163.34 117.047 163.281C117.416 163.217 117.737 163.145 118.011 163.062V159.364H119.296V167Z" fill="#333333"/>
<path d="M38 193L45.5 200.5L58 185.5" stroke="#61B857" stroke-width="2" stroke-linecap="round" stroke-linejoin="round"/>
<path d="M79.9551 182.99C80.3698 183.446 80.6865 184.004 80.9053 184.665C81.1286 185.326 81.2402 186.076 81.2402 186.914C81.2402 187.753 81.1263 188.505 80.8984 189.17C80.6751 189.831 80.3607 190.382 79.9551 190.824C79.5358 191.285 79.0391 191.631 78.4648 191.863C77.8952 192.096 77.2435 192.212 76.5098 192.212C75.7943 192.212 75.1426 192.093 74.5547 191.856C73.9714 191.619 73.4746 191.275 73.0645 190.824C72.6543 190.373 72.3376 189.819 72.1143 189.163C71.8955 188.507 71.7861 187.757 71.7861 186.914C71.7861 186.085 71.8955 185.342 72.1143 184.686C72.333 184.025 72.652 183.46 73.0713 182.99C73.4723 182.544 73.9691 182.202 74.5615 181.965C75.1585 181.728 75.8079 181.609 76.5098 181.609C77.2389 181.609 77.8929 181.73 78.4717 181.972C79.055 182.209 79.5495 182.548 79.9551 182.99ZM79.832 186.914C79.832 185.592 79.5358 184.574 78.9434 183.858C78.3509 183.138 77.542 182.778 76.5166 182.778C75.4821 182.778 74.6686 183.138 74.0762 183.858C73.4883 184.574 73.1943 185.592 73.1943 186.914C73.1943 188.249 73.4951 189.272 74.0967 189.983C74.6982 190.69 75.5049 191.043 76.5166 191.043C77.5283 191.043 78.3327 190.69 78.9297 189.983C79.5312 189.272 79.832 188.249 79.832 186.914ZM90.0039 188.09C90.0039 188.71 89.915 189.277 89.7373 189.792C89.5596 190.302 89.3089 190.735 88.9854 191.091C88.6846 191.428 88.3291 191.69 87.9189 191.877C87.5133 192.059 87.0827 192.15 86.627 192.15C86.2305 192.15 85.8704 192.107 85.5469 192.021C85.2279 191.934 84.902 191.799 84.5693 191.617V194.816H83.2842V184.364H84.5693V185.164C84.9111 184.877 85.2939 184.638 85.7178 184.446C86.1462 184.25 86.6019 184.152 87.085 184.152C88.0055 184.152 88.721 184.501 89.2314 185.198C89.7464 185.891 90.0039 186.855 90.0039 188.09ZM88.6777 188.124C88.6777 187.203 88.5205 186.515 88.2061 186.06C87.8916 185.604 87.4085 185.376 86.7568 185.376C86.3877 185.376 86.0163 185.456 85.6426 185.615C85.2689 185.775 84.9111 185.984 84.5693 186.244V190.571C84.9339 190.735 85.2461 190.847 85.5059 190.906C85.7702 190.965 86.0687 190.995 86.4014 190.995C87.1169 190.995 87.6751 190.754 88.0762 190.271C88.4772 189.787 88.6777 189.072 88.6777 188.124ZM97.2705 185.492H93.292V192H92.0068V184.364H97.2705V185.492ZM104.544 192H103.266V191.187C103.152 191.264 102.997 191.373 102.801 191.515C102.609 191.651 102.423 191.761 102.24 191.843C102.026 191.948 101.78 192.034 101.502 192.103C101.224 192.175 100.898 192.212 100.524 192.212C99.8363 192.212 99.2529 191.984 98.7744 191.528C98.2959 191.073 98.0566 190.492 98.0566 189.785C98.0566 189.206 98.1797 188.739 98.4258 188.384C98.6764 188.024 99.0319 187.741 99.4922 187.536C99.957 187.331 100.515 187.192 101.167 187.119C101.819 187.046 102.518 186.992 103.266 186.955V186.757C103.266 186.465 103.213 186.224 103.108 186.032C103.008 185.841 102.862 185.69 102.671 185.581C102.489 185.476 102.27 185.406 102.015 185.369C101.759 185.333 101.493 185.314 101.215 185.314C100.878 185.314 100.502 185.36 100.087 185.451C99.6722 185.538 99.2438 185.665 98.8018 185.834H98.7334V184.528C98.984 184.46 99.3464 184.385 99.8203 184.303C100.294 184.221 100.761 184.18 101.222 184.18C101.759 184.18 102.227 184.225 102.623 184.316C103.024 184.403 103.37 184.553 103.662 184.768C103.949 184.977 104.168 185.248 104.318 185.581C104.469 185.914 104.544 186.326 104.544 186.818V192ZM103.266 190.12V187.994C102.874 188.017 102.411 188.051 101.878 188.097C101.349 188.142 100.93 188.208 100.62 188.295C100.251 188.4 99.9525 188.564 99.7246 188.787C99.4967 189.006 99.3828 189.309 99.3828 189.696C99.3828 190.134 99.515 190.464 99.7793 190.688C100.044 190.906 100.447 191.016 100.989 191.016C101.44 191.016 101.853 190.929 102.227 190.756C102.6 190.578 102.947 190.366 103.266 190.12ZM113.41 192H112.125V188.562H108.304V192H107.019V184.364H108.304V187.454H112.125V184.364H113.41V192ZM122.379 192H121.107V186.265L117.108 192H115.946V184.364H117.218V190.018L121.176 184.364H122.379V192ZM130.227 189.86C130.227 190.289 130.126 190.651 129.926 190.947C129.73 191.243 129.477 191.483 129.167 191.665C128.857 191.843 128.515 191.973 128.142 192.055C127.768 192.137 127.394 192.178 127.021 192.178C126.492 192.178 125.988 192.128 125.51 192.027C125.031 191.927 124.56 191.772 124.095 191.562V190.154H124.184C124.516 190.446 124.94 190.672 125.455 190.831C125.97 190.991 126.469 191.07 126.952 191.07C127.18 191.07 127.415 191.05 127.656 191.009C127.898 190.963 128.107 190.893 128.285 190.797C128.477 190.688 128.629 190.558 128.743 190.407C128.857 190.252 128.914 190.043 128.914 189.778C128.914 189.505 128.857 189.286 128.743 189.122C128.634 188.958 128.483 188.835 128.292 188.753C128.105 188.671 127.88 188.621 127.615 188.603C127.351 188.584 127.109 188.575 126.891 188.575H125.776V187.468H126.549C126.731 187.468 126.968 187.461 127.26 187.447C127.556 187.434 127.795 187.397 127.978 187.338C128.215 187.26 128.401 187.151 128.538 187.01C128.679 186.868 128.75 186.643 128.75 186.333C128.75 186.119 128.695 185.943 128.586 185.807C128.477 185.665 128.34 185.556 128.176 185.479C128.007 185.401 127.818 185.349 127.608 185.321C127.403 185.294 127.221 185.28 127.062 185.28C126.597 185.28 126.139 185.344 125.688 185.472C125.241 185.595 124.865 185.775 124.56 186.012H124.471V184.597C124.849 184.474 125.255 184.373 125.688 184.296C126.12 184.218 126.553 184.18 126.986 184.18C127.342 184.18 127.695 184.212 128.046 184.275C128.401 184.339 128.732 184.449 129.037 184.604C129.338 184.758 129.584 184.97 129.775 185.239C129.967 185.504 130.062 185.832 130.062 186.224C130.062 186.625 129.937 186.978 129.687 187.283C129.44 187.584 129.108 187.8 128.688 187.933V187.98C129.158 188.094 129.532 188.309 129.81 188.623C130.088 188.933 130.227 189.345 130.227 189.86ZM138.19 192H136.912V191.187C136.798 191.264 136.643 191.373 136.447 191.515C136.256 191.651 136.069 191.761 135.887 191.843C135.673 191.948 135.426 192.034 135.148 192.103C134.87 192.175 134.545 192.212 134.171 192.212C133.483 192.212 132.899 191.984 132.421 191.528C131.942 191.073 131.703 190.492 131.703 189.785C131.703 189.206 131.826 188.739 132.072 188.384C132.323 188.024 132.678 187.741 133.139 187.536C133.604 187.331 134.162 187.192 134.813 187.119C135.465 187.046 136.165 186.992 136.912 186.955V186.757C136.912 186.465 136.86 186.224 136.755 186.032C136.655 185.841 136.509 185.69 136.317 185.581C136.135 185.476 135.916 185.406 135.661 185.369C135.406 185.333 135.139 185.314 134.861 185.314C134.524 185.314 134.148 185.36 133.733 185.451C133.319 185.538 132.89 185.665 132.448 185.834H132.38V184.528C132.631 184.46 132.993 184.385 133.467 184.303C133.941 184.221 134.408 184.18 134.868 184.18C135.406 184.18 135.873 184.225 136.27 184.316C136.671 184.403 137.017 184.553 137.309 184.768C137.596 184.977 137.814 185.248 137.965 185.581C138.115 185.914 138.19 186.326 138.19 186.818V192ZM136.912 190.12V187.994C136.52 188.017 136.058 188.051 135.524 188.097C134.996 188.142 134.576 188.208 134.267 188.295C133.897 188.4 133.599 188.564 133.371 188.787C133.143 189.006 133.029 189.309 133.029 189.696C133.029 190.134 133.161 190.464 133.426 190.688C133.69 190.906 134.093 191.016 134.636 191.016C135.087 191.016 135.499 190.929 135.873 190.756C136.247 190.578 136.593 190.366 136.912 190.12ZM146.722 192H140.665V184.364H141.95V190.893H145.71V184.364H146.995V190.893H147.918V193.832H146.722V192ZM156.121 192H154.85V186.265L150.851 192H149.688V184.364H150.96V190.018L154.918 184.364H156.121V192ZM164.522 192H163.237V188.972H161.727L159.361 192H157.851L160.421 188.849C159.76 188.666 159.277 188.388 158.972 188.015C158.666 187.636 158.514 187.142 158.514 186.531C158.514 186.126 158.605 185.782 158.787 185.499C158.969 185.216 159.2 184.986 159.478 184.809C159.751 184.635 160.065 184.519 160.421 184.46C160.776 184.396 161.164 184.364 161.583 184.364H164.522V192ZM163.237 187.96V185.39H161.617C161.266 185.39 161.013 185.401 160.858 185.424C160.703 185.447 160.535 185.508 160.353 185.608C160.175 185.709 160.043 185.845 159.956 186.019C159.874 186.187 159.833 186.372 159.833 186.572C159.833 186.823 159.858 187.026 159.908 187.181C159.963 187.336 160.072 187.481 160.236 187.618C160.405 187.75 160.61 187.841 160.852 187.892C161.093 187.937 161.362 187.96 161.658 187.96H163.237ZM179.76 188.849C179.76 189.341 179.662 189.787 179.466 190.188C179.274 190.59 179.017 190.915 178.693 191.166C178.311 191.467 177.9 191.681 177.463 191.809C177.025 191.936 176.46 192 175.768 192H172.076V181.821H178.892V183.024H173.43V185.813H175.809C176.501 185.813 177.066 185.854 177.504 185.937C177.941 186.014 178.354 186.203 178.741 186.504C179.088 186.773 179.343 187.105 179.507 187.502C179.675 187.898 179.76 188.347 179.76 188.849ZM178.345 188.876C178.345 188.534 178.288 188.233 178.174 187.974C178.06 187.714 177.882 187.504 177.641 187.345C177.39 187.176 177.101 187.074 176.772 187.037C176.444 187.001 175.982 186.982 175.385 186.982H173.43V190.845H175.351C175.957 190.845 176.422 190.815 176.745 190.756C177.073 190.697 177.36 190.583 177.606 190.414C177.862 190.236 178.049 190.029 178.167 189.792C178.285 189.55 178.345 189.245 178.345 188.876ZM188.004 192H186.732V186.265L182.733 192H181.571V184.364H182.843V190.018L186.801 184.364H188.004V192ZM195.852 189.86C195.852 190.289 195.751 190.651 195.551 190.947C195.355 191.243 195.102 191.483 194.792 191.665C194.482 191.843 194.14 191.973 193.767 192.055C193.393 192.137 193.019 192.178 192.646 192.178C192.117 192.178 191.613 192.128 191.135 192.027C190.656 191.927 190.185 191.772 189.72 191.562V190.154H189.809C190.141 190.446 190.565 190.672 191.08 190.831C191.595 190.991 192.094 191.07 192.577 191.07C192.805 191.07 193.04 191.05 193.281 191.009C193.523 190.963 193.732 190.893 193.91 190.797C194.102 190.688 194.254 190.558 194.368 190.407C194.482 190.252 194.539 190.043 194.539 189.778C194.539 189.505 194.482 189.286 194.368 189.122C194.259 188.958 194.108 188.835 193.917 188.753C193.73 188.671 193.505 188.621 193.24 188.603C192.976 188.584 192.734 188.575 192.516 188.575H191.401V187.468H192.174C192.356 187.468 192.593 187.461 192.885 187.447C193.181 187.434 193.42 187.397 193.603 187.338C193.84 187.26 194.026 187.151 194.163 187.01C194.304 186.868 194.375 186.643 194.375 186.333C194.375 186.119 194.32 185.943 194.211 185.807C194.102 185.665 193.965 185.556 193.801 185.479C193.632 185.401 193.443 185.349 193.233 185.321C193.028 185.294 192.846 185.28 192.687 185.28C192.222 185.28 191.764 185.344 191.312 185.472C190.866 185.595 190.49 185.775 190.185 186.012H190.096V184.597C190.474 184.474 190.88 184.373 191.312 184.296C191.745 184.218 192.178 184.18 192.611 184.18C192.967 184.18 193.32 184.212 193.671 184.275C194.026 184.339 194.357 184.449 194.662 184.604C194.963 184.758 195.209 184.97 195.4 185.239C195.592 185.504 195.688 185.832 195.688 186.224C195.688 186.625 195.562 186.978 195.312 187.283C195.065 187.584 194.733 187.8 194.313 187.933V187.98C194.783 188.094 195.157 188.309 195.435 188.623C195.713 188.933 195.852 189.345 195.852 189.86ZM204.273 192H202.988V188.562H199.167V192H197.882V184.364H199.167V187.454H202.988V184.364H204.273V192ZM213.201 188.315H207.575C207.575 188.785 207.646 189.195 207.787 189.546C207.928 189.892 208.122 190.177 208.368 190.4C208.605 190.619 208.885 190.783 209.209 190.893C209.537 191.002 209.897 191.057 210.289 191.057C210.809 191.057 211.33 190.954 211.854 190.749C212.383 190.539 212.759 190.334 212.982 190.134H213.051V191.535C212.618 191.717 212.176 191.87 211.725 191.993C211.273 192.116 210.799 192.178 210.303 192.178C209.036 192.178 208.047 191.836 207.336 191.152C206.625 190.464 206.27 189.489 206.27 188.227C206.27 186.978 206.609 185.987 207.288 185.253C207.972 184.519 208.869 184.152 209.981 184.152C211.011 184.152 211.804 184.453 212.36 185.055C212.921 185.656 213.201 186.511 213.201 187.618V188.315ZM211.95 187.331C211.946 186.657 211.775 186.135 211.438 185.766C211.105 185.396 210.597 185.212 209.913 185.212C209.225 185.212 208.676 185.415 208.266 185.82C207.86 186.226 207.63 186.729 207.575 187.331H211.95ZM220.864 191.521C220.34 191.768 219.889 191.936 219.511 192.027C219.137 192.123 218.763 192.171 218.39 192.171C217.834 192.171 217.323 192.091 216.858 191.932C216.394 191.768 215.995 191.521 215.662 191.193C215.329 190.865 215.07 190.451 214.883 189.949C214.701 189.448 214.609 188.862 214.609 188.192C214.609 186.976 214.947 186.005 215.621 185.28C216.296 184.551 217.218 184.187 218.39 184.187C218.832 184.187 219.265 184.248 219.688 184.371C220.117 184.494 220.509 184.645 220.864 184.822V186.251H220.789C220.365 185.927 219.946 185.688 219.531 185.533C219.121 185.378 218.722 185.301 218.335 185.301C217.574 185.301 216.984 185.556 216.564 186.066C216.15 186.577 215.942 187.285 215.942 188.192C215.942 189.099 216.15 189.803 216.564 190.305C216.979 190.806 217.569 191.057 218.335 191.057C218.604 191.057 218.87 191.022 219.135 190.954C219.404 190.886 219.647 190.797 219.866 190.688C220.039 190.601 220.217 190.498 220.399 190.38C220.586 190.257 220.716 190.166 220.789 190.106H220.864V191.521ZM80.5498 209H78.8135L74.6777 204.358H73.7549V209H72.4014V198.821H73.7549V203.388C73.9873 203.383 74.2061 203.36 74.4111 203.319C74.6162 203.278 74.8099 203.201 74.9922 203.087C75.1745 202.982 75.3545 202.834 75.5322 202.643C75.71 202.447 75.8672 202.207 76.0039 201.925C76.0632 201.802 76.1315 201.647 76.209 201.46C76.291 201.273 76.373 201.077 76.4551 200.872C76.7695 200.116 77.1364 199.585 77.5557 199.279C77.9795 198.974 78.6016 198.821 79.4219 198.821H79.9619V200.031H79.3945C79.0801 200.031 78.834 200.061 78.6562 200.12C78.4785 200.175 78.319 200.268 78.1777 200.4C78.0456 200.519 77.9294 200.678 77.8291 200.879C77.7334 201.079 77.6331 201.314 77.5283 201.583C77.2913 202.185 77.0498 202.627 76.8037 202.909C76.5622 203.192 76.2363 203.438 75.8262 203.647L80.5498 209ZM88.4795 205.186C88.4795 206.43 88.1605 207.412 87.5225 208.132C86.8844 208.852 86.0299 209.212 84.959 209.212C83.8789 209.212 83.0199 208.852 82.3818 208.132C81.7484 207.412 81.4316 206.43 81.4316 205.186C81.4316 203.941 81.7484 202.959 82.3818 202.239C83.0199 201.515 83.8789 201.152 84.959 201.152C86.0299 201.152 86.8844 201.515 87.5225 202.239C88.1605 202.959 88.4795 203.941 88.4795 205.186ZM87.1533 205.186C87.1533 204.197 86.9596 203.463 86.5723 202.984C86.1849 202.501 85.6471 202.26 84.959 202.26C84.2617 202.26 83.7194 202.501 83.332 202.984C82.9492 203.463 82.7578 204.197 82.7578 205.186C82.7578 206.143 82.9515 206.869 83.3389 207.366C83.7262 207.858 84.2663 208.104 84.959 208.104C85.6426 208.104 86.1781 207.861 86.5654 207.373C86.9574 206.881 87.1533 206.152 87.1533 205.186ZM96.8672 209H95.582V205.562H91.7607V209H90.4756V201.364H91.7607V204.454H95.582V201.364H96.8672V209ZM109.151 204.98C109.151 205.66 109.065 206.261 108.892 206.785C108.718 207.305 108.488 207.733 108.201 208.07C107.919 208.408 107.593 208.665 107.224 208.843C106.854 209.021 106.467 209.109 106.062 209.109C105.756 209.109 105.49 209.057 105.262 208.952C105.038 208.847 104.838 208.752 104.66 208.665V211.816H103.389V208.665C103.111 208.802 102.881 208.911 102.698 208.993C102.521 209.071 102.24 209.109 101.857 209.109C100.978 209.109 100.265 208.765 99.7178 208.077C99.1709 207.389 98.8975 206.432 98.8975 205.206C98.8975 204.563 98.9863 203.992 99.1641 203.49C99.3418 202.984 99.5742 202.561 99.8613 202.219C100.139 201.886 100.465 201.633 100.839 201.46C101.217 201.282 101.593 201.193 101.967 201.193C102.24 201.193 102.489 201.237 102.712 201.323C102.94 201.405 103.165 201.515 103.389 201.651V198.363H104.66V201.651C104.87 201.528 105.116 201.421 105.398 201.33C105.681 201.239 105.966 201.193 106.253 201.193C107.155 201.193 107.864 201.535 108.379 202.219C108.894 202.898 109.151 203.818 109.151 204.98ZM107.832 205.124C107.832 204.254 107.677 203.565 107.367 203.06C107.057 202.554 106.592 202.301 105.973 202.301C105.722 202.301 105.512 202.321 105.344 202.362C105.175 202.403 104.947 202.481 104.66 202.595V207.688C104.874 207.788 105.052 207.868 105.193 207.927C105.339 207.981 105.544 208.009 105.809 208.009C106.451 208.009 106.948 207.763 107.299 207.271C107.654 206.774 107.832 206.058 107.832 205.124ZM103.389 207.688V202.595C103.211 202.513 103.031 202.444 102.849 202.39C102.666 202.33 102.464 202.301 102.24 202.301C101.625 202.301 101.133 202.535 100.764 203.005C100.399 203.474 100.217 204.188 100.217 205.145C100.217 206.033 100.379 206.733 100.702 207.243C101.03 207.754 101.502 208.009 102.117 208.009C102.359 208.009 102.582 207.977 102.787 207.913C102.997 207.845 103.197 207.77 103.389 207.688ZM117.566 205.315H111.94C111.94 205.785 112.011 206.195 112.152 206.546C112.294 206.892 112.487 207.177 112.733 207.4C112.97 207.619 113.251 207.783 113.574 207.893C113.902 208.002 114.262 208.057 114.654 208.057C115.174 208.057 115.696 207.954 116.22 207.749C116.748 207.539 117.124 207.334 117.348 207.134H117.416V208.535C116.983 208.717 116.541 208.87 116.09 208.993C115.639 209.116 115.165 209.178 114.668 209.178C113.401 209.178 112.412 208.836 111.701 208.152C110.99 207.464 110.635 206.489 110.635 205.227C110.635 203.978 110.974 202.987 111.653 202.253C112.337 201.519 113.235 201.152 114.347 201.152C115.377 201.152 116.17 201.453 116.726 202.055C117.286 202.656 117.566 203.511 117.566 204.618V205.315ZM116.315 204.331C116.311 203.657 116.14 203.135 115.803 202.766C115.47 202.396 114.962 202.212 114.278 202.212C113.59 202.212 113.041 202.415 112.631 202.82C112.225 203.226 111.995 203.729 111.94 204.331H116.315ZM126.234 205.09C126.234 205.71 126.146 206.277 125.968 206.792C125.79 207.302 125.539 207.735 125.216 208.091C124.915 208.428 124.56 208.69 124.149 208.877C123.744 209.059 123.313 209.15 122.857 209.15C122.461 209.15 122.101 209.107 121.777 209.021C121.458 208.934 121.132 208.799 120.8 208.617V211.816H119.515V201.364H120.8V202.164C121.142 201.877 121.524 201.638 121.948 201.446C122.377 201.25 122.832 201.152 123.315 201.152C124.236 201.152 124.951 201.501 125.462 202.198C125.977 202.891 126.234 203.855 126.234 205.09ZM124.908 205.124C124.908 204.203 124.751 203.515 124.437 203.06C124.122 202.604 123.639 202.376 122.987 202.376C122.618 202.376 122.247 202.456 121.873 202.615C121.499 202.775 121.142 202.984 120.8 203.244V207.571C121.164 207.735 121.477 207.847 121.736 207.906C122.001 207.965 122.299 207.995 122.632 207.995C123.347 207.995 123.906 207.754 124.307 207.271C124.708 206.787 124.908 206.072 124.908 205.124ZM134.629 205.315H129.003C129.003 205.785 129.074 206.195 129.215 206.546C129.356 206.892 129.55 207.177 129.796 207.4C130.033 207.619 130.313 207.783 130.637 207.893C130.965 208.002 131.325 208.057 131.717 208.057C132.236 208.057 132.758 207.954 133.282 207.749C133.811 207.539 134.187 207.334 134.41 207.134H134.479V208.535C134.046 208.717 133.604 208.87 133.152 208.993C132.701 209.116 132.227 209.178 131.73 209.178C130.464 209.178 129.475 208.836 128.764 208.152C128.053 207.464 127.697 206.489 127.697 205.227C127.697 203.978 128.037 202.987 128.716 202.253C129.399 201.519 130.297 201.152 131.409 201.152C132.439 201.152 133.232 201.453 133.788 202.055C134.349 202.656 134.629 203.511 134.629 204.618V205.315ZM133.378 204.331C133.373 203.657 133.202 203.135 132.865 202.766C132.533 202.396 132.024 202.212 131.341 202.212C130.653 202.212 130.104 202.415 129.693 202.82C129.288 203.226 129.058 203.729 129.003 204.331H133.378ZM142.969 209H141.684V205.562H137.862V209H136.577V201.364H137.862V204.454H141.684V201.364H142.969V209ZM151.562 209H145.505V201.364H146.79V207.893H150.55V201.364H151.835V207.893H152.758V210.832H151.562V209ZM160.961 209H159.689V203.265L155.69 209H154.528V201.364H155.8V207.018L159.758 201.364H160.961V209ZM169.93 209H168.658V203.265L164.659 209H163.497V201.364H164.769V207.018L168.727 201.364H169.93V209ZM169.198 198.356C169.175 199.031 168.961 199.557 168.556 199.936C168.155 200.314 167.569 200.503 166.799 200.503C166.029 200.503 165.441 200.314 165.035 199.936C164.634 199.557 164.422 199.031 164.399 198.356H165.568C165.573 198.835 165.678 199.181 165.883 199.396C166.092 199.61 166.398 199.717 166.799 199.717C167.204 199.717 167.51 199.612 167.715 199.402C167.92 199.193 168.025 198.844 168.029 198.356H169.198Z" fill="#333333"/>
<path d="M38 235L45.5 242.5L58 227.5" stroke="#61B857" stroke-width="2" stroke-linecap="round" stroke-linejoin="round"/>
<path d="M79.9551 224.99C80.3698 225.446 80.6865 226.004 80.9053 226.665C81.1286 227.326 81.2402 228.076 81.2402 228.914C81.2402 229.753 81.1263 230.505 80.8984 231.17C80.6751 231.831 80.3607 232.382 79.9551 232.824C79.5358 233.285 79.0391 233.631 78.4648 233.863C77.8952 234.096 77.2435 234.212 76.5098 234.212C75.7943 234.212 75.1426 234.093 74.5547 233.856C73.9714 233.619 73.4746 233.275 73.0645 232.824C72.6543 232.373 72.3376 231.819 72.1143 231.163C71.8955 230.507 71.7861 229.757 71.7861 228.914C71.7861 228.085 71.8955 227.342 72.1143 226.686C72.333 226.025 72.652 225.46 73.0713 224.99C73.4723 224.544 73.9691 224.202 74.5615 223.965C75.1585 223.728 75.8079 223.609 76.5098 223.609C77.2389 223.609 77.8929 223.73 78.4717 223.972C79.055 224.209 79.5495 224.548 79.9551 224.99ZM79.832 228.914C79.832 227.592 79.5358 226.574 78.9434 225.858C78.3509 225.138 77.542 224.778 76.5166 224.778C75.4821 224.778 74.6686 225.138 74.0762 225.858C73.4883 226.574 73.1943 227.592 73.1943 228.914C73.1943 230.249 73.4951 231.272 74.0967 231.983C74.6982 232.69 75.5049 233.043 76.5166 233.043C77.5283 233.043 78.3327 232.69 78.9297 231.983C79.5312 231.272 79.832 230.249 79.832 228.914ZM90.0039 230.09C90.0039 230.71 89.915 231.277 89.7373 231.792C89.5596 232.302 89.3089 232.735 88.9854 233.091C88.6846 233.428 88.3291 233.69 87.9189 233.877C87.5133 234.059 87.0827 234.15 86.627 234.15C86.2305 234.15 85.8704 234.107 85.5469 234.021C85.2279 233.934 84.902 233.799 84.5693 233.617V236.816H83.2842V226.364H84.5693V227.164C84.9111 226.877 85.2939 226.638 85.7178 226.446C86.1462 226.25 86.6019 226.152 87.085 226.152C88.0055 226.152 88.721 226.501 89.2314 227.198C89.7464 227.891 90.0039 228.855 90.0039 230.09ZM88.6777 230.124C88.6777 229.203 88.5205 228.515 88.2061 228.06C87.8916 227.604 87.4085 227.376 86.7568 227.376C86.3877 227.376 86.0163 227.456 85.6426 227.615C85.2689 227.775 84.9111 227.984 84.5693 228.244V232.571C84.9339 232.735 85.2461 232.847 85.5059 232.906C85.7702 232.965 86.0687 232.995 86.4014 232.995C87.1169 232.995 87.6751 232.754 88.0762 232.271C88.4772 231.787 88.6777 231.072 88.6777 230.124ZM97.2705 227.492H93.292V234H92.0068V226.364H97.2705V227.492ZM104.544 234H103.266V233.187C103.152 233.264 102.997 233.373 102.801 233.515C102.609 233.651 102.423 233.761 102.24 233.843C102.026 233.948 101.78 234.034 101.502 234.103C101.224 234.175 100.898 234.212 100.524 234.212C99.8363 234.212 99.2529 233.984 98.7744 233.528C98.2959 233.073 98.0566 232.492 98.0566 231.785C98.0566 231.206 98.1797 230.739 98.4258 230.384C98.6764 230.024 99.0319 229.741 99.4922 229.536C99.957 229.331 100.515 229.192 101.167 229.119C101.819 229.046 102.518 228.992 103.266 228.955V228.757C103.266 228.465 103.213 228.224 103.108 228.032C103.008 227.841 102.862 227.69 102.671 227.581C102.489 227.476 102.27 227.406 102.015 227.369C101.759 227.333 101.493 227.314 101.215 227.314C100.878 227.314 100.502 227.36 100.087 227.451C99.6722 227.538 99.2438 227.665 98.8018 227.834H98.7334V226.528C98.984 226.46 99.3464 226.385 99.8203 226.303C100.294 226.221 100.761 226.18 101.222 226.18C101.759 226.18 102.227 226.225 102.623 226.316C103.024 226.403 103.37 226.553 103.662 226.768C103.949 226.977 104.168 227.248 104.318 227.581C104.469 227.914 104.544 228.326 104.544 228.818V234ZM103.266 232.12V229.994C102.874 230.017 102.411 230.051 101.878 230.097C101.349 230.142 100.93 230.208 100.62 230.295C100.251 230.4 99.9525 230.564 99.7246 230.787C99.4967 231.006 99.3828 231.309 99.3828 231.696C99.3828 232.134 99.515 232.464 99.7793 232.688C100.044 232.906 100.447 233.016 100.989 233.016C101.44 233.016 101.853 232.929 102.227 232.756C102.6 232.578 102.947 232.366 103.266 232.12ZM113.41 234H112.125V230.562H108.304V234H107.019V226.364H108.304V229.454H112.125V226.364H113.41V234ZM122.379 234H121.107V228.265L117.108 234H115.946V226.364H117.218V232.018L121.176 226.364H122.379V234ZM130.227 231.86C130.227 232.289 130.126 232.651 129.926 232.947C129.73 233.243 129.477 233.483 129.167 233.665C128.857 233.843 128.515 233.973 128.142 234.055C127.768 234.137 127.394 234.178 127.021 234.178C126.492 234.178 125.988 234.128 125.51 234.027C125.031 233.927 124.56 233.772 124.095 233.562V232.154H124.184C124.516 232.446 124.94 232.672 125.455 232.831C125.97 232.991 126.469 233.07 126.952 233.07C127.18 233.07 127.415 233.05 127.656 233.009C127.898 232.963 128.107 232.893 128.285 232.797C128.477 232.688 128.629 232.558 128.743 232.407C128.857 232.252 128.914 232.043 128.914 231.778C128.914 231.505 128.857 231.286 128.743 231.122C128.634 230.958 128.483 230.835 128.292 230.753C128.105 230.671 127.88 230.621 127.615 230.603C127.351 230.584 127.109 230.575 126.891 230.575H125.776V229.468H126.549C126.731 229.468 126.968 229.461 127.26 229.447C127.556 229.434 127.795 229.397 127.978 229.338C128.215 229.26 128.401 229.151 128.538 229.01C128.679 228.868 128.75 228.643 128.75 228.333C128.75 228.119 128.695 227.943 128.586 227.807C128.477 227.665 128.34 227.556 128.176 227.479C128.007 227.401 127.818 227.349 127.608 227.321C127.403 227.294 127.221 227.28 127.062 227.28C126.597 227.28 126.139 227.344 125.688 227.472C125.241 227.595 124.865 227.775 124.56 228.012H124.471V226.597C124.849 226.474 125.255 226.373 125.688 226.296C126.12 226.218 126.553 226.18 126.986 226.18C127.342 226.18 127.695 226.212 128.046 226.275C128.401 226.339 128.732 226.449 129.037 226.604C129.338 226.758 129.584 226.97 129.775 227.239C129.967 227.504 130.062 227.832 130.062 228.224C130.062 228.625 129.937 228.978 129.687 229.283C129.44 229.584 129.108 229.8 128.688 229.933V229.98C129.158 230.094 129.532 230.309 129.81 230.623C130.088 230.933 130.227 231.345 130.227 231.86ZM138.19 234H136.912V233.187C136.798 233.264 136.643 233.373 136.447 233.515C136.256 233.651 136.069 233.761 135.887 233.843C135.673 233.948 135.426 234.034 135.148 234.103C134.87 234.175 134.545 234.212 134.171 234.212C133.483 234.212 132.899 233.984 132.421 233.528C131.942 233.073 131.703 232.492 131.703 231.785C131.703 231.206 131.826 230.739 132.072 230.384C132.323 230.024 132.678 229.741 133.139 229.536C133.604 229.331 134.162 229.192 134.813 229.119C135.465 229.046 136.165 228.992 136.912 228.955V228.757C136.912 228.465 136.86 228.224 136.755 228.032C136.655 227.841 136.509 227.69 136.317 227.581C136.135 227.476 135.916 227.406 135.661 227.369C135.406 227.333 135.139 227.314 134.861 227.314C134.524 227.314 134.148 227.36 133.733 227.451C133.319 227.538 132.89 227.665 132.448 227.834H132.38V226.528C132.631 226.46 132.993 226.385 133.467 226.303C133.941 226.221 134.408 226.18 134.868 226.18C135.406 226.18 135.873 226.225 136.27 226.316C136.671 226.403 137.017 226.553 137.309 226.768C137.596 226.977 137.814 227.248 137.965 227.581C138.115 227.914 138.19 228.326 138.19 228.818V234ZM136.912 232.12V229.994C136.52 230.017 136.058 230.051 135.524 230.097C134.996 230.142 134.576 230.208 134.267 230.295C133.897 230.4 133.599 230.564 133.371 230.787C133.143 231.006 133.029 231.309 133.029 231.696C133.029 232.134 133.161 232.464 133.426 232.688C133.69 232.906 134.093 233.016 134.636 233.016C135.087 233.016 135.499 232.929 135.873 232.756C136.247 232.578 136.593 232.366 136.912 232.12ZM146.722 234H140.665V226.364H141.95V232.893H145.71V226.364H146.995V232.893H147.918V235.832H146.722V234ZM156.121 234H154.85V228.265L150.851 234H149.688V226.364H150.96V232.018L154.918 226.364H156.121V234ZM164.522 234H163.237V230.972H161.727L159.361 234H157.851L160.421 230.849C159.76 230.666 159.277 230.388 158.972 230.015C158.666 229.636 158.514 229.142 158.514 228.531C158.514 228.126 158.605 227.782 158.787 227.499C158.969 227.216 159.2 226.986 159.478 226.809C159.751 226.635 160.065 226.519 160.421 226.46C160.776 226.396 161.164 226.364 161.583 226.364H164.522V234ZM163.237 229.96V227.39H161.617C161.266 227.39 161.013 227.401 160.858 227.424C160.703 227.447 160.535 227.508 160.353 227.608C160.175 227.709 160.043 227.845 159.956 228.019C159.874 228.187 159.833 228.372 159.833 228.572C159.833 228.823 159.858 229.026 159.908 229.181C159.963 229.336 160.072 229.481 160.236 229.618C160.405 229.75 160.61 229.841 160.852 229.892C161.093 229.937 161.362 229.96 161.658 229.96H163.237ZM179.76 230.849C179.76 231.341 179.662 231.787 179.466 232.188C179.274 232.59 179.017 232.915 178.693 233.166C178.311 233.467 177.9 233.681 177.463 233.809C177.025 233.936 176.46 234 175.768 234H172.076V223.821H178.892V225.024H173.43V227.813H175.809C176.501 227.813 177.066 227.854 177.504 227.937C177.941 228.014 178.354 228.203 178.741 228.504C179.088 228.773 179.343 229.105 179.507 229.502C179.675 229.898 179.76 230.347 179.76 230.849ZM178.345 230.876C178.345 230.534 178.288 230.233 178.174 229.974C178.06 229.714 177.882 229.504 177.641 229.345C177.39 229.176 177.101 229.074 176.772 229.037C176.444 229.001 175.982 228.982 175.385 228.982H173.43V232.845H175.351C175.957 232.845 176.422 232.815 176.745 232.756C177.073 232.697 177.36 232.583 177.606 232.414C177.862 232.236 178.049 232.029 178.167 231.792C178.285 231.55 178.345 231.245 178.345 230.876ZM188.004 234H186.732V228.265L182.733 234H181.571V226.364H182.843V232.018L186.801 226.364H188.004V234ZM195.852 231.86C195.852 232.289 195.751 232.651 195.551 232.947C195.355 233.243 195.102 233.483 194.792 233.665C194.482 233.843 194.14 233.973 193.767 234.055C193.393 234.137 193.019 234.178 192.646 234.178C192.117 234.178 191.613 234.128 191.135 234.027C190.656 233.927 190.185 233.772 189.72 233.562V232.154H189.809C190.141 232.446 190.565 232.672 191.08 232.831C191.595 232.991 192.094 233.07 192.577 233.07C192.805 233.07 193.04 233.05 193.281 233.009C193.523 232.963 193.732 232.893 193.91 232.797C194.102 232.688 194.254 232.558 194.368 232.407C194.482 232.252 194.539 232.043 194.539 231.778C194.539 231.505 194.482 231.286 194.368 231.122C194.259 230.958 194.108 230.835 193.917 230.753C193.73 230.671 193.505 230.621 193.24 230.603C192.976 230.584 192.734 230.575 192.516 230.575H191.401V229.468H192.174C192.356 229.468 192.593 229.461 192.885 229.447C193.181 229.434 193.42 229.397 193.603 229.338C193.84 229.26 194.026 229.151 194.163 229.01C194.304 228.868 194.375 228.643 194.375 228.333C194.375 228.119 194.32 227.943 194.211 227.807C194.102 227.665 193.965 227.556 193.801 227.479C193.632 227.401 193.443 227.349 193.233 227.321C193.028 227.294 192.846 227.28 192.687 227.28C192.222 227.28 191.764 227.344 191.312 227.472C190.866 227.595 190.49 227.775 190.185 228.012H190.096V226.597C190.474 226.474 190.88 226.373 191.312 226.296C191.745 226.218 192.178 226.18 192.611 226.18C192.967 226.18 193.32 226.212 193.671 226.275C194.026 226.339 194.357 226.449 194.662 226.604C194.963 226.758 195.209 226.97 195.4 227.239C195.592 227.504 195.688 227.832 195.688 228.224C195.688 228.625 195.562 228.978 195.312 229.283C195.065 229.584 194.733 229.8 194.313 229.933V229.98C194.783 230.094 195.157 230.309 195.435 230.623C195.713 230.933 195.852 231.345 195.852 231.86ZM204.273 234H202.988V230.562H199.167V234H197.882V226.364H199.167V229.454H202.988V226.364H204.273V234ZM213.201 230.315H207.575C207.575 230.785 207.646 231.195 207.787 231.546C207.928 231.892 208.122 232.177 208.368 232.4C208.605 232.619 208.885 232.783 209.209 232.893C209.537 233.002 209.897 233.057 210.289 233.057C210.809 233.057 211.33 232.954 211.854 232.749C212.383 232.539 212.759 232.334 212.982 232.134H213.051V233.535C212.618 233.717 212.176 233.87 211.725 233.993C211.273 234.116 210.799 234.178 210.303 234.178C209.036 234.178 208.047 233.836 207.336 233.152C206.625 232.464 206.27 231.489 206.27 230.227C206.27 228.978 206.609 227.987 207.288 227.253C207.972 226.519 208.869 226.152 209.981 226.152C211.011 226.152 211.804 226.453 212.36 227.055C212.921 227.656 213.201 228.511 213.201 229.618V230.315ZM211.95 229.331C211.946 228.657 211.775 228.135 211.438 227.766C211.105 227.396 210.597 227.212 209.913 227.212C209.225 227.212 208.676 227.415 208.266 227.82C207.86 228.226 207.63 228.729 207.575 229.331H211.95ZM220.864 233.521C220.34 233.768 219.889 233.936 219.511 234.027C219.137 234.123 218.763 234.171 218.39 234.171C217.834 234.171 217.323 234.091 216.858 233.932C216.394 233.768 215.995 233.521 215.662 233.193C215.329 232.865 215.07 232.451 214.883 231.949C214.701 231.448 214.609 230.862 214.609 230.192C214.609 228.976 214.947 228.005 215.621 227.28C216.296 226.551 217.218 226.187 218.39 226.187C218.832 226.187 219.265 226.248 219.688 226.371C220.117 226.494 220.509 226.645 220.864 226.822V228.251H220.789C220.365 227.927 219.946 227.688 219.531 227.533C219.121 227.378 218.722 227.301 218.335 227.301C217.574 227.301 216.984 227.556 216.564 228.066C216.15 228.577 215.942 229.285 215.942 230.192C215.942 231.099 216.15 231.803 216.564 232.305C216.979 232.806 217.569 233.057 218.335 233.057C218.604 233.057 218.87 233.022 219.135 232.954C219.404 232.886 219.647 232.797 219.866 232.688C220.039 232.601 220.217 232.498 220.399 232.38C220.586 232.257 220.716 232.166 220.789 232.106H220.864V233.521ZM80.5498 251H78.8135L74.6777 246.358H73.7549V251H72.4014V240.821H73.7549V245.388C73.9873 245.383 74.2061 245.36 74.4111 245.319C74.6162 245.278 74.8099 245.201 74.9922 245.087C75.1745 244.982 75.3545 244.834 75.5322 244.643C75.71 244.447 75.8672 244.207 76.0039 243.925C76.0632 243.802 76.1315 243.647 76.209 243.46C76.291 243.273 76.373 243.077 76.4551 242.872C76.7695 242.116 77.1364 241.585 77.5557 241.279C77.9795 240.974 78.6016 240.821 79.4219 240.821H79.9619V242.031H79.3945C79.0801 242.031 78.834 242.061 78.6562 242.12C78.4785 242.175 78.319 242.268 78.1777 242.4C78.0456 242.519 77.9294 242.678 77.8291 242.879C77.7334 243.079 77.6331 243.314 77.5283 243.583C77.2913 244.185 77.0498 244.627 76.8037 244.909C76.5622 245.192 76.2363 245.438 75.8262 245.647L80.5498 251ZM88.4795 247.186C88.4795 248.43 88.1605 249.412 87.5225 250.132C86.8844 250.852 86.0299 251.212 84.959 251.212C83.8789 251.212 83.0199 250.852 82.3818 250.132C81.7484 249.412 81.4316 248.43 81.4316 247.186C81.4316 245.941 81.7484 244.959 82.3818 244.239C83.0199 243.515 83.8789 243.152 84.959 243.152C86.0299 243.152 86.8844 243.515 87.5225 244.239C88.1605 244.959 88.4795 245.941 88.4795 247.186ZM87.1533 247.186C87.1533 246.197 86.9596 245.463 86.5723 244.984C86.1849 244.501 85.6471 244.26 84.959 244.26C84.2617 244.26 83.7194 244.501 83.332 244.984C82.9492 245.463 82.7578 246.197 82.7578 247.186C82.7578 248.143 82.9515 248.869 83.3389 249.366C83.7262 249.858 84.2663 250.104 84.959 250.104C85.6426 250.104 86.1781 249.861 86.5654 249.373C86.9574 248.881 87.1533 248.152 87.1533 247.186ZM96.8672 251H95.582V247.562H91.7607V251H90.4756V243.364H91.7607V246.454H95.582V243.364H96.8672V251ZM105.118 250.521C104.594 250.768 104.143 250.936 103.765 251.027C103.391 251.123 103.017 251.171 102.644 251.171C102.088 251.171 101.577 251.091 101.112 250.932C100.647 250.768 100.249 250.521 99.916 250.193C99.5833 249.865 99.3236 249.451 99.1367 248.949C98.9544 248.448 98.8633 247.862 98.8633 247.192C98.8633 245.976 99.2005 245.005 99.875 244.28C100.549 243.551 101.472 243.187 102.644 243.187C103.086 243.187 103.519 243.248 103.942 243.371C104.371 243.494 104.763 243.645 105.118 243.822V245.251H105.043C104.619 244.927 104.2 244.688 103.785 244.533C103.375 244.378 102.976 244.301 102.589 244.301C101.828 244.301 101.238 244.556 100.818 245.066C100.404 245.577 100.196 246.285 100.196 247.192C100.196 248.099 100.404 248.803 100.818 249.305C101.233 249.806 101.823 250.057 102.589 250.057C102.858 250.057 103.124 250.022 103.389 249.954C103.658 249.886 103.901 249.797 104.12 249.688C104.293 249.601 104.471 249.498 104.653 249.38C104.84 249.257 104.97 249.166 105.043 249.106H105.118V250.521ZM113.485 243.364L109.028 253.816H107.654L109.076 250.631L106.034 243.364H107.429L109.773 249.024L112.139 243.364H113.485ZM121.326 251H120.041V244.444H117.19C117.177 244.823 117.163 245.187 117.149 245.538C117.136 245.889 117.122 246.206 117.108 246.488C117.076 247.249 117.024 247.858 116.951 248.313C116.878 248.765 116.783 249.141 116.664 249.441C116.555 249.724 116.432 249.954 116.295 250.132C116.163 250.305 116.019 250.462 115.864 250.604C115.709 250.74 115.536 250.843 115.345 250.911C115.158 250.979 114.953 251.014 114.729 251.014C114.652 251.014 114.538 251.011 114.388 251.007C114.242 251.002 114.146 251 114.101 251V249.879H114.169C114.205 249.879 114.258 249.881 114.326 249.886C114.395 249.89 114.451 249.893 114.497 249.893C114.606 249.893 114.718 249.877 114.832 249.845C114.951 249.813 115.051 249.754 115.133 249.667C115.365 249.439 115.552 249.054 115.693 248.512C115.835 247.969 115.928 247.186 115.974 246.16C115.992 245.786 116.008 245.344 116.021 244.834C116.04 244.319 116.056 243.829 116.069 243.364H121.326V251ZM128.634 248.655C128.634 248.423 128.593 248.22 128.511 248.047C128.433 247.869 128.303 247.726 128.121 247.616C127.93 247.502 127.711 247.434 127.465 247.411C127.223 247.388 126.875 247.377 126.419 247.377H125.147V249.975H126.392C126.847 249.975 127.201 249.956 127.451 249.92C127.702 249.879 127.918 249.804 128.101 249.694C128.287 249.576 128.422 249.437 128.504 249.277C128.59 249.113 128.634 248.906 128.634 248.655ZM129.96 248.635C129.96 249.004 129.885 249.339 129.734 249.64C129.589 249.94 129.388 250.184 129.133 250.371C128.832 250.599 128.511 250.761 128.169 250.856C127.827 250.952 127.387 251 126.85 251H123.862V243.364H125.147V246.338H126.884C127.458 246.338 127.902 246.368 128.217 246.427C128.536 246.486 128.853 246.632 129.167 246.864C129.431 247.06 129.63 247.311 129.762 247.616C129.894 247.922 129.96 248.261 129.96 248.635ZM137.473 244.492H134.711V251H133.426V244.492H130.664V243.364H137.473V244.492ZM144.739 251H143.461V250.187C143.347 250.264 143.192 250.373 142.996 250.515C142.805 250.651 142.618 250.761 142.436 250.843C142.221 250.948 141.975 251.034 141.697 251.103C141.419 251.175 141.093 251.212 140.72 251.212C140.032 251.212 139.448 250.984 138.97 250.528C138.491 250.073 138.252 249.492 138.252 248.785C138.252 248.206 138.375 247.739 138.621 247.384C138.872 247.024 139.227 246.741 139.688 246.536C140.152 246.331 140.711 246.192 141.362 246.119C142.014 246.046 142.714 245.992 143.461 245.955V245.757C143.461 245.465 143.409 245.224 143.304 245.032C143.203 244.841 143.058 244.69 142.866 244.581C142.684 244.476 142.465 244.406 142.21 244.369C141.955 244.333 141.688 244.314 141.41 244.314C141.073 244.314 140.697 244.36 140.282 244.451C139.868 244.538 139.439 244.665 138.997 244.834H138.929V243.528C139.179 243.46 139.542 243.385 140.016 243.303C140.49 243.221 140.957 243.18 141.417 243.18C141.955 243.18 142.422 243.225 142.818 243.316C143.219 243.403 143.566 243.553 143.857 243.768C144.145 243.977 144.363 244.248 144.514 244.581C144.664 244.914 144.739 245.326 144.739 245.818V251ZM143.461 249.12V246.994C143.069 247.017 142.606 247.051 142.073 247.097C141.545 247.142 141.125 247.208 140.815 247.295C140.446 247.4 140.148 247.564 139.92 247.787C139.692 248.006 139.578 248.309 139.578 248.696C139.578 249.134 139.71 249.464 139.975 249.688C140.239 249.906 140.642 250.016 141.185 250.016C141.636 250.016 142.048 249.929 142.422 249.756C142.796 249.578 143.142 249.366 143.461 249.12ZM153.271 251H147.214V243.364H148.499V249.893H152.259V243.364H153.544V249.893H154.467V252.832H153.271V251ZM162.67 251H161.398V245.265L157.399 251H156.237V243.364H157.509V249.018L161.467 243.364H162.67V251ZM171.639 251H170.367V245.265L166.368 251H165.206V243.364H166.478V249.018L170.436 243.364H171.639V251Z" fill="#333333"/>
<path d="M38 277L45.5 284.5L58 269.5" stroke="#61B857" stroke-width="2" stroke-linecap="round" stroke-linejoin="round"/>
<path d="M79.9551 266.99C80.3698 267.446 80.6865 268.004 80.9053 268.665C81.1286 269.326 81.2402 270.076 81.2402 270.914C81.2402 271.753 81.1263 272.505 80.8984 273.17C80.6751 273.831 80.3607 274.382 79.9551 274.824C79.5358 275.285 79.0391 275.631 78.4648 275.863C77.8952 276.096 77.2435 276.212 76.5098 276.212C75.7943 276.212 75.1426 276.093 74.5547 275.856C73.9714 275.619 73.4746 275.275 73.0645 274.824C72.6543 274.373 72.3376 273.819 72.1143 273.163C71.8955 272.507 71.7861 271.757 71.7861 270.914C71.7861 270.085 71.8955 269.342 72.1143 268.686C72.333 268.025 72.652 267.46 73.0713 266.99C73.4723 266.544 73.9691 266.202 74.5615 265.965C75.1585 265.728 75.8079 265.609 76.5098 265.609C77.2389 265.609 77.8929 265.73 78.4717 265.972C79.055 266.209 79.5495 266.548 79.9551 266.99ZM79.832 270.914C79.832 269.592 79.5358 268.574 78.9434 267.858C78.3509 267.138 77.542 266.778 76.5166 266.778C75.4821 266.778 74.6686 267.138 74.0762 267.858C73.4883 268.574 73.1943 269.592 73.1943 270.914C73.1943 272.249 73.4951 273.272 74.0967 273.983C74.6982 274.69 75.5049 275.043 76.5166 275.043C77.5283 275.043 78.3327 274.69 78.9297 273.983C79.5312 273.272 79.832 272.249 79.832 270.914ZM90.0039 272.09C90.0039 272.71 89.915 273.277 89.7373 273.792C89.5596 274.302 89.3089 274.735 88.9854 275.091C88.6846 275.428 88.3291 275.69 87.9189 275.877C87.5133 276.059 87.0827 276.15 86.627 276.15C86.2305 276.15 85.8704 276.107 85.5469 276.021C85.2279 275.934 84.902 275.799 84.5693 275.617V278.816H83.2842V268.364H84.5693V269.164C84.9111 268.877 85.2939 268.638 85.7178 268.446C86.1462 268.25 86.6019 268.152 87.085 268.152C88.0055 268.152 88.721 268.501 89.2314 269.198C89.7464 269.891 90.0039 270.855 90.0039 272.09ZM88.6777 272.124C88.6777 271.203 88.5205 270.515 88.2061 270.06C87.8916 269.604 87.4085 269.376 86.7568 269.376C86.3877 269.376 86.0163 269.456 85.6426 269.615C85.2689 269.775 84.9111 269.984 84.5693 270.244V274.571C84.9339 274.735 85.2461 274.847 85.5059 274.906C85.7702 274.965 86.0687 274.995 86.4014 274.995C87.1169 274.995 87.6751 274.754 88.0762 274.271C88.4772 273.787 88.6777 273.072 88.6777 272.124ZM97.2705 269.492H93.292V276H92.0068V268.364H97.2705V269.492ZM104.544 276H103.266V275.187C103.152 275.264 102.997 275.373 102.801 275.515C102.609 275.651 102.423 275.761 102.24 275.843C102.026 275.948 101.78 276.034 101.502 276.103C101.224 276.175 100.898 276.212 100.524 276.212C99.8363 276.212 99.2529 275.984 98.7744 275.528C98.2959 275.073 98.0566 274.492 98.0566 273.785C98.0566 273.206 98.1797 272.739 98.4258 272.384C98.6764 272.024 99.0319 271.741 99.4922 271.536C99.957 271.331 100.515 271.192 101.167 271.119C101.819 271.046 102.518 270.992 103.266 270.955V270.757C103.266 270.465 103.213 270.224 103.108 270.032C103.008 269.841 102.862 269.69 102.671 269.581C102.489 269.476 102.27 269.406 102.015 269.369C101.759 269.333 101.493 269.314 101.215 269.314C100.878 269.314 100.502 269.36 100.087 269.451C99.6722 269.538 99.2438 269.665 98.8018 269.834H98.7334V268.528C98.984 268.46 99.3464 268.385 99.8203 268.303C100.294 268.221 100.761 268.18 101.222 268.18C101.759 268.18 102.227 268.225 102.623 268.316C103.024 268.403 103.37 268.553 103.662 268.768C103.949 268.977 104.168 269.248 104.318 269.581C104.469 269.914 104.544 270.326 104.544 270.818V276ZM103.266 274.12V271.994C102.874 272.017 102.411 272.051 101.878 272.097C101.349 272.142 100.93 272.208 100.62 272.295C100.251 272.4 99.9525 272.564 99.7246 272.787C99.4967 273.006 99.3828 273.309 99.3828 273.696C99.3828 274.134 99.515 274.464 99.7793 274.688C100.044 274.906 100.447 275.016 100.989 275.016C101.44 275.016 101.853 274.929 102.227 274.756C102.6 274.578 102.947 274.366 103.266 274.12ZM113.41 276H112.125V272.562H108.304V276H107.019V268.364H108.304V271.454H112.125V268.364H113.41V276ZM122.379 276H121.107V270.265L117.108 276H115.946V268.364H117.218V274.018L121.176 268.364H122.379V276ZM130.227 273.86C130.227 274.289 130.126 274.651 129.926 274.947C129.73 275.243 129.477 275.483 129.167 275.665C128.857 275.843 128.515 275.973 128.142 276.055C127.768 276.137 127.394 276.178 127.021 276.178C126.492 276.178 125.988 276.128 125.51 276.027C125.031 275.927 124.56 275.772 124.095 275.562V274.154H124.184C124.516 274.446 124.94 274.672 125.455 274.831C125.97 274.991 126.469 275.07 126.952 275.07C127.18 275.07 127.415 275.05 127.656 275.009C127.898 274.963 128.107 274.893 128.285 274.797C128.477 274.688 128.629 274.558 128.743 274.407C128.857 274.252 128.914 274.043 128.914 273.778C128.914 273.505 128.857 273.286 128.743 273.122C128.634 272.958 128.483 272.835 128.292 272.753C128.105 272.671 127.88 272.621 127.615 272.603C127.351 272.584 127.109 272.575 126.891 272.575H125.776V271.468H126.549C126.731 271.468 126.968 271.461 127.26 271.447C127.556 271.434 127.795 271.397 127.978 271.338C128.215 271.26 128.401 271.151 128.538 271.01C128.679 270.868 128.75 270.643 128.75 270.333C128.75 270.119 128.695 269.943 128.586 269.807C128.477 269.665 128.34 269.556 128.176 269.479C128.007 269.401 127.818 269.349 127.608 269.321C127.403 269.294 127.221 269.28 127.062 269.28C126.597 269.28 126.139 269.344 125.688 269.472C125.241 269.595 124.865 269.775 124.56 270.012H124.471V268.597C124.849 268.474 125.255 268.373 125.688 268.296C126.12 268.218 126.553 268.18 126.986 268.18C127.342 268.18 127.695 268.212 128.046 268.275C128.401 268.339 128.732 268.449 129.037 268.604C129.338 268.758 129.584 268.97 129.775 269.239C129.967 269.504 130.062 269.832 130.062 270.224C130.062 270.625 129.937 270.978 129.687 271.283C129.44 271.584 129.108 271.8 128.688 271.933V271.98C129.158 272.094 129.532 272.309 129.81 272.623C130.088 272.933 130.227 273.345 130.227 273.86ZM138.19 276H136.912V275.187C136.798 275.264 136.643 275.373 136.447 275.515C136.256 275.651 136.069 275.761 135.887 275.843C135.673 275.948 135.426 276.034 135.148 276.103C134.87 276.175 134.545 276.212 134.171 276.212C133.483 276.212 132.899 275.984 132.421 275.528C131.942 275.073 131.703 274.492 131.703 273.785C131.703 273.206 131.826 272.739 132.072 272.384C132.323 272.024 132.678 271.741 133.139 271.536C133.604 271.331 134.162 271.192 134.813 271.119C135.465 271.046 136.165 270.992 136.912 270.955V270.757C136.912 270.465 136.86 270.224 136.755 270.032C136.655 269.841 136.509 269.69 136.317 269.581C136.135 269.476 135.916 269.406 135.661 269.369C135.406 269.333 135.139 269.314 134.861 269.314C134.524 269.314 134.148 269.36 133.733 269.451C133.319 269.538 132.89 269.665 132.448 269.834H132.38V268.528C132.631 268.46 132.993 268.385 133.467 268.303C133.941 268.221 134.408 268.18 134.868 268.18C135.406 268.18 135.873 268.225 136.27 268.316C136.671 268.403 137.017 268.553 137.309 268.768C137.596 268.977 137.814 269.248 137.965 269.581C138.115 269.914 138.19 270.326 138.19 270.818V276ZM136.912 274.12V271.994C136.52 272.017 136.058 272.051 135.524 272.097C134.996 272.142 134.576 272.208 134.267 272.295C133.897 272.4 133.599 272.564 133.371 272.787C133.143 273.006 133.029 273.309 133.029 273.696C133.029 274.134 133.161 274.464 133.426 274.688C133.69 274.906 134.093 275.016 134.636 275.016C135.087 275.016 135.499 274.929 135.873 274.756C136.247 274.578 136.593 274.366 136.912 274.12ZM146.722 276H140.665V268.364H141.95V274.893H145.71V268.364H146.995V274.893H147.918V277.832H146.722V276ZM156.121 276H154.85V270.265L150.851 276H149.688V268.364H150.96V274.018L154.918 268.364H156.121V276ZM164.522 276H163.237V272.972H161.727L159.361 276H157.851L160.421 272.849C159.76 272.666 159.277 272.388 158.972 272.015C158.666 271.636 158.514 271.142 158.514 270.531C158.514 270.126 158.605 269.782 158.787 269.499C158.969 269.216 159.2 268.986 159.478 268.809C159.751 268.635 160.065 268.519 160.421 268.46C160.776 268.396 161.164 268.364 161.583 268.364H164.522V276ZM163.237 271.96V269.39H161.617C161.266 269.39 161.013 269.401 160.858 269.424C160.703 269.447 160.535 269.508 160.353 269.608C160.175 269.709 160.043 269.845 159.956 270.019C159.874 270.187 159.833 270.372 159.833 270.572C159.833 270.823 159.858 271.026 159.908 271.181C159.963 271.336 160.072 271.481 160.236 271.618C160.405 271.75 160.61 271.841 160.852 271.892C161.093 271.937 161.362 271.96 161.658 271.96H163.237ZM179.76 272.849C179.76 273.341 179.662 273.787 179.466 274.188C179.274 274.59 179.017 274.915 178.693 275.166C178.311 275.467 177.9 275.681 177.463 275.809C177.025 275.936 176.46 276 175.768 276H172.076V265.821H178.892V267.024H173.43V269.813H175.809C176.501 269.813 177.066 269.854 177.504 269.937C177.941 270.014 178.354 270.203 178.741 270.504C179.088 270.773 179.343 271.105 179.507 271.502C179.675 271.898 179.76 272.347 179.76 272.849ZM178.345 272.876C178.345 272.534 178.288 272.233 178.174 271.974C178.06 271.714 177.882 271.504 177.641 271.345C177.39 271.176 177.101 271.074 176.772 271.037C176.444 271.001 175.982 270.982 175.385 270.982H173.43V274.845H175.351C175.957 274.845 176.422 274.815 176.745 274.756C177.073 274.697 177.36 274.583 177.606 274.414C177.862 274.236 178.049 274.029 178.167 273.792C178.285 273.55 178.345 273.245 178.345 272.876ZM188.004 276H186.732V270.265L182.733 276H181.571V268.364H182.843V274.018L186.801 268.364H188.004V276ZM195.852 273.86C195.852 274.289 195.751 274.651 195.551 274.947C195.355 275.243 195.102 275.483 194.792 275.665C194.482 275.843 194.14 275.973 193.767 276.055C193.393 276.137 193.019 276.178 192.646 276.178C192.117 276.178 191.613 276.128 191.135 276.027C190.656 275.927 190.185 275.772 189.72 275.562V274.154H189.809C190.141 274.446 190.565 274.672 191.08 274.831C191.595 274.991 192.094 275.07 192.577 275.07C192.805 275.07 193.04 275.05 193.281 275.009C193.523 274.963 193.732 274.893 193.91 274.797C194.102 274.688 194.254 274.558 194.368 274.407C194.482 274.252 194.539 274.043 194.539 273.778C194.539 273.505 194.482 273.286 194.368 273.122C194.259 272.958 194.108 272.835 193.917 272.753C193.73 272.671 193.505 272.621 193.24 272.603C192.976 272.584 192.734 272.575 192.516 272.575H191.401V271.468H192.174C192.356 271.468 192.593 271.461 192.885 271.447C193.181 271.434 193.42 271.397 193.603 271.338C193.84 271.26 194.026 271.151 194.163 271.01C194.304 270.868 194.375 270.643 194.375 270.333C194.375 270.119 194.32 269.943 194.211 269.807C194.102 269.665 193.965 269.556 193.801 269.479C193.632 269.401 193.443 269.349 193.233 269.321C193.028 269.294 192.846 269.28 192.687 269.28C192.222 269.28 191.764 269.344 191.312 269.472C190.866 269.595 190.49 269.775 190.185 270.012H190.096V268.597C190.474 268.474 190.88 268.373 191.312 268.296C191.745 268.218 192.178 268.18 192.611 268.18C192.967 268.18 193.32 268.212 193.671 268.275C194.026 268.339 194.357 268.449 194.662 268.604C194.963 268.758 195.209 268.97 195.4 269.239C195.592 269.504 195.688 269.832 195.688 270.224C195.688 270.625 195.562 270.978 195.312 271.283C195.065 271.584 194.733 271.8 194.313 271.933V271.98C194.783 272.094 195.157 272.309 195.435 272.623C195.713 272.933 195.852 273.345 195.852 273.86ZM204.273 276H202.988V272.562H199.167V276H197.882V268.364H199.167V271.454H202.988V268.364H204.273V276ZM213.201 272.315H207.575C207.575 272.785 207.646 273.195 207.787 273.546C207.928 273.892 208.122 274.177 208.368 274.4C208.605 274.619 208.885 274.783 209.209 274.893C209.537 275.002 209.897 275.057 210.289 275.057C210.809 275.057 211.33 274.954 211.854 274.749C212.383 274.539 212.759 274.334 212.982 274.134H213.051V275.535C212.618 275.717 212.176 275.87 211.725 275.993C211.273 276.116 210.799 276.178 210.303 276.178C209.036 276.178 208.047 275.836 207.336 275.152C206.625 274.464 206.27 273.489 206.27 272.227C206.27 270.978 206.609 269.987 207.288 269.253C207.972 268.519 208.869 268.152 209.981 268.152C211.011 268.152 211.804 268.453 212.36 269.055C212.921 269.656 213.201 270.511 213.201 271.618V272.315ZM211.95 271.331C211.946 270.657 211.775 270.135 211.438 269.766C211.105 269.396 210.597 269.212 209.913 269.212C209.225 269.212 208.676 269.415 208.266 269.82C207.86 270.226 207.63 270.729 207.575 271.331H211.95ZM220.864 275.521C220.34 275.768 219.889 275.936 219.511 276.027C219.137 276.123 218.763 276.171 218.39 276.171C217.834 276.171 217.323 276.091 216.858 275.932C216.394 275.768 215.995 275.521 215.662 275.193C215.329 274.865 215.07 274.451 214.883 273.949C214.701 273.448 214.609 272.862 214.609 272.192C214.609 270.976 214.947 270.005 215.621 269.28C216.296 268.551 217.218 268.187 218.39 268.187C218.832 268.187 219.265 268.248 219.688 268.371C220.117 268.494 220.509 268.645 220.864 268.822V270.251H220.789C220.365 269.927 219.946 269.688 219.531 269.533C219.121 269.378 218.722 269.301 218.335 269.301C217.574 269.301 216.984 269.556 216.564 270.066C216.15 270.577 215.942 271.285 215.942 272.192C215.942 273.099 216.15 273.803 216.564 274.305C216.979 274.806 217.569 275.057 218.335 275.057C218.604 275.057 218.87 275.022 219.135 274.954C219.404 274.886 219.647 274.797 219.866 274.688C220.039 274.601 220.217 274.498 220.399 274.38C220.586 274.257 220.716 274.166 220.789 274.106H220.864V275.521ZM80.1533 293H78.7998V284.024H73.7207V293H72.3672V282.821H80.1533V293ZM89.2998 289.186C89.2998 290.43 88.9808 291.412 88.3428 292.132C87.7048 292.852 86.8503 293.212 85.7793 293.212C84.6992 293.212 83.8402 292.852 83.2021 292.132C82.5687 291.412 82.252 290.43 82.252 289.186C82.252 287.941 82.5687 286.959 83.2021 286.239C83.8402 285.515 84.6992 285.152 85.7793 285.152C86.8503 285.152 87.7048 285.515 88.3428 286.239C88.9808 286.959 89.2998 287.941 89.2998 289.186ZM87.9736 289.186C87.9736 288.197 87.7799 287.463 87.3926 286.984C87.0052 286.501 86.4674 286.26 85.7793 286.26C85.082 286.26 84.5397 286.501 84.1523 286.984C83.7695 287.463 83.5781 288.197 83.5781 289.186C83.5781 290.143 83.7718 290.869 84.1592 291.366C84.5465 291.858 85.0866 292.104 85.7793 292.104C86.4629 292.104 86.9984 291.861 87.3857 291.373C87.7777 290.881 87.9736 290.152 87.9736 289.186ZM97.6875 289.315H92.0615C92.0615 289.785 92.1322 290.195 92.2734 290.546C92.4147 290.892 92.6084 291.177 92.8545 291.4C93.0915 291.619 93.3717 291.783 93.6953 291.893C94.0234 292.002 94.3835 292.057 94.7754 292.057C95.2949 292.057 95.8167 291.954 96.3408 291.749C96.8695 291.539 97.2454 291.334 97.4688 291.134H97.5371V292.535C97.1042 292.717 96.6621 292.87 96.2109 292.993C95.7598 293.116 95.2858 293.178 94.7891 293.178C93.5221 293.178 92.5332 292.836 91.8223 292.152C91.1113 291.464 90.7559 290.489 90.7559 289.227C90.7559 287.978 91.0954 286.987 91.7744 286.253C92.458 285.519 93.3558 285.152 94.4678 285.152C95.4977 285.152 96.2907 285.453 96.8467 286.055C97.4072 286.656 97.6875 287.511 97.6875 288.618V289.315ZM96.4365 288.331C96.432 287.657 96.2611 287.135 95.9238 286.766C95.5911 286.396 95.083 286.212 94.3994 286.212C93.7113 286.212 93.1621 286.415 92.752 286.82C92.3464 287.226 92.1162 287.729 92.0615 288.331H96.4365ZM104.947 290.86C104.947 291.289 104.847 291.651 104.646 291.947C104.451 292.243 104.198 292.483 103.888 292.665C103.578 292.843 103.236 292.973 102.862 293.055C102.489 293.137 102.115 293.178 101.741 293.178C101.213 293.178 100.709 293.128 100.23 293.027C99.752 292.927 99.2803 292.772 98.8154 292.562V291.154H98.9043C99.237 291.446 99.6608 291.672 100.176 291.831C100.691 291.991 101.19 292.07 101.673 292.07C101.901 292.07 102.135 292.05 102.377 292.009C102.618 291.963 102.828 291.893 103.006 291.797C103.197 291.688 103.35 291.558 103.464 291.407C103.578 291.252 103.635 291.043 103.635 290.778C103.635 290.505 103.578 290.286 103.464 290.122C103.354 289.958 103.204 289.835 103.013 289.753C102.826 289.671 102.6 289.621 102.336 289.603C102.072 289.584 101.83 289.575 101.611 289.575H100.497V288.468H101.27C101.452 288.468 101.689 288.461 101.98 288.447C102.277 288.434 102.516 288.397 102.698 288.338C102.935 288.26 103.122 288.151 103.259 288.01C103.4 287.868 103.471 287.643 103.471 287.333C103.471 287.119 103.416 286.943 103.307 286.807C103.197 286.665 103.061 286.556 102.896 286.479C102.728 286.401 102.539 286.349 102.329 286.321C102.124 286.294 101.942 286.28 101.782 286.28C101.317 286.28 100.859 286.344 100.408 286.472C99.9616 286.595 99.5856 286.775 99.2803 287.012H99.1914V285.597C99.5697 285.474 99.9753 285.373 100.408 285.296C100.841 285.218 101.274 285.18 101.707 285.18C102.062 285.18 102.416 285.212 102.767 285.275C103.122 285.339 103.452 285.449 103.758 285.604C104.059 285.758 104.305 285.97 104.496 286.239C104.688 286.504 104.783 286.832 104.783 287.224C104.783 287.625 104.658 287.978 104.407 288.283C104.161 288.584 103.828 288.8 103.409 288.933V288.98C103.879 289.094 104.252 289.309 104.53 289.623C104.808 289.933 104.947 290.345 104.947 290.86ZM113.909 294.832H112.713V292.979H106.971V294.832H105.774V291.906H106.602C107.135 291.027 107.531 290.013 107.791 288.864C108.055 287.711 108.188 286.545 108.188 285.364H112.986V291.906H113.909V294.832ZM111.701 291.906V286.444H109.397C109.338 287.588 109.163 288.632 108.871 289.575C108.579 290.519 108.244 291.296 107.866 291.906H111.701ZM122.194 289.186C122.194 290.43 121.875 291.412 121.237 292.132C120.599 292.852 119.745 293.212 118.674 293.212C117.594 293.212 116.735 292.852 116.097 292.132C115.463 291.412 115.146 290.43 115.146 289.186C115.146 287.941 115.463 286.959 116.097 286.239C116.735 285.515 117.594 285.152 118.674 285.152C119.745 285.152 120.599 285.515 121.237 286.239C121.875 286.959 122.194 287.941 122.194 289.186ZM120.868 289.186C120.868 288.197 120.674 287.463 120.287 286.984C119.9 286.501 119.362 286.26 118.674 286.26C117.977 286.26 117.434 286.501 117.047 286.984C116.664 287.463 116.473 288.197 116.473 289.186C116.473 290.143 116.666 290.869 117.054 291.366C117.441 291.858 117.981 292.104 118.674 292.104C119.357 292.104 119.893 291.861 120.28 291.373C120.672 290.881 120.868 290.152 120.868 289.186ZM131.081 293H129.399L126.228 289.5H125.53V293H124.245V285.364H125.53V288.659C125.954 288.659 126.296 288.584 126.556 288.434C126.815 288.279 127.036 288.033 127.219 287.695C127.283 287.572 127.344 287.442 127.403 287.306C127.467 287.164 127.529 287.03 127.588 286.902C127.825 286.387 128.121 286.002 128.477 285.747C128.832 285.492 129.342 285.364 130.008 285.364H130.596V286.472H130.028C129.668 286.472 129.386 286.549 129.181 286.704C128.98 286.854 128.798 287.121 128.634 287.504C128.451 287.932 128.258 288.254 128.053 288.468C127.852 288.677 127.638 288.837 127.41 288.946L131.081 293Z" fill="#333333"/>
</g>
<defs>
<filter id="filter0_d_1763_10039" x="0" y="-15" width="383" height="440" filterUnits="userSpaceOnUse" color-interpolation-filters="sRGB">
<feFlood flood-opacity="0" result="BackgroundImageFix"/>
<feColorMatrix in="SourceAlpha" type="matrix" values="0 0 0 0 0 0 0 0 0 0 0 0 0 0 0 0 0 0 127 0" result="hardAlpha"/>
<feOffset dx="3" dy="5"/>
<feGaussianBlur stdDeviation="10"/>
<feComposite in2="hardAlpha" operator="out"/>
<feColorMatrix type="matrix" values="0 0 0 0 0.2 0 0 0 0 0.2 0 0 0 0 0.2 0 0 0 0.1 0"/>
<feBlend mode="normal" in2="BackgroundImageFix" result="effect1_dropShadow_1763_10039"/>
<feBlend mode="normal" in="SourceGraphic" in2="effect1_dropShadow_1763_10039" result="shape"/>
</filter>
<filter id="filter1_d_1763_10039" x="30" y="13" width="82" height="82" filterUnits="userSpaceOnUse" color-interpolation-filters="sRGB">
<feFlood flood-opacity="0" result="BackgroundImageFix"/>
<feColorMatrix in="SourceAlpha" type="matrix" values="0 0 0 0 0 0 0 0 0 0 0 0 0 0 0 0 0 0 127 0" result="hardAlpha"/>
<feOffset dx="3" dy="3"/>
<feGaussianBlur stdDeviation="3"/>
<feComposite in2="hardAlpha" operator="out"/>
<feColorMatrix type="matrix" values="0 0 0 0 0.2 0 0 0 0 0.2 0 0 0 0 0.2 0 0 0 0.25 0"/>
<feBlend mode="normal" in2="BackgroundImageFix" result="effect1_dropShadow_1763_10039"/>
<feBlend mode="normal" in="SourceGraphic" in2="effect1_dropShadow_1763_10039" result="shape"/>
</filter>
</defs>
</svg>
