<svg width="326" height="540" viewBox="0 0 326 540" fill="none" xmlns="http://www.w3.org/2000/svg">
<g filter="url(#filter0_d_1763_11016)">
<rect x="17" y="15" width="286" height="500" rx="5" fill="white" shape-rendering="crispEdges"/>
<g filter="url(#filter1_d_1763_11016)">
<path d="M68.9181 122.417C67.9597 122.417 67.043 122 66.418 121.167L62.2097 115.542C61.3347 114.375 60.1681 113.708 58.9181 113.625C57.6681 113.542 56.418 114.125 55.418 115.167C49.3763 121.625 44.793 121.084 42.5847 120.25C40.3347 119.375 36.543 116.5 36.543 107.25V60.3335C36.543 41.8335 41.8763 36.2085 59.3346 36.2085H90.7931C108.251 36.2085 113.585 41.8335 113.585 60.3335V78.0834C113.585 79.7918 112.168 81.2084 110.46 81.2084C108.751 81.2084 107.335 79.7918 107.335 78.0834V60.3335C107.335 45.2919 104.71 42.4585 90.7931 42.4585H59.3346C45.418 42.4585 42.793 45.2919 42.793 60.3335V107.25C42.793 111.625 43.8763 114.042 44.8763 114.417C45.6263 114.708 47.6681 114.292 50.8347 110.917C53.1264 108.5 56.1264 107.208 59.2514 107.375C62.3347 107.542 65.2514 109.167 67.2097 111.792L71.4597 117.417C72.5013 118.792 72.2097 120.75 70.8347 121.792C70.2097 122.25 69.5431 122.417 68.9181 122.417Z" fill="#1959AB"/>
<path d="M100.833 123.292C91.7501 123.292 84.375 115.917 84.375 106.833C84.375 97.7501 91.7501 90.375 100.833 90.375C109.917 90.375 117.292 97.7501 117.292 106.833C117.292 115.917 109.917 123.292 100.833 123.292ZM100.833 96.625C95.2084 96.625 90.625 101.208 90.625 106.833C90.625 112.458 95.2084 117.042 100.833 117.042C106.458 117.042 111.042 112.458 111.042 106.833C111.042 101.208 106.458 96.625 100.833 96.625Z" fill="#1959AB"/>
<path d="M116.666 125.791C115.874 125.791 115.083 125.5 114.458 124.875L110.291 120.708C109.083 119.5 109.083 117.5 110.291 116.292C111.499 115.083 113.499 115.083 114.708 116.292L118.874 120.458C120.083 121.667 120.083 123.666 118.874 124.875C118.249 125.5 117.458 125.791 116.666 125.791Z" fill="#1959AB"/>
<path d="M91.6654 63.2915H58.332C56.6237 63.2915 55.207 61.8748 55.207 60.1665C55.207 58.4582 56.6237 57.0415 58.332 57.0415H91.6654C93.3737 57.0415 94.7904 58.4582 94.7904 60.1665C94.7904 61.8748 93.3737 63.2915 91.6654 63.2915Z" fill="#1959AB"/>
<path d="M87.5 79.9585H62.5C60.7917 79.9585 59.375 78.5418 59.375 76.8335C59.375 75.1252 60.7917 73.7085 62.5 73.7085H87.5C89.2083 73.7085 90.625 75.1252 90.625 76.8335C90.625 78.5418 89.2083 79.9585 87.5 79.9585Z" fill="#1959AB"/>
</g>
<path d="M43.5039 187H37.9844L32.8281 179.957H31.7266V187H27.2266V169.551H31.7266V176.664C32.0938 176.648 32.3984 176.613 32.6406 176.559C32.8828 176.496 33.1055 176.391 33.3086 176.242C33.5195 176.086 33.7461 175.855 33.9883 175.551C34.2305 175.238 34.4844 174.855 34.75 174.402C34.9141 174.121 35.0977 173.789 35.3008 173.406C35.5117 173.016 35.6875 172.695 35.8281 172.445C36.4297 171.391 37.0625 170.641 37.7266 170.195C38.3906 169.742 39.3945 169.516 40.7383 169.516C41.1367 169.516 41.4922 169.523 41.8047 169.539C42.1172 169.547 42.3477 169.551 42.4961 169.551V173.336H41.1953C40.5547 173.336 40.0547 173.5 39.6953 173.828C39.3438 174.156 38.9531 174.734 38.5234 175.562C38.0938 176.383 37.7422 176.961 37.4688 177.297C37.1953 177.625 36.9297 177.859 36.6719 178L43.5039 187ZM53.4766 183.566V180.824C52.9062 180.871 52.2891 180.938 51.625 181.023C50.9609 181.102 50.457 181.195 50.1133 181.305C49.6914 181.438 49.3672 181.633 49.1406 181.891C48.9219 182.141 48.8125 182.473 48.8125 182.887C48.8125 183.16 48.8359 183.383 48.8828 183.555C48.9297 183.727 49.0469 183.891 49.2344 184.047C49.4141 184.203 49.6289 184.32 49.8789 184.398C50.1289 184.469 50.5195 184.504 51.0508 184.504C51.4727 184.504 51.8984 184.418 52.3281 184.246C52.7656 184.074 53.1484 183.848 53.4766 183.566ZM53.4766 185.605C53.25 185.777 52.9688 185.984 52.6328 186.227C52.2969 186.469 51.9805 186.66 51.6836 186.801C51.2695 186.988 50.8398 187.125 50.3945 187.211C49.9492 187.305 49.4609 187.352 48.9297 187.352C47.6797 187.352 46.6328 186.965 45.7891 186.191C44.9453 185.418 44.5234 184.43 44.5234 183.227C44.5234 182.266 44.7383 181.48 45.168 180.871C45.5977 180.262 46.207 179.781 46.9961 179.43C47.7773 179.078 48.7461 178.828 49.9023 178.68C51.0586 178.531 52.2578 178.422 53.5 178.352V178.281C53.5 177.555 53.2031 177.055 52.6094 176.781C52.0156 176.5 51.1406 176.359 49.9844 176.359C49.2891 176.359 48.5469 176.484 47.7578 176.734C46.9688 176.977 46.4023 177.164 46.0586 177.297H45.6719V174.121C46.1172 174.004 46.8398 173.867 47.8398 173.711C48.8477 173.547 49.8555 173.465 50.8633 173.465C53.2617 173.465 54.9922 173.836 56.0547 174.578C57.125 175.312 57.6602 176.469 57.6602 178.047V187H53.4766V185.605ZM75.2734 180.238C75.2734 181.324 75.1055 182.312 74.7695 183.203C74.4414 184.094 74.0078 184.828 73.4688 185.406C72.9062 186.016 72.2695 186.477 71.5586 186.789C70.8477 187.102 70.0859 187.258 69.2734 187.258C68.5234 187.258 67.8867 187.176 67.3633 187.012C66.8398 186.855 66.3047 186.633 65.7578 186.344V191.828H61.5391V173.84H65.7578V175.211C66.4062 174.695 67.0664 174.277 67.7383 173.957C68.418 173.637 69.1992 173.477 70.082 173.477C71.7227 173.477 72.9961 174.078 73.9023 175.281C74.8164 176.484 75.2734 178.137 75.2734 180.238ZM70.9258 180.32C70.9258 179.039 70.707 178.109 70.2695 177.531C69.832 176.953 69.1406 176.664 68.1953 176.664C67.7969 176.664 67.3867 176.727 66.9648 176.852C66.543 176.969 66.1406 177.141 65.7578 177.367V183.988C66.0391 184.098 66.3398 184.168 66.6602 184.199C66.9805 184.23 67.2969 184.246 67.6094 184.246C68.7266 184.246 69.5586 183.922 70.1055 183.273C70.6523 182.617 70.9258 181.633 70.9258 180.32ZM99.7773 187H94.9258L91.6094 181.785H90.4141V187H86.2188V181.785H85.0234L81.707 187H76.8555L81.3906 180.227C81.1719 180.062 80.9961 179.883 80.8633 179.688C80.7305 179.492 80.5703 179.18 80.3828 178.75C80.1484 178.227 79.8906 177.863 79.6094 177.66C79.3281 177.457 78.9727 177.355 78.543 177.355H77.3945V173.84C77.5273 173.84 77.7461 173.836 78.0508 173.828C78.3633 173.82 78.6836 173.816 79.0117 173.816C80.0977 173.816 80.9141 174.012 81.4609 174.402C82.0156 174.793 82.5 175.352 82.9141 176.078C83.0078 176.25 83.1328 176.492 83.2891 176.805C83.4531 177.117 83.5977 177.383 83.7227 177.602C84.1367 178.32 84.4805 178.754 84.7539 178.902C85.0273 179.051 85.5156 179.125 86.2188 179.125V173.84H90.4141V179.125C91.1875 179.117 91.6992 179.031 91.9492 178.867C92.207 178.703 92.5273 178.281 92.9102 177.602C93.0273 177.398 93.168 177.137 93.332 176.816C93.4961 176.496 93.625 176.25 93.7188 176.078C94.0703 175.414 94.5352 174.871 95.1133 174.449C95.6914 174.027 96.5273 173.816 97.6211 173.816C97.918 173.816 98.2305 173.82 98.5586 173.828C98.8945 173.836 99.1211 173.84 99.2383 173.84V177.355H98.0898C97.6523 177.355 97.2891 177.465 97 177.684C96.7188 177.895 96.4688 178.25 96.25 178.75C96.0781 179.133 95.9219 179.438 95.7812 179.664C95.6406 179.883 95.4609 180.07 95.2422 180.227L99.7773 187ZM110.758 182.594C110.758 182.031 110.59 181.609 110.254 181.328C109.918 181.047 109.434 180.906 108.801 180.906H106.504V184.34H108.801C109.223 184.34 109.566 184.281 109.832 184.164C110.098 184.039 110.293 183.887 110.418 183.707C110.551 183.535 110.641 183.355 110.688 183.168C110.734 182.98 110.758 182.789 110.758 182.594ZM115.094 182.559C115.094 183.23 114.961 183.852 114.695 184.422C114.43 184.992 114.082 185.457 113.652 185.816C113.121 186.246 112.57 186.551 112 186.73C111.438 186.91 110.676 187 109.715 187H102.297V173.84H106.504V178.234H109.727C110.672 178.234 111.434 178.305 112.012 178.445C112.598 178.578 113.152 178.84 113.676 179.23C114.145 179.582 114.496 180.055 114.73 180.648C114.973 181.234 115.094 181.871 115.094 182.559ZM120.789 187H116.57V173.84H120.789V187ZM137.84 187H133.621V176.781H130.141C130.117 177.367 130.098 177.824 130.082 178.152C130.074 178.473 130.062 178.848 130.047 179.277C129.992 180.535 129.887 181.559 129.73 182.348C129.574 183.137 129.375 183.781 129.133 184.281C128.898 184.789 128.645 185.191 128.371 185.488C128.105 185.785 127.836 186.043 127.562 186.262C127.25 186.512 126.84 186.711 126.332 186.859C125.832 187.008 125.348 187.082 124.879 187.082C124.512 187.082 124.141 187.066 123.766 187.035C123.391 187.012 123.168 187 123.098 187V183.625H123.227C123.258 183.625 123.312 183.629 123.391 183.637C123.469 183.645 123.547 183.648 123.625 183.648C123.828 183.648 124.035 183.629 124.246 183.59C124.465 183.551 124.645 183.465 124.785 183.332C125.309 182.832 125.656 182.207 125.828 181.457C126.008 180.699 126.137 179.582 126.215 178.105C126.246 177.559 126.277 176.934 126.309 176.23C126.34 175.527 126.367 174.73 126.391 173.84H137.84V187ZM155.289 180.426C155.289 182.59 154.656 184.297 153.391 185.547C152.133 186.789 150.363 187.41 148.082 187.41C145.801 187.41 144.027 186.789 142.762 185.547C141.504 184.297 140.875 182.59 140.875 180.426C140.875 178.246 141.508 176.535 142.773 175.293C144.047 174.051 145.816 173.43 148.082 173.43C150.379 173.43 152.152 174.055 153.402 175.305C154.66 176.555 155.289 178.262 155.289 180.426ZM150.098 183.625C150.371 183.289 150.574 182.887 150.707 182.418C150.848 181.941 150.918 181.285 150.918 180.449C150.918 179.676 150.848 179.027 150.707 178.504C150.566 177.98 150.371 177.562 150.121 177.25C149.871 176.93 149.57 176.703 149.219 176.57C148.867 176.438 148.488 176.371 148.082 176.371C147.676 176.371 147.312 176.426 146.992 176.535C146.68 176.645 146.379 176.863 146.09 177.191C145.832 177.496 145.625 177.914 145.469 178.445C145.32 178.977 145.246 179.645 145.246 180.449C145.246 181.168 145.312 181.793 145.445 182.324C145.578 182.848 145.773 183.27 146.031 183.59C146.281 183.895 146.578 184.117 146.922 184.258C147.273 184.398 147.672 184.469 148.117 184.469C148.5 184.469 148.863 184.406 149.207 184.281C149.559 184.148 149.855 183.93 150.098 183.625ZM171.766 180.426C171.766 182.59 171.133 184.297 169.867 185.547C168.609 186.789 166.84 187.41 164.559 187.41C162.277 187.41 160.504 186.789 159.238 185.547C157.98 184.297 157.352 182.59 157.352 180.426C157.352 178.246 157.984 176.535 159.25 175.293C160.523 174.051 162.293 173.43 164.559 173.43C166.855 173.43 168.629 174.055 169.879 175.305C171.137 176.555 171.766 178.262 171.766 180.426ZM166.574 183.625C166.848 183.289 167.051 182.887 167.184 182.418C167.324 181.941 167.395 181.285 167.395 180.449C167.395 179.676 167.324 179.027 167.184 178.504C167.043 177.98 166.848 177.562 166.598 177.25C166.348 176.93 166.047 176.703 165.695 176.57C165.344 176.438 164.965 176.371 164.559 176.371C164.152 176.371 163.789 176.426 163.469 176.535C163.156 176.645 162.855 176.863 162.566 177.191C162.309 177.496 162.102 177.914 161.945 178.445C161.797 178.977 161.723 179.645 161.723 180.449C161.723 181.168 161.789 181.793 161.922 182.324C162.055 182.848 162.25 183.27 162.508 183.59C162.758 183.895 163.055 184.117 163.398 184.258C163.75 184.398 164.148 184.469 164.594 184.469C164.977 184.469 165.34 184.406 165.684 184.281C166.035 184.148 166.332 183.93 166.574 183.625Z" fill="#333333"/>
<path d="M30 239L37.5 246.5L50 231.5" stroke="#61B857" stroke-width="2" stroke-linecap="round" stroke-linejoin="round"/>
<path d="M74.9219 245.5H73.375V235.477L70.1406 242.297H69.2188L66.0078 235.477V245.5H64.5625V233.867H66.6719L69.7734 240.344L72.7734 233.867H74.9219V245.5ZM84.7109 245.5H83.25V244.57C83.1198 244.659 82.9427 244.784 82.7188 244.945C82.5 245.102 82.2865 245.227 82.0781 245.32C81.8333 245.44 81.5521 245.539 81.2344 245.617C80.9167 245.701 80.5443 245.742 80.1172 245.742C79.3307 245.742 78.6641 245.482 78.1172 244.961C77.5703 244.44 77.2969 243.776 77.2969 242.969C77.2969 242.307 77.4375 241.773 77.7188 241.367C78.0052 240.956 78.4115 240.633 78.9375 240.398C79.4688 240.164 80.1068 240.005 80.8516 239.922C81.5964 239.839 82.3958 239.776 83.25 239.734V239.508C83.25 239.174 83.1901 238.898 83.0703 238.68C82.9557 238.461 82.7891 238.289 82.5703 238.164C82.362 238.044 82.112 237.964 81.8203 237.922C81.5286 237.88 81.224 237.859 80.9062 237.859C80.5208 237.859 80.0911 237.911 79.6172 238.016C79.1432 238.115 78.6536 238.26 78.1484 238.453H78.0703V236.961C78.3568 236.883 78.7708 236.797 79.3125 236.703C79.8542 236.609 80.388 236.562 80.9141 236.562C81.5286 236.562 82.0625 236.615 82.5156 236.719C82.974 236.818 83.3698 236.99 83.7031 237.234C84.0312 237.474 84.2812 237.784 84.4531 238.164C84.625 238.544 84.7109 239.016 84.7109 239.578V245.5ZM83.25 243.352V240.922C82.8021 240.948 82.2734 240.987 81.6641 241.039C81.0599 241.091 80.5807 241.167 80.2266 241.266C79.8047 241.385 79.4635 241.573 79.2031 241.828C78.9427 242.078 78.8125 242.424 78.8125 242.867C78.8125 243.367 78.9635 243.745 79.2656 244C79.5677 244.25 80.0286 244.375 80.6484 244.375C81.1641 244.375 81.6354 244.276 82.0625 244.078C82.4896 243.875 82.8854 243.633 83.25 243.352ZM94.3203 245.5H92.8594V244.57C92.7292 244.659 92.5521 244.784 92.3281 244.945C92.1094 245.102 91.8958 245.227 91.6875 245.32C91.4427 245.44 91.1615 245.539 90.8438 245.617C90.526 245.701 90.1536 245.742 89.7266 245.742C88.9401 245.742 88.2734 245.482 87.7266 244.961C87.1797 244.44 86.9062 243.776 86.9062 242.969C86.9062 242.307 87.0469 241.773 87.3281 241.367C87.6146 240.956 88.0208 240.633 88.5469 240.398C89.0781 240.164 89.7161 240.005 90.4609 239.922C91.2057 239.839 92.0052 239.776 92.8594 239.734V239.508C92.8594 239.174 92.7995 238.898 92.6797 238.68C92.5651 238.461 92.3984 238.289 92.1797 238.164C91.9714 238.044 91.7214 237.964 91.4297 237.922C91.138 237.88 90.8333 237.859 90.5156 237.859C90.1302 237.859 89.7005 237.911 89.2266 238.016C88.7526 238.115 88.263 238.26 87.7578 238.453H87.6797V236.961C87.9661 236.883 88.3802 236.797 88.9219 236.703C89.4635 236.609 89.9974 236.562 90.5234 236.562C91.138 236.562 91.6719 236.615 92.125 236.719C92.5833 236.818 92.9792 236.99 93.3125 237.234C93.6406 237.474 93.8906 237.784 94.0625 238.164C94.2344 238.544 94.3203 239.016 94.3203 239.578V245.5ZM92.8594 243.352V240.922C92.4115 240.948 91.8828 240.987 91.2734 241.039C90.6693 241.091 90.1901 241.167 89.8359 241.266C89.4141 241.385 89.0729 241.573 88.8125 241.828C88.5521 242.078 88.4219 242.424 88.4219 242.867C88.4219 243.367 88.5729 243.745 88.875 244C89.1771 244.25 89.638 244.375 90.2578 244.375C90.7734 244.375 91.2448 244.276 91.6719 244.078C92.099 243.875 92.4948 243.633 92.8594 243.352ZM104.188 245.5H102.719V238.008H99.4609C99.4453 238.44 99.4297 238.857 99.4141 239.258C99.3984 239.659 99.3828 240.021 99.3672 240.344C99.3307 241.214 99.2708 241.909 99.1875 242.43C99.1042 242.945 98.9948 243.375 98.8594 243.719C98.7344 244.042 98.5938 244.305 98.4375 244.508C98.2865 244.706 98.1224 244.885 97.9453 245.047C97.7682 245.203 97.5703 245.32 97.3516 245.398C97.138 245.477 96.9036 245.516 96.6484 245.516C96.5599 245.516 96.4297 245.513 96.2578 245.508C96.0911 245.503 95.9818 245.5 95.9297 245.5V244.219H96.0078C96.0495 244.219 96.1094 244.221 96.1875 244.227C96.2656 244.232 96.3307 244.234 96.3828 244.234C96.5078 244.234 96.6354 244.216 96.7656 244.18C96.901 244.143 97.0156 244.076 97.1094 243.977C97.375 243.716 97.5885 243.276 97.75 242.656C97.9115 242.036 98.0182 241.141 98.0703 239.969C98.0911 239.542 98.1094 239.036 98.125 238.453C98.1458 237.865 98.1641 237.305 98.1797 236.773H104.188V245.5ZM112.461 242.82C112.461 242.555 112.414 242.323 112.32 242.125C112.232 241.922 112.083 241.758 111.875 241.633C111.656 241.503 111.406 241.424 111.125 241.398C110.849 241.372 110.451 241.359 109.93 241.359H108.555V244.328H109.898C110.419 244.328 110.823 244.307 111.109 244.266C111.396 244.219 111.643 244.133 111.852 244.008C112.065 243.872 112.219 243.714 112.312 243.531C112.411 243.344 112.461 243.107 112.461 242.82ZM113.977 242.797C113.977 243.219 113.891 243.602 113.719 243.945C113.552 244.289 113.323 244.568 113.031 244.781C112.688 245.042 112.32 245.227 111.93 245.336C111.539 245.445 111.036 245.5 110.422 245.5H107.086V236.773H108.555V240.172H110.461C111.117 240.172 111.625 240.206 111.984 240.273C112.349 240.341 112.711 240.508 113.07 240.773C113.372 240.997 113.599 241.284 113.75 241.633C113.901 241.982 113.977 242.37 113.977 242.797ZM115.438 236.773H116.906V245.5H115.438V236.773ZM128.055 245.5H126.602V238.609L124.43 243.094H123.336L121.18 238.609V245.5H119.805V236.773H121.578L123.953 241.656L126.25 236.773H128.055V245.5ZM137.727 245.5H136.266V244.57C136.135 244.659 135.958 244.784 135.734 244.945C135.516 245.102 135.302 245.227 135.094 245.32C134.849 245.44 134.568 245.539 134.25 245.617C133.932 245.701 133.56 245.742 133.133 245.742C132.346 245.742 131.68 245.482 131.133 244.961C130.586 244.44 130.312 243.776 130.312 242.969C130.312 242.307 130.453 241.773 130.734 241.367C131.021 240.956 131.427 240.633 131.953 240.398C132.484 240.164 133.122 240.005 133.867 239.922C134.612 239.839 135.411 239.776 136.266 239.734V239.508C136.266 239.174 136.206 238.898 136.086 238.68C135.971 238.461 135.805 238.289 135.586 238.164C135.378 238.044 135.128 237.964 134.836 237.922C134.544 237.88 134.24 237.859 133.922 237.859C133.536 237.859 133.107 237.911 132.633 238.016C132.159 238.115 131.669 238.26 131.164 238.453H131.086V236.961C131.372 236.883 131.786 236.797 132.328 236.703C132.87 236.609 133.404 236.562 133.93 236.562C134.544 236.562 135.078 236.615 135.531 236.719C135.99 236.818 136.385 236.99 136.719 237.234C137.047 237.474 137.297 237.784 137.469 238.164C137.641 238.544 137.727 239.016 137.727 239.578V245.5ZM136.266 243.352V240.922C135.818 240.948 135.289 240.987 134.68 241.039C134.076 241.091 133.596 241.167 133.242 241.266C132.82 241.385 132.479 241.573 132.219 241.828C131.958 242.078 131.828 242.424 131.828 242.867C131.828 243.367 131.979 243.745 132.281 244C132.583 244.25 133.044 244.375 133.664 244.375C134.18 244.375 134.651 244.276 135.078 244.078C135.505 243.875 135.901 243.633 136.266 243.352ZM146.969 238.062H143.812V245.5H142.344V238.062H139.188V236.773H146.969V238.062ZM163.016 241.898C163.016 242.461 162.904 242.971 162.68 243.43C162.461 243.888 162.167 244.26 161.797 244.547C161.359 244.891 160.891 245.135 160.391 245.281C159.891 245.427 159.245 245.5 158.453 245.5H154.234V233.867H162.023V235.242H155.781V238.43H158.5C159.292 238.43 159.938 238.477 160.438 238.57C160.938 238.659 161.409 238.875 161.852 239.219C162.247 239.526 162.539 239.906 162.727 240.359C162.919 240.812 163.016 241.326 163.016 241.898ZM161.398 241.93C161.398 241.539 161.333 241.195 161.203 240.898C161.073 240.602 160.87 240.362 160.594 240.18C160.307 239.987 159.977 239.87 159.602 239.828C159.227 239.786 158.698 239.766 158.016 239.766H155.781V244.18H157.977C158.669 244.18 159.201 244.146 159.57 244.078C159.945 244.01 160.273 243.88 160.555 243.688C160.846 243.484 161.06 243.247 161.195 242.977C161.331 242.701 161.398 242.352 161.398 241.93ZM171.867 245.5H170.406V244.57C170.276 244.659 170.099 244.784 169.875 244.945C169.656 245.102 169.443 245.227 169.234 245.32C168.99 245.44 168.708 245.539 168.391 245.617C168.073 245.701 167.701 245.742 167.273 245.742C166.487 245.742 165.82 245.482 165.273 244.961C164.727 244.44 164.453 243.776 164.453 242.969C164.453 242.307 164.594 241.773 164.875 241.367C165.161 240.956 165.568 240.633 166.094 240.398C166.625 240.164 167.263 240.005 168.008 239.922C168.753 239.839 169.552 239.776 170.406 239.734V239.508C170.406 239.174 170.346 238.898 170.227 238.68C170.112 238.461 169.945 238.289 169.727 238.164C169.518 238.044 169.268 237.964 168.977 237.922C168.685 237.88 168.38 237.859 168.062 237.859C167.677 237.859 167.247 237.911 166.773 238.016C166.299 238.115 165.81 238.26 165.305 238.453H165.227V236.961C165.513 236.883 165.927 236.797 166.469 236.703C167.01 236.609 167.544 236.562 168.07 236.562C168.685 236.562 169.219 236.615 169.672 236.719C170.13 236.818 170.526 236.99 170.859 237.234C171.188 237.474 171.438 237.784 171.609 238.164C171.781 238.544 171.867 239.016 171.867 239.578V245.5ZM170.406 243.352V240.922C169.958 240.948 169.43 240.987 168.82 241.039C168.216 241.091 167.737 241.167 167.383 241.266C166.961 241.385 166.62 241.573 166.359 241.828C166.099 242.078 165.969 242.424 165.969 242.867C165.969 243.367 166.12 243.745 166.422 244C166.724 244.25 167.185 244.375 167.805 244.375C168.32 244.375 168.792 244.276 169.219 244.078C169.646 243.875 170.042 243.633 170.406 243.352ZM180.766 243.055C180.766 243.544 180.651 243.958 180.422 244.297C180.198 244.635 179.909 244.909 179.555 245.117C179.201 245.32 178.81 245.469 178.383 245.562C177.956 245.656 177.529 245.703 177.102 245.703C176.497 245.703 175.922 245.646 175.375 245.531C174.828 245.417 174.289 245.24 173.758 245V243.391H173.859C174.24 243.724 174.724 243.982 175.312 244.164C175.901 244.346 176.471 244.438 177.023 244.438C177.284 244.438 177.552 244.414 177.828 244.367C178.104 244.315 178.344 244.234 178.547 244.125C178.766 244 178.94 243.852 179.07 243.68C179.201 243.503 179.266 243.263 179.266 242.961C179.266 242.648 179.201 242.398 179.07 242.211C178.945 242.023 178.773 241.883 178.555 241.789C178.341 241.695 178.083 241.638 177.781 241.617C177.479 241.596 177.203 241.586 176.953 241.586H175.68V240.32H176.562C176.771 240.32 177.042 240.312 177.375 240.297C177.714 240.281 177.987 240.24 178.195 240.172C178.466 240.083 178.68 239.958 178.836 239.797C178.997 239.635 179.078 239.378 179.078 239.023C179.078 238.779 179.016 238.578 178.891 238.422C178.766 238.26 178.609 238.135 178.422 238.047C178.229 237.958 178.013 237.898 177.773 237.867C177.539 237.836 177.331 237.82 177.148 237.82C176.617 237.82 176.094 237.893 175.578 238.039C175.068 238.18 174.638 238.385 174.289 238.656H174.188V237.039C174.62 236.898 175.083 236.784 175.578 236.695C176.073 236.607 176.568 236.562 177.062 236.562C177.469 236.562 177.872 236.599 178.273 236.672C178.68 236.745 179.057 236.87 179.406 237.047C179.75 237.224 180.031 237.466 180.25 237.773C180.469 238.076 180.578 238.451 180.578 238.898C180.578 239.357 180.435 239.76 180.148 240.109C179.867 240.453 179.487 240.701 179.008 240.852V240.906C179.544 241.036 179.971 241.281 180.289 241.641C180.607 241.995 180.766 242.466 180.766 243.055ZM189.867 245.5H188.406V244.57C188.276 244.659 188.099 244.784 187.875 244.945C187.656 245.102 187.443 245.227 187.234 245.32C186.99 245.44 186.708 245.539 186.391 245.617C186.073 245.701 185.701 245.742 185.273 245.742C184.487 245.742 183.82 245.482 183.273 244.961C182.727 244.44 182.453 243.776 182.453 242.969C182.453 242.307 182.594 241.773 182.875 241.367C183.161 240.956 183.568 240.633 184.094 240.398C184.625 240.164 185.263 240.005 186.008 239.922C186.753 239.839 187.552 239.776 188.406 239.734V239.508C188.406 239.174 188.346 238.898 188.227 238.68C188.112 238.461 187.945 238.289 187.727 238.164C187.518 238.044 187.268 237.964 186.977 237.922C186.685 237.88 186.38 237.859 186.062 237.859C185.677 237.859 185.247 237.911 184.773 238.016C184.299 238.115 183.81 238.26 183.305 238.453H183.227V236.961C183.513 236.883 183.927 236.797 184.469 236.703C185.01 236.609 185.544 236.562 186.07 236.562C186.685 236.562 187.219 236.615 187.672 236.719C188.13 236.818 188.526 236.99 188.859 237.234C189.188 237.474 189.438 237.784 189.609 238.164C189.781 238.544 189.867 239.016 189.867 239.578V245.5ZM188.406 243.352V240.922C187.958 240.948 187.43 240.987 186.82 241.039C186.216 241.091 185.737 241.167 185.383 241.266C184.961 241.385 184.62 241.573 184.359 241.828C184.099 242.078 183.969 242.424 183.969 242.867C183.969 243.367 184.12 243.745 184.422 244C184.724 244.25 185.185 244.375 185.805 244.375C186.32 244.375 186.792 244.276 187.219 244.078C187.646 243.875 188.042 243.633 188.406 243.352ZM199.227 244.953C198.628 245.234 198.112 245.427 197.68 245.531C197.253 245.641 196.826 245.695 196.398 245.695C195.763 245.695 195.18 245.604 194.648 245.422C194.117 245.234 193.661 244.953 193.281 244.578C192.901 244.203 192.604 243.729 192.391 243.156C192.182 242.583 192.078 241.914 192.078 241.148C192.078 239.758 192.464 238.648 193.234 237.82C194.005 236.987 195.06 236.57 196.398 236.57C196.904 236.57 197.398 236.641 197.883 236.781C198.372 236.922 198.82 237.094 199.227 237.297V238.93H199.141C198.656 238.56 198.177 238.286 197.703 238.109C197.234 237.932 196.779 237.844 196.336 237.844C195.466 237.844 194.792 238.135 194.312 238.719C193.839 239.302 193.602 240.112 193.602 241.148C193.602 242.185 193.839 242.99 194.312 243.562C194.786 244.135 195.461 244.422 196.336 244.422C196.643 244.422 196.948 244.383 197.25 244.305C197.557 244.227 197.836 244.125 198.086 244C198.284 243.901 198.487 243.784 198.695 243.648C198.909 243.508 199.057 243.404 199.141 243.336H199.227V244.953ZM206.617 242.82C206.617 242.555 206.57 242.323 206.477 242.125C206.388 241.922 206.24 241.758 206.031 241.633C205.812 241.503 205.562 241.424 205.281 241.398C205.005 241.372 204.607 241.359 204.086 241.359H202.711V244.328H204.055C204.576 244.328 204.979 244.307 205.266 244.266C205.552 244.219 205.799 244.133 206.008 244.008C206.221 243.872 206.375 243.714 206.469 243.531C206.568 243.344 206.617 243.107 206.617 242.82ZM208.133 242.797C208.133 243.219 208.047 243.602 207.875 243.945C207.708 244.289 207.479 244.568 207.188 244.781C206.844 245.042 206.477 245.227 206.086 245.336C205.695 245.445 205.193 245.5 204.578 245.5H201.242V236.773H202.711V240.172H204.617C205.273 240.172 205.781 240.206 206.141 240.273C206.505 240.341 206.867 240.508 207.227 240.773C207.529 240.997 207.755 241.284 207.906 241.633C208.057 241.982 208.133 242.37 208.133 242.797ZM209.594 236.773H211.062V245.5H209.594V236.773Z" fill="#333333"/>
<path d="M30 285L37.5 292.5L50 277.5" stroke="#61B857" stroke-width="2" stroke-linecap="round" stroke-linejoin="round"/>
<path d="M75.2812 285.602C75.2812 286.331 75.1641 286.979 74.9297 287.547C74.7005 288.109 74.3802 288.581 73.9688 288.961C73.526 289.372 72.987 289.701 72.3516 289.945C71.7161 290.185 71.0391 290.312 70.3203 290.328V291.625H68.7812V290.328C68.0833 290.312 67.4141 290.188 66.7734 289.953C66.1328 289.719 65.5859 289.388 65.1328 288.961C64.7214 288.576 64.3984 288.102 64.1641 287.539C63.9349 286.977 63.8203 286.331 63.8203 285.602C63.8203 284.893 63.9323 284.273 64.1562 283.742C64.3802 283.211 64.6901 282.747 65.0859 282.352C65.5078 281.93 66.0339 281.596 66.6641 281.352C67.2995 281.107 68.0052 280.974 68.7812 280.953V279.742H70.3203V280.953C71.0911 280.969 71.7969 281.104 72.4375 281.359C73.0781 281.615 73.6042 281.945 74.0156 282.352C74.4062 282.732 74.7135 283.193 74.9375 283.734C75.1667 284.276 75.2812 284.898 75.2812 285.602ZM73.6719 285.539C73.6719 285.023 73.5885 284.549 73.4219 284.117C73.2552 283.685 73.0182 283.32 72.7109 283.023C72.4089 282.732 72.0729 282.518 71.7031 282.383C71.3333 282.247 70.8724 282.174 70.3203 282.164V289.117C70.8099 289.107 71.2552 289.029 71.6562 288.883C72.0573 288.732 72.388 288.534 72.6484 288.289C72.987 287.977 73.2422 287.594 73.4141 287.141C73.5859 286.688 73.6719 286.154 73.6719 285.539ZM68.7812 289.117V282.164C68.2292 282.169 67.7682 282.242 67.3984 282.383C67.0286 282.523 66.6927 282.737 66.3906 283.023C66.0885 283.31 65.8516 283.674 65.6797 284.117C65.513 284.56 65.4297 285.034 65.4297 285.539C65.4297 286.122 65.5156 286.651 65.6875 287.125C65.8646 287.599 66.1198 287.987 66.4531 288.289C66.7083 288.523 67.0365 288.719 67.4375 288.875C67.8438 289.031 68.2917 289.112 68.7812 289.117ZM84.9062 291.5H83.4531V284.945L78.8828 291.5H77.5547V282.773H79.0078V289.234L83.5312 282.773H84.9062V291.5ZM95.1094 291.5H93.6406V287.57H89.2734V291.5H87.8047V282.773H89.2734V286.305H93.6406V282.773H95.1094V291.5ZM104.789 291.5H103.328V290.57C103.198 290.659 103.021 290.784 102.797 290.945C102.578 291.102 102.365 291.227 102.156 291.32C101.911 291.44 101.63 291.539 101.312 291.617C100.995 291.701 100.622 291.742 100.195 291.742C99.4089 291.742 98.7422 291.482 98.1953 290.961C97.6484 290.44 97.375 289.776 97.375 288.969C97.375 288.307 97.5156 287.773 97.7969 287.367C98.0833 286.956 98.4896 286.633 99.0156 286.398C99.5469 286.164 100.185 286.005 100.93 285.922C101.674 285.839 102.474 285.776 103.328 285.734V285.508C103.328 285.174 103.268 284.898 103.148 284.68C103.034 284.461 102.867 284.289 102.648 284.164C102.44 284.044 102.19 283.964 101.898 283.922C101.607 283.88 101.302 283.859 100.984 283.859C100.599 283.859 100.169 283.911 99.6953 284.016C99.2214 284.115 98.7318 284.26 98.2266 284.453H98.1484V282.961C98.4349 282.883 98.849 282.797 99.3906 282.703C99.9323 282.609 100.466 282.562 100.992 282.562C101.607 282.562 102.141 282.615 102.594 282.719C103.052 282.818 103.448 282.99 103.781 283.234C104.109 283.474 104.359 283.784 104.531 284.164C104.703 284.544 104.789 285.016 104.789 285.578V291.5ZM103.328 289.352V286.922C102.88 286.948 102.352 286.987 101.742 287.039C101.138 287.091 100.659 287.167 100.305 287.266C99.8828 287.385 99.5417 287.573 99.2812 287.828C99.0208 288.078 98.8906 288.424 98.8906 288.867C98.8906 289.367 99.0417 289.745 99.3438 290C99.6458 290.25 100.107 290.375 100.727 290.375C101.242 290.375 101.714 290.276 102.141 290.078C102.568 289.875 102.964 289.633 103.328 289.352ZM114.922 291.5H113.453V287.57H109.086V291.5H107.617V282.773H109.086V286.305H113.453V282.773H114.922V291.5ZM124.352 290.953C123.753 291.234 123.237 291.427 122.805 291.531C122.378 291.641 121.951 291.695 121.523 291.695C120.888 291.695 120.305 291.604 119.773 291.422C119.242 291.234 118.786 290.953 118.406 290.578C118.026 290.203 117.729 289.729 117.516 289.156C117.307 288.583 117.203 287.914 117.203 287.148C117.203 285.758 117.589 284.648 118.359 283.82C119.13 282.987 120.185 282.57 121.523 282.57C122.029 282.57 122.523 282.641 123.008 282.781C123.497 282.922 123.945 283.094 124.352 283.297V284.93H124.266C123.781 284.56 123.302 284.286 122.828 284.109C122.359 283.932 121.904 283.844 121.461 283.844C120.591 283.844 119.917 284.135 119.438 284.719C118.964 285.302 118.727 286.112 118.727 287.148C118.727 288.185 118.964 288.99 119.438 289.562C119.911 290.135 120.586 290.422 121.461 290.422C121.768 290.422 122.073 290.383 122.375 290.305C122.682 290.227 122.961 290.125 123.211 290C123.409 289.901 123.612 289.784 123.82 289.648C124.034 289.508 124.182 289.404 124.266 289.336H124.352V290.953ZM131.742 288.82C131.742 288.555 131.695 288.323 131.602 288.125C131.513 287.922 131.365 287.758 131.156 287.633C130.938 287.503 130.688 287.424 130.406 287.398C130.13 287.372 129.732 287.359 129.211 287.359H127.836V290.328H129.18C129.701 290.328 130.104 290.307 130.391 290.266C130.677 290.219 130.924 290.133 131.133 290.008C131.346 289.872 131.5 289.714 131.594 289.531C131.693 289.344 131.742 289.107 131.742 288.82ZM133.258 288.797C133.258 289.219 133.172 289.602 133 289.945C132.833 290.289 132.604 290.568 132.312 290.781C131.969 291.042 131.602 291.227 131.211 291.336C130.82 291.445 130.318 291.5 129.703 291.5H126.367V282.773H127.836V286.172H129.742C130.398 286.172 130.906 286.206 131.266 286.273C131.63 286.341 131.992 286.508 132.352 286.773C132.654 286.997 132.88 287.284 133.031 287.633C133.182 287.982 133.258 288.37 133.258 288.797ZM134.719 282.773H136.188V291.5H134.719V282.773ZM146.125 291.5H144.656V284.008H141.398C141.383 284.44 141.367 284.857 141.352 285.258C141.336 285.659 141.32 286.021 141.305 286.344C141.268 287.214 141.208 287.909 141.125 288.43C141.042 288.945 140.932 289.375 140.797 289.719C140.672 290.042 140.531 290.305 140.375 290.508C140.224 290.706 140.06 290.885 139.883 291.047C139.706 291.203 139.508 291.32 139.289 291.398C139.076 291.477 138.841 291.516 138.586 291.516C138.497 291.516 138.367 291.513 138.195 291.508C138.029 291.503 137.919 291.5 137.867 291.5V290.219H137.945C137.987 290.219 138.047 290.221 138.125 290.227C138.203 290.232 138.268 290.234 138.32 290.234C138.445 290.234 138.573 290.216 138.703 290.18C138.839 290.143 138.953 290.076 139.047 289.977C139.312 289.716 139.526 289.276 139.688 288.656C139.849 288.036 139.956 287.141 140.008 285.969C140.029 285.542 140.047 285.036 140.062 284.453C140.083 283.865 140.102 283.305 140.117 282.773H146.125V291.5ZM154.398 288.82C154.398 288.555 154.352 288.323 154.258 288.125C154.169 287.922 154.021 287.758 153.812 287.633C153.594 287.503 153.344 287.424 153.062 287.398C152.786 287.372 152.388 287.359 151.867 287.359H150.492V290.328H151.836C152.357 290.328 152.76 290.307 153.047 290.266C153.333 290.219 153.581 290.133 153.789 290.008C154.003 289.872 154.156 289.714 154.25 289.531C154.349 289.344 154.398 289.107 154.398 288.82ZM155.914 288.797C155.914 289.219 155.828 289.602 155.656 289.945C155.49 290.289 155.26 290.568 154.969 290.781C154.625 291.042 154.258 291.227 153.867 291.336C153.477 291.445 152.974 291.5 152.359 291.5H149.023V282.773H150.492V286.172H152.398C153.055 286.172 153.562 286.206 153.922 286.273C154.286 286.341 154.648 286.508 155.008 286.773C155.31 286.997 155.536 287.284 155.688 287.633C155.839 287.982 155.914 288.37 155.914 288.797ZM157.375 282.773H158.844V291.5H157.375V282.773ZM169.617 291.5H167.695L164.07 287.5H163.273V291.5H161.805V282.773H163.273V286.539C163.758 286.539 164.148 286.453 164.445 286.281C164.742 286.104 164.995 285.823 165.203 285.438C165.276 285.297 165.346 285.148 165.414 284.992C165.487 284.831 165.557 284.677 165.625 284.531C165.896 283.943 166.234 283.503 166.641 283.211C167.047 282.919 167.63 282.773 168.391 282.773H169.062V284.039H168.414C168.003 284.039 167.68 284.128 167.445 284.305C167.216 284.477 167.008 284.781 166.82 285.219C166.612 285.708 166.391 286.076 166.156 286.32C165.927 286.56 165.682 286.742 165.422 286.867L169.617 291.5ZM186.305 291.5H184.32L179.594 286.195H178.539V291.5H176.992V279.867H178.539V285.086C178.805 285.081 179.055 285.055 179.289 285.008C179.523 284.961 179.745 284.872 179.953 284.742C180.161 284.622 180.367 284.453 180.57 284.234C180.773 284.01 180.953 283.737 181.109 283.414C181.177 283.273 181.255 283.096 181.344 282.883C181.438 282.669 181.531 282.445 181.625 282.211C181.984 281.346 182.404 280.74 182.883 280.391C183.367 280.042 184.078 279.867 185.016 279.867H185.633V281.25H184.984C184.625 281.25 184.344 281.284 184.141 281.352C183.938 281.414 183.755 281.521 183.594 281.672C183.443 281.807 183.31 281.99 183.195 282.219C183.086 282.448 182.971 282.716 182.852 283.023C182.581 283.711 182.305 284.216 182.023 284.539C181.747 284.862 181.375 285.143 180.906 285.383L186.305 291.5ZM195.234 287.289H188.805C188.805 287.826 188.885 288.294 189.047 288.695C189.208 289.091 189.43 289.417 189.711 289.672C189.982 289.922 190.302 290.109 190.672 290.234C191.047 290.359 191.458 290.422 191.906 290.422C192.5 290.422 193.096 290.305 193.695 290.07C194.299 289.831 194.729 289.596 194.984 289.367H195.062V290.969C194.568 291.177 194.062 291.352 193.547 291.492C193.031 291.633 192.49 291.703 191.922 291.703C190.474 291.703 189.344 291.312 188.531 290.531C187.719 289.745 187.312 288.63 187.312 287.188C187.312 285.76 187.701 284.628 188.477 283.789C189.258 282.951 190.284 282.531 191.555 282.531C192.732 282.531 193.638 282.875 194.273 283.562C194.914 284.25 195.234 285.227 195.234 286.492V287.289ZM193.805 286.164C193.799 285.393 193.604 284.797 193.219 284.375C192.839 283.953 192.258 283.742 191.477 283.742C190.69 283.742 190.062 283.974 189.594 284.438C189.13 284.901 188.867 285.477 188.805 286.164H193.805ZM205.812 293.594H204.445V291.5H203.297V287.57H198.93V291.5H197.461V282.773H198.93V286.305H203.297V282.773H204.766V290.234H205.812V293.594ZM214.969 287.289H208.539C208.539 287.826 208.62 288.294 208.781 288.695C208.943 289.091 209.164 289.417 209.445 289.672C209.716 289.922 210.036 290.109 210.406 290.234C210.781 290.359 211.193 290.422 211.641 290.422C212.234 290.422 212.831 290.305 213.43 290.07C214.034 289.831 214.464 289.596 214.719 289.367H214.797V290.969C214.302 291.177 213.797 291.352 213.281 291.492C212.766 291.633 212.224 291.703 211.656 291.703C210.208 291.703 209.078 291.312 208.266 290.531C207.453 289.745 207.047 288.63 207.047 287.188C207.047 285.76 207.435 284.628 208.211 283.789C208.992 282.951 210.018 282.531 211.289 282.531C212.466 282.531 213.372 282.875 214.008 283.562C214.648 284.25 214.969 285.227 214.969 286.492V287.289ZM213.539 286.164C213.534 285.393 213.339 284.797 212.953 284.375C212.573 283.953 211.992 283.742 211.211 283.742C210.424 283.742 209.797 283.974 209.328 284.438C208.865 284.901 208.602 285.477 208.539 286.164H213.539ZM228.32 291.5H217.195V282.773H218.664V290.234H222.023V282.773H223.492V290.234H226.852V282.773H228.32V291.5Z" fill="#333333"/>
<path d="M30 331L37.5 338.5L50 323.5" stroke="#61B857" stroke-width="2" stroke-linecap="round" stroke-linejoin="round"/>
<path d="M75.2812 326.102C75.2812 326.831 75.1641 327.479 74.9297 328.047C74.7005 328.609 74.3802 329.081 73.9688 329.461C73.526 329.872 72.987 330.201 72.3516 330.445C71.7161 330.685 71.0391 330.812 70.3203 330.828V332.125H68.7812V330.828C68.0833 330.812 67.4141 330.688 66.7734 330.453C66.1328 330.219 65.5859 329.888 65.1328 329.461C64.7214 329.076 64.3984 328.602 64.1641 328.039C63.9349 327.477 63.8203 326.831 63.8203 326.102C63.8203 325.393 63.9323 324.773 64.1562 324.242C64.3802 323.711 64.6901 323.247 65.0859 322.852C65.5078 322.43 66.0339 322.096 66.6641 321.852C67.2995 321.607 68.0052 321.474 68.7812 321.453V320.242H70.3203V321.453C71.0911 321.469 71.7969 321.604 72.4375 321.859C73.0781 322.115 73.6042 322.445 74.0156 322.852C74.4062 323.232 74.7135 323.693 74.9375 324.234C75.1667 324.776 75.2812 325.398 75.2812 326.102ZM73.6719 326.039C73.6719 325.523 73.5885 325.049 73.4219 324.617C73.2552 324.185 73.0182 323.82 72.7109 323.523C72.4089 323.232 72.0729 323.018 71.7031 322.883C71.3333 322.747 70.8724 322.674 70.3203 322.664V329.617C70.8099 329.607 71.2552 329.529 71.6562 329.383C72.0573 329.232 72.388 329.034 72.6484 328.789C72.987 328.477 73.2422 328.094 73.4141 327.641C73.5859 327.188 73.6719 326.654 73.6719 326.039ZM68.7812 329.617V322.664C68.2292 322.669 67.7682 322.742 67.3984 322.883C67.0286 323.023 66.6927 323.237 66.3906 323.523C66.0885 323.81 65.8516 324.174 65.6797 324.617C65.513 325.06 65.4297 325.534 65.4297 326.039C65.4297 326.622 65.5156 327.151 65.6875 327.625C65.8646 328.099 66.1198 328.487 66.4531 328.789C66.7083 329.023 67.0365 329.219 67.4375 329.375C67.8438 329.531 68.2917 329.612 68.7812 329.617ZM84.9062 332H83.4531V325.445L78.8828 332H77.5547V323.273H79.0078V329.734L83.5312 323.273H84.9062V332ZM95.1094 332H93.6406V328.07H89.2734V332H87.8047V323.273H89.2734V326.805H93.6406V323.273H95.1094V332ZM104.789 332H103.328V331.07C103.198 331.159 103.021 331.284 102.797 331.445C102.578 331.602 102.365 331.727 102.156 331.82C101.911 331.94 101.63 332.039 101.312 332.117C100.995 332.201 100.622 332.242 100.195 332.242C99.4089 332.242 98.7422 331.982 98.1953 331.461C97.6484 330.94 97.375 330.276 97.375 329.469C97.375 328.807 97.5156 328.273 97.7969 327.867C98.0833 327.456 98.4896 327.133 99.0156 326.898C99.5469 326.664 100.185 326.505 100.93 326.422C101.674 326.339 102.474 326.276 103.328 326.234V326.008C103.328 325.674 103.268 325.398 103.148 325.18C103.034 324.961 102.867 324.789 102.648 324.664C102.44 324.544 102.19 324.464 101.898 324.422C101.607 324.38 101.302 324.359 100.984 324.359C100.599 324.359 100.169 324.411 99.6953 324.516C99.2214 324.615 98.7318 324.76 98.2266 324.953H98.1484V323.461C98.4349 323.383 98.849 323.297 99.3906 323.203C99.9323 323.109 100.466 323.062 100.992 323.062C101.607 323.062 102.141 323.115 102.594 323.219C103.052 323.318 103.448 323.49 103.781 323.734C104.109 323.974 104.359 324.284 104.531 324.664C104.703 325.044 104.789 325.516 104.789 326.078V332ZM103.328 329.852V327.422C102.88 327.448 102.352 327.487 101.742 327.539C101.138 327.591 100.659 327.667 100.305 327.766C99.8828 327.885 99.5417 328.073 99.2812 328.328C99.0208 328.578 98.8906 328.924 98.8906 329.367C98.8906 329.867 99.0417 330.245 99.3438 330.5C99.6458 330.75 100.107 330.875 100.727 330.875C101.242 330.875 101.714 330.776 102.141 330.578C102.568 330.375 102.964 330.133 103.328 329.852ZM114.922 332H113.453V328.07H109.086V332H107.617V323.273H109.086V326.805H113.453V323.273H114.922V332ZM124.352 331.453C123.753 331.734 123.237 331.927 122.805 332.031C122.378 332.141 121.951 332.195 121.523 332.195C120.888 332.195 120.305 332.104 119.773 331.922C119.242 331.734 118.786 331.453 118.406 331.078C118.026 330.703 117.729 330.229 117.516 329.656C117.307 329.083 117.203 328.414 117.203 327.648C117.203 326.258 117.589 325.148 118.359 324.32C119.13 323.487 120.185 323.07 121.523 323.07C122.029 323.07 122.523 323.141 123.008 323.281C123.497 323.422 123.945 323.594 124.352 323.797V325.43H124.266C123.781 325.06 123.302 324.786 122.828 324.609C122.359 324.432 121.904 324.344 121.461 324.344C120.591 324.344 119.917 324.635 119.438 325.219C118.964 325.802 118.727 326.612 118.727 327.648C118.727 328.685 118.964 329.49 119.438 330.062C119.911 330.635 120.586 330.922 121.461 330.922C121.768 330.922 122.073 330.883 122.375 330.805C122.682 330.727 122.961 330.625 123.211 330.5C123.409 330.401 123.612 330.284 123.82 330.148C124.034 330.008 124.182 329.904 124.266 329.836H124.352V331.453ZM131.742 329.32C131.742 329.055 131.695 328.823 131.602 328.625C131.513 328.422 131.365 328.258 131.156 328.133C130.938 328.003 130.688 327.924 130.406 327.898C130.13 327.872 129.732 327.859 129.211 327.859H127.836V330.828H129.18C129.701 330.828 130.104 330.807 130.391 330.766C130.677 330.719 130.924 330.633 131.133 330.508C131.346 330.372 131.5 330.214 131.594 330.031C131.693 329.844 131.742 329.607 131.742 329.32ZM133.258 329.297C133.258 329.719 133.172 330.102 133 330.445C132.833 330.789 132.604 331.068 132.312 331.281C131.969 331.542 131.602 331.727 131.211 331.836C130.82 331.945 130.318 332 129.703 332H126.367V323.273H127.836V326.672H129.742C130.398 326.672 130.906 326.706 131.266 326.773C131.63 326.841 131.992 327.008 132.352 327.273C132.654 327.497 132.88 327.784 133.031 328.133C133.182 328.482 133.258 328.87 133.258 329.297ZM134.719 323.273H136.188V332H134.719V323.273ZM146.125 332H144.656V324.508H141.398C141.383 324.94 141.367 325.357 141.352 325.758C141.336 326.159 141.32 326.521 141.305 326.844C141.268 327.714 141.208 328.409 141.125 328.93C141.042 329.445 140.932 329.875 140.797 330.219C140.672 330.542 140.531 330.805 140.375 331.008C140.224 331.206 140.06 331.385 139.883 331.547C139.706 331.703 139.508 331.82 139.289 331.898C139.076 331.977 138.841 332.016 138.586 332.016C138.497 332.016 138.367 332.013 138.195 332.008C138.029 332.003 137.919 332 137.867 332V330.719H137.945C137.987 330.719 138.047 330.721 138.125 330.727C138.203 330.732 138.268 330.734 138.32 330.734C138.445 330.734 138.573 330.716 138.703 330.68C138.839 330.643 138.953 330.576 139.047 330.477C139.312 330.216 139.526 329.776 139.688 329.156C139.849 328.536 139.956 327.641 140.008 326.469C140.029 326.042 140.047 325.536 140.062 324.953C140.083 324.365 140.102 323.805 140.117 323.273H146.125V332ZM154.398 329.32C154.398 329.055 154.352 328.823 154.258 328.625C154.169 328.422 154.021 328.258 153.812 328.133C153.594 328.003 153.344 327.924 153.062 327.898C152.786 327.872 152.388 327.859 151.867 327.859H150.492V330.828H151.836C152.357 330.828 152.76 330.807 153.047 330.766C153.333 330.719 153.581 330.633 153.789 330.508C154.003 330.372 154.156 330.214 154.25 330.031C154.349 329.844 154.398 329.607 154.398 329.32ZM155.914 329.297C155.914 329.719 155.828 330.102 155.656 330.445C155.49 330.789 155.26 331.068 154.969 331.281C154.625 331.542 154.258 331.727 153.867 331.836C153.477 331.945 152.974 332 152.359 332H149.023V323.273H150.492V326.672H152.398C153.055 326.672 153.562 326.706 153.922 326.773C154.286 326.841 154.648 327.008 155.008 327.273C155.31 327.497 155.536 327.784 155.688 328.133C155.839 328.482 155.914 328.87 155.914 329.297ZM157.375 323.273H158.844V332H157.375V323.273ZM169.617 332H167.695L164.07 328H163.273V332H161.805V323.273H163.273V327.039C163.758 327.039 164.148 326.953 164.445 326.781C164.742 326.604 164.995 326.323 165.203 325.938C165.276 325.797 165.346 325.648 165.414 325.492C165.487 325.331 165.557 325.177 165.625 325.031C165.896 324.443 166.234 324.003 166.641 323.711C167.047 323.419 167.63 323.273 168.391 323.273H169.062V324.539H168.414C168.003 324.539 167.68 324.628 167.445 324.805C167.216 324.977 167.008 325.281 166.82 325.719C166.612 326.208 166.391 326.576 166.156 326.82C165.927 327.06 165.682 327.242 165.422 327.367L169.617 332ZM185.938 331.156C185.651 331.281 185.391 331.398 185.156 331.508C184.927 331.617 184.625 331.732 184.25 331.852C183.932 331.951 183.586 332.034 183.211 332.102C182.841 332.174 182.432 332.211 181.984 332.211C181.141 332.211 180.372 332.094 179.68 331.859C178.992 331.62 178.393 331.247 177.883 330.742C177.383 330.247 176.992 329.62 176.711 328.859C176.43 328.094 176.289 327.206 176.289 326.195C176.289 325.237 176.424 324.38 176.695 323.625C176.966 322.87 177.357 322.232 177.867 321.711C178.362 321.206 178.958 320.82 179.656 320.555C180.359 320.289 181.138 320.156 181.992 320.156C182.617 320.156 183.24 320.232 183.859 320.383C184.484 320.534 185.177 320.799 185.938 321.18V323.016H185.82C185.18 322.479 184.544 322.089 183.914 321.844C183.284 321.599 182.609 321.477 181.891 321.477C181.302 321.477 180.771 321.573 180.297 321.766C179.828 321.953 179.409 322.247 179.039 322.648C178.68 323.039 178.398 323.534 178.195 324.133C177.997 324.727 177.898 325.414 177.898 326.195C177.898 327.013 178.008 327.716 178.227 328.305C178.451 328.893 178.737 329.372 179.086 329.742C179.451 330.128 179.875 330.414 180.359 330.602C180.849 330.784 181.365 330.875 181.906 330.875C182.651 330.875 183.349 330.747 184 330.492C184.651 330.237 185.26 329.854 185.828 329.344H185.938V331.156ZM194.789 332H193.328V331.07C193.198 331.159 193.021 331.284 192.797 331.445C192.578 331.602 192.365 331.727 192.156 331.82C191.911 331.94 191.63 332.039 191.312 332.117C190.995 332.201 190.622 332.242 190.195 332.242C189.409 332.242 188.742 331.982 188.195 331.461C187.648 330.94 187.375 330.276 187.375 329.469C187.375 328.807 187.516 328.273 187.797 327.867C188.083 327.456 188.49 327.133 189.016 326.898C189.547 326.664 190.185 326.505 190.93 326.422C191.674 326.339 192.474 326.276 193.328 326.234V326.008C193.328 325.674 193.268 325.398 193.148 325.18C193.034 324.961 192.867 324.789 192.648 324.664C192.44 324.544 192.19 324.464 191.898 324.422C191.607 324.38 191.302 324.359 190.984 324.359C190.599 324.359 190.169 324.411 189.695 324.516C189.221 324.615 188.732 324.76 188.227 324.953H188.148V323.461C188.435 323.383 188.849 323.297 189.391 323.203C189.932 323.109 190.466 323.062 190.992 323.062C191.607 323.062 192.141 323.115 192.594 323.219C193.052 323.318 193.448 323.49 193.781 323.734C194.109 323.974 194.359 324.284 194.531 324.664C194.703 325.044 194.789 325.516 194.789 326.078V332ZM193.328 329.852V327.422C192.88 327.448 192.352 327.487 191.742 327.539C191.138 327.591 190.659 327.667 190.305 327.766C189.883 327.885 189.542 328.073 189.281 328.328C189.021 328.578 188.891 328.924 188.891 329.367C188.891 329.867 189.042 330.245 189.344 330.5C189.646 330.75 190.107 330.875 190.727 330.875C191.242 330.875 191.714 330.776 192.141 330.578C192.568 330.375 192.964 330.133 193.328 329.852ZM204.031 324.562C204.396 324.927 204.672 325.37 204.859 325.891C205.047 326.406 205.141 327.013 205.141 327.711C205.141 329.013 204.75 330.094 203.969 330.953C203.188 331.812 202.227 332.242 201.086 332.242C200.523 332.242 200.005 332.148 199.531 331.961C199.057 331.768 198.654 331.474 198.32 331.078C197.904 330.583 197.591 329.961 197.383 329.211C197.18 328.456 197.078 327.536 197.078 326.453C197.078 326.062 197.096 325.667 197.133 325.266C197.169 324.859 197.253 324.375 197.383 323.812C197.487 323.328 197.638 322.862 197.836 322.414C198.039 321.966 198.279 321.604 198.555 321.328C198.93 320.948 199.422 320.643 200.031 320.414C200.646 320.18 201.458 320.018 202.469 319.93C202.88 319.893 203.263 319.865 203.617 319.844C203.971 319.818 204.289 319.794 204.57 319.773V321.125C204.227 321.146 203.885 321.167 203.547 321.188C203.214 321.208 202.88 321.234 202.547 321.266C201.88 321.323 201.276 321.432 200.734 321.594C200.198 321.755 199.805 321.964 199.555 322.219C199.279 322.495 199.07 322.857 198.93 323.305C198.794 323.747 198.706 324.169 198.664 324.57C199.055 324.289 199.482 324.055 199.945 323.867C200.414 323.674 200.911 323.578 201.438 323.578C201.927 323.578 202.398 323.659 202.852 323.82C203.305 323.982 203.698 324.229 204.031 324.562ZM203.648 327.797C203.648 326.833 203.417 326.115 202.953 325.641C202.49 325.161 201.878 324.922 201.117 324.922C200.664 324.922 200.229 324.995 199.812 325.141C199.396 325.281 199 325.471 198.625 325.711C198.615 325.841 198.604 325.995 198.594 326.172C198.589 326.344 198.586 326.503 198.586 326.648C198.586 327.555 198.661 328.289 198.812 328.852C198.964 329.414 199.177 329.862 199.453 330.195C199.693 330.477 199.953 330.677 200.234 330.797C200.516 330.911 200.818 330.969 201.141 330.969C201.927 330.969 202.542 330.685 202.984 330.117C203.427 329.549 203.648 328.776 203.648 327.797ZM214.227 332H212.766V331.07C212.635 331.159 212.458 331.284 212.234 331.445C212.016 331.602 211.802 331.727 211.594 331.82C211.349 331.94 211.068 332.039 210.75 332.117C210.432 332.201 210.06 332.242 209.633 332.242C208.846 332.242 208.18 331.982 207.633 331.461C207.086 330.94 206.812 330.276 206.812 329.469C206.812 328.807 206.953 328.273 207.234 327.867C207.521 327.456 207.927 327.133 208.453 326.898C208.984 326.664 209.622 326.505 210.367 326.422C211.112 326.339 211.911 326.276 212.766 326.234V326.008C212.766 325.674 212.706 325.398 212.586 325.18C212.471 324.961 212.305 324.789 212.086 324.664C211.878 324.544 211.628 324.464 211.336 324.422C211.044 324.38 210.74 324.359 210.422 324.359C210.036 324.359 209.607 324.411 209.133 324.516C208.659 324.615 208.169 324.76 207.664 324.953H207.586V323.461C207.872 323.383 208.286 323.297 208.828 323.203C209.37 323.109 209.904 323.062 210.43 323.062C211.044 323.062 211.578 323.115 212.031 323.219C212.49 323.318 212.885 323.49 213.219 323.734C213.547 323.974 213.797 324.284 213.969 324.664C214.141 325.044 214.227 325.516 214.227 326.078V332ZM212.766 329.852V327.422C212.318 327.448 211.789 327.487 211.18 327.539C210.576 327.591 210.096 327.667 209.742 327.766C209.32 327.885 208.979 328.073 208.719 328.328C208.458 328.578 208.328 328.924 208.328 329.367C208.328 329.867 208.479 330.245 208.781 330.5C209.083 330.75 209.544 330.875 210.164 330.875C210.68 330.875 211.151 330.776 211.578 330.578C212.005 330.375 212.401 330.133 212.766 329.852ZM223.469 324.562H220.312V332H218.844V324.562H215.688V323.273H223.469V324.562ZM231.406 324.562H228.25V332H226.781V324.562H223.625V323.273H231.406V324.562ZM240.477 323.273L235.383 335.219H233.812L235.438 331.578L231.961 323.273H233.555L236.234 329.742L238.938 323.273H240.477ZM249.945 323.273L244.852 335.219H243.281L244.906 331.578L241.43 323.273H243.023L245.703 329.742L248.406 323.273H249.945ZM258.906 332H257.438V324.508H254.18C254.164 324.94 254.148 325.357 254.133 325.758C254.117 326.159 254.102 326.521 254.086 326.844C254.049 327.714 253.99 328.409 253.906 328.93C253.823 329.445 253.714 329.875 253.578 330.219C253.453 330.542 253.312 330.805 253.156 331.008C253.005 331.206 252.841 331.385 252.664 331.547C252.487 331.703 252.289 331.82 252.07 331.898C251.857 331.977 251.622 332.016 251.367 332.016C251.279 332.016 251.148 332.013 250.977 332.008C250.81 332.003 250.701 332 250.648 332V330.719H250.727C250.768 330.719 250.828 330.721 250.906 330.727C250.984 330.732 251.049 330.734 251.102 330.734C251.227 330.734 251.354 330.716 251.484 330.68C251.62 330.643 251.734 330.576 251.828 330.477C252.094 330.216 252.307 329.776 252.469 329.156C252.63 328.536 252.737 327.641 252.789 326.469C252.81 326.042 252.828 325.536 252.844 324.953C252.865 324.365 252.883 323.805 252.898 323.273H258.906V332ZM269.352 323.273L264.258 335.219H262.688L264.312 331.578L260.836 323.273H262.43L265.109 329.742L267.812 323.273H269.352ZM279.148 332H277.227L273.602 328H272.805V332H271.336V323.273H272.805V327.039C273.289 327.039 273.68 326.953 273.977 326.781C274.273 326.604 274.526 326.323 274.734 325.938C274.807 325.797 274.878 325.648 274.945 325.492C275.018 325.331 275.089 325.177 275.156 325.031C275.427 324.443 275.766 324.003 276.172 323.711C276.578 323.419 277.161 323.273 277.922 323.273H278.594V324.539H277.945C277.534 324.539 277.211 324.628 276.977 324.805C276.747 324.977 276.539 325.281 276.352 325.719C276.143 326.208 275.922 326.576 275.688 326.82C275.458 327.06 275.214 327.242 274.953 327.367L279.148 332ZM73.9141 351H71.9297L67.2031 345.695H66.1484V351H64.6016V339.367H66.1484V344.586C66.4141 344.581 66.6641 344.555 66.8984 344.508C67.1328 344.461 67.3542 344.372 67.5625 344.242C67.7708 344.122 67.9766 343.953 68.1797 343.734C68.3828 343.51 68.5625 343.237 68.7188 342.914C68.7865 342.773 68.8646 342.596 68.9531 342.383C69.0469 342.169 69.1406 341.945 69.2344 341.711C69.5938 340.846 70.013 340.24 70.4922 339.891C70.9766 339.542 71.6875 339.367 72.625 339.367H73.2422V340.75H72.5938C72.2344 340.75 71.9531 340.784 71.75 340.852C71.5469 340.914 71.3646 341.021 71.2031 341.172C71.0521 341.307 70.9193 341.49 70.8047 341.719C70.6953 341.948 70.5807 342.216 70.4609 342.523C70.1901 343.211 69.9141 343.716 69.6328 344.039C69.3568 344.362 68.9844 344.643 68.5156 344.883L73.9141 351ZM83.0859 342.273L77.9922 354.219H76.4219L78.0469 350.578L74.5703 342.273H76.1641L78.8438 348.742L81.5469 342.273H83.0859ZM92.6875 346.531C92.6875 347.24 92.5859 347.888 92.3828 348.477C92.1797 349.06 91.8932 349.555 91.5234 349.961C91.1797 350.346 90.7734 350.646 90.3047 350.859C89.8411 351.068 89.349 351.172 88.8281 351.172C88.375 351.172 87.9635 351.122 87.5938 351.023C87.2292 350.924 86.8568 350.771 86.4766 350.562V354.219H85.0078V342.273H86.4766V343.188C86.8672 342.859 87.3047 342.586 87.7891 342.367C88.2786 342.143 88.7995 342.031 89.3516 342.031C90.4036 342.031 91.2214 342.43 91.8047 343.227C92.3932 344.018 92.6875 345.12 92.6875 346.531ZM91.1719 346.57C91.1719 345.518 90.9922 344.732 90.6328 344.211C90.2734 343.69 89.7214 343.43 88.9766 343.43C88.5547 343.43 88.1302 343.521 87.7031 343.703C87.276 343.885 86.8672 344.125 86.4766 344.422V349.367C86.8932 349.555 87.25 349.682 87.5469 349.75C87.849 349.818 88.1901 349.852 88.5703 349.852C89.388 349.852 90.026 349.576 90.4844 349.023C90.9427 348.471 91.1719 347.654 91.1719 346.57ZM101.508 350.453C100.909 350.734 100.393 350.927 99.9609 351.031C99.5339 351.141 99.1068 351.195 98.6797 351.195C98.0443 351.195 97.4609 351.104 96.9297 350.922C96.3984 350.734 95.9427 350.453 95.5625 350.078C95.1823 349.703 94.8854 349.229 94.6719 348.656C94.4635 348.083 94.3594 347.414 94.3594 346.648C94.3594 345.258 94.7448 344.148 95.5156 343.32C96.2865 342.487 97.3411 342.07 98.6797 342.07C99.1849 342.07 99.6797 342.141 100.164 342.281C100.654 342.422 101.102 342.594 101.508 342.797V344.43H101.422C100.938 344.06 100.458 343.786 99.9844 343.609C99.5156 343.432 99.0599 343.344 98.6172 343.344C97.7474 343.344 97.0729 343.635 96.5938 344.219C96.1198 344.802 95.8828 345.612 95.8828 346.648C95.8828 347.685 96.1198 348.49 96.5938 349.062C97.0677 349.635 97.7422 349.922 98.6172 349.922C98.9245 349.922 99.2292 349.883 99.5312 349.805C99.8385 349.727 100.117 349.625 100.367 349.5C100.565 349.401 100.768 349.284 100.977 349.148C101.19 349.008 101.339 348.904 101.422 348.836H101.508V350.453ZM109.938 343.562H106.781V351H105.312V343.562H102.156V342.273H109.938V343.562ZM118.242 351H116.781V350.07C116.651 350.159 116.474 350.284 116.25 350.445C116.031 350.602 115.818 350.727 115.609 350.82C115.365 350.94 115.083 351.039 114.766 351.117C114.448 351.201 114.076 351.242 113.648 351.242C112.862 351.242 112.195 350.982 111.648 350.461C111.102 349.94 110.828 349.276 110.828 348.469C110.828 347.807 110.969 347.273 111.25 346.867C111.536 346.456 111.943 346.133 112.469 345.898C113 345.664 113.638 345.505 114.383 345.422C115.128 345.339 115.927 345.276 116.781 345.234V345.008C116.781 344.674 116.721 344.398 116.602 344.18C116.487 343.961 116.32 343.789 116.102 343.664C115.893 343.544 115.643 343.464 115.352 343.422C115.06 343.38 114.755 343.359 114.438 343.359C114.052 343.359 113.622 343.411 113.148 343.516C112.674 343.615 112.185 343.76 111.68 343.953H111.602V342.461C111.888 342.383 112.302 342.297 112.844 342.203C113.385 342.109 113.919 342.062 114.445 342.062C115.06 342.062 115.594 342.115 116.047 342.219C116.505 342.318 116.901 342.49 117.234 342.734C117.562 342.974 117.812 343.284 117.984 343.664C118.156 344.044 118.242 344.516 118.242 345.078V351ZM116.781 348.852V346.422C116.333 346.448 115.805 346.487 115.195 346.539C114.591 346.591 114.112 346.667 113.758 346.766C113.336 346.885 112.995 347.073 112.734 347.328C112.474 347.578 112.344 347.924 112.344 348.367C112.344 348.867 112.495 349.245 112.797 349.5C113.099 349.75 113.56 349.875 114.18 349.875C114.695 349.875 115.167 349.776 115.594 349.578C116.021 349.375 116.417 349.133 116.781 348.852ZM128.75 346.531C128.75 347.24 128.648 347.888 128.445 348.477C128.242 349.06 127.956 349.555 127.586 349.961C127.242 350.346 126.836 350.646 126.367 350.859C125.904 351.068 125.411 351.172 124.891 351.172C124.438 351.172 124.026 351.122 123.656 351.023C123.292 350.924 122.919 350.771 122.539 350.562V354.219H121.07V342.273H122.539V343.188C122.93 342.859 123.367 342.586 123.852 342.367C124.341 342.143 124.862 342.031 125.414 342.031C126.466 342.031 127.284 342.43 127.867 343.227C128.456 344.018 128.75 345.12 128.75 346.531ZM127.234 346.57C127.234 345.518 127.055 344.732 126.695 344.211C126.336 343.69 125.784 343.43 125.039 343.43C124.617 343.43 124.193 343.521 123.766 343.703C123.339 343.885 122.93 344.125 122.539 344.422V349.367C122.956 349.555 123.312 349.682 123.609 349.75C123.911 349.818 124.253 349.852 124.633 349.852C125.451 349.852 126.089 349.576 126.547 349.023C127.005 348.471 127.234 347.654 127.234 346.57ZM136.414 348.32C136.414 348.055 136.367 347.823 136.273 347.625C136.185 347.422 136.036 347.258 135.828 347.133C135.609 347.003 135.359 346.924 135.078 346.898C134.802 346.872 134.404 346.859 133.883 346.859H132.508V349.828H133.852C134.372 349.828 134.776 349.807 135.062 349.766C135.349 349.719 135.596 349.633 135.805 349.508C136.018 349.372 136.172 349.214 136.266 349.031C136.365 348.844 136.414 348.607 136.414 348.32ZM137.93 348.297C137.93 348.719 137.844 349.102 137.672 349.445C137.505 349.789 137.276 350.068 136.984 350.281C136.641 350.542 136.273 350.727 135.883 350.836C135.492 350.945 134.99 351 134.375 351H131.039V342.273H132.508V345.672H134.414C135.07 345.672 135.578 345.706 135.938 345.773C136.302 345.841 136.664 346.008 137.023 346.273C137.326 346.497 137.552 346.784 137.703 347.133C137.854 347.482 137.93 347.87 137.93 348.297ZM139.391 342.273H140.859V351H139.391V342.273Z" fill="#333333"/>
<path d="M30 385L37.5 392.5L50 377.5" stroke="#61B857" stroke-width="2" stroke-linecap="round" stroke-linejoin="round"/>
<path d="M73.4453 386H71.9062V376.68L66.125 386H64.5625V374.367H66.1016V383.547L71.8125 374.367H73.4453V386ZM87.5859 386H76.4609V377.273H77.9297V384.734H81.2891V377.273H82.7578V384.734H86.1172V377.273H87.5859V386ZM98.3516 386H96.4297L92.8047 382H92.0078V386H90.5391V377.273H92.0078V381.039C92.4922 381.039 92.8828 380.953 93.1797 380.781C93.4766 380.604 93.7292 380.323 93.9375 379.938C94.0104 379.797 94.0807 379.648 94.1484 379.492C94.2214 379.331 94.2917 379.177 94.3594 379.031C94.6302 378.443 94.9688 378.003 95.375 377.711C95.7812 377.419 96.3646 377.273 97.125 377.273H97.7969V378.539H97.1484C96.737 378.539 96.4141 378.628 96.1797 378.805C95.9505 378.977 95.7422 379.281 95.5547 379.719C95.3464 380.208 95.125 380.576 94.8906 380.82C94.6615 381.06 94.4167 381.242 94.1562 381.367L98.3516 386ZM107.25 381.789H100.82C100.82 382.326 100.901 382.794 101.062 383.195C101.224 383.591 101.445 383.917 101.727 384.172C101.997 384.422 102.318 384.609 102.688 384.734C103.062 384.859 103.474 384.922 103.922 384.922C104.516 384.922 105.112 384.805 105.711 384.57C106.315 384.331 106.745 384.096 107 383.867H107.078V385.469C106.583 385.677 106.078 385.852 105.562 385.992C105.047 386.133 104.505 386.203 103.938 386.203C102.49 386.203 101.359 385.812 100.547 385.031C99.7344 384.245 99.3281 383.13 99.3281 381.688C99.3281 380.26 99.7161 379.128 100.492 378.289C101.273 377.451 102.299 377.031 103.57 377.031C104.747 377.031 105.654 377.375 106.289 378.062C106.93 378.75 107.25 379.727 107.25 380.992V381.789ZM105.82 380.664C105.815 379.893 105.62 379.297 105.234 378.875C104.854 378.453 104.273 378.242 103.492 378.242C102.706 378.242 102.078 378.474 101.609 378.938C101.146 379.401 100.883 379.977 100.82 380.664H105.82ZM117.156 381.531C117.156 382.24 117.055 382.888 116.852 383.477C116.648 384.06 116.362 384.555 115.992 384.961C115.648 385.346 115.242 385.646 114.773 385.859C114.31 386.068 113.818 386.172 113.297 386.172C112.844 386.172 112.432 386.122 112.062 386.023C111.698 385.924 111.326 385.771 110.945 385.562V389.219H109.477V377.273H110.945V378.188C111.336 377.859 111.773 377.586 112.258 377.367C112.747 377.143 113.268 377.031 113.82 377.031C114.872 377.031 115.69 377.43 116.273 378.227C116.862 379.018 117.156 380.12 117.156 381.531ZM115.641 381.57C115.641 380.518 115.461 379.732 115.102 379.211C114.742 378.69 114.19 378.43 113.445 378.43C113.023 378.43 112.599 378.521 112.172 378.703C111.745 378.885 111.336 379.125 110.945 379.422V384.367C111.362 384.555 111.719 384.682 112.016 384.75C112.318 384.818 112.659 384.852 113.039 384.852C113.857 384.852 114.495 384.576 114.953 384.023C115.411 383.471 115.641 382.654 115.641 381.57ZM126.484 386H125.016V378.508H121.758C121.742 378.94 121.727 379.357 121.711 379.758C121.695 380.159 121.68 380.521 121.664 380.844C121.628 381.714 121.568 382.409 121.484 382.93C121.401 383.445 121.292 383.875 121.156 384.219C121.031 384.542 120.891 384.805 120.734 385.008C120.583 385.206 120.419 385.385 120.242 385.547C120.065 385.703 119.867 385.82 119.648 385.898C119.435 385.977 119.201 386.016 118.945 386.016C118.857 386.016 118.727 386.013 118.555 386.008C118.388 386.003 118.279 386 118.227 386V384.719H118.305C118.346 384.719 118.406 384.721 118.484 384.727C118.562 384.732 118.628 384.734 118.68 384.734C118.805 384.734 118.932 384.716 119.062 384.68C119.198 384.643 119.312 384.576 119.406 384.477C119.672 384.216 119.885 383.776 120.047 383.156C120.208 382.536 120.315 381.641 120.367 380.469C120.388 380.042 120.406 379.536 120.422 378.953C120.443 378.365 120.461 377.805 120.477 377.273H126.484V386ZM136.688 381.789H130.258C130.258 382.326 130.339 382.794 130.5 383.195C130.661 383.591 130.883 383.917 131.164 384.172C131.435 384.422 131.755 384.609 132.125 384.734C132.5 384.859 132.911 384.922 133.359 384.922C133.953 384.922 134.549 384.805 135.148 384.57C135.753 384.331 136.182 384.096 136.438 383.867H136.516V385.469C136.021 385.677 135.516 385.852 135 385.992C134.484 386.133 133.943 386.203 133.375 386.203C131.927 386.203 130.797 385.812 129.984 385.031C129.172 384.245 128.766 383.13 128.766 381.688C128.766 380.26 129.154 379.128 129.93 378.289C130.711 377.451 131.737 377.031 133.008 377.031C134.185 377.031 135.091 377.375 135.727 378.062C136.367 378.75 136.688 379.727 136.688 380.992V381.789ZM135.258 380.664C135.253 379.893 135.057 379.297 134.672 378.875C134.292 378.453 133.711 378.242 132.93 378.242C132.143 378.242 131.516 378.474 131.047 378.938C130.583 379.401 130.32 379.977 130.258 380.664H135.258ZM146.594 381.531C146.594 382.24 146.492 382.888 146.289 383.477C146.086 384.06 145.799 384.555 145.43 384.961C145.086 385.346 144.68 385.646 144.211 385.859C143.747 386.068 143.255 386.172 142.734 386.172C142.281 386.172 141.87 386.122 141.5 386.023C141.135 385.924 140.763 385.771 140.383 385.562V389.219H138.914V377.273H140.383V378.188C140.773 377.859 141.211 377.586 141.695 377.367C142.185 377.143 142.706 377.031 143.258 377.031C144.31 377.031 145.128 377.43 145.711 378.227C146.299 379.018 146.594 380.12 146.594 381.531ZM145.078 381.57C145.078 380.518 144.898 379.732 144.539 379.211C144.18 378.69 143.628 378.43 142.883 378.43C142.461 378.43 142.036 378.521 141.609 378.703C141.182 378.885 140.773 379.125 140.383 379.422V384.367C140.799 384.555 141.156 384.682 141.453 384.75C141.755 384.818 142.096 384.852 142.477 384.852C143.294 384.852 143.932 384.576 144.391 384.023C144.849 383.471 145.078 382.654 145.078 381.57ZM156.805 388.094H155.438V385.977H148.875V388.094H147.508V384.75H148.453C149.062 383.745 149.516 382.586 149.812 381.273C150.115 379.956 150.266 378.622 150.266 377.273H155.75V384.75H156.805V388.094ZM154.281 384.75V378.508H151.648C151.581 379.815 151.38 381.008 151.047 382.086C150.714 383.164 150.331 384.052 149.898 384.75H154.281ZM166.188 386H164.734V379.445L160.164 386H158.836V377.273H160.289V383.734L164.812 377.273H166.188V386ZM176.391 386H174.922V382.07H170.555V386H169.086V377.273H170.555V380.805H174.922V377.273H176.391V386ZM75.2812 399.102C75.2812 399.831 75.1641 400.479 74.9297 401.047C74.7005 401.609 74.3802 402.081 73.9688 402.461C73.526 402.872 72.987 403.201 72.3516 403.445C71.7161 403.685 71.0391 403.812 70.3203 403.828V405.125H68.7812V403.828C68.0833 403.812 67.4141 403.688 66.7734 403.453C66.1328 403.219 65.5859 402.888 65.1328 402.461C64.7214 402.076 64.3984 401.602 64.1641 401.039C63.9349 400.477 63.8203 399.831 63.8203 399.102C63.8203 398.393 63.9323 397.773 64.1562 397.242C64.3802 396.711 64.6901 396.247 65.0859 395.852C65.5078 395.43 66.0339 395.096 66.6641 394.852C67.2995 394.607 68.0052 394.474 68.7812 394.453V393.242H70.3203V394.453C71.0911 394.469 71.7969 394.604 72.4375 394.859C73.0781 395.115 73.6042 395.445 74.0156 395.852C74.4062 396.232 74.7135 396.693 74.9375 397.234C75.1667 397.776 75.2812 398.398 75.2812 399.102ZM73.6719 399.039C73.6719 398.523 73.5885 398.049 73.4219 397.617C73.2552 397.185 73.0182 396.82 72.7109 396.523C72.4089 396.232 72.0729 396.018 71.7031 395.883C71.3333 395.747 70.8724 395.674 70.3203 395.664V402.617C70.8099 402.607 71.2552 402.529 71.6562 402.383C72.0573 402.232 72.388 402.034 72.6484 401.789C72.987 401.477 73.2422 401.094 73.4141 400.641C73.5859 400.188 73.6719 399.654 73.6719 399.039ZM68.7812 402.617V395.664C68.2292 395.669 67.7682 395.742 67.3984 395.883C67.0286 396.023 66.6927 396.237 66.3906 396.523C66.0885 396.81 65.8516 397.174 65.6797 397.617C65.513 398.06 65.4297 398.534 65.4297 399.039C65.4297 399.622 65.5156 400.151 65.6875 400.625C65.8646 401.099 66.1198 401.487 66.4531 401.789C66.7083 402.023 67.0365 402.219 67.4375 402.375C67.8438 402.531 68.2917 402.612 68.7812 402.617ZM84.9062 405H83.4531V398.445L78.8828 405H77.5547V396.273H79.0078V402.734L83.5312 396.273H84.9062V405ZM95.1094 405H93.6406V401.07H89.2734V405H87.8047V396.273H89.2734V399.805H93.6406V396.273H95.1094V405ZM104.789 405H103.328V404.07C103.198 404.159 103.021 404.284 102.797 404.445C102.578 404.602 102.365 404.727 102.156 404.82C101.911 404.94 101.63 405.039 101.312 405.117C100.995 405.201 100.622 405.242 100.195 405.242C99.4089 405.242 98.7422 404.982 98.1953 404.461C97.6484 403.94 97.375 403.276 97.375 402.469C97.375 401.807 97.5156 401.273 97.7969 400.867C98.0833 400.456 98.4896 400.133 99.0156 399.898C99.5469 399.664 100.185 399.505 100.93 399.422C101.674 399.339 102.474 399.276 103.328 399.234V399.008C103.328 398.674 103.268 398.398 103.148 398.18C103.034 397.961 102.867 397.789 102.648 397.664C102.44 397.544 102.19 397.464 101.898 397.422C101.607 397.38 101.302 397.359 100.984 397.359C100.599 397.359 100.169 397.411 99.6953 397.516C99.2214 397.615 98.7318 397.76 98.2266 397.953H98.1484V396.461C98.4349 396.383 98.849 396.297 99.3906 396.203C99.9323 396.109 100.466 396.062 100.992 396.062C101.607 396.062 102.141 396.115 102.594 396.219C103.052 396.318 103.448 396.49 103.781 396.734C104.109 396.974 104.359 397.284 104.531 397.664C104.703 398.044 104.789 398.516 104.789 399.078V405ZM103.328 402.852V400.422C102.88 400.448 102.352 400.487 101.742 400.539C101.138 400.591 100.659 400.667 100.305 400.766C99.8828 400.885 99.5417 401.073 99.2812 401.328C99.0208 401.578 98.8906 401.924 98.8906 402.367C98.8906 402.867 99.0417 403.245 99.3438 403.5C99.6458 403.75 100.107 403.875 100.727 403.875C101.242 403.875 101.714 403.776 102.141 403.578C102.568 403.375 102.964 403.133 103.328 402.852ZM114.922 405H113.453V401.07H109.086V405H107.617V396.273H109.086V399.805H113.453V396.273H114.922V405ZM124.352 404.453C123.753 404.734 123.237 404.927 122.805 405.031C122.378 405.141 121.951 405.195 121.523 405.195C120.888 405.195 120.305 405.104 119.773 404.922C119.242 404.734 118.786 404.453 118.406 404.078C118.026 403.703 117.729 403.229 117.516 402.656C117.307 402.083 117.203 401.414 117.203 400.648C117.203 399.258 117.589 398.148 118.359 397.32C119.13 396.487 120.185 396.07 121.523 396.07C122.029 396.07 122.523 396.141 123.008 396.281C123.497 396.422 123.945 396.594 124.352 396.797V398.43H124.266C123.781 398.06 123.302 397.786 122.828 397.609C122.359 397.432 121.904 397.344 121.461 397.344C120.591 397.344 119.917 397.635 119.438 398.219C118.964 398.802 118.727 399.612 118.727 400.648C118.727 401.685 118.964 402.49 119.438 403.062C119.911 403.635 120.586 403.922 121.461 403.922C121.768 403.922 122.073 403.883 122.375 403.805C122.682 403.727 122.961 403.625 123.211 403.5C123.409 403.401 123.612 403.284 123.82 403.148C124.034 403.008 124.182 402.904 124.266 402.836H124.352V404.453ZM131.742 402.32C131.742 402.055 131.695 401.823 131.602 401.625C131.513 401.422 131.365 401.258 131.156 401.133C130.938 401.003 130.688 400.924 130.406 400.898C130.13 400.872 129.732 400.859 129.211 400.859H127.836V403.828H129.18C129.701 403.828 130.104 403.807 130.391 403.766C130.677 403.719 130.924 403.633 131.133 403.508C131.346 403.372 131.5 403.214 131.594 403.031C131.693 402.844 131.742 402.607 131.742 402.32ZM133.258 402.297C133.258 402.719 133.172 403.102 133 403.445C132.833 403.789 132.604 404.068 132.312 404.281C131.969 404.542 131.602 404.727 131.211 404.836C130.82 404.945 130.318 405 129.703 405H126.367V396.273H127.836V399.672H129.742C130.398 399.672 130.906 399.706 131.266 399.773C131.63 399.841 131.992 400.008 132.352 400.273C132.654 400.497 132.88 400.784 133.031 401.133C133.182 401.482 133.258 401.87 133.258 402.297ZM134.719 396.273H136.188V405H134.719V396.273ZM146.125 405H144.656V397.508H141.398C141.383 397.94 141.367 398.357 141.352 398.758C141.336 399.159 141.32 399.521 141.305 399.844C141.268 400.714 141.208 401.409 141.125 401.93C141.042 402.445 140.932 402.875 140.797 403.219C140.672 403.542 140.531 403.805 140.375 404.008C140.224 404.206 140.06 404.385 139.883 404.547C139.706 404.703 139.508 404.82 139.289 404.898C139.076 404.977 138.841 405.016 138.586 405.016C138.497 405.016 138.367 405.013 138.195 405.008C138.029 405.003 137.919 405 137.867 405V403.719H137.945C137.987 403.719 138.047 403.721 138.125 403.727C138.203 403.732 138.268 403.734 138.32 403.734C138.445 403.734 138.573 403.716 138.703 403.68C138.839 403.643 138.953 403.576 139.047 403.477C139.312 403.216 139.526 402.776 139.688 402.156C139.849 401.536 139.956 400.641 140.008 399.469C140.029 399.042 140.047 398.536 140.062 397.953C140.083 397.365 140.102 396.805 140.117 396.273H146.125V405ZM154.398 402.32C154.398 402.055 154.352 401.823 154.258 401.625C154.169 401.422 154.021 401.258 153.812 401.133C153.594 401.003 153.344 400.924 153.062 400.898C152.786 400.872 152.388 400.859 151.867 400.859H150.492V403.828H151.836C152.357 403.828 152.76 403.807 153.047 403.766C153.333 403.719 153.581 403.633 153.789 403.508C154.003 403.372 154.156 403.214 154.25 403.031C154.349 402.844 154.398 402.607 154.398 402.32ZM155.914 402.297C155.914 402.719 155.828 403.102 155.656 403.445C155.49 403.789 155.26 404.068 154.969 404.281C154.625 404.542 154.258 404.727 153.867 404.836C153.477 404.945 152.974 405 152.359 405H149.023V396.273H150.492V399.672H152.398C153.055 399.672 153.562 399.706 153.922 399.773C154.286 399.841 154.648 400.008 155.008 400.273C155.31 400.497 155.536 400.784 155.688 401.133C155.839 401.482 155.914 401.87 155.914 402.297ZM157.375 396.273H158.844V405H157.375V396.273ZM169.617 405H167.695L164.07 401H163.273V405H161.805V396.273H163.273V400.039C163.758 400.039 164.148 399.953 164.445 399.781C164.742 399.604 164.995 399.323 165.203 398.938C165.276 398.797 165.346 398.648 165.414 398.492C165.487 398.331 165.557 398.177 165.625 398.031C165.896 397.443 166.234 397.003 166.641 396.711C167.047 396.419 167.63 396.273 168.391 396.273H169.062V397.539H168.414C168.003 397.539 167.68 397.628 167.445 397.805C167.216 397.977 167.008 398.281 166.82 398.719C166.612 399.208 166.391 399.576 166.156 399.82C165.927 400.06 165.682 400.242 165.422 400.367L169.617 405ZM74.9219 424H73.375V413.977L70.1406 420.797H69.2188L66.0078 413.977V424H64.5625V412.367H66.6719L69.7734 418.844L72.7734 412.367H74.9219V424ZM85.2344 419.789H78.8047C78.8047 420.326 78.8854 420.794 79.0469 421.195C79.2083 421.591 79.4297 421.917 79.7109 422.172C79.9818 422.422 80.3021 422.609 80.6719 422.734C81.0469 422.859 81.4583 422.922 81.9062 422.922C82.5 422.922 83.0964 422.805 83.6953 422.57C84.2995 422.331 84.7292 422.096 84.9844 421.867H85.0625V423.469C84.5677 423.677 84.0625 423.852 83.5469 423.992C83.0312 424.133 82.4896 424.203 81.9219 424.203C80.474 424.203 79.3438 423.812 78.5312 423.031C77.7188 422.245 77.3125 421.13 77.3125 419.688C77.3125 418.26 77.7005 417.128 78.4766 416.289C79.2578 415.451 80.2839 415.031 81.5547 415.031C82.7318 415.031 83.638 415.375 84.2734 416.062C84.9141 416.75 85.2344 417.727 85.2344 418.992V419.789ZM83.8047 418.664C83.7995 417.893 83.6042 417.297 83.2188 416.875C82.8385 416.453 82.2578 416.242 81.4766 416.242C80.6901 416.242 80.0625 416.474 79.5938 416.938C79.1302 417.401 78.8672 417.977 78.8047 418.664H83.8047ZM94.7656 424H93.2969V420.07H88.9297V424H87.4609V415.273H88.9297V418.805H93.2969V415.273H94.7656V424ZM104.969 419.789H98.5391C98.5391 420.326 98.6198 420.794 98.7812 421.195C98.9427 421.591 99.1641 421.917 99.4453 422.172C99.7161 422.422 100.036 422.609 100.406 422.734C100.781 422.859 101.193 422.922 101.641 422.922C102.234 422.922 102.831 422.805 103.43 422.57C104.034 422.331 104.464 422.096 104.719 421.867H104.797V423.469C104.302 423.677 103.797 423.852 103.281 423.992C102.766 424.133 102.224 424.203 101.656 424.203C100.208 424.203 99.0781 423.812 98.2656 423.031C97.4531 422.245 97.0469 421.13 97.0469 419.688C97.0469 418.26 97.4349 417.128 98.2109 416.289C98.9922 415.451 100.018 415.031 101.289 415.031C102.466 415.031 103.372 415.375 104.008 416.062C104.648 416.75 104.969 417.727 104.969 418.992V419.789ZM103.539 418.664C103.534 417.893 103.339 417.297 102.953 416.875C102.573 416.453 101.992 416.242 101.211 416.242C100.424 416.242 99.7969 416.474 99.3281 416.938C98.8646 417.401 98.6016 417.977 98.5391 418.664H103.539ZM115.117 426.094H113.75V423.977H107.188V426.094H105.82V422.75H106.766C107.375 421.745 107.828 420.586 108.125 419.273C108.427 417.956 108.578 416.622 108.578 415.273H114.062V422.75H115.117V426.094ZM112.594 422.75V416.508H109.961C109.893 417.815 109.693 419.008 109.359 420.086C109.026 421.164 108.643 422.052 108.211 422.75H112.594ZM128.094 424H126.32L123.523 420.016H122.812V424H121.359V420.016H120.727L117.805 424H116.109L119.477 419.43C119.221 419.294 118.995 419.102 118.797 418.852C118.604 418.602 118.427 418.224 118.266 417.719C118.125 417.276 117.958 416.969 117.766 416.797C117.573 416.625 117.258 416.539 116.82 416.539H116.406V415.273H116.945C117.591 415.273 118.109 415.404 118.5 415.664C118.891 415.924 119.203 416.38 119.438 417.031C119.484 417.167 119.542 417.323 119.609 417.5C119.682 417.672 119.745 417.818 119.797 417.938C119.969 418.333 120.188 418.615 120.453 418.781C120.724 418.943 121.026 419.034 121.359 419.055V415.273H122.812V419.055C123.146 419.034 123.448 418.94 123.719 418.773C123.995 418.607 124.219 418.328 124.391 417.938C124.448 417.807 124.51 417.656 124.578 417.484C124.651 417.312 124.708 417.161 124.75 417.031C124.979 416.391 125.286 415.938 125.672 415.672C126.057 415.406 126.576 415.273 127.227 415.273H127.766V416.539H127.352C126.909 416.539 126.589 416.63 126.391 416.812C126.198 416.995 126.036 417.297 125.906 417.719C125.76 418.182 125.586 418.544 125.383 418.805C125.185 419.06 124.969 419.253 124.734 419.383L128.094 424ZM138.164 424H136.711V417.109L134.539 421.594H133.445L131.289 417.109V424H129.914V415.273H131.688L134.062 420.156L136.359 415.273H138.164V424ZM148.359 419.789H141.93C141.93 420.326 142.01 420.794 142.172 421.195C142.333 421.591 142.555 421.917 142.836 422.172C143.107 422.422 143.427 422.609 143.797 422.734C144.172 422.859 144.583 422.922 145.031 422.922C145.625 422.922 146.221 422.805 146.82 422.57C147.424 422.331 147.854 422.096 148.109 421.867H148.188V423.469C147.693 423.677 147.188 423.852 146.672 423.992C146.156 424.133 145.615 424.203 145.047 424.203C143.599 424.203 142.469 423.812 141.656 423.031C140.844 422.245 140.438 421.13 140.438 419.688C140.438 418.26 140.826 417.128 141.602 416.289C142.383 415.451 143.409 415.031 144.68 415.031C145.857 415.031 146.763 415.375 147.398 416.062C148.039 416.75 148.359 417.727 148.359 418.992V419.789ZM146.93 418.664C146.924 417.893 146.729 417.297 146.344 416.875C145.964 416.453 145.383 416.242 144.602 416.242C143.815 416.242 143.188 416.474 142.719 416.938C142.255 417.401 141.992 417.977 141.93 418.664H146.93ZM157.891 424H156.422V420.07H152.055V424H150.586V415.273H152.055V418.805H156.422V415.273H157.891V424ZM167.203 416.562H164.047V424H162.578V416.562H159.422V415.273H167.203V416.562ZM176.078 424H174.625V417.445L170.055 424H168.727V415.273H170.18V421.734L174.703 415.273H176.078V424Z" fill="#333333"/>
<path d="M30 458L37.5 465.5L50 450.5" stroke="#61B857" stroke-width="2" stroke-linecap="round" stroke-linejoin="round"/>
<path d="M73.9141 464.5H71.9297L67.2031 459.195H66.1484V464.5H64.6016V452.867H66.1484V458.086C66.4141 458.081 66.6641 458.055 66.8984 458.008C67.1328 457.961 67.3542 457.872 67.5625 457.742C67.7708 457.622 67.9766 457.453 68.1797 457.234C68.3828 457.01 68.5625 456.737 68.7188 456.414C68.7865 456.273 68.8646 456.096 68.9531 455.883C69.0469 455.669 69.1406 455.445 69.2344 455.211C69.5938 454.346 70.013 453.74 70.4922 453.391C70.9766 453.042 71.6875 452.867 72.625 452.867H73.2422V454.25H72.5938C72.2344 454.25 71.9531 454.284 71.75 454.352C71.5469 454.414 71.3646 454.521 71.2031 454.672C71.0521 454.807 70.9193 454.99 70.8047 455.219C70.6953 455.448 70.5807 455.716 70.4609 456.023C70.1901 456.711 69.9141 457.216 69.6328 457.539C69.3568 457.862 68.9844 458.143 68.5156 458.383L73.9141 464.5ZM82.3203 464.5H80.8594V463.57C80.7292 463.659 80.5521 463.784 80.3281 463.945C80.1094 464.102 79.8958 464.227 79.6875 464.32C79.4427 464.44 79.1615 464.539 78.8438 464.617C78.526 464.701 78.1536 464.742 77.7266 464.742C76.9401 464.742 76.2734 464.482 75.7266 463.961C75.1797 463.44 74.9062 462.776 74.9062 461.969C74.9062 461.307 75.0469 460.773 75.3281 460.367C75.6146 459.956 76.0208 459.633 76.5469 459.398C77.0781 459.164 77.7161 459.005 78.4609 458.922C79.2057 458.839 80.0052 458.776 80.8594 458.734V458.508C80.8594 458.174 80.7995 457.898 80.6797 457.68C80.5651 457.461 80.3984 457.289 80.1797 457.164C79.9714 457.044 79.7214 456.964 79.4297 456.922C79.138 456.88 78.8333 456.859 78.5156 456.859C78.1302 456.859 77.7005 456.911 77.2266 457.016C76.7526 457.115 76.263 457.26 75.7578 457.453H75.6797V455.961C75.9661 455.883 76.3802 455.797 76.9219 455.703C77.4635 455.609 77.9974 455.562 78.5234 455.562C79.138 455.562 79.6719 455.615 80.125 455.719C80.5833 455.818 80.9792 455.99 81.3125 456.234C81.6406 456.474 81.8906 456.784 82.0625 457.164C82.2344 457.544 82.3203 458.016 82.3203 458.578V464.5ZM80.8594 462.352V459.922C80.4115 459.948 79.8828 459.987 79.2734 460.039C78.6693 460.091 78.1901 460.167 77.8359 460.266C77.4141 460.385 77.0729 460.573 76.8125 460.828C76.5521 461.078 76.4219 461.424 76.4219 461.867C76.4219 462.367 76.5729 462.745 76.875 463C77.1771 463.25 77.638 463.375 78.2578 463.375C78.7734 463.375 79.2448 463.276 79.6719 463.078C80.099 462.875 80.4948 462.633 80.8594 462.352ZM92.8281 460.031C92.8281 460.74 92.7266 461.388 92.5234 461.977C92.3203 462.56 92.0339 463.055 91.6641 463.461C91.3203 463.846 90.9141 464.146 90.4453 464.359C89.9818 464.568 89.4896 464.672 88.9688 464.672C88.5156 464.672 88.1042 464.622 87.7344 464.523C87.3698 464.424 86.9974 464.271 86.6172 464.062V467.719H85.1484V455.773H86.6172V456.688C87.0078 456.359 87.4453 456.086 87.9297 455.867C88.4193 455.643 88.9401 455.531 89.4922 455.531C90.5443 455.531 91.362 455.93 91.9453 456.727C92.5339 457.518 92.8281 458.62 92.8281 460.031ZM91.3125 460.07C91.3125 459.018 91.1328 458.232 90.7734 457.711C90.4141 457.19 89.862 456.93 89.1172 456.93C88.6953 456.93 88.2708 457.021 87.8438 457.203C87.4167 457.385 87.0078 457.625 86.6172 457.922V462.867C87.0339 463.055 87.3906 463.182 87.6875 463.25C87.9896 463.318 88.3307 463.352 88.7109 463.352C89.5286 463.352 90.1667 463.076 90.625 462.523C91.0833 461.971 91.3125 461.154 91.3125 460.07ZM106.062 464.5H104.289L101.492 460.516H100.781V464.5H99.3281V460.516H98.6953L95.7734 464.5H94.0781L97.4453 459.93C97.1901 459.794 96.9635 459.602 96.7656 459.352C96.5729 459.102 96.3958 458.724 96.2344 458.219C96.0938 457.776 95.9271 457.469 95.7344 457.297C95.5417 457.125 95.2266 457.039 94.7891 457.039H94.375V455.773H94.9141C95.5599 455.773 96.0781 455.904 96.4688 456.164C96.8594 456.424 97.1719 456.88 97.4062 457.531C97.4531 457.667 97.5104 457.823 97.5781 458C97.651 458.172 97.7135 458.318 97.7656 458.438C97.9375 458.833 98.1562 459.115 98.4219 459.281C98.6927 459.443 98.9948 459.534 99.3281 459.555V455.773H100.781V459.555C101.115 459.534 101.417 459.44 101.688 459.273C101.964 459.107 102.188 458.828 102.359 458.438C102.417 458.307 102.479 458.156 102.547 457.984C102.62 457.812 102.677 457.661 102.719 457.531C102.948 456.891 103.255 456.438 103.641 456.172C104.026 455.906 104.544 455.773 105.195 455.773H105.734V457.039H105.32C104.878 457.039 104.557 457.13 104.359 457.312C104.167 457.495 104.005 457.797 103.875 458.219C103.729 458.682 103.555 459.044 103.352 459.305C103.154 459.56 102.938 459.753 102.703 459.883L106.062 464.5ZM113.258 461.82C113.258 461.555 113.211 461.323 113.117 461.125C113.029 460.922 112.88 460.758 112.672 460.633C112.453 460.503 112.203 460.424 111.922 460.398C111.646 460.372 111.247 460.359 110.727 460.359H109.352V463.328H110.695C111.216 463.328 111.62 463.307 111.906 463.266C112.193 463.219 112.44 463.133 112.648 463.008C112.862 462.872 113.016 462.714 113.109 462.531C113.208 462.344 113.258 462.107 113.258 461.82ZM114.773 461.797C114.773 462.219 114.688 462.602 114.516 462.945C114.349 463.289 114.12 463.568 113.828 463.781C113.484 464.042 113.117 464.227 112.727 464.336C112.336 464.445 111.833 464.5 111.219 464.5H107.883V455.773H109.352V459.172H111.258C111.914 459.172 112.422 459.206 112.781 459.273C113.146 459.341 113.508 459.508 113.867 459.773C114.169 459.997 114.396 460.284 114.547 460.633C114.698 460.982 114.773 461.37 114.773 461.797ZM116.234 455.773H117.703V464.5H116.234V455.773ZM134.641 454.242H130.484V464.5H128.938V454.242H124.781V452.867H134.641V454.242ZM142.867 464.5H141.406V463.57C141.276 463.659 141.099 463.784 140.875 463.945C140.656 464.102 140.443 464.227 140.234 464.32C139.99 464.44 139.708 464.539 139.391 464.617C139.073 464.701 138.701 464.742 138.273 464.742C137.487 464.742 136.82 464.482 136.273 463.961C135.727 463.44 135.453 462.776 135.453 461.969C135.453 461.307 135.594 460.773 135.875 460.367C136.161 459.956 136.568 459.633 137.094 459.398C137.625 459.164 138.263 459.005 139.008 458.922C139.753 458.839 140.552 458.776 141.406 458.734V458.508C141.406 458.174 141.346 457.898 141.227 457.68C141.112 457.461 140.945 457.289 140.727 457.164C140.518 457.044 140.268 456.964 139.977 456.922C139.685 456.88 139.38 456.859 139.062 456.859C138.677 456.859 138.247 456.911 137.773 457.016C137.299 457.115 136.81 457.26 136.305 457.453H136.227V455.961C136.513 455.883 136.927 455.797 137.469 455.703C138.01 455.609 138.544 455.562 139.07 455.562C139.685 455.562 140.219 455.615 140.672 455.719C141.13 455.818 141.526 455.99 141.859 456.234C142.188 456.474 142.438 456.784 142.609 457.164C142.781 457.544 142.867 458.016 142.867 458.578V464.5ZM141.406 462.352V459.922C140.958 459.948 140.43 459.987 139.82 460.039C139.216 460.091 138.737 460.167 138.383 460.266C137.961 460.385 137.62 460.573 137.359 460.828C137.099 461.078 136.969 461.424 136.969 461.867C136.969 462.367 137.12 462.745 137.422 463C137.724 463.25 138.185 463.375 138.805 463.375C139.32 463.375 139.792 463.276 140.219 463.078C140.646 462.875 141.042 462.633 141.406 462.352ZM153.375 460.031C153.375 460.74 153.273 461.388 153.07 461.977C152.867 462.56 152.581 463.055 152.211 463.461C151.867 463.846 151.461 464.146 150.992 464.359C150.529 464.568 150.036 464.672 149.516 464.672C149.062 464.672 148.651 464.622 148.281 464.523C147.917 464.424 147.544 464.271 147.164 464.062V467.719H145.695V455.773H147.164V456.688C147.555 456.359 147.992 456.086 148.477 455.867C148.966 455.643 149.487 455.531 150.039 455.531C151.091 455.531 151.909 455.93 152.492 456.727C153.081 457.518 153.375 458.62 153.375 460.031ZM151.859 460.07C151.859 459.018 151.68 458.232 151.32 457.711C150.961 457.19 150.409 456.93 149.664 456.93C149.242 456.93 148.818 457.021 148.391 457.203C147.964 457.385 147.555 457.625 147.164 457.922V462.867C147.581 463.055 147.938 463.182 148.234 463.25C148.536 463.318 148.878 463.352 149.258 463.352C150.076 463.352 150.714 463.076 151.172 462.523C151.63 461.971 151.859 461.154 151.859 460.07ZM162.078 457.062H158.922V464.5H157.453V457.062H154.297V455.773H162.078V457.062ZM171.148 455.773L166.055 467.719H164.484L166.109 464.078L162.633 455.773H164.227L166.906 462.242L169.609 455.773H171.148ZM180.617 455.773L175.523 467.719H173.953L175.578 464.078L172.102 455.773H173.695L176.375 462.242L179.078 455.773H180.617Z" fill="#333333"/>
</g>
<defs>
<filter id="filter0_d_1763_11016" x="0" y="0" width="326" height="540" filterUnits="userSpaceOnUse" color-interpolation-filters="sRGB">
<feFlood flood-opacity="0" result="BackgroundImageFix"/>
<feColorMatrix in="SourceAlpha" type="matrix" values="0 0 0 0 0 0 0 0 0 0 0 0 0 0 0 0 0 0 127 0" result="hardAlpha"/>
<feOffset dx="3" dy="5"/>
<feGaussianBlur stdDeviation="10"/>
<feComposite in2="hardAlpha" operator="out"/>
<feColorMatrix type="matrix" values="0 0 0 0 0.2 0 0 0 0 0.2 0 0 0 0 0.2 0 0 0 0.1 0"/>
<feBlend mode="normal" in2="BackgroundImageFix" result="effect1_dropShadow_1763_11016"/>
<feBlend mode="normal" in="SourceGraphic" in2="effect1_dropShadow_1763_11016" result="shape"/>
</filter>
<filter id="filter1_d_1763_11016" x="22" y="28" width="112" height="112" filterUnits="userSpaceOnUse" color-interpolation-filters="sRGB">
<feFlood flood-opacity="0" result="BackgroundImageFix"/>
<feColorMatrix in="SourceAlpha" type="matrix" values="0 0 0 0 0 0 0 0 0 0 0 0 0 0 0 0 0 0 127 0" result="hardAlpha"/>
<feOffset dx="3" dy="3"/>
<feGaussianBlur stdDeviation="3"/>
<feComposite in2="hardAlpha" operator="out"/>
<feColorMatrix type="matrix" values="0 0 0 0 0.2 0 0 0 0 0.2 0 0 0 0 0.2 0 0 0 0.25 0"/>
<feBlend mode="normal" in2="BackgroundImageFix" result="effect1_dropShadow_1763_11016"/>
<feBlend mode="normal" in="SourceGraphic" in2="effect1_dropShadow_1763_11016" result="shape"/>
</filter>
</defs>
</svg>
