<svg width="383" height="400" viewBox="0 0 383 400" fill="none" xmlns="http://www.w3.org/2000/svg">
<g filter="url(#filter0_d_1763_10010)">
<rect x="17" width="343" height="400" rx="5" fill="white" shape-rendering="crispEdges"/>
<g filter="url(#filter1_d_1763_10010)">
<path d="M70.9158 50.2707C70.3616 50.2707 69.8075 50.0665 69.37 49.629C68.5241 48.7832 68.5241 47.3832 69.37 46.5374L93.2866 22.6207C94.1325 21.7749 95.5325 21.7749 96.3783 22.6207C97.2241 23.4665 97.2241 24.8665 96.3783 25.7124L72.4616 49.629C72.0241 50.0665 71.47 50.2707 70.9158 50.2707Z" fill="#1959AB"/>
<path d="M97.1676 38.0205C95.9718 38.0205 94.9801 37.0288 94.9801 35.833V24.0205H83.1676C81.9718 24.0205 80.9801 23.0288 80.9801 21.833C80.9801 20.6372 81.9718 19.6455 83.1676 19.6455H97.1676C98.3634 19.6455 99.3551 20.6372 99.3551 21.833V35.833C99.3551 37.0288 98.3634 38.0205 97.1676 38.0205Z" fill="#1959AB"/>
<path d="M76.7491 82.3538H59.2491C43.4116 82.3538 36.6449 75.5872 36.6449 59.7497V42.2497C36.6449 26.4122 43.4116 19.6455 59.2491 19.6455H65.0824C66.2782 19.6455 67.2699 20.6372 67.2699 21.833C67.2699 23.0288 66.2782 24.0205 65.0824 24.0205H59.2491C45.8032 24.0205 41.0199 28.8038 41.0199 42.2497V59.7497C41.0199 73.1955 45.8032 77.9788 59.2491 77.9788H76.7491C90.1949 77.9788 94.9782 73.1955 94.9782 59.7497V53.9163C94.9782 52.7205 95.9699 51.7288 97.1657 51.7288C98.3616 51.7288 99.3532 52.7205 99.3532 53.9163V59.7497C99.3532 75.5872 92.5866 82.3538 76.7491 82.3538Z" fill="#1959AB"/>
</g>
<path d="M44.8066 109.139C45.4577 109.77 45.9557 110.535 46.3008 111.434C46.6523 112.332 46.8281 113.361 46.8281 114.52C46.8281 115.763 46.6361 116.883 46.252 117.879C45.8678 118.868 45.3405 119.679 44.6699 120.311C43.9993 120.942 43.1921 121.43 42.248 121.775C41.3105 122.114 40.2624 122.283 39.1035 122.283C38.485 122.283 37.9089 122.241 37.375 122.156C36.8477 122.078 36.3724 121.98 35.9492 121.863C35.5 121.74 35.0931 121.613 34.7285 121.482C34.3639 121.346 34.0872 121.238 33.8984 121.16V117.869H34.2598C34.4551 118.032 34.6927 118.214 34.9727 118.416C35.2526 118.611 35.5586 118.79 35.8906 118.953C36.2878 119.142 36.7109 119.301 37.1602 119.432C37.6094 119.555 38.1432 119.617 38.7617 119.617C39.1979 119.617 39.6634 119.559 40.1582 119.441C40.653 119.318 41.0957 119.113 41.4863 118.826C41.8965 118.533 42.248 118.143 42.541 117.654C42.8405 117.166 43.0293 116.544 43.1074 115.789H36.6328V113.016H43.0195C42.9154 112.43 42.7298 111.938 42.4629 111.541C42.196 111.144 41.877 110.818 41.5059 110.564C41.1348 110.311 40.7279 110.128 40.2852 110.018C39.849 109.9 39.4128 109.842 38.9766 109.842C38.4362 109.842 37.9349 109.907 37.4727 110.037C37.0169 110.161 36.5872 110.32 36.1836 110.516C35.819 110.698 35.4935 110.893 35.207 111.102C34.9271 111.31 34.6927 111.486 34.5039 111.629H34.0938V108.309C34.4518 108.152 34.7871 108.019 35.0996 107.908C35.4121 107.791 35.8158 107.667 36.3105 107.537C36.7077 107.433 37.1764 107.348 37.7168 107.283C38.2572 107.212 38.8105 107.176 39.377 107.176C40.4967 107.176 41.5156 107.342 42.4336 107.674C43.3516 108.006 44.1426 108.494 44.8066 109.139ZM61.1445 122H57.082L54.1426 117.654H53.0195V122H49.5039V111.033H53.0195V115.438C53.6706 115.431 54.1198 115.363 54.3672 115.232C54.6146 115.096 54.901 114.741 55.2266 114.168C55.3242 113.999 55.4414 113.781 55.5781 113.514C55.7148 113.247 55.8223 113.042 55.9004 112.898C56.2585 112.26 56.6751 111.788 57.1504 111.482C57.6322 111.17 58.2995 111.014 59.1523 111.014C59.3997 111.014 59.6602 111.017 59.9336 111.023C60.2135 111.03 60.4023 111.033 60.5 111.033V113.963H59.543C59.1523 113.963 58.8398 114.061 58.6055 114.256C58.3776 114.451 58.179 114.741 58.0098 115.125C57.8665 115.444 57.7363 115.698 57.6191 115.887C57.502 116.069 57.3522 116.225 57.1699 116.355L61.1445 122ZM68.6348 122.293C67.6777 122.293 66.8021 122.179 66.0078 121.951C65.2201 121.723 64.5332 121.372 63.9473 120.896C63.3678 120.421 62.9186 119.822 62.5996 119.1C62.2806 118.377 62.1211 117.531 62.1211 116.561C62.1211 115.538 62.2904 114.656 62.6289 113.914C62.974 113.172 63.4525 112.557 64.0645 112.068C64.6569 111.606 65.3405 111.268 66.1152 111.053C66.89 110.838 67.694 110.73 68.5273 110.73C69.276 110.73 69.9661 110.812 70.5977 110.975C71.2292 111.137 71.8184 111.349 72.3652 111.609V114.607H71.8672C71.7305 114.49 71.5645 114.354 71.3691 114.197C71.1803 114.041 70.946 113.888 70.666 113.738C70.3991 113.595 70.1061 113.478 69.7871 113.387C69.4681 113.289 69.097 113.24 68.6738 113.24C67.7363 113.24 67.0137 113.54 66.5059 114.139C66.0046 114.731 65.7539 115.538 65.7539 116.561C65.7539 117.615 66.0111 118.416 66.5254 118.963C67.0462 119.51 67.7819 119.783 68.7324 119.783C69.1751 119.783 69.5723 119.734 69.9238 119.637C70.2819 119.533 70.5781 119.412 70.8125 119.275C71.0339 119.145 71.2292 119.008 71.3984 118.865C71.5677 118.722 71.724 118.582 71.8672 118.445H72.3652V121.443C71.8118 121.704 71.2324 121.909 70.627 122.059C70.028 122.215 69.3639 122.293 68.6348 122.293ZM85.9688 122H82.4531V113.416H78.4102V122H74.8945V111.033H85.9688V122ZM100.5 116.521C100.5 118.325 99.9727 119.747 98.918 120.789C97.8698 121.824 96.3952 122.342 94.4941 122.342C92.5931 122.342 91.1152 121.824 90.0605 120.789C89.0124 119.747 88.4883 118.325 88.4883 116.521C88.4883 114.705 89.0156 113.279 90.0703 112.244C91.1315 111.209 92.6061 110.691 94.4941 110.691C96.4082 110.691 97.8861 111.212 98.9277 112.254C99.9759 113.296 100.5 114.718 100.5 116.521ZM96.1738 119.188C96.4017 118.908 96.571 118.572 96.6816 118.182C96.7988 117.785 96.8574 117.238 96.8574 116.541C96.8574 115.896 96.7988 115.356 96.6816 114.92C96.5645 114.484 96.4017 114.135 96.1934 113.875C95.985 113.608 95.7344 113.419 95.4414 113.309C95.1484 113.198 94.8327 113.143 94.4941 113.143C94.1556 113.143 93.8529 113.188 93.5859 113.279C93.3255 113.37 93.0749 113.553 92.834 113.826C92.6191 114.08 92.4466 114.428 92.3164 114.871C92.1927 115.314 92.1309 115.87 92.1309 116.541C92.1309 117.14 92.1862 117.661 92.2969 118.104C92.4076 118.54 92.5703 118.891 92.7852 119.158C92.9935 119.412 93.2409 119.598 93.5273 119.715C93.8203 119.832 94.1523 119.891 94.5234 119.891C94.8424 119.891 95.1452 119.839 95.4316 119.734C95.7246 119.624 95.972 119.441 96.1738 119.188ZM114.465 116.365C114.465 117.27 114.325 118.094 114.045 118.836C113.771 119.578 113.41 120.19 112.961 120.672C112.492 121.18 111.962 121.564 111.369 121.824C110.777 122.085 110.142 122.215 109.465 122.215C108.84 122.215 108.309 122.146 107.873 122.01C107.437 121.88 106.991 121.694 106.535 121.453V126.023H103.02V111.033H106.535V112.176C107.076 111.746 107.626 111.398 108.186 111.131C108.752 110.864 109.403 110.73 110.139 110.73C111.506 110.73 112.567 111.232 113.322 112.234C114.084 113.237 114.465 114.614 114.465 116.365ZM110.842 116.434C110.842 115.366 110.66 114.591 110.295 114.109C109.93 113.628 109.354 113.387 108.566 113.387C108.234 113.387 107.893 113.439 107.541 113.543C107.189 113.641 106.854 113.784 106.535 113.973V119.49C106.77 119.581 107.02 119.64 107.287 119.666C107.554 119.692 107.818 119.705 108.078 119.705C109.009 119.705 109.702 119.435 110.158 118.895C110.614 118.348 110.842 117.527 110.842 116.434ZM125.949 113.416H122.453V122H118.938V113.416H115.441V111.033H125.949V113.416Z" fill="#333333"/>
<path d="M38 149L45.5 156.5L58 141.5" stroke="#61B857" stroke-width="2" stroke-linecap="round" stroke-linejoin="round"/>
<path d="M80.5498 154.5H78.8135L74.6777 149.858H73.7549V154.5H72.4014V144.321H73.7549V148.888C73.9873 148.883 74.2061 148.86 74.4111 148.819C74.6162 148.778 74.8099 148.701 74.9922 148.587C75.1745 148.482 75.3545 148.334 75.5322 148.143C75.71 147.947 75.8672 147.707 76.0039 147.425C76.0632 147.302 76.1315 147.147 76.209 146.96C76.291 146.773 76.373 146.577 76.4551 146.372C76.7695 145.616 77.1364 145.085 77.5557 144.779C77.9795 144.474 78.6016 144.321 79.4219 144.321H79.9619V145.531H79.3945C79.0801 145.531 78.834 145.561 78.6562 145.62C78.4785 145.675 78.319 145.768 78.1777 145.9C78.0456 146.019 77.9294 146.178 77.8291 146.379C77.7334 146.579 77.6331 146.814 77.5283 147.083C77.2913 147.685 77.0498 148.127 76.8037 148.409C76.5622 148.692 76.2363 148.938 75.8262 149.147L80.5498 154.5ZM88.4795 150.686C88.4795 151.93 88.1605 152.912 87.5225 153.632C86.8844 154.352 86.0299 154.712 84.959 154.712C83.8789 154.712 83.0199 154.352 82.3818 153.632C81.7484 152.912 81.4316 151.93 81.4316 150.686C81.4316 149.441 81.7484 148.459 82.3818 147.739C83.0199 147.015 83.8789 146.652 84.959 146.652C86.0299 146.652 86.8844 147.015 87.5225 147.739C88.1605 148.459 88.4795 149.441 88.4795 150.686ZM87.1533 150.686C87.1533 149.697 86.9596 148.963 86.5723 148.484C86.1849 148.001 85.6471 147.76 84.959 147.76C84.2617 147.76 83.7194 148.001 83.332 148.484C82.9492 148.963 82.7578 149.697 82.7578 150.686C82.7578 151.643 82.9515 152.369 83.3389 152.866C83.7262 153.358 84.2663 153.604 84.959 153.604C85.6426 153.604 86.1781 153.361 86.5654 152.873C86.9574 152.381 87.1533 151.652 87.1533 150.686ZM96.8672 154.5H95.582V151.062H91.7607V154.5H90.4756V146.864H91.7607V149.954H95.582V146.864H96.8672V154.5ZM105.118 154.021C104.594 154.268 104.143 154.436 103.765 154.527C103.391 154.623 103.017 154.671 102.644 154.671C102.088 154.671 101.577 154.591 101.112 154.432C100.647 154.268 100.249 154.021 99.916 153.693C99.5833 153.365 99.3236 152.951 99.1367 152.449C98.9544 151.948 98.8633 151.362 98.8633 150.692C98.8633 149.476 99.2005 148.505 99.875 147.78C100.549 147.051 101.472 146.687 102.644 146.687C103.086 146.687 103.519 146.748 103.942 146.871C104.371 146.994 104.763 147.145 105.118 147.322V148.751H105.043C104.619 148.427 104.2 148.188 103.785 148.033C103.375 147.878 102.976 147.801 102.589 147.801C101.828 147.801 101.238 148.056 100.818 148.566C100.404 149.077 100.196 149.785 100.196 150.692C100.196 151.599 100.404 152.303 100.818 152.805C101.233 153.306 101.823 153.557 102.589 153.557C102.858 153.557 103.124 153.522 103.389 153.454C103.658 153.386 103.901 153.297 104.12 153.188C104.293 153.101 104.471 152.998 104.653 152.88C104.84 152.757 104.97 152.666 105.043 152.606H105.118V154.021ZM113.485 146.864L109.028 157.316H107.654L109.076 154.131L106.034 146.864H107.429L109.773 152.524L112.139 146.864H113.485ZM121.326 154.5H120.041V147.944H117.19C117.177 148.323 117.163 148.687 117.149 149.038C117.136 149.389 117.122 149.706 117.108 149.988C117.076 150.749 117.024 151.358 116.951 151.813C116.878 152.265 116.783 152.641 116.664 152.941C116.555 153.224 116.432 153.454 116.295 153.632C116.163 153.805 116.019 153.962 115.864 154.104C115.709 154.24 115.536 154.343 115.345 154.411C115.158 154.479 114.953 154.514 114.729 154.514C114.652 154.514 114.538 154.511 114.388 154.507C114.242 154.502 114.146 154.5 114.101 154.5V153.379H114.169C114.205 153.379 114.258 153.381 114.326 153.386C114.395 153.39 114.451 153.393 114.497 153.393C114.606 153.393 114.718 153.377 114.832 153.345C114.951 153.313 115.051 153.254 115.133 153.167C115.365 152.939 115.552 152.554 115.693 152.012C115.835 151.469 115.928 150.686 115.974 149.66C115.992 149.286 116.008 148.844 116.021 148.334C116.04 147.819 116.056 147.329 116.069 146.864H121.326V154.5ZM128.634 152.155C128.634 151.923 128.593 151.72 128.511 151.547C128.433 151.369 128.303 151.226 128.121 151.116C127.93 151.002 127.711 150.934 127.465 150.911C127.223 150.888 126.875 150.877 126.419 150.877H125.147V153.475H126.392C126.847 153.475 127.201 153.456 127.451 153.42C127.702 153.379 127.918 153.304 128.101 153.194C128.287 153.076 128.422 152.937 128.504 152.777C128.59 152.613 128.634 152.406 128.634 152.155ZM129.96 152.135C129.96 152.504 129.885 152.839 129.734 153.14C129.589 153.44 129.388 153.684 129.133 153.871C128.832 154.099 128.511 154.261 128.169 154.356C127.827 154.452 127.387 154.5 126.85 154.5H123.862V146.864H125.147V149.838H126.884C127.458 149.838 127.902 149.868 128.217 149.927C128.536 149.986 128.853 150.132 129.167 150.364C129.431 150.56 129.63 150.811 129.762 151.116C129.894 151.422 129.96 151.761 129.96 152.135ZM137.473 147.992H134.711V154.5H133.426V147.992H130.664V146.864H137.473V147.992ZM144.739 154.5H143.461V153.687C143.347 153.764 143.192 153.873 142.996 154.015C142.805 154.151 142.618 154.261 142.436 154.343C142.221 154.448 141.975 154.534 141.697 154.603C141.419 154.675 141.093 154.712 140.72 154.712C140.032 154.712 139.448 154.484 138.97 154.028C138.491 153.573 138.252 152.992 138.252 152.285C138.252 151.706 138.375 151.239 138.621 150.884C138.872 150.524 139.227 150.241 139.688 150.036C140.152 149.831 140.711 149.692 141.362 149.619C142.014 149.546 142.714 149.492 143.461 149.455V149.257C143.461 148.965 143.409 148.724 143.304 148.532C143.203 148.341 143.058 148.19 142.866 148.081C142.684 147.976 142.465 147.906 142.21 147.869C141.955 147.833 141.688 147.814 141.41 147.814C141.073 147.814 140.697 147.86 140.282 147.951C139.868 148.038 139.439 148.165 138.997 148.334H138.929V147.028C139.179 146.96 139.542 146.885 140.016 146.803C140.49 146.721 140.957 146.68 141.417 146.68C141.955 146.68 142.422 146.725 142.818 146.816C143.219 146.903 143.566 147.053 143.857 147.268C144.145 147.477 144.363 147.748 144.514 148.081C144.664 148.414 144.739 148.826 144.739 149.318V154.5ZM143.461 152.62V150.494C143.069 150.517 142.606 150.551 142.073 150.597C141.545 150.642 141.125 150.708 140.815 150.795C140.446 150.9 140.148 151.064 139.92 151.287C139.692 151.506 139.578 151.809 139.578 152.196C139.578 152.634 139.71 152.964 139.975 153.188C140.239 153.406 140.642 153.516 141.185 153.516C141.636 153.516 142.048 153.429 142.422 153.256C142.796 153.078 143.142 152.866 143.461 152.62ZM153.271 154.5H147.214V146.864H148.499V153.393H152.259V146.864H153.544V153.393H154.467V156.332H153.271V154.5ZM162.67 154.5H161.398V148.765L157.399 154.5H156.237V146.864H157.509V152.518L161.467 146.864H162.67V154.5ZM171.639 154.5H170.367V148.765L166.368 154.5H165.206V146.864H166.478V152.518L170.436 146.864H171.639V154.5ZM185.488 154.5H184.203V147.972H180.382V154.5H179.097V146.864H185.488V154.5ZM194.532 150.686C194.532 151.93 194.213 152.912 193.575 153.632C192.937 154.352 192.083 154.712 191.012 154.712C189.932 154.712 189.073 154.352 188.435 153.632C187.801 152.912 187.484 151.93 187.484 150.686C187.484 149.441 187.801 148.459 188.435 147.739C189.073 147.015 189.932 146.652 191.012 146.652C192.083 146.652 192.937 147.015 193.575 147.739C194.213 148.459 194.532 149.441 194.532 150.686ZM193.206 150.686C193.206 149.697 193.012 148.963 192.625 148.484C192.238 148.001 191.7 147.76 191.012 147.76C190.314 147.76 189.772 148.001 189.385 148.484C189.002 148.963 188.811 149.697 188.811 150.686C188.811 151.643 189.004 152.369 189.392 152.866C189.779 153.358 190.319 153.604 191.012 153.604C191.695 153.604 192.231 153.361 192.618 152.873C193.01 152.381 193.206 151.652 193.206 150.686ZM207.849 145.449C208.286 145.887 208.623 146.429 208.86 147.076C209.097 147.723 209.216 148.489 209.216 149.373C209.216 150.157 209.095 150.879 208.854 151.54C208.617 152.196 208.272 152.759 207.821 153.229C207.356 153.712 206.812 154.076 206.188 154.322C205.568 154.564 204.886 154.685 204.144 154.685C203.501 154.685 202.89 154.623 202.312 154.5C201.733 154.377 201.245 154.231 200.849 154.062V152.565H200.958C201.327 152.862 201.792 153.099 202.353 153.276C202.918 153.45 203.521 153.536 204.164 153.536C204.725 153.536 205.237 153.438 205.702 153.242C206.167 153.042 206.554 152.771 206.864 152.429C207.192 152.064 207.438 151.654 207.603 151.198C207.771 150.738 207.855 150.216 207.855 149.633H202.298V148.45H207.787C207.723 147.908 207.587 147.438 207.377 147.042C207.167 146.641 206.901 146.311 206.577 146.051C206.254 145.791 205.887 145.6 205.477 145.477C205.066 145.349 204.629 145.285 204.164 145.285C203.54 145.285 202.954 145.374 202.407 145.552C201.86 145.725 201.389 145.964 200.992 146.27H200.876V144.766C201.3 144.588 201.801 144.44 202.38 144.321C202.959 144.198 203.551 144.137 204.157 144.137C204.941 144.137 205.641 144.246 206.256 144.465C206.876 144.684 207.407 145.012 207.849 145.449ZM218.157 154.5H216.476L213.304 151H212.606V154.5H211.321V146.864H212.606V150.159C213.03 150.159 213.372 150.084 213.632 149.934C213.892 149.779 214.113 149.533 214.295 149.195C214.359 149.072 214.42 148.942 214.479 148.806C214.543 148.664 214.605 148.53 214.664 148.402C214.901 147.887 215.197 147.502 215.553 147.247C215.908 146.992 216.419 146.864 217.084 146.864H217.672V147.972H217.104C216.744 147.972 216.462 148.049 216.257 148.204C216.056 148.354 215.874 148.621 215.71 149.004C215.528 149.432 215.334 149.754 215.129 149.968C214.928 150.177 214.714 150.337 214.486 150.446L218.157 154.5ZM225.267 154.021C224.743 154.268 224.291 154.436 223.913 154.527C223.539 154.623 223.166 154.671 222.792 154.671C222.236 154.671 221.726 154.591 221.261 154.432C220.796 154.268 220.397 154.021 220.064 153.693C219.732 153.365 219.472 152.951 219.285 152.449C219.103 151.948 219.012 151.362 219.012 150.692C219.012 149.476 219.349 148.505 220.023 147.78C220.698 147.051 221.621 146.687 222.792 146.687C223.234 146.687 223.667 146.748 224.091 146.871C224.519 146.994 224.911 147.145 225.267 147.322V148.751H225.191C224.768 148.427 224.348 148.188 223.934 148.033C223.523 147.878 223.125 147.801 222.737 147.801C221.976 147.801 221.386 148.056 220.967 148.566C220.552 149.077 220.345 149.785 220.345 150.692C220.345 151.599 220.552 152.303 220.967 152.805C221.382 153.306 221.972 153.557 222.737 153.557C223.006 153.557 223.273 153.522 223.537 153.454C223.806 153.386 224.05 153.297 224.269 153.188C224.442 153.101 224.619 152.998 224.802 152.88C224.989 152.757 225.118 152.666 225.191 152.606H225.267V154.021ZM233.422 154.5H232.137V147.972H228.315V154.5H227.03V146.864H233.422V154.5ZM242.466 150.686C242.466 151.93 242.147 152.912 241.509 153.632C240.871 154.352 240.016 154.712 238.945 154.712C237.865 154.712 237.006 154.352 236.368 153.632C235.735 152.912 235.418 151.93 235.418 150.686C235.418 149.441 235.735 148.459 236.368 147.739C237.006 147.015 237.865 146.652 238.945 146.652C240.016 146.652 240.871 147.015 241.509 147.739C242.147 148.459 242.466 149.441 242.466 150.686ZM241.14 150.686C241.14 149.697 240.946 148.963 240.559 148.484C240.171 148.001 239.633 147.76 238.945 147.76C238.248 147.76 237.706 148.001 237.318 148.484C236.936 148.963 236.744 149.697 236.744 150.686C236.744 151.643 236.938 152.369 237.325 152.866C237.713 153.358 238.253 153.604 238.945 153.604C239.629 153.604 240.164 153.361 240.552 152.873C240.944 152.381 241.14 151.652 241.14 150.686ZM251.182 150.59C251.182 151.21 251.093 151.777 250.915 152.292C250.737 152.802 250.487 153.235 250.163 153.591C249.862 153.928 249.507 154.19 249.097 154.377C248.691 154.559 248.26 154.65 247.805 154.65C247.408 154.65 247.048 154.607 246.725 154.521C246.406 154.434 246.08 154.299 245.747 154.117V157.316H244.462V146.864H245.747V147.664C246.089 147.377 246.472 147.138 246.896 146.946C247.324 146.75 247.78 146.652 248.263 146.652C249.183 146.652 249.899 147.001 250.409 147.698C250.924 148.391 251.182 149.355 251.182 150.59ZM249.855 150.624C249.855 149.703 249.698 149.015 249.384 148.56C249.069 148.104 248.586 147.876 247.935 147.876C247.565 147.876 247.194 147.956 246.82 148.115C246.447 148.275 246.089 148.484 245.747 148.744V153.071C246.112 153.235 246.424 153.347 246.684 153.406C246.948 153.465 247.246 153.495 247.579 153.495C248.295 153.495 248.853 153.254 249.254 152.771C249.655 152.287 249.855 151.572 249.855 150.624ZM258.797 147.992H256.035V154.5H254.75V147.992H251.988V146.864H258.797V147.992ZM266.733 146.864L262.276 157.316H260.902L262.324 154.131L259.282 146.864H260.677L263.021 152.524L265.387 146.864H266.733Z" fill="#333333"/>
<path d="M38 187L45.5 194.5L58 179.5" stroke="#61B857" stroke-width="2" stroke-linecap="round" stroke-linejoin="round"/>
<path d="M80.1533 192.5H78.7998V183.524H73.7207V192.5H72.3672V182.321H80.1533V192.5ZM89.2998 188.686C89.2998 189.93 88.9808 190.912 88.3428 191.632C87.7048 192.352 86.8503 192.712 85.7793 192.712C84.6992 192.712 83.8402 192.352 83.2021 191.632C82.5687 190.912 82.252 189.93 82.252 188.686C82.252 187.441 82.5687 186.459 83.2021 185.739C83.8402 185.015 84.6992 184.652 85.7793 184.652C86.8503 184.652 87.7048 185.015 88.3428 185.739C88.9808 186.459 89.2998 187.441 89.2998 188.686ZM87.9736 188.686C87.9736 187.697 87.7799 186.963 87.3926 186.484C87.0052 186.001 86.4674 185.76 85.7793 185.76C85.082 185.76 84.5397 186.001 84.1523 186.484C83.7695 186.963 83.5781 187.697 83.5781 188.686C83.5781 189.643 83.7718 190.369 84.1592 190.866C84.5465 191.358 85.0866 191.604 85.7793 191.604C86.4629 191.604 86.9984 191.361 87.3857 190.873C87.7777 190.381 87.9736 189.652 87.9736 188.686ZM98.2275 194.332H97.0312V192.479H91.2891V194.332H90.0928V191.406H90.9199C91.4531 190.527 91.8496 189.513 92.1094 188.364C92.3737 187.211 92.5059 186.045 92.5059 184.864H97.3047V191.406H98.2275V194.332ZM96.0195 191.406V185.944H93.7158C93.6566 187.088 93.4811 188.132 93.1895 189.075C92.8978 190.019 92.5628 190.796 92.1846 191.406H96.0195ZM105.269 185.992H101.29V192.5H100.005V184.864H105.269V185.992ZM113.116 188.686C113.116 189.93 112.797 190.912 112.159 191.632C111.521 192.352 110.667 192.712 109.596 192.712C108.516 192.712 107.657 192.352 107.019 191.632C106.385 190.912 106.068 189.93 106.068 188.686C106.068 187.441 106.385 186.459 107.019 185.739C107.657 185.015 108.516 184.652 109.596 184.652C110.667 184.652 111.521 185.015 112.159 185.739C112.797 186.459 113.116 187.441 113.116 188.686ZM111.79 188.686C111.79 187.697 111.596 186.963 111.209 186.484C110.822 186.001 110.284 185.76 109.596 185.76C108.898 185.76 108.356 186.001 107.969 186.484C107.586 186.963 107.395 187.697 107.395 188.686C107.395 189.643 107.588 190.369 107.976 190.866C108.363 191.358 108.903 191.604 109.596 191.604C110.279 191.604 110.815 191.361 111.202 190.873C111.594 190.381 111.79 189.652 111.79 188.686ZM120.725 185.992H117.963V192.5H116.678V185.992H113.916V184.864H120.725V185.992ZM128.565 188.686C128.565 189.93 128.246 190.912 127.608 191.632C126.97 192.352 126.116 192.712 125.045 192.712C123.965 192.712 123.106 192.352 122.468 191.632C121.834 190.912 121.518 189.93 121.518 188.686C121.518 187.441 121.834 186.459 122.468 185.739C123.106 185.015 123.965 184.652 125.045 184.652C126.116 184.652 126.97 185.015 127.608 185.739C128.246 186.459 128.565 187.441 128.565 188.686ZM127.239 188.686C127.239 187.697 127.046 186.963 126.658 186.484C126.271 186.001 125.733 185.76 125.045 185.76C124.348 185.76 123.805 186.001 123.418 186.484C123.035 186.963 122.844 187.697 122.844 188.686C122.844 189.643 123.037 190.369 123.425 190.866C123.812 191.358 124.352 191.604 125.045 191.604C125.729 191.604 126.264 191.361 126.651 190.873C127.043 190.381 127.239 189.652 127.239 188.686ZM136.864 190.189C136.864 190.559 136.789 190.887 136.639 191.174C136.493 191.461 136.29 191.7 136.03 191.892C135.739 192.106 135.42 192.261 135.073 192.356C134.731 192.452 134.28 192.5 133.72 192.5H130.562V184.864H133.515C134.084 184.864 134.513 184.885 134.8 184.926C135.091 184.962 135.365 185.047 135.62 185.179C135.907 185.329 136.117 185.525 136.249 185.767C136.386 186.008 136.454 186.293 136.454 186.621C136.454 186.999 136.347 187.327 136.133 187.605C135.919 187.883 135.643 188.1 135.306 188.255V188.323C135.757 188.433 136.128 188.645 136.42 188.959C136.716 189.269 136.864 189.679 136.864 190.189ZM135.135 186.819C135.135 186.655 135.098 186.507 135.025 186.375C134.957 186.243 134.85 186.14 134.704 186.067C134.513 185.972 134.296 185.919 134.055 185.91C133.818 185.896 133.524 185.89 133.173 185.89H131.833V187.981H133.439C133.777 187.981 134.025 187.97 134.185 187.947C134.349 187.92 134.513 187.856 134.677 187.756C134.85 187.646 134.968 187.519 135.032 187.373C135.101 187.223 135.135 187.038 135.135 186.819ZM135.538 190.196C135.538 189.946 135.497 189.743 135.415 189.588C135.333 189.428 135.153 189.283 134.875 189.15C134.702 189.068 134.515 189.021 134.314 189.007C134.114 188.989 133.836 188.979 133.48 188.979H131.833V191.475H133.05C133.56 191.475 133.952 191.459 134.226 191.427C134.504 191.39 134.743 191.315 134.943 191.201C135.144 191.087 135.292 190.948 135.388 190.784C135.488 190.62 135.538 190.424 135.538 190.196ZM145.778 192.5H144.097L140.925 189H140.228V192.5H138.942V184.864H140.228V188.159C140.651 188.159 140.993 188.084 141.253 187.934C141.513 187.779 141.734 187.533 141.916 187.195C141.98 187.072 142.041 186.942 142.101 186.806C142.164 186.664 142.226 186.53 142.285 186.402C142.522 185.887 142.818 185.502 143.174 185.247C143.529 184.992 144.04 184.864 144.705 184.864H145.293V185.972H144.726C144.366 185.972 144.083 186.049 143.878 186.204C143.677 186.354 143.495 186.621 143.331 187.004C143.149 187.432 142.955 187.754 142.75 187.968C142.549 188.177 142.335 188.337 142.107 188.446L145.778 192.5ZM153.106 192.5H151.828V191.687C151.714 191.764 151.559 191.873 151.363 192.015C151.172 192.151 150.985 192.261 150.803 192.343C150.589 192.448 150.342 192.534 150.064 192.603C149.786 192.675 149.461 192.712 149.087 192.712C148.399 192.712 147.815 192.484 147.337 192.028C146.858 191.573 146.619 190.992 146.619 190.285C146.619 189.706 146.742 189.239 146.988 188.884C147.239 188.524 147.594 188.241 148.055 188.036C148.52 187.831 149.078 187.692 149.729 187.619C150.381 187.546 151.081 187.492 151.828 187.455V187.257C151.828 186.965 151.776 186.724 151.671 186.532C151.571 186.341 151.425 186.19 151.233 186.081C151.051 185.976 150.832 185.906 150.577 185.869C150.322 185.833 150.055 185.814 149.777 185.814C149.44 185.814 149.064 185.86 148.649 185.951C148.235 186.038 147.806 186.165 147.364 186.334H147.296V185.028C147.547 184.96 147.909 184.885 148.383 184.803C148.857 184.721 149.324 184.68 149.784 184.68C150.322 184.68 150.789 184.725 151.186 184.816C151.587 184.903 151.933 185.053 152.225 185.268C152.512 185.477 152.73 185.748 152.881 186.081C153.031 186.414 153.106 186.826 153.106 187.318V192.5ZM151.828 190.62V188.494C151.436 188.517 150.974 188.551 150.44 188.597C149.912 188.642 149.493 188.708 149.183 188.795C148.813 188.9 148.515 189.064 148.287 189.287C148.059 189.506 147.945 189.809 147.945 190.196C147.945 190.634 148.077 190.964 148.342 191.188C148.606 191.406 149.009 191.516 149.552 191.516C150.003 191.516 150.415 191.429 150.789 191.256C151.163 191.078 151.509 190.866 151.828 190.62ZM167.394 192.5H165.712L162.54 189H161.843V192.5H160.558V184.864H161.843V188.159C162.267 188.159 162.608 188.084 162.868 187.934C163.128 187.779 163.349 187.533 163.531 187.195C163.595 187.072 163.657 186.942 163.716 186.806C163.78 186.664 163.841 186.53 163.9 186.402C164.137 185.887 164.434 185.502 164.789 185.247C165.145 184.992 165.655 184.864 166.32 184.864H166.908V185.972H166.341C165.981 185.972 165.698 186.049 165.493 186.204C165.293 186.354 165.11 186.621 164.946 187.004C164.764 187.432 164.57 187.754 164.365 187.968C164.165 188.177 163.951 188.337 163.723 188.446L167.394 192.5ZM180.108 183.449C180.546 183.887 180.883 184.429 181.12 185.076C181.357 185.723 181.476 186.489 181.476 187.373C181.476 188.157 181.355 188.879 181.113 189.54C180.876 190.196 180.532 190.759 180.081 191.229C179.616 191.712 179.072 192.076 178.447 192.322C177.827 192.564 177.146 192.685 176.403 192.685C175.761 192.685 175.15 192.623 174.571 192.5C173.993 192.377 173.505 192.231 173.108 192.062V190.565H173.218C173.587 190.862 174.052 191.099 174.612 191.276C175.177 191.45 175.781 191.536 176.424 191.536C176.984 191.536 177.497 191.438 177.962 191.242C178.427 191.042 178.814 190.771 179.124 190.429C179.452 190.064 179.698 189.654 179.862 189.198C180.031 188.738 180.115 188.216 180.115 187.633H174.558V186.45H180.047C179.983 185.908 179.846 185.438 179.637 185.042C179.427 184.641 179.16 184.311 178.837 184.051C178.513 183.791 178.146 183.6 177.736 183.477C177.326 183.349 176.889 183.285 176.424 183.285C175.799 183.285 175.214 183.374 174.667 183.552C174.12 183.725 173.648 183.964 173.252 184.27H173.136V182.766C173.56 182.588 174.061 182.44 174.64 182.321C175.218 182.198 175.811 182.137 176.417 182.137C177.201 182.137 177.9 182.246 178.516 182.465C179.135 182.684 179.666 183.012 180.108 183.449ZM190.417 192.5H188.735L185.563 189H184.866V192.5H183.581V184.864H184.866V188.159C185.29 188.159 185.632 188.084 185.892 187.934C186.151 187.779 186.372 187.533 186.555 187.195C186.618 187.072 186.68 186.942 186.739 186.806C186.803 186.664 186.865 186.53 186.924 186.402C187.161 185.887 187.457 185.502 187.812 185.247C188.168 184.992 188.678 184.864 189.344 184.864H189.932V185.972H189.364C189.004 185.972 188.722 186.049 188.517 186.204C188.316 186.354 188.134 186.621 187.97 187.004C187.787 187.432 187.594 187.754 187.389 187.968C187.188 188.177 186.974 188.337 186.746 188.446L190.417 192.5ZM197.526 192.021C197.002 192.268 196.551 192.436 196.173 192.527C195.799 192.623 195.425 192.671 195.052 192.671C194.496 192.671 193.985 192.591 193.521 192.432C193.056 192.268 192.657 192.021 192.324 191.693C191.992 191.365 191.732 190.951 191.545 190.449C191.363 189.948 191.271 189.362 191.271 188.692C191.271 187.476 191.609 186.505 192.283 185.78C192.958 185.051 193.881 184.687 195.052 184.687C195.494 184.687 195.927 184.748 196.351 184.871C196.779 184.994 197.171 185.145 197.526 185.322V186.751H197.451C197.027 186.427 196.608 186.188 196.193 186.033C195.783 185.878 195.384 185.801 194.997 185.801C194.236 185.801 193.646 186.056 193.227 186.566C192.812 187.077 192.604 187.785 192.604 188.692C192.604 189.599 192.812 190.303 193.227 190.805C193.641 191.306 194.231 191.557 194.997 191.557C195.266 191.557 195.533 191.522 195.797 191.454C196.066 191.386 196.31 191.297 196.528 191.188C196.701 191.101 196.879 190.998 197.062 190.88C197.248 190.757 197.378 190.666 197.451 190.606H197.526V192.021ZM205.682 192.5H204.396V185.972H200.575V192.5H199.29V184.864H205.682V192.5ZM214.726 188.686C214.726 189.93 214.407 190.912 213.769 191.632C213.131 192.352 212.276 192.712 211.205 192.712C210.125 192.712 209.266 192.352 208.628 191.632C207.994 190.912 207.678 189.93 207.678 188.686C207.678 187.441 207.994 186.459 208.628 185.739C209.266 185.015 210.125 184.652 211.205 184.652C212.276 184.652 213.131 185.015 213.769 185.739C214.407 186.459 214.726 187.441 214.726 188.686ZM213.399 188.686C213.399 187.697 213.206 186.963 212.818 186.484C212.431 186.001 211.893 185.76 211.205 185.76C210.508 185.76 209.965 186.001 209.578 186.484C209.195 186.963 209.004 187.697 209.004 188.686C209.004 189.643 209.198 190.369 209.585 190.866C209.972 191.358 210.512 191.604 211.205 191.604C211.889 191.604 212.424 191.361 212.812 190.873C213.203 190.381 213.399 189.652 213.399 188.686ZM223.441 188.59C223.441 189.21 223.353 189.777 223.175 190.292C222.997 190.802 222.746 191.235 222.423 191.591C222.122 191.928 221.767 192.19 221.356 192.377C220.951 192.559 220.52 192.65 220.064 192.65C219.668 192.65 219.308 192.607 218.984 192.521C218.665 192.434 218.34 192.299 218.007 192.117V195.316H216.722V184.864H218.007V185.664C218.349 185.377 218.731 185.138 219.155 184.946C219.584 184.75 220.039 184.652 220.522 184.652C221.443 184.652 222.159 185.001 222.669 185.698C223.184 186.391 223.441 187.355 223.441 188.59ZM222.115 188.624C222.115 187.703 221.958 187.015 221.644 186.56C221.329 186.104 220.846 185.876 220.194 185.876C219.825 185.876 219.454 185.956 219.08 186.115C218.706 186.275 218.349 186.484 218.007 186.744V191.071C218.371 191.235 218.684 191.347 218.943 191.406C219.208 191.465 219.506 191.495 219.839 191.495C220.554 191.495 221.113 191.254 221.514 190.771C221.915 190.287 222.115 189.572 222.115 188.624ZM231.057 185.992H228.295V192.5H227.01V185.992H224.248V184.864H231.057V185.992ZM238.993 184.864L234.536 195.316H233.162L234.584 192.131L231.542 184.864H232.937L235.281 190.524L237.646 184.864H238.993Z" fill="#333333"/>
<path d="M38 225L45.5 232.5L58 217.5" stroke="#61B857" stroke-width="2" stroke-linecap="round" stroke-linejoin="round"/>
<path d="M80.2285 229.762C79.9779 229.871 79.75 229.974 79.5449 230.069C79.3444 230.165 79.0801 230.265 78.752 230.37C78.474 230.457 78.1709 230.53 77.8428 230.589C77.5192 230.653 77.1615 230.685 76.7695 230.685C76.0312 230.685 75.359 230.582 74.7529 230.377C74.1514 230.167 73.6273 229.841 73.1807 229.399C72.7432 228.966 72.4014 228.417 72.1553 227.752C71.9092 227.082 71.7861 226.305 71.7861 225.421C71.7861 224.582 71.9046 223.833 72.1416 223.172C72.3786 222.511 72.7204 221.953 73.167 221.497C73.5999 221.055 74.1217 220.718 74.7324 220.485C75.3477 220.253 76.029 220.137 76.7764 220.137C77.3232 220.137 77.8678 220.203 78.4102 220.335C78.957 220.467 79.5632 220.7 80.2285 221.032V222.639H80.126C79.5654 222.169 79.0094 221.827 78.458 221.613C77.9066 221.399 77.3164 221.292 76.6875 221.292C76.1725 221.292 75.7077 221.376 75.293 221.545C74.8828 221.709 74.516 221.966 74.1924 222.317C73.8779 222.659 73.6318 223.092 73.4541 223.616C73.2809 224.136 73.1943 224.737 73.1943 225.421C73.1943 226.136 73.29 226.752 73.4814 227.267C73.6774 227.782 73.9281 228.201 74.2334 228.524C74.5524 228.862 74.9238 229.112 75.3477 229.276C75.776 229.436 76.2272 229.516 76.7012 229.516C77.3529 229.516 77.9635 229.404 78.5332 229.181C79.1029 228.957 79.6361 228.622 80.1328 228.176H80.2285V229.762ZM88.4316 226.815H82.8057C82.8057 227.285 82.8763 227.695 83.0176 228.046C83.1589 228.392 83.3525 228.677 83.5986 228.9C83.8356 229.119 84.1159 229.283 84.4395 229.393C84.7676 229.502 85.1276 229.557 85.5195 229.557C86.0391 229.557 86.5609 229.454 87.085 229.249C87.6136 229.039 87.9896 228.834 88.2129 228.634H88.2812V230.035C87.8483 230.217 87.4062 230.37 86.9551 230.493C86.5039 230.616 86.0299 230.678 85.5332 230.678C84.2663 230.678 83.2773 230.336 82.5664 229.652C81.8555 228.964 81.5 227.989 81.5 226.727C81.5 225.478 81.8395 224.487 82.5186 223.753C83.2021 223.019 84.0999 222.652 85.2119 222.652C86.2419 222.652 87.0348 222.953 87.5908 223.555C88.1514 224.156 88.4316 225.011 88.4316 226.118V226.815ZM87.1807 225.831C87.1761 225.157 87.0052 224.635 86.668 224.266C86.3353 223.896 85.8271 223.712 85.1436 223.712C84.4554 223.712 83.9062 223.915 83.4961 224.32C83.0905 224.726 82.8604 225.229 82.8057 225.831H87.1807ZM97.0996 226.59C97.0996 227.21 97.0107 227.777 96.833 228.292C96.6553 228.802 96.4046 229.235 96.0811 229.591C95.7803 229.928 95.4248 230.19 95.0146 230.377C94.609 230.559 94.1784 230.65 93.7227 230.65C93.3262 230.65 92.9661 230.607 92.6426 230.521C92.3236 230.434 91.9977 230.299 91.665 230.117V233.316H90.3799V222.864H91.665V223.664C92.0068 223.377 92.3896 223.138 92.8135 222.946C93.2419 222.75 93.6976 222.652 94.1807 222.652C95.1012 222.652 95.8167 223.001 96.3271 223.698C96.8421 224.391 97.0996 225.355 97.0996 226.59ZM95.7734 226.624C95.7734 225.703 95.6162 225.015 95.3018 224.56C94.9873 224.104 94.5042 223.876 93.8525 223.876C93.4834 223.876 93.112 223.956 92.7383 224.115C92.3646 224.275 92.0068 224.484 91.665 224.744V229.071C92.0296 229.235 92.3418 229.347 92.6016 229.406C92.8659 229.465 93.1644 229.495 93.4971 229.495C94.2126 229.495 94.7708 229.254 95.1719 228.771C95.5729 228.287 95.7734 227.572 95.7734 226.624ZM104.715 223.992H101.953V230.5H100.668V223.992H97.9062V222.864H104.715V223.992ZM112.48 230.5H111.209V224.765L107.21 230.5H106.048V222.864H107.319V228.518L111.277 222.864H112.48V230.5ZM124.765 226.48C124.765 227.16 124.678 227.761 124.505 228.285C124.332 228.805 124.102 229.233 123.814 229.57C123.532 229.908 123.206 230.165 122.837 230.343C122.468 230.521 122.08 230.609 121.675 230.609C121.369 230.609 121.103 230.557 120.875 230.452C120.652 230.347 120.451 230.252 120.273 230.165V233.316H119.002V230.165C118.724 230.302 118.494 230.411 118.312 230.493C118.134 230.571 117.854 230.609 117.471 230.609C116.591 230.609 115.878 230.265 115.331 229.577C114.784 228.889 114.511 227.932 114.511 226.706C114.511 226.063 114.6 225.492 114.777 224.99C114.955 224.484 115.188 224.061 115.475 223.719C115.753 223.386 116.078 223.133 116.452 222.96C116.83 222.782 117.206 222.693 117.58 222.693C117.854 222.693 118.102 222.737 118.325 222.823C118.553 222.905 118.779 223.015 119.002 223.151V219.863H120.273V223.151C120.483 223.028 120.729 222.921 121.012 222.83C121.294 222.739 121.579 222.693 121.866 222.693C122.769 222.693 123.477 223.035 123.992 223.719C124.507 224.398 124.765 225.318 124.765 226.48ZM123.445 226.624C123.445 225.754 123.29 225.065 122.98 224.56C122.671 224.054 122.206 223.801 121.586 223.801C121.335 223.801 121.126 223.821 120.957 223.862C120.788 223.903 120.561 223.981 120.273 224.095V229.188C120.488 229.288 120.665 229.368 120.807 229.427C120.952 229.481 121.158 229.509 121.422 229.509C122.064 229.509 122.561 229.263 122.912 228.771C123.268 228.274 123.445 227.558 123.445 226.624ZM119.002 229.188V224.095C118.824 224.013 118.644 223.944 118.462 223.89C118.28 223.83 118.077 223.801 117.854 223.801C117.238 223.801 116.746 224.035 116.377 224.505C116.012 224.974 115.83 225.688 115.83 226.645C115.83 227.533 115.992 228.233 116.315 228.743C116.644 229.254 117.115 229.509 117.73 229.509C117.972 229.509 118.195 229.477 118.4 229.413C118.61 229.345 118.811 229.27 119.002 229.188ZM133.221 230.5H131.949V224.765L127.95 230.5H126.788V222.864H128.06V228.518L132.018 222.864H133.221V230.5ZM142.647 230.5H140.966L137.794 227H137.097V230.5H135.812V222.864H137.097V226.159C137.521 226.159 137.862 226.084 138.122 225.934C138.382 225.779 138.603 225.533 138.785 225.195C138.849 225.072 138.91 224.942 138.97 224.806C139.034 224.664 139.095 224.53 139.154 224.402C139.391 223.887 139.688 223.502 140.043 223.247C140.398 222.992 140.909 222.864 141.574 222.864H142.162V223.972H141.595C141.235 223.972 140.952 224.049 140.747 224.204C140.547 224.354 140.364 224.621 140.2 225.004C140.018 225.432 139.824 225.754 139.619 225.968C139.419 226.177 139.204 226.337 138.977 226.446L142.647 230.5ZM149.976 230.5H148.697V229.687C148.583 229.764 148.428 229.873 148.232 230.015C148.041 230.151 147.854 230.261 147.672 230.343C147.458 230.448 147.212 230.534 146.934 230.603C146.656 230.675 146.33 230.712 145.956 230.712C145.268 230.712 144.685 230.484 144.206 230.028C143.728 229.573 143.488 228.992 143.488 228.285C143.488 227.706 143.611 227.239 143.857 226.884C144.108 226.524 144.464 226.241 144.924 226.036C145.389 225.831 145.947 225.692 146.599 225.619C147.25 225.546 147.95 225.492 148.697 225.455V225.257C148.697 224.965 148.645 224.724 148.54 224.532C148.44 224.341 148.294 224.19 148.103 224.081C147.92 223.976 147.701 223.906 147.446 223.869C147.191 223.833 146.924 223.814 146.646 223.814C146.309 223.814 145.933 223.86 145.519 223.951C145.104 224.038 144.675 224.165 144.233 224.334H144.165V223.028C144.416 222.96 144.778 222.885 145.252 222.803C145.726 222.721 146.193 222.68 146.653 222.68C147.191 222.68 147.658 222.725 148.055 222.816C148.456 222.903 148.802 223.053 149.094 223.268C149.381 223.477 149.6 223.748 149.75 224.081C149.9 224.414 149.976 224.826 149.976 225.318V230.5ZM148.697 228.62V226.494C148.305 226.517 147.843 226.551 147.31 226.597C146.781 226.642 146.362 226.708 146.052 226.795C145.683 226.9 145.384 227.064 145.156 227.287C144.928 227.506 144.814 227.809 144.814 228.196C144.814 228.634 144.947 228.964 145.211 229.188C145.475 229.406 145.879 229.516 146.421 229.516C146.872 229.516 147.285 229.429 147.658 229.256C148.032 229.078 148.378 228.866 148.697 228.62ZM158.507 230.5H152.45V222.864H153.735V229.393H157.495V222.864H158.78V229.393H159.703V232.332H158.507V230.5ZM167.906 230.5H166.635V224.765L162.636 230.5H161.474V222.864H162.745V228.518L166.703 222.864H167.906V230.5ZM176.308 230.5H175.022V227.472H173.512L171.146 230.5H169.636L172.206 227.349C171.545 227.166 171.062 226.888 170.757 226.515C170.451 226.136 170.299 225.642 170.299 225.031C170.299 224.626 170.39 224.282 170.572 223.999C170.755 223.716 170.985 223.486 171.263 223.309C171.536 223.135 171.851 223.019 172.206 222.96C172.562 222.896 172.949 222.864 173.368 222.864H176.308V230.5ZM175.022 226.46V223.89H173.402C173.051 223.89 172.799 223.901 172.644 223.924C172.489 223.947 172.32 224.008 172.138 224.108C171.96 224.209 171.828 224.345 171.741 224.519C171.659 224.687 171.618 224.872 171.618 225.072C171.618 225.323 171.643 225.526 171.693 225.681C171.748 225.836 171.857 225.981 172.021 226.118C172.19 226.25 172.395 226.341 172.637 226.392C172.878 226.437 173.147 226.46 173.443 226.46H175.022Z" fill="#333333"/>
<path d="M38 263L45.5 270.5L58 255.5" stroke="#61B857" stroke-width="2" stroke-linecap="round" stroke-linejoin="round"/>
<path d="M79.9551 259.49C80.3698 259.946 80.6865 260.504 80.9053 261.165C81.1286 261.826 81.2402 262.576 81.2402 263.414C81.2402 264.253 81.1263 265.005 80.8984 265.67C80.6751 266.331 80.3607 266.882 79.9551 267.324C79.5358 267.785 79.0391 268.131 78.4648 268.363C77.8952 268.596 77.2435 268.712 76.5098 268.712C75.7943 268.712 75.1426 268.593 74.5547 268.356C73.9714 268.119 73.4746 267.775 73.0645 267.324C72.6543 266.873 72.3376 266.319 72.1143 265.663C71.8955 265.007 71.7861 264.257 71.7861 263.414C71.7861 262.585 71.8955 261.842 72.1143 261.186C72.333 260.525 72.652 259.96 73.0713 259.49C73.4723 259.044 73.9691 258.702 74.5615 258.465C75.1585 258.228 75.8079 258.109 76.5098 258.109C77.2389 258.109 77.8929 258.23 78.4717 258.472C79.055 258.709 79.5495 259.048 79.9551 259.49ZM79.832 263.414C79.832 262.092 79.5358 261.074 78.9434 260.358C78.3509 259.638 77.542 259.278 76.5166 259.278C75.4821 259.278 74.6686 259.638 74.0762 260.358C73.4883 261.074 73.1943 262.092 73.1943 263.414C73.1943 264.749 73.4951 265.772 74.0967 266.483C74.6982 267.19 75.5049 267.543 76.5166 267.543C77.5283 267.543 78.3327 267.19 78.9297 266.483C79.5312 265.772 79.832 264.749 79.832 263.414ZM88.8965 261.992H86.1348V268.5H84.8496V261.992H82.0879V260.864H88.8965V261.992ZM97.1611 270.332H95.9648V268.479H90.2227V270.332H89.0264V267.406H89.8535C90.3867 266.527 90.7832 265.513 91.043 264.364C91.3073 263.211 91.4395 262.045 91.4395 260.864H96.2383V267.406H97.1611V270.332ZM94.9531 267.406V261.944H92.6494C92.5902 263.088 92.4147 264.132 92.123 265.075C91.8314 266.019 91.4964 266.796 91.1182 267.406H94.9531ZM105.33 264.815H99.7041C99.7041 265.285 99.7747 265.695 99.916 266.046C100.057 266.392 100.251 266.677 100.497 266.9C100.734 267.119 101.014 267.283 101.338 267.393C101.666 267.502 102.026 267.557 102.418 267.557C102.938 267.557 103.459 267.454 103.983 267.249C104.512 267.039 104.888 266.834 105.111 266.634H105.18V268.035C104.747 268.217 104.305 268.37 103.854 268.493C103.402 268.616 102.928 268.678 102.432 268.678C101.165 268.678 100.176 268.336 99.4648 267.652C98.7539 266.964 98.3984 265.989 98.3984 264.727C98.3984 263.478 98.738 262.487 99.417 261.753C100.101 261.019 100.998 260.652 102.11 260.652C103.14 260.652 103.933 260.953 104.489 261.555C105.05 262.156 105.33 263.011 105.33 264.118V264.815ZM104.079 263.831C104.075 263.157 103.904 262.635 103.566 262.266C103.234 261.896 102.726 261.712 102.042 261.712C101.354 261.712 100.805 261.915 100.395 262.32C99.9889 262.726 99.7588 263.229 99.7041 263.831H104.079ZM113.438 268.5H112.152V261.944H109.302C109.288 262.323 109.274 262.687 109.261 263.038C109.247 263.389 109.233 263.706 109.22 263.988C109.188 264.749 109.135 265.358 109.062 265.813C108.99 266.265 108.894 266.641 108.775 266.941C108.666 267.224 108.543 267.454 108.406 267.632C108.274 267.805 108.131 267.962 107.976 268.104C107.821 268.24 107.647 268.343 107.456 268.411C107.269 268.479 107.064 268.514 106.841 268.514C106.763 268.514 106.649 268.511 106.499 268.507C106.353 268.502 106.257 268.5 106.212 268.5V267.379H106.28C106.317 267.379 106.369 267.381 106.438 267.386C106.506 267.39 106.563 267.393 106.608 267.393C106.718 267.393 106.829 267.377 106.943 267.345C107.062 267.313 107.162 267.254 107.244 267.167C107.477 266.939 107.663 266.554 107.805 266.012C107.946 265.469 108.039 264.686 108.085 263.66C108.103 263.286 108.119 262.844 108.133 262.334C108.151 261.819 108.167 261.329 108.181 260.864H113.438V268.5ZM128.784 268.5H127.431V259.524H122.352V268.5H120.998V258.321H128.784V268.5ZM138.143 264.59C138.143 265.21 138.054 265.777 137.876 266.292C137.698 266.802 137.448 267.235 137.124 267.591C136.823 267.928 136.468 268.19 136.058 268.377C135.652 268.559 135.221 268.65 134.766 268.65C134.369 268.65 134.009 268.607 133.686 268.521C133.367 268.434 133.041 268.299 132.708 268.117V271.316H131.423V260.864H132.708V261.664C133.05 261.377 133.433 261.138 133.856 260.946C134.285 260.75 134.741 260.652 135.224 260.652C136.144 260.652 136.86 261.001 137.37 261.698C137.885 262.391 138.143 263.355 138.143 264.59ZM136.816 264.624C136.816 263.703 136.659 263.015 136.345 262.56C136.03 262.104 135.547 261.876 134.896 261.876C134.526 261.876 134.155 261.956 133.781 262.115C133.408 262.275 133.05 262.484 132.708 262.744V267.071C133.073 267.235 133.385 267.347 133.645 267.406C133.909 267.465 134.207 267.495 134.54 267.495C135.256 267.495 135.814 267.254 136.215 266.771C136.616 266.287 136.816 265.572 136.816 264.624ZM146.653 264.686C146.653 265.93 146.334 266.912 145.696 267.632C145.058 268.352 144.204 268.712 143.133 268.712C142.053 268.712 141.194 268.352 140.556 267.632C139.922 266.912 139.605 265.93 139.605 264.686C139.605 263.441 139.922 262.459 140.556 261.739C141.194 261.015 142.053 260.652 143.133 260.652C144.204 260.652 145.058 261.015 145.696 261.739C146.334 262.459 146.653 263.441 146.653 264.686ZM145.327 264.686C145.327 263.697 145.133 262.963 144.746 262.484C144.359 262.001 143.821 261.76 143.133 261.76C142.436 261.76 141.893 262.001 141.506 262.484C141.123 262.963 140.932 263.697 140.932 264.686C140.932 265.643 141.125 266.369 141.513 266.866C141.9 267.358 142.44 267.604 143.133 267.604C143.816 267.604 144.352 267.361 144.739 266.873C145.131 266.381 145.327 265.652 145.327 264.686ZM155.581 270.332H154.385V268.479H148.643V270.332H147.446V267.406H148.273C148.807 266.527 149.203 265.513 149.463 264.364C149.727 263.211 149.859 262.045 149.859 260.864H154.658V267.406H155.581V270.332ZM153.373 267.406V261.944H151.069C151.01 263.088 150.835 264.132 150.543 265.075C150.251 266.019 149.916 266.796 149.538 267.406H153.373ZM163.292 268.5H162.014V267.687C161.9 267.764 161.745 267.873 161.549 268.015C161.357 268.151 161.171 268.261 160.988 268.343C160.774 268.448 160.528 268.534 160.25 268.603C159.972 268.675 159.646 268.712 159.272 268.712C158.584 268.712 158.001 268.484 157.522 268.028C157.044 267.573 156.805 266.992 156.805 266.285C156.805 265.706 156.928 265.239 157.174 264.884C157.424 264.524 157.78 264.241 158.24 264.036C158.705 263.831 159.263 263.692 159.915 263.619C160.567 263.546 161.266 263.492 162.014 263.455V263.257C162.014 262.965 161.961 262.724 161.856 262.532C161.756 262.341 161.61 262.19 161.419 262.081C161.237 261.976 161.018 261.906 160.763 261.869C160.507 261.833 160.241 261.814 159.963 261.814C159.626 261.814 159.25 261.86 158.835 261.951C158.42 262.038 157.992 262.165 157.55 262.334H157.481V261.028C157.732 260.96 158.094 260.885 158.568 260.803C159.042 260.721 159.509 260.68 159.97 260.68C160.507 260.68 160.975 260.725 161.371 260.816C161.772 260.903 162.118 261.053 162.41 261.268C162.697 261.477 162.916 261.748 163.066 262.081C163.217 262.414 163.292 262.826 163.292 263.318V268.5ZM162.014 266.62V264.494C161.622 264.517 161.159 264.551 160.626 264.597C160.097 264.642 159.678 264.708 159.368 264.795C158.999 264.9 158.701 265.064 158.473 265.287C158.245 265.506 158.131 265.809 158.131 266.196C158.131 266.634 158.263 266.964 158.527 267.188C158.792 267.406 159.195 267.516 159.737 267.516C160.188 267.516 160.601 267.429 160.975 267.256C161.348 267.078 161.695 266.866 162.014 266.62ZM175.344 268.5H173.792L171.345 265.014H170.723V268.5H169.451V265.014H168.897L166.341 268.5H164.857L167.804 264.501C167.58 264.382 167.382 264.214 167.209 263.995C167.04 263.776 166.885 263.446 166.744 263.004C166.621 262.617 166.475 262.348 166.307 262.197C166.138 262.047 165.862 261.972 165.479 261.972H165.117V260.864H165.589C166.154 260.864 166.607 260.978 166.949 261.206C167.291 261.434 167.564 261.833 167.77 262.402C167.811 262.521 167.861 262.658 167.92 262.812C167.984 262.963 168.038 263.09 168.084 263.195C168.234 263.542 168.426 263.788 168.658 263.934C168.895 264.075 169.16 264.155 169.451 264.173V260.864H170.723V264.173C171.014 264.155 171.279 264.073 171.516 263.927C171.757 263.781 171.953 263.537 172.104 263.195C172.154 263.081 172.208 262.949 172.268 262.799C172.331 262.648 172.382 262.516 172.418 262.402C172.618 261.842 172.887 261.445 173.225 261.213C173.562 260.98 174.015 260.864 174.585 260.864H175.057V261.972H174.694C174.307 261.972 174.027 262.051 173.854 262.211C173.685 262.37 173.544 262.635 173.43 263.004C173.302 263.41 173.149 263.726 172.972 263.954C172.799 264.177 172.609 264.346 172.404 264.46L175.344 268.5Z" fill="#333333"/>
<path d="M38 301L45.5 308.5L58 293.5" stroke="#61B857" stroke-width="2" stroke-linecap="round" stroke-linejoin="round"/>
<path d="M83.2842 294.914C83.2842 293.565 82.9902 292.54 82.4023 291.838C81.819 291.132 81.0283 290.778 80.0303 290.778C79.0231 290.778 78.2256 291.129 77.6377 291.831C77.0498 292.533 76.7559 293.561 76.7559 294.914C76.7559 296.249 77.0498 297.272 77.6377 297.983C78.2301 298.69 79.0277 299.043 80.0303 299.043C81.0283 299.043 81.819 298.69 82.4023 297.983C82.9902 297.277 83.2842 296.254 83.2842 294.914ZM75.3613 295.078H73.7207V300H72.3672V289.821H73.7207V293.896H75.4229C75.5869 292.524 76.0814 291.466 76.9062 290.724C77.7311 289.981 78.7702 289.609 80.0234 289.609C81.4772 289.609 82.6188 290.081 83.4482 291.024C84.2777 291.963 84.6924 293.26 84.6924 294.914C84.6924 296.577 84.2731 297.876 83.4346 298.811C82.596 299.745 81.459 300.212 80.0234 300.212C78.6198 300.212 77.4987 299.765 76.6602 298.872C75.8262 297.974 75.3932 296.71 75.3613 295.078ZM93.4629 296.09C93.4629 296.71 93.374 297.277 93.1963 297.792C93.0186 298.302 92.7679 298.735 92.4443 299.091C92.1436 299.428 91.7881 299.69 91.3779 299.877C90.9723 300.059 90.5417 300.15 90.0859 300.15C89.6895 300.15 89.3294 300.107 89.0059 300.021C88.6868 299.934 88.361 299.799 88.0283 299.617V302.816H86.7432V292.364H88.0283V293.164C88.3701 292.877 88.7529 292.638 89.1768 292.446C89.6051 292.25 90.0609 292.152 90.5439 292.152C91.4645 292.152 92.18 292.501 92.6904 293.198C93.2054 293.891 93.4629 294.855 93.4629 296.09ZM92.1367 296.124C92.1367 295.203 91.9795 294.515 91.665 294.06C91.3506 293.604 90.8675 293.376 90.2158 293.376C89.8467 293.376 89.4753 293.456 89.1016 293.615C88.7279 293.775 88.3701 293.984 88.0283 294.244V298.571C88.3929 298.735 88.7051 298.847 88.9648 298.906C89.2292 298.965 89.5277 298.995 89.8604 298.995C90.5758 298.995 91.1341 298.754 91.5352 298.271C91.9362 297.787 92.1367 297.072 92.1367 296.124ZM101.898 300H100.627V294.265L96.6279 300H95.4658V292.364H96.7373V298.018L100.695 292.364H101.898V300ZM111.366 301.832H110.17V299.979H104.428V301.832H103.231V298.906H104.059C104.592 298.027 104.988 297.013 105.248 295.864C105.512 294.711 105.645 293.545 105.645 292.364H110.443V298.906H111.366V301.832ZM109.158 298.906V293.444H106.854C106.795 294.588 106.62 295.632 106.328 296.575C106.036 297.519 105.701 298.296 105.323 298.906H109.158ZM119.576 300H118.305V294.265L114.306 300H113.144V292.364H114.415V298.018L118.373 292.364H119.576V300ZM128.06 300H126.774V297.067C126.36 297.195 125.963 297.298 125.585 297.375C125.207 297.452 124.794 297.491 124.348 297.491C123.527 297.491 122.901 297.291 122.468 296.89C122.035 296.484 121.818 295.901 121.818 295.14V292.364H123.104V294.483C123.104 294.775 123.122 295.037 123.158 295.27C123.195 295.497 123.272 295.696 123.391 295.864C123.509 296.028 123.675 296.154 123.89 296.24C124.104 296.327 124.402 296.37 124.785 296.37C125.1 296.37 125.441 296.34 125.811 296.281C126.18 296.217 126.501 296.145 126.774 296.062V292.364H128.06V300ZM136.98 296.315H131.354C131.354 296.785 131.425 297.195 131.566 297.546C131.708 297.892 131.901 298.177 132.147 298.4C132.384 298.619 132.665 298.783 132.988 298.893C133.316 299.002 133.676 299.057 134.068 299.057C134.588 299.057 135.11 298.954 135.634 298.749C136.162 298.539 136.538 298.334 136.762 298.134H136.83V299.535C136.397 299.717 135.955 299.87 135.504 299.993C135.053 300.116 134.579 300.178 134.082 300.178C132.815 300.178 131.826 299.836 131.115 299.152C130.404 298.464 130.049 297.489 130.049 296.227C130.049 294.978 130.388 293.987 131.067 293.253C131.751 292.519 132.649 292.152 133.761 292.152C134.791 292.152 135.584 292.453 136.14 293.055C136.7 293.656 136.98 294.511 136.98 295.618V296.315ZM135.729 295.331C135.725 294.657 135.554 294.135 135.217 293.766C134.884 293.396 134.376 293.212 133.692 293.212C133.004 293.212 132.455 293.415 132.045 293.82C131.639 294.226 131.409 294.729 131.354 295.331H135.729ZM144.644 299.521C144.119 299.768 143.668 299.936 143.29 300.027C142.916 300.123 142.543 300.171 142.169 300.171C141.613 300.171 141.103 300.091 140.638 299.932C140.173 299.768 139.774 299.521 139.441 299.193C139.109 298.865 138.849 298.451 138.662 297.949C138.48 297.448 138.389 296.862 138.389 296.192C138.389 294.976 138.726 294.005 139.4 293.28C140.075 292.551 140.998 292.187 142.169 292.187C142.611 292.187 143.044 292.248 143.468 292.371C143.896 292.494 144.288 292.645 144.644 292.822V294.251H144.568C144.145 293.927 143.725 293.688 143.311 293.533C142.9 293.378 142.502 293.301 142.114 293.301C141.353 293.301 140.763 293.556 140.344 294.066C139.929 294.577 139.722 295.285 139.722 296.192C139.722 297.099 139.929 297.803 140.344 298.305C140.758 298.806 141.349 299.057 142.114 299.057C142.383 299.057 142.65 299.022 142.914 298.954C143.183 298.886 143.427 298.797 143.646 298.688C143.819 298.601 143.996 298.498 144.179 298.38C144.366 298.257 144.495 298.166 144.568 298.106H144.644V299.521ZM153.298 300H151.616L148.444 296.5H147.747V300H146.462V292.364H147.747V295.659C148.171 295.659 148.513 295.584 148.772 295.434C149.032 295.279 149.253 295.033 149.436 294.695C149.499 294.572 149.561 294.442 149.62 294.306C149.684 294.164 149.745 294.03 149.805 293.902C150.042 293.387 150.338 293.002 150.693 292.747C151.049 292.492 151.559 292.364 152.225 292.364H152.812V293.472H152.245C151.885 293.472 151.603 293.549 151.397 293.704C151.197 293.854 151.015 294.121 150.851 294.504C150.668 294.932 150.475 295.254 150.27 295.468C150.069 295.677 149.855 295.837 149.627 295.946L153.298 300ZM161.2 296.186C161.2 297.43 160.881 298.412 160.243 299.132C159.605 299.852 158.751 300.212 157.68 300.212C156.6 300.212 155.741 299.852 155.103 299.132C154.469 298.412 154.152 297.43 154.152 296.186C154.152 294.941 154.469 293.959 155.103 293.239C155.741 292.515 156.6 292.152 157.68 292.152C158.751 292.152 159.605 292.515 160.243 293.239C160.881 293.959 161.2 294.941 161.2 296.186ZM159.874 296.186C159.874 295.197 159.68 294.463 159.293 293.984C158.906 293.501 158.368 293.26 157.68 293.26C156.982 293.26 156.44 293.501 156.053 293.984C155.67 294.463 155.479 295.197 155.479 296.186C155.479 297.143 155.672 297.869 156.06 298.366C156.447 298.858 156.987 299.104 157.68 299.104C158.363 299.104 158.899 298.861 159.286 298.373C159.678 297.881 159.874 297.152 159.874 296.186ZM169.588 296.315H163.962C163.962 296.785 164.033 297.195 164.174 297.546C164.315 297.892 164.509 298.177 164.755 298.4C164.992 298.619 165.272 298.783 165.596 298.893C165.924 299.002 166.284 299.057 166.676 299.057C167.195 299.057 167.717 298.954 168.241 298.749C168.77 298.539 169.146 298.334 169.369 298.134H169.438V299.535C169.005 299.717 168.562 299.87 168.111 299.993C167.66 300.116 167.186 300.178 166.689 300.178C165.423 300.178 164.434 299.836 163.723 299.152C163.012 298.464 162.656 297.489 162.656 296.227C162.656 294.978 162.996 293.987 163.675 293.253C164.358 292.519 165.256 292.152 166.368 292.152C167.398 292.152 168.191 292.453 168.747 293.055C169.308 293.656 169.588 294.511 169.588 295.618V296.315ZM168.337 295.331C168.332 294.657 168.161 294.135 167.824 293.766C167.492 293.396 166.983 293.212 166.3 293.212C165.612 293.212 165.062 293.415 164.652 293.82C164.247 294.226 164.017 294.729 163.962 295.331H168.337ZM80.2285 316.262C79.9779 316.371 79.75 316.474 79.5449 316.569C79.3444 316.665 79.0801 316.765 78.752 316.87C78.474 316.957 78.1709 317.03 77.8428 317.089C77.5192 317.153 77.1615 317.185 76.7695 317.185C76.0312 317.185 75.359 317.082 74.7529 316.877C74.1514 316.667 73.6273 316.341 73.1807 315.899C72.7432 315.466 72.4014 314.917 72.1553 314.252C71.9092 313.582 71.7861 312.805 71.7861 311.921C71.7861 311.082 71.9046 310.333 72.1416 309.672C72.3786 309.011 72.7204 308.453 73.167 307.997C73.5999 307.555 74.1217 307.218 74.7324 306.985C75.3477 306.753 76.029 306.637 76.7764 306.637C77.3232 306.637 77.8678 306.703 78.4102 306.835C78.957 306.967 79.5632 307.2 80.2285 307.532V309.139H80.126C79.5654 308.669 79.0094 308.327 78.458 308.113C77.9066 307.899 77.3164 307.792 76.6875 307.792C76.1725 307.792 75.7077 307.876 75.293 308.045C74.8828 308.209 74.516 308.466 74.1924 308.817C73.8779 309.159 73.6318 309.592 73.4541 310.116C73.2809 310.636 73.1943 311.237 73.1943 311.921C73.1943 312.636 73.29 313.252 73.4814 313.767C73.6774 314.282 73.9281 314.701 74.2334 315.024C74.5524 315.362 74.9238 315.612 75.3477 315.776C75.776 315.936 76.2272 316.016 76.7012 316.016C77.3529 316.016 77.9635 315.904 78.5332 315.681C79.1029 315.457 79.6361 315.122 80.1328 314.676H80.2285V316.262ZM88.5479 313.186C88.5479 314.43 88.2288 315.412 87.5908 316.132C86.9528 316.852 86.0983 317.212 85.0273 317.212C83.9473 317.212 83.0882 316.852 82.4502 316.132C81.8167 315.412 81.5 314.43 81.5 313.186C81.5 311.941 81.8167 310.959 82.4502 310.239C83.0882 309.515 83.9473 309.152 85.0273 309.152C86.0983 309.152 86.9528 309.515 87.5908 310.239C88.2288 310.959 88.5479 311.941 88.5479 313.186ZM87.2217 313.186C87.2217 312.197 87.028 311.463 86.6406 310.984C86.2533 310.501 85.7155 310.26 85.0273 310.26C84.3301 310.26 83.7878 310.501 83.4004 310.984C83.0176 311.463 82.8262 312.197 82.8262 313.186C82.8262 314.143 83.0199 314.869 83.4072 315.366C83.7946 315.858 84.3346 316.104 85.0273 316.104C85.7109 316.104 86.2464 315.861 86.6338 315.373C87.0257 314.881 87.2217 314.152 87.2217 313.186ZM96.9355 317H95.6504V310.472H91.8291V317H90.5439V309.364H96.9355V317ZM106.191 313.09C106.191 313.71 106.103 314.277 105.925 314.792C105.747 315.302 105.496 315.735 105.173 316.091C104.872 316.428 104.517 316.69 104.106 316.877C103.701 317.059 103.27 317.15 102.814 317.15C102.418 317.15 102.058 317.107 101.734 317.021C101.415 316.934 101.09 316.799 100.757 316.617V319.816H99.4717V309.364H100.757V310.164C101.099 309.877 101.481 309.638 101.905 309.446C102.334 309.25 102.789 309.152 103.272 309.152C104.193 309.152 104.909 309.501 105.419 310.198C105.934 310.891 106.191 311.855 106.191 313.09ZM104.865 313.124C104.865 312.203 104.708 311.515 104.394 311.06C104.079 310.604 103.596 310.376 102.944 310.376C102.575 310.376 102.204 310.456 101.83 310.615C101.456 310.775 101.099 310.984 100.757 311.244V315.571C101.121 315.735 101.434 315.847 101.693 315.906C101.958 315.965 102.256 315.995 102.589 315.995C103.304 315.995 103.863 315.754 104.264 315.271C104.665 314.787 104.865 314.072 104.865 313.124ZM114.702 313.186C114.702 314.43 114.383 315.412 113.745 316.132C113.107 316.852 112.253 317.212 111.182 317.212C110.102 317.212 109.243 316.852 108.604 316.132C107.971 315.412 107.654 314.43 107.654 313.186C107.654 311.941 107.971 310.959 108.604 310.239C109.243 309.515 110.102 309.152 111.182 309.152C112.253 309.152 113.107 309.515 113.745 310.239C114.383 310.959 114.702 311.941 114.702 313.186ZM113.376 313.186C113.376 312.197 113.182 311.463 112.795 310.984C112.408 310.501 111.87 310.26 111.182 310.26C110.484 310.26 109.942 310.501 109.555 310.984C109.172 311.463 108.98 312.197 108.98 313.186C108.98 314.143 109.174 314.869 109.562 315.366C109.949 315.858 110.489 316.104 111.182 316.104C111.865 316.104 112.401 315.861 112.788 315.373C113.18 314.881 113.376 314.152 113.376 313.186ZM123.001 314.689C123.001 315.059 122.926 315.387 122.775 315.674C122.63 315.961 122.427 316.2 122.167 316.392C121.875 316.606 121.556 316.761 121.21 316.856C120.868 316.952 120.417 317 119.856 317H116.698V309.364H119.651C120.221 309.364 120.649 309.385 120.937 309.426C121.228 309.462 121.502 309.547 121.757 309.679C122.044 309.829 122.254 310.025 122.386 310.267C122.522 310.508 122.591 310.793 122.591 311.121C122.591 311.499 122.484 311.827 122.27 312.105C122.055 312.383 121.78 312.6 121.442 312.755V312.823C121.894 312.933 122.265 313.145 122.557 313.459C122.853 313.769 123.001 314.179 123.001 314.689ZM121.271 311.319C121.271 311.155 121.235 311.007 121.162 310.875C121.094 310.743 120.987 310.64 120.841 310.567C120.649 310.472 120.433 310.419 120.191 310.41C119.954 310.396 119.66 310.39 119.31 310.39H117.97V312.481H119.576C119.913 312.481 120.162 312.47 120.321 312.447C120.485 312.42 120.649 312.356 120.813 312.256C120.987 312.146 121.105 312.019 121.169 311.873C121.237 311.723 121.271 311.538 121.271 311.319ZM121.675 314.696C121.675 314.446 121.634 314.243 121.552 314.088C121.47 313.928 121.29 313.783 121.012 313.65C120.839 313.568 120.652 313.521 120.451 313.507C120.251 313.489 119.973 313.479 119.617 313.479H117.97V315.975H119.187C119.697 315.975 120.089 315.959 120.362 315.927C120.64 315.89 120.88 315.815 121.08 315.701C121.281 315.587 121.429 315.448 121.524 315.284C121.625 315.12 121.675 314.924 121.675 314.696ZM131.532 313.186C131.532 314.43 131.213 315.412 130.575 316.132C129.937 316.852 129.083 317.212 128.012 317.212C126.932 317.212 126.073 316.852 125.435 316.132C124.801 315.412 124.484 314.43 124.484 313.186C124.484 311.941 124.801 310.959 125.435 310.239C126.073 309.515 126.932 309.152 128.012 309.152C129.083 309.152 129.937 309.515 130.575 310.239C131.213 310.959 131.532 311.941 131.532 313.186ZM130.206 313.186C130.206 312.197 130.012 311.463 129.625 310.984C129.238 310.501 128.7 310.26 128.012 310.26C127.314 310.26 126.772 310.501 126.385 310.984C126.002 311.463 125.811 312.197 125.811 313.186C125.811 314.143 126.004 314.869 126.392 315.366C126.779 315.858 127.319 316.104 128.012 316.104C128.695 316.104 129.231 315.861 129.618 315.373C130.01 314.881 130.206 314.152 130.206 313.186ZM143.105 317H141.554L139.106 313.514H138.484V317H137.213V313.514H136.659L134.103 317H132.619L135.565 313.001C135.342 312.882 135.144 312.714 134.971 312.495C134.802 312.276 134.647 311.946 134.506 311.504C134.383 311.117 134.237 310.848 134.068 310.697C133.9 310.547 133.624 310.472 133.241 310.472H132.879V309.364H133.351C133.916 309.364 134.369 309.478 134.711 309.706C135.053 309.934 135.326 310.333 135.531 310.902C135.572 311.021 135.622 311.158 135.682 311.312C135.745 311.463 135.8 311.59 135.846 311.695C135.996 312.042 136.188 312.288 136.42 312.434C136.657 312.575 136.921 312.655 137.213 312.673V309.364H138.484V312.673C138.776 312.655 139.04 312.573 139.277 312.427C139.519 312.281 139.715 312.037 139.865 311.695C139.915 311.581 139.97 311.449 140.029 311.299C140.093 311.148 140.143 311.016 140.18 310.902C140.38 310.342 140.649 309.945 140.986 309.713C141.324 309.48 141.777 309.364 142.347 309.364H142.818V310.472H142.456C142.069 310.472 141.788 310.551 141.615 310.711C141.447 310.87 141.305 311.135 141.191 311.504C141.064 311.91 140.911 312.226 140.733 312.454C140.56 312.677 140.371 312.846 140.166 312.96L143.105 317ZM151.63 318.832H150.434V316.979H144.691V318.832H143.495V315.906H144.322C144.855 315.027 145.252 314.013 145.512 312.864C145.776 311.711 145.908 310.545 145.908 309.364H150.707V315.906H151.63V318.832ZM149.422 315.906V310.444H147.118C147.059 311.588 146.883 312.632 146.592 313.575C146.3 314.519 145.965 315.296 145.587 315.906H149.422ZM159.799 313.315H154.173C154.173 313.785 154.243 314.195 154.385 314.546C154.526 314.892 154.72 315.177 154.966 315.4C155.203 315.619 155.483 315.783 155.807 315.893C156.135 316.002 156.495 316.057 156.887 316.057C157.406 316.057 157.928 315.954 158.452 315.749C158.981 315.539 159.357 315.334 159.58 315.134H159.648V316.535C159.215 316.717 158.773 316.87 158.322 316.993C157.871 317.116 157.397 317.178 156.9 317.178C155.633 317.178 154.645 316.836 153.934 316.152C153.223 315.464 152.867 314.489 152.867 313.227C152.867 311.978 153.207 310.987 153.886 310.253C154.569 309.519 155.467 309.152 156.579 309.152C157.609 309.152 158.402 309.453 158.958 310.055C159.519 310.656 159.799 311.511 159.799 312.618V313.315ZM158.548 312.331C158.543 311.657 158.372 311.135 158.035 310.766C157.702 310.396 157.194 310.212 156.511 310.212C155.823 310.212 155.273 310.415 154.863 310.82C154.458 311.226 154.228 311.729 154.173 312.331H158.548ZM168.139 317H166.854V313.562H163.032V317H161.747V309.364H163.032V312.454H166.854V309.364H168.139V317ZM177.107 317H175.836V311.265L171.837 317H170.675V309.364H171.946V315.018L175.904 309.364H177.107V317ZM186.035 313.315H180.409C180.409 313.785 180.48 314.195 180.621 314.546C180.762 314.892 180.956 315.177 181.202 315.4C181.439 315.619 181.719 315.783 182.043 315.893C182.371 316.002 182.731 316.057 183.123 316.057C183.643 316.057 184.164 315.954 184.688 315.749C185.217 315.539 185.593 315.334 185.816 315.134H185.885V316.535C185.452 316.717 185.01 316.87 184.559 316.993C184.107 317.116 183.633 317.178 183.137 317.178C181.87 317.178 180.881 316.836 180.17 316.152C179.459 315.464 179.104 314.489 179.104 313.227C179.104 311.978 179.443 310.987 180.122 310.253C180.806 309.519 181.703 309.152 182.815 309.152C183.845 309.152 184.638 309.453 185.194 310.055C185.755 310.656 186.035 311.511 186.035 312.618V313.315ZM184.784 312.331C184.78 311.657 184.609 311.135 184.271 310.766C183.939 310.396 183.431 310.212 182.747 310.212C182.059 310.212 181.51 310.415 181.1 310.82C180.694 311.226 180.464 311.729 180.409 312.331H184.784Z" fill="#333333"/>
<path d="M38 343L45.5 350.5L58 335.5" stroke="#61B857" stroke-width="2" stroke-linecap="round" stroke-linejoin="round"/>
<path d="M80.5498 342H78.8135L74.6777 337.358H73.7549V342H72.4014V331.821H73.7549V336.388C73.9873 336.383 74.2061 336.36 74.4111 336.319C74.6162 336.278 74.8099 336.201 74.9922 336.087C75.1745 335.982 75.3545 335.834 75.5322 335.643C75.71 335.447 75.8672 335.207 76.0039 334.925C76.0632 334.802 76.1315 334.647 76.209 334.46C76.291 334.273 76.373 334.077 76.4551 333.872C76.7695 333.116 77.1364 332.585 77.5557 332.279C77.9795 331.974 78.6016 331.821 79.4219 331.821H79.9619V333.031H79.3945C79.0801 333.031 78.834 333.061 78.6562 333.12C78.4785 333.175 78.319 333.268 78.1777 333.4C78.0456 333.519 77.9294 333.678 77.8291 333.879C77.7334 334.079 77.6331 334.314 77.5283 334.583C77.2913 335.185 77.0498 335.627 76.8037 335.909C76.5622 336.192 76.2363 336.438 75.8262 336.647L80.5498 342ZM88.5752 334.364L84.1182 344.816H82.7441L84.166 341.631L81.124 334.364H82.5186L84.8633 340.024L87.2285 334.364H88.5752ZM96.9766 338.09C96.9766 338.71 96.8877 339.277 96.71 339.792C96.5322 340.302 96.2816 340.735 95.958 341.091C95.6572 341.428 95.3018 341.69 94.8916 341.877C94.486 342.059 94.0553 342.15 93.5996 342.15C93.2031 342.15 92.8431 342.107 92.5195 342.021C92.2005 341.934 91.8747 341.799 91.542 341.617V344.816H90.2568V334.364H91.542V335.164C91.8838 334.877 92.2666 334.638 92.6904 334.446C93.1188 334.25 93.5745 334.152 94.0576 334.152C94.9782 334.152 95.6937 334.501 96.2041 335.198C96.7191 335.891 96.9766 336.855 96.9766 338.09ZM95.6504 338.124C95.6504 337.203 95.4932 336.515 95.1787 336.06C94.8643 335.604 94.3812 335.376 93.7295 335.376C93.3604 335.376 92.9889 335.456 92.6152 335.615C92.2415 335.775 91.8838 335.984 91.542 336.244V340.571C91.9066 340.735 92.2188 340.847 92.4785 340.906C92.7428 340.965 93.0413 340.995 93.374 340.995C94.0895 340.995 94.6478 340.754 95.0488 340.271C95.4499 339.787 95.6504 339.072 95.6504 338.124ZM104.694 341.521C104.17 341.768 103.719 341.936 103.341 342.027C102.967 342.123 102.593 342.171 102.22 342.171C101.664 342.171 101.153 342.091 100.688 341.932C100.224 341.768 99.8249 341.521 99.4922 341.193C99.1595 340.865 98.8997 340.451 98.7129 339.949C98.5306 339.448 98.4395 338.862 98.4395 338.192C98.4395 336.976 98.7767 336.005 99.4512 335.28C100.126 334.551 101.049 334.187 102.22 334.187C102.662 334.187 103.095 334.248 103.519 334.371C103.947 334.494 104.339 334.645 104.694 334.822V336.251H104.619C104.195 335.927 103.776 335.688 103.361 335.533C102.951 335.378 102.552 335.301 102.165 335.301C101.404 335.301 100.814 335.556 100.395 336.066C99.9798 336.577 99.7725 337.285 99.7725 338.192C99.7725 339.099 99.9798 339.803 100.395 340.305C100.809 340.806 101.399 341.057 102.165 341.057C102.434 341.057 102.701 341.022 102.965 340.954C103.234 340.886 103.478 340.797 103.696 340.688C103.869 340.601 104.047 340.498 104.229 340.38C104.416 340.257 104.546 340.166 104.619 340.106H104.694V341.521ZM118.742 333.024H115.105V342H113.752V333.024H110.115V331.821H118.742V333.024ZM125.94 342H124.662V341.187C124.548 341.264 124.393 341.373 124.197 341.515C124.006 341.651 123.819 341.761 123.637 341.843C123.423 341.948 123.176 342.034 122.898 342.103C122.62 342.175 122.295 342.212 121.921 342.212C121.233 342.212 120.649 341.984 120.171 341.528C119.692 341.073 119.453 340.492 119.453 339.785C119.453 339.206 119.576 338.739 119.822 338.384C120.073 338.024 120.428 337.741 120.889 337.536C121.354 337.331 121.912 337.192 122.563 337.119C123.215 337.046 123.915 336.992 124.662 336.955V336.757C124.662 336.465 124.61 336.224 124.505 336.032C124.405 335.841 124.259 335.69 124.067 335.581C123.885 335.476 123.666 335.406 123.411 335.369C123.156 335.333 122.889 335.314 122.611 335.314C122.274 335.314 121.898 335.36 121.483 335.451C121.069 335.538 120.64 335.665 120.198 335.834H120.13V334.528C120.381 334.46 120.743 334.385 121.217 334.303C121.691 334.221 122.158 334.18 122.618 334.18C123.156 334.18 123.623 334.225 124.02 334.316C124.421 334.403 124.767 334.553 125.059 334.768C125.346 334.977 125.564 335.248 125.715 335.581C125.865 335.914 125.94 336.326 125.94 336.818V342ZM124.662 340.12V337.994C124.27 338.017 123.808 338.051 123.274 338.097C122.746 338.142 122.326 338.208 122.017 338.295C121.647 338.4 121.349 338.564 121.121 338.787C120.893 339.006 120.779 339.309 120.779 339.696C120.779 340.134 120.911 340.464 121.176 340.688C121.44 340.906 121.843 341.016 122.386 341.016C122.837 341.016 123.249 340.929 123.623 340.756C123.997 340.578 124.343 340.366 124.662 340.12ZM135.634 342H134.362V335.971L132.462 339.895H131.505L129.618 335.971V342H128.415V334.364H129.967L132.045 338.637L134.055 334.364H135.634V342ZM144.671 338.186C144.671 339.43 144.352 340.412 143.714 341.132C143.076 341.852 142.221 342.212 141.15 342.212C140.07 342.212 139.211 341.852 138.573 341.132C137.94 340.412 137.623 339.43 137.623 338.186C137.623 336.941 137.94 335.959 138.573 335.239C139.211 334.515 140.07 334.152 141.15 334.152C142.221 334.152 143.076 334.515 143.714 335.239C144.352 335.959 144.671 336.941 144.671 338.186ZM143.345 338.186C143.345 337.197 143.151 336.463 142.764 335.984C142.376 335.501 141.839 335.26 141.15 335.26C140.453 335.26 139.911 335.501 139.523 335.984C139.141 336.463 138.949 337.197 138.949 338.186C138.949 339.143 139.143 339.869 139.53 340.366C139.918 340.858 140.458 341.104 141.15 341.104C141.834 341.104 142.369 340.861 142.757 340.373C143.149 339.881 143.345 339.152 143.345 338.186ZM156.244 342H154.692L152.245 338.514H151.623V342H150.352V338.514H149.798L147.241 342H145.758L148.704 338.001C148.481 337.882 148.283 337.714 148.109 337.495C147.941 337.276 147.786 336.946 147.645 336.504C147.521 336.117 147.376 335.848 147.207 335.697C147.038 335.547 146.763 335.472 146.38 335.472H146.018V334.364H146.489C147.054 334.364 147.508 334.478 147.85 334.706C148.191 334.934 148.465 335.333 148.67 335.902C148.711 336.021 148.761 336.158 148.82 336.312C148.884 336.463 148.939 336.59 148.984 336.695C149.135 337.042 149.326 337.288 149.559 337.434C149.796 337.575 150.06 337.655 150.352 337.673V334.364H151.623V337.673C151.915 337.655 152.179 337.573 152.416 337.427C152.658 337.281 152.854 337.037 153.004 336.695C153.054 336.581 153.109 336.449 153.168 336.299C153.232 336.148 153.282 336.016 153.318 335.902C153.519 335.342 153.788 334.945 154.125 334.713C154.462 334.48 154.916 334.364 155.485 334.364H155.957V335.472H155.595C155.207 335.472 154.927 335.551 154.754 335.711C154.585 335.87 154.444 336.135 154.33 336.504C154.202 336.91 154.05 337.226 153.872 337.454C153.699 337.677 153.51 337.846 153.305 337.96L156.244 342ZM164.229 338.315H158.603C158.603 338.785 158.673 339.195 158.814 339.546C158.956 339.892 159.149 340.177 159.396 340.4C159.632 340.619 159.913 340.783 160.236 340.893C160.564 341.002 160.924 341.057 161.316 341.057C161.836 341.057 162.358 340.954 162.882 340.749C163.41 340.539 163.786 340.334 164.01 340.134H164.078V341.535C163.645 341.717 163.203 341.87 162.752 341.993C162.301 342.116 161.827 342.178 161.33 342.178C160.063 342.178 159.074 341.836 158.363 341.152C157.652 340.464 157.297 339.489 157.297 338.227C157.297 336.978 157.636 335.987 158.315 335.253C158.999 334.519 159.897 334.152 161.009 334.152C162.039 334.152 162.832 334.453 163.388 335.055C163.948 335.656 164.229 336.511 164.229 337.618V338.315ZM162.978 337.331C162.973 336.657 162.802 336.135 162.465 335.766C162.132 335.396 161.624 335.212 160.94 335.212C160.252 335.212 159.703 335.415 159.293 335.82C158.887 336.226 158.657 336.729 158.603 337.331H162.978ZM172.568 342H171.283V338.562H167.462V342H166.177V334.364H167.462V337.454H171.283V334.364H172.568V342ZM181.496 342H180.211V338.562H176.39V342H175.104V334.364H176.39V337.454H180.211V334.364H181.496V342ZM188.735 339.655C188.735 339.423 188.694 339.22 188.612 339.047C188.535 338.869 188.405 338.726 188.223 338.616C188.031 338.502 187.812 338.434 187.566 338.411C187.325 338.388 186.976 338.377 186.521 338.377H185.317V340.975H186.493C186.949 340.975 187.302 340.956 187.553 340.92C187.803 340.879 188.02 340.804 188.202 340.694C188.389 340.576 188.523 340.437 188.605 340.277C188.692 340.113 188.735 339.906 188.735 339.655ZM190.062 339.635C190.062 340.004 189.986 340.339 189.836 340.64C189.69 340.94 189.49 341.184 189.234 341.371C188.934 341.599 188.612 341.761 188.271 341.856C187.929 341.952 187.489 342 186.951 342H184.032V334.364H185.317V337.338H186.985C187.56 337.338 188.004 337.368 188.318 337.427C188.637 337.486 188.954 337.632 189.269 337.864C189.533 338.06 189.731 338.311 189.863 338.616C189.995 338.922 190.062 339.261 190.062 339.635ZM191.34 334.364H192.625V342H191.34V334.364ZM201.771 342H200.151L197.984 339.067L195.804 342H194.307L197.287 338.192L194.334 334.364H195.954L198.107 337.249L200.268 334.364H201.771L198.771 338.124L201.771 342ZM78.6631 349.949C79.1006 350.387 79.4378 350.929 79.6748 351.576C79.9118 352.223 80.0303 352.989 80.0303 353.873C80.0303 354.657 79.9095 355.379 79.668 356.04C79.431 356.696 79.0869 357.259 78.6357 357.729C78.1709 358.212 77.6263 358.576 77.002 358.822C76.3822 359.064 75.7008 359.185 74.958 359.185C74.3154 359.185 73.7048 359.123 73.126 359C72.5472 358.877 72.0596 358.731 71.6631 358.562V357.065H71.7725C72.1416 357.362 72.6064 357.599 73.167 357.776C73.7321 357.95 74.3359 358.036 74.9785 358.036C75.5391 358.036 76.0518 357.938 76.5166 357.742C76.9814 357.542 77.3688 357.271 77.6787 356.929C78.0068 356.564 78.2529 356.154 78.417 355.698C78.5856 355.238 78.6699 354.716 78.6699 354.133H73.1123V352.95H78.6016C78.5378 352.408 78.401 351.938 78.1914 351.542C77.9818 351.141 77.7152 350.811 77.3916 350.551C77.068 350.291 76.7012 350.1 76.291 349.977C75.8809 349.849 75.4434 349.785 74.9785 349.785C74.3542 349.785 73.7686 349.874 73.2217 350.052C72.6748 350.225 72.2031 350.464 71.8066 350.77H71.6904V349.266C72.1143 349.088 72.6156 348.94 73.1943 348.821C73.7731 348.698 74.3656 348.637 74.9717 348.637C75.7555 348.637 76.4551 348.746 77.0703 348.965C77.6901 349.184 78.221 349.512 78.6631 349.949ZM88.9717 359H87.29L84.1182 355.5H83.4209V359H82.1357V351.364H83.4209V354.659C83.8447 354.659 84.1865 354.584 84.4463 354.434C84.7061 354.279 84.9271 354.033 85.1094 353.695C85.1732 353.572 85.2347 353.442 85.2939 353.306C85.3577 353.164 85.4193 353.03 85.4785 352.902C85.7155 352.387 86.0117 352.002 86.3672 351.747C86.7227 351.492 87.2331 351.364 87.8984 351.364H88.4863V352.472H87.9189C87.5589 352.472 87.2764 352.549 87.0713 352.704C86.8708 352.854 86.6885 353.121 86.5244 353.504C86.3421 353.932 86.1484 354.254 85.9434 354.468C85.7428 354.677 85.5286 354.837 85.3008 354.946L88.9717 359ZM96.0811 358.521C95.557 358.768 95.1058 358.936 94.7275 359.027C94.3538 359.123 93.9801 359.171 93.6064 359.171C93.0505 359.171 92.54 359.091 92.0752 358.932C91.6104 358.768 91.2116 358.521 90.8789 358.193C90.5462 357.865 90.2865 357.451 90.0996 356.949C89.9173 356.448 89.8262 355.862 89.8262 355.192C89.8262 353.976 90.1634 353.005 90.8379 352.28C91.5124 351.551 92.4352 351.187 93.6064 351.187C94.0485 351.187 94.4814 351.248 94.9053 351.371C95.3337 351.494 95.7256 351.645 96.0811 351.822V353.251H96.0059C95.582 352.927 95.1628 352.688 94.748 352.533C94.3379 352.378 93.9391 352.301 93.5518 352.301C92.7907 352.301 92.2005 352.556 91.7812 353.066C91.3665 353.577 91.1592 354.285 91.1592 355.192C91.1592 356.099 91.3665 356.803 91.7812 357.305C92.196 357.806 92.7861 358.057 93.5518 358.057C93.8206 358.057 94.0872 358.022 94.3516 357.954C94.6204 357.886 94.8643 357.797 95.083 357.688C95.2562 357.601 95.4339 357.498 95.6162 357.38C95.8031 357.257 95.9329 357.166 96.0059 357.106H96.0811V358.521ZM104.236 359H102.951V352.472H99.1299V359H97.8447V351.364H104.236V359ZM113.164 355.315H107.538C107.538 355.785 107.609 356.195 107.75 356.546C107.891 356.892 108.085 357.177 108.331 357.4C108.568 357.619 108.848 357.783 109.172 357.893C109.5 358.002 109.86 358.057 110.252 358.057C110.771 358.057 111.293 357.954 111.817 357.749C112.346 357.539 112.722 357.334 112.945 357.134H113.014V358.535C112.581 358.717 112.139 358.87 111.688 358.993C111.236 359.116 110.762 359.178 110.266 359.178C108.999 359.178 108.01 358.836 107.299 358.152C106.588 357.464 106.232 356.489 106.232 355.227C106.232 353.978 106.572 352.987 107.251 352.253C107.935 351.519 108.832 351.152 109.944 351.152C110.974 351.152 111.767 351.453 112.323 352.055C112.884 352.656 113.164 353.511 113.164 354.618V355.315ZM111.913 354.331C111.909 353.657 111.738 353.135 111.4 352.766C111.068 352.396 110.56 352.212 109.876 352.212C109.188 352.212 108.639 352.415 108.229 352.82C107.823 353.226 107.593 353.729 107.538 354.331H111.913ZM121.832 355.09C121.832 355.71 121.743 356.277 121.565 356.792C121.388 357.302 121.137 357.735 120.813 358.091C120.513 358.428 120.157 358.69 119.747 358.877C119.341 359.059 118.911 359.15 118.455 359.15C118.059 359.15 117.699 359.107 117.375 359.021C117.056 358.934 116.73 358.799 116.397 358.617V361.816H115.112V351.364H116.397V352.164C116.739 351.877 117.122 351.638 117.546 351.446C117.974 351.25 118.43 351.152 118.913 351.152C119.834 351.152 120.549 351.501 121.06 352.198C121.575 352.891 121.832 353.855 121.832 355.09ZM120.506 355.124C120.506 354.203 120.349 353.515 120.034 353.06C119.72 352.604 119.237 352.376 118.585 352.376C118.216 352.376 117.844 352.456 117.471 352.615C117.097 352.775 116.739 352.984 116.397 353.244V357.571C116.762 357.735 117.074 357.847 117.334 357.906C117.598 357.965 117.897 357.995 118.229 357.995C118.945 357.995 119.503 357.754 119.904 357.271C120.305 356.787 120.506 356.072 120.506 355.124ZM129.447 352.492H126.686V359H125.4V352.492H122.639V351.364H129.447V352.492ZM137.288 355.186C137.288 356.43 136.969 357.412 136.331 358.132C135.693 358.852 134.839 359.212 133.768 359.212C132.688 359.212 131.828 358.852 131.19 358.132C130.557 357.412 130.24 356.43 130.24 355.186C130.24 353.941 130.557 352.959 131.19 352.239C131.828 351.515 132.688 351.152 133.768 351.152C134.839 351.152 135.693 351.515 136.331 352.239C136.969 352.959 137.288 353.941 137.288 355.186ZM135.962 355.186C135.962 354.197 135.768 353.463 135.381 352.984C134.993 352.501 134.456 352.26 133.768 352.26C133.07 352.26 132.528 352.501 132.141 352.984C131.758 353.463 131.566 354.197 131.566 355.186C131.566 356.143 131.76 356.869 132.147 357.366C132.535 357.858 133.075 358.104 133.768 358.104C134.451 358.104 134.987 357.861 135.374 357.373C135.766 356.881 135.962 356.152 135.962 355.186ZM145.587 356.689C145.587 357.059 145.512 357.387 145.361 357.674C145.215 357.961 145.013 358.2 144.753 358.392C144.461 358.606 144.142 358.761 143.796 358.856C143.454 358.952 143.003 359 142.442 359H139.284V351.364H142.237C142.807 351.364 143.235 351.385 143.522 351.426C143.814 351.462 144.088 351.547 144.343 351.679C144.63 351.829 144.84 352.025 144.972 352.267C145.108 352.508 145.177 352.793 145.177 353.121C145.177 353.499 145.07 353.827 144.855 354.105C144.641 354.383 144.366 354.6 144.028 354.755V354.823C144.479 354.933 144.851 355.145 145.143 355.459C145.439 355.769 145.587 356.179 145.587 356.689ZM143.857 353.319C143.857 353.155 143.821 353.007 143.748 352.875C143.68 352.743 143.573 352.64 143.427 352.567C143.235 352.472 143.019 352.419 142.777 352.41C142.54 352.396 142.246 352.39 141.896 352.39H140.556V354.481H142.162C142.499 354.481 142.748 354.47 142.907 354.447C143.071 354.42 143.235 354.356 143.399 354.256C143.573 354.146 143.691 354.019 143.755 353.873C143.823 353.723 143.857 353.538 143.857 353.319ZM144.261 356.696C144.261 356.446 144.22 356.243 144.138 356.088C144.056 355.928 143.876 355.783 143.598 355.65C143.424 355.568 143.238 355.521 143.037 355.507C142.837 355.489 142.559 355.479 142.203 355.479H140.556V357.975H141.772C142.283 357.975 142.675 357.959 142.948 357.927C143.226 357.89 143.465 357.815 143.666 357.701C143.867 357.587 144.015 357.448 144.11 357.284C144.211 357.12 144.261 356.924 144.261 356.696Z" fill="#333333"/>
</g>
<defs>
<filter id="filter0_d_1763_10010" x="0" y="-15" width="383" height="440" filterUnits="userSpaceOnUse" color-interpolation-filters="sRGB">
<feFlood flood-opacity="0" result="BackgroundImageFix"/>
<feColorMatrix in="SourceAlpha" type="matrix" values="0 0 0 0 0 0 0 0 0 0 0 0 0 0 0 0 0 0 127 0" result="hardAlpha"/>
<feOffset dx="3" dy="5"/>
<feGaussianBlur stdDeviation="10"/>
<feComposite in2="hardAlpha" operator="out"/>
<feColorMatrix type="matrix" values="0 0 0 0 0.2 0 0 0 0 0.2 0 0 0 0 0.2 0 0 0 0.1 0"/>
<feBlend mode="normal" in2="BackgroundImageFix" result="effect1_dropShadow_1763_10010"/>
<feBlend mode="normal" in="SourceGraphic" in2="effect1_dropShadow_1763_10010" result="shape"/>
</filter>
<filter id="filter1_d_1763_10010" x="30" y="13" width="82" height="82" filterUnits="userSpaceOnUse" color-interpolation-filters="sRGB">
<feFlood flood-opacity="0" result="BackgroundImageFix"/>
<feColorMatrix in="SourceAlpha" type="matrix" values="0 0 0 0 0 0 0 0 0 0 0 0 0 0 0 0 0 0 127 0" result="hardAlpha"/>
<feOffset dx="3" dy="3"/>
<feGaussianBlur stdDeviation="3"/>
<feComposite in2="hardAlpha" operator="out"/>
<feColorMatrix type="matrix" values="0 0 0 0 0.2 0 0 0 0 0.2 0 0 0 0 0.2 0 0 0 0.25 0"/>
<feBlend mode="normal" in2="BackgroundImageFix" result="effect1_dropShadow_1763_10010"/>
<feBlend mode="normal" in="SourceGraphic" in2="effect1_dropShadow_1763_10010" result="shape"/>
</filter>
</defs>
</svg>
