<svg width="326" height="540" viewBox="0 0 326 540" fill="none" xmlns="http://www.w3.org/2000/svg">
<g filter="url(#filter0_d_1763_11176)">
<rect x="17" y="15" width="286" height="500" rx="5" fill="white" shape-rendering="crispEdges"/>
<g filter="url(#filter1_d_1763_11176)">
<path d="M79.1654 79.9585C78.3737 79.9585 77.582 79.6668 76.957 79.0418C75.7487 77.8335 75.7487 75.8335 76.957 74.6252L111.124 40.4585C112.332 39.2502 114.332 39.2502 115.54 40.4585C116.749 41.6668 116.749 43.6668 115.54 44.8752L81.3737 79.0418C80.7487 79.6668 79.957 79.9585 79.1654 79.9585Z" fill="#1959AB"/>
<path d="M116.668 62.4585C114.96 62.4585 113.543 61.0418 113.543 59.3335V42.4585H96.668C94.9596 42.4585 93.543 41.0418 93.543 39.3335C93.543 37.6252 94.9596 36.2085 96.668 36.2085H116.668C118.376 36.2085 119.793 37.6252 119.793 39.3335V59.3335C119.793 61.0418 118.376 62.4585 116.668 62.4585Z" fill="#1959AB"/>
<path d="M87.4987 125.792H62.4987C39.8737 125.792 30.207 116.125 30.207 93.5002V68.5002C30.207 45.8752 39.8737 36.2085 62.4987 36.2085H70.832C72.5404 36.2085 73.957 37.6252 73.957 39.3335C73.957 41.0418 72.5404 42.4585 70.832 42.4585H62.4987C43.2904 42.4585 36.457 49.2918 36.457 68.5002V93.5002C36.457 112.708 43.2904 119.542 62.4987 119.542H87.4987C106.707 119.542 113.54 112.708 113.54 93.5002V85.1668C113.54 83.4585 114.957 82.0418 116.665 82.0418C118.374 82.0418 119.79 83.4585 119.79 85.1668V93.5002C119.79 116.125 110.124 125.792 87.4987 125.792Z" fill="#1959AB"/>
</g>
<path d="M39.8477 203H27.2266V185.551H39.8477V188.926H31.7031V191.938H39.2617V195.312H31.7031V199.625H39.8477V203ZM57.3672 203H52.457L48.7656 197.27L47.6172 198.664V203H43.3984V184.766H47.6172V195.652L52.1641 189.84H57.0273L52.293 195.512L57.3672 203ZM70.9375 198.828C70.9375 200.188 70.3281 201.285 69.1094 202.121C67.8906 202.949 66.2227 203.363 64.1055 203.363C62.9336 203.363 61.8711 203.254 60.918 203.035C59.9648 202.816 59.1992 202.574 58.6211 202.309V198.84H59.0078C59.2188 198.988 59.4609 199.152 59.7344 199.332C60.0156 199.504 60.4102 199.691 60.918 199.895C61.3555 200.074 61.8516 200.23 62.4062 200.363C62.9609 200.488 63.5547 200.551 64.1875 200.551C65.0156 200.551 65.6289 200.461 66.0273 200.281C66.4258 200.094 66.625 199.82 66.625 199.461C66.625 199.141 66.5078 198.91 66.2734 198.77C66.0391 198.621 65.5938 198.48 64.9375 198.348C64.625 198.277 64.1992 198.203 63.6602 198.125C63.1289 198.039 62.6445 197.938 62.207 197.82C61.0117 197.508 60.125 197.023 59.5469 196.367C58.9688 195.703 58.6797 194.879 58.6797 193.895C58.6797 192.629 59.2773 191.578 60.4727 190.742C61.6758 189.898 63.3164 189.477 65.3945 189.477C66.3789 189.477 67.3203 189.578 68.2188 189.781C69.125 189.977 69.832 190.188 70.3398 190.414V193.742H69.9766C69.3516 193.312 68.6367 192.965 67.832 192.699C67.0352 192.426 66.2266 192.289 65.4062 192.289C64.7266 192.289 64.1523 192.383 63.6836 192.57C63.2227 192.758 62.9922 193.023 62.9922 193.367C62.9922 193.68 63.0977 193.918 63.3086 194.082C63.5195 194.246 64.0156 194.41 64.7969 194.574C65.2266 194.66 65.6875 194.746 66.1797 194.832C66.6797 194.91 67.1797 195.012 67.6797 195.137C68.7891 195.426 69.6094 195.883 70.1406 196.508C70.6719 197.125 70.9375 197.898 70.9375 198.828ZM87.4844 196.238C87.4844 197.324 87.3164 198.312 86.9805 199.203C86.6523 200.094 86.2188 200.828 85.6797 201.406C85.1172 202.016 84.4805 202.477 83.7695 202.789C83.0586 203.102 82.2969 203.258 81.4844 203.258C80.7344 203.258 80.0977 203.176 79.5742 203.012C79.0508 202.855 78.5156 202.633 77.9688 202.344V207.828H73.75V189.84H77.9688V191.211C78.6172 190.695 79.2773 190.277 79.9492 189.957C80.6289 189.637 81.4102 189.477 82.293 189.477C83.9336 189.477 85.207 190.078 86.1133 191.281C87.0273 192.484 87.4844 194.137 87.4844 196.238ZM83.1367 196.32C83.1367 195.039 82.918 194.109 82.4805 193.531C82.043 192.953 81.3516 192.664 80.4062 192.664C80.0078 192.664 79.5977 192.727 79.1758 192.852C78.7539 192.969 78.3516 193.141 77.9688 193.367V199.988C78.25 200.098 78.5508 200.168 78.8711 200.199C79.1914 200.23 79.5078 200.246 79.8203 200.246C80.9375 200.246 81.7695 199.922 82.3164 199.273C82.8633 198.617 83.1367 197.633 83.1367 196.32ZM103.984 196.426C103.984 198.59 103.352 200.297 102.086 201.547C100.828 202.789 99.0586 203.41 96.7773 203.41C94.4961 203.41 92.7227 202.789 91.457 201.547C90.1992 200.297 89.5703 198.59 89.5703 196.426C89.5703 194.246 90.2031 192.535 91.4688 191.293C92.7422 190.051 94.5117 189.43 96.7773 189.43C99.0742 189.43 100.848 190.055 102.098 191.305C103.355 192.555 103.984 194.262 103.984 196.426ZM98.793 199.625C99.0664 199.289 99.2695 198.887 99.4023 198.418C99.543 197.941 99.6133 197.285 99.6133 196.449C99.6133 195.676 99.543 195.027 99.4023 194.504C99.2617 193.98 99.0664 193.562 98.8164 193.25C98.5664 192.93 98.2656 192.703 97.9141 192.57C97.5625 192.438 97.1836 192.371 96.7773 192.371C96.3711 192.371 96.0078 192.426 95.6875 192.535C95.375 192.645 95.0742 192.863 94.7852 193.191C94.5273 193.496 94.3203 193.914 94.1641 194.445C94.0156 194.977 93.9414 195.645 93.9414 196.449C93.9414 197.168 94.0078 197.793 94.1406 198.324C94.2734 198.848 94.4688 199.27 94.7266 199.59C94.9766 199.895 95.2734 200.117 95.6172 200.258C95.9688 200.398 96.3672 200.469 96.8125 200.469C97.1953 200.469 97.5586 200.406 97.9023 200.281C98.2539 200.148 98.5508 199.93 98.793 199.625ZM116.547 193.859H116.172C115.992 193.797 115.703 193.75 115.305 193.719C114.906 193.688 114.574 193.672 114.309 193.672C113.707 193.672 113.176 193.711 112.715 193.789C112.254 193.867 111.758 194 111.227 194.188V203H107.008V189.84H111.227V191.773C112.156 190.977 112.965 190.449 113.652 190.191C114.34 189.926 114.973 189.793 115.551 189.793C115.699 189.793 115.867 189.797 116.055 189.805C116.242 189.812 116.406 189.824 116.547 189.84V193.859ZM127.352 202.883C126.898 203 126.418 203.09 125.91 203.152C125.402 203.223 124.781 203.258 124.047 203.258C122.406 203.258 121.184 202.926 120.379 202.262C119.582 201.598 119.184 200.461 119.184 198.852V192.699H117.449V189.84H119.184V186.078H123.402V189.84H127.352V192.699H123.402V197.363C123.402 197.824 123.406 198.227 123.414 198.57C123.422 198.914 123.484 199.223 123.602 199.496C123.711 199.77 123.902 199.988 124.176 200.152C124.457 200.309 124.863 200.387 125.395 200.387C125.613 200.387 125.898 200.34 126.25 200.246C126.609 200.152 126.859 200.066 127 199.988H127.352V202.883Z" fill="#333333"/>
<path d="M30 239L37.5 246.5L50 231.5" stroke="#61B857" stroke-width="2" stroke-linecap="round" stroke-linejoin="round"/>
<path d="M72.2266 245.5H64.5625V233.867H72.2266V235.242H66.1094V238.43H72.2266V239.805H66.1094V244.125H72.2266V245.5ZM82.4922 245.5H80.5547L77.0547 241.68L76.1016 242.586V245.5H74.6328V233.344H76.1016V241.141L80.3438 236.773H82.1953L78.1406 240.805L82.4922 245.5ZM90.2734 242.984C90.2734 243.781 89.9427 244.435 89.2812 244.945C88.625 245.456 87.7266 245.711 86.5859 245.711C85.9401 245.711 85.3464 245.635 84.8047 245.484C84.2682 245.328 83.8177 245.159 83.4531 244.977V243.328H83.5312C83.9948 243.677 84.5104 243.956 85.0781 244.164C85.6458 244.367 86.1901 244.469 86.7109 244.469C87.3568 244.469 87.862 244.365 88.2266 244.156C88.5911 243.948 88.7734 243.62 88.7734 243.172C88.7734 242.828 88.6745 242.568 88.4766 242.391C88.2786 242.214 87.8984 242.062 87.3359 241.938C87.1276 241.891 86.8542 241.836 86.5156 241.773C86.1823 241.711 85.8776 241.643 85.6016 241.57C84.8359 241.367 84.2917 241.07 83.9688 240.68C83.651 240.284 83.4922 239.799 83.4922 239.227C83.4922 238.867 83.5651 238.529 83.7109 238.211C83.862 237.893 84.0885 237.609 84.3906 237.359C84.6823 237.115 85.0521 236.922 85.5 236.781C85.9531 236.635 86.4583 236.562 87.0156 236.562C87.5365 236.562 88.0625 236.628 88.5938 236.758C89.1302 236.883 89.5755 237.036 89.9297 237.219V238.789H89.8516C89.4766 238.513 89.0208 238.281 88.4844 238.094C87.9479 237.901 87.4219 237.805 86.9062 237.805C86.3698 237.805 85.9167 237.909 85.5469 238.117C85.1771 238.32 84.9922 238.625 84.9922 239.031C84.9922 239.391 85.1042 239.661 85.3281 239.844C85.5469 240.026 85.901 240.174 86.3906 240.289C86.6615 240.352 86.9635 240.414 87.2969 240.477C87.6354 240.539 87.9167 240.596 88.1406 240.648C88.8229 240.805 89.349 241.073 89.7188 241.453C90.0885 241.839 90.2734 242.349 90.2734 242.984ZM100.062 241.031C100.062 241.74 99.9609 242.388 99.7578 242.977C99.5547 243.56 99.2682 244.055 98.8984 244.461C98.5547 244.846 98.1484 245.146 97.6797 245.359C97.2161 245.568 96.724 245.672 96.2031 245.672C95.75 245.672 95.3385 245.622 94.9688 245.523C94.6042 245.424 94.2318 245.271 93.8516 245.062V248.719H92.3828V236.773H93.8516V237.688C94.2422 237.359 94.6797 237.086 95.1641 236.867C95.6536 236.643 96.1745 236.531 96.7266 236.531C97.7786 236.531 98.5964 236.93 99.1797 237.727C99.7682 238.518 100.062 239.62 100.062 241.031ZM98.5469 241.07C98.5469 240.018 98.3672 239.232 98.0078 238.711C97.6484 238.19 97.0964 237.93 96.3516 237.93C95.9297 237.93 95.5052 238.021 95.0781 238.203C94.651 238.385 94.2422 238.625 93.8516 238.922V243.867C94.2682 244.055 94.625 244.182 94.9219 244.25C95.224 244.318 95.5651 244.352 95.9453 244.352C96.763 244.352 97.401 244.076 97.8594 243.523C98.3177 242.971 98.5469 242.154 98.5469 241.07ZM109.789 241.141C109.789 242.562 109.424 243.685 108.695 244.508C107.966 245.331 106.99 245.742 105.766 245.742C104.531 245.742 103.549 245.331 102.82 244.508C102.096 243.685 101.734 242.562 101.734 241.141C101.734 239.719 102.096 238.596 102.82 237.773C103.549 236.945 104.531 236.531 105.766 236.531C106.99 236.531 107.966 236.945 108.695 237.773C109.424 238.596 109.789 239.719 109.789 241.141ZM108.273 241.141C108.273 240.01 108.052 239.172 107.609 238.625C107.167 238.073 106.552 237.797 105.766 237.797C104.969 237.797 104.349 238.073 103.906 238.625C103.469 239.172 103.25 240.01 103.25 241.141C103.25 242.234 103.471 243.065 103.914 243.633C104.357 244.195 104.974 244.477 105.766 244.477C106.547 244.477 107.159 244.198 107.602 243.641C108.049 243.078 108.273 242.245 108.273 241.141ZM117.516 238.375H117.438C117.219 238.323 117.005 238.286 116.797 238.266C116.594 238.24 116.352 238.227 116.07 238.227C115.617 238.227 115.18 238.328 114.758 238.531C114.336 238.729 113.93 238.987 113.539 239.305V245.5H112.07V236.773H113.539V238.062C114.122 237.594 114.635 237.263 115.078 237.07C115.526 236.872 115.982 236.773 116.445 236.773C116.701 236.773 116.885 236.781 117 236.797C117.115 236.807 117.286 236.831 117.516 236.867V238.375ZM123.43 245.422C123.154 245.495 122.852 245.555 122.523 245.602C122.201 245.648 121.911 245.672 121.656 245.672C120.766 245.672 120.089 245.432 119.625 244.953C119.161 244.474 118.93 243.706 118.93 242.648V238.008H117.938V236.773H118.93V234.266H120.398V236.773H123.43V238.008H120.398V241.984C120.398 242.443 120.409 242.802 120.43 243.062C120.451 243.318 120.523 243.557 120.648 243.781C120.763 243.99 120.919 244.143 121.117 244.242C121.32 244.336 121.628 244.383 122.039 244.383C122.279 244.383 122.529 244.349 122.789 244.281C123.049 244.208 123.237 244.148 123.352 244.102H123.43V245.422ZM138.516 241.07C138.516 241.799 138.411 242.456 138.203 243.039C138 243.622 137.724 244.112 137.375 244.508C137.005 244.919 136.599 245.229 136.156 245.438C135.714 245.641 135.227 245.742 134.695 245.742C134.201 245.742 133.768 245.682 133.398 245.562C133.029 245.448 132.664 245.292 132.305 245.094L132.211 245.5H130.836V233.344H132.305V237.688C132.716 237.349 133.154 237.073 133.617 236.859C134.081 236.641 134.602 236.531 135.18 236.531C136.211 236.531 137.023 236.927 137.617 237.719C138.216 238.51 138.516 239.628 138.516 241.07ZM137 241.109C137 240.068 136.828 239.279 136.484 238.742C136.141 238.201 135.586 237.93 134.82 237.93C134.393 237.93 133.961 238.023 133.523 238.211C133.086 238.393 132.68 238.63 132.305 238.922V243.922C132.721 244.109 133.078 244.24 133.375 244.312C133.677 244.385 134.018 244.422 134.398 244.422C135.211 244.422 135.846 244.156 136.305 243.625C136.768 243.089 137 242.25 137 241.109ZM148.242 241.141C148.242 242.562 147.878 243.685 147.148 244.508C146.419 245.331 145.443 245.742 144.219 245.742C142.984 245.742 142.003 245.331 141.273 244.508C140.549 243.685 140.188 242.562 140.188 241.141C140.188 239.719 140.549 238.596 141.273 237.773C142.003 236.945 142.984 236.531 144.219 236.531C145.443 236.531 146.419 236.945 147.148 237.773C147.878 238.596 148.242 239.719 148.242 241.141ZM146.727 241.141C146.727 240.01 146.505 239.172 146.062 238.625C145.62 238.073 145.005 237.797 144.219 237.797C143.422 237.797 142.802 238.073 142.359 238.625C141.922 239.172 141.703 240.01 141.703 241.141C141.703 242.234 141.924 243.065 142.367 243.633C142.81 244.195 143.427 244.477 144.219 244.477C145 244.477 145.612 244.198 146.055 243.641C146.503 243.078 146.727 242.245 146.727 241.141ZM152.094 233.344L151.758 237.867H150.695L150.359 233.344H152.094ZM162.367 236.773L157.273 248.719H155.703L157.328 245.078L153.852 236.773H155.445L158.125 243.242L160.828 236.773H162.367ZM165.867 235.312H164.211V233.789H165.867V235.312ZM165.773 245.5H164.305V236.773H165.773V245.5ZM175.133 244.953C174.643 245.188 174.177 245.37 173.734 245.5C173.297 245.63 172.831 245.695 172.336 245.695C171.706 245.695 171.128 245.604 170.602 245.422C170.076 245.234 169.625 244.953 169.25 244.578C168.87 244.203 168.576 243.729 168.367 243.156C168.159 242.583 168.055 241.914 168.055 241.148C168.055 239.721 168.445 238.602 169.227 237.789C170.013 236.977 171.049 236.57 172.336 236.57C172.836 236.57 173.326 236.641 173.805 236.781C174.289 236.922 174.732 237.094 175.133 237.297V238.93H175.055C174.607 238.581 174.143 238.312 173.664 238.125C173.19 237.938 172.727 237.844 172.273 237.844C171.44 237.844 170.781 238.125 170.297 238.688C169.818 239.245 169.578 240.065 169.578 241.148C169.578 242.201 169.812 243.01 170.281 243.578C170.755 244.141 171.419 244.422 172.273 244.422C172.57 244.422 172.872 244.383 173.18 244.305C173.487 244.227 173.763 244.125 174.008 244C174.221 243.891 174.422 243.776 174.609 243.656C174.797 243.531 174.945 243.424 175.055 243.336H175.133V244.953ZM184.32 245.5H182.852V240.531C182.852 240.13 182.828 239.755 182.781 239.406C182.734 239.052 182.648 238.776 182.523 238.578C182.393 238.359 182.206 238.198 181.961 238.094C181.716 237.984 181.398 237.93 181.008 237.93C180.607 237.93 180.188 238.029 179.75 238.227C179.312 238.424 178.893 238.677 178.492 238.984V245.5H177.023V233.344H178.492V237.742C178.951 237.362 179.424 237.065 179.914 236.852C180.404 236.638 180.906 236.531 181.422 236.531C182.365 236.531 183.083 236.815 183.578 237.383C184.073 237.951 184.32 238.768 184.32 239.836V245.5ZM193.93 245.5H192.469V244.57C192.339 244.659 192.161 244.784 191.938 244.945C191.719 245.102 191.505 245.227 191.297 245.32C191.052 245.44 190.771 245.539 190.453 245.617C190.135 245.701 189.763 245.742 189.336 245.742C188.549 245.742 187.883 245.482 187.336 244.961C186.789 244.44 186.516 243.776 186.516 242.969C186.516 242.307 186.656 241.773 186.938 241.367C187.224 240.956 187.63 240.633 188.156 240.398C188.688 240.164 189.326 240.005 190.07 239.922C190.815 239.839 191.615 239.776 192.469 239.734V239.508C192.469 239.174 192.409 238.898 192.289 238.68C192.174 238.461 192.008 238.289 191.789 238.164C191.581 238.044 191.331 237.964 191.039 237.922C190.747 237.88 190.443 237.859 190.125 237.859C189.74 237.859 189.31 237.911 188.836 238.016C188.362 238.115 187.872 238.26 187.367 238.453H187.289V236.961C187.576 236.883 187.99 236.797 188.531 236.703C189.073 236.609 189.607 236.562 190.133 236.562C190.747 236.562 191.281 236.615 191.734 236.719C192.193 236.818 192.589 236.99 192.922 237.234C193.25 237.474 193.5 237.784 193.672 238.164C193.844 238.544 193.93 239.016 193.93 239.578V245.5ZM192.469 243.352V240.922C192.021 240.948 191.492 240.987 190.883 241.039C190.279 241.091 189.799 241.167 189.445 241.266C189.023 241.385 188.682 241.573 188.422 241.828C188.161 242.078 188.031 242.424 188.031 242.867C188.031 243.367 188.182 243.745 188.484 244C188.786 244.25 189.247 244.375 189.867 244.375C190.383 244.375 190.854 244.276 191.281 244.078C191.708 243.875 192.104 243.633 192.469 243.352ZM215.117 245.5H213.648V240.531C213.648 240.156 213.63 239.794 213.594 239.445C213.562 239.096 213.492 238.818 213.383 238.609C213.263 238.385 213.091 238.216 212.867 238.102C212.643 237.987 212.32 237.93 211.898 237.93C211.487 237.93 211.076 238.034 210.664 238.242C210.253 238.445 209.841 238.706 209.43 239.023C209.445 239.143 209.458 239.284 209.469 239.445C209.479 239.602 209.484 239.758 209.484 239.914V245.5H208.016V240.531C208.016 240.146 207.997 239.781 207.961 239.438C207.93 239.089 207.859 238.81 207.75 238.602C207.63 238.378 207.458 238.211 207.234 238.102C207.01 237.987 206.688 237.93 206.266 237.93C205.865 237.93 205.461 238.029 205.055 238.227C204.654 238.424 204.253 238.677 203.852 238.984V245.5H202.383V236.773H203.852V237.742C204.31 237.362 204.766 237.065 205.219 236.852C205.677 236.638 206.164 236.531 206.68 236.531C207.273 236.531 207.776 236.656 208.188 236.906C208.604 237.156 208.914 237.503 209.117 237.945C209.711 237.445 210.253 237.086 210.742 236.867C211.232 236.643 211.755 236.531 212.312 236.531C213.271 236.531 213.977 236.823 214.43 237.406C214.888 237.984 215.117 238.794 215.117 239.836V245.5ZM224.727 245.5H223.266V244.57C223.135 244.659 222.958 244.784 222.734 244.945C222.516 245.102 222.302 245.227 222.094 245.32C221.849 245.44 221.568 245.539 221.25 245.617C220.932 245.701 220.56 245.742 220.133 245.742C219.346 245.742 218.68 245.482 218.133 244.961C217.586 244.44 217.312 243.776 217.312 242.969C217.312 242.307 217.453 241.773 217.734 241.367C218.021 240.956 218.427 240.633 218.953 240.398C219.484 240.164 220.122 240.005 220.867 239.922C221.612 239.839 222.411 239.776 223.266 239.734V239.508C223.266 239.174 223.206 238.898 223.086 238.68C222.971 238.461 222.805 238.289 222.586 238.164C222.378 238.044 222.128 237.964 221.836 237.922C221.544 237.88 221.24 237.859 220.922 237.859C220.536 237.859 220.107 237.911 219.633 238.016C219.159 238.115 218.669 238.26 218.164 238.453H218.086V236.961C218.372 236.883 218.786 236.797 219.328 236.703C219.87 236.609 220.404 236.562 220.93 236.562C221.544 236.562 222.078 236.615 222.531 236.719C222.99 236.818 223.385 236.99 223.719 237.234C224.047 237.474 224.297 237.784 224.469 238.164C224.641 238.544 224.727 239.016 224.727 239.578V245.5ZM223.266 243.352V240.922C222.818 240.948 222.289 240.987 221.68 241.039C221.076 241.091 220.596 241.167 220.242 241.266C219.82 241.385 219.479 241.573 219.219 241.828C218.958 242.078 218.828 242.424 218.828 242.867C218.828 243.367 218.979 243.745 219.281 244C219.583 244.25 220.044 244.375 220.664 244.375C221.18 244.375 221.651 244.276 222.078 244.078C222.505 243.875 222.901 243.633 223.266 243.352ZM233.789 242.984C233.789 243.781 233.458 244.435 232.797 244.945C232.141 245.456 231.242 245.711 230.102 245.711C229.456 245.711 228.862 245.635 228.32 245.484C227.784 245.328 227.333 245.159 226.969 244.977V243.328H227.047C227.51 243.677 228.026 243.956 228.594 244.164C229.161 244.367 229.706 244.469 230.227 244.469C230.872 244.469 231.378 244.365 231.742 244.156C232.107 243.948 232.289 243.62 232.289 243.172C232.289 242.828 232.19 242.568 231.992 242.391C231.794 242.214 231.414 242.062 230.852 241.938C230.643 241.891 230.37 241.836 230.031 241.773C229.698 241.711 229.393 241.643 229.117 241.57C228.352 241.367 227.807 241.07 227.484 240.68C227.167 240.284 227.008 239.799 227.008 239.227C227.008 238.867 227.081 238.529 227.227 238.211C227.378 237.893 227.604 237.609 227.906 237.359C228.198 237.115 228.568 236.922 229.016 236.781C229.469 236.635 229.974 236.562 230.531 236.562C231.052 236.562 231.578 236.628 232.109 236.758C232.646 236.883 233.091 237.036 233.445 237.219V238.789H233.367C232.992 238.513 232.536 238.281 232 238.094C231.464 237.901 230.938 237.805 230.422 237.805C229.885 237.805 229.432 237.909 229.062 238.117C228.693 238.32 228.508 238.625 228.508 239.031C228.508 239.391 228.62 239.661 228.844 239.844C229.062 240.026 229.417 240.174 229.906 240.289C230.177 240.352 230.479 240.414 230.812 240.477C231.151 240.539 231.432 240.596 231.656 240.648C232.339 240.805 232.865 241.073 233.234 241.453C233.604 241.839 233.789 242.349 233.789 242.984ZM237.383 245.5H235.914V233.344H237.383V245.5ZM247.07 245.5H245.609V244.57C245.479 244.659 245.302 244.784 245.078 244.945C244.859 245.102 244.646 245.227 244.438 245.32C244.193 245.44 243.911 245.539 243.594 245.617C243.276 245.701 242.904 245.742 242.477 245.742C241.69 245.742 241.023 245.482 240.477 244.961C239.93 244.44 239.656 243.776 239.656 242.969C239.656 242.307 239.797 241.773 240.078 241.367C240.365 240.956 240.771 240.633 241.297 240.398C241.828 240.164 242.466 240.005 243.211 239.922C243.956 239.839 244.755 239.776 245.609 239.734V239.508C245.609 239.174 245.549 238.898 245.43 238.68C245.315 238.461 245.148 238.289 244.93 238.164C244.721 238.044 244.471 237.964 244.18 237.922C243.888 237.88 243.583 237.859 243.266 237.859C242.88 237.859 242.451 237.911 241.977 238.016C241.503 238.115 241.013 238.26 240.508 238.453H240.43V236.961C240.716 236.883 241.13 236.797 241.672 236.703C242.214 236.609 242.747 236.562 243.273 236.562C243.888 236.562 244.422 236.615 244.875 236.719C245.333 236.818 245.729 236.99 246.062 237.234C246.391 237.474 246.641 237.784 246.812 238.164C246.984 238.544 247.07 239.016 247.07 239.578V245.5ZM245.609 243.352V240.922C245.161 240.948 244.633 240.987 244.023 241.039C243.419 241.091 242.94 241.167 242.586 241.266C242.164 241.385 241.823 241.573 241.562 241.828C241.302 242.078 241.172 242.424 241.172 242.867C241.172 243.367 241.323 243.745 241.625 244C241.927 244.25 242.388 244.375 243.008 244.375C243.523 244.375 243.995 244.276 244.422 244.078C244.849 243.875 245.245 243.633 245.609 243.352ZM257.195 245.5H255.727V240.531C255.727 240.13 255.703 239.755 255.656 239.406C255.609 239.052 255.523 238.776 255.398 238.578C255.268 238.359 255.081 238.198 254.836 238.094C254.591 237.984 254.273 237.93 253.883 237.93C253.482 237.93 253.062 238.029 252.625 238.227C252.188 238.424 251.768 238.677 251.367 238.984V245.5H249.898V233.344H251.367V237.742C251.826 237.362 252.299 237.065 252.789 236.852C253.279 236.638 253.781 236.531 254.297 236.531C255.24 236.531 255.958 236.815 256.453 237.383C256.948 237.951 257.195 238.768 257.195 239.836V245.5ZM266.805 245.5H265.344V244.57C265.214 244.659 265.036 244.784 264.812 244.945C264.594 245.102 264.38 245.227 264.172 245.32C263.927 245.44 263.646 245.539 263.328 245.617C263.01 245.701 262.638 245.742 262.211 245.742C261.424 245.742 260.758 245.482 260.211 244.961C259.664 244.44 259.391 243.776 259.391 242.969C259.391 242.307 259.531 241.773 259.812 241.367C260.099 240.956 260.505 240.633 261.031 240.398C261.562 240.164 262.201 240.005 262.945 239.922C263.69 239.839 264.49 239.776 265.344 239.734V239.508C265.344 239.174 265.284 238.898 265.164 238.68C265.049 238.461 264.883 238.289 264.664 238.164C264.456 238.044 264.206 237.964 263.914 237.922C263.622 237.88 263.318 237.859 263 237.859C262.615 237.859 262.185 237.911 261.711 238.016C261.237 238.115 260.747 238.26 260.242 238.453H260.164V236.961C260.451 236.883 260.865 236.797 261.406 236.703C261.948 236.609 262.482 236.562 263.008 236.562C263.622 236.562 264.156 236.615 264.609 236.719C265.068 236.818 265.464 236.99 265.797 237.234C266.125 237.474 266.375 237.784 266.547 238.164C266.719 238.544 266.805 239.016 266.805 239.578V245.5ZM265.344 243.352V240.922C264.896 240.948 264.367 240.987 263.758 241.039C263.154 241.091 262.674 241.167 262.32 241.266C261.898 241.385 261.557 241.573 261.297 241.828C261.036 242.078 260.906 242.424 260.906 242.867C260.906 243.367 261.057 243.745 261.359 244C261.661 244.25 262.122 244.375 262.742 244.375C263.258 244.375 263.729 244.276 264.156 244.078C264.583 243.875 264.979 243.633 265.344 243.352ZM274.164 245.422C273.888 245.495 273.586 245.555 273.258 245.602C272.935 245.648 272.646 245.672 272.391 245.672C271.5 245.672 270.823 245.432 270.359 244.953C269.896 244.474 269.664 243.706 269.664 242.648V238.008H268.672V236.773H269.664V234.266H271.133V236.773H274.164V238.008H271.133V241.984C271.133 242.443 271.143 242.802 271.164 243.062C271.185 243.318 271.258 243.557 271.383 243.781C271.497 243.99 271.654 244.143 271.852 244.242C272.055 244.336 272.362 244.383 272.773 244.383C273.013 244.383 273.263 244.349 273.523 244.281C273.784 244.208 273.971 244.148 274.086 244.102H274.164V245.422Z" fill="#333333"/>
<path d="M30 285L37.5 292.5L50 277.5" stroke="#61B857" stroke-width="2" stroke-linecap="round" stroke-linejoin="round"/>
<path d="M72.2266 291.5H64.5625V279.867H72.2266V281.242H66.1094V284.43H72.2266V285.805H66.1094V290.125H72.2266V291.5ZM82.4922 291.5H80.5547L77.0547 287.68L76.1016 288.586V291.5H74.6328V279.344H76.1016V287.141L80.3438 282.773H82.1953L78.1406 286.805L82.4922 291.5ZM90.2734 288.984C90.2734 289.781 89.9427 290.435 89.2812 290.945C88.625 291.456 87.7266 291.711 86.5859 291.711C85.9401 291.711 85.3464 291.635 84.8047 291.484C84.2682 291.328 83.8177 291.159 83.4531 290.977V289.328H83.5312C83.9948 289.677 84.5104 289.956 85.0781 290.164C85.6458 290.367 86.1901 290.469 86.7109 290.469C87.3568 290.469 87.862 290.365 88.2266 290.156C88.5911 289.948 88.7734 289.62 88.7734 289.172C88.7734 288.828 88.6745 288.568 88.4766 288.391C88.2786 288.214 87.8984 288.062 87.3359 287.938C87.1276 287.891 86.8542 287.836 86.5156 287.773C86.1823 287.711 85.8776 287.643 85.6016 287.57C84.8359 287.367 84.2917 287.07 83.9688 286.68C83.651 286.284 83.4922 285.799 83.4922 285.227C83.4922 284.867 83.5651 284.529 83.7109 284.211C83.862 283.893 84.0885 283.609 84.3906 283.359C84.6823 283.115 85.0521 282.922 85.5 282.781C85.9531 282.635 86.4583 282.562 87.0156 282.562C87.5365 282.562 88.0625 282.628 88.5938 282.758C89.1302 282.883 89.5755 283.036 89.9297 283.219V284.789H89.8516C89.4766 284.513 89.0208 284.281 88.4844 284.094C87.9479 283.901 87.4219 283.805 86.9062 283.805C86.3698 283.805 85.9167 283.909 85.5469 284.117C85.1771 284.32 84.9922 284.625 84.9922 285.031C84.9922 285.391 85.1042 285.661 85.3281 285.844C85.5469 286.026 85.901 286.174 86.3906 286.289C86.6615 286.352 86.9635 286.414 87.2969 286.477C87.6354 286.539 87.9167 286.596 88.1406 286.648C88.8229 286.805 89.349 287.073 89.7188 287.453C90.0885 287.839 90.2734 288.349 90.2734 288.984ZM100.062 287.031C100.062 287.74 99.9609 288.388 99.7578 288.977C99.5547 289.56 99.2682 290.055 98.8984 290.461C98.5547 290.846 98.1484 291.146 97.6797 291.359C97.2161 291.568 96.724 291.672 96.2031 291.672C95.75 291.672 95.3385 291.622 94.9688 291.523C94.6042 291.424 94.2318 291.271 93.8516 291.062V294.719H92.3828V282.773H93.8516V283.688C94.2422 283.359 94.6797 283.086 95.1641 282.867C95.6536 282.643 96.1745 282.531 96.7266 282.531C97.7786 282.531 98.5964 282.93 99.1797 283.727C99.7682 284.518 100.062 285.62 100.062 287.031ZM98.5469 287.07C98.5469 286.018 98.3672 285.232 98.0078 284.711C97.6484 284.19 97.0964 283.93 96.3516 283.93C95.9297 283.93 95.5052 284.021 95.0781 284.203C94.651 284.385 94.2422 284.625 93.8516 284.922V289.867C94.2682 290.055 94.625 290.182 94.9219 290.25C95.224 290.318 95.5651 290.352 95.9453 290.352C96.763 290.352 97.401 290.076 97.8594 289.523C98.3177 288.971 98.5469 288.154 98.5469 287.07ZM109.789 287.141C109.789 288.562 109.424 289.685 108.695 290.508C107.966 291.331 106.99 291.742 105.766 291.742C104.531 291.742 103.549 291.331 102.82 290.508C102.096 289.685 101.734 288.562 101.734 287.141C101.734 285.719 102.096 284.596 102.82 283.773C103.549 282.945 104.531 282.531 105.766 282.531C106.99 282.531 107.966 282.945 108.695 283.773C109.424 284.596 109.789 285.719 109.789 287.141ZM108.273 287.141C108.273 286.01 108.052 285.172 107.609 284.625C107.167 284.073 106.552 283.797 105.766 283.797C104.969 283.797 104.349 284.073 103.906 284.625C103.469 285.172 103.25 286.01 103.25 287.141C103.25 288.234 103.471 289.065 103.914 289.633C104.357 290.195 104.974 290.477 105.766 290.477C106.547 290.477 107.159 290.198 107.602 289.641C108.049 289.078 108.273 288.245 108.273 287.141ZM117.516 284.375H117.438C117.219 284.323 117.005 284.286 116.797 284.266C116.594 284.24 116.352 284.227 116.07 284.227C115.617 284.227 115.18 284.328 114.758 284.531C114.336 284.729 113.93 284.987 113.539 285.305V291.5H112.07V282.773H113.539V284.062C114.122 283.594 114.635 283.263 115.078 283.07C115.526 282.872 115.982 282.773 116.445 282.773C116.701 282.773 116.885 282.781 117 282.797C117.115 282.807 117.286 282.831 117.516 282.867V284.375ZM123.43 291.422C123.154 291.495 122.852 291.555 122.523 291.602C122.201 291.648 121.911 291.672 121.656 291.672C120.766 291.672 120.089 291.432 119.625 290.953C119.161 290.474 118.93 289.706 118.93 288.648V284.008H117.938V282.773H118.93V280.266H120.398V282.773H123.43V284.008H120.398V287.984C120.398 288.443 120.409 288.802 120.43 289.062C120.451 289.318 120.523 289.557 120.648 289.781C120.763 289.99 120.919 290.143 121.117 290.242C121.32 290.336 121.628 290.383 122.039 290.383C122.279 290.383 122.529 290.349 122.789 290.281C123.049 290.208 123.237 290.148 123.352 290.102H123.43V291.422ZM132.289 290.508C132.289 291.987 131.953 293.073 131.281 293.766C130.609 294.458 129.576 294.805 128.18 294.805C127.716 294.805 127.263 294.771 126.82 294.703C126.383 294.641 125.951 294.549 125.523 294.43V292.93H125.602C125.841 293.023 126.221 293.138 126.742 293.273C127.263 293.414 127.784 293.484 128.305 293.484C128.805 293.484 129.219 293.424 129.547 293.305C129.875 293.185 130.13 293.018 130.312 292.805C130.495 292.602 130.625 292.357 130.703 292.07C130.781 291.784 130.82 291.464 130.82 291.109V290.312C130.378 290.667 129.953 290.932 129.547 291.109C129.146 291.281 128.633 291.367 128.008 291.367C126.966 291.367 126.138 290.992 125.523 290.242C124.914 289.487 124.609 288.424 124.609 287.055C124.609 286.305 124.714 285.659 124.922 285.117C125.135 284.57 125.424 284.099 125.789 283.703C126.128 283.333 126.539 283.047 127.023 282.844C127.508 282.635 127.99 282.531 128.469 282.531C128.974 282.531 129.396 282.583 129.734 282.688C130.078 282.786 130.44 282.94 130.82 283.148L130.914 282.773H132.289V290.508ZM130.82 289.102V284.344C130.43 284.167 130.065 284.042 129.727 283.969C129.393 283.891 129.06 283.852 128.727 283.852C127.919 283.852 127.284 284.122 126.82 284.664C126.357 285.206 126.125 285.992 126.125 287.023C126.125 288.003 126.297 288.745 126.641 289.25C126.984 289.755 127.555 290.008 128.352 290.008C128.779 290.008 129.206 289.927 129.633 289.766C130.065 289.599 130.461 289.378 130.82 289.102ZM141.961 291.5H140.5V290.57C140.37 290.659 140.193 290.784 139.969 290.945C139.75 291.102 139.536 291.227 139.328 291.32C139.083 291.44 138.802 291.539 138.484 291.617C138.167 291.701 137.794 291.742 137.367 291.742C136.581 291.742 135.914 291.482 135.367 290.961C134.82 290.44 134.547 289.776 134.547 288.969C134.547 288.307 134.688 287.773 134.969 287.367C135.255 286.956 135.661 286.633 136.188 286.398C136.719 286.164 137.357 286.005 138.102 285.922C138.846 285.839 139.646 285.776 140.5 285.734V285.508C140.5 285.174 140.44 284.898 140.32 284.68C140.206 284.461 140.039 284.289 139.82 284.164C139.612 284.044 139.362 283.964 139.07 283.922C138.779 283.88 138.474 283.859 138.156 283.859C137.771 283.859 137.341 283.911 136.867 284.016C136.393 284.115 135.904 284.26 135.398 284.453H135.32V282.961C135.607 282.883 136.021 282.797 136.562 282.703C137.104 282.609 137.638 282.562 138.164 282.562C138.779 282.562 139.312 282.615 139.766 282.719C140.224 282.818 140.62 282.99 140.953 283.234C141.281 283.474 141.531 283.784 141.703 284.164C141.875 284.544 141.961 285.016 141.961 285.578V291.5ZM140.5 289.352V286.922C140.052 286.948 139.523 286.987 138.914 287.039C138.31 287.091 137.831 287.167 137.477 287.266C137.055 287.385 136.714 287.573 136.453 287.828C136.193 288.078 136.062 288.424 136.062 288.867C136.062 289.367 136.214 289.745 136.516 290C136.818 290.25 137.279 290.375 137.898 290.375C138.414 290.375 138.885 290.276 139.312 290.078C139.74 289.875 140.135 289.633 140.5 289.352ZM154.945 291.422C154.669 291.495 154.367 291.555 154.039 291.602C153.716 291.648 153.427 291.672 153.172 291.672C152.281 291.672 151.604 291.432 151.141 290.953C150.677 290.474 150.445 289.706 150.445 288.648V284.008H149.453V282.773H150.445V280.266H151.914V282.773H154.945V284.008H151.914V287.984C151.914 288.443 151.924 288.802 151.945 289.062C151.966 289.318 152.039 289.557 152.164 289.781C152.279 289.99 152.435 290.143 152.633 290.242C152.836 290.336 153.143 290.383 153.555 290.383C153.794 290.383 154.044 290.349 154.305 290.281C154.565 290.208 154.753 290.148 154.867 290.102H154.945V291.422ZM163.508 291.5H162.047V290.57C161.917 290.659 161.74 290.784 161.516 290.945C161.297 291.102 161.083 291.227 160.875 291.32C160.63 291.44 160.349 291.539 160.031 291.617C159.714 291.701 159.341 291.742 158.914 291.742C158.128 291.742 157.461 291.482 156.914 290.961C156.367 290.44 156.094 289.776 156.094 288.969C156.094 288.307 156.234 287.773 156.516 287.367C156.802 286.956 157.208 286.633 157.734 286.398C158.266 286.164 158.904 286.005 159.648 285.922C160.393 285.839 161.193 285.776 162.047 285.734V285.508C162.047 285.174 161.987 284.898 161.867 284.68C161.753 284.461 161.586 284.289 161.367 284.164C161.159 284.044 160.909 283.964 160.617 283.922C160.326 283.88 160.021 283.859 159.703 283.859C159.318 283.859 158.888 283.911 158.414 284.016C157.94 284.115 157.451 284.26 156.945 284.453H156.867V282.961C157.154 282.883 157.568 282.797 158.109 282.703C158.651 282.609 159.185 282.562 159.711 282.562C160.326 282.562 160.859 282.615 161.312 282.719C161.771 282.818 162.167 282.99 162.5 283.234C162.828 283.474 163.078 283.784 163.25 284.164C163.422 284.544 163.508 285.016 163.508 285.578V291.5ZM162.047 289.352V286.922C161.599 286.948 161.07 286.987 160.461 287.039C159.857 287.091 159.378 287.167 159.023 287.266C158.602 287.385 158.26 287.573 158 287.828C157.74 288.078 157.609 288.424 157.609 288.867C157.609 289.367 157.76 289.745 158.062 290C158.365 290.25 158.826 290.375 159.445 290.375C159.961 290.375 160.432 290.276 160.859 290.078C161.286 289.875 161.682 289.633 162.047 289.352ZM173.758 282.773L168.664 294.719H167.094L168.719 291.078L165.242 282.773H166.836L169.516 289.242L172.219 282.773H173.758ZM183.227 282.773L178.133 294.719H176.562L178.188 291.078L174.711 282.773H176.305L178.984 289.242L181.688 282.773H183.227ZM192.445 287.141C192.445 288.562 192.081 289.685 191.352 290.508C190.622 291.331 189.646 291.742 188.422 291.742C187.188 291.742 186.206 291.331 185.477 290.508C184.753 289.685 184.391 288.562 184.391 287.141C184.391 285.719 184.753 284.596 185.477 283.773C186.206 282.945 187.188 282.531 188.422 282.531C189.646 282.531 190.622 282.945 191.352 283.773C192.081 284.596 192.445 285.719 192.445 287.141ZM190.93 287.141C190.93 286.01 190.708 285.172 190.266 284.625C189.823 284.073 189.208 283.797 188.422 283.797C187.625 283.797 187.005 284.073 186.562 284.625C186.125 285.172 185.906 286.01 185.906 287.141C185.906 288.234 186.128 289.065 186.57 289.633C187.013 290.195 187.63 290.477 188.422 290.477C189.203 290.477 189.815 290.198 190.258 289.641C190.706 289.078 190.93 288.245 190.93 287.141ZM200.172 284.375H200.094C199.875 284.323 199.661 284.286 199.453 284.266C199.25 284.24 199.008 284.227 198.727 284.227C198.273 284.227 197.836 284.328 197.414 284.531C196.992 284.729 196.586 284.987 196.195 285.305V291.5H194.727V282.773H196.195V284.062C196.779 283.594 197.292 283.263 197.734 283.07C198.182 282.872 198.638 282.773 199.102 282.773C199.357 282.773 199.542 282.781 199.656 282.797C199.771 282.807 199.943 282.831 200.172 282.867V284.375ZM208.633 290.508C208.633 291.987 208.297 293.073 207.625 293.766C206.953 294.458 205.919 294.805 204.523 294.805C204.06 294.805 203.607 294.771 203.164 294.703C202.727 294.641 202.294 294.549 201.867 294.43V292.93H201.945C202.185 293.023 202.565 293.138 203.086 293.273C203.607 293.414 204.128 293.484 204.648 293.484C205.148 293.484 205.562 293.424 205.891 293.305C206.219 293.185 206.474 293.018 206.656 292.805C206.839 292.602 206.969 292.357 207.047 292.07C207.125 291.784 207.164 291.464 207.164 291.109V290.312C206.721 290.667 206.297 290.932 205.891 291.109C205.49 291.281 204.977 291.367 204.352 291.367C203.31 291.367 202.482 290.992 201.867 290.242C201.258 289.487 200.953 288.424 200.953 287.055C200.953 286.305 201.057 285.659 201.266 285.117C201.479 284.57 201.768 284.099 202.133 283.703C202.471 283.333 202.883 283.047 203.367 282.844C203.852 282.635 204.333 282.531 204.812 282.531C205.318 282.531 205.74 282.583 206.078 282.688C206.422 282.786 206.784 282.94 207.164 283.148L207.258 282.773H208.633V290.508ZM207.164 289.102V284.344C206.773 284.167 206.409 284.042 206.07 283.969C205.737 283.891 205.404 283.852 205.07 283.852C204.263 283.852 203.628 284.122 203.164 284.664C202.701 285.206 202.469 285.992 202.469 287.023C202.469 288.003 202.641 288.745 202.984 289.25C203.328 289.755 203.898 290.008 204.695 290.008C205.122 290.008 205.549 289.927 205.977 289.766C206.409 289.599 206.805 289.378 207.164 289.102ZM218.305 291.5H216.844V290.57C216.714 290.659 216.536 290.784 216.312 290.945C216.094 291.102 215.88 291.227 215.672 291.32C215.427 291.44 215.146 291.539 214.828 291.617C214.51 291.701 214.138 291.742 213.711 291.742C212.924 291.742 212.258 291.482 211.711 290.961C211.164 290.44 210.891 289.776 210.891 288.969C210.891 288.307 211.031 287.773 211.312 287.367C211.599 286.956 212.005 286.633 212.531 286.398C213.062 286.164 213.701 286.005 214.445 285.922C215.19 285.839 215.99 285.776 216.844 285.734V285.508C216.844 285.174 216.784 284.898 216.664 284.68C216.549 284.461 216.383 284.289 216.164 284.164C215.956 284.044 215.706 283.964 215.414 283.922C215.122 283.88 214.818 283.859 214.5 283.859C214.115 283.859 213.685 283.911 213.211 284.016C212.737 284.115 212.247 284.26 211.742 284.453H211.664V282.961C211.951 282.883 212.365 282.797 212.906 282.703C213.448 282.609 213.982 282.562 214.508 282.562C215.122 282.562 215.656 282.615 216.109 282.719C216.568 282.818 216.964 282.99 217.297 283.234C217.625 283.474 217.875 283.784 218.047 284.164C218.219 284.544 218.305 285.016 218.305 285.578V291.5ZM216.844 289.352V286.922C216.396 286.948 215.867 286.987 215.258 287.039C214.654 287.091 214.174 287.167 213.82 287.266C213.398 287.385 213.057 287.573 212.797 287.828C212.536 288.078 212.406 288.424 212.406 288.867C212.406 289.367 212.557 289.745 212.859 290C213.161 290.25 213.622 290.375 214.242 290.375C214.758 290.375 215.229 290.276 215.656 290.078C216.083 289.875 216.479 289.633 216.844 289.352ZM226.578 284.375H226.5C226.281 284.323 226.068 284.286 225.859 284.266C225.656 284.24 225.414 284.227 225.133 284.227C224.68 284.227 224.242 284.328 223.82 284.531C223.398 284.729 222.992 284.987 222.602 285.305V291.5H221.133V282.773H222.602V284.062C223.185 283.594 223.698 283.263 224.141 283.07C224.589 282.872 225.044 282.773 225.508 282.773C225.763 282.773 225.948 282.781 226.062 282.797C226.177 282.807 226.349 282.831 226.578 282.867V284.375ZM229.445 291.5H227.977V279.344H229.445V291.5ZM233.93 281.312H232.273V279.789H233.93V281.312ZM233.836 291.5H232.367V282.773H233.836V291.5ZM244.664 291.5H242.727L239.227 287.68L238.273 288.586V291.5H236.805V279.344H238.273V287.141L242.516 282.773H244.367L240.312 286.805L244.664 291.5Z" fill="#333333"/>
<path d="M30 331L37.5 338.5L50 323.5" stroke="#61B857" stroke-width="2" stroke-linecap="round" stroke-linejoin="round"/>
<path d="M73.0156 334.18C73.0156 334.633 72.9089 335.081 72.6953 335.523C72.487 335.966 72.1927 336.341 71.8125 336.648C71.3958 336.982 70.9089 337.242 70.3516 337.43C69.7995 337.617 69.1328 337.711 68.3516 337.711C67.513 337.711 66.7578 337.633 66.0859 337.477C65.4193 337.32 64.7396 337.089 64.0469 336.781V334.844H64.1562C64.7448 335.333 65.4245 335.711 66.1953 335.977C66.9661 336.242 67.6901 336.375 68.3672 336.375C69.3255 336.375 70.0703 336.195 70.6016 335.836C71.138 335.477 71.4062 334.997 71.4062 334.398C71.4062 333.883 71.2786 333.503 71.0234 333.258C70.7734 333.013 70.3906 332.823 69.875 332.688C69.4844 332.583 69.0599 332.497 68.6016 332.43C68.1484 332.362 67.6667 332.276 67.1562 332.172C66.125 331.953 65.3594 331.581 64.8594 331.055C64.3646 330.523 64.1172 329.833 64.1172 328.984C64.1172 328.01 64.5286 327.214 65.3516 326.594C66.1745 325.969 67.2188 325.656 68.4844 325.656C69.3021 325.656 70.0521 325.734 70.7344 325.891C71.4167 326.047 72.0208 326.24 72.5469 326.469V328.297H72.4375C71.9948 327.922 71.4115 327.612 70.6875 327.367C69.9688 327.117 69.2318 326.992 68.4766 326.992C67.6484 326.992 66.9818 327.164 66.4766 327.508C65.9766 327.852 65.7266 328.294 65.7266 328.836C65.7266 329.32 65.8516 329.701 66.1016 329.977C66.3516 330.253 66.7917 330.464 67.4219 330.609C67.7552 330.682 68.2292 330.771 68.8438 330.875C69.4583 330.979 69.9792 331.086 70.4062 331.195C71.2708 331.424 71.9219 331.771 72.3594 332.234C72.7969 332.698 73.0156 333.346 73.0156 334.18ZM82.6875 333.289H76.2578C76.2578 333.826 76.3385 334.294 76.5 334.695C76.6615 335.091 76.8828 335.417 77.1641 335.672C77.4349 335.922 77.7552 336.109 78.125 336.234C78.5 336.359 78.9115 336.422 79.3594 336.422C79.9531 336.422 80.5495 336.305 81.1484 336.07C81.7526 335.831 82.1823 335.596 82.4375 335.367H82.5156V336.969C82.0208 337.177 81.5156 337.352 81 337.492C80.4844 337.633 79.9427 337.703 79.375 337.703C77.9271 337.703 76.7969 337.312 75.9844 336.531C75.1719 335.745 74.7656 334.63 74.7656 333.188C74.7656 331.76 75.1536 330.628 75.9297 329.789C76.7109 328.951 77.737 328.531 79.0078 328.531C80.1849 328.531 81.0911 328.875 81.7266 329.562C82.3672 330.25 82.6875 331.227 82.6875 332.492V333.289ZM81.2578 332.164C81.2526 331.393 81.0573 330.797 80.6719 330.375C80.2917 329.953 79.7109 329.742 78.9297 329.742C78.1432 329.742 77.5156 329.974 77.0469 330.438C76.5833 330.901 76.3203 331.477 76.2578 332.164H81.2578ZM90.3594 330.375H90.2812C90.0625 330.323 89.849 330.286 89.6406 330.266C89.4375 330.24 89.1953 330.227 88.9141 330.227C88.4609 330.227 88.0234 330.328 87.6016 330.531C87.1797 330.729 86.7734 330.987 86.3828 331.305V337.5H84.9141V328.773H86.3828V330.062C86.9661 329.594 87.4792 329.263 87.9219 329.07C88.3698 328.872 88.8255 328.773 89.2891 328.773C89.5443 328.773 89.7292 328.781 89.8438 328.797C89.9583 328.807 90.1302 328.831 90.3594 328.867V330.375ZM96.2734 337.422C95.9974 337.495 95.6953 337.555 95.3672 337.602C95.0443 337.648 94.7552 337.672 94.5 337.672C93.6094 337.672 92.9323 337.432 92.4688 336.953C92.0052 336.474 91.7734 335.706 91.7734 334.648V330.008H90.7812V328.773H91.7734V326.266H93.2422V328.773H96.2734V330.008H93.2422V333.984C93.2422 334.443 93.2526 334.802 93.2734 335.062C93.2943 335.318 93.3672 335.557 93.4922 335.781C93.6068 335.99 93.763 336.143 93.9609 336.242C94.1641 336.336 94.4714 336.383 94.8828 336.383C95.1224 336.383 95.3724 336.349 95.6328 336.281C95.8932 336.208 96.0807 336.148 96.1953 336.102H96.2734V337.422ZM99.6328 327.312H97.9766V325.789H99.6328V327.312ZM99.5391 337.5H98.0703V328.773H99.5391V337.5ZM107.141 326.766H107.062C106.901 326.719 106.69 326.672 106.43 326.625C106.169 326.573 105.94 326.547 105.742 326.547C105.112 326.547 104.654 326.688 104.367 326.969C104.086 327.245 103.945 327.747 103.945 328.477V328.773H106.594V330.008H103.992V337.5H102.523V330.008H101.531V328.773H102.523V328.484C102.523 327.448 102.781 326.654 103.297 326.102C103.812 325.544 104.557 325.266 105.531 325.266C105.859 325.266 106.154 325.281 106.414 325.312C106.68 325.344 106.922 325.38 107.141 325.422V326.766ZM109.648 327.312H107.992V325.789H109.648V327.312ZM109.555 337.5H108.086V328.773H109.555V337.5ZM120.383 337.5H118.445L114.945 333.68L113.992 334.586V337.5H112.523V325.344H113.992V333.141L118.234 328.773H120.086L116.031 332.805L120.383 337.5ZM128.711 337.5H127.25V336.57C127.12 336.659 126.943 336.784 126.719 336.945C126.5 337.102 126.286 337.227 126.078 337.32C125.833 337.44 125.552 337.539 125.234 337.617C124.917 337.701 124.544 337.742 124.117 337.742C123.331 337.742 122.664 337.482 122.117 336.961C121.57 336.44 121.297 335.776 121.297 334.969C121.297 334.307 121.438 333.773 121.719 333.367C122.005 332.956 122.411 332.633 122.938 332.398C123.469 332.164 124.107 332.005 124.852 331.922C125.596 331.839 126.396 331.776 127.25 331.734V331.508C127.25 331.174 127.19 330.898 127.07 330.68C126.956 330.461 126.789 330.289 126.57 330.164C126.362 330.044 126.112 329.964 125.82 329.922C125.529 329.88 125.224 329.859 124.906 329.859C124.521 329.859 124.091 329.911 123.617 330.016C123.143 330.115 122.654 330.26 122.148 330.453H122.07V328.961C122.357 328.883 122.771 328.797 123.312 328.703C123.854 328.609 124.388 328.562 124.914 328.562C125.529 328.562 126.062 328.615 126.516 328.719C126.974 328.818 127.37 328.99 127.703 329.234C128.031 329.474 128.281 329.784 128.453 330.164C128.625 330.544 128.711 331.016 128.711 331.578V337.5ZM127.25 335.352V332.922C126.802 332.948 126.273 332.987 125.664 333.039C125.06 333.091 124.581 333.167 124.227 333.266C123.805 333.385 123.464 333.573 123.203 333.828C122.943 334.078 122.812 334.424 122.812 334.867C122.812 335.367 122.964 335.745 123.266 336C123.568 336.25 124.029 336.375 124.648 336.375C125.164 336.375 125.635 336.276 126.062 336.078C126.49 335.875 126.885 335.633 127.25 335.352ZM136.07 337.422C135.794 337.495 135.492 337.555 135.164 337.602C134.841 337.648 134.552 337.672 134.297 337.672C133.406 337.672 132.729 337.432 132.266 336.953C131.802 336.474 131.57 335.706 131.57 334.648V330.008H130.578V328.773H131.57V326.266H133.039V328.773H136.07V330.008H133.039V333.984C133.039 334.443 133.049 334.802 133.07 335.062C133.091 335.318 133.164 335.557 133.289 335.781C133.404 335.99 133.56 336.143 133.758 336.242C133.961 336.336 134.268 336.383 134.68 336.383C134.919 336.383 135.169 336.349 135.43 336.281C135.69 336.208 135.878 336.148 135.992 336.102H136.07V337.422ZM139.336 337.5H137.867V325.344H139.336V337.5ZM149.023 337.5H147.562V336.57C147.432 336.659 147.255 336.784 147.031 336.945C146.812 337.102 146.599 337.227 146.391 337.32C146.146 337.44 145.865 337.539 145.547 337.617C145.229 337.701 144.857 337.742 144.43 337.742C143.643 337.742 142.977 337.482 142.43 336.961C141.883 336.44 141.609 335.776 141.609 334.969C141.609 334.307 141.75 333.773 142.031 333.367C142.318 332.956 142.724 332.633 143.25 332.398C143.781 332.164 144.419 332.005 145.164 331.922C145.909 331.839 146.708 331.776 147.562 331.734V331.508C147.562 331.174 147.503 330.898 147.383 330.68C147.268 330.461 147.102 330.289 146.883 330.164C146.674 330.044 146.424 329.964 146.133 329.922C145.841 329.88 145.536 329.859 145.219 329.859C144.833 329.859 144.404 329.911 143.93 330.016C143.456 330.115 142.966 330.26 142.461 330.453H142.383V328.961C142.669 328.883 143.083 328.797 143.625 328.703C144.167 328.609 144.701 328.562 145.227 328.562C145.841 328.562 146.375 328.615 146.828 328.719C147.286 328.818 147.682 328.99 148.016 329.234C148.344 329.474 148.594 329.784 148.766 330.164C148.938 330.544 149.023 331.016 149.023 331.578V337.5ZM147.562 335.352V332.922C147.115 332.948 146.586 332.987 145.977 333.039C145.372 333.091 144.893 333.167 144.539 333.266C144.117 333.385 143.776 333.573 143.516 333.828C143.255 334.078 143.125 334.424 143.125 334.867C143.125 335.367 143.276 335.745 143.578 336C143.88 336.25 144.341 336.375 144.961 336.375C145.477 336.375 145.948 336.276 146.375 336.078C146.802 335.875 147.198 335.633 147.562 335.352ZM158.086 334.984C158.086 335.781 157.755 336.435 157.094 336.945C156.438 337.456 155.539 337.711 154.398 337.711C153.753 337.711 153.159 337.635 152.617 337.484C152.081 337.328 151.63 337.159 151.266 336.977V335.328H151.344C151.807 335.677 152.323 335.956 152.891 336.164C153.458 336.367 154.003 336.469 154.523 336.469C155.169 336.469 155.674 336.365 156.039 336.156C156.404 335.948 156.586 335.62 156.586 335.172C156.586 334.828 156.487 334.568 156.289 334.391C156.091 334.214 155.711 334.062 155.148 333.938C154.94 333.891 154.667 333.836 154.328 333.773C153.995 333.711 153.69 333.643 153.414 333.57C152.648 333.367 152.104 333.07 151.781 332.68C151.464 332.284 151.305 331.799 151.305 331.227C151.305 330.867 151.378 330.529 151.523 330.211C151.674 329.893 151.901 329.609 152.203 329.359C152.495 329.115 152.865 328.922 153.312 328.781C153.766 328.635 154.271 328.562 154.828 328.562C155.349 328.562 155.875 328.628 156.406 328.758C156.943 328.883 157.388 329.036 157.742 329.219V330.789H157.664C157.289 330.513 156.833 330.281 156.297 330.094C155.76 329.901 155.234 329.805 154.719 329.805C154.182 329.805 153.729 329.909 153.359 330.117C152.99 330.32 152.805 330.625 152.805 331.031C152.805 331.391 152.917 331.661 153.141 331.844C153.359 332.026 153.714 332.174 154.203 332.289C154.474 332.352 154.776 332.414 155.109 332.477C155.448 332.539 155.729 332.596 155.953 332.648C156.635 332.805 157.161 333.073 157.531 333.453C157.901 333.839 158.086 334.349 158.086 334.984ZM167.492 337.5H166.023V332.531C166.023 332.13 166 331.755 165.953 331.406C165.906 331.052 165.82 330.776 165.695 330.578C165.565 330.359 165.378 330.198 165.133 330.094C164.888 329.984 164.57 329.93 164.18 329.93C163.779 329.93 163.359 330.029 162.922 330.227C162.484 330.424 162.065 330.677 161.664 330.984V337.5H160.195V325.344H161.664V329.742C162.122 329.362 162.596 329.065 163.086 328.852C163.576 328.638 164.078 328.531 164.594 328.531C165.536 328.531 166.255 328.815 166.75 329.383C167.245 329.951 167.492 330.768 167.492 331.836V337.5Z" fill="#333333"/>
<path d="M30 377L37.5 384.5L50 369.5" stroke="#61B857" stroke-width="2" stroke-linecap="round" stroke-linejoin="round"/>
<path d="M73.0156 380.18C73.0156 380.633 72.9089 381.081 72.6953 381.523C72.487 381.966 72.1927 382.341 71.8125 382.648C71.3958 382.982 70.9089 383.242 70.3516 383.43C69.7995 383.617 69.1328 383.711 68.3516 383.711C67.513 383.711 66.7578 383.633 66.0859 383.477C65.4193 383.32 64.7396 383.089 64.0469 382.781V380.844H64.1562C64.7448 381.333 65.4245 381.711 66.1953 381.977C66.9661 382.242 67.6901 382.375 68.3672 382.375C69.3255 382.375 70.0703 382.195 70.6016 381.836C71.138 381.477 71.4062 380.997 71.4062 380.398C71.4062 379.883 71.2786 379.503 71.0234 379.258C70.7734 379.013 70.3906 378.823 69.875 378.688C69.4844 378.583 69.0599 378.497 68.6016 378.43C68.1484 378.362 67.6667 378.276 67.1562 378.172C66.125 377.953 65.3594 377.581 64.8594 377.055C64.3646 376.523 64.1172 375.833 64.1172 374.984C64.1172 374.01 64.5286 373.214 65.3516 372.594C66.1745 371.969 67.2188 371.656 68.4844 371.656C69.3021 371.656 70.0521 371.734 70.7344 371.891C71.4167 372.047 72.0208 372.24 72.5469 372.469V374.297H72.4375C71.9948 373.922 71.4115 373.612 70.6875 373.367C69.9688 373.117 69.2318 372.992 68.4766 372.992C67.6484 372.992 66.9818 373.164 66.4766 373.508C65.9766 373.852 65.7266 374.294 65.7266 374.836C65.7266 375.32 65.8516 375.701 66.1016 375.977C66.3516 376.253 66.7917 376.464 67.4219 376.609C67.7552 376.682 68.2292 376.771 68.8438 376.875C69.4583 376.979 69.9792 377.086 70.4062 377.195C71.2708 377.424 71.9219 377.771 72.3594 378.234C72.7969 378.698 73.0156 379.346 73.0156 380.18ZM82.1641 383.5H80.7031V382.57C80.5729 382.659 80.3958 382.784 80.1719 382.945C79.9531 383.102 79.7396 383.227 79.5312 383.32C79.2865 383.44 79.0052 383.539 78.6875 383.617C78.3698 383.701 77.9974 383.742 77.5703 383.742C76.7839 383.742 76.1172 383.482 75.5703 382.961C75.0234 382.44 74.75 381.776 74.75 380.969C74.75 380.307 74.8906 379.773 75.1719 379.367C75.4583 378.956 75.8646 378.633 76.3906 378.398C76.9219 378.164 77.5599 378.005 78.3047 377.922C79.0495 377.839 79.849 377.776 80.7031 377.734V377.508C80.7031 377.174 80.6432 376.898 80.5234 376.68C80.4089 376.461 80.2422 376.289 80.0234 376.164C79.8151 376.044 79.5651 375.964 79.2734 375.922C78.9818 375.88 78.6771 375.859 78.3594 375.859C77.974 375.859 77.5443 375.911 77.0703 376.016C76.5964 376.115 76.1068 376.26 75.6016 376.453H75.5234V374.961C75.8099 374.883 76.224 374.797 76.7656 374.703C77.3073 374.609 77.8411 374.562 78.3672 374.562C78.9818 374.562 79.5156 374.615 79.9688 374.719C80.4271 374.818 80.8229 374.99 81.1562 375.234C81.4844 375.474 81.7344 375.784 81.9062 376.164C82.0781 376.544 82.1641 377.016 82.1641 377.578V383.5ZM80.7031 381.352V378.922C80.2552 378.948 79.7266 378.987 79.1172 379.039C78.513 379.091 78.0339 379.167 77.6797 379.266C77.2578 379.385 76.9167 379.573 76.6562 379.828C76.3958 380.078 76.2656 380.424 76.2656 380.867C76.2656 381.367 76.4167 381.745 76.7188 382C77.0208 382.25 77.4818 382.375 78.1016 382.375C78.6172 382.375 79.0885 382.276 79.5156 382.078C79.9427 381.875 80.3385 381.633 80.7031 381.352ZM92.4141 374.773L88.8828 383.5H87.4062L83.8984 374.773H85.4922L88.1953 381.719L90.875 374.773H92.4141ZM101.414 383.5H99.9453V382.586C99.5234 382.951 99.0833 383.234 98.625 383.438C98.1667 383.641 97.6693 383.742 97.1328 383.742C96.0911 383.742 95.263 383.341 94.6484 382.539C94.0391 381.737 93.7344 380.625 93.7344 379.203C93.7344 378.464 93.8385 377.805 94.0469 377.227C94.2604 376.648 94.5469 376.156 94.9062 375.75C95.2604 375.354 95.6719 375.052 96.1406 374.844C96.6146 374.635 97.1042 374.531 97.6094 374.531C98.0677 374.531 98.474 374.581 98.8281 374.68C99.1823 374.773 99.5547 374.922 99.9453 375.125V371.344H101.414V383.5ZM99.9453 381.352V376.344C99.5495 376.167 99.1953 376.044 98.8828 375.977C98.5703 375.909 98.2292 375.875 97.8594 375.875C97.0365 375.875 96.3958 376.161 95.9375 376.734C95.4792 377.307 95.25 378.12 95.25 379.172C95.25 380.208 95.4271 380.997 95.7812 381.539C96.1354 382.076 96.7031 382.344 97.4844 382.344C97.901 382.344 98.3229 382.253 98.75 382.07C99.1771 381.883 99.5755 381.643 99.9453 381.352ZM111.742 379.141C111.742 380.562 111.378 381.685 110.648 382.508C109.919 383.331 108.943 383.742 107.719 383.742C106.484 383.742 105.503 383.331 104.773 382.508C104.049 381.685 103.688 380.562 103.688 379.141C103.688 377.719 104.049 376.596 104.773 375.773C105.503 374.945 106.484 374.531 107.719 374.531C108.943 374.531 109.919 374.945 110.648 375.773C111.378 376.596 111.742 377.719 111.742 379.141ZM110.227 379.141C110.227 378.01 110.005 377.172 109.562 376.625C109.12 376.073 108.505 375.797 107.719 375.797C106.922 375.797 106.302 376.073 105.859 376.625C105.422 377.172 105.203 378.01 105.203 379.141C105.203 380.234 105.424 381.065 105.867 381.633C106.31 382.195 106.927 382.477 107.719 382.477C108.5 382.477 109.112 382.198 109.555 381.641C110.003 381.078 110.227 380.245 110.227 379.141ZM127.328 379.07C127.328 379.799 127.224 380.456 127.016 381.039C126.812 381.622 126.536 382.112 126.188 382.508C125.818 382.919 125.411 383.229 124.969 383.438C124.526 383.641 124.039 383.742 123.508 383.742C123.013 383.742 122.581 383.682 122.211 383.562C121.841 383.448 121.477 383.292 121.117 383.094L121.023 383.5H119.648V371.344H121.117V375.688C121.529 375.349 121.966 375.073 122.43 374.859C122.893 374.641 123.414 374.531 123.992 374.531C125.023 374.531 125.836 374.927 126.43 375.719C127.029 376.51 127.328 377.628 127.328 379.07ZM125.812 379.109C125.812 378.068 125.641 377.279 125.297 376.742C124.953 376.201 124.398 375.93 123.633 375.93C123.206 375.93 122.773 376.023 122.336 376.211C121.898 376.393 121.492 376.63 121.117 376.922V381.922C121.534 382.109 121.891 382.24 122.188 382.312C122.49 382.385 122.831 382.422 123.211 382.422C124.023 382.422 124.659 382.156 125.117 381.625C125.581 381.089 125.812 380.25 125.812 379.109ZM137.055 379.141C137.055 380.562 136.69 381.685 135.961 382.508C135.232 383.331 134.255 383.742 133.031 383.742C131.797 383.742 130.815 383.331 130.086 382.508C129.362 381.685 129 380.562 129 379.141C129 377.719 129.362 376.596 130.086 375.773C130.815 374.945 131.797 374.531 133.031 374.531C134.255 374.531 135.232 374.945 135.961 375.773C136.69 376.596 137.055 377.719 137.055 379.141ZM135.539 379.141C135.539 378.01 135.318 377.172 134.875 376.625C134.432 376.073 133.818 375.797 133.031 375.797C132.234 375.797 131.615 376.073 131.172 376.625C130.734 377.172 130.516 378.01 130.516 379.141C130.516 380.234 130.737 381.065 131.18 381.633C131.622 382.195 132.24 382.477 133.031 382.477C133.812 382.477 134.424 382.198 134.867 381.641C135.315 381.078 135.539 380.245 135.539 379.141ZM140.906 371.344L140.57 375.867H139.508L139.172 371.344H140.906ZM145.117 383.5H143.648V371.344H145.117V383.5ZM149.602 373.312H147.945V371.789H149.602V373.312ZM149.508 383.5H148.039V374.773H149.508V383.5ZM165.148 383.5H163.68V378.531C163.68 378.156 163.661 377.794 163.625 377.445C163.594 377.096 163.523 376.818 163.414 376.609C163.294 376.385 163.122 376.216 162.898 376.102C162.674 375.987 162.352 375.93 161.93 375.93C161.518 375.93 161.107 376.034 160.695 376.242C160.284 376.445 159.872 376.706 159.461 377.023C159.477 377.143 159.49 377.284 159.5 377.445C159.51 377.602 159.516 377.758 159.516 377.914V383.5H158.047V378.531C158.047 378.146 158.029 377.781 157.992 377.438C157.961 377.089 157.891 376.81 157.781 376.602C157.661 376.378 157.49 376.211 157.266 376.102C157.042 375.987 156.719 375.93 156.297 375.93C155.896 375.93 155.492 376.029 155.086 376.227C154.685 376.424 154.284 376.677 153.883 376.984V383.5H152.414V374.773H153.883V375.742C154.341 375.362 154.797 375.065 155.25 374.852C155.708 374.638 156.195 374.531 156.711 374.531C157.305 374.531 157.807 374.656 158.219 374.906C158.635 375.156 158.945 375.503 159.148 375.945C159.742 375.445 160.284 375.086 160.773 374.867C161.263 374.643 161.786 374.531 162.344 374.531C163.302 374.531 164.008 374.823 164.461 375.406C164.919 375.984 165.148 376.794 165.148 377.836V383.5ZM169.555 373.312H167.898V371.789H169.555V373.312ZM169.461 383.5H167.992V374.773H169.461V383.5Z" fill="#333333"/>
<path d="M30 423L37.5 430.5L50 415.5" stroke="#61B857" stroke-width="2" stroke-linecap="round" stroke-linejoin="round"/>
<path d="M73.4609 429.5H71.9141V423.805H66.1094V429.5H64.5625V417.867H66.1094V422.43H71.9141V417.867H73.4609V429.5ZM83.7109 429.5H82.2422V428.531C81.7474 428.922 81.2734 429.221 80.8203 429.43C80.3672 429.638 79.8672 429.742 79.3203 429.742C78.4036 429.742 77.6901 429.464 77.1797 428.906C76.6693 428.344 76.4141 427.521 76.4141 426.438V420.773H77.8828V425.742C77.8828 426.185 77.9036 426.565 77.9453 426.883C77.987 427.195 78.0755 427.464 78.2109 427.688C78.3516 427.917 78.5339 428.083 78.7578 428.188C78.9818 428.292 79.3073 428.344 79.7344 428.344C80.1146 428.344 80.5286 428.245 80.9766 428.047C81.4297 427.849 81.8516 427.596 82.2422 427.289V420.773H83.7109V429.5ZM93.6797 432.719H92.2109V428.516C91.7578 428.906 91.3073 429.198 90.8594 429.391C90.4115 429.578 89.9271 429.672 89.4062 429.672C88.3698 429.672 87.5417 429.273 86.9219 428.477C86.3073 427.674 86 426.57 86 425.164C86 424.414 86.1068 423.753 86.3203 423.18C86.5391 422.602 86.8255 422.117 87.1797 421.727C87.5234 421.346 87.9271 421.052 88.3906 420.844C88.8542 420.635 89.3438 420.531 89.8594 420.531C90.3281 420.531 90.7422 420.583 91.1016 420.688C91.4661 420.792 91.8359 420.945 92.2109 421.148L92.3047 420.773H93.6797V432.719ZM92.2109 427.281V422.344C91.8047 422.161 91.4453 422.034 91.1328 421.961C90.8203 421.888 90.4818 421.852 90.1172 421.852C89.2682 421.852 88.6224 422.141 88.1797 422.719C87.737 423.292 87.5156 424.083 87.5156 425.094C87.5156 426.115 87.6927 426.901 88.0469 427.453C88.4062 428 88.9688 428.273 89.7344 428.273C90.1615 428.273 90.5885 428.182 91.0156 428C91.4427 427.812 91.8411 427.573 92.2109 427.281ZM103.805 429.5H102.336V428.531C101.841 428.922 101.367 429.221 100.914 429.43C100.461 429.638 99.9609 429.742 99.4141 429.742C98.4974 429.742 97.7839 429.464 97.2734 428.906C96.763 428.344 96.5078 427.521 96.5078 426.438V420.773H97.9766V425.742C97.9766 426.185 97.9974 426.565 98.0391 426.883C98.0807 427.195 98.1693 427.464 98.3047 427.688C98.4453 427.917 98.6276 428.083 98.8516 428.188C99.0755 428.292 99.401 428.344 99.8281 428.344C100.208 428.344 100.622 428.245 101.07 428.047C101.523 427.849 101.945 427.596 102.336 427.289V420.773H103.805V429.5ZM113.773 432.719H112.305V428.516C111.852 428.906 111.401 429.198 110.953 429.391C110.505 429.578 110.021 429.672 109.5 429.672C108.464 429.672 107.635 429.273 107.016 428.477C106.401 427.674 106.094 426.57 106.094 425.164C106.094 424.414 106.201 423.753 106.414 423.18C106.633 422.602 106.919 422.117 107.273 421.727C107.617 421.346 108.021 421.052 108.484 420.844C108.948 420.635 109.438 420.531 109.953 420.531C110.422 420.531 110.836 420.583 111.195 420.688C111.56 420.792 111.93 420.945 112.305 421.148L112.398 420.773H113.773V432.719ZM112.305 427.281V422.344C111.898 422.161 111.539 422.034 111.227 421.961C110.914 421.888 110.576 421.852 110.211 421.852C109.362 421.852 108.716 422.141 108.273 422.719C107.831 423.292 107.609 424.083 107.609 425.094C107.609 426.115 107.786 426.901 108.141 427.453C108.5 428 109.062 428.273 109.828 428.273C110.255 428.273 110.682 428.182 111.109 428C111.536 427.812 111.935 427.573 112.305 427.281ZM118.242 419.312H116.586V417.789H118.242V419.312ZM118.148 429.5H116.68V420.773H118.148V429.5ZM128.602 420.773L123.508 432.719H121.938L123.562 429.078L120.086 420.773H121.68L124.359 427.242L127.062 420.773H128.602ZM143.695 420.773L138.602 432.719H137.031L138.656 429.078L135.18 420.773H136.773L139.453 427.242L142.156 420.773H143.695ZM152.914 425.141C152.914 426.562 152.549 427.685 151.82 428.508C151.091 429.331 150.115 429.742 148.891 429.742C147.656 429.742 146.674 429.331 145.945 428.508C145.221 427.685 144.859 426.562 144.859 425.141C144.859 423.719 145.221 422.596 145.945 421.773C146.674 420.945 147.656 420.531 148.891 420.531C150.115 420.531 151.091 420.945 151.82 421.773C152.549 422.596 152.914 423.719 152.914 425.141ZM151.398 425.141C151.398 424.01 151.177 423.172 150.734 422.625C150.292 422.073 149.677 421.797 148.891 421.797C148.094 421.797 147.474 422.073 147.031 422.625C146.594 423.172 146.375 424.01 146.375 425.141C146.375 426.234 146.596 427.065 147.039 427.633C147.482 428.195 148.099 428.477 148.891 428.477C149.672 428.477 150.284 428.198 150.727 427.641C151.174 427.078 151.398 426.245 151.398 425.141ZM160.641 422.375H160.562C160.344 422.323 160.13 422.286 159.922 422.266C159.719 422.24 159.477 422.227 159.195 422.227C158.742 422.227 158.305 422.328 157.883 422.531C157.461 422.729 157.055 422.987 156.664 423.305V429.5H155.195V420.773H156.664V422.062C157.247 421.594 157.76 421.263 158.203 421.07C158.651 420.872 159.107 420.773 159.57 420.773C159.826 420.773 160.01 420.781 160.125 420.797C160.24 420.807 160.411 420.831 160.641 420.867V422.375ZM169.102 429.5H167.633V428.586C167.211 428.951 166.771 429.234 166.312 429.438C165.854 429.641 165.357 429.742 164.82 429.742C163.779 429.742 162.951 429.341 162.336 428.539C161.727 427.737 161.422 426.625 161.422 425.203C161.422 424.464 161.526 423.805 161.734 423.227C161.948 422.648 162.234 422.156 162.594 421.75C162.948 421.354 163.359 421.052 163.828 420.844C164.302 420.635 164.792 420.531 165.297 420.531C165.755 420.531 166.161 420.581 166.516 420.68C166.87 420.773 167.242 420.922 167.633 421.125V417.344H169.102V429.5ZM167.633 427.352V422.344C167.237 422.167 166.883 422.044 166.57 421.977C166.258 421.909 165.917 421.875 165.547 421.875C164.724 421.875 164.083 422.161 163.625 422.734C163.167 423.307 162.938 424.12 162.938 425.172C162.938 426.208 163.115 426.997 163.469 427.539C163.823 428.076 164.391 428.344 165.172 428.344C165.589 428.344 166.01 428.253 166.438 428.07C166.865 427.883 167.263 427.643 167.633 427.352ZM178.773 429.5H177.312V428.57C177.182 428.659 177.005 428.784 176.781 428.945C176.562 429.102 176.349 429.227 176.141 429.32C175.896 429.44 175.615 429.539 175.297 429.617C174.979 429.701 174.607 429.742 174.18 429.742C173.393 429.742 172.727 429.482 172.18 428.961C171.633 428.44 171.359 427.776 171.359 426.969C171.359 426.307 171.5 425.773 171.781 425.367C172.068 424.956 172.474 424.633 173 424.398C173.531 424.164 174.169 424.005 174.914 423.922C175.659 423.839 176.458 423.776 177.312 423.734V423.508C177.312 423.174 177.253 422.898 177.133 422.68C177.018 422.461 176.852 422.289 176.633 422.164C176.424 422.044 176.174 421.964 175.883 421.922C175.591 421.88 175.286 421.859 174.969 421.859C174.583 421.859 174.154 421.911 173.68 422.016C173.206 422.115 172.716 422.26 172.211 422.453H172.133V420.961C172.419 420.883 172.833 420.797 173.375 420.703C173.917 420.609 174.451 420.562 174.977 420.562C175.591 420.562 176.125 420.615 176.578 420.719C177.036 420.818 177.432 420.99 177.766 421.234C178.094 421.474 178.344 421.784 178.516 422.164C178.688 422.544 178.773 423.016 178.773 423.578V429.5ZM177.312 427.352V424.922C176.865 424.948 176.336 424.987 175.727 425.039C175.122 425.091 174.643 425.167 174.289 425.266C173.867 425.385 173.526 425.573 173.266 425.828C173.005 426.078 172.875 426.424 172.875 426.867C172.875 427.367 173.026 427.745 173.328 428C173.63 428.25 174.091 428.375 174.711 428.375C175.227 428.375 175.698 428.276 176.125 428.078C176.552 427.875 176.948 427.633 177.312 427.352ZM194.336 429.5H192.867V424.531C192.867 424.156 192.849 423.794 192.812 423.445C192.781 423.096 192.711 422.818 192.602 422.609C192.482 422.385 192.31 422.216 192.086 422.102C191.862 421.987 191.539 421.93 191.117 421.93C190.706 421.93 190.294 422.034 189.883 422.242C189.471 422.445 189.06 422.706 188.648 423.023C188.664 423.143 188.677 423.284 188.688 423.445C188.698 423.602 188.703 423.758 188.703 423.914V429.5H187.234V424.531C187.234 424.146 187.216 423.781 187.18 423.438C187.148 423.089 187.078 422.81 186.969 422.602C186.849 422.378 186.677 422.211 186.453 422.102C186.229 421.987 185.906 421.93 185.484 421.93C185.083 421.93 184.68 422.029 184.273 422.227C183.872 422.424 183.471 422.677 183.07 422.984V429.5H181.602V420.773H183.07V421.742C183.529 421.362 183.984 421.065 184.438 420.852C184.896 420.638 185.383 420.531 185.898 420.531C186.492 420.531 186.995 420.656 187.406 420.906C187.823 421.156 188.133 421.503 188.336 421.945C188.93 421.445 189.471 421.086 189.961 420.867C190.451 420.643 190.974 420.531 191.531 420.531C192.49 420.531 193.195 420.823 193.648 421.406C194.107 421.984 194.336 422.794 194.336 423.836V429.5Z" fill="#333333"/>
<path d="M30 469L37.5 476.5L50 461.5" stroke="#61B857" stroke-width="2" stroke-linecap="round" stroke-linejoin="round"/>
<path d="M73.3359 471.922C73.3359 472.5 73.2266 473.01 73.0078 473.453C72.7891 473.896 72.4948 474.26 72.125 474.547C71.6875 474.891 71.2057 475.135 70.6797 475.281C70.1589 475.427 69.4948 475.5 68.6875 475.5H64.5625V463.867H68.0078C68.8568 463.867 69.4922 463.898 69.9141 463.961C70.3359 464.023 70.7396 464.154 71.125 464.352C71.5521 464.576 71.862 464.865 72.0547 465.219C72.2474 465.568 72.3438 465.987 72.3438 466.477C72.3438 467.029 72.2031 467.5 71.9219 467.891C71.6406 468.276 71.2656 468.586 70.7969 468.82V468.883C71.5833 469.044 72.2031 469.391 72.6562 469.922C73.1094 470.448 73.3359 471.115 73.3359 471.922ZM70.7344 466.68C70.7344 466.398 70.6875 466.161 70.5938 465.969C70.5 465.776 70.349 465.62 70.1406 465.5C69.8958 465.359 69.599 465.273 69.25 465.242C68.901 465.206 68.4688 465.188 67.9531 465.188H66.1094V468.547H68.1094C68.5938 468.547 68.9792 468.523 69.2656 468.477C69.5521 468.424 69.8177 468.32 70.0625 468.164C70.3073 468.008 70.4792 467.807 70.5781 467.562C70.6823 467.312 70.7344 467.018 70.7344 466.68ZM71.7266 471.984C71.7266 471.516 71.6562 471.143 71.5156 470.867C71.375 470.591 71.1198 470.357 70.75 470.164C70.5 470.034 70.1953 469.951 69.8359 469.914C69.4818 469.872 69.0495 469.852 68.5391 469.852H66.1094V474.18H68.1562C68.8333 474.18 69.388 474.146 69.8203 474.078C70.2526 474.005 70.6068 473.875 70.8828 473.688C71.1745 473.484 71.388 473.253 71.5234 472.992C71.6589 472.732 71.7266 472.396 71.7266 471.984ZM82.8516 471.141C82.8516 472.562 82.487 473.685 81.7578 474.508C81.0286 475.331 80.0521 475.742 78.8281 475.742C77.5938 475.742 76.612 475.331 75.8828 474.508C75.1589 473.685 74.7969 472.562 74.7969 471.141C74.7969 469.719 75.1589 468.596 75.8828 467.773C76.612 466.945 77.5938 466.531 78.8281 466.531C80.0521 466.531 81.0286 466.945 81.7578 467.773C82.487 468.596 82.8516 469.719 82.8516 471.141ZM81.3359 471.141C81.3359 470.01 81.1146 469.172 80.6719 468.625C80.2292 468.073 79.6146 467.797 78.8281 467.797C78.0312 467.797 77.4115 468.073 76.9688 468.625C76.5312 469.172 76.3125 470.01 76.3125 471.141C76.3125 472.234 76.5339 473.065 76.9766 473.633C77.4193 474.195 78.0365 474.477 78.8281 474.477C79.6094 474.477 80.2214 474.198 80.6641 473.641C81.112 473.078 81.3359 472.245 81.3359 471.141ZM87.8516 465.312H86.1953V463.789H87.8516V465.312ZM87.7578 475.711C87.7578 476.732 87.4974 477.503 86.9766 478.023C86.4557 478.544 85.7578 478.805 84.8828 478.805C84.6745 478.805 84.3984 478.784 84.0547 478.742C83.7161 478.701 83.4323 478.648 83.2031 478.586V477.188H83.2812C83.4271 477.245 83.6224 477.31 83.8672 477.383C84.1172 477.456 84.3594 477.492 84.5938 477.492C84.9688 477.492 85.2708 477.44 85.5 477.336C85.7292 477.232 85.901 477.076 86.0156 476.867C86.1302 476.659 86.2031 476.406 86.2344 476.109C86.2708 475.818 86.2891 475.461 86.2891 475.039V468.008H84.4688V466.773H87.7578V475.711ZM98.2031 475.5H96.3516L93.875 472.148L91.3828 475.5H89.6719L93.0781 471.148L89.7031 466.773H91.5547L94.0156 470.07L96.4844 466.773H98.2031L94.7734 471.07L98.2031 475.5ZM107.367 471.141C107.367 472.562 107.003 473.685 106.273 474.508C105.544 475.331 104.568 475.742 103.344 475.742C102.109 475.742 101.128 475.331 100.398 474.508C99.6745 473.685 99.3125 472.562 99.3125 471.141C99.3125 469.719 99.6745 468.596 100.398 467.773C101.128 466.945 102.109 466.531 103.344 466.531C104.568 466.531 105.544 466.945 106.273 467.773C107.003 468.596 107.367 469.719 107.367 471.141ZM105.852 471.141C105.852 470.01 105.63 469.172 105.188 468.625C104.745 468.073 104.13 467.797 103.344 467.797C102.547 467.797 101.927 468.073 101.484 468.625C101.047 469.172 100.828 470.01 100.828 471.141C100.828 472.234 101.049 473.065 101.492 473.633C101.935 474.195 102.552 474.477 103.344 474.477C104.125 474.477 104.737 474.198 105.18 473.641C105.628 473.078 105.852 472.245 105.852 471.141ZM116.945 475.5H115.477V470.531C115.477 470.13 115.453 469.755 115.406 469.406C115.359 469.052 115.273 468.776 115.148 468.578C115.018 468.359 114.831 468.198 114.586 468.094C114.341 467.984 114.023 467.93 113.633 467.93C113.232 467.93 112.812 468.029 112.375 468.227C111.938 468.424 111.518 468.677 111.117 468.984V475.5H109.648V466.773H111.117V467.742C111.576 467.362 112.049 467.065 112.539 466.852C113.029 466.638 113.531 466.531 114.047 466.531C114.99 466.531 115.708 466.815 116.203 467.383C116.698 467.951 116.945 468.768 116.945 469.836V475.5ZM126.555 475.5H125.094V474.57C124.964 474.659 124.786 474.784 124.562 474.945C124.344 475.102 124.13 475.227 123.922 475.32C123.677 475.44 123.396 475.539 123.078 475.617C122.76 475.701 122.388 475.742 121.961 475.742C121.174 475.742 120.508 475.482 119.961 474.961C119.414 474.44 119.141 473.776 119.141 472.969C119.141 472.307 119.281 471.773 119.562 471.367C119.849 470.956 120.255 470.633 120.781 470.398C121.312 470.164 121.951 470.005 122.695 469.922C123.44 469.839 124.24 469.776 125.094 469.734V469.508C125.094 469.174 125.034 468.898 124.914 468.68C124.799 468.461 124.633 468.289 124.414 468.164C124.206 468.044 123.956 467.964 123.664 467.922C123.372 467.88 123.068 467.859 122.75 467.859C122.365 467.859 121.935 467.911 121.461 468.016C120.987 468.115 120.497 468.26 119.992 468.453H119.914V466.961C120.201 466.883 120.615 466.797 121.156 466.703C121.698 466.609 122.232 466.562 122.758 466.562C123.372 466.562 123.906 466.615 124.359 466.719C124.818 466.818 125.214 466.99 125.547 467.234C125.875 467.474 126.125 467.784 126.297 468.164C126.469 468.544 126.555 469.016 126.555 469.578V475.5ZM125.094 473.352V470.922C124.646 470.948 124.117 470.987 123.508 471.039C122.904 471.091 122.424 471.167 122.07 471.266C121.648 471.385 121.307 471.573 121.047 471.828C120.786 472.078 120.656 472.424 120.656 472.867C120.656 473.367 120.807 473.745 121.109 474C121.411 474.25 121.872 474.375 122.492 474.375C123.008 474.375 123.479 474.276 123.906 474.078C124.333 473.875 124.729 473.633 125.094 473.352ZM147.742 475.5H146.273V470.531C146.273 470.156 146.255 469.794 146.219 469.445C146.188 469.096 146.117 468.818 146.008 468.609C145.888 468.385 145.716 468.216 145.492 468.102C145.268 467.987 144.945 467.93 144.523 467.93C144.112 467.93 143.701 468.034 143.289 468.242C142.878 468.445 142.466 468.706 142.055 469.023C142.07 469.143 142.083 469.284 142.094 469.445C142.104 469.602 142.109 469.758 142.109 469.914V475.5H140.641V470.531C140.641 470.146 140.622 469.781 140.586 469.438C140.555 469.089 140.484 468.81 140.375 468.602C140.255 468.378 140.083 468.211 139.859 468.102C139.635 467.987 139.312 467.93 138.891 467.93C138.49 467.93 138.086 468.029 137.68 468.227C137.279 468.424 136.878 468.677 136.477 468.984V475.5H135.008V466.773H136.477V467.742C136.935 467.362 137.391 467.065 137.844 466.852C138.302 466.638 138.789 466.531 139.305 466.531C139.898 466.531 140.401 466.656 140.812 466.906C141.229 467.156 141.539 467.503 141.742 467.945C142.336 467.445 142.878 467.086 143.367 466.867C143.857 466.643 144.38 466.531 144.938 466.531C145.896 466.531 146.602 466.823 147.055 467.406C147.513 467.984 147.742 468.794 147.742 469.836V475.5ZM157.805 475.5H156.336V474.531C155.841 474.922 155.367 475.221 154.914 475.43C154.461 475.638 153.961 475.742 153.414 475.742C152.497 475.742 151.784 475.464 151.273 474.906C150.763 474.344 150.508 473.521 150.508 472.438V466.773H151.977V471.742C151.977 472.185 151.997 472.565 152.039 472.883C152.081 473.195 152.169 473.464 152.305 473.688C152.445 473.917 152.628 474.083 152.852 474.188C153.076 474.292 153.401 474.344 153.828 474.344C154.208 474.344 154.622 474.245 155.07 474.047C155.523 473.849 155.945 473.596 156.336 473.289V466.773H157.805V475.5ZM165.227 475.422C164.951 475.495 164.648 475.555 164.32 475.602C163.997 475.648 163.708 475.672 163.453 475.672C162.562 475.672 161.885 475.432 161.422 474.953C160.958 474.474 160.727 473.706 160.727 472.648V468.008H159.734V466.773H160.727V464.266H162.195V466.773H165.227V468.008H162.195V471.984C162.195 472.443 162.206 472.802 162.227 473.062C162.247 473.318 162.32 473.557 162.445 473.781C162.56 473.99 162.716 474.143 162.914 474.242C163.117 474.336 163.424 474.383 163.836 474.383C164.076 474.383 164.326 474.349 164.586 474.281C164.846 474.208 165.034 474.148 165.148 474.102H165.227V475.422ZM173.789 475.5H172.328V474.57C172.198 474.659 172.021 474.784 171.797 474.945C171.578 475.102 171.365 475.227 171.156 475.32C170.911 475.44 170.63 475.539 170.312 475.617C169.995 475.701 169.622 475.742 169.195 475.742C168.409 475.742 167.742 475.482 167.195 474.961C166.648 474.44 166.375 473.776 166.375 472.969C166.375 472.307 166.516 471.773 166.797 471.367C167.083 470.956 167.49 470.633 168.016 470.398C168.547 470.164 169.185 470.005 169.93 469.922C170.674 469.839 171.474 469.776 172.328 469.734V469.508C172.328 469.174 172.268 468.898 172.148 468.68C172.034 468.461 171.867 468.289 171.648 468.164C171.44 468.044 171.19 467.964 170.898 467.922C170.607 467.88 170.302 467.859 169.984 467.859C169.599 467.859 169.169 467.911 168.695 468.016C168.221 468.115 167.732 468.26 167.227 468.453H167.148V466.961C167.435 466.883 167.849 466.797 168.391 466.703C168.932 466.609 169.466 466.562 169.992 466.562C170.607 466.562 171.141 466.615 171.594 466.719C172.052 466.818 172.448 466.99 172.781 467.234C173.109 467.474 173.359 467.784 173.531 468.164C173.703 468.544 173.789 469.016 173.789 469.578V475.5ZM172.328 473.352V470.922C171.88 470.948 171.352 470.987 170.742 471.039C170.138 471.091 169.659 471.167 169.305 471.266C168.883 471.385 168.542 471.573 168.281 471.828C168.021 472.078 167.891 472.424 167.891 472.867C167.891 473.367 168.042 473.745 168.344 474C168.646 474.25 169.107 474.375 169.727 474.375C170.242 474.375 170.714 474.276 171.141 474.078C171.568 473.875 171.964 473.633 172.328 473.352ZM184.172 475.5H182.32L179.844 472.148L177.352 475.5H175.641L179.047 471.148L175.672 466.773H177.523L179.984 470.07L182.453 466.773H184.172L180.742 471.07L184.172 475.5ZM192.867 475.5H191.406V474.57C191.276 474.659 191.099 474.784 190.875 474.945C190.656 475.102 190.443 475.227 190.234 475.32C189.99 475.44 189.708 475.539 189.391 475.617C189.073 475.701 188.701 475.742 188.273 475.742C187.487 475.742 186.82 475.482 186.273 474.961C185.727 474.44 185.453 473.776 185.453 472.969C185.453 472.307 185.594 471.773 185.875 471.367C186.161 470.956 186.568 470.633 187.094 470.398C187.625 470.164 188.263 470.005 189.008 469.922C189.753 469.839 190.552 469.776 191.406 469.734V469.508C191.406 469.174 191.346 468.898 191.227 468.68C191.112 468.461 190.945 468.289 190.727 468.164C190.518 468.044 190.268 467.964 189.977 467.922C189.685 467.88 189.38 467.859 189.062 467.859C188.677 467.859 188.247 467.911 187.773 468.016C187.299 468.115 186.81 468.26 186.305 468.453H186.227V466.961C186.513 466.883 186.927 466.797 187.469 466.703C188.01 466.609 188.544 466.562 189.07 466.562C189.685 466.562 190.219 466.615 190.672 466.719C191.13 466.818 191.526 466.99 191.859 467.234C192.188 467.474 192.438 467.784 192.609 468.164C192.781 468.544 192.867 469.016 192.867 469.578V475.5ZM191.406 473.352V470.922C190.958 470.948 190.43 470.987 189.82 471.039C189.216 471.091 188.737 471.167 188.383 471.266C187.961 471.385 187.62 471.573 187.359 471.828C187.099 472.078 186.969 472.424 186.969 472.867C186.969 473.367 187.12 473.745 187.422 474C187.724 474.25 188.185 474.375 188.805 474.375C189.32 474.375 189.792 474.276 190.219 474.078C190.646 473.875 191.042 473.633 191.406 473.352ZM201.93 472.984C201.93 473.781 201.599 474.435 200.938 474.945C200.281 475.456 199.383 475.711 198.242 475.711C197.596 475.711 197.003 475.635 196.461 475.484C195.924 475.328 195.474 475.159 195.109 474.977V473.328H195.188C195.651 473.677 196.167 473.956 196.734 474.164C197.302 474.367 197.846 474.469 198.367 474.469C199.013 474.469 199.518 474.365 199.883 474.156C200.247 473.948 200.43 473.62 200.43 473.172C200.43 472.828 200.331 472.568 200.133 472.391C199.935 472.214 199.555 472.062 198.992 471.938C198.784 471.891 198.51 471.836 198.172 471.773C197.839 471.711 197.534 471.643 197.258 471.57C196.492 471.367 195.948 471.07 195.625 470.68C195.307 470.284 195.148 469.799 195.148 469.227C195.148 468.867 195.221 468.529 195.367 468.211C195.518 467.893 195.745 467.609 196.047 467.359C196.339 467.115 196.708 466.922 197.156 466.781C197.609 466.635 198.115 466.562 198.672 466.562C199.193 466.562 199.719 466.628 200.25 466.758C200.786 466.883 201.232 467.036 201.586 467.219V468.789H201.508C201.133 468.513 200.677 468.281 200.141 468.094C199.604 467.901 199.078 467.805 198.562 467.805C198.026 467.805 197.573 467.909 197.203 468.117C196.833 468.32 196.648 468.625 196.648 469.031C196.648 469.391 196.76 469.661 196.984 469.844C197.203 470.026 197.557 470.174 198.047 470.289C198.318 470.352 198.62 470.414 198.953 470.477C199.292 470.539 199.573 470.596 199.797 470.648C200.479 470.805 201.005 471.073 201.375 471.453C201.745 471.839 201.93 472.349 201.93 472.984ZM210.273 472.984C210.273 473.781 209.943 474.435 209.281 474.945C208.625 475.456 207.727 475.711 206.586 475.711C205.94 475.711 205.346 475.635 204.805 475.484C204.268 475.328 203.818 475.159 203.453 474.977V473.328H203.531C203.995 473.677 204.51 473.956 205.078 474.164C205.646 474.367 206.19 474.469 206.711 474.469C207.357 474.469 207.862 474.365 208.227 474.156C208.591 473.948 208.773 473.62 208.773 473.172C208.773 472.828 208.674 472.568 208.477 472.391C208.279 472.214 207.898 472.062 207.336 471.938C207.128 471.891 206.854 471.836 206.516 471.773C206.182 471.711 205.878 471.643 205.602 471.57C204.836 471.367 204.292 471.07 203.969 470.68C203.651 470.284 203.492 469.799 203.492 469.227C203.492 468.867 203.565 468.529 203.711 468.211C203.862 467.893 204.089 467.609 204.391 467.359C204.682 467.115 205.052 466.922 205.5 466.781C205.953 466.635 206.458 466.562 207.016 466.562C207.536 466.562 208.062 466.628 208.594 466.758C209.13 466.883 209.576 467.036 209.93 467.219V468.789H209.852C209.477 468.513 209.021 468.281 208.484 468.094C207.948 467.901 207.422 467.805 206.906 467.805C206.37 467.805 205.917 467.909 205.547 468.117C205.177 468.32 204.992 468.625 204.992 469.031C204.992 469.391 205.104 469.661 205.328 469.844C205.547 470.026 205.901 470.174 206.391 470.289C206.661 470.352 206.964 470.414 207.297 470.477C207.635 470.539 207.917 470.596 208.141 470.648C208.823 470.805 209.349 471.073 209.719 471.453C210.089 471.839 210.273 472.349 210.273 472.984ZM213.961 465.312H212.305V463.789H213.961V465.312ZM213.867 475.5H212.398V466.773H213.867V475.5ZM223.008 472.984C223.008 473.781 222.677 474.435 222.016 474.945C221.359 475.456 220.461 475.711 219.32 475.711C218.674 475.711 218.081 475.635 217.539 475.484C217.003 475.328 216.552 475.159 216.188 474.977V473.328H216.266C216.729 473.677 217.245 473.956 217.812 474.164C218.38 474.367 218.924 474.469 219.445 474.469C220.091 474.469 220.596 474.365 220.961 474.156C221.326 473.948 221.508 473.62 221.508 473.172C221.508 472.828 221.409 472.568 221.211 472.391C221.013 472.214 220.633 472.062 220.07 471.938C219.862 471.891 219.589 471.836 219.25 471.773C218.917 471.711 218.612 471.643 218.336 471.57C217.57 471.367 217.026 471.07 216.703 470.68C216.385 470.284 216.227 469.799 216.227 469.227C216.227 468.867 216.299 468.529 216.445 468.211C216.596 467.893 216.823 467.609 217.125 467.359C217.417 467.115 217.786 466.922 218.234 466.781C218.688 466.635 219.193 466.562 219.75 466.562C220.271 466.562 220.797 466.628 221.328 466.758C221.865 466.883 222.31 467.036 222.664 467.219V468.789H222.586C222.211 468.513 221.755 468.281 221.219 468.094C220.682 467.901 220.156 467.805 219.641 467.805C219.104 467.805 218.651 467.909 218.281 468.117C217.911 468.32 217.727 468.625 217.727 469.031C217.727 469.391 217.839 469.661 218.062 469.844C218.281 470.026 218.635 470.174 219.125 470.289C219.396 470.352 219.698 470.414 220.031 470.477C220.37 470.539 220.651 470.596 220.875 470.648C221.557 470.805 222.083 471.073 222.453 471.453C222.823 471.839 223.008 472.349 223.008 472.984ZM226.602 475.5H225.133V463.344H226.602V475.5ZM236.289 475.5H234.828V474.57C234.698 474.659 234.521 474.784 234.297 474.945C234.078 475.102 233.865 475.227 233.656 475.32C233.411 475.44 233.13 475.539 232.812 475.617C232.495 475.701 232.122 475.742 231.695 475.742C230.909 475.742 230.242 475.482 229.695 474.961C229.148 474.44 228.875 473.776 228.875 472.969C228.875 472.307 229.016 471.773 229.297 471.367C229.583 470.956 229.99 470.633 230.516 470.398C231.047 470.164 231.685 470.005 232.43 469.922C233.174 469.839 233.974 469.776 234.828 469.734V469.508C234.828 469.174 234.768 468.898 234.648 468.68C234.534 468.461 234.367 468.289 234.148 468.164C233.94 468.044 233.69 467.964 233.398 467.922C233.107 467.88 232.802 467.859 232.484 467.859C232.099 467.859 231.669 467.911 231.195 468.016C230.721 468.115 230.232 468.26 229.727 468.453H229.648V466.961C229.935 466.883 230.349 466.797 230.891 466.703C231.432 466.609 231.966 466.562 232.492 466.562C233.107 466.562 233.641 466.615 234.094 466.719C234.552 466.818 234.948 466.99 235.281 467.234C235.609 467.474 235.859 467.784 236.031 468.164C236.203 468.544 236.289 469.016 236.289 469.578V475.5ZM234.828 473.352V470.922C234.38 470.948 233.852 470.987 233.242 471.039C232.638 471.091 232.159 471.167 231.805 471.266C231.383 471.385 231.042 471.573 230.781 471.828C230.521 472.078 230.391 472.424 230.391 472.867C230.391 473.367 230.542 473.745 230.844 474C231.146 474.25 231.607 474.375 232.227 474.375C232.742 474.375 233.214 474.276 233.641 474.078C234.068 473.875 234.464 473.633 234.828 473.352ZM244.562 468.375H244.484C244.266 468.323 244.052 468.286 243.844 468.266C243.641 468.24 243.398 468.227 243.117 468.227C242.664 468.227 242.227 468.328 241.805 468.531C241.383 468.729 240.977 468.987 240.586 469.305V475.5H239.117V466.773H240.586V468.062C241.169 467.594 241.682 467.263 242.125 467.07C242.573 466.872 243.029 466.773 243.492 466.773C243.747 466.773 243.932 466.781 244.047 466.797C244.161 466.807 244.333 466.831 244.562 466.867V468.375ZM247.523 465.312H245.867V463.789H247.523V465.312ZM247.43 475.5H245.961V466.773H247.43V475.5ZM263.883 475.5H261.945L258.445 471.68L257.492 472.586V475.5H256.023V463.344H257.492V471.141L261.734 466.773H263.586L259.531 470.805L263.883 475.5ZM272.664 475.5H271.195V474.531C270.701 474.922 270.227 475.221 269.773 475.43C269.32 475.638 268.82 475.742 268.273 475.742C267.357 475.742 266.643 475.464 266.133 474.906C265.622 474.344 265.367 473.521 265.367 472.438V466.773H266.836V471.742C266.836 472.185 266.857 472.565 266.898 472.883C266.94 473.195 267.029 473.464 267.164 473.688C267.305 473.917 267.487 474.083 267.711 474.188C267.935 474.292 268.26 474.344 268.688 474.344C269.068 474.344 269.482 474.245 269.93 474.047C270.383 473.849 270.805 473.596 271.195 473.289V466.773H272.664V475.5ZM281 468.375H280.922C280.703 468.323 280.49 468.286 280.281 468.266C280.078 468.24 279.836 468.227 279.555 468.227C279.102 468.227 278.664 468.328 278.242 468.531C277.82 468.729 277.414 468.987 277.023 469.305V475.5H275.555V466.773H277.023V468.062C277.607 467.594 278.12 467.263 278.562 467.07C279.01 466.872 279.466 466.773 279.93 466.773C280.185 466.773 280.37 466.781 280.484 466.797C280.599 466.807 280.771 466.831 281 466.867V468.375ZM288.617 472.984C288.617 473.781 288.286 474.435 287.625 474.945C286.969 475.456 286.07 475.711 284.93 475.711C284.284 475.711 283.69 475.635 283.148 475.484C282.612 475.328 282.161 475.159 281.797 474.977V473.328H281.875C282.339 473.677 282.854 473.956 283.422 474.164C283.99 474.367 284.534 474.469 285.055 474.469C285.701 474.469 286.206 474.365 286.57 474.156C286.935 473.948 287.117 473.62 287.117 473.172C287.117 472.828 287.018 472.568 286.82 472.391C286.622 472.214 286.242 472.062 285.68 471.938C285.471 471.891 285.198 471.836 284.859 471.773C284.526 471.711 284.221 471.643 283.945 471.57C283.18 471.367 282.635 471.07 282.312 470.68C281.995 470.284 281.836 469.799 281.836 469.227C281.836 468.867 281.909 468.529 282.055 468.211C282.206 467.893 282.432 467.609 282.734 467.359C283.026 467.115 283.396 466.922 283.844 466.781C284.297 466.635 284.802 466.562 285.359 466.562C285.88 466.562 286.406 466.628 286.938 466.758C287.474 466.883 287.919 467.036 288.273 467.219V468.789H288.195C287.82 468.513 287.365 468.281 286.828 468.094C286.292 467.901 285.766 467.805 285.25 467.805C284.714 467.805 284.26 467.909 283.891 468.117C283.521 468.32 283.336 468.625 283.336 469.031C283.336 469.391 283.448 469.661 283.672 469.844C283.891 470.026 284.245 470.174 284.734 470.289C285.005 470.352 285.307 470.414 285.641 470.477C285.979 470.539 286.26 470.596 286.484 470.648C287.167 470.805 287.693 471.073 288.062 471.453C288.432 471.839 288.617 472.349 288.617 472.984ZM292.305 465.312H290.648V463.789H292.305V465.312ZM292.211 475.5H290.742V466.773H292.211V475.5Z" fill="#333333"/>
</g>
<defs>
<filter id="filter0_d_1763_11176" x="0" y="0" width="326" height="540" filterUnits="userSpaceOnUse" color-interpolation-filters="sRGB">
<feFlood flood-opacity="0" result="BackgroundImageFix"/>
<feColorMatrix in="SourceAlpha" type="matrix" values="0 0 0 0 0 0 0 0 0 0 0 0 0 0 0 0 0 0 127 0" result="hardAlpha"/>
<feOffset dx="3" dy="5"/>
<feGaussianBlur stdDeviation="10"/>
<feComposite in2="hardAlpha" operator="out"/>
<feColorMatrix type="matrix" values="0 0 0 0 0.2 0 0 0 0 0.2 0 0 0 0 0.2 0 0 0 0.1 0"/>
<feBlend mode="normal" in2="BackgroundImageFix" result="effect1_dropShadow_1763_11176"/>
<feBlend mode="normal" in="SourceGraphic" in2="effect1_dropShadow_1763_11176" result="shape"/>
</filter>
<filter id="filter1_d_1763_11176" x="22" y="28" width="112" height="112" filterUnits="userSpaceOnUse" color-interpolation-filters="sRGB">
<feFlood flood-opacity="0" result="BackgroundImageFix"/>
<feColorMatrix in="SourceAlpha" type="matrix" values="0 0 0 0 0 0 0 0 0 0 0 0 0 0 0 0 0 0 127 0" result="hardAlpha"/>
<feOffset dx="3" dy="3"/>
<feGaussianBlur stdDeviation="3"/>
<feComposite in2="hardAlpha" operator="out"/>
<feColorMatrix type="matrix" values="0 0 0 0 0.2 0 0 0 0 0.2 0 0 0 0 0.2 0 0 0 0.25 0"/>
<feBlend mode="normal" in2="BackgroundImageFix" result="effect1_dropShadow_1763_11176"/>
<feBlend mode="normal" in="SourceGraphic" in2="effect1_dropShadow_1763_11176" result="shape"/>
</filter>
</defs>
</svg>
